<?xml version="1.0" encoding="utf-8"?>
<!-- Generator: Adobe Illustrator 16.0.0, SVG Export Plug-In . SVG Version: 6.00 Build 0)  -->
<!DOCTYPE svg PUBLIC "-//W3C//DTD SVG 1.1//EN" "http://www.w3.org/Graphics/SVG/1.1/DTD/svg11.dtd">
<svg version="1.1" xmlns="http://www.w3.org/2000/svg" xmlns:xlink="http://www.w3.org/1999/xlink" x="0px" y="0px"
	 width="841.89px" height="595.28px" viewBox="0 0 841.89 595.28" enable-background="new 0 0 841.89 595.28" xml:space="preserve">
<metadata><?xpacket begin="﻿" id="W5M0MpCehiHzreSzNTczkc9d"?>
<x:xmpmeta xmlns:x="adobe:ns:meta/" x:xmptk="Adobe XMP Core 5.3-c011 66.145661, 2012/02/06-14:56:27        ">
   <rdf:RDF xmlns:rdf="http://www.w3.org/1999/02/22-rdf-syntax-ns#">
      <rdf:Description rdf:about=""
            xmlns:dc="http://purl.org/dc/elements/1.1/">
         <dc:format>image/svg+xml</dc:format>
         <dc:title>
            <rdf:Alt>
               <rdf:li xml:lang="x-default">New England Patriots</rdf:li>
               <rdf:li xml:lang="en_us">New England Patriots</rdf:li>
            </rdf:Alt>
         </dc:title>
         <dc:creator>
            <rdf:Seq>
               <rdf:li>Max O'Brien/Osprey Dawn</rdf:li>
            </rdf:Seq>
         </dc:creator>
      </rdf:Description>
      <rdf:Description rdf:about=""
            xmlns:xmp="http://ns.adobe.com/xap/1.0/"
            xmlns:xmpGImg="http://ns.adobe.com/xap/1.0/g/img/">
         <xmp:CreatorTool>Adobe Illustrator CS6 (Macintosh)</xmp:CreatorTool>
         <xmp:ModifyDate>2013-10-13T18:33:21+13:00</xmp:ModifyDate>
         <xmp:MetadataDate>2013-10-13T18:33:21+13:00</xmp:MetadataDate>
         <xmp:CreateDate>2013-10-13T18:33:21+13:00</xmp:CreateDate>
         <xmp:Thumbnails>
            <rdf:Alt>
               <rdf:li rdf:parseType="Resource">
                  <xmpGImg:width>256</xmpGImg:width>
                  <xmpGImg:height>184</xmpGImg:height>
                  <xmpGImg:format>JPEG</xmpGImg:format>
                  <xmpGImg:image>/9j/4AAQSkZJRgABAgEASABIAAD/7QAsUGhvdG9zaG9wIDMuMAA4QklNA+0AAAAAABAASAAAAAEA&#xA;AQBIAAAAAQAB/+4ADkFkb2JlAGTAAAAAAf/bAIQABgQEBAUEBgUFBgkGBQYJCwgGBggLDAoKCwoK&#xA;DBAMDAwMDAwQDA4PEA8ODBMTFBQTExwbGxscHx8fHx8fHx8fHwEHBwcNDA0YEBAYGhURFRofHx8f&#xA;Hx8fHx8fHx8fHx8fHx8fHx8fHx8fHx8fHx8fHx8fHx8fHx8fHx8fHx8fHx8f/8AAEQgAuAEAAwER&#xA;AAIRAQMRAf/EAaIAAAAHAQEBAQEAAAAAAAAAAAQFAwIGAQAHCAkKCwEAAgIDAQEBAQEAAAAAAAAA&#xA;AQACAwQFBgcICQoLEAACAQMDAgQCBgcDBAIGAnMBAgMRBAAFIRIxQVEGE2EicYEUMpGhBxWxQiPB&#xA;UtHhMxZi8CRygvElQzRTkqKyY3PCNUQnk6OzNhdUZHTD0uIIJoMJChgZhJRFRqS0VtNVKBry4/PE&#xA;1OT0ZXWFlaW1xdXl9WZ2hpamtsbW5vY3R1dnd4eXp7fH1+f3OEhYaHiImKi4yNjo+Ck5SVlpeYmZ&#xA;qbnJ2en5KjpKWmp6ipqqusra6voRAAICAQIDBQUEBQYECAMDbQEAAhEDBCESMUEFURNhIgZxgZEy&#xA;obHwFMHR4SNCFVJicvEzJDRDghaSUyWiY7LCB3PSNeJEgxdUkwgJChgZJjZFGidkdFU38qOzwygp&#xA;0+PzhJSktMTU5PRldYWVpbXF1eX1RlZmdoaWprbG1ub2R1dnd4eXp7fH1+f3OEhYaHiImKi4yNjo&#xA;+DlJWWl5iZmpucnZ6fkqOkpaanqKmqq6ytrq+v/aAAwDAQACEQMRAD8A8/5vXXuxV2KuxV2KuxV2&#xA;KuxV2KuxV2KuxV2KuxV2KuxV2KuxV2KuxV2KuxV2KuxV2KuxV2KuxV2KuxV2KuxV2KuxV2KuxV2K&#xA;uxV2KuxV2KuxV2KuxV2KuxVNvLnlTzB5kvGtNFsnu5I15zuKJFEn88srlY4126swyMpiPNkASyZP&#xA;KP5eaYI7TzB5oF1qdzMsP+4RfrNtZoaAzXE0ixrNQn7EJPT7WV8cjyHzZcIHMsX8zeXr3y9rdzpN&#xA;4UeSAqyTRnlHLFIokiljbukkbBh88sjLiFsSKSvJMXYq7FXYq7FXYq7FXYq7FXYq7FXYq7FXYq7F&#xA;XYq7FXYq7FXYq7FXYq7FXYq7FXYq7FXYqybyd5OXWFuNV1W4Om+V9NIOp6mRVix3W3t1P95PJ+yv&#xA;b7TbZXOdbDmyjG/cr+avP02o2Y0HQ7f9C+UoGrBpUTfFMw/3feSdZ5WoOvwr0UYwx1ud5JMug5MS&#xA;yxgzqcDzd5FiuE+LzD5QgENzH+1caRyPpygDq1o78G/4rKn9nKfpl5S+9nzHuYLlzB2KuxV2KuxV&#xA;2KuxV2KuxV2KuxV2KuxV2KuxV2KuxV2KuxV2KuxV2KuxV2KuxV2KuxVN/KXlm/8AM3mCz0WyKpLd&#xA;MfUnkNI4YkBeWaQmlFjRSxyM5CItlEWWR+b9Wl8xXUXlryhazSeVtBSQ2MESMWm9NSZ7+4CjeSXi&#xA;W3+ytFGVwHDvLmfxSZG9hyXS6h5B8sXl5b6dajzPFf6UkX1i7rE1pfSkSFolK8GEQoKOleY7CoLU&#xA;pc9t1sBW0668heal03TtUEHlWLSNOk+sahGHklvbiOj/ABCNPTHMK37HKtN36YkSjZG9pFHyYp5d&#xA;13UvK/mK21O3X/SLOQiW3kHwyRsCksMikfYkQlWHgcslESFMQaKO8/eX7HSdaSfSuTaDq0Kahozs&#xA;akW81f3TH+eGQNE3uuRxysb8wshTGssYuxV2KuxV2KuxV2KuxV2KuxV2KuxV2KuxV2KuxV2KuxV2&#xA;KuxV2KuxV2KuxV2KuxV6DppPlb8qrrVl+DV/OUr6bZP+0mmWpBvGUjp603GI+wOUn1TrpH72wbR9&#xA;6D/L67g0/T9c1G01O/sPMEdsYrCKzg9RJUcFnSWQCUopZFr8AHbkKmhyCyBWyIsLJJJJNSdyTlrF&#xA;Vsp3gvIJ415vFIrqlK8ipBpTfrgKsu8565a6v5il1jzFCo1GZUWfR9L428UJRQtHlZZeL1HJkCsa&#xA;kgspHEVwjQoMpGzunS+ftM0fyZpemxaJZ3xlma9tYtVijvRDaSySwXNvFIyI0YeW2V+S0YcjQ5Dw&#xA;yZE2nioMX/MDy/Y6NrsbaZzGjaraw6npSyHlIkFytfSc92hkV4yf8nLMciRvzYyFFjOWMXYq7FXY&#xA;q7FXYq7FXYq7FXYq7FXYq7FXYq7FXYq7FXYq7FXYq7FXYq7FXYq4Ak0HXFXqP5laRPdebNP8mWUf&#xA;qS6BYWGjWscfR7t0E07U6cmnnIOajPrDiMSP4iSfdyem7I7IjqsWaUjw+HEUfPn+ivixDS9b80+R&#xA;9b1C2hLWF/xm0/UoiqepwYFJIwzK/HxBG1QDvQZtDETDzYJCf/4F8teZ9cltvJeqoltbaet1cy6t&#xA;ItuWnSizJGnEO1QrSjipABAPHIeIYj1Blwg8mNaaP0PYnV5Rx1CblFpMZ2ZCPhkuqdf3f2Iz/vyp&#xA;BrGRkzuaYjZI8mxZBdwWmp/o6aK4hgtILWGG8DyIkkRiJWUrExDScvtgRg1r41AgNmTJvNUDeavJ&#xA;mi61pHpzSaFa3Fvrenoy/WbdGvZZ0n9L7bQUuAOYFFPXK4emRB6sjuHnOXtbsVdirsVdirsVdirs&#xA;VdirsVdirsVdirsVdirsVdirsVdirsVdirsVdirsVRWlTwW+qWdxOOUEM8ckq+KK4LDb2wHkkPpX&#xA;yXolpF/zkD5u1XV5FEGkrPrUDvuGhuFQxSrXqqRSHcdDTNFqIeqMz9Ij9oem0errRzwQ/vMmUfIj&#xA;b7Q8p82aZ5p/MfWvMfm/TrB5o7UfWbpUAqlstEiQU+06RLU03IBOHs3WSMjGX09PJzfaPsbDpsOO&#xA;UT+85Efzu+XwP2V3MJ07Trf01vb+5jhsaNWKKWNrmUiv7pYlLOnOn23UKBvvsDuye54wBRvLqfVL&#xA;8yuojTZUjQMY4YV2VVA5NxRfme5qcIFBXt/kTyGlx+Xlh5k8raJp+s6yEc39hqlvHdeuyT+mwU3E&#xA;0UUKqik/CpY18cwsmT1kSNBvjH02GC/nJpWtWmrWN5qflzTvLYvYXMNrpXD0T6T8WDemTHzSoDce&#xA;vXL8EgQaJLXkB7qer/mJ+aX5UxxWJ8vXSvq+jRILEwwM1vRU4PZyvxCvDPFWNwtR36jMbFhne/It&#xA;spx6PC/zD0Gx0bzRPHplf0Pexw6hpJbc/VLyNZ4lJ8UD8D7jMzHIkb82iQosayxi7FXYq7FXYq7F&#xA;XYq7FXYq7FXYq7FXYq7FXYq7FXYq7FXYq7FXYq7FXYqqQQTXE8cEKGSaVljijXcszGigfM4peqfm&#xA;DqGuWvn6503QJHuDomkQ+XZ0iq5mgt7MLeKQOvBuZ+a17ZrMk4SAxy55LPu7nd6DTZYA6uAuOCUb&#xA;Hf8Ajb5vW/LPmTSvIf8Azj7a61pbpLqWr8jDIKGt5MWX4v8AjAke48V981c4nBCj9TvYn+VdeCP7&#xA;oD/Yj9ZfOU3kDzjPpTeYLTSbq60d5HU3kMbSKGXduQUEhQTTlSldq1zcaLVjJAXtIOh7d7N/K6mU&#xA;I7xO48r6H8clPyJqdxYeYoI49OGpm7It2sioMhZmBRoiwIWVHUMpIpUUYFajMvIAY83Tx2L6T8m2&#xA;Xlyy8qx615aN6ui6tGa6JC5kKysvAiIc2kilZ/h2loT70I12QyMqPMdXJjVWHzvqw1vzRqlvpum6&#xA;bJAS08tppcUsjW8YArKY0mIEbUj/AHjV+Jt/bM3FMAEn7WGfCYkCwbF7G/7D3vY/zF8laPqv5BeX&#xA;dd0axitJNPsoLt44FABLIq3dT1JJ+Nid/g3yjHkIykHqso3B5b5WnPnTSV8l6hWXV7SKWTylek/G&#xA;rxqZX09yftRzBT6VfsvQDZsyZ+k8Q5df1tQ32YEQQSCKEbEHLmDWKHYq7FXYq7FXYq7FXYq7FXYq&#xA;7FXYq7FXYq7FXYq7FXYq7FXYq7FXYqz38rdPg0+W8896nEG0ryyBJaRv9m51Rx/oduvc0f8AevT7&#xA;Krv1ynMf4e/7myA6vS/+cdNBkm1jVvPuuSE22lxzzT3cm5e6nUvO9e/CJm5f6wzn5ZBkymf8Mdg9&#xA;xq8R02ix6Qf3uU8UvieXzof5rzlBr2rvDp9tG0eh6lq8n1GEL+5ivbvgDHUbCqAcR7HIZZyz4gf4&#xA;obH3Hk7PSYcXZmqlH+HJj4h5GN8Q+PMfJ6z+fPnfV/Iel2P5f6LDbQaJc6YI/XR2N2QH4vyX4Qiy&#xA;cWDH4uVTuN8zsekGSHADVVfueQh2iYaj8zkjx2ZEf1unwFh5x+T35c/mPresQeZNFsYIra3L+hqm&#xA;p8ltlc1UtGi/HKVqaUBUHqds2EzjhDgdTkyZM2Q5JfVIk/N6Zb/lfb+QNA1CfUvP5trK5ZZLuOKx&#xA;t3h9RSWVU+sfWCTVjQIAT4bZSc3GRUVEOEc3mDeevLUvnO41kalrTXMsEscurIbK0eQKhfisUcFF&#xA;9RkAqCG3y/w5cNUPtauIXbzhdU1JYXgS7mWCQcXhEjhCu4oVrQjfMmg12jtGtZ7aO116G5EX1TUI&#xA;Ym4krJGxBljkr4H03+7IyPTySO9NfzZs0tfzL8yRxx+lDJfzTwAfZMc7eqjp/kurhlptQ7YMJ9AT&#xA;PmWJZYwdirsVdirsVdirsVdirsVdirsVdirsVdirsVdirsVdirsVdirsVT7yf5Pv/M2oSQxSJZ6f&#xA;aJ6+qarcHjb2kANDJI3ieiKN2OwyE5iIZRjbO7WwufP2u6V5Q8o20lt5Y0wt9QSYfE1aevqN4V25&#xA;v2HYUVffS6zUEk447zP1Hu8v1vX9j9nwww/OagVCP0R6yPQ/q+fIb9G/OPzBpHk7ylafll5bb94U&#xA;VtWlH2+DEPxcj/dkzfE3gu3QjNdnkIR4B8Xddh6bJqs51mb/ADfx3R+/3JJ51M3kT8vfLPlW1b0f&#xA;Mtzcpr99IorJBMh/0cUP7QIC/wCwPjko5ThEe/mf1LHSR7TzZckv7uI4IHz53+OkqY75f8uan+Yv&#xA;5z6pcebFYw6fO8us2ysaL6L+nHZIw/ZqvGvXiGPXN/4nBj268v1vn+SAM6Buvxt5ffz2fR3nHzVo&#xA;nl7y8143+jaJpsKAwwpxCjkI440QcR3UKOmYUYmRrq2EgB8mfm/+Yy+c9ejaxMqaNZJwtIZfhLOd&#xA;5JSoJoW6D2GbPT4eAb83EyT4ix/yv5G83+aZmi8v6TcahwPGSSJaRIT0DytxjU/6zZZPJGPMsREn&#xA;kpeavKXmDypq7aRr1r9T1BESVouaSDjIKqQ8bOp8Nj1wwmJCwpiRzeueQPLv5L3/AJB1KwEt3q3m&#xA;a/gLzT/UWEunGNQyuhq0axiT7TerVxttuMxck5iQPIfe2xEa82MaJcDzLpdra695SvtYPl+39C41&#xA;uzuGt5YtPHxxBkaJ0keJGJjBNWSgpQVyyXpOxq2I35hhnm/y3J5d12fT/WW6tDSbTr6OhjubSTeG&#xA;dKEijr1FdjUdsthLiFsJCikuTYuxV2KuxV2KuxV2KuxV2KuxV2KuxV2KuxV2KuxV2KuxV2Kr4jEJ&#xA;UMys0QYeoqEKxWu4ViGANO9Dil7F5utbTU/J9hceSZUX8vbMxHVtOVSLy0vWHE3GqBfUeYN+xIo4&#xA;AbBR31uaOQggGsh6+Xl3O27My6eGUSzRMsY6Dv8AMdR+PJ6Q+u+T/wAn/JMdvoVzb6x5s1mFJxeJ&#xA;RkZHFUlJFaQr+wlfiO/jTTyIwiv43qsWLL2vm45enTx5fqHmep6MQ/LHy3HNNefmb51kZtG052uU&#xA;efd7285VXiD9uj/e23QHMfDD+OXIfa7ftbVECOj0/wDeS22/hj/Z9ip5IiufPHn3VPP/AJiATRNF&#xA;5ahdFyfTHoqWt7dT3CBATt0G+7ZLFE5J8R5NfaeSOh0kdPi/vJih/vpfH8clH/nGjVI7m/8AM4uH&#xA;5aldtBdOx6uvKXmfoeQV+edDrBsO58zwHm8//NHW/Mtn578y2El7cLbXM7xyWruzRtA9HiHBqrQL&#xA;xK7bdsyMMYmALXMmywPL2t6H+TH5r6h5C8xxmSR5PL166rqtn1AB29dB2kT2+0NvClGfCJjzbMc+&#xA;Esv/AOcmtG1nWPzAl1LS9Pub3TrKztra5vLeJpYklKtOFZ0DAfu5lO/jlelkBGiyyiyo/kl5z8ne&#xA;XfKmv2muP9XvTKZZk4M0s0BjWMRooFSUbmSOwavSuR1OOUpCk4pAA2lP5d+cItH8wXOo3Yun8pvc&#xA;M630kc4RHjUInqxxGS3V5EK8iI3blQKUryE8uOxX8TGEqPklf5rKjaZ5NuWAilm0mT0oAysRaG+u&#xA;JLVzxJC8o5OnUUod8nh5n3on0ee5e1uxV2KuxV2KuxV2KuxV2KuxV2KuxV2KuxV2KuxV2KuxV2Ku&#xA;xVOvKPm/XPKmsR6po8/pygcJ4XHKGeI/bhmTo6N3H0jfITgJCiyjIh6nY+Xvy6vNb0TzXNJJp/kL&#xA;W3mW8s1qRY6lbp6slkzCrCKUDlGV3ptQdc1Gs0ol6pfVHn5h6XsftrUYI+Dj9XHtG/4ZHu9/3/FM&#xA;tV1TXfza8yWXljy1a/o7ytptFtYAtI4IV+D6xPTblx+ytfYbknNQScshEcnscOHH2ZilmzHizT5n&#xA;qT/NH6S783vNOi+X/Lq/lt5Seun2NX1y8H2ri5XcozDrRlq/uAo2WmXRrjjjjy4hbgYcM5Ysuuz/&#xA;AFGEuAdwo1+ofPqkv/OOWharD5yu72aJ4LdNNDVYEc1unRoSPFWETGvtm/1chw15vnuEboL/AJyS&#xA;ms38928cKqJ4rGIXTgAEsXcqG8SEp9GS0d8HxRm5vJ8ymlwBJoOuKXr35ged/NvlVdF0Kx1a4sNf&#xA;tomvfMRtZmWlzcpHHDbTcTxka3tbeJTWorXMbHjjKyRt0bJSI2SFPz1/MiSMQ6newazbLQrb6naW&#xA;1ygYbBhyj5ct+tcn+Xh02R4hTbyj+cGt6t5iTSfOd+Z/Kmswvpd9ZokcFvbx3GyTxxRqkaNDJxbn&#xA;StK5GeEAXHmExnZ35ITV/L99J5d1nyjqAr5i8gzzXFoaUM2lyOPrKrX9mN2W4T/Id8MZbiQ5S+9B&#xA;G1dzzTL2t2KuxV2KuxV2KuxV2KuxV2KuxV2KuxV2KuxV2KuxV2KuxV2KuxV6N+VL/pzTfMHkGQgy&#xA;6zb/AF3Q6/s6pYAyxqp6L60XNCflmPnA2PTkfcW7FIg7bHmPeGXRfm9p+leQLLy35IsH07U7uFV1&#xA;7Um/3oNzTjIsZHxEk14sfsg0Ud853VjwSYR+b6F2Ppj2gfzWokJAGhHoK7/vrr1SHUvI13p8GlaB&#xA;doV83+aJUEdo27WNgW+KaYdVklIO37MatXc7ZXZum4byy6cnX+03bgzf4PhPo/iPf+z730jp2kWG&#xA;nRxpaxBBFbw2inv6NsGES/7Hm335YZEvLAU+QfzS1GW//MTzBPL9pL2W3H+rbH0F/wCFjGbfAKgH&#xA;DmfUWLZawZr+Wnl22mvpPNOtqY/K3l1lur+RhtcTIQ0NlH/NJM9AfBak5Vll0HMs4DqeTF9c1e71&#xA;nWb7V7wg3WoXEt1PTpzmcuwHtU7ZZEUKYk2gsKHYq9x0DUNK8x6p5V86f4g0rTdY0uBNP822eqz/&#xA;AFd7qCEGEyoGB+sGezbg4HfbMSQMQY0a6NwN0XjGqrYLql4unMz6es8gs3f7RhDn0y3uVpmULrdq&#xA;KFwodirsVdirsVdirsVdirsVdirsVdirsVdirsVdirsVdirsVdiqL0rVL3StTtNTsZDDeWUqT28g&#xA;/ZeNgyn7xgIsUUg09m1XzXZ+R/M+mfmHp2lWsp83WL30nl+9TjNZXZNPrMJ4sywyS/HGwpzUsNti&#xA;MLwBk2POPVy46nJjiREkRnzF80z/AC4tPNT6jf8An3WNDvtV8wamWZb27MOn2cEbbUSa7eOtVAUe&#xA;mhCqKDvjmquEGg1wvn1ZjL5+1tXpJJ5WstqrHc+YoC5Hj8EVMp8Ef0vkz4z5fN5P5z8gWmv67NrE&#xA;XmPyppLXjGS7jXWluUaVt2cKkPNeR3OxFfDMrHkMRVSPwapRs3skieXPyo0H/SNb8xyeZbhN10nR&#xA;YniiZu3qXtwFATx4IWyfFM8hXvY1EcykfnDz3qHmNbeyjt4tL0CwqNN0S0qLeGvV2r8UkrftSPuf&#xA;bJwxiPvYylbGcsYuxV2KuxV2KuxV2KuxV2KuxV2KuxV2KuxV2KuxV2KuxV2KuxV2KuxV2KuxV2Kv&#xA;RvyY8gSeZNVutVnsjf6dogjc2NeK3V1KSLeB2OyxVUvM37KKa9coz5OEV3tmONpr5n/MTSdC1u7v&#xA;NHMHmLznM5N75suY1ktbd12Eel2zgoqRgBVlcHYbChyMMZI32j3frSZUfN5rrnmPX9euzea1qFxq&#xA;Fyf92XEjSUr2UE0Uewy+MQOTWSSl2SQ7FXYq7FXYq7FXYq7FXYq7FXYq7FXYq7FXYq7FXYq7FXYq&#xA;7FXYq7FXYq7FXYq7FXYq7FXYqzrTPzBk0f8AKi88raZI0Woa1qUsmqSrUMLGOCFY4w3/ABbIXr7A&#xA;j9rKTjudnoGYlUaYLlzB2KuxV2KuxV2KuxV2KuxV2KuxV2KuxV2KuxV2KuxV2KuxV2KuxV2KuxV2&#xA;KuxV2KuxV2Kss8ia75S0uLV08w6auoNeWrxWDmNJDBMYpQkg5f5ZQH236gZXkjI1RZxIHNieWMGT&#xA;fmHq3lzVfMTXfl6BbXTWiRVt1t47UIwryHCL4W/1upyvGCBuykQTsmn5c+avJOi2epR+ZNFj1WeQ&#xA;pJpjvDHJ6boruefMbq0kcSlenEv45HLCRqjSYkDmwXLmDsVZJcar5df8vrTS47dV8wRajJPcXXoR&#xA;hntWiCon1j+8IV/2OnfIAHivpTKxSE8o6jouna/Bea1ZjUNNjScTWZAIkLwOkY36fvGX4uq9RuMM&#xA;wSNlid1LzTeaZfeZ9XvdKhFvpd1e3E1hbhFiEdvJKzRII1+FOKEDiNhjAEAWp5ptqmteVrj8vtG0&#xA;q0tXh8w2dxK+oT+jCEmR3kYP64rOTwaJAmyjiTStMiIniJ6JJFJV5Zm0eLVgdYJWwkt7qF5FiWdk&#xA;ea2kjhkEbMgYpKyt9oUpUZKV1sgJWwUMQp5KCeJIpUfLJIZJ5s1Pyte6VoEGjWz293p9p9V1KRkV&#xA;RO9FmM1V3J9aWVN9+Cr8hXAEE2mRCI/LbX/KeiazdXHmfTF1WwmtfRigaNJeExnhdZQH2HFY2r4i&#xA;q9GOOWMiNjSYEDmxLLGDKvOmueV9S03y7b6LYi2u7Cwjh1W5WCK39acRoGr6ZPqkOrt6r/E3Lfpl&#xA;cIkE2zkRsxXLGDsVdirsVdirsVdirsVdirsVdirsVdirsVVIbieBi0MjxMRQlGKkj6MaSiYta1mF&#xA;ucN/cRvSnJJXU0+YODhC2+n/ACh/zj/a615T0XWbnzbrkdxqdjbXkscdwAitcRLIVXkrGg5U3Oa+&#xA;eoqRFByI47HNG6p/zjMx0+f9FecdYXUOBNsbqflDzHQOIwrUPSo6eB6YBqt9wEnF5vJfyz0Pz35m&#xA;/Mm58n6v5l1a1Gm/WhqclteysyNat6JCMzMpHrFRWnTMnLKMYcQAaoAk1b0b8zPyf1fyx5H1TX9J&#xA;85+YLq809ElEE943ptH6irJXhxPwoS3XtlGLMJSAIDZOFC7Kt5G/KRPMPlXR9VuPPuvx32o2sVxL&#xA;bRX+yvInJlVTVtvfBkzcJI4QsYWOacXv5HabY8Prv5i6/a+pX0/W1FI+XGlacgK0qMiM5P8ACPky&#xA;8PzSXyN+Uc3mOx1O6k88eYAlnqt9YW7wXxKvDazmOOSpDVLKKmm2TyZuGvSOTGML6lPU/IW3m5pb&#xA;/mD5heUA7C+D07VIG/XIfmP6IZeH5lgPlH8tvNl5+Zmt+S9d86avTSrRLuG7sbuZfUEjR8OSyl+P&#xA;wybjx7nLp5YiAkAN2EYG6JQeseQfOJ/OCPyDo3nLVUtzapdy315dzu6px5ScVjZAx/lG3zwxyR4O&#xA;IgIMTxVb0qX8hrWAhJ/zB8wxyEVo1+Fr7gEZR+Y/ohs8PzLF/P8A+TPmvQ4LHUtI886vPpj3dpa6&#xA;hHc3UvrKt3cx26yQsjBGo0o+FgPGp6ZZjzxOxiGMsZHVl/8A0L3/AN/15l/6Tf8Am3KvzP8ARDLw&#xA;vMpT5u/JOfRfKmtazb+d/Mck+mWFzeRRyXp4M8ELSKrUANCV3pkoZ7kBwhEsdDmUo8g/8496tq/l&#xA;mz1bzF5s1OG71CNLmG3srhuKRSqHQO8nLk5B3psOm/XJZNSAaACI4rG5TDzL/wA41ahHo1xJ5c82&#xA;atLq8a8reC8uP3MhHVCyBCpbs3Tx8cEdUL3ApJxdxfL11q+uNMy3N9cvNGSjc5nYjielST3zYABx&#xA;rKEmuJ52DTSPKwFAXYsQPpw0qnih2KuxV2KuxV2KuxV2KuxV2KuxV2KuxV2Kvtqe5ubX/nG2G4tp&#xA;XguIvKtu8U0bFHVhYoQystCCPbNVX73/ADnM/g+DGf8AnE/W9Z1Xy7rr6nf3F88V5GI2uZXmKgxb&#xA;hS5amT1cQCKY4TYVPyJ0Mn8zfzO1112Gr3NjA/zu5ZZR+EeOol6IjyXGNyXpyXmk+dfLuuadEawN&#xA;JfaLd13AeMtA5H0HlmPRiQfi2cw+Q/yD0+4j/OfRYJuEMtnNceukrqh5JDIhVQxHJuR+yu+bPUH9&#xA;2XFxj1PT/wDnMiAm28pz80Aje+T0ywDnmLc8lXuo4fEe1R45j6Lq2Z+jOf8AnGKBIvylsis8cxlu&#xA;bl2WMkmMl6enICBR9q08CMq1X1s8X0o/8vfyc8seQNW1HzDZancTi8gdbhrpohCkZcSs/JVSlOPU&#xA;npkcmYzFUmMBHdjv5a67ovmb89/OWu6NeJdWC6fa2sbgMPUZSiu6VAqitCRXvUUqMnliY4wCxgbk&#xA;Sqiyh/6GkNx9ch9QaIG+rfH6hJqnH7PCoA5fa6Y3+5+Kf43mX/OXNoG/MLRpfWiBm0uOL0y1GThc&#xA;zHm/gjepsf8AJOX6M+k+9rzc3sH50adK35BanZpJE7wWViTKJFETC3ngdijtxDcgh4DqxoBucxsB&#xA;/eBtyD0vN/8AnDmCX635on4/uvTtE5VH2uUppTr0y/W9GvB1YB/zkraXMH5x61LNE0cd1HaS2zsC&#xA;BJGLSKIsp7jnGy/MHLtKfQGGX6n0hr1j5gvvyGgtPLomOsy6RYCzFs/pS8gsJbg9VoeIPfMGJAyb&#xA;8rbzfDs8V0b81Pzs/LXQXs9b8vz3FsbhpP0nq6Xb0aQBREJ+fCnwVArmVLFjyHY/JqE5RG7w24ma&#xA;eeSZgA0rs5A6Asa5mBpU8UOxV2KuxV2KuxV2KuxV2KuxV2KuxV2KuxVsGhBIrTse/wB2KX355Z1v&#xA;Qh+Vuk6xfRQ2Wiro9vPcwBWkghhFupeMKebMiD4e52zTSieMjrbmgjheaeYf+cnPy10TTbuLyhZt&#xA;eag4P1bhbfVbQydA8vL0pCB1oEqem3UZEdLMn1NZygcmS/kTKbD8rJfNGuSrFNq9zf69q1yyhQOc&#xA;jc5SFGwMcXLbtleo3nQ6bMsf02U8/Lzzn+V+sXOoab5JngaRHN9fx28EsCtJMQrSkyJGHZuIqRXI&#xA;ZITG8kxkDyeAz6CdE/5yugtwvGG51Rb2EjYFbuMzNT5O7L9GZvFeH4NNVNkH/OZX/TIf9vH/ALFc&#xA;r0XX4Jz9GXf84n/+Svl/7adx/wAm4sr1f1/Bnh+lLv8AnGv8wk1W11TyRqbiS406SaXTxJQ+pZvI&#xA;RJFQ9fTdv+BanQZLVY6qQRileyt+UvkZvJP5z+bNIiQDTbuxS+0tqj/ed56BKdf3bFk+gHuMGbJx&#xA;4wVhGpFSuL6xtv8AnK5WubiKBX0oRIZHVAZGj+FByIqx7DCB+5+K360w/On8hdT/ADB8y2utWerQ&#xA;2It7KOyaCaJ2rwlll5hlP/FtKUyODUCAqk5MfEbTD8+7caf+QmpWMsimSGHTrcGtA7R3UAPGvshP&#xA;yyOnN5AfeuT6Xl3/ADh7/wApJ5h/5g4v+TuZGt5Brwc2E/8AOSLu35za+GYkILNUBNaD6lCaD6ST&#xA;l2m/uwwy/Uzryp+aX5xflx5Vgh8xeV59U8v28cTWl/KzIIYJOIjRrmNZ4+PxBU5iorTwGUzxQmdj&#xA;uzE5RG4ez+Q/N+i/mx5Fu7i80ow2FxJLYXlhO3qK3FEYlXASo/eCjAAgjxGYuSBxy5t0ZcQfDF7E&#xA;kN7cRJ9iOR0WvgrEDNsHDUcKHYq7FXYq7FXYq7FXYq7FXYq7FXYq7FXYq7FX2YSB/wA4vVJp/wA6&#xA;1Tf3t6Zq/wDLfFy/4Pg+TfK2neWry/r5i1VtM02GjSiGGSe5mG9UhAX01O32pGAFejdM2MyQNg4w&#xA;A6vYPO//ADkJ5Yn/AC9l8jeUdJu4LI2kenw3t48aMsMZVWrGnqcy6KQSWHWvtmNj0x4uKRbZZRVB&#xA;5N5I89+YvJWrS6roMyQ3ksD2ztIgkUxuysfhbavJAcycmMSFFqjIjkv178xfOWu+ZIfMt/qLfpq2&#xA;VY7a8gRLdo1QsVC+kqdOZ364I44gUOSmRJtBeYPN/mjzF6H6d1W51P6rz+rfWZGk9P1OPPjyO3Lg&#xA;tflkowEeQUyJ5pdDe3kKcIZ5I0rXijsor8gcNIUSSTU9cKHYq7FU1svNnmqwKGx1m+tDGOKGC5mj&#xA;4gdhxYUyJgD0ZcRW6x5n8y62IxrWrXupiGvo/XLiW44V68fUZqV9sYwA5BBJKfflp+aOvfl9qVzf&#xA;aRBbXBvI1iuI7pXZSityHEo8ZBrkMuITG7KEzFkPnj8y/IXn5mvtc8vXGjeYSiqdX0yZJ1l4gKvr&#xA;W8ohDBVFBSTl70FMhjxShsDYZSmJc3sf5cfnF+XXnDyXF5U85zW1tdQwxWlzDfERW92kPERypIeK&#xA;qxKKxUkEN0zFy4ZRlxRbYzBFF6h5X0PyT5O8uTDQ2hsNA5veSTNcGSBSwAd/Vld6LRB+1TKJylI7&#xA;82wAAbPgLUHR9QuXQhkaVyrDoQWJBzcDk4RQ+FDsVdirsVdirsVdirsVdirsVdirsVdirsVdiqOv&#xA;dd1u/tbe0vb+4ubSzRY7S2lld4okUUVY0JKqAPAYBEBNlA4UOxV2KuxV2KuxV2KuxV2KuxV2KuxV&#xA;2KuxVVW6uUge3WV1t5CGkhDEIxXoWXoaY0lSxQ7FXYq7FXYq7FXYq7FXs3/Qp/5of790z/pIk/6p&#xA;Zi/m4ebd4Mnf9Cn/AJof790z/pIk/wCqWP5uHmvgyd/0Kf8Amh/v3TP+kiT/AKpY/m4ea+DJ3/Qp&#xA;/wCaH+/dM/6SJP8Aqlj+bh5r4Mnf9Cn/AJof790z/pIk/wCqWP5uHmvgyd/0Kf8Amh/v3TP+kiT/&#xA;AKpY/m4ea+DJ3/Qp/wCaH+/dM/6SJP8Aqlj+bh5r4Mnf9Cn/AJof790z/pIk/wCqWP5uHmvgyd/0&#xA;Kf8Amh/v3TP+kiT/AKpY/m4ea+DJ3/Qp/wCaH+/dM/6SJP8Aqlj+bh5r4Mnf9Cn/AJof790z/pIk&#xA;/wCqWP5uHmvgyd/0Kf8Amh/v3TP+kiT/AKpY/m4ea+DJ3/Qp/wCaH+/dM/6SJP8Aqlj+bh5r4Mnf&#xA;9Cn/AJof790z/pIk/wCqWP5uHmvgyd/0Kf8Amh/v3TP+kiT/AKpY/m4ea+DJ3/Qp/wCaH+/dM/6S&#xA;JP8Aqlj+bh5r4Mnf9Cn/AJof790z/pIk/wCqWP5uHmvgyd/0Kf8Amh/v3TP+kiT/AKpY/m4ea+DJ&#xA;3/Qp/wCaH+/dM/6SJP8Aqlj+bh5r4Mnf9Cn/AJof790z/pIk/wCqWP5uHmvgyd/0Kf8Amh/v3TP+&#xA;kiT/AKpY/m4ea+DJ3/Qp/wCaH+/dM/6SJP8Aqlj+bh5r4Mnf9Cn/AJof790z/pIk/wCqWP5uHmvg&#xA;yd/0Kf8Amh/v3TP+kiT/AKpY/m4ea+DJ3/Qp/wCaH+/dM/6SJP8Aqlj+bh5r4Mnf9Cn/AJof790z&#xA;/pIk/wCqWP5uHmvgyd/0Kf8Amh/v3TP+kiT/AKpY/m4ea+DJ3/Qp/wCaH+/dM/6SJP8Aqlj+bh5r&#xA;4Mnf9Cn/AJof790z/pIk/wCqWP5uHmvgyd/0Kf8Amh/v3TP+kiT/AKpY/m4ea+DJ3/Qp/wCaH+/d&#xA;M/6SJP8Aqlj+bh5r4Mnf9Cn/AJof790z/pIk/wCqWP5uHmvgyf/Z</xmpGImg:image>
               </rdf:li>
            </rdf:Alt>
         </xmp:Thumbnails>
      </rdf:Description>
      <rdf:Description rdf:about=""
            xmlns:xmpMM="http://ns.adobe.com/xap/1.0/mm/"
            xmlns:stRef="http://ns.adobe.com/xap/1.0/sType/ResourceRef#"
            xmlns:stEvt="http://ns.adobe.com/xap/1.0/sType/ResourceEvent#">
         <xmpMM:OriginalDocumentID>uuid:9E3E5C9A8C81DB118734DB58FDDE4BA7</xmpMM:OriginalDocumentID>
         <xmpMM:DocumentID>xmp.did:04801174072068118083F0F56E9005BF</xmpMM:DocumentID>
         <xmpMM:InstanceID>xmp.iid:04801174072068118083F0F56E9005BF</xmpMM:InstanceID>
         <xmpMM:RenditionClass>proof:pdf</xmpMM:RenditionClass>
         <xmpMM:DerivedFrom rdf:parseType="Resource">
            <stRef:instanceID>uuid:360e64bd-3103-0a43-b7b8-90c9878ce21f</stRef:instanceID>
            <stRef:documentID>xmp.did:018011740720681180839C0BEDD9E2E7</stRef:documentID>
            <stRef:originalDocumentID>uuid:9E3E5C9A8C81DB118734DB58FDDE4BA7</stRef:originalDocumentID>
            <stRef:renditionClass>proof:pdf</stRef:renditionClass>
         </xmpMM:DerivedFrom>
         <xmpMM:History>
            <rdf:Seq>
               <rdf:li rdf:parseType="Resource">
                  <stEvt:action>saved</stEvt:action>
                  <stEvt:instanceID>xmp.iid:018011740720681180839C0BEDD9E2E7</stEvt:instanceID>
                  <stEvt:when>2013-05-11T21:31+12:00</stEvt:when>
                  <stEvt:softwareAgent>Adobe Illustrator CS6 (Macintosh)</stEvt:softwareAgent>
                  <stEvt:changed>/</stEvt:changed>
               </rdf:li>
               <rdf:li rdf:parseType="Resource">
                  <stEvt:action>saved</stEvt:action>
                  <stEvt:instanceID>xmp.iid:04801174072068118083F0F56E9005BF</stEvt:instanceID>
                  <stEvt:when>2013-10-13T18:33:21+13:00</stEvt:when>
                  <stEvt:softwareAgent>Adobe Illustrator CS6 (Macintosh)</stEvt:softwareAgent>
                  <stEvt:changed>/</stEvt:changed>
               </rdf:li>
            </rdf:Seq>
         </xmpMM:History>
      </rdf:Description>
      <rdf:Description rdf:about=""
            xmlns:xmpTPg="http://ns.adobe.com/xap/1.0/t/pg/"
            xmlns:stDim="http://ns.adobe.com/xap/1.0/sType/Dimensions#"
            xmlns:xmpG="http://ns.adobe.com/xap/1.0/g/">
         <xmpTPg:NPages>1</xmpTPg:NPages>
         <xmpTPg:HasVisibleTransparency>False</xmpTPg:HasVisibleTransparency>
         <xmpTPg:HasVisibleOverprint>False</xmpTPg:HasVisibleOverprint>
         <xmpTPg:MaxPageSize rdf:parseType="Resource">
            <stDim:w>296.999959</stDim:w>
            <stDim:h>210.001652</stDim:h>
            <stDim:unit>Millimeters</stDim:unit>
         </xmpTPg:MaxPageSize>
         <xmpTPg:PlateNames>
            <rdf:Seq>
               <rdf:li>Cyan</rdf:li>
               <rdf:li>Magenta</rdf:li>
               <rdf:li>Yellow</rdf:li>
               <rdf:li>Black</rdf:li>
            </rdf:Seq>
         </xmpTPg:PlateNames>
         <xmpTPg:SwatchGroups>
            <rdf:Seq>
               <rdf:li rdf:parseType="Resource">
                  <xmpG:groupName>Default Swatch Group</xmpG:groupName>
                  <xmpG:groupType>0</xmpG:groupType>
                  <xmpG:Colorants>
                     <rdf:Seq>
                        <rdf:li rdf:parseType="Resource">
                           <xmpG:swatchName>White</xmpG:swatchName>
                           <xmpG:mode>RGB</xmpG:mode>
                           <xmpG:type>PROCESS</xmpG:type>
                           <xmpG:red>255</xmpG:red>
                           <xmpG:green>255</xmpG:green>
                           <xmpG:blue>255</xmpG:blue>
                        </rdf:li>
                        <rdf:li rdf:parseType="Resource">
                           <xmpG:swatchName>Black</xmpG:swatchName>
                           <xmpG:mode>RGB</xmpG:mode>
                           <xmpG:type>PROCESS</xmpG:type>
                           <xmpG:red>0</xmpG:red>
                           <xmpG:green>0</xmpG:green>
                           <xmpG:blue>0</xmpG:blue>
                        </rdf:li>
                        <rdf:li rdf:parseType="Resource">
                           <xmpG:swatchName>RGB Red</xmpG:swatchName>
                           <xmpG:mode>RGB</xmpG:mode>
                           <xmpG:type>PROCESS</xmpG:type>
                           <xmpG:red>255</xmpG:red>
                           <xmpG:green>0</xmpG:green>
                           <xmpG:blue>0</xmpG:blue>
                        </rdf:li>
                        <rdf:li rdf:parseType="Resource">
                           <xmpG:swatchName>RGB Yellow</xmpG:swatchName>
                           <xmpG:mode>RGB</xmpG:mode>
                           <xmpG:type>PROCESS</xmpG:type>
                           <xmpG:red>255</xmpG:red>
                           <xmpG:green>255</xmpG:green>
                           <xmpG:blue>0</xmpG:blue>
                        </rdf:li>
                        <rdf:li rdf:parseType="Resource">
                           <xmpG:swatchName>RGB Green</xmpG:swatchName>
                           <xmpG:mode>RGB</xmpG:mode>
                           <xmpG:type>PROCESS</xmpG:type>
                           <xmpG:red>0</xmpG:red>
                           <xmpG:green>255</xmpG:green>
                           <xmpG:blue>0</xmpG:blue>
                        </rdf:li>
                        <rdf:li rdf:parseType="Resource">
                           <xmpG:swatchName>RGB Cyan</xmpG:swatchName>
                           <xmpG:mode>RGB</xmpG:mode>
                           <xmpG:type>PROCESS</xmpG:type>
                           <xmpG:red>0</xmpG:red>
                           <xmpG:green>255</xmpG:green>
                           <xmpG:blue>255</xmpG:blue>
                        </rdf:li>
                        <rdf:li rdf:parseType="Resource">
                           <xmpG:swatchName>RGB Blue</xmpG:swatchName>
                           <xmpG:mode>RGB</xmpG:mode>
                           <xmpG:type>PROCESS</xmpG:type>
                           <xmpG:red>0</xmpG:red>
                           <xmpG:green>0</xmpG:green>
                           <xmpG:blue>255</xmpG:blue>
                        </rdf:li>
                        <rdf:li rdf:parseType="Resource">
                           <xmpG:swatchName>RGB Magenta</xmpG:swatchName>
                           <xmpG:mode>RGB</xmpG:mode>
                           <xmpG:type>PROCESS</xmpG:type>
                           <xmpG:red>255</xmpG:red>
                           <xmpG:green>0</xmpG:green>
                           <xmpG:blue>255</xmpG:blue>
                        </rdf:li>
                        <rdf:li rdf:parseType="Resource">
                           <xmpG:swatchName>R=193 G=39 B=45</xmpG:swatchName>
                           <xmpG:mode>RGB</xmpG:mode>
                           <xmpG:type>PROCESS</xmpG:type>
                           <xmpG:red>193</xmpG:red>
                           <xmpG:green>39</xmpG:green>
                           <xmpG:blue>45</xmpG:blue>
                        </rdf:li>
                        <rdf:li rdf:parseType="Resource">
                           <xmpG:swatchName>R=237 G=28 B=36</xmpG:swatchName>
                           <xmpG:mode>RGB</xmpG:mode>
                           <xmpG:type>PROCESS</xmpG:type>
                           <xmpG:red>237</xmpG:red>
                           <xmpG:green>28</xmpG:green>
                           <xmpG:blue>36</xmpG:blue>
                        </rdf:li>
                        <rdf:li rdf:parseType="Resource">
                           <xmpG:swatchName>R=241 G=90 B=36</xmpG:swatchName>
                           <xmpG:mode>RGB</xmpG:mode>
                           <xmpG:type>PROCESS</xmpG:type>
                           <xmpG:red>241</xmpG:red>
                           <xmpG:green>90</xmpG:green>
                           <xmpG:blue>36</xmpG:blue>
                        </rdf:li>
                        <rdf:li rdf:parseType="Resource">
                           <xmpG:swatchName>R=247 G=147 B=30</xmpG:swatchName>
                           <xmpG:mode>RGB</xmpG:mode>
                           <xmpG:type>PROCESS</xmpG:type>
                           <xmpG:red>247</xmpG:red>
                           <xmpG:green>147</xmpG:green>
                           <xmpG:blue>30</xmpG:blue>
                        </rdf:li>
                        <rdf:li rdf:parseType="Resource">
                           <xmpG:swatchName>R=251 G=176 B=59</xmpG:swatchName>
                           <xmpG:mode>RGB</xmpG:mode>
                           <xmpG:type>PROCESS</xmpG:type>
                           <xmpG:red>251</xmpG:red>
                           <xmpG:green>176</xmpG:green>
                           <xmpG:blue>59</xmpG:blue>
                        </rdf:li>
                        <rdf:li rdf:parseType="Resource">
                           <xmpG:swatchName>R=252 G=238 B=33</xmpG:swatchName>
                           <xmpG:mode>RGB</xmpG:mode>
                           <xmpG:type>PROCESS</xmpG:type>
                           <xmpG:red>252</xmpG:red>
                           <xmpG:green>238</xmpG:green>
                           <xmpG:blue>33</xmpG:blue>
                        </rdf:li>
                        <rdf:li rdf:parseType="Resource">
                           <xmpG:swatchName>R=217 G=224 B=33</xmpG:swatchName>
                           <xmpG:mode>RGB</xmpG:mode>
                           <xmpG:type>PROCESS</xmpG:type>
                           <xmpG:red>217</xmpG:red>
                           <xmpG:green>224</xmpG:green>
                           <xmpG:blue>33</xmpG:blue>
                        </rdf:li>
                        <rdf:li rdf:parseType="Resource">
                           <xmpG:swatchName>R=140 G=198 B=63</xmpG:swatchName>
                           <xmpG:mode>RGB</xmpG:mode>
                           <xmpG:type>PROCESS</xmpG:type>
                           <xmpG:red>140</xmpG:red>
                           <xmpG:green>198</xmpG:green>
                           <xmpG:blue>63</xmpG:blue>
                        </rdf:li>
                        <rdf:li rdf:parseType="Resource">
                           <xmpG:swatchName>R=57 G=181 B=74</xmpG:swatchName>
                           <xmpG:mode>RGB</xmpG:mode>
                           <xmpG:type>PROCESS</xmpG:type>
                           <xmpG:red>57</xmpG:red>
                           <xmpG:green>181</xmpG:green>
                           <xmpG:blue>74</xmpG:blue>
                        </rdf:li>
                        <rdf:li rdf:parseType="Resource">
                           <xmpG:swatchName>R=0 G=146 B=69</xmpG:swatchName>
                           <xmpG:mode>RGB</xmpG:mode>
                           <xmpG:type>PROCESS</xmpG:type>
                           <xmpG:red>0</xmpG:red>
                           <xmpG:green>146</xmpG:green>
                           <xmpG:blue>69</xmpG:blue>
                        </rdf:li>
                        <rdf:li rdf:parseType="Resource">
                           <xmpG:swatchName>R=0 G=104 B=55</xmpG:swatchName>
                           <xmpG:mode>RGB</xmpG:mode>
                           <xmpG:type>PROCESS</xmpG:type>
                           <xmpG:red>0</xmpG:red>
                           <xmpG:green>104</xmpG:green>
                           <xmpG:blue>55</xmpG:blue>
                        </rdf:li>
                        <rdf:li rdf:parseType="Resource">
                           <xmpG:swatchName>R=34 G=181 B=115</xmpG:swatchName>
                           <xmpG:mode>RGB</xmpG:mode>
                           <xmpG:type>PROCESS</xmpG:type>
                           <xmpG:red>34</xmpG:red>
                           <xmpG:green>181</xmpG:green>
                           <xmpG:blue>115</xmpG:blue>
                        </rdf:li>
                        <rdf:li rdf:parseType="Resource">
                           <xmpG:swatchName>R=0 G=169 B=157</xmpG:swatchName>
                           <xmpG:mode>RGB</xmpG:mode>
                           <xmpG:type>PROCESS</xmpG:type>
                           <xmpG:red>0</xmpG:red>
                           <xmpG:green>169</xmpG:green>
                           <xmpG:blue>157</xmpG:blue>
                        </rdf:li>
                        <rdf:li rdf:parseType="Resource">
                           <xmpG:swatchName>R=41 G=171 B=226</xmpG:swatchName>
                           <xmpG:mode>RGB</xmpG:mode>
                           <xmpG:type>PROCESS</xmpG:type>
                           <xmpG:red>41</xmpG:red>
                           <xmpG:green>171</xmpG:green>
                           <xmpG:blue>226</xmpG:blue>
                        </rdf:li>
                        <rdf:li rdf:parseType="Resource">
                           <xmpG:swatchName>R=0 G=113 B=188</xmpG:swatchName>
                           <xmpG:mode>RGB</xmpG:mode>
                           <xmpG:type>PROCESS</xmpG:type>
                           <xmpG:red>0</xmpG:red>
                           <xmpG:green>113</xmpG:green>
                           <xmpG:blue>188</xmpG:blue>
                        </rdf:li>
                        <rdf:li rdf:parseType="Resource">
                           <xmpG:swatchName>R=46 G=49 B=146</xmpG:swatchName>
                           <xmpG:mode>RGB</xmpG:mode>
                           <xmpG:type>PROCESS</xmpG:type>
                           <xmpG:red>46</xmpG:red>
                           <xmpG:green>49</xmpG:green>
                           <xmpG:blue>146</xmpG:blue>
                        </rdf:li>
                        <rdf:li rdf:parseType="Resource">
                           <xmpG:swatchName>R=27 G=20 B=100</xmpG:swatchName>
                           <xmpG:mode>RGB</xmpG:mode>
                           <xmpG:type>PROCESS</xmpG:type>
                           <xmpG:red>27</xmpG:red>
                           <xmpG:green>20</xmpG:green>
                           <xmpG:blue>100</xmpG:blue>
                        </rdf:li>
                        <rdf:li rdf:parseType="Resource">
                           <xmpG:swatchName>R=102 G=45 B=145</xmpG:swatchName>
                           <xmpG:mode>RGB</xmpG:mode>
                           <xmpG:type>PROCESS</xmpG:type>
                           <xmpG:red>102</xmpG:red>
                           <xmpG:green>45</xmpG:green>
                           <xmpG:blue>145</xmpG:blue>
                        </rdf:li>
                        <rdf:li rdf:parseType="Resource">
                           <xmpG:swatchName>R=147 G=39 B=143</xmpG:swatchName>
                           <xmpG:mode>RGB</xmpG:mode>
                           <xmpG:type>PROCESS</xmpG:type>
                           <xmpG:red>147</xmpG:red>
                           <xmpG:green>39</xmpG:green>
                           <xmpG:blue>143</xmpG:blue>
                        </rdf:li>
                        <rdf:li rdf:parseType="Resource">
                           <xmpG:swatchName>R=158 G=0 B=93</xmpG:swatchName>
                           <xmpG:mode>RGB</xmpG:mode>
                           <xmpG:type>PROCESS</xmpG:type>
                           <xmpG:red>158</xmpG:red>
                           <xmpG:green>0</xmpG:green>
                           <xmpG:blue>93</xmpG:blue>
                        </rdf:li>
                        <rdf:li rdf:parseType="Resource">
                           <xmpG:swatchName>R=212 G=20 B=90</xmpG:swatchName>
                           <xmpG:mode>RGB</xmpG:mode>
                           <xmpG:type>PROCESS</xmpG:type>
                           <xmpG:red>212</xmpG:red>
                           <xmpG:green>20</xmpG:green>
                           <xmpG:blue>90</xmpG:blue>
                        </rdf:li>
                        <rdf:li rdf:parseType="Resource">
                           <xmpG:swatchName>R=237 G=30 B=121</xmpG:swatchName>
                           <xmpG:mode>RGB</xmpG:mode>
                           <xmpG:type>PROCESS</xmpG:type>
                           <xmpG:red>237</xmpG:red>
                           <xmpG:green>30</xmpG:green>
                           <xmpG:blue>121</xmpG:blue>
                        </rdf:li>
                        <rdf:li rdf:parseType="Resource">
                           <xmpG:swatchName>R=199 G=178 B=153</xmpG:swatchName>
                           <xmpG:mode>RGB</xmpG:mode>
                           <xmpG:type>PROCESS</xmpG:type>
                           <xmpG:red>199</xmpG:red>
                           <xmpG:green>178</xmpG:green>
                           <xmpG:blue>153</xmpG:blue>
                        </rdf:li>
                        <rdf:li rdf:parseType="Resource">
                           <xmpG:swatchName>R=153 G=134 B=117</xmpG:swatchName>
                           <xmpG:mode>RGB</xmpG:mode>
                           <xmpG:type>PROCESS</xmpG:type>
                           <xmpG:red>153</xmpG:red>
                           <xmpG:green>134</xmpG:green>
                           <xmpG:blue>117</xmpG:blue>
                        </rdf:li>
                        <rdf:li rdf:parseType="Resource">
                           <xmpG:swatchName>R=115 G=99 B=87</xmpG:swatchName>
                           <xmpG:mode>RGB</xmpG:mode>
                           <xmpG:type>PROCESS</xmpG:type>
                           <xmpG:red>115</xmpG:red>
                           <xmpG:green>99</xmpG:green>
                           <xmpG:blue>87</xmpG:blue>
                        </rdf:li>
                        <rdf:li rdf:parseType="Resource">
                           <xmpG:swatchName>R=83 G=71 B=65</xmpG:swatchName>
                           <xmpG:mode>RGB</xmpG:mode>
                           <xmpG:type>PROCESS</xmpG:type>
                           <xmpG:red>83</xmpG:red>
                           <xmpG:green>71</xmpG:green>
                           <xmpG:blue>65</xmpG:blue>
                        </rdf:li>
                        <rdf:li rdf:parseType="Resource">
                           <xmpG:swatchName>R=198 G=156 B=109</xmpG:swatchName>
                           <xmpG:mode>RGB</xmpG:mode>
                           <xmpG:type>PROCESS</xmpG:type>
                           <xmpG:red>198</xmpG:red>
                           <xmpG:green>156</xmpG:green>
                           <xmpG:blue>109</xmpG:blue>
                        </rdf:li>
                        <rdf:li rdf:parseType="Resource">
                           <xmpG:swatchName>R=166 G=124 B=82</xmpG:swatchName>
                           <xmpG:mode>RGB</xmpG:mode>
                           <xmpG:type>PROCESS</xmpG:type>
                           <xmpG:red>166</xmpG:red>
                           <xmpG:green>124</xmpG:green>
                           <xmpG:blue>82</xmpG:blue>
                        </rdf:li>
                        <rdf:li rdf:parseType="Resource">
                           <xmpG:swatchName>R=140 G=98 B=57</xmpG:swatchName>
                           <xmpG:mode>RGB</xmpG:mode>
                           <xmpG:type>PROCESS</xmpG:type>
                           <xmpG:red>140</xmpG:red>
                           <xmpG:green>98</xmpG:green>
                           <xmpG:blue>57</xmpG:blue>
                        </rdf:li>
                        <rdf:li rdf:parseType="Resource">
                           <xmpG:swatchName>R=117 G=76 B=36</xmpG:swatchName>
                           <xmpG:mode>RGB</xmpG:mode>
                           <xmpG:type>PROCESS</xmpG:type>
                           <xmpG:red>117</xmpG:red>
                           <xmpG:green>76</xmpG:green>
                           <xmpG:blue>36</xmpG:blue>
                        </rdf:li>
                        <rdf:li rdf:parseType="Resource">
                           <xmpG:swatchName>R=96 G=56 B=19</xmpG:swatchName>
                           <xmpG:mode>RGB</xmpG:mode>
                           <xmpG:type>PROCESS</xmpG:type>
                           <xmpG:red>96</xmpG:red>
                           <xmpG:green>56</xmpG:green>
                           <xmpG:blue>19</xmpG:blue>
                        </rdf:li>
                        <rdf:li rdf:parseType="Resource">
                           <xmpG:swatchName>R=66 G=33 B=11</xmpG:swatchName>
                           <xmpG:mode>RGB</xmpG:mode>
                           <xmpG:type>PROCESS</xmpG:type>
                           <xmpG:red>66</xmpG:red>
                           <xmpG:green>33</xmpG:green>
                           <xmpG:blue>11</xmpG:blue>
                        </rdf:li>
                     </rdf:Seq>
                  </xmpG:Colorants>
               </rdf:li>
               <rdf:li rdf:parseType="Resource">
                  <xmpG:groupName>Cold</xmpG:groupName>
                  <xmpG:groupType>1</xmpG:groupType>
                  <xmpG:Colorants>
                     <rdf:Seq>
                        <rdf:li rdf:parseType="Resource">
                           <xmpG:swatchName>C=56 M=0 Y=20 K=0</xmpG:swatchName>
                           <xmpG:mode>RGB</xmpG:mode>
                           <xmpG:type>PROCESS</xmpG:type>
                           <xmpG:red>101</xmpG:red>
                           <xmpG:green>200</xmpG:green>
                           <xmpG:blue>208</xmpG:blue>
                        </rdf:li>
                        <rdf:li rdf:parseType="Resource">
                           <xmpG:swatchName>C=51 M=43 Y=0 K=0</xmpG:swatchName>
                           <xmpG:mode>RGB</xmpG:mode>
                           <xmpG:type>PROCESS</xmpG:type>
                           <xmpG:red>131</xmpG:red>
                           <xmpG:green>139</xmpG:green>
                           <xmpG:blue>197</xmpG:blue>
                        </rdf:li>
                        <rdf:li rdf:parseType="Resource">
                           <xmpG:swatchName>C=26 M=41 Y=0 K=0</xmpG:swatchName>
                           <xmpG:mode>RGB</xmpG:mode>
                           <xmpG:type>PROCESS</xmpG:type>
                           <xmpG:red>186</xmpG:red>
                           <xmpG:green>155</xmpG:green>
                           <xmpG:blue>201</xmpG:blue>
                        </rdf:li>
                     </rdf:Seq>
                  </xmpG:Colorants>
               </rdf:li>
               <rdf:li rdf:parseType="Resource">
                  <xmpG:groupName>Grays</xmpG:groupName>
                  <xmpG:groupType>1</xmpG:groupType>
                  <xmpG:Colorants>
                     <rdf:Seq>
                        <rdf:li rdf:parseType="Resource">
                           <xmpG:swatchName>R=0 G=0 B=0</xmpG:swatchName>
                           <xmpG:mode>RGB</xmpG:mode>
                           <xmpG:type>PROCESS</xmpG:type>
                           <xmpG:red>0</xmpG:red>
                           <xmpG:green>0</xmpG:green>
                           <xmpG:blue>0</xmpG:blue>
                        </rdf:li>
                        <rdf:li rdf:parseType="Resource">
                           <xmpG:swatchName>R=26 G=26 B=26</xmpG:swatchName>
                           <xmpG:mode>RGB</xmpG:mode>
                           <xmpG:type>PROCESS</xmpG:type>
                           <xmpG:red>26</xmpG:red>
                           <xmpG:green>26</xmpG:green>
                           <xmpG:blue>26</xmpG:blue>
                        </rdf:li>
                        <rdf:li rdf:parseType="Resource">
                           <xmpG:swatchName>R=51 G=51 B=51</xmpG:swatchName>
                           <xmpG:mode>RGB</xmpG:mode>
                           <xmpG:type>PROCESS</xmpG:type>
                           <xmpG:red>51</xmpG:red>
                           <xmpG:green>51</xmpG:green>
                           <xmpG:blue>51</xmpG:blue>
                        </rdf:li>
                        <rdf:li rdf:parseType="Resource">
                           <xmpG:swatchName>R=77 G=77 B=77</xmpG:swatchName>
                           <xmpG:mode>RGB</xmpG:mode>
                           <xmpG:type>PROCESS</xmpG:type>
                           <xmpG:red>77</xmpG:red>
                           <xmpG:green>77</xmpG:green>
                           <xmpG:blue>77</xmpG:blue>
                        </rdf:li>
                        <rdf:li rdf:parseType="Resource">
                           <xmpG:swatchName>R=102 G=102 B=102</xmpG:swatchName>
                           <xmpG:mode>RGB</xmpG:mode>
                           <xmpG:type>PROCESS</xmpG:type>
                           <xmpG:red>102</xmpG:red>
                           <xmpG:green>102</xmpG:green>
                           <xmpG:blue>102</xmpG:blue>
                        </rdf:li>
                        <rdf:li rdf:parseType="Resource">
                           <xmpG:swatchName>R=128 G=128 B=128</xmpG:swatchName>
                           <xmpG:mode>RGB</xmpG:mode>
                           <xmpG:type>PROCESS</xmpG:type>
                           <xmpG:red>128</xmpG:red>
                           <xmpG:green>128</xmpG:green>
                           <xmpG:blue>128</xmpG:blue>
                        </rdf:li>
                        <rdf:li rdf:parseType="Resource">
                           <xmpG:swatchName>R=153 G=153 B=153</xmpG:swatchName>
                           <xmpG:mode>RGB</xmpG:mode>
                           <xmpG:type>PROCESS</xmpG:type>
                           <xmpG:red>153</xmpG:red>
                           <xmpG:green>153</xmpG:green>
                           <xmpG:blue>153</xmpG:blue>
                        </rdf:li>
                        <rdf:li rdf:parseType="Resource">
                           <xmpG:swatchName>R=179 G=179 B=179</xmpG:swatchName>
                           <xmpG:mode>RGB</xmpG:mode>
                           <xmpG:type>PROCESS</xmpG:type>
                           <xmpG:red>179</xmpG:red>
                           <xmpG:green>179</xmpG:green>
                           <xmpG:blue>179</xmpG:blue>
                        </rdf:li>
                        <rdf:li rdf:parseType="Resource">
                           <xmpG:swatchName>R=204 G=204 B=204</xmpG:swatchName>
                           <xmpG:mode>RGB</xmpG:mode>
                           <xmpG:type>PROCESS</xmpG:type>
                           <xmpG:red>204</xmpG:red>
                           <xmpG:green>204</xmpG:green>
                           <xmpG:blue>204</xmpG:blue>
                        </rdf:li>
                        <rdf:li rdf:parseType="Resource">
                           <xmpG:swatchName>R=230 G=230 B=230</xmpG:swatchName>
                           <xmpG:mode>RGB</xmpG:mode>
                           <xmpG:type>PROCESS</xmpG:type>
                           <xmpG:red>230</xmpG:red>
                           <xmpG:green>230</xmpG:green>
                           <xmpG:blue>230</xmpG:blue>
                        </rdf:li>
                        <rdf:li rdf:parseType="Resource">
                           <xmpG:swatchName>R=242 G=242 B=242</xmpG:swatchName>
                           <xmpG:mode>RGB</xmpG:mode>
                           <xmpG:type>PROCESS</xmpG:type>
                           <xmpG:red>242</xmpG:red>
                           <xmpG:green>242</xmpG:green>
                           <xmpG:blue>242</xmpG:blue>
                        </rdf:li>
                     </rdf:Seq>
                  </xmpG:Colorants>
               </rdf:li>
            </rdf:Seq>
         </xmpTPg:SwatchGroups>
      </rdf:Description>
      <rdf:Description rdf:about=""
            xmlns:pdf="http://ns.adobe.com/pdf/1.3/">
         <pdf:Producer>Adobe PDF library 10.01</pdf:Producer>
      </rdf:Description>
      <rdf:Description rdf:about=""
            xmlns:xmpRights="http://ns.adobe.com/xap/1.0/rights/">
         <xmpRights:Marked>True</xmpRights:Marked>
         <xmpRights:WebStatement rdf:resource="http://www.ospreydawn.com"/>
         <xmpRights:UsageTerms>
            <rdf:Alt>
               <rdf:li xml:lang="x-default">This work is licensed under a &lt;a rel="license" href="http://creativecommons.org/licenses/by-nc-sa/3.0/"&gt;Creative Commons Attribution-NonCommercial-ShareAlike 3.0 Unported License&lt;/a&gt;.</rdf:li>
               <rdf:li xml:lang="en_us">This work is licensed under a &lt;a rel="license" href="http://creativecommons.org/licenses/by-nc-sa/3.0/"&gt;Creative Commons Attribution-NonCommercial-ShareAlike 3.0 Unported License&lt;/a&gt;.</rdf:li>
               <rdf:li xml:lang="en">This work is licensed under a &lt;a rel="license" href="http://creativecommons.org/licenses/by-nc-sa/3.0/"&gt;Creative Commons Attribution-NonCommercial-ShareAlike 3.0 Unported License&lt;/a&gt;.</rdf:li>
            </rdf:Alt>
         </xmpRights:UsageTerms>
      </rdf:Description>
      <rdf:Description rdf:about=""
            xmlns:cc="http://creativecommons.org/ns#">
         <cc:attributionName>Max O'Brien / Osprey Dawn</cc:attributionName>
         <cc:license rdf:resource="http://creativecommons.org/licenses/by-nc-sa/3.0/"/>
      </rdf:Description>
   </rdf:RDF>
</x:xmpmeta>
                                                                                                    
                                                                                                    
                                                                                                    
                                                                                                    
                                                                                                    
                                                                                                    
                                                                                                    
                                                                                                    
                                                                                                    
                                                                                                    
                                                                                                    
                                                                                                    
                                                                                                    
                                                                                                    
                                                                                                    
                                                                                                    
                                                                                                    
                                                                                                    
                                                                                                    
                                                                                                    
                           
<?xpacket end="w"?>
	</metadata>
<g id="Layer_3">
	<rect fill="#0C234D" width="841.89" height="595.28"/>
</g>
<g id="Layer_2">
	<g>
		<g>
			<g>
				<path fill="#FFFFFF" d="M225.293,424.266h1.929l4.451,8.521v-8.521h2.006v13.373h-1.795l-4.585-8.826v8.826h-2.006V424.266z"/>
				<path fill="#FFFFFF" d="M264.62,424.266h6.744v1.91h-4.7v3.783h4.184v1.892h-4.184v3.878h4.776v1.91h-6.82V424.266z"/>
				<path fill="#FFFFFF" d="M301.176,424.266h2.159l1.948,9.495l2.121-9.514h1.834l2.121,9.514l1.949-9.495h2.121l-3.038,13.449
					h-1.987l-2.102-9.266l-2.121,9.266h-1.968L301.176,424.266z"/>
				<path fill="#FFFFFF" d="M377.919,424.266h6.744v1.91h-4.7v3.783h4.184v1.892h-4.184v3.878h4.776v1.91h-6.82V424.266z"/>
				<path fill="#FFFFFF" d="M415.239,424.266h1.93l4.451,8.521v-8.521h2.006v13.373h-1.795l-4.585-8.826v8.826h-2.006V424.266z"/>
				<path fill="#FFFFFF" d="M454.184,431.086v-0.268c0-4.126,2.197-6.705,5.254-6.705c1.242,0,2.273,0.362,3.248,1.185l-1.146,1.7
					c-0.439-0.478-1.108-0.937-2.082-0.937c-1.815,0-3.172,1.776-3.172,4.757v0.229c0,3.286,1.414,4.853,3.21,4.853
					c0.554,0,1.051-0.153,1.375-0.382v-3.458h-2.12v-1.815h4.05v6.438c-0.936,0.611-2.063,1.107-3.438,1.107
					C456.381,437.791,454.184,435.461,454.184,431.086z"/>
				<path fill="#FFFFFF" d="M493.568,424.266h2.062v11.463h4.279v1.91h-6.342V424.266z"/>
				<path fill="#FFFFFF" d="M533.066,424.209h2.082l3.84,13.43h-2.12l-0.841-3.076h-3.916l-0.821,3.076h-2.044L533.066,424.209z
					 M535.531,432.729l-1.452-5.368l-1.471,5.368H535.531z"/>
				<path fill="#FFFFFF" d="M569.108,424.266h1.93l4.451,8.521v-8.521h2.006v13.373h-1.796l-4.585-8.826v8.826h-2.006V424.266z"/>
				<path fill="#FFFFFF" d="M608.436,424.266h3.075c3.382,0,5.502,2.445,5.502,6.534v0.286c0,4.088-2.12,6.553-5.502,6.553h-3.075
					V424.266z M610.498,426.138v9.629h0.975c2.044,0,3.42-1.548,3.42-4.7v-0.21c0-3.171-1.395-4.719-3.42-4.719H610.498z"/>
			</g>
		</g>
		<g>
			<path fill-rule="evenodd" clip-rule="evenodd" fill="#FFFFFF" d="M615.075,484.001c-0.149-3.033-0.26-5.285-0.397-8.087
				c-5.232-0.316-10.425-0.261-15.913,0.003c0,6.23,0,12.208,0,18.478c7.427,1.035,14.737,2.055,22.716,3.167
				c3.208,3.516,6.759,7.407,10.44,11.442c0,12.64,0,25.33,0,38.272c-3.643,2.309-7.186,4.554-10.504,6.657
				c-8.956-2.374-17.482-4.45-25.873-6.976c-2.322-0.698-4.384-2.568-6.308-4.203c-1.945-1.654-3.43-3.854-5.381-5.503
				c-1.923-1.625-2.73-3.491-2.683-5.933c0.067-3.445,0.018-6.894,0.018-10.715c6.015,1.123,11.413,2.133,16.85,3.147
				c0.248,2.53,0.451,4.599,0.695,7.081c5.171,1.242,10.263,2.466,16.078,3.863c0.06-3.77,0.129-6.874,0.153-9.979
				c0.024-3.167,0.005-6.334,0.005-9.64c-7.405-2.984-15.144-2.593-22.743-4.4c-3.442-3.198-7.086-6.585-10.911-10.141
				c0-10.949,0-21.982,0-33.425c3.402-2.806,7.002-5.774,10.592-8.735c9.65,0,19.191,0,29.223,0
				c3.473,3.306,7.176,6.83,10.946,10.42c0,4.903,0,9.707,0,15.038C626.469,484.312,620.975,484.014,615.075,484.001z"/>
			<path fill-rule="evenodd" clip-rule="evenodd" fill="#FFFFFF" d="M231.873,551.188c-6.012,1.851-11.167,3.437-16.987,5.229
				c-0.537-15.228-0.085-29.85-0.42-44.748c-1.35-0.964-2.788-1.991-4.654-3.324c1.488-1.375,2.88-2.66,4.63-4.278
				c0-14.767,0-29.879,0-44.878c3.573-1.153,29.168-1.534,40.855-0.686c3.356,2.799,6.913,5.765,10.33,8.614
				c0,12.846,0,25.259,0,38.263c-2.974,3.025-6.222,6.329-10.06,10.233c-7.265,1.42-15.231,2.978-23.693,4.632
				C231.873,530.605,231.873,540.848,231.873,551.188z M232.441,475.971c-0.86,5.059-0.753,22.471,0.137,25.806
				c5.213,0,10.445,0,15.622,0c0.882-4.374,0.767-22.35-0.128-25.806C242.854,475.971,237.625,475.971,232.441,475.971z"/>
			<path fill-rule="evenodd" clip-rule="evenodd" fill="#FFFFFF" d="M282.059,538.777c-10.278,2.291-20.661,4.604-31.043,6.919
				c-0.1-0.193-0.2-0.388-0.299-0.581c5.441-3.784,10.883-7.568,15.821-11.002c2.893-13.254,5.608-25.793,8.369-38.323
				c2.724-12.357,5.492-24.706,8.281-37.245c8.301,0,16.245,0,24.374,0c5.783,24.105,11.518,48.012,17.388,72.479
				c-5.2,2.593-11.054,2.258-17.192,2.989c-1.396-5.159-2.723-10.065-4.205-15.541c-5.48,0.629-10.96,1.259-16.817,1.932
				C285.224,526.342,283.744,532.154,282.059,538.777z M295.825,485.334c-0.306-0.011-0.611-0.022-0.917-0.033
				c-1.522,6.249-3.045,12.498-4.625,18.986c3.468,0,6.378,0,9.843,0C298.625,497.676,297.225,491.505,295.825,485.334z"/>
			<path fill-rule="evenodd" clip-rule="evenodd" fill="#FFFFFF" d="M519.414,523.395c-3.241,1.924-6.213,3.688-9.567,5.679
				c-5.058,0.069-10.461,0.29-15.895-0.771c-3.542-0.692-7.223-0.817-10.847-0.899c-6.07-0.139-11.54-2.122-17.343-5.322
				c0-8.636,0-17.683,0-26.953c-1.204-0.993-2.239-1.849-3.539-2.921c1.044-0.981,2.078-1.957,3.321-3.125
				c0-7.714,0-15.581,0-23.728c3.522-2.358,7.008-4.689,10.455-6.998c10.719,0,21.323,0,32.161,0
				c3.341,2.29,6.815,4.673,10.751,7.372c1.272,8.419,0.085,17.216,0.673,26.195c0.735,0.841,1.601,1.829,2.652,3.032
				c-0.903,1.023-1.755,1.986-2.823,3.194C519.414,506.237,519.414,514.565,519.414,523.395z M501.716,490.222
				c0-6.391,0-12.078,0-17.853c-6.295,0-12.265,0-18.45,0c0,5.979,0,11.688,0,17.412c0.971,1.079,1.95,2.17,2.982,3.318
				c-1.19,1.039-2.182,1.903-2.975,2.596c0,6.328,0,12.326,0,18.706c6.35-0.038,12.373,1.334,18.662,1.065
				c0-6.182,0-11.761,0-17.676c-0.991-1.306-2.135-2.813-3.238-4.269C499.843,492.27,500.857,491.16,501.716,490.222z"/>
			<path fill-rule="evenodd" clip-rule="evenodd" fill="#FFFFFF" d="M394.666,526.353c-6.183,0-11.442,0-17.14,0
				c0-10.004,0-19.799,0-29.499c-1.379-1.445-2.502-2.622-3.894-4.081c1.052-1.179,2.11-2.364,3.592-4.025c0-9.623,0-19.73,0-30.28
				c13.688-0.432,26.97-0.065,40.136-0.224c3.698,2.398,7.229,4.689,10.892,7.064c0,8.206,0,16.36,0,25.048
				c-3.392,2.408-7.035,4.998-10.863,7.72c4.712,8.913,9.324,17.638,13.968,26.422c-0.852,0.487-1.222,0.883-1.595,0.887
				c-5.295,0.04-10.59,0.026-16.478,0.026c-4.771-8.677-9.63-17.514-14.596-26.546c-1.113,0-2.261,0-4.023,0
				C394.666,507.959,394.666,516.965,394.666,526.353z M410.76,485.067c0-4.483,0-8.502,0-12.777
				c-5.457-0.284-10.635-0.313-15.829-0.024c0,4.53,0,8.545,0,12.802C400.263,485.067,405.328,485.067,410.76,485.067z"/>
			<path fill-rule="evenodd" clip-rule="evenodd" fill="#FFFFFF" d="M540.9,473.094c-5.79,0-11.169,0-16.791,0
				c0-5.022,0-9.512,0-13.986c3.132-1.029,42.641-1.396,50.758-0.419c0.57,4.493,0.232,9.101,0.183,14.262
				c-5.429,0-10.649,0-16.188,0c-0.683,3.906-0.331,7.359-0.396,10.775c-0.066,3.482-0.016,6.967-0.016,10.642
				c1.103,1.32,2.236,2.681,3.613,4.33c-1.132,1.047-2.195,2.03-3.512,3.246c0,8.636,0,17.558,0,26.979
				c6.044,5.291,13.966,8.279,21.229,13.792c-13.236-2.861-25.712-5.558-38.525-8.327c0-11.548,0-23.038,0-34.422
				c-1.092-1.209-1.969-2.178-2.974-3.29c0.913-1.026,1.693-1.903,2.618-2.944C540.9,487.246,540.9,480.598,540.9,473.094z"/>
			<path fill-rule="evenodd" clip-rule="evenodd" fill="#FFFFFF" d="M354.433,497.253c0,10.555,0,21.426,0,32.733
				c-5.716,0.461-11.081,0.148-17.02,0.195c-0.225-5.566-0.11-10.817-0.14-16.06c-0.031-5.298-0.007-10.597-0.007-15.949
				c-1.153-1.044-2.232-2.021-3.56-3.221c1.103-1.21,2.069-2.271,3.267-3.583c0-6.06,0-12.369,0-19.166c-5.519,0-10.896,0-16.69,0
				c-0.393-4.758-0.455-9.036,0.049-13.631c16.931,0,33.647,0,50.677,0c0,4.379,0,8.554,0,13.242c-5.151,0-10.376,0-16.155,0
				c-0.085,3.43-0.188,6.382-0.224,9.334c-0.037,3.027-0.008,6.053-0.008,9.188c0.909,0.998,1.812,1.99,2.794,3.069
				C356.539,494.537,355.632,495.705,354.433,497.253z"/>
			<path fill-rule="evenodd" clip-rule="evenodd" fill="#FFFFFF" d="M436.667,488.935c0-10,0-19.968,0-30.5
				c3.164-0.059,6.126-0.133,9.091-0.161c2.85-0.027,5.699-0.007,8.929-0.007c0.699,5.448,0.245,10.555,0.32,15.632
				c0.075,4.995,0.017,9.991,0.017,15.17c0.854,0.899,1.759,1.851,2.916,3.067c-0.941,0.893-1.746,1.655-3.015,2.856
				c0,9.606,0,19.715,0,30.318c-3.211,0.082-6.029,0.181-8.848,0.215c-2.867,0.036-5.734,0.009-8.683,0.009
				c-1.461-3.417-0.621-6.768-0.77-10.016c-0.16-3.476-0.057-6.964-0.061-10.447c-0.006-3.331-0.002-6.661-0.002-10.177
				c-0.591-0.896-1.237-1.873-1.964-2.977C435.206,491.043,435.791,490.198,436.667,488.935z"/>
		</g>
		<g>
			<path fill="#FFFFFF" d="M173.686,448.29c0,0,7.727-0.061,21.249-0.167c13.522-0.095,32.839-0.23,56.02-0.394
				c23.181-0.09,50.225-0.193,79.2-0.306c28.976-0.042,59.883-0.088,90.791-0.133c30.908,0.045,61.815,0.09,90.791,0.132
				c28.976,0.111,56.02,0.215,79.2,0.305c23.181,0.086,42.498,0.309,56.02,0.395c13.522,0.106,21.249,0.168,21.249,0.168
				s-7.727,0.062-21.249,0.168c-13.521,0.086-32.839,0.309-56.02,0.395c-23.181,0.09-50.225,0.193-79.2,0.305
				c-28.976,0.042-59.883,0.087-90.791,0.132c-30.907-0.045-61.815-0.091-90.791-0.133c-28.976-0.112-56.02-0.216-79.2-0.306
				c-23.181-0.163-42.498-0.299-56.02-0.394C181.413,448.351,173.686,448.29,173.686,448.29z"/>
		</g>
	</g>
	<g>
		<path fill="#FFFFFF" d="M300.324,415.254c-2.019-13.551,2.58-24.654,2.636-24.787c4.917-9.832,14.131-20.811,19.185-26.455
			l1.744-1.955l-1.652-2.027c-7.757-9.49-12.608-21.641-16.89-32.354c-3.662-9.186-7.12-17.854-11.61-22.977
			c-10.766-12.268-25.584-24.057-27.232-25.365l-5.381-4.197l5.491-3.97c2.336-1.728,22.826-17.239,37.337-40.265
			c11.817-18.764,14.901-36.608,15.68-43.407l0.123-1.071l-0.573-0.911c-7.04-11.19-3.789-27.272-3.064-30.383
			c0.77-4.656,8.023-44.716,37.713-77.638c23.006-25.51,41.077-32.942,49.805-35.098l1.107-0.277l0.66-0.932
			c1.726-2.44,4.631-3.784,8.179-3.784c0.344,0,0.702,0.005,1.088,0.03c2.365,0.179,4.479,1.22,5.942,2.942
			c0.599,0.692,1.076,1.474,1.435,2.335l0.318,0.768l0.667,0.498c2.008,1.523,3.626,4.087,4.804,7.622
			c2.141,6.42,8.668,16.607,16.976,29.258c6.372,9.699,11.841,20.989,14.524,26.854l1.298,2.826l2.807-1.34
			c0.926-0.438,1.944-0.656,3.047-0.656c6.584,0,12.072,8.696,14.772,16.154c2.759,7.622,2.753,15.373,2.509,19.324l-0.062,0.985
			l0.528,0.842c0.548,0.871,1.101,1.862,1.616,2.953l0.506,1.085l1.096,0.447c4.1,1.692,8.345,6.233,12.969,13.895
			c3.769,6.234,6.283,12.507,7.463,18.645l0.18,0.911l0.649,0.657c1.394,1.421,3.329,3.54,6.06,6.716
			c7.01,8.209,8.494,11.64,9.01,13.711c0.479,2.031,1.387,3.221,2.34,4.485c0.971,1.258,1.963,2.515,2.49,4.23
			c0.756,2.41,1.922,10.019,1.215,16.743l-0.113,1.066l0.57,0.897c2.25,3.546,4.582,7.349,6.971,11.364l1.006,1.68l1.949-0.206
			c0.605-0.064,1.242-0.081,1.893-0.081c3.102,0,5.766,0.661,6.273,0.792l0.453,0.13l0.432,0.203
			c0.865,0.415,5.275,2.79,6.922,8.604l0.232,0.826l1.365,1.25c1.135,1.024,2.717,2.438,3.629,4.85
			c0.662,1.716,0.787,3.446,0.389,5.289l-0.24,1.097l0.523,0.986c1.016,1.922,1.355,3.834,1.035,5.845l-0.15,0.927l0.404,0.852
			c1,2.179,0.975,4.589-0.088,7.14c-0.32,0.754-0.67,1.432-1.066,2.029l-0.986,1.49l0.818,1.592
			c9.277,18.162,16.791,34.156,17.332,35.905l0.016-0.006c0.889,2.142,2.416,5.997,0.303,9.558
			c-1.416,2.369-3.904,3.754-7.402,4.092c-0.463,0.047-0.939,0.072-1.412,0.072c-6.322,0-10.4-4.354-11.643-8.666
			c-3.932-10.144-9.389-22.013-16.307-35.527l-0.729-1.426l-3.455-0.484l-0.877,0.47c-5.525,2.914-12.086,4.219-16.139,4.219
			c-0.375,0-0.762-0.009-1.121-0.037c-2.717-0.151-4.928-0.709-6.615-1.663l-0.619-0.344l-0.701-0.042
			c-8.477-0.507-15.875-1.552-21.999-3.1l-2.907-0.737l-0.801,2.893c-0.463,1.653-1.011,3.544-1.668,5.7
			c-1.991,6.563-4.371,11.288-7.078,14.049l-0.661,0.674l-0.166,0.932c-0.395,2.237-1.249,5.77-3.053,9.946
			c-3.022,6.965-9.393,17.16-22.563,26.188c-18.445,12.664-35.7,12.822-55.676,13.008c-7.074,0.066-15.064,0.131-23.777,0.801
			c-38.34,2.99-60.699,30.414-60.92,30.688C305.921,402.385,302.453,409.51,300.324,415.254z"/>
		<path fill="#D6D6D6" d="M318.985,379.09c3.388-4.395,6.649-8.143,8.546-10.275l5.859-6.566l-5.565-6.805
			c-7.05-8.633-11.685-20.232-15.774-30.463c-3.891-9.763-7.57-18.996-12.877-25.053c-9.157-10.423-21.001-20.435-26.121-24.602
			c6.39-5.039,24.003-19.946,37.007-40.575c12.605-20.011,15.91-39.142,16.747-46.44l0.408-3.59l-1.919-3.055
			c-5.636-8.969-2.519-23.294-2.14-24.897c0.795-4.739,7.795-43.136,36.038-74.441c21.723-24.085,38.252-30.965,46.17-32.923
			l3.726-0.92l2.215-3.142c0.458-0.647,1.74-0.722,2.27-0.722l0.613,0.017c0.234,0.019,0.652,0.114,0.909,0.412l0.278,0.448
			l1.078,2.573l2.23,1.674c0.271,0.203,1.296,1.159,2.289,4.132c2.422,7.252,8.901,17.398,17.792,30.939
			c6.1,9.287,11.388,20.213,13.999,25.898l4.353,9.492l9.43-4.495c1.244,0.046,5.243,4.062,7.91,11.431
			c2.312,6.389,2.305,13.028,2.092,16.417l-0.202,3.316l1.76,2.803c0.413,0.657,0.821,1.388,1.192,2.189l1.692,3.609l3.704,1.523
			c1.454,0.598,4.624,2.822,9.527,10.942c3.335,5.508,5.537,10.987,6.562,16.285l0.603,3.071l2.181,2.205
			c1.299,1.324,3.131,3.33,5.704,6.338c6.125,7.171,7.273,9.906,7.482,10.748c0.822,3.456,2.498,5.665,3.609,7.123
			c0.682,0.866,1.201,1.544,1.328,1.977c0.51,1.603,1.535,8.225,0.938,13.865l-0.379,3.57l1.928,3.026
			c2.209,3.479,4.504,7.234,6.863,11.187l3.387,5.65l6.527-0.687c0.373-0.04,0.75-0.049,1.139-0.049
			c1.748,0,3.389,0.318,4.105,0.477c0.848,0.506,2.357,1.659,3.023,3.994l0.797,2.802l2.867,2.629
			c0.955,0.858,1.479,1.352,1.752,2.075c0.146,0.389,0.199,0.676,0.084,1.214l-0.787,3.679l1.752,3.311
			c0.346,0.665,0.334,1.006,0.277,1.329l-0.486,3.087l1.318,2.854c0.049,0.104,0.184,0.402-0.199,1.319
			c-0.129,0.311-0.268,0.598-0.432,0.847l-3.309,4.979l2.73,5.362c9.453,18.505,16.238,33.051,16.926,34.927l0.877,2.365
			c0.191,0.723,0.17,1.053,0.08,1.189c-0.148,0.26-0.912,0.506-1.889,0.594c-0.232,0.025-0.473,0.045-0.715,0.045
			c-3.602,0-4.59-3.086-4.688-3.434l-0.211-0.619c-3.977-10.275-9.576-22.458-16.613-36.212l-2.439-4.775l-9.494-1.328l-2.957,1.576
			c-4.186,2.204-9.584,3.372-12.74,3.372l-0.51-0.012c-2.367-0.145-3.35-0.577-3.678-0.762l-2.064-1.174l-2.395-0.135
			c-7.988-0.472-14.941-1.45-20.631-2.892l-9.768-2.475l-2.683,9.711c-0.443,1.599-0.981,3.433-1.618,5.528
			c-2.161,7.135-4.264,10.015-5.328,11.098l-2.213,2.25l-0.562,3.13c-0.328,1.864-1.039,4.805-2.567,8.347
			c-2.637,6.092-8.253,15.037-20.017,23.102c-16.632,11.42-32.088,11.559-51.658,11.744c-7.388,0.064-15.432,0.139-24.265,0.822
			C348.092,360.043,330.145,370.4,318.985,379.09z"/>
		<g>
			<polygon fill="#FFFFFF" points="274.653,275.23 301.798,301.277 313.042,323.214 335.516,359.684 344.295,358.033 
				364.585,326.23 368.978,298.267 376.926,259.984 388.991,236.026 405.435,221.499 409.544,210.224 402.697,207.076 
				384.598,202.024 374.728,190.896 367.881,178.178 332.504,130.743 326.757,147.227 322.909,167.285 328.668,186.133 
				322.084,214.262 312.49,233.557 299.336,251.105 285.621,264.652 			"/>
			<path fill="#FFFFFF" d="M380.465,269.675c0,0,1.733-13.351,13.039-20.346c0,0,0.621,3.903,3.708,5.755
				c3.087,1.854,6.158,1.439,6.979,0.629c0.829-0.828-2.875-10.695,9.458-17.889c12.341-7.205,26.532-10.081,30.125-12.142
				c3.604-2.047,3.191-5.755,3.191-5.755l-19.328,1.646l-23.235,6.996l-14.191,13.575l-9.752,19.108L380.465,269.675
				L380.465,269.675z"/>
			<path fill="#FFFFFF" d="M480.298,186.133c0,0,9.443,22.265,9.648,28.129c0.198,5.864-13.781-1.324-13.781-1.324l-4.52-19.387
				l1.845-4.68L480.298,186.133z"/>
			<path fill="#FFFFFF" d="M471.646,162.964c0,0,6.537,12.645,8.02,18.913l6.372-3.283c0,0-6.78-26.525-10.687-19.327
				L471.646,162.964z"/>
			<path fill="#FFFFFF" d="M469.995,254.879c0,0-18.503,7.399-17.877,7.399c0.612,0,11.917,13.571,11.917,13.571l7.61,16.449v16.041
				h3.085l2.673-5.761l3.401-8.021l2.988-14.588l2.249-18.515l-5.237-8.83L469.995,254.879z"/>
			<path fill="#FFFFFF" d="M536.035,262.716c0,0-0.752,2.136,1.205,1.933c1.955-0.213,5.104-3.447,8.33-5.547
				c3.23-2.124,0.197-4.544-0.879-3.559c-1.078,0.98-3.234,1.807-3.234,1.807L536.035,262.716z"/>
			<path fill="#FFFFFF" d="M537.135,270.497c0,0-0.717,2.779,5.146,0.623c5.861-2.157,5.547-6.478,5.547-6.478
				s-3.182,3.386-6.891,3.659C537.24,268.551,537.135,270.497,537.135,270.497z"/>
			<path fill="#FFFFFF" d="M541.775,276.835c0,0,4.311,0.243,6.055-1.192c1.742-1.44,3.244-4.982-0.131-4.188
				c-3.365,0.792-5.227,2.634-5.227,2.634l-2.662,2.758L541.775,276.835z"/>
			<path fill="#FFFFFF" d="M544.764,282.396c0,0,3.752-0.792,4.949-2.23c1.205-1.438,1.229-3.222,0.482-2.778
				c-0.752,0.454-3.973,3.296-5.436,2.978c-1.455-0.304-1.553,1.449-1.553,1.449L544.764,282.396z"/>
			<polygon fill="#FFFFFF" points="413.719,174.479 421.783,182.563 424.495,180.651 421.783,167.484 			"/>
			<polygon fill="#FFFFFF" points="371.303,176.664 372.127,183.714 384.332,183.714 407.621,159.812 425.86,133.344 
				445.882,121.425 450.946,124.437 447.657,139.789 454.918,155.565 464.647,158.577 472.743,154.052 476.989,146.098 
				475.628,126.224 469.035,115.116 466.171,115.116 465.336,117.591 461.362,127.731 458.9,123.759 458.077,117.038 
				452.181,110.73 426.768,119.775 408.593,141.024 389.394,169.943 			"/>
			<path fill="#FFFFFF" d="M439.923,161.048c0,0-1.173,0.339-0.834,1.977c0.349,1.647,2.984,2.41,4.957,4.764
				c1.978,2.368,5.05,3.196,5.05,3.196l2.09-1.344c0,0,1.894-1.335,2.094-4.765c0.212-3.415-0.412-3.763-1.649-4.391
				c-1.23-0.607-9.936-1.025-9.936-1.025L439.923,161.048z"/>
			<path fill="#FFFFFF" d="M453.628,167.285c0,0,2.05,0.892,2.05,2.329c0,1.444-0.223,1.444,0.432,2.156c0.671,0.718,0,1.34,0,1.34
				h-2.787l0.369-2.922L453.628,167.285z"/>
			<path fill="#FFFFFF" d="M455.489,175.559c0,0,0.803,5.357,0.604,7.617c0,0-1.088,0.482-1.228,1.1
				c-0.146,0.623,0.814,0.135,1.846,0.543c1.029,0.414,1.311,0.08,1.647-0.622c0.341-0.672-0.254-7.249-1.943-9.175
				C454.717,173.104,455.489,175.559,455.489,175.559z"/>
			<path fill="#FFFFFF" d="M460.063,183.714c0,0-0.961,0.582-0.539,1.291c0.403,0.702,1.224,0,1.224,0s0.412-0.312,0-0.997
				C460.338,183.311,460.063,183.714,460.063,183.714z"/>
			<path fill="#FFFFFF" d="M439.089,175.644c0,0-2.874,0.339-2.811,2.669c0.079,2.34,4.596,5.223,4.798,7.82
				c0,0,0.823-3.218,4.46-4.934c3.634-1.717,3.969-4.048,6.373-4.187C451.907,177.012,442.588,174.883,439.089,175.644z"/>
			<path fill="#FFFFFF" d="M438.488,217.462c0,0-3.445,0.508-4.99-6.696c-1.543-7.198,0-9.099,0-9.099s-2.819,0.453-3.182,5.979
				c-0.368,5.537,1.596,10.729,1.596,10.729l6.016,0.398L438.488,217.462z"/>
			<path fill="#FFFFFF" d="M444.436,204.085c0,0-3.086,2.304-2.81,4.989c0.273,2.668,4.214,5.401,7.353,5.601
				c0,0-1.839-3.445-0.832-6.692C449.127,204.752,444.436,204.085,444.436,204.085z"/>
			<polygon fill="#FFFFFF" points="450.108,207.076 453.756,211.746 461.521,211.746 461.521,207.585 457.104,208.153 			"/>
			<polygon fill="#FFFFFF" points="450.679,197.145 452.879,198.484 462.6,198.076 462.6,194.322 460.434,194.059 456.068,194.418 
				453.342,194.367 			"/>
			<polygon fill="#C6190C" points="448.461,200.177 446.973,203.727 448.979,206.505 454.326,207.72 460.169,207.72 
				459.408,204.498 455.814,200.535 			"/>
			<path fill="#FFFFFF" d="M411.889,187.527c0,0-0.908,2.728,0.794,3.369c1.699,0.648,3.855,3.625,4.32,4.61
				c0.472,0.972,1.226,1.533,2.369,1.028c1.12-0.518,1.329-1.757,0-3.5l-0.846-1.469c0,0-0.495,0.029-0.857,0.856
				c-0.357,0.826-1.699-0.443-1.487-1.045c0.199-0.605,0.053-0.688,0.199-1.787c0.159-1.098-0.981-1.29-1.23-1.185
				c-0.254,0.109-2.347,1.249-2.409-0.507c-0.065-1.753,0.296-2.032,0.296-2.032S412.124,186.123,411.889,187.527z"/>
		</g>
		<polygon fill="#FFFFFF" points="495.702,244.793 497.325,258.604 513.891,259.984 517.256,258.604 531.756,255.312 
			524.936,244.793 519.645,235.244 511.293,241.091 		"/>
		<g>
			<path fill="#C6190C" d="M341.97,148.875c0,0-15.119,25.245-10.788,35.496l-2.034,2.041l-4.321-9.678l-2.271-13.771l9.71-30.432
				l9.701,9.245L341.97,148.875L341.97,148.875z"/>
			<path fill="#C6190C" d="M350.309,160.659c0,0-16.231,25.747-11.232,35.057l2.895,8.155l3.595,0.98
				c0,0,1.469-18.445,17.308-32.439l-4.733-6.572L350.309,160.659z"/>
			<path fill="#C6190C" d="M369.929,187.308c0,0-14.744,21.349-14.497,34.596l2.918,10.769l6.085,7.014
				c0,0,0.768-20.043,15.434-36.672l-5.686-9.469L369.929,187.308z"/>
			<path fill="#C6190C" d="M394.16,208.67c0,0-19.568,30.236-22.443,43.566l3.296,7.163l10.481-16.447l4.726-15.42l3.937-4.947
				l5.31-2.465l-0.814-3.031l0.814-3.605l4.729-2.823l-3.497-2.517L394.16,208.67z"/>
			<path fill="#C6190C" d="M336.382,204.011c0,0-0.032,18.165-19.783,43.876c-19.736,25.695-30.82,33.791-30.82,33.791l-9.277-4.184
				l-1.85-2.675l34.962-36.603l18.705-44.672l4.943,2.171L336.382,204.011z"/>
			<path fill="#C6190C" d="M344.803,214.262c0,0,0.18,17.589-17.919,42.062c-18.092,24.46-31.458,34.341-31.458,34.341l3.088,7.395
				l7.004,4.892c0,0,15.904-10.851,30.866-33.471c14.973-22.618,18.015-40.659,18.015-40.659l-3.897-9.102L344.803,214.262z"/>
			<path fill="#C6190C" d="M310.844,312.799c0,0,16.041-12.268,30.429-33.251c14.403-20.964,19.913-39.856,19.913-39.856
				l6.468,7.786l2.513,6.521c0,0-5.93,18.77-19.664,37.064c-13.748,18.311-33.687,34.975-33.687,34.975l-4.122-4.327
				L310.844,312.799z"/>
			<path fill="#C6190C" d="M321.747,335.182c0,0,25.792-15.701,45.903-52.327l0.98,17.876l-4.576,13.97
				c0,0-20.076,28.831-35.104,31.804l-7.204-3.199L321.747,335.182L321.747,335.182z"/>
		</g>
		<path fill="#0C234D" d="M574.869,325.613c-0.225-0.801-8.443-18.589-19.9-40.674c0.52-0.115,2.793-0.781,4-3.673
			c1.373-3.296-0.961-3.705-0.961-5.485c0-1.784,1.512-2.875-0.541-5.762c-2.062-2.887,0.678-4.251-0.408-7.126
			c-1.1-2.881-4.262-3.295-5.346-7.268c-1.102-3.987-4.258-5.487-4.258-5.487s-6.164-1.636-9.738,0.412c0,0-0.539,0-1.432,0.216
			c-3.814-6.561-7.707-12.974-11.561-18.952c0.094-0.415,0.178-0.846,0.254-1.299c0.961-6.015-0.139-13.826-0.828-16.021
			c-0.686-2.205-3.703-3.973-4.938-9.06c-1.225-5.062-14.805-19.324-15.354-19.586c-0.548-0.284-0.273-7.825-7.407-19.601
			c-7.12-11.793-11.097-12.479-13.294-12.207c0,0-2.319-6.442-4.39-7.955c0,0,1.643-10.421-1.917-20.287
			c-3.56-9.874-10.007-15.895-12.202-11.107c-2.185,4.8-2.324,12.067-2.324,12.067l-2.608-4.52c0,0-0.263-8.498-2.598-8.498
			c0,0-7.269-17.141-16.178-30.707c-8.904-13.576-15.207-23.448-17.541-30.442c-2.336-6.985-5.21-5.62-5.21-5.62
			s0.423-4.795-3.488-5.059c-3.92-0.289-5.419,1.633-5.431,4.107c0,0-21.111,0.816-51.268,34.267
			c-30.157,33.454-36.454,75.118-36.454,75.118s-4.66,18.923,3.835,28.784c0,0-0.824,23.584-16.727,48.824
			c-15.904,25.222-38.662,41.664-38.662,41.664s16.177,12.617,27.968,26.041c11.792,13.444,15.626,44.424,33.438,60.594
			c0,0-16.441,16.729-23.571,30.979c0,0,23.33-29.375,64.498-32.576c32.279-2.516,53.403,3.244,76.978-12.924
			c23.573-16.186,23.848-35.916,23.848-35.916s3.839-0.547,7.688-13.163c3.825-12.619,3.283-14.257,3.283-14.257
			s7.945,4.934,31.804,6.024c0,0,0.672,1.649,5.344,1.921c4.66,0.277,12.465-1.782,16.996-5.067c0,0,3.291,1.094,6.994,0.821
			l0.359-0.096c7.088,13.632,13.988,27.971,18.834,40.533c0,0,1.365,5.822,7.738,5.209
			C578.574,332.197,575.281,327.053,574.869,325.613z M516.34,234.105c0.414,3.56-3.16,3.56-3.16,3.56
			c0.146-1.639-3.953-13.294-3.953-13.294C515.957,224.511,515.928,230.545,516.34,234.105z M383.372,176.952
			c7.535-3.021,25.677-31.905,30.56-39.075c4.892-7.153,9.492-14.749,25.099-21.382c17.414-7.408,20.831,0.961,17.267,13.704
			c-3.595,12.87-1.375,22.625,7.681,21.938c7.956-0.604,9.405-8.029,9.363-17.523c-0.056-14.005-6.354-19.356-6.354-19.356
			c4.264,0.528,10.21,16.459,7.672,29.881c-2.091,11.116-14.243,12.169-20.551,5.08c-6.372-7.171,1.639-23.449,0.55-30.302
			c-1.101-6.851-24.958-0.831-36.203,16.718c-11.231,17.56-25.629,37.294-29.747,40.168c-4.104,2.883-6.446,4.394-10.693,4.656
			c-4.249,0.277-4.809-2.325-4.809-2.325S375.826,179.965,383.372,176.952z M472.47,203.537c0.964,5.347,2.185,10.554,2.185,10.554
			c-4.796,2.738-10.144,2.336-10.144,2.336c-0.127-0.687-0.54-2.336-0.54-2.336c0.823-4.107,3.434-9.867,3.434-9.867
			C469.731,204.901,472.47,203.537,472.47,203.537z M458.911,196.384c-3.064-0.319-6.436,1.364-6.436,1.364l-0.622-0.808
			c0.054-0.82,1.597-2.31,3.033-2.204c1.435,0.095,3.962,0.146,4.637,0c0.657-0.159,1.943-0.613,2.253,0.303
			c0.306,0.911,0.009,1.957,0,2.001C461.785,196.996,461.744,196.657,458.911,196.384z M456.376,209.019
			c2.571,0.159,3.805-0.254,3.805-0.254c0,1.946-0.466,2.255-0.466,2.255s-0.71-0.204-1.689-0.309c-0.975-0.095-3.963,0.728-4.176,0
			c-0.189-0.707-2.762-2.927-2.762-2.927S453.809,208.864,456.376,209.019z M448.428,204.856c-0.167-0.513-0.833-1.025-0.833-1.025
			c1.173-1.235,1.69-2.778,1.69-2.778s2.008-0.303,4.165,0c2.154,0.309,2.989,1.489,4.52,3.097c1.554,1.594,0.719,3.077,0.719,3.077
			s-3.283,0.104-5.806-0.374C450.363,206.39,448.607,205.365,448.428,204.856z M454.854,193.183c-3.771,0-5.958,3.568-7.259,6.412
			c-1.309,2.842-3.159,4.492-3.159,4.492c1.099,0.612,2.198,2.877,3.711,3.897c1.498,1.036,2.323,1.517,3.896,3.227
			c1.585,1.723,3.912,1.78,4.661,1.309c0.749-0.488,2.061-0.214,2.061-0.214s0,0.901-1.094,1.912
			c-1.109,0.996-2.822,0.492-2.822,0.492c0.898,0.414,1.159,2.391,1.159,2.391s-1.294,0.224-9.852,0
			c-8.575-0.225-9.807,1.449-12.354,0c-2.529-1.449-3.487-9.45-3.487-9.45c-1.511,1.992-0.685,7.27-0.685,7.27
			c-3.36-2.889-4.386-10.014-4.734-12.338c-0.339-2.336-1.859-1.649-1.859-1.649c-3.162,1.723-4.174-0.34-4.989-2.127
			c-0.81-1.777-1.854-2.531-5.964-6.571c-4.112-4.048-1.65-8.095,0-9.638c1.647-1.533,4.732-1.395,6.308,0
			c1.573,1.414,3.633,6.343,4.174,7.448c0.543,1.09,3.708-0.833,3.708-0.833s1.437,3.094,5.897,3.358
			c4.459,0.277,7.821,3.285,7.821,3.285c-0.687-3.002-6.107-6.098-7.954-6.701c-1.848-0.592-3.157-2.271-3.157-2.271
			s1.511-1.981-0.677-4.292c-2.198-2.289-1.922-8.389-2.462-9.827c-0.561-1.448-1.785-3.56-0.221-5.76
			c1.585-2.195,11.591-6.441,19.063-6.387c7.466,0.08,10.618,0.08,13.443,2.131c2.798,2.061,2.323,6.104,2.524,7.204
			c0.213,1.095,0.085,2.598-1.087,1.498c-1.162-1.09-0.898-3.699-0.898-3.699c-0.54,0.408-0.876,0.752-0.876,0.752
			c-0.148-0.752-0.972-1.028-0.972-1.028c0.213,1.028,0,2.265-0.137,3.5c-0.128,1.234-2.264,1.634-1.717,0
			c0.55-1.648-1.224-3.699-1.224-3.699s0.128,1.921-3.639,2.674c-3.773,0.756-5.483-2.136-7.341-3.227
			c-1.851-1.095-6.16-0.822-8.218,0.751c-2.062,1.574-0.826,3.704-0.826,3.704c1.511-1.579,4.731-1.977,6.858-1.225
			c2.123,0.756,2.81,3.071,2.81,3.071c-2.265,0-4.185,2.614-4.185,2.614c1.447,0.069,1.574,0.681,4.322,2.056
			c2.749,1.363,5.348,0.542,6.434-0.209c1.101-0.767,2.062-0.479,2.062-0.479c-0.275-0.896-1.226-1.707-1.226-1.707l0.812-0.479
			c0,0,1.162,0.752,2.202,0.13c1.025-0.617,1.984,1.235,2.4,0.688c0.41-0.539,1.849-0.688,1.849-0.688l0.688,0.688v1.085
			c1.78,2.897,2.059,6.188,2.059,6.188c2.188,1.78,1.989,3.833,1.576,4.445c-0.411,0.611-1.721,0.612-2.47,0.212
			c-0.753-0.408-1.984-0.14-2.952,0.548c-0.95,0.688-3.897,0.199-2.872-1.648c1.026-1.848-0.411-2.336-0.411-2.336
			c-5.591,0-7.727,4.524-8.413,6.627c1.48-3.236,7.841-5.486,6.976-3.744c-0.964,1.917,1.028,2.336,1.986,3.5
			c0.949,1.159,1.224,1.786,4.448,1.642c3.221-0.145,4.046,0.543,4.046,0.543C459.103,193.804,458.627,193.183,454.854,193.183z
			 M415.852,206.759c3.088-0.822,3.974-2.674,3.974-2.674c0,1.299,1.957,2.399,1.957,2.399c-0.312,5.411,0.781,12.286,0.781,12.286
			c-6.786,1.05-10.684,3.212-10.684,3.212c-0.412-2.957,0.744-3.914,2.811-7.335C416.741,211.21,415.852,206.759,415.852,206.759z
			 M420.987,174.817c0,0,1.651,1.101,0.8,2.135c-0.869,1.012,0.782,3.281,0.782,3.281c-1.717-0.344-1.987-2.271-2.331-3.281
			c-0.338-1.029-2.668,0.605-2.166-0.761c0.507-1.374,1.404-2.325,1.404-2.325c-1.237,0.473-2.292,1.713-2.292,1.713
			c1.532-2.958,4.6-4.263,4.6-4.263C419.34,174.479,420.987,174.817,420.987,174.817z M400.215,216.83
			c-1.429-0.488,0.542-2.843,0.542-2.843c3.784-3.266,5.079-2.336,5.079-2.336c-1.491,1.658-2.97,4.451-2.843,3.799
			c0.121-0.663,0.479-1.46,0.479-1.46C402.495,214.738,401.629,217.338,400.215,216.83z M325.246,169.68
			c-0.414-12.89,7.259-34.55,7.259-34.55s27.421,40.584,37.287,50.445c0,0-0.272,8.514,8.511,16.175
			c8.77,7.687,19.736,6.308,23.022,9.325c0,0-4.525,3.275-3.607,7.695c0,0-7.291,4.64-9.046,9.27c0,0-3.182-1.028-3.182-4.312
			c0-3.295-2.259-3.404-2.259-3.404s-6.796,2.061-6.585,4.432c0.202,2.365,3.794,2.792,5.137,5.766
			c1.346,2.967,0.111,2.04,1.235,4.202c0,0-4.521,2.265-8.009,6.067c-3.507,3.804-2.684,8.632-2.684,8.632s3.287,0.52,6.067-0.919
			c0,0-3.014,5.516-3.944,8.084c0,0-10.145-15.354-19.463-35.642C345.66,200.665,325.657,182.563,325.246,169.68z M395.83,224.446
			c-1.911,0.772-3.906,2.052-3.906,2.052s2.357-3.391,5.439-4.575C400.448,220.739,397.721,223.664,395.83,224.446z
			 M337.438,357.207c0,0-14.878-15.355-26.594-44.413c-8.232-20.427-33.719-37.84-33.719-37.84s17.551-13.434,32.081-32.347
			c14.527-18.928,20.01-46.069,20.01-46.069s12.333,11.515,21.661,26.594c9.323,15.08,22.33,35.686,22.33,35.686
			c-7.727,17.435-3.96,31.769-8.896,54.804C359.375,336.652,337.438,357.207,337.438,357.207z M441.626,233.691
			c-8.433,5.976-10.283,11.521-12.344,16.452c-1.583,3.839-7.946,6.628-9.942,4.46c-1.459-1.573-2.726,0.676-2.726,0.676
			c-1.491,3.127-2.547,7.515,0.338,11.321c0,0,2.335,5.471-0.825,3.898c-6.943-3.455-5.146-5.759-12.757-5.34
			c-7.61,0.406-4.721,20.763,1.45,27.758c6.158,6.983-11.319,38.862-5.555,52.228c3.791,8.793,14.364,9.777,15.689,9.863
			c0.081,0,0.137,0.008,0.137,0.008s-0.043,0-0.137-0.008c-1.86-0.115-24.367-1.35-41.749,0.621
			c-18.151,2.045-31.107,7.803-31.107,7.803s12.137-7.803,19.537-22.395c7.403-14.617,11.57-31.882,11.57-31.882
			s6.32,3.296,6.32,13.367c0,0,1.65-9.866,4.326-16.647c2.669-6.787,1.236-13.779-1.029-19.95
			c-2.27-6.172-4.942-14.456,1.229-29.332c6.171-14.879,19.65-28.232,42.716-33.182c23.082-4.934,35.22,0.941,50.022-6.316
			c0,0,0,1.797-2.885,3.447c0,0-1.637,11.309-10.072,18.501c0,0,7.197-10.271,2.466-13.565
			C461.564,222.176,450.057,227.732,441.626,233.691z M483.159,275.018c-1.443,19.541-9.455,31.684-9.455,31.684
			s4.321-11.521-1.234-23.036c-5.558-11.51-16.655-20.566-16.655-20.566c6.785-6.161,23.239-7.816,23.239-7.816
			S484.599,255.482,483.159,275.018z M487.412,212.305c-4.789-0.821-9.327,0-9.327,0c-0.687-15.209-3.436-19.047-3.436-19.047
			s-0.264-3.564,6.31-7.548c6.584-3.969,13.989-3.012,13.989-3.012c-4.809,0.139-8.088,2.877-8.088,2.877
			c4.788,7.542,10.558,25.908,10.558,25.908C494.953,213.271,492.206,213.132,487.412,212.305z M486.993,176.664
			c-7.806,0.964-12.339,5.93-12.339,5.93s-1.5-4.689-1.361-7.154c0.143-2.474,0-9.181,0-9.181c1.518-2.748,2.059-6.994,2.059-6.994
			s5.342-4.396,11.379,0c6.028,4.381,12.067,18.226,12.067,18.226S494.805,175.714,486.993,176.664z M499.341,250.832
			c0,0,5.754-0.688,9.034-3.022c3.303-2.325,3.715-6.157,3.715-6.157s3.006-1.363,6.158-2.06c0.211-0.049,0.408-0.107,0.621-0.162
			c2.238,3.739,5.516,9.266,9.34,15.926c-2.732,0.018-9.584,0.062-10.773,0.278c-1.52,0.274-4.4,2.61-4.4,2.61
			s-5.068,0.117-7.945-2.89C502.213,252.346,499.341,250.832,499.341,250.832z M529.768,280.033c0,0-13.164,3.146-9.867,5.341
			c3.295,2.206,7.549,2.476,7.549,2.476c-4.264,0.815-7.955,0.674-12.756-2.885c-4.799-3.563-7.955-12.057-2.877-20.151
			c5.072-8.086,8.363-7.117,8.363-7.117h8.35c0,0-1.062,0.299-3.422,3.284c-1.229,1.551,0.211,3.087,0.334,5.49
			c0.141,2.734,0.455,4.578,0.975,6.027c1.115,3.113,3.148,2.538,3.148,2.538c0.244,2.106,1.867,4.818,1.867,4.818L529.768,280.033z
			 M532.102,271.026c0.277,0.913-0.355,1.107-0.67,1.212c-0.316,0.105-2.344,0.479-3.064-1.63c-0.703-2.053-0.264-2.317-0.752-4.669
			c-0.455-2.2-0.863-3.661,0.477-4.489c1.34-0.81,3.191-2.258,3.191-2.258l1.742,2.579
			C528.822,264.135,531.057,267.597,532.102,271.026z M536.418,283.363c-0.311-0.934-3.49-4.114-2.568-4.004
			c0.932,0.094,1.871-0.627,1.871-0.627s1.107,1.541,1.732,3.131c0.604,1.603,2.77,1.085,2.77,1.085
			c-0.309,0.723,0.518,1.176,0.518,1.176C540.328,284.975,536.723,284.281,536.418,283.363z M554.416,280.488
			c-0.312,1.225-2.568,3.183-4.934,3.481c-2.369,0.312-3.705,0.104-4.107-0.506c-0.418-0.622-1.553-2.17,0.408-2.47
			c1.951-0.309,4.42-3.604,4.42-3.604c-0.932,0.718-3.295,1.45-3.295,1.45c-4.621,1.431-4.621-0.518-5.123-2.002
			c-0.498-1.477,1.33-2.43,3.795-3.241c2.467-0.831,2.26-3.192,2.26-3.192c-0.617,0.719-0.309,0.719-5.457,2.559
			c-5.131,1.844-4.721-0.8-4.721-1.532c0-0.722-0.611-1.742,4.123-2.662c4.74-0.932,6.055-4.123,6.055-4.123
			c-1.744,1.439-4.939,1.847-7.766,2.564c-2.83,0.716-3.541,0.109-3.951-1.845c-0.41-1.955-1.545-2.568,3.807-5.245
			c5.346-2.668,4.422-4.11,4.422-4.11c0.799-1.774,4.012-0.41,4.84,1.64c0.822,2.062-0.311,2.271,1.541,3.087
			c1.844,0.821,2.869,2.271,2.77,4.111c-0.1,1.858,0.408,4.213,0.963,5.755c0.562,1.554,1.094,3.296-0.039,4.935
			C553.281,277.191,554.729,279.249,554.416,280.488z"/>
		<path fill="#0C234D" d="M417.565,185.682c0,0-0.829-2.515-3.544-1.852c-2.738,0.667-2.231,4.067-2.231,4.067
			s0.329-1.712,1.406-2.096c1.078-0.375,0.359,2.03,0.919,2.709c0.572,0.661,0.104-1.081,0.54-1.448
			c0.434-0.35,0.639-1.176,0.337-1.489c0,0,2.57-0.05,2.57,3.087c0,0-0.509-0.867-0.927-1.076c-0.408-0.199,0.149,1.808-0.048,2.365
			c-0.213,0.572,1.288,1.291,1.744,0.771C418.799,190.201,418.389,187.637,417.565,185.682z"/>
		<path fill="#0C234D" d="M419.773,191.439c0,0-1.584-0.473-1.69,1.021c-0.106,1.504,0.924,1.344,1.69,2.011
			c0.771,0.673,0.72,1.494,2.01,1.181c0,0-1.487-0.876-1.587-2.106C420.089,192.316,420.144,192.008,419.773,191.439z"/>
		<path fill="#0C234D" d="M440.643,202.024c0,0,0.264,2.528,0,4.685c-0.243,2.155,0.41,4.764,2.42,6.191
			c2.005,1.419,3.91,1.359,3.91,1.359s-4.841-1.957-5.095-4.934C441.626,206.345,440.643,202.024,440.643,202.024z"/>
		<path fill="#FFFFFF" d="M423.815,102.911c0.488,1.703,0.979,3.422,1.473,5.141c1.59,0.046,3.177,0.082,4.768,0.123
			c-1.278,1.033-2.568,2.043-3.857,3.055c0.497,1.734,0.994,3.47,1.5,5.217c-1.313-1.128-2.612-2.237-3.913-3.348
			c-1.295,0.995-2.591,1.99-3.896,2.965c0.506-1.653,1.01-3.32,1.512-4.988c-1.282-1.084-2.564-2.166-3.836-3.225
			c1.584,0.038,3.174,0.084,4.757,0.123C422.826,106.293,423.326,104.608,423.815,102.911z"/>
		<path fill="#FFFFFF" d="M413.544,94.325c-0.242-1.699-0.476-3.397-0.71-5.091c1.086,1.163,2.182,2.352,3.276,3.546
			c1.389-0.845,2.773-1.691,4.15-2.555c-0.693,1.608-1.396,3.197-2.102,4.786c1.113,1.219,2.227,2.437,3.349,3.678
			c-1.558-0.252-3.111-0.48-4.671-0.724c-0.703,1.567-1.415,3.135-2.133,4.688c-0.237-1.716-0.474-3.423-0.716-5.13
			c-1.545-0.236-3.1-0.488-4.639-0.718C410.756,95.99,412.151,95.159,413.544,94.325z"/>
		<path fill="#FFFFFF" d="M397.746,83.768c1.44,0.383,2.891,0.782,4.34,1.182c0.916-1.431,1.831-2.858,2.738-4.312
			c-0.013,1.688-0.02,3.38-0.027,5.064c1.454,0.411,2.919,0.822,4.385,1.246c-1.464,0.637-2.933,1.258-4.402,1.877
			c-0.009,1.686-0.015,3.381-0.027,5.069c-0.906-1.323-1.81-2.625-2.71-3.926c-1.473,0.606-2.947,1.221-4.427,1.812
			c0.934-1.387,1.854-2.792,2.772-4.203C399.503,86.298,398.619,85.024,397.746,83.768z"/>
		<path fill="#FFFFFF" d="M388.094,158.771c-0.353-1.603-0.703-3.196-1.056-4.788c-1.688-0.354-3.386-0.719-5.078-1.063
			c1.482-0.623,2.955-1.268,4.426-1.913c-0.344-1.581-0.691-3.162-1.028-4.73c1.237,1.16,2.486,2.345,3.735,3.529
			c1.468-0.659,2.936-1.32,4.396-2.003c-0.679,1.428-1.364,2.835-2.05,4.241c1.27,1.214,2.54,2.429,3.82,3.673
			c-1.702-0.364-3.397-0.714-5.1-1.074C389.476,156.022,388.791,157.404,388.094,158.771z"/>
		<path fill="#FFFFFF" d="M386.99,80.97c0.648,1.334,1.311,2.69,1.973,4.039c1.52-0.4,3.037-0.791,4.546-1.199
			c-1.091,1.262-2.197,2.5-3.304,3.741c0.676,1.379,1.356,2.758,2.04,4.152c-1.379-0.632-2.738-1.249-4.102-1.863
			c-1.11,1.219-2.223,2.434-3.346,3.633c0.279-1.577,0.564-3.164,0.841-4.749c-1.349-0.603-2.695-1.196-4.035-1.775
			c1.52-0.394,3.038-0.8,4.557-1.197C386.439,84.158,386.716,82.568,386.99,80.97z"/>
		<path fill="#FFFFFF" d="M377.535,150.971c-1.401-1.01-2.792-1.993-4.188-2.976c-1.344,0.811-2.688,1.619-4.042,2.4
			c0.503-1.387,0.996-2.787,1.489-4.189c-1.376-0.958-2.752-1.911-4.117-2.847c1.68,0.082,3.356,0.153,5.035,0.228
			c0.494-1.415,0.988-2.831,1.478-4.263c0.541,1.453,1.094,2.926,1.644,4.4c1.678,0.079,3.354,0.15,5.032,0.228
			c-1.33,0.853-2.67,1.684-4.011,2.511C376.411,147.962,376.968,149.457,377.535,150.971z"/>
		<path fill="#FFFFFF" d="M357.871,129.765c1.448,0.664,2.896,1.346,4.354,2.029c1.185-1.015,2.367-2.031,3.541-3.077
			c-0.266,1.466-0.535,2.919-0.804,4.373c1.473,0.702,2.947,1.404,4.427,2.128c-1.639,0.188-3.284,0.366-4.927,0.545
			c-0.272,1.445-0.541,2.891-0.821,4.328c-0.749-1.349-1.49-2.679-2.229-4.008c-1.648,0.176-3.288,0.344-4.936,0.507
			c1.195-0.965,2.385-1.956,3.569-2.947C359.316,132.34,358.588,131.04,357.871,129.765z"/>
		<path fill="#FFFFFF" d="M370.151,89.757c1.199,0.753,2.411,1.526,3.622,2.304c1.282-1.012,2.565-2.025,3.84-3.062
			c-0.518,1.521-1.039,3.022-1.562,4.525c1.226,0.795,2.461,1.587,3.704,2.404c-1.556,0.12-3.116,0.241-4.674,0.357
			c-0.525,1.491-1.051,2.98-1.584,4.461c-0.44-1.422-0.866-2.829-1.296-4.236c-1.551,0.119-3.107,0.244-4.663,0.356
			c1.301-0.968,2.588-1.961,3.872-2.956C370.985,92.518,370.563,91.13,370.151,89.757z"/>
		<path fill="#FFFFFF" d="M362.28,104.296c0.773-1.351,1.55-2.698,2.313-4.069c0.188,1.433,0.388,2.885,0.579,4.323
			c1.546,0.136,3.088,0.257,4.635,0.399c-1.422,0.768-2.85,1.507-4.28,2.248c0.196,1.456,0.385,2.898,0.585,4.362
			c-1.096-1.012-2.183-2.006-3.268-2.989c-1.437,0.728-2.874,1.454-4.318,2.155c0.778-1.305,1.551-2.63,2.328-3.958
			c-1.069-0.964-2.14-1.928-3.193-2.866C359.196,104.02,360.74,104.165,362.28,104.296z"/>
		<path fill="#FFFFFF" d="M357.329,114.647c0.895,1.117,1.8,2.259,2.705,3.401c1.549-0.477,3.093-0.963,4.64-1.454
			c-0.977,1.215-1.961,2.403-2.945,3.6c0.923,1.17,1.845,2.341,2.784,3.532c-1.549-0.454-3.088-0.894-4.624-1.332
			c-0.986,1.173-1.975,2.344-2.974,3.49c0.05-1.43,0.104-2.857,0.157-4.286c-1.528-0.429-3.058-0.855-4.576-1.271
			c1.563-0.454,3.119-0.925,4.675-1.397C357.224,117.5,357.274,116.073,357.329,114.647z"/>
	</g>
	<g>
	</g>
	<g>
	</g>
	<g>
	</g>
	<g>
	</g>
	<g>
	</g>
</g>
</svg>
