<?xml version="1.0" encoding="utf-8"?>
<!-- Generator: Adobe Illustrator 16.0.0, SVG Export Plug-In . SVG Version: 6.00 Build 0)  -->
<!DOCTYPE svg PUBLIC "-//W3C//DTD SVG 1.1//EN" "http://www.w3.org/Graphics/SVG/1.1/DTD/svg11.dtd">
<svg version="1.1" id="Layer_2" xmlns="http://www.w3.org/2000/svg" xmlns:xlink="http://www.w3.org/1999/xlink" x="0px" y="0px"
	 width="841.89px" height="595.28px" viewBox="0 0 841.89 595.28" enable-background="new 0 0 841.89 595.28" xml:space="preserve">
<metadata><?xpacket begin="﻿" id="W5M0MpCehiHzreSzNTczkc9d"?>
<x:xmpmeta xmlns:x="adobe:ns:meta/" x:xmptk="Adobe XMP Core 5.3-c011 66.145661, 2012/02/06-14:56:27        ">
   <rdf:RDF xmlns:rdf="http://www.w3.org/1999/02/22-rdf-syntax-ns#">
      <rdf:Description rdf:about=""
            xmlns:dc="http://purl.org/dc/elements/1.1/">
         <dc:format>image/svg+xml</dc:format>
         <dc:title>
            <rdf:Alt>
               <rdf:li xml:lang="x-default">Miami Dolphins</rdf:li>
               <rdf:li xml:lang="en_us">Miami Dolphins</rdf:li>
            </rdf:Alt>
         </dc:title>
         <dc:creator>
            <rdf:Seq>
               <rdf:li>Max O'Brien/Osprey Dawn</rdf:li>
            </rdf:Seq>
         </dc:creator>
      </rdf:Description>
      <rdf:Description rdf:about=""
            xmlns:xmp="http://ns.adobe.com/xap/1.0/"
            xmlns:xmpGImg="http://ns.adobe.com/xap/1.0/g/img/">
         <xmp:CreatorTool>Adobe Illustrator CS6 (Macintosh)</xmp:CreatorTool>
         <xmp:ModifyDate>2013-10-08T19:44:33+13:00</xmp:ModifyDate>
         <xmp:MetadataDate>2013-10-08T19:44:33+13:00</xmp:MetadataDate>
         <xmp:CreateDate>2013-10-08T19:44:33+13:00</xmp:CreateDate>
         <xmp:Thumbnails>
            <rdf:Alt>
               <rdf:li rdf:parseType="Resource">
                  <xmpGImg:width>256</xmpGImg:width>
                  <xmpGImg:height>120</xmpGImg:height>
                  <xmpGImg:format>JPEG</xmpGImg:format>
                  <xmpGImg:image>/9j/4AAQSkZJRgABAgEASABIAAD/7QAsUGhvdG9zaG9wIDMuMAA4QklNA+0AAAAAABAASAAAAAEA&#xA;AQBIAAAAAQAB/+4ADkFkb2JlAGTAAAAAAf/bAIQABgQEBAUEBgUFBgkGBQYJCwgGBggLDAoKCwoK&#xA;DBAMDAwMDAwQDA4PEA8ODBMTFBQTExwbGxscHx8fHx8fHx8fHwEHBwcNDA0YEBAYGhURFRofHx8f&#xA;Hx8fHx8fHx8fHx8fHx8fHx8fHx8fHx8fHx8fHx8fHx8fHx8fHx8fHx8fHx8f/8AAEQgAeAEAAwER&#xA;AAIRAQMRAf/EAaIAAAAHAQEBAQEAAAAAAAAAAAQFAwIGAQAHCAkKCwEAAgIDAQEBAQEAAAAAAAAA&#xA;AQACAwQFBgcICQoLEAACAQMDAgQCBgcDBAIGAnMBAgMRBAAFIRIxQVEGE2EicYEUMpGhBxWxQiPB&#xA;UtHhMxZi8CRygvElQzRTkqKyY3PCNUQnk6OzNhdUZHTD0uIIJoMJChgZhJRFRqS0VtNVKBry4/PE&#xA;1OT0ZXWFlaW1xdXl9WZ2hpamtsbW5vY3R1dnd4eXp7fH1+f3OEhYaHiImKi4yNjo+Ck5SVlpeYmZ&#xA;qbnJ2en5KjpKWmp6ipqqusra6voRAAICAQIDBQUEBQYECAMDbQEAAhEDBCESMUEFURNhIgZxgZEy&#xA;obHwFMHR4SNCFVJicvEzJDRDghaSUyWiY7LCB3PSNeJEgxdUkwgJChgZJjZFGidkdFU38qOzwygp&#xA;0+PzhJSktMTU5PRldYWVpbXF1eX1RlZmdoaWprbG1ub2R1dnd4eXp7fH1+f3OEhYaHiImKi4yNjo&#xA;+DlJWWl5iZmpucnZ6fkqOkpaanqKmqq6ytrq+v/aAAwDAQACEQMRAD8A9U4q7FXYq7FXYql+uavH&#xA;pVkLqQVT1Y0b2V2AY7eC1OYur1Iww4j3j73I0unOWfCO4pgCGAZTUHcEdCMygXHIdiqSectV/R2h&#xA;zFDS4uP3EAHXk43I+S1zXdqanwsJr6pbD4uf2bp/Eyi+Q3KdgAAACgGwAzYuA7FXYq7FXYq7FXYq&#xA;7FXYq7FXYq7FXYq7FXYq7FXYq7FXYq7FXYq7FXYq7FXYqhNVvJrLT5ruKL12gHNoq0JUH4qGh3C1&#xA;OUanKccDIC66N2DGJzESatS0fXdN1eD1bOXkR/eRNtIn+sv8emQ0usx543A/DqGWp0s8JqQ/Uq6n&#xA;qlppluLm7YrCXVC4FaFu5A3pk9RqI4Y8UuVscGCWWXDHmxH8xdYsp9Ltba2nSYyyeqTGwYcEUjqK&#xA;9S2aPtzVQljjGJBs3s7nsbTSjklKQIoUo+U/PdrbWAstVZl9BaQTgFqoOiEDeo6DK+ze2IwhwZf4&#xA;eR/Qz7Q7KlKfHj68x+ldo3nq3k8xXct4xgsblFSDlvw9KvHlTpy5GvvktL2xE55Ge0JcvKv1o1PZ&#xA;RGGIjvOPPztI/N3mX9LamjQV+p2u0AO3I1qzke9PuzW9p6/x8gMfojy/W5/Z+i8HHv8AVLn+pnOq&#xA;+dtHsrBZ4pVuLiVA0NujAmrCo50+yB3rnR6ntbFjhxA8UiNh+vudBp+zMs50Rwgcz+pO7NrhrSFr&#xA;kAXDRqZgooA5HxAA9q5sMRkYji+qt/e4OQDiPDyvZal7bvdyWiNymhUPKBuE5fZDHxNCaYjLEyMR&#xA;zHPyScchESPIq+WNbsVdirsVdirsVdirsVdirsVdirsVdirsVdirsVdirsVdirsVdirsVcRXY9MV&#xA;eP67b3GheY7hbN2g4N6lu6GlEf4gPkK8c4TWQlptQeA11HuP4p7PSzjqMA4hfemo1HzP5p076k0U&#xA;Yt4nDz3zfu0+Eftn7Pep4jM6ObU62Hh0KveXL8fBw5YtPo58dm65fj9KS/pPyJZPJDbfWvNN9DtO&#xA;unrxtIj29S4JWNV/yuZ+WbrS+y8Ii8pv7PsG7otX7VcxjHLu3+ZOyjJ+ZH1RP3HlrSLRl2X1Lxbt&#xA;9j1LW8Mn/Es3OPsbTx5RH+l/W6DN7S5Dzl/sif8AcinH86pg/pXHli0u4zSrQ3IUDx+GeBa5cey8&#xA;ZHT4xDjx9pCD+0j9CMtPzK/KbVWWHVLCXRZjsGlhMcdT4SW5YfSwGYGf2fxS/gj/AJu36nbaX2n/&#xA;AKZHv3/WhdQvPIKSCbSPMtpKynktvcvxrx3p6hCr99Pnmj1Hsxlj6sW9dD+t32D2nwS9OQgX1CcX&#xA;X5tNqFv6GmNbxzkUkljmWY/7ADYfjlWt7S1UI0ccsZ7yD9m3627RaLSzlYyRyeQI+3f9TLfIVk8O&#xA;hi6mJe4vnaaR2NWIrxWp+iv05ndjYjHDxH6pm3F7WyA5eEcoimSZtnWOxV2KuxV2KuxV2KuxV2Ku&#xA;xV2KuxV2KuxV2KuxV2KuxV2KuxV2KuxVJ/MXmSDQ0hkngklSYsqtHxoGWhoakdcwNdr46cAyBN9z&#xA;m6PRHOSAQKYVfTWWrPdeatdI0/QLJApq3xycOiKdqlmNNu/wjfNTp9JLtHN4hFQ5e/8AHU/B2Wp1&#xA;cOz8PADc+fu/HQMJ80eaZ9XgT9Io1looAbTfK8TGLlH9pZtQdCG+L7SxKfeo+03cabTRxARgOXX9&#xA;X63zntLtSUzc9yf4f0y/V93WAav5wnmC28VGgh2hhQCO3j/4xxJxUfMdczo4qdPITybzPwSV9a1F&#xA;j/e8R4Ko/plnAEjBHucmtaip/veQ8Cq/0x4ApwR7k80Dzymlyyz3OkWuqTFCkCXYLQKxO7NF+2ab&#xA;faGVZMPFyJDbpoxxS4qEvfyR835xebXX04YdOtrcGot4rGD0wfYOr5EaSHn83OOvydOED3BLZvO4&#xA;vNtT0LS7mvWSK3+py7dw9q0O/wAwcl4Ncifv+9qOpvnGPyr7qZD5f/ODW9Bt/S0y7lksRt+i9RIu&#xA;DGPG3uQqn/YuoA/yjmLn0AlEiNQl0IG3+lc7T9pyhIGVzj1iT90n0R5Q826P5p0WLU9LlMkZ+CaN&#xA;wFkjlABZHUdDv228M1uTFLGaLvMGojljxRThpI0KhmCljRQSBU+2VGQHNvAJXYUOxV2KuxV2KuxV&#xA;2KuxV2KuxV2KuxV2KuxV2KuxV2KuxVRvLSO6t2hdnQN0eJyjqR0KstCDleXGJxo38Nizx5DA2Pt3&#xA;YNr0XnTQQZ7bUJbqwH+7WCyMnh6gcN/wXTOc1kdXpvVGZlDv5177+93+llpdRtKAjP5X7kns7rXv&#xA;NeoW+nXly0kCt6shCooRV2LURRvvQV8cwcWTPrcgxzlY59P0OZlhh0kDOIo8kq84am+s6/cWOnJD&#xA;/h/ycY09OVlWFr5g1ZHDn94LdEeibln2NQ2eiaTBHDjAAq/u/a+bdo6qWWcpE7Q7/wCd+mu5475h&#xA;1ia4nkjEpkd2LXMpNWZiamp7++bSEaeZwwJ9UuZSPLHIdirsVdirsVdirNPy4/LyXzf+lZfVKQ6X&#xA;CkjRpTnI8hbigrWnwxt260HfNb2pqsmHETjAM+l+X42dt2RoYajLWQkQ61z35ftZp5K8q3On6k9t&#xA;ol1cLJfcVZDJxX4KnkxQL9kE5wGp7Y1OvMcdCMr5xsfPd9C0nYun0HFkuUokcpUf0B7ToPli00oe&#xA;s7G61BhSS7k3b5JWvEZutH2fHDufVPvP6HXavXSy7D0w7gnObBwXYq7FXYq7FXYq7FXYq7FXYq7F&#xA;XYq7FXYq7FXYq7FXYq7FUq17XrPSYA15bzSwSgqWjRXSp/ZapFK++YWs1kMA9YJie4bOXpNJLMfS&#xA;QCGL6LNbaP5V13zPFCIx6dxPaxMeVI4FYolfd9sxewtNE3MCuOW3lG2/tzUyiOEm+CO/mafLw1jU&#xA;xFcRfWG4XUgmuK0JaQchy5HevxnpnecIfNJermo2trPcyenEtT1J7AeJOEmmMpiIsq1/ps1nwLsr&#xA;B67r2I+eCMrY48okg8k2JxpVzp7uLd7ZFZtlc0ap8DUZXIFxssZDcFG3eiWkykxL6MnYr9n6RkRM&#xA;tUM5HPdj1xby28pilHFl+4jxGWg25sZAiwp4UvXf+cbtW+r+atQ01mol/a81HjJbuCB/wEjnMDtC&#xA;FwB7i7fsjJWQx7x9zOvMSXPlzzW9zYERiQevCKVXjJUOpHhyrnmmuEtLqeKG17j48307RmOp0/DP&#xA;etj8OT0Ly9f32oaVDd3kKwSyjkqoTQp2ah6V8K51GizTy4hOYol5zWYoY8hjE2AmOZbjOxV2KuxV&#xA;2KuxV2KuxV2KuxV2KuxV2KuxV2KuxV2KuxVL7zzDolmCbi9iQjqgYM3/AAK1b8Mxcutw4/qkHJx6&#xA;PLP6Ylhvmnz5ZX1hNp9jCzpMOLzyfCAAQfhXr99M0PaPbMMkDjgOfUu60PZUoTE5nl0Cp51tWi/J&#xA;y/hiXcaejsB78Xc/rzpex4CMcY8h9rzXbcjLxT5n73ynnVPEMk0u1MdjCqhxJOQ7MgB2qCASSKDj&#xA;4ZVI7uHOQMjfTkhfNBkjvEtJFKSQissZBDKzfssD3phx8rbsOIxG/NN/M/kKLT/Kuj+aNJumv9Lv&#xA;4kS9Ygcre7p8cbcei8qge49xlePPczE7Efc7LNpeHHGcTcTz8iw8Eggg0I3BGZDhvaH/AC9i1Lyd&#xA;ZebPLEkk0EsAkvtKkJldHjqs/wBXc/G3B1PwNUsOhrQZrhqOGZhL5udm7JjkxDJi7tx99PPddsPV&#xA;tvVArJGokRh0aNhyqD3BG4zLhJ0uMmEuEsYy5zGYflDffUvzI0OWu0k5gPv68bRfrfMfVRvGXM0E&#xA;uHNE+f37PffzRiWmnS/tfvUPy+EjPO/aGP0H3/ofTewpfWPd+lk2keZtDvrWIw3EcL8QDbOwVkNP&#xA;s0NK09s2+m1+HJEUQPJ1eo0WXHI2CfNvWTrEs1pHpTKnBvXmkevpOqsq+kWFT8Qdm2/ly7Lxkjg9&#xA;/wCz8dy6bwgJHJ7h3+/4VXxVtATUF0uJ9RkaS8lLSycl4cQ7FlTj+zxWgpksAlwji5sNWYeIRAVE&#xA;bft+KYZc4yD0w3bxzTXPJWmmdoom/YiU8EH+yVOZ9zleO6JPe3Z+EECPQD4nmf1fBGZY0pJ9Y1yb&#xA;XbdxC8OlBpIiDSr0Rz6jj7SjmoCf83ADG4pnINvS5/BiGEiwcmx+0bD4c/2bneZLgIDWxfvYmCwY&#xA;x3VwyxJOBX0gd3kPyUGnvTKs3EY1HmfscjS8Anc94jeu/wAvx0UNBXXGe8m1ZxzZ0SGCMUjRUQFi&#xA;lQGNXYip60r02yGDj3M2zVnFURj+J68/1fem2ZDhoOA3Ump3LPyS1iVIoUOwdyOcj+4oyqPcNlcb&#xA;Mj3N0uEYxX1GyfuA+8/JGZY0uxV2KuxV2KuxV2KpPfeUfL16WaazRZG3MkdYzXx+EgH6cwM3ZmDJ&#xA;uY7+Wzm4u0M0OUtvPdhPm3yVHpFt9dtZy9sWCNFJTmC3ShFAfuznu0uyRgjxxNx8+bvez+0zmlwS&#xA;Hq8mZ6gmn3nk25W+b0tPuNOf6y434QvAebD/AFV3zrdHImMCO4PK62A9Yly9VvkuTylqUAgN0UhN&#xA;xFHcLHXk4jlXnGWA2BZCGpWtDvnTDKDyeDzT8M0edX8078snzDL5s0/TfLSo2pRqVhllFUibgQZm&#xA;6j92vxCoO/atMqycPATLkz7PxylMGI9R5eXm9D8y/kEIvJsk1lO+oea45Gu7q4Yn/SKg84UUk7/t&#xA;KTux69dsTHrvXvtF3ubsusdg3k5+95j5E8xa3p2qLocMcV1YazNHZ3ulXtRbyGRxGCx+1Gyk/bXc&#xA;e9Mzc+OJHF1HV1umyyjLhG4lsQeSp5v8jyaZfMlpDNbSHdtIvKC6j7funX93dR16PEa/zKOuDFm4&#xA;hv8AP8ckajBwHax5Hn+0eYZN+Sn5nw+Wrp9C1l/T0e7k5x3Df8e8xFCW2rwegB8Dv45TrNNxjijz&#xA;crs3WjGeGX0n7GRefvK1rBNqq2ar6FqItSsglCps752SaMU/ZjuQXWnRZDlWDKTV+74j9n3NXa2k&#xA;FGUf4aP+af1S+94U68XZf5SR92bNwAWQfl0CfPvl6n/Vwtv+Tq5TqP7uXucjS/3sf6w+99Hfmj/v&#xA;Pp/+vL+pc879ofph8f0PqHYXOfw/Sp+WPINlcWcN9qMhlEyh0t42ooU9OTDcn5UpkOz+xoSgJ5Dd&#xA;9Ay13a0oyMICq6lnNpaW1nbpb20axQpsqLsBnRY8UYR4YigHQ5MkpnikbKlqmp2el6bdajev6dra&#xA;RNNM/UhUFTQdz4DLoxMjQapzEYmR5Bgtt+fPkG6uYraB7uSed1jijFu1WdzxUDfuTmSdFkAvZwI9&#xA;qYiaF/J6JmI7F2KuxV2KvPtR/PT8v7C/ubGaedprWV4ZTHCWTlGxVuLV3FR1zLjoshFuvn2nhiSC&#xA;TszPQ9YtNa0m21SzDi1u09SH1V4MUJIBK+/Ue2Y04GJoubiyCcRIcijsizY35889aV5N0YajfI87&#xA;yv6Vrax0DSPQnqdlUAbnLsGA5DQcbVamOGNlIfy5/OPSvOV7JpzWb6bqSIZY4WkEySIp+Li4WP4h&#xA;1IK5bqNIcYu7DRpO0I5jw1RehZiOwdirsVdirsVdirTGik0JoK0HXASoeaed7zX76QGaxmtdMgNY&#xA;wymhJ25uwqAfAds5HtfLnyHeMo4x+LL1PZePDjG0hKZ/GzINNhPmD8vZ9NSQRy3NlPp5c7hGaNol&#xA;JA/ySDnQ9jajiwwl/N2+X7HQdsac+JOP879LxPV/LX5iX2rpCNBma9kVIJCkMsdtG0KCIfvnrEUK&#xA;oCCJPuzqIZMYHPZ4PP2dlyZLINny2225vYPyz/LOz8n2Tzzst1r14P8ATbwV4gE19KKtDwB6nqx3&#xA;8ANdqdSch/ovR6HQxwR/pM3zGc9gnm38m/KXmPUhqhM2m6iWDy3Fkyp6jA15OrKw5f5QofGuZWLV&#xA;zgK5hwM/Z2PJLi5HyZfquj6Vq1o1pqdpFeWzb+lMgcA9KivQ+4zHjMxNg05mTHGYqQsPO9a/5x78&#xA;l37tJZz3enueiJIJox9EoaT/AIfMyGvmOdF1uTsjEd43FvT/ACWdDkh8uy6hJqfLQ9XRHkQIUiM1&#xA;n6UYFW2Rmcrv37YnNxeqq9Uf0sZaXhicZPF6J/72nzVckG5lI6F2P45uA85HkGdfkbpL6h+Y2nvx&#xA;5RWCS3c3sEQoh/5GOuY2tlWM+bsOzcfFmHlu9Z/NnzHpVtqdpY3N1FE8ERkZWYcqyn+Xr0QH6c4T&#xA;tXR59TkjHFAy4Rz6b+fLo+hdna7T6aBllmImR5ddvLmhPIXnPSlu0trTzHY+nK9DY3Bmi5MdvgMs&#xA;ca8j2od/fLtD2RrtPzrg6jn93Jx9X2zodRsCePoeX383rubh17yH/nIzzT9S8vWvl+BqT6o/qXAH&#xA;aCEggH/Wkp/wJzYdn4rlxdzqO18/DAQH8X3PP/yC8r/pfzoNRmTlaaMn1gkioM71WEfRu4/1cytd&#xA;k4YV3uB2Xh48vF0i+kV1zRm1GTTFv7c6jFT1LP1U9ZeQDLWOvLcGvTNPwSq62ej8SN8Ni+5B+YPO&#xA;Plfy6qnWtShs2cVSNyWkYdKrGgZyPemSx4pT+kWwy6iGP6jS7y75v8teZIXm0S/jvVip6qryV05d&#xA;OUbhXWvuMcmKUPqFLh1EMguJtBfmJ5nXy15O1HVA3G5SP0rPxM8vwR0HfiTyPsMlp8fHMBhq83h4&#xA;zLq+TvLOiTa/5hstLRuJu5QJpiR8EY+KWQk/yIGbN9knwxJeUw4zkmI976i/5Wj+WOlejpaa1bIl&#xA;uqwQpCJJY1VF4qvqRq6AAD+bNJ+Wyy3p6j87gj6eIMvtrm3ureO5tpVmt5lDxTRkMjKwqGUjYg5j&#xA;kEbFy4yBFh5n+c9t5U8w6aNHn8wWWm63p8omhiupQoq6bpIBVlDKwINDmZpDOBvhJiXW9oxx5I8J&#xA;kBId6Tfkh+WSadfv5mn1K01D01e3s1sZDLGrMAHZ3IXcKacR45brNTY4aI97T2bouE8ZIPuevWGs&#xA;aTqJlFheQXTQMY51hkVyjKSCrhSeJqO+a+UCOYdtHJGXI2gNf86eVfL9BrGpwWkjbrCzcpSD39NO&#xA;T096ZKGGc+QYZdRjx/Uad5c85+WPMiSPomoR3npUMqKGR1DdCyOFcD6McmGUPqFLh1EMn0m0w1TU&#xA;rTS9NutRvH9O1tInmmbwVBU09/DIxiZGg2TmIxMjyDEdC/Of8vtZnhtob9re7nZUit7mJ0YsxAC8&#xA;gGjqSafay+ekyR3pw8XaOGZoGizjMZznYqxb8wNahs9IaxBDXN4OIT+WMH4mP3UH9mabtrVCGLg/&#xA;in9ztuyNMZ5OP+GP3pH+WmqiK7n02Q0WcerDX+dB8Q+ld/ozXdgampHGf4tx7/7Puc7tvT3EZB02&#xA;P4/HN6JnVPNuxV2KvIfJf5y3cety+XPOXpRXEdxLZxatGPTiaaF+DJMv2Vqf2htuKjvmwzaQcPFD&#xA;5On03aJEuDLzur/W9ezXu4dirzzXtdhgvfOHmEvxttC05dKtpBurXctZpFBHcPJCnzzMhCxGP843&#xA;8PxbrM+TfJP+bHh+P4p8sk1NTm7eZemeVdWm8ieQbjXolC695lc22kMwBMVtbn97PQ+LtQA9wD0z&#xA;Cyx8XJw/wx5uywZDgxGY+qew9w6sDtbfUte1fi0jT3l0xea4lJY+LO7HfDrdZj0uE5JfTHp3+Qat&#xA;Fo8mrzDHH6pdfvJV/M+hxaNfx2sc5uA8KysxXgVYkqVoC3dajKOye0hrMXiAcO9V+Pe5HbHZh0Wb&#xA;wzLi2u/x7n0Z+QvmS91nyOIr2RpZ9Mna0WViSzRBVeOpP8ofj8gMx9djEZ7dXZ9l5jPFv/CaeE/m&#xA;p5o/xJ531C+jfnZwt9Vsj1HowkqGX2duT/Tm002PggA6LXZvEyk9OQe6flJo9t5P/LQ6tqA9KS5j&#xA;fU71j9oRBKxr/wAiwDTxJzV6qZyZKHud5oMYw4eI9dy+bdb1e81rW7zVLmpub6ZpWA3oXOyr7KNh&#xA;m5hARiAOjzmTIZyMjzLIvMv5b+cdI8uW/mTXOMcVxIkK28sjNdLyUlC6kFVFF6cqjuMpx6iEpcMX&#xA;IzaPJCAnL9qY/kNd3MH5l6fFCxEd1FcRXAHQoIHkFf8AZxrkNaAcZbOzJEZxXW/uZN/zkj5o+sap&#xA;Y+W4HrHZL9avFHT1pRSNT7rHU/7LKez8dAy73K7XzXIQHTd595L/AC981+bJJf0PCFt46pPeSsY4&#xA;QSK8CwBLE+AB98y82eGPm6/T6TJl+nkxuaJopXiYgtGxUlTUEg02I6jLgXGIp9Xflq3+Hvym0251&#xA;RikdraS3spO5ELu9wg+fpuNs0Wo9eUgd71Wj/d6cGXQX+l8waxqV/wCYNfur+RTJealcM4jXc8pG&#xA;+FF+WyjN1CIhGugeZyTOSZPUl9NajLD+W/5TenEyrd2VqIYiP272fqwr1/eOX+QzSxHjZff9z0sy&#xA;NPp/MD7XzDow1qXVYE0cznVJX42/1YsJix/lKkNm7nw1vyeZx8Rl6b4k488+TvM3ly8tn8xSpLf6&#xA;lGbhj6xnlB5Ub1WP7Ve4JB8crw5YzHp5Bu1OnnjI4+ZZt/zjbYXcvm+/vkBFrbWTRzN2LzSIUX6R&#xA;Gx+jMbtCQ4APNzex4k5CegDJv+chvN8gtrbyhp5Z7m7pc6gE3IiQkxxmniy8z4BR45RoMW/GXJ7W&#xA;1Gwxjmebx/8ALqNZPPvl5W6DULZtvFZVYfiM2GoP7uXudRpB+9j/AFg+yM557BDajPeQ2xaztzc3&#xA;LbRpyVVBp9pixGw9t8pzznGPoHFL8c23DCMpeo8MWCXXkLzNqNw95fXcH1iXcgs5p7bLQAe2c3k7&#xA;G1GWRnOUeI+/9Tv4drYMYEYRlQ/Hexi4g1HQ9X4MfTvLRwyspqOgYEeIIOaecMmny0dpxLtYThnx&#xA;3zjJ6xoGt22saelzCQJAAJ4q7o/cfLwzt9Fq458YkOfUdxeQ1ellhnwnl080yzLcVLPMnmLTfLuj&#xA;XGrajJwt7dahR9p3P2Y0HdmOwyePGZyoNWbNHHEyk+UPPF3I90kFwAupSTXOo6rGvSK6vnDtD/zz&#xA;jRAw7NUds32EbbcuQ+DyWokTLfnzPvP4+b6B/JHzfN5i8mpFdv6moaWwtZ3JqzoFBic+5X4T4lSc&#xA;1OsxcE9uRei7N1HiY6POOye+c/Nq6NbLZ2XCbXr1SLG2dgFQUPK5nP7EEVCzsfCmVYcXEbP0j8V7&#xA;2/U6jgFD6zy/WfIPnr8wvOtpcaZbeU9Fna50uzkafUdSbZr+9clpJj34c2bjXr9Azb4MJB45cz07&#xA;g89qtQDEY4m4jme896B/LT8udQ85awqUaHR7dgdQvAOg6+mldi7fh1PgZajUDGPNho9Ic0v6PUpl&#xA;+ed1aHzjDp1hxXT9JsobO2ij+wgXkSo+VafRlHZ2QTgZA36jfvcntfGYZREigIivcnP5XW36F/Lf&#xA;zT5xito7m/jpaWYlQOEC8C78SDtWUMf9XIayEcuSOOW8W3s+UsOKeWP1ch+PxyeW6nql9ql495fS&#xA;CW4f7TBUQUHYKgVR9AzNwaeGKPDACMfJ1mfUZM0uLJIyl5vRPLPn+y8o/lfdadYyiXzFrU0rgIai&#xA;2hZVh5uRsH+Biq9dwTt1x8mA5Mtn6Q5mHVDFgIH1y+xh/kLy2fMnm7TdIIJhnlDXJG1IYxzl37fA&#xA;pA98yM+TggS4mlw+JkEXsX/OQHnu2tNNXyfpzL9YuAjahwoBFCpDRxbdC9Aafy/PNfocBJ4y7ftX&#xA;VAR8MfFgv5E+VRrfnWO8nTnZaOv1qSoqplrxhX/gqv8A7HMnW5eGFdS4PZmDjy2eUd/1Mr/5yT80&#xA;RO+neWoH5PEfrt6o/ZYqUhU+/FnJHuMo7Px85OX2xm5QHvP6Ei/JhLDy9aat591g8LKxjNnYJsGm&#xA;uZAGZY69W4gL/sj4Zbq7mRjHMtHZwGMSyy5DYe955rer6h5g1261O5HO81CYuUQE7saKijrRRRRm&#xA;XCAhGhyDr8mQ5JmR5l9G64B+Xf5NG0gIS/S3W3Djqbu6P71wR/KWZl9gM1EP32a+n6Hosn+D6ahz&#xA;r7S8A8heWm8yebtN0ihMM8oa6I2pBGOcu/b4FIHvm1z5OCBLoNLh8TIIvYf+cgPPdtaaavk/TmX6&#xA;xcBG1DhQCKFSGji26F6A0/l+ea/Q4CTxl2/auqAj4Y+LBPyI8sDWfPEN3MvK00hfrb16GUHjCP8A&#xA;g/i/2OZOtycMK73B7Mw8eWzyjv8AqTT8/fP0GtarF5f06QSWGmOWuZVNVkuacaA+EQqPmTkNDg4R&#xA;xHmW3tTVCcuAco/emv8Azjb5X9S51DzLOnwwj6lZE/zsA8zD3C8R9JyHaGTYRbex8O5mfcGAfmz5&#xA;kfX/AD3qVyG5W1q5s7TwEUBK1Hsz8n+nMrS4+DGA4GuzeJlJ6Db5PYvy6/Rf5fflQNf1SizX4+us&#xA;lQHlMi0toU92QA+1Sema/UXly8I6fgu40nDp9Pxy67/qYr5F0O/12y81/mNrwrJLZ3q6eW2UEwOs&#xA;jrX9mNP3a/T4ZfmmImOOPeHF02MzE80+418vwHmfkWf0POugTVICajaFqdePrrX8MzMwuEvcXWaY&#xA;1lj/AFh973Tz1+Z2vN530zyp5LeOa+SYDUGZRJGz94WNNljWrSMu48djmswaaPAZz5O81Otn4ox4&#xA;ufX8fe9azAds7FUhv/Jmj6heT3l56ss89N+fEIFUKAoAHh3rmtzdlYsszOdkn7HYYu0suOIjGgA8&#xA;207Ub3SdVd9LkMnF2RRTkJUB25KPHOSwZ54cpOM3v8w9PmwwzY6yCv0PQ9N886RcI63x/R1xEheW&#xA;O4+FaAVJVjTt40OdZo+1IZiIH0z7j+h5jV9nTxAzB4od4/S8u86+fZtcm0TW7XTimi2F1NJY/WZQ&#xA;sl6VX0/Wjg4Nw9Ft0Zz128c6fDg4biTuR8njNdrweGVVGzXn515PD7n1/Xc3HL1mJaQv1JO5Jr45&#xA;sg6gEHkyPyb+Yev+ULfUY9H9JZNSEYeaVeZjMXOjIpPHl+8P2gR7ZVmwRyVfRy9Pq54geHqhI5vO&#xA;Pma8uEhF3qt3dsGujGryu9PsiQqCeC02B+EYahAdAwByZCauRL0Pyj/zj9qEgXUPN9yml2CfE9oj&#xA;q0zD/Lk3jjB+ZPyzB1HaUIAkfM8nZ6TsecyOL5DmzzU/M+m6dpiaD5WgWz06FfT9VAV2PXhX4qnu&#xA;7bn8c4XtPtw5LjjPPnL9T3/ZvYscYBmOXKP62IfmF+Vt1rPl/TPMXlyA3N0kHp6jaJvJJxYn1EH7&#xA;TK1VKjelKZ03s7mxw08Y9Dv8ery3tLpMmTOZjcjavLo82s9a886Zo955btjdW1hevW6s/RIZmZQr&#xA;LUrzHMAAgHfOgOPGZcfV5mOXLGBxi+E9GT+QvyP8x6/cJcaxFLpGkUq0ki8biTbYRxsKj/WYU8K5&#xA;Vn1kYcty5Gl7NnkNy9MftZf51/IXStN8m3Evl2K5v9ZgkSYtK/OV4lBEkccaBF/a5UoW2oMx8OuJ&#xA;n6tg5mp7LjHGeCzJ5X5Pm87aRrTSeXrOf9KyRvbAC3MjoHIDEKykKRTqemZ2UQlH1HZ1WnOWEvQD&#xA;xe5ItRe8fULlr6QzXhlf6zKzeoWk5HkS4J5b965bGq25NEybN83qvl65/MLyF5S0++0bRFubfVwb&#xA;69vDG85oylYInSPi0aqn7zkepale2YOQY8syJHls7XEc2DGDGN8W5/Q83vk8ya7q095cW9zeajeS&#xA;GSUrE7MzN4Ko6DoAOgzLjwxFdA66XHOVkEksg17yj+Y/6E0tb/TLiOxjDR6fpsMTsUAAaSV40DcW&#xA;dm3MnxE+wyqGXHxGjv3t+XBm4RYNdAnP5N/l9q1353tbrVdOuLay0wG7LXETxK8qECJQXAqeZDfR&#xA;lerzgQIB3Ld2fpZHKDIEAbvWPz18vaprfkUx6bE889ncx3bwRgl3jVHRgqj7VPU5U9swNFkEZ79X&#xA;bdp4pTxenobfPvk64866TrBl8uWk51SWJ7deNuZWVZCKkBlIBFOp6ZtsohIeo7PP6c5YS9APF7mQ&#xA;+a/ye87afoMXmG+D3+o3MrvqdvFWeWJWAZZHYV5mvLmRsNt+uU4tXAy4RsOjkZ+z8sYcZ3J5pN5R&#xA;m/MK2tNT0/y1bXSpqEa/X5IYTyEcIc/3pH7vZz0IJy3KMZIMujTgOYAiAO/NKR5Q82EgDRb+p/5d&#xA;pv8AmnJ+LDvDV+XyfzT8n1t5F8tx+W/KmnaOABLbxA3LD9qd/jlNe/xsae2aHNk45kvWabD4eMRf&#xA;KXm3ypr2jeYL2zvbSYMJpDHLwYrKhY8ZEbcEMM3uLLGUQQXlc+CcJkEM+0TyV+Y35hSWcnmMyWeg&#xA;6dEqW0Uq/Vg4RQAkScSavQAyspoOlaccxJ5seK+H6i5+PTZtRXHtEfD8e9K/PPmD80bZZtCurCXR&#xA;NE9IWkOmW0Vbf0F6Ks9GMhIHxMG33+WWYceI+oG5d7VqcucegjhjyocvmxPy95Q84atexDRtOunn&#xA;R1ZLhUaNI2BqGMrcVSh7k5fkywiNy4uLT5Jn0gvoz8rPyqtfJ9u97eut3r90tJ7gVKRKdzHGTuan&#xA;7THrmo1OpOTYfS9FotCMIs7zL0DMRz3Yqh9Qt5rmylt4ZfQeVeHqgVKq2zEdN+NaZVngZwMQavq2&#xA;YZiMhIi6UNI0PTdJgEVnEFNPjlO7ufFmyvTaPHhjUB8erZqNVPMbkf1PK/zjJ1HzFaeXdLKvq2pQ&#xA;LHMFO0MPJi8sv8oEdevbBj7O49XHPIfu8Yv3y3oNGp7SENLLTxP7zIa90drJ/HmwjzZqFndaqINP&#xA;/wCOXp0Udjp4/wCKYBxDf7Nqt9OdLiiQN+Z3fPdfnGTJ6fpjsPcP182JajxvZksLWD61fOaIEFSv&#xA;c7j/AGvHJzyxxRM5nhiGWh02TLMRgCSene9S8kWHlLQdHitrzQINX1VzzmurlY5PjalEjDo/FVpQ&#xA;ePXvnE6j2rM5Hgia6b1+h9N0nsnHHAcZiZddrZhqHnbWtPRbWDSo9LQrWON0NQOlVFEX/hc1+q7a&#xA;1ETRhwE993+h2mm7HwEbS4gO6qSTUo/NOoWK6pfCaezNSshI4LTYngv2R78c1meOpyw8WdmH2fLp&#xA;8nY4ZafHPw4UJfjr1ZbqH5dadcWETWDG3u1jWpYlkkPEfaBrxJ9vuzeZuw8coDg9Mq+BdPh7YnGZ&#xA;49438Qp+Rbu7029n8v6ihilqZbdW8afEFPcECop75DsfLLFM4Mgo8x+n8e9n2rjjliM0NxyLN86J&#xA;0LsVdirEvzU80f4b8kahexvwvJl+q2RGx9aYFQy+6Lyf6MyNNj45gOJrs3h4ievIPl/yP5bk8yea&#xA;tO0dQfTuJQbhh+zCnxytX/UBp75us2TggS8xpsPiZBF9lxRRxRpFGoSONQqINgFAoAM50l7ECl2K&#xA;XYq7FXYq7FXYq7FXYq7FXYq7FXYq7FXYq7FXYq7FVk8KzQyQuWCSKUYqxVqMKGjLQg+4wg0gixTw&#xA;3Vfyk8/aMby38uvDqNjfMTNM0ghvZFJrwuHk+0o8Ffi3UrXNnHVY5VxbEfJ5zU9l5txA3E/P4sW1&#xA;P8sfPFpHC+sSQafDOWURRP6snw0Jrx+Hv/PmF2l27i0sQREzJ5dB+Pg5PZfsrk1EjZEQPifly+17&#xA;H+Vn5daV5Y0wXgh5aneKC88lDIsZ3CdPhr1IH8MwsOozZo8eXmeUegH6++3eS0eHTngxdOcjzP7P&#xA;IJxY+TbO18xzamqr9X4hraEDZJW+2ae1Nvn7Zr8PZcIag5P4eg7j1/Hm7LL2lKeAY+vU+S7zxow1&#xA;HRJHRa3NpWaI96D7a/Sv45LtfS+LhJH1R3H6Udl6nw8oB+mW36kz0OJE0SwjA+EW8Qp4/AMy9JED&#xA;DAf0R9ziaqROWR/pH70dmS0IW80yzvJIJZk/fWziSCVdmUg1pXwPcZTl08JkEjeJsFux55QBA5S5&#xA;orLml2KuxVRubOzukCXUEc6KaqsqK4B6VAYHCCRyRKIPNTt9K0y2k9W2s4IJKU5xxojUPaqgYTIn&#xA;mUCERyCKyLJ2KuxV2KuxV2KuxV2KuxV2KuxV2KuxV2KuxV2KuxV2KuxV2KpJ5g0JtWv9M5gfVbZ3&#xA;kuK03Hw8Up/lEfdmu1uj8acL+mJJP2bOfpNV4MJ19UgAE7zYuA7FXEV2PTFWlVVUKoCqooANgAMA&#xA;FJJtvCh2KuxV2KuxV2KuxV2KuxV2KuxV2KuxV2KuxV2KuxV2KuxV2KuxV2Kv/9k=</xmpGImg:image>
               </rdf:li>
            </rdf:Alt>
         </xmp:Thumbnails>
      </rdf:Description>
      <rdf:Description rdf:about=""
            xmlns:xmpMM="http://ns.adobe.com/xap/1.0/mm/"
            xmlns:stRef="http://ns.adobe.com/xap/1.0/sType/ResourceRef#"
            xmlns:stEvt="http://ns.adobe.com/xap/1.0/sType/ResourceEvent#">
         <xmpMM:OriginalDocumentID>uuid:9E3E5C9A8C81DB118734DB58FDDE4BA7</xmpMM:OriginalDocumentID>
         <xmpMM:DocumentID>xmp.did:237C6D830A20681180839B841010530F</xmpMM:DocumentID>
         <xmpMM:InstanceID>xmp.iid:237C6D830A20681180839B841010530F</xmpMM:InstanceID>
         <xmpMM:RenditionClass>proof:pdf</xmpMM:RenditionClass>
         <xmpMM:DerivedFrom rdf:parseType="Resource">
            <stRef:instanceID>uuid:a602ea51-5e94-374a-bdfb-6dc21f2fc343</stRef:instanceID>
            <stRef:documentID>xmp.did:F77F117407206811822AFE263ECF91F1</stRef:documentID>
            <stRef:originalDocumentID>uuid:9E3E5C9A8C81DB118734DB58FDDE4BA7</stRef:originalDocumentID>
            <stRef:renditionClass>proof:pdf</stRef:renditionClass>
         </xmpMM:DerivedFrom>
         <xmpMM:History>
            <rdf:Seq>
               <rdf:li rdf:parseType="Resource">
                  <stEvt:action>saved</stEvt:action>
                  <stEvt:instanceID>xmp.iid:F77F117407206811822AFE263ECF91F1</stEvt:instanceID>
                  <stEvt:when>2013-04-02T12:53:56+13:00</stEvt:when>
                  <stEvt:softwareAgent>Adobe Illustrator CS6 (Macintosh)</stEvt:softwareAgent>
                  <stEvt:changed>/</stEvt:changed>
               </rdf:li>
               <rdf:li rdf:parseType="Resource">
                  <stEvt:action>saved</stEvt:action>
                  <stEvt:instanceID>xmp.iid:237C6D830A20681180839B841010530F</stEvt:instanceID>
                  <stEvt:when>2013-10-08T19:44:33+13:00</stEvt:when>
                  <stEvt:softwareAgent>Adobe Illustrator CS6 (Macintosh)</stEvt:softwareAgent>
                  <stEvt:changed>/</stEvt:changed>
               </rdf:li>
            </rdf:Seq>
         </xmpMM:History>
      </rdf:Description>
      <rdf:Description rdf:about=""
            xmlns:xmpTPg="http://ns.adobe.com/xap/1.0/t/pg/"
            xmlns:stDim="http://ns.adobe.com/xap/1.0/sType/Dimensions#"
            xmlns:xmpG="http://ns.adobe.com/xap/1.0/g/">
         <xmpTPg:NPages>1</xmpTPg:NPages>
         <xmpTPg:HasVisibleTransparency>False</xmpTPg:HasVisibleTransparency>
         <xmpTPg:HasVisibleOverprint>False</xmpTPg:HasVisibleOverprint>
         <xmpTPg:MaxPageSize rdf:parseType="Resource">
            <stDim:w>296.999959</stDim:w>
            <stDim:h>210.001652</stDim:h>
            <stDim:unit>Millimeters</stDim:unit>
         </xmpTPg:MaxPageSize>
         <xmpTPg:PlateNames>
            <rdf:Seq>
               <rdf:li>Cyan</rdf:li>
               <rdf:li>Magenta</rdf:li>
               <rdf:li>Yellow</rdf:li>
               <rdf:li>Black</rdf:li>
            </rdf:Seq>
         </xmpTPg:PlateNames>
         <xmpTPg:SwatchGroups>
            <rdf:Seq>
               <rdf:li rdf:parseType="Resource">
                  <xmpG:groupName>Default Swatch Group</xmpG:groupName>
                  <xmpG:groupType>0</xmpG:groupType>
                  <xmpG:Colorants>
                     <rdf:Seq>
                        <rdf:li rdf:parseType="Resource">
                           <xmpG:swatchName>White</xmpG:swatchName>
                           <xmpG:mode>RGB</xmpG:mode>
                           <xmpG:type>PROCESS</xmpG:type>
                           <xmpG:red>255</xmpG:red>
                           <xmpG:green>255</xmpG:green>
                           <xmpG:blue>255</xmpG:blue>
                        </rdf:li>
                        <rdf:li rdf:parseType="Resource">
                           <xmpG:swatchName>Black</xmpG:swatchName>
                           <xmpG:mode>RGB</xmpG:mode>
                           <xmpG:type>PROCESS</xmpG:type>
                           <xmpG:red>0</xmpG:red>
                           <xmpG:green>0</xmpG:green>
                           <xmpG:blue>0</xmpG:blue>
                        </rdf:li>
                        <rdf:li rdf:parseType="Resource">
                           <xmpG:swatchName>RGB Red</xmpG:swatchName>
                           <xmpG:mode>RGB</xmpG:mode>
                           <xmpG:type>PROCESS</xmpG:type>
                           <xmpG:red>255</xmpG:red>
                           <xmpG:green>0</xmpG:green>
                           <xmpG:blue>0</xmpG:blue>
                        </rdf:li>
                        <rdf:li rdf:parseType="Resource">
                           <xmpG:swatchName>RGB Yellow</xmpG:swatchName>
                           <xmpG:mode>RGB</xmpG:mode>
                           <xmpG:type>PROCESS</xmpG:type>
                           <xmpG:red>255</xmpG:red>
                           <xmpG:green>255</xmpG:green>
                           <xmpG:blue>0</xmpG:blue>
                        </rdf:li>
                        <rdf:li rdf:parseType="Resource">
                           <xmpG:swatchName>RGB Green</xmpG:swatchName>
                           <xmpG:mode>RGB</xmpG:mode>
                           <xmpG:type>PROCESS</xmpG:type>
                           <xmpG:red>0</xmpG:red>
                           <xmpG:green>255</xmpG:green>
                           <xmpG:blue>0</xmpG:blue>
                        </rdf:li>
                        <rdf:li rdf:parseType="Resource">
                           <xmpG:swatchName>RGB Cyan</xmpG:swatchName>
                           <xmpG:mode>RGB</xmpG:mode>
                           <xmpG:type>PROCESS</xmpG:type>
                           <xmpG:red>0</xmpG:red>
                           <xmpG:green>255</xmpG:green>
                           <xmpG:blue>255</xmpG:blue>
                        </rdf:li>
                        <rdf:li rdf:parseType="Resource">
                           <xmpG:swatchName>RGB Blue</xmpG:swatchName>
                           <xmpG:mode>RGB</xmpG:mode>
                           <xmpG:type>PROCESS</xmpG:type>
                           <xmpG:red>0</xmpG:red>
                           <xmpG:green>0</xmpG:green>
                           <xmpG:blue>255</xmpG:blue>
                        </rdf:li>
                        <rdf:li rdf:parseType="Resource">
                           <xmpG:swatchName>RGB Magenta</xmpG:swatchName>
                           <xmpG:mode>RGB</xmpG:mode>
                           <xmpG:type>PROCESS</xmpG:type>
                           <xmpG:red>255</xmpG:red>
                           <xmpG:green>0</xmpG:green>
                           <xmpG:blue>255</xmpG:blue>
                        </rdf:li>
                        <rdf:li rdf:parseType="Resource">
                           <xmpG:swatchName>R=193 G=39 B=45</xmpG:swatchName>
                           <xmpG:mode>RGB</xmpG:mode>
                           <xmpG:type>PROCESS</xmpG:type>
                           <xmpG:red>193</xmpG:red>
                           <xmpG:green>39</xmpG:green>
                           <xmpG:blue>45</xmpG:blue>
                        </rdf:li>
                        <rdf:li rdf:parseType="Resource">
                           <xmpG:swatchName>R=237 G=28 B=36</xmpG:swatchName>
                           <xmpG:mode>RGB</xmpG:mode>
                           <xmpG:type>PROCESS</xmpG:type>
                           <xmpG:red>237</xmpG:red>
                           <xmpG:green>28</xmpG:green>
                           <xmpG:blue>36</xmpG:blue>
                        </rdf:li>
                        <rdf:li rdf:parseType="Resource">
                           <xmpG:swatchName>R=241 G=90 B=36</xmpG:swatchName>
                           <xmpG:mode>RGB</xmpG:mode>
                           <xmpG:type>PROCESS</xmpG:type>
                           <xmpG:red>241</xmpG:red>
                           <xmpG:green>90</xmpG:green>
                           <xmpG:blue>36</xmpG:blue>
                        </rdf:li>
                        <rdf:li rdf:parseType="Resource">
                           <xmpG:swatchName>R=247 G=147 B=30</xmpG:swatchName>
                           <xmpG:mode>RGB</xmpG:mode>
                           <xmpG:type>PROCESS</xmpG:type>
                           <xmpG:red>247</xmpG:red>
                           <xmpG:green>147</xmpG:green>
                           <xmpG:blue>30</xmpG:blue>
                        </rdf:li>
                        <rdf:li rdf:parseType="Resource">
                           <xmpG:swatchName>R=251 G=176 B=59</xmpG:swatchName>
                           <xmpG:mode>RGB</xmpG:mode>
                           <xmpG:type>PROCESS</xmpG:type>
                           <xmpG:red>251</xmpG:red>
                           <xmpG:green>176</xmpG:green>
                           <xmpG:blue>59</xmpG:blue>
                        </rdf:li>
                        <rdf:li rdf:parseType="Resource">
                           <xmpG:swatchName>R=252 G=238 B=33</xmpG:swatchName>
                           <xmpG:mode>RGB</xmpG:mode>
                           <xmpG:type>PROCESS</xmpG:type>
                           <xmpG:red>252</xmpG:red>
                           <xmpG:green>238</xmpG:green>
                           <xmpG:blue>33</xmpG:blue>
                        </rdf:li>
                        <rdf:li rdf:parseType="Resource">
                           <xmpG:swatchName>R=217 G=224 B=33</xmpG:swatchName>
                           <xmpG:mode>RGB</xmpG:mode>
                           <xmpG:type>PROCESS</xmpG:type>
                           <xmpG:red>217</xmpG:red>
                           <xmpG:green>224</xmpG:green>
                           <xmpG:blue>33</xmpG:blue>
                        </rdf:li>
                        <rdf:li rdf:parseType="Resource">
                           <xmpG:swatchName>R=140 G=198 B=63</xmpG:swatchName>
                           <xmpG:mode>RGB</xmpG:mode>
                           <xmpG:type>PROCESS</xmpG:type>
                           <xmpG:red>140</xmpG:red>
                           <xmpG:green>198</xmpG:green>
                           <xmpG:blue>63</xmpG:blue>
                        </rdf:li>
                        <rdf:li rdf:parseType="Resource">
                           <xmpG:swatchName>R=57 G=181 B=74</xmpG:swatchName>
                           <xmpG:mode>RGB</xmpG:mode>
                           <xmpG:type>PROCESS</xmpG:type>
                           <xmpG:red>57</xmpG:red>
                           <xmpG:green>181</xmpG:green>
                           <xmpG:blue>74</xmpG:blue>
                        </rdf:li>
                        <rdf:li rdf:parseType="Resource">
                           <xmpG:swatchName>R=0 G=146 B=69</xmpG:swatchName>
                           <xmpG:mode>RGB</xmpG:mode>
                           <xmpG:type>PROCESS</xmpG:type>
                           <xmpG:red>0</xmpG:red>
                           <xmpG:green>146</xmpG:green>
                           <xmpG:blue>69</xmpG:blue>
                        </rdf:li>
                        <rdf:li rdf:parseType="Resource">
                           <xmpG:swatchName>R=0 G=104 B=55</xmpG:swatchName>
                           <xmpG:mode>RGB</xmpG:mode>
                           <xmpG:type>PROCESS</xmpG:type>
                           <xmpG:red>0</xmpG:red>
                           <xmpG:green>104</xmpG:green>
                           <xmpG:blue>55</xmpG:blue>
                        </rdf:li>
                        <rdf:li rdf:parseType="Resource">
                           <xmpG:swatchName>R=34 G=181 B=115</xmpG:swatchName>
                           <xmpG:mode>RGB</xmpG:mode>
                           <xmpG:type>PROCESS</xmpG:type>
                           <xmpG:red>34</xmpG:red>
                           <xmpG:green>181</xmpG:green>
                           <xmpG:blue>115</xmpG:blue>
                        </rdf:li>
                        <rdf:li rdf:parseType="Resource">
                           <xmpG:swatchName>R=0 G=169 B=157</xmpG:swatchName>
                           <xmpG:mode>RGB</xmpG:mode>
                           <xmpG:type>PROCESS</xmpG:type>
                           <xmpG:red>0</xmpG:red>
                           <xmpG:green>169</xmpG:green>
                           <xmpG:blue>157</xmpG:blue>
                        </rdf:li>
                        <rdf:li rdf:parseType="Resource">
                           <xmpG:swatchName>R=41 G=171 B=226</xmpG:swatchName>
                           <xmpG:mode>RGB</xmpG:mode>
                           <xmpG:type>PROCESS</xmpG:type>
                           <xmpG:red>41</xmpG:red>
                           <xmpG:green>171</xmpG:green>
                           <xmpG:blue>226</xmpG:blue>
                        </rdf:li>
                        <rdf:li rdf:parseType="Resource">
                           <xmpG:swatchName>R=0 G=113 B=188</xmpG:swatchName>
                           <xmpG:mode>RGB</xmpG:mode>
                           <xmpG:type>PROCESS</xmpG:type>
                           <xmpG:red>0</xmpG:red>
                           <xmpG:green>113</xmpG:green>
                           <xmpG:blue>188</xmpG:blue>
                        </rdf:li>
                        <rdf:li rdf:parseType="Resource">
                           <xmpG:swatchName>R=46 G=49 B=146</xmpG:swatchName>
                           <xmpG:mode>RGB</xmpG:mode>
                           <xmpG:type>PROCESS</xmpG:type>
                           <xmpG:red>46</xmpG:red>
                           <xmpG:green>49</xmpG:green>
                           <xmpG:blue>146</xmpG:blue>
                        </rdf:li>
                        <rdf:li rdf:parseType="Resource">
                           <xmpG:swatchName>R=27 G=20 B=100</xmpG:swatchName>
                           <xmpG:mode>RGB</xmpG:mode>
                           <xmpG:type>PROCESS</xmpG:type>
                           <xmpG:red>27</xmpG:red>
                           <xmpG:green>20</xmpG:green>
                           <xmpG:blue>100</xmpG:blue>
                        </rdf:li>
                        <rdf:li rdf:parseType="Resource">
                           <xmpG:swatchName>R=102 G=45 B=145</xmpG:swatchName>
                           <xmpG:mode>RGB</xmpG:mode>
                           <xmpG:type>PROCESS</xmpG:type>
                           <xmpG:red>102</xmpG:red>
                           <xmpG:green>45</xmpG:green>
                           <xmpG:blue>145</xmpG:blue>
                        </rdf:li>
                        <rdf:li rdf:parseType="Resource">
                           <xmpG:swatchName>R=147 G=39 B=143</xmpG:swatchName>
                           <xmpG:mode>RGB</xmpG:mode>
                           <xmpG:type>PROCESS</xmpG:type>
                           <xmpG:red>147</xmpG:red>
                           <xmpG:green>39</xmpG:green>
                           <xmpG:blue>143</xmpG:blue>
                        </rdf:li>
                        <rdf:li rdf:parseType="Resource">
                           <xmpG:swatchName>R=158 G=0 B=93</xmpG:swatchName>
                           <xmpG:mode>RGB</xmpG:mode>
                           <xmpG:type>PROCESS</xmpG:type>
                           <xmpG:red>158</xmpG:red>
                           <xmpG:green>0</xmpG:green>
                           <xmpG:blue>93</xmpG:blue>
                        </rdf:li>
                        <rdf:li rdf:parseType="Resource">
                           <xmpG:swatchName>R=212 G=20 B=90</xmpG:swatchName>
                           <xmpG:mode>RGB</xmpG:mode>
                           <xmpG:type>PROCESS</xmpG:type>
                           <xmpG:red>212</xmpG:red>
                           <xmpG:green>20</xmpG:green>
                           <xmpG:blue>90</xmpG:blue>
                        </rdf:li>
                        <rdf:li rdf:parseType="Resource">
                           <xmpG:swatchName>R=237 G=30 B=121</xmpG:swatchName>
                           <xmpG:mode>RGB</xmpG:mode>
                           <xmpG:type>PROCESS</xmpG:type>
                           <xmpG:red>237</xmpG:red>
                           <xmpG:green>30</xmpG:green>
                           <xmpG:blue>121</xmpG:blue>
                        </rdf:li>
                        <rdf:li rdf:parseType="Resource">
                           <xmpG:swatchName>R=199 G=178 B=153</xmpG:swatchName>
                           <xmpG:mode>RGB</xmpG:mode>
                           <xmpG:type>PROCESS</xmpG:type>
                           <xmpG:red>199</xmpG:red>
                           <xmpG:green>178</xmpG:green>
                           <xmpG:blue>153</xmpG:blue>
                        </rdf:li>
                        <rdf:li rdf:parseType="Resource">
                           <xmpG:swatchName>R=153 G=134 B=117</xmpG:swatchName>
                           <xmpG:mode>RGB</xmpG:mode>
                           <xmpG:type>PROCESS</xmpG:type>
                           <xmpG:red>153</xmpG:red>
                           <xmpG:green>134</xmpG:green>
                           <xmpG:blue>117</xmpG:blue>
                        </rdf:li>
                        <rdf:li rdf:parseType="Resource">
                           <xmpG:swatchName>R=115 G=99 B=87</xmpG:swatchName>
                           <xmpG:mode>RGB</xmpG:mode>
                           <xmpG:type>PROCESS</xmpG:type>
                           <xmpG:red>115</xmpG:red>
                           <xmpG:green>99</xmpG:green>
                           <xmpG:blue>87</xmpG:blue>
                        </rdf:li>
                        <rdf:li rdf:parseType="Resource">
                           <xmpG:swatchName>R=83 G=71 B=65</xmpG:swatchName>
                           <xmpG:mode>RGB</xmpG:mode>
                           <xmpG:type>PROCESS</xmpG:type>
                           <xmpG:red>83</xmpG:red>
                           <xmpG:green>71</xmpG:green>
                           <xmpG:blue>65</xmpG:blue>
                        </rdf:li>
                        <rdf:li rdf:parseType="Resource">
                           <xmpG:swatchName>R=198 G=156 B=109</xmpG:swatchName>
                           <xmpG:mode>RGB</xmpG:mode>
                           <xmpG:type>PROCESS</xmpG:type>
                           <xmpG:red>198</xmpG:red>
                           <xmpG:green>156</xmpG:green>
                           <xmpG:blue>109</xmpG:blue>
                        </rdf:li>
                        <rdf:li rdf:parseType="Resource">
                           <xmpG:swatchName>R=166 G=124 B=82</xmpG:swatchName>
                           <xmpG:mode>RGB</xmpG:mode>
                           <xmpG:type>PROCESS</xmpG:type>
                           <xmpG:red>166</xmpG:red>
                           <xmpG:green>124</xmpG:green>
                           <xmpG:blue>82</xmpG:blue>
                        </rdf:li>
                        <rdf:li rdf:parseType="Resource">
                           <xmpG:swatchName>R=140 G=98 B=57</xmpG:swatchName>
                           <xmpG:mode>RGB</xmpG:mode>
                           <xmpG:type>PROCESS</xmpG:type>
                           <xmpG:red>140</xmpG:red>
                           <xmpG:green>98</xmpG:green>
                           <xmpG:blue>57</xmpG:blue>
                        </rdf:li>
                        <rdf:li rdf:parseType="Resource">
                           <xmpG:swatchName>R=117 G=76 B=36</xmpG:swatchName>
                           <xmpG:mode>RGB</xmpG:mode>
                           <xmpG:type>PROCESS</xmpG:type>
                           <xmpG:red>117</xmpG:red>
                           <xmpG:green>76</xmpG:green>
                           <xmpG:blue>36</xmpG:blue>
                        </rdf:li>
                        <rdf:li rdf:parseType="Resource">
                           <xmpG:swatchName>R=96 G=56 B=19</xmpG:swatchName>
                           <xmpG:mode>RGB</xmpG:mode>
                           <xmpG:type>PROCESS</xmpG:type>
                           <xmpG:red>96</xmpG:red>
                           <xmpG:green>56</xmpG:green>
                           <xmpG:blue>19</xmpG:blue>
                        </rdf:li>
                        <rdf:li rdf:parseType="Resource">
                           <xmpG:swatchName>R=66 G=33 B=11</xmpG:swatchName>
                           <xmpG:mode>RGB</xmpG:mode>
                           <xmpG:type>PROCESS</xmpG:type>
                           <xmpG:red>66</xmpG:red>
                           <xmpG:green>33</xmpG:green>
                           <xmpG:blue>11</xmpG:blue>
                        </rdf:li>
                     </rdf:Seq>
                  </xmpG:Colorants>
               </rdf:li>
               <rdf:li rdf:parseType="Resource">
                  <xmpG:groupName>Cold</xmpG:groupName>
                  <xmpG:groupType>1</xmpG:groupType>
                  <xmpG:Colorants>
                     <rdf:Seq>
                        <rdf:li rdf:parseType="Resource">
                           <xmpG:swatchName>C=56 M=0 Y=20 K=0</xmpG:swatchName>
                           <xmpG:mode>RGB</xmpG:mode>
                           <xmpG:type>PROCESS</xmpG:type>
                           <xmpG:red>101</xmpG:red>
                           <xmpG:green>200</xmpG:green>
                           <xmpG:blue>208</xmpG:blue>
                        </rdf:li>
                        <rdf:li rdf:parseType="Resource">
                           <xmpG:swatchName>C=51 M=43 Y=0 K=0</xmpG:swatchName>
                           <xmpG:mode>RGB</xmpG:mode>
                           <xmpG:type>PROCESS</xmpG:type>
                           <xmpG:red>131</xmpG:red>
                           <xmpG:green>139</xmpG:green>
                           <xmpG:blue>197</xmpG:blue>
                        </rdf:li>
                        <rdf:li rdf:parseType="Resource">
                           <xmpG:swatchName>C=26 M=41 Y=0 K=0</xmpG:swatchName>
                           <xmpG:mode>RGB</xmpG:mode>
                           <xmpG:type>PROCESS</xmpG:type>
                           <xmpG:red>186</xmpG:red>
                           <xmpG:green>155</xmpG:green>
                           <xmpG:blue>201</xmpG:blue>
                        </rdf:li>
                     </rdf:Seq>
                  </xmpG:Colorants>
               </rdf:li>
               <rdf:li rdf:parseType="Resource">
                  <xmpG:groupName>Grays</xmpG:groupName>
                  <xmpG:groupType>1</xmpG:groupType>
                  <xmpG:Colorants>
                     <rdf:Seq>
                        <rdf:li rdf:parseType="Resource">
                           <xmpG:swatchName>R=0 G=0 B=0</xmpG:swatchName>
                           <xmpG:mode>RGB</xmpG:mode>
                           <xmpG:type>PROCESS</xmpG:type>
                           <xmpG:red>0</xmpG:red>
                           <xmpG:green>0</xmpG:green>
                           <xmpG:blue>0</xmpG:blue>
                        </rdf:li>
                        <rdf:li rdf:parseType="Resource">
                           <xmpG:swatchName>R=26 G=26 B=26</xmpG:swatchName>
                           <xmpG:mode>RGB</xmpG:mode>
                           <xmpG:type>PROCESS</xmpG:type>
                           <xmpG:red>26</xmpG:red>
                           <xmpG:green>26</xmpG:green>
                           <xmpG:blue>26</xmpG:blue>
                        </rdf:li>
                        <rdf:li rdf:parseType="Resource">
                           <xmpG:swatchName>R=51 G=51 B=51</xmpG:swatchName>
                           <xmpG:mode>RGB</xmpG:mode>
                           <xmpG:type>PROCESS</xmpG:type>
                           <xmpG:red>51</xmpG:red>
                           <xmpG:green>51</xmpG:green>
                           <xmpG:blue>51</xmpG:blue>
                        </rdf:li>
                        <rdf:li rdf:parseType="Resource">
                           <xmpG:swatchName>R=77 G=77 B=77</xmpG:swatchName>
                           <xmpG:mode>RGB</xmpG:mode>
                           <xmpG:type>PROCESS</xmpG:type>
                           <xmpG:red>77</xmpG:red>
                           <xmpG:green>77</xmpG:green>
                           <xmpG:blue>77</xmpG:blue>
                        </rdf:li>
                        <rdf:li rdf:parseType="Resource">
                           <xmpG:swatchName>R=102 G=102 B=102</xmpG:swatchName>
                           <xmpG:mode>RGB</xmpG:mode>
                           <xmpG:type>PROCESS</xmpG:type>
                           <xmpG:red>102</xmpG:red>
                           <xmpG:green>102</xmpG:green>
                           <xmpG:blue>102</xmpG:blue>
                        </rdf:li>
                        <rdf:li rdf:parseType="Resource">
                           <xmpG:swatchName>R=128 G=128 B=128</xmpG:swatchName>
                           <xmpG:mode>RGB</xmpG:mode>
                           <xmpG:type>PROCESS</xmpG:type>
                           <xmpG:red>128</xmpG:red>
                           <xmpG:green>128</xmpG:green>
                           <xmpG:blue>128</xmpG:blue>
                        </rdf:li>
                        <rdf:li rdf:parseType="Resource">
                           <xmpG:swatchName>R=153 G=153 B=153</xmpG:swatchName>
                           <xmpG:mode>RGB</xmpG:mode>
                           <xmpG:type>PROCESS</xmpG:type>
                           <xmpG:red>153</xmpG:red>
                           <xmpG:green>153</xmpG:green>
                           <xmpG:blue>153</xmpG:blue>
                        </rdf:li>
                        <rdf:li rdf:parseType="Resource">
                           <xmpG:swatchName>R=179 G=179 B=179</xmpG:swatchName>
                           <xmpG:mode>RGB</xmpG:mode>
                           <xmpG:type>PROCESS</xmpG:type>
                           <xmpG:red>179</xmpG:red>
                           <xmpG:green>179</xmpG:green>
                           <xmpG:blue>179</xmpG:blue>
                        </rdf:li>
                        <rdf:li rdf:parseType="Resource">
                           <xmpG:swatchName>R=204 G=204 B=204</xmpG:swatchName>
                           <xmpG:mode>RGB</xmpG:mode>
                           <xmpG:type>PROCESS</xmpG:type>
                           <xmpG:red>204</xmpG:red>
                           <xmpG:green>204</xmpG:green>
                           <xmpG:blue>204</xmpG:blue>
                        </rdf:li>
                        <rdf:li rdf:parseType="Resource">
                           <xmpG:swatchName>R=230 G=230 B=230</xmpG:swatchName>
                           <xmpG:mode>RGB</xmpG:mode>
                           <xmpG:type>PROCESS</xmpG:type>
                           <xmpG:red>230</xmpG:red>
                           <xmpG:green>230</xmpG:green>
                           <xmpG:blue>230</xmpG:blue>
                        </rdf:li>
                        <rdf:li rdf:parseType="Resource">
                           <xmpG:swatchName>R=242 G=242 B=242</xmpG:swatchName>
                           <xmpG:mode>RGB</xmpG:mode>
                           <xmpG:type>PROCESS</xmpG:type>
                           <xmpG:red>242</xmpG:red>
                           <xmpG:green>242</xmpG:green>
                           <xmpG:blue>242</xmpG:blue>
                        </rdf:li>
                     </rdf:Seq>
                  </xmpG:Colorants>
               </rdf:li>
            </rdf:Seq>
         </xmpTPg:SwatchGroups>
      </rdf:Description>
      <rdf:Description rdf:about=""
            xmlns:pdf="http://ns.adobe.com/pdf/1.3/">
         <pdf:Producer>Adobe PDF library 10.01</pdf:Producer>
      </rdf:Description>
      <rdf:Description rdf:about=""
            xmlns:xmpRights="http://ns.adobe.com/xap/1.0/rights/">
         <xmpRights:Marked>True</xmpRights:Marked>
         <xmpRights:WebStatement rdf:resource="http://www.ospreydawn.com"/>
         <xmpRights:UsageTerms>
            <rdf:Alt>
               <rdf:li xml:lang="x-default">This work is licensed under a &lt;a rel="license" href="http://creativecommons.org/licenses/by-nc-sa/3.0/"&gt;Creative Commons Attribution-NonCommercial-ShareAlike 3.0 Unported License&lt;/a&gt;.</rdf:li>
               <rdf:li xml:lang="en_us">This work is licensed under a &lt;a rel="license" href="http://creativecommons.org/licenses/by-nc-sa/3.0/"&gt;Creative Commons Attribution-NonCommercial-ShareAlike 3.0 Unported License&lt;/a&gt;.</rdf:li>
               <rdf:li xml:lang="en">This work is licensed under a &lt;a rel="license" href="http://creativecommons.org/licenses/by-nc-sa/3.0/"&gt;Creative Commons Attribution-NonCommercial-ShareAlike 3.0 Unported License&lt;/a&gt;.</rdf:li>
            </rdf:Alt>
         </xmpRights:UsageTerms>
      </rdf:Description>
      <rdf:Description rdf:about=""
            xmlns:cc="http://creativecommons.org/ns#">
         <cc:attributionName>Max O'Brien / Osprey Dawn</cc:attributionName>
         <cc:license rdf:resource="http://creativecommons.org/licenses/by-nc-sa/3.0/"/>
      </rdf:Description>
   </rdf:RDF>
</x:xmpmeta>
                                                                                                    
                                                                                                    
                                                                                                    
                                                                                                    
                                                                                                    
                                                                                                    
                                                                                                    
                                                                                                    
                                                                                                    
                                                                                                    
                                                                                                    
                                                                                                    
                                                                                                    
                                                                                                    
                                                                                                    
                                                                                                    
                                                                                                    
                                                                                                    
                                                                                                    
                                                                                                    
                           
<?xpacket end="w"?>
	</metadata>
<g>
	<g>
		<path fill-rule="evenodd" clip-rule="evenodd" fill="#F5922D" d="M260.274,172.17c-0.014,0.188-0.028,0.376-0.042,0.564
			c-0.308,1.101-0.707,2.2-0.025,3.309c0.021,0.119,0.041,0.237,0.062,0.356c0.348,0.946,0.727,1.87,1.687,2.381
			c0.088,0.208,0.199,0.387,0.468,0.364c0.3,0.614,0.898,0.787,1.471,1c0,0,0.067-0.035,0.067-0.035
			c1.101,0.929,2.451,0.998,3.791,1.102c0.77,0.098,1.538,0.099,2.307,0c1.088-0.063,2.267,0.247,3.128-0.756
			c4.841-2.558,9.571-5.285,13.995-8.54c3.165-2.329,6.076-4.877,8.509-7.99c1.09-1.396,2.586-2.427,4.127-3.418
			c-0.278,0.727-0.491,1.488-0.848,2.174c-1.858,3.577-2.643,7.516-3.889,11.3c-0.778,2.364-1.821,4.646-2.512,7.033
			c-0.762,2.636-1.854,5.164-2.478,7.839c-0.162,0.697,0.008,1.407-0.028,2.107c-0.06,1.178,0.091,2.345,0.003,3.533
			c-0.172,2.346,1.006,4.03,3.041,5.13c0.369,0.199,0.807,0.278,0.64,0.872c-0.089,0.317,0.146,0.533,0.421,0.505
			c2.238-0.231,4.272,1.051,6.531,0.828c1.219-0.12,2.408-0.264,3.577-0.62c1.958-0.597,3.919-1.184,5.882-1.764
			c0.32-0.095,0.721-0.333,0.966,0.025c0.213,0.312-0.152,0.574-0.298,0.846c-0.87,1.637-1.476,3.371-2.066,5.129
			c-0.595,1.77-0.593,3.577-0.789,5.376c-0.043,0.406-0.016,0.835,0.059,1.239c0.59,3.167,3.512,5.991,6.666,6.745
			c1.647,0.395,3.213,0.536,4.911,0.326c1.595-0.198,3.247,0.105,4.876,0.13c3.673,0.056,7.333,0.045,10.996-0.466
			c2.376-0.332,4.758-0.662,7.043-1.324c2.09-0.605,4.189-1.122,6.312-1.569c1.614-0.34,3.23-0.675,4.943-0.847
			c-0.792,0.624-1.518,1.366-2.389,1.845c-1.396,0.769-2.418,1.985-3.719,2.861c-2.115,1.423-4.019,3.128-6.139,4.567
			c-2.155,1.462-4.36,2.895-6.313,4.657c-0.969,0.875-2.006,1.692-3.094,2.413c-1.42,0.94-2.052,2.519-3.182,3.689
			c-0.438,0.455-0.803,0.989-1.251,1.449c-1.444,1.48-1.913,3.244-1.637,5.291c0.234,1.738,0.54,3.371,1.835,4.724
			c0.923,0.965,1.938,1.655,3.215,1.967c0.655,0.16,1.259,0.461,1.888,0.668c3.087,1.017,5.845,2.868,9.062,3.546
			c0.337,0.249,0.303,0.586,0.224,0.935l0.012,0.063c-1.588,1.589-2.661,3.52-3.64,5.512c0,0-0.004,0.074-0.004,0.074
			c-0.227,0.088-0.361,0.245-0.369,0.497c-0.173,0.069-0.22,0.206-0.199,0.377c-0.688,0.616-0.916,1.513-1.377,2.267
			c-2.388,3.91-3.731,8.088-3.173,12.735c-0.092,0.195-0.084,0.389,0.011,0.58c-0.006,0.22-0.055,0.447-0.013,0.657
			c0.583,2.992,2.424,4.942,5.139,6.16c0,0,0.061-0.027,0.062-0.028c0.283,0.631,0.925,0.734,1.46,0.992
			c0.093,0.139,0.223,0.182,0.383,0.152c0.985,0.743,2.127,1.128,3.301,1.441c0.122,0.022,0.246,0.044,0.369,0.066
			c0.883,0.565,1.885,0.756,2.897,0.911c0.122,0.02,0.245,0.039,0.368,0.058c0.672,0.327,1.377,0.513,2.129,0.488
			c0.189,0.024,0.379,0.049,0.568,0.073c1.619,0.577,3.318,0.716,5.008,0.906c0.314,0.023,0.63,0.045,0.945,0.068
			c1.96,0.513,3.966,0.729,5.975,0.935c0.123,0.008,0.247,0.017,0.37,0.023c0.357,0.331,0.841,0.229,1.259,0.356
			c0.324,0.1,0.808,0.005,0.925,0.353c0.132,0.397-0.356,0.538-0.609,0.74c-0.978,0.783-1.977,1.537-2.968,2.303
			c0,0-0.004-0.006-0.003-0.006c-1.387,0.463-2.694,1.104-3.984,1.783c-0.123,0.027-0.248,0.055-0.371,0.082
			c-0.366-0.139-0.58,0.195-0.874,0.285c-4.068,1.231-7.893,3.031-11.633,5.022c-0.607,0.324-1.282,0.562-1.747,1.117
			c-0.163-0.023-0.296,0.018-0.384,0.167c-0.475,0.257-1.032,0.408-1.265,0.979c-0.094-0.075-0.173-0.053-0.244,0.035
			c-1.88,1.165-3.433,2.65-4.506,4.605c-0.153,0.094-0.189,0.229-0.138,0.395c-0.241,0.27-0.243,0.536,0.01,0.801
			c0.044,0.254,0.089,0.508,0.133,0.76c0.082,0.805,0.333,1.527,0.989,2.053l-0.023,0.063c-0.028,0.21,0.084,0.367,0.199,0.521
			c1.965,2.621,4.496,4.558,7.361,6.09c0,0,0.062-0.021,0.062-0.023c0.299,0.581,0.862,0.775,1.421,0.975l0.003-0.004
			c1.194,1.105,2.647,1.838,4.007,2.695c1.043,0.658,1.947,1.555,3.158,1.939l0.059-0.029c0.975,1.055,2.152,1.836,3.406,2.51
			c0,0,0.056-0.016,0.057-0.016c0.269,0.611-0.081,0.676-0.574,0.701c-1.438,0.074-2.894-0.018-4.308,0.355
			c-0.113,0.004-0.227,0.008-0.34,0.01c-0.27-0.217-0.539-0.236-0.806,0.006c-0.51-0.008-1.021-0.035-1.52,0.107
			c-1.108,0.064-2.228,0.055-3.289,0.455c-0.25,0.018-0.499,0.035-0.748,0.051c-1.628,0.199-3.271,0.326-4.822,0.922
			c-0.259-0.039-0.512-0.027-0.751,0.088c-1.703,0.383-3.432,0.668-5.023,1.436c-0.12,0.021-0.239,0.041-0.359,0.062
			c-2.146,0.59-4.234,1.328-6.172,2.445c-0.157-0.041-0.292-0.014-0.395,0.123c-0.568,0.172-1.138,0.34-1.544,0.816
			c-0.155-0.021-0.284,0.02-0.377,0.152c-0.49,0.191-1.208,0.217-0.776,1.074c0.009,0.379,0.019,0.758,0.027,1.135
			c0.082,1.898,0.455,3.701,1.71,5.215l-0.004,0.006c0.585,1.328,1.578,2.26,2.851,2.918c0.142,0.504,0.487,0.801,0.974,0.951
			l0.048-0.02l-0.047,0.016c0.068,0.346,0.297,0.521,0.626,0.59c0,0,0.056-0.01,0.057-0.01c0.605,0.869,1.399,1.512,2.363,1.945
			c0.018-0.016,0.034-0.033,0.051-0.049c-0.017,0.016-0.033,0.033-0.049,0.049c0.003,0.309,0.195,0.455,0.465,0.529
			c0,0,0.066,0.012,0.067,0.012c0.679,0.787,1.447,1.461,2.389,1.924c0.549,0.717,1.237,1.248,2.084,1.568
			c0,0,0.004-0.004,0.005-0.004c1.172,1.285,2.61,2.213,4.102,3.07c0,0,0.062-0.018,0.062-0.018c0.354,0.494,0.825,0.822,1.41,0.986
			c0,0,0.003-0.006,0.004-0.006c0.787,0.902,1.835,1.412,2.888,1.918c0,0,0.002-0.002,0.002-0.004
			c0.689,0.74,1.578,1.162,2.486,1.549l0.009-0.002c0.708,0.748,1.625,1.154,2.552,1.543c0,0,0.064-0.021,0.065-0.021
			c1.749,1.301,3.692,2.25,5.68,3.117c0.094,0.135,0.225,0.174,0.38,0.146c1.539,1.059,3.296,1.648,5.003,2.35
			c0.128,0.049,0.256,0.098,0.386,0.146c0.128,0.324,0.29,0.641,0.377,0.977c0.409,1.584,0.402,1.586-1.118,1.52
			c-0.304-0.115-0.614-0.154-0.936-0.086c-1.297-0.561-2.701-0.637-4.062-0.908c-0.185-0.02-0.368-0.037-0.553-0.055
			c-0.626-0.248-1.264-0.447-1.946-0.455c-0.189-0.031-0.378-0.061-0.567-0.092c-1.38-0.453-2.793-0.758-4.236-0.92
			c-0.185-0.023-0.368-0.047-0.553-0.068c-1.291-0.584-2.697-0.652-4.062-0.908c-0.186-0.016-0.371-0.033-0.557-0.049
			c-0.691-0.25-1.378-0.52-2.135-0.48c-0.314-0.029-0.628-0.059-0.942-0.088c-1.625-0.562-3.326-0.699-5.016-0.902
			c-0.254-0.016-0.508-0.027-0.763-0.041c-2.718-0.658-5.51-0.676-8.271-0.957c-0.25-0.01-0.5-0.02-0.749-0.031
			c-1.382-0.461-2.827-0.367-4.248-0.48c-1.538-0.137-3.075-0.129-4.612-0.006c-1.053,0.033-2.106,0.053-3.094,0.494
			c-0.122,0.01-0.244,0.02-0.367,0.031c-0.967,0.262-2.051,0.242-2.747,1.15c-0.072,0.023-0.096,0.072-0.073,0.146
			c-0.812,2.283-1.087,4.605-0.482,6.988c0.012,0.121,0.023,0.242,0.035,0.363c0.003,0.254-0.035,0.516,0.014,0.758
			c0.484,2.383,1.217,4.689,2.248,6.891c0.398,0.848,0.559,1.836,1.338,2.484l-0.032,0.062c0.321,1.051,0.759,2.041,1.563,2.824
			c0,0-0.038,0.064-0.037,0.064c0.031,0.154,0.028,0.326,0.099,0.461c0.632,1.182,1.317,2.34,1.903,3.545
			c0.365,0.748,1.03,1.387,0.965,2.318c-0.244-0.012-0.488-0.023-0.732-0.035c-1.435-0.533-2.951-0.672-4.444-0.918
			c-0.249-0.016-0.498-0.031-0.747-0.045c-0.872-0.336-1.776-0.494-2.712-0.469c-0.19-0.025-0.379-0.053-0.569-0.08
			c-0.075-0.053-0.146-0.146-0.227-0.156c-4.233-0.506-8.473-1.023-12.74-0.596c-1.203,0.121-2.505-0.031-3.592,0.736
			c-0.121,0.023-0.243,0.047-0.365,0.072c-1.075,0.271-2.061,0.699-2.769,1.605c0,0-0.005-0.004-0.004-0.004
			c-0.388,0.037-0.664,0.207-0.737,0.619l0.036,0.037c0,0-0.03-0.043-0.029-0.041c-0.242,0.02-0.373,0.148-0.388,0.393
			c0,0,0.004,0.002,0.005,0.002c-0.667,0.357-0.847,0.982-0.943,1.668c-0.188,1.334-0.245,2.68-0.153,4.016
			c0.115,1.676,0.226,3.369,0.913,4.945c0.017,0.121,0.032,0.244,0.048,0.365c0.121,1.025,0.415,1.998,0.915,2.904
			c0.029,0.121,0.058,0.242,0.086,0.363c0.306,1.295,0.771,2.525,1.449,3.672c0.029,0.123,0.059,0.244,0.087,0.365
			c0.176,0.699,0.416,1.371,0.879,1.941c-0.037,0.219,0.029,0.402,0.183,0.559c0.317,1.09,0.74,2.135,1.342,3.102
			c-0.032,0.16,0.012,0.291,0.149,0.385c0.894,2.498,2.259,4.76,3.563,7.047c0.447,0.779,0.643,1.744,1.466,2.289
			c-0.074,0.092-0.054,0.172,0.028,0.246c0.422,0.865,0.808,1.754,1.507,2.447c0,0-0.025,0.061-0.024,0.061
			c0.053,0.146,0.087,0.303,0.161,0.438c1.552,2.842,3.17,5.652,4.435,8.641c0.587,1.387,1.269,2.746,1.573,4.26
			c-0.635,0.045-0.937-0.539-1.469-0.545c0,0-0.062,0.025-0.063,0.025c-0.79-0.832-1.757-1.414-2.765-1.934l-0.004,0.002
			c-0.717-0.816-1.573-1.455-2.521-1.979c-0.038-0.154-0.128-0.207-0.278-0.133c-0.742-1.012-1.732-1.732-2.784-2.383
			c-0.005-0.066-0.041-0.102-0.106-0.107c-0.833-1.02-1.804-1.877-2.967-2.508l-0.049,0.021l0.052-0.014
			c-0.022-0.242-0.168-0.355-0.4-0.379l0.006,0.006c-0.699-0.885-1.575-1.559-2.539-2.127c0,0-0.065,0.004-0.065,0.006
			c-0.077-0.311-0.343-0.443-0.57-0.613c-1.808-1.352-3.606-2.713-5.428-4.045c-0.633-0.463-1.151-1.104-1.952-1.316l-0.003,0.002
			c-0.554-0.715-1.258-1.225-2.095-1.559c0,0-0.003,0.004-0.004,0.004c-0.488-0.736-1.216-1.162-1.993-1.521l-0.062,0.014
			c-0.318-0.545-0.829-0.816-1.409-0.988c0,0-0.005,0.004-0.005,0.006c-1.177-1.143-2.604-1.877-4.091-2.514l-0.064,0.027
			c-0.197-0.354-0.521-0.504-0.906-0.551c-0.148-0.152-0.324-0.232-0.54-0.215c-0.78-0.766-1.849-0.928-2.809-1.281
			c-1.467-0.545-2.953-1.08-4.557-1.082c-0.368-0.057-0.573,0.088-0.582,0.473c-1.067,1.787-1.661,3.727-1.88,5.787
			c-0.018,0.121-0.035,0.242-0.053,0.363c-0.321,0.676-0.336,1.41-0.389,2.133c-0.264,3.57-0.26,7.146-0.211,10.721
			c0.012,0.904-0.262,1.084-1.029,0.748l-0.062,0.055c0,0,0.065-0.051,0.064-0.051c-1.051-0.975-2.202-1.809-3.453-2.508
			l-0.055,0.039c0,0,0.054-0.037,0.053-0.037c-0.54-0.646-1.19-1.148-1.955-1.506l-0.005,0.006c-0.4-0.484-0.904-0.812-1.504-0.996
			l-0.002,0.004c-1.318-1.244-2.93-1.861-4.676-2.191c-0.312-0.027-0.626-0.059-0.939-0.086c-0.271-0.262-0.541-0.246-0.81,0.002
			c-0.313,0.027-0.628,0.055-0.941,0.082c-1.447,0.26-2.711,0.742-3.416,2.217c-0.635,1.324-1.239,2.66-1.673,4.059
			c-0.47,1.51-0.968,3.025-1.033,4.631c-0.024,0.248-0.048,0.496-0.072,0.744c-0.06,0.107-0.161,0.211-0.175,0.324
			c-0.503,3.986-0.753,7.986-0.742,12.004c-0.106,0.828-0.067,1.658-0.021,2.486c-0.375,1.779-0.394,3.59-0.485,5.393
			c-0.162,0.426-0.157,0.865-0.104,1.309c-0.406-0.016-0.56-0.428-0.89-0.564c0.034-0.156-0.004-0.287-0.133-0.389
			c-1.07-2.473-2.109-4.961-3.222-7.416c-0.559-1.234-0.841-2.598-1.672-3.711c0.038-0.158,0.006-0.295-0.123-0.402
			c-0.388-1.059-0.716-2.143-1.381-3.076c0.029-0.162-0.015-0.291-0.152-0.385c-1.329-3.383-3.091-6.535-5.078-9.564
			c-0.247-0.377-0.344-0.924-0.911-1.033l0.009-0.002c-0.132-0.607-0.492-1.055-0.986-1.406c0,0-0.012-0.076-0.013-0.076
			c-0.491-0.873-1.075-1.65-2.078-1.988l-0.003,0.008c-0.182-0.443-0.608-0.486-0.989-0.605c-0.111-0.129-0.251-0.154-0.409-0.109
			c-1.671-0.75-3.347-0.836-5.03-0.041c-0.119,0.025-0.237,0.053-0.356,0.078c-1.022,0.236-1.907,0.68-2.45,1.637l-0.056-0.02
			c-1.287,0.529-2.1,1.633-3.027,2.576c-0.659,0.672-1.449,1.277-1.712,2.262c-0.214-0.016-0.315,0.084-0.297,0.299
			c-0.322,0.119-0.473,0.41-0.664,0.662c-1.258,1.646-2.362,3.398-3.372,5.199c-0.678,1.211-1.574,2.312-1.96,3.68l0.027,0.062
			c-0.357,0.186-0.548,0.488-0.604,0.881c-0.133,0.094-0.179,0.221-0.157,0.379c-0.293,0.123-0.326,0.441-0.5,0.65
			c-0.488,0.58-0.506,1.496-1.316,1.842c-0.06-0.123-0.118-0.246-0.178-0.369c-0.553-1.879-1.343-3.668-2.123-5.459
			c-0.248-0.564-0.37-1.219-0.961-1.578c0,0,0.035-0.064,0.035-0.064c-0.186-0.697-0.394-1.383-0.998-1.857
			c0,0,0.034-0.064,0.033-0.064c-0.204-0.576-0.384-1.17-0.994-1.473l0.026-0.062c-0.099-0.648-0.447-1.125-1.004-1.459
			c0,0,0.001-0.068,0-0.068c-1.241-2.047-2.998-3.543-5.066-4.688c-0.453-0.25-0.931-0.564-1.512-0.434
			c-0.32-0.115-0.64-0.115-0.96-0.002c-3.432,0.609-5.441,3.072-7.367,5.646l0.021,0.049l-0.012-0.051
			c-1.435,1.27-2.423,2.885-3.44,4.479c0,0-0.008,0.066-0.008,0.066c-0.249,0.059-0.338,0.279-0.46,0.463
			c-1.073,1.627-2.202,3.221-3.197,4.893c-1.008,1.693-2.177,3.299-2.924,5.141c0,0,0.032,0.061,0.032,0.062
			c-0.369,0.176-0.534,0.533-0.72,0.855c-1.107,1.924-2.282,3.814-3.192,5.842c-0.569,1.268-1.448,2.4-1.687,3.812
			c0,0,0.029,0.064,0.03,0.066c-1.165,1.479-1.809,3.223-2.531,4.93c0,0,0.031,0.066,0.032,0.066
			c-0.781,0.645-1.068,1.596-1.526,2.441c-0.023,0.055-0.054,0.109-0.067,0.168c-0.005,0.021,0.032,0.051,0.051,0.078
			c-0.521,0.279-0.765,0.764-0.95,1.289l0.001,0.068c-0.481,0.365-0.811,0.834-0.988,1.41c0,0-0.039-0.012-0.039-0.014
			c-0.575,0.426-0.903,1.066-1.38,1.576c-0.124,0.133-0.24,0.354-0.458,0.287c-0.257-0.078-0.289-0.346-0.265-0.559
			c0.096-0.834-0.02-1.656-0.054-2.486c-0.318-7.811-0.261-15.627-0.109-23.434c0.094-4.836-0.079-9.66-0.185-14.482
			c-0.057-2.594-0.416-5.217-1.16-7.742c-0.249-0.844-0.664-1.602-1.306-2.207c-0.942-0.891-2.054-1.045-3.3-0.785
			c-3.447,0.721-6.639,2.096-9.703,3.775c-3.275,1.797-6.503,3.678-9.766,5.498c-1.423,0.793-1.482,0.703-1.54-0.971
			c-0.142-4.131,0.438-8.238,0.341-12.367c-0.071-3-0.497-5.92-1.748-8.676c-0.519-1.141-1.188-2.207-2.063-3.098
			c-0.777-0.789-1.905-0.656-2.891-0.752c-5.065-0.496-9.789,0.723-14.359,2.852c-4.576,2.135-8.653,5.039-12.752,7.924
			c-2.243,1.576-4.404,3.271-6.944,4.842c0.709-2.15,1.692-3.924,2.58-5.73c1.745-3.551,3.642-7.037,5.021-10.752
			c0.787-2.117,1.603-4.248,1.803-6.541c0.071-0.812,0.058-1.594-0.258-2.357c-0.061-0.145-0.126-0.309-0.118-0.461
			c0.158-2.848-2.127-3.543-4.027-4.562c-1.102-0.592-2.305-0.721-3.54-0.654c-0.838,0.045-1.664-0.016-2.451-0.35
			c-0.599-0.254-1.212-0.168-1.785,0.039c-2.465,0.893-4.981,1.619-7.485,2.391c-0.927,0.285-1.726,0.943-2.847,1.078
			c0.209-1.252,0.759-2.344,1.291-3.322c1.674-3.074,1.148-6.262,0.821-9.453c-0.073-0.715-0.139-1.455-0.443-2.15
			c-0.886-2.021-2.562-3.08-4.504-3.873c-1.315-0.539-2.683-0.84-4.074-1.035c-1.972-0.275-3.938,0.033-5.909,0.098
			c-2.558,0.086-5.089,0.525-7.653,0.49c-0.318-0.004-0.659-0.031-0.953,0.066c-3.131,1.025-6.411,1.48-9.544,2.502
			c-1.462,0.477-3.026,0.422-4.506,0.889c-0.865,0.271-1.718,0.703-2.746,0.693c0.295-0.887,1.04-1.303,1.627-1.838
			c2.602-2.367,5.209-4.732,7.839-7.07c2.174-1.936,4.311-3.885,6.237-6.092c4.596-5.266,8.968-10.666,11.984-17.031
			c0.611-1.289,1.188-2.561,2.097-3.721c1.603-2.049,1.485-5.672-0.199-7.643c-1.087-1.273-2.659-1.953-4.226-2.543
			c-2.822-1.064-5.781-1.334-8.752-1.492c-2.458-0.129-4.92-0.17-7.38-0.25c-0.349-0.012-0.782,0.043-0.914-0.354
			c-0.122-0.365,0.281-0.533,0.513-0.732c3.918-3.336,8.016-6.479,11.519-10.273c2.64-2.86,5.116-5.906,5.929-9.824
			c0.846-4.073,0.185-6.102-3.056-8.311c-4.062-2.767-8.551-4.579-13.229-5.95c-3.282-0.961-6.585-1.861-9.907-2.67
			c-2.201-0.534-4.46-0.822-6.68-1.285c-2.683-0.561-5.236-1.455-7.37-3.266c-0.181-0.153-0.469-0.227-0.52-0.637
			c1.812-0.319,3.622-0.632,5.43-0.957c5.858-1.054,11.626-2.49,17.312-4.233c5.466-1.675,10.819-3.673,16.022-6.045
			c1.718-0.783,3.321-1.799,4.642-3.19c1.857-1.957,2.09-4.237,0.819-6.606c-1.657-3.088-4.349-5.147-6.992-7.27
			c-0.921-0.741-1.826-1.502-2.725-2.269c-0.204-0.173-0.524-0.35-0.33-0.703c0.15-0.272,0.438-0.191,0.693-0.191
			c3.573-0.018,7.156,0.04,10.676-0.715c3.036-0.651,5.399-2.24,6.802-5.094c0.244-0.494,0.209-0.916-0.025-1.445
			c-2.127-4.787-5.733-8.348-9.65-11.628c-3.284-2.751-6.714-5.329-10.249-7.743c-2.795-1.91-5.754-3.577-8.624-5.378
			c-2.33-1.463-4.58-3.042-6.662-4.847c-0.344-0.298-0.769-0.565-0.933-1.144c1.846,0.038,3.549,0.467,5.273,0.707
			c4.111,0.573,8.19,1.351,12.309,1.896c2.502,0.331,5.004,0.676,7.515,0.928c5.316,0.533,10.648,0.784,15.981,0.336
			c2.198-0.185,4.16-1.221,6.133-2.138c0.403-0.187,0.424-0.491,0.358-0.95c-0.606-4.213-2.344-8.02-4.158-11.801
			c-0.429-0.895-0.446-0.911,0.581-0.903c2.882,0.021,5.765,0.112,8.646,0.074c2.999-0.039,5.956-0.416,8.548-2.096
			c2.149-1.392,3.579-3.14,3.704-5.969c0.217-4.906-0.889-9.515-2.496-14.054c-1.716-4.849-3.501-9.672-5.929-14.229
			c-1.622-3.044-3.296-6.06-4.744-9.196c-0.859-1.863-1.492-3.806-2.205-5.722c-0.068-0.185-0.148-0.386,0.007-0.54
			c0.227-0.225,0.401,0.01,0.583,0.118c2.528,1.5,4.991,3.105,7.436,4.736c6.559,4.377,12.945,9.017,19.779,12.974
			c4.742,2.746,9.706,4.99,14.915,6.695c0.716,0.235,1.233,0.108,1.794-0.448c2.002-1.986,2.854-4.456,3.043-7.168
			c0.236-3.383-0.11-6.752-0.488-10.113c-0.028-0.253-0.05-0.517-0.016-0.767c0.076-0.551-0.32-1.356,0.23-1.593
			c0.448-0.192,0.976,0.476,1.416,0.818c2.194,1.705,4.3,3.529,6.658,5.008c2.221,1.392,4.58,2.409,7.294,2.304
			c0.55-0.021,0.952-0.163,1.355-0.548c2.961-2.832,4.224-6.498,5.1-10.344c1.071-4.712,1.581-9.51,2.12-14.304
			c0.432-3.842,0.969-7.671,1.808-11.449c0.063-0.287-0.031-0.796,0.33-0.819c0.424-0.026,0.396,0.504,0.515,0.81
			c2.71,7.018,5.768,13.866,10.07,20.08c2.299,3.321,4.836,6.46,8,9.01c2.568,2.07,5.486,3.125,8.76,2.028
			c2.821-0.944,4.958-2.843,6.546-5.37c1.819-2.895,2.847-6.119,3.981-9.303c0.289-0.813,0.595-1.622,0.913-2.424
			c0.086-0.217,0.087-0.584,0.425-0.546c0.251,0.029,0.225,0.342,0.286,0.553c0.8,2.729,1.55,5.474,2.422,8.18
			c1.124,3.491,2.568,6.823,5.314,9.409c0.821,0.773,1.781,1.342,2.726,1.947c1.479,0.948,2.54-0.003,3.668-0.676
			c2.045-1.22,3.504-3.048,4.968-4.865c2.78-3.453,4.516-7.558,6.961-11.215c1.645-2.461,2.26-5.332,3.492-7.951
			c1.34-2.853,2.475-5.795,3.816-8.65c0.838-1.782,1.474-3.66,2.167-5.508c0.691-1.847,1.205-3.768,2.348-5.508
			c-0.145,4.879-0.263,9.694-0.446,14.507c-0.057,1.497-0.395,2.979-0.3,4.49c-0.112,0.375-0.077,0.756-0.037,1.136
			c-0.352,0.306-0.363,0.716-0.365,1.138c-0.016,3.124-0.066,6.249-0.042,9.372c0.009,1.256-0.044,2.535,0.401,3.751
			c0.01,0.186,0.02,0.371,0.029,0.556c0.001,0.252-0.035,0.51,0.006,0.755c0.444,2.668,1.065,5.289,2.246,7.742
			c0.375,0.78,0.47,1.74,1.344,2.221l-0.03,0.055c-0.032,0.389,0.187,0.661,0.527,0.676c1.609,0.072,3.239,0.263,4.77-0.474
			c0.124-0.024,0.248-0.048,0.372-0.071c1.319-0.274,2.6-0.637,3.601-1.619c0,0,0.065,0.031,0.064,0.03
			c0.399-0.097,0.812-0.169,1.005-0.608l-0.052-0.001c0,0,0.052,0.007,0.051,0.007c0.557-0.167,1.064-0.404,1.367-0.938
			c0,0,0.01,0.004,0.009,0.003c1.005-0.452,1.82-1.144,2.526-1.977l0.046,0.014l0.031-0.037c0.598-0.428,1.232-0.815,1.587-1.499
			l-0.037-0.052l0.039,0.05c0.502-0.133,0.801-0.474,0.966-0.951l-0.03-0.053c0,0,0.032,0.054,0.032,0.053
			c1.671-0.987,2.86-2.502,4.207-3.844c0.209-0.016,0.368-0.091,0.382-0.331c0.209-0.075,0.407-0.161,0.423-0.427
			c0,0,0.004,0.007,0.003,0.007c0.933-0.192,1.305-1.303,2.354-1.42c-0.23,1.296-0.456,2.57-0.683,3.843
			c-0.017,0.122-0.034,0.243-0.051,0.365c-0.279,0.618-0.524,1.244-0.503,1.94c-0.023,0.122-0.047,0.244-0.07,0.365
			c-0.998,2.692-1.721,5.464-2.372,8.255c-0.154,0.175-0.165,0.378-0.116,0.593C260.691,169.299,260.38,170.713,260.274,172.17z
			 M197.943,421.269c2.97,0.078,6.577-0.039,10.176-0.402c1.207-0.123,2.418-0.217,3.622-0.359c2.655-0.318,5.309-0.641,7.936-1.164
			c2.121-0.424,4.28-0.695,6.374-1.227c2.271-0.578,4.547-1.15,6.805-1.793c2.353-0.668,4.709-1.355,6.994-2.186
			c2.88-1.047,5.736-2.18,8.558-3.402c4.237-1.834,8.329-3.941,12.323-6.23c3.477-1.99,6.814-4.225,10.061-6.576
			c4.82-3.494,9.21-7.5,13.472-11.641c1.992-1.936,3.898-3.963,5.839-5.951c4.416-4.521,8.344-9.42,11.848-14.66
			c3.156-4.719,5.978-9.637,8.46-14.752c1.89-3.893,3.559-7.875,5.072-11.928c0.824-2.201,1.496-4.451,2.209-6.689
			c0.881-2.766,1.547-5.586,2.254-8.395c0.488-1.938,0.779-3.928,1.174-5.89c0.731-3.634,1.386-7.277,1.387-11.003
			c0.001-7.465-0.005-14.928,0.006-22.391c0.001-1.308-0.049-2.623,0.236-3.916c0.112-0.511-0.006-0.966-0.166-1.477
			c-0.505-1.611-1.146-3.192-1.286-4.904c-0.071-0.86-0.005-1.722-0.163-2.584c-0.426-2.324-0.858-4.643-1.424-6.94
			c-0.704-2.862-1.664-5.655-2.817-8.333c-0.897-2.082-1.497-4.272-2.51-6.306c-0.967-1.941-1.667-4.024-2.726-5.909
			c-1.199-2.135-2.253-4.352-3.688-6.369c-1.331-1.871-2.117-4.071-3.088-6.157c-1.102-2.37-2.607-4.533-3.867-6.828
			c-0.622-1.134-1.083-2.384-2.019-3.356c-0.907-0.943-1.611-2.061-2.418-3.089c-0.942-1.202-1.704-2.534-2.837-3.607
			c-1.318-1.25-2.581-2.58-3.719-3.995c-1.599-1.986-3.479-3.657-5.46-5.214c-2.189-1.721-4.281-3.551-6.276-5.481
			c-2.413-2.334-4.829-4.61-7.806-6.271c-1.396-0.778-2.872-1.616-3.901-2.91c-1.11-1.396-2.319-2.554-4.157-2.87
			c-0.302-0.052-0.59-0.244-0.86-0.41c-2.975-1.821-6.06-3.436-9.188-4.968c-4.248-2.082-8.633-3.845-13.093-5.417
			c-4.012-1.415-8.097-2.612-12.238-3.564c-3.729-0.857-7.497-1.55-11.296-2.098c-4.211-0.608-8.438-1.016-12.674-1.219
			c-5.434-0.259-10.877-0.175-16.303,0.324c-4.263,0.393-8.505,0.911-12.723,1.677c-4.157,0.755-8.272,1.687-12.321,2.864
			c-3.797,1.104-7.535,2.405-11.224,3.857c-4.609,1.812-9.065,3.937-13.408,6.29c-4.776,2.587-9.303,5.578-13.667,8.823
			c-4.086,3.038-8.012,6.263-11.689,9.776c-4.515,4.313-8.785,8.858-12.656,13.774c-4.637,5.889-8.774,12.1-12.337,18.693
			c-2.249,4.161-4.274,8.428-6.028,12.822c-2.138,5.354-3.894,10.828-5.242,16.435c-1.063,4.418-1.766,8.902-2.536,13.375
			c-0.766,4.451-1.115,8.94-1.238,13.442c-0.097,3.545-0.018,7.089,0.261,10.638c0.271,3.442,0.594,6.876,1.103,10.286
			c0.732,4.902,1.752,9.75,3.021,14.541c0.417,1.574,0.597,3.264,1.423,4.662c0.896,1.518,1.4,3.154,1.893,4.789
			c1.219,4.051,2.708,7.988,4.457,11.834c0.913,2.008,1.954,3.977,2.666,6.055c1.211,3.535,2.76,6.863,4.943,9.9
			c1.043,1.453,2.114,2.906,2.961,4.473c1.546,2.859,3.542,5.379,5.554,7.898c1.581,1.98,3.396,3.734,5.181,5.521
			c2.208,2.211,4.459,4.379,6.814,6.428c2.165,1.885,4.39,3.705,6.684,5.428c1.596,1.201,3.139,2.51,5.04,3.27
			c1.03,0.41,2.136,0.566,3.135,1.098c2.231,1.186,4.238,2.719,6.397,4.02c3.08,1.852,6.183,3.652,9.385,5.285
			c2.775,1.412,5.618,2.678,8.51,3.828c2.332,0.926,4.669,1.844,7.045,2.643c2.012,0.68,4.075,1.211,6.128,1.76
			c2.305,0.617,4.61,1.246,6.942,1.744c2.148,0.459,4.336,0.734,6.501,1.119c3.584,0.635,7.208,0.938,10.828,1.26
			C191.474,421.327,194.388,421.276,197.943,421.269z"/>
		<path fill-rule="evenodd" clip-rule="evenodd" fill="#FEFEFE" d="M197.943,421.269c-3.555,0.008-6.469,0.059-9.373-0.199
			c-3.62-0.322-7.243-0.625-10.828-1.26c-2.166-0.385-4.353-0.66-6.501-1.119c-2.333-0.498-4.637-1.127-6.942-1.744
			c-2.053-0.549-4.116-1.08-6.128-1.76c-2.376-0.799-4.713-1.717-7.045-2.643c-2.892-1.15-5.735-2.416-8.51-3.828
			c-3.203-1.633-6.306-3.434-9.385-5.285c-2.159-1.301-4.167-2.834-6.397-4.02c-1-0.531-2.105-0.688-3.135-1.098
			c-1.901-0.76-3.443-2.068-5.04-3.27c-2.293-1.723-4.519-3.543-6.684-5.428c-2.355-2.049-4.606-4.217-6.814-6.428
			c-1.785-1.787-3.6-3.541-5.181-5.521c-2.012-2.52-4.008-5.039-5.554-7.898c-0.847-1.566-1.917-3.02-2.961-4.473
			c-2.184-3.037-3.732-6.365-4.943-9.9c-0.712-2.078-1.753-4.047-2.666-6.055c-1.748-3.846-3.237-7.783-4.457-11.834
			c-0.493-1.635-0.997-3.271-1.893-4.789c-0.826-1.398-1.006-3.088-1.423-4.662c-1.27-4.791-2.289-9.639-3.021-14.541
			c-0.509-3.41-0.832-6.844-1.103-10.286c-0.279-3.549-0.358-7.093-0.261-10.638c0.123-4.502,0.472-8.991,1.238-13.442
			c0.77-4.473,1.473-8.956,2.536-13.375c1.349-5.607,3.104-11.08,5.242-16.435c1.754-4.395,3.779-8.661,6.028-12.822
			c3.563-6.593,7.7-12.804,12.337-18.693c3.871-4.916,8.141-9.46,12.656-13.774c3.677-3.513,7.603-6.739,11.689-9.776
			c4.365-3.245,8.892-6.235,13.667-8.823c4.343-2.354,8.799-4.478,13.408-6.29c3.689-1.452,7.427-2.753,11.224-3.857
			c4.049-1.177,8.164-2.108,12.321-2.864c4.217-0.766,8.46-1.285,12.723-1.677c5.425-0.499,10.869-0.583,16.303-0.324
			c4.235,0.203,8.463,0.611,12.674,1.219c3.799,0.548,7.566,1.24,11.296,2.098c4.142,0.952,8.227,2.15,12.238,3.564
			c4.46,1.572,8.845,3.335,13.093,5.417c3.129,1.532,6.214,3.147,9.188,4.968c0.271,0.166,0.559,0.358,0.86,0.41
			c1.838,0.316,3.047,1.474,4.157,2.87c1.029,1.293,2.505,2.131,3.901,2.91c2.977,1.661,5.393,3.936,7.806,6.271
			c1.995,1.93,4.087,3.76,6.276,5.481c1.98,1.557,3.861,3.229,5.46,5.214c1.138,1.415,2.4,2.745,3.719,3.995
			c1.133,1.073,1.895,2.405,2.837,3.607c0.807,1.028,1.511,2.146,2.418,3.089c0.936,0.973,1.396,2.222,2.019,3.356
			c1.26,2.295,2.766,4.458,3.867,6.828c0.971,2.086,1.757,4.286,3.088,6.157c1.436,2.018,2.489,4.234,3.688,6.369
			c1.059,1.885,1.759,3.968,2.726,5.909c1.013,2.034,1.612,4.224,2.51,6.306c1.153,2.677,2.113,5.471,2.817,8.333
			c0.565,2.298,0.998,4.617,1.424,6.94c0.158,0.863,0.092,1.724,0.163,2.584c0.141,1.712,0.781,3.292,1.286,4.904
			c0.16,0.511,0.278,0.966,0.166,1.477c-0.285,1.293-0.235,2.608-0.236,3.916c-0.011,7.462-0.005,14.926-0.006,22.391
			c-0.001,3.726-0.655,7.369-1.387,11.003c-0.395,1.962-0.686,3.952-1.174,5.89c-0.707,2.809-1.373,5.629-2.254,8.395
			c-0.713,2.238-1.385,4.488-2.209,6.689c-1.514,4.053-3.183,8.035-5.072,11.928c-2.482,5.115-5.304,10.033-8.46,14.752
			c-3.504,5.24-7.432,10.139-11.848,14.66c-1.94,1.988-3.847,4.016-5.839,5.951c-4.262,4.141-8.651,8.146-13.472,11.641
			c-3.246,2.352-6.584,4.586-10.061,6.576c-3.994,2.289-8.086,4.396-12.323,6.23c-2.821,1.223-5.678,2.355-8.558,3.402
			c-2.285,0.83-4.642,1.518-6.994,2.186c-2.258,0.643-4.533,1.215-6.805,1.793c-2.094,0.531-4.253,0.803-6.374,1.227
			c-2.627,0.523-5.28,0.846-7.936,1.164c-1.204,0.143-2.415,0.236-3.622,0.359C204.521,421.229,200.913,421.347,197.943,421.269z"/>
	</g>
	<g>
		<path fill="#039EA8" d="M140.158,448.659c-7.754,0-14.383-2.375-19.17-6.865c-1.917-1.879-3.634-4.172-3.8-5.041
			c7.426-1.684,14.355-7.215,19.02-15.182c1.371-2.342,2.165-5.059,3.006-7.934c2.214-7.566,4.305-14.713,16.513-15.535l1.416-0.096
			l-0.405-1.361c-0.017-0.055-1.628-5.602,0.499-9.324c0.655-1.146,1.909-2.613,3.361-4.312c3.61-4.223,8.555-10.008,9.59-17.109
			c1.436-9.844-3.113-19.287-3.307-19.684l-0.025-0.051l-0.03-0.051c-0.248-0.402-0.465-0.947-0.511-1.254
			c0.023-0.002,0.05-0.002,0.08-0.002c2.834,0.014,15.387,6.691,23.748,19.367c11.322,17.164,11.03,31.5,11.026,31.645l-0.046,1.484
			l1.445-0.348c0.294-0.07,29.561-7.467,42.704-41c14.568-37.164-1.238-63.013-8.711-72.402
			c-10.594-13.31-22.96-14.527-23.481-14.573l-1.863-0.162l0.716,1.728c0.046,0.109,4.567,11.025,7.728,19.451
			c3.321,8.859,14.031,18.665,19.785,23.932c5.535,5.068,5.57,7.254,5.449,7.803c-0.089,0.402-0.387,0.604-0.562,0.691
			c-1.87-0.074-15.526-0.791-29.871-6.384c-15.43-6.015-27.14-14.204-27.256-14.286l-1.583-1.115l-0.2,1.926
			c-0.034,0.328-0.807,8.096,1.727,12.904c1.443,2.74,1.255,4.154,1.015,4.754c-0.218,0.543-0.612,0.773-0.903,0.869
			c-0.053,0.02-0.346,0.105-0.947,0.105c-1.849,0-8.718-0.908-19.483-12.61c-11.487-12.486-11.193-17.465-11.188-17.515l0.33-3.738
			l-2.342,2.892c-0.073,0.091-7.433,9.197-16.684,13.565l-0.377,0.179l-0.172,0.381c-0.036,0.08-3.761,8.187-11.769,15.936
			c-7.318,7.084-13.01,12.098-19.62,12.098c-0.612,0-1.239-0.043-1.865-0.127c-6.992-0.932-7.807-5.523-7.838-5.719l-0.469-2.926
			l-1.163,1.795c-0.137-0.168-0.312-0.41-0.524-0.76c-1.251-2.047-1.58-8.043-0.663-12.105c0.903-4,3.26-9.914,3.284-9.973
			l0.196-0.491l-0.25-0.468c-3.794-7.079-8.994-26.887-1.517-51.187c10.06-32.694,34.155-56.223,67.849-66.253
			c7.735-2.303,16.382-3.47,25.7-3.47c25.765,0,48.613,8.953,48.84,9.043l0.252,0.1l0.27-0.024c0.036-0.003,3.634-0.324,9.252-0.324
			c11.581,0,33.603,1.378,50.98,10.607c21.63,11.486,25.165,21.486,24.698,24.083c-0.125,0.694-0.438,0.736-0.557,0.752
			c-0.106,0.014-0.224,0.02-0.35,0.02c-0.866,0-2.183-0.275-3.707-0.593c-2.205-0.46-4.949-1.034-7.696-1.034
			c-5.581,0-9.557,2.464-11.817,7.325c-2.863,6.157-1.247,13.132,1.201,23.691c2.269,9.787,5.376,23.189,5.901,41.691
			c1.045,36.836-18.574,67.655-18.773,67.961c-0.135,0.221-12.171,19.684-35.629,32.455c-23.515,12.803-50.775,14.531-51.048,14.547
			l-0.588,0.035l-0.312,0.5c-0.123,0.201-12.635,20.141-33.174,30.281C156.367,446.374,147.844,448.659,140.158,448.659z"/>
		<g>
			<path fill="#FFFFFF" d="M103.192,303.267c0,0-4.071,5.873-4.338,10.812c-0.267,4.938-0.534,8.408-1.869,9.41
				c-1.335,1-3.604-1.402-3.604-1.402v-7.382l2.937-8.769l1.969-2.002L103.192,303.267z"/>
			<path fill="#FFFFFF" d="M101.234,325.782c0,0,4.442,2.412,2.358,4.314c-2.083,1.902-6.046,0-6.046,0l-1.496-4.314l0.801-1.293
				L101.234,325.782z"/>
			<path fill="#FFFFFF" d="M133.225,297.86c0,0,1.441-6.872,8.076-9.811c6.635-2.938,6.86-3.903,9.57-8.292
				c2.71-4.388,1.642,4.888,1.642,4.888l-8.142,9.411l-6.407,3.804l-4.739,2.07V297.86z"/>
			<path fill="#FFFFFF" d="M195.818,299.318c0,0,9.703,9.365,20.92,15.107l-2.423,0.279l-19.489-9.036l-12.146-7.075l-17.353-16.552
				v-9.343l6.541-1.869l11.212,12.948L195.818,299.318z"/>
			<path fill="#FFFFFF" d="M107.945,246.771c0,0-2.137-2.759,0-9.044c0,0,2.655,2.936,5.858-0.534s1.704-8.642,1.704-8.642h-3.345
				c0,0,4.287-11.711,29.271-28.599c24.984-16.888,59.703-14.882,72.432-12.58l-8.494-2.771l-27.364-1.735l-21.223,4.805
				l-17.886,8.676l-14.283,10.412l-11.079,11.212l-9.344,15.884l-2.402,11.613l2.669,3.471L107.945,246.771z"/>
			<path fill="#FFFFFF" d="M227.93,205.024c0,0-0.896-8.394,9.497-10.737c10.393-2.344,25.476-2.344,25.476-2.344l28.966,7.875
				l22.024,15.083v5.339l-48.722-18.821L227.93,205.024z"/>
			<path fill="#FFFFFF" d="M122.303,439.851c0,0,9.254,0.768,18.064-9.109s9.835-30.689,20.535-29.828l0.956-1.539l-11.079,1.467
				l-5.473,5.072l-7.875,18.154l-12.146,12.014L122.303,439.851z"/>
			<path fill="#FFFFFF" d="M167.196,399.239c0,0-5.34-4.137-3.204-9.344c2.136-5.205,11.346-12.012,12.28-24.426
				s-5.606-16.15-5.606-16.15l1.469,14.549l-5.74,15.482l-7.875,9.344v7.074l7.608,5.207L167.196,399.239z"/>
			<path fill="#FFFFFF" d="M232.059,276.526c0,0,21.501,13.391,27.24,45.693c5.738,32.303-10.702,49.924-10.702,49.924
				l-8.119,11.611l-25.494,13.482l-1.068-4.004l16.552-12.148l12.68-17.885l5.606-14.816l2.804-15.084l-1.735-24.694l-8.276-19.756
				L232.059,276.526z"/>
		</g>
		<g>
			<path fill="#00688C" d="M131.523,284.646c0,0,0.3-6.407,3.904-11.913c3.604-5.506,5.005-4.305,5.005-4.305
				s-2.703,3.204-2.903,7.108s-0.3,6.006-1.551,6.807C134.727,283.144,132.124,283.945,131.523,284.646z"/>
			<path fill="#00688C" d="M297.875,199.151c-25.638-13.615-60.867-10.412-60.867-10.412s-40.312-16.018-75.284-5.606
				c-35.683,10.623-58.999,35.772-68.609,67.007c-9.611,31.234,1.602,52.058,1.602,52.058s-2.403,6.008-3.337,10.146
				s-0.667,10.544,0.801,12.948c1.435,2.348,2.002,1.467,2.002,1.467s0.801,5.607,8.81,6.676s14.149-4.273,22.425-12.281
				c8.276-8.01,12.013-16.285,12.013-16.285c9.611-4.538,17.086-13.881,17.086-13.881s-0.801,5.071,11.479,18.42
				c12.28,13.348,20.022,13.348,21.624,12.814c1.602-0.535,2.937-2.67,0.534-7.23c-2.403-4.56-1.602-12.258-1.602-12.258
				s11.746,8.275,27.497,14.416c15.752,6.141,30.475,6.467,30.475,6.467s5.499-1.49-4.312-10.472
				c-5.844-5.351-16.285-14.951-19.489-23.493c-3.203-8.543-7.741-19.488-7.741-19.488s12.28,1.068,22.691,14.149
				c10.412,13.081,21.624,37.91,8.543,71.279c-13.08,33.371-41.913,40.312-41.913,40.312s0.438-14.641-11.212-32.303
				c-8.409-12.748-21.255-19.861-24.683-19.877c-2.414-0.012-0.545,2.99-0.545,2.99s4.605,9.412,3.204,19.021
				c-1.401,9.611-10.412,16.818-12.814,21.023c-2.402,4.205-0.601,10.211-0.601,10.211c-17.82,1.201-15.617,15.818-20.422,24.027
				c-4.806,8.209-11.677,13.17-18.354,14.664c-3.069,0.686,3.338,6.959,3.338,6.959c8.81,8.266,24.694,10.68,45.784,0.268
				s33.637-30.701,33.637-30.701s27.497-1.602,51.524-14.682c24.026-13.082,36.039-32.836,36.039-32.836
				s20.022-30.969,18.955-68.611c-1.067-37.642-12.548-53.392-7.208-64.872s18.687-4.539,22.691-5.072
				S323.512,212.766,297.875,199.151z M164.26,384.157c1.963-2.133,17.619-20.422,6.407-34.838c0,0,6.541,2.535,7.475,16.551
				c0.935,14.016-16.819,22.691-10.945,33.369c0,0-6.407-0.934-7.342-6.006C159.032,388.763,162.269,386.319,164.26,384.157z
				 M159.054,437.55c-17.085,7.342-29.232,9.477-36.751,2.301c0,0,8.72-3.902,14.86-11.912c6.141-8.008,7.476-26.963,18.955-27.496
				c11.479-0.535,18.42,10.811,31.368,14.816C187.485,415.259,176.14,430.208,159.054,437.55z M103.592,330.097
				c-5.206,0.4-7.008-3.805-7.008-3.805s1.802-2.203,7.479,0.588c2.894,1.422,6.336,1.328,6.336,1.328
				S108.798,329.696,103.592,330.097z M154.849,267.827c-1.201,8.409-7.408,19.622-13.214,25.628
				c-5.807,6.006-8.41,4.404-8.41,4.404c-0.4-2.803,3.204-6.607,3.204-6.607s-2.603-0.199-6.007,4.205
				c-3.403,4.405-6.607,18.02-13.214,25.629c-6.607,7.607-16.89,0.838-20.222,2.402c-2.403,1.129-2.993-2.195-3.003-3.604
				c-0.017-2.203,0.801-9.812,2.402-12.414c1.602-2.604,6.808-4.205,6.808-4.205c7.008-1.602,9.611-0.2,13.415-3.004
				c3.804-2.803,3.204-6.807,3.604-11.813c0.4-5.005,3.804-16.018,6.808-20.823c3.003-4.806,9.41-11.813,18.42-13.615
				C154.449,252.209,156.05,259.417,154.849,267.827z M214.315,310.208c19.39,9.484,26.346,10.33,27.463,10.404
				c0.104,0.005,0.167,0.008,0.167,0.008s-0.054,0-0.167-0.008c-1.87-0.094-20.443-1.393-48.02-17.078
				c-29.099-16.553-27.364-27.053-24.809-29.1c2.039-1.633,5.32-0.782,9.227,5.473C183.357,288.2,189.802,298.216,214.315,310.208z
				 M251.156,368.806c-12.146,17.354-35.373,25.629-35.373,25.629s23.359-12.682,32.437-40.578s3.471-52.992-8.543-69.211
				c-12.014-16.218-28.298-17.687-28.298-17.687s-4.539-10.812-10.545-14.015c-6.007-3.204-11.747,0-11.747,0
				c-0.267-3.471,7.342-13.081,26.83-9.477c19.487,3.604,42.313,26.295,46.718,54.727
				C267.04,326.626,263.482,351.196,251.156,368.806z M270.243,200.352c-26.696-3.337-42.313,4.672-42.313,4.672
				s-20.478-7.814-40.96-7.022c-15.903,0.615-28.296,4.99-34.59,8.757c-6.405,3.833-17.219,12.414-24.561,23.493
				s-14.549,16.285-18.554,16.552s-6.141-2.403-4.405-9.344c1.736-6.941,6.273-13.481,6.273-13.481
				c13.214-18.955,42.581-40.044,74.216-39.644c31.636,0.4,51.391,10.145,51.391,10.145s12.013-4.004,37.241,1.468
				c25.228,5.473,38.709,21.224,38.709,21.224S296.94,203.689,270.243,200.352z"/>
			<path fill="#00688C" d="M110.733,230.386c0,0-3.337,4.938-1.201,5.339s4.856-1.987,5.471-4.326
				c0.441-1.681,1.128-4.46-0.666-4.35C112.903,227.136,110.733,230.386,110.733,230.386z"/>
		</g>
		<path fill="#FFFFFF" d="M135.528,275.936c0,0-0.801,1.401-1.201,3.504c0,0,1.727,0.65,2.002-1.251
			C136.604,276.286,135.528,275.936,135.528,275.936z"/>
	</g>
</g>
<g>
	<path fill="#00688C" d="M625.607,328.127c7.307,0,13.627-6.321,13.627-13.627c0-7.445-6.32-13.346-13.627-13.346
		c-7.445,0-13.486,5.9-13.486,13.346C612.121,321.806,618.162,328.127,625.607,328.127z"/>
	<path fill="#00688C" d="M782.393,366.621c-6.322,10.959-11.24,17.139-18.686,23.602c0.141-1.123,0.422-2.389,0.422-6.322
		c-0.141-8.99-3.09-30.906,0.141-50.715l-21.916-4.918c-5.338,11.801-14.471,29.222-19.809,38.354l0,0c-0.001,0-0.001,0-0.001,0
		c-10.257,17.701-19.247,25.99-24.306,25.99c-2.527,0-4.635-1.967,1.688-17.842l6.18-15.313c2.951-7.306,4.215-11.66,4.215-15.454
		c0-7.445-4.635-12.643-14.328-12.643c-14.049,0-25.711,10.676-24.305,9.271l-21.916-7.445l-14.249,35.214
		c-9.696,16.46-18.384,24.212-23.401,24.212c-2.248,0-4.637-1.686,1.826-17.842l16.719-41.584h-24.867l-14.055,34.882
		c-9.773,16.688-18.545,24.544-23.596,24.544c-2.389,0-4.637-1.967,1.826-17.842l6.182-15.313c2.949-7.306,4.215-11.66,4.215-15.454
		c0-7.445-4.637-12.643-14.33-12.643c-13.064,0-24.305,9.271-24.305,9.271l14.189-35.262h-24.865l-25.457,62.939
		c-9.246,15.366-17.076,22.247-27.648,27.533c3.934-5.057,18.123-26.271,18.123-44.112c0-10.115-4.496-20.37-17.141-20.37
		c-11.238,0-19.105,7.867-19.105,7.867l-22.338-6.041l-14.23,35.184c-9.703,16.48-18.397,24.242-23.418,24.242
		c-2.248,0-4.636-1.686,1.826-17.842l27.958-69.4h-24.867l-25.239,62.567c-4.918,7.945-10.934,12.976-17.329,14.841
		c3.652-7.727,5.338-15.875,5.338-23.181c0-17.14-9.975-28.237-29.081-28.237c-31.329,0-44.815,28.519-44.815,47.625
		c0,16.717,10.115,28.939,29.783,28.939c13.206,0,23.461-5.619,30.767-13.486c7.06,0.139,13.776-2.113,19.649-5.925
		c-0.725,13.409,7.11,19.411,16.877,19.411c6.918,0,13.499-2.845,19.583-7.496l-13.544,33.486h24.866l28.801-71.086
		c4.355-6.182,10.535-11.801,15.875-11.801c2.949,0,4.355,1.826,4.355,5.9c0,12.644-13.066,38.072-20.23,38.072
		c-2.389,0-4.496-2.951-4.496-2.951l-7.867,7.166c0,0,5.338,8.709,23.883,8.709c12.647,0,23.148-4.017,31.813-10.317l-3.435,8.491
		h24.865l18.264-45.096c5.76-6.604,12.223-9.693,15.455-9.693c2.246,0,3.793,1.123,3.793,2.949c0,2.107-2.107,7.025-4.918,14.189
		l-0.982,2.248c-9.693,24.445-4.496,37.229,11.238,37.229c10.84,0,20.096-5.621,28.232-14.421
		c1.257,9.915,8.265,14.421,16.725,14.421c6.912,0,13.486-2.839,19.566-7.483l-2.289,5.657h24.867l18.264-44.955
		c5.76-6.744,12.223-9.834,15.453-9.834c2.107,0,3.652,1.123,3.652,2.949c0,2.107-2.248,7.587-4.916,14.189l-0.984,2.248
		c-9.975,25.146-3.934,37.229,11.52,37.229c17.982,0,31.611-15.734,42.85-35.262l0,0c0,0,0.001,0,0.002,0
		c2.527-4.496,6.041-11.801,9.693-18.966c-0.281,5.76,0.281,13.908,0.281,19.81c0,13.627-2.811,17.42-6.885,17.42
		c-1.686,0-2.389-0.422-3.23-1.266l-13.898,8.705c0.292,0.247,6.814,9.559,25.277,9.559c23.742,0,38.354-16.717,48.609-35.262
		C789.557,369.853,785.623,366.902,782.393,366.621z M341.402,365.638c-7.586-0.141-12.644,5.479-12.644,12.081
		c0,3.373,1.124,6.182,3.091,8.43c-2.669,3.373-5.76,5.619-8.851,5.619c-3.231,0-5.338-2.809-5.338-7.164
		c0-9.412,9.834-37.089,20.511-37.089c2.81,0,5.338,1.967,5.338,7.024C343.509,357.35,342.807,361.283,341.402,365.638z"/>
	<path fill="#00688C" d="M716.926,398.371l0.01-0.006C716.925,398.356,716.921,398.356,716.926,398.371z"/>
</g>
<g>
	<path fill="#F16530" d="M374.817,269.419h1.74l2.457,8.31l8.641-8.31h1.74l-5.666,15.226h-1.719l4.589-12.333l-8.584,8.157h-0.087
		l-2.521-8.135l-4.581,12.311h-1.676L374.817,269.419z"/>
	<path fill="#F16530" d="M437.365,269.419h1.719l-5.666,15.226h-1.719L437.365,269.419z"/>
	<path fill="#F16530" d="M492.731,269.31h1.61l1.234,15.335h-1.85l-0.287-4.024h-8.29l-3.303,4.024h-1.763L492.731,269.31z
		 M493.341,279.077l-0.57-7.765l-6.371,7.765H493.341z"/>
	<path fill="#F16530" d="M547.753,269.419h1.74l2.457,8.31l8.641-8.31h1.74l-5.666,15.226h-1.719l4.589-12.333l-8.584,8.157h-0.087
		l-2.521-8.135l-4.581,12.311h-1.676L547.753,269.419z"/>
	<path fill="#F16530" d="M610.301,269.419h1.719l-5.666,15.226h-1.719L610.301,269.419z"/>
</g>
<g>
</g>
<g>
</g>
<g>
</g>
<g>
</g>
<g>
</g>
</svg>
