<?xml version="1.0" encoding="utf-8"?>
<!-- Generator: Adobe Illustrator 16.0.0, SVG Export Plug-In . SVG Version: 6.00 Build 0)  -->
<!DOCTYPE svg PUBLIC "-//W3C//DTD SVG 1.1//EN" "http://www.w3.org/Graphics/SVG/1.1/DTD/svg11.dtd">
<svg version="1.1" xmlns="http://www.w3.org/2000/svg" xmlns:xlink="http://www.w3.org/1999/xlink" x="0px" y="0px"
	 width="841.89px" height="595.28px" viewBox="0 0 841.89 595.28" enable-background="new 0 0 841.89 595.28" xml:space="preserve">
<metadata><?xpacket begin="﻿" id="W5M0MpCehiHzreSzNTczkc9d"?>
<x:xmpmeta xmlns:x="adobe:ns:meta/" x:xmptk="Adobe XMP Core 5.3-c011 66.145661, 2012/02/06-14:56:27        ">
   <rdf:RDF xmlns:rdf="http://www.w3.org/1999/02/22-rdf-syntax-ns#">
      <rdf:Description rdf:about=""
            xmlns:dc="http://purl.org/dc/elements/1.1/">
         <dc:format>image/svg+xml</dc:format>
         <dc:title>
            <rdf:Alt>
               <rdf:li xml:lang="x-default">Jacksonville Jaguars</rdf:li>
               <rdf:li xml:lang="en_us">Jacksonville Jaguars</rdf:li>
            </rdf:Alt>
         </dc:title>
         <dc:creator>
            <rdf:Seq>
               <rdf:li>Max O'Brien/Osprey Dawn</rdf:li>
            </rdf:Seq>
         </dc:creator>
      </rdf:Description>
      <rdf:Description rdf:about=""
            xmlns:xmp="http://ns.adobe.com/xap/1.0/"
            xmlns:xmpGImg="http://ns.adobe.com/xap/1.0/g/img/">
         <xmp:CreatorTool>Adobe Illustrator CS6 (Macintosh)</xmp:CreatorTool>
         <xmp:ModifyDate>2013-10-08T19:43:27+13:00</xmp:ModifyDate>
         <xmp:MetadataDate>2013-10-08T19:43:27+13:00</xmp:MetadataDate>
         <xmp:CreateDate>2013-10-08T19:43:27+13:00</xmp:CreateDate>
         <xmp:Thumbnails>
            <rdf:Alt>
               <rdf:li rdf:parseType="Resource">
                  <xmpGImg:width>256</xmpGImg:width>
                  <xmpGImg:height>184</xmpGImg:height>
                  <xmpGImg:format>JPEG</xmpGImg:format>
                  <xmpGImg:image>/9j/4AAQSkZJRgABAgEASABIAAD/7QAsUGhvdG9zaG9wIDMuMAA4QklNA+0AAAAAABAASAAAAAEA&#xA;AQBIAAAAAQAB/+4ADkFkb2JlAGTAAAAAAf/bAIQABgQEBAUEBgUFBgkGBQYJCwgGBggLDAoKCwoK&#xA;DBAMDAwMDAwQDA4PEA8ODBMTFBQTExwbGxscHx8fHx8fHx8fHwEHBwcNDA0YEBAYGhURFRofHx8f&#xA;Hx8fHx8fHx8fHx8fHx8fHx8fHx8fHx8fHx8fHx8fHx8fHx8fHx8fHx8fHx8f/8AAEQgAuAEAAwER&#xA;AAIRAQMRAf/EAaIAAAAHAQEBAQEAAAAAAAAAAAQFAwIGAQAHCAkKCwEAAgIDAQEBAQEAAAAAAAAA&#xA;AQACAwQFBgcICQoLEAACAQMDAgQCBgcDBAIGAnMBAgMRBAAFIRIxQVEGE2EicYEUMpGhBxWxQiPB&#xA;UtHhMxZi8CRygvElQzRTkqKyY3PCNUQnk6OzNhdUZHTD0uIIJoMJChgZhJRFRqS0VtNVKBry4/PE&#xA;1OT0ZXWFlaW1xdXl9WZ2hpamtsbW5vY3R1dnd4eXp7fH1+f3OEhYaHiImKi4yNjo+Ck5SVlpeYmZ&#xA;qbnJ2en5KjpKWmp6ipqqusra6voRAAICAQIDBQUEBQYECAMDbQEAAhEDBCESMUEFURNhIgZxgZEy&#xA;obHwFMHR4SNCFVJicvEzJDRDghaSUyWiY7LCB3PSNeJEgxdUkwgJChgZJjZFGidkdFU38qOzwygp&#xA;0+PzhJSktMTU5PRldYWVpbXF1eX1RlZmdoaWprbG1ub2R1dnd4eXp7fH1+f3OEhYaHiImKi4yNjo&#xA;+DlJWWl5iZmpucnZ6fkqOkpaanqKmqq6ytrq+v/aAAwDAQACEQMRAD8A8qYq7FXYq7FXYq7FXYq7&#xA;FXYq7FUbYaPqeoRXUtlbvPHZRGe7ZaUjiUElm9tspy6iGMgSNGRoeZZRgTddEVb+U/MdzpD6zBp8&#xA;smlxq7PdgDgFj2c9e1MrnrsMcnhmQ4+73shhkY8VbLtP8neadR05tSsdMuLixXl+/jQkHh9rj3an&#xA;tkcuvwY58EpgS7kxwzkLA2U7Pyv5gvYrOW1sZZo9Qd4rNlAPqPGCXC/6oU1yWTW4oGQlIDh5+Voj&#xA;ikaoc1fTfJPmzU/rBsNLnuBaytBcFFFFlX7SEk0qO+Qzdo4MdccwOIWPcmOCcuQWaf5N806jdXVr&#xA;ZaZPNcWLendxqu8b1I4tWm/wnDl7QwY4iUpgCXLzWOGciQByUx5V8xm8vbIadObvTozNew8DyiQA&#xA;Nyb6DUeOS/O4eGMuIcMzQ80eFKyK3C6Dyn5juJ7KCHT5Xm1GIz2SACssQFS679KYJa7DESJkKgaP&#xA;kVGGRoVzU4vLWvS21vdR2UjW91cixt5ABR7liQIhv9rbJHWYhIxMhcY8R/q96jFKrrrTbeV/MCfp&#xA;HlYyD9E8f0lsP3POvHnv34nEazEeH1D1/T5r4Ut9uXNDppOpSaZJqiW7Np8MghluR9hZGFQp998s&#xA;OeAmIE+si68mPAavomOleRvNurWSX2naXNc2khISZAOJKmh6nsRmPm7S0+KXDOYEmcME5CwNkizN&#xA;anYq7FXYq7FXYq7FXYq7FXYq7FXYq7FXYq7FXYq7FXYq7FXYq9e8veTL/QPJOvapcOj2eq6EJFmV&#xA;l4rLIzkRDfkTw4GtKVNBnJ6rtCGfU44D6oZvsFb/ADt2WPAYY5E8jFlvlaO1h8saB5TlmZJdX0S7&#xA;cW/H4WN1xl5MaihUO9BTuemarWmRz5M4G2PLHf8Aq7fqcjEAIRh3xP2pJ5a07zTfflv5Y/w7qC6d&#xA;PYz336QuXcKkK85j++Q1r1G3E0qD03zN1mXBDWZfGjxiQhwjv+nl+OlNWKMzijwmqu/tRX5YXNpF&#xA;5Y8rRS0W6uZNSh0+dhyEVweTBqH/ACFZfpplXbMJHPmI+kCBkO8f20y0pHBH40hfyps9cOi6hpNx&#xA;bG4t/wBMSRX8ltcm2vLWZUjBnJLIHjBToDyrXZugt7byYvEjkBo+GDG43GQ39Pkfs8wx0kZcJif5&#xA;3fuG9Es9TvNP8+aZo9095qv6VhKSCWOOZ0WdfUdmUxJuiPWlK7jBqMkIT088g4YeGehI+nbv60sI&#xA;kiYibPEmNrq9vpn5lefNUdfXgs7K2klRSDURwx81+exGY88ByaPTw5GUpfaS2CYjlme4BA+Z77S9&#xA;K/MLyGdMkQ2CxCO34kECC6YxIR/k8X2y/R455dJqOP6r398d/wBDDLIRywrl+tf5wtk0XVfJGhId&#xA;pNfkviBv8L3waKv+xmp9GDQT8aGfKf8AURH/AGG/3JzDhMI/0r+1bBpl9qmofmlp9hH615ctapDF&#xA;yVeTfvduTlVH0nDLNHFDSTkaiOK/sQImRygc9kh0PyZ5luvy413y/BZ89Xg1aP1bb1IhThEhb4y4&#xA;Tv2bM7U9oYY6zHlMv3Zxnej3npVtOPDM4pRA9XEnfl/R9Xufyks7Gy0p9R1KK5ukRFuzaiCQSSL6&#xA;jMskXqBT+zyzC1WfHHXylKfBAxj/AA8VihtyNe9txwkcIAFmz1p4bnauqdirsVdirsVdirsVdirs&#xA;VdirsVdirsVdirsVdirsVdirsVTLSPLXmPWm46PpV5qTVpxs7eWc18P3atiqlo2janrWq2uk6Xbt&#xA;dajeyCG1t0IBd26AFiAPpOKvT7D/AJxU/O27oZNEis1bo1xd2vSld1jkkYfdirzTUNA1Wx8wXPl+&#xA;WBn1a1u3sJLaIGRmuI5DCUQL9olxQU64q9jtP+cOPzcuI4Xkl0u1MqqzJNcycoywrxf04ZNx0PGu&#xA;KsL/ADT/ACQ86/lqLKXXfq1zZ3/JYb6xeSSFZV3MTmSOFlfj8QFNxWh2NFU084/845+d/Kfkb/GW&#xA;o32mS6WUt39G3luGuKXRVU+F4I025ivx4q7yD/zjn5388eUj5p0m+0yDTw8yGK6luEmrB9r4Y4JV&#xA;37fFirDPIXkjWPO/mqy8s6O0Md/feoY5bkusKCKJpWLsiyMBxSn2etMVeoXX/OHf5vwqTH+jbkgk&#xA;cYrpgfn+8jjGKvK/JvkvX/OHmGLy/ocKy6pMsjxwyusQPooXYcnoAaL3xVnF3/zi9+eNtU/4c9ZB&#xA;T44buzetf8n1uX4YqwDzP5U8xeVtVfSfMFhLp2oIocwTAVKNWjKQSrKaHdTTFUO2ha2ljHqD6fcr&#xA;YSgtFdmGQQsqkglZKcSBQ98VQOKuxV2KuxV2KuxV2KuxV2KuxV2KuxV2KuxV2KuxV2KuxV9wf84b&#xA;f+Sjm/7atz/yahxV89/84raP+kvzq0eRl5RadFc3kg/1YGjQ/RJKpxV9m2vnMz/mhqHk4BDHaaRb&#xA;akGFeYlluJYpFO9KBBERt3xV8teatH/Rf/OY1pGFpFda1YXkZ6V+sLHI5/5GFhir0v8A5y3/ADF8&#xA;7eTl8rJ5Y1WXTP0kNQW89JY2MnpfVhHu6sRx9VqcadcVeV/nF+cfnLzV+Wmn+Xtd8mX+kfVprV5t&#xA;du2l4zzQxMhqj20KhpSxb7Z+nFXsv/OQn/rNA/4waV/ychxV3/OLP/khn/4z3+KvHf8AnDDRvrf5&#xA;m3+pOtY9N0yUq2+0s8sca/8ACc8VfUXlXzpLq/5jedvLjShofLx00W6UUU+t27SSUIAY0cUNSaYq&#xA;+ZPyb0b9C/8AOWN9pYXjHaXerxwinH916cpjNO1UIOKvYfzP/Obzb5W/O7yj5L06Kzk0fXRp4vDP&#xA;G7TA3l9JayGN1kQCiICtQd+temKsS/5zSsrSV/JDyRKZJbq5gkkpRzGfRPDkN6bnFXsn5g+ffLn5&#xA;U+ULG/n0y4k0WKeHTorbTo4yYEMblDxdo1CD0uP2upGKvKv+ch9J8i+dPyN/5WJpdqkd1bC2urG6&#xA;RY0mKXVxFbyQ3HAsDx9TcVPFh88VfG+KuxV2KuxV2KuxV2KuxV2KuxV2KuxV2KuxV2KuxVNND8ta&#xA;zra376bbtNFpdpLf38vRIreFaszH3+yo7k4q+zP+cNv/ACUc3/bVuf8Ak1DirzP/AJwh0gS+avMu&#xA;r0qbOxhtAfD61N6n/Yrir1Xyvr/5er/zkP5jkm1lp/OWpqNI0/S1iuBHb2tnbxyzq8rIsJeWS3Zx&#xA;RiAABXkxGKsT/OvRhb/85N/lvqyKFXUHtInI/aktrpqk/wCwlQfRiqe/85LnzFZ+ZvIOuaL5Xk80&#xA;z6W+ouloLe4uYkmb6qYXkW33qChZAe4r2xVT/wCctLi5ufyQ024uovQuZr+yknhIKlJHglLLRtxx&#xA;Jpviqc/nRoGta9/zjzHpui2U2oahJb6W0drboZJGCNEzEKNzQCuKrv8AnHby7rvl/wDJWTTtbsJt&#xA;OvhLfSG2uUMcgVh8JKtvvirB/wDnB/R/T0PzRrJX/em6t7NG/wCYeNpGA/6SFrirJvyU/MXyXqf5&#xA;n+c9EsdPnTzBe3l5e3esSmNkuIbS49CCFOPxKqRMCo7/ABGuKsej0f8AR3/Oa4lVeMeo2T3iAf5W&#xA;ntE5+mSJjir0W+82Wll/zkXb+Wb5I3j1ny7bz2DSKGKXdnd3j0Qn7PKIuSR/KMVeE/8AOXHmDzRq&#xA;f5maP5VNslrZ2KxTaNLUE3El4yqZixA4hZI/T4/5JPfFXqnkj87lvruT8vPzg0uPRfMki/V2N4i/&#xA;UNQVvhH2qxAv2oTGx+yei4q8/wDz1/I7WPJHlTXdS8kanJF5Iv8A0m17y3NIWWLjPG8UkBflyCyq&#xA;nfmBtVlJAVfL2KuxV2KuxV2KuxV2KuxV2KuxV2KuxV2KuxV2KuxV9r/84+eQ/KOs/wDOP1xp1lKI&#xA;7vzLDdW+vXsLK86TFnjRGB+z6cZVlQ+Nf2q4qyvRrX8v/wAhvy8urW41Z5baB5L0x3LxG6nmlCqI&#xA;4YkCV5cFA226k06KvEf+cXvzT/LTyF5Q1p/MurfU9Tv75eFosE8ztBDCvBv3UbqKvI43PbFXlel/&#xA;mNb2H53f4+kEstkdam1CVIv70208zl1QOU39JyFViB2OKs4/O3/nInSPOd95Z1PyvZXmm6r5aupL&#xA;u1vLsQndzGwHBGkB+KFSa7dsVZYv/Oct59VRW8nRm7CqJJRqDCMuKciI/q5YA9hzNPE4q8q/OX8+&#xA;vMf5mtZW9xbLpej2XxrpsMhkV5zUetIxVORCniop8O/icVZR5G/5y486+WPLFnoVxpttrAsF9K3v&#xA;LiSRZfRX+7R+NQ3AfCD4U+eKqvnH/nMDzt5g8uXujWmmW2kPfIYZL6CSR5kjbZxHyoFLL8PLt233&#xA;xVLfyj/5yVuvy48pHy9a+Xob8Ncy3T3T3LRFnlCrugjfoEA64qwn8rPzHuPI/wCYNp5tlga/9P1x&#xA;d2yuIjMLiNlPxUYCjsH6dsVepXv/ADkp5X1D84vL3n+bRby2h0vT5tPvLaN4pZH9QS8DGT6QopnN&#xA;akYqx/8AN/8AO/TPMf5r+XfPXlSK6g/QtrbJ6N6qRSGW3uppmQ+m8q8HSUA7+OKs6/P38zPyi852&#xA;XlrzHoesCfXNBvoXmsjBcRTPaSMryoPUjRGaN0Uj4qfaocVeuedfJv5XfnlpGlSR696hs1eazk02&#xA;e3MqidV5JNG6ysKcBVfhIOKoH88rKw8q/wDOON9oE9+0xgtLTTrSe5I9W4kjljpt3YrGWp4DFXwj&#xA;irsVdirsVdirsVdirsVdirsVdirsVdirsVdirsVTLTvMnmLTLSez03VLyytLkhrm3tp5Yo5GUEKX&#xA;RGVWIB2riqXu7yOXkYu7GrMxqSfEk4qtxV2KuxV2KuxVXhsryenoQSS8vs8EZq08KDISyRjzICRE&#xA;lUk0nVYgDJZzoDsC0Tj9YyIzwPKQ+aTA9zKfLP5UeZ9at/r06ppOlAcmvb0+mCo7qh+Ij3NB75rN&#xA;Z23gwnhHrn3R/H7XIxaSchfIeacf8q9/LQN9VPniL65/v0RL6Fen2ufH/kpmJ/Kmt+r8ueH37/d+&#xA;hs/L4uXHuxrzp5A1fyrJDJO8d3pt1vaahAaxPtWh/lam/v2JzY9n9qY9SCBcZx5xPNoz6eWPnuO9&#xA;jGbJodiq5HdHV0Yq6kFWBoQRuCCMVTDUfMnmLU7SCz1LVLy9tLYlra3uZ5ZY42YAMUR2ZVJA3piq&#xA;W4q7FXYq7FXYq7FXYq7FXYq7FXYq7FXYq7FXYq7FXYqnOl+TfNWq2bXunaXcXVqpI9aNCVJXqF/m&#xA;p7Zh5tfgxS4ZzjGXvbYYZyFgbJXcW1xbTPBcRPDNGaPFIpRlPgVNCMyoTEhYNhrII5qWSQnGgeUP&#xA;MnmCUJpNhLcrWjTAcYlP+VI1EH35iarX4cAvJID7/lzbceGU/pDN/wDlX3kfysok8661698By/Q+&#xA;n/E9etHb7W/vw+eaX+VNTqdtNjqP8+X4/W5X5fHj/vDv3BtPzP0DTmWHyj5PtoiTwhubpTNM57Ah&#xA;fjr7eqcT2Plyb6jPI94Gw/V/sV/NRj9EAyC08x/n7qkXrWmkxW8Tj4eccUFK9wtxIGzAnpOysZqU&#xA;yT7yf9yG4ZNTLkPx8Uu1jzx+cuhX1vp989tNqF4QttZRRwzzsSaLSOD4viOwr17ZlaXsrQakXjEq&#xA;HXcfe15NRmx/VT07yr/zjr+YXnz0NU/M/VZdK02ivBoNpxWcinWQUaOE/MO/Y8c3mj7Ow6cfu479&#xA;/X5uJlzznzLMpv8AnFP8lNX0u8t9IS7trqB3thqUdxJLwuItn+GSsUnB/hcKOoK1DA0zml4RpGg3&#xA;cMXmv8pfMF1EupafNTRWmbiplUllMVfi4v8AC4A34sds5rtaB0+ohqYA1ynXd+PuDn6Y8cDjJ9zy&#xA;vzB5a1vy9fGy1a1a2m3KMd0kUGnJHGzD5ZvNLrMeePFjNj7ve4mTFKBqQSvMlrdirsVdirsVdirs&#xA;VdirsVdirsVdirsVdirsVdirsVdirsVdir1/zj5j1zRPKfkSXRb6WwtJbFRO0AHEyqkXPmp2Yglt&#xA;j13zk9BpMWbPqBkiJSE9r7rk7LNklGEOE0KZHTzPqumwPr/l+w836dIn7vULN0guUU9ysnDc1r+7&#xA;I2zXfucUz4WSeCf82VmP2fptyZwn/FETHeGMteflno5nvNO8nX19cwGsiXp5WsFOzSc54+viD882&#xA;QhrctRnnhEH+b9R+FRP3OLeKO4gT7+SCfzn+aXm+eDS9Gt202ynAWKOyjaGJY/5nnNSFA68SB7Zc&#xA;Oz9DpAZ5DxyH842b/qsfGzZNo7DyZLYfkzDomq3Gr3nDXIre3aSx0x95Lm7EYLeoGAXiX5ELv2rW&#xA;m+uy+0BzQGOP7sk7y6RjfT4N8dFwHiPq8u8pbpXlH8yddi1y9vLVdO1GeKO1055/3Cww+pylht0X&#xA;kY1Kbcqb777nMjNrtHgOOMTxwBJlW9mtjLvN9P1BhDDlnxEij0/Y9E8o+Q9T03ybZ+XG1qTT7tpC&#xA;1xqFsquIxK5LKnqr9lQeooa77ZpdR2hizazxDEGBoer7zTlQwyhi4Qd3snlT8rfKP5b27anpWlXu&#xA;va5OrG716X07u+NR/wAWSRMFatOMIqQPir1z0XHGMYgRAA8nRkknd4l57/5yz802N5rWjWNosV0b&#xA;c2cFyUkh9C4WQ/6UkUyLMrPC9DE5IV1DKzAms0PffyZ1Gzu/IelQ6bYXltpNpbRQ2t9fosT3rcay&#xA;XUcfJ5OErkvykCliagU3xV8sf85F2OgT/n5ry6tftpcT2tpJFdpG0v8ApAtoVTkqAtTiN6U6Zi6u&#xA;eWMbxx4ze4utmzGIk+o0lp8wajpVnBoP5iWg1ryzeqradrkdZCEYVSRJaBm+E17OB4jbOc/KwyyO&#xA;XRnw80fqhy+FfiPuc7xDEcOUcUTyP4/tYj56/LuXQYo9W0u4Gp+W7uhtr+OjFOXRZeO3sG6H2O2b&#xA;Xs3tUZyccxwZo84/qcfPpuD1DeJYZm4cV2KuxV2KuxV2KuxV2KuxV2KuxV2KuxV2KuxV2KuxV2Ku&#xA;xV6l5VW387fl+/lAzJFr2kSNdaOHIHrRnkzR1P8ArMD4fCegOczrSdHq/wAxV4sgqfl5/jzc/FWX&#xA;HwfxDkh/IfnnXPJms/oTXg9vp8Jf6xDMpMkfFSwCeIY/Z+expk+0+zcWsx+Li3meVcj72em1UsZ4&#xA;J/T9z0fzNqMnmEaXPLpBufJMdp+mtQuZi0b/ALuORo4giuvPYBipDA1HbOf0eIYOMCdani8OIG/M&#xA;izdbe/ZycsuOjX7uuIsE8t6x5m81eaD5q1C4k0/yzoDfWJFiYpDHHD8a28aigdmAAfxH0DN3q8GH&#xA;S4PAgBPNl235kn+I93l/a4mKc8k+M7Rj+KXflxB5g86eev8AEuqXEradpUj3AaRz6aOd44Iq/CoG&#xA;zNTsN+uDtaWLR6XwYAccxXn5kp0wllycZ5B7FY+cvLepW95Npd9FfGyjeSeOFqsAgPY02NNj0zkc&#xA;mgzYzETiY8XK3ZRzRkDRukm8gfmfo3mq2jhkeO01s8vU08k7hSSGjZgOQK7kdRv88zO1Ox8mmkSL&#xA;lj/nfratPqo5B3S7nqugedtW0gLCT9as12EEh+yP8huq/qw9n9uZtN6fqh3H9B6fcufSQyb8ihvz&#xA;K/LbyV+cOlPJbyfo7zZaxMbOdgqksAOKz0BMkW1Kqar18Bnb9n9rYdUPSal/NPP9rqc2mlj58ky/&#xA;5x/8peXtM8m2d1babNpOv2/qWGvWjXV1IovLVjDLWJ5Xio3HmlBQKwpmzcd8xeedOg/Mf/nILzNC&#xA;Lv6vbfWZI/XVQ5ZLBEtaJSg+IRbMfnvmu7U1x0uE5AOLem/T4fElV0n35s+a4tD/AER5WgsbW7sr&#xA;qNRdW1wpakCsI4gnErwPwtRh0ptnKdh6I5uPOZSjKJ2I7+Zvvdjq8vBUAAQk01tc/l1qEsMpOs/l&#xA;5qjtBdRmkvoOSVZWA2DqRv8Azf6w2zIzHaEAR+71cNx0v9n3e5rIOE/zsZYV+YvkVfL91DqGmP8A&#xA;WvLmpD1NPu1PIKGHL0mbxA+ye49wc3PZXaXjxMJ+nND6h+lxNTg4DY+k8mG5t3GdirsVdirsVdir&#xA;sVdirsVdirsVdirsVdirsVdirsVdir0f8pNNtbBNT876mp+o6FGwtlOwkuXWgUHxAYD5sM57tzNK&#xA;fBpofVlO/lH8fc5ujiBeQ8o/el3lryt5g/MbzNdX08npwyymW/vWBIUEj93GO5C0Cr2GZGr1uLs/&#xA;CIgWQKiP0ljiwTzyMune9WtluL+7h1ODWG0nyD5b428MKPx+tGz+BzKR1hJXhRq8gPs71zl5kQiY&#xA;GHHqs2/9Xi32/pdfLv2dgLJu6xx+2kz8r+ZLPzdBqtpZaKi+W4lMVrcTqFiuZDXkPR4ii13618aH&#xA;MbW6SWlMJSn++O5A5x+LPFlGSwB6fvQH5XaX5lgtNX0zzFLaxxkhItItmg5QLIG5krbmiK4YcQd+&#xA;/wA7+2c2GUoTwiV/zjxb/wCm50w0sZgESr3f2KLP5S/LhrXy9YWr3zaxIz6k8sq+rFbKKNNLxT+7&#xA;RC1BQdG365Os/aF5pnh8MenbYy7hvzPx6I9GCogXxc2H+SvI3lnU/N9tqPlXXWltdLukuZ7O5jaK&#xA;49JG5KYzt6isw4moWgO/vtu0e0s2PTmGfHUpxoEGxfn3Hr1cbBghKYMJci9ouPMFpD5gtdDaKZru&#xA;7gkuEkRKwqkRAPN67Ek7bfrFePjpZHEctjhiQPPfudocgEhHqUz0nzn5W0PXreTVNUs7VY5Aswmu&#xA;I43jDftbsGBXr79MzuyMWQZ4SEJGN86PzvyadTKPARYt6f5e82eTfM8Gtt5J1u0udQmKyXk0Lep6&#xA;UzxCFJ2jNK0SIU7Nxp456Y6B8869+RGi6fJfwaXe3NjPqBDfpFZDP6tqx50jaq8kl+Fianp884bV&#xA;9r6jDn4c0RIRuhyvul+Pvdvi00JQuBq/xS5tG8m3XnW1sLvTJbzWtLsIZYdRl5vEI0dljD0bh6nI&#xA;FgWT6ds1o1GojpjKMxHHOZHCOd9fOvcW/ggcgBFyA5sCjh1P8ufLerw+YbWLWLDWL5beG1EoVGQJ&#xA;IZp9g3FmogAoCCPbN6ZQ7QzQOEnHLHC7r3UPvcSjhieIcQkUXpunQ6RdP5D1wvN5V8xJ63l68lpz&#xA;hlejLHXoHDEf7Km3xHKc2U5Y/msW2fFtMd47/d+j3Mox4T4cvolyeReYdDvdC1q70m8FJ7SQoWpQ&#xA;MvVHHsykMM6zS6mOfHHJHlIOtyYzCRieiXZkMHYq7FXYq7FXYq7FXYq7FXYq7FXYq7FXYq7FXYq7&#xA;FXp35iOfL/kXy35Rh+CWeL9I6mBsS77qp8RzZv8AgRnN9lDx9Vl1B5A8Mfx7q+Zc/U+jHGHxKjo+&#xA;ualDZt5P0i+h02a6tbZUuJOaNJPNSaYCZAxSofiKjp36ZLPpoGX5jJEzAlLbbYDYbHnytt8SVDFE&#xA;1sPmdy9OtPIrTflL/haKWP6xLEaTsWWMzif1QxNOXHmP5enbObn2lWv8cg0Dy61w19zly0pGLw+v&#xA;4LAvJ8vnjS/rvk/yjJDeXcUzS6lqg+K1t2ICcImkABPw7kruei0Xkd7r46bLw6jUAxiRUY/xS671&#xA;+v3nenBwnJG4Q3PU9E28t2fmPylqmrXcdtP5r8x3YVL1rbktpC9eRElw4HOTcfCq7DMTV5MOqhCJ&#xA;IwYY8r+o+6I5DzvdsxRljJP1yPyQen/lR568y3tzJftZ+VbK9Ytc82lmkkq3KjcDcSsOVDxdwu1Q&#xA;OmbDF2posXDEzM+HkaO3yAHxAtplp8srNVa60/KP8zvI/wCYGj22kV1G01iWKCLWNNjaa2eB5lMq&#xA;Sl0/dMgTk4boN60zbZsODWYqNSgeR83GjKeKXcXrHnPWL/RvzV0z8v8ASNLm1W9vvRZ7tgYUSGY/&#xA;FItBJzSNVLO1QNiM5qXsoaNZPdt9+7njtIbel49/zkT+V1n5E13TnhnDT6yk9zcWwdpPTKuBzDMA&#xA;fjLttv0zo+zceohj4cxiSOXD3ebgZ5QMrjb0j8jvIHnPQfy9s/MflnSf03f+di1rq0dxNHZx2GmR&#xA;yyRF4y7hpJJh8asFbiP2T+1sGl7jb+QofLnkTy/5WsrB9cj094bOe69VLeeKKVj692nPmG4u3Ixc&#xA;vs9CaCuFruz8WpjwzHuPUNuLNLGbDG7zywG8w32gaTfw32qWEEVzc2YPCaOK4LCMsG+D9joGr0JA&#xA;5DOO1Psxngf3ZEx8j9u32u0x9oQP1bPGfN/5aQeS/wAuNO0v8yL/AIrNqUstjPYN6kxJ5M1Q6cyK&#xA;OzOeOxI36ZuMun1UdT42CAqUKqR/Rfk40Z4zj4ZnqreafJlxf6f5j0qTUEuNVt511LSLJTxubMrE&#xA;vBGBYuokC8V2A/a77aXT6s4MuOUoShGuCdjaW/u6c/scqeMTjIA31Hk88/M30/MPlDy751QD61Kn&#xA;1DU+I6ypyoSB0+JH+gjN52PeDUZdMfpHqj7vxX2uJqvXCOT4F5jnSOA7FXYq7FXYq7FXYq7FXYq7&#xA;FXYq7FXYq7FXYq7FVe2s7i5Wd4kLpbR+tOR+zHyVOW/+U4GQnkEavqaHvSIkvRfz6APni25EiA2M&#xA;AQjpw9ST7Pt16Zz/ALM/4se/jP3Bztf/AHg9yH17SYNY812Fr5biLXsLQpNc25BRYgsfpSFvsgrU&#xA;j6Mnps5xYJSzH0m9j372HJ1OOM8o8PmKsju2ovUPzT8meYNb8vadZaEwaWymEkkZk9It8JAYE0Wq&#xA;k13Oc12L2hiw5pSy8pDutu1uOWQenvQvk6zPkHyxd2N0iy6wLWXVrsqaoKERRRcv2um/0+OW6/J+&#xA;ezxlHbHxCA+8lGmx+FGjz3LKtU8wW+geV4L+YJJPMsUcEa8Y1murjcDbZeTksx7CpzW6bRS1Oo8O&#xA;Pf8AID8U25coxw4i8+1/8z/P/l2S4jng0vVba3uJIf0jaNIYXpIVHDdDx7KaZ2WX2OxCInxS4fh+&#xA;p0eLtzimYfxBluu/m3pnlexso9WEo1i5hjnuNMszyMTMtfjZigFDUDvnMaTsjNnlLwjWMH6jtfyd&#xA;vl1MYAcQ9Xc+hvyo8xnzH5D0zWP3hjulZoTN/ecORoG3bcdOudp2SMkcPDkNyiSL9zqdSYmVx5Fi&#xA;f5jfk5+X/wCZ/ne2uNS1tmvtAgSDUdFs5oTII3dpo/XA5Sxc+R7Co6eObNoeSf8AOUv5Z/mMdSs7&#xA;7QoLm98kWFpBBZ6XZcmSwMC8D/oyb0IAPqUPgSABirPf+cX/AM7R5w0iHyfqaTN5g0Wx9R7+Rg63&#xA;NvFKIgxP2g6LJGprXl1rirNfP/mf8uPy0Gq+b74W9p5j1mIIpo0lzeyW8QSFAgPLgvFQxHFRtU9M&#xA;VfMGpfnV+Zn5l6NBpV95S0zXvqlwLiK9a2nCxyAfDuJkiHXcPVWGxU5i6jW4cP8AeSEfv+XNshil&#xA;P6RaY2WtfnHpesap5hv/AChp2o3OtekdXMbf6Qwt1KR+j6c7iJgp/wB1oQf2gc0+p7S7P1UfDnL3&#xA;GiK9xrZyoYM2M8QDFbWSPUvy0872qW72y2moi9t7Wb+8gEkiExmoX7IRh/DKco8PW4JXxcUOG++g&#xA;d/tDKJ4sUx528mzqHXuxV2KuxV2KuxV2KuxV2KuxV2KuxV2KuxV2KuxV6V+Uek2+p6P5rtWH+lXl&#xA;rHZWjbUEkqTyKCT2LwLnOdu5zjyYZfwxkZH4cI/3znaOAlGQ6kV96p57kmvfyr8o6hqFW1NJJrcO&#xA;32jEhdBy+iJOuDs0CGuzQh9FA/Hb9ZTnN4YE82Q/8486UjWeo6ky9JhEp91QEfdzOa/2qz+qMPK/&#xA;x8nL7NFYye8/d/a9mzkHOea/mvqtjpHrzSEvd6lp8lhb2y7tI0jgq1P8hlH3060zouxMMstAfTCY&#xA;kT3f2tOonGEL/iNgDvtiGk/ll+Zt9Y2F3ezWk0FvERZ6bqEsrGNHAp8MaMobjtu22b+HtBotNmkY&#xA;wsnmQBR+0Opz6DNmgIylVee/3Jjp/l/TNM1nT7Pzvrlhbx2bCax8v2xf0BIacXndxt9kbHY+NNi9&#xA;odu6jV4CNPjlwcrr7h1/Q16TszFgnc5XPzQ2leXf8efnteW2kR2utQuvrI11KUtAsUMcbO9A7SrG&#xA;37Cj4iPCuW6HS5fyUMdnHLr3jc/K/sbM2SPjE/UH2l5O8t3ug6Tb2FxfrcpbxLFHb29vHa2sYX/f&#xA;Uf7yUf7KUj2GbfT4I4oCA5Dv5+ZPmTu4s5mRssHl/KLUdB/MjzJ+ZflqdL3VtUsjFa6DcM1vAblj&#xA;FzZ7hS/JWEJYKU+0eo6i5i9K0WfU7jSLKfVbVbHU5YI3vbNJBKsMzKC8YkGzBW2qMVeb+atY/Kn8&#xA;s7DzD57sdJt7bWo2OmzrBE1s11dycZ1gWoVG5EiSR0B2BO5FMVfMt9H+kJZvzH/NW4e6utQPPS9F&#xA;BpyTrGgjr8MagiiVpTdqk0znNX2hlz5Tg0vT6p93u/Hu73OxYIwjx5PgGKa/+cXmq/X6rpbLoemJ&#xA;8MFrZAIyqOgMoAb/AIHiPbMjS9g4Mfqn+8n1Mv1frthk1kzsPSPJj1j5z82WN2Lu21e7WcHkS0zu&#xA;Gp/OrllYf6wzPydn4Jx4TCNe5pjmmDYJer6p5103WPyk1bWTDFBrV76On6iEHH1JkYcW/wCRRZh9&#xA;3bOXw9nzxa+GOyccblHyH9v63YTziWEy/iOxeHZ2jqnYq7FXYq7FXYq7FXYq7FXYq7FXYq7FXYq7&#xA;FXYq9X/LKw1bTNJ1plh5T3Fnaa1phWpEwsZmdkB8ST6bD39xXlu2MuPJkhvsJSxy8uIc/wBIdhpY&#xA;yiD7gR8GQfnLaafqP5d6dq+kcfqMdwLlQuw4XfIsadj6jCo+eYHYGSePVyx5PqMa/wBL+xv1oEsQ&#xA;lHl+tkv5L6U2n+QrJnXjJeM9y3yc0T/hVGa/2gzeJqpf0dnJ0kOHGPmznNI5DyXzvqei23meTjbN&#xA;rPmGM+qypQR2kKLxiRpH+GMAEuf8pvlnU9nYcksA38PFy/rHrt17vcPe4/HGMztxz+749GW/l/Hb&#xA;azaRXOo/mBoOjs1TFokd1FLJGpBq0skjR8m6/Ag4gb1JzaS9n8c4gjmeZI/R+txz2l6zxD5H9KV6&#xA;F+TFj54803PnK3srzXPJ8d9Daq7yrbTao4kWGe4iDf3VnD4ci7BSAVNQu90mmGHGIA7B1ufL4kzK&#xA;qtmPkb8sPKX5f/nXq2o/4lGpanb2091ZeWbKAm7jtbigpIiEq/oxMOMUY5FaMFGwzJaWR+RP+cmP&#xA;I+teeNV8sXTT2Mk+pPBol5cMzwXCqFiUDkFaAyOhZUZafFSvLbFU8/5yI86+dvJfkNfMHlUQc7e7&#xA;iTUZJ09ThBLVFZVJA/vWRT88VZp5E1q/13yVoOtahCIL7UtPtru5iUUUSTRK7cQakCrbA9MVfMX5&#xA;oeZofzK/OZ9MaQN5O8krIZzWsU08ZHrO3YgyLw90QkfazT9t6w4cNR+ufpH4/G7laTEJz35Dd4N5&#xA;883XXmjzFcahISLVSYrGE7COBT8Ip4t1b3zI7N0MdNhEB9X8R7y16jMckrY7mwaXYqqi5uBbG1Ej&#xA;fVy4lMVfhLgFQ1PEAkZHgF8Vbps1SlkkOxV2KuxV2KuxV2KuxV2KuxV2KuxV2KuxV2KuxV7j+Vvn&#xA;i4s/JsRNubyz0V5ItTiiFbiGCZjLHcov7aA8ldetAD2NeL7a7OE9Qd+GWSjG+RI2MfI8iPfTtdLn&#xA;Ih3iPP8AWxvX3S41G38q6BqcV75S1m6W/hhiNZLYAs00NDRkUbuFYeH+VXYaUcMDnywMc+OPDvyl&#xA;3Hz7r/Y18PHMY4m4SN+7ve+6TapaaZa2yLwWKNVCDoNun0ZwuefFMnvLuZc9kXlTFi3lT8o4vMGs&#xA;Wmm6t8Gjo8uuecLjlw+sys9YrX1BRvTU8uXQcRtudu37EmM+Uy/hgBGPlEdffL9brNUDCFfzufmf&#xA;2fqT/wD5yU86aR5b0CD8vNAiTT7W5g+ta9HYIkPo6YjBFgUItEa6kKxg06ddmzrHVPJ/LHnv8zX8&#xA;0+XbO6v9ShsL6llpGgeX51tEtPgCQ/uHRoZlhU8ikp+Knxv1y/Lp5YwCeri4NXDLIiP8L3/yr50/&#xA;LCDWr7XPOF7o+mfmJpTNo2qX73CRG5jj4mO4to3f+7mjZW+EVXdSdsocp4B/zlLc/ltqPm+x1fyT&#xA;cpd6rdwPc65LYkPbEqwEU3JOkxo3OnbiepqVX0B55ttC83fll5b8oeYvN1lY6nq9rp1/d3DzKn1y&#xA;G3VJbmSIOY6q/EspP8MVR/5z/mxo3k/8rbjVdCvbee6vlOnaC9pIkkYmIKs6NGWWkCAt4cgB3xV8&#xA;nBT5R/KOV5Tx1nze4Cg/bFoB1PiCjH/kZnMk/m+0BX93g/3X9v8AuXP/ALvD/Sn934+95dnTOA7F&#xA;XYq7FXYq7FXYq7FXYq7FXYq7FXYq7FXYq7FXYq7FXYq7FXpf5H+YIdP1i90+sEd7qEaDT5riqoZU&#xA;JrCXXceqG991GxOc57R6U5McZ78MT6q7u/4fpc7Q5KkR1PJWtI0tvzcvjqNpb6O6IWW0icekXZEW&#xA;sbFY+XqBi/QZDITLs+PBKWTz69efPlycnS0NSeKo7Pb7rzV5etIvVur6K3i/nlJRfvYAZxkNFlma&#xA;jEk+TspjhFnYIQ+f/JY0yTUxrFs1nFUOwcFuQFeIj+2WPYAVOXR7K1JyCHBLiP458mg6jHV3sz3W&#xA;L0eXNGu7XR9MHmXW/MtpZpZ6C0TNDLAEJuWuWbjHFGySyf3jD5EZ3nZPZv5USF/Vw/YN/tt1Gp1P&#xA;iAeVvnv81oTY6HDLqV/a6r5785Xtpqt/BZ+rxg0wRN9Us0WSNeEfN12LV+FNiBXNzAWQ4OQgRNmt&#xA;mH6pbzWs+m6z5tjbVLCO6X61o1tL9WBiILGMTBXI5caMQK06N3GfrMeThEpnry7nV9n5cXGYYxtX&#xA;PqX0f5DtPK+i/nlodrpOgRaJp/mXylFex6VMkRnguo7iR1djVm5GFCCa1PfptrnbsR8z6VqGg/np&#xA;5+1PzTHJZ+U9b0q6spNYnjkNs8d7BFHbRxyBH5OJVVeK7rxJ6KcVYV518ieevNVl+XbRW1NIXyzb&#xA;IdYlBSxtIoXlaV7q4CsIxHFxZq70oACdsVS3QNJl80Jpo1W4EfkDyXBJFFOQyRTs0rXFwyBqN++l&#xA;arGgPDiv2s0va3aRxDwse+aewHd5/qcvTYOL1S+gMN/MHzjL5q8wSXoUxWEI9HT7c7cIV6Egbcm6&#xA;n7u2ZHZegGmxCPOR3kfNr1GbxJX06MZzZNDsVdirsVdirsVdirsVdirsVdirsVdirsVdirsVdirs&#xA;VdirsVbVmVgykqymqsNiCO4xItXqvnuyPnDytonnK0fk1tCtjrpALtCUO8rKtWKqzMT3oQc5jsuY&#xA;0uonpp7CR4oed/j7C7DUDxIDIOmxSbTvye80XfnOTytczQW8kFk+p/XgXuIJLBE9UT2ogWSScOpq&#xA;iovInagINOnp176A8v8A5Hfln5Kjt5NS0v8AxXfQX1p9c1rUbiOx0+K0m2luIITM0c8cDcUZZKlp&#xA;GCg12xVk+r6D5yHnjU9Av/MVzaWOoerqWha/LHBHPGXbk2lades49A+nBykVYXqgJIA3ZV80eejI&#xA;sN4lpNBqEdlcpcX+rWTu8VzdhuLN9cuBJdXnAN/eco4wxbglPiN0MMuHj6BxsmohxjGfql+N2vMH&#xA;luzfQbqdJbiaVIvWjeaaST7HxV4k8fsgjpm21Gmj4ZNk7XzLo9LrJDKAREC62ACN/wCcd9Ih84/m&#xA;5ptn5i9TVLRLa4aRJ5pSeMcTFByDBqB2Hw1pmjelfVvn38s/yY07ylPfa1pllpVhpjR3f6RWMLMs&#xA;kJPpKXWksoLNT0uXxE+OKvE/NPnV/Nvli1hvJX8sflLpUUNvYaeTxvNTjt1CRetwrRKRjjGnz32Y&#xA;aLX9qyE/A0448v2R/Hy+5zMOmFcc9o/e8Y89fmJLr0UekaVbjTPLVpQWtglFL8ejy8dq9+PQe53y&#xA;3s3soYCckzx5pc5fqY59Tx+kbRDDM3DiuxV2KuxV2KuxV2KuxV2KuxV2KuxV2KuxV2KuxV2KuxV2&#xA;KuxV2KuxVk3kXzzqPlTUjLCBPp9xRL+yfdJE8QD0cAmh+/bNd2l2bDVQo7TH0nu/Y34M5xny6vQ7&#xA;/wAteY7fVbHzb+XF3NPYLGz6RHbvGws3lP7+H0Zzx9Jwz1SnUkMuazQ9sjGPC1J4csOp6/j7ebkZ&#xA;tLxHix7xLO0n/OO20i10m11PQ7K0jijtrQxWhtZ1jRhN6SvCAy/ElWCtvvlY9qcX8yW3uT/J0u8J&#xA;H+YXmPzRHdaXL+Y+tzeZ9JuEvI4tI09Y7BfrawkQhlgCvNGztwk3BAP0HYdldrfnJSiImPDXnzaN&#xA;Tp/CAJLCYdNvk8qW+jiItczxenIx2SIOxZmY+Kg9BvXO2GOQwiFbkfJ46WaJ1ByX6QfmmmrCO30G&#xA;8X9iK1kUeNBGQMvy7Yz7nFwXLLHzkPvZr/zhR5OuJdb1vzfMhFrawDTLViDRppmWWUg/8Voig/6+&#xA;c09kjvz41qfz1+dGn+QlkJ8v+XUW61SFSeMk7IJHLUpWiPHEP5SzeOaztfWHT6eUx9XIe8/q5uRp&#xA;sXHMDo8D/MrzhL5j8wy+k3HSLEm3023XZBGhpzCjar0r8qDtkeyNANPiF/3kt5Hz/YupzccvIcmJ&#xA;ZtXHdirsVdirsVdirsVdirsVdirsVdirsVdirsVdirsVdirsVdirsVdirsVdiqYaXr+uaVy/RmoX&#xA;FkH3cQSvGGPT4gpAP05Rm0uLL9cYy94tnHJKPI0z78lbu81T8wkudSuZry4gtJ3iluJGlYMeKHdy&#xA;T9lzmi9occcWkqAEQZDkKczREyy2Teyfn8v/AD9eW3lTzN5etJPNOm6xbzSFI+PO0vn5SX0DMTRP&#xA;3sbshbrUr1pXo9DCGnnxRHQD5Ch9jqtbjOeHCTSO03yR531jzjZaK9nc+XNUuLG4n0+21aF47e8l&#xA;iMbtB6i8qH0g7cgCVIFRQ5tMuv8AUDH4h1mDsqoyjPryISbzjoPnhPMVn+X1zor2PmLWTCsMbyxS&#xA;o0UrlRIkkTOpSsbcmPQA1GDUa/jhwgVadL2WceTikbrk+yfJflfQfy58hWukxyrFp+j2zS31844h&#xA;2AMlxcP16mrew27ZrXcPj7TPMD3rfmP+ZTq0S6jJPFphfqDcSEov+w5QjOb7YPjajDgH87iPuH7L&#xA;c/S+mEp+VPFc6RwHYq7FXYq7FXYq7FXYq7FXYq7FXYq7FXYq7FXYq7FXYq7FXYq7FXYq7FXYq7FX&#xA;Yqm/lPzJeeW9etdXtQGe3b95EejxsOLofmp2PY75ia7SR1GI45dfvbMOUwkJB7DDasb2PzV5R1DV&#xA;rnytPOLy/wBC0K8+p3MF6oB9VYZEnjdgRUoY6+B45pdB2mcFafU+mUeUjyI9/wCn57uXm0/H68e4&#xA;7l+pfmPpHmLVbHT186eadEu7Gdbi0vNeFlNFa3KKVDu0HoSr8Lspop2PQ9D0kZCQsGw4JFMz8ja1&#xA;+W/k/wAz3X5gef8A8xLXzZ5skg9CzFislysKMOJ4cE2YrVQOKKoJ/mrhQkn5hfnF5w/OWV/K/lGy&#xA;l0nyeXH6Rv56CSZVIYesVJVF7iJWJbuadMDX9o4tNG5nfoOp/He3YcEshoPLvzK8xaTDYWXkry6/&#xA;PR9JPK5uQQRcXO/I1HUKWYk9CTtsBmv7I0mQylqc395PkO6P4+z3t+pyRAGOP0h57m/cJ2KuxV2K&#xA;uxV2KuxV2KuxV2KuxV2KuxV2KuxV2KuxV2KuxV2KuxV2KuxV2KuxV2KuxVMdE8w61od39b0m8ks5&#xA;9uRjPwsB0Dqaqw9mGY+o0uPNHhyREgzhklA3E0ziP87dTuY1i17RdO1hFFOU0VGPzr6ifcuaU+zs&#xA;Im8WSeP3H+z73L/PE/UBJv8A5Wj5KB5r5BsBJ1BMkZWv+r9XpT2x/kbU/wDKROvcf+KX81j/AJg/&#xA;HwSrzL+bHmbWbQ6dbiLSdKI4/U7JfTBX+Vm609hQe2ZWk7Ew4ZcZuc++TXl1c5ChsPJhWbhxXYq7&#xA;FXYq7FXYq7FXYq7FXYq7FXYq7FXYq7FXYq91/wChNvzc/wB/aV/0ky/9UcVd/wBCbfm5/v7Sv+km&#xA;X/qjirv+hNvzc/39pX/STL/1RxV3/Qm35uf7+0r/AKSZf+qOKu/6E2/Nz/f2lf8ASTL/ANUcVd/0&#xA;Jt+bn+/tK/6SZf8Aqjirv+hNvzc/39pX/STL/wBUcVd/0Jt+bn+/tK/6SZf+qOKu/wChNvzc/wB/&#xA;aV/0ky/9UcVd/wBCbfm5/v7Sv+kmX/qjirv+hNvzc/39pX/STL/1RxV3/Qm35uf7+0r/AKSZf+qO&#xA;Ku/6E2/Nz/f2lf8ASTL/ANUcVd/0Jt+bn+/tK/6SZf8Aqjirv+hNvzc/39pX/STL/wBUcVd/0Jt+&#xA;bn+/tK/6SZf+qOKu/wChNvzc/wB/aV/0ky/9UcVd/wBCbfm5/v7Sv+kmX/qjirv+hNvzc/39pX/S&#xA;TL/1RxV3/Qm35uf7+0r/AKSZf+qOKu/6E2/Nz/f2lf8ASTL/ANUcVd/0Jt+bn+/tK/6SZf8Aqjir&#xA;v+hNvzc/39pX/STL/wBUcVd/0Jt+bn+/tK/6SZf+qOKu/wChNvzc/wB/aV/0ky/9UcVd/wBCbfm5&#xA;/v7Sv+kmX/qjirv+hNvzc/39pX/STL/1RxV3/Qm35uf7+0r/AKSZf+qOKu/6E2/Nz/f2lf8ASTL/&#xA;ANUcVd/0Jt+bn+/tK/6SZf8Aqjirv+hNvzc/39pX/STL/wBUcVd/0Jt+bn+/tK/6SZf+qOKv/9k=</xmpGImg:image>
               </rdf:li>
            </rdf:Alt>
         </xmp:Thumbnails>
      </rdf:Description>
      <rdf:Description rdf:about=""
            xmlns:xmpMM="http://ns.adobe.com/xap/1.0/mm/"
            xmlns:stRef="http://ns.adobe.com/xap/1.0/sType/ResourceRef#"
            xmlns:stEvt="http://ns.adobe.com/xap/1.0/sType/ResourceEvent#">
         <xmpMM:OriginalDocumentID>uuid:9E3E5C9A8C81DB118734DB58FDDE4BA7</xmpMM:OriginalDocumentID>
         <xmpMM:DocumentID>xmp.did:833001420A20681180839B841010530F</xmpMM:DocumentID>
         <xmpMM:InstanceID>xmp.iid:833001420A20681180839B841010530F</xmpMM:InstanceID>
         <xmpMM:RenditionClass>proof:pdf</xmpMM:RenditionClass>
         <xmpMM:DerivedFrom rdf:parseType="Resource">
            <stRef:instanceID>uuid:44dd0de3-afbf-8343-94de-2b7b9bc10082</stRef:instanceID>
            <stRef:documentID>xmp.did:02801174072068118083D5C1685693F9</stRef:documentID>
            <stRef:originalDocumentID>uuid:9E3E5C9A8C81DB118734DB58FDDE4BA7</stRef:originalDocumentID>
            <stRef:renditionClass>proof:pdf</stRef:renditionClass>
         </xmpMM:DerivedFrom>
         <xmpMM:History>
            <rdf:Seq>
               <rdf:li rdf:parseType="Resource">
                  <stEvt:action>saved</stEvt:action>
                  <stEvt:instanceID>xmp.iid:02801174072068118083D5C1685693F9</stEvt:instanceID>
                  <stEvt:when>2013-07-30T20:39:06+12:00</stEvt:when>
                  <stEvt:softwareAgent>Adobe Illustrator CS6 (Macintosh)</stEvt:softwareAgent>
                  <stEvt:changed>/</stEvt:changed>
               </rdf:li>
               <rdf:li rdf:parseType="Resource">
                  <stEvt:action>saved</stEvt:action>
                  <stEvt:instanceID>xmp.iid:833001420A20681180839B841010530F</stEvt:instanceID>
                  <stEvt:when>2013-10-08T19:43:27+13:00</stEvt:when>
                  <stEvt:softwareAgent>Adobe Illustrator CS6 (Macintosh)</stEvt:softwareAgent>
                  <stEvt:changed>/</stEvt:changed>
               </rdf:li>
            </rdf:Seq>
         </xmpMM:History>
      </rdf:Description>
      <rdf:Description rdf:about=""
            xmlns:xmpTPg="http://ns.adobe.com/xap/1.0/t/pg/"
            xmlns:stDim="http://ns.adobe.com/xap/1.0/sType/Dimensions#"
            xmlns:xmpG="http://ns.adobe.com/xap/1.0/g/">
         <xmpTPg:NPages>1</xmpTPg:NPages>
         <xmpTPg:HasVisibleTransparency>False</xmpTPg:HasVisibleTransparency>
         <xmpTPg:HasVisibleOverprint>False</xmpTPg:HasVisibleOverprint>
         <xmpTPg:MaxPageSize rdf:parseType="Resource">
            <stDim:w>841.889648</stDim:w>
            <stDim:h>595.280273</stDim:h>
            <stDim:unit>Pixels</stDim:unit>
         </xmpTPg:MaxPageSize>
         <xmpTPg:PlateNames>
            <rdf:Seq>
               <rdf:li>Cyan</rdf:li>
               <rdf:li>Magenta</rdf:li>
               <rdf:li>Yellow</rdf:li>
               <rdf:li>Black</rdf:li>
            </rdf:Seq>
         </xmpTPg:PlateNames>
         <xmpTPg:SwatchGroups>
            <rdf:Seq>
               <rdf:li rdf:parseType="Resource">
                  <xmpG:groupName>Default Swatch Group</xmpG:groupName>
                  <xmpG:groupType>0</xmpG:groupType>
                  <xmpG:Colorants>
                     <rdf:Seq>
                        <rdf:li rdf:parseType="Resource">
                           <xmpG:swatchName>White</xmpG:swatchName>
                           <xmpG:mode>RGB</xmpG:mode>
                           <xmpG:type>PROCESS</xmpG:type>
                           <xmpG:red>255</xmpG:red>
                           <xmpG:green>255</xmpG:green>
                           <xmpG:blue>255</xmpG:blue>
                        </rdf:li>
                        <rdf:li rdf:parseType="Resource">
                           <xmpG:swatchName>Black</xmpG:swatchName>
                           <xmpG:mode>RGB</xmpG:mode>
                           <xmpG:type>PROCESS</xmpG:type>
                           <xmpG:red>0</xmpG:red>
                           <xmpG:green>0</xmpG:green>
                           <xmpG:blue>0</xmpG:blue>
                        </rdf:li>
                        <rdf:li rdf:parseType="Resource">
                           <xmpG:swatchName>RGB Red</xmpG:swatchName>
                           <xmpG:mode>RGB</xmpG:mode>
                           <xmpG:type>PROCESS</xmpG:type>
                           <xmpG:red>255</xmpG:red>
                           <xmpG:green>0</xmpG:green>
                           <xmpG:blue>0</xmpG:blue>
                        </rdf:li>
                        <rdf:li rdf:parseType="Resource">
                           <xmpG:swatchName>RGB Yellow</xmpG:swatchName>
                           <xmpG:mode>RGB</xmpG:mode>
                           <xmpG:type>PROCESS</xmpG:type>
                           <xmpG:red>255</xmpG:red>
                           <xmpG:green>255</xmpG:green>
                           <xmpG:blue>0</xmpG:blue>
                        </rdf:li>
                        <rdf:li rdf:parseType="Resource">
                           <xmpG:swatchName>RGB Green</xmpG:swatchName>
                           <xmpG:mode>RGB</xmpG:mode>
                           <xmpG:type>PROCESS</xmpG:type>
                           <xmpG:red>0</xmpG:red>
                           <xmpG:green>255</xmpG:green>
                           <xmpG:blue>0</xmpG:blue>
                        </rdf:li>
                        <rdf:li rdf:parseType="Resource">
                           <xmpG:swatchName>RGB Cyan</xmpG:swatchName>
                           <xmpG:mode>RGB</xmpG:mode>
                           <xmpG:type>PROCESS</xmpG:type>
                           <xmpG:red>0</xmpG:red>
                           <xmpG:green>255</xmpG:green>
                           <xmpG:blue>255</xmpG:blue>
                        </rdf:li>
                        <rdf:li rdf:parseType="Resource">
                           <xmpG:swatchName>RGB Blue</xmpG:swatchName>
                           <xmpG:mode>RGB</xmpG:mode>
                           <xmpG:type>PROCESS</xmpG:type>
                           <xmpG:red>0</xmpG:red>
                           <xmpG:green>0</xmpG:green>
                           <xmpG:blue>255</xmpG:blue>
                        </rdf:li>
                        <rdf:li rdf:parseType="Resource">
                           <xmpG:swatchName>RGB Magenta</xmpG:swatchName>
                           <xmpG:mode>RGB</xmpG:mode>
                           <xmpG:type>PROCESS</xmpG:type>
                           <xmpG:red>255</xmpG:red>
                           <xmpG:green>0</xmpG:green>
                           <xmpG:blue>255</xmpG:blue>
                        </rdf:li>
                        <rdf:li rdf:parseType="Resource">
                           <xmpG:swatchName>R=193 G=39 B=45</xmpG:swatchName>
                           <xmpG:mode>RGB</xmpG:mode>
                           <xmpG:type>PROCESS</xmpG:type>
                           <xmpG:red>193</xmpG:red>
                           <xmpG:green>39</xmpG:green>
                           <xmpG:blue>45</xmpG:blue>
                        </rdf:li>
                        <rdf:li rdf:parseType="Resource">
                           <xmpG:swatchName>R=237 G=28 B=36</xmpG:swatchName>
                           <xmpG:mode>RGB</xmpG:mode>
                           <xmpG:type>PROCESS</xmpG:type>
                           <xmpG:red>237</xmpG:red>
                           <xmpG:green>28</xmpG:green>
                           <xmpG:blue>36</xmpG:blue>
                        </rdf:li>
                        <rdf:li rdf:parseType="Resource">
                           <xmpG:swatchName>R=241 G=90 B=36</xmpG:swatchName>
                           <xmpG:mode>RGB</xmpG:mode>
                           <xmpG:type>PROCESS</xmpG:type>
                           <xmpG:red>241</xmpG:red>
                           <xmpG:green>90</xmpG:green>
                           <xmpG:blue>36</xmpG:blue>
                        </rdf:li>
                        <rdf:li rdf:parseType="Resource">
                           <xmpG:swatchName>R=247 G=147 B=30</xmpG:swatchName>
                           <xmpG:mode>RGB</xmpG:mode>
                           <xmpG:type>PROCESS</xmpG:type>
                           <xmpG:red>247</xmpG:red>
                           <xmpG:green>147</xmpG:green>
                           <xmpG:blue>30</xmpG:blue>
                        </rdf:li>
                        <rdf:li rdf:parseType="Resource">
                           <xmpG:swatchName>R=251 G=176 B=59</xmpG:swatchName>
                           <xmpG:mode>RGB</xmpG:mode>
                           <xmpG:type>PROCESS</xmpG:type>
                           <xmpG:red>251</xmpG:red>
                           <xmpG:green>176</xmpG:green>
                           <xmpG:blue>59</xmpG:blue>
                        </rdf:li>
                        <rdf:li rdf:parseType="Resource">
                           <xmpG:swatchName>R=252 G=238 B=33</xmpG:swatchName>
                           <xmpG:mode>RGB</xmpG:mode>
                           <xmpG:type>PROCESS</xmpG:type>
                           <xmpG:red>252</xmpG:red>
                           <xmpG:green>238</xmpG:green>
                           <xmpG:blue>33</xmpG:blue>
                        </rdf:li>
                        <rdf:li rdf:parseType="Resource">
                           <xmpG:swatchName>R=217 G=224 B=33</xmpG:swatchName>
                           <xmpG:mode>RGB</xmpG:mode>
                           <xmpG:type>PROCESS</xmpG:type>
                           <xmpG:red>217</xmpG:red>
                           <xmpG:green>224</xmpG:green>
                           <xmpG:blue>33</xmpG:blue>
                        </rdf:li>
                        <rdf:li rdf:parseType="Resource">
                           <xmpG:swatchName>R=140 G=198 B=63</xmpG:swatchName>
                           <xmpG:mode>RGB</xmpG:mode>
                           <xmpG:type>PROCESS</xmpG:type>
                           <xmpG:red>140</xmpG:red>
                           <xmpG:green>198</xmpG:green>
                           <xmpG:blue>63</xmpG:blue>
                        </rdf:li>
                        <rdf:li rdf:parseType="Resource">
                           <xmpG:swatchName>R=57 G=181 B=74</xmpG:swatchName>
                           <xmpG:mode>RGB</xmpG:mode>
                           <xmpG:type>PROCESS</xmpG:type>
                           <xmpG:red>57</xmpG:red>
                           <xmpG:green>181</xmpG:green>
                           <xmpG:blue>74</xmpG:blue>
                        </rdf:li>
                        <rdf:li rdf:parseType="Resource">
                           <xmpG:swatchName>R=0 G=146 B=69</xmpG:swatchName>
                           <xmpG:mode>RGB</xmpG:mode>
                           <xmpG:type>PROCESS</xmpG:type>
                           <xmpG:red>0</xmpG:red>
                           <xmpG:green>146</xmpG:green>
                           <xmpG:blue>69</xmpG:blue>
                        </rdf:li>
                        <rdf:li rdf:parseType="Resource">
                           <xmpG:swatchName>R=0 G=104 B=55</xmpG:swatchName>
                           <xmpG:mode>RGB</xmpG:mode>
                           <xmpG:type>PROCESS</xmpG:type>
                           <xmpG:red>0</xmpG:red>
                           <xmpG:green>104</xmpG:green>
                           <xmpG:blue>55</xmpG:blue>
                        </rdf:li>
                        <rdf:li rdf:parseType="Resource">
                           <xmpG:swatchName>R=34 G=181 B=115</xmpG:swatchName>
                           <xmpG:mode>RGB</xmpG:mode>
                           <xmpG:type>PROCESS</xmpG:type>
                           <xmpG:red>34</xmpG:red>
                           <xmpG:green>181</xmpG:green>
                           <xmpG:blue>115</xmpG:blue>
                        </rdf:li>
                        <rdf:li rdf:parseType="Resource">
                           <xmpG:swatchName>R=0 G=169 B=157</xmpG:swatchName>
                           <xmpG:mode>RGB</xmpG:mode>
                           <xmpG:type>PROCESS</xmpG:type>
                           <xmpG:red>0</xmpG:red>
                           <xmpG:green>169</xmpG:green>
                           <xmpG:blue>157</xmpG:blue>
                        </rdf:li>
                        <rdf:li rdf:parseType="Resource">
                           <xmpG:swatchName>R=41 G=171 B=226</xmpG:swatchName>
                           <xmpG:mode>RGB</xmpG:mode>
                           <xmpG:type>PROCESS</xmpG:type>
                           <xmpG:red>41</xmpG:red>
                           <xmpG:green>171</xmpG:green>
                           <xmpG:blue>226</xmpG:blue>
                        </rdf:li>
                        <rdf:li rdf:parseType="Resource">
                           <xmpG:swatchName>R=0 G=113 B=188</xmpG:swatchName>
                           <xmpG:mode>RGB</xmpG:mode>
                           <xmpG:type>PROCESS</xmpG:type>
                           <xmpG:red>0</xmpG:red>
                           <xmpG:green>113</xmpG:green>
                           <xmpG:blue>188</xmpG:blue>
                        </rdf:li>
                        <rdf:li rdf:parseType="Resource">
                           <xmpG:swatchName>R=46 G=49 B=146</xmpG:swatchName>
                           <xmpG:mode>RGB</xmpG:mode>
                           <xmpG:type>PROCESS</xmpG:type>
                           <xmpG:red>46</xmpG:red>
                           <xmpG:green>49</xmpG:green>
                           <xmpG:blue>146</xmpG:blue>
                        </rdf:li>
                        <rdf:li rdf:parseType="Resource">
                           <xmpG:swatchName>R=27 G=20 B=100</xmpG:swatchName>
                           <xmpG:mode>RGB</xmpG:mode>
                           <xmpG:type>PROCESS</xmpG:type>
                           <xmpG:red>27</xmpG:red>
                           <xmpG:green>20</xmpG:green>
                           <xmpG:blue>100</xmpG:blue>
                        </rdf:li>
                        <rdf:li rdf:parseType="Resource">
                           <xmpG:swatchName>R=102 G=45 B=145</xmpG:swatchName>
                           <xmpG:mode>RGB</xmpG:mode>
                           <xmpG:type>PROCESS</xmpG:type>
                           <xmpG:red>102</xmpG:red>
                           <xmpG:green>45</xmpG:green>
                           <xmpG:blue>145</xmpG:blue>
                        </rdf:li>
                        <rdf:li rdf:parseType="Resource">
                           <xmpG:swatchName>R=147 G=39 B=143</xmpG:swatchName>
                           <xmpG:mode>RGB</xmpG:mode>
                           <xmpG:type>PROCESS</xmpG:type>
                           <xmpG:red>147</xmpG:red>
                           <xmpG:green>39</xmpG:green>
                           <xmpG:blue>143</xmpG:blue>
                        </rdf:li>
                        <rdf:li rdf:parseType="Resource">
                           <xmpG:swatchName>R=158 G=0 B=93</xmpG:swatchName>
                           <xmpG:mode>RGB</xmpG:mode>
                           <xmpG:type>PROCESS</xmpG:type>
                           <xmpG:red>158</xmpG:red>
                           <xmpG:green>0</xmpG:green>
                           <xmpG:blue>93</xmpG:blue>
                        </rdf:li>
                        <rdf:li rdf:parseType="Resource">
                           <xmpG:swatchName>R=212 G=20 B=90</xmpG:swatchName>
                           <xmpG:mode>RGB</xmpG:mode>
                           <xmpG:type>PROCESS</xmpG:type>
                           <xmpG:red>212</xmpG:red>
                           <xmpG:green>20</xmpG:green>
                           <xmpG:blue>90</xmpG:blue>
                        </rdf:li>
                        <rdf:li rdf:parseType="Resource">
                           <xmpG:swatchName>R=237 G=30 B=121</xmpG:swatchName>
                           <xmpG:mode>RGB</xmpG:mode>
                           <xmpG:type>PROCESS</xmpG:type>
                           <xmpG:red>237</xmpG:red>
                           <xmpG:green>30</xmpG:green>
                           <xmpG:blue>121</xmpG:blue>
                        </rdf:li>
                        <rdf:li rdf:parseType="Resource">
                           <xmpG:swatchName>R=199 G=178 B=153</xmpG:swatchName>
                           <xmpG:mode>RGB</xmpG:mode>
                           <xmpG:type>PROCESS</xmpG:type>
                           <xmpG:red>199</xmpG:red>
                           <xmpG:green>178</xmpG:green>
                           <xmpG:blue>153</xmpG:blue>
                        </rdf:li>
                        <rdf:li rdf:parseType="Resource">
                           <xmpG:swatchName>R=153 G=134 B=117</xmpG:swatchName>
                           <xmpG:mode>RGB</xmpG:mode>
                           <xmpG:type>PROCESS</xmpG:type>
                           <xmpG:red>153</xmpG:red>
                           <xmpG:green>134</xmpG:green>
                           <xmpG:blue>117</xmpG:blue>
                        </rdf:li>
                        <rdf:li rdf:parseType="Resource">
                           <xmpG:swatchName>R=115 G=99 B=87</xmpG:swatchName>
                           <xmpG:mode>RGB</xmpG:mode>
                           <xmpG:type>PROCESS</xmpG:type>
                           <xmpG:red>115</xmpG:red>
                           <xmpG:green>99</xmpG:green>
                           <xmpG:blue>87</xmpG:blue>
                        </rdf:li>
                        <rdf:li rdf:parseType="Resource">
                           <xmpG:swatchName>R=83 G=71 B=65</xmpG:swatchName>
                           <xmpG:mode>RGB</xmpG:mode>
                           <xmpG:type>PROCESS</xmpG:type>
                           <xmpG:red>83</xmpG:red>
                           <xmpG:green>71</xmpG:green>
                           <xmpG:blue>65</xmpG:blue>
                        </rdf:li>
                        <rdf:li rdf:parseType="Resource">
                           <xmpG:swatchName>R=198 G=156 B=109</xmpG:swatchName>
                           <xmpG:mode>RGB</xmpG:mode>
                           <xmpG:type>PROCESS</xmpG:type>
                           <xmpG:red>198</xmpG:red>
                           <xmpG:green>156</xmpG:green>
                           <xmpG:blue>109</xmpG:blue>
                        </rdf:li>
                        <rdf:li rdf:parseType="Resource">
                           <xmpG:swatchName>R=166 G=124 B=82</xmpG:swatchName>
                           <xmpG:mode>RGB</xmpG:mode>
                           <xmpG:type>PROCESS</xmpG:type>
                           <xmpG:red>166</xmpG:red>
                           <xmpG:green>124</xmpG:green>
                           <xmpG:blue>82</xmpG:blue>
                        </rdf:li>
                        <rdf:li rdf:parseType="Resource">
                           <xmpG:swatchName>R=140 G=98 B=57</xmpG:swatchName>
                           <xmpG:mode>RGB</xmpG:mode>
                           <xmpG:type>PROCESS</xmpG:type>
                           <xmpG:red>140</xmpG:red>
                           <xmpG:green>98</xmpG:green>
                           <xmpG:blue>57</xmpG:blue>
                        </rdf:li>
                        <rdf:li rdf:parseType="Resource">
                           <xmpG:swatchName>R=117 G=76 B=36</xmpG:swatchName>
                           <xmpG:mode>RGB</xmpG:mode>
                           <xmpG:type>PROCESS</xmpG:type>
                           <xmpG:red>117</xmpG:red>
                           <xmpG:green>76</xmpG:green>
                           <xmpG:blue>36</xmpG:blue>
                        </rdf:li>
                        <rdf:li rdf:parseType="Resource">
                           <xmpG:swatchName>R=96 G=56 B=19</xmpG:swatchName>
                           <xmpG:mode>RGB</xmpG:mode>
                           <xmpG:type>PROCESS</xmpG:type>
                           <xmpG:red>96</xmpG:red>
                           <xmpG:green>56</xmpG:green>
                           <xmpG:blue>19</xmpG:blue>
                        </rdf:li>
                        <rdf:li rdf:parseType="Resource">
                           <xmpG:swatchName>R=66 G=33 B=11</xmpG:swatchName>
                           <xmpG:mode>RGB</xmpG:mode>
                           <xmpG:type>PROCESS</xmpG:type>
                           <xmpG:red>66</xmpG:red>
                           <xmpG:green>33</xmpG:green>
                           <xmpG:blue>11</xmpG:blue>
                        </rdf:li>
                     </rdf:Seq>
                  </xmpG:Colorants>
               </rdf:li>
               <rdf:li rdf:parseType="Resource">
                  <xmpG:groupName>Cold</xmpG:groupName>
                  <xmpG:groupType>1</xmpG:groupType>
                  <xmpG:Colorants>
                     <rdf:Seq>
                        <rdf:li rdf:parseType="Resource">
                           <xmpG:swatchName>C=56 M=0 Y=20 K=0</xmpG:swatchName>
                           <xmpG:mode>RGB</xmpG:mode>
                           <xmpG:type>PROCESS</xmpG:type>
                           <xmpG:red>101</xmpG:red>
                           <xmpG:green>200</xmpG:green>
                           <xmpG:blue>208</xmpG:blue>
                        </rdf:li>
                        <rdf:li rdf:parseType="Resource">
                           <xmpG:swatchName>C=51 M=43 Y=0 K=0</xmpG:swatchName>
                           <xmpG:mode>RGB</xmpG:mode>
                           <xmpG:type>PROCESS</xmpG:type>
                           <xmpG:red>131</xmpG:red>
                           <xmpG:green>139</xmpG:green>
                           <xmpG:blue>197</xmpG:blue>
                        </rdf:li>
                        <rdf:li rdf:parseType="Resource">
                           <xmpG:swatchName>C=26 M=41 Y=0 K=0</xmpG:swatchName>
                           <xmpG:mode>RGB</xmpG:mode>
                           <xmpG:type>PROCESS</xmpG:type>
                           <xmpG:red>186</xmpG:red>
                           <xmpG:green>155</xmpG:green>
                           <xmpG:blue>201</xmpG:blue>
                        </rdf:li>
                     </rdf:Seq>
                  </xmpG:Colorants>
               </rdf:li>
               <rdf:li rdf:parseType="Resource">
                  <xmpG:groupName>Grays</xmpG:groupName>
                  <xmpG:groupType>1</xmpG:groupType>
                  <xmpG:Colorants>
                     <rdf:Seq>
                        <rdf:li rdf:parseType="Resource">
                           <xmpG:swatchName>R=0 G=0 B=0</xmpG:swatchName>
                           <xmpG:mode>RGB</xmpG:mode>
                           <xmpG:type>PROCESS</xmpG:type>
                           <xmpG:red>0</xmpG:red>
                           <xmpG:green>0</xmpG:green>
                           <xmpG:blue>0</xmpG:blue>
                        </rdf:li>
                        <rdf:li rdf:parseType="Resource">
                           <xmpG:swatchName>R=26 G=26 B=26</xmpG:swatchName>
                           <xmpG:mode>RGB</xmpG:mode>
                           <xmpG:type>PROCESS</xmpG:type>
                           <xmpG:red>26</xmpG:red>
                           <xmpG:green>26</xmpG:green>
                           <xmpG:blue>26</xmpG:blue>
                        </rdf:li>
                        <rdf:li rdf:parseType="Resource">
                           <xmpG:swatchName>R=51 G=51 B=51</xmpG:swatchName>
                           <xmpG:mode>RGB</xmpG:mode>
                           <xmpG:type>PROCESS</xmpG:type>
                           <xmpG:red>51</xmpG:red>
                           <xmpG:green>51</xmpG:green>
                           <xmpG:blue>51</xmpG:blue>
                        </rdf:li>
                        <rdf:li rdf:parseType="Resource">
                           <xmpG:swatchName>R=77 G=77 B=77</xmpG:swatchName>
                           <xmpG:mode>RGB</xmpG:mode>
                           <xmpG:type>PROCESS</xmpG:type>
                           <xmpG:red>77</xmpG:red>
                           <xmpG:green>77</xmpG:green>
                           <xmpG:blue>77</xmpG:blue>
                        </rdf:li>
                        <rdf:li rdf:parseType="Resource">
                           <xmpG:swatchName>R=102 G=102 B=102</xmpG:swatchName>
                           <xmpG:mode>RGB</xmpG:mode>
                           <xmpG:type>PROCESS</xmpG:type>
                           <xmpG:red>102</xmpG:red>
                           <xmpG:green>102</xmpG:green>
                           <xmpG:blue>102</xmpG:blue>
                        </rdf:li>
                        <rdf:li rdf:parseType="Resource">
                           <xmpG:swatchName>R=128 G=128 B=128</xmpG:swatchName>
                           <xmpG:mode>RGB</xmpG:mode>
                           <xmpG:type>PROCESS</xmpG:type>
                           <xmpG:red>128</xmpG:red>
                           <xmpG:green>128</xmpG:green>
                           <xmpG:blue>128</xmpG:blue>
                        </rdf:li>
                        <rdf:li rdf:parseType="Resource">
                           <xmpG:swatchName>R=153 G=153 B=153</xmpG:swatchName>
                           <xmpG:mode>RGB</xmpG:mode>
                           <xmpG:type>PROCESS</xmpG:type>
                           <xmpG:red>153</xmpG:red>
                           <xmpG:green>153</xmpG:green>
                           <xmpG:blue>153</xmpG:blue>
                        </rdf:li>
                        <rdf:li rdf:parseType="Resource">
                           <xmpG:swatchName>R=179 G=179 B=179</xmpG:swatchName>
                           <xmpG:mode>RGB</xmpG:mode>
                           <xmpG:type>PROCESS</xmpG:type>
                           <xmpG:red>179</xmpG:red>
                           <xmpG:green>179</xmpG:green>
                           <xmpG:blue>179</xmpG:blue>
                        </rdf:li>
                        <rdf:li rdf:parseType="Resource">
                           <xmpG:swatchName>R=204 G=204 B=204</xmpG:swatchName>
                           <xmpG:mode>RGB</xmpG:mode>
                           <xmpG:type>PROCESS</xmpG:type>
                           <xmpG:red>204</xmpG:red>
                           <xmpG:green>204</xmpG:green>
                           <xmpG:blue>204</xmpG:blue>
                        </rdf:li>
                        <rdf:li rdf:parseType="Resource">
                           <xmpG:swatchName>R=230 G=230 B=230</xmpG:swatchName>
                           <xmpG:mode>RGB</xmpG:mode>
                           <xmpG:type>PROCESS</xmpG:type>
                           <xmpG:red>230</xmpG:red>
                           <xmpG:green>230</xmpG:green>
                           <xmpG:blue>230</xmpG:blue>
                        </rdf:li>
                        <rdf:li rdf:parseType="Resource">
                           <xmpG:swatchName>R=242 G=242 B=242</xmpG:swatchName>
                           <xmpG:mode>RGB</xmpG:mode>
                           <xmpG:type>PROCESS</xmpG:type>
                           <xmpG:red>242</xmpG:red>
                           <xmpG:green>242</xmpG:green>
                           <xmpG:blue>242</xmpG:blue>
                        </rdf:li>
                     </rdf:Seq>
                  </xmpG:Colorants>
               </rdf:li>
            </rdf:Seq>
         </xmpTPg:SwatchGroups>
      </rdf:Description>
      <rdf:Description rdf:about=""
            xmlns:pdf="http://ns.adobe.com/pdf/1.3/">
         <pdf:Producer>Adobe PDF library 10.01</pdf:Producer>
      </rdf:Description>
      <rdf:Description rdf:about=""
            xmlns:xmpRights="http://ns.adobe.com/xap/1.0/rights/">
         <xmpRights:Marked>True</xmpRights:Marked>
         <xmpRights:WebStatement rdf:resource="http://www.ospreydawn.com"/>
         <xmpRights:UsageTerms>
            <rdf:Alt>
               <rdf:li xml:lang="x-default">This work is licensed under a &lt;a rel="license" href="http://creativecommons.org/licenses/by-nc-sa/3.0/"&gt;Creative Commons Attribution-NonCommercial-ShareAlike 3.0 Unported License&lt;/a&gt;.</rdf:li>
               <rdf:li xml:lang="en_us">This work is licensed under a &lt;a rel="license" href="http://creativecommons.org/licenses/by-nc-sa/3.0/"&gt;Creative Commons Attribution-NonCommercial-ShareAlike 3.0 Unported License&lt;/a&gt;.</rdf:li>
               <rdf:li xml:lang="en">This work is licensed under a &lt;a rel="license" href="http://creativecommons.org/licenses/by-nc-sa/3.0/"&gt;Creative Commons Attribution-NonCommercial-ShareAlike 3.0 Unported License&lt;/a&gt;.</rdf:li>
            </rdf:Alt>
         </xmpRights:UsageTerms>
      </rdf:Description>
      <rdf:Description rdf:about=""
            xmlns:cc="http://creativecommons.org/ns#">
         <cc:attributionName>Max O'Brien / Osprey Dawn</cc:attributionName>
         <cc:license rdf:resource="http://creativecommons.org/licenses/by-nc-sa/3.0/"/>
      </rdf:Description>
   </rdf:RDF>
</x:xmpmeta>
                                                                                                    
                                                                                                    
                                                                                                    
                                                                                                    
                                                                                                    
                                                                                                    
                                                                                                    
                                                                                                    
                                                                                                    
                                                                                                    
                                                                                                    
                                                                                                    
                                                                                                    
                                                                                                    
                                                                                                    
                                                                                                    
                                                                                                    
                                                                                                    
                                                                                                    
                                                                                                    
                           
<?xpacket end="w"?>
	</metadata>
<g id="Layer_1">
	<rect width="841.89" height="595.28"/>
	<g>
		<g>
			<path fill-rule="evenodd" clip-rule="evenodd" fill="#D2A300" d="M458.184,21.628c0.021,6.922,0.046,13.845,0.065,20.767
				c0.006,2.089,0.002,4.178,0.002,6.331c-0.937,1.223-1.882,2.459-2.821,3.686c-1.178,0.16-2.276,0.109-3.599,0.031
				c-2.883-5.336-5.804-10.745-8.726-16.154c-0.106,0.029-0.213,0.059-0.32,0.089c0,5.267,0,10.535,0,15.999
				c-2.321,0.26-4.505,0.058-6.815,0.146c0-9.132,0-18.115,0-27.295c0.921-1.103,1.964-2.353,3.007-3.601c1.437,0,2.874,0,4.312,0
				c-0.098,0.718,0.414,1.207,0.696,1.77c2.407,4.804,4.834,9.599,7.255,14.396c0.094-0.02,0.187-0.039,0.28-0.058
				c0-5.37,0-10.739,0-16.108C453.74,21.628,455.961,21.628,458.184,21.628z"/>
			<path fill-rule="evenodd" clip-rule="evenodd" fill="#D2A300" d="M424.473,21.628c0.627,1.613,2.001,2.682,3.03,4.199
				c0,7.284,0,14.713,0,22.28c-1.083,1.387-2.239,2.867-3.386,4.335c-4.602,0-9.094,0-13.733,0
				c-1.118-1.415-2.283-2.888-3.423-4.331c0-7.323,0-14.562,0-21.902c0.569-1.234,1.619-2.242,2.439-3.409
				c0.252-0.36,0.698-0.627,0.569-1.173C414.804,21.628,419.639,21.628,424.473,21.628z M414.01,46.214
				c2.239,0.133,4.269,0.223,6.39-0.047c0-6.149,0-12.105,0-18.247c-2.195-0.053-4.235-0.146-6.39,0.063
				C414.01,34.083,414.01,39.991,414.01,46.214z"/>
			<path fill-rule="evenodd" clip-rule="evenodd" fill="#D2A300" d="M310.799,21.628c0.582,3.394,1.144,6.791,1.748,10.18
				c1.209,6.77,2.441,13.536,3.661,20.286c-1.459,0.524-5.38,0.575-7.229,0.1c-0.558-2.94-1.124-5.924-1.722-9.074
				c-1.705,0-3.307,0-5.204,0c1.395-2.255,3.062-3.9,4.406-5.803c-0.637-3.195-0.885-6.438-1.636-9.558
				c-0.703-0.334-1.058-0.128-1.174,0.541c-0.223,1.28-0.474,2.556-0.661,3.842c-0.955,6.564-1.894,13.131-2.847,19.695
				c-0.026,0.181-0.153,0.347-0.271,0.601c-2.438,0-4.884,0-7.482,0c0.299-1.862,0.552-3.584,0.853-5.298
				c1.418-8.064,2.846-16.127,4.278-24.188c0.08-0.448,0.228-0.883,0.344-1.324C302.175,21.628,306.487,21.628,310.799,21.628z"/>
			<path fill-rule="evenodd" clip-rule="evenodd" fill="#D2A300" d="M395.858,21.628c0.751,0.9,1.503,1.799,2.231,2.671
				c0,2.667,0,5.257,0,8.076c-2.054-0.709-3.739-1.823-5.62-2.617c-0.068-0.583-0.135-1.148-0.212-1.797c-2.185,0-4.307,0-6.521,0
				c-0.269,1.088-0.136,2.117-0.125,3.319c4.267,2.237,8.575,4.497,12.915,6.772c0,3.324,0,6.578,0,10.087
				c-0.898,1.379-2.076,2.842-3.383,4.284c-4.496,0-8.99,0-13.595,0c-1.062-1.306-2.17-2.666-3.321-4.081c0-2.435,0-4.899,0-7.577
				c2.162,1.081,4.147,2.142,6.103,3.389c0.047,0.634,0.094,1.278,0.149,2.043c2.265,0,4.51,0,6.805,0
				c0.521-1.263,0.215-2.498,0.279-3.866c-4.274-2.253-8.576-4.52-12.894-6.795c0-3.589,0-7.106,0-10.605
				c1.039-1.116,2.058-2.21,3.077-3.304C386.45,21.628,391.154,21.628,395.858,21.628z"/>
			<path fill-rule="evenodd" clip-rule="evenodd" fill="#D2A300" d="M489.934,21.628c-0.029,3.006-0.841,5.899-1.328,8.835
				c-1.062,6.404-2.244,12.788-3.381,19.179c-0.159,0.894-0.334,1.784-0.523,2.796c-4.206,0-8.413,0-12.696,0
				c-0.803-1.834-0.87-3.804-1.227-5.692c-1.479-7.844-2.87-15.705-4.279-23.562c-0.092-0.507-0.06-1.036-0.084-1.556
				c2.352,0,4.704,0,7.056,0c1.039,6.149,2.079,12.298,3.119,18.448c0.344,2.041,0.688,4.081,1.024,6.084
				c0.506,0.154,0.868,0.304,1.266-0.119c1.194-8.088,2.4-16.251,3.606-24.414C484.968,21.628,487.451,21.628,489.934,21.628z"/>
			<path fill-rule="evenodd" clip-rule="evenodd" fill="#D2A300" d="M578.521,21.628c0,2.006,0,4.012,0,6.176
				c-3.759,0-7.256,0-10.878,0c-0.358,1.996-0.107,3.858-0.194,5.899c3.129,0,6.162,0,9.55,0c-1.724,2.153-3.216,4.015-4.746,5.925
				c-1.541,0-3.028,0-4.653,0c0,2.22,0,4.321,0,6.59c3.564,0,7.067,0,10.7,0c0,2.085,0,4.008,0,5.926
				c-1.332,0.443-15.271,0.561-17.677,0.156c-0.303-0.399-0.195-0.87-0.196-1.313c-0.005-9.528-0.005-19.054-0.001-28.582
				c0-0.259,0.041-0.519,0.064-0.778C566.5,21.628,572.51,21.628,578.521,21.628z"/>
			<path fill-rule="evenodd" clip-rule="evenodd" fill="#D2A300" d="M336.669,21.628c1.657,1.364,3.314,2.728,5.009,4.123
				c0,1.937,0,3.882,0,5.961c-1.958,0.364-3.887,0.088-5.831,0.182c-0.525-1.289-0.073-2.556-0.356-3.744
				c-1.896-0.474-3.979-0.397-5.257,0.193c-0.592,2.613-0.346,16.533,0.36,17.89c1.561,0,3.166,0,4.924,0c0-1.352,0-2.632,0-4.066
				c2.064,0,3.987,0,6.064,0c0,1.893,0,3.883,0,6.099c-0.956,1.346-2.135,2.809-3.375,4.188c-3.939,0-7.783,0-11.626,0
				c-1.389-1.162-2.404-2.611-3.628-4c0-7.501,0-15.067,0-22.652c0.775-1.582,2.466-2.496,3.133-4.173
				C329.613,21.628,333.142,21.628,336.669,21.628z"/>
			<path fill-rule="evenodd" clip-rule="evenodd" fill="#D2A300" d="M285.32,21.628c-0.029,2.997-0.077,5.994-0.083,8.991
				c-0.014,6.062-0.005,12.125-0.005,18.224c-1.046,1.343-2.292,2.475-3.525,3.619c-4.215,0-8.382,0-12.644,0
				c-1.195-0.91-2.193-2.113-3.282-3.165c-0.22-0.897-0.117-1.741-0.083-2.79c2.072-2.593,4.242-5.307,6.654-8.325
				c0.242,2.954-0.083,5.48,0.229,8.014c1.915,0.186,3.585,0.174,5.14,0.043c0.774-0.668,0.531-1.436,0.531-2.122
				c-0.006-6.781-0.036-13.562-0.053-20.343c-0.002-0.716,0.042-1.431,0.064-2.147C280.616,21.628,282.968,21.628,285.32,21.628z"/>
			<path fill-rule="evenodd" clip-rule="evenodd" fill="#D2A300" d="M520.508,21.628c0,8.136,0,16.271,0,24.584
				c3.384,0,6.616,0,9.975,0c0,2.098,0,4.019,0,6.256c-5.588,0.084-11.153,0.016-17.03,0.043c0-10.356,0-20.62,0-30.883
				C515.804,21.628,518.156,21.628,520.508,21.628z"/>
			<path fill-rule="evenodd" clip-rule="evenodd" fill="#D2A300" d="M544.026,21.628c0,8.138,0,16.276,0,24.609
				c3.323,0,6.484,0,9.754,0c0,2.12,0,4.048,0,6.125c-5.565,0-11.123,0-16.637,0c-0.337-0.476-0.235-0.944-0.235-1.389
				c-0.006-9.521-0.005-19.044-0.001-28.566c0-0.259,0.042-0.518,0.063-0.778C539.322,21.628,541.675,21.628,544.026,21.628z"/>
			<path fill-rule="evenodd" clip-rule="evenodd" fill="#D2A300" d="M370.771,21.628c0.268,1.091-0.324,2.025-0.604,2.999
				c-0.645,2.248-1.436,4.452-2.088,6.698c-0.566,1.946-1.137,3.869-2.771,5.38c1.583,1.456,2.167,3.303,2.734,5.181
				c0.921,3.046,1.906,6.074,2.878,9.106c0.14,0.436,0.351,0.847,0.096,1.408c-2.275,0-4.59,0-7.02,0
				c-0.958-3.023-1.979-5.961-2.807-8.954c-0.689-2.489-1.618-4.796-3.518-6.522c0.048-0.229,0.033-0.383,0.103-0.454
				c1.867-1.92,2.858-4.274,3.546-6.824c0.725-2.693,1.59-5.347,2.395-8.019C366.067,21.628,368.419,21.628,370.771,21.628z"/>
			<path fill-rule="evenodd" clip-rule="evenodd" fill="#D2A300" d="M504.437,21.628c0,10.162,0,20.324,0,30.772
				c-2.348,0.183-4.565,0.142-7.055,0.009c0-10.362,0-20.571,0-30.781C499.733,21.628,502.085,21.628,504.437,21.628z"/>
			<path fill-rule="evenodd" clip-rule="evenodd" fill="#D2A300" d="M356.66,21.628c0.022,6.07,0.049,12.14,0.065,18.21
				c0.01,3.525,0.012,7.05-0.007,10.576c-0.004,0.633,0.171,1.3-0.26,2.008c-2.07,0.136-4.191,0.136-6.224,0.002
				c-0.414-0.509-0.301-0.981-0.301-1.423c-0.006-9.532-0.005-19.064-0.002-28.595c0-0.26,0.042-0.52,0.063-0.779
				C352.218,21.628,354.439,21.628,356.66,21.628z"/>
		</g>
		<g>
			<path fill-rule="evenodd" clip-rule="evenodd" fill="#FFFFFF" d="M625.559,150.981c-1.224,0.802-1.862,2.11-2.745,3.202
				c-1.76,2.177-3.45,4.408-5.229,6.695c-11.406-2.28-22.771-4.553-34.13-6.824c-2.037-2.514-4.049-4.996-6.157-7.597
				c0-7.443,0-15.005,0-22.979c5.184,3.557,10.146,6.965,15.219,10.446c0,2.245,0,4.516,0,6.957
				c5.324,1.046,10.543,2.07,15.655,3.074c0.639-0.247,0.96-0.64,1.236-1.085c0-2.947,0-5.884,0-8.988
				c-10.341-7.803-20.744-15.654-31.14-23.498c0-7.917,0-15.751,0-23.771c2.549-3.188,5.192-6.496,7.952-9.948
				c10.027,1.535,20.068,3.072,30.262,4.632c2.679,3.328,5.413,6.729,8.153,10.134c0,6.752,0,13.472,0,20.559
				c-5.192-3.568-10.207-7.016-15.302-10.517c0-1.846,0-3.661,0-5.619c-4.646-0.783-9.184-1.548-13.6-2.292
				c-0.602,0.382-0.888,0.812-1.19,1.305c0,2.501,0,5.043,0,7.555c0.156,0.432,0.52,0.612,0.825,0.845
				c9.678,7.327,19.355,14.654,29.039,21.973c0.351,0.264,0.631,0.679,1.151,0.653C625.559,134.257,625.559,142.619,625.559,150.981
				z"/>
			<path fill-rule="evenodd" clip-rule="evenodd" fill="#FFFFFF" d="M216.331,142.358c0.866-0.287,1.194-1.116,1.699-1.745
				c4.417-5.493,8.803-11.014,13.215-16.513c0.307-0.382,0.507-0.915,1.208-1.097c0,2.201,0,4.342,0,6.483
				c0,4.05,0.008,8.1-0.007,12.148c-0.003,0.877-0.026,1.728,1.355,2.301c3.502-0.654,7.392-1.381,11.205-2.094
				c0.688-0.351,0.987-0.949,1.438-1.52c0-20.448,0-40.942,0-61.616c5.348-0.945,10.654-1.883,16.086-2.842
				c0,23.235,0,46.337,0,69.704c-2.539,3.078-5.232,6.343-7.871,9.54c-10.165,1.923-20.211,3.825-30.401,5.753
				c-2.067-2.578-4.126-5.178-6.229-7.743c-0.511-0.624-0.832-1.458-1.698-1.744C216.331,148.368,216.331,145.363,216.331,142.358z"
				/>
			<path fill-rule="evenodd" clip-rule="evenodd" fill="#FFFFFF" d="M547.655,107.116c0.754-0.89,1.465-1.729,2.207-2.607
				c0-4.934,0-9.894,0-14.884c-0.159-0.487-0.565-0.822-1.012-1.367c-4.165-0.36-8.439-0.728-12.898-1.113
				c0,20.337,0,40.61,0,61.194c-5.604-0.604-10.999-1.184-16.505-1.776c0-25.042,0-50.018,0-75.18
				c12.955,0.935,25.869,1.868,38.871,2.807c2.61,3.299,5.236,6.619,7.896,9.981c0,8.726,0,17.469,0,26.279
				c-2.171,2.712-4.37,5.461-6.583,8.226c-0.74,0.045-1.442,0.089-2.408,0.148c4.695,11.048,9.332,21.952,14.108,33.188
				c-5.738-0.57-11.155-1.107-16.642-1.652c-5.609-14.703-11.185-29.315-16.833-44.118
				C541.289,106.263,544.352,107.035,547.655,107.116z"/>
			<path fill-rule="evenodd" clip-rule="evenodd" fill="#FFFFFF" d="M290.37,149.669c-5.848,0.636-11.449,1.463-17.379,2.343
				c1.233-8.765,2.813-17.315,4.168-25.899c1.371-8.687,2.843-17.357,4.288-26.033c1.436-8.611,2.891-17.22,4.383-26.092
				c10.487-0.987,20.979-2.457,31.783-3.077c4.288,24.999,8.556,49.885,12.864,75c-5.896,0.561-11.699,1.111-17.65,1.678
				c-1.295-8.177-2.575-16.256-3.872-24.442c-4.415,0.576-8.665,1.131-12.915,1.686c-0.083-0.104-0.167-0.207-0.25-0.31
				c3.584-4.485,7.168-8.971,10.868-13.602c-1.111-7.764-2.235-15.618-3.377-23.591c-1.135,0.075-2.147,0.143-3.328,0.22
				C296.761,108.243,293.575,128.894,290.37,149.669z"/>
			<path fill-rule="evenodd" clip-rule="evenodd" fill="#FFFFFF" d="M396.729,69.234c5.474,0,10.859,0,16.354,0
				c0,19.139,0,38.191,0,56.904c0.257,0.866,0.706,1.171,1.056,1.646c4.722,0,9.481,0,14.303,0c0.41-0.223,0.755-0.604,1.142-1.157
				c0-19.009,0-38.134,0-57.369c5.481,0,10.866,0,16.376,0c0,21.01,0,42.009,0,63.134c-2.558,3.224-5.192,6.543-7.916,9.977
				c-11.02,0-22.108,0-33.371,0c-2.603-3.328-5.288-6.764-7.942-10.158C396.729,111.203,396.729,90.259,396.729,69.234z"/>
			<path fill-rule="evenodd" clip-rule="evenodd" fill="#FFFFFF" d="M472.616,143.642c-5.72-0.205-11.247-0.404-17.057-0.613
				c4.205-24.535,8.384-48.917,12.599-73.512c10.21,0.587,20.393,1.172,30.645,1.763c4.172,24.917,8.319,49.695,12.509,74.719
				c-5.772-0.403-11.278-0.787-16.837-1.175c-1.574-8.228-3.126-16.338-4.705-24.593c-3.674-0.349-7.297-0.694-11.239-1.069
				c3.248-4.067,6.385-7.992,9.623-12.047c-0.997-7.346-2.004-14.762-3.031-22.33c-1.049-0.05-2.064-0.098-3.23-0.153
				C478.799,104.31,475.726,123.862,472.616,143.642z"/>
			<path fill-rule="evenodd" clip-rule="evenodd" fill="#FFFFFF" d="M384.888,92.076c-4.683,0-9.167,0-13.812,0
				c0-2.71,0-5.419,0-8.387c-5.213,0.054-10.26,0.402-15.181,0.3c-0.664,0.36-1.058,0.786-1.401,1.332c0,14.325,0,28.691,0,42.979
				c0.518,1.061,1.371,1.18,2.339,1.128c4.558-0.246,9.116-0.472,13.806-0.71c0-4.423,0-8.815,0-13.308c-3.469,0-6.964,0-10.919,0
				c3.34-4.154,6.458-8.033,9.516-11.837c5.302,0,10.447,0,15.692,0c0,9.58,0,19.089,0,28.78c-2.848,3.529-5.791,7.18-8.714,10.802
				c-10.068,0.499-20.03,0.995-30.149,1.497c-2.664-3.284-5.37-6.621-8.074-9.954c0-18.205,0-36.359,0-54.584
				c2.566-3.225,5.164-6.49,7.746-9.735c10.568-0.284,21.062-0.567,31.596-0.851c2.546,3.271,5.068,6.512,7.557,9.71
				C384.888,83.496,384.888,87.671,384.888,92.076z"/>
		</g>
	</g>
</g>
<g id="Layer_2">
	<g>
		<path fill="#D2A300" d="M234.015,445.551c0.626,1.321,1.508,2.584,2.701,3.699c0.381,0.517,1.05,1.63,1.696,2.811
			c0.447,3.784,2.103,10.662,7.946,18.723c5.45,7.518,11.248,12.429,14.253,14.711c2.124,3.687,6.749,10.75,12.771,14.362
			c3.678,2.207,8.116,3.375,12.832,3.375c3.553,0,6.207-0.661,6.703-0.794l12.271-3.272l-0.809-1.21
			c0.685,0.009,1.39,0.013,2.117,0.013c1.513,0,2.949-0.036,4.31-0.104c-1.824,4.359-4.262,11.897-4.08,20.762
			c0.182,8.979,3.398,15.143,7.127,18.739c0.729,2.058,1.993,4.428,4.179,6.615c2.364,2.363,5.271,4.31,6.898,5.319
			c4.222,4.014,17.655,13.67,50.764,15.973c1.731,0.122,3.465,0.185,5.154,0.185c16.738-0.002,31.665-6.049,43.166-17.484
			c10.989-10.929,15.927-23.552,17.893-30.102c0.979-3.27,1.74-6.652,2.477-9.925c2.998-13.333,6.098-27.119,25.497-41.021
			c30.335-21.741,42.539-43.189,52.397-70.748c9.619-26.89,26.427-43.015,52.895-50.741c4.529-1.323,8.854-1.993,12.853-1.993
			c14.169,0,20.648,8.464,21.279,9.341c0,0,7.218,8.482,8.811,20.083c0,0,5.985-6.158,7.884-24.915
			c1.014-51.19-29.036-84.222-48.92-106.081c-17.763-19.526-44.744-36.103-54.6-41.83c-4.472-19.063-15.147-28.641-33.318-30.039
			c-0.752-0.058-1.533-0.087-2.316-0.087c-14.119,0-30.665,9.703-37.278,13.985c-4.596-0.267-13.684-0.702-24.02-0.702
			c-7.422,0-14.188,0.228-20.113,0.678c-19.643,1.495-38.886,7.001-58.833,16.834c-14.662,7.229-32.617,13.513-46.62,18.18
			c-0.005,0.002-0.426,0.138-1.468,0.138c-6.697,0-19.337-4.973-27.7-8.263c-7.829-3.08-12.075-4.703-15.527-5.037
			c-0.49-0.047-0.982-0.072-1.462-0.072c-4.294,0-8.171,1.954-10.637,5.36c-2.797,3.862-5.714,11.438,1.214,32.536
			c3.28,9.993,9.557,16.658,14.898,20.786c-8.082,13.824-18.378,35.684-20.647,47.439c-1.639,8.498-4.536,28.993,3.634,37.044
			c0.776,1.357,1.916,6.648,0.82,15.413c-0.594,4.759-0.466,8.812,0,12.266c-10.168-8.877-13.035-41.39-13.035-41.39
			c-12.965,25.475-1.965,62.348-1.965,62.348c-8.562-3.841-12.137-12.763-12.137-12.763s-2.223,22.075,14.47,42.882
			c-3.325-0.12-7.418-4.667-7.418-4.667S224.541,438.851,234.015,445.551z"/>
		<g>
			<path fill="#B26200" d="M267.22,224.945c0,0,1.668,12.888,13.951,18.499c12.283,5.611-6.217,37.152-6.217,37.152l5.914-0.76
				c0,0-3.639,6.522-4.396,15.771c-0.759,9.249,0.303,24.262,0.303,24.262l7.733-5.761c0,0,8.948-5.611,10.918-11.677
				c0,0,1.518,13.344-5.761,28.203c-7.279,14.861-12.283,24.264-15.468,36.772c-3.184,12.51-6.823,39.806-8.871,44.81
				c-2.047,5.005-5.914,26.84-1.365,28.888c4.549,2.046,13.647-0.454,17.288,0.227c3.639,0.684,4.927,2.578,8.188,1.819
				c3.261-0.757,5.687,0.684,5.687,0.684l-8.416,5.913l-28.887-2.047l-9.781-3.64l1.592-12.511l10.008-32.525l10.69-55.045
				l-10.008-5.459l-0.228-23.656l3.185-29.569l11.6-19.105l2.275-11.146l-20.471-23.428l-1.138-12.283l14.103,3.412L267.22,224.945z
				"/>
			<path fill="#B26200" d="M323.327,442.241c0,0,2.074-6.241,2.402-11.649s1.178-13.77,4.27-18.066l0.38-6.449
				c0,0-0.114-3.184,1.364-6.597c1.479-3.41-2.161-4.89-2.161-4.89l-4.549-1.023l-4.55,2.729c0,0,2.048-5.346,6.028-9.667
				c3.98-4.321,2.388-15.012,2.388-15.012s-8.871-31.542,1.251-41.132l-0.683,8.49l1.479,11.715c0,0,0.91,4.323,7.279,7.165
				l0.455-1.706c0,0-3.071-8.188-2.73-17.514c0.341-9.325,7.848-14.898,7.848-14.898l-1.82,11.94c0,0-0.568,6.483,5.573,8.189
				c6.141,1.707,8.075,0.682,9.895-0.796c1.819-1.479,1.819,0.342,1.819,0.342l-8.643,9.438l-8.302,11.373
				c0,0,1.251,2.957,3.07,3.867c1.82,0.91,4.094,4.436,4.094,4.436s2.274,3.525,16.149,1.817
				c13.875-1.704,25.703-9.097,31.958-10.349c6.255-1.25,13.875-0.796,17.97-3.638c4.094-2.844,10.691,2.842,10.691,2.842
				l-43.787,19.676l-39.804,21.154l-11.601,35.254l-3.866,3.642L323.327,442.241z"/>
		</g>
		<path fill="#FFFFFF" d="M316.201,439.058c0,0,5.079-4.14,4.397-12.19c0,0,3.866,10.371,2.729,15.374c0,0,5.459-5.457,5.914-16.147
			s8.871-22.975,14.558-27.752c5.686-4.775,3.185-17.968,3.185-17.968s12.51,6.369,27.067,0
			c14.557-6.369,17.969-11.372,30.479-14.784c12.51-3.413,21.608-12.738,24.11-24.793c2.502-12.056,1.138-23.656-9.78-24.566
			c-10.918-0.909-8.416,3.186-18.652-4.095c-10.235-7.278-22.973-4.092-22.973-4.092l6.824-5.688l21.38-2.502l13.647,1.138
			c0,0,18.652,7.278,31.389,6.143c12.737-1.139,22.063-9.1,21.382-20.471c-0.684-11.374-7.28-19.106-7.28-19.106
			s8.644,3.866,10.918,8.415c0,0-3.184-10.463-14.102-17.969c-10.918-7.505-38.895-18.196-41.852-27.067s6.825-12.511,6.825-12.511
			l21.835-19.789l18.196-8.871l16.377-3.867l11.601,3.184l12.51,5.687l3.412,22.519l0.455,20.016l-5.232,21.836l-4.776,11.372
			c0,0-1.818,5.916,3.184,12.284c5.006,6.368,13.421,13.42,23.202,18.879c9.78,5.46,23.429,8.87,33.664,9.554
			c0,0-3.867-2.048-6.825-4.778c0,0,29.571,4.778,42.763,14.104c13.192,9.325,14.331,14.557,14.331,14.557l-15.014-5.686
			l-32.98,4.548l-18.197,8.645l-28.66,34.573l-14.556,30.252l-15.013,25.473l-14.33,19.107l-18.652,12.738L438.647,480
			l-5.231,18.878l-12.737,30.706l-12.055,12.738l-21.608,9.099l-19.334-0.91l-21.381-5.459l-13.647-4.548l-7.961-7.279
			l-5.458-10.008l-2.047-10.235l2.957-10.009l5.459,7.05l4.094,2.275v-7.733l2.958-6.367l1.592-3.413l-6.596-12.738l-12.738,3.414
			l-17.514-0.229l-12.738-2.729l1.365,6.823l0.228,1.821h-6.369l-5.914-6.597l-4.549-5.688l-8.188-6.823L256,454.07l12.055,3.867
			l19.562-2.275l17.968-7.506L316.201,439.058z"/>
		<g>
			<polygon fill="#08709B" points="366.088,333.365 360.175,344.284 354.413,350.501 358.355,354.291 373.216,355.506 
				386.105,348.984 389.441,340.34 389.441,334.277 378.524,329.272 370.941,329.272 			"/>
			<path fill="#08709B" d="M343.949,473.633c0,0-1.06,7.125-1.06,8.186c0,1.062-0.304,9.403-0.304,9.403l-6.065,5.307l-6.824,5.006
				l1.365,10.157l13.951,7.13l8.946,0.756l3.336-0.908l-0.758-7.584l-0.606-5.913l3.639,3.641l7.885,5.307l9.402,3.333l9.553-4.094
				l8.491-14.1l0.152-17.742l0.606-13.497l-3.791-13.797l-4.852-16.984l-2.578-17.137l0.151-9.098l-1.365-2.426l-7.582-1.971
				l-8.036,5.307l-3.943,13.646l-1.668,13.951l0.607,11.678l1.365,8.49l-4.701-2.123l-4.549,4.702l-6.823,8.036L343.949,473.633z"/>
		</g>
		<g>
			<path d="M325.374,415.403c0,0,3.412-2.958,4.321-7.507c0.91-4.548,5.232-11.601,11.601-15.238
				c6.369-3.64,22.746,0.454,28.205-0.91c0,0-5.687,2.046-11.828,2.272c-6.142,0.228-15.922,2.049-20.926,9.099
				C331.743,410.17,329.014,414.266,325.374,415.403z"/>
			<path d="M317.186,413.128c0,0-0.91-13.873,6.597-21.609c7.505-7.731,13.192-7.277,24.11-11.372
				c10.918-4.094,12.51-6.369,12.51-6.369s-4.095,7.505-12.737,11.146C339.021,388.564,324.919,390.608,317.186,413.128z"/>
			<path d="M330.151,330.485c0,0-3.489,4.853-2.579,12.586c0.911,7.734,5.004,10.615,5.004,10.615s-2.881-6.978-2.425-11.069
				C330.605,338.521,330.151,330.485,330.151,330.485z"/>
			<path d="M386.105,326.467c-6.596,0-13.42,0.456-13.42,0.456c0.456-1.14,2.729-3.186,2.729-3.186
				c-9.098,0.227-15.922,18.196-18.652,20.699c-2.729,2.502-6.824,6.594-12.055,0.681c-5.231-5.912-0.91-21.38-0.91-21.38
				c-5.004,6.596-4.094,16.378-3.64,25.247c0.455,8.871-5.687,12.282-12.282,18.879c-6.597,6.596-7.052,16.15-7.052,16.15
				c5.687-13.876,12.738-14.557,12.738-14.557c-0.682,1.364-0.227,5.458-0.227,5.458s3.639-7.733,13.647-14.33
				c10.008-6.596,18.651,1.365,31.162-3.64c12.51-5.004,15.922-16.148,17.059-19.562c1.137-3.411,2.729-6.369,3.185-7.733
				C398.843,328.285,392.701,326.467,386.105,326.467z M388.076,339.13c-0.303,1.517-1.971,9.097-13.04,12.584
				c-11.071,3.487-18.045-1.517-18.045-1.517c4.549-3.106,7.165-7.126,9.553-11.903c2.389-4.775,4.852-6.596,4.852-6.596
				s5.308,0.758,9.402,2.274C384.892,335.49,388.379,337.611,388.076,339.13z"/>
			<path d="M464.642,243.567c0,0,13.012,12.741,19.015,27.02c0,0-2.951-16.083-9.299-26.758c0,0,13.253-2.601,18.295-2.339
				c0,0-7.568-3.695-18.277-4.11c0,0,6.963-7.322,12.87-11.4c0,0-11.008,2.537-14.863,4.49c0,0,6.137-20.559,10.073-26.715
				c0,0-14.485,16.998-17.172,22.939c0,0-3.816-6.274-8.613-9.801c0,0,3.651,9.043,3.896,11.418c0,0-7.628-5.942-14.321-7.369
				c0,0,8.994,7.318,9.895,9.743c0,0-7.588-1.714-21.886-2.35c0,0,16.201,3.971,21.464,6.451c0,0-4.262-0.396-7.419-0.014
				c0,0,8.627,1.418,10.012,1.986l-3.723,1.769l5.138-1.045l-1.075,4.054l3.179-1.192c0,0,1.354,4.12,1.207,6.079
				C462.89,248.381,464.642,243.567,464.642,243.567z"/>
			<path d="M570.346,247.994c-20.82-22.888-55.954-42.08-55.954-42.08c-3.185-18.197-11.146-25.703-25.931-26.84
				s-36.393,14.102-36.393,14.102s-25.021-1.82-45.947-0.228c-20.926,1.593-39.35,7.961-55.5,15.922
				c-16.15,7.961-36.166,14.785-47.766,18.652c-11.6,3.867-41.397-12.055-48.449-12.737c-7.051-0.683-6.369,10.69-1.365,25.93
				s18.879,20.699,18.879,20.699c-7.507,10.462-21.836,39.123-24.338,52.087c-2.501,12.966-2.274,25.704,1.137,28.89
				c3.412,3.184,4.777,12.053,3.412,22.972c-1.365,10.918,1.819,16.831,3.185,21.835c1.365,5.005,0.455,11.601-0.683,12.966
				c-1.137,1.364-2.729,6.142-2.729,6.142s-6.141-4.777-12.965-17.062c-6.823-12.281-10.463-30.706-10.463-30.706
				s1.137,16.605,6.142,30.706c5.003,14.105,14.784,25.25,14.784,25.25c-0.909,1.819-1.592,4.548-1.592,4.548
				c-15.466-3.864-25.475-16.603-25.475-16.603c2.502,12.282,22.519,24.109,22.519,24.109c-1.138,4.323-2.048,7.507-2.048,7.507
				c-6.596,0.682-13.192-2.05-13.192-2.05c4.549,4.55,12.283,6.825,12.283,6.825s-0.455,2.502,1.137,3.867
				c1.592,1.364,4.322,6.823,4.322,6.823s-0.228,6.823,6.368,15.924c6.596,9.097,13.875,13.874,13.875,13.874
				s4.777,9.324,10.463,12.736c5.687,3.413,12.51,1.594,12.51,1.594c-1.819-2.731-2.956-7.279-2.956-7.279s3.639,2.502,18.879,2.502
				c15.239,0,20.243-4.094,20.243-4.094c3.185,3.41,5.004,9.553,5.004,9.553c-0.683,2.502-2.729,4.777-4.094,7.961
				c-1.365,3.184,0.682,7.507,0.682,7.507c-5.231-2.959-7.733-11.374-7.733-11.374s-5.005,8.869-4.777,20.016
				c0.228,11.145,6.142,13.647,6.142,13.647s0,2.958,2.501,5.458c2.503,2.505,6.142,4.549,6.142,4.549s9.781,11.601,45.719,14.104
				c35.938,2.503,52.088-25.021,56.864-40.944c4.776-15.922,4.096-36.165,31.389-55.725c27.296-19.562,39.123-38.439,49.131-66.417
				c10.009-27.977,27.751-47.312,58.913-56.41c31.161-9.097,44.278,11.069,44.278,11.069
				C617.809,301.824,591.727,271.497,570.346,247.994z M267.373,473.859c-5.687-4.55-8.189-13.192-8.189-13.192
				s7.052,7.051,10.236,6.141c0,0,6.369,8.188,6.369,10.235C275.789,479.089,270.898,476.679,267.373,473.859z M276.926,484.55
				c2.957,1.138,6.141,1.138,6.141,1.138c0,1.819,0.91,4.092,0.91,4.092C280.564,489.553,276.926,484.55,276.926,484.55z
				 M331.516,483.412c4.776-1.366,9.781-5.458,9.781-5.458c1.592,10.233-4.777,15.011-4.777,15.011
				C335.837,488.643,331.516,483.412,331.516,483.412z M346.983,472.722c7.506-4.094,12.51-12.055,12.51-12.055
				s1.644,3.816,3.185,9.097c1.592,5.461,3.867,12.282-0.683,18.653c-4.549,6.367-9.325,6.367-9.325,6.367
				c10.008,0.229,14.102-6.367,15.922-11.828c2.672-8.017-2.503-28.886-3.64-36.165c-1.137-7.279,1.82-29.798,7.505-34.346
				c5.688-4.549,10.463-1.819,10.463-1.819c-1.592,28.886,8.872,50.723,9.553,64.825c0.683,14.102-1.819,26.156-3.184,30.707
				c-1.365,4.55-5.687,10.461-14.103,9.781c-8.416-0.686-19.106-13.648-19.106-13.648c-3.184,6.596-0.455,15.238-0.455,15.238
				c-10.008,0.684-22.063-5.231-22.973-9.553c-0.91-4.321-0.152-5.154,8.416-11.828
				C350.627,488.704,346.983,472.722,346.983,472.722z M387.772,434.207c0,0,2.882-6.978,6.977-8.797c0,0-5.004-4.244-6.824-5.608
				c0,0,3.033-4.854,6.065-7.734c0,0-5.156-3.791-9.705-5.004c0,0,0.91-3.792,5.307-4.854c0,0,9.553,5.007,13.647,21.685
				c4.094,16.681,1.062,29.116,1.062,29.116s-6.369,0.301-10.767-4.399c0,0,3.639-8.187,5.914-10.613
				C399.45,437.997,394.142,434.813,387.772,434.207z M378.826,525.036c-0.682,2.958-6.141,10.236-13.192,6.367
				c-7.051-3.865-7.96-22.517-7.96-22.517c2.274,4.095,12.055,10.236,15.467,10.236
				C376.552,519.123,379.509,522.078,378.826,525.036z M319.915,519.349c-1.365-4.773,0.91-13.418,0.91-13.418
				c6.369,16.147,16.604,18.651,16.604,18.651s0.456,3.638-5.914,5.002C325.146,530.949,321.28,524.126,319.915,519.349z
				 M569.892,326.087c-27.295,7.128-45.492,22.443-65.508,63.386c-20.018,40.942-30.479,56.105-47.008,68.844
				c-16.528,12.737-26.992,18.5-32.149,48.977c-5.155,30.481-39.425,48.98-69.146,38.215c0,0,5.156-1.82,7.884-1.212
				c0,0-0.757-1.819-5.003-2.275c-4.246-0.454-23.201,2.275-27.295-5.461c0,0,6.066-2.427,16.227-0.756
				c10.159,1.667,14.557,1.667,17.134,3.638c2.578,1.973,8.341,3.035,14.255-0.757c5.914-3.792,6.823-10.767,12.888-20.624
				c6.066-9.856,17.439-27.294,19.41-41.698c1.971-14.405,3.942-38.214-5.913-58.231c-9.857-20.016-17.439-21.683-28.206-17.893
				c-10.767,3.792-19.561,20.016-19.258,41.396c0.303,21.383-17.741,33.816-29.114,37.608c-11.373,3.79-41.852,5.609-46.098-2.125
				c-4.246-7.731-3.942-11.069,0-13.495c3.942-2.427,14.86-4.396,18.955-10.463c0,0,6.672,1.213,10.918-2.273
				c4.246-3.489,4.549-8.342,3.336-11.829c0,0-10.161,9.099-14.709,7.127c-4.549-1.971-5.004-3.638-8.795-3.79
				c-3.791-0.153-12.889,6.216-23.201,5.762c-10.312-0.455-16.529-5.005-16.529-5.005s0.607-23.35,8.795-40.336
				c8.188-16.982,10.614-37.604,11.221-43.368c0.606-5.761,2.275-17.893,5.61-21.38c3.336-3.488-0.605-8.038-0.605-8.038
				s0.151,1.366-1.365,3.642c-1.517,2.273-3.185,6.215-3.185,6.215s-0.607-5.156-0.152-7.277c0.455-2.123-0.758-5.61-0.758-5.61
				s-0.151,4.397-1.213,6.219c-1.062,1.816-0.303,6.215-1.214,7.123c-0.91,0.911-5.155,1.821-7.126-2.729
				c-1.971-4.549-1.667-10.159,0.455-14.708c2.123-4.55,1.365-7.733,1.365-10.613c0-2.881,1.213-17.592,10.159-31.693
				c8.946-14.103,7.734-28.206,6.369-31.845c0,0-5.308-1.819-11.07-7.278c-5.762-5.459-10.767-17.591-10.767-17.591
				s7.583,0.455,13.951,3.488c6.369,3.033,18.803,4.398,23.807,3.943c0,0-0.757,2.123-2.729,2.577
				c-1.972,0.455-3.791,0.91-5.459,1.668c0,0,4.246-0.456,7.431-0.303c3.184,0.152,14.254-1.516,36.545-10.008
				c22.291-8.493,53.832-23.505,104.782-22.594c0,0-6.673,7.734-14.861,11.373c-8.188,3.639-8.643,5.003-11.979,4.246
				c0,0,1.364,3.792,8.34,3.488c6.975-0.304,44.733-28.205,56.409-30.024c11.678-1.82,26.081-2.275,30.632,18.045
				c4.549,20.319-1.819,55.348-11.373,68.691c0,0,11.981-13.496,16.984-29.872c5.005-16.377,4.852-28.963,4.852-28.963
				s16.833,7.582,36.848,25.021c20.017,17.438,37.759,38.668,45.34,53.831c7.582,15.165,9.401,24.717,11.222,34.726
				C610.227,333.215,597.186,318.962,569.892,326.087z"/>
			<path d="M324.691,445.427c0,0,15.467-8.415,21.154-17.06c8.255-12.549,14.102-26.84,26.84-41.853
				c13.84-16.311,39.805-33.663,63.46-37.303c0,0-38.846,13.427-61.186,42.761C352.441,421.544,359.493,438.148,324.691,445.427z"/>
			<path fill="#FFFFFF" d="M350.508,449.862l10.122-6.027c0,0-2.047,6.255-6.482,9.553S350.508,449.862,350.508,449.862z"/>
			<path fill="#FFFFFF" d="M351.759,458.392l-2.047,3.525c0,0,7.961-3.979,15.353-5.913c7.392-1.934-1.478-1.252-1.478-1.252
				L351.759,458.392z"/>
			<path d="M320.598,460.895c0,0,16.832-2.503,38.44-21.61c21.608-19.105,57.091-26.156,86.206-19.332
				c0,0-42.762-4.321-74.833,19.105C336.725,463.665,327.194,459.757,320.598,460.895z"/>
			<path d="M339.931,464.307c0,0,5.699-11.106,36.166-13.876c32.526-2.958,46.856,0.228,75.743-5.004c0,0-22.083,6.429-40.26,7.279
				C387.242,453.842,361.084,453.16,339.931,464.307z"/>
			<path d="M278.973,299.172c0,0-1.137-3.412-3.867-1.364c-2.729,2.045-6.824,12.282-5.459,18.195
				c1.365,5.915,6.824,6.369,8.188,12.738s1.364,8.87,2.957,8.87c1.593,0,4.322-0.455,5.004-2.501
				c0.683-2.048,1.82-9.101,3.184-11.601c1.365-2.502-0.909-4.321-2.956-5.459c-2.048-1.138,0.455-7.507-4.776-8.642
				C276.016,308.27,277.153,303.039,278.973,299.172z"/>
			<path d="M285.114,294.168c0,0-4.776,5.459-4.094,10.008c0.683,4.55,10.463,1.592,12.282-0.91
				c1.82-2.503,3.867-8.871,3.185-11.827c-0.683-2.957-1.138-8.644,4.549-12.057c5.687-3.411,11.146-6.368,11.146-10.69
				c0-4.321-11.828-1.135-13.647,5.687c-1.82,6.824-1.82,3.184-5.004,8.189c-3.185,5.005-2.73,7.96-4.55,8.871
				C287.161,292.348,285.114,294.168,285.114,294.168z"/>
			<path d="M266.463,298.489c0,0,3.411-9.781,10.69-15.467c7.278-5.686,11.145-8.188,13.875-13.875
				c2.73-5.686,0.683-7.051,2.274-10.007c1.592-2.958-2.274-7.506-6.823-2.729c-4.549,4.777-7.734,6.823-7.734,6.823l-5.231,9.099
				l-9.326,22.063L266.463,298.489z"/>
			<path d="M306.04,247.311c0,0-3.412-0.91-5.687,3.867c-2.274,4.777-0.227,7.278,1.82,7.052c2.047-0.229,6.142-1.593,7.279-4.55
				C310.589,250.723,309.907,247.54,306.04,247.311z"/>
			<path d="M317.413,228.66c0,0-9.098,8.416-10.917,11.828c-1.821,3.412,0.91,4.776,4.093,2.957
				c3.185-1.819,7.279-8.643,12.283-8.871c5.004-0.228,5.914,1.82,11.6-1.819c5.687-3.64,9.326-9.781,10.236-12.965
				c0.91-3.185-16.377,5.004-16.377,5.004L317.413,228.66z"/>
			<path d="M350.167,217.515c0,0-2.957,6.596-2.047,8.416c0.91,1.819,4.777,2.502,7.278-0.228c2.502-2.73,6.369-11.828,12.511-15.24
				l-11.601,3.185L350.167,217.515z"/>
			<path d="M384.286,206.824c0,0-7.506,8.416-12.51,12.055c-5.004,3.64-8.644,10.235-7.051,12.283
				c1.592,2.047,8.871,0.228,11.145,1.137c2.275,0.91,6.141-2.729,7.506-5.004c1.364-2.274,1.137-6.142-1.365-6.142
				c-2.501,0,1.365-7.051,5.459-10.235c4.095-3.185,18.424-7.506,18.424-7.506l-12.283,0.91L384.286,206.824z"/>
			<path d="M327.876,239.805c0,0-8.417,7.051-11.601,11.828c-3.185,4.777-5.232,10.69-0.228,12.509
				c5.004,1.82,8.188-1.364,12.283-5.458c4.094-4.095,13.42-15.013,8.871-18.653C332.653,236.394,327.876,239.805,327.876,239.805z"
				/>
			<path d="M352.214,240.032c0,0-5.914,0.911-7.279,5.004c-1.364,4.094-2.957,10.009-4.549,12.056
				c-1.592,2.048-5.004,7.961-1.365,9.326c3.64,1.365,7.961,0.229,13.419-5.458c5.46-5.687,15.012-20.927,9.554-23.883
				C356.536,234.118,354.716,239.123,352.214,240.032z"/>
			<path d="M397.478,210.009c0,0-5.913,1.592-9.098,7.733s-0.91,9.554,3.866,9.781c4.777,0.227,9.326-3.867,10.008-9.781
				C402.937,211.828,400.89,212.283,397.478,210.009z"/>
			<path d="M321.734,279.382c0,0-5.458,3.868-8.643,6.597c-3.184,2.729-5.231,5.46-2.957,10.236
				c2.275,4.776,0.682,4.776,1.365,7.278s7.506,3.867,11.828-0.454c4.322-4.322,3.867-7.507,1.365-11.373
				c-2.501-3.868-1.819-4.549-0.228-5.46c1.592-0.91,5.687-4.321,5.687-7.733C330.151,275.061,325.829,274.378,321.734,279.382z"/>
			<path d="M346.3,269.602c0,0-5.914,2.958-5.004,7.735c0.909,4.776,2.047,4.776,5.914,5.003s7.506-4.777,8.416-8.188
				C356.536,270.74,350.622,266.646,346.3,269.602z"/>
			<path d="M372.913,258.001c0,0-5.004,0.909-5.688,6.141c-0.682,5.232,1.138,7.734,4.322,8.189
				c3.185,0.455,6.142-2.276,7.734-5.915c1.592-3.639,3.867-4.776,3.411-6.597C382.238,258.001,374.278,256.637,372.913,258.001z"/>
			<path d="M396.568,247.994c0,0-3.639,4.322-3.412,10.691c0.228,6.368,0.683,11.145,4.094,13.647
				c3.412,2.501,10.918,3.866,12.965,5.685c2.047,1.82,4.095,0.91,6.369-3.866c2.275-4.776-0.682-13.42-8.188-15.921
				c-7.507-2.503-7.279-5.46-7.961-7.734C399.753,248.221,398.388,246.856,396.568,247.994z"/>
			<path d="M310.134,315.549c0,0-4.322,0.91-5.231,5.229c-0.91,4.323-2.275,12.284,6.368,13.422
				c8.644,1.138,11.828-5.459,12.738-9.325c0.909-3.867,3.639-13.876,12.738-17.287c9.098-3.412,18.651-3.412,19.788-10.918
				c1.138-7.507-1.137-10.463-5.914-9.326c-4.777,1.139-2.047,3.868-4.777,6.37c-2.729,2.502-9.553,3.411-14.785,6.824
				c-5.231,3.412-13.192,13.42-14.102,16.149c-0.91,2.729-4.094,2.956-4.776,1.364S311.727,315.321,310.134,315.549z"/>
			<path d="M344.708,319.643c0,0,3.185-8.415,10.235-12.738c7.051-4.32,31.844-10.235,36.166-17.968
				c4.322-7.734,9.099-7.734,12.283-7.279c3.185,0.455,6.369,3.639,6.824,6.595c0.456,2.958-1.819,6.142,0.91,7.279
				c2.73,1.138,5.458-1.819,7.506,2.73c2.047,4.549-0.911,14.103-4.549,15.011c-3.639,0.911-6.824-1.364-8.871-4.321
				c-2.047-2.957-8.644-7.505-17.286-4.321c-8.644,3.185-16.833,6.143-24.111,5.459C356.536,309.409,349.03,313.729,344.708,319.643
				z"/>
			<path d="M372.002,290.983c0,0-2.729,0-2.047,2.275c0.683,2.274,1.82,2.502,7.279,1.365c5.458-1.138,8.189-5.686,11.146-7.96
				c2.957-2.276,5.914-10.464-1.592-9.554c-7.506,0.909-2.502,6.369-5.459,8.416C378.372,287.572,377.461,290.073,372.002,290.983z"
				/>
			<path d="M435.69,279.61c0,0-0.909-0.229-1.592,1.365c-0.683,1.592-1.138,0.683-2.274,2.729c-1.138,2.046,0,7.507,2.957,6.597
				s6.141-3.867,5.687-7.052C440.013,280.066,437.738,279.156,435.69,279.61z"/>
			<path d="M435.69,303.039c0,0-8.643,3.41-6.367,8.643c2.273,5.231,7.506,4.549,10.008,2.275c2.501-2.275,6.367-6.823,4.093-10.237
				C441.15,300.308,435.69,303.039,435.69,303.039z"/>
			<path d="M457.3,287.343c0,0-7.733,1.139-8.188,5.915c-0.456,4.776,7.505,2.729,10.235,7.733c2.729,5.004,0,8.872-0.682,15.239
				c-0.683,6.371-0.683,10.463,3.865,10.692c4.55,0.227,11.828-4.095,15.468-12.966c3.64-8.872,1.138-9.326,2.047-10.691
				c0.91-1.364,7.961-3.183,7.961-10.918c0-7.733-6.824-8.188-10.69-7.505C473.448,285.524,464.123,287.572,457.3,287.343z"/>
			<path d="M456.39,338.75c0,0-4.776,2.273-3.64,7.051c1.138,4.775,2.274,5.459,2.274,7.961s4.55,3.64,6.597,2.046
				c2.046-1.592,5.687-6.367,3.185-9.553c-2.502-3.184-4.549-5.686-4.776-6.596C459.802,338.75,456.39,338.75,456.39,338.75z"/>
			<path d="M489.144,317.824c0,0-8.644,2.5-7.733,7.731c0.909,5.233,3.866,8.645,12.282,12.284c8.417,3.64,7.279,3.64,9.099,6.367
				c1.819,2.731,8.416,5.233,10.463,3.415c2.047-1.821,4.548-8.872,0.91-13.876c-3.64-5.005-7.279-1.365-8.417-6.597
				C504.61,321.918,499.607,311.909,489.144,317.824z"/>
			<path d="M493.465,300.083c0,0-1.592,1.136-3.639,2.272c-2.047,1.138-4.095,3.186-2.275,5.914
				c1.821,2.729,4.322,0.683,7.506,0.456c3.186-0.228,4.551-1.821,4.095-3.185c-0.455-1.365-2.274-2.729-2.274-3.867
				C496.877,300.537,494.83,298.489,493.465,300.083z"/>
			<path d="M500.972,287.572c0,0-2.956,2.729-2.502,7.278c0.455,4.548,2.273,7.278,4.094,6.824c1.82-0.455,2.274-7.734,3.184-9.326
				C506.657,290.756,502.563,285.751,500.972,287.572z"/>
			<path d="M519.624,302.584c0,0-2.958,0.909-2.731,2.273c0.229,1.365,0.683,5.232,3.413,4.552c2.729-0.684,3.411-1.821,2.956-2.96
				C522.808,305.312,520.987,302.584,519.624,302.584z"/>
			<path d="M537.819,308.726c0,0-3.64,2.048-3.184,4.548c0.454,2.503-0.911,2.957-1.593,4.097c-0.683,1.136,0.227,4.092,3.866,3.184
				c3.64-0.911,4.55-4.323,3.64-7.28C539.64,310.317,539.867,308.27,537.819,308.726z"/>
			<path d="M503.473,266.191c0,0-0.227,5.23,3.64,5.685c3.867,0.456,7.962-1.82,9.78-8.643c1.821-6.823-2.729-10.008,1.365-12.51
				c4.095-2.502,7.733-2.502,8.188-7.051c0.456-4.549,6.598-9.098-2.274-12.965c-8.87-3.867-10.917,3.639-11.372,5.459
				c-0.454,1.819-6.369,19.789-6.369,19.789L503.473,266.191z"/>
			<path d="M524.399,264.143c0,0-4.094,2.275-6.369,4.094s-3.185,4.777-0.455,6.142c2.73,1.365,7.961,1.592,9.554-1.819
				C528.722,269.146,528.038,263.916,524.399,264.143z"/>
			<path d="M539.183,278.927c0,0-4.093,0.683-3.638,4.095c0.454,3.412-0.455,6.596,2.501,6.141c2.958-0.455,5.46-2.729,5.46-5.458
				S539.183,278.927,539.183,278.927z"/>
			<path d="M539.412,250.951c0,0-0.91,5.459-2.049,8.87c-1.137,3.413-3.411,8.19,1.365,9.554c4.777,1.365,11.375-3.184,12.056-7.506
				c0.683-4.322,2.048-12.51-2.274-15.013C544.188,244.354,539.64,247.311,539.412,250.951z"/>
			<path d="M556.016,289.618c0,0-1.592,2.958-2.956,3.867c-1.365,0.91-1.365,4.094-0.683,6.598c0.683,2.501,2.502,7.277,6.141,5.229
				c3.64-2.046,3.185-5.913,1.594-8.642C558.518,293.94,560.565,288.253,556.016,289.618z"/>
			<path d="M569.892,309.409c0,0-1.594,2.044-2.958,4.32c-1.365,2.273-0.229,4.095,1.818,5.459c2.05,1.365,5.006,4.549,8.645,0
				c3.64-4.55,0.228-5.231,0.683-8.645C578.533,307.134,571.256,306.449,569.892,309.409z"/>
			<path d="M585.131,315.321c0,0-2.729,5.003,0.227,6.597c2.957,1.592,4.094,2.273,5.914,0c1.82-2.275,0.683-5.688,2.047-6.823
				C594.685,313.957,588.77,310.999,585.131,315.321z"/>
			<path d="M554.196,263.688c0,0,0.228,6.368-1.137,8.644c-1.365,2.274,4.321,10.69,7.733,9.553
				c3.411-1.138,4.775-7.052,4.094-10.463c-0.683-3.411-4.321-10.008-7.279-10.235C554.651,260.959,554.651,263.006,554.196,263.688
				z"/>
			<path d="M568.979,280.747c0,0-1.591,4.095-0.908,6.596c0.681,2.503,1.593,5.004,1.363,8.188
				c-0.226,3.185,8.872,7.052,9.327-0.227c0.454-7.277,1.139-8.642,1.365-10.918c0.228-2.274-2.048-9.098-6.824-8.644
				C568.525,276.198,568.979,280.747,568.979,280.747z"/>
			<path d="M586.314,291.729c0,0-1.78,0.547-2.053,4.515c-0.274,3.969-0.821,3.557-0.958,4.789c-0.138,1.23,1.095,3.146,3.831,3.556
				c2.737,0.411,3.421-2.052,3.695-4.239C591.103,298.16,588.367,289.539,586.314,291.729z"/>
			<path d="M552.15,332.608c0,0-2.731-4.777,1.137-7.053c3.866-2.273,3.866-0.227,7.051,0c3.184,0.228,6.141,4.323,6.141,4.323
				l-7.961,4.549L552.15,332.608z"/>
			<path d="M472.084,353.989c0,0-3.791-0.606-3.64,1.062c0.152,1.667-0.151,1.818,0,3.333c0.152,1.518,5.763,3.338,7.278,2.58
				C477.24,360.208,478.604,353.837,472.084,353.989z"/>
			<path d="M506.657,362.632c0,0-2.426,1.062-1.668,2.427c0.758,1.364,0.911,2.427,2.73,2.123s3.488-3.488,2.427-4.55
				C509.084,361.572,506.657,362.632,506.657,362.632z"/>
			<path d="M468.444,376.734c0,0-4.852,0.002-5.306,3.792c-0.455,3.792,2.121,5.154,3.486,9.856c1.365,4.7,0.303,7.732-1.062,10.31
				c-1.364,2.579-0.758,7.434,0.91,8.494s4.702-1.821,5.763-5.915c1.062-4.094,1.212-4.854,3.031-9.251
				c1.82-4.396,2.73-10.615,0.455-14.557C473.448,375.521,468.444,376.734,468.444,376.734z"/>
			<path d="M462.834,416.92c0,0-2.427-0.91-3.942,2.576c-1.516,3.487,0.151,6.371-1.668,9.706
				c-1.818,3.336,0.152,15.466,5.005,15.164c4.852-0.305,7.43-5.611,7.732-6.976c0.304-1.365,3.033-0.908,4.397-0.454
				s1.973-0.608,3.488-3.338c1.518-2.728,5.763-11.372,2.578-14.405s-7.886-1.669-8.644-0.304c-0.758,1.364-1.214,3.792-2.275,3.64
				s-0.909-2.88-2.274-4.398C465.867,416.614,462.834,416.92,462.834,416.92z"/>
			<path d="M401.875,357.324c0,0,2.275,6.218,0.455,9.401c-1.819,3.188-6.672,6.522-5.307,10.465c1.365,3.94,6.217,7.43,11.829,3.79
				c5.61-3.638,3.941-8.944,3.032-14.255c-0.909-5.307-1.516-14.556,3.336-19.104c4.852-4.551,6.065-1.367,8.341-4.854
				c2.273-3.488,3.335-8.19-0.153-10.159c-3.486-1.973-7.732-1.062-12.282,1.213c-4.549,2.274-8.036,6.369-9.25,10.159
				C400.663,347.771,400.359,353.078,401.875,357.324z"/>
			<path d="M382.92,363.392c0,0-4.549,0.91-6.823,4.548c-2.275,3.641-3.034,7.431-0.91,9.403c2.123,1.971,11.676,0.756,14.709-1.973
				c3.033-2.729,5.762-8.645,2.123-10.312S386.711,362.633,382.92,363.392z"/>
			<path d="M390.502,382.8c0,0-4.094-0.757-4.397,1.519c-0.303,2.272,0.758,4.851,3.64,4.7c2.882-0.152,3.184-2.275,3.184-3.64
				C392.929,384.014,391.412,383.104,390.502,382.8z"/>
			<path d="M406.576,389.17c0,0-3.792,1.363-4.701,3.942c-0.91,2.577-0.606,5.305,2.275,6.367c2.881,1.062,6.065,0.608,7.733-2.879
				c1.669-3.488-0.303-6.067-2.274-6.976C407.638,388.714,406.576,389.17,406.576,389.17z"/>
			<path d="M426.289,374.157c0,0,0.911,2.729,2.729,2.123c1.821-0.606,2.124-2.123,1.517-2.882
				C429.929,372.641,425.987,372.186,426.289,374.157z"/>
			<path d="M429.019,380.526c0,0-2.425-0.152-3.64,2.879c-1.213,3.034-2.577,7.28,5.763,16.074
				c8.341,8.797,4.701,10.313,3.336,11.676c-1.363,1.365-9.553,12.284-8.34,21.23c1.212,8.946,3.641,13.041,8.34,11.98
				c4.7-1.062,5.156-7.128,4.094-13.495c-1.061-6.371-3.334-7.432,0-11.222c3.336-3.792,12.587-7.886,11.677-13.801
				c-0.909-5.913-7.887-16.83-14.254-19.562C429.624,383.558,430.991,381.286,429.019,380.526z"/>
			<path d="M443.729,440.727c0,0-6.824,6.217-5.611,10.311c1.214,4.093,4.7,4.7,6.218,2.426c1.517-2.273,1.971-8.947,2.729-9.857
				C447.821,442.697,446.458,438.604,443.729,440.727z"/>
			<path d="M414.311,386.439c0,0,22.138,15.013,28.658,33.969c6.521,18.953,3.337,39.273,3.337,39.273s7.733-14.861,4.397-35.483
				C447.366,403.575,424.014,387.804,414.311,386.439z"/>
			<path d="M288.071,466.692c0,0-2.047,0.798-2.047,2.959c0,2.16,1.25,1.592,1.592,1.818c0.34,0.229,1.819-0.908,1.705-2.5
				C289.208,467.376,288.867,466.466,288.071,466.692z"/>
			<path d="M291.483,472.266c-1.976-0.396-2.048,1.821-2.162,2.503c-0.113,0.683-0.227,1.366-0.455,2.388
				c-0.227,1.024,1.706,2.504,3.07,1.024s1.479-2.275,2.502-3.298c1.023-1.023,0.114-2.844-0.909-2.729
				C292.507,472.266,292.621,472.495,291.483,472.266z"/>
			<path d="M299.33,463.736c-2.499,0.167-2.388,1.479-2.274,2.162c0.114,0.682-0.568,3.184,0.91,3.525
				c1.478,0.34,3.753-0.908,3.98-2.616C302.173,465.101,301.036,463.623,299.33,463.736z"/>
			<path d="M310.248,459.983c0,0-1.82,0-1.933,0.911c-0.114,0.908-1.592,1.934-1.819,2.388s-1.479,3.981,0.91,4.55
				c2.388,0.568,4.663-0.342,5.118-2.844C312.978,462.486,311.727,460.213,310.248,459.983z"/>
			<path d="M303.311,471.926c0,0-2.617,0.911-2.73,2.273c-0.114,1.365,2.161,2.957,3.298,1.706c1.137-1.25,1.706-2.272,1.251-2.956
				C304.675,472.266,303.311,471.926,303.311,471.926z"/>
			<path d="M312.068,477.271c0,0-1.706,0.568-1.934,1.706c-0.227,1.138-0.682,2.161,0.796,2.842
				c1.479,0.684,3.639-0.227,3.753-2.046C314.797,477.954,313.888,476.929,312.068,477.271z"/>
			<path d="M310.248,471.016c0,0-1.024,2.729,0.341,3.411c1.365,0.683,3.299,0,3.867-1.136c0.568-1.138,0.228-3.071-0.796-3.3
				C312.637,469.764,311.386,469.197,310.248,471.016z"/>
			<path d="M321.28,451.908c0,0-1.706,1.14-2.729,3.981c-1.023,2.844,0.569,4.89,3.526,4.436s4.549-3.866,5.004-4.436
				c0.455-0.568,0.114-2.615-1.251-3.752C324.464,451,322.417,451,321.28,451.908z"/>
			<path d="M327.194,461.803c0,0-2.844,1.025-2.844,3.298c0,2.275,0.228,5.119,3.413,5.119c3.184,0,3.98-1.592,4.435-3.64
				c0.455-2.046-1.138-4.321-2.274-4.321C328.786,462.259,328.104,462.03,327.194,461.803z"/>
			<path d="M334.472,470.334c-1.462,0.242-1.705,0.682-2.388,1.023c-0.682,0.342-2.047,2.388-1.137,3.298
				c0.91,0.909,2.047,2.046,3.412,0.909c1.364-1.138,1.478-2.615,1.705-2.957C336.292,472.266,335.155,470.22,334.472,470.334z"/>
			<path d="M329.241,446.679c0,0-0.91,1.59,0.455,2.614c1.365,1.025,3.98,0.684,4.549-0.568s0.796-2.615,0.341-2.729
				C334.131,445.883,330.264,444.062,329.241,446.679z"/>
			<path d="M337.771,451.454c0,0-1.251,1.023-2.275,1.252c-1.024,0.228,0,1.478,0.796,2.615s2.502,0.114,3.185-0.684
				c0.682-0.796,1.023-1.704,0.682-2.615C339.817,451.112,338.566,451,337.771,451.454z"/>
			<path d="M344.708,458.733c0,0-2.957,0.454-3.071,1.479c-0.113,1.022-0.455,3.752,1.707,3.638
				c2.161-0.114,4.777-2.728,5.573-3.752c0.796-1.025,0-2.617-0.91-2.845C347.096,457.027,346.3,458.279,344.708,458.733z"/>
			<path d="M343.229,441.562c0,0-2.502,1.136-1.82,2.842c0.683,1.706,2.275,2.161,3.185,1.706c0.91-0.454,1.478-1.935,1.251-2.958
				C345.618,442.128,344.025,440.878,343.229,441.562z"/>
			<path d="M337.429,431.665c0,0-1.706,0.114-1.592,2.275c0.114,2.16,0.455,3.64,2.161,3.412c1.706-0.229,3.07-2.39,2.615-3.64
				C340.159,432.461,338.226,431.325,337.429,431.665z"/>
			<path d="M340.045,419.383c0,0-1.479,1.819-1.592,2.957c-0.113,1.138,1.479,2.502,2.502,2.16s2.275-1.25,2.162-2.275
				C343.002,421.202,342.205,418.36,340.045,419.383z"/>
			<path d="M349.939,433.371c0,0-1.592,0.455-1.023,1.478c0.568,1.025,0.91,0.456,1.478,0.229
				C350.962,434.849,351.077,433.713,349.939,433.371z"/>
			<path d="M355.512,433.03c0,0-1.706,0.341-1.478,1.364c0.227,1.025,0.682,1.479,1.705,1.364c1.023-0.112,1.365-0.225,1.251-1.25
				C356.876,433.486,356.649,433.145,355.512,433.03z"/>
			<path d="M348.347,427.229c0,0,1.023,1.364,1.934,1.364c0.91,0,1.365-0.908,1.365-1.477c0-0.569-0.683-2.275-2.047-1.934
				C348.234,425.523,348.234,426.321,348.347,427.229z"/>
			<path d="M353.124,442.241c0,0-1.479,0.57-1.251,1.364c0.228,0.798,1.251,1.821,2.275,1.594c1.023-0.227,0.682-1.364,0.568-2.048
				C354.603,442.47,353.124,442.241,353.124,442.241z"/>
			<path d="M366.202,337.271c0,0-2.16,5.004,0.114,7.619c2.275,2.616,3.867,2.275,4.776,1.818c0.91-0.454,2.616-2.729,1.592-6.481
				c-1.023-3.754-3.867-4.55-5.004-4.663C366.544,335.452,366.202,337.271,366.202,337.271z"/>
		</g>
		<g>
			<path fill="#FFFFFF" d="M371.775,333.215c0,0-0.304,1.669-1.137,4.396c-0.834,2.729-1.137,3.412-2.199,3.11
				c-1.062-0.305-1.137-1.517-1.213-2.353c-0.076-0.833,0.606-4.473,1.138-5.229c0.53-0.759,0.985-1.821,2.35-1.744
				C372.079,331.469,371.775,332.836,371.775,333.215z"/>
			<path fill="#FFFFFF" d="M379.054,342.313c-0.481,0.585-0.53,1.667,0.075,2.046c0.607,0.381,1.744,0.227,2.047-1.061
				C381.48,342.011,379.736,341.479,379.054,342.313z"/>
		</g>
		<path fill="#FFFFFF" d="M340.079,530.427c0,0-5.087-3.507-4.427-10.319c0,0,1.5,2.083,4.715,2.756c0,0-0.276-1.353,0.116-2.364
			c0,0,3.104,2.935,5.088,3.187c0,0-0.47-0.9-0.107-2.48c0,0,2.148,2.684,4.141,2.729c0,0-0.34-1.203,0.286-2.358
			c0,0,5.216,2.885,6.347,4.228c0,0,1.043,3.144,2.491,5.02c1.447,1.875-5.272,1.753-5.814,0.024c0,0-3.59,1.165-4.938-0.396
			c0,0-3.121,0.878-4.207-0.206C343.768,530.246,341.479,531.424,340.079,530.427z"/>
	</g>
	<g>
	</g>
	<g>
	</g>
	<g>
	</g>
	<g>
	</g>
	<g>
	</g>
</g>
</svg>
