<?xml version="1.0" encoding="utf-8"?>
<!-- Generator: Adobe Illustrator 16.0.0, SVG Export Plug-In . SVG Version: 6.00 Build 0)  -->
<!DOCTYPE svg PUBLIC "-//W3C//DTD SVG 1.1//EN" "http://www.w3.org/Graphics/SVG/1.1/DTD/svg11.dtd">
<svg version="1.1" xmlns="http://www.w3.org/2000/svg" xmlns:xlink="http://www.w3.org/1999/xlink" x="0px" y="0px"
	 width="841.89px" height="595.28px" viewBox="0 0 841.89 595.28" enable-background="new 0 0 841.89 595.28" xml:space="preserve">
<metadata><?xpacket begin="﻿" id="W5M0MpCehiHzreSzNTczkc9d"?>
<x:xmpmeta xmlns:x="adobe:ns:meta/" x:xmptk="Adobe XMP Core 5.3-c011 66.145661, 2012/02/06-14:56:27        ">
   <rdf:RDF xmlns:rdf="http://www.w3.org/1999/02/22-rdf-syntax-ns#">
      <rdf:Description rdf:about=""
            xmlns:dc="http://purl.org/dc/elements/1.1/">
         <dc:format>image/svg+xml</dc:format>
         <dc:title>
            <rdf:Alt>
               <rdf:li xml:lang="x-default">Oakland Raiders</rdf:li>
               <rdf:li xml:lang="en_us">Oakland Raiders</rdf:li>
            </rdf:Alt>
         </dc:title>
         <dc:creator>
            <rdf:Seq>
               <rdf:li>Max O'Brien/Osprey Dawn</rdf:li>
            </rdf:Seq>
         </dc:creator>
      </rdf:Description>
      <rdf:Description rdf:about=""
            xmlns:xmp="http://ns.adobe.com/xap/1.0/"
            xmlns:xmpGImg="http://ns.adobe.com/xap/1.0/g/img/">
         <xmp:CreatorTool>Adobe Illustrator CS6 (Macintosh)</xmp:CreatorTool>
         <xmp:ModifyDate>2013-10-08T19:42:31+13:00</xmp:ModifyDate>
         <xmp:MetadataDate>2013-10-08T19:42:31+13:00</xmp:MetadataDate>
         <xmp:CreateDate>2013-10-08T19:42:31+13:00</xmp:CreateDate>
         <xmp:Thumbnails>
            <rdf:Alt>
               <rdf:li rdf:parseType="Resource">
                  <xmpGImg:width>256</xmpGImg:width>
                  <xmpGImg:height>184</xmpGImg:height>
                  <xmpGImg:format>JPEG</xmpGImg:format>
                  <xmpGImg:image>/9j/4AAQSkZJRgABAgEASABIAAD/7QAsUGhvdG9zaG9wIDMuMAA4QklNA+0AAAAAABAASAAAAAEA&#xA;AQBIAAAAAQAB/+4ADkFkb2JlAGTAAAAAAf/bAIQABgQEBAUEBgUFBgkGBQYJCwgGBggLDAoKCwoK&#xA;DBAMDAwMDAwQDA4PEA8ODBMTFBQTExwbGxscHx8fHx8fHx8fHwEHBwcNDA0YEBAYGhURFRofHx8f&#xA;Hx8fHx8fHx8fHx8fHx8fHx8fHx8fHx8fHx8fHx8fHx8fHx8fHx8fHx8fHx8f/8AAEQgAuAEAAwER&#xA;AAIRAQMRAf/EAaIAAAAHAQEBAQEAAAAAAAAAAAQFAwIGAQAHCAkKCwEAAgIDAQEBAQEAAAAAAAAA&#xA;AQACAwQFBgcICQoLEAACAQMDAgQCBgcDBAIGAnMBAgMRBAAFIRIxQVEGE2EicYEUMpGhBxWxQiPB&#xA;UtHhMxZi8CRygvElQzRTkqKyY3PCNUQnk6OzNhdUZHTD0uIIJoMJChgZhJRFRqS0VtNVKBry4/PE&#xA;1OT0ZXWFlaW1xdXl9WZ2hpamtsbW5vY3R1dnd4eXp7fH1+f3OEhYaHiImKi4yNjo+Ck5SVlpeYmZ&#xA;qbnJ2en5KjpKWmp6ipqqusra6voRAAICAQIDBQUEBQYECAMDbQEAAhEDBCESMUEFURNhIgZxgZEy&#xA;obHwFMHR4SNCFVJicvEzJDRDghaSUyWiY7LCB3PSNeJEgxdUkwgJChgZJjZFGidkdFU38qOzwygp&#xA;0+PzhJSktMTU5PRldYWVpbXF1eX1RlZmdoaWprbG1ub2R1dnd4eXp7fH1+f3OEhYaHiImKi4yNjo&#xA;+DlJWWl5iZmpucnZ6fkqOkpaanqKmqq6ytrq+v/aAAwDAQACEQMRAD8A8qYq7FXYq7FXYq7FXYq7&#xA;FXYq7FXYq7FXYq7FXYq7FXYq7FXYq7FXYq7FXYq7FXYq7FXYq7FXYq7FXYq7FXYq7FXYq7FXYq7F&#xA;XYq7FXYq7FXYqirDTNS1GYw6faTXkyjk0dvG8rBagVIQE0qQMVQxBBodiOoxVMtc8vajostvHeqt&#xA;bqBLiJo25Cjj4kb+V43BR1PRhiqZ6R5Me/8AK935hM7CG0NyjWsaBpXeBIGUoCwLKPrHKVqfu0Wu&#xA;9QMVSjRNMfU782iB2kMFxLGka8mZ4IHlVQB15FKYqhLi3uLaZ4LiJ4Z4zSSKRSrqfAqaEYqyDzJ5&#xA;Jv8AQdH0vULlmL34YXEBjK+hJxWREL1IYtHIK7AqwZSKqcVQei+VdX1mwvbywRZUsZLeKWKp9Rjd&#xA;MypwWnxU4Et3A36A0VSyW2ljuntgPUlRzGAlTyYHj8Pc1PTFVXUdM1LTbk2uo2k1ldLu0FxG8UgF&#xA;abq4U9sVQuKuxV2KuxV2KuxV2KuxV2KuxV2KuxV2KuxV2KuxV2KuxV2KuxVckckjcUUu1CaKKmii&#xA;pO3gBXFVuKpxomtWVnZ3Vjf2s1zaXUtvP/o1x9VlWS2LhfiaOdSpWZtila0IOxBVQmsapLqms3uq&#xA;yxokt9cS3UkSD4FaZzIVUHsC2KonXPNXmHXWLavfS3v76SdBMeXpvLTmI6/YU0HwrRdhtiqXR3Vz&#xA;EFEcroELFOLEULgK5FOnJQAfHFWc/l3+VPmHzFOmqXLPovluD97da3OfRURD7Xol+PIkbcvsjuex&#xA;NIt35iflT5g8uzPqlqW1ry3cfvbXW4D6ymNtx6xTlxP+V9k9j2DS2wZrm4dZFaV2WZxLKpYkO68q&#xA;O3iw5tufE4Eo7Q/MmtaHdQ3Wl3JtpoJkuUYKp/eIrIOXIHkvCRlKnYgnbFVDRtQXTtYsdQaL11s7&#xA;iK4MJPEOInD8akNTlSnQ4qi9c1m1voLS1s7ea3tbT1GBuZ/rUzyTMGdjII4VC7CihBvU7knFUoxV&#xA;c8ckbcXUo1AaMKGjCoO/iDXFVuKuxV2KuxV2KuxV2KuxV2KuxV2KuxV2KuxV2KuxV2Kqtra3F1cx&#xA;WttG01xO6xwxICzO7miqoHUknFXtcU+l/kro0dIoNS/MXU41eeOT44rC3bcxngQSW6GjDl1+yByK&#xA;EqfzX+SPms8/MWhXPlnUnqZb7SSGgZj1Zo+O1eu0RPviqm35U/lrf/vdG/MaxSNgSkWoxi3YfNpH&#xA;jP8AwmNLa5vyN0WMK8/5gaFHExA5mePv4VkAO3vjS2tXyB+S2ljlrXnxr8ilYdMtzU96BwLlfpNM&#xA;VVB+YX5Q+WxXyn5RbU75fsahrTBwCOjrFWUfdwOKsP8AOf5necvN78dYvj9TBrHp8A9K2WnT4Afi&#xA;I7FyT74EteTfzO85eUG46RfH6mTWTT5x6ts1ev7s/Zr3KEH3xVmJ/ML8ofMgr5s8otpl8329Q0Vg&#xA;gJPV2irEPv5nChTbyB+S2qDlovnxrAmtIdTtzUd6FyLZfpFcVXL+RujSBnh8/wCgyRKSOYnQjbfe&#xA;khA2xpbWr+VP5aWAEus/mNYvGu7xadGLhj8mjkkP/CY0tqi+a/yR8qEt5d0K48zamm8V9q5CwKw6&#xA;MIqCtOu8QPviqaSz6Z+dWjSH0oNN/MXS42aCKL4Ir+3G4QcySCnQVY8ev2SeKrxW6tbi1uZbW5ja&#xA;G4gdo5onBVkdDRlYHoQRgSpYq7FXYq7FXYq7FXYq7FXYq7FXYq7FXYq7FXYq7FXsnk3T7D8tfKCe&#xA;fNahWXzNqitH5W02T9hGX4rlx1+y1f8AVIFavsUMAt/L3njzlPea5HbS6g805FzeyMkavOw5emrS&#xA;Mis1KURegpt0wJSK/wBO1DT7lra/tpbS5X7UM6NG47fZYA4qh8VTiz8m+b77TpNTstD1C602Icpb&#xA;6G1mkgVfFpVUoB9OKsu/KP8AI7zP+Zv1+TSLyzsrbTGiS6ku2kDEzBivprGj8vsb1IxVOPyv/wCc&#xA;f7jzd568w+UdX1Q6PeeXeQuAkInMpWX0iU5SRUXowbeoI8cVZ15O/wCcUfKuseT7HXNW8zzabPdy&#xA;y2xUrCIvWW6e2jRWcqWLsgoOpJoMVSrR/wDnE+8b8zr/AMnaxqzR2EemNqem6vbxAmYeukKq8TMe&#xA;JBZuS8uw33xVrzB/zixpdvqejadoHna21W81m+axW39BawLHaz3MkrtFPLXj9W48eA6+2Ksb/ML/&#xA;AJxf/MfyXo9zrcptNV0q0HO5msXcyRRjrJJFIkZ4jvxLUG52xV5x/hDzZ+hv03+hL/8AQpFf0n9V&#xA;m+q08fW4+n+OKpRiqL0zSdU1W7W0020mvbp/swwI0j9aVooO2+Kpxc6H5z8mXtlq0sMmn3EUtbS8&#xA;jdJFEse5QvGzryp1Ru3UUxV6D5y0/T/zK8oP580SFYvM2lqsfmnTYxu6Ku1yg67Ktf8AVBHVNyh4&#xA;3gS7FXYq7FXYq7FXYq7FXYq7FXYq7FXYq7FXYqnPk5vLy+adMfzEWGiJOjX3BedUXehUblSaBqb8&#xA;a03xVn3/ADkNY+YJPNEGu3EqXnly/hRdBurbe3WELX06jYOal/8AKrt4AlAY/wCaJZtN8i+UdKkH&#xA;p3rx3uoSRniSsF88aw1XehdIOYPWhxVV8vz6p5v0fUNG1W9+t3EQjfRbi8fnLDctIAI/Vc8lhnWs&#xA;e54CQx1oWrgSxPTby90HX7W8MJS90q7jmNvMpBEtvIG4OpG3xLQg4q/SW2v9Z1LUNC1PSXt38q31&#xA;jLPec/77nKsMlm8JGxBVn5A7Yq84/JbSWs7n8zpvLtutsX8y3ENlBdK0MQeFI5GUqFLpGTMeNF+y&#xA;RTFWSDyZ+i/zxXzfapxtfMGjTafqVKAfXbaWGSCQk9S9ujLQfyYql+s+Q73zT+WUvlvTrmO2f9PX&#xA;Mv1mRieEVtrcsr04A1fgmw2+LqRirIdN1nSdV/NHVLWykSe50DTIIL+SOjenLezvIIXYdGVbblT/&#xA;ACsVYtoPly/n/NXStVvfJNj5X+o2OpS/X7OW3ne7lla2iUO0McLjiksh+MdTt7qqf5q6lY+UPy81&#xA;36st95hufP8AeS22n2yVmX1dTthCsUPADjGIIiyAVJb57Kpx5i8/XEH5cr5y8j2lrrGiWNpM93pE&#xA;nK3kEUSUKrQN6b2xQiSFk3FQCCBVV8Aztfa9r0r29qn13VLlnjs7SMJGJJ3JEcMY2VQWoq9hirNf&#xA;Nt9qXlDRtM8uaJffVCFd9bu7JzHJdXqyMHHqpR5IbcH0lNeJdXpUgnChJdI9XUfI+v2Kjlc2kthq&#xA;SooALW9qLi3kIUAV4fW1LHrT5bBLLP8AnHqw8wR+Z59cgljtPLlhC669dXO0DQstfS32LCgb/Jpv&#xA;1oSEFgPnFvLzeadTfy6WOiPO7WPNeFEbegU7hQaha78aV3wJSbFXYq7FXYq7FXYq7FXYq7FXYq7F&#xA;XYq7FXYq7FXrX5Q+abC+0fVvJfmq3a/8sx2s2pxb/HatagzOY22Kh/b9r/WOEIKE0my0zzr+ntb8&#xA;x3Z0u71W/stJ0cxxGZIZJCWERjBQiOOKBI69v1qsHD3nlvzFcwHhNJZTTWl1Ea+nMisYpY26Hi4q&#xA;PEdRQ4Esr85abDremHW7VzPqFpBHPNK1PUvNNdvSiunCinr28g+r3NP2gG8Tir0jy7/zlRH5f/Kr&#xA;QPL9naXUvmnRmjX6w/AWTW8M5Aif4jIwe1Pp04jiaMDUYqxnzz/zlF5680aZqmkw2On6Ppuril6L&#xA;WN2uJQVRKyTO27cI1TkFHwimKsJt/wA2/wAzLXS7PSrTzLf2thYR+lZwW8zQiNKEAK0fFtgaA1xV&#xA;L38/ee3V1fzHqjLKWaUNe3BDM5LOWq+5Ykk+OKoTRvM/mXQ5ZZdF1a90yWYgzSWdxLbs5WvHkY2U&#xA;mnI0r4nFWUab+en5vadcR3EHmu/kmiUojXUgu6KSCRS4EoNeIrXrTFWSeU/+coPzE8v6dpWmNDYa&#xA;nY6Q6ta/W4WMyqAyELKjrQ+nIyhuJoMVZl51/wCcuLPVvJeqaJoHln9EajrkcsWoXRlRkX6wnpzS&#xA;L6aI0kjJsHahHXemKvPfKGlw+WdDGtXTGHV9StnuVmWgksdIr6TXEdelxeSMIID2ry6YUMG5XnmX&#xA;zHbwKFilvpobS1iFfTiRisUMa9W4otB3J6mpwJZtrOnaR5Us/L+t6BcnVns7u/0jWPUjaFJ2QgtD&#xA;6ZLnhLDcMniR+BQiPzW826dZ6NpnkbyrE9p5citre/uXb+8upbqNbhDI37QVXBP+Vt+yMSoeV4Eu&#xA;xV2KuxV2KuxV2KuxV2KuxV2KuxV2KuxV2KuxVmPkIBdF86Sof9IXRSqU3PB7y3WQ0/1dicVTLzJp&#xA;H1Kx8z6fYlxJousRalbivx/ULlXWObYL9jlBWg/bxVD+YZrbzV5RufNhsY4fMNpfxQa1Na8gk0Vx&#xA;ExS6liJZUd5YyrMvFSx6VOFCzyDrky2suniNbi504y6jp9u/SeH0uGpWLf5FxaqX/wBaOi7tgSjT&#xA;+XmlaXfT+YNXuFfyNGxm0yWKaNptQDVMNrFwLFZNuMxIHCh9sKFPz3q09x5dtodat7WDWLqdLvTN&#xA;PtoI4Tp+mmNwsTsgVv3xZGRHqVVeR+3irGtC8l+Ydaha6tbYRabGaTapdMtvZx068p5SqVHgCT7Y&#xA;Ep/qHkPy3oVnb3evatfPHd1FvJp+myGCRlpy9Oa9ksvUAr1VKe+FCpo35d6F5nhupPLGp6g7WSqb&#xA;kXumSenHz5cTJLZSXpRTxO7JQU3OBLHde8leY9DiFzeWvqae5pFqVsy3Fo/hxnjLJX/JJB9sVZb5&#xA;J1J/8GT2+hW1rPq1jPJda9plxBHK+paaVX4Y3YM4EHFuSJQ/FzG4woUdI/L/AEnUdVh123uB/gOM&#xA;i51K4lljSW1Vfieyl5MrGYmiIVHxghh3AVQ35i+Yri5RLaQql9qhj1PVYoxRYEKcdPsV/wAi2tiG&#xA;/wBaQg7pgSp6FND5W8q2nmhbKOXX729mi0ee5LssEVtGnK5iiBVWcSycVZ6gEdKjChMvL2ltLpHl&#xA;DS7sEyatrE+sTKSeS2Fuscbynv8AH6MxH+rgSxrziXa28tu4o7aPFUnYkLcTon/CKMVY3irsVdir&#xA;sVdirsVdirsVdirsVdirsVdirsVdirsVZF5E1yw0rXCuphjo+pQS6dqnAVZbe5XiZFHjE3GQf6uK&#xA;vU7ny5rOoXNhLo4gvfOujWS6fqWjuwEevaMkfp213aciBPytQIpEVufwKy/EMVY3o3lq403zAtxo&#xA;WsP5aeUiLUdJ1uGWKaGJmHqRuJImt7mMUNOfEmm6g4UMT862ItvN2szadB9V0tL24WyljHCIxq5C&#xA;+mRQbruFXpgSy/Qfy78z6DZDU9W0aV9SaGS58r6XeAlJLhQrStJb7n1VhHqxwsB6nE1rxCkoSq5i&#xA;sdB1AtqsA8zefL2UmaxlrLa2s8p+zMq/703BZt468FOx5HbFXpPk/wAv3F7500/RvMs76t5pt41v&#xA;tQjJX6ppFovF0t4IlHpiaUlFYoAEVvh+LfFVX/nLH/jn+W/+Mt1/xGLEqFT/AJwzuDb6n5ikrQc9&#xA;PVvk31lT+vEKXq2u6f5Uk/Mi88kazG+k6rrSG+8veYrUxo1zHLyL2V2jBo7j0pI5OCzIy8OK/C3E&#xA;sEvHPzJ/JrWfKmvW17pippOvGXlot9YVi0/UJFBb0kRi31O6K9IWYxydFPUYUMX81/lt5i1qBtR0&#xA;TSJF1FbaG6816TZA+nDeOrunpQ1qZPRb1JYlBMfLbrTFWD+SrBbjzdpEmoQ/WtMkvYVvJnHOIIzg&#xA;MZCwK/CDyKt18N8CWWX3liW+13635i1VvM08Z9Oy0fQ4pppZ0Q/u4lMcSwW0Rr0SpFTRa4UMkGia&#xA;rpkmo3uvSW9l521myews9IUj0tA0Z4hFcXV1xLehS1PowxFufxkmrGmBLyTzZq9rqmsvJZKyabbR&#xA;RWeno/2xb20YijZv8p+PNv8AKJxVJsVdirsVdirsVdirsVdirsVdirsVdirsVdirsVdirsVeuflW&#xA;2n6x5L8zw+Y4n1Cx8sWy6hpAR/SuLeQ+ozrbzgFow7ItRutd+OFDj+bim0+rL5284Jb0p9Xk+rzu&#xA;tK/Ct0bmN6e4QfLAqQ6jaeXPM2g6zqWlHU5td0n0bu5n1S5W5lubNmMUzBVReHpO8ZNWbauFU284&#xA;/nrrGu+SPLGhW/qW2paRHH+kdSBAkkltGK2jRMPiUrGFLt1LfTUJZX/zjN5Bhu5rnzpqUfqtBI1v&#xA;pYff97Sss+/UjlxU+PLuMIQWd/lHpUr+afPvmK6jKz3WszWEPMUYQ2jEins3qL/wOEILEv8AnLH/&#xA;AI5/lv8A4y3X/EYsBSEP/wA4lEg+aiOv+4//ALGcQpezf85AaRNJdfl15wsYjLf6T5gsYisa1ZoL&#xA;yRCV2IrV4lUD/KwJereZfLmkeZNEu9F1eAT2F4nCRejKequjdVdGoysNwd8VfHev+c/NH5TRed/y&#xA;91QyXt/qCyPoetmgdo79gJppD9os8Jah6rJUVIpRV51pSeWvLmmaVd6r+k4tb1FZLyG70u5W2ltr&#xA;bl6cAKujczIY3f7S/Dx8cKGRSfmyv1M2x86eb5rYijWymC2dwaVVrpbiVyPmh+WKrfzXj0zSvJvl&#xA;RPL8T2Nl5jtm1HVUaQyzXE1ImUXExCtJ6bO1Bstd6YlQ8nwJdirsVdirsVdirsVdirsVdirsVdir&#xA;sVdirsVdirsVdir1f8sq2n5S/mPfnYTQWlqpoP2mkQip8fWFcKHlGBKe+SfMMeg+Y7W+uEMunvyt&#xA;tStxv6tpcKYp0I71RjT3piqj5u0FvL/mbU9FMnq/ULiSFZf5lB+BiB0JWlR2OKvr/wDJu0trP8r/&#xA;AC8kJHptaid2HTnMzSvX5MxGSDEoj8r3Nz5Pg1Rq+pq9xd6kxII2urmSSPY+EZUYqXl3/OWP/HP8&#xA;t/8AGW6/4jFgKQh/+cS/+mq/6MP+xnEKX0X+Ys0j/lFqGowAtc6IkOpxUFWV9KuI7sEeHwwfdiVD&#xA;0G3nhuII7iFg8MyrJG46MrCoI+YwJfPn/OV/5dJ5juvJuoRfuppb/wDRF1cLQkQzqZ1Yjv6Yhk4j&#xA;xbFXyN5n1r9Na7dagkfoW8jBLO37Q20SiOCIf8Y4kVfoxVKsVerfmd/pf5T/AJb367iK3u7V2oOq&#xA;GNFBI8PROFDynAl2KuxV2KuxV2KuxV2KuxV2KuxV2KuxV2KuxV2KuxV2KvV7H/cb/wA44alIwo+u&#xA;a1HCh23SFUkA+hrdsKHlGBKN0aCO41ixt5BWOa4ijcddmcA9fniqZ/mDctc+e/MU5r+81O7IB7D1&#xA;3AH0DFX0r5P8v+Yrz8s9A8rW076ZbSWay6zqSgiZYrkmYW9t/wAWsslHc/YHYk7SYvSdI0qz0jSr&#xA;PS7JSlpYwpbwKTUhI1CrU9zQbnFXh3/OWP8Axz/Lf/GW6/4jFgKQh/8AnEv/AKar/ow/7GcQpfSE&#xA;E9lNpt/o+pxGfStUhktruIGh9OZDG9PmrUwkIBVvy/0/WvLEcPly5vZNb8v8SPL+ruC1xFGgLfU7&#xA;wjYlFH7qSgBA4kKQvKLJB/nqI08paZduCWs9d0iZKAE73scTdfFJGGKvz81m3S31e+t0+xDcSxrQ&#xA;U2VyBsPliqDxV6vf/wC5L/nHDTJE+JtD1qSFzt8KTB5CP+CuEwoeUYEuxV2KuxV2KuxV2KuxV2Ku&#xA;xV2KuxV2KuxV2KuxV2KuxV6x+ZddK/Kb8vtBFA1xDNqk696zEPGT9Fw33YUPJ8CUXpN0lpqtldSf&#xA;3cE8Ur/JHDH9WKpx5/tTY+fteikAkVNRuHXfZ43lLoduzIwOKvqTQPz4/LHU7aDlqqadcOq87S7R&#xA;4vTNPsmTj6W3iGyVsaUPzV82vJomhWflvVQG8wava6c19p8yM4glJ9T0pULcWrxFRiVCfT/lT+Xl&#xA;0q/X9HOoyJ0lvby/uXr3P724cCvemNLbKdL/ACC/Kf6lHcWmivp888YaSWxvb61PIr1/dToDSpoD&#xA;sMiyY55IlvIm1/Rbq7lvToGsXWnW9zcsJJ2t0CSweq+3NgkoBY9aZIMSzvy/qbWd4sbNS3mIWQHo&#xA;Cdg39cSoY7+dPmPy9qfl+w0ax1O0u7yXXdKjuIYLiKSSFY7gXLM6KWK/u7dz8VOmRZPgzVbpLvVL&#xA;y6QUS4nklUezuWHh44qhcVesflqDq35S/mBoJoXtoodUgXvWGryEfRbqPpwoeT4EuxV2KuxV2Kux&#xA;V2KuxV2KuxV2KuxV2KuxV2KuxV2KqlvBJcXEUEQrJM6xoPFmNB0xV6f/AM5GTxr56ttJhP8Ao+ja&#xA;bbWkaeGxk/4i64SgPLMCXYq9yl0azuBb6nqFnbXMOoJod3f+uj8lj0/TI57xY2FKNJFOC1SRxqT8&#xA;QGFDyWTS1j8qQ6lJp94stxevDBqZFLF444wXhX4amYMwP2vs9sCUJDdR2ssN5YTT217byLLCRQlH&#xA;jIZXWRSpDA7j4fpxV6Hp/wCbnnuPQ5L5fPLRajC1BpVzaCV5K13jlMUsZH+uVp91TaKZ9r35u/mV&#xA;pOgIbbztpGq3Ecv1c2Ebx290kahi0kjRSW0X2xQBKtQ4EsGu/N3mWOee6j1y2lvb5hPqd2uoSCGS&#xA;TiAjMjXsjSEcFX/edSAKdMVTPTru41ny562o6nd6tM+opYXV3pdmot/SuohHHA001tYhJmmYfEbm&#xA;nH9nuVUTpdq31abVoreKNzocl/AI1YSSXVrpVxFdySqTQMtxfADj+yq/tdSh4dgS7FXqn/OOc6P5&#xA;5utJl3g1nTbm0kU1I6LJX/gUOEILy+4gkt7iWCUUkhdo3Hgymh64EqeKuxV2KuxV2KuxV2KuxV2K&#xA;uxV2KuxV2KuxV2KuxVNvKXpf4q0b1qel9etvUr04+stfwxVlv/OQA/5C5r3/AEaf9QUOEoDzzAl2&#xA;KvfvNE6pYala2ychFb3bW4JANV0eO2YgDdgNOkWU7dsKEnt5/K0nlg/lP5w1EaQNNvjqugea7eL6&#xA;xbzJcxVCSx1RvTlRwyuG8Aem4SgL/wDJ7ySYUTRvzG0m7vmIURXfG1jJJ/nSW4I/4Hf2w0i05i8i&#xA;fl5+X2iabJ+YdiNV13Vbykdvb3MqxQ2iuqtMTEUDAKeW4PKvHbchVEeYfJ35QedfIF/5h/L+2Tyz&#xA;qug6hFDrEF/dzNbGzuZWhhuOcxl482KHanGjLQ/CSEsBXyZ+XtvCY9S89QjUATVLGwubu3FOn78+&#xA;jyr7Lt74UM28reafKNn5e/5Vr5ae41ebWNRtby51+WIWsMTW9zBO8ixMzOEjgtmqWIpucVTby3qm&#xA;kahM62c6vYxNrltZoKiunXN2Jppdx/vt+42pir55wJdir0P/AJx/BP5uaFQdPrZP/SHNhCCxHzZ6&#xA;J806z6P9z9eufT6/Z9Zqdd+mBKVYq7FXYq7FXYq7FXYq7FXYq7FXYq7FXYq7FXYq7FV8UskUqSxs&#xA;VkjYMjDqCDUHFXqn5+QR6ldeXvOtqB9V8xadE0pXcLcwgc1J8QrqtP8AJOEoDyjAl2KvUrLXWl8u&#xA;6LriPGLm246bdiYgRtc2CE2ol5Efu7mykaCT+bhTFDHNfnhudIksjHJNb6Vwm0PUiOTixum5Lazs&#xA;op8DOSDWiOHTuKKWIYq9u/L3yxfecfJlnqeq6XJrUXlqWa2traWUoLuxkVWeCFkdZBNbtVoyfhNQ&#xA;ldtih7V+SX5OeWbC28xDVLAJb+aIhGdBmZpBb2QJZYWkJ5mUVDOeWzU4n4eRaUF89/nj+VGmeT/O&#xA;d3beW7j61oC2v10yPKsptmE3oSWzuu5dZWQAEcqOte5wJY/5VvbHTfKus3S/71TxiC6nI6JIT6Nn&#xA;HXvcOjSTf8VRlQasaKqukOmj+Vda1cSK8zJ+hNOdSGDXF4vqX0w6/YgX0uQ6hhhQwbAl2KvV/wAh&#xA;IY9MuPMXna6UG18u6dKYi2wa5mHwKD4lUZf9kMIQXlUkjyyNJIeTuSzse5JqTgStxV2KuxV2KuxV&#xA;2KuxV2KuxV2KuxV2KuxV2KuxV2KuxV69+XD2/njyBqP5c3UiJrFmzaj5YkkIFXFWlgBPjVvoYn9n&#xA;Ch5PeWl1Z3U1pdxNBcwO0c0MgKsjqaMrA9CDgSo4qzDy9A+reQtf0q3XlfaZPBrccY3L28SPb3NB&#xA;0/d+qj/IHFVK212K2SXVbFPqsty9zayaZNE0ummzl/em3jZmd6xuwah3qVYEEbqqFtp13od5Ndo9&#xA;hfpEI4gCVuLWeO/idaBjTiwXl14shBPwsuKvTPL/AOZ+t+WvLxh0bR9Qs9FgcvCDHFd28cMkSyFj&#xA;IUSTm0x5lmkKhH4hdlOG0UyC+/NPzWIo11SLWls3WB57nSo4rSOSH0pp5vSuFYTDmsD0ZZFoI2Vg&#xA;aNja0wmw8u3/AJgi1Szkjmqken8jJFFYNJbxpcFn9QPdg85IuZcLI8jdKDqEpbpd9pXluAS3cUSW&#xA;sczGbToXa5u5XETrCZLlGVbd1c/EqrE5TkN9xiqU+ZkGm+SdE02RRFeanc3GtyW/eK3mVIbUGm3x&#xA;rE7/AOqVxVhuKq1nZ3V7dw2dpE091cOscEKCrO7GiqAO5OKvWPzHe38j+QdO/Lm1kR9XvGXUfM8k&#xA;ZBAdqNFBUeFF+hQf2sKHkOBLsVdirsVdirsVdirsVdirsVdirsVdirsVdirsVdirsVROnahe6bfW&#xA;9/YzNb3lq6ywTJsyupqCMVevvqXkX82YIxrFxF5a8+ogjF+wC2V6V2UPU7N23NR25D4QUMWvvyT8&#xA;56VqLxa0LfTdKio02tyyg2nAnqhH7x3b9mMLzPhjS29a8s/lNpEXlG5fWLlvKfky4jpPqV9IlrqG&#xA;pSAEpJKGr6UKk1itlqzGhf3VeKaT5hsdEutR8vz3J1fypPch/Xhj4nnA37m9ghuBTlT7Ucgoy/C3&#xA;YgJen3/5Y+TZ/ID6z5U1BdSgliaPWp1HALWQzR3PoVJga2fiHSn9zy/a3JpFvMl8keaINE1G9iE8&#xA;2m2ZlS6lsmEkccsY4yxXMJaKWKg+0zL07Eb4Es9vPL81josmsa3Jq1pYJJEtvcGaDTrNZYw3CON1&#xA;F3eXLVZiBHEvHft8WKp3a/lxpbfl9LrHnrW5tOmuSJ1ku5GnKtHX0I2SVjJN6atJSNaVZ36jgQaR&#xA;byjV/MWnaxcWPlq0uv0T5TjuzNLdzRbtLMaS3k0FsCPhTaOKMURfhHc4EvY/N/5P6bceVbW70K6b&#xA;zV5Tt4ljg1WxdbrULAqNyqrxM1uTvJbtRkJJTuMKHk2l/kx511jURBpEUN9pz/FHrUcoFkUrSrOf&#xA;jVh+1GV5juuNLbLE1PyL+U0Eg0eeLzN58dDG1+KNZ2XIUYJQnk3bY1PfiPhKryHUdQvdSvri/vpm&#xA;uLy6dpZ5n3ZnY1JOBKGxV2KuxV2KuxV2KuxV2KuxV2KuxV2KuxV2KuxV2KuxVcihnVSwQMQCzVoK&#xA;9zSpxV6Bon5R/pK0S6HmLTZ1an+h6fMlzeCvSsEr2oH/AAeGkWmsfka60ko+l+QtT1u4FGW81Qco&#xA;PD4bW0qh/wBnK49sVTGXUPzoE8V3B5bazubVeFpf30EZ+rLTpbxziOyg4j9qOBW8WxViuu6bqGoX&#xA;p1Hz/wCcIpLofCYUuDq17T+RFhZoI+nRpVAwJZ15d0z8spNOih8i+YrCx1xhxuW8w2iyS3HLrCGn&#xA;/cRo3QiJCxG1ThQg9c8oXflS4bU7m01DyfOw4yatoTHUNJkB/niZ454UY/suzDwXFWN6Ybqzi1ZN&#xA;L856NPaa1afUb6O5F3bExhQqN6TwIodFFAwJ6nxxVMPNesX2v3GmTax5v0S0stFEi6Za2v1y5MZk&#xA;kMhk4JAweSpUcmIHwjamBKa6L5TvfNk8epW1pqHm+SMcYtV1xv0do8QH++oEaSaVFI+yjKPFcKEb&#xA;5k078sE0t4PPPmCwvdejFLeXy5arHLCFFBAxh/cSInRfURWA2rirB9C0rVNNvRqH5e+cofrJ6Qm4&#xA;Ok3hp+w8dwyQydeiysMCWUpqP5yySTXF55WN7cXSlLy/sII1+tCn2bqOAS2M4IP2ngL+DDChJpPI&#xA;N9qfJtQ8j6pok3VrvT1P1ff+a2uyorX+WdR4LiqW6x+Uv6OtTdP5j0u3UVpaX8ywXhp4QQtdA+H2&#xA;saW2BSoEldFdZFViBIteLAGlRyCmh9xgSsxV2KuxV2KuxV2KuxV2KuxV2KuxV2KuxV2KuxV2KuxV&#xA;2KuxV2KuxV2Ksy8k/mt5u8pOIbW5N5pLfDPpN0TJbsh+0qg19Mkd1+muNrTJPOPkzy55o8vTeevI&#xA;MPoQW++v+X/92WjdTLGo/wB199tqbilCFKG/J/kvy35X8uQ+evPsRnjuN9A8vGga6agKyyA/7r3r&#xA;QilNzWoUqsa87fmt5u82u0V1cmz0kfDBpNqTHbqg+yrKP7wgd2+imC00w3FXYq7FXYq7FXYq7FXY&#xA;q7FXYq7FXYq7FXYq7FXYq7FXYq7FXYq7FXYq7FXYq7FXYq7FXYq7FWU/lz56vvJnmWHVIAZbN/3W&#xA;o2faa3Y/EtDtyHVT4+1cVa/MXz3f+c/Mk2qTgxWifutOs6/DDbqfhXbbkerHx9qYqxfFXYq7FXYq&#xA;7FXYq7FXYq7FXYq7FXYq7FXYq7FXYq7FXYq7FXYq7FXYq7FXYq7FXYq7FXYq7FXYq7FXYq7FXYq7&#xA;FXYq7FXYq7FXYq7FXYq7FXYq7FXYq7FXuv8A0Jt+bn+/tK/6SZf+qOKu/wChNvzc/wB/aV/0ky/9&#xA;UcVd/wBCbfm5/v7Sv+kmX/qjirv+hNvzc/39pX/STL/1RxV3/Qm35uf7+0r/AKSZf+qOKu/6E2/N&#xA;z/f2lf8ASTL/ANUcVd/0Jt+bn+/tK/6SZf8Aqjirv+hNvzc/39pX/STL/wBUcVd/0Jt+bn+/tK/6&#xA;SZf+qOKu/wChNvzc/wB/aV/0ky/9UcVd/wBCbfm5/v7Sv+kmX/qjirv+hNvzc/39pX/STL/1RxV3&#xA;/Qm35uf7+0r/AKSZf+qOKu/6E2/Nz/f2lf8ASTL/ANUcVd/0Jt+bn+/tK/6SZf8Aqjirv+hNvzc/&#xA;39pX/STL/wBUcVd/0Jt+bn+/tK/6SZf+qOKu/wChNvzc/wB/aV/0ky/9UcVd/wBCbfm5/v7Sv+km&#xA;X/qjirv+hNvzc/39pX/STL/1RxV3/Qm35uf7+0r/AKSZf+qOKu/6E2/Nz/f2lf8ASTL/ANUcVd/0&#xA;Jt+bn+/tK/6SZf8Aqjirv+hNvzc/39pX/STL/wBUcVd/0Jt+bn+/tK/6SZf+qOKu/wChNvzc/wB/&#xA;aV/0ky/9UcVd/wBCbfm5/v7Sv+kmX/qjirv+hNvzc/39pX/STL/1RxV3/Qm35uf7+0r/AKSZf+qO&#xA;Ku/6E2/Nz/f2lf8ASTL/ANUcVd/0Jt+bn+/tK/6SZf8Aqjirv+hNvzc/39pX/STL/wBUcVf/2Q==</xmpGImg:image>
               </rdf:li>
            </rdf:Alt>
         </xmp:Thumbnails>
      </rdf:Description>
      <rdf:Description rdf:about=""
            xmlns:xmpMM="http://ns.adobe.com/xap/1.0/mm/"
            xmlns:stRef="http://ns.adobe.com/xap/1.0/sType/ResourceRef#"
            xmlns:stEvt="http://ns.adobe.com/xap/1.0/sType/ResourceEvent#">
         <xmpMM:OriginalDocumentID>uuid:9E3E5C9A8C81DB118734DB58FDDE4BA7</xmpMM:OriginalDocumentID>
         <xmpMM:DocumentID>xmp.did:706C03050A20681180839B841010530F</xmpMM:DocumentID>
         <xmpMM:InstanceID>xmp.iid:706C03050A20681180839B841010530F</xmpMM:InstanceID>
         <xmpMM:RenditionClass>proof:pdf</xmpMM:RenditionClass>
         <xmpMM:DerivedFrom rdf:parseType="Resource">
            <stRef:instanceID>uuid:dd478171-20ef-7f49-9dd2-6d4482da845e</stRef:instanceID>
            <stRef:documentID>xmp.did:F77F117407206811822AB6948B0842AB</stRef:documentID>
            <stRef:originalDocumentID>uuid:9E3E5C9A8C81DB118734DB58FDDE4BA7</stRef:originalDocumentID>
            <stRef:renditionClass>proof:pdf</stRef:renditionClass>
         </xmpMM:DerivedFrom>
         <xmpMM:History>
            <rdf:Seq>
               <rdf:li rdf:parseType="Resource">
                  <stEvt:action>saved</stEvt:action>
                  <stEvt:instanceID>xmp.iid:F77F117407206811822AB6948B0842AB</stEvt:instanceID>
                  <stEvt:when>2013-04-26T19:30:55+12:00</stEvt:when>
                  <stEvt:softwareAgent>Adobe Illustrator CS6 (Macintosh)</stEvt:softwareAgent>
                  <stEvt:changed>/</stEvt:changed>
               </rdf:li>
               <rdf:li rdf:parseType="Resource">
                  <stEvt:action>saved</stEvt:action>
                  <stEvt:instanceID>xmp.iid:706C03050A20681180839B841010530F</stEvt:instanceID>
                  <stEvt:when>2013-10-08T19:42:31+13:00</stEvt:when>
                  <stEvt:softwareAgent>Adobe Illustrator CS6 (Macintosh)</stEvt:softwareAgent>
                  <stEvt:changed>/</stEvt:changed>
               </rdf:li>
            </rdf:Seq>
         </xmpMM:History>
      </rdf:Description>
      <rdf:Description rdf:about=""
            xmlns:xmpTPg="http://ns.adobe.com/xap/1.0/t/pg/"
            xmlns:stDim="http://ns.adobe.com/xap/1.0/sType/Dimensions#"
            xmlns:xmpG="http://ns.adobe.com/xap/1.0/g/">
         <xmpTPg:NPages>1</xmpTPg:NPages>
         <xmpTPg:HasVisibleTransparency>False</xmpTPg:HasVisibleTransparency>
         <xmpTPg:HasVisibleOverprint>False</xmpTPg:HasVisibleOverprint>
         <xmpTPg:MaxPageSize rdf:parseType="Resource">
            <stDim:w>296.999959</stDim:w>
            <stDim:h>210.001652</stDim:h>
            <stDim:unit>Millimeters</stDim:unit>
         </xmpTPg:MaxPageSize>
         <xmpTPg:PlateNames>
            <rdf:Seq>
               <rdf:li>Cyan</rdf:li>
               <rdf:li>Magenta</rdf:li>
               <rdf:li>Yellow</rdf:li>
               <rdf:li>Black</rdf:li>
            </rdf:Seq>
         </xmpTPg:PlateNames>
         <xmpTPg:SwatchGroups>
            <rdf:Seq>
               <rdf:li rdf:parseType="Resource">
                  <xmpG:groupName>Default Swatch Group</xmpG:groupName>
                  <xmpG:groupType>0</xmpG:groupType>
                  <xmpG:Colorants>
                     <rdf:Seq>
                        <rdf:li rdf:parseType="Resource">
                           <xmpG:swatchName>White</xmpG:swatchName>
                           <xmpG:mode>RGB</xmpG:mode>
                           <xmpG:type>PROCESS</xmpG:type>
                           <xmpG:red>255</xmpG:red>
                           <xmpG:green>255</xmpG:green>
                           <xmpG:blue>255</xmpG:blue>
                        </rdf:li>
                        <rdf:li rdf:parseType="Resource">
                           <xmpG:swatchName>Black</xmpG:swatchName>
                           <xmpG:mode>RGB</xmpG:mode>
                           <xmpG:type>PROCESS</xmpG:type>
                           <xmpG:red>0</xmpG:red>
                           <xmpG:green>0</xmpG:green>
                           <xmpG:blue>0</xmpG:blue>
                        </rdf:li>
                        <rdf:li rdf:parseType="Resource">
                           <xmpG:swatchName>RGB Red</xmpG:swatchName>
                           <xmpG:mode>RGB</xmpG:mode>
                           <xmpG:type>PROCESS</xmpG:type>
                           <xmpG:red>255</xmpG:red>
                           <xmpG:green>0</xmpG:green>
                           <xmpG:blue>0</xmpG:blue>
                        </rdf:li>
                        <rdf:li rdf:parseType="Resource">
                           <xmpG:swatchName>RGB Yellow</xmpG:swatchName>
                           <xmpG:mode>RGB</xmpG:mode>
                           <xmpG:type>PROCESS</xmpG:type>
                           <xmpG:red>255</xmpG:red>
                           <xmpG:green>255</xmpG:green>
                           <xmpG:blue>0</xmpG:blue>
                        </rdf:li>
                        <rdf:li rdf:parseType="Resource">
                           <xmpG:swatchName>RGB Green</xmpG:swatchName>
                           <xmpG:mode>RGB</xmpG:mode>
                           <xmpG:type>PROCESS</xmpG:type>
                           <xmpG:red>0</xmpG:red>
                           <xmpG:green>255</xmpG:green>
                           <xmpG:blue>0</xmpG:blue>
                        </rdf:li>
                        <rdf:li rdf:parseType="Resource">
                           <xmpG:swatchName>RGB Cyan</xmpG:swatchName>
                           <xmpG:mode>RGB</xmpG:mode>
                           <xmpG:type>PROCESS</xmpG:type>
                           <xmpG:red>0</xmpG:red>
                           <xmpG:green>255</xmpG:green>
                           <xmpG:blue>255</xmpG:blue>
                        </rdf:li>
                        <rdf:li rdf:parseType="Resource">
                           <xmpG:swatchName>RGB Blue</xmpG:swatchName>
                           <xmpG:mode>RGB</xmpG:mode>
                           <xmpG:type>PROCESS</xmpG:type>
                           <xmpG:red>0</xmpG:red>
                           <xmpG:green>0</xmpG:green>
                           <xmpG:blue>255</xmpG:blue>
                        </rdf:li>
                        <rdf:li rdf:parseType="Resource">
                           <xmpG:swatchName>RGB Magenta</xmpG:swatchName>
                           <xmpG:mode>RGB</xmpG:mode>
                           <xmpG:type>PROCESS</xmpG:type>
                           <xmpG:red>255</xmpG:red>
                           <xmpG:green>0</xmpG:green>
                           <xmpG:blue>255</xmpG:blue>
                        </rdf:li>
                        <rdf:li rdf:parseType="Resource">
                           <xmpG:swatchName>R=193 G=39 B=45</xmpG:swatchName>
                           <xmpG:mode>RGB</xmpG:mode>
                           <xmpG:type>PROCESS</xmpG:type>
                           <xmpG:red>193</xmpG:red>
                           <xmpG:green>39</xmpG:green>
                           <xmpG:blue>45</xmpG:blue>
                        </rdf:li>
                        <rdf:li rdf:parseType="Resource">
                           <xmpG:swatchName>R=237 G=28 B=36</xmpG:swatchName>
                           <xmpG:mode>RGB</xmpG:mode>
                           <xmpG:type>PROCESS</xmpG:type>
                           <xmpG:red>237</xmpG:red>
                           <xmpG:green>28</xmpG:green>
                           <xmpG:blue>36</xmpG:blue>
                        </rdf:li>
                        <rdf:li rdf:parseType="Resource">
                           <xmpG:swatchName>R=241 G=90 B=36</xmpG:swatchName>
                           <xmpG:mode>RGB</xmpG:mode>
                           <xmpG:type>PROCESS</xmpG:type>
                           <xmpG:red>241</xmpG:red>
                           <xmpG:green>90</xmpG:green>
                           <xmpG:blue>36</xmpG:blue>
                        </rdf:li>
                        <rdf:li rdf:parseType="Resource">
                           <xmpG:swatchName>R=247 G=147 B=30</xmpG:swatchName>
                           <xmpG:mode>RGB</xmpG:mode>
                           <xmpG:type>PROCESS</xmpG:type>
                           <xmpG:red>247</xmpG:red>
                           <xmpG:green>147</xmpG:green>
                           <xmpG:blue>30</xmpG:blue>
                        </rdf:li>
                        <rdf:li rdf:parseType="Resource">
                           <xmpG:swatchName>R=251 G=176 B=59</xmpG:swatchName>
                           <xmpG:mode>RGB</xmpG:mode>
                           <xmpG:type>PROCESS</xmpG:type>
                           <xmpG:red>251</xmpG:red>
                           <xmpG:green>176</xmpG:green>
                           <xmpG:blue>59</xmpG:blue>
                        </rdf:li>
                        <rdf:li rdf:parseType="Resource">
                           <xmpG:swatchName>R=252 G=238 B=33</xmpG:swatchName>
                           <xmpG:mode>RGB</xmpG:mode>
                           <xmpG:type>PROCESS</xmpG:type>
                           <xmpG:red>252</xmpG:red>
                           <xmpG:green>238</xmpG:green>
                           <xmpG:blue>33</xmpG:blue>
                        </rdf:li>
                        <rdf:li rdf:parseType="Resource">
                           <xmpG:swatchName>R=217 G=224 B=33</xmpG:swatchName>
                           <xmpG:mode>RGB</xmpG:mode>
                           <xmpG:type>PROCESS</xmpG:type>
                           <xmpG:red>217</xmpG:red>
                           <xmpG:green>224</xmpG:green>
                           <xmpG:blue>33</xmpG:blue>
                        </rdf:li>
                        <rdf:li rdf:parseType="Resource">
                           <xmpG:swatchName>R=140 G=198 B=63</xmpG:swatchName>
                           <xmpG:mode>RGB</xmpG:mode>
                           <xmpG:type>PROCESS</xmpG:type>
                           <xmpG:red>140</xmpG:red>
                           <xmpG:green>198</xmpG:green>
                           <xmpG:blue>63</xmpG:blue>
                        </rdf:li>
                        <rdf:li rdf:parseType="Resource">
                           <xmpG:swatchName>R=57 G=181 B=74</xmpG:swatchName>
                           <xmpG:mode>RGB</xmpG:mode>
                           <xmpG:type>PROCESS</xmpG:type>
                           <xmpG:red>57</xmpG:red>
                           <xmpG:green>181</xmpG:green>
                           <xmpG:blue>74</xmpG:blue>
                        </rdf:li>
                        <rdf:li rdf:parseType="Resource">
                           <xmpG:swatchName>R=0 G=146 B=69</xmpG:swatchName>
                           <xmpG:mode>RGB</xmpG:mode>
                           <xmpG:type>PROCESS</xmpG:type>
                           <xmpG:red>0</xmpG:red>
                           <xmpG:green>146</xmpG:green>
                           <xmpG:blue>69</xmpG:blue>
                        </rdf:li>
                        <rdf:li rdf:parseType="Resource">
                           <xmpG:swatchName>R=0 G=104 B=55</xmpG:swatchName>
                           <xmpG:mode>RGB</xmpG:mode>
                           <xmpG:type>PROCESS</xmpG:type>
                           <xmpG:red>0</xmpG:red>
                           <xmpG:green>104</xmpG:green>
                           <xmpG:blue>55</xmpG:blue>
                        </rdf:li>
                        <rdf:li rdf:parseType="Resource">
                           <xmpG:swatchName>R=34 G=181 B=115</xmpG:swatchName>
                           <xmpG:mode>RGB</xmpG:mode>
                           <xmpG:type>PROCESS</xmpG:type>
                           <xmpG:red>34</xmpG:red>
                           <xmpG:green>181</xmpG:green>
                           <xmpG:blue>115</xmpG:blue>
                        </rdf:li>
                        <rdf:li rdf:parseType="Resource">
                           <xmpG:swatchName>R=0 G=169 B=157</xmpG:swatchName>
                           <xmpG:mode>RGB</xmpG:mode>
                           <xmpG:type>PROCESS</xmpG:type>
                           <xmpG:red>0</xmpG:red>
                           <xmpG:green>169</xmpG:green>
                           <xmpG:blue>157</xmpG:blue>
                        </rdf:li>
                        <rdf:li rdf:parseType="Resource">
                           <xmpG:swatchName>R=41 G=171 B=226</xmpG:swatchName>
                           <xmpG:mode>RGB</xmpG:mode>
                           <xmpG:type>PROCESS</xmpG:type>
                           <xmpG:red>41</xmpG:red>
                           <xmpG:green>171</xmpG:green>
                           <xmpG:blue>226</xmpG:blue>
                        </rdf:li>
                        <rdf:li rdf:parseType="Resource">
                           <xmpG:swatchName>R=0 G=113 B=188</xmpG:swatchName>
                           <xmpG:mode>RGB</xmpG:mode>
                           <xmpG:type>PROCESS</xmpG:type>
                           <xmpG:red>0</xmpG:red>
                           <xmpG:green>113</xmpG:green>
                           <xmpG:blue>188</xmpG:blue>
                        </rdf:li>
                        <rdf:li rdf:parseType="Resource">
                           <xmpG:swatchName>R=46 G=49 B=146</xmpG:swatchName>
                           <xmpG:mode>RGB</xmpG:mode>
                           <xmpG:type>PROCESS</xmpG:type>
                           <xmpG:red>46</xmpG:red>
                           <xmpG:green>49</xmpG:green>
                           <xmpG:blue>146</xmpG:blue>
                        </rdf:li>
                        <rdf:li rdf:parseType="Resource">
                           <xmpG:swatchName>R=27 G=20 B=100</xmpG:swatchName>
                           <xmpG:mode>RGB</xmpG:mode>
                           <xmpG:type>PROCESS</xmpG:type>
                           <xmpG:red>27</xmpG:red>
                           <xmpG:green>20</xmpG:green>
                           <xmpG:blue>100</xmpG:blue>
                        </rdf:li>
                        <rdf:li rdf:parseType="Resource">
                           <xmpG:swatchName>R=102 G=45 B=145</xmpG:swatchName>
                           <xmpG:mode>RGB</xmpG:mode>
                           <xmpG:type>PROCESS</xmpG:type>
                           <xmpG:red>102</xmpG:red>
                           <xmpG:green>45</xmpG:green>
                           <xmpG:blue>145</xmpG:blue>
                        </rdf:li>
                        <rdf:li rdf:parseType="Resource">
                           <xmpG:swatchName>R=147 G=39 B=143</xmpG:swatchName>
                           <xmpG:mode>RGB</xmpG:mode>
                           <xmpG:type>PROCESS</xmpG:type>
                           <xmpG:red>147</xmpG:red>
                           <xmpG:green>39</xmpG:green>
                           <xmpG:blue>143</xmpG:blue>
                        </rdf:li>
                        <rdf:li rdf:parseType="Resource">
                           <xmpG:swatchName>R=158 G=0 B=93</xmpG:swatchName>
                           <xmpG:mode>RGB</xmpG:mode>
                           <xmpG:type>PROCESS</xmpG:type>
                           <xmpG:red>158</xmpG:red>
                           <xmpG:green>0</xmpG:green>
                           <xmpG:blue>93</xmpG:blue>
                        </rdf:li>
                        <rdf:li rdf:parseType="Resource">
                           <xmpG:swatchName>R=212 G=20 B=90</xmpG:swatchName>
                           <xmpG:mode>RGB</xmpG:mode>
                           <xmpG:type>PROCESS</xmpG:type>
                           <xmpG:red>212</xmpG:red>
                           <xmpG:green>20</xmpG:green>
                           <xmpG:blue>90</xmpG:blue>
                        </rdf:li>
                        <rdf:li rdf:parseType="Resource">
                           <xmpG:swatchName>R=237 G=30 B=121</xmpG:swatchName>
                           <xmpG:mode>RGB</xmpG:mode>
                           <xmpG:type>PROCESS</xmpG:type>
                           <xmpG:red>237</xmpG:red>
                           <xmpG:green>30</xmpG:green>
                           <xmpG:blue>121</xmpG:blue>
                        </rdf:li>
                        <rdf:li rdf:parseType="Resource">
                           <xmpG:swatchName>R=199 G=178 B=153</xmpG:swatchName>
                           <xmpG:mode>RGB</xmpG:mode>
                           <xmpG:type>PROCESS</xmpG:type>
                           <xmpG:red>199</xmpG:red>
                           <xmpG:green>178</xmpG:green>
                           <xmpG:blue>153</xmpG:blue>
                        </rdf:li>
                        <rdf:li rdf:parseType="Resource">
                           <xmpG:swatchName>R=153 G=134 B=117</xmpG:swatchName>
                           <xmpG:mode>RGB</xmpG:mode>
                           <xmpG:type>PROCESS</xmpG:type>
                           <xmpG:red>153</xmpG:red>
                           <xmpG:green>134</xmpG:green>
                           <xmpG:blue>117</xmpG:blue>
                        </rdf:li>
                        <rdf:li rdf:parseType="Resource">
                           <xmpG:swatchName>R=115 G=99 B=87</xmpG:swatchName>
                           <xmpG:mode>RGB</xmpG:mode>
                           <xmpG:type>PROCESS</xmpG:type>
                           <xmpG:red>115</xmpG:red>
                           <xmpG:green>99</xmpG:green>
                           <xmpG:blue>87</xmpG:blue>
                        </rdf:li>
                        <rdf:li rdf:parseType="Resource">
                           <xmpG:swatchName>R=83 G=71 B=65</xmpG:swatchName>
                           <xmpG:mode>RGB</xmpG:mode>
                           <xmpG:type>PROCESS</xmpG:type>
                           <xmpG:red>83</xmpG:red>
                           <xmpG:green>71</xmpG:green>
                           <xmpG:blue>65</xmpG:blue>
                        </rdf:li>
                        <rdf:li rdf:parseType="Resource">
                           <xmpG:swatchName>R=198 G=156 B=109</xmpG:swatchName>
                           <xmpG:mode>RGB</xmpG:mode>
                           <xmpG:type>PROCESS</xmpG:type>
                           <xmpG:red>198</xmpG:red>
                           <xmpG:green>156</xmpG:green>
                           <xmpG:blue>109</xmpG:blue>
                        </rdf:li>
                        <rdf:li rdf:parseType="Resource">
                           <xmpG:swatchName>R=166 G=124 B=82</xmpG:swatchName>
                           <xmpG:mode>RGB</xmpG:mode>
                           <xmpG:type>PROCESS</xmpG:type>
                           <xmpG:red>166</xmpG:red>
                           <xmpG:green>124</xmpG:green>
                           <xmpG:blue>82</xmpG:blue>
                        </rdf:li>
                        <rdf:li rdf:parseType="Resource">
                           <xmpG:swatchName>R=140 G=98 B=57</xmpG:swatchName>
                           <xmpG:mode>RGB</xmpG:mode>
                           <xmpG:type>PROCESS</xmpG:type>
                           <xmpG:red>140</xmpG:red>
                           <xmpG:green>98</xmpG:green>
                           <xmpG:blue>57</xmpG:blue>
                        </rdf:li>
                        <rdf:li rdf:parseType="Resource">
                           <xmpG:swatchName>R=117 G=76 B=36</xmpG:swatchName>
                           <xmpG:mode>RGB</xmpG:mode>
                           <xmpG:type>PROCESS</xmpG:type>
                           <xmpG:red>117</xmpG:red>
                           <xmpG:green>76</xmpG:green>
                           <xmpG:blue>36</xmpG:blue>
                        </rdf:li>
                        <rdf:li rdf:parseType="Resource">
                           <xmpG:swatchName>R=96 G=56 B=19</xmpG:swatchName>
                           <xmpG:mode>RGB</xmpG:mode>
                           <xmpG:type>PROCESS</xmpG:type>
                           <xmpG:red>96</xmpG:red>
                           <xmpG:green>56</xmpG:green>
                           <xmpG:blue>19</xmpG:blue>
                        </rdf:li>
                        <rdf:li rdf:parseType="Resource">
                           <xmpG:swatchName>R=66 G=33 B=11</xmpG:swatchName>
                           <xmpG:mode>RGB</xmpG:mode>
                           <xmpG:type>PROCESS</xmpG:type>
                           <xmpG:red>66</xmpG:red>
                           <xmpG:green>33</xmpG:green>
                           <xmpG:blue>11</xmpG:blue>
                        </rdf:li>
                     </rdf:Seq>
                  </xmpG:Colorants>
               </rdf:li>
               <rdf:li rdf:parseType="Resource">
                  <xmpG:groupName>Cold</xmpG:groupName>
                  <xmpG:groupType>1</xmpG:groupType>
                  <xmpG:Colorants>
                     <rdf:Seq>
                        <rdf:li rdf:parseType="Resource">
                           <xmpG:swatchName>C=56 M=0 Y=20 K=0</xmpG:swatchName>
                           <xmpG:mode>RGB</xmpG:mode>
                           <xmpG:type>PROCESS</xmpG:type>
                           <xmpG:red>101</xmpG:red>
                           <xmpG:green>200</xmpG:green>
                           <xmpG:blue>208</xmpG:blue>
                        </rdf:li>
                        <rdf:li rdf:parseType="Resource">
                           <xmpG:swatchName>C=51 M=43 Y=0 K=0</xmpG:swatchName>
                           <xmpG:mode>RGB</xmpG:mode>
                           <xmpG:type>PROCESS</xmpG:type>
                           <xmpG:red>131</xmpG:red>
                           <xmpG:green>139</xmpG:green>
                           <xmpG:blue>197</xmpG:blue>
                        </rdf:li>
                        <rdf:li rdf:parseType="Resource">
                           <xmpG:swatchName>C=26 M=41 Y=0 K=0</xmpG:swatchName>
                           <xmpG:mode>RGB</xmpG:mode>
                           <xmpG:type>PROCESS</xmpG:type>
                           <xmpG:red>186</xmpG:red>
                           <xmpG:green>155</xmpG:green>
                           <xmpG:blue>201</xmpG:blue>
                        </rdf:li>
                     </rdf:Seq>
                  </xmpG:Colorants>
               </rdf:li>
               <rdf:li rdf:parseType="Resource">
                  <xmpG:groupName>Grays</xmpG:groupName>
                  <xmpG:groupType>1</xmpG:groupType>
                  <xmpG:Colorants>
                     <rdf:Seq>
                        <rdf:li rdf:parseType="Resource">
                           <xmpG:swatchName>R=0 G=0 B=0</xmpG:swatchName>
                           <xmpG:mode>RGB</xmpG:mode>
                           <xmpG:type>PROCESS</xmpG:type>
                           <xmpG:red>0</xmpG:red>
                           <xmpG:green>0</xmpG:green>
                           <xmpG:blue>0</xmpG:blue>
                        </rdf:li>
                        <rdf:li rdf:parseType="Resource">
                           <xmpG:swatchName>R=26 G=26 B=26</xmpG:swatchName>
                           <xmpG:mode>RGB</xmpG:mode>
                           <xmpG:type>PROCESS</xmpG:type>
                           <xmpG:red>26</xmpG:red>
                           <xmpG:green>26</xmpG:green>
                           <xmpG:blue>26</xmpG:blue>
                        </rdf:li>
                        <rdf:li rdf:parseType="Resource">
                           <xmpG:swatchName>R=51 G=51 B=51</xmpG:swatchName>
                           <xmpG:mode>RGB</xmpG:mode>
                           <xmpG:type>PROCESS</xmpG:type>
                           <xmpG:red>51</xmpG:red>
                           <xmpG:green>51</xmpG:green>
                           <xmpG:blue>51</xmpG:blue>
                        </rdf:li>
                        <rdf:li rdf:parseType="Resource">
                           <xmpG:swatchName>R=77 G=77 B=77</xmpG:swatchName>
                           <xmpG:mode>RGB</xmpG:mode>
                           <xmpG:type>PROCESS</xmpG:type>
                           <xmpG:red>77</xmpG:red>
                           <xmpG:green>77</xmpG:green>
                           <xmpG:blue>77</xmpG:blue>
                        </rdf:li>
                        <rdf:li rdf:parseType="Resource">
                           <xmpG:swatchName>R=102 G=102 B=102</xmpG:swatchName>
                           <xmpG:mode>RGB</xmpG:mode>
                           <xmpG:type>PROCESS</xmpG:type>
                           <xmpG:red>102</xmpG:red>
                           <xmpG:green>102</xmpG:green>
                           <xmpG:blue>102</xmpG:blue>
                        </rdf:li>
                        <rdf:li rdf:parseType="Resource">
                           <xmpG:swatchName>R=128 G=128 B=128</xmpG:swatchName>
                           <xmpG:mode>RGB</xmpG:mode>
                           <xmpG:type>PROCESS</xmpG:type>
                           <xmpG:red>128</xmpG:red>
                           <xmpG:green>128</xmpG:green>
                           <xmpG:blue>128</xmpG:blue>
                        </rdf:li>
                        <rdf:li rdf:parseType="Resource">
                           <xmpG:swatchName>R=153 G=153 B=153</xmpG:swatchName>
                           <xmpG:mode>RGB</xmpG:mode>
                           <xmpG:type>PROCESS</xmpG:type>
                           <xmpG:red>153</xmpG:red>
                           <xmpG:green>153</xmpG:green>
                           <xmpG:blue>153</xmpG:blue>
                        </rdf:li>
                        <rdf:li rdf:parseType="Resource">
                           <xmpG:swatchName>R=179 G=179 B=179</xmpG:swatchName>
                           <xmpG:mode>RGB</xmpG:mode>
                           <xmpG:type>PROCESS</xmpG:type>
                           <xmpG:red>179</xmpG:red>
                           <xmpG:green>179</xmpG:green>
                           <xmpG:blue>179</xmpG:blue>
                        </rdf:li>
                        <rdf:li rdf:parseType="Resource">
                           <xmpG:swatchName>R=204 G=204 B=204</xmpG:swatchName>
                           <xmpG:mode>RGB</xmpG:mode>
                           <xmpG:type>PROCESS</xmpG:type>
                           <xmpG:red>204</xmpG:red>
                           <xmpG:green>204</xmpG:green>
                           <xmpG:blue>204</xmpG:blue>
                        </rdf:li>
                        <rdf:li rdf:parseType="Resource">
                           <xmpG:swatchName>R=230 G=230 B=230</xmpG:swatchName>
                           <xmpG:mode>RGB</xmpG:mode>
                           <xmpG:type>PROCESS</xmpG:type>
                           <xmpG:red>230</xmpG:red>
                           <xmpG:green>230</xmpG:green>
                           <xmpG:blue>230</xmpG:blue>
                        </rdf:li>
                        <rdf:li rdf:parseType="Resource">
                           <xmpG:swatchName>R=242 G=242 B=242</xmpG:swatchName>
                           <xmpG:mode>RGB</xmpG:mode>
                           <xmpG:type>PROCESS</xmpG:type>
                           <xmpG:red>242</xmpG:red>
                           <xmpG:green>242</xmpG:green>
                           <xmpG:blue>242</xmpG:blue>
                        </rdf:li>
                     </rdf:Seq>
                  </xmpG:Colorants>
               </rdf:li>
            </rdf:Seq>
         </xmpTPg:SwatchGroups>
      </rdf:Description>
      <rdf:Description rdf:about=""
            xmlns:pdf="http://ns.adobe.com/pdf/1.3/">
         <pdf:Producer>Adobe PDF library 10.01</pdf:Producer>
      </rdf:Description>
      <rdf:Description rdf:about=""
            xmlns:xmpRights="http://ns.adobe.com/xap/1.0/rights/">
         <xmpRights:Marked>True</xmpRights:Marked>
         <xmpRights:WebStatement rdf:resource="http://www.ospreydawn.com"/>
         <xmpRights:UsageTerms>
            <rdf:Alt>
               <rdf:li xml:lang="x-default">This work is licensed under a &lt;a rel="license" href="http://creativecommons.org/licenses/by-nc-sa/3.0/"&gt;Creative Commons Attribution-NonCommercial-ShareAlike 3.0 Unported License&lt;/a&gt;.</rdf:li>
               <rdf:li xml:lang="en_us">This work is licensed under a &lt;a rel="license" href="http://creativecommons.org/licenses/by-nc-sa/3.0/"&gt;Creative Commons Attribution-NonCommercial-ShareAlike 3.0 Unported License&lt;/a&gt;.</rdf:li>
               <rdf:li xml:lang="en">This work is licensed under a &lt;a rel="license" href="http://creativecommons.org/licenses/by-nc-sa/3.0/"&gt;Creative Commons Attribution-NonCommercial-ShareAlike 3.0 Unported License&lt;/a&gt;.</rdf:li>
            </rdf:Alt>
         </xmpRights:UsageTerms>
      </rdf:Description>
      <rdf:Description rdf:about=""
            xmlns:cc="http://creativecommons.org/ns#">
         <cc:attributionName>Max O'Brien / Osprey Dawn</cc:attributionName>
         <cc:license rdf:resource="http://creativecommons.org/licenses/by-nc-sa/3.0/"/>
      </rdf:Description>
   </rdf:RDF>
</x:xmpmeta>
                                                                                                    
                                                                                                    
                                                                                                    
                                                                                                    
                                                                                                    
                                                                                                    
                                                                                                    
                                                                                                    
                                                                                                    
                                                                                                    
                                                                                                    
                                                                                                    
                                                                                                    
                                                                                                    
                                                                                                    
                                                                                                    
                                                                                                    
                                                                                                    
                                                                                                    
                                                                                                    
                           
<?xpacket end="w"?>
	</metadata>
<g id="Layer_3">
	<rect width="841.89" height="595.28"/>
</g>
<g id="Layer_2">
	<g>
		<g>
			<g>
				<path fill="#C4C8CB" d="M413.986,532.687c-19.928-28.134-40.132-33.757-80.384-44.959c-4.524-1.259-9.27-2.579-14.258-4.002
					c-53.788-15.333-71.022-41.557-81.395-78.897c-6.062-21.825-2.066-42.481,2.993-68.634c3.91-20.21,8.775-45.361,10.238-78.137
					c1.294-28.994-5.266-55.778-19.498-79.609c-10.696-17.909-21.969-27.354-22.081-27.448l-5.383-4.461l3.317-6.159
					c13.083-24.101,44.725-56.525,46.066-57.894l4.583-4.679l5.694,3.236c8.245,4.627,31.607,13.397,60.867,13.396
					c7.689-0.001,15.489-0.588,23.184-1.746c39.254-5.909,61.084-18.125,67.143-23.759l6.038-5.848l5.732,5.907
					c5.997,5.574,27.827,17.79,67.082,23.699c7.697,1.158,15.497,1.746,23.184,1.746c29.256,0,52.622-8.771,60.89-13.408
					l5.679-3.186l4.577,4.64c1.34,1.368,32.981,33.793,46.064,57.894l3.354,6.179l-5.438,4.456
					c-0.095,0.079-11.366,9.524-22.062,27.434c-14.232,23.831-20.792,50.615-19.498,79.609c1.463,32.776,6.328,57.928,10.237,78.138
					c5.059,26.151,9.055,46.809,2.992,68.633c-10.372,37.341-27.606,63.564-81.396,78.897c-4.988,1.423-9.733,2.743-14.258,4.002
					c-40.251,11.203-60.455,16.825-80.384,44.96l-6.939,9.796L413.986,532.687z"/>
				<path d="M626.844,144.438c-12.666-23.333-44.666-56-44.666-56s-36.373,20.666-89.52,12.666c-53.148-8-71.732-26-71.732-26
					s-18.584,18-71.731,26s-89.519-12.666-89.519-12.666s-32,32.667-44.667,56c0,0,48,39.334,44.667,114
					c-3.333,74.667-23.532,108.114-13.532,144.114s25.819,58.824,75.532,72.996c49.712,14.172,75.167,18.224,99.25,52.224
					c24.084-34,49.539-38.052,99.25-52.224c49.713-14.172,65.533-36.996,75.533-72.996s-10.199-69.447-13.531-144.114
					C578.844,183.771,626.844,144.438,626.844,144.438z"/>
			</g>
			<path fill="#C4C8CB" d="M420.926,494.855c-12.629,0-25.439-2.122-37.047-6.139c-9.35-3.235-17.72-7.656-22.963-12.128
				c-9.064-7.73-23.009-24.567-28.693-34.645c-4.779-8.473-5.027-19.153-4.911-23.352l0.035-1.258l-0.502-1.156
				c-1.8-4.146-7.775-18.207-9.093-25.017c-1.394-7.2-0.509-12.457-0.064-14.383l0.061-0.261l2.164-16.344l-0.039-0.568
				c-0.187-2.719-1.015-12.446-3.816-23.453c-3.756-14.756-2.151-58.745,9.917-80.139c12.633-22.396,27.881-33.769,35.846-38.555
				c9.197-5.528,25.073-12.136,28.162-13.404l0.262-0.114c2.565-1.261,15.694-7.34,30.684-7.34c14.975,0,28.118,6.08,30.601,7.299
				l0.261,0.119c1.978,0.813,18.841,7.788,28.246,13.441c7.966,4.789,23.216,16.166,35.847,38.555
				c12.068,21.395,13.673,65.383,9.916,80.139c-2.802,11.011-3.629,20.735-3.816,23.454l-0.039,0.568l2.163,16.338l0.061,0.262
				c0.445,1.93,1.329,7.187-0.064,14.388c-1.32,6.821-7.294,20.872-9.093,25.016l-0.501,1.156l0.033,1.255
				c0.118,4.2-0.126,14.873-4.909,23.354c-5.686,10.077-19.63,26.915-28.695,34.646c-5.243,4.471-13.612,8.891-22.962,12.126
				C446.365,492.733,433.555,494.855,420.926,494.855z"/>
			<g>
				<path fill="#C4C8CB" d="M317.661,284.952c-0.999-1.361-4.407-7.143-14.476-31.378l-1.872-4.506l-4.734,1.18
					c-5.156,1.285-12.679,2.816-19.243,2.816c-2.051,0-3.946-0.146-5.632-0.435c-10.857-1.862-25.046-6.636-38.504-27.196
					c-12.918-19.738-3.792-50.183,0.062-55.75c2.3-3.321,9-16.246,10.319-18.804l0.612-1.188l0.019-1.334
					c0.021-1.559,0.409-3.25,1.153-5.026l0.762-1.819l-0.531-1.898c-0.744-2.659-0.665-5.1,0.236-7.257
					c0.674-1.613,2.518-4.519,7.282-5.848c1.302-0.363,2.573-0.547,3.778-0.547c3.295,0,5.572,1.374,6.901,2.527l1.506,1.305
					l1.991,0.076c3.514,0.135,5.743,1.942,6.759,3.007l0.599,0.631l0.766,0.422c3.732,2.057,6.182,5.654,6.552,9.622l0.166,1.786
					l1.165,1.365c3.972,4.662,13.807,16.367,19.293,24.321c6.637,9.625,14.592,23.704,16.377,27.669
					c0.301,0.67,0.552,1.337,0.745,1.981l0.695,2.322l2.159,1.102c0.319,0.163,0.622,0.329,0.911,0.503l3.9,2.343l3.132-3.292
					c4.813-5.059,9.356-10.625,11.797-13.615c1.194-1.462,1.737-2.125,2.109-2.52c1.313-1.391,2.983-2.157,4.701-2.157
					c1.242,0,2.559,0.439,3.522,1.175c0.626,0.46,2.908,2.135,3.921,2.859c1.209,0.864,2.001,2.134,2.231,3.577
					c0.353,2.226-0.735,4.056-1.219,4.739c-4.112,5.898-15.178,17.514-21.409,23.915l-3.237,3.326l13.242,19.354l-3.101,2.463
					c-8.353,6.632-15.888,29.335-17.869,36.766l-2.288,8.578L317.661,284.952z M261.098,177.272c0.084,0.29-4.846-4.976-7.598-1.231
					c-1.5,2.041-2.308,8.947-2.308,8.947l-0.02,2.404c-0.062,7.405,1.348,13.939,4.192,19.421
					c6.827,13.156,15.61,20.242,26.853,21.662l4.332,0.547l1.635-4.049c0.14-0.346,0.306-0.692,0.493-1.027l3.004-5.387
					l-5.619-2.542c-2.481-1.123-6.227-2.817-8.76-6.934c-2.622-4.26-2.753-7.536-2.832-9.493l-0.151-3.752l-3.514-1.324
					c-2.895-1.092-6.446-2.964-8.208-7.783c-0.135-0.369-0.259-0.726-0.373-1.071l-0.755-2.283
					C260.714,181.094,260.169,174.063,261.098,177.272z"/>
				<path fill="#FFFFFF" d="M241.041,176.041c0,0-4.497,50.742,26.635,60.063c31.133,9.321,41.845-3.713,41.845-3.713l-6.845,7.072
					l-23.75,7.391l-24.25-8.75l-15.5-15.75l-4.75-26.5l1.5-13.75L241.041,176.041z"/>
				<polygon fill="#FFFFFF" points="270.926,146.604 302.176,204.104 312.676,218.854 318.426,211.447 304.676,184.854 
					276.176,144.604 				"/>
				<path fill="#FFFFFF" d="M319.426,230.229c0,0,3.75,11.5,9.125,21.875l-3.947,6.625l-11.178-21.375l-0.875-3.875L319.426,230.229
					z"/>
				<path fill="#FFFFFF" d="M257.821,133.247c0,0-2.75,0-1.938,1.688s3.686,2.348,4.938,0.312L257.821,133.247z"/>
				<path d="M354.676,192.854c-1.166-0.834-4-2.917-4-2.917s-1.167-1-2.583,0.5c-1.417,1.5-12.75,16.333-21.833,23.583
					c0,0-2.917-1.249-2.917-3.749s-4-2.667-5.667-4.167c-1.666-1.5-0.5-2.333-2-5.667c-1.5-3.333-9.333-17.333-16-27
					c-6.666-9.666-20.333-25.5-20.333-25.5s-1-2.166-1-3.5c0-1.333-0.834-5.666-6-7.5c0,0-2-4.666-8.667-2
					c0,0-1.667-6.333-8.833-4.333c-7.167,2-4.833,8.167-3.167,11.167c0,0-3.666,4.999-2.333,8.333c0,0-9,17.666-12,22
					c-3,4.333-12,32.666,0,51c12,18.333,24,23.333,35.667,25.333c11.666,2,31.333-4.666,31.333-4.666s13.666,33.666,17.333,38.666
					c0,0,8-30,19.334-39l-13-19c0,0,21-21,26.666-29.167C354.676,195.271,355.843,193.688,354.676,192.854z M277.01,149.104
					c0,0,9.333,11,20.5,29.167c11.166,18.167,17.169,32.5,17.169,32.5c-0.497,1.667-2.336,2.833-2.336,2.833s-12.5-24.667-19.106-36
					c-6.606-11.334-20.061-29.5-20.061-29.5C275.176,148.104,277.01,149.104,277.01,149.104z M255.593,133.438
					c1.162-0.665,3.167-0.333,4.25,0.834c1.084,1.167-0.333,2.166-1.917,2.833c-1.583,0.666-3.25,1-4.25-0.75
					S255.593,133.438,255.593,133.438z M252.176,164.604c2.5-4.667,2.334-12.833,2.334-12.833c2.833,4.833-1,14.333,2.833,18.333
					c2.433,2.538,6.5-0.167,8.167,4.333s-0.834,4,1.666,10.834c2.5,6.833,10.167,4.666,11.5,9c1.334,4.333-0.5,7.166,2.834,12.583
					c3.333,5.416,9.5,5.083,11.727,8.583c2.228,3.5,0.606,9.334,0,10.167c-0.605,0.833-1.394,2.667,0,3.667c1.395,1,2.273,3,2.273,3
					c-20.333,3.5-34.167-5.834-43.334-23.5C243.01,191.104,249.676,169.271,252.176,164.604z M335.676,240.771
					c-7.5,9-11.072,15-11.072,15c-2.431-3.459-9.439-21.532-9.439-21.532c7.179-3.135,11.179-7.802,11.179-7.802L335.676,240.771z
					 M257.01,236.438c-31.333-17.666-15.667-62.166-15.667-62.166c-4,22,0.947,42.896,13.5,53.333c14.833,12.333,38.134,7,38.134,7
					c-1.206,1.2,0.894,1.333,0.894,1.333c25.561-3,55.806-41.166,55.806-41.166C328.343,225.438,288.343,254.104,257.01,236.438z"/>
			</g>
			<g>
				<path fill="#C4C8CB" d="M553.164,499.743c-7.696,0-15.033-0.392-21.806-1.164c-29.18-3.328-57.249-22.411-58.43-23.222
					l-4.106-2.823l31.861-33.456l3.026,3.935c0.374,0.461,8.269,10.014,30.771,25.327c23.012,15.656,53.954,21.141,54.916,21.299
					l-0.078-0.013c0.089,0.016,7.917,1.339,18.921,2.914c-10.874,3.085-18.663,4.501-18.767,4.52
					C588.849,497.163,573.14,499.743,553.164,499.743z"/>
				<path fill="#FFFFFF" d="M496.801,460.104c0,0,40.125,24,69.75,29.5l-45.375-5.375l-33.75-17.875L496.801,460.104z"/>
				<path d="M532.676,471.854c-24.25-16.5-31.75-26.25-31.75-26.25l-25,26.25c0,0,28,19.25,56.5,22.5s57-1.5,57-1.5
					S556.926,488.354,532.676,471.854z M494.176,465.354c0,0,5.5-6.25,10-12c0,0,11,11.5,25.25,20.25s33.5,15.25,33.5,15.25
					S525.873,483.422,494.176,465.354z"/>
			</g>
			<g>
				<path fill="#C4C8CB" d="M515.444,283.521c-2.138-7.979-9.514-30.13-17.871-36.767l-3.102-2.462l13.242-19.354l-3.236-3.326
					c-6.234-6.405-17.303-18.024-21.384-23.879c-0.499-0.706-1.597-2.55-1.242-4.776c0.229-1.442,1.02-2.712,2.228-3.576
					c0.884-0.631,2.735-1.988,3.553-2.587l0.287-0.211c1.044-0.796,2.345-1.237,3.604-1.237c1.718,0,3.388,0.767,4.701,2.158
					c0.371,0.392,0.946,1.093,2.109,2.517c2.448,2.999,7.005,8.581,11.797,13.617l3.133,3.292l3.895-2.34
					c0.293-0.176,0.595-0.343,0.911-0.504l2.165-1.104l0.695-2.323c0.192-0.643,0.442-1.31,0.745-1.982
					c1.785-3.965,9.74-18.044,16.376-27.668c5.651-8.194,16.196-20.687,19.294-24.321l1.164-1.365l0.166-1.787
					c0.371-3.965,2.819-7.562,6.55-9.619l0.765-0.421l0.603-0.631c1.017-1.066,3.245-2.875,6.759-3.009l1.99-0.076l1.506-1.304
					c1.33-1.153,3.607-2.528,6.904-2.528c1.204,0,2.476,0.184,3.779,0.547c4.764,1.33,6.605,4.234,7.28,5.848
					c0.901,2.157,0.98,4.599,0.237,7.258l-0.531,1.898l0.761,1.819c0.744,1.776,1.133,3.466,1.154,5.025l0.018,1.335l0.613,1.188
					c1.319,2.556,8.019,15.48,10.318,18.804c3.854,5.566,12.981,36.011,0.062,55.75c-13.457,20.56-27.647,25.334-38.508,27.196
					c-1.685,0.289-3.579,0.435-5.63,0.435c-6.564,0-14.087-1.532-19.242-2.816l-4.734-1.18l-1.872,4.505
					c-10.062,24.228-13.476,30.015-14.476,31.379l-5.25,7.159L515.444,283.521z M579.791,183.416l-0.755,2.283
					c-0.114,0.345-0.237,0.702-0.373,1.071c-1.763,4.818-5.313,6.69-8.208,7.783l-3.515,1.324l-0.151,3.752
					c-0.078,1.957-0.211,5.233-2.832,9.493c-2.533,4.117-6.279,5.812-8.76,6.934l-5.619,2.542l3.004,5.387
					c0.188,0.335,0.354,0.682,0.494,1.027l1.635,4.049l4.332-0.547c11.242-1.42,20.025-8.506,26.853-21.662
					c2.845-5.482,4.255-12.016,4.192-19.421l-0.02-2.404c0,0-0.809-6.906-2.309-8.947c-2.752-3.745-7.682,1.521-7.598,1.231
					C581.091,174.102,580.546,181.132,579.791,183.416z"/>
				<path fill="#FFFFFF" d="M600.69,176.35c0,0,4.498,50.742-26.635,60.063s-41.845-3.713-41.845-3.713l6.845,7.072l23.75,7.391
					l24.25-8.75l15.5-15.75l4.75-26.5l-1.5-13.75L600.69,176.35z"/>
				<polygon fill="#FFFFFF" points="570.806,146.913 539.556,204.413 529.056,219.163 523.306,211.756 537.056,185.163 
					565.556,144.913 				"/>
				<path fill="#FFFFFF" d="M522.306,230.538c0,0-3.75,11.5-9.125,21.875l3.947,6.625l11.178-21.375l0.875-3.875L522.306,230.538z"
					/>
				<path fill="#FFFFFF" d="M583.89,133.247c0,0,2.75,0,1.938,1.688s-3.686,2.348-4.938,0.312L583.89,133.247z"/>
				<path d="M487.138,195.258c5.666,8.167,26.666,29.167,26.666,29.167l-13,19c11.334,9,19.334,39.001,19.334,39.001
					c3.667-5,17.333-38.667,17.333-38.667s19.666,6.666,31.332,4.666c11.668-2,23.669-7,35.669-25.333c12-18.334,3-46.667,0-51
					c-3-4.334-12-22-12-22c1.332-3.334-2.334-8.333-2.334-8.333c1.666-3,4-9.167-3.166-11.167c-7.167-2-8.835,4.333-8.835,4.333
					c-6.666-2.666-8.666,2-8.666,2c-5.166,1.834-6,6.167-6,7.5c0,1.334-1,3.5-1,3.5s-13.668,15.834-20.334,25.5
					c-6.665,9.667-14.499,23.667-15.999,27c-1.5,3.334-0.334,4.167-2,5.667s-5.667,1.667-5.667,4.167s-2.917,3.749-2.917,3.749
					c-9.083-7.25-20.416-22.083-21.832-23.583c-1.417-1.5-2.584-0.5-2.584-0.5s-2.834,2.083-4,2.917
					C485.972,193.675,487.138,195.258,487.138,195.258z M568.637,148.092c0,0-13.453,18.166-20.061,29.5
					c-6.605,11.333-19.105,36-19.105,36s-1.839-1.166-2.336-2.833c0,0,6.003-14.333,17.168-32.5
					c11.168-18.167,20.5-29.167,20.5-29.167S566.637,148.092,568.637,148.092z M588.138,136.342c-1,1.75-2.666,1.416-4.25,0.75
					c-1.584-0.667-3.001-1.666-1.916-2.833c1.082-1.167,3.088-1.499,4.25-0.834C586.222,133.425,589.138,134.592,588.138,136.342z
					 M589.638,208.759c-9.167,17.666-23.001,27-43.335,23.5c0,0,0.879-2,2.273-3s0.605-2.834,0-3.667s-2.227-6.667,0-10.167
					s8.395-3.167,11.727-8.583c3.334-5.417,1.5-8.25,2.834-12.583c1.334-4.334,9-2.167,11.5-9c2.5-6.834,0-6.334,1.666-10.834
					c1.668-4.5,5.735-1.795,8.169-4.333c3.832-4,0-13.5,2.832-18.333c0,0-0.166,8.166,2.334,12.833S598.804,191.092,589.638,208.759
					z M515.472,226.425c0,0,4,4.667,11.178,7.802c0,0-7.008,18.073-9.439,21.532c0,0-3.572-6-11.072-15L515.472,226.425z
					 M492.138,194.759c0,0,30.245,38.166,55.806,41.166c0,0,2.1-0.133,0.893-1.333c0,0,23.301,5.333,38.136-7
					c12.553-10.438,17.5-31.333,13.5-53.333c0,0,15.666,44.5-15.668,62.166C553.471,254.092,513.472,225.426,492.138,194.759z"/>
			</g>
			<g>
				<path fill="#C4C8CB" d="M287.479,499.73c-19.107-0.001-34.204-2.342-36.231-2.671c-6.188-1.382-11.926-2.884-16.947-4.315
					c5.589-0.829,11.603-1.877,17.29-3.176c2.053-0.373,32.257-6.061,54.57-21.241c23.014-15.659,30.705-25.243,30.779-25.338
					l3.042-3.954l3.369,3.593l28.469,29.894l-4.109,2.824c-1.179,0.81-29.249,19.893-58.428,23.221
					c-6.773,0.772-14.107,1.164-21.8,1.164H287.479z"/>
				<path fill="#FFFFFF" d="M354.306,466.664l-9.375-6.25c0,0-40.125,24-69.75,29.5"/>
				<path d="M252.388,492.842c0,0,28.5,4.75,57,1.5s56.5-22.5,56.5-22.5l-25-26.25c0,0-7.5,9.75-31.75,26.25
					S252.388,492.842,252.388,492.842z M278.888,488.842c0,0,19.25-6.5,33.5-15.25s25.25-20.25,25.25-20.25c4.5,5.75,10,12,10,12
					C315.94,483.408,278.888,488.842,278.888,488.842z"/>
			</g>
			<g>
				<path fill="#FFFFFF" d="M438.052,205.871c0,0,7.752,18.9,11.854,50.9s10.77,42.667,18.77,47.667s27.761,18.561,29.589,37.604
					h12.411l4.667,8.729l5.333-19v-28.333l-3.666-25.117l-7.334-20.884l-13.666-19.166l-15.334-13.5l-14.333-8.5l-22.667-10.4
					l-6.333-1.1L438.052,205.871z"/>
				<path fill="#FFFFFF" d="M392.075,327.826c0,0,1.102-2.722,5.935-3.055s21.166-1.334,26.666-1.167l1.834,27.167l30.166-2.167
					l-3.333-20.666l-4.834-6.667l-27.583-3l-25.25,3.167l-4.833,2.666L392.075,327.826z"/>
				<path fill="#FFFFFF" d="M423.759,485.354c0,0,4.984-11.391,11.75-16.166s15.167-9.167,15.167-9.167l-2.167,7.084l-10.416,8.442
					l-4.917,9.391L423.759,485.354z"/>
				<path fill="#FFFFFF" d="M422.135,373.729c0,0,15.208-4.291,15.328,3.877s3.213,12.331,3.213,12.331l1.167,2.334l16.083,11.417
					l3.417,15.25l-2.75,8l-4.834,4.667c0.583-3.833-1.333-10.167-1.333-10.167l-1.75,0.832l-2.5,5.5l-4.333-2l-4.349,3.084
					c1.651-6.083,0.015-11.417-1.151-13.583s-4.167-3-4.167-3s3-6.167,3.167-9.834s-2.732-8.908-2.732-8.908
					s-6.101-6.258-9.432-11.425c-3.33-5.167-6.669-2-6.669-2c0.875-1.042,2.416-2.167,2.416-2.167S422.468,377.188,422.135,373.729z
					"/>
				<path fill="#FFFFFF" d="M434.26,355.605c0,0-1.834,1.499-2.5,4.416c-0.667,2.917-3.417,4.084-4.584,4.584l10.167,0.416
					l2.583-5.583l2-5L434.26,355.605z"/>
				<path fill="#FFFFFF" d="M483.23,351.747c0,0,3.113,3.608,3.446,10.108s2.167,9.417,3,11.417s-0.68,7.004-0.84,10.585
					s0.006,6.331,0.006,6.331s2.668-1.667,3.084-2s4.333-7.5,4.333-7.5l-1-7.583l-2.75-20.833l-1-4l-8.279,1.667V351.747z"/>
				<path fill="#FFFFFF" d="M356.426,349.855c0,0-2.797,5.623-3.333,9.75c-0.535,4.127-3.583,13.834,1.667,20.25
					s11.749,6,14.916,4.333s10.97-5.005,18.985-0.544l-3.985-5.539l-18.25-0.75l-5.166-10.25l1.166-16.334L356.426,349.855z"/>
				<path fill="#FFFFFF" d="M441.914,427.138c0,0,1.679-0.198,2.929,1.968s1.916,7.166,1.916,7.166l2.667-0.666l-1.25-6.334
					l-2.506-3.5L441.914,427.138z"/>
				<path fill="#FFFFFF" d="M432.621,429.188c0,0,2.477-0.589,4.222,2.917s1.916,5.333,1.916,5.333l3.155-0.75l-1.405-5.083
					l-1.75-2.454L432.621,429.188z"/>
				<path fill="#FFFFFF" d="M427.093,431.021c0,0-2.25-0.667-1.667,1.25c0.584,1.917,2.417,2.918,2.75,4.584h3.584l-1-3.561
					l-1.25-1.689L427.093,431.021z"/>
				<path fill="#FFFFFF" d="M419.301,431.888c0,0-1.458-1.115-1.541,2.385c-0.084,3.5,0,3.916,0,3.916h3.5l-0.334-3.234v-1.659
					C420.926,433.295,420.427,431.644,419.301,431.888z"/>
				<path fill="#FFFFFF" d="M406.843,429.151c0,0-1.083,0.812,0,1.758s2.333,2.695,0.667,5.362l3.416,0.584l1.25-3.853l-1.75-3.23
					L406.843,429.151z"/>
				<path fill="#FFFFFF" d="M400.01,426.688c0,0-2.167,0.676-1.5,2.463c0.666,1.787-0.255,3.841-0.128,4.73
					c0.128,0.89,1.628,1.89,1.628,1.89l1.416-2.769l0.75-3.397L400.01,426.688z"/>
				<path fill="#FFFFFF" d="M390.397,422.151c0,0-1.388-0.547-0.888,1.787s0.32,6.754,3.368,8.419l1.715-3.835l1.167-3.417
					L390.397,422.151z"/>
				<path fill="#FFFFFF" d="M400.863,442.292c0,0-1.125,4.875,1.312,6.5h1.312l0.875-7L400.863,442.292z"/>
				<path fill="#FFFFFF" d="M406.676,442.354c0,0-1,7.125,3.25,7.625l0.812-1.188v-6.75L406.676,442.354z"/>
				<path fill="#FFFFFF" d="M429.801,442.042c0,0,0.562,7.312-1,8.375l3.5-0.438l0.319-7.25L429.801,442.042z"/>
				<path fill="#FFFFFF" d="M435.988,442.354c0,0,1.125,6.562,0.25,8.062h3.688l-0.812-2.75l-0.375-5.875L435.988,442.354z"/>
				<path fill="#FFFFFF" d="M442.238,441.792c0,0,1.562,5.5,0.812,6.562l2.619-3.281l0.943-3.844L442.238,441.792z"/>
				<g>
					<path d="M434.92,395.104c-0.316-5.5-9.741-13-9.741-13s0.03-1.001-1.289,1.666c-1.151,2.325-2.563,6.17-3.184,9.105
						c-0.62-2.936-2.032-6.78-3.184-9.105c-1.319-2.667-1.289-1.666-1.289-1.666s-9.425,7.5-9.741,13s1.125,8.166,5.487,12.166
						c4.363,4,7.984,8,8.507,10.167h0.439c0.522-2.167,4.144-6.167,8.507-10.167C433.795,403.271,435.236,400.604,434.92,395.104z
						 M427.039,405.441c0,0-5.789,4.666-6.145,7.166c0,0-2.523-3.666-6.689-7.166s-0.443-6.852,2.529-5.426
						c2.971,1.426,4.971,1.093,6.137,0.926c1.168-0.167,2.168-0.5,3.5,0.833C427.705,403.107,428.197,404.455,427.039,405.441z"/>
					<path d="M512.176,258.104c-11-19.5-24.678-31.196-34.334-37c-9.771-5.874-27.916-13.25-27.916-13.25s-13.5-7-29-7s-29,7-29,7
						s-18.144,7.376-27.916,13.25c-9.656,5.804-23.334,17.5-34.334,37s-13,63.25-9.5,77s4,25.25,4,25.25l-2.25,17c0,0-1.5,5.25,0,13
						s9.75,26.25,9.75,26.25s-1.25,13.5,4.25,23.25s19.25,26.25,27.75,33.5s30,17.25,57.25,17.25s48.75-10,57.25-17.25
						s22.25-23.75,27.75-33.5s4.25-23.25,4.25-23.25s8.25-18.5,9.75-26.25s0-13,0-13l-2.25-17c0,0,0.5-11.5,4-25.25
						S523.176,277.604,512.176,258.104z M445.843,322.438c0,0,5.5,0.833,6,6.833s1.667,17.333,1.667,17.333
						s-22.002,2.501-32.584,2.334c-10.583-0.167-30.25-2.334-30.25-2.334l1-16.166c0,0,0.167-6.334,4.334-7.667
						c4.166-1.333,20.832-2.001,24.916-2.167S445.843,322.438,445.843,322.438z M454.854,355.455
						c7.4-0.661,14.157-1.493,20.212-2.393c-0.157,0.065-0.306,0.133-0.435,0.205c-1.5,0.839-4.066,2.652-8.367,2.662
						s-15.131,4.529-17.133,6.52l-0.082,0.078c-1.355,0.104-2.732,0.199-4.123,0.29c0.675-1.012,2.453-3.461,4.415-4.378
						c2.498-1.167,5.519-2.982,5.519-2.982L454.854,355.455z M438.754,356.534c-2.03,2.46-2.6,5.755-2.727,6.749
						c-3.696,0.151-7.484,0.257-11.38,0.296c0.396-1.82,0.853-4.399,1.232-6.67C430.319,356.857,434.604,356.724,438.754,356.534z
						 M416.665,360.861c-1.853,1.04-5.103,2.57-7.989,2.407c-3.201-0.181-8.578-4.726-11.173-7.091
						c5.838,0.37,11.997,0.625,18.467,0.718C416.186,358.184,416.425,359.568,416.665,360.861z M391.839,362.445
						c0,0-0.001,0-0.002,0c-2.012-1.992-12.83-6.506-17.128-6.516c-4.301-0.01-6.866-1.823-8.366-2.662
						c-0.63-0.353-1.649-0.63-2.619-0.835c5.304,0.856,11.232,1.674,17.726,2.374C389.938,359.021,391.819,362.408,391.839,362.445z
						 M343.01,315.104c7.333-18.5,3.666-26.333,2.833-30s0.334-23.667,12.5-41.167c12.167-17.5,33.333-37.166,50.333-38.5v112.334
						c0,0-12.333,1-16,2c-3.666,1-6.499,3.833-7.166,8s-2,15.5-2,15.5s-16.5-5.167-26-6.5S335.676,333.604,343.01,315.104z
						 M361.156,352.01c-0.007,0-0.021-0.002-0.021-0.002s-0.011-0.003-0.028-0.006C361.124,352.005,361.14,352.008,361.156,352.01z
						 M361.053,351.992c-0.515-0.079-3.33-0.216-4.044,5.952c-1.884-0.344-3.689-0.688-5.384-1.029
						c0.397-2.457,0.768-4.743,1.048-6.467C355.232,350.959,358.037,351.479,361.053,351.992z M333.344,345.729
						c0,0,1.312,0.425,3.795,1.104l-1.19,6.434c-1.627-0.44-2.828-0.79-3.602-1.021L333.344,345.729z M340.011,417.104
						c0,0-7-16.167-10.167-23c-3.166-6.833-1.833-13.5-1.833-13.5l3.638-23.793c0.758,0.387,1.854,0.912,3.36,1.538l-4.333,23.422
						c0,0-1.333,6,1.5,13c2.268,5.602,9.227,20.373,11.918,26.054c-2.126-1.403-3.401-2.529-4.05-3.162
						C340.022,417.317,340.011,417.104,340.011,417.104z M346.343,429.938c-0.208,1.197-0.498,2.54-0.798,3.822
						c-1.605-0.989-2.695-1.774-3.338-2.266c-0.084-0.226-0.149-0.412-0.196-0.557c-0.682-2.085-1.152-5.075-1.466-7.743
						c1.021,1.107,2.88,2.854,5.938,4.87C346.493,428.658,346.456,429.284,346.343,429.938z M340.545,387.438
						c2.368-2.667,4.298-8,4.298-8s2,8,4.167,11.597s10.833,14.403,12.166,18.403c0.902,2.706,5.334,11.333,3.5,8.667
						c-1.833-2.666-12.833-13.667-14.333-16.334S340.545,387.438,340.545,387.438z M370.15,450.936
						c0.625,2.559,1.359,5.002,1.359,5.002s-2,0-5.56-3c-0.93-0.784-1.789-2.315-2.554-4.14
						C365.461,449.522,367.717,450.24,370.15,450.936z M360.91,440.932c-0.681-2.732-1.067-4.827-1.067-4.827
						s5.571,4.267,8.188,7.132C365.454,442.486,363.08,441.712,360.91,440.932z M371.413,444.172
						c-1.501-1.759-4.214-5.02-6.082-7.697c2.708,0.827,5.684,1.618,8.941,2.35c0.845,1.655,2.137,3.884,3.746,5.702l-0.133,1.194
						C375.607,445.229,373.456,444.71,371.413,444.172z M361.68,428.723c-2.523-4.246-6.344-11.159-7.004-15.118
						c0,0,10.916,8.939,16.162,17.596C367.461,430.419,364.416,429.583,361.68,428.723z M358.156,439.899
						c-1.751-0.685-3.353-1.365-4.808-2.028l0.827-4.267c0,0,0.119-0.441,0.236-1.212c0.999,0.456,2.064,0.912,3.189,1.366
						l-0.001,0.001C357.601,433.76,357.729,436.447,358.156,439.899z M351.392,447.968l0.76-3.921
						c2.021,1.03,4.465,2.151,7.336,3.29c0.416,1.646,0.916,3.188,1.522,4.435c2.833,5.833,8.666,7.833,8.666,7.833
						s3.155-0.337,5.033-3.667c0,0-0.62-1.729-1.203-4.089c0.935,0.24,1.901,0.476,2.885,0.708c1.375,1.823,3.6,4.113,6.703,5.299
						l14.933,22.682C374.628,474.431,359.865,459.823,351.392,447.968z M416.62,460.391c0.024,1.134,0.05,2.277,0.078,3.423
						c-8.562-1.814-13.443-5.882-14.959-7.338C401.739,456.476,408.3,459.493,416.62,460.391z M411.057,443.103
						c1.149,0.038,2.321,0.067,3.506,0.092c0.416,0.883,1.175,1.457,1.824,1.806c0.015,1.427,0.032,3.067,0.057,4.888
						c-0.882-0.017-1.737-0.046-2.601-0.071c-0.756-0.346-1.48-0.763-1.863-1.211C411.247,447.748,411.089,444.738,411.057,443.103z
						 M404.811,449.386l0.663-6.526c1.387,0.075,2.802,0.14,4.244,0.194l0.25,6.619
						C408.212,449.594,406.489,449.499,404.811,449.386z M410.405,435.919c-2.937-0.101-5.76-0.24-8.472-0.416
						c0.362-1.641,1.233-4.845,2.617-5.398c1.875-0.75,5.375-1.375,6.5,3C411.051,433.104,410.508,434.521,410.405,435.919z
						 M403.082,442.721l-0.656,5.468c-3.753-0.303-4.731-3.928-4.989-5.893C399.263,442.456,401.146,442.598,403.082,442.721z
						 M401.208,430.354c0,0-1.14,2.602-1.371,5.005c-1.851-0.135-3.646-0.286-5.393-0.453c0.003-0.029,0.484-5.68,1.356-6.927
						c0.875-1.25,3.5-1.875,4.625,0S401.208,430.354,401.208,430.354z M395.877,442.154c0.233,1.342,0.716,3.312,0.716,3.312
						c-3.717-0.096-5-2.387-5.44-3.816C392.686,441.83,394.257,442,395.877,442.154z M393.676,427.604
						c-0.375,1.75-0.971,4.131-0.798,4.753c0,0-3.077-1.753-5.202-4.753c0,0-1.875-1.875-1.125-4.125s1.5-3.375,3.375-1.75
						S394.051,425.854,393.676,427.604z M411.889,482.979c-0.233-0.521-2.381-5.184-6.621-10.209
						c-3.927-4.654-7.881-6.196-8.824-6.514l-3.565-5.686c0.003,0.002,10.225,7.185,23.962,8.455
						c0.168,5.475,0.39,10.628,0.683,14.328C415.602,483.281,413.724,483.155,411.889,482.979z M411.979,435.972
						c0.099-1.105,0.382-2.82,1.196-3.579c1.25-1.163,4.875-2.347,6.125-0.505c0.763,1.123,1.065,2.953,1.186,4.213
						C417.554,436.093,414.715,436.051,411.979,435.972z M421.085,431.161c-0.433-0.51-1.792-1.932-3.562-1.932
						c-2.153,0-5.597,2.125-5.597,2.125s0.125-1.875-2.707-3.375s-6.543,0.875-6.543,0.875c-0.375-1.375-2.125-3.25-2.125-3.25
						s0.5-8,3.375-10.625s4.875-1.625,4.875-1.625s-3.75-2.125-4.375-5.75s-6.25-15.361-16.625-16.556s-21.309,2.306-28.217-4.069
						s-7.658-5.625-7.658-5.625l-2.75-5.25c0,0-0.375-1,0-3.75c0.141-1.028,0.735-4.786,1.426-9.086
						c1.947,0.476,4.061,0.949,6.334,1.414c0.41,7.949,2.054,12.424,2.054,12.424s2.354,6.167,14.187,4
						c11.834-2.167,12.334,2.833,19,3.333c4.929,0.37,5.765-0.353,5.867-0.755c0.033,0.706,0.004,2.767-1.367,3.589
						c0,0,6.001-0.667,6.834-9.667c0,0,1.799-0.333,2.982-2c0,0,3.458,0.334,5.487-1.333c2.03-1.667,3.752-0.667,5.225-0.167
						c1.472,0.5,3.282-0.5,3.282-0.5s1.811,1,3.283,0.5c1.472-0.5,3.193-1.5,5.224,0.167s5.487,1.333,5.487,1.333
						c1.184,1.667,2.982,2,2.982,2c0.834,9,6.834,9.667,6.834,9.667c-1.37-0.822-1.399-2.883-1.366-3.589
						c0.103,0.402,0.938,1.125,5.866,0.755c6.666-0.5,7.166-5.5,19-3.333s14.187-4,14.187-4s1.6-4.364,2.035-12.118
						c2.82-0.544,5.406-1.104,7.761-1.665c0.992,5.813,1.917,11.39,2.063,12.781c0.333,3.167-0.667,6-0.667,6
						s-3.333,6.666-4.031,4.5s0-5.834,0-5.834c-0.698,1.333-0.635,2-7.469,5.5s-10,1-16.833,1.167s-16.833,3.667-19.667,4
						s-4.5-1.5-4.5-1.5c0.666,6,2.667,9.167,8.894,12.333s6.907,6.667,6.907,6.667s2.366,7.333,3.033,10.5s-1.334,5.292-1.334,5.292
						c-0.75-4.25-2.375-6.5-6.125-5s-3.875,6.75-3.875,6.75c-2.375-4.625-6.557-0.875-6.557-0.875s-1.75,1.875-2.125,3.25
						c0,0-3.711-2.375-6.543-0.875s-2.707,3.375-2.707,3.375s-3.443-2.125-5.597-2.125
						C422.877,429.229,421.518,430.651,421.085,431.161z M481.021,352.125c3.078-0.516,5.939-1.04,8.556-1.556
						c0.277,1.589,0.666,3.821,1.098,6.313c-2.083,0.416-4.324,0.839-6.689,1.259C483.527,353.854,482.08,352.513,481.021,352.125z
						 M497.509,371.271l-1.33-9.064c1.404-0.38,2.709-0.755,3.914-1.122c1.062,5.768,2.217,11.914,3.052,16.02
						c0.694,3.413,0.921,6.332,0.929,8.704c-3.453,4.706-10.876,15.597-12.898,18.629c-2.334,3.5-12.562,13.667-12.562,13.667
						c0.938-3.667,7.729-16.667,14.229-25.167S497.509,371.271,497.509,371.271z M494.325,349.59
						c1.248-0.269,2.434-0.532,3.536-0.787c0.294,1.637,0.687,3.817,1.136,6.29c-1.166,0.27-2.419,0.551-3.74,0.837L494.325,349.59z
						 M484.679,433.799c1.201-0.479,2.331-0.961,3.39-1.441c0.119,0.794,0.242,1.247,0.242,1.247l0.834,4.299
						c-1.458,0.666-3.063,1.35-4.82,2.036c0.415-3.385,0.541-6.002,0.541-6.002S484.798,433.884,484.679,433.799z M488.13,425.841
						c-0.928,0.383-1.909,0.767-2.936,1.148c0.074-1.648,0.376-4.836,1.54-8.885c1.391-4.837,12.641-20.985,16.953-27.07
						c-0.189,1.134-0.377,1.737-0.377,1.737s-8.332,18.166-12.666,25.833C489.211,421.14,488.479,423.632,488.13,425.841z
						 M459.009,430.104c3.833-3,1.667-4.5,4-11.667s9.834-9,9.834-9c-5.666,4-7,13.333-7.5,16.833
						c-0.302,2.111-1.39,4.762-2.207,6.538c-1.287,0.23-2.614,0.451-3.977,0.662C459.369,432.004,459.009,430.104,459.009,430.104z
						 M477.333,436.368c-1.812,2.644-4.552,5.948-6.133,7.808c-2.091,0.551-4.296,1.084-6.634,1.586l-0.677-6.088
						C468.977,438.692,473.431,437.565,477.333,436.368z M472.333,451.036c2.42-0.674,4.67-1.37,6.74-2.073
						c-0.766,1.83-1.626,3.366-2.56,4.152c-3.559,3-5.559,3-5.559,3S471.704,453.623,472.333,451.036z M474.605,443.23
						c2.68-2.86,8.016-6.948,8.016-6.948s-0.373,2.021-1.03,4.683C479.46,441.731,477.13,442.493,474.605,443.23z M442.649,435.339
						c-0.236-2.397-1.37-4.984-1.37-4.984s-0.342-0.5,0.783-2.375s3.75-1.25,4.625,0c0.842,1.203,1.317,6.492,1.352,6.891
						C446.294,435.043,444.498,435.2,442.649,435.339z M451.719,441.559c-0.492,1.434-1.814,3.538-5.376,3.63
						c0,0,0.438-1.787,0.681-3.116C448.633,441.914,450.197,441.743,451.719,441.559z M445.471,442.222
						c-0.299,2.003-1.336,5.396-4.961,5.689l-0.631-5.253C441.795,442.53,443.664,442.386,445.471,442.222z M432.083,435.917
						c-0.103-1.396-0.646-2.812-0.646-2.812c1.125-4.375,4.625-3.75,6.5-3c1.381,0.552,2.25,3.738,2.613,5.384
						C437.838,435.67,435.016,435.813,432.083,435.917z M438.151,449.368c-1.688,0.116-3.427,0.212-5.194,0.294l0.251-6.646
						c1.453-0.06,2.881-0.129,4.276-0.209L438.151,449.368z M431.873,443.068c-0.043,1.677-0.221,4.444-0.917,5.26
						c-0.498,0.582-1.57,1.11-2.54,1.5c-0.725,0.021-1.437,0.046-2.174,0.06c0.034-2.629,0.059-4.916,0.073-6.665
						C428.219,443.19,430.06,443.135,431.873,443.068z M434.899,456.89v-0.005c6.592-0.372,12.629-0.997,18.113-1.805l-1.289,2.055
						c-0.013,0.008-12.607,7.088-25.757,7.526c0.036-1.447,0.068-2.89,0.099-4.32C434.707,459.369,434.899,456.89,434.899,456.89z
						 M443.874,448.893c0.743-0.673,1.399-1.471,1.885-2.454c0,0,5.841,0.166,7.254-3.667c0,0,1.466-0.366,3.013-1.37l0.451,5.88
						C452.573,447.918,448.367,448.462,443.874,448.893z M455.382,427.604c-2.125,3-5.202,4.753-5.202,4.753
						c0.173-0.622-0.423-3.003-0.798-4.753s1.875-4.25,3.75-5.875s2.625-0.5,3.375,1.75S455.382,427.604,455.382,427.604z
						 M423.188,431.888c1.25-1.842,4.875-0.658,6.125,0.505c0.814,0.759,1.097,2.474,1.196,3.579
						c-2.738,0.081-5.576,0.124-8.508,0.13C422.122,434.842,422.425,433.012,423.188,431.888z M437.01,472.771
						c-4.493,5.325-6.638,10.244-6.645,10.26c-1.699,0.152-3.431,0.267-5.203,0.331c0.296-3.72,0.519-8.91,0.687-14.419
						c13.421-1.471,23.713-8.365,23.721-8.371l-3.523,5.618C446.046,466.189,441.51,467.438,437.01,472.771z M444.338,480.664
						l14.71-22.341c4.079-0.964,6.874-3.896,8.431-6.036c0.501-0.121,1.018-0.238,1.506-0.361c-0.59,2.412-1.229,4.189-1.229,4.189
						c1.877,3.33,5.033,3.667,5.033,3.667s5.834-2,8.666-7.833c0.6-1.235,1.096-2.76,1.51-4.389
						c2.875-1.098,5.353-2.183,7.434-3.191l0.776,4.001C482.595,460.235,467.753,474.702,444.338,480.664z M500.843,430.938
						c-0.017,0.05-0.037,0.111-0.058,0.171c-0.45,0.37-1.69,1.344-3.839,2.672c-0.302-1.288-0.593-2.64-0.802-3.843
						c-0.114-0.66-0.151-1.293-0.14-1.893c3.807-2.501,5.686-4.546,6.363-5.374C502.056,425.464,501.569,428.714,500.843,430.938z
						 M513.009,394.104c-3.166,6.833-10.166,23-10.166,23s-0.004,0.068-0.01,0.169c-0.867,0.781-2.251,1.903-4.283,3.221
						c2.798-5.908,9.538-20.229,11.761-25.723c2.834-7,1.5-13,1.5-13l-4.303-23.262c1.701-0.681,2.917-1.246,3.706-1.64
						l3.629,23.734C514.843,380.604,516.177,387.271,513.009,394.104z M505.366,346.929c2.705-0.734,4.145-1.199,4.145-1.199
						l0.974,6.369c-0.678,0.205-2.007,0.597-3.955,1.119L505.366,346.929z M515.676,345.729c-1.5-8.542-6-6.292-6-6.292
						s-12.833,3.5-25.166,4.667s-26.834,1.625-26.834,1.625s-1.167-9.958-2-17.625s-8.833-9.167-8.833-9.167l-13.5-1.333V205.438
						c7.833,0,14.588,3.793,14.588,3.793s29.912,10.207,46.745,30.207s21.334,33.667,24.167,60.334S515.676,345.729,515.676,345.729
						z"/>
					<path d="M385.676,223.854c-7.5,4.5-10.946,11.75-10.946,11.75c-1.697,5.75-3.304,20.25-3.304,20.25c0.5,3.5,2.25,7,2.25,7
						c-3.25,12.75-6,28.75-6,28.75c-8,7.25-18,21.75-18,21.75c7.25-8.5,21.625-17.61,21.625-17.61s2.125-20.64,7.125-42.14
						s14.5-40.75,14.5-40.75C389.749,216.52,385.676,223.854,385.676,223.854z M382.801,231.229c0,0-1.625-0.25-4,1.5
						c0,0,3.625-4.5,5.5-5.75C384.301,226.979,383.051,230.104,382.801,231.229z"/>
					<path d="M475.156,291.604c0,0-2.75-16-6-28.75c0,0,1.75-3.5,2.25-7c0,0-1.606-14.5-3.303-20.25c0,0-3.447-7.25-10.947-11.75
						c0,0-4.072-7.335-7.25-11c0,0,9.5,19.25,14.5,40.75s7.125,42.141,7.125,42.141s14.375,9.109,21.625,17.609
						C493.156,313.354,483.156,298.854,475.156,291.604z M461.551,233.854c-0.375-1.875-2.125-5.75-2.125-5.75
						c2.5,1.375,4,3.75,4,3.75l1.125,3.75C463.301,233.979,461.551,233.854,461.551,233.854z"/>
				</g>
				<g>
					<path fill="#FFFFFF" d="M503.301,343.479l7.209,38.44c0,0,1,5.685-1.167,11.185c0,0,0.999-6.036-0.167-11.185l-7.209-38.107
						L503.301,343.479z"/>
					<path fill="#FFFFFF" d="M512.426,340.729c0,0,1.75,1.875,2.375,5.75s4.5,35.125,4.5,35.125s0.625,6.25-1.625,12.375
						c0,0,1.375-8.375,0.75-12.625s-4.375-34.875-4.375-34.875S513.301,343.229,512.426,340.729z"/>
					<path fill="#FFFFFF" d="M425.176,354.729l-1.544,9.265c0,0-0.412,1.75-1.956,2.265c0,0,0.515-0.309,1.133-3.088
						c0.617-2.779,1.029-9.471,1.029-9.471S424.765,354.215,425.176,354.729z"/>
					<path fill="#FFFFFF" d="M496.488,344.104c0,0-24.438,5.875-70.479,6.168c0,0,38.541,1.457,70.791-5.105L496.488,344.104z"/>
					<path fill="#FFFFFF" d="M499.051,355.979c0,0-28.625,8.125-74.25,8.375c0,0,42.062,1.146,74.562-7.188L499.051,355.979z"/>
					<path fill="#FFFFFF" d="M495.009,428.771c0,0,0.166,4.166,1,5.333c0,0-0.396,0.5-1.271,0.812c0,0-0.875-2.625-1-5.5
						C493.738,429.417,494.467,429.126,495.009,428.771z"/>
					<path fill="#FFFFFF" d="M422.885,437.771c0,0,1.083,0.876,1.25,2.459c0.141,1.336-1.084,43-1.084,43s-0.125,1.75-1,2.041
						c0,0,2.001-0.5,2.167-2.333c0.167-1.833,0.917-42.582,0.917-42.582S425.051,437.771,422.885,437.771z"/>
					<path fill="#FFFFFF" d="M455.301,435.229c0,0-17.125,2.125-28.25,1.875c0,0,15.25,0.875,28.5-1L455.301,435.229z"/>
					<path fill="#FFFFFF" d="M456.551,448.229c0,0-17.125,2.625-28.25,2.375c0,0,15.25,0.375,28.5-1.5L456.551,448.229z"/>
					<path fill="#FFFFFF" d="M461.551,434.604l1.625,11.5c0,0,0.125,4-3.375,9.125s-17.125,26-17.125,26l16.375-26.25
						c0,0,3.375-5.188,3.125-8.938s-1.438-11.188-1.438-11.188L461.551,434.604z"/>
					<path fill="#FFFFFF" d="M460.738,434.667c0,0,19.188-1.75,38.562-13.312c0,0-13.25,10.312-38.438,14.188L460.738,434.667z"/>
					<path fill="#FFFFFF" d="M462.843,446.772c0,0,22.916-3.333,38.416-15c0,0-11.5,11-38.583,15.833L462.843,446.772z"/>
					<path fill="#FFFFFF" d="M383.76,435.438c0,0,1.166,0.916,0.833,2.833s-0.917,8.084-0.917,8.084s-0.499,2.917,1.084,5.75
						s16.166,27.5,16.166,27.5l-14.916-27.333c0,0-2.001-2.917-1.584-5.667s0.75-8.25,0.75-8.25S385.26,436.604,383.76,435.438z"/>
					<path fill="#FFFFFF" d="M353.343,432.021l-1.083,5.167c0,0-0.334-0.083-0.834-0.333l0.917-5.583
						C352.343,431.272,352.76,431.854,353.343,432.021z"/>
					<path fill="#FFFFFF" d="M325.426,374.854c2.178-12.11,4.875-30.375,4.875-30.375l1.459,0.501l-4.75,29.832
						c0,0-1.49,8.849-0.667,13.167c1.167,6.125,11.417,29.083,11.417,29.083l-11.584-26
						C326.176,391.062,323.343,386.438,325.426,374.854z"/>
					<path fill="#FFFFFF" d="M341.676,347.938l-5.666,34.334c0,0-1,5.167,1.833,11.5s13.5,30.833,13.5,30.833l-15.5-31.5
						c0,0-2.5-5-1.333-12c1.166-7,5.833-33.833,5.833-33.833L341.676,347.938z"/>
				</g>
			</g>
		</g>
		<g>
			<path fill="#FFFFFF" d="M312.777,133.499l13.287-3.683c5.291-1.467,9.84-1.271,13.219,0.641c2.945,1.716,5.118,4.533,6.324,8.883
				l0.146,0.529c1.646,5.938,0.105,9.973-2.643,13.078l10.939,13.428l-12.582,3.487l-8.328-10.86l-1,0.277l3.39,12.229
				l-11.347,3.145L312.777,133.499z M331.696,149.906c2.352-0.652,3.542-2.754,2.629-6.047l-0.13-0.47
				c-0.913-3.292-2.999-4.423-5.292-3.788l-2.058,0.57l2.852,10.289L331.696,149.906z"/>
			<path fill="#FFFFFF" d="M355.258,122.875l13.233-2.223l18.099,40.377l-12.09,2.03l-2.404-6.213l-8.662,1.455l-0.243,6.658
				l-11.85,1.99L355.258,122.875z M368.635,148.026l-4.396-11.445l-0.416,12.253L368.635,148.026z"/>
			<path fill="#FFFFFF" d="M383.147,118.905l11.845-1.08l3.877,42.521l-11.846,1.08L383.147,118.905z"/>
			<path fill="#FFFFFF" d="M400.707,117.155l12.015-0.166c13.051-0.179,19.682,7.354,19.857,20.04l0.026,1.891
				c0.174,12.686-6.305,20.583-19.418,20.764l-11.893,0.164L400.707,117.155z M412.748,127.725l0.292,21.225l0.549-0.008
				c4.208-0.058,6.98-2.536,6.878-9.916l-0.021-1.586c-0.104-7.562-2.941-9.781-7.149-9.723L412.748,127.725z"/>
			<path fill="#FFFFFF" d="M437.976,117.102l25.411,2.137l-0.9,10.699l-13.617-1.145l-0.455,5.411l12.463,1.048l-0.849,10.091
				l-12.462-1.048l-0.476,5.653l13.86,1.166l-0.9,10.699l-25.653-2.157L437.976,117.102z"/>
			<path fill="#FFFFFF" d="M469.068,119.903l13.58,2.379c5.408,0.948,9.432,3.077,11.662,6.255
				c1.923,2.814,2.676,6.291,1.896,10.737l-0.095,0.541c-1.063,6.069-4.188,9.052-8.002,10.675l4.113,16.823l-12.859-2.253
				l-2.857-13.383l-1.021-0.179l-2.19,12.499l-11.597-2.032L469.068,119.903z M479.107,142.844c2.403,0.421,4.381-0.967,4.971-4.332
				l0.084-0.481c0.59-3.365-0.809-5.282-3.152-5.692l-2.103-0.369l-1.843,10.516L479.107,142.844z"/>
			<path fill="#FFFFFF" d="M491.435,162.378l7.394-8.211c2.563,3.555,5.663,6.31,8.545,7.105c2.059,0.568,3.115-0.279,3.423-1.396
				l0.017-0.059c0.373-1.353-0.65-2.458-3.335-4.655c-6.196-5.065-9.714-9.517-7.798-16.456l0.081-0.294
				c2.143-7.762,9.217-11.379,17.626-9.057c4.293,1.185,8.326,3.311,12.073,8.08l-7.574,7.719c-1.609-1.963-4.147-4.689-7.206-5.534
				c-1.705-0.471-2.847,0.227-3.14,1.285l-0.032,0.118c-0.357,1.294,0.769,2.491,4.002,5.219c5.294,4.437,8.982,9.188,7.132,15.893
				l-0.082,0.294c-2.159,7.821-9.367,11.464-17.541,9.208C499.667,170.157,495.191,167.34,491.435,162.378z"/>
		</g>
		<g>
			<path fill="#FFFFFF" d="M303.713,59.265l-0.008-0.042c-0.757-3.94,1.473-8.027,5.847-8.868c4.373-0.841,7.911,2.094,8.669,6.034
				l0.008,0.041c0.758,3.94-1.473,8.028-5.846,8.869C308.009,66.14,304.471,63.206,303.713,59.265z M317.123,56.687l-0.008-0.042
				c-0.687-3.569-3.849-5.999-7.418-5.312c-3.569,0.686-5.572,4.066-4.885,7.635l0.008,0.042c0.687,3.569,3.849,5.999,7.418,5.312
				S317.809,60.255,317.123,56.687z"/>
			<path fill="#FFFFFF" d="M346.36,44.264l1.039-0.151l8.916,13.662l-1.185,0.173l-2.445-3.803l-8.583,1.254l-1.254,4.344
				l-1.122,0.164L346.36,44.264z M352.085,53.234l-5.054-7.858l-2.615,8.979L352.085,53.234z"/>
			<path fill="#FFFFFF" d="M378.783,40.345l1.088-0.096l0.849,9.623l8.481-10.447l1.485-0.131l-5.831,7.029l7.396,7.591
				l-1.423,0.125l-6.678-6.874l-3.315,4.003l0.329,3.724l-1.088,0.096L378.783,40.345z"/>
			<path fill="#FFFFFF" d="M415.61,38.125l1.092-0.006l0.08,13.689l8.629-0.05l0.006,1.008l-9.721,0.057L415.61,38.125z"/>
			<path fill="#FFFFFF" d="M456.198,39.645l1.046,0.091l5.529,15.345l-1.192-0.104l-1.503-4.263l-8.641-0.756l-2.221,3.937
				l-1.129-0.099L456.198,39.645z M459.703,49.69l-3.107-8.809l-4.611,8.134L459.703,49.69z"/>
			<path fill="#FFFFFF" d="M488.638,43.412l1.019,0.15l8.179,14.13l1.858-12.657l1.039,0.153l-2.136,14.547l-0.811-0.119
				l-8.348-14.431l-1.898,12.927l-1.039-0.153L488.638,43.412z"/>
			<path fill="#FFFFFF" d="M526.246,49.573l4.803,0.935c4.535,0.883,7.063,4.605,6.272,8.667l-0.008,0.042
				c-0.791,4.061-4.538,6.605-9.073,5.722l-4.804-0.935L526.246,49.573z M528.433,63.948c4.02,0.783,7.089-1.465,7.76-4.908
				l0.008-0.041c0.666-3.422-1.323-6.719-5.344-7.502l-3.731-0.726l-2.424,12.451L528.433,63.948z"/>
		</g>
	</g>
	<g>
	</g>
	<g>
	</g>
	<g>
	</g>
	<g>
	</g>
	<g>
	</g>
</g>
</svg>
