<?xml version="1.0" encoding="utf-8"?>
<!-- Generator: Adobe Illustrator 16.0.0, SVG Export Plug-In . SVG Version: 6.00 Build 0)  -->
<!DOCTYPE svg PUBLIC "-//W3C//DTD SVG 1.1//EN" "http://www.w3.org/Graphics/SVG/1.1/DTD/svg11.dtd">
<svg version="1.1" id="Layer_1" xmlns="http://www.w3.org/2000/svg" xmlns:xlink="http://www.w3.org/1999/xlink" x="0px" y="0px"
	 width="595.275px" height="595.279px" viewBox="0 0 595.275 595.279" enable-background="new 0 0 595.275 595.279"
	 xml:space="preserve">
<metadata><?xpacket begin="﻿" id="W5M0MpCehiHzreSzNTczkc9d"?>
<x:xmpmeta xmlns:x="adobe:ns:meta/" x:xmptk="Adobe XMP Core 5.3-c011 66.145661, 2012/02/06-14:56:27        ">
   <rdf:RDF xmlns:rdf="http://www.w3.org/1999/02/22-rdf-syntax-ns#">
      <rdf:Description rdf:about=""
            xmlns:dc="http://purl.org/dc/elements/1.1/">
         <dc:format>image/svg+xml</dc:format>
         <dc:title>
            <rdf:Alt>
               <rdf:li xml:lang="x-default">NFL Logo Redesigns</rdf:li>
               <rdf:li xml:lang="en_us">NFL Logo Redesigns</rdf:li>
            </rdf:Alt>
         </dc:title>
         <dc:creator>
            <rdf:Seq>
               <rdf:li>Max O'Brien/Osprey Dawn</rdf:li>
            </rdf:Seq>
         </dc:creator>
      </rdf:Description>
      <rdf:Description rdf:about=""
            xmlns:xmp="http://ns.adobe.com/xap/1.0/"
            xmlns:xmpGImg="http://ns.adobe.com/xap/1.0/g/img/">
         <xmp:CreatorTool>Adobe Illustrator CS6 (Macintosh)</xmp:CreatorTool>
         <xmp:ModifyDate>2013-10-07T00:19:11+13:00</xmp:ModifyDate>
         <xmp:MetadataDate>2013-10-07T00:19:11+13:00</xmp:MetadataDate>
         <xmp:CreateDate>2013-10-07T00:19:11+13:00</xmp:CreateDate>
         <xmp:Thumbnails>
            <rdf:Alt>
               <rdf:li rdf:parseType="Resource">
                  <xmpGImg:width>256</xmpGImg:width>
                  <xmpGImg:height>236</xmpGImg:height>
                  <xmpGImg:format>JPEG</xmpGImg:format>
                  <xmpGImg:image>/9j/4AAQSkZJRgABAgEASABIAAD/7QAsUGhvdG9zaG9wIDMuMAA4QklNA+0AAAAAABAASAAAAAEA&#xA;AQBIAAAAAQAB/+4ADkFkb2JlAGTAAAAAAf/bAIQABgQEBAUEBgUFBgkGBQYJCwgGBggLDAoKCwoK&#xA;DBAMDAwMDAwQDA4PEA8ODBMTFBQTExwbGxscHx8fHx8fHx8fHwEHBwcNDA0YEBAYGhURFRofHx8f&#xA;Hx8fHx8fHx8fHx8fHx8fHx8fHx8fHx8fHx8fHx8fHx8fHx8fHx8fHx8fHx8f/8AAEQgA7AEAAwER&#xA;AAIRAQMRAf/EAaIAAAAHAQEBAQEAAAAAAAAAAAQFAwIGAQAHCAkKCwEAAgIDAQEBAQEAAAAAAAAA&#xA;AQACAwQFBgcICQoLEAACAQMDAgQCBgcDBAIGAnMBAgMRBAAFIRIxQVEGE2EicYEUMpGhBxWxQiPB&#xA;UtHhMxZi8CRygvElQzRTkqKyY3PCNUQnk6OzNhdUZHTD0uIIJoMJChgZhJRFRqS0VtNVKBry4/PE&#xA;1OT0ZXWFlaW1xdXl9WZ2hpamtsbW5vY3R1dnd4eXp7fH1+f3OEhYaHiImKi4yNjo+Ck5SVlpeYmZ&#xA;qbnJ2en5KjpKWmp6ipqqusra6voRAAICAQIDBQUEBQYECAMDbQEAAhEDBCESMUEFURNhIgZxgZEy&#xA;obHwFMHR4SNCFVJicvEzJDRDghaSUyWiY7LCB3PSNeJEgxdUkwgJChgZJjZFGidkdFU38qOzwygp&#xA;0+PzhJSktMTU5PRldYWVpbXF1eX1RlZmdoaWprbG1ub2R1dnd4eXp7fH1+f3OEhYaHiImKi4yNjo&#xA;+DlJWWl5iZmpucnZ6fkqOkpaanqKmqq6ytrq+v/aAAwDAQACEQMRAD8A9U4q7FXYq7FXYq7FXYq7&#xA;FXYq7FXYq7FXYqpvcwJcR27OBNKrNGnchKcqfLkMgcgEhHqf0MhAkGXQfpVMmxdirsVdirTsqKXY&#xA;0VQSxPQAYCaFlIFpL5T1E6la3l7+zLdyenX+RVVU/wCFAzX9m5/FjKffM/LanO1+HwpRj3RH6U7z&#xA;YuA7FXYq7FXYq7FXYq7FXYq7FXYq7FXYq7FXYq7FXYq7FXYq7FXYq7FXYq7FXYqwTzvrEmneaNMn&#xA;j3+qx+oyjusjFWX6VXOb7W1RxamEh/CL+Z3eg7M0wyaeYP8AEfuZvbzxXEEc8LB4pVDow6EEVGdF&#xA;CYlESHIuhnAxJB5hUyTFZ60XrejzHqhefCu/GtK0+eR4hddWXCavovyTFjXn/VjY6G0EZpNen0h4&#xA;hKVkP3fD9OajtrU+Hh4Rznt8Ov6vi7TsnT+Jls8o7/qd+XqcfLUR/nkkb/hqfwx7EFace8r2ubzn&#xA;3Bkubd1bsVdirsVdirsVdirsVdirsVdirsVdirsVdirsVdirsVdirsVS6w17Tr26ms0f07y3dkkt&#xA;5KB/gNCV/mHyzFw6zHkkYA1OJ5FycuknCIkd4nqmOZTjOxVosoIBIBb7I7mm+2C003hQ8m8+3QuP&#xA;MtwFNVgVIgfcLU/8MxziO2cnFqD5UHsOycfDgHnum3kHzVHb00m+fjCxraysaBWJqUJ8CemZ3Y3a&#xA;Ij+6mduh/Q4fa2gMv3kBv1/W9CkkSNGkkYIiAszMaAAbkknOolIAWeTzgBJoPO7HzVHN56N0X42U&#xA;4+qIx2AT9g/S4r9Octh7REtbxfwH0/Dp9r0mXQGOk4f4h6vx8HockkcUbSSMEjQFnY7AAbknOplI&#xA;AWeTzYBJoPHvNGuPrGrSXAJ+rp+7tkPZB3+bdc4PtDVnPlMv4RsPc9podKMOMD+Lqz78vJVfy1Go&#xA;6xSyK3zJ5fqbOm7ElenHkS892xGs58wE+v7+0sLV7q6kEcMYqzH8AB3JzZZs0ccTKRoB1+LFLJIR&#xA;iLJQfl7WG1exe99L0YmldYATUmNaDk3vWuUaLVHPDjqhe3ubtZp/Bnw3Zrf3pnmY4rsVdirsVdir&#xA;sVdirsVdirsVdirsVdirsVdirsVdirsVeffmLpElteQ61bEp6hCTMtQVkUfA1R4gU+jOX7c0xhMZ&#xA;o9efv6PR9j6gSicUunL3dV/lz8xCvG21ncdFvFG//PRR+sZLQ9ufw5v9N+tjrOx/4sXy/UzuCeC4&#xA;iWaCRZYnFUdCGUj2IzpITEhcTYdBKBiaIosW/MiSSHSLSeJzHNHdKUdTQj925qKfLNN27IxxRkNi&#xA;J/oLtuxgDkkDyMf0hJLP8zNQiszFc2yT3AWkc/LhU9i6gb/QRmuxdvzEKlHil3/rc7J2JAyuJqPc&#xA;w+eaWeaSeVucsrF5GPUsxqTminMyJJ5l3MYiIAHIIq10PWLoA29lNIp6OI24/wDBUpl2PSZZ/TGR&#xA;+DVPVYofVID4p3/hnz3cWy20izG1HSKSdeA8PhL/AMM2P5DWyjwm+HuMh+twfz2kjLiFcX9X9iif&#xA;IPmcAn6sp9hJH/XK/wCRdT/N+0M/5W0/f9hReo2X5hS6etndxSy2y0qqGN2anTkUJZvpy/Pi18oc&#xA;EgTH4H7ty04cuiE+KJAl8f0sYubK8tWC3MEkDHoJEZD/AMMBmnyYpw+oEe8O1hljP6SD7k18u+a7&#xA;7Q0njhjSaOYhuD1orDaop4jM3Q9pT04IAsFxNZoIZyCTRCF1nzBqmryh7yWqr/dwr8Ma/Jf4nKdV&#xA;rcmc3M/Do26bSY8IqI+PV61oNmLLRrK2AoY4l5/6xHJv+GJzt9Hi8PDGPcHj9Xk48spd5RskkcUb&#xA;SSMEjQEu7GgAHck5kSkALPJojEk0ObEX8xDXtft9KsGYadGxku5hUeqqCvHx4E7HxzRHXfmc4xQ+&#xA;gbyPfX6PvdyNH+XwnJP6+QHdf6WYZvnSuxV2KuxV2KuxV2KuxV2KuxV2KuxV2KuxV2KuxVB6zpya&#xA;jpdzZPT98hCE9nG6n6GAzH1WAZccoHqP7G/TZjiyCQ6PEnRkdkccXUkMp6gjYjPPSCDRe5BsWEbp&#xA;mt6ppknOyuGiB3ZOqN81NRmRp9Xkwm4GmnPpseUVMWmWoa1r/mh7e0EAkaKrCOBSASdubVJp+rMv&#xA;Pq8+sIhV13feXFw6bDpQZXV96cad+XcMMButcu1giQcnjRgqqP8ALlbYe9PvzY6X2fJ3yH4D9f49&#xA;7r9T24B/dj4lAX35p/lP5aYxaeBqF2mw+pR+s1T/AMXyFVI/1XOdPpexYw+mAj5nn+t5jV9vCW0p&#xA;GXkOX6kMv5wedtRHLRPI15JCfs3M5kCHv2iVf+HzO/KQH1TDgfyhll9OM/j4Jfc/mx+a0DEyeWrO&#xA;Fewkk3HsT6y/qyY0uI/xFol2lmHOMR8f2rE/PjzdBIRdeU/XVa1+ryvtTbdlSYdcfyMOkkDtiXWI&#xA;PuP9qZ2P/ORnlgyejqumX2nS13+FJVX57xv/AMLkJdny6EFyIdrw/iBDMtF/MbyJr4ENlq1vLJLs&#xA;LWY+jIxP7IjmCFvoGYuTSzA9Q2c7Drccj6Zb/JEal5I8v3wJEH1WU/7sg+D/AIXdPwzT6jsjBk6c&#xA;J8tvs5O5wdqZsfXiHn+LYZrPkDV7ANLbf6bbjr6YIkA903r/ALEnOf1XYuXHvH1x8ufy/U7vTdr4&#xA;8m0vSfs+aPsfzMuYLRYbqyE08ahfUV+HKm1WXi2+ZOHt+UY1KNkedfocfL2JGUrjKgfK2P635n1b&#xA;WGIuZOFuDVbaPZB8/wCY/PNZq+0Muc+o+nuHJ2Ol0OPD9I372WfljpoW3utRcfFIwgiP+SvxN95p&#xA;92br2fwVGWQ9dg6jtzNZjDu3ZxnRuhdirsVdirsVdirsVdirsVdirsVdirsVdirsVdirsVeOebYE&#xA;h8yagidDKX+lwHP4tnBdpQEdRMDv+/d7Xs+RlgiT3Izyx5NvNXK3E1bfTwd5afE9OojB/wCJdPnm&#xA;R2f2VPP6j6Yff7v1tGu7Sjh9I3n93vVPMv5o+X/Kz/4d8pWQ1bXWb0/QhBeNZelJGWryOD+yvyJX&#xA;O60PZcYQ2HBD7S8Lr+2DKdfXP7B+PJgevW2qahcC5/MTWpZp1POPy1pzL+7PYSuKwwnxoHenXNnj&#xA;IArGPiXQarUAH99K5fzY/p6D7ShYPM36NHDy7p9royAUE0KCW6I/yrmbnJ/wPHJHFf1G/wAdzrZd&#xA;pTH92BAeXP5nf7kq1LzBd3TltS1GSd/+L5mc/cxOWRgByDiznkybyJl9qXHVtOH+71+4n+GT4Sx8&#xA;GXcuXU7Buk6fSafrwcJQcUu5W/cTJT4ZU8NmGBjuFTSfJDeYdSi07ToaXUtTyB4oqjcs9agKP898&#xA;Z5uAWXL0oy5ZiEdyXo9t+Q+vQ2oW/wDOk1vbQikccYk9NB7F5kC/8DmEdbEnaD00ezJgerJX497T&#xA;/ltpVsSlv+ZktrIN2DXKV5U2NBOmP5gn/J/j5L+TiOWWvj+1AXP5beabiQyaT59s9YnrQG5mq7Eb&#xA;0J5XVTv3zEz6bS5TeTDv8vupysObV4tsWe/eb+/iSrUtI/Nfy8pk1PRhf2ibtcWtJNh1J9LkVHuy&#xA;DNbl9m9Fl/u5SgfmPt/W7DH7Ra/D/ewjkj8j9n/Es+/LL82/JtzpdtpF1cfo3UULjhdUSNy0jMOE&#xA;tePRgPiofDMvTdlZNNiEPqq9x72nL21i1OUy+gmtj7u96g88CMiPIqvJtGpYAsfYd8iZgGiebkiJ&#xA;IsBfkmLsVdirsVdirsVdirsVdirsVdirsVdirsVSzzHqtzpWmNfQQC49Jl9VCStEO1RQHvTMPXam&#xA;WHHxxHFXNytHgjlycBNWwy5/M/UXjK29pFE56OzM9Po+HNBk9oMhHpiB9rvIdhwB9UifsU/Knlef&#xA;WrltW1Qs1szlqN1meu/+xr/TI9m9nS1EvFy/Tf8Apv2J1+uGCPh4/q+79qRedPPeseaNTk8m+RHW&#xA;KzgUjVtZUiOGOJdn4ydEiXuw3bou3XvcGnjiiJTHuD5/q9ZPNIwxn+tL9vd5sVXUdG8r2r6Z5Tq9&#xA;y68L7zE68bib+ZYP98xfLc+PfMnhMzc/k6HPro4xwYfjLqfd3D7WH6jq0NrVf7yc78a9K92OZEY2&#xA;67HiMvckFzqd7cE85Cqn9hdhloiA5kcUYoXCzdirsVXK7o3JGKsOhBocVITnRvOnmbRTM2mXz20l&#xA;xH6UkyhTJwqGIVmBK7qNxvlc8MZcwywzOIkw2JFJdqGq6nqMxm1C7mvJj/uyeR5W+9yTkoxA5BMp&#xA;ykbJtC5Jg7FU30fzd5o0ZlOl6rdWirSkccremaeMZJQ/SMrnijLmG7HnnD6SQnF353sNfBHmrTI7&#xA;i7b/AKXVgq214D/NIgHozfJlU/5QysYTH6D8DybZakZP7wb942P6ij/J3ni48na1b3gkGtaItVQb&#xA;rLGrChorEmNwD9k1U70P7WYOfsrDkyeLw8OUde/9fv5ufpu182GHhcXFiPTu93d7uT6c0DX9J1/S&#xA;4dU0qcXFnODxcVBBGxVlO6sO4OYM4GJou7xZY5I8UTsmGQbHYq7FXYq7FXYq7FXYq7FXYqlety6/&#xA;BGJ9KjhuAo/e20gIc+6MGA+g5h6uWeI4sQEvI/ocvSxwyNZCR5j9LGI/zNeNzFe6aySKaOFehB8C&#xA;rL/HNPHt8g1OFH3/ALHaHsQEXGe3uRsf5maG1OcFyh/1UI/4n/DMiPb+E8xL7P1tMuxMvQx+39SF&#xA;1n8w9HudPuLWC2mlaeNo/wB4FRRyFK1BY7fLKNV23injMYxJsV3Num7HyxmJEgUbYz5S8utrOo8Z&#xA;ARZQUa4YbV8EB8W/Vmp7M0P5jJv9A5/qdp2hrPAht9R5frRP5t+bL5Hs/IPlcD9M6sFil9P4fQt2&#xA;2CAjZeag1P7KCvcHPRdHgjEcZ2jHk+ddo6mRPhx3nPmwHVriw0TTf8KaFIHtImB1a/Xre3K7E/8A&#xA;GKM7IvTv75mwBkeOXPp5PM67UgDwcf0jmf5x/UOnzYZq+qfVl9KI/v2HX+Uf1zJjG3Cw4uLc8mOM&#xA;zMxZjVjuSepOWua1irsVdirsVdirsVdirsVdirsVdiqYWug61dQia3s5Xib7LhaAj2r1zAz9qabF&#xA;LhnOIl3OxwdlarNHihjkY99M5/KnzH5r8ratcWiWziyvEJmiuI5PTWRN1kFCu9Ph675qO2u08Qwe&#xA;JinCUgR1v7j8Xddg9n5hqPDywnGBB6VVe8fB6m35ieZbhligjhWRzxURRszEnwDM+cce3NRLYCN+&#xA;Q/aXuB2PgjuSa8yybQ9E125K3mv3krE7pYK3BP8AnoEop/1fv8M3Gk0mafrzyP8AV6fGvudVqtVh&#xA;j6cMR/W/Vf3sozcOqdirsVdirsVdirsVdirsVSjXvK+mazEfXT07kCkdyg+MfP8AmHscwdZ2fjzj&#xA;faXe5mk12TCdt49zy3XNA1DR7r0bpao1fSmX7DgeB8fEZxur0c8Eql8D3vWaXVwzRuPyQEUUksqR&#xA;RqXkkYKiDqWJoAMxoxMiAOZciUgBZ5B6spsPJvlG4u7ihSyha4uiKAySU+yCe7GiL9GegdnaLwoR&#xA;xjmefveF7R1vHKWQ8hy9zw3yZbaxr1t5k82yapa6ZrOoTLY2uoXkhiSIyj1bj0mAYq4hUIngCd86&#xA;LMRExhRIG7yeEmQlkMhGUjQJ28z9jHtdl0vS2aGxl9e3hVIYZSOJmZECvJxO4V3Bb2By6AJ5uiyx&#xA;jPIeH6e/9PxYbLI8sjSOauxqTmQ5QFClmKuxV2KuxV2KuxV2KuxV2KuxV2Kp75G0i31jzhpGmXIr&#xA;bXN1Gs69OUYPJ1qPFRTKs0+GBIb9NjE8kYnkS+ifzD8vpbtBqNpEI7fisEyIAFTiKRmg6Dj8P0DP&#xA;Ne3tIeIZR15+/oX1TsTUjh8I9OX6mFKrOwVRVmICgdSTnOgWaDviaeseU/Kdvo9us0yh9ScfvJOv&#xA;Cv7CfxPfO27N7NjgjZ3yH7PIPI6/tCWaVD6Pv82Q5tHWuxV2KuxV2KuxV2KuxV2KuxV2KoLWNMs9&#xA;S0+W1uwBEQSJDSqEDZwT0pmPqtPDLjMZcvu82/TZ5YpiUef3+Tz/APL7R1uNaluno8VgPhYdDI1Q&#xA;pHtQE/dnMdiaXizGR3EPv6PRdr6jhxCI5z+5Kf8AnJDzC1toFhocTUfUZTNcAf76t6UU/wCtIwP+&#xA;xzv+z8dyMu58+7Xy1AQ7/wBDxOx816hZ6A+iKiPaNdfXULA8ll9P0m6HcMoH3ZsziBlxPPzPFDgP&#xA;K7/QlNxczXEhklbkx+4DwGTApjGIAoKWFLdDirWKuxVfDGskqoziNT1dugGJRI0E/sbPRm+GMrPI&#xA;OvI7/wDAmmVElxMk8nXZFPpWnuKGBR/q/D+rBxFrGWQ6pdeeX6AvatX/AIrb+ByQn3t0NR3pM6Oj&#xA;FHBVl2IOxGWOUDa3FXYq7FU18q6oNK8zaVqTGiWd3DNJ/qJICw/4GuQyx4okeTbgnwzEu4vsy/so&#xA;L6ymtJxWKZSre1ehHuDuM5bNhjkgYS5F7jFlOOQkOYeLXVvcWF9JA/wz20hUkfzIeozz7JCWOZie&#xA;cS9zjmMkARykHoej/mNplwqRaiptJ+hkA5RE/MfEtfl9OdTpe3cc9snpP2PN6nsbJHeHqH2stili&#xA;miSWJw8TgMjqagg7ggjN3GQkLG4Lp5RMTR5rskh2KuxV2KuxV2KuxV2KuxVRvLd7i2khSZ4HYfDN&#xA;GaMp8RXK8sDKJAJj5hnjmIyBIvyeVeaP8SWV01lqV5LNEw5Rnm3pyL0rx6fRnF9ofmMcuDJIke/Y&#xA;vXaHwJx48cQD9oZv5BsRa+XYpCKPdM0zV8CeK/8ACqDnRdi4eDTg9Zbuh7Wy8ecj+bs8F/5yD1Jr&#xA;r8wXtuVVsLWGEL2BcGY/8nRnYaCNY773hu1Z3mruH7XmeZrrHYqnOk6Osii4uR8B3SPx9zlcpONm&#xA;zVsE7WKNU4KgCdOIAp92VuJZYjeRrHdzIn2Vdgo9gcvHJ2UDYCjhZOxVcjujh0PFlNQR44qRbK9P&#xA;vFurdZKjn0dfAjKJCnXZIcJROBggtS02O7jqKLOo+FvH2OSjKm3FlMT5MYdHRyjjiymjA9iMuc8G&#xA;1uKuxV2KvsvyFqp1byXot+zcpJrSISt4yIvCT/h1Oc7njwzI83sdLk48UT5MS/MnTlg1aG8QUF4n&#xA;x/68VAT/AMCVzjO3sHDlEx/EPtH4D2HYubixmJ/hP3/gpR5W0RtX1eO3Yf6PH+8uT/kKenzbpmB2&#xA;dpPHyiP8I3Puc3X6rwcZPXkHsSIqIqIAqKAFUbAAdAM7wAAUHiyb3LeFDsVdirsVdirsVdirsVdi&#xA;qE1DV9M06Pne3CQjqFY/Efko+I/QMoz6nHiFzkA3YdPkyGoC3mfnPzPBrdxCltGVtrblwdxRmLUq&#xA;adh8O2cj2r2gNRICI9MXqOzdCcETxH1SenafbC1sLa2HSCJI/wDgVA/hnYYMfBCMe4APK5p8czLv&#xA;JL5U/OhpG/M3WzJXlzhAqKfCLeML/wALTOj0f90Hj+0f7+X46MJzJcJEWFv9Yu44j9kmrfIbnBI0&#xA;GGSXDG2UzW7zxSRxzRQCJFkkDuEZ0MqR8Ih+059StP5QcpunGw47EpfzQvdliiZ6fDGpYgeCiuBo&#xA;iCTTDZHaSRnb7TksfmTXMh2YFB6Hq35M6ra+RLLzZZXa3yzW0d5eWaoVaKKRA/JWq3PgD8ewp1zE&#xA;jqwchgRTscnZ8hiGQG9rLzrMt1zsVZt+Uul+WtZ80foXXoS8d/Ey2U6SPFJFcJ8Y4spA+JQwowO9&#xA;MxtVKUY8Uejm6HHjnPgmOf3st87flXrnlaJ9RsZm1bQo952YD61br/M4XaRB3ZR9AG+UYdVGex2k&#xA;jX9jGA4obhiQ3RXG6OOSMOhB7jMh0EomJopNr9iCou0G4osvy7H+GWQPRyNPPokWWOW7FXYq+oP+&#xA;cfb/AOs/l3FDWv1G6ng+XIib/mdmk18aye8PT9lSvDXcT+tOvzLtjJo0E4FTBMAx8FdSP1gZy3b+&#xA;O8Ql3S+96vsSdZSO8Jd+V0sIn1CJiBM6xNGvcqpblT/ghmJ7PSHFMddv0uV27E1A9N/0PQc6h5x2&#xA;KuxV2KuxV2KuxV2Kse1/WvMtjIy2Oki5h/YnVmlr840CsM1Wt1eoxn0Y+Id/P7Bu7LSabBkHrnwn&#xA;u5fawfVPOPmqVmimma08Yo09Ij6T8f45zuo7U1MtieH3bftd9g7O043A4vfv+xIJJJJHLyMXdt2Z&#xA;jUn5k5rDIk2XYAACgr6ZEJdStIiKiSaNSOlasBlunjxZIjvI+9rzyqEj5F7hnorwb5e/5yA05rX8&#xA;xZ7gj4dQtoJ1P+qvof8AMnN3oZXjrueY7VhWYnvA/U83zMdam3l1AbmRz1VKD6T/AGZCbj6k7Mq0&#xA;Py/Lruv22n2aK9/MDwZq8Y413Z2oDxUeP0ZRPJwxs8mGm0+TNLgh1UvzGTRtIuP8O6VcnUbyM01S&#xA;9UAR8wdreJQW+yd3NTvQbUIw6cykOI7Do7DLpceE8MTxS6n9AYRc21xbXEttcRtDcQu0c0Tgqyup&#xA;oysD0IOZAN7hrIINF7T+Sf5qWNtaJ5S8wyKlqSU066lp6YDneCUnYKSfhJ27Htmu1mmJPHF3PZ2t&#xA;AHhz5dP1MT/Nz8tJ/KerG8skL6BfOTayCpELncwuf+IeI9wcv0uo8QUfqDi6/RnFKx9B/FPPsy3X&#xA;ojTr+50+/tr+1bhc2kqTwt4PGwZT94wSiCKLKEjEgjmH2hoOsWeu6HZ6rakNbX0KyBdjTkPiRvdW&#xA;qp985ycDGRB6PZ4sgyQEhyLx7zp5FtdE8wx2cIWDQ9fkYaXJ0Sz1E7+gfCG47D9k7jZTXYYc5lG/&#xA;4o8/Mfsef7Q7PjxUNhL6fKXd7i8/vrKSN57K6QxyoWimjbqrDYg+4OZkT1DzBBhKjzDCnQo7I32l&#xA;JB+YzIdkDa3FXYq+h/8AnGiZj5b1eH9lLxXHzeJQf+IDNR2iPUPc9D2OfRIebPvzB/5Rqb/jJH/x&#xA;LOZ7b/xc+8PV9kf349xeWwzTQSrLC7Ryoaq6EhgfYjOMjMxNg0XrJREhRFhk9h+Y2u26hLhY7tR+&#xA;044v960H4ZuMPbuaO0ql97q8vY2KW8biyry55wutZnEY0x44x/eXKvyjX5khd/bN1oe05ZzXAQO+&#xA;9nUazs6OEXxi+7qybNu6t2KuxV2KuxV2KuxVTuLW2uY/TuIkmjP7Eihh9xyE8cZipAEebOGSUTcT&#xA;TGdX/LzR7tWeyrZXHUcatGT7qen0ZqNV2JimLh6JfY7PT9sZYbS9Q+1gMNrPpnmGC3uQFltrmPnv&#xA;8Ozg1r4Eb5zMccsOcRlzjIfe9DLIMuEmPKUS9nz0B4h4v/zkdpMN5H5fa2R5dZmnltra2iXk8sbB&#xA;S1ANzwfjQf5RzZdnzrivk6XtfGDw19Txm78oavZXclpeCOG4hPGaLmHKtTdSU5LUd99s2Iygiw87&#xA;myDHIxPMI7T7COwhdmfkx3d+gAGRlK3DyZOMqHlzVvNsmsy2nluWSPUNXH1ULDwWVoyeXBZW3jHw&#xA;1JDDpvjkjCrlyDtNLxx9OPmdnuX5Y/klZ+XpYtY14pe6ypDwQrVobduxFftyDx6Dt45rNTrDPaOw&#xA;d/ouzRj9U95fcxb8/wD8u5oLxvN2nRlrafiuqRqP7uTZVm2/ZfYN/lfPL9DqLHAfg4vauko+JHl1&#xA;eKZsnSvVvy287+bZNGv9LvNMbzR5YtI0W+sjR7iGGSoBir8TqvH7Pbtx65g6jDDiBB4ZO10epycJ&#xA;iRxwHMdUm8weQdLvreXW/Il3+lNMUc7nS22v7Qd+UR+J0H8w/GnLLMecj05BR7+hcfNp4kceI8Ue&#xA;7qP2ebAyCDQihHUZlOE9P/Jj80f8NXn6F1aQ/oO8eqSsf95pW25/8Y2/a8OvjXC1mm4xxD6nadna&#xA;3wzwy+k/Y9587+XofM3lO+01SGkmi9WxmUj4Z0+OF1Yf5QG47ZqsOTgmC73U4hlxmPyeN+bYTq/l&#xA;zRPOSrxm1CMWurLShF5b1jZiO3P0229vfNliPDIw7uXueT7Uw8UY5h/FtL3j9byXVU4ajOPFuX/B&#xA;AH+OZ0eTjYjcQhMk2OxV79/zjLGw0zXpf2WmgUeNVRyf+JZqu0eYd/2MNpfB6P8AmD/yjU3/ABkj&#xA;/wCJZy/bf+Ln3h63sj+/HuLzTTNNutSvY7O1XlLJ0rsABuST4DOQ0+CWWYhHmXqc+aOKJlLkHpWi&#xA;+QtHsFV7pRe3PUtIP3YP+SnT76512k7GxYxcvXLz5fJ5fU9rZcm0fTH7fmyVVVFCqAqjooFAM2wA&#xA;HJ1hNt4UOxV2KuxV2KuxV2KuxVQvb22srWS6uXEcMQqzH9Q9z2yvLljjiZSNANmLFKchGIsl4zq2&#xA;pPqGq3F/TgZpOaDuANlH0ADOA1Oc5cpn3l7bT4RjxiHcHtFvMk9vFOm6SorqfZhUZ6DCYlESHV4e&#xA;cTGRB6PO9ScXH52QtN/daJoMt5AD0Ekkpidv+Akp9GZ0dsP9aTqsh/wmz/BAl4vNNLNM80rF5ZWL&#xA;yOepZjUk/M5swKeGlIk2eaUa9eiOD6up/eS/a9l/tycA36eFm3tX5GfllLo1t/iTV4uGp3aUsYHH&#xA;xQwOKl2HZ5B27L8yM1ut1PEeEcnruzNHwDjl9R5PXc17t1k8EFxBJBPGssEqlJYnAZWVhQqwOxBG&#xA;EGkEAii+cfzQ/JPUdGuJdV8uwveaM5LvapV5ravUU3Lxjseo7+J2+m1gltLm85rezpQPFDeP3Kf/&#xA;ADjvrhsfOkulspKatAyAj9mS3BlUn24hxh18LhfcvZOXhy8P84fc9l80fld5b125/SMIk0nW1PKP&#xA;VbBvSlD+LgbP8/te+a7FqZRFc49xdxn0UJniHpl3h5J50/KTzzEzzyWcOvqKk39iBBdN7yw9Gb/U&#xA;DE9SSc2GHVQ7+H3uk1PZmUGxv7v0j9Ty2+02ezmaGeOS3mX7Vvco0Ug+YbM2MrdaRKJqQp6b+Tn5&#xA;tXOi3UHl7WZDLo07iO1nY1a2djQCp/3UT1H7PUd8wtXpRIcUef3u27P15gRCX0/d+xnVpo4uPL3n&#xA;/QAtfqOpz3tmv8olRLlEWnyI+nMYzqUJd4/Y35sHHhzQ7iSPvfPmuimosfFVP4UzbQ5POYPpS/JN&#xA;zsVfSX/OOFiYfJV5dMKNdXz8T4pHGij/AIblmn7Ql6wPJ6TsiNYie8sp/Mu4CaJDCDRpp128VVWJ&#xA;/Gmcp2/OsIHfJ67sSF5Se6Lz/StTudMv4r23I9SI/ZPRgdip9iM5fTaiWGYnHmHotRgjlgYy5F6r&#xA;oHmzS9ZUJE3o3YFXtn+17lT+0M7TRdpY8+w2l3fjm8lq9Bkw7nePenWbBwXYq7FXYq7FXYq7FXYq&#xA;1IxSNnClyoJCLSpp2Fab4JGhaQLLzXzQnm/WJuUmnTRWcR/c26Dl/smp9ps5LtAarOd4SERyD0+h&#xA;OmwjaYMjzLEpIpIpGjlRo5FNGRgQQfcHNHKJBo7F3EZAixyeteSr8Xnly1NavADA48PT2X/hKZ3H&#xA;ZObxNPH+jt8v2PHdp4uDPLz3+f7WK/mt5J1PUJrfzHorXTX9rGLPULOzm9CW509nLyRxtQ/HVuhr&#xA;XwqBm+0uYD0yqv0vPa/SmXrjd8iB1i8W1nRdSl1YWvlWx1uWJ1Fba/tB68b/ALalkBBA/mIH8c2U&#xA;JirmY/AvO5dEDOoRlXmN/seoflh+SX6Nnj13zUEudTHx29gaSRwt2eQ7q7jsBsvuemDqdZfphyd3&#xA;oezBD1T59z2DNe7l2KuxV2KoSLSNJivWvorKCO9cEPdLEglIPWrgcvxyRmaq9mAxxBuhaLyLN2Kq&#xA;F3Y2N7F6V5bxXMX++5kWRfuYEYRIjkxlAS5i0hk/LXyC86znQLJZEIZfThWMVG4+FOK9vDLfzGT+&#xA;cWg6PFd8IS7ygqTeevPbcP3Lz2MRG27JaBX6fPJ5doQ+P3tWAXlyd233Pl/zEvDV5oq19KiV+Wbu&#xA;HJ4/CKilmTbXYq+wPyv0ZtH8g6LZuvGU24nlUihD3BMzA+686Zz+pnxZCXr9Fj4MMR5ffukf5k3T&#xA;XGq2dhEC7RJy4ruS8poFoO9FH35xvb2QyyxgOg+0vX9i4+HHKZ6n7kLpv5da3dKJLlks0O/F/ik/&#xA;4FdvvOU4Ow8095VEfa3Zu2cUNo3L7k8tvyysoyrSX8xkUgh4lWOhHcV55scfs/AbmZvy2/W4E+25&#xA;HlEV57swtoGgt0haV5ygp6spBdv9YqFH4ZvccOGIFk+Z5umnLiJNAe5UybB2KuxV2KuxV2KuxV2K&#xA;uxV57+Z09ibm0hRQb1FZpXHUI1OKn7v865y3tBOHFED6+vuej7DjPhkT9Kl+WmpiK/uNPdqLcL6k&#xA;QJ/bj6gD3U/hkewNRwzOM/xbj3j9n3Mu28FwEx0/T+PtejZ1bzTsVdirsVdiqjeXSWlnPdSKzR28&#xA;byuqDk5CKWIUdztsMIFmmMpUCe5IvKn5g+U/NKH9EXyvcIKyWcgMc6jx4N9oe61GW5cE4cw0YNXj&#xA;y/Sd+5keUuS7FXYq7FXYqwT8p5BeWnmHXjT09W1i6mt5NqG3ipHGa/7E5larYxj3RDgaE2JT/nSP&#xA;yfL2tXX1rV7y4rX1ZXYE9SK9c3cBQDykeSCySU/8ieXH8x+bdN0gKTFPMDckdoI/jlNf9RTT3yrP&#xA;k4IEuRpsPiZBF9kM0cURZiEijWpPQKqj9QznJSAFl7KIs0HjV/rM1xr8mrJ9sTiaEN2EZHpg/IKM&#xA;4DNqjLOco58Vj4cnt8WmEcIxnuo/Hm9T8veYrLWrQSwnhOgHr25PxIf4jwOdnotdDURsfV1Hc8lr&#xA;NHPBKjy6FNczXEdirsVdirsVdirsVdirsVdiqD1fVbXSrCS8uT8KD4U7ux6Kvucx9VqY4YGcv7W/&#xA;T6eWWYjF4zqN/cahezXlwayzNybwHYAewG2cDnzSyzM5cy9thxDHARjyDVheTWV5DdwmksDh196d&#xA;j7HpjhynHMSHMLlxicTE8i9ttLmK6tYrmI1imRZEPswrnoeLIJxEhyIt4XJAwkYnmFXJsHYq7FXY&#xA;q7FXyVr+iz6N5r8zDSne0uNBuDeWs0TFGS3edYlApQ1H1iOntXN/jnxQjf8AE8jmxmGSXDtwn7L/&#xA;AGh7R+UP5sr5qh/ROrFY9fgTkHFFW5RerqB0cftKPmO4Gt1el4Nx9Lu9BrvFHDL6/vem5hOzdirs&#xA;VYr+Z3mM6B5Mv7mIn69cr9TsFX7TXE9UXj7qKv8ARl+mx8UwOji63N4eInqdh7ylGsSxeQPye+rF&#xA;gl1b2QtYgCAWu7gHkV8aSOz/ACGWQ/e5r8/scfN+401dar4n8W+V83jzDsVfQH/OOfk829hdeaLp&#xA;KSXlbawqP90o371x/rOOP+xPjmq7Qy2eEdHf9kaegch67Bnv5g64LPTPqETUubwUenVYR9r/AIL7&#xA;P35yXber8PHwD6p/d+3l83seyNLx5OM/TH7/AMfoeZZx71SvZXt1ZXCXNrK0UyfZdf1HxHtlmLLL&#xA;HLiiaIYZMUZx4ZCw9F8vfmBY3oW31Lja3XQSdInPz/ZPz2986vQ9tQyenJ6ZfYf1PM6zsicN4eqP&#xA;2/tZcCCKjcHoc3jp3Yq7FXYq7FXYq7FXYqhdS1Oy020e6u5BHEvTxY9lUdycpz6iGKPFM0G3Dgll&#xA;lwxFl5P5l8yXWt3nqODHbR1EEFa0HifFjnE6/Xy1E7O0RyD1+i0UcEaG8jzKT5gOa7FWd/l35iof&#xA;0NctsatZsfHq0f8AEfTnSdh67/Iy/wA39Tz/AGxo/wDKx+P62fZ07zzsVdirsVad0RGd2CooJZia&#xA;AAbkknFSXzHqd9BqkPn7zaSRZ6jJHpmnM1R6lZknG3+TFbISP8rN3GPDwQ6jf8fN5TPPiGSfSUgB&#xA;87+6Lz3S9TvdL1G31GxlMN3ayLLDIOzKa/SPEZlSiJCi4kJmJBHMPsbyf5ltfMvlux1m3oouowZY&#xA;ga+nKvwyJ/sWBp4jfOey4zCRi9hp8wyQEh1TnK253TFXmFpKPP35gLqCnl5T8pOfq8h+xc6hsS47&#xA;FYtiD8uzZmkeFjr+OX3OrifHzX/k8f2n8fjd5j+d35iR+ZtaTTNNl56NpjMEkU1Wec7NIKbFVHwo&#xA;fme+Z2j0/BGzzLrO0dX4sqj9MfteZ5mOtZP+Xvka/wDOGvx2EIaOzjpJqF0BtFFXx6cm6KP4A5Tn&#xA;zDHG+rlaTTHNOhy6vrFm0vy/oiKqiCwsIljhiXsqDiir4k5zWp1AxxM5l7LTacyIxwDy79Itq/ma&#xA;3ur6himuYg8Z3VYuYHH5Bc4bx/H1AlPkZD5Xyey8HwcBjDmIn509dWys1T01gjCdOARQKfKmdyMU&#xA;AKoU8ackibsqE2h6LOP3tjbv7mNK/fSuVz0eGXOEfkGyOqyx5Sl80quvIPlqcHjA9ux/aidh+Dcl&#xA;/DMLJ2Np5dOH3Fy8fa2ePW/eFXRvLd3pNwgg1OWSwFeVnKobtQcXr8ND4DJ6XQTwy9MyYfzT+vox&#xA;1OtjmG8AJ94T3Nk692KuxV2KuxV2KuxVLNQ8u6XqVys98r3HAUjiZ2Ea+NFUjr3rmHn0OPLLincv&#xA;K9nKw6zJijUNvhuibbS9NtU4W9rFEvcIiivz23y7Hp8cBUYgfBqnnnI3KRPxV5IYZYzHKivGdijA&#xA;EfccslEEURYYRkQbB3eQ+b9Pt7DzBdW9uoSD4XRB0HNQxH3nOF7TwRxZ5Rjy/Y9l2dmlkwxlLmlE&#xA;ckkUiyRsUkQhkdTQgjcEHMGMiDY5uZKIIo8nqnlLzZDq8At7ghNRjHxr0EgH7a/xGdp2Z2kM44Zb&#xA;ZB9vm8l2h2ecJ4o/QfsZHm2dY7FXYq8l/NLzZqmtap/yr3yv8V7cL/uavK8UhgIBZC/YcT+8Ph8O&#xA;5NMz9NiER4kuXR1Ou1Epy8GHPqfx9ryHz7rWnCOz8r6I3LRdFDL6/Q3Nyx/fXDf6x+yOwzYYIHeU&#xA;uZdHnyCRAj9EeXn3y+PTyYdmQ0PdP+cadffnq3l+RqpRb63Xw3EU331jzWdo4+Uvg7zsfL9UPj+P&#xA;se5u6Ro0kjBEQFmZjQADckk5q3ekvI/OXnyTzVJc6F5dvUsfLsHw+YfNEh4wLGdjDAxpyZ+gpu/b&#xA;4anNhhwcHqkLl0DqNRqvFuEDUP4pfq/G7z/zn+aVqNFTyj5Ljew8uwL6Ul0arPcg1516FVcmrd27&#xA;0G2ZeHTHi457ydfqNaOHw8W0PveaZmOtZD5K8j635u1VbHTY6RKQbu8YH0oUP7THufBRucqzZo4x&#xA;ZcjT6aWWVRfU3ljyzoHkny6LS2IjghHqXd24AeWTu707noo+gZz+q1XOczQD1uj0fCBCAsn7WC+a&#xA;fM1xrd2FSqWMR/0eHuT05tT9o/hnCdo9oS1EttoDkP0va6DQjBHf6zzP6EjIZGoQVYdjsc1xBDn3&#xA;b2LyrrI1bRobhjW4T91cD/LXv/shvnednarx8Ql/ENj73i9fpvBykdOYTfM5w3Yq7FXYq7FXYq7F&#xA;XYq7FXYq7FXYq7FWPy+SdJutRmv79pLqaZ+XBm4oANlWi0OwFOuauXZOKeQzncifk7GPaeSEBCFR&#xA;ASXzf5M0a00ia/sUa3lg4kpyLIwZgpHxEkddqZgdp9lYoYjOA4SPx1c7s7tLLPIIT3BYDFLLDKss&#xA;TFJEIZHU0II6EHOZjIxNjYh6GUQRR5PQ/Ln5g200a2+rsIZwKLcgfA/+sB9k/h8s6nQ9txkOHLtL&#xA;v6H9X3PN63siUTxYtx3dzMYpYpo1lidZI3FUdSCpHiCM30ZCQsGw6SUSDR2LHvNn5h+U/KvFNXvQ&#xA;lzIvKO0iUyTMvjxX7I8C1BmRi0858g4ufV48X1Hd4Xp3m+xtde84XF3HcWdp5qSb9G6jPEw4c3aR&#xA;EegJ4OrcSVrTbr1zaSxExjW/DzeflmBOTmPEBo/jveXsSWJJqSak++Zrr2sVZN+XvnM+T/MB1gWx&#xA;uz6EkPoc/TBL0pVuL7AivTKc+HxI05Ok1Hgz4qtF+c/zW83eaw0F5cC204n/AHgtqpEadOZqWf8A&#xA;2Rp7ZHDpYY+XNnqNdky7E0O4MZu9UvruGK3lkItbev1e1T4Ykr1KoNuRpux+I9ycuEQHGlMkV0Q8&#xA;UMs0qRQo0kshCpGgLMxPQADcnJEsQLereRfyB13VXjvPMfLStO2b6tt9akHhxNRF/st/8nMDNrox&#xA;2juXa6bsuc95+kfb+x7pb2/ljyboqW1tFHY2UX93Em7yPTc7/E7nuT9OaLWa2OMceQ/jyem0eiMv&#xA;RjH483nvmXzTea3OAf3NnGf3VuD/AMM/i36s4rX9oz1B7oDkP1vYaLQRwDvl3vQPJVhYwaBaTwxK&#xA;Jpk5Sy0HJmqa1PXbpnT9k4YRwRIG5G5ed7TyzlmkCdgnskUUq8ZUV1/lYAj8c2Mog7EW6+MiOSlb&#xA;WFlalzawRwepQyemoQEjoTSmRx4YQvhAF9zOeWc/qJNd6vljW7FXYq7FXYq7FXYq7FXYq7FXYq7F&#xA;XYq7FWFfmVqwS0h0uM/vJyJZgP5FPwj6W/VnPdvamojEOZ3Pu/t+53vYunuRyHkNgkWi/l/q1+iz&#xA;XRFlA245ishH+ptT6Tmu0nYuXILl6I/b8nP1Pa+PHtH1H7Pmnk35YWPoN6N5L6/E8C4XhyptUAVp&#xA;mxl7Pw4dpHicCPbk73iKYbZeadU8tLcSpJ+4tw73Fs+6HgDy27HbqM1HZ+oz48oxwP1Sqjyvk7Pt&#xA;DDhniOSfKMbsc6G6Q/l3bLeDXfzR8yot3LBIw06GQVRrpqUIB/ZTkiJ4b/y56fnNVii+VYZARnqM&#xA;m9cvexrVNQu9VvJrzUJDcT3DFpGfetewHYDsO2XxiIig83kzSnIykbkWO6hoKtWS0+Fu8R6H5HLY&#xA;z723HqOkkkkikjcpIpRh1BFDljlgg8k68u+SfNXmNZH0XTpLyOFgkkilVQMRWnJyq1+nKsmaEPqN&#xA;N+LTZMn0i2Yab/zj3+YN0R9aW109f2vXmDkD2EIlH45jy1+McrLmQ7KzHnQ/HkzXQ/8AnGrSIuL6&#xA;1qs103Uw2qLCnyLv6jMPkFzGn2if4Q5uPseI+qV+56JpPlnyP5Ot+dlaW2nbEG4f4pnHceo5aRvl&#xA;XNdqdaALySoO30ugANY47/jqles/mTCnKLSYvUbp9YlBC/7FOp+mnyznNV28BtiF+Z/U9BpuxSd8&#xA;hryH62E31zqd+xvrxpJuR4+swPGv8o/ZHXoM57NkyZDxzs+bvcUMeP0RoeSEyhuek/lrqgm02XT3&#xA;P7y1bnGP+K5DX8Gr9+db2DqOLGcZ5x+4/teY7awcMxMfxfeGY5vnSuxV2KuxV2KuxV2KuxV2KuxV&#xA;2KuxV2KuxV2KuxVKLXy5aLqk2q3f+k3sj1iZh8MSDZFRfED9r9WYOPQxGQ5ZeqZ+zur9bmT1kjjG&#xA;OPpiPt96b5nOG7FXzX+aGqNLrN5oWnKZ76/vHQRR7ni8p4KPdzQAeGarsPs0z1U9RL+7hKVeZs/Y&#xA;Pvcn2g7TEdNDTQ3yTjG/Ibfafu+CfefWg8v+W9E8j2jqzWESz6ky9DO4Lfizs9D2K51OD1yMz15P&#xA;D9r5RCEcA/h3l7/x+hgOZboVO4uIbeIyStxUfeT4DCBaYxJNBJbe3v8AzBqSwQrxQdT+zGndmzH1&#xA;+ux6TEZz+A7z3O+7K7LyanIMeP4nuHe9+8r+bdN8taHb6Rpuk8YIB8UjT/FJIftSPSPdmOcLl9pj&#xA;OVmH+y/Y+k4PZuOOIiJ7f1f2o24/M7Um/wB57OGP/XLP+opmNP2gyH6YgfM/qcqHYcOsifs/WlV7&#xA;538yXVR9a9BD+zCoSnyb7f45g5e19RP+Kvdt+1zMXZeCH8N+/wDFJK73FzNV2eaaQ0qSXZifnUnM&#xA;AmUzvZJc4CMRtsF11ZXlo4S6gkgc7hZUZCR8mAw5MU4GpAx96IZYzFxIPueteUbWNPK9lEyArJGX&#xA;dSAQfUJbf787fszGBpoiuY+94/tDITqJHuP3JJ5k/L6CcNc6QBDP1a16Rt/qfyn26fLNfr+xIy9W&#xA;LY93T4d33Odou1zH05Nx39f2sR0PUbnQNcSWaNkMZMV1CRRuDfaFD4dRmi0eeWmzAkVWxHk7nVYY&#xA;6jFQPmC9hiljliSWNg8cihkYdCpFQRneRkCLHIvFyiQaPNdhQ7FXYq7FXYq7FXYq7FXYq7FXYq7F&#xA;XYq7FXYq7FXYq8h/NH81fNmi663lnSNPitLidUNtqtxIvGRZF+1GJOEScWqtXYjbpmw02mhKPET8&#xA;HT67Xzxy4IivMsQ8vSaH5RMmsyXI1/zpcBytx8TWto0gIZubgGaQ13Ybdq9zfKJmOEDhh97qDrse&#xA;G5A+JmPXoP1ljl/fzXNxLeXs3OaZi800h3LHck5fGNCg6SUpTkSdyUou9etogVh/ev49F+/LBAtk&#xA;NOTz2X+W/KfmPzhqkMFupCSNx9dwRGo/aoO9BmDq+0sWAiA9WU8oj7z3D8AF3/Z3Y2TNHiA4cQ5y&#xA;P6O8/g0+itK/KDyxpeiCwsw4vKVe/Yku8lOrL9njXt+Oc92hohqt5k8fQ9B8O77fN7Ds7UflBw4w&#xA;OHr3n3nv+zyYPLp95FftYNGfrSyel6Y6l60FPnnDSwTE+CvVdPaRzRMOO/TVvVPLHlSz0e2VnVZb&#xA;9x+9nIrSv7KV6D9edp2f2dDBGzvPqf1PJa7XyzS22h3frY7+YXlqGFBq1nGEUkLdxqKCp+zJQdN9&#xA;jmq7b0AiPFgK7/1uy7I1pJ8OR936kH+Wtis2szXTCv1WL4PZ5Dxr/wADyzH7BwiWUyP8I+/8Fu7a&#xA;y8OIR/nH7noWpaXY6lbNbXkQljPQn7SnxU9Qc6jPp4ZY8MxYedwZ54pcUTRX2FnHZWUFpES0cCCN&#xA;WalSFFN6UyWHEMcBEcgKY5chnIyPMq+WtaS+ZPK1lrUFWpFeIKRXAG/+q3iua/X9nQ1A7p9C52i1&#xA;88B749yH8mjU7S2m0nUYystmR6EnVXiatOLd6EZV2X4kInFkG8OXmGztLw5yGSB2lz97Is2rrXYq&#xA;7FXYq7FXYq7FXYq7FXYq7FXYq7FXYq7FXYq7FUj82+S/L/mvTxZaxb+oEqYLhDxmiY9TG+9Om4Ox&#xA;7jLcWaUDYaM+nhlFSDyPVP8AnHfzHE7DRtfjlg/YS7EkTKOwLRiWvzoPlmfHXx6h0mTsPf0kfFBW&#xA;n/ONnmieQHU9atIlr8TxCa4YD2DiH9eSPaERyBWHYsupA934CXRfl7oel388Uha+eCV0V5gAp4MR&#xA;X0xtvToSc4btL2k1M5ShA8EQSNufz/VT3PZnsvpccYzmPEkQDvy+X67e2eQPLqabpi3kiBbm6UFV&#xA;pThF+yo+fU5l9j6Pw4eJL65/d+N2PamqE58Efoh97Ks3Dqkpfy7Zv5hXWW/vUj4BKbF9xzPvx2zC&#xA;Ohgc/jda+3v+TmDWSGHwul/gJtma4aje2kN5ZzWswrFOhRvkRSoyvLiGSBieRDPFkMJCQ5hh/wCX&#xA;VlNZXms20y0kheKMmmxoZOnz65ouw8RxzyRPMED73ddsZROOOQ5G/wBDNs6F0TsVdirsVdirsVdi&#xA;rsVdirsVdirsVdirsVdirsVdirsVdirsVdirsVdirsVdiryvSdFOqecbmGRa28NxLLcA/wAqyH4f&#xA;9kds4vTaTxtXIH6RIk/N63UanwtMCOZiAPk9UztHknYq7FXYq7FVCKyt4rqe5jWktzw9Y+PpghT9&#xA;xyuOKMZGQ5yq/g2SySMRE8o8vir5Y1uxV2KuxV2KuxV2KuxV2KuxV2KuxV2KuxV2KuxV2KuxV2Ku&#xA;xV2KuxV2KuxV2KpfpejW2nSXk0Z5zXs7zzSEUPxMWVR7LXMXT6WOIyI5zkSf1ORn1MsgiDyiAAmG&#xA;ZTjuxV2KuxV2KuxV2KuxV2KuxV2KuxV2KuxV2KuxV2KuxV2KuxV2KuxV2KuxV2KuxV2KuxV2KuxV&#xA;2KuxV2KuxV2KuxV2KuxV2KuxV2KuxV2KuxV2KuxV2KuxV2KuxVhqfmMrSWyvpskaXENtemZpA0UV&#xA;ld8hFLK8auI3rG1Q1EFP7zpVVK4vzjt30y21B9LdYriKOdEEjFnSZI5F9LlEocoJf3u4C8WoWpiq&#xA;c3Hnq6tjHDNpEv1ueNpoKeskJjRikjSSTQwyR8HMakGOp9RePIciqqhc/mfplnfjT7y3MN3GsjXq&#xA;iWNliEUpV2BqGdPRhmm5cRRY6NxZguKobT/ze0m7ihuDYzx2bxSPcXgaN4oJI5DHwkKmu5aI8gKA&#xA;SITtyKqprN534c2j093hFxb2EbtLGha7ukheNeLbiMLcCr/a2NEIoSqgrb80tLmvv0e1lcR3xvk0&#xA;5Y6KyNIJlguHVwacIHYcmNK8kpu1MVZrirsVdirsVdirsVdirsVdirsVdirsVdirsVdirsVdirsV&#xA;dirsVdiqV+arqa08saxdwSGGe3srmWKUUqjpEzK2+2xFcVeIw6/q66Za6tPc+YooZvRklmmuLhdL&#xA;EVwYaIk9Q/JRMVVmmozqQQK0QIYlJ5488DSbx4tcunvEdf7y8lXihQH9yFnYkmYtGw4ycUUOGfli&#xA;q/8Axz525crjVrq3iFm7oy30rAlVP7yVvXYRygb8K9aDjvir6EX/AJVf6XwfoT0vrXb6px+ubfR6&#xA;3T/K6YUo25/wT+iYfrX6N/RHoQfV/V9D6t9X5r9X4cvg9Pnw9Om1aUxVQsP+Vd/oc/UP0R+hvTm5&#xA;eh9W+renyT6xXh+748uHP3417YqqWv8AgP8ARp+q/ov9G+rv6X1f0PW4/wCT8HPj9NMVVIP8GfVZ&#xA;/Q/R31X0pvrXD0PT9HhH6/qU24en6XOu1ONdqYqg5/8AlWf1i4+sfoX6x6DfW/U+q8/q/P4vUrv6&#xA;fPrXauKplp/+GP0ev6P+pfo71IeH1f0vR9Skf1enD4eVPS9P/Y07YqmmKuxV2KuxV2KuxV2KuxV2&#xA;KuxV2KuxV2KuxV2KuxV2KuxV2KuxV2KoDX/0T+gtR/TFP0R9Vm/SPLlT6t6betXh8VOFem+KvnG5&#xA;/wChXv8ACsH1j9Nf4b9Q+hy/Snoc6b0/2P4YqyfTf+VKfp3y/wDUv0z+lf0YP8PV+uU/R31RP7rn&#xA;+7p9W4Vr8VPfFUPd/wDQvv8AhTXfrf1//DX6Sn/TtfrHp/XvXh9f7H7ynrejX0/h6UxV/9k=</xmpGImg:image>
               </rdf:li>
            </rdf:Alt>
         </xmp:Thumbnails>
      </rdf:Description>
      <rdf:Description rdf:about=""
            xmlns:xmpMM="http://ns.adobe.com/xap/1.0/mm/"
            xmlns:stRef="http://ns.adobe.com/xap/1.0/sType/ResourceRef#"
            xmlns:stEvt="http://ns.adobe.com/xap/1.0/sType/ResourceEvent#">
         <xmpMM:OriginalDocumentID>uuid:9E3E5C9A8C81DB118734DB58FDDE4BA7</xmpMM:OriginalDocumentID>
         <xmpMM:DocumentID>xmp.did:E65138E141206811822A8451A1857300</xmpMM:DocumentID>
         <xmpMM:InstanceID>xmp.iid:E65138E141206811822A8451A1857300</xmpMM:InstanceID>
         <xmpMM:RenditionClass>proof:pdf</xmpMM:RenditionClass>
         <xmpMM:DerivedFrom rdf:parseType="Resource">
            <stRef:instanceID>xmp.iid:E55138E141206811822A8451A1857300</stRef:instanceID>
            <stRef:documentID>xmp.did:E55138E141206811822A8451A1857300</stRef:documentID>
            <stRef:originalDocumentID>uuid:9E3E5C9A8C81DB118734DB58FDDE4BA7</stRef:originalDocumentID>
            <stRef:renditionClass>proof:pdf</stRef:renditionClass>
         </xmpMM:DerivedFrom>
         <xmpMM:History>
            <rdf:Seq>
               <rdf:li rdf:parseType="Resource">
                  <stEvt:action>saved</stEvt:action>
                  <stEvt:instanceID>xmp.iid:F77F117407206811822A8451A1857300</stEvt:instanceID>
                  <stEvt:when>2013-10-06T17:09:14+13:00</stEvt:when>
                  <stEvt:softwareAgent>Adobe Illustrator CS6 (Macintosh)</stEvt:softwareAgent>
                  <stEvt:changed>/</stEvt:changed>
               </rdf:li>
               <rdf:li rdf:parseType="Resource">
                  <stEvt:action>saved</stEvt:action>
                  <stEvt:instanceID>xmp.iid:E65138E141206811822A8451A1857300</stEvt:instanceID>
                  <stEvt:when>2013-10-07T00:19:11+13:00</stEvt:when>
                  <stEvt:softwareAgent>Adobe Illustrator CS6 (Macintosh)</stEvt:softwareAgent>
                  <stEvt:changed>/</stEvt:changed>
               </rdf:li>
            </rdf:Seq>
         </xmpMM:History>
      </rdf:Description>
      <rdf:Description rdf:about=""
            xmlns:xmpTPg="http://ns.adobe.com/xap/1.0/t/pg/"
            xmlns:stDim="http://ns.adobe.com/xap/1.0/sType/Dimensions#"
            xmlns:xmpG="http://ns.adobe.com/xap/1.0/g/">
         <xmpTPg:NPages>1</xmpTPg:NPages>
         <xmpTPg:HasVisibleTransparency>False</xmpTPg:HasVisibleTransparency>
         <xmpTPg:HasVisibleOverprint>False</xmpTPg:HasVisibleOverprint>
         <xmpTPg:MaxPageSize rdf:parseType="Resource">
            <stDim:w>209.999929</stDim:w>
            <stDim:h>210.001308</stDim:h>
            <stDim:unit>Millimeters</stDim:unit>
         </xmpTPg:MaxPageSize>
         <xmpTPg:PlateNames>
            <rdf:Seq>
               <rdf:li>Cyan</rdf:li>
               <rdf:li>Magenta</rdf:li>
               <rdf:li>Yellow</rdf:li>
               <rdf:li>Black</rdf:li>
            </rdf:Seq>
         </xmpTPg:PlateNames>
         <xmpTPg:SwatchGroups>
            <rdf:Seq>
               <rdf:li rdf:parseType="Resource">
                  <xmpG:groupName>Default Swatch Group</xmpG:groupName>
                  <xmpG:groupType>0</xmpG:groupType>
               </rdf:li>
            </rdf:Seq>
         </xmpTPg:SwatchGroups>
      </rdf:Description>
      <rdf:Description rdf:about=""
            xmlns:pdf="http://ns.adobe.com/pdf/1.3/">
         <pdf:Producer>Adobe PDF library 10.01</pdf:Producer>
      </rdf:Description>
      <rdf:Description rdf:about=""
            xmlns:xmpRights="http://ns.adobe.com/xap/1.0/rights/">
         <xmpRights:Marked>True</xmpRights:Marked>
         <xmpRights:WebStatement rdf:resource="http://www.ospreydawn.com"/>
         <xmpRights:UsageTerms>
            <rdf:Alt>
               <rdf:li xml:lang="x-default">This work is licensed under a &lt;a rel="license" href="http://creativecommons.org/licenses/by-nc-sa/3.0/"&gt;Creative Commons Attribution-NonCommercial-ShareAlike 3.0 Unported License&lt;/a&gt;.</rdf:li>
               <rdf:li xml:lang="en_us">This work is licensed under a &lt;a rel="license" href="http://creativecommons.org/licenses/by-nc-sa/3.0/"&gt;Creative Commons Attribution-NonCommercial-ShareAlike 3.0 Unported License&lt;/a&gt;.</rdf:li>
               <rdf:li xml:lang="en">This work is licensed under a &lt;a rel="license" href="http://creativecommons.org/licenses/by-nc-sa/3.0/"&gt;Creative Commons Attribution-NonCommercial-ShareAlike 3.0 Unported License&lt;/a&gt;.</rdf:li>
            </rdf:Alt>
         </xmpRights:UsageTerms>
      </rdf:Description>
      <rdf:Description rdf:about=""
            xmlns:cc="http://creativecommons.org/ns#">
         <cc:attributionName>Max O'Brien / Osprey Dawn</cc:attributionName>
         <cc:license rdf:resource="http://creativecommons.org/licenses/by-nc-sa/3.0/"/>
      </rdf:Description>
   </rdf:RDF>
</x:xmpmeta>
                                                                                                    
                                                                                                    
                                                                                                    
                                                                                                    
                                                                                                    
                                                                                                    
                                                                                                    
                                                                                                    
                                                                                                    
                                                                                                    
                                                                                                    
                                                                                                    
                                                                                                    
                                                                                                    
                                                                                                    
                                                                                                    
                                                                                                    
                                                                                                    
                                                                                                    
                                                                                                    
                           
<?xpacket end="w"?>
	</metadata>
<g id="Layer_2">
	<g id="_x37_Wl2mV_1_">
	</g>
</g>
<g>
	<g>
		<path fill="#F5922D" d="M389.373,127.165c-0.019,0.255-0.039,0.511-0.058,0.771c-0.418,1.496-0.96,2.984-0.034,4.496
			c0.028,0.155,0.056,0.316,0.084,0.479c0.472,1.285,0.987,2.541,2.291,3.236c0.119,0.283,0.271,0.521,0.636,0.495
			c0.407,0.834,1.227,1.064,1.998,1.354c0,0,0.092-0.047,0.092-0.048c1.495,1.262,3.33,1.355,5.15,1.497
			c1.046,0.133,2.09,0.134,3.135,0.001c1.479-0.086,3.079,0.335,4.25-1.028c6.577-3.476,13.004-7.181,19.021-11.603
			c4.3-3.165,8.256-6.627,11.561-10.856c1.481-1.896,3.52-3.297,5.607-4.645c-0.378,0.984-0.667,2.021-1.151,2.954
			c-2.521,4.854-3.591,10.212-5.281,15.354c-1.06,3.212-2.478,6.313-3.409,9.562c-1.035,3.582-2.521,7.016-3.366,10.646
			c-0.223,0.947,0.011,1.912-0.039,2.863c-0.08,1.6,0.124,3.187,0.005,4.801c-0.232,3.188,1.366,5.479,4.132,6.97
			c0.501,0.271,1.099,0.384,0.868,1.188c-0.12,0.43,0.198,0.724,0.572,0.686c3.041-0.312,5.805,1.434,8.874,1.125
			c1.652-0.163,3.271-0.354,4.854-0.842c2.66-0.811,5.324-1.604,7.991-2.396c0.438-0.129,0.979-0.452,1.312,0.029
			c0.283,0.43-0.207,0.779-0.404,1.149c-1.188,2.225-2.005,4.581-2.812,6.969c-0.809,2.405-0.806,4.86-1.066,7.311
			c-0.062,0.552-0.021,1.135,0.079,1.683c0.802,4.304,4.771,8.14,9.058,9.165c2.238,0.536,4.365,0.729,6.673,0.442
			c2.166-0.271,4.411,0.144,6.625,0.177c4.99,0.076,9.963,0.062,14.94-0.633c3.228-0.451,6.464-0.899,9.562-1.804
			c2.846-0.816,5.692-1.521,8.577-2.131c2.193-0.462,4.396-0.918,6.717-1.146c-1.07,0.848-2.062,1.854-3.24,2.506
			c-1.897,1.045-3.285,2.697-5.059,3.887c-2.873,1.938-5.46,4.25-8.34,6.205c-2.929,1.987-5.925,3.938-8.578,6.328
			c-1.312,1.188-2.726,2.3-4.204,3.279c-1.929,1.272-2.787,3.422-4.316,5.012c-0.601,0.618-1.097,1.343-1.7,1.968
			c-1.962,2.012-2.604,4.408-2.229,7.188c0.318,2.356,0.734,4.58,2.493,6.418c1.254,1.311,2.633,2.249,4.368,2.673
			c0.895,0.218,1.71,0.626,2.564,0.908c4.188,1.382,7.938,3.896,12.312,4.812c0.457,0.338,0.411,0.797,0.304,1.271l0.021,0.085
			c-2.157,2.16-3.615,4.782-4.945,7.487c0,0-0.005,0.102-0.005,0.103c-0.308,0.12-0.491,0.333-0.502,0.675
			c-0.234,0.094-0.298,0.279-0.271,0.519c-0.937,0.837-1.241,2.055-1.868,3.074c-3.244,5.312-5.069,10.989-4.312,17.31
			c-0.125,0.265-0.114,0.522,0.018,0.788c-0.011,0.298-0.071,0.604-0.021,0.893c0.792,4.065,3.293,6.714,6.982,8.369
			c0,0,0.082-0.038,0.083-0.038c0.385,0.857,1.257,0.998,1.979,1.348c0.127,0.189,0.304,0.247,0.521,0.207
			c1.339,1.015,2.89,1.532,4.479,1.958c0.166,0.031,0.335,0.062,0.502,0.095c1.199,0.77,2.562,1.023,3.938,1.232
			c0.166,0.026,0.333,0.054,0.501,0.078c0.912,0.445,1.87,0.697,2.892,0.664c0.258,0.033,0.521,0.067,0.772,0.1
			c2.198,0.784,4.509,0.979,6.805,1.23c0.427,0.031,0.854,0.062,1.284,0.093c2.663,0.696,5.388,0.991,8.117,1.271
			c0.167,0.01,0.336,0.021,0.503,0.026c0.48,0.45,1.143,0.312,1.711,0.483c0.438,0.135,1.097,0.007,1.256,0.479
			c0.18,0.538-0.484,0.729-0.828,1.009c-1.328,1.062-2.686,2.088-4.032,3.128c0,0-0.005-0.012-0.004-0.012
			c-1.884,0.633-3.66,1.5-5.413,2.427c-0.167,0.036-0.337,0.068-0.504,0.105c-0.498-0.188-0.789,0.271-1.188,0.394
			c-5.528,1.673-10.729,4.112-15.812,6.823c-0.824,0.438-1.74,0.764-2.374,1.518c-0.222-0.031-0.396,0.024-0.521,0.229
			c-0.646,0.35-1.402,0.555-1.72,1.325c-0.13-0.102-0.233-0.065-0.332,0.054c-2.559,1.583-4.663,3.602-6.12,6.258
			c-0.209,0.127-0.263,0.311-0.188,0.536c-0.327,0.36-0.33,0.729,0.017,1.088c0.062,0.345,0.118,0.688,0.184,1.031
			c0.109,1.095,0.452,2.07,1.344,2.785l-0.032,0.09c-0.038,0.28,0.114,0.499,0.271,0.707c2.669,3.562,6.104,6.188,10.001,8.271
			c0,0,0.084-0.029,0.084-0.031c0.406,0.789,1.172,1.059,1.931,1.324l0.004-0.006c1.623,1.502,3.603,2.497,5.444,3.662
			c1.417,0.895,2.646,2.109,4.291,2.636l0.079-0.04c1.324,1.438,2.925,2.494,4.628,3.41c0,0,0.076-0.021,0.077-0.021
			c0.362,0.829-0.11,0.922-0.78,0.951c-1.954,0.104-3.931-0.021-5.854,0.483c-0.152,0.005-0.312,0.011-0.463,0.014
			c-0.363-0.295-0.729-0.316-1.098,0.008c-0.688-0.011-1.386-0.048-2.062,0.146c-1.509,0.088-3.026,0.074-4.474,0.618
			c-0.341,0.021-0.679,0.048-1.018,0.063c-2.212,0.271-4.442,0.443-6.552,1.255c-0.354-0.056-0.695-0.034-1.021,0.117
			c-2.312,0.521-4.662,0.907-6.824,1.95c-0.161,0.029-0.32,0.059-0.483,0.085c-2.916,0.802-5.753,1.808-8.39,3.322
			c-0.216-0.059-0.396-0.021-0.532,0.167c-0.771,0.23-1.549,0.462-2.104,1.105c-0.211-0.025-0.386,0.025-0.512,0.207
			c-0.666,0.265-1.645,0.296-1.056,1.46c0.013,0.519,0.021,1.027,0.035,1.542c0.108,2.577,0.616,5.026,2.32,7.085l-0.006,0.012
			c0.795,1.805,2.146,3.064,3.873,3.965c0.19,0.685,0.662,1.088,1.323,1.292l0.062-0.026l-0.062,0.021
			c0.093,0.47,0.399,0.708,0.851,0.802c0,0,0.076-0.016,0.077-0.016c0.822,1.183,1.9,2.056,3.211,2.646
			c0.023-0.021,0.047-0.046,0.068-0.062c-0.021,0.021-0.045,0.047-0.065,0.062c0.004,0.419,0.27,0.618,0.633,0.719
			c0,0,0.092,0.021,0.093,0.021c0.926,1.063,1.97,1.979,3.245,2.612c0.744,0.976,1.685,1.691,2.83,2.133
			c0,0,0.008-0.008,0.009-0.008c1.595,1.744,3.549,3.009,5.569,4.174c0,0,0.084-0.023,0.085-0.023
			c0.48,0.671,1.121,1.117,1.916,1.34c0,0,0.005-0.008,0.007-0.008c1.068,1.229,2.492,1.919,3.926,2.604
			c0,0,0.004-0.002,0.004-0.008c0.938,1.011,2.146,1.578,3.378,2.104l0.014-0.003c0.962,1.017,2.208,1.565,3.467,2.097
			c0,0,0.087-0.025,0.09-0.025c2.375,1.77,5.021,3.059,7.721,4.231c0.128,0.187,0.306,0.236,0.518,0.199
			c2.091,1.438,4.479,2.237,6.797,3.188c0.174,0.064,0.354,0.137,0.524,0.197c0.174,0.44,0.394,0.87,0.512,1.326
			c0.557,2.151,0.547,2.155-1.521,2.062c-0.411-0.154-0.835-0.21-1.271-0.114c-1.762-0.766-3.67-0.865-5.521-1.234
			c-0.25-0.022-0.5-0.05-0.75-0.073c-0.854-0.338-1.721-0.604-2.646-0.615c-0.258-0.043-0.514-0.082-0.771-0.125
			c-1.873-0.613-3.794-1.027-5.759-1.25c-0.25-0.029-0.5-0.062-0.751-0.097c-1.755-0.793-3.661-0.886-5.519-1.229
			c-0.252-0.021-0.505-0.045-0.757-0.066c-0.939-0.34-1.872-0.706-2.9-0.649c-0.427-0.037-0.854-0.077-1.276-0.117
			c-2.209-0.771-4.521-0.95-6.812-1.229c-0.346-0.021-0.688-0.037-1.036-0.057c-3.688-0.896-7.483-0.918-11.239-1.3
			c-0.339-0.02-0.679-0.026-1.018-0.042c-1.877-0.627-3.841-0.499-5.771-0.653c-2.091-0.188-4.18-0.175-6.268-0.008
			c-1.431,0.045-2.862,0.068-4.203,0.671c-0.166,0.014-0.332,0.025-0.499,0.043c-1.312,0.354-2.787,0.329-3.729,1.562
			c-0.104,0.031-0.133,0.104-0.104,0.198c-1.103,3.104-1.477,6.259-0.652,9.495c0.019,0.165,0.028,0.329,0.05,0.493
			c0.005,0.346-0.05,0.701,0.019,1.029c0.658,3.232,1.653,6.37,3.056,9.357c0.543,1.151,0.764,2.494,1.817,3.375l-0.044,0.085
			c0.438,1.433,1.03,2.773,2.124,3.84c0,0-0.052,0.089-0.051,0.089c0.043,0.21,0.039,0.439,0.135,0.628
			c0.858,1.604,1.79,3.18,2.586,4.812c0.496,1.02,1.399,1.884,1.312,3.149c-0.332-0.021-0.661-0.032-0.993-0.051
			c-1.949-0.728-4.016-0.911-6.038-1.246c-0.339-0.021-0.68-0.042-1.021-0.062c-1.185-0.457-2.411-0.672-3.685-0.638
			c-0.259-0.034-0.518-0.071-0.773-0.108c-0.103-0.067-0.191-0.197-0.308-0.212c-5.752-0.688-11.512-1.391-17.312-0.811
			c-1.636,0.163-3.398-0.043-4.881,1c-0.164,0.029-0.329,0.062-0.495,0.1c-1.462,0.369-2.801,0.95-3.763,2.183
			c0,0-0.007-0.007-0.005-0.007c-0.527,0.055-0.902,0.281-1.002,0.845l0.049,0.053c0,0-0.041-0.062-0.04-0.062
			c-0.329,0.026-0.507,0.201-0.523,0.533c0,0,0.008,0.003,0.01,0.003c-0.906,0.485-1.15,1.335-1.282,2.271
			c-0.255,1.812-0.333,3.642-0.208,5.454c0.156,2.273,0.307,4.576,1.24,6.722c0.021,0.164,0.044,0.332,0.062,0.496
			c0.164,1.394,0.563,2.715,1.243,3.942c0.04,0.162,0.078,0.327,0.116,0.491c0.416,1.764,1.049,3.438,1.97,4.989
			c0.04,0.167,0.079,0.332,0.118,0.496c0.238,0.95,0.562,1.861,1.192,2.638c-0.054,0.3,0.038,0.547,0.247,0.761
			c0.434,1.479,1.008,2.898,1.819,4.218c-0.043,0.218,0.021,0.396,0.203,0.521c1.215,3.396,3.069,6.467,4.843,9.574
			c0.606,1.06,0.872,2.37,1.991,3.107c-0.102,0.125-0.072,0.23,0.038,0.335c0.573,1.178,1.099,2.386,2.047,3.323
			c0,0-0.033,0.081-0.031,0.081c0.07,0.198,0.116,0.411,0.224,0.599c2.104,3.856,4.307,7.681,6.021,11.736
			c0.798,1.887,1.728,3.73,2.14,5.787c-0.859,0.062-1.271-0.729-1.992-0.739c0,0-0.085,0.033-0.086,0.033
			c-1.074-1.131-2.394-1.922-3.76-2.627l-0.008,0.002c-0.975-1.104-2.138-1.977-3.425-2.688c-0.052-0.21-0.174-0.28-0.378-0.184
			c-1.009-1.375-2.354-2.354-3.783-3.234c-0.007-0.093-0.056-0.142-0.145-0.146c-1.133-1.385-2.451-2.55-4.031-3.404l-0.063,0.026
			l0.067-0.02c-0.027-0.328-0.228-0.482-0.544-0.519l0.008,0.01c-0.946-1.2-2.14-2.116-3.446-2.893c0,0-0.091,0.005-0.091,0.01
			c-0.104-0.424-0.467-0.604-0.771-0.835c-2.456-1.836-4.899-3.688-7.374-5.494c-0.86-0.63-1.564-1.5-2.652-1.787l-0.004,0.003
			c-0.753-0.976-1.709-1.663-2.849-2.115c0,0-0.007,0.005-0.008,0.005c-0.662-1.001-1.647-1.579-2.708-2.066l-0.084,0.021
			c-0.434-0.74-1.128-1.109-1.915-1.345c0,0-0.007,0.007-0.007,0.01c-1.6-1.554-3.539-2.552-5.559-3.415l-0.088,0.036
			c-0.271-0.479-0.707-0.688-1.23-0.747c-0.202-0.207-0.438-0.316-0.73-0.292c-1.062-1.04-2.516-1.264-3.813-1.741
			c-1.993-0.74-4.013-1.468-6.188-1.471c-0.5-0.076-0.776,0.117-0.79,0.643c-1.448,2.43-2.261,5.062-2.558,7.863
			c-0.021,0.165-0.048,0.328-0.069,0.492c-0.438,0.92-0.454,1.915-0.525,2.896c-0.357,4.854-0.354,9.71-0.286,14.566
			c0.016,1.229-0.354,1.473-1.397,1.016l-0.086,0.074c0,0,0.094-0.067,0.09-0.067c-1.43-1.321-2.988-2.458-4.688-3.403l-0.074,0.054
			c0,0,0.073-0.052,0.072-0.052c-0.734-0.879-1.618-1.562-2.656-2.047l-0.007,0.01c-0.544-0.658-1.229-1.104-2.044-1.354
			l-0.002,0.007c-1.792-1.688-3.98-2.524-6.354-2.979c-0.425-0.037-0.851-0.079-1.271-0.116c-0.367-0.354-0.735-0.335-1.104,0.002
			c-0.426,0.037-0.854,0.074-1.273,0.111c-1.972,0.354-3.688,1.009-4.646,3.013c-0.858,1.8-1.684,3.614-2.271,5.519
			c-0.645,2.053-1.315,4.106-1.404,6.29c-0.033,0.34-0.062,0.677-0.098,1.015c-0.081,0.146-0.225,0.286-0.237,0.438
			c-0.684,5.416-1.021,10.854-1.009,16.312c-0.146,1.125-0.095,2.253-0.028,3.378c-0.509,2.417-0.534,4.878-0.659,7.327
			c-0.22,0.578-0.214,1.175-0.142,1.772c-0.552-0.021-0.761-0.58-1.209-0.768c0.047-0.212-0.005-0.392-0.186-0.528
			c-1.449-3.354-2.861-6.737-4.378-10.075c-0.759-1.678-1.143-3.524-2.271-5.041c0.052-0.217,0.008-0.396-0.167-0.547
			c-0.527-1.438-0.977-2.911-1.877-4.181c0.04-0.221-0.021-0.396-0.207-0.521c-1.81-4.599-4.199-8.881-6.899-12.992
			c-0.335-0.517-0.467-1.258-1.231-1.403l0.012-0.003c-0.18-0.825-0.669-1.438-1.34-1.911l-0.021-0.104
			c-0.668-1.188-1.461-2.239-2.817-2.698l-0.009,0.011c-0.244-0.604-0.822-0.661-1.346-0.822c-0.146-0.176-0.341-0.21-0.556-0.146
			c-2.271-1.021-4.547-1.141-6.835-0.062c-0.162,0.035-0.322,0.072-0.484,0.106c-1.389,0.318-2.591,0.924-3.329,2.224l-0.073-0.021
			c-1.748,0.72-2.854,2.219-4.109,3.5c-0.896,0.91-1.972,1.73-2.326,3.068c-0.29-0.021-0.429,0.113-0.403,0.405
			c-0.438,0.162-0.643,0.561-0.896,0.899c-1.709,2.231-3.21,4.612-4.581,7.062c-0.921,1.646-2.145,3.146-2.663,4.999l0.037,0.085
			c-0.486,0.252-0.744,0.664-0.821,1.197c-0.181,0.127-0.243,0.3-0.214,0.515c-0.397,0.167-0.443,0.604-0.683,0.887
			c-0.66,0.786-0.688,2.029-1.785,2.502c-0.081-0.167-0.161-0.334-0.242-0.501c-0.75-2.556-1.824-4.98-2.884-7.417
			c-0.339-0.771-0.507-1.653-1.312-2.146c0,0,0.05-0.088,0.046-0.088c-0.252-0.947-0.529-1.879-1.354-2.523
			c0,0,0.046-0.088,0.045-0.088c-0.277-0.779-0.521-1.589-1.354-2l0.032-0.085c-0.133-0.882-0.604-1.526-1.362-1.979
			c0,0,0.007-0.098,0.006-0.098c-1.688-2.776-4.073-4.812-6.889-6.367c-0.609-0.342-1.265-0.771-2.055-0.59
			c-0.435-0.153-0.87-0.153-1.304-0.005c-4.663,0.828-7.396,4.177-10.012,7.675l0.025,0.063l-0.016-0.067
			c-1.95,1.729-3.292,3.921-4.674,6.085l-0.017,0.094c-0.338,0.077-0.46,0.38-0.625,0.629c-1.458,2.211-2.988,4.377-4.344,6.646
			c-1.369,2.304-2.958,4.481-3.973,6.984c0,0,0.044,0.082,0.044,0.085c-0.501,0.236-0.729,0.725-0.979,1.162
			c-1.505,2.611-3.101,5.183-4.337,7.938c-0.771,1.728-1.967,3.267-2.292,5.186c0,0,0.04,0.088,0.041,0.09
			c-1.583,2.009-2.458,4.379-3.438,6.698c0,0,0.042,0.09,0.045,0.09c-1.062,0.876-1.452,2.169-2.073,3.312
			c-0.032,0.073-0.074,0.147-0.092,0.229c-0.01,0.027,0.043,0.066,0.064,0.104c-0.708,0.381-1.04,1.036-1.291,1.752l0.002,0.097
			c-0.648,0.494-1.103,1.133-1.343,1.916l-0.053-0.021c-0.781,0.578-1.229,1.449-1.875,2.146c-0.167,0.182-0.326,0.479-0.622,0.391
			c-0.353-0.104-0.395-0.47-0.358-0.759c0.132-1.134-0.022-2.25-0.068-3.378c-0.438-10.612-0.354-21.232-0.148-31.84
			c0.127-6.569-0.104-13.125-0.25-19.683c-0.078-3.521-0.562-7.088-1.576-10.519c-0.338-1.146-0.896-2.18-1.771-2.999
			c-1.281-1.21-2.792-1.42-4.484-1.066c-4.684,0.979-9.02,2.853-13.183,5.131c-4.449,2.439-8.835,4.995-13.271,7.475
			c-1.934,1.076-2.013,0.955-2.092-1.319c-0.19-5.61,0.595-11.188,0.463-16.803c-0.096-4.076-0.675-8.044-2.375-11.788
			c-0.704-1.55-1.611-2.999-2.803-4.209c-1.058-1.072-2.589-0.896-3.928-1.021c-6.886-0.674-13.304,0.982-19.515,3.875
			c-6.218,2.9-11.758,6.852-17.324,10.771c-3.049,2.142-5.981,4.441-9.438,6.578c0.963-2.923,2.3-5.331,3.506-7.785
			c2.37-4.825,4.948-9.562,6.822-14.609c1.066-2.876,2.177-5.771,2.45-8.887c0.097-1.104,0.077-2.166-0.354-3.203
			c-0.081-0.196-0.172-0.419-0.158-0.626c0.216-3.869-2.892-4.812-5.474-6.199c-1.497-0.805-3.132-0.979-4.81-0.89
			c-1.142,0.062-2.265-0.021-3.329-0.479c-0.813-0.347-1.647-0.229-2.428,0.057c-3.353,1.213-6.771,2.199-10.17,3.248
			c-1.263,0.388-2.348,1.276-3.866,1.465c0.283-1.7,1.027-3.188,1.755-4.518c2.271-4.179,1.561-8.51,1.113-12.846
			c-0.102-0.971-0.188-1.977-0.604-2.922c-1.204-2.746-3.479-4.185-6.12-5.262c-1.787-0.732-3.646-1.146-5.534-1.407
			c-2.68-0.374-5.352,0.046-8.025,0.133c-3.479,0.117-6.914,0.714-10.397,0.666c-0.433-0.005-0.896-0.042-1.295,0.091
			c-4.254,1.396-8.71,2.018-12.967,3.399c-1.986,0.646-4.112,0.573-6.122,1.207c-1.176,0.369-2.334,0.955-3.73,0.938
			c0.399-1.202,1.411-1.771,2.211-2.496c3.535-3.22,7.077-6.434,10.65-9.604c2.954-2.63,5.854-5.278,8.477-8.277
			c6.242-7.148,12.188-14.486,16.281-23.14c0.831-1.752,1.614-3.479,2.853-5.056c2.179-2.784,2.02-7.706-0.271-10.388
			c-1.479-1.729-3.612-2.65-5.741-3.455c-3.834-1.442-7.854-1.812-11.892-2.023c-3.339-0.176-6.688-0.231-10.027-0.34
			c-0.475-0.021-1.062,0.059-1.237-0.48c-0.166-0.496,0.384-0.725,0.692-0.995c5.324-4.527,10.896-8.803,15.651-13.958
			c3.586-3.887,6.952-8.021,8.056-13.349c1.149-5.534,0.251-8.29-4.148-11.291c-5.521-3.76-11.616-6.227-17.978-8.084
			c-4.459-1.312-8.945-2.529-13.461-3.628c-2.989-0.729-6.062-1.117-9.076-1.746c-3.646-0.766-7.11-1.979-10.013-4.438
			c-0.246-0.208-0.639-0.309-0.707-0.861c2.462-0.437,4.921-0.856,7.377-1.304c7.959-1.432,15.796-3.383,23.521-5.751
			c7.428-2.271,14.697-4.986,21.771-8.214c2.334-1.062,4.513-2.44,6.308-4.334c2.523-2.658,2.843-5.756,1.112-8.976
			c-2.251-4.196-5.907-6.994-9.5-9.88c-1.252-1.009-2.479-2.04-3.703-3.081c-0.273-0.234-0.712-0.479-0.444-0.954
			c0.201-0.37,0.597-0.264,0.938-0.264c4.854-0.021,9.723,0.058,14.505-0.973c4.125-0.885,7.335-3.043,9.242-6.921
			c0.331-0.671,0.285-1.245-0.035-1.964c-2.89-6.504-7.79-11.342-13.107-15.799c-4.465-3.738-9.123-7.24-13.929-10.521
			c-3.798-2.595-7.813-4.856-11.718-7.307c-3.166-1.987-6.223-4.136-9.051-6.586c-0.469-0.404-1.044-0.771-1.271-1.558
			c2.511,0.055,4.821,0.638,7.165,0.961c5.585,0.777,11.128,1.835,16.729,2.574c3.396,0.449,6.799,0.919,10.21,1.264
			c7.223,0.727,14.467,1.062,21.713,0.456c2.983-0.251,5.648-1.655,8.333-2.901c0.547-0.254,0.577-0.667,0.485-1.29
			c-0.821-5.728-3.188-10.896-5.647-16.035c-0.583-1.215-0.604-1.238,0.79-1.229c3.916,0.026,7.832,0.149,11.747,0.104
			c4.072-0.053,8.092-0.563,11.612-2.847c2.922-1.896,4.86-4.271,5.03-8.11c0.294-6.666-1.208-12.928-3.392-19.096
			c-2.332-6.588-4.757-13.146-8.057-19.333c-2.201-4.14-4.479-8.233-6.444-12.495c-1.167-2.532-2.026-5.171-2.996-7.774
			c-0.093-0.251-0.201-0.521,0.009-0.729c0.312-0.311,0.546,0.013,0.793,0.159c3.438,2.036,6.78,4.22,10.104,6.436
			c8.911,5.947,17.588,12.251,26.874,17.627c6.438,3.729,13.188,6.78,20.265,9.098c0.975,0.318,1.676,0.146,2.438-0.604
			c2.722-2.699,3.88-6.056,4.137-9.74c0.319-4.597-0.149-9.174-0.663-13.74c-0.038-0.344-0.067-0.698-0.021-1.042
			c0.104-0.749-0.438-1.843,0.312-2.165c0.606-0.26,1.326,0.647,1.924,1.111c2.98,2.315,5.843,4.795,9.046,6.804
			c3.021,1.896,6.227,3.273,9.911,3.13c0.747-0.023,1.293-0.221,1.843-0.74c4.022-3.853,5.738-8.828,6.932-14.06
			c1.456-6.396,2.146-12.921,2.882-19.435c0.586-5.222,1.312-10.422,2.456-15.561c0.085-0.391-0.042-1.081,0.445-1.108
			c0.574-0.036,0.538,0.685,0.697,1.1c3.687,9.536,7.838,18.84,13.686,27.283c3.124,4.512,6.568,8.777,10.867,12.242
			c3.487,2.812,7.453,4.244,11.9,2.756c3.833-1.283,6.736-3.862,8.896-7.296c2.475-3.938,3.866-8.314,5.406-12.646
			c0.396-1.104,0.812-2.199,1.24-3.294c0.116-0.295,0.118-0.794,0.577-0.738c0.341,0.04,0.306,0.467,0.39,0.752
			c1.087,3.708,2.104,7.438,3.29,11.109c1.526,4.743,3.489,9.271,7.224,12.784c1.113,1.051,2.423,1.823,3.701,2.646
			c2.015,1.285,3.45-0.007,4.982-0.92c2.778-1.654,4.762-4.145,6.749-6.606c3.778-4.692,6.137-10.271,9.458-15.238
			c2.232-3.344,3.07-7.244,4.745-10.802c1.818-3.876,3.36-7.875,5.187-11.753c1.143-2.421,2.003-4.974,2.943-7.483
			c0.938-2.51,1.638-5.115,3.188-7.479c-0.194,6.629-0.355,13.172-0.604,19.711c-0.077,2.034-0.536,4.048-0.406,6.101
			c-0.149,0.515-0.104,1.027-0.052,1.543c-0.479,0.416-0.493,0.979-0.496,1.546c-0.021,4.245-0.09,8.49-0.057,12.734
			c0.012,1.707-0.062,3.445,0.545,5.097c0.014,0.252,0.021,0.504,0.04,0.757c0.001,0.347-0.05,0.691,0.008,1.024
			c0.604,3.625,1.447,7.188,3.053,10.521c0.513,1.06,0.641,2.359,1.825,3.019l-0.042,0.075c-0.043,0.522,0.254,0.896,0.718,0.918
			c2.188,0.098,4.4,0.354,6.479-0.646c0.169-0.028,0.337-0.062,0.506-0.097c1.792-0.373,3.531-0.866,4.893-2.199
			c0,0,0.092,0.042,0.091,0.04c0.543-0.132,1.104-0.229,1.362-0.826l-0.067-0.002c0,0,0.067,0.015,0.065,0.015
			c0.757-0.229,1.446-0.554,1.857-1.274c0,0,0.013,0.005,0.012,0.004c1.365-0.612,2.477-1.555,3.436-2.686l0.062,0.019l0.042-0.05
			c0.812-0.582,1.675-1.107,2.156-2.037l-0.054-0.071l0.057,0.068c0.682-0.182,1.088-0.646,1.312-1.292l-0.042-0.072
			c0,0,0.044,0.073,0.044,0.072c2.271-1.341,3.891-3.399,5.72-5.224c0.28-0.021,0.5-0.123,0.521-0.448
			c0.284-0.104,0.554-0.22,0.574-0.58c0,0,0.006,0.01,0.004,0.009c1.269-0.262,1.771-1.771,3.197-1.929
			c-0.312,1.761-0.619,3.49-0.932,5.222c-0.021,0.165-0.047,0.33-0.064,0.496c-0.381,0.839-0.714,1.689-0.688,2.636
			c-0.029,0.166-0.062,0.331-0.097,0.497c-1.354,3.657-2.338,7.425-3.226,11.218c-0.209,0.235-0.227,0.518-0.155,0.81
			C389.94,123.264,389.517,125.185,389.373,127.165z M304.685,465.614c4.034,0.106,8.936-0.053,13.825-0.547
			c1.64-0.167,3.279-0.294,4.921-0.488c3.604-0.433,7.213-0.864,10.776-1.581c2.888-0.57,5.815-0.939,8.66-1.667
			c3.087-0.779,6.185-1.562,9.246-2.436c3.196-0.908,6.397-1.842,9.503-2.97c3.913-1.423,7.794-2.962,11.627-4.623
			c5.757-2.492,11.316-5.355,16.743-8.465c4.724-2.704,9.259-5.74,13.67-8.938c6.549-4.747,12.516-10.188,18.31-15.812
			c2.707-2.636,5.297-5.391,7.933-8.086c6-6.146,11.337-12.805,16.098-19.925c4.288-6.405,8.122-13.094,11.495-20.043
			c2.567-5.283,4.835-10.694,6.896-16.207c1.119-2.984,2.032-6.047,3.001-9.089c1.196-3.757,2.102-7.589,3.062-11.399
			c0.663-2.639,1.062-5.337,1.601-8.002c0.989-4.938,1.883-9.894,1.884-14.95c0.002-10.146-0.006-20.283,0.008-30.428
			c0.002-1.771-0.062-3.562,0.321-5.314c0.147-0.694-0.008-1.313-0.229-2.007c-0.686-2.189-1.556-4.343-1.747-6.663
			c-0.097-1.169-0.007-2.339-0.222-3.518c-0.578-3.151-1.166-6.308-1.935-9.43c-0.957-3.889-2.267-7.684-3.828-11.321
			c-1.225-2.829-2.034-5.805-3.41-8.562c-1.312-2.644-2.266-5.474-3.703-8.029c-1.629-2.901-3.061-5.912-5.012-8.653
			c-1.812-2.542-2.876-5.525-4.195-8.36c-1.496-3.226-3.542-6.158-5.254-9.276c-0.846-1.541-1.472-3.239-2.743-4.562
			c-1.229-1.279-2.188-2.804-3.285-4.195c-1.274-1.633-2.312-3.443-3.854-4.901c-1.791-1.696-3.507-3.505-5.059-5.428
			c-2.172-2.698-4.728-4.969-7.418-7.084c-2.975-2.339-5.812-4.825-8.521-7.448c-3.279-3.172-6.562-6.263-10.606-8.52
			c-1.896-1.062-3.9-2.196-5.3-3.954c-1.509-1.896-3.151-3.472-5.648-3.899c-0.408-0.066-0.802-0.332-1.169-0.557
			c-4.042-2.479-8.229-4.668-12.479-6.75c-5.772-2.828-11.729-5.229-17.789-7.36c-5.451-1.922-11.001-3.549-16.629-4.843
			c-5.066-1.165-10.188-2.104-15.354-2.852c-5.721-0.824-11.465-1.384-17.22-1.654c-7.382-0.354-14.779-0.238-22.15,0.438
			c-5.792,0.533-11.556,1.238-17.281,2.279c-5.647,1.026-11.238,2.292-16.739,3.892c-5.159,1.5-10.237,3.271-15.25,5.239
			c-6.266,2.463-12.316,5.354-18.219,8.546c-6.488,3.521-12.645,7.579-18.569,11.987c-5.551,4.127-10.887,8.51-15.882,13.283
			c-6.138,5.855-11.938,12.036-17.195,18.714c-6.3,8.001-11.921,16.438-16.763,25.396c-3.062,5.653-5.812,11.45-8.19,17.427
			c-2.902,7.271-5.29,14.711-7.123,22.325c-1.439,6.007-2.396,12.099-3.441,18.176c-1.04,6.048-1.52,12.146-1.686,18.264
			c-0.132,4.816-0.021,9.633,0.354,14.455c0.363,4.678,0.807,9.342,1.498,13.979c0.992,6.657,2.381,13.244,4.104,19.758
			c0.566,2.139,0.812,4.434,1.936,6.334c1.22,2.062,1.9,4.286,2.569,6.507c1.656,5.504,3.685,10.854,6.06,16.079
			c1.236,2.728,2.65,5.398,3.621,8.227c1.646,4.807,3.75,9.325,6.719,13.451c1.418,1.978,2.873,3.949,4.021,6.077
			c2.104,3.885,4.813,7.31,7.549,10.729c2.146,2.688,4.613,5.071,7.039,7.503c3,3.006,6.062,5.945,9.263,8.729
			c2.938,2.562,5.966,5.034,9.079,7.375c2.171,1.632,4.268,3.409,6.85,4.442c1.396,0.557,2.899,0.77,4.26,1.485
			c3.031,1.61,5.759,3.693,8.692,5.465c4.184,2.518,8.396,4.965,12.752,7.183c3.771,1.919,7.632,3.639,11.562,5.201
			c3.168,1.258,6.346,2.506,9.571,3.591c2.73,0.924,5.537,1.646,8.326,2.391c3.132,0.841,6.263,1.693,9.433,2.37
			c2.92,0.624,5.896,0.998,8.833,1.521c4.87,0.856,9.794,1.271,14.712,1.712C295.895,465.694,299.853,465.624,304.685,465.614z"/>
		<path fill="#FEFEFE" d="M304.685,465.614c-4.832,0.011-8.79,0.08-12.735-0.271c-4.918-0.438-9.841-0.854-14.711-1.712
			c-2.942-0.522-5.915-0.896-8.833-1.521c-3.169-0.677-6.301-1.531-9.433-2.37c-2.789-0.745-5.599-1.467-8.326-2.391
			c-3.229-1.085-6.404-2.333-9.572-3.591c-3.93-1.562-7.792-3.282-11.562-5.201c-4.354-2.218-8.568-4.665-12.752-7.181
			c-2.938-1.771-5.661-3.854-8.692-5.461c-1.358-0.728-2.86-0.938-4.26-1.491c-2.583-1.033-4.684-2.812-6.853-4.442
			c-3.11-2.341-6.14-4.812-9.081-7.375c-3.195-2.784-6.259-5.729-9.259-8.729c-2.425-2.434-4.892-4.812-7.04-7.503
			c-2.729-3.428-5.44-6.852-7.547-10.73c-1.149-2.128-2.604-4.104-4.021-6.077c-2.972-4.126-5.07-8.646-6.721-13.451
			c-0.968-2.819-2.382-5.499-3.623-8.227c-2.375-5.229-4.396-10.575-6.055-16.079c-0.669-2.221-1.354-4.445-2.572-6.507
			c-1.122-1.9-1.362-4.195-1.933-6.334c-1.728-6.51-3.11-13.103-4.105-19.757c-0.688-4.64-1.13-9.305-1.499-13.979
			c-0.379-4.822-0.48-9.638-0.354-14.455c0.167-6.117,0.642-12.216,1.682-18.264c1.046-6.077,2-12.168,3.445-18.172
			c1.833-7.618,4.218-15.06,7.123-22.329c2.383-5.977,5.134-11.771,8.188-17.422c4.845-8.958,10.464-17.397,16.766-25.398
			c5.26-6.679,11.062-12.854,17.192-18.714c4.993-4.773,10.329-9.156,15.885-13.283c5.93-4.408,12.08-8.472,18.564-11.987
			c5.901-3.192,11.956-6.083,18.222-8.546c5.015-1.972,10.093-3.735,15.25-5.235c5.502-1.604,11.094-2.864,16.736-3.896
			c5.73-1.041,11.495-1.746,17.286-2.279c7.372-0.678,14.771-0.793,22.15-0.438c5.755,0.271,11.499,0.83,17.22,1.656
			c5.162,0.742,10.281,1.685,15.349,2.85c5.631,1.294,11.183,2.921,16.632,4.843c6.062,2.141,12.019,4.532,17.788,7.36
			c4.252,2.082,8.439,4.275,12.481,6.75c0.367,0.225,0.759,0.486,1.169,0.557c2.497,0.435,4.144,2.003,5.646,3.899
			c1.396,1.757,3.399,2.896,5.302,3.954c4.045,2.256,7.326,5.348,10.604,8.52c2.71,2.623,5.558,5.109,8.526,7.448
			c2.69,2.116,5.246,4.386,7.418,7.084c1.547,1.923,3.266,3.729,5.057,5.428c1.538,1.458,2.571,3.271,3.854,4.901
			c1.098,1.396,2.053,2.916,3.285,4.197c1.271,1.316,1.896,3.02,2.743,4.561c1.712,3.118,3.758,6.056,5.254,9.276
			c1.316,2.835,2.388,5.819,4.193,8.363c1.947,2.738,3.385,5.755,5.014,8.65c1.438,2.562,2.39,5.396,3.703,8.029
			c1.376,2.763,2.188,5.739,3.408,8.562c1.563,3.643,2.868,7.438,3.825,11.321c0.771,3.122,1.355,6.272,1.938,9.432
			c0.215,1.176,0.125,2.347,0.222,3.516c0.191,2.326,1.062,4.473,1.747,6.663c0.218,0.688,0.379,1.312,0.229,2.007
			c-0.391,1.757-0.317,3.543-0.319,5.319c-0.016,10.14-0.006,20.277-0.008,30.423c-0.002,5.062-0.896,10.013-1.889,14.95
			c-0.533,2.665-0.933,5.368-1.596,8.002c-0.961,3.812-1.865,7.646-3.062,11.4c-0.972,3.043-1.883,6.104-3.001,9.094
			c-2.061,5.507-4.322,10.918-6.896,16.207c-3.373,6.943-7.207,13.632-11.495,20.043c-4.761,7.115-10.098,13.771-16.098,19.919
			c-2.638,2.699-5.229,5.456-7.935,8.086c-5.794,5.625-11.759,11.062-18.308,15.812c-4.411,3.195-8.946,6.231-13.67,8.938
			c-5.429,3.104-10.986,5.973-16.743,8.465c-3.833,1.661-7.714,3.2-11.627,4.623c-3.104,1.128-6.309,2.062-9.503,2.97
			c-3.066,0.873-6.159,1.65-9.246,2.438c-2.847,0.722-5.777,1.091-8.66,1.667c-3.566,0.711-7.174,1.146-10.781,1.581
			c-1.637,0.188-3.278,0.315-4.921,0.482C313.62,465.561,308.719,465.72,304.685,465.614z"/>
	</g>
	<g>
		<path fill="#039EA8" d="M226.171,502.829c-10.529,0-19.542-3.228-26.046-9.322c-2.604-2.559-4.938-5.668-5.163-6.854
			c10.096-2.287,19.505-9.803,25.848-20.627c1.856-3.182,2.938-6.873,4.085-10.779c3.008-10.274,5.849-19.984,22.436-21.104
			l1.924-0.13l-0.55-1.854c-0.021-0.07-2.212-7.605,0.677-12.669c0.896-1.558,2.6-3.551,4.567-5.854
			c4.905-5.737,11.623-13.604,13.03-23.246c1.945-13.375-4.229-26.205-4.494-26.744l-0.034-0.069l-0.042-0.062
			c-0.337-0.549-0.632-1.287-0.694-1.704c0.032-0.003,0.067-0.003,0.108-0.003c3.852,0.019,20.907,9.092,32.267,26.312
			c15.39,23.32,14.986,42.8,14.981,42.995l-0.062,2.021l1.969-0.476c0.396-0.096,40.161-10.146,58.021-55.707
			c19.794-50.494-1.683-85.615-11.835-98.372c-14.395-18.084-31.196-19.738-31.904-19.8l-2.525-0.222l0.972,2.35
			c0.062,0.146,6.206,14.979,10.5,26.428c4.513,12.038,19.062,25.359,26.882,32.521c7.521,6.887,7.568,9.854,7.403,10.603
			c-0.12,0.549-0.525,0.819-0.767,0.938c-2.541-0.104-21.098-1.074-40.587-8.674c-20.965-8.174-36.873-19.302-37.028-19.41
			l-2.15-1.521l-0.271,2.616c-0.047,0.445-1.1,10.999,2.349,17.532c1.961,3.724,1.706,5.646,1.378,6.46
			c-0.296,0.737-0.831,1.051-1.229,1.181c-0.068,0.026-0.472,0.146-1.285,0.146c-2.515,0-11.847-1.234-26.475-17.135
			c-15.604-16.97-15.208-23.729-15.2-23.803l0.446-5.079l-3.182,3.933c-0.104,0.123-10.103,12.497-22.668,18.433l-0.517,0.242
			l-0.23,0.521c-0.052,0.106-5.11,11.121-15.99,21.649c-9.941,9.624-17.677,16.438-26.657,16.438c-0.83,0-1.684-0.062-2.533-0.175
			c-9.5-1.268-10.604-7.506-10.646-7.771l-0.64-3.978l-1.579,2.438c-0.188-0.229-0.424-0.558-0.713-1.033
			c-1.697-2.776-2.146-10.928-0.897-16.443c1.229-5.438,4.432-13.474,4.462-13.554l0.27-0.667l-0.341-0.636
			c-5.153-9.618-12.222-36.532-2.062-69.547c13.667-44.421,46.403-76.396,92.188-90.021c10.51-3.129,22.259-4.715,34.918-4.715
			c35.008,0,66.051,12.164,66.357,12.288l0.343,0.135l0.365-0.033c0.05-0.004,4.938-0.438,12.571-0.438
			c15.73,0,45.651,1.873,69.269,14.412c29.393,15.604,34.189,29.188,33.562,32.722c-0.172,0.943-0.6,1-0.76,1.021
			c-0.146,0.02-0.305,0.021-0.478,0.021c-1.177,0-2.966-0.374-5.035-0.806c-2.996-0.625-6.727-1.404-10.457-1.404
			c-7.583,0-12.98,3.354-16.058,9.953c-3.894,8.366-1.692,17.843,1.632,32.189c3.082,13.297,7.306,31.507,8.021,56.646
			c1.422,50.055-25.233,91.922-25.508,92.34c-0.186,0.305-16.537,26.743-48.409,44.102c-31.948,17.395-68.986,19.743-69.354,19.765
			l-0.802,0.048l-0.424,0.686c-0.167,0.271-17.167,27.358-45.069,41.143C248.195,499.724,236.615,502.829,226.171,502.829z"/>
		<g>
			<path fill="#FFFFFF" d="M175.946,305.285c0,0-5.531,7.979-5.894,14.69c-0.363,6.71-0.729,11.424-2.539,12.785
				c-1.814,1.354-4.897-1.905-4.897-1.905v-10.029l3.99-11.914l2.675-2.72L175.946,305.285z"/>
			<path fill="#FFFFFF" d="M173.286,335.883c0,0,6.035,3.271,3.204,5.855c-2.83,2.585-8.214,0-8.214,0l-2.032-5.855l1.088-1.763
				L173.286,335.883z"/>
			<path fill="#FFFFFF" d="M216.752,297.939c0,0,1.958-9.337,10.978-13.33c9.015-3.992,9.314-5.303,13.003-11.266
				c3.683-5.968,2.229,6.642,2.229,6.642l-11.062,12.786l-8.705,5.168l-6.438,2.812L216.752,297.939L216.752,297.939z"/>
			<path fill="#FFFFFF" d="M301.796,299.926c0,0,13.188,12.725,28.431,20.521l-3.292,0.38l-26.48-12.271l-16.504-9.611
				l-23.577-22.49v-12.695l8.887-2.54l15.234,17.598L301.796,299.926z"/>
			<path fill="#FFFFFF" d="M182.405,228.525c0,0-2.904-3.749,0-12.288c0,0,3.607,3.989,7.96-0.726
				c4.353-4.721,2.315-11.742,2.315-11.742h-4.544c0,0,5.819-15.911,39.771-38.857c33.946-22.945,81.117-20.22,98.413-17.092
				l-11.541-3.764l-37.18-2.357l-28.835,6.529l-24.308,11.788l-19.4,14.146L190,189.396l-12.689,21.582l-3.27,15.772l3.627,4.722
				L182.405,228.525z"/>
			<path fill="#FFFFFF" d="M345.427,171.804c0,0-1.223-11.404,12.897-14.595c14.12-3.185,34.613-3.185,34.613-3.185l39.355,10.7
				l29.925,20.494v7.254l-66.198-25.572L345.427,171.804z"/>
			<path fill="#FFFFFF" d="M201.912,490.861c0,0,12.574,1.043,24.543-12.377s13.363-41.697,27.9-40.527l1.298-2.091l-15.053,1.993
				l-7.438,6.896l-10.701,24.665L205.96,485.74L201.912,490.861z"/>
			<path fill="#FFFFFF" d="M262.908,435.683c0,0-7.255-5.621-4.353-12.695c2.896-7.072,15.416-16.314,16.685-33.188
				s-7.618-21.943-7.618-21.943l1.996,19.771l-7.799,21.029l-10.7,12.695v9.612l10.338,7.071L262.908,435.683z"/>
			<path fill="#FFFFFF" d="M351.036,268.953c0,0,29.213,18.193,37.012,62.083c7.802,43.896-14.541,67.831-14.541,67.831
				l-11.026,15.776l-34.645,18.318l-1.445-5.439l22.482-16.506l17.229-24.301l7.617-20.132l3.81-20.493l-2.358-33.558
				l-11.239-26.843L351.036,268.953z"/>
		</g>
		<g>
			<path fill="#00688C" d="M214.44,279.985c0,0,0.408-8.706,5.305-16.188c4.897-7.479,6.801-5.849,6.801-5.849
				s-3.673,4.354-3.939,9.658c-0.272,5.305-0.408,8.161-2.108,9.249S215.256,279.032,214.44,279.985z"/>
			<path fill="#00688C" d="M440.467,163.823c-34.84-18.499-82.7-14.146-82.7-14.146s-54.772-21.769-102.288-7.617
				c-48.482,14.433-80.162,48.604-93.225,91.042c-13.058,42.438,2.182,70.729,2.182,70.729s-3.271,8.163-4.534,13.785
				c-1.271,5.621-0.907,14.325,1.088,17.599c1.95,3.188,2.721,1.986,2.721,1.986s1.088,7.619,11.975,9.07
				c10.882,1.452,19.226-5.806,30.469-16.688c11.245-10.888,16.318-22.131,16.318-22.131c13.062-6.163,23.219-18.855,23.219-18.855
				s-1.089,6.891,15.597,25.023c16.687,18.141,27.204,18.141,29.38,17.41c2.176-0.728,3.99-3.628,0.729-9.818
				c-3.27-6.195-2.181-16.654-2.181-16.654s15.958,11.243,37.36,19.587c21.4,8.343,41.405,8.786,41.405,8.786
				s7.472-2.024-5.858-14.229c-7.938-7.271-22.126-20.312-26.479-31.92c-4.354-11.608-10.521-26.479-10.521-26.479
				s16.688,1.445,30.83,19.224c14.146,17.771,29.381,51.508,11.606,96.846c-17.771,45.348-56.946,54.772-56.946,54.772
				s0.596-19.892-15.234-43.89c-11.425-17.32-28.879-26.985-33.536-27.009c-3.274-0.02-0.736,4.062-0.736,4.062
				s6.258,12.788,4.354,25.845c-1.903,13.062-14.146,22.854-17.411,28.564c-3.264,5.713-0.812,13.873-0.812,13.873
				c-24.213,1.632-21.224,21.492-27.748,32.646c-6.53,11.153-15.866,17.896-24.938,19.924c-4.17,0.938,4.535,9.456,4.535,9.456
				c11.971,11.23,33.553,14.516,62.206,0.363c28.655-14.146,45.703-41.714,45.703-41.714s37.355-2.176,70.006-19.947
				c32.646-17.771,48.968-44.608,48.968-44.608s27.203-42.077,25.757-93.227c-1.449-51.145-17.053-72.543-9.793-88.141
				c7.255-15.603,25.39-6.167,30.827-6.896C478.183,199.73,475.299,182.323,440.467,163.823z M258.919,415.191
				c2.667-2.896,23.939-27.747,8.705-47.334c0,0,8.893,3.444,10.156,22.487c1.27,19.043-22.852,30.831-14.871,45.339
				c0,0-8.706-1.271-9.975-8.16C251.815,421.448,256.213,418.134,258.919,415.191z M251.845,487.735
				c-23.22,9.979-39.724,12.876-49.938,3.126c0,0,11.847-5.302,20.19-16.185c8.343-10.88,10.151-36.641,25.753-37.358
				c15.597-0.728,25.022,14.688,42.62,20.131C290.475,457.448,275.06,477.76,251.845,487.735z M176.49,341.739
				c-7.073,0.544-9.521-5.169-9.521-5.169s2.443-2.993,10.156,0.799c3.938,1.938,8.609,1.811,8.609,1.811
				S183.564,341.195,176.49,341.739z M246.133,257.134c-1.632,11.432-10.062,26.66-17.949,34.821
				c-7.895,8.161-11.432,5.984-11.432,5.984c-0.544-3.812,4.354-8.979,4.354-8.979s-3.537-0.271-8.162,5.714
				c-4.624,5.984-8.979,24.483-17.954,34.822c-8.978,10.342-22.949,1.145-27.476,3.27c-3.271,1.534-4.066-2.982-4.081-4.896
				c-0.023-2.992,1.088-13.331,3.264-16.865c2.177-3.533,9.25-5.715,9.25-5.715c9.521-2.177,13.058-0.271,18.227-4.082
				c5.168-3.809,4.354-9.249,4.896-16.05c0.544-6.801,5.169-21.763,9.25-28.292c4.08-6.529,12.786-16.051,25.028-18.499
				C245.589,235.914,247.764,245.707,246.133,257.134z M326.929,314.719c26.345,12.887,35.796,14.035,37.312,14.137
				c0.141,0.006,0.229,0.011,0.229,0.011s-0.073,0-0.229-0.011c-2.541-0.128-27.776-1.893-65.243-23.204
				c-39.537-22.49-37.18-36.757-33.708-39.538c2.771-2.219,7.229-1.062,12.537,7.436
				C284.866,284.814,293.623,298.427,326.929,314.719z M376.985,394.332c-16.504,23.578-48.062,34.822-48.062,34.822
				s31.738-17.229,44.071-55.134c12.333-37.902,4.716-72-11.604-94.036c-16.322-22.035-38.448-24.031-38.448-24.031
				s-6.167-14.688-14.327-19.042c-8.161-4.353-15.96,0-15.96,0c-0.363-4.716,9.975-17.771,36.454-12.876
				c26.478,4.897,57.491,35.729,63.476,74.358C398.566,337.024,393.732,370.406,376.985,394.332z M402.917,165.455
				c-36.271-4.534-57.484,6.354-57.484,6.354s-27.823-10.617-55.652-9.541c-21.607,0.835-38.446,6.774-46.997,11.896
				c-8.702,5.208-23.396,16.866-33.37,31.919c-9.975,15.055-19.769,22.126-25.209,22.489c-5.438,0.362-8.343-3.265-5.984-12.695
				c2.357-9.431,8.522-18.312,8.522-18.312c17.954-25.754,57.854-54.408,100.837-53.864c42.983,0.544,69.824,13.783,69.824,13.783
				s16.321-5.44,50.599,1.995c34.278,7.435,52.6,28.836,52.6,28.836S439.191,169.99,402.917,165.455z"/>
			<path fill="#00688C" d="M186.193,206.262c0,0-4.534,6.71-1.632,7.254c2.896,0.544,6.598-2.7,7.433-5.877
				c0.604-2.284,1.533-6.062-0.904-5.911C189.14,201.847,186.193,206.262,186.193,206.262z"/>
		</g>
		<path fill="#FFFFFF" d="M219.881,268.151c0,0-1.088,1.904-1.632,4.761c0,0,2.352,0.884,2.726-1.7
			C221.343,268.627,219.881,268.151,219.881,268.151z"/>
	</g>
</g>
<g>
	<path fill="#BDC2BC" d="M534.992,588.913c-0.739,0-1.34-0.602-1.34-1.341v-16.588c0-0.739,0.601-1.339,1.34-1.339h52.497
		c0.738,0,1.339,0.6,1.339,1.339v16.588c0,0.739-0.601,1.341-1.339,1.341H534.992z"/>
	<g>
		<path d="M558.027,571.51c-2.725,0-4.935,2.21-4.935,4.934c0,2.729,2.21,4.938,4.935,4.938c2.728,0,4.938-2.21,4.938-4.938
			C562.964,573.719,560.755,571.51,558.027,571.51z"/>
		<path fill="#FFFFFF" d="M558.027,580.461c-2.219,0-4.015-1.798-4.015-4.019c0-2.217,1.797-4.014,4.015-4.014
			c2.219,0,4.019,1.798,4.019,4.014C562.046,578.664,560.246,580.461,558.027,580.461z"/>
		<g>
			<path d="M559.402,575.293c0-0.219-0.182-0.398-0.398-0.398h-1.952c-0.221,0-0.401,0.181-0.401,0.398v1.985h0.528v2.338h1.694
				v-2.338h0.527L559.402,575.293L559.402,575.293z"/>
			<path d="M558.695,573.942c0,0.37-0.3,0.668-0.667,0.668c-0.371,0-0.67-0.299-0.67-0.668s0.301-0.67,0.67-0.67
				C558.395,573.272,558.695,573.571,558.695,573.942z"/>
		</g>
	</g>
	<path d="M587.175,569.198h-51.868c-1.157,0-2.102,0.943-2.102,2.102v15.96c0,1.158,0.943,2.1,2.102,2.1h51.868
		c1.158,0,2.102-0.94,2.102-2.1V571.3C589.275,570.141,588.332,569.198,587.175,569.198z M588.644,583.375h-37.865
		c-1.477,2.809-4.417,4.725-7.81,4.725s-6.333-1.916-7.809-4.725h-1.326V571.3c0-0.812,0.658-1.471,1.47-1.471h51.869
		c0.811,0,1.471,0.658,1.471,1.471V583.375L588.644,583.375z"/>
	<g>
		<path fill="#FFFFFF" d="M557.773,584.933c0.1,0.14,0.15,0.302,0.15,0.495c0,0.198-0.052,0.357-0.151,0.479
			c-0.057,0.066-0.14,0.131-0.25,0.187c0.168,0.061,0.294,0.155,0.378,0.289c0.085,0.13,0.127,0.289,0.127,0.477
			c0,0.192-0.049,0.365-0.145,0.519c-0.062,0.104-0.14,0.188-0.23,0.256c-0.104,0.078-0.225,0.137-0.369,0.164
			c-0.141,0.028-0.294,0.043-0.459,0.043h-1.466v-3.256h1.573C557.326,584.594,557.607,584.706,557.773,584.933z M556.009,585.151
			v0.717h0.79c0.143,0,0.257-0.026,0.345-0.08s0.133-0.147,0.133-0.286c0-0.15-0.059-0.248-0.176-0.301
			c-0.1-0.033-0.228-0.05-0.383-0.05H556.009L556.009,585.151z M556.009,586.407v0.869h0.789c0.143,0,0.25-0.02,0.328-0.058
			c0.145-0.071,0.217-0.206,0.217-0.407c0-0.17-0.07-0.285-0.208-0.35c-0.077-0.034-0.188-0.056-0.327-0.056L556.009,586.407
			L556.009,586.407z"/>
		<path fill="#FFFFFF" d="M560.469,584.586h0.771l-1.089,2.034v1.222h-0.68v-1.222l-1.127-2.034h0.8l0.677,1.418L560.469,584.586z"
			/>
	</g>
	<g>
		<g>
			<path fill="#FFFFFF" d="M566.517,584.426h0.776l1.403,2.473v-2.473h0.692v3.545h-0.742l-1.443-2.517v2.517h-0.688
				L566.517,584.426L566.517,584.426z"/>
			<path fill="#FFFFFF" d="M570.425,584.797c0.285-0.292,0.647-0.437,1.09-0.437c0.591,0,1.02,0.195,1.295,0.587
				c0.148,0.221,0.229,0.439,0.242,0.661h-0.741c-0.048-0.17-0.106-0.299-0.183-0.384c-0.132-0.153-0.328-0.229-0.586-0.229
				c-0.265,0-0.473,0.107-0.623,0.324c-0.152,0.219-0.229,0.525-0.229,0.923c0,0.399,0.08,0.696,0.241,0.895
				c0.161,0.197,0.365,0.299,0.614,0.299c0.252,0,0.447-0.086,0.581-0.256c0.072-0.09,0.136-0.229,0.183-0.41h0.736
				c-0.066,0.387-0.226,0.699-0.486,0.943c-0.262,0.241-0.594,0.36-1.002,0.36c-0.505,0-0.901-0.163-1.19-0.489
				c-0.288-0.328-0.434-0.777-0.434-1.353C569.93,585.607,570.095,585.133,570.425,584.797z"/>
		</g>
	</g>
	<g>
		<path fill="#FFFFFF" d="M578.517,586.944c0.022,0.173,0.073,0.303,0.145,0.389c0.132,0.154,0.354,0.233,0.673,0.233
			c0.19,0,0.347-0.021,0.465-0.062c0.225-0.078,0.338-0.226,0.338-0.438c0-0.125-0.055-0.223-0.166-0.291
			c-0.113-0.066-0.285-0.126-0.525-0.178l-0.411-0.088c-0.401-0.093-0.679-0.188-0.829-0.294c-0.254-0.173-0.383-0.448-0.383-0.819
			c0-0.339,0.126-0.619,0.376-0.846c0.249-0.224,0.617-0.336,1.102-0.336c0.401,0,0.748,0.104,1.033,0.315
			c0.284,0.213,0.436,0.521,0.45,0.922h-0.762c-0.014-0.227-0.117-0.387-0.306-0.484c-0.126-0.065-0.282-0.096-0.473-0.096
			c-0.209,0-0.375,0.041-0.499,0.122c-0.126,0.083-0.188,0.196-0.188,0.346c0,0.135,0.062,0.236,0.186,0.303
			c0.079,0.043,0.246,0.096,0.502,0.155l0.665,0.156c0.292,0.068,0.513,0.162,0.655,0.276c0.227,0.179,0.339,0.435,0.339,0.771
			c0,0.351-0.134,0.637-0.4,0.863c-0.269,0.229-0.646,0.344-1.134,0.344c-0.5,0-0.891-0.112-1.176-0.339
			c-0.287-0.224-0.432-0.536-0.432-0.929L578.517,586.944L578.517,586.944z"/>
		<path fill="#FFFFFF" d="M582.542,584.325h0.896l1.34,3.791h-0.858l-0.249-0.778h-1.396l-0.255,0.778h-0.828L582.542,584.325z
			 M582.486,586.681h0.972l-0.479-1.49L582.486,586.681z"/>
	</g>
	<g>
		<circle cx="542.95" cy="579.28" r="7.771"/>
		<circle fill="#FFFFFF" cx="542.95" cy="579.278" r="6.322"/>
		<g>
			<path d="M542.597,578.348l-1.188,0.215c-0.041-0.237-0.131-0.416-0.273-0.537c-0.143-0.119-0.325-0.178-0.55-0.178
				c-0.302,0-0.537,0.104-0.72,0.31c-0.18,0.204-0.268,0.555-0.268,1.038c0,0.539,0.09,0.921,0.271,1.146
				c0.183,0.223,0.426,0.332,0.73,0.332c0.229,0,0.417-0.064,0.562-0.195c0.146-0.131,0.249-0.354,0.311-0.67l1.182,0.199
				c-0.123,0.545-0.354,0.954-0.707,1.229c-0.348,0.276-0.813,0.416-1.399,0.416c-0.668,0-1.197-0.21-1.594-0.629
				c-0.396-0.42-0.592-1.004-0.592-1.746c0-0.75,0.198-1.337,0.594-1.754c0.397-0.42,0.936-0.627,1.613-0.627
				c0.555,0,0.995,0.118,1.322,0.355C542.219,577.497,542.453,577.86,542.597,578.348z"/>
			<path d="M547.477,578.348l-1.188,0.215c-0.039-0.237-0.131-0.416-0.272-0.537c-0.144-0.119-0.325-0.178-0.551-0.178
				c-0.301,0-0.539,0.104-0.72,0.31c-0.178,0.204-0.268,0.555-0.268,1.038c0,0.539,0.09,0.921,0.271,1.146
				c0.182,0.223,0.426,0.332,0.729,0.332c0.229,0,0.417-0.064,0.562-0.195c0.146-0.131,0.25-0.354,0.311-0.67l1.183,0.199
				c-0.123,0.545-0.356,0.954-0.708,1.229c-0.349,0.276-0.814,0.416-1.4,0.416c-0.668,0-1.197-0.21-1.593-0.629
				c-0.396-0.42-0.592-1.004-0.592-1.746c0-0.75,0.196-1.337,0.595-1.754c0.396-0.42,0.934-0.627,1.612-0.627
				c0.554,0,0.994,0.118,1.322,0.355C547.1,577.497,547.337,577.86,547.477,578.348z"/>
		</g>
	</g>
	<g>
		<path d="M569.93,571.719c-2.61,0-4.727,2.115-4.727,4.726c0,2.612,2.115,4.729,4.727,4.729s4.728-2.113,4.728-4.729
			C574.658,573.834,572.546,571.719,569.93,571.719z"/>
		<circle fill="#FFFFFF" cx="569.93" cy="576.447" r="3.846"/>
		
			<rect x="569.488" y="571.955" transform="matrix(0.4225 -0.9063 0.9063 0.4225 -193.3242 849.4399)" width="0.924" height="8.958"/>
		<g>
			<path d="M569.58,579.151v-0.637c-0.444-0.013-0.877-0.14-1.129-0.277l0.197-0.776c0.279,0.153,0.672,0.292,1.101,0.292
				c0.382,0,0.646-0.151,0.646-0.409c0-0.252-0.223-0.41-0.709-0.578c-0.711-0.238-1.196-0.568-1.196-1.215
				c0-0.59,0.411-1.047,1.122-1.181v-0.631h0.65v0.584c0.443,0.015,0.742,0.115,0.968,0.222l-0.199,0.748
				c-0.167-0.079-0.478-0.232-0.954-0.232c-0.434,0-0.571,0.193-0.571,0.381c0,0.212,0.231,0.356,0.798,0.564
				c0.796,0.276,1.107,0.643,1.107,1.246c0,0.591-0.411,1.09-1.182,1.221v0.684L569.58,579.151L569.58,579.151z"/>
		</g>
	</g>
	<g>
		<path d="M581.185,571.784c-2.571,0-4.66,2.086-4.66,4.658c0,2.576,2.089,4.665,4.66,4.665c2.576,0,4.665-2.089,4.665-4.665
			C585.852,573.87,583.761,571.784,581.185,571.784z"/>
		<path fill="#FFFFFF" d="M581.185,580.238c-2.092,0-3.789-1.698-3.789-3.794c0-2.091,1.695-3.79,3.789-3.79
			c2.096,0,3.793,1.696,3.793,3.79C584.979,578.538,583.281,580.238,581.185,580.238z"/>
		<path d="M581.185,573.885c-1.016,0-1.874,0.733-2.182,1.746h-0.294l0.933,1.016l0.93-1.016h-0.348
			c0.215-0.37,0.563-0.616,0.96-0.616c0.65,0,1.179,0.646,1.179,1.443c0,0.793-0.526,1.44-1.179,1.44
			c-0.432,0-0.81-0.289-1.016-0.72h-1.196c0.278,1.068,1.167,1.854,2.214,1.854c1.273,0,2.311-1.155,2.311-2.576
			C583.496,575.034,582.464,573.885,581.185,573.885z"/>
	</g>
</g>
<g>
	<path d="M11.392,586.197c-0.652,0-1.248-0.138-1.786-0.41c-0.539-0.271-1.002-0.631-1.39-1.07c-0.388-0.441-0.688-0.949-0.9-1.521
		C7.106,582.619,7,582.032,7,581.432c0-0.626,0.114-1.226,0.338-1.797c0.226-0.574,0.533-1.08,0.927-1.521
		c0.393-0.44,0.857-0.792,1.396-1.053c0.538-0.26,1.119-0.39,1.746-0.39c0.653,0,1.248,0.138,1.786,0.417
		c0.538,0.275,0.999,0.641,1.382,1.09s0.682,0.959,0.893,1.528c0.213,0.567,0.318,1.144,0.318,1.726c0,0.636-0.113,1.24-0.338,1.812
		c-0.225,0.574-0.534,1.079-0.926,1.517c-0.394,0.437-0.856,0.785-1.391,1.045C12.598,586.066,12.018,586.197,11.392,586.197z
		 M7.675,581.432c0,0.539,0.091,1.057,0.271,1.555s0.437,0.939,0.768,1.324c0.33,0.383,0.724,0.69,1.178,0.92
		c0.455,0.229,0.955,0.344,1.502,0.344c0.563,0,1.072-0.117,1.527-0.355c0.454-0.239,0.846-0.555,1.17-0.946
		c0.327-0.392,0.578-0.834,0.755-1.328s0.265-0.997,0.265-1.51c0-0.538-0.092-1.057-0.277-1.555
		c-0.185-0.498-0.442-0.939-0.773-1.323s-0.723-0.691-1.179-0.919c-0.454-0.229-0.949-0.347-1.486-0.347
		c-0.565,0-1.076,0.119-1.536,0.357c-0.458,0.238-0.85,0.554-1.17,0.945c-0.322,0.394-0.571,0.836-0.748,1.33
		C7.762,580.422,7.675,580.923,7.675,581.432z"/>
	<path d="M23.14,578.299c-0.608-0.681-1.469-1.021-2.58-1.021c-0.918,0-1.587,0.175-2.006,0.523
		c-0.417,0.349-0.628,0.817-0.628,1.407c0,0.302,0.054,0.554,0.159,0.755c0.106,0.202,0.271,0.373,0.496,0.51
		c0.226,0.137,0.513,0.256,0.86,0.355c0.35,0.103,0.761,0.2,1.237,0.299c0.512,0.106,0.97,0.223,1.377,0.352
		c0.404,0.127,0.75,0.289,1.038,0.483c0.287,0.193,0.508,0.433,0.662,0.715c0.153,0.281,0.231,0.632,0.231,1.044
		c0,0.414-0.082,0.775-0.245,1.086c-0.163,0.31-0.392,0.565-0.688,0.773c-0.297,0.208-0.648,0.364-1.059,0.471
		c-0.411,0.104-0.867,0.157-1.37,0.157c-1.463,0-2.704-0.467-3.717-1.401l0.356-0.542c0.396,0.415,0.882,0.743,1.457,0.984
		c0.573,0.242,1.217,0.363,1.931,0.363c0.821,0,1.461-0.147,1.925-0.449c0.462-0.301,0.695-0.754,0.695-1.362
		c0-0.309-0.06-0.57-0.178-0.787s-0.303-0.404-0.551-0.562c-0.247-0.158-0.554-0.295-0.919-0.409
		c-0.364-0.115-0.796-0.225-1.29-0.33c-0.503-0.105-0.945-0.219-1.329-0.338c-0.384-0.117-0.708-0.269-0.972-0.449
		c-0.265-0.181-0.463-0.398-0.596-0.654s-0.199-0.578-0.199-0.967c0-0.423,0.082-0.797,0.246-1.124
		c0.163-0.326,0.391-0.603,0.682-0.826c0.291-0.226,0.64-0.395,1.044-0.511c0.406-0.114,0.854-0.17,1.351-0.17
		c0.607,0,1.15,0.09,1.627,0.27c0.477,0.183,0.909,0.459,1.296,0.828L23.14,578.299z"/>
	<path d="M25.734,586.131v-9.395h3.863c0.396,0,0.763,0.085,1.098,0.251c0.335,0.168,0.624,0.392,0.866,0.669
		s0.432,0.591,0.568,0.938c0.138,0.35,0.205,0.698,0.205,1.053c0,0.381-0.063,0.746-0.191,1.098
		c-0.128,0.354-0.31,0.666-0.542,0.939c-0.232,0.272-0.512,0.492-0.833,0.654c-0.323,0.164-0.683,0.245-1.078,0.245h-3.281v3.546
		L25.734,586.131L25.734,586.131z M26.408,581.963h3.241c0.309,0,0.586-0.064,0.833-0.191s0.456-0.3,0.629-0.516
		c0.171-0.218,0.303-0.463,0.396-0.741c0.092-0.276,0.139-0.565,0.139-0.866c0-0.309-0.056-0.602-0.165-0.879
		c-0.11-0.279-0.26-0.523-0.45-0.734c-0.189-0.213-0.41-0.381-0.661-0.504s-0.519-0.186-0.801-0.186h-3.162L26.408,581.963
		L26.408,581.963z"/>
	<path d="M33.963,586.131v-9.395h3.917c0.397,0,0.764,0.085,1.098,0.251c0.335,0.168,0.622,0.392,0.859,0.669
		c0.238,0.277,0.426,0.591,0.563,0.938c0.137,0.35,0.204,0.698,0.204,1.053c0,0.344-0.054,0.676-0.159,0.998
		c-0.105,0.324-0.254,0.611-0.45,0.867c-0.194,0.256-0.427,0.467-0.7,0.635c-0.273,0.169-0.572,0.277-0.899,0.331l2.341,3.651
		h-0.781l-2.274-3.547h-3.043v3.547L33.963,586.131L33.963,586.131z M34.636,581.963h3.295c0.299,0,0.571-0.064,0.819-0.197
		c0.247-0.132,0.458-0.307,0.636-0.522c0.176-0.216,0.311-0.462,0.402-0.741c0.093-0.277,0.141-0.562,0.141-0.853
		c0-0.3-0.056-0.589-0.166-0.866c-0.11-0.276-0.261-0.522-0.45-0.733c-0.189-0.212-0.409-0.382-0.661-0.511
		c-0.252-0.127-0.523-0.192-0.814-0.192h-3.201V581.963z"/>
	<path d="M48.899,585.521v0.608h-6.258v-9.395h6.139v0.61h-5.464v3.688h4.775v0.582h-4.775v3.903h5.583V585.521z"/>
	<path d="M50.421,576.736l3.281,5.199l3.308-5.199h0.742l-3.706,5.849v3.546h-0.674v-3.572l-3.69-5.821L50.421,576.736
		L50.421,576.736z"/>
	<path d="M59.126,586.131v-9.395h3.122c0.741,0,1.392,0.124,1.951,0.371c0.561,0.248,1.025,0.583,1.396,1.007
		c0.371,0.423,0.647,0.919,0.833,1.487c0.185,0.567,0.277,1.175,0.277,1.819c0,0.715-0.104,1.36-0.311,1.938
		s-0.505,1.07-0.894,1.481c-0.388,0.409-0.857,0.729-1.41,0.953c-0.552,0.224-1.167,0.337-1.845,0.337L59.126,586.131
		L59.126,586.131z M66.031,581.421c0-0.592-0.083-1.137-0.251-1.635c-0.167-0.498-0.412-0.93-0.733-1.291
		c-0.322-0.359-0.718-0.644-1.185-0.848c-0.466-0.202-1.005-0.303-1.614-0.303h-2.447v8.177h2.447c0.617,0,1.162-0.104,1.633-0.312
		c0.473-0.206,0.866-0.495,1.185-0.865c0.316-0.37,0.559-0.805,0.722-1.303S66.031,582.003,66.031,581.421z"/>
	<path d="M67.288,586.131l3.996-9.395h0.555l3.997,9.395h-0.728l-1.311-3.097h-4.484l-1.311,3.097H67.288z M71.562,577.557
		l-2.09,4.922h4.141L71.562,577.557z"/>
	<path d="M80.148,576.802h0.661l1.401,3.413l1.403-3.413h0.661l-1.654,3.956l1.971,4.577l3.6-8.601h0.742l-4.023,9.395h-0.62
		l-2.063-4.829l-2.077,4.829h-0.622l-4.008-9.395h0.728l3.612,8.601l1.945-4.577L80.148,576.802z"/>
	<path d="M91.05,578.008v8.123h-0.675v-9.394h0.518l6.588,8.27v-8.255h0.675v9.379h-0.622L91.05,578.008z"/>
	<path d="M100.297,586.131v-1.125h0.583v1.125H100.297z"/>
	<path d="M102.401,581.368c0-0.563,0.098-1.127,0.298-1.688c0.197-0.561,0.486-1.062,0.866-1.502c0.379-0.44,0.844-0.8,1.395-1.077
		c0.552-0.277,1.181-0.418,1.887-0.418c0.838,0,1.552,0.192,2.144,0.576c0.591,0.383,1.027,0.877,1.309,1.475l-0.556,0.318
		c-0.159-0.327-0.351-0.601-0.576-0.82c-0.224-0.221-0.466-0.399-0.727-0.537c-0.261-0.137-0.533-0.234-0.814-0.298
		c-0.281-0.062-0.562-0.092-0.833-0.092c-0.6,0-1.129,0.121-1.589,0.364c-0.458,0.241-0.847,0.558-1.164,0.944
		c-0.316,0.39-0.557,0.826-0.722,1.316c-0.164,0.489-0.245,0.981-0.245,1.475c0,0.558,0.097,1.086,0.291,1.59
		c0.195,0.502,0.459,0.945,0.795,1.328c0.334,0.383,0.731,0.691,1.19,0.919c0.458,0.229,0.951,0.346,1.48,0.346
		c0.282,0,0.571-0.036,0.866-0.106c0.296-0.069,0.583-0.18,0.86-0.329c0.277-0.15,0.536-0.343,0.774-0.576
		c0.238-0.232,0.437-0.51,0.594-0.827l0.569,0.278c-0.159,0.352-0.372,0.665-0.642,0.939c-0.271,0.271-0.57,0.502-0.906,0.688
		c-0.335,0.186-0.689,0.324-1.065,0.416c-0.375,0.092-0.742,0.139-1.104,0.139c-0.644,0-1.233-0.141-1.768-0.423
		c-0.532-0.281-0.994-0.649-1.382-1.104c-0.387-0.455-0.689-0.972-0.905-1.549C102.509,582.555,102.401,581.969,102.401,581.368z"/>
	<path d="M115.882,586.197c-0.652,0-1.247-0.138-1.785-0.41c-0.538-0.271-1.001-0.631-1.39-1.07
		c-0.388-0.441-0.688-0.949-0.898-1.521c-0.212-0.572-0.317-1.16-0.317-1.76c0-0.627,0.112-1.225,0.337-1.798
		c0.224-0.573,0.534-1.081,0.926-1.521c0.394-0.44,0.857-0.792,1.396-1.052c0.539-0.261,1.121-0.391,1.747-0.391
		c0.65,0,1.247,0.139,1.786,0.416c0.538,0.276,0.999,0.643,1.381,1.091c0.384,0.45,0.682,0.959,0.894,1.529
		c0.211,0.566,0.317,1.144,0.317,1.726c0,0.635-0.113,1.239-0.337,1.812c-0.226,0.572-0.534,1.077-0.928,1.514
		c-0.393,0.438-0.854,0.785-1.389,1.046C117.087,586.066,116.509,586.197,115.882,586.197z M112.164,581.432
		c0,0.539,0.09,1.057,0.271,1.555c0.181,0.498,0.436,0.939,0.767,1.324c0.331,0.383,0.724,0.69,1.178,0.92s0.954,0.344,1.501,0.344
		c0.564,0,1.073-0.117,1.527-0.355c0.456-0.239,0.845-0.555,1.171-0.946s0.578-0.834,0.754-1.328
		c0.175-0.494,0.266-0.997,0.266-1.51c0-0.538-0.094-1.057-0.278-1.555c-0.186-0.498-0.443-0.939-0.774-1.323
		s-0.724-0.691-1.178-0.919c-0.455-0.229-0.95-0.347-1.488-0.347c-0.563,0-1.075,0.119-1.534,0.357s-0.851,0.554-1.172,0.945
		c-0.321,0.394-0.57,0.836-0.748,1.33C112.252,580.422,112.164,580.923,112.164,581.432z"/>
	<path d="M130.659,586.131v-8.123l-3.704,6.338h-0.423l-3.705-6.338v8.123h-0.675v-9.394h0.675l3.916,6.722l3.916-6.722h0.675v9.394
		H130.659L130.659,586.131z"/>
</g>
</svg>
