<?xml version="1.0" encoding="utf-8"?>
<!-- Generator: Adobe Illustrator 16.0.0, SVG Export Plug-In . SVG Version: 6.00 Build 0)  -->
<!DOCTYPE svg PUBLIC "-//W3C//DTD SVG 1.1//EN" "http://www.w3.org/Graphics/SVG/1.1/DTD/svg11.dtd">
<svg version="1.1" id="Layer_1" xmlns="http://www.w3.org/2000/svg" xmlns:xlink="http://www.w3.org/1999/xlink" x="0px" y="0px"
	 width="595.275px" height="595.279px" viewBox="0 0 595.275 595.279" enable-background="new 0 0 595.275 595.279"
	 xml:space="preserve">
<metadata><?xpacket begin="﻿" id="W5M0MpCehiHzreSzNTczkc9d"?>
<x:xmpmeta xmlns:x="adobe:ns:meta/" x:xmptk="Adobe XMP Core 5.3-c011 66.145661, 2012/02/06-14:56:27        ">
   <rdf:RDF xmlns:rdf="http://www.w3.org/1999/02/22-rdf-syntax-ns#">
      <rdf:Description rdf:about=""
            xmlns:dc="http://purl.org/dc/elements/1.1/">
         <dc:format>image/svg+xml</dc:format>
         <dc:title>
            <rdf:Alt>
               <rdf:li xml:lang="x-default">NFL Logo Redesigns</rdf:li>
               <rdf:li xml:lang="en_us">NFL Logo Redesigns</rdf:li>
            </rdf:Alt>
         </dc:title>
         <dc:creator>
            <rdf:Seq>
               <rdf:li>Max O'Brien/Osprey Dawn</rdf:li>
            </rdf:Seq>
         </dc:creator>
      </rdf:Description>
      <rdf:Description rdf:about=""
            xmlns:xmp="http://ns.adobe.com/xap/1.0/"
            xmlns:xmpGImg="http://ns.adobe.com/xap/1.0/g/img/">
         <xmp:CreatorTool>Adobe Illustrator CS6 (Macintosh)</xmp:CreatorTool>
         <xmp:ModifyDate>2013-10-07T00:21:21+13:00</xmp:ModifyDate>
         <xmp:MetadataDate>2013-10-07T00:21:21+13:00</xmp:MetadataDate>
         <xmp:CreateDate>2013-10-07T00:21:20+13:00</xmp:CreateDate>
         <xmp:Thumbnails>
            <rdf:Alt>
               <rdf:li rdf:parseType="Resource">
                  <xmpGImg:width>256</xmpGImg:width>
                  <xmpGImg:height>216</xmpGImg:height>
                  <xmpGImg:format>JPEG</xmpGImg:format>
                  <xmpGImg:image>/9j/4AAQSkZJRgABAgEASABIAAD/7QAsUGhvdG9zaG9wIDMuMAA4QklNA+0AAAAAABAASAAAAAEA&#xA;AQBIAAAAAQAB/+4ADkFkb2JlAGTAAAAAAf/bAIQABgQEBAUEBgUFBgkGBQYJCwgGBggLDAoKCwoK&#xA;DBAMDAwMDAwQDA4PEA8ODBMTFBQTExwbGxscHx8fHx8fHx8fHwEHBwcNDA0YEBAYGhURFRofHx8f&#xA;Hx8fHx8fHx8fHx8fHx8fHx8fHx8fHx8fHx8fHx8fHx8fHx8fHx8fHx8fHx8f/8AAEQgA2AEAAwER&#xA;AAIRAQMRAf/EAaIAAAAHAQEBAQEAAAAAAAAAAAQFAwIGAQAHCAkKCwEAAgIDAQEBAQEAAAAAAAAA&#xA;AQACAwQFBgcICQoLEAACAQMDAgQCBgcDBAIGAnMBAgMRBAAFIRIxQVEGE2EicYEUMpGhBxWxQiPB&#xA;UtHhMxZi8CRygvElQzRTkqKyY3PCNUQnk6OzNhdUZHTD0uIIJoMJChgZhJRFRqS0VtNVKBry4/PE&#xA;1OT0ZXWFlaW1xdXl9WZ2hpamtsbW5vY3R1dnd4eXp7fH1+f3OEhYaHiImKi4yNjo+Ck5SVlpeYmZ&#xA;qbnJ2en5KjpKWmp6ipqqusra6voRAAICAQIDBQUEBQYECAMDbQEAAhEDBCESMUEFURNhIgZxgZEy&#xA;obHwFMHR4SNCFVJicvEzJDRDghaSUyWiY7LCB3PSNeJEgxdUkwgJChgZJjZFGidkdFU38qOzwygp&#xA;0+PzhJSktMTU5PRldYWVpbXF1eX1RlZmdoaWprbG1ub2R1dnd4eXp7fH1+f3OEhYaHiImKi4yNjo&#xA;+DlJWWl5iZmpucnZ6fkqOkpaanqKmqq6ytrq+v/aAAwDAQACEQMRAD8A9U4q7FXYq7FXYq7FXYq7&#xA;FWmZUUsxCqoqzHYADucVeY+dP+chPImgK8GmzDzBqQHwwWLqYVPb1LneMD/V5H2zNjopAcWQ+HHz&#xA;5/Ac2Wnx5M8+DDEzl5ch7zyDxTzB/wA5A/mZrEjJb30WjW7A0t7CNefEdzLL6klfdeOPi4ox4seM&#xA;zA/ily+Q/W9Fp/Zr1iGozRhOX8EK4vmf+Jpgeqea9ZvXJ1PWL29c7kT3M03t0ZiMycEdZlFwjGEf&#xA;dEftZ6rD2JpDw5DLJMf0pH7iIpSkunsQoQAnpVcsy4O0IDi4r9xRptb2FkkIeHw33g/oJRdrIbd+&#xA;dpM8D9eUMjIa/wCwIzAlr9ZH6r+MR+kO5/kPsjJ9Ihf9HIf0SZLpX5l/mJpRBsfMl+oX7Mc0puYx&#xA;/sLgSrT6Mr/lG/rhA/Cj9jXl9jdOfonkifeJD7R+lnnl/wD5yc872TKms2VprEA+06A2k5/2S+pH&#xA;/wAkxk/F00+ksZ/0w/QXT6j2T1ePfHKOQf6U/pH2vW/J/wCfPkDzG8ds9y2kag5Cra6hxjDMTSiT&#xA;AtE1T0HIMfDDLSSrigROP9H9I5h5/PiyYZcOWJhLz/QeR+D0XMRg7FXYq7FXYq7FXYq7FXYq7FXY&#xA;q7FXYq7FXYq7FXYq7FXYq7FXYq7FWL+cvzL8l+T7d5Nb1KOO4UApYRkSXT16cYQeVD/M1F98ydPo&#xA;8mY+kfHo1ZM0Ycy+ZfzN/O3zL56H6PtI30fy0Sa26tWa5HSszilV/wAgfD48qCmzkcOhG/rzfd+P&#xA;n7nP7K7Gz9oyv6MA5y7/ACHf9w+x59SOCIkDiiitM0nFk1WUAm5SL6UYafs3SyMAIwgL958z1JOy&#xA;ATU7pLaa3TionYNLIB8ZA6Ly/lHXO2OgxHhsWIDYdPfXe+ODtbUAzIlUsh9Uv4j5X0HuQmZrrXYq&#xA;7FVyyyp9lyvyJynJgxz+qIPvDk4NZmxb45yj7iQiItQnX7dHHvsfwzV6jsPDP6fQfLl8no9B7Y6z&#xA;CamRlj58/wDTD9NoszieOkVDXZwQCwHegNAfvzT4dF+VzA5iRHoRyPvI3D1Os7XPaWlMdJGMp/xR&#xA;nXEB3xB2l7+ndZ29ifkp5k8j3nlW20fy5qlzdy2CVntdSc/XUrStUJIEYrQenVB065XroZDPjkBU&#xA;uRjyeGxx4PQbEo8weYeiZgtrsVdirsVdirsVdirsVdirsVdirsVdirsVdirsVdirsVdirsVYV+bf&#xA;5hQeSfJ93qETxtq0iiLTbZ2WrSueIfgTVlj+0aeFMzdDpTmyAfw9WnPl4I31fIXl6GfX9Q1LUr+Y&#xA;XurMRKpum5+pJISWkcGvKlPlm37b1E8GOMcfpB6j7nO9mNHhz5pSzerhrbv8/OlC9juYrmRLqonU&#xA;/vKmvb9VM5IAyO25L65CcIwsUIAe4AJPfXQk/dxmqj7R8TnX9j9mnEPEmPWeQ7h+t8u9q/aCOqIw&#xA;4j+6idz/ADj+ofb8ltjpd/fswtYWkC/bfZUX/WdqKPvza6jV4sIucq/Hc8tpNDm1BrHEy/HeqSaT&#xA;MjFfVjandSSK+FSB+GauXtBgHISPy/W9Pi9iNZIWTCPkSf0RUnsJUXkzIAO9T/TL8HbGLKeGIlfu&#xA;/a4Wt9ltTpomeSWMQHXi/WLPyQx6+ObUPNkbuwodiraOyMGU0YdDkMmOM4mMhYLbgzzxTE4ExlHk&#xA;QnekarfWt3BqWm3D2WqWbB4LiI8WVh+tT0IPyzlc0JaHJwn1YJ9Px1H2vo2Dwu3NOSahq8fXv/46&#xA;f9ift9gfk1+aMXnvy+7XSrBr2nFYtTt12Ukj4JkH8klDt2II6UJxdbpRjIMTeOW4LyUTIEwmKnE0&#xA;Q9BzCZuxV2KuxV2KuxV2KuxV2KuxV2KuxV2KuxV2KuxVj+v/AJgeSfL1wLbWtbtLK6IDfVpJV9UA&#xA;9CYxVwD2JGZGLS5cguMSQ1yyxjzLHvMv57fltomi/pKPVodUeSq29lYusszuBWjLX92N9y9PpO2X&#xA;4ezM05cPDw+ZYT1MALu3zp51/wCcifzC8w3X+gXTaDp6NyhtrFishp09SfZ2+Q4r/k50On7Jw4xu&#xA;OI+f6nX5NVOXLZ5tfX99qF1Jd39xLd3UprLcTu0kjHxZmJJzZRiIigKDjEk81BWZWDKSrDcEbEYS&#xA;AeagkGwq3N7d3LcriVpWoAWY1J4igr47DMfFpMWM3GIBczP2jqM0BCc5SiOl7fjzTPyx5fk1i+4t&#xA;VbSGjXEg8Oyj3bMbtPXjT47/AIzy/W5XY/Zh1eWjtCP1H9HxTrWdRjP+4+xUQ6fbniqJsHI/aPjv&#xA;/XOFyZJZJGUjci+x9naCGDGBEV+j8dUpyLsCaSm7nMsp3+BdlH8c73s3RDBiAr1Hn+PJ8S7f7Xlr&#xA;dQTf7uJqA8u/3nmoZsXROAJNB1xVsggkEUI2IOKtYqqW8xilDjp0Ye2Ymt0oz4jA/D3uy7J7Rlo9&#xA;RHLHpzHfHqPx1er/AJCa9Jo/5o6YFfjaawslhciuxLqXhNPH1EUZy2nJlgnil9WM8Q+dSex9qdND&#xA;xceqx/TlFHz2uJ+I+59hZr3nXYq7FXYq7FXYq7FXYq7FXYq7FXYq7FXYq7FXYq8G/wCcj/NFtYax&#xA;5fttBLR+ebeT6xBfW7cXgtSCDHL2ZJW34ttQGux33XZkAMc5ZP7nrfe42WEsmSMMYvIeSe+VbPyP&#xA;+cnkn63r2kW8eswO1rqE1sBHPFcKAfUilX4uLghgG5L2NaZTPLPTTBxyuBFjuIZSw3cckanE0fIv&#xA;mj8zPIN75G813GiXD+vDxE9jdU4+rbuSFanYgqVb3GdNo9UM+MSHx97qs2IwlSnqlhb6dottbqg+&#xA;sXMIuLmUj4iW3VK9gKdM52OvyZdcAD6YyIA+Yt7yHZGHD2TkmR6zEG/Owa+4MZzrHz52KvSNAiXT&#xA;/Jhnj2lljeVm/wApqqv3CmcH2zmM9TIHlHZ9R9mNNGOnh/TNn8e5ihIAqTQDqTmujEyNAWXtsuWO&#xA;OJlMiMR1OwQN3fKVMcW5Oxft9GdN2Z2NISGTL05D9b557Re1sJwlg02/FtKfl1Efuv5d6Azp3ztk&#xA;35c+R7/zt5stNCtW9JJKy3lzSoht0+29PpCr/lEZjavUjDjMz+C24sZnKn13+XPlLQdKtFfyzZw2&#xA;GjIxjS9KCW+v/TYq0skzfZiZgeIA3G68BtnJavPOR9ZuXd0Hw7/xu7XDAD6eX3sr1ry3oGuW7W2s&#xA;adb6hCw48biJZKD/ACSwqp9xmLjzTgbiSG2UBLmHxr+eHkTQ/JvnN7DRbn1bGeMTC1LF5LZ23MLM&#xA;RvsQy78qHfxPYdm6mWbHchv97qNRjEJUHnubBx068v6zeabe2d9YyrFqOnzJcWruoYc4zyWoOxGc&#xA;3rsJw5zl4eLFMVKulvddmZoa/QDRmYjnhK4X150PtI766Psv8pvzPsvPmgtcFFtdZsiI9UsVJIRj&#xA;9mRK7+nJQ8fDcb0qdTqtN4ZBieKEvpP46ulqUZGExwziaIZxmKl2KuxV2KuxV2KuxV2KuxV2KuxV&#xA;2KuxV2KoHXdZstE0W+1i+bjaWEElxMR1KxqWoviTSgHjk8WMzkIjmWMpCIsvi/VdYv8AVf0j5r1E&#xA;11TzBO3Dv6VuDQItf2QqhB/k0zM7XzAEYI/RD7S9Z7H9nA3qJ/VLl5D8fcHr/wDzielwI/NTmv1Y&#xA;yWSp4eoEmL0/2LJkMv8Ai+Lv9X+6dR26R/KGav6Pz4Qkn/OWq28vmPy3CpAuTbTeq3UiMyLwJHgC&#xA;Hzadk5hiw5Jy+kOjlpJ6jPDFD6pfi/hzeL+Y9QkupuYHGNqKi/yolAozH9n8UZ5JZD9Q/S9h7ZZJ&#xA;afTY9PH6Jcz/AFa2+2/gEkzrHzd2KpgnmDWEshZLcn6qF4iKikUrWlSK5g5OzdPORlKNk+92eDtn&#xA;VYYiMJkCPLl+pBPLJJ9ti3zzIxafHjHoiIuNqdbmzm8s5T95tZlziuxVn35QfmX/AIC1a+vhZRXb&#xA;XkCwVkZ0KgOGPDgj1r4Gg265r+0NJ48QLqnI0+XgL2L8uP8AnIzTrzXbfQtQ02PS9NupGWK5Usoi&#xA;uJ5C4V1YuBG7sQDy+GvTj00mr7PAjxRlxEjbluB3eYDssRnRuNcJ9Wx9N8r7rOzPfzX/ADh0P8v7&#xA;ONJI/r2tXSlrTTkbj8HT1ZWoeCVFBtUnp3IxdDoJZz3RHVc+oGP3vmXzl5u87fmI0F1rTWlhp0Lv&#xA;JZRBFgjBlpzKk85pCQo3JIzb/mdLoriCZT69f2Bt0nY2r1o4oxqPefxbFrnyzJGnK3vba5YD+7Ry&#xA;rn5BgAfvyWHt/DM0QY+/k5Wp9kdZjjxACddBdpN8SN3VlPyIIzdECQ7wXmATE2NiGfflL55byt54&#xA;0vVDLwtJ3Flq0daBreYhS5H/ABW1H+jOfloJRE8Vej6oHuPUPUdoa/HqcePUWPHHoyDv/my8/Pu2&#xA;D7eznXGdirsVdirsVdirsVdirsVdirsVdirsVdirBfzy0vUtT/KrzBa6d/vQIUnZa8S0VvKk0oB8&#xA;fTjbbv075ndmzjHPEn8Xs0amJMDT5UvQlz5W0q4tjyit0EUwHZ+IBr/sl/HMTtLHKOomJdZE/A8n&#xA;0n2Y1GOWmjwn+ED4jmq/l95082+WfML/AOG72OFtQj/fW9wvqW8xiDFQ4G4IFaMu+bfBwflP30T+&#xA;7lXdIXX63lO3NJ4naI8GUazQ4gecSRY5i/5qD8z+ZPMHmXW5dW8wXP1nUSohFFCJHGhJEcajooLH&#xA;NXq9ZGcRjxjhxjfzJ7y9Z2D2ANGTlySE8shVjkB3D39/4JHeW7zKqpQUNSTl3ZOux6eUjO9x0Ye1&#xA;HY2fXQgMXD6Sbs1+hL57aSGnOhB6EZ1Wj7Qx6gHgvbvfNe1uxM+hkBloiXIjl7uQUsznUOxV2Kux&#xA;VdHHJLIscal5HNFRRUknsAMjKQiLOwZQgZEACyUfqOltpYjS5f8A09gH9BKH0x1HNv5j4D78wsGq&#xA;GovhH7vlZ6+4d3mfk7LU6M6ThMz++2IiP4fee/yHzX6Fq1nZazZXuoWrXtnBPHLc2qymIypGeXDm&#xA;Q9Ae+33YTogBUaFA1sNr69GOTtPJMHiMiZ1xeqXqEeQNk+/y6Mj1nzAvnn8yL7Wr4N9XuZHltrWQ&#xA;iohhWkMJptsijlTrvmHq+LS6Socxtfv5lyeyMENTrIxyfSd6766JXdXU11M0szVY9B2A7Ko7AZxb&#xA;7bjxxhERiKCjizS3Uo+Mwfs43+YzsuwtTx4eA84fceT5J7Z9n+DqhkiPTlF/5w5/oPxQmbx497t+&#xA;Sv8AzkJc6K0Hl7zdO1xo5olpqb1eW26AJIerxe/Vfl00faPZQn68f1d3f+1ztPqq2lyfUsM0U0ST&#xA;QussMqh45EIZWVhUMpGxBGcwRWxdmuwK7FXYq7FXYq7FXYq7FXYq7FXYq7FUt8zWM2oeW9VsIf76&#xA;7s7iCL/WkiZF/E5ZhlwzBPQhjMWCHw5dalE2iW6xN6FzbIYL22+wxZAFRmXbl0ofA7ZstT2flOrF&#xA;3KEpWD0A5n3PTdldsaeHZ8/pjljCq5EmuEe/o7yzpEsF5o2pmQNDdSSpw3BVlDr8t+ObDtPVxlDL&#xA;ir1RAPv5frdB2RoJwyYM93GcpD3H1ffSE124Ed/M6gUM8lEPhyOafsjSDPxxPKhv+j8dz2ftL2lP&#xA;RxwZI0Zb7H+qBfwBI/zkTcWM0FtbXDA+lcpzRqe/T7qHNVlxmEjE8w9No9bDUQ4o8unmOh+KWahx&#xA;MBH7SkGnz2zd9hRlHKD/AAyBHyr8fF5P20y456Yw/wApjnE/CQO48ufxHuXWFvbtbByUZqmvc77G&#xA;ORag0/aVl6fPpt9drTjlvY/H1RPI9xi8h2T2SdTEcNEn3ny4Zgbx74zqu/yq+skkKmHZ1AU1P2go&#xA;oD0XenXxzA0nbkRIxmPT0Pd8O77uW7vu0fYzIcQniN5AN49/uPK+/lfPY7LYvL2rzf3cKsPH1Iqf&#xA;fypm2Pa+mAvjH2/qeW/0Pa668KX2frTC38pIlG1HUILZe8cberJ9y7ZgZ/aHGP7sGR+QdtpPY7U5&#xA;PrPCPmf1fareUhaQ+Z7iOD4+KTJYNJ1LA/CTsNygOPas55NFGffwmXx/bTDsXDjw9pSxy/h4oj3g&#xA;/qtINSa5a/na6JM7OTIW61rm17PlA4I8H01/a6XtjFlhqpjJ9XF8x0I8q5KaQ0T1ZNo+w7sfAY5d&#xA;TcvDhvPr3R8z+gJwaCsfj5fTi6d8z3R8u+XIe/ZPNL8reYpUTU7cLbsn72Au3FmpuOIodv8AWpmD&#xA;qe09ND91K5Dkevz/AGOdpOx9Zl/fwAiecenuofddBbcTq7POVEfIc3QdFJFWA9gemcmcHFm8PHv6&#xA;qD6vj1hxaMZs44TGFyHw5e9D2rvIhkaoLHYdgO1Myu08UMUxjhXpG/ffn+ro6/2c1OXU45Z8vFcz&#xA;t/NEe6P6Zdfgs1FOVvX+Ug/w/jmT2Dl4c/D/ADh+1wfbfTiejE+sJj5Hb9SV52b5K7FXuH5A/nc3&#xA;l64i8r+Y5ydCnbjY3kjbWbt+yxP+6WP/AAJ36VzSdqdneIOOA9XXz/a5ul1HD6TyfVoIIqOmcs7R&#xA;2KuxV2KuxV2KuxV2KuxV2KuxV2KuxV4B+Z3/ADjHJrOs3Wt+VL2C1lvHaa50265LF6rGrtFJGr8Q&#xA;x34laA96bDfaPtngiI5BddQ4GbR2bi8Ut547SJ/LWts2l6hpU7qrkbCRXPJWp0IYmhyHafZ+Sc/H&#xA;w+oSG/y+0PTez/bWHFj8DOAOHlfvv4EHqlbyQ3WqOjyJP6cgX61IOStvTketV2zAyYs+kxxkJGPH&#xA;e3d+37npdPqND2plnA4xLwgKPfzuvK/9MmWsXOsyLFHfDjEN4goUIe1QV2O3vmoek0+PFH6GN6k4&#xA;9RVB3A+L+Gdf7P4yMRkeROz5r7cZ4y1UYRO8Yer5kj9fxQ0CzNMiQVMrkKgXqSdgM3eaMDA8YHD5&#xA;vIaXJlhkBxEifSuae3kmnW0MMXrM94FBuiKGMMR0TiO2cR/J2TNIywx/d3t7vi+uY/aDFpsYhq5g&#xA;ZhEcQAJN+dbWfh8ksOqGu0e3bfNxH2djW8zfueZn7eZbPDjjXvLv0o3++x9+H/Q7D+eWJ9vM/wDq&#xA;cPmVFb6ZLtLuI+nNGQysviubfBoowxeESZR83l9b2pPPqPzFRhPb6b5jrvbLnSy8z2D3kMapqcA/&#xA;0q3H7Y/mXv8A50zlNThzaDJ6JHgPL9vR7zszWaXtPFwZ4gyHzj5xPOixmewZnB9RivTf4iMz9H21&#xA;ERIMAJc9tgf2/e4fansjkOSMhllLGaj6vVKHQdRce/lwjeiipdR1MBEvJ3ngUcVckniPfMeeDBqw&#xA;ThHBl/m9/u/HwcvBqNX2TIR1P7zTk1xjnH39fn8D0U7lWlCwqdm+Jz/kj+uY3Z8hg4s0xy2iP6X7&#xA;Bz97tO3YS1phpMUhU/XM90By/wBMeXu7lcAAUHQZq5y4iSer0mLGIQERyiAPkoXoJtXp7frGbLsa&#xA;VamPx+4vP+1uMy7PyV04T/sglOd2+MOxV2KvqH/nGv8ANp9Ttk8la1Nyv7SOuj3Dn4pYEFTAa9Wi&#xA;UVX/ACP9Xfme19DwnxY8jz/W7PSZ79Je+ZoXOdirsVdirsVdirsVdirsVdirsVdirsVeY/ml+RHl&#xA;rzvLLqsTtp3mD0iq3MVPSmdVpH9YShrTYcloaeNBmz0Xac8Pp5w/HJxs2mjPfq+SNS0rVPLWsXWk&#xA;6zava3tu3CaJhuKdGU9GVhuGGxGbntDSfnMcTjkNvk5vs92zHs7LLxIkiQrbmK+wotdSEmjSQiVn&#xA;UTIIrddiWcMSTXcABO3jnP4+z8mPIYz4YgRviIsUO75+97TVds4NRCGXB4k5SlwcMTwSs7i/gD1r&#xA;9BNdWsq1lJ5KdzXqK+OdB2f2jimRiG0h3cj7vveO7a7C1GKJ1J9UJHe/qjfSXx2sbe5Do7xuHRir&#xA;qaqwNCDm2lESFEWC81CcoSEomiOq0kk1JqT1OEAAUESkSbPNEWVheX04gtImllP7K9h4k9APnlWb&#xA;PDFHimaDbp9NkzS4cY4pMnt/y4v2jDT3ccTkfYVS9PmfhzRZPaPGD6Ykj5PSYvZPKRcpxB+f6ko1&#xA;vytqekKJJgstuTQTx1IBPQMDQjNjou1MWo2jtLuLqu0Oxs2lFy3h3j9PchtD1WTS9Thu13VTxlUf&#xA;tRn7Q/p75frtKM+IwPw97j9na06bNHIOXXzHX8d7KPMenhJxf2w5WV0BIsi/ZDNv+PXPPJRMSYnm&#xA;H27QaqOTGKN93mEjEct1KLO3jM1xKCBGOwp1PgBmz0GmlEjNI8GOG99/kO+3T9vdp4jE6SA8TNkF&#xA;cPSP9KR6Vz72oYREgUbmgqT3pmPrNWc8yeQ6D8de92XZHZcNHiERvMgcUu+hXyHIDoEWtvWwkuT+&#xA;zKkan/WVyf8AiIzDdkZeoDy/UhmUMpU9GFD9OWYshhISHMG2vVaeObFLHL6Zgg/FJZYzHIyHqppn&#xA;ouDMMsBMciHwTWaWWnyyxS+qBr8e9blzjOxVFaXqd9peo22pWEpgvbOVJreZequh5KfvGQnASBie&#xA;RZRJBsPvD8vPOdp5x8o2GvW4CPcJxuoAa+lcJ8MqeNOW61/Zoc4bV6c4chgfwHd4snHEFkeY7Y7F&#xA;XYq7FXYq7FXYq7FXYq7FXYq7FXYqkHm/yF5U832RtNe0+O6oCsNxTjPFXvHKPiXft0PcZkYNVkxG&#xA;4GmvJijMbh8k/mr+UWsfl7q4njEl75cmb/RNRKiqk1/dTcdlkHY7Buo7gdFHPHW4TA+mdfj4d7Xo&#xA;dRLQ6mGYDijE/ZyPxommP6F5Y80+a7kWXl7S570ueLzKtIk93lakaD3Y5h6Ts6GlPiZpCxyA/Fl6&#xA;Htv2pOsxnDgiRCXMy5n9A/HJN/zE/JTzh5F0611LU2t7qxuGETz2jOwilIJCSB1Q70NGG34ZttH2&#xA;jjzkxGxeOzaYw35hhOm6fPqF9FZwD95KaVPQDqWPyGZOp1EcOMzlyC6TTSz5Bjjzk9KppXljTRHC&#xA;nKVug/blYftMfDPP9Xq8monxSPw6B9X7K7JhijwYx7z1LGL3W9TvHLSTMq9o0JVR9A6/TmPT0mPT&#xA;wjyCnHqV4IpIHlaW3lUpLC5LKVO21eh9xlmLIYTEo8wWnWaHFnxyhIbSFMXz0t8BRya3qqWX1Fbl&#xA;xa9PS2pStaA9RmHPQYJz45RBk5+HtTU44cEJyjHy/XzT78vtStLe/mtp6LLdBRDKfEVqlf8AKrmr&#xA;7f0054xKPKHMfp+DuvZjWY4ZZQn9U+R/R8Uf5k0SW3ujcwIWt526Lvxdj0p7npnHgvquk1AlGjzC&#xA;jrEJsLG004/3rVubj/Wb4VH0AEYQywS45GfTkEnwuWgNSioVlHf4W+fbOr9n9TcZYz03H6fx5vmX&#xA;tzoOHJDUD+P0n3jl8x9yBzo3gU78ueWZNWMk0sgt7GE0lmPUmlaLXb5k5q+0e0hp6iBxTPIO57K7&#xA;IlqrlI8OOPMqeuaZo9mQLHUlu2rRowp29w61Q5PQ6nNk/vMfB5/s5tfaOj0+E/usvH5V+nkUR5W8&#xA;++cPKshfQNVnsUZvUkgRuUDtsKvC/KNjQUqVzJzaXHl+sAuuhllHkXu/kD/nKuCeSKx86Wi2xYhR&#xA;q1mGMY95oTyYe7IT/qjNHquxCN8RvyP63Oxa3pJ9A2V9Z39pFeWU6XNpOoeGeJg6Op6FWGxzQyiY&#xA;mjsXOBvcK2RS7FXYq7FXYq7FXYq7FXYq7FXYq7FVk8EE8TQzxrLC4o8bgMpHgQdjhBI3CkIa/wBT&#xA;0bR7QTahd2+nWi7CSeRIIx9LlVyUYSmaAJKCQOb58/5yL/NvyvrXl6Hyt5eu01Oe4njmu7i3+OJE&#xA;irxRWGzuz0+zXYe+b7snQzhM5JjhAHVwNVmEhwx3JeU+XLK00C3a/wBRNL+ZaRWo3dUO+47Fvfpm&#xA;v7Z7SGY+HD6B17z+p7X2Z7BnjHizFTl/sR+s/Z80u1G/mvrp7iXq2yr2VR0AzRh9BxYxCNBByyxx&#xA;Lyc0HbxOZOm0uTNLhgL/AEOH2j2ng0ePjyyruHU+4JXPeTSNsSq9lG3352mj7LxYY8uKXefxs+Rd&#xA;q+0Wp1k74jCHSIP395/AUM2ToXYq4Eg1GxHQ4Es88pecRMFsNTkpKNoLlz9r/Jcnv4Hv8+vKdrdj&#xA;8P7zENuo/U9v2H29xVizH1dJHr5Hz8+vv5yPVNMtboC4e3+sTwqfSj5cQ3cAnOae1w5jHYGgWCXq&#xA;XC3Mn1iIxSsxZkK8aVNdh4ZJ3eMgxFGwgrmJ5lEY2WtWc/wGbTs7UQ05OQm5VQj+s9zz3b+gza4R&#xA;08Rww4hKUzXyiLsnfyHmltxA8L8W3B+y3iM6/RayGohxR+I7nyvtbsrLos3hz+B6EfjmGVJpt/f+&#xA;SbNbEgrE8r3cQJBchzx6daDtmmy6zHg1s5ZAdxGvLbd3un7Py6rQY4YiB6pcQJqze34LE5YJYj8a&#xA;keB7ffm90+rx5hcJW87rezdRpZVlgY/cfceRWZkOCm/lW28vXesw2ev3Etnp9yfSN/DxP1d2ICyu&#xA;jD44x+0AQab12oac5mI3AWR072cACd3q+geZvN/5G+cDoOss2o+V7siZRGSY3ic0Fzbcj8Lj9tK7&#xA;9P5WzV5cOPW4+OO0x+KLlRnLDKj9L6l0vVNP1XT7fUdOuEurG6QSW9xGaqynuP4jtnLzgYkxkKId&#xA;nGQIsIrIpdirsVdirsVdirsVdirsVdirsVeJfnl+fJ8ryP5c8sukmv0/028IDpaBgCFVSCrSkGu+&#xA;y96npuuzezPF9c/p6Dv/AGOFqdTw7R5vmO8v9Y1+9kv9WvZr24Y/HPO7SOe9AWJoP1Zs9dr8ekiI&#xA;xj6jyH6S7DsLsDJ2jIyMuHHHmevuH42Wi9GnsVtAFmAo0v7Q+TdR9FMxMGmzayPHmkYwPKI2/Hxt&#xA;2mt1uj7MyHFpsYnljznPej3Ad/ur4oZr+7diee53OwzPh2Ppo/w37yXUZfantCf+Ur3AD9C369df&#xA;z/gP6Yf5I038z7/1sD7Tdof6qfs/Um3lbyb5p83akllotlLeysQJJqERRA/tSyH4UA9/ozInkw6e&#xA;HSI7nVTyZdRPikTOR6nd7Lqf/OIusJYwPpmv281/wH1mG5ieKL1O/pyJ6rce26e/sNVDt2N+qJpu&#xA;OhNbF5N5w/LrXfKusx6NfTWt1qcgDfVbKUzOgIBBkHFeFa9G3pv03zZ4tdjnAz+mI6nZpGlmZiER&#xA;xSPQI3Tfy5dkV9RuChPWGGhI+bmor9GaTU+0QBrFG/M/qeo0nsoSLzSryj+v9ilqGm+UrItDDDJe&#xA;TrsWMhCg/NaV+jNce3NSeoHwej0/sbpiLkJV5nf7KSWTT7aaQCOL0iTQKhY1J/1y2WY+3tRHnwy+&#xA;H6qbs3sTopD0mcfj+sFl+n+SGt41rqV1E/7SwPwA9htkMnbcp/Vjxn3i3Vw9nYYz6MuWI8jX6FHz&#xA;VaxWlvbRepLPK7MTNM5dgqgCm+wrXsM1mXMchuox9wp6rsfTeHfqlL+sSf2Mcyt3aHv4+duT3Tcf&#xA;xzcdh6jgz8PSe36vx5vJ+2WiGXRmf8WI38Dsf1/Bk/5bXbNb3lofsxssif7MEH/iIzK9o8QEoT7w&#xA;R8v7Xl/ZPOTCePuIPz/sQnmfT0ttSkUKPRnHqKvbfqPvGc/iyygeKJoh9FhjhqMPBkAlHkQWK3dv&#xA;6MtB9ht1P8M7zs3W/mMdn6hsXx/2g7IOh1BgN8ct4ny7veP2qGbB0b6v8j+XNH/Nf8kNLsdZJ/SO&#xA;mCSztdRUAywSQHjGRX7SmL0+an7XzoRyupzS0upJjyO9d/4LtMcBlxAHo8yl8v8A5/flXJPbaO92&#xA;2lsxYT2Ua3to1f2/SdJfSY03LIpzZjLpNVRlXF57H9rj8OXFy5PNNe1zzTe6u97rd5dyaqG5mS4Z&#xA;1kQnf4QacB4BaAds2OLFjjGogcLjSlImzzep/ll+aX5667eW/l3Q7pdR4cQ93eQrKLeLpznnoGoP&#xA;8olj0FTtms1mi0sAZyFe7r7g5OHNlkaD6vto5o7aKOeX15kRVlnKhebAUZ+K7Dkd6DOVJ32doFTA&#xA;l2KuxV2KuxV2KuxVjP5l+Zrryx5E1nXbRQ93ZwVtwwqBLIyxIxHcKzhiMydHhGXLGJ5EteafDEl8&#xA;G3V1cXVzLdXMjTXE7tJNK5LM7uaszE9SSc7qMQBQ5OjJtNNEtpLqCRIPjniq7Qj7RT+ZR3p3zk/a&#xA;DBITGT+Gq+L6T7EdpYhilgkanxcQ8waH2UyH8sZdEtPzN0M6zZw3mmXc4t5orlFkjDzgxo5Vqj4J&#xA;GVt8ydHnnl0cgD64fcP2bOl9qNDHT6/iA9GX1f5x+r7d/i+4ILeC3iWGCNYokFEjRQqgewG2aAkn&#xA;m4AC2a0tZyDNCkpGwLqGp94xEiOSKVFVUUKoCqooqjYADsMCXlP5zfmte6C8flfyyVbzNfR85bg/&#xA;EtlAdvVYEEc2/ZB6dfCufpcEBE5cv92P9ke5EMeTLkGLH9R+wd5eM6Xo8Nj6kzO1zfXDGS7vZSWl&#xA;ldjVizGp3OYGs108532iOUege17O7Mx6WNR3kecup/Z5JZ5p1sQRmxt2/fOP3zD9lfD5nMMB6HR6&#xA;ezxHkwqe6ih+0aseijrmx0XZuXUbx2j3lx+1/aHT6H0zuWT+aP09yBl1CZj8H7sdiOv3502k7Fw4&#xA;t5euXny+T532p7W6rU3GH7qHdHn8Zfqp65pt2t5p9vdKaiaNXPzI3H0HON1OE48kodxe00mcZcUZ&#xA;j+IAoDzJpDahbI8bKksHIjmaKVP2qnt0ykF2ekz8B35FhdxaTW5AlCivTiyt/wARJyVu3jMS5IW5&#xA;IFvJU0+Ej7xmb2dEnUQr+cHV9vZIw0OUy5cBHxOw+1P/AMtfRH1/4x6zenRO/FeW/wB5zc+0l+jb&#xA;bf8AQ+feyXD+839Xp28t0z86WrPbwXKioiYo5Hg1KV+kZzAfRNBOiR3sD1LkAoIqK1VvDbcZ1nYJ&#xA;ibINSqiO/ul+gvDe2sckTGMhcOIyhLuv6oH41IeW3TYBnSPAvqj/AJxIvxJ5P1mwrVrfUBNTwE8K&#xA;KPxhOcv27H95E/0f0u00J9JHm91zRuakvmHyV5T8x8P05pNtqDRbRyTRguo60V/tAe1cuxajJj+m&#xA;RDCeOMuYRmj6Ho2i2YstIsYNPtAa+hbRrEtT1JCgVPuchkyymbkSSmMQNgjsgydirsVdirsVdirs&#xA;VdiqH1HT7LUrC4sL6Fbizuo2iuIXFVZHFCCMlCZiQRzCCARRfnpqlmtlqd3ZqxZbaaSEMepEbla/&#xA;hnfwlcQe90MhRpnGk/lvqVx+Wi+f9Bllku9Mu5o9TtaA8YYwrCaKgqVVX/eA9t+gOa/PqISynBkH&#xA;pkNvx9zlYOPGBlxmpRP4/akOpAanbrqlohjYkGcJt6U467joG2ZTmixE6DUmMt8cvu/Y9/kA7Z0A&#xA;4aGfGdh949x6e4eb6V/Kr/nIbR/Mk1voWvx/ovXOColw7g29zIq/EQ1F9N2pUKdvBq7YdV2aYx8T&#xA;GeKBeOGWUZnHkHDMc7etxappk1x9WhvIJLilfRSRGenWvEGuawwkBdbN3EETkUvm/wDN/wAu6xoP&#xA;n7VPM01nPd6HrMcD/pCBGl+rPbxLE0c3EEop48lPTt2ObGWL8zgjCJAnC/SdrvuczsvXQ0uWRyA8&#xA;M69Q3qv0PLNT8+Hk8doyBP2JlDMxHYgMFofmMx4diakneNfEPUf6IezoREjMyPcIn9NfexS41V3L&#xA;FQS7bs77mp6nNvpvZ8A3lN+Q/W6ntD24nIcOnhwf0pc/gOX3oe0tL3UL2K1tIpLq8uXEcMMal5Hd&#xA;jRVVRuSc6ACOOO1RiHhcmSeWZlImUpdepZnB+Rv5sTJzTy3cgeDtFGfH7LupzFPaWnH8QZDTZO5O&#xA;dI0vzJ5Vki0HzRYS6bNNWTTmloUkFfjRHUshIJrQHv8ALOd7YwRy/v8AEeIfxfrew9nNfwD8vk2P&#xA;8P6R+lN7uEz2k0ANDLGyA/6wIznnsoS4ZA9zzaaGWCV4pVKSIeLKexGSehjIEWEPdJzt3XvSo+jf&#xA;M/s3N4eeJ86+ezpvaLSePoskeojxD/N3/Ql1je3VldJc2rlJozUEd/EEdxndZ8MMsDGYuJfFdNqJ&#xA;4ZicDUg9F0Xzbperwi2u+MN044vC/wBh6/yk+Pgd84vX9j5MJJj6od/Ue99D7L9oMWehI8GX7D7j&#xA;+jn72PeZdFNlM8SjlBKC1uT7fs/MHMbs/P4eaMr2vf3PR9qYRrNDkhVz4bH9YbivfyYnnob4k9c/&#xA;5xt8/WPlfzjNYanMINO1yNIDMxoiXEbEwM57KebLXtyqds1Pa+lOXHcecfu6uXpMojKj1fYOci7Z&#xA;2KuxV2KuxV2KuxV2KuxV2KuxV2Kvzq1G6N3qFzdEkmeV5SSACebFug+eehQjQAefJsvrX/nFuBh+&#xA;VzeooKTX9wyg7grxjQ/ipzlO2j+/+Adrox6Pi8W87eXV8ifmHrWm39ubfy/qxkm01kU+j6LsXREP&#xA;/FXIxnwPtvl+rgdXpYyhvkhz7/P9bsuwtaNJqiJHhhPr0B6fqebak8LzAxHkKbn27dMy+w8WSGIi&#xA;YI32BbvbHU4M2picRjI8HqMdxfTfrt+pZp2o32m30F/YTvbXlq6y288ZoyOpqCDm5nASBB3BeSBI&#xA;Nh97+RPMy+Z/J2ka8AFe/t0kmRfsrMPglUeyyKwzhNTh8LJKHcXe4p8UQU+yhmwnzn+Tf5f+bYnN&#xA;/pqW189SNRswsFwGPdmUcZP9mrZm6ftDLi5Gx3Hk05NPCfMPmr8x/wAkdc8htLeGIaxokhVYNUXk&#xA;gtyTT/SYhyp4Bq8fpNM3uLXDUihIwl1A5n+qfwXHxwjglcoCfdd8I94HP50w+80C/sBDO89Y2o8E&#xA;9saIGG4owA3HY5qZ9rjHKoQ375kmX7HuNL7N/moXkzc9+HHGMY+R22PyfXH5JfmL/jLykn12QNr2&#xA;lkW2pr+05A/dz08JVH/BA5j6zCIkSh9E9x+r4PKmE8c5Y5/XA0fx5sq82+UtE816LNpGsQerbS7x&#xA;yLtLFIPsyxP+y69j9B22ynBnlilxRYzgJCi+a9U0jVvLPmK48s6w/rXECiawvqcVurUmiyUqaOp+&#xA;Fx4/fjrdNHhGbH9B5j+af1dz1HYvacst4sh/eR5H+cP1jqwTzWX/AE1NyAACpwNOo4j+Nc1we60X&#xA;92Enwg05MogijyKW6ffXOlatbX9s3G5sZ0ngbweFw6n71z0gVlx+Uo/eH59zYzhymJ5wkR8i+n/O&#xA;n/OOPlXzZaR6/wCUZ10a6vokuY7YrWykEqh1IVfihqG/ZqP8nOc0/a2TEeDIOID5/tczJpIz3js8&#xA;P8x+XfPHkicab5q0+R9Oc0hlJ9SJqdGgnFQGpvxP0jMvNo9NrI8WMiM/xzDn9m9uanQzF3KHcf0F&#xA;IbvRrZ4xeWcpltJejgUKN3WRezb+PyzD/lXPpax5Y3XXvHR6GHs/o+0uLNgmYcX8NbCXXb9HTzFJ&#xA;VPZzRbkcl/mH8c3Ok7Uw59gal3F5jtT2d1Wj3mOKH86O4+PUfF9D/k1/zkZFHFpvlbzYpAULbW2u&#xA;F6jrSJbhSNgBRfUr/rd2zXdodk88mP8A0v6v1OHp9XyjL5vo/Oddg7FXYq7FXYq7FXYq7FXYq7FX&#xA;Yq/OvUrC507UbrT7pDHc2krwTIRQh42KsD9Iz0KEhIAjkXnyKNPW/wDnHL8x73RvNdvoGpasYPLt&#xA;4siRW05rCly5Bj4Mf7vk1R1CknffNT2tpBPGZxHrH3OXpMpEqJ2fUHmvyd5c816W2ma9ZJeWxPJC&#xA;aq8b/wA8brRlb5H57ZzODUTxS4oGi7KeMSFFgPl3/nGf8ttG1Nr6VLnVgKiG1v3jkgXkKVKJHHzI&#xA;rtyqPau+Z+XtjNONbR9zRDRwBvmqeZP+cbPyx1eNzaWkmj3TfZms5G4194pC6U/1QMGHtfPDmeIe&#xA;az0kD5Mu/Ljye/k7yZp/lx7oXpsTP/pIT0+YmuJJh8FWpQSU65iavUeNkM6q6+5uxY+CIDJcxmx2&#xA;KrJoIZ4XhnjWWGVSkkTgMrKwoVZTsQcIJG4V80fmp+Xdj5U16Kx05gugeYY53s7JiWNrdQcWkVK7&#xA;+mwcMu+xrmVqj4+I5CP3kKs94PL4h3Ps7rJYc4x36JWQO4jn8CLeXeVPO2qeSfMkGuaW6meOsV3a&#xA;MTwnhJ+KN6fKoPYgHMzsvDky4zinE+HzEu4+Tk+140wmM2OcfG5SiN+IedciPPp7n1l+Wv5w+VfP&#xA;ySxad6lrqdsgkuNOuAA4QmnNGUlXQE0r1G1QKjMbWaDJg57xPV5bDnjPlzQH55+T21jysNbso+Ws&#xA;eXS15b06yW9P9Jh/2UY5D3AyOjmCTjl9OTb49D82+OWWKccsfqgb+HUfEPnLzPZLe2kOq2n7xOAL&#xA;kd4zurfRXfNVOBhIxPMPqXZmrjKIo+mW4YpgdwhG05rrUoLeOSKE3ThBJPIsUSEkAs8jkKq9yTnZ&#xA;di6vjwEEf3f3dHyP2w7NGDV8cTtl39x6/Pm+7/I2mSaV5M0PTJLmO7eysbeA3MJ5RP6carWNu6bf&#xA;CfDOe1M+LJKVVZLrsYqICa31jZX9rJaX1vHdWkw4y28yLJGw8GVgQcqjIxNg0WRAPN4r5p/5xntm&#xA;v5b/AMlas2hGYVk06VWltyw6cX5F1FexDe1Btm0j2lGcRHPATrr1a8ccmEk4ZGFvFtf0bV9O1h9A&#xA;81Wg0/XV3trwD9zcqdlPIfCwbsw77GhFMp1fZ0eDxtObh1HUPV9ie00uLwNT12vofx8j5MJ1Wxkt&#xA;LlkeMxkGjr4MM3XYuuObGYyNzj9zovarsmGmzCeIViyD4CXUeX47n2b+Q3nM+afy6sJJ5PU1HTP9&#xA;AvqmrFoQPTc13POIqSfGuaXtPT+FmNcjuHXabJxQ9z0PNe5DsVdirsVdirsVdirsVdirsVeJ/np+&#xA;RVp5igvPNGgIYvMEUfqXNog+C8CDeg7TcRsR9rp13zddm9pHGRCf0fd+xw9TpuL1Dm+Ts6p1T7y/&#xA;KjVNR1X8uPL19qIf65LZoJWkBDvwqiyGu59RVDV71rnC66AjmkByt3mCRMASyvMVtdirsVdirsVe&#xA;Y/nb+bt9+X1lZJY6YLu81MSi3upmpbxGLjXkq/G7fGPhqvzzZ9naAZybNAfNxtRnOMbDm+TfNfnT&#xA;zT5v1MX2u3sl7ciqQJQKkasfsRRoAqg+w371zqsGnx4o1EUHVzySkbJTrRvyU/NLWLMXlj5euPq7&#xA;CqtO0VsWHiq3DxMfoGU5O0cEDRkPv+5nHTzPIPSfyE/KT8wtF/MKDWtX0+TS9PsY51nMrJWYyxtG&#xA;saBWYsOTB69Ph65re1NdhnhMYniJpyNNgmJ2RT6L8xeYtD8v6VNqet3cdnYRD45JT1J/ZVRUux7K&#xA;BU5z2LFLJLhiLLsJzERZfF1z560a01+/TRrSYeWJZ2ewtpivrQxsalRSq8a14qTsO+dBquxTmiJE&#xA;gZa37j+O/wCxt7M7fOm9BHFi6d4936vtW3Efle+BurTUY7NeskEgoR/qqSD91c5/J2XqIS4eAn3b&#xA;j5/re80vtTppQszG3fsfl1+DG53tpNRdrd2ktIFPGRlpyFNzTtXN1+Wlp9MMZ/vckx94+79Lzv8A&#xA;KI1+uOcj9xgxT58vpkOveTsPJ6Z+S/5vah5LuYNP1GRrjyvdFfXiYlmtGc7zxdfh3q6D5jfrRqpx&#xA;z5p4ztkB9J7/AOifPuPwcTJ2NPFo8ephZiYgzHd/SHl393P3euoZoZ4Y54XWSGVQ8ciEMrKwqGBH&#xA;UEZqSKNF1q/ArE/zK/LnRfPfl99NvgIruOr6dqAWskEviOlValHXuPcAjK0erlgnxDl1He1ZsQmK&#xA;L4984abq9jJdaLrsXo6/o7BJidxPB+zIrftUBDA91NfHN5pcEMeYZcf93k2/qn9R+/4OTqO0Mmo0&#xA;ZwzP7zEeL+tHl8x91+aafkt+ah/L/wAwTTXUclxouoII7+3ipzBQ1jlQMVBZKsKE9Cczu0dF48KH&#xA;1Dk6LT5vDPk+xfLPmnQfM+kxarol2l5ZSbcl2ZHABKSKfiRhXcHOQzYZ45cMhRdvCYkLCa5Uydir&#xA;sVdirsVdirsVdirsVdiryvQf+ccfy903Wp9XvIpNUmkneeG1uOItYubllUQqPj41p8bEe2bTL2tm&#xA;lHhHp+9xY6SANnd6mqqqhVACgUAGwAGatym8VdirsVdirsVQupaTpWqWxtdTs4L61JqYLmJJoyR3&#xA;4uGGThOUTcSQUGIPNB6X5R8qaTL6ulaLYWEv+/LW2hhb741U5KefJP6pE+8sYwiOQCYXl5aWVpNd&#xA;3cyW9rbo0k88jBURFFWZmOwAGVxiSaHNkTT5t8+/85V6i93NZ+TLWOK0QlV1S7UvJJTblHCaKg8O&#xA;dTTqBnR6XsQVeQ79wdfl1p5ReJeZvOHmfzPeC81/UptQnH2PVNEQHqI414og/wBVRm6w6eGIVAU4&#xA;U8kpcy7yl5U1rzXr1tomjw+reXJ6nZI0G7SSN+yijr9w3oMc+eOKBlLkFhAyNB9e6T+QX5e2nk3/&#xA;AA3d2K3kko5XOrMoW7M1P7yOQVMYU/ZQfDTryqa8lPtTMcnGDXl0dtHSwEeF5b5o/wCcZPMum2p/&#xA;QF7HremRyGV9MdUtLtxXZRNRkkIHiV9h0zMh2jjnLikOHJVCW8gPh0Zw44Q8O7xXcoiomXvNb/F5&#xA;xdaFbTvNFYpJa39qeN1pN0pjmjI6ji2+2aPVaXLiPFLcHlIcj8X0rsntzBqIcA2oVw9w93d7npv5&#xA;F/nGNEeLyl5lm4aUWK6bfymgtW/3xKT0iJ+wx+ydvs045Ql+YFj+9HP+l5jz7+/m8t252MdHLjgP&#xA;3Ev9ge73dx+D6UBBFR0zEdG7FXlX5+flWvm/y+dV0yP/AJ2TSo2a34D4riDcyW5puT1Ke+37Rzad&#xA;ma3wp8Mvol9h73G1GLiFj6g+NyCDQ9c7B076C/5xDu4l1nzFaNK4mktoJY4eXwFY3ZXYr3ILqAff&#xA;NB29H0xPmXP0J3L6bzmnZOxV2KuxV2KuxV2KuxV2KuxV2KuxV2KuxV2KuxV2KuxV2Kvn/wD5yw84&#xA;tbaTpvlS1npJfMbvUYlPxejEQIVcfyvJVvmmb7sPT3I5D02H4/HNwNbk2EXzPa2tzd3UNpbRtNc3&#xA;DrFBCgqzu5CqqjuSTTOllIAWeTrgLe0WX/OJvn+UI13qWmWysAWUSTyOteoIESrUezZppduYhyEj&#xA;8v1uYNDPvD3n8rfyp0P8v9KeC1b63qd1Q3+pOvFpOP2URatwRfCvzzRa3XSzys7RHIOdhwDGPNm+&#xA;YTc7FWE/mR+V2jecbQ3CKtl5jtlrp2rIKOrDdY5qfbiJ2KmtN6ZlafUmHpl6sZ5j8dWNESE4mpjk&#xA;Xyv5m0ydRcT3UH1TULKVrXV7Rv2JkPEt7htqHuCDmPl00seUCFm94kPofZXa+LPpj41CIBEr5DvH&#xA;uPRZpH52/mXoqWttp2tymwsVEdvbTpFKnpj9g81LEdhvUDYUzrsfZsJwByxHiHnXe+XavUxGaXgE&#xA;+Ffpvu/Hxp9c/lp5z/xn5L07zA0AtprlXS4hG6iWJzG/CtTxJWq17ZzGs0/g5DDnTl4cnHEFlGYz&#xA;a+JPz78txaD+aOrw28Igs70pfWygUUidAZCo8PWDjbO07MzceCJPMbfL9jptTDhmUq/Kvzs3k3zx&#xA;p2tMT9TDGDUEWp5W0vwybDqV2cDxAy3W6fxsRj16e9jhycEgX3Ppmp2Gqafb6jp86XNldIJbeeM1&#xA;VkYVBGcROBiSDsQ7oEEWETkUuxV2KuxV2KuxV2KuxV2KuxV2KuxV2KuxV2KuxV2KuNaGmx7E74q+&#xA;XvOv/OPP5t+YvNF9rF3e6deS3shb1hNKiqgFEQI0dVCqAoAJzptP2rp8cBECQp1uTS5JSvZmf5Rf&#xA;845r5V1eHzB5iu4r7U7apsrS3DGCJyKeoXcKzsAfh+EAdd9qYev7W8WPBAVE823BpOE2eb27NK5r&#xA;sVdirsVdir5C/wCcpIbKH8za2jD1Liwt5b9VP+7w0ka8h4+iqfRnWdi2cO/Qmvd/a6rWH10Eh/Jf&#xA;8q5PP/mGWG4ke30XT1WXUZ46czzJEcUZIIDPQ7kbAHMjtDW+BCx9R5Nenw+IfJ9m6HoelaFpVtpO&#xA;k2y2mn2i8IIErQCtSSTUkkmpJ3J3OcdkySnIykbJdvGIiKCOyDJ5L/zkJ+Vj+b/L66tpkZbX9HRm&#xA;ijUb3Fv9p4f9ZftJ71H7WbXsrW+FPhl9EvsLi6rDxixzD49IIJBFCNiDnXuofbn5BW9xB+UXl1J6&#xA;8zFNIK1+xJcyunX/ACGGcV2oQdRKvxsHdaUfuw9AzAb3Yq7FXYq7FXYq7FXYq7FXYq7FXYq7FXYq&#xA;7FXYq7FXYq7FXYq7FXYq7FXYqtlMgicxqGkCkop2BamwwhXx1qn5I/nd5h8y3V5qul1vb2YyXN9L&#xA;cW/pAnvVXY8VFAFUbDamddDtHTY4AROw6UXUS0+SUrIfSP5S/lrbeQfLH6NEwudQuX+sajdKKK0p&#xA;UKFSu/BAKCvXc7VpnO67WHPPi5AcnY4MPBGmbZhNzsVdir54/Mf/AJx7v/MH5rRXmlqLXQdWX63q&#xA;90KAQyowEwQd3mqGX/KLHoM6DSdqjHgqW8o7D8eTgZdKZZNuRe/6dYWmnafbafZxiG0s4kgt4h0W&#xA;ONQqKPkBmhnIyJJ5lzgKFBEZFLsVdirsVdirsVdirsVdirsVdirsVdirsVdirsVdirsVdirsVdir&#xA;sVdirsVdirsVdirsVdirsVdirsVdirsVdirsVdirsVdirsVdirsVdirsVdirsVdirsVdirsVdirs&#xA;VdirsVdirsVdirsVdirsVdirsVdirsVdirsVdirsVdirsVdirsVdirsVdirsVdirsVdirsVdirsV&#xA;dirsVdirsVdirsVdirsVdirsVdirsVdirsVdirsVdirsVdirsVdirsVdirsVdirsVdirsVdirsVd&#xA;irsVdirsVdirsVdirsVdirsVdirsVdirsVUb68t7GyuL25bhbWsbzTOAWokalmNFBJoB2xVhyfm3&#xA;oTziFbC9Ls5jQ/6LwaRa8o1f1+DOvE1UGopuMVQ0X52eUpRKY4rhvRZEko9n9qQlYwv+kfFzYELx&#xA;6kbYquP51eUQU5pOqOglDhrR/wB2UaQMBHO7NVI2YBQSQpoDTFVCHyl54ia2mW6cyW4tg8UupXck&#xA;U1xGx9e5dQEbhKCtEDgLx+weRGKoRPIP5iQaJbRp5gll1EW8AuS11ej98qxJLwkeeXr6bMzMpDVP&#xA;FUJ5Yqm8vlXzPJbxmPULyLjDL69qb2WskyuPQpMGZ0UpLLzo25Cfy4qhz5X/ADBM4uYdU+rQRGQW&#xA;umvc3E5o0j3CNLcMwZ/3qwoysrUjDop4tQqqGneTvzHt7NZJtbLajawzx20RubiS2mJYPGJ/U5PU&#xA;iWVPU3K8YyK8aYqjbny35ulmuGZpJGklgcSrql3APq0QhWWBYYxwDyGJzz2+39qtcVWad5S89xzL&#xA;JPrciWpvobh7EzyzkWsMqPHbrO9Hp6bOsxNfUKJ2Z6qs+xV2KuxV2KuxV2KuxV2KuxV2KuxV2Kux&#xA;V2KuxV2KuxV2KuxV2KuxVKvNtvd3PlXWbeyiM95NY3MdtACAXlaFgiVOw5MaYq+bnvfO8XlS0EPl&#xA;jzjcazCIA+jTpL+i19D0gGjAT7Vbfmo4fCzVqxHxKoKHyhrF01rpt/5c1dtP1CD6xfzTWF46Wc5t&#xA;Y0a3Cra85mZUEDSgbcA6kH4yqtbyh5rOkXt/aeW9Wk1WOaa1t9PuYrwPeIzRqt5JK9vwUy19VlZ1&#xA;4mOmwYhlX//Z</xmpGImg:image>
               </rdf:li>
            </rdf:Alt>
         </xmp:Thumbnails>
      </rdf:Description>
      <rdf:Description rdf:about=""
            xmlns:xmpMM="http://ns.adobe.com/xap/1.0/mm/"
            xmlns:stRef="http://ns.adobe.com/xap/1.0/sType/ResourceRef#"
            xmlns:stEvt="http://ns.adobe.com/xap/1.0/sType/ResourceEvent#">
         <xmpMM:OriginalDocumentID>uuid:9E3E5C9A8C81DB118734DB58FDDE4BA7</xmpMM:OriginalDocumentID>
         <xmpMM:DocumentID>xmp.did:E75138E141206811822A8451A1857300</xmpMM:DocumentID>
         <xmpMM:InstanceID>xmp.iid:E75138E141206811822A8451A1857300</xmpMM:InstanceID>
         <xmpMM:RenditionClass>proof:pdf</xmpMM:RenditionClass>
         <xmpMM:DerivedFrom rdf:parseType="Resource">
            <stRef:instanceID>xmp.iid:E65138E141206811822A8451A1857300</stRef:instanceID>
            <stRef:documentID>xmp.did:E65138E141206811822A8451A1857300</stRef:documentID>
            <stRef:originalDocumentID>uuid:9E3E5C9A8C81DB118734DB58FDDE4BA7</stRef:originalDocumentID>
            <stRef:renditionClass>proof:pdf</stRef:renditionClass>
         </xmpMM:DerivedFrom>
         <xmpMM:History>
            <rdf:Seq>
               <rdf:li rdf:parseType="Resource">
                  <stEvt:action>saved</stEvt:action>
                  <stEvt:instanceID>xmp.iid:F77F117407206811822A8451A1857300</stEvt:instanceID>
                  <stEvt:when>2013-10-06T17:09:14+13:00</stEvt:when>
                  <stEvt:softwareAgent>Adobe Illustrator CS6 (Macintosh)</stEvt:softwareAgent>
                  <stEvt:changed>/</stEvt:changed>
               </rdf:li>
               <rdf:li rdf:parseType="Resource">
                  <stEvt:action>saved</stEvt:action>
                  <stEvt:instanceID>xmp.iid:E75138E141206811822A8451A1857300</stEvt:instanceID>
                  <stEvt:when>2013-10-07T00:21:21+13:00</stEvt:when>
                  <stEvt:softwareAgent>Adobe Illustrator CS6 (Macintosh)</stEvt:softwareAgent>
                  <stEvt:changed>/</stEvt:changed>
               </rdf:li>
            </rdf:Seq>
         </xmpMM:History>
      </rdf:Description>
      <rdf:Description rdf:about=""
            xmlns:xmpTPg="http://ns.adobe.com/xap/1.0/t/pg/"
            xmlns:stDim="http://ns.adobe.com/xap/1.0/sType/Dimensions#"
            xmlns:xmpG="http://ns.adobe.com/xap/1.0/g/">
         <xmpTPg:NPages>1</xmpTPg:NPages>
         <xmpTPg:HasVisibleTransparency>True</xmpTPg:HasVisibleTransparency>
         <xmpTPg:HasVisibleOverprint>False</xmpTPg:HasVisibleOverprint>
         <xmpTPg:MaxPageSize rdf:parseType="Resource">
            <stDim:w>209.999929</stDim:w>
            <stDim:h>210.001308</stDim:h>
            <stDim:unit>Millimeters</stDim:unit>
         </xmpTPg:MaxPageSize>
         <xmpTPg:PlateNames>
            <rdf:Seq>
               <rdf:li>Cyan</rdf:li>
               <rdf:li>Magenta</rdf:li>
               <rdf:li>Yellow</rdf:li>
               <rdf:li>Black</rdf:li>
            </rdf:Seq>
         </xmpTPg:PlateNames>
         <xmpTPg:SwatchGroups>
            <rdf:Seq>
               <rdf:li rdf:parseType="Resource">
                  <xmpG:groupName>Default Swatch Group</xmpG:groupName>
                  <xmpG:groupType>0</xmpG:groupType>
               </rdf:li>
            </rdf:Seq>
         </xmpTPg:SwatchGroups>
      </rdf:Description>
      <rdf:Description rdf:about=""
            xmlns:pdf="http://ns.adobe.com/pdf/1.3/">
         <pdf:Producer>Adobe PDF library 10.01</pdf:Producer>
      </rdf:Description>
      <rdf:Description rdf:about=""
            xmlns:xmpRights="http://ns.adobe.com/xap/1.0/rights/">
         <xmpRights:Marked>True</xmpRights:Marked>
         <xmpRights:WebStatement rdf:resource="http://www.ospreydawn.com"/>
         <xmpRights:UsageTerms>
            <rdf:Alt>
               <rdf:li xml:lang="x-default">This work is licensed under a &lt;a rel="license" href="http://creativecommons.org/licenses/by-nc-sa/3.0/"&gt;Creative Commons Attribution-NonCommercial-ShareAlike 3.0 Unported License&lt;/a&gt;.</rdf:li>
               <rdf:li xml:lang="en_us">This work is licensed under a &lt;a rel="license" href="http://creativecommons.org/licenses/by-nc-sa/3.0/"&gt;Creative Commons Attribution-NonCommercial-ShareAlike 3.0 Unported License&lt;/a&gt;.</rdf:li>
               <rdf:li xml:lang="en">This work is licensed under a &lt;a rel="license" href="http://creativecommons.org/licenses/by-nc-sa/3.0/"&gt;Creative Commons Attribution-NonCommercial-ShareAlike 3.0 Unported License&lt;/a&gt;.</rdf:li>
            </rdf:Alt>
         </xmpRights:UsageTerms>
      </rdf:Description>
      <rdf:Description rdf:about=""
            xmlns:cc="http://creativecommons.org/ns#">
         <cc:attributionName>Max O'Brien / Osprey Dawn</cc:attributionName>
         <cc:license rdf:resource="http://creativecommons.org/licenses/by-nc-sa/3.0/"/>
      </rdf:Description>
   </rdf:RDF>
</x:xmpmeta>
                                                                                                    
                                                                                                    
                                                                                                    
                                                                                                    
                                                                                                    
                                                                                                    
                                                                                                    
                                                                                                    
                                                                                                    
                                                                                                    
                                                                                                    
                                                                                                    
                                                                                                    
                                                                                                    
                                                                                                    
                                                                                                    
                                                                                                    
                                                                                                    
                                                                                                    
                                                                                                    
                           
<?xpacket end="w"?>
	</metadata>
<g id="Layer_2">
	<g id="_x37_Wl2mV_1_">
	</g>
</g>
<g>
	<path fill="#BDC2BC" d="M534.992,588.913c-0.739,0-1.34-0.602-1.34-1.341v-16.588c0-0.739,0.601-1.339,1.34-1.339h52.497
		c0.738,0,1.339,0.6,1.339,1.339v16.588c0,0.739-0.601,1.341-1.339,1.341H534.992z"/>
	<g>
		<path d="M558.027,571.51c-2.724,0-4.934,2.21-4.934,4.934c0,2.729,2.21,4.938,4.934,4.938c2.729,0,4.938-2.21,4.938-4.938
			C562.964,573.719,560.756,571.51,558.027,571.51z"/>
		<path fill="#FFFFFF" d="M558.027,580.461c-2.219,0-4.014-1.798-4.014-4.019c0-2.217,1.797-4.014,4.014-4.014
			c2.219,0,4.019,1.798,4.019,4.014C562.046,578.664,560.246,580.461,558.027,580.461z"/>
		<g>
			<path d="M559.402,575.293c0-0.219-0.182-0.398-0.398-0.398h-1.952c-0.222,0-0.402,0.181-0.402,0.398v1.985h0.528v2.338h1.694
				v-2.338h0.528L559.402,575.293L559.402,575.293z"/>
			<path d="M558.695,573.942c0,0.37-0.3,0.668-0.667,0.668c-0.371,0-0.67-0.299-0.67-0.668s0.302-0.67,0.67-0.67
				C558.395,573.272,558.695,573.571,558.695,573.942z"/>
		</g>
	</g>
	<path d="M587.175,569.198h-51.868c-1.157,0-2.102,0.943-2.102,2.102v15.96c0,1.158,0.943,2.1,2.102,2.1h51.868
		c1.158,0,2.102-0.94,2.102-2.1V571.3C589.275,570.141,588.332,569.198,587.175,569.198z M588.644,583.375h-37.865
		c-1.478,2.809-4.418,4.725-7.81,4.725c-3.393,0-6.333-1.916-7.809-4.725h-1.326V571.3c0-0.812,0.658-1.471,1.47-1.471h51.869
		c0.811,0,1.471,0.658,1.471,1.471V583.375L588.644,583.375z"/>
	<g>
		<path fill="#FFFFFF" d="M557.773,584.934c0.1,0.139,0.15,0.301,0.15,0.494c0,0.199-0.052,0.357-0.151,0.48
			c-0.057,0.065-0.14,0.13-0.25,0.187c0.169,0.061,0.294,0.156,0.378,0.288c0.086,0.131,0.127,0.289,0.127,0.478
			c0,0.192-0.047,0.365-0.145,0.52c-0.062,0.102-0.14,0.187-0.23,0.254c-0.104,0.079-0.224,0.137-0.367,0.165
			c-0.143,0.03-0.295,0.042-0.459,0.042h-1.467v-3.256h1.572C557.326,584.594,557.607,584.706,557.773,584.934z M556.009,585.151
			v0.717h0.79c0.143,0,0.257-0.026,0.345-0.08s0.133-0.147,0.133-0.286c0-0.15-0.059-0.248-0.176-0.301
			c-0.099-0.033-0.227-0.05-0.382-0.05H556.009L556.009,585.151z M556.009,586.407v0.869h0.789c0.143,0,0.249-0.02,0.328-0.058
			c0.145-0.071,0.217-0.206,0.217-0.407c0-0.17-0.07-0.285-0.208-0.35c-0.077-0.034-0.188-0.056-0.327-0.056L556.009,586.407
			L556.009,586.407z"/>
		<path fill="#FFFFFF" d="M560.469,584.586h0.771l-1.089,2.034v1.222h-0.68v-1.222l-1.127-2.034h0.8l0.677,1.418L560.469,584.586z"
			/>
	</g>
	<g>
		<g>
			<path fill="#FFFFFF" d="M566.517,584.426h0.776l1.402,2.473v-2.473h0.693v3.545h-0.743l-1.442-2.517v2.517h-0.689
				L566.517,584.426L566.517,584.426z"/>
			<path fill="#FFFFFF" d="M570.425,584.797c0.285-0.292,0.647-0.437,1.09-0.437c0.591,0,1.02,0.196,1.295,0.588
				c0.148,0.221,0.229,0.439,0.242,0.66h-0.741c-0.048-0.17-0.106-0.297-0.183-0.383c-0.132-0.153-0.328-0.229-0.586-0.229
				c-0.265,0-0.473,0.108-0.623,0.325c-0.152,0.22-0.229,0.525-0.229,0.923c0,0.399,0.08,0.695,0.241,0.895
				c0.161,0.197,0.365,0.299,0.615,0.299c0.251,0,0.447-0.086,0.58-0.256c0.073-0.09,0.136-0.228,0.184-0.409h0.734
				c-0.063,0.386-0.225,0.698-0.484,0.942c-0.263,0.242-0.593,0.36-1.003,0.36c-0.504,0-0.9-0.163-1.189-0.488
				c-0.288-0.329-0.434-0.778-0.434-1.354C569.93,585.607,570.095,585.133,570.425,584.797z"/>
		</g>
	</g>
	<g>
		<path fill="#FFFFFF" d="M578.517,586.944c0.022,0.173,0.073,0.303,0.145,0.389c0.132,0.154,0.354,0.233,0.671,0.233
			c0.192,0,0.349-0.021,0.466-0.062c0.226-0.078,0.339-0.226,0.339-0.438c0-0.125-0.058-0.223-0.166-0.291
			c-0.113-0.066-0.286-0.126-0.525-0.178l-0.412-0.088c-0.401-0.094-0.679-0.188-0.829-0.295c-0.253-0.172-0.382-0.447-0.382-0.819
			c0-0.339,0.126-0.618,0.376-0.845c0.249-0.226,0.617-0.336,1.102-0.336c0.401,0,0.748,0.104,1.032,0.314
			c0.285,0.213,0.437,0.521,0.451,0.922h-0.762c-0.014-0.226-0.117-0.386-0.305-0.484c-0.125-0.065-0.283-0.095-0.473-0.095
			c-0.209,0-0.375,0.04-0.499,0.121c-0.126,0.084-0.188,0.196-0.188,0.346c0,0.136,0.062,0.236,0.186,0.303
			c0.079,0.043,0.246,0.095,0.502,0.155l0.665,0.156c0.291,0.067,0.513,0.161,0.654,0.276c0.227,0.178,0.34,0.434,0.34,0.771
			c0,0.351-0.135,0.637-0.4,0.862c-0.27,0.229-0.646,0.344-1.135,0.344c-0.499,0-0.891-0.112-1.176-0.338
			c-0.287-0.223-0.432-0.535-0.432-0.93L578.517,586.944L578.517,586.944z"/>
		<path fill="#FFFFFF" d="M582.542,584.325h0.896l1.34,3.791h-0.858l-0.248-0.778h-1.397l-0.254,0.778h-0.827L582.542,584.325z
			 M582.486,586.681h0.972l-0.479-1.49L582.486,586.681z"/>
	</g>
	<g>
		<circle cx="542.95" cy="579.28" r="7.771"/>
		<circle fill="#FFFFFF" cx="542.95" cy="579.278" r="6.322"/>
		<g>
			<path d="M542.597,578.348l-1.188,0.215c-0.041-0.237-0.131-0.416-0.274-0.537c-0.142-0.119-0.325-0.178-0.55-0.178
				c-0.302,0-0.538,0.104-0.719,0.31c-0.18,0.204-0.27,0.555-0.27,1.037c0,0.54,0.092,0.921,0.272,1.146
				c0.182,0.223,0.425,0.332,0.73,0.332c0.227,0,0.416-0.065,0.561-0.195c0.146-0.131,0.25-0.354,0.311-0.671l1.183,0.201
				c-0.123,0.543-0.354,0.953-0.707,1.229c-0.348,0.275-0.815,0.416-1.4,0.416c-0.669,0-1.196-0.211-1.594-0.631
				c-0.395-0.42-0.591-1.004-0.591-1.746c0-0.749,0.196-1.336,0.593-1.754c0.398-0.42,0.937-0.627,1.614-0.627
				c0.555,0,0.995,0.119,1.322,0.356C542.219,577.497,542.453,577.86,542.597,578.348z"/>
			<path d="M547.477,578.348l-1.188,0.215c-0.039-0.237-0.131-0.416-0.273-0.537c-0.143-0.119-0.325-0.178-0.551-0.178
				c-0.301,0-0.538,0.104-0.719,0.31c-0.179,0.204-0.268,0.555-0.268,1.037c0,0.54,0.09,0.921,0.271,1.146
				c0.183,0.223,0.427,0.332,0.73,0.332c0.227,0,0.416-0.065,0.562-0.195c0.146-0.131,0.249-0.354,0.31-0.671l1.183,0.201
				c-0.123,0.543-0.355,0.953-0.708,1.229c-0.348,0.275-0.814,0.416-1.401,0.416c-0.668,0-1.195-0.211-1.591-0.631
				s-0.592-1.004-0.592-1.746c0-0.749,0.196-1.336,0.595-1.754c0.396-0.42,0.934-0.627,1.612-0.627c0.554,0,0.994,0.119,1.322,0.356
				C547.1,577.497,547.337,577.86,547.477,578.348z"/>
		</g>
	</g>
	<g>
		<path d="M569.93,571.719c-2.61,0-4.727,2.115-4.727,4.726c0,2.612,2.115,4.729,4.727,4.729s4.728-2.113,4.728-4.729
			C574.658,573.834,572.546,571.719,569.93,571.719z"/>
		<circle fill="#FFFFFF" cx="569.93" cy="576.447" r="3.846"/>
		
			<rect x="569.485" y="571.838" transform="matrix(-0.4233 0.906 -0.906 -0.4233 1333.3553 303.9469)" width="0.923" height="8.957"/>
		<g>
			<path d="M569.58,579.151v-0.637c-0.444-0.013-0.877-0.14-1.129-0.277l0.197-0.775c0.279,0.152,0.671,0.292,1.1,0.292
				c0.382,0,0.646-0.151,0.646-0.41c0-0.25-0.224-0.409-0.709-0.578c-0.712-0.237-1.196-0.567-1.196-1.214
				c0-0.591,0.411-1.046,1.123-1.18v-0.632h0.648v0.583c0.444,0.017,0.744,0.117,0.969,0.224l-0.199,0.748
				c-0.166-0.08-0.477-0.232-0.953-0.232c-0.434,0-0.571,0.193-0.571,0.381c0,0.212,0.231,0.356,0.797,0.563
				c0.797,0.277,1.108,0.644,1.108,1.247c0,0.592-0.412,1.09-1.182,1.222v0.683L569.58,579.151L569.58,579.151z"/>
		</g>
	</g>
	<g>
		<path d="M581.185,571.784c-2.571,0-4.66,2.086-4.66,4.659c0,2.575,2.089,4.665,4.66,4.665c2.576,0,4.665-2.09,4.665-4.665
			C585.853,573.87,583.761,571.784,581.185,571.784z"/>
		<path fill="#FFFFFF" d="M581.185,580.239c-2.092,0-3.789-1.698-3.789-3.794c0-2.091,1.695-3.79,3.789-3.79
			c2.096,0,3.793,1.695,3.793,3.79C584.979,578.538,583.281,580.239,581.185,580.239z"/>
		<path d="M581.185,573.885c-1.016,0-1.874,0.732-2.182,1.745h-0.294l0.933,1.016l0.932-1.016h-0.35
			c0.215-0.37,0.563-0.616,0.96-0.616c0.651,0,1.179,0.646,1.179,1.443c0,0.794-0.526,1.44-1.179,1.44
			c-0.433,0-0.809-0.289-1.015-0.722h-1.197c0.278,1.069,1.168,1.854,2.215,1.854c1.273,0,2.311-1.156,2.311-2.576
			C583.496,575.034,582.466,573.885,581.185,573.885z"/>
	</g>
</g>
<g>
	<path d="M11.392,586.197c-0.652,0-1.248-0.138-1.786-0.41c-0.539-0.271-1.003-0.631-1.39-1.07c-0.388-0.44-0.689-0.949-0.9-1.521
		C7.106,582.619,7,582.032,7,581.432c0-0.626,0.114-1.224,0.338-1.797c0.226-0.574,0.533-1.08,0.927-1.521
		c0.393-0.44,0.857-0.792,1.396-1.053c0.538-0.26,1.118-0.39,1.745-0.39c0.653,0,1.249,0.138,1.786,0.417
		c0.538,0.274,0.999,0.641,1.382,1.089c0.382,0.45,0.682,0.96,0.894,1.529c0.212,0.566,0.317,1.144,0.317,1.726
		c0,0.635-0.113,1.24-0.338,1.812c-0.225,0.573-0.533,1.078-0.926,1.516c-0.394,0.437-0.856,0.784-1.39,1.045
		C12.598,586.066,12.018,586.197,11.392,586.197z M7.675,581.432c0,0.539,0.091,1.057,0.271,1.555s0.437,0.939,0.769,1.325
		c0.329,0.382,0.723,0.69,1.177,0.919c0.456,0.23,0.956,0.345,1.503,0.345c0.563,0,1.071-0.117,1.526-0.355
		c0.454-0.239,0.846-0.556,1.17-0.946c0.328-0.392,0.578-0.834,0.755-1.328s0.265-0.997,0.265-1.51c0-0.538-0.092-1.057-0.276-1.555
		c-0.185-0.497-0.442-0.938-0.773-1.323c-0.33-0.385-0.723-0.691-1.179-0.92c-0.453-0.229-0.949-0.344-1.485-0.344
		c-0.564,0-1.076,0.117-1.536,0.354c-0.458,0.238-0.849,0.555-1.169,0.946c-0.323,0.394-0.571,0.836-0.749,1.33
		C7.762,580.422,7.675,580.923,7.675,581.432z"/>
	<path d="M23.14,578.299c-0.608-0.681-1.469-1.021-2.58-1.021c-0.918,0-1.587,0.175-2.006,0.523
		c-0.417,0.349-0.628,0.817-0.628,1.407c0,0.302,0.054,0.554,0.159,0.753c0.106,0.202,0.271,0.375,0.495,0.512
		c0.226,0.137,0.512,0.255,0.86,0.354c0.35,0.103,0.761,0.201,1.237,0.3c0.512,0.106,0.97,0.223,1.377,0.352
		c0.404,0.127,0.75,0.289,1.036,0.483c0.287,0.194,0.51,0.434,0.663,0.716c0.153,0.28,0.23,0.631,0.23,1.043
		c0,0.414-0.082,0.775-0.245,1.087c-0.163,0.31-0.393,0.564-0.688,0.773c-0.295,0.207-0.647,0.363-1.058,0.47
		c-0.41,0.105-0.866,0.159-1.371,0.159c-1.462,0-2.704-0.468-3.716-1.402l0.355-0.542c0.396,0.414,0.881,0.742,1.457,0.985
		c0.573,0.24,1.217,0.362,1.93,0.362c0.822,0,1.462-0.148,1.926-0.45c0.461-0.301,0.695-0.754,0.695-1.361
		c0-0.309-0.06-0.571-0.18-0.787c-0.117-0.218-0.301-0.405-0.549-0.563c-0.247-0.159-0.554-0.295-0.919-0.409
		c-0.364-0.115-0.796-0.224-1.29-0.329c-0.503-0.106-0.945-0.219-1.328-0.339c-0.384-0.117-0.708-0.269-0.972-0.449
		c-0.265-0.181-0.463-0.398-0.596-0.654s-0.199-0.577-0.199-0.965c0-0.424,0.083-0.799,0.246-1.125s0.391-0.603,0.682-0.826
		c0.291-0.226,0.64-0.395,1.045-0.512c0.406-0.114,0.854-0.17,1.351-0.17c0.607,0,1.15,0.09,1.627,0.27
		c0.476,0.182,0.909,0.459,1.296,0.828L23.14,578.299z"/>
	<path d="M25.734,586.131v-9.395h3.863c0.396,0,0.763,0.086,1.098,0.251c0.335,0.168,0.624,0.392,0.866,0.669
		s0.432,0.591,0.568,0.938c0.138,0.35,0.204,0.698,0.204,1.053c0,0.381-0.063,0.747-0.191,1.098
		c-0.128,0.354-0.31,0.666-0.542,0.939c-0.232,0.272-0.512,0.492-0.832,0.654c-0.323,0.164-0.683,0.245-1.078,0.245h-3.281v3.546
		L25.734,586.131L25.734,586.131z M26.408,581.963h3.241c0.309,0,0.586-0.064,0.833-0.191s0.456-0.3,0.629-0.516
		c0.17-0.218,0.303-0.462,0.396-0.741c0.092-0.276,0.139-0.564,0.139-0.866c0-0.309-0.056-0.602-0.165-0.879
		c-0.11-0.279-0.26-0.523-0.45-0.734c-0.189-0.213-0.41-0.381-0.661-0.504s-0.519-0.186-0.801-0.186h-3.162L26.408,581.963
		L26.408,581.963z"/>
	<path d="M33.963,586.131v-9.395h3.917c0.397,0,0.764,0.086,1.098,0.251c0.335,0.168,0.622,0.392,0.859,0.669
		c0.238,0.277,0.426,0.591,0.564,0.938c0.137,0.35,0.204,0.698,0.204,1.053c0,0.344-0.054,0.676-0.159,0.998
		c-0.105,0.324-0.254,0.611-0.45,0.867c-0.194,0.256-0.427,0.467-0.699,0.635c-0.274,0.17-0.573,0.277-0.9,0.331l2.341,3.651h-0.78
		l-2.275-3.547h-3.043v3.547L33.963,586.131L33.963,586.131z M34.636,581.963h3.295c0.299,0,0.57-0.064,0.819-0.195
		c0.247-0.133,0.458-0.307,0.636-0.523c0.176-0.217,0.311-0.463,0.402-0.74c0.093-0.278,0.142-0.563,0.142-0.854
		c0-0.301-0.056-0.59-0.167-0.867c-0.11-0.274-0.261-0.521-0.45-0.733s-0.409-0.381-0.661-0.511
		c-0.252-0.127-0.523-0.192-0.814-0.192h-3.201V581.963z"/>
	<path d="M48.899,585.521v0.608h-6.258v-9.395h6.139v0.61h-5.464v3.688h4.775v0.582h-4.775v3.903h5.583V585.521z"/>
	<path d="M50.421,576.736l3.281,5.199l3.308-5.199h0.743l-3.706,5.849v3.546h-0.673v-3.572l-3.69-5.821L50.421,576.736
		L50.421,576.736z"/>
	<path d="M59.126,586.131v-9.395h3.122c0.741,0,1.392,0.124,1.951,0.371c0.562,0.249,1.025,0.583,1.396,1.007
		s0.647,0.92,0.833,1.488c0.185,0.565,0.277,1.174,0.277,1.819c0,0.714-0.104,1.359-0.311,1.938
		c-0.207,0.577-0.505,1.069-0.894,1.48c-0.388,0.41-0.857,0.729-1.41,0.952c-0.552,0.225-1.167,0.339-1.845,0.339H59.126
		L59.126,586.131z M66.031,581.421c0-0.592-0.083-1.137-0.251-1.635c-0.167-0.498-0.411-0.93-0.733-1.292
		c-0.323-0.358-0.719-0.644-1.186-0.847c-0.466-0.203-1.005-0.303-1.614-0.303H59.8v8.177h2.447c0.617,0,1.162-0.104,1.633-0.312
		c0.473-0.207,0.866-0.496,1.185-0.866c0.316-0.37,0.559-0.805,0.722-1.303C65.95,582.543,66.031,582.003,66.031,581.421z"/>
	<path d="M67.288,586.131l3.996-9.395h0.555l3.998,9.395h-0.728l-1.311-3.097h-4.484l-1.311,3.097H67.288z M71.562,577.557
		l-2.09,4.922h4.141L71.562,577.557z"/>
	<path d="M80.148,576.802h0.661l1.401,3.413l1.404-3.413h0.662l-1.654,3.956l1.972,4.577l3.598-8.601h0.743l-4.023,9.395h-0.62
		l-2.063-4.829l-2.077,4.829h-0.622l-4.008-9.395h0.727l3.612,8.601l1.945-4.577L80.148,576.802z"/>
	<path d="M91.05,578.008v8.123h-0.675v-9.394h0.518l6.588,8.27v-8.255h0.675v9.379h-0.622L91.05,578.008z"/>
	<path d="M100.297,586.131v-1.125h0.583v1.125H100.297z"/>
	<path d="M102.401,581.368c0-0.563,0.098-1.127,0.298-1.688c0.197-0.561,0.485-1.062,0.866-1.502
		c0.379-0.439,0.844-0.801,1.395-1.078c0.552-0.275,1.181-0.416,1.887-0.416c0.838,0,1.552,0.192,2.144,0.576
		c0.591,0.383,1.027,0.877,1.308,1.475l-0.556,0.318c-0.159-0.328-0.351-0.601-0.576-0.822c-0.224-0.22-0.466-0.398-0.726-0.535
		c-0.261-0.137-0.534-0.236-0.814-0.299c-0.281-0.062-0.562-0.092-0.833-0.092c-0.6,0-1.129,0.121-1.589,0.362
		c-0.458,0.243-0.847,0.56-1.164,0.946c-0.316,0.387-0.557,0.826-0.722,1.315c-0.164,0.489-0.245,0.982-0.245,1.477
		c0,0.556,0.097,1.086,0.291,1.588c0.195,0.503,0.459,0.945,0.795,1.328c0.333,0.383,0.73,0.691,1.19,0.919
		c0.458,0.229,0.951,0.345,1.48,0.345c0.282,0,0.571-0.036,0.866-0.104c0.297-0.069,0.584-0.18,0.86-0.33
		c0.277-0.15,0.536-0.342,0.774-0.576c0.238-0.231,0.436-0.51,0.594-0.826l0.569,0.277c-0.159,0.353-0.372,0.666-0.643,0.939
		c-0.271,0.272-0.57,0.502-0.906,0.688s-0.69,0.324-1.065,0.417c-0.375,0.091-0.742,0.139-1.104,0.139
		c-0.644,0-1.233-0.141-1.767-0.423c-0.533-0.283-0.994-0.649-1.383-1.104c-0.386-0.455-0.689-0.971-0.904-1.548
		C102.509,582.555,102.401,581.969,102.401,581.368z"/>
	<path d="M115.882,586.197c-0.652,0-1.247-0.138-1.785-0.41c-0.538-0.271-1.001-0.631-1.39-1.07
		c-0.388-0.44-0.688-0.949-0.898-1.521c-0.212-0.572-0.317-1.16-0.317-1.76c0-0.627,0.112-1.225,0.337-1.798
		c0.224-0.573,0.534-1.081,0.926-1.521c0.394-0.44,0.857-0.792,1.396-1.052c0.539-0.261,1.121-0.391,1.747-0.391
		c0.65,0,1.246,0.139,1.786,0.416c0.538,0.276,0.999,0.643,1.381,1.09c0.384,0.45,0.682,0.959,0.893,1.53
		c0.212,0.566,0.317,1.143,0.317,1.725c0,0.636-0.112,1.24-0.336,1.812c-0.226,0.572-0.535,1.078-0.929,1.515
		c-0.393,0.438-0.854,0.785-1.389,1.045C117.087,586.066,116.509,586.197,115.882,586.197z M112.164,581.432
		c0,0.539,0.09,1.057,0.271,1.555c0.181,0.498,0.435,0.939,0.767,1.325c0.331,0.382,0.724,0.69,1.178,0.919
		c0.454,0.23,0.954,0.345,1.501,0.345c0.564,0,1.073-0.117,1.527-0.355c0.456-0.239,0.845-0.556,1.171-0.946
		c0.326-0.392,0.578-0.834,0.754-1.328c0.175-0.494,0.266-0.997,0.266-1.51c0-0.538-0.094-1.057-0.278-1.555
		c-0.186-0.497-0.443-0.938-0.774-1.323s-0.724-0.691-1.178-0.92c-0.456-0.229-0.95-0.344-1.488-0.344
		c-0.563,0-1.075,0.117-1.534,0.354c-0.459,0.238-0.852,0.555-1.172,0.946c-0.321,0.394-0.57,0.836-0.748,1.33
		C112.252,580.422,112.164,580.923,112.164,581.432z"/>
	<path d="M130.659,586.131v-8.123l-3.704,6.338h-0.423l-3.705-6.338v8.123h-0.675v-9.394h0.675l3.916,6.722l3.916-6.722h0.675v9.394
		H130.659L130.659,586.131z"/>
</g>
<g>
	<path fill="#C31A2E" d="M433.207,495.254c-3.138,0-5.394-0.896-6.429-1.41c-0.004-0.616,0.332-1.54,0.762-2.209
		c1.771-2.131,4.995-6.438,6.428-9.731l0.943-2.177l0.109-2.372c0.161-3.493-0.918-7.47-1.136-8.231l-0.147-0.516l-0.188-0.502
		c-0.82-2.168-5.461-13.359-16.288-20.738c-11.537-7.869-15.218-10.052-22.104-11.75c-1.958-0.479-4.182-1.575-6.446-3.171
		l-9.282-6.543l-7.675,8.376c-4.036,4.408-9.723,10.946-11.59,13.095l-0.55,0.626c-0.958,1.102-1.805,2.07-2.495,2.853
		c-2.562,2.911-5.657,3.978-7.807,4.363l-1.546,0.276l-1.437,0.643c-0.131,0.059-0.521,0.192-1.336,0.192
		c-0.418,0-0.904-0.039-1.441-0.112l-7.46-1.059c0,0-4.843,6.295-4.965,6.457l-0.992,1.327l-0.629,1.535
		c-0.858,2.104-4.428,9.062-14.225,10.211c-1.803,0.21-3.533,0.316-5.128,0.316c-4.349,0-7.112-0.767-8.729-1.465
		c2.729-3.271,5.929-8.815,6.925-10.587l1.022-1.817l0.398-2.05c0.2-0.914,0.782-2.761,2.435-6.473
		c1.12-2.521,63.87-30.712,67.033-33.521l-69.104-87.481l-24.777,34.33c-0.907,0.069,22.098,56.188,21.335,56.342
		c-0.824,0.153-1.521,0.315-2.127,0.496l-0.76,0.225l-0.727,0.314c-0.356,0.155-0.703,0.322-1.05,0.502
		c-1.445,0.714-3.519,1.699-11.177,3.729c-3.128,0.833-6.057,1.252-8.714,1.252c-5.597,0-8.247-1.836-8.705-2.188
		c-1.309-1.438-1.663-2.566-1.72-2.977c0.521-0.413,2.86-2.066,10.578-5.438l17.165-7.496l-13.112-13.373
		c-5.047-5.146-13.499-11.586-19.639-15.687l-0.473-0.315l-0.498-0.271c-1.17-0.643-11.618-6.312-18.195-8.137
		c-5.809-1.607-9.712-3.281-10.654-3.702c-0.897-0.623-6.87-5.093-4.24-11.95c0.245-0.639,49.832-35.967,52.708-39.333h-47.378
		c-2.121,1.399-21.807,16.35-22.644,16.659c-2.833,1.043-8.065,1.264-11.957,1.264c-3.896,0-7.105-0.223-7.46-0.248l-0.167-0.013
		c-1.775-0.164-6.312-0.482-10.974-0.482c-2.623,0-5.026,0.1-7.143,0.289c-0.307,0.027-0.641,0.064-0.979,0.104l-15.95,1.821
		l5.104,15.198c0.944,2.762,1.966,5.551,3.03,8.289l1.96,5.036l4.966,2.138c2.527,1.09,4.688,2.957,6.057,4.334l3.995,4.021
		l5.663-0.22c1.599-0.062,3.107-0.218,4.096-0.337l0.868-0.104l0.845-0.221c0.111-0.028,0.417-0.099,0.854-0.099
		c3.977,0,6.837,5.152,8.188,8.226c3.154,7.178,3.26,12.552,2.915,15.522c-5.57-2.855-12.532-4.649-17.738-5.691l-5.433-1.087
		l-4.531,3.188c-1.556,1.095-3.267,1.649-5.085,1.649c-2.252,0-4.707-0.836-7.296-2.485c-0.524-0.334-1.008-0.656-1.476-0.978
		l-38.021-53.976c3.573,4.854,1.86,57.753,1.956,59.858c-4.981,5.506,10.534,33.546,6.812,34.615
		c-0.958-9.829-7.831-16.602-12.108-19.221c-0.636-0.461-5.295-4.009-6.884-9.899c-1.097-4.072-1.074-14.271,0.055-25.394
		c0.21-1.548,1.668-13.307-1.599-20.256l-0.83-1.765l-1.314-1.441c-1.517-1.663-1.759-4.033-0.722-7.044
		c0.782-2.263,2.039-4.103,2.283-4.448l0.168-0.236l0.157-0.246c0.76-1.188,7.653-11.757,15.747-17.318
		c1.171-0.803,39.953-15.105,41.608-15.874l-0.84-21.045c-0.075-0.003-43.254,9.807-47.902,5.384
		c-1.634-1.554-3.071-3.108-3.99-4.14l-1.048-1.175l-1.297-0.888c-2.077-1.422-7.414-4.944-12.091-6.947
		c-2.45-1.051-5.848-4.104-9.081-8.172l-2.453-3.084l-3.758-1.188c-2.679-0.849-5.735-3.862-8.384-8.272l-2.731-4.547l-5.14-1.312
		c-9.542-2.438-11.404-9.716-11.585-10.536l-0.067-0.306l-0.082-0.3c-1.244-4.588-2.081-9.183-2.081-11.433
		c0-2.502-0.457-5.421-0.841-7.429l-0.462-2.417l-1.317-2.078c-0.879-1.384-1.116-5.194,1.097-11.394
		c1.862-5.221,5.794-12.6,11.074-20.783l7.567-11.729l-6.683-3.605c1.667-0.275,3.337-0.417,4.996-0.417
		c1.884,0,3.724,0.179,5.468,0.526l5.33,1.069l4.489-3.066c9.346-6.384,18.518-10.392,20.232-11.119l3.497,0.477l3.35-1.411
		c1.349-0.581,2.801-1.17,4.188-1.718l4.96-1.957l2.134-4.888c0.397-0.91,0.924-1.812,1.284-2.415
		c3.332-5.524,7.646-9.582,9.27-10.049l0.897-0.196l0.829-0.312c4.874-1.815,16.407-8.967,16.896-9.271l0.885-0.549l0.785-0.685
		c8.228-7.171,11.583-8.146,11.614-8.154l0.947-0.157l0.821-0.274c4.383-1.421,13.329-6.479,14.295-7.026
		c1.491-0.647,20.214-8.525,48.453-8.525c7.438,0,15,0.546,22.473,1.617c32.252,4.627,50.522,14.03,57.188,18.083l-7.811,4.261
		l16.479,12.006c4.438,3.232,8.164,6.751,11.069,10.455c6.678,8.504,8.762,19.167,9.407,24.767l0.571,4.936l3.73,3.278
		c9.613,8.447,14.438,20.681,16.064,25.548l1.216,3.639l3.004,2.383c4.813,3.816,17.58,14.527,32.14,31.487
		c13.43,15.645,21.065,29.237,24.425,35.948l2.406,4.812l5.105,1.679c10.709,3.521,19.573,8.619,19.663,8.67
		c0.167,0.099,12.627,7.423,22.949,19.771c3.986,4.766,8.127,7.893,12.308,9.298l5.943,1.997l5.244-3.437
		c3.05-1.996,5.904-2.299,6.706-2.343l0.312-0.017l0.312-0.032c0.052-0.006,0.331-0.033,0.783-0.033
		c1.512,0,4.475,0.326,7.348,2.507l1.755,1.331l2.098,0.677c2.178,0.698,4.911,1.056,8.13,1.056c1.041,0,2.107-0.04,3.12-0.104
		c-1.106,1.729-2.97,3.635-5.383,5.456c-4.489,3.396-8.807,5.029-11.35,5.432c-0.587,0.092-1.179,0.138-1.779,0.138
		c-3.075,0-5.58-1.218-7.14-2.239l-2.819-1.849l-3.364-0.233c-3.193-0.221-9.419-1.085-15.2-4.385l-41.056-38.396l21.825,51.042
		c0.163,1.466,0.245,2.48,0.272,2.827c0.131,1.838,1.517,18.906,7.635,25.84l0.171,0.19c3.545,3.86,6.304,7.619,7.633,9.517
		l2.187,3.117l3.524,1.437c4.464,1.813,8.477,6.813,11.295,14.08c3.729,9.61,6.817,15.72,8.75,19.147l1.851,3.279l3.319,1.771
		c4.785,2.555,9.361,6.312,10.636,8.217c0.448,0.678,0.608,1.232,0.468,1.644l-1.045,3.011l0.477,3.152
		c1.163,7.69,4.738,15.26,6.769,19.086l1.419,2.679l2.463,1.769c0.746,0.536,1.519,1.63,1.954,2.759
		c0.124,0.588,1.554,7.814-1.131,16.238c-1.809,5.664-5.684,10.041-8.217,12.44c-1.32-3.564-3.334-7.39-4.983-10.271l-1.353-2.358
		l-2.112-1.562l-0.062-0.097c-0.669-1.023-2.493-3.688-7.195-10.026c-4.485-6.063-5.78-13.339-6.13-16.186l-0.295-2.406
		l-1.146-2.137c-1.582-2.943-5.045-8.977-10.465-16.293c-7.072-9.561-14.198-17.535-15.526-19.007l-0.067-0.075
		c-0.438-0.49-9.351-10.398-15.81-13.611l-2.016-1.002l-2.234-0.263c-3.494-0.407-5.807-2.084-6.874-3.046l-1.165-1.05l-1.38-0.741
		c-4.822-2.586-14.083-7.515-21.937-11.476l-21.858-11.026l3.25,24.268c0.274,2.064,0.272,3.127,0.259,3.513l-7.877,8.59
		l11.896,6.014c3.909,3.13,7.777,7.305,11.497,12.408c7.607,10.438,15.122,17.992,20.086,22.491l3.69,3.344h5.248
		c0.146,0,0.243,0.014,0.245,0.014c3.964,0.585,6.831,1.733,7.814,2.555c2.479,2.064,4.779,5.445,4.369,7.898
		c-0.328,1.978-1.329,2.958-5.131,5.826c-0.792,0.595-1.684,1.271-2.667,2.045c-5.332,4.173-7.789,12.828-8.354,15.085
		c-0.643,1.146-3.893,6.403-10.471,8.215C436.449,495.022,434.803,495.254,433.207,495.254z"/>
	<polygon fill="#C31A2E" points="288.182,312.365 280.923,297.654 258.932,294.438 240.584,268.482 189.307,268.482 165.016,282.5 
		148.026,257.573 151.256,228.206 168.362,216.459 197.224,226.388 228.915,223.555 242.676,211.048 255,216.459 256.847,211.048 
		256.638,206.983 268.345,205.203 268.679,201.826 271.494,201.826 277.502,210.58 277.502,212.769 273.214,220.117 
		282.892,224.181 287.286,214.489 304.017,201.826 331.684,198.944 346.387,213.238 353.575,253.944 376.094,298.247 
		390.166,331.441 392.98,360.597 399.856,408.679 409.969,412.536 417.995,419.727 426.337,430.253 439.155,444.639 
		450.512,455.585 445.201,465.068 433.944,470.699 426.849,455.687 414.761,447.141 404.447,440.677 386.308,431.296 
		383.281,428.174 370.565,429.014 358.372,417.641 350.448,402.426 339.193,383.661 322.099,365.94 293.541,368.025 
		291.034,372.195 295.835,376.783 303.128,388.038 313.461,403.051 313.461,408.468 299.27,413.635 290.863,413.635 
		290.891,406.978 287.489,399.506 267.272,380.74 241.633,371.989 232.407,364.065 232.407,356.353 258.308,330.712 	"/>
	<polygon fill="#FFFFFF" points="72.326,175.659 83.234,186.674 86.695,196.847 85.54,209.221 87.741,214.469 95.088,218.871 
		103.683,216.459 107.462,209.853 107.462,190.553 97.501,178.177 84.91,173.143 70.544,173.143 	"/>
	<path fill="#FFFFFF" d="M254.785,205.203h13.562l0.563-4.407l9.612,8.637l-4.996,11.697l10.552,4.454
		c0,0,0.479-21.628,21.029-22.039c11.362-0.229-0.402-22.677,1.838-15.719l-2.939-12.341l-26.503-4.473l-16.844,4.893l-8.951,13.706
		v14.963L254.785,205.203z"/>
	<g opacity="0.28">
		<path fill="#FFFFFF" d="M90.54,238.184c0,0,0.5,9.433-1.117,14.125c0,0,3.96,4.194,8.95,4.754
			c4.994,0.559,0.421,3.354,2.656,5.731l-9.372-1.398l-8.664-7.271l-1.124-3.636l1.261-16.361L90.54,238.184z"/>
		<path fill="#FFFFFF" d="M95.818,220.655c0,0,2.31,2.099,3.461,9.229c1.155,7.133,0,11.225,0,11.225s-1.389,3.461,0.515,5.979
			c1.9,2.519,3.264,2.413,3.264,2.413s-8.777,0.53-9.525-5.451l-0.965-12.273l-3.776-15.208L95.818,220.655z"/>
		<path fill="#FFFFFF" d="M112.706,250.861c0,0,4.304,1.992,10.068,0.524c5.764-1.472,3.249-5.244,3.249-5.244
			s-1.991-3.46-3.985-5.35c-1.988-1.89-0.729-2.728-0.729-2.728s-2.012,0.626-1.794,3.773L112.706,250.861z"/>
		<path fill="#FFFFFF" d="M125.077,271.907c0,0-0.521-3.636-3.561-6.153c-3.04-2.517-5.771-3.671-5.771-3.671
			s-1.884-0.944-1.675-2.518c0.209-1.575,1.364-1.993,1.364-1.993s-0.946,1.993,0.418,2.729c1.358,0.731,12.021,2.932,13.089,8.336
			l-0.715,1.1L125.077,271.907z"/>
		<path fill="#FFFFFF" d="M127.867,282.5c0,0-1.005-1.854-2.369-3.528c-1.358-1.681,0-5.248,0-5.248s1.432-2.867,3.443-0.628
			c2.016,2.236-0.774,4.682-0.774,4.682l1.504,1.716L127.867,282.5z"/>
		<path fill="#FFFFFF" d="M69.062,229.563c0,0-1.086,10.498,5.542,16.476l-4.588,1.673l-4.825-4.191l-3.145-11.748l1.26-6.501
			l-1.26-12.586l9.123-18.564l7.447-8.915l2.833,1.89v1.102c0,0-5.246,4.352-8.913,15.68c-3.677,11.326-1.258,17.515-1.258,17.515
			s0.729,3.985,4.819,7.864C76.1,229.254,72.707,230.606,69.062,229.563z"/>
		<path fill="#FFFFFF" d="M113.342,205.788c0,0,4.207-3.801,6.292-7.473c2.093-3.67,3.142-7.549,3.142-7.549
			s0.313-5.665,1.782-9.021c1.467-3.354,4.928-5.94,4.928-8.634l-8.071,4.229l-4.722,7.866L115.642,198L113.342,205.788z"/>
		<path fill="#FFFFFF" d="M161.486,133.238c0,0-7.354,7.079-10.812,9.702c-3.468,2.622-3.775,5.034-1.159,6.604
			c2.628,1.575,11.051,3.497,5.839,10.979l-8.667-1.644l-5.662-3.463v-7.232l3.04-5.875l4.928-3.879l4.507-0.942L161.486,133.238z"
			/>
		<path fill="#FFFFFF" d="M204.022,117.313c0,0-3.935,3.299-2.734,7.172c1.193,3.875-6.564,3.455-6.564,3.455v-5.309l4.646-4.341
			L204.022,117.313z"/>
		<path fill="#FFFFFF" d="M185.281,197.006c0,0-2.203-11.063,4.51-25.75c6.713-14.684,24.889-22.402,24.889-22.402l-3.487-2.453
			l-14.058,6.607l-15.312,12.373l-7.659,14.428l-2.513,11.167l1.885,7.969L185.281,197.006z"/>
		<path fill="#FFFFFF" d="M157.279,324.593c0,0,24.962-5.034,33.875-16.887s16.048-19.193,26.746-22.759
			c10.696-3.564,24.656,2.111,25.96,8.503l0.996-5.566l-9.441-12.48l-20.867-3.494l-18.254,8.634l-11.014,11.013l-5.034,10.606
			l-5.243,8.901l-9.753,7.446L157.279,324.593z"/>
		<path fill="#FFFFFF" d="M140.423,344.711c0,0-0.343,3.794,7.625,7.569c7.976,3.776,13.428,19.821,13.428,19.821
			s3.252-1.155,5.137,2.833c1.891,3.985,3.04,5.244,3.04,5.244s3.046,3.669,0,6.291c-3.04,2.622-5.034,0-5.034,0l-5.028-11.117
			l-17.936-22.863L140.423,344.711z"/>
		<path fill="#FFFFFF" d="M399.029,312.109c0,0,8.317,5.177,12.515,16.083c4.195,10.908,5.034,17.76,5.034,17.76
			s0.699,7.41,6.157,12.167c5.446,4.753,11.604,15.524,11.604,15.524s8.248,8.389,12.724,10.905
			c4.476,2.518,5.453,5.037,5.453,5.037s3.916,4.188,9.229,3.213c5.312-0.979,22.933,16.642,27.27,24.052
			c4.336,7.412,9.021,18.807,9.021,18.807l-10.56-11.255l-22.519-22.654l-22.37-12.16l-47.268-30.068l-8.531-48.247l18.462-25.731
			l22.095,11.19L399.029,312.109z"/>
		<path fill="#FFFFFF" d="M168.293,268.482c0,0-0.069-3.495,2.026-5.178c2.1-1.678,4.476-3.494,4.476-3.494s2.94-2.378,5.312-3.216
			c2.375-0.84-1.948-5.17-6.495-0.559c-4.55,4.611-9.584,8.703-9.584,8.703L168.293,268.482z"/>
		<path fill="#FFFFFF" d="M155.494,238.065c0,0,5.034,7.622,12.868,6.222l-10.069-6.222l-2.799-3.426V238.065z"/>
		<path fill="#FFFFFF" d="M174.164,240.443c0,0-13.636,1.047-15.729-10.139h3.052l3.798,5.87L174.164,240.443z"/>
		<path fill="#FFFFFF" d="M175.702,237.643c0,0-6.625,0.133-10.687-7.729l1.281-2.546l4.063,5.14L175.702,237.643z"/>
		<path fill="#FFFFFF" d="M172.404,228.206c0,0,1.616,7.654,7.806,8.651l-3.899-5.156l-2.771-5.312L172.404,228.206z"/>
		<path fill="#FFFFFF" d="M186.803,241.531c0,0,9.604,9.234,41.1-0.437l2.687-8.587l-27.545,7.958L186.803,241.531z"/>
		<path fill="#FFFFFF" d="M257.466,219.239c0,0-1.005-1.416-2.959,0c-1.963,1.416-6.995,8.967-6.995,8.967s-2.096,3.076-4.194,5.733
			c-2.1,2.658-2.518,5.312-1.121,7.413c1.396,2.098,1.963,4.755,7.974,10.348c6.016,5.593,8.523,9.088,12.511,14.405
			c3.99,5.312,5.947,12.023,5.947,12.023s7.708,5.819,8.124,8.572l-5.322,3.315l-7.558-3.077l-14.538-23.773l-10.626-13.005
			l-5.462-14.123l2.522-7.553l14.823-11.886h7.271l1.261,2.936L257.466,219.239z"/>
		<path fill="#FFFFFF" d="M284.509,251.002c0,0,1.042-1.68,4.256-3.078c3.218-1.396,6.358,0.422,10.104-3.774l-0.923-5.141
			l-11.417-2.689l-7.549,7.344l-1.478,6.64L284.509,251.002z"/>
		<path fill="#FFFFFF" d="M300.438,241.464c0,0,2.927-2.276-2.494-12.139c-5.427-9.861,4.803-19.717,14.035-21.675
			c9.229-1.958,21.116-1.399,26.428,4.616l-4.616-8.393l-16.369-3.079l-20.595,6.994l-6.382,13.34v10.434l6.382,6.434
			L300.438,241.464z"/>
		<path fill="#FFFFFF" d="M296.237,277.76c0,0,4.834,16.591,16.999,24.979c0,0,12.304-11.329,13.146-32.025
			c0,0,2.518,7.691,0.561,14.823c-1.96,7.133-5.035,11.005-3.776,16.621c1.257,5.617,3.218,5.617,3.218,5.617
			s6.292-0.187,10.345-5.617c0,0,1.264,6.454-7.271,9.811c0,0,1.533,3.496,7.342,5.456c5.81,1.959,7.24,5.461,7.24,5.461
			l-9.688,1.705l-27.545-4.229l-23.913-30.346L296.237,277.76z"/>
		<path fill="#FFFFFF" d="M327.228,326.907c0,0-12.103,0.938-11.579,12.368c0.521,11.431,5.141,26.396,5.141,26.396l16.644,15.802
			l11.185,17.343l7.55,15.942l13.845,10.48l11.61,3.224l10.623-1.124l2.487-7.621c0,0-3.188-1.046-6.258,0.492
			c-3.08,1.534-6.434,0.84-9.231-1.116c-2.793-1.96-13.566-8.812-18.741-20.277c-5.176-11.47-3.493-21.132-3.493-21.132
			s1.957,0.854,2.656,2.112c0,0-2.938-5.873-6.851-10.351c-3.916-4.475-2.517-15.521-2.517-15.521s8.81,1.398,12.584-0.979
			c0,0-15.587,0.696-18.845-8.952c-3.249-9.646,1.925-20.693,1.925-20.693S334.503,322.962,327.228,326.907z"/>
		<path fill="#FFFFFF" d="M306.208,325.01c-16.357,1.261-29.458,14.93-29.458,14.93s-6.164,9.93-13.298,17.204
			c-7.131,7.269-18.595,7.269-18.595,7.269c-0.839,4.616,6.149,6.991,6.149,6.991l-4.476,1.816l-11.048-4.75l-3.078-7.866
			l1.542-6.26l13.002-13.005l16.36-12.446l29.604-7.613l14.851,2.015L306.208,325.01z"/>
		<path fill="#FFFFFF" d="M272.543,378.392c0,0,9.93,5.175,17.764,12.728c7.829,7.556,8.667,21.681,8.667,21.681l-8.109,0.836
			l0.419-5.174l-1.679-6.432l-17.062-15.939l-6.149-4.478L272.543,378.392z"/>
		<path fill="#FFFFFF" d="M395.322,429.014c0,0,17.058,4.336,27.551,13.708c10.483,9.369,18.739,25.31,18.739,25.31l-8.256,1.544
			l-5.027-10.21l-13.845-13.285l-14.688-8.255l-10.346-4.332L395.322,429.014z"/>
	</g>
	<g>
		<path fill="#003192" d="M104.66,249.67c0,0,2.59-0.977,2.94-6.082c0,0,1.115,0.979,1.329,1.4c0,0,0.837-2.029-0.49-6.434
			c-1.326-4.407,0.752-7.482,0.752-7.482s0.643-1.609,2.884-2.867c0,0-1.395,1.749-1.676,5.035
			c-0.278,3.286,0.281,4.896,0.281,4.896s1.885-2.867,4.327-3.285c0,0-0.418,1.885,0,2.514c0.426,0.632,1.755,3.499,0.635,6.922
			c0,0,3.072-1.186,3.98-4.823c0,0,0.425,3.076-1.676,6.645c-2.097,3.562-5.243,4.755-5.243,4.755s-2.182-0.228-3.775-2.799
			C108.929,248.062,107.181,250.369,104.66,249.67z"/>
		<path fill="#003192" d="M538.311,465.655c0,0-1.473-4.088-4.304-4.615c0,0-8.286-13.316-8.601-25.276c0,0,2.204-1.674,0.104-4.821
			c-2.097-3.146-9.859-8.602-13.847-10.071c0,0-4.301-5.974-10.487-21.919c-6.185-15.938-15.205-16.044-15.205-16.044
			s-3.88-6.295-9.859-12.796c-5.979-6.505-7.235-24.751-7.235-24.751s-1.048-14.056-4.718-22.444
			c-3.678-8.394-11.325-15.941-11.325-15.941s9.33,2.098,13.212,6.294c3.886,4.191,3.146,5.558,13.217,14.894
			c10.067,9.332,24.438,8.602,24.438,8.602s5.244,5.241,12.587,4.087c7.343-1.152,18.981-9.229,19.72-15.627
			c0,0-11.959,1.889-16.892-1.99c-4.929-3.883-10.171-3.042-10.171-3.042s-5.035,0-9.754,3.985c0,0-8.184,4.092-18.879-8.707
			c-10.699-12.793-23.495-20.239-23.495-20.239s-11.638-6.715-24.437-10.174c0,0-7.552-18.249-26.643-40.484
			c-19.088-22.233-35.03-33.771-35.03-33.771s-5.143-20.87-20.866-32.092c0,0-0.213-17.412-10.178-30.102
			c-9.962-12.691-25.271-18.773-25.271-18.773s2.303-3.253,8.072-6.397c0,0-18.042-14.265-61.146-20.452
			c-43.106-6.188-72.262,7.131-72.262,7.131s-11.745,6.711-15.312,7.237c-3.565,0.522-13.426,9.229-13.426,9.229
			s-14.895,9.335-18.667,9.963c-3.777,0.629-14.054,13.636-12.796,17.411c0,0-10.381,3.879-13.112,5.454
			c0,0-1.675-1.362-3.039-0.838c-1.359,0.524-13.848,5.977-24.756,14.263c0,0-8.913-4.09-21.076,0.104c0,0,4.088,2.482,7.656,8.427
			c0,0-11.47,15.942-15.667,27.686c-4.192,11.749,0,14.268,0,14.268s1.838,1.418,1.404,5.592
			c-1.052,10.104,2.232,16.501,2.232,16.501s2.241,11.747,17.615,13.146c0,0,6.161,14.263,14.55,13.701
			c0,0,6.435,9.513,12.308,12.028c5.869,2.518,12.859,7.551,12.859,7.551s8.951,10.584,13.148,10.325
			c4.193-0.259,16.777-2.771,22.371-9.487c0,0,10.627,1.958,10.354,11.188c-0.284,9.229-7.273,12.586-7.273,12.586
			s-17.345,2.518-26.291,8.671c-8.951,6.15-16.5,18.182-16.5,18.182s-6.714,8.944-1.401,14.542
			c5.315,5.593,3.077,21.541,3.077,21.541s-1.954,19.016,0,26.282c1.957,7.272,7.83,11.188,7.83,11.188s11.47,6.994,11.186,20.142
			c0,0,12.59-2.237,20.145-11.188c0,0,0.278-13.424-9.791-19.857c0,0-0.845-4.752-0.278-5.873c0.559-1.121-0.774-2.271-0.774-2.271
			s-4.189-2.417-6.71-3.149c0,0,3.358-14.681,0.418-32.302c0,0,2.521-0.104,2.831,0.313c0,0,1.785,3.045,3.879,4.406
			c2.103,1.36,8.081,9.019,8.713,11.117c0.627,2.098-0.609,9.562,13.211,18.353c11.542,7.341,17.515-1.89,17.515-1.89
			s16.151,1.994,25.277,7.868c0,0,2.937-7.655-2.41-19.824c-5.352-12.166-12.062-9.227-12.062-9.227s-8.492,1.256-10.805-0.315
			c0,0-5.661-7.555-12.581-8.182c0,0-4.934-11.438-8.183-23.493c0,0,5.032-3.146,13.106-3.882
			c8.077-0.732,17.938,0.213,17.938,0.213s14.373,1.047,20.346-1.156c5.979-2.202,13.639-9.856,13.639-9.856
			s11.323,5.979,25.798,4.821c0,0-21.5,15.84-24.961,24.858s5.244,14.683,5.244,14.683s4.301,1.994,11.117,3.886
			c6.819,1.884,18.146,8.179,18.146,8.179s18.878,12.48,23.702,20.658c4.825,8.184-5.141,11.33-5.141,11.33
			s-12.165,5.14-13.738,7.13c-1.575,1.995,1.991,5.871,1.991,5.871s5.665,5.141,19.509,1.473
			c13.843-3.677,10.279-4.193,15.732-5.246c5.452-1.046,12.271,0.524,12.271,0.524s7.97,1.362,9.859-5.452
			c1.885-6.816-4.304-12.796-4.304-12.796s-2.727-2.729-8.077-3.671c0,0-8.18-7.554-13.108-16.68
			c-4.928-9.123-9.543-13.523-9.543-13.523s0.104-1.992,9.862-2.521c9.75-0.523,18.037,0,18.037,0s12.479,9.229,18.354,18.145
			c5.873,8.92,11.222,20.873,11.222,20.873s2.622,7.235,7.026,10.066l-11.324,8.391c0,0-7.767,5.141-12.271,6.087
			c-4.517,0.939-11.226,3.985-11.226,3.985s-10.386,6.289-13.738,13.843c-3.357,7.55-2.622,8.073-2.622,8.073
			s-6.08,11.435-9.65,14.161c0,0,4.199,4.508,17.624,2.938c13.421-1.574,16.464-12.899,16.464-12.899s2.939-3.355,3.776-5.451
			c0.839-2.102,5.979-0.425,5.979-0.425s4.613,1.262,6.291-0.523c0,0,6.084,0,10.697-5.243c4.613-5.242,16.46-19.088,19.72-21.71
			c0,0,1.781,0.419,3.88-0.729c0,0,5.871,6.286,12.271,7.861c6.394,1.577,9.858,3.562,21.396,11.433
			c11.535,7.864,15.624,20.138,15.624,20.138s1.784,5.665,0.945,9.756c-0.842,4.09-6.82,11.224-6.82,11.224s-1.99,2.935-0.836,5.03
			c0,0,5.35,3.672,13.739,1.365c8.392-2.308,11.96-9.548,11.96-9.548s2.303-9.962,7.652-14.156c5.349-4.194,7.97-5.453,8.601-9.228
			c0.634-3.775-2.618-7.871-5.139-9.965c-2.521-2.099-8.913-3.044-8.913-3.044s-2.62-0.418-2.837,1.573
			c0,0-12.27-9.125-24.958-26.533c-12.689-17.41-23.077-18.776-23.077-18.776s7.137-2.934,7.977-6.604
			c0.839-3.672-4.934-25.276-7.343-30.203c0,0,5.867,7.023,16.572,12.166c10.695,5.137,29.152,15.102,29.152,15.102
			s3.256,3.88,9.338,4.403c6.08,0.525,18.141,14.059,18.141,14.059s7.763,8.49,15.525,18.979
			c7.759,10.488,11.326,18.04,11.326,18.04s0.418,10.485,6.711,18.979c6.291,8.494,7.347,10.28,7.347,10.28s0.628,0.632,1.677,0.943
			c0,0,5.87,9.331,7.338,15.629c0,0,8.392-6.084,11.436-15.629C540.197,473.628,538.311,465.655,538.311,465.655z M72.429,174.193
			c5.14-0.525,10.066,0,10.387,0c0.312,0,14.784,2.203,20.976,13.529c6.189,11.33,0.868,25.275,0.868,25.275
			s-4.747,6.189-11.464,3.182c-6.71-3.007-5.733-8.216-5.733-8.216s3.011-7.655-0.768-17.83
			C82.919,179.961,72.429,174.193,72.429,174.193z M79.845,226.738c0,0-1.542,14.963-4.825,19.369c0,0-12.799-1.47-11.398-18.04
			c0,0,2.375,2.797,5.874,1.814c0,0-6.158-4.054-5.874-11.466c0.282-7.412,1.957-11.468,1.957-11.468s4.06-11.604,13.842-20.694
			c0,0,4.201,2.656,5.318,9.647c1.117,6.992-0.703,11.468-0.703,11.468s-0.562,1.537,0.425,2.796c0,0-1.611,0.838-0.772,2.378
			c0.836,1.537,2.799,6.919,3.218,9.229c0.418,2.311,0.558,9.439,0.558,9.439S84.386,227.368,79.845,226.738z M149.411,287.289
			c-0.14,1.956-5.034,4.546-5.034,4.546s-4.405,2.796-7.688,3.495c-3.29,0.698-3.85-1.188-3.85-1.188
			c-1.257-3.427-3.983-6.151-3.983-6.151c1.745-1.4,1.536-6.854,1.536-6.854c2.866-1.396,2.59-3.075,2.59-3.075
			c3.143,0.419,4.476,3.774,4.476,3.774c0-3.983-3.147-5.243-3.147-5.243c0.209-0.629,1.751-1.05,1.751-1.05
			s-2.378-1.188-5.104-0.209c-2.729,0.979-3.708,3.776-3.29,5.872c0.418,2.097,0.561,6.155,0.561,6.155
			c-3.428-6.501-10.068-10.068-10.068-10.068s-3.149,0.349-7.06-1.75c-3.917-2.099-4.825-4.616-4.825-4.616
			c2.516-2.726,1.745-7.269,1.745-7.269s-0.277-2.52-1.188-4.545c-0.908-2.029,0-3.287,0-3.287
			c-5.452,2.309-6.501,6.503-6.501,6.503s-4.057,1.259-9.439-2.169c-5.386-3.425-7.484-8.599-7.484-8.599
			c1.473-7.973,0.559-15.733,0.559-15.733c2.521,4.127,6.157,3.775,6.157,3.775c0.143,8.882,6.782,10.841,6.782,10.841
			c-3.848-2.028-3.358-7.133-3.358-7.133s0.703-6.018,0.143-13.005c-0.562-6.992-2.797-11.817-2.797-11.817s2.445,3.216,7.198,2.936
			c4.759-0.277,8.462-5.242,8.462-5.242s3.772-5.522,6.433-9.789c2.659-4.265,3.438-8.393,3.438-8.393s0.479-7.622,1.667-12.376
			c1.188-4.755,5.243-8.53,7.693-9.718c2.443-1.188,3.702-2.795,3.702-2.795c-0.209,1.605,0.49,3.074,0.49,3.074
			s2.31,6.293,0.906,13.706c-1.396,7.413-4.959,11.047-5.865,12.517c-0.915,1.469-0.217,1.679-0.217,1.679
			c3.286,10.137,0.983,17.34,0.983,17.34c4.058,1.612,9.718,0.349,9.718,0.349s6.991-3.076,10.203,9.091
			c3.221,12.167-0.134,20.485-0.134,20.485c-1.261-8.182-6.229-10.697-6.229-10.697s4.128,7.901,3.219,15.312
			c-0.908,7.412-6.643,13.075-6.643,13.075s-2.938-1.117-6.295-0.559c-3.352,0.559-4.547,3.425-4.547,3.425
			c2.313-1.89,5.671-2.238,8.396-1.82c2.728,0.42,4.263,3.568,4.753,4.616c0.488,1.047,1.885,1.121,1.885,1.121
			s4.756,0.415,6.925,3.705C149.202,282.813,149.552,285.33,149.411,287.289z M145.426,155.347
			c-4.894-1.956-1.534-9.229-1.534-9.229s0.836-3.914,8.528-7.271c7.69-3.355,19.018-13.845,19.018-13.845
			s22.659-23.214,72.722-20.277c50.058,2.938,72.715,18.318,72.715,18.318c-6.854,3.773-9.092,7.411-9.092,7.411
			s16.792,4.801,28.248,21.255c11.461,16.455,11.052,29.647,11.052,29.647c14.259,9.926,18.595,28.526,18.595,28.526
			c-4.894-1.957-8.524-5.734-8.524-5.734c-5.453-13.983-15.668-17.2-15.668-17.2c-4.893-18.877-19.018-37.478-19.018-37.478
			s-17.062-21.396-43.771-26.987c-26.709-5.596-42.229-4.476-42.229-4.476c2.241-1.399,5.73-1.96,5.73-1.96
			c-10.486-4.477-22.23-1.677-22.23-1.677s-7.416,1.677-13.008,6.292c-5.593,4.616-11.326,6.295-11.326,6.295
			c-0.279-6.713,8.395-9.648,8.395-9.648c-10.351-0.979-13.845,7.412-13.845,7.412s-4.34,13.423-12.308,23.212
			c-7.971,9.791-22.518,12.584-22.518,12.584C155.637,157.867,150.32,157.305,145.426,155.347z M261.108,208.592
			c2.799-0.209,4.653,0.562,5.104,1.297c0.456,0.731,1.504,1.36,1.504,1.36v2.168c-4.651-0.312-8.702,0.49-8.702,0.49
			C260.309,212.266,261.108,208.592,261.108,208.592z M254.785,205.203c-0.528-0.49-0.946-1.715-0.946-1.715l13.881-1.082v1.4
			C259.12,204.224,254.785,205.203,254.785,205.203z M267.718,215.934v2.1c-1.466-0.21-7.653-0.444-7.653-0.444l-0.733-0.922
			C262.999,216.145,267.718,215.934,267.718,215.934z M274.534,238.589c7.131-6.501,9.544-13.005,9.544-13.005
			s0.843,0.733-0.729,4.825c-1.576,4.089-10.388,16.571-15.523,18.459c-5.14,1.888-6.716-0.543-6.716-0.543
			S267.406,245.09,274.534,238.589z M270.657,210.796l-0.109-1.362c0.109-0.733,2.731-2.2,2.731-2.2
			c-1.576-1.261-3.779-1.261-3.779-1.261v-3.449c1.89,0.223,5.034,5.021,6.501,7.366c1.475,2.342-0.837,3.528-0.837,3.528h-4.297
			l-0.109-1.362h0.633C270.967,211.741,270.657,210.796,270.657,210.796z M274.047,215.48l-1.813,3.216
			c-0.597-0.104-2.731-0.245-2.731-0.245v-2.901C271.426,215.435,274.047,215.48,274.047,215.48z M282.293,222.02
			c-2.614-1.575-7.021-2.623-7.021-2.623l3.146-5.354c1.681-2.412,0.105-4.612,0.105-4.612s-4.615-6.188-5.814-7.657
			c-1.196-1.467-2.578-1.363-2.578-1.363l-16.679,0.838c0,0-1.841-7.473,5.562-17.302c6.71-8.917,16.783-10.115,16.783-10.115
			s8.179-1.423,18.245,2.04c10.071,3.459,12.902,11.955,12.902,11.955c-2.622,1.575-4.935,5.348-4.935,5.348
			c2.202-1.466,5.353-2.306,5.353-2.306c0.939,3.147,0.627,6.002,0.627,6.002s-12.371,2.811-19.087,10.57
			C282.193,215.2,282.293,222.02,282.293,222.02z M252.406,147.869c-0.206,0.061-0.406,0.116-0.603,0.172
			c-3.251,0.974-18.869,6.237-23.94,19.125c-5.038,12.794-8.808,15.104-8.808,15.104s-19.72,17.196-44.473,14.263
			c0,0-5.889-13.806,11.744-33.351c17.416-19.301,42.586-14.058,42.586-14.058s10.56,2.434,22.891-1.084
			C252.185,147.925,252.406,147.869,252.406,147.869z M155.918,240.234c-0.914-4.688,2.444-0.632,2.444-0.632s6.642,4.896,10,4.685
			c0,0-3.567-2.025-6.151-5.383c-2.591-3.355-3.147-4.614-3.775-6.431c-0.63-1.818,0.977-1.75,1.676-0.843
			c0.699,0.909,3.636,4.896,6.22,6.436c2.59,1.537,7.833,2.378,7.833,2.378s-2.372-1.12-5.384-4.126
			c-3.009-3.007-3.374-3.977-3.82-5.311c-0.444-1.336,0.749-2.302,2.352,0c1.609,2.304,5.526,5.52,8.393,6.637
			c0,0-2.725-3.425-3.143-6.292c-0.425-2.867,0-3.914,0.977-2.656c0.979,1.259,2.584,5.732,5.802,7.622
			c3.223,1.888,4.126,3.427,4.126,3.427s4.758,4.404,17.76,2.938c13.008-1.472,27.833-8.386,27.833-8.386s-2.173,7.404-0.639,11.669
			c1.545,4.269,5.25,8.041,5.25,8.041s-12.937,1.537-24.263,1.118c-11.326-0.418-16.429,0-16.429,0s-1.771,0.52-3.85,3.708
			c-2.101,3.216-7.35,2.321-7.35,2.321s-2.51-0.784-5.519,2.151c-3.003,2.938-5.101,4.614-7.969,5.178c0,0-1.891-2.521,0-5.245
			c1.888-2.726,3.917-3.708,3.917-3.708s1.954-1.957,1.258-5.103c-0.698-3.146-5.245-4.759-5.245-4.759
			S156.821,244.915,155.918,240.234z M242.616,303.16c-1.118,1.682-3.493,1.261-3.493,1.261c-0.14-0.7,1.118-2.261,1.118-2.261
			s-8.533,3.52-14.544,9.949c-6.014,6.437-15.243,10.49-19.581,11.469c-4.329,0.98-19.852,0-19.852,0s-17.484,0.698-25.455,6.989
			c-7.969,6.296-5.171,11.749-5.171,11.749c0.421-0.979,2.098-1.816,2.098-1.816c0,10.484,10.068,26.988,10.068,26.988
			s11.605,6.991,11.324,14.544c-0.276,7.556-4.753,8.67-4.753,8.67c-4.756,0.418-7.131-2.098-7.131-2.098s-3.356-2.377-4.335-8.393
			s-9.649-16.64-9.649-16.64s-3.776-4.194-9.649-11.468c-5.873-7.271-2.241-16.082-2.241-16.082
			c2.522-6.854,13.567-10.492,18.185-12.308c4.614-1.818,12.583-7.131,12.583-7.131s9.089-9.368,10.771-14.428
			c1.676-5.057,5.456-9.626,5.456-9.626s5.034-6.854,17.196-13.983c12.172-7.133,23.498-2.656,23.498-2.656
			s8.81,2.234,12.721,10.767C245.693,295.189,243.733,301.481,242.616,303.16z M254.925,266.383
			c-3.147-5.348-12.381-14.056-12.381-14.056s-2.831-3.146-5.244-10.488c-2.41-7.342,0.633-11.222,0.633-11.222
			c4.402-6.293,15.102-11.538,16.289-12.375c0,0,3.534-1.47,3.639,0c0.128,1.782-4.928,3.778-6.604,6.923
			c-1.682,3.146-6.605,9.755-6.605,9.755c0.309,11.222,11.114,14.366,11.114,14.366s5.246,2.31,12.166,5.874
			c6.925,3.567,9.965,9.125,9.965,9.125c0-5.034-4.933-8.603-4.933-8.603s7.976-1.258,16.262,4.826
			c8.281,6.081,7.604,11.955,7.604,11.955c-10.321,10.175-20.614,14.476-20.614,14.476s-5.874,1.36-8.496,0
			c-2.619-1.364-4.822-5.98-4.822-5.98S258.068,271.733,254.925,266.383z M269.609,381.614c0,0,6.292-4.058,12.162-5.456
			c5.874-1.396,10.209-1.814,10.209-1.814c0.839,0.562,1.957,2.099,1.957,2.099s-4.472,0.418-10.49,2.655
			c-6.011,2.233-10.905,5.035-10.905,5.035C271.285,382.731,269.609,381.614,269.609,381.614z M296.827,380.771
			c0,0,2.986,6.017,6.062,11.747c3.079,5.733,9.367,12.31,9.367,12.31s-1.533,1.681-5.73,3.496
			c-4.194,1.815-13.287,3.354-13.287,3.354s-0.418-8.249-4.194-13.002c-3.771-4.757-11.748-10.77-11.748-10.77
			C282.33,382.45,296.827,380.771,296.827,380.771z M380.778,426.848c0,0-10.278-3.776-17.098-7.863
			c-6.816-4.09-8.388-9.229-8.388-9.229s-5.353-10.908-9.021-18.566c-3.667-7.656-18.145-20.795-18.145-20.795
			s-5.143-5.321-8.284-14.651c-3.149-9.337-4.194-16.468-4.194-16.468c-5.033,3.879-26.543,12.69-26.543,12.69
			s-5.131,7.134-15.199,11.85c-10.069,4.723-23.389,6.504-23.389,6.504s-8.704,0.839-13.638-3.146
			c-4.928-3.986-2.619-8.497-2.619-8.497s-0.312-1.572,7.653-9.755c7.977-8.18,21.921-17.2,21.921-17.2s5.633-4.368,20.945-6.465
			c15.312-2.102,21.425-0.248,21.425-0.248s2.097,1.994,17.203,1.994c15.099,0,21.079-4.403,21.079-4.403
			c-8.393,1.363-25.695-2.311-28.735-3.358c-3.045-1.048-5.348-4.088-5.77-4.612c-0.418-0.524-7.237-7.234-7.237-7.234
			s-8.284-6.818-11.954-12.271c-3.676-5.454-2.521-8.495-2.521-8.495s7.659-8.917,10.281-11.12c2.619-2.2,2.619-4.715,2.619-4.715
			c4.35-1.68,6.083-5.877,7.976-9.337c1.886-3.463,9.435-8.887,9.435-8.887c-0.94-0.18-3.671,0.811-3.671,0.811
			c2.94-7.972,10.389-13.008,10.389-13.008c-2.104,0.21-4.824,1.261-4.824,1.261c0.942-5.139,5.871-11.222,5.871-11.222
			s-6.607,2.729-9.542,8.076c-2.939,5.35-5.882,12.271-8.813,19.927c-2.937,7.658-6.709,9.755-6.709,9.755s-2.831-6.504-8.92-11.852
			c-6.08-5.352-13.211-7.658-13.211-7.658c4.513-6.919,10.801-9.334,14.996-8.601c4.198,0.734,4.722,4.091,4.722,4.091
			c2.099-2.204,2.203-4.616,0.736-7.242c-0.972-1.745-3.357-3.982-5.979-8.28c-2.622-4.301-1.361-8.602-1.361-8.602
			s5.771-13.845,22.443-16.99c16.672-3.145,23.7,9.232,23.7,9.232s10.171,22.021,9.649,37.316
			c-0.526,15.298,4.615,22.986,4.615,22.986s9.854,20.872,12.271,30.103c2.406,9.229-7.344,12.377-7.344,12.377
			c4.825,1.989,11.851-5.247,11.851-5.247s8.812,1.153,14.686,19.401c5.872,18.25,0.941,25.487,0.941,25.487
			s-2.308,3.146,0.314,8.471c2.622,5.33,5.137,25.195,7.132,31.804c1.99,6.605,4.931,8.076,4.931,8.076s1.886,8.494-2.725,16.674
			C390.109,427.898,380.778,426.848,380.778,426.848z M427.064,432.232c12.868,15.384,21.535,22.521,21.535,22.521
			c-2.794,8.524-14.26,12.587-14.26,12.587s-5.034-9.932-11.887-17.2c-6.854-7.275-21.398-13.567-21.398-13.567
			c12.729-3.636,9.092-23.077,9.092-23.077S414.204,416.85,427.064,432.232z M402.453,410.699c0,0,3.076,0.698,4.478,1.681
			c0,0,2.238,19.437-10.202,22.092l-4.897-1.952C391.829,432.517,403.577,430.275,402.453,410.699z M475.594,407.135
			c0,0-11.119-10.701-16.151-10.701c-5.04,0-7.762-3.564-7.762-3.564s-2.104-2.728-11.541-9.856
			c-9.437-7.132-6.077-3.776-20.345-11.327c-14.267-7.553-23.283-20.347-23.283-20.347c5.031-23.491-1.051-22.235-3.146-38.391
			c-2.1-16.15,12.162-22.233,12.162-22.233c10.699-0.628,15.943,5.454,15.943,5.454s-7.971,1.052-16.152,4.825
			c-8.184,3.776-6.291,11.116-6.291,11.116s14.894,2.31,25.592,10.91c10.698,8.598,12.793,26.22,12.793,26.22
			c-4.404-1.889-9.017-9.857-9.017-9.857c2.307,10.275,11.535,19.72,11.535,19.72s1.467,9.438,4.197,14.895
			c2.429,4.861,8.019,8.883,9.203,9.696c-0.969-0.834-0.607-3.2-0.607-3.2s7.34,2.104,17.408,7.137
			c10.067,5.032,16.785,12.166,16.785,12.166s-1.263,1.048,1.258,5.035c2.515,3.982,5.874,11.323,5.874,11.323
			c-1.679-1.467-4.408-1.68-4.408-1.68c4.826,8.396,8.394,21.186,8.394,21.186C493.844,427.686,475.594,407.135,475.594,407.135z"/>
		<path fill="#003192" d="M262.677,191.553c0,0,0.958,2.575,3.636,5.451c0,0-1.954-3.771-1.813-6.291c0,0,2.235-7.69,13.002-10.906
			C277.502,179.807,266.875,180.925,262.677,191.553z"/>
	</g>
</g>
</svg>
