<?xml version="1.0" encoding="utf-8"?>
<!-- Generator: Adobe Illustrator 16.0.0, SVG Export Plug-In . SVG Version: 6.00 Build 0)  -->
<!DOCTYPE svg PUBLIC "-//W3C//DTD SVG 1.1//EN" "http://www.w3.org/Graphics/SVG/1.1/DTD/svg11.dtd">
<svg version="1.1" id="Layer_1" xmlns="http://www.w3.org/2000/svg" xmlns:xlink="http://www.w3.org/1999/xlink" x="0px" y="0px"
	 width="595.275px" height="595.279px" viewBox="0 0 595.275 595.279" enable-background="new 0 0 595.275 595.279"
	 xml:space="preserve">
<metadata><?xpacket begin="﻿" id="W5M0MpCehiHzreSzNTczkc9d"?>
<x:xmpmeta xmlns:x="adobe:ns:meta/" x:xmptk="Adobe XMP Core 5.3-c011 66.145661, 2012/02/06-14:56:27        ">
   <rdf:RDF xmlns:rdf="http://www.w3.org/1999/02/22-rdf-syntax-ns#">
      <rdf:Description rdf:about=""
            xmlns:dc="http://purl.org/dc/elements/1.1/">
         <dc:format>image/svg+xml</dc:format>
         <dc:title>
            <rdf:Alt>
               <rdf:li xml:lang="x-default">NFL Logo Redesigns</rdf:li>
               <rdf:li xml:lang="en_us">NFL Logo Redesigns</rdf:li>
            </rdf:Alt>
         </dc:title>
         <dc:creator>
            <rdf:Seq>
               <rdf:li>Max O'Brien/Osprey Dawn</rdf:li>
            </rdf:Seq>
         </dc:creator>
      </rdf:Description>
      <rdf:Description rdf:about=""
            xmlns:xmp="http://ns.adobe.com/xap/1.0/"
            xmlns:xmpGImg="http://ns.adobe.com/xap/1.0/g/img/">
         <xmp:CreatorTool>Adobe Illustrator CS6 (Macintosh)</xmp:CreatorTool>
         <xmp:ModifyDate>2013-10-07T00:16:38+13:00</xmp:ModifyDate>
         <xmp:MetadataDate>2013-10-07T00:16:38+13:00</xmp:MetadataDate>
         <xmp:CreateDate>2013-10-07T00:16:38+13:00</xmp:CreateDate>
         <xmp:Thumbnails>
            <rdf:Alt>
               <rdf:li rdf:parseType="Resource">
                  <xmpGImg:width>256</xmpGImg:width>
                  <xmpGImg:height>236</xmpGImg:height>
                  <xmpGImg:format>JPEG</xmpGImg:format>
                  <xmpGImg:image>/9j/4AAQSkZJRgABAgEASABIAAD/7QAsUGhvdG9zaG9wIDMuMAA4QklNA+0AAAAAABAASAAAAAEA&#xA;AQBIAAAAAQAB/+4ADkFkb2JlAGTAAAAAAf/bAIQABgQEBAUEBgUFBgkGBQYJCwgGBggLDAoKCwoK&#xA;DBAMDAwMDAwQDA4PEA8ODBMTFBQTExwbGxscHx8fHx8fHx8fHwEHBwcNDA0YEBAYGhURFRofHx8f&#xA;Hx8fHx8fHx8fHx8fHx8fHx8fHx8fHx8fHx8fHx8fHx8fHx8fHx8fHx8fHx8f/8AAEQgA7AEAAwER&#xA;AAIRAQMRAf/EAaIAAAAHAQEBAQEAAAAAAAAAAAQFAwIGAQAHCAkKCwEAAgIDAQEBAQEAAAAAAAAA&#xA;AQACAwQFBgcICQoLEAACAQMDAgQCBgcDBAIGAnMBAgMRBAAFIRIxQVEGE2EicYEUMpGhBxWxQiPB&#xA;UtHhMxZi8CRygvElQzRTkqKyY3PCNUQnk6OzNhdUZHTD0uIIJoMJChgZhJRFRqS0VtNVKBry4/PE&#xA;1OT0ZXWFlaW1xdXl9WZ2hpamtsbW5vY3R1dnd4eXp7fH1+f3OEhYaHiImKi4yNjo+Ck5SVlpeYmZ&#xA;qbnJ2en5KjpKWmp6ipqqusra6voRAAICAQIDBQUEBQYECAMDbQEAAhEDBCESMUEFURNhIgZxgZEy&#xA;obHwFMHR4SNCFVJicvEzJDRDghaSUyWiY7LCB3PSNeJEgxdUkwgJChgZJjZFGidkdFU38qOzwygp&#xA;0+PzhJSktMTU5PRldYWVpbXF1eX1RlZmdoaWprbG1ub2R1dnd4eXp7fH1+f3OEhYaHiImKi4yNjo&#xA;+DlJWWl5iZmpucnZ6fkqOkpaanqKmqq6ytrq+v/aAAwDAQACEQMRAD8A9U4q7FXYq7FXYq7FXYq7&#xA;FXYq7FXYq7FXYq4kAVPTFXnHm/8A5yB/LLyzI9vLqJ1K9QkPa6aouGUjqGkqsQNe3OuXw085Ncso&#xA;DyPSf+cr9Xk89erqUKQ+TJJZF+rpDyuo4eJETlg278uJYdOtO2ZJ0g4dvqahm38n09aXdteWkN5a&#xA;yLNa3MazQTIaq8bgMrKfAg1zAIpyVXArsVdirsVdirsVdirsVdirsVdirsVdirsVdirsVdirsVdi&#xA;rsVdirsVdirsVdirsVdiqS+b/OXl7yjo0mr67dLbWqfCi9ZJZCKiOJOrMadPpO2ThAyNBEpAc3yF&#xA;+aX5/ea/Osk1lZu+keXjVRYQvR5k8biQULV/kHw/PrmyxaeMfMuLPIS8tzIanYq+v/8AnF78wI9c&#xA;8m/4bupa6poA4Rqx+KSzc/umH/GM/uz4Dj45rNVjqV9C5WGVintWYrc7FXYq7FXYq7FXYq7FXYq7&#xA;FXYq7FXYq7FXYq7FXYq7FXYq7FXYq7FXYq7FXYq7FWOefPPmgeSdAl1jWJeKL8NtbLT1Z5aVWONT&#xA;38T0A3OTx4zM0GMpAB8Q/mH+YfmDz1r8mratJxQVWyskJ9K3irsiDuf5m6k/dm2x4xAUHElIksXy&#xA;xg7FXYqyHyB501LyZ5qsdfsCWa2elxBWgmgbaSJv9ZengaHtkMkBIUWUZUbffOga5puvaLZ6zpko&#xA;msb6JZoH70bswFaMp2YdjtmnlEg0XNBtH5FLsVdirsVdirsVdirsVdirsVdirsVdirsVdirsVdir&#xA;sVdirsVdirsVdirsVQWt61puh6Rd6vqcwt7Cyjaa4lbsq+A7k9ABuTthjEk0EE0+FPzT/MrVfP3m&#xA;aTU7otFYQ8o9MsSarDDX7ub0Bdu59gM2+LEICnDnPiKG8sflx5m8yaRfaxpscTabpgkbUp3kCmBY&#xA;ojNyZPttzCkLwBNfDDPKImigRJZd+Xq/lKnkHWJPMiFtbuJFj06C7kb0HuYIpJIiptlWeKMs4SUl&#xA;qbjcdRXk4+IVyZx4a3XflYfys/wxrsvmlUXXTbXo0xLV5BcmA259YAScrVXAJERb4j8X+Tgy8diu&#xA;Sw4a3Yfp3kDXta0W98xaNbctDspZ0upJZk526QxCblMxEYIZGovEbsKUqVracgBo82AiSLYvljF7&#xA;/wD84sfmY2nau/krUpf9B1JjLpTMdo7oCrRivaVRt/lD/KzD1eKxxBvwz6PqrNc5LsVdirsVdirs&#xA;VdirsVdirsVdirsVdirsVdirsVdirsVdirsVdirsVdirsVfK/wDzlP8Ama2oaqnknTJv9B09ll1Z&#xA;kO0lzSqRGnVYgakfzHxXNhpMVDiLjZp9HlP5beQLzzz5jj0W0u4LWSgll9YuGMKsPVaPijKWRd6M&#xA;RXMnLk4BbXGNmk51PzV54/L6TWPJWna6VtVf0g1hOQ1u0c3MlZIeHGZuPGWhr+yfDICEZ1IhJJjs&#xA;89kkklkaSRi8jks7sSWZiakknqTl7Bbih6N5U/Nbzzb+U7jyXpduNSS6dBBZ/VY7hfqqxyi4i9FU&#xA;Jb1CUct1HEmu+UTwx4uItgmapinmnyd5g8s3v1XVbSSAlIJPUKOI63EKzBA5FCyh+LDxByyExLkx&#xA;MSEptbq4tLqG6tpGhubd1lglQ0ZHQhlZT4giuTItD77/ACx86wec/JOm68lFuJk9O+iHRLmL4ZVp&#xA;4FviX2IzTZYcMiHNhKxbKcrZOxV2KuxV2KuxV2KuxV2KuxV2KuxV2KuxV2KuxV2KuxV2KuxV2Kux&#xA;VjX5j+cYPJ3kvU9fkAaS1ipaxN0kuJDwiX5c2HL2rlmKHFIBjKVC3wDeXlze3c95dSNNdXMjTTzN&#xA;uzySMWZj7kmubgCnCemflx+U/mDXvKur69Ya0unLbiMyQ2kwnmltlWSaZHgtmMok5RRmON6ct/AH&#xA;KMuYAgENkYEi3muoX11f31xfXcrT3V1I8087/bkkdizO1P2mJqcvAoNaHwodiqO0LU20rWrDU1Dk&#xA;2VxFPxikMTkRuGKrIu6EgUr2wSFikg0z/wA0+ZPOn5xaja3TWSW/6KhZL2cSmHTII2kLrNI07cIW&#xA;4txYl6vxFPDKIRjiHv8AmzJMkrj0n8p9IPp6vq+oa/dg/vI9FjS3tVIO4+s3YLyD3WED3yVzPIV7&#xA;0VEPWPyh83aL5Ogur3RXu5vKWr2eoXsdhf8Apm6t9Q0iOJ5lDxUjeOSGZfi4g7DbbfGzwMuf1Cvt&#xA;bcZrlyTz8ivz+1fzPrTaB5qaE3d4ztpl3EgiHNV5m3dRtulTG3ehG5pkdRpxEWE48lmi98zDb3Yq&#xA;7FXYq7FXYq7FXYq7FXYq7FXYq7FXYq7FXYq7FXYq7FXYq7FXzJ/zl55uaS80jylbvVIVOo3yj+dq&#xA;xwA/6qiQn5jM/RwoGRaMxvYPnHM5xnof5SeQ9R88XF1osWryaRaxvFdRykBoXuEPALx5xsZRHIxT&#xA;jWm/StcozZBDerbIRvZivm/Q00TzFfafFcxXdtHNJ9VuIbiC65w8yIy8luzIHKj4l2IPYZbCVi2M&#xA;hRSbJMXYqyDyb5XXXb+Zryc2WiabEbvWdRpX0bdSBRQftSyMQka92PzyE50PNlEWrebPOkurpHpe&#xA;mwforyvZsTp+jxH4a9PWuG6zTtT4nb5CgwQhW53KylfuYzljFmfm6eTT/Kvk7SIyY5VsbnUp2XY8&#xA;tTmZOP8AsraCOvscqhuSfxszlyCWeUb250+W61a22uNF+rapbkf79hvIYlqf5aTmuSmL270RfoND&#xA;Kk0KSp9iRQ618GFRmlc5firsVdirsVdirsVdirsVdirsVdirsVdirsVdirsVdirsVdirsVfC35ka&#xA;4fMf5neY9VZucIuXtrau49KD9wlPmkdfpw9o5DDFGI5nd6T2R0Yy58mSQuMY1/ptvuB+bDdQ0u6t&#xA;Y0ujE4sp3eOCcg8GeMKXQN0JUOtfmM2Gh1XjQv8AiHN0nbvZn5PUGA+g7x93d8EPZXt3Y3kF7ZzP&#xA;b3ds6y288ZKukiHkrKR0IIzLIt071PyH5Z/KjU/y+1SbWL6W18zScxZWpmt2lc2aeu31ZGVOHrhv&#xA;TAkO5HwknbMfJKYkK5NkRGmG+Wfy78z+a7a9u/LlmbuKymjiniZ1V40mDsjs7+nHxURnm1RTbahy&#xA;2WQR5sBEnkx6C0uLi7js7ZDPcTSCGGOMci7s3FVUDryJ2ydoZn53urfy9pMXkLTZFke2kFz5nvIj&#xA;VbjUQCvoKw6xWgJQdi/JvDKsY4jxH4MpbbMGy5g7FWcfmOi3un+Vdcsx6mnS6NZ6fJKg2jvLBPQn&#xA;henR/hElD1VgcqxbEjzZy6FA6RZzaf5I17VbkGKLV0h0rTw4p6zLdRXk7x16rELVFZulXAwyNyA7&#xA;lHJ9xeRNZ0vWfJ2j6jpUhksZrWNYi32gY19Nlb/KVlKn3zU5IkSILlxNhPcgydirsVdirsVdirsV&#xA;dirsVdirsVdirsVdirsVdirsVdirsVQGv6gdN0LUdRHWytZrgd94o2f+GGIs0gnZ8CaBaXN40UEK&#xA;ma6vJgkS9Wd3IVR8y2Y3a0rygdwfQPZCAx6OWSXWRPwAH7X1v5o/KnytD+TD+XNTkS3TS7ZrsanS&#xA;pjvFUu8w7kOxK8e6mnWmX6eXgC+7m8frck9fqCQPVM1Efc+K5I2jdkcUZTQ5u8eQTiJDkXTajBPD&#xA;M45ipRNFbk2lmnkv83POnlDTb7T9KvpPq9zD6drFK3qxW0hlSRpY4ZA8ZLKrIQVp8VcqnhjI2WcZ&#xA;kI7TrlvKukyecbqKKHzProk/w3axosa20LkrNqIiA4p3jtxsK1YbKMBHEeHoOf6kjbfq8+JJJJNS&#xA;dyTlzBNfL/lTzH5iuDb6Lp817Iv22jFESv8API1EX/ZHITnGPMpESeT0vS/+cWfzMv7MXPq6bbEi&#xA;ogmuHL1H7P7qKVK/7LKDq4ebZ4Mkk8weTPzS/KqT6yblrS3nZYpLmxm5wM5XkqSIQtdtxyT5ZOOS&#xA;GTZiYyigfJuj+YfzS8+2Gk6pqlxLJOrma9lrN6EEKNIQiEqqrUcVAoKnDOQxxsBEQZF7YPLXnX8o&#xA;kF/5a1S41ry/YMz6t5euqEGBvikltyoorD7WwHvUVGYfiRyGpCj3t/CY7h7toGu6Zr+i2es6XL61&#xA;hfRLNBJ0ND2YdmU7MOxzGlEg0W0G0fkUuxV2KuxV2KuxV2KuxV2KuxV2KuxV2KuxV2KuxV2KuxVL&#xA;/Menyal5e1TTo/7y9tJ7dN6fFLGyDc/62SiaIKCNnyR/zjbo0eo/mPZxXSUbSFmuniYUPOP4UqD3&#xA;WRwfoyvW4f8ACBLoRfyek0faAHZMsY+oT4fhLf7dw9O/5ye85yQWlj5TtJOJuh9c1IKesatSGM+z&#xA;OCx/1VzD1mT+F2PsloAZSzyHLaPv6n9HxLwbS/y78zea7TULzQ7Jrn9FQme5I/aUf7rT+aQirKvU&#xA;gH2zI7K1JjIxP0/cvtnpMJjHLdZeVfzh+zv+DELPT7++uBbWVtLdXDfZhhRpHPb7KgnOiJAfPKZj&#xA;pvkmDy6V1fz7E1lbxL6tn5ec8L6/kG6RtGP3lvAT/eSOAabJVulRycW0fmyEa5sY8xeYNS8wavPq&#xA;uoOGuJyAqIOMccaDjHFEvRUjUBVXsMsjERFBiTaF063t7m+ggubhLSCVwslzIGKID+0wQO1PkDhJ&#xA;2UPpL8jobbW/yom0d2a2VLi4tLia1b05mDlZS3MV3Kyca/yjNdqfTktycW8aSLzb5M/MX8vPNkV1&#xA;+Wuj6naWk0ISa5tj+kIJydyZYis3p8a0rJ8xTLcc4zj6yGEomJ9LGfzL0r84LXyzFqnmy8W706/k&#xA;Ec3FyzLNMRchZY+KIjIU4gqNt1BocniljMqjzRMSrdU/5xhvY7P8zDNI4SP6hOHLGg48oyTv4DfH&#xA;V/R8Vw83uHnH87vyrs9SMP6bjupQCk/1WOWeMEGn94itG3+xY5hx08z0bjlikf8Azj7510D/ABXr&#xA;/lLRbs3GhXFdW0RWV4/QLEC5tgsgBoGZWUDalT1JyzUQPCJHnyY45CyA96zEbnYq7FXYq7FXYq7F&#xA;XYq7FXYq7FXYq7FXYq7FXYq7FXYq7FXyBr/nq08if85H6xrWnW4GmC5EGpWsf7ayxJ9aZenx+tyk&#xA;H+V7Zshi48Qvm4/iGMjXIpZ+ZerP5q/MnUbrT3+uJfTxQ6aY9xJHwSOHhWn2xQ/TnLZ78Qg87fXe&#xA;xBDHoYG/Tw8RP2l9YeQPJtl5Q8r2mjWwBkjX1LycChluHH7xz+pf8kAZs8WPgjT5x2lrparMch+H&#xA;kOn473yF+esvl+0/M/ULjynys41NLqWByqG9BInaLjTitSAf8qp6HNnotQMgMf5ria/s/Jp4wnIU&#xA;Mgsfj3Ufi84mmmmlaWZ2klc1eRyWYnxJO5zOdasxQ9f8mfl35c13yRFrUV9C4gYWWuWhjUT2jXDS&#xA;JHeFzVyqu0XELRaAg/tZiZMsoyr5N0YghO/y90rzl+V2o3Ca1pN3qOkalGpeXSg10kEiE/HJGACP&#xA;h6nw8e1eWUco2NEd7KAMOb2m58wahrPl23fy7dQyx3FBBeSAtHGhJ5O8dUZmSnEIafFsab5iVR9T&#xA;ddjZ4d+Y35j6pF5b1jyNrkEGuyid3TWo7iCPgOYa3JggXaRFWjIad+ozNw4hYkNvJonPai8p8leW&#xA;9V8z+Z7Hy/pcohu9SYw+ozFUEYUvIXp1UIhNO+ZWSQiLLVEWaewfml+RGmeUPJE1xo/O91CzZJb+&#xA;9nFXkt2FHMUYPCMKxB6FqA/FmJi1JlOjybp4qGzyf8u/Odz5L84af5ighFx9TZhNbsSokilRo5Fq&#xA;Oh4tVfemZeSHFGmmMqNvvDyt5o0bzRoVrrejT+vY3a1RqUZWGzI6/ssp2IzTzgYmi5oNi01yKXYq&#xA;7FXYq7FXYq7FXYq7FXYq7FXYq7FXYq7FXYq7FVK8uoLO0nu7hglvbxtLM56KiAsx+gDCBavz51O6&#xA;k8w6vq2s3FRPqN1Lc1P7LSuZCPl8VMt1mtOCcYjlW7vewuwY63T5JS2ldQPmNz8Nwzj8m9NOjfnH&#xA;o+i+aENlLbzs0STDiDP6TNbgE9nfgUPfbxw6rSxyEZY/FxNH2vkw6fJpZcj9Plv6h7iL+PvfTn5x&#xA;edT5S8kXd5A/DUrv/RNPoaMJZAayD/jGgLfOmYOoycMfNt7E0H5nUCJ+iO8vcOnxfG0Ok3etXUOn&#xA;WsT3F7dSCO3jTd2kc0FK/PMHS6iWKYMfl3voXbOgw6jTmOU8IjuJfzfP9iN85fk3+YflOZ/0jpMs&#xA;9mu41C0Vp7cjxLoPg+TgZ1mPPGT41PGQWE5c1sw/Kq7832vmyOXyvatf3PpOL2xDcY5rU0WVJiSF&#xA;4nkOv7VMpziPD6mcLvZ9Pflj5tXzj5Vh1Z0jtbj98JbVGqFML8QFrufgZCfnmtzY+CVOVCVhKvzP&#xA;1zVdO8l69JoNqxubdoor65gpyt4rpKvcsFo1QopUdNm7YccbN8+7z8mQokAmhe57h3vl261bV4bF&#xA;bKHVJjYFShs0lZI+LHkwManieR3NRueuZemzSmTxw4SPxzcntPQYsAicWWOWMu7Yj3i2UeWfLPmb&#xA;yjqnlDzndosGnXOoWjwMHHMxu3Mhx+yHiDdT0y2U4yuI5urESKL7N83aZb32nPHOgkgmR7e4Q9Gj&#xA;lUqQf1fTmqBpzC+BvM2iT6F5g1DR5ql7Gd4Qx/aVT8Df7JaHN1CXEAXBkKNPRv8AnHb8yrzyr5yt&#xA;9InkroeuzJbXMTGixTueEU612HxEK/8Ak/IZRqcXFG+oZ4p0X2hmrct2KuxV2KuxV2KuxV2KuxV2&#xA;KuxV2KuxV2KuxV2KuxV5J/zkz51Xy/8Al3NpkMnHUfMDGziUH4hbijXLU8OFIz/r5k6WFyvuassq&#xA;Fd75w/LnyvJrvmjRtDVOa3M6fWadoVPOY/QgbNJnyeNmJ6E/Y+p6eA7P7O32lGN/50v2mntP/OWW&#xA;i6UNM0TWoI/R8wpcGKC6jbg5gjQuVNNyUfiUNfhqfHNtj1YxECX0yfPdL2XPVRmYfVCN+/y9/Onm&#xA;f5gfmnc+etF8tLOx+t6fauupAbK12z8Gf/ZxxI/tyIzA7Thw5K6PX+xkAcM5/wARlXyH7XpH/OM3&#xA;kqDjeec79QBCWtdOZ9gtFrPNU+x4A/62V6PHfqYe1vaBFYInzl+gfp+TKvzM/PLyvZeVr6Pyvq9v&#xA;qGtSv9UiNs4f0Sy1aav2SFX7JFRyp75lauUsceW5dD2B2eNVn3/u4by/QPj91vka9voQ0pe2Wd5o&#xA;yIZ5OVF5EhpFA48m2oCSQN9q0I2HZunlDH6tiWr2n1+PPqKx8JhEVYHM9d+vl07nof5I655O8prf&#xA;+Y9d1NYbudDZWlhGryzGOqSSOyoGoGZVC8qdDl+pjKdRAdBiIG5SX8r/AD/qflbzRbm0gm1LSEln&#xA;9bT4ATI8Vwgidk2+1REYV7qOmWZcQkPNjCVF7LF+aWtLqE+p2PkbzI0E8ItrsC1b0Z4xXh6q+nIA&#xA;y+oaFWB3oSRtmJ4IqjKLdx+ReX+e4fOPmGSGx0PyjrGk6Ko5fo9or0Q+pyZjSIsbZFqajhGu5OZG&#xA;IxjzkCfg1yBPIJ3+aXmHzpf+S7ZdQ8tReWtItJ4TaPcT+rOZo1YRxwxqqMp4cvtpSg65DBCIlsbK&#xA;chNcqYcn57/m0gkB8xzSLJ9tZY4JV612DxsB9GXnTw7mHiS72I67ruq69qk2qatP9Zv7jj603FE5&#xA;cFCL8KBVFFUDYZZGIiKDAm0CCQQQaEbgjJK+8PyT8zX3mX8sdE1TUJfWv2jkguZT9pmt5XhDN4sy&#xA;oGPuc0+eIjMgOZjNhnGVM3Yq7FXYq7FXYq7FXYq7FXYq7FXYq7FXYq7FVk88FvBJcTyLFBCrSSyu&#xA;QqqiirMxOwAHXFXxB+annyTz/wCfLjVIyw0axH1bSo22/dISeZH80jVc+AoO2XazJ4GHh/ik7n2b&#xA;7OOq1Qmf7vHv8eg/T7g9p/5xl8iPb21z5wvY+LXSta6WrD/dQb97KP8AWZQgPs3jmr0eP+Iu79rO&#xA;0RIjBHpvL39B+n5MS/5yV80JqnnSDSIG5QaJD6b06fWJ6PJ9yhB8xlWrncq7nZ+yukOPTnIeeQ/Y&#xA;OX6XnWt+RdX0LQND8zSof0V5gEi1of3U6SMEDdv3sa818d/DM2UTm04J+uH3OrwazHo+1Zwjtiyk&#xA;A9wn/bY+Pk+uvKXlPSrX8rLHy9qMa/UJtN4akhYoD9ZjL3FWBBHxSNvXJYPREPOdqZjn1M5c7lQ9&#xA;3IPhrXhp1rrWpW+iyvJpPryLZvLQyNAGPp8yAPi49c2+OIzRjOQ3HL8fa4WXJk0ksmGE7jIASrke&#xA;tfA2Pmn3kL8tvOX5hamYdLjZ4IeCXep3LN6EKKoCqzmpJCgBUWpp7ZbkyxgN3XxiZPpfyd/zjV+X&#xA;HluBLnW1/Tt+u7zXnwW4b/It1PEj2ctmBk1Ujy2ciOIB6Bb32jaXB9W0ewitoB9lIY1gjFPBUAzH&#xA;JJ5tgDyL80v+ciLLRXl0rSwmpaqlRIqmlrA47SMvxSMP5VPzIOZOHTGW52DXPKByfPevfmZ561yc&#xA;y32sXAQmqwQOYIl8KJFxBp4mpzOjhjHkHHMyUX5y88ajrPlry7od1cvdyabC8t5cSMXZ5ppGMasx&#xA;6+lBxWviSMGPEBInvTKVgBhuXNbsVZtrMGhXn5XaJqsEcMGtWV7Lpl76fFJJ4+BmjkdR9rgvFeX0&#xA;HtlMSRMjpzbDXC+lv+cXNV026/Ky2sbabneadcTpfQnYxtLK0sfzVkYUPjUdswdWDx234T6XruYz&#xA;a7FXYq7FXYq7FXYq7FXYq7FXYq7FXYq7FXYq+bf+ck/zeNw0nkHy7OGJNNeuozsKb/VVYffLT/V/&#xA;mGZWMRxx8SfIJw6fJqMgxYxcpPOPyo/La7836/FpkIaPTrekuqXgH2Iq9Af55KcVH09Ac0k5y1GS&#xA;z/YH0mcsXZGjEY7zP+yl1PuH3UH1d5y8yaR+X/kiS7iiSOKyiW20uyGyvLx4xRj2FKt7AnMzJMY4&#xA;vD6HS5NbqBEneRuR8upfHum2Oq+avNEFoHM2paxdAPK29XmeryNTsKlj7ZqQDI+ZfU8uSGmwmXKE&#xA;I/d0fQH/ADkXe6Zon5aad5Qt0X/SzFBbqQC0dvZBTzXwblwWvuc2k85w8PD+A+edkdm/yhlySycq&#xA;Jv8ApS5fLcvPPPH516vrX5NaZpFtM0OsyStYeYnjIDNBbxji1RQhbkMCaDejr0zYYTj4hK9pfT+r&#xA;4Okz6LURlOHCTLH9VdB3+487eY/ll+X+oeefNdvotsxhtgPW1G8pUQW6Ec38KmvFR4nNhlyCEbdX&#xA;CNmn3PoOg6H5V8vw6Zo9sttp1lGfTjXqx6lmbqzOdyx65qJSMjZcwCklubqa5lMkrVPYdgPAZFLz&#xA;T88fPM/ljyn6NhL6Wq6qxt7dwaPHGBWWVfcAhQexauZGmxcUt+QassqD5S65tXEdirsVdiqYaJ5e&#xA;13Xbv6po2n3Go3PUxW0TykA924g8R7nbIykBzSAS+pvy4/5xr8uW/kp4/N1gkvmTUI5BLMHZzaLI&#xA;tI1jAb0/UT7Rah+LapGa/Lqjxenk5McQrd475C8wax+Tv5rT6drFVsll+pawgrxe3Ygx3KDvxBEi&#xA;9+NR3zKyRGWFhqieGT6ti/NL8uJtQXT4vMunPeOwRI1uYyGZjQKGrxLV2pWua7wpVdFyeMd7KMrZ&#xA;OxV2KuxV2KuxV2KuxV2KuxV2KuxV2KvDPz3/AD3/AEF63lTypMJPMEgKX18hqLMHqiH/AH9/xD/W&#xA;6ZGPHER457RC48c80xjxjinJ89+UfKeq67rEGk6bGbnUr1/ic9AOru7HoqjcnNRqtVLUTocugfSu&#xA;zuz8PZWnOSZ9f8Uv97H8b8z5ezvJXk/QvIXlUWcUiIkCG41PUZKJ6jqtZJXJ+yqgbDsPvzKx4xji&#xA;8Nr9bk1ubiPXaMe7uD5i/N/8y5vO3mHlblk0SxLR6dC1RyB+1M6/zPT6BQeOa3Pl4z5PofYnZQ0m&#xA;Lf8AvJfV+r4PQ/8AnGbyIytc+c7+PigDW2lchT2nmFf+AB/1syNHj/iLo/aztHlp4nzl+gfp+TzT&#xA;83/O3+LvO13ewvy020/0TTqdDDGT+8H/ABkclvkQO2Y2fJxyt6DsTQfltOIn65by956fDklfn7yr&#xA;p+geRPK95IXj8w679Yup4gfh+o/AIOY7E/aWn8zV6ZvOy8Vw9XQ2HgvabtAy1UxjNDh4JV1o3v8A&#xA;Hb4PXf8AnHfy8uleRG1Jl43euSmWR/2vq8JMcKfLlzf3qPDLtXO5V3PP4Y0Leo3vmWKwsfSv7yG2&#xA;tn+BZLh1j/2IZiMxgCeTYS8o/Pjznr+g6BpNx5fujbreXB9S9h4OCqJyRASGFHrX6MydLjEiba8s&#xA;iBs+ctc8w63r16b7WLyS9uiOIklNaKP2VUUVR7AZsYwERQcYknml2SYs5/Kr8qdT/MPVJ7O0v7aw&#xA;itFWS5kmYNNwY0rFACHeh6moUeOU5swgGcIcT6F0P/nE78u7KNTqlze6rPSj8pBbxE+KpEOY+mQ5&#xA;hS1kjy2bxhD51/OLyZaeTvzC1PRLHl+j0Mc9kHJJEUyBwtTueDErXvTM7DPiiCWicaNMf8teZtc8&#xA;taxBq+i3b2d9AfhkQ7MtQSjr0dGpup2ycoiQooBI5PpXyN+Zv5sfmJaCeKa28tabaEpcahaW6zy3&#xA;M9PsRpdesiIoILGh9j4a/Ljhj8y5EJSl5PK/zl07XtQ1bVNX1fVhe/oR7fSxcXMNvb3FxNMvrqiR&#xA;2saLxWNywaTqBt4ZkYJCgAObVkBZT5V/5x0sYNBubnzXeRNqmoW4j0u2t5SEtppKMjySj4ZJP2eC&#xA;hl69TSleTV7+lnHDtu9j/Jjzpf6pp115V1uIx+ZPKiw2l/KGMkdxGVIhnVzvV1T4q99+9Bj5oAeo&#xA;ci2Ql0PMPSMobHYq7FXYq7FXYq7FXYq7FXYq7FXkX/ORfnD8wfLvllT5atDHp9wCmpa5EeUtsCaB&#xA;VQD93z/3726bGhzJ00IyO/yaskiOT5f8reXr7W9Qg0/R4WvtQvGoOO5J6lmJ+yo6knp3zU67LlyZ&#xA;OGQruD6X2Jh0Wk0vjQkJX9U+vurp7n2J+Vv5X6X5E0hqstxrFyoOo33Qbb+nHXpGv49T2AuwYRAe&#xA;byPa/a89Zk7oD6R+k+bxz89vziXXpn8s6BNy0WFv9Ou0O1zIp+yp/wB9Ie/7R9gK4mpz8Ww5PVez&#xA;3Yfgjxso/eHkP5o/X9zAPy58iah508ywaVbVjtVpJqF0BtDAD8R8OR6KPH2rlGLGZmnd9qdox0mE&#xA;zPP+Ed5/HN7t+eHnLT/Jnky38naFxt7u9gFukcfWCyA4M1f5pN1B/wBY9czdTkEI8IeN9n9DLV6g&#xA;58m8Ym/fL9nP5PDvyu8kzecPOFnpnEmxjP1jUpB+zbxkchXxc0Qe5zCxY+OVPYdr68aXAZ/xco+/&#xA;9nNEf85QaiLj805bBAFh0iytbSKJRRVDJ9YoB0/3fnW6SNQfGs8iZbvdPy2MB/L/AMu+j9j9H21f&#xA;9cRjn/w9c1+b6z73IhyDxf8A5ydmuD5j0eFmb6slmzxr+yHaUhyPeirXM3RfSWjPzeWx+Z9bTQJf&#xA;L5uTJpEsizfVZAHVJFNQ8ZIqh8eJ3zK4Bd9WriNUlWSYuxVMfL3mDVvL2s2usaTcNbX9m4eGVT96&#xA;sP2lYbMO4yMoiQopBp90flZ+Yun+ffKkOsW4EN5GfR1KzBr6U6gEgV34NXkp8PcHNTlxGBpzIS4g&#xA;+X/+coJ45PzbvUX7UNrao/zMQf8AU4zP0v0OPm+p5NmS1PsL8oFsR+W2g/U6ekbeslP9+l29avv6&#xA;nLNRqL4zbm4/pDzP/nIDR9VsJbq6hjhudN8xT2ZZaMbmG9tIniQxhaAiSI8d6+G21cnSyB94aso+&#xA;1Ffkx5j8v3aWsksWnaRdaWsVtdXt3NNe6relwV4WUcpCwCTiEpHU9gDjqIHzN/JcZD0D8udSFt+e&#xA;/m/SkkWOK/sLS7aCh5PLAkaBwabUWU1HfKZj90CzifWXtOYza7FXYq7FXYq7FXYq7FXYq7FXYqsm&#xA;hhnheGZFlhlUpJG4DKysKFWB2II6jFXz5518geYPyn16Tz/+XqGXRGr+nNBPxIkJIZinU+ltWo3j&#xA;67rWmbCYyDhlz6FpkDHly7kg/M7/AJyEk82aSmleW45bDTriMfpKWQgTSFlBaAcSeKA7Ma/F8uum&#xA;1xlCXAdv0vd+y3ZmHJH8wSJSHIfzT5+fc818teWtY8yaxBpGkQGe8nOw6Kij7Ukjfsovc/xzAhAy&#xA;NB7HV6vHp8ZyZDUR+KD6mtLbyr+TP5fvLKRNdtQytsst5dkfCi9wg7fyrU9a12QEcMPN84nPP2rq&#xA;qGw+yMfx8y+W9e1vWvNXmGbUr0tc6lqEoCxoCd2PGOKNdzQbKozWykZGzzfRtPp8emxCEdoRH9pL&#xA;6f8Ay88raX+Vn5f3Wra0ypfvELrVpRSoIH7q2TxKluI8XJzY4oDFCy+d9p6yfaOqEMf03Uf0y/HR&#xA;8g+ePMV75j826nrd7/vRfTGQrWoRaBUQHwRAFHyze6Ik4okvP9rYI4tTPHHlE18gPvfQX/OOmvtq&#xA;HkZ9NkasukXDRKO/oy/vUJ/2TOPozG1cKlfe04TYQv8Azkb5SuNT8uWuuWkZkl0dn+sqoqfq8tOT&#xA;7f77ZQfYEnDpMlGu9GaNi3zVmycV2KuxV2KvYv8AnFrzRc6X+ZKaRzP1LXYZIZYyfh9WBGmif5ji&#xA;yj/WzF1cLhfc3YTRemwfk75Y/NOTzB5s1Oe5tru+1a6i0u9tnXi1nZhLSLlG4ZWHKBztQ++UeMcd&#xA;RHc2cAlZYxqn/OHesoxOleY7edey3UDwEfTG09fuywa0dQxODzRWhflb+evkTSLuwsBaa3pt2GBt&#xA;rC7Mdxbu4IMtu9zFGqsNqijfLvkZ5MczZ2KRGUWHWP8Azjn+b+vas1xfxGxV3DHUNTukkm2NakQt&#xA;PIWHbpX2y06mERsw8KRZn5j/ACG82+SNPv8Azt5b8y/WtasbdpLmEWEKGRKA3DoS0iVCgvulTTrX&#xA;Ko54z9JGzI4yNwVP/nFXzBpWpeZ9ek1cmfzhdxiWHUZnJeW2qBLEoJ4jiyo2w6ey4dXEgCvpXCbO&#xA;/N9M5gOQ7FXYq7FXYq7FXYq7FXYq7FXYq7FWmVWUqwBUihB3BBxV8nfn5+Ult5O1iHzNosfoeWtT&#xA;mEV9bRryFpM1TVF2/duASo7H4dgVzInjGohwH6hyLmdmdpT0ObxI7wO0o94/X3PafLVl+XH5X+Rk&#xA;1mK6WW3vIklOqEAz3pdOcaxL4MD8CdhuT1Oa8QjhG/N2GbUantTMAB7h0iO8/pP9j5v/ADF/MHV/&#xA;O2uvqF4TFaR1SwsQxKQx/wAXbqzd/lQZrsuUzNl9B7L7MhpMfDHeXU9/7O57R+Q/5PHS44vNnmGG&#xA;moSKH0yzkG8CMP72QH/djD7I/ZHv0y9Ngr1F5L2i7c8QnBiPp/iPf5Dy+/74T+fn5pL5k1QeX9Jl&#xA;5aJpshMsyH4bi4GxYHuke4XxNT4ZTqc3EaHIO39nOyPAh4sx+8l9g/Wfx1eBXTcrmU/5Z/XnVaWN&#xA;Yoj+iHzftPJx6rJLvnL730L/AM4xWFxFoOs3zrSC5uY4oSe5hQliPb96MxtadwGnANnpH5hX0Nj5&#xA;G165l+ythcIB4tJGUQfSzAZjYhch722Z2L4tzcuC7FXYq7FU/wDImpapp3mqyudIiebVSJYNPjj+&#xA;19YuYXgiI/1XkDfRkMgBG/JlE7vvDyX5ch8teU9J0GIhhp1tHC7jYPIBWR/9m5LfTmonLikS5sRQ&#xA;pOsgl2KuxVplV1KOAysKMp3BB6gjFXxN530rUPyj/OMXWlqVtraddQ0sGoWS0mJDQk/y05wn5Ztc&#xA;ZGSG7iSHDJ9naLq9jrOkWerWD+pZ38KXED+KSKGFfcV3GauQo0XKBtGYEuxV2KuxV2KuxV2KuxV2&#xA;KuxV2KuxVJ/OPlmy80eV9S0C8oINQgaIORX036xyAeMbgMPlkoS4SCiQsU+HLm98w1Xy7q88zy6A&#xA;8ljDZyMWEPGRuaIv+vUfd7ZjdrY6mJj6ZB7r2M1MDinjoCcTfvH7H0D+Sv5GNavB5m81wD6wOMum&#xA;6XIP7s9VlnU/tfyp26nfYUafTfxSau3vaHivDgO38Uu/yHl5u/Pf85lgjn8p+W7itw1YtWvoz9gd&#xA;GgjYH7R6Oe3TrWg1Oo/hC+zvYXERnzDb+EfpP6Hgem6VcXwu5UBFtYW8l3eTdkijH/EnaiKO7EZj&#xA;4MJyTER1eq7U7QjpMEskufQd56Mw/Iv8vNO8y6P5iutVhDwXCLYWkxFSkh/eySIT0ZD6ZGdRqcpi&#xA;QA+MY48VkvaPyx0BtB8iaPp0icJ1gE1wp2IlnJlcGvgXpmHmlxTJboCgw/8A5yP1z6l5Ih0xGpLq&#xA;tyiMvjFB+9Y/8GI8t0kblfcwzHZ8yZs3FdirsVdir37/AJxG8rrd+ZdW8xXECyQ6bbrbWskihuNx&#xA;cNyLRkjZljjIJHZvfMPWToAN+Eb2+q81zkuxV2KuxV2KvFv+cpfI41ryOmv20fK/8vuZHp1a0mIW&#xA;UbdeDBX9gGzK0mSpV3tOaNi0j/5xM8+m70q98mXktZtPrd6YGO5gkb99GP8AUkYN/sz4ZPWY6PEj&#xA;DLo+hcwm92KuxV2KuxV2KuxV2KuxV2KuxV2KuxV8zfnBZwfl9+eGiefGtFn0fU3WS9jKBgs0YEU7&#xA;KOnMIUlQ93rmbjiMuPhPMcmvxZYpExJHEKPu7kV+a/8AzkIdRhl0XydI0dnIClzq9CkkinYrADRk&#xA;U/zn4vCnfRajUmzEPfdh+zsQBmzUesY9PInv93J475e8u6x5h1aDStIt2ubyc0VF6Kvd3boqr3Jz&#xA;EjEyNB63VarHggZ5DUQzX85RpPkby1a/lvo8guNUvDFfeaL1R8UjLvbweyBjzC9vhP7Rzo+ztKID&#xA;ifJO2+1p6vJZ2iOQ7h+s9Xr35aeV/wDDPkvTdLdeN0I/WvfH15fjcH/Vrx+jIZp8UiXAhGgyjKmb&#xA;5v8A+cmtSeXzVpenVrHaWRmp4PPKwb/hYVzY6Meklxs53eOZmNDsVdiqM0jSNS1jU7bS9Mga6v7y&#xA;RYreBOrO3z2A7knYDc4JEAWUgW+8Pyt8hWvkbybZ6HGyyXQrPqFwvSW5kpzYdPhWgRf8kDNPlycc&#xA;rc2EaFMtytk7FXYq7FXYqoX9lbX9jcWN0gltbqJ4J4z0aORSrKfmDhBpS+c/IH/OPP5geT/zPsNX&#xA;t7y0k0Wymctd82Ekts6sjIYeP22RvHiDvXM3JqYyhXVx44iC+k8wXIdirsVdirsVdirsVdirsVdi&#xA;rsVdirsVYP8AnJ5BXzv5FvdLiQHU4P8AStLY7UuIgaLU9BIpKfTXtluDJwSthkjYfJf5XeUj5r8z&#xA;r5YutQj0m5o/A3CsXZoz8cSJtWQCpozDoch2hoOKXHHrz/W9N2J7T/lsBxTBkY/T+o/ofSGu3Pkj&#xA;8jPJEs1hCJ9avQY7UzUa4u5wOshFOMUdakCgH+sd46XSi6HxLqu1O1suplxZDt0j0H473hf5QeV9&#xA;V87+eZvNeuM1zbWlwbu7nkG092TyjjHaimjEDYAAd82eoyCEeEOnxx4jZfTWaxynYq+ff+clPKeo&#xA;nUrPzPBE0lh6C2l46ivpOjsUZ/BXElAelR7jM/R5BXC4+aPV4dmc47sVT/yf5E81ecNRFhoFhJdP&#xA;UCaenGGIH9qWU/Cg/E9q5CeQRFllGJPJ9gfk/wDklov5f2hupXXUPMdwnG6vytFjU7mK3B3VPFju&#xA;3sNhrM2cz9zlQx8L0rKGx2KuxV2KuxV2KuxV2KuxV2KuxV2KuxV2KuxV2KuxV2KuxV2KuxV2KvlX&#xA;/nKDypofl3zNp3mnRb0WOvajL61xYxErJ6kRBW8jKj4DyFGqd23G/LNjpZmQo8nGzAA28p1PzJrn&#xA;nzzTFeeZLu5vJ5AsYS1h9WXgg2it4F4oCevYdSanrkCIhHZrJs7vf/LVp+bCaNb6Z5Q8kwaBpcC8&#xA;YrjW56SOTuzvBH6codupqDv92YMxC7lKz5N4Mq2CbH8t/wA/Lz/erzhpunqxHKOytfVAHejSxI/4&#xA;5HjxDoU8M+9av5Kfmu8tZfzJlRWNWKWdafJfVUYfGx/zV4Jd6+X8ifzDmieKb8zLiSKQFZI305WV&#xA;lOxBBuKEHB40P5v2rwS72Pw/84eWDSGS980SSliSwgso4Bv4D1ZAPoGWfnT3MfA82W6B/wA4u/ld&#xA;pbrLdxXWsSKa0vJqR1/1IBDUezVyuWrmfJkMMXqem6Xpml2cdlplpDZWcX93b28axRr8lQAZjkk8&#xA;2wCkVgS7FXYq7FXYq7FXYq7FXYq7FXYq7FXYq7FXYq7FXYq7FXYq7FXYq7FWLfmR+YGk+RfLE+tX&#xA;372b+6sLMGj3Fww+CMeA7sew8TtlmLGZmgxnKg8D8rfkX52/MnWZfOH5gXUum2t8wlW3ApdSR/sI&#xA;iNVYIwuy8gT/AJPfMyeojAcMWgYzLcvoXyj5A8oeUbQW3l/TIrOopLcAc55P+MkzVdvlWg7ZhTyS&#xA;lzLfGIHJkGQZOxV2KuxV2KuxV2KuxV2KuxV2KuxV2KuxV2KuxV2KuxV2KuxV2KuxV2KuxV2KuxV2&#xA;KuxV2KsIt/JC695sHm3zNF631EmPy1pMu8dpGDvcyJ0NxMw5b/YHEfaG1pyVHhHxYcNmyzfKmbsV&#xA;dirsVdirsVdirsVdirsVdirsVdirsVdirsVdirsVdirsVdirsVdirsVdirsVdirsVdirsVdirsVd&#xA;irsVdirsVdirsVdirsVdirsVdirsVdirsVdirsVdirsVdirsVdirsVdirsVdirsVdirsVdirsVdi&#xA;rsVdirsVdirsVdirsVdirsVdirsVdirsVdirsVdirsVdirsVdirsVdirsVdirsVdirsVdirsVdir&#xA;sVdirsVdirsVdirsVdirsVdirsVdirsVdirsVdirsVdirsVdirsVdirsVdirsVdirz+D805nktfV&#xA;srSO3njtrma4W9MghiuiQEdEhMhmTj8aheK1WrCuKoOL84b86RbancaAYYrq3iuYQZrgBlmSNwA7&#xA;2ka7GRhyaitx+AsTTFU4n8+6pCkZbR0JliedJBdH0VjhbhL6khhBUq8kIA4moev7JxVCv+a8UV2Y&#xA;JdO5RQeqL29glaa1RopXLLHMIgrsLWCWYqeLVVUAPLkFUHb/AJyNLpb6o2iOLC3t7ie9mSYt6L25&#xA;+IEGJWaPjLAzSAUUOSRRGOKprc/mI6NJ6UNiE9WC1iE996UvqziEhnj9JuMQ+sfa5VO3w/Fsqp2X&#xA;5my3VytuujyMzXsNmLmKUyWrI8qRTTrOIwOKGaMoCAZA6kU+LiqznFXYq7FXYq7FXYq7FXYq7FXY&#xA;q7FXYq7FXYq7FXYq7FXYq7FXYq7FUp833L2vlPWrqOUwSQWF1KkysVZCkLMGDDcFaVrir58+uW8G&#xA;h2fmKfTIY9KleIvr0l5aPaSK4jaSAWnpBl4mR05c+a8OTkgMuBDG4r3WHt2hgms11C/KTaek6Wzr&#xA;cRrCsjNbKhVjHz5NIykUhKlF58qqtS67qEMD3txNaWltbJJFPOj2o9CeNaelJLGkbfWFLjmUApIY&#xA;+NFL4q+th+juJp6PH1t/s09ev/E6/ThSub6l6I5en6PFeNePHjUcadqVpTFVKL9E/Vj6X1f6rRuX&#xA;Hh6fHbnWm1OlcVVYvqXpD0vT9L4acePH7I49Nvs0p7Yq2PqtGp6dKHl06UHKv0Uriqmf0bVq+jX0&#xA;jzrw/uamtf8AIrX2xVVT6t6Y9Ph6fw04041oOPT6KYqqYq7FXYq7FXYq7FXYq7FXYq7FXYq7FXYq&#xA;7FXYq7FXYq7FXYq7FXYqh9S/R/6Ouv0l6X6O9GT656/H0vR4n1PU5fDw415V2pir56f/AKE2+q/H&#xA;6P1SgpX9L+lSppT9mnKtMVTyD/oW79KaV6H179K/Vf8AcHw/T/1j6n9X/wCPSnx+j9W/338Pp/5O&#xA;Kq0H/Qt/6Avaet/h76436T9f9M/UvrnqRep9Z9X91z9T0ufqd+Ne2Kv/2Q==</xmpGImg:image>
               </rdf:li>
            </rdf:Alt>
         </xmp:Thumbnails>
      </rdf:Description>
      <rdf:Description rdf:about=""
            xmlns:xmpMM="http://ns.adobe.com/xap/1.0/mm/"
            xmlns:stRef="http://ns.adobe.com/xap/1.0/sType/ResourceRef#"
            xmlns:stEvt="http://ns.adobe.com/xap/1.0/sType/ResourceEvent#">
         <xmpMM:OriginalDocumentID>uuid:9E3E5C9A8C81DB118734DB58FDDE4BA7</xmpMM:OriginalDocumentID>
         <xmpMM:DocumentID>xmp.did:E55138E141206811822A8451A1857300</xmpMM:DocumentID>
         <xmpMM:InstanceID>xmp.iid:E55138E141206811822A8451A1857300</xmpMM:InstanceID>
         <xmpMM:RenditionClass>proof:pdf</xmpMM:RenditionClass>
         <xmpMM:DerivedFrom rdf:parseType="Resource">
            <stRef:instanceID>xmp.iid:E45138E141206811822A8451A1857300</stRef:instanceID>
            <stRef:documentID>xmp.did:E45138E141206811822A8451A1857300</stRef:documentID>
            <stRef:originalDocumentID>uuid:9E3E5C9A8C81DB118734DB58FDDE4BA7</stRef:originalDocumentID>
            <stRef:renditionClass>proof:pdf</stRef:renditionClass>
         </xmpMM:DerivedFrom>
         <xmpMM:History>
            <rdf:Seq>
               <rdf:li rdf:parseType="Resource">
                  <stEvt:action>saved</stEvt:action>
                  <stEvt:instanceID>xmp.iid:F77F117407206811822A8451A1857300</stEvt:instanceID>
                  <stEvt:when>2013-10-06T17:09:14+13:00</stEvt:when>
                  <stEvt:softwareAgent>Adobe Illustrator CS6 (Macintosh)</stEvt:softwareAgent>
                  <stEvt:changed>/</stEvt:changed>
               </rdf:li>
               <rdf:li rdf:parseType="Resource">
                  <stEvt:action>saved</stEvt:action>
                  <stEvt:instanceID>xmp.iid:E55138E141206811822A8451A1857300</stEvt:instanceID>
                  <stEvt:when>2013-10-07T00:16:38+13:00</stEvt:when>
                  <stEvt:softwareAgent>Adobe Illustrator CS6 (Macintosh)</stEvt:softwareAgent>
                  <stEvt:changed>/</stEvt:changed>
               </rdf:li>
            </rdf:Seq>
         </xmpMM:History>
      </rdf:Description>
      <rdf:Description rdf:about=""
            xmlns:xmpTPg="http://ns.adobe.com/xap/1.0/t/pg/"
            xmlns:stDim="http://ns.adobe.com/xap/1.0/sType/Dimensions#"
            xmlns:xmpG="http://ns.adobe.com/xap/1.0/g/">
         <xmpTPg:NPages>1</xmpTPg:NPages>
         <xmpTPg:HasVisibleTransparency>False</xmpTPg:HasVisibleTransparency>
         <xmpTPg:HasVisibleOverprint>False</xmpTPg:HasVisibleOverprint>
         <xmpTPg:MaxPageSize rdf:parseType="Resource">
            <stDim:w>209.999929</stDim:w>
            <stDim:h>210.001308</stDim:h>
            <stDim:unit>Millimeters</stDim:unit>
         </xmpTPg:MaxPageSize>
         <xmpTPg:PlateNames>
            <rdf:Seq>
               <rdf:li>Cyan</rdf:li>
               <rdf:li>Magenta</rdf:li>
               <rdf:li>Yellow</rdf:li>
               <rdf:li>Black</rdf:li>
            </rdf:Seq>
         </xmpTPg:PlateNames>
         <xmpTPg:SwatchGroups>
            <rdf:Seq>
               <rdf:li rdf:parseType="Resource">
                  <xmpG:groupName>Default Swatch Group</xmpG:groupName>
                  <xmpG:groupType>0</xmpG:groupType>
               </rdf:li>
            </rdf:Seq>
         </xmpTPg:SwatchGroups>
      </rdf:Description>
      <rdf:Description rdf:about=""
            xmlns:pdf="http://ns.adobe.com/pdf/1.3/">
         <pdf:Producer>Adobe PDF library 10.01</pdf:Producer>
      </rdf:Description>
      <rdf:Description rdf:about=""
            xmlns:xmpRights="http://ns.adobe.com/xap/1.0/rights/">
         <xmpRights:Marked>True</xmpRights:Marked>
         <xmpRights:WebStatement rdf:resource="http://www.ospreydawn.com"/>
         <xmpRights:UsageTerms>
            <rdf:Alt>
               <rdf:li xml:lang="x-default">This work is licensed under a &lt;a rel="license" href="http://creativecommons.org/licenses/by-nc-sa/3.0/"&gt;Creative Commons Attribution-NonCommercial-ShareAlike 3.0 Unported License&lt;/a&gt;.</rdf:li>
               <rdf:li xml:lang="en_us">This work is licensed under a &lt;a rel="license" href="http://creativecommons.org/licenses/by-nc-sa/3.0/"&gt;Creative Commons Attribution-NonCommercial-ShareAlike 3.0 Unported License&lt;/a&gt;.</rdf:li>
               <rdf:li xml:lang="en">This work is licensed under a &lt;a rel="license" href="http://creativecommons.org/licenses/by-nc-sa/3.0/"&gt;Creative Commons Attribution-NonCommercial-ShareAlike 3.0 Unported License&lt;/a&gt;.</rdf:li>
            </rdf:Alt>
         </xmpRights:UsageTerms>
      </rdf:Description>
      <rdf:Description rdf:about=""
            xmlns:cc="http://creativecommons.org/ns#">
         <cc:attributionName>Max O'Brien / Osprey Dawn</cc:attributionName>
         <cc:license rdf:resource="http://creativecommons.org/licenses/by-nc-sa/3.0/"/>
      </rdf:Description>
   </rdf:RDF>
</x:xmpmeta>
                                                                                                    
                                                                                                    
                                                                                                    
                                                                                                    
                                                                                                    
                                                                                                    
                                                                                                    
                                                                                                    
                                                                                                    
                                                                                                    
                                                                                                    
                                                                                                    
                                                                                                    
                                                                                                    
                                                                                                    
                                                                                                    
                                                                                                    
                                                                                                    
                                                                                                    
                                                                                                    
                           
<?xpacket end="w"?>
	</metadata>
<g id="Layer_2">
	<g id="_x37_Wl2mV_1_">
	</g>
</g>
<g>
	<path fill="#FFFFFF" d="M144.115,539.133c-2.574-17.281,3.29-31.442,3.362-31.612c6.271-12.541,18.022-26.541,24.467-33.741
		l2.225-2.493l-2.107-2.585c-9.893-12.104-16.08-27.601-21.54-41.263c-4.671-11.715-9.08-22.771-14.808-29.303
		c-13.73-15.646-32.629-30.681-34.73-32.351l-6.863-5.353l7.003-5.062c2.979-2.204,29.111-21.986,47.619-51.353
		c15.071-23.931,19.004-46.688,19.998-55.36l0.156-1.365l-0.73-1.162c-8.979-14.272-4.832-34.783-3.908-38.75
		c0.981-5.938,10.232-57.029,48.099-99.017c29.34-32.534,52.388-42.013,63.519-44.762l1.413-0.354l0.842-1.188
		c2.2-3.112,5.905-4.826,10.431-4.826c0.438,0,0.896,0.006,1.388,0.039c3.017,0.228,5.711,1.555,7.578,3.752
		c0.764,0.883,1.372,1.88,1.83,2.978l0.406,0.979l0.85,0.635c2.562,1.943,4.625,5.213,6.127,9.721
		c2.729,8.188,11.055,21.182,21.65,37.315c8.126,12.369,15.101,26.769,18.523,34.248l1.655,3.604l3.58-1.708
		c1.181-0.559,2.479-0.838,3.886-0.838c8.396,0,15.396,11.092,18.84,20.604c3.519,9.721,3.511,19.606,3.199,24.646l-0.078,1.257
		l0.674,1.073c0.699,1.111,1.403,2.375,2.062,3.767l0.646,1.384l1.396,0.57c5.229,2.158,10.643,7.949,16.541,17.721
		c4.806,7.95,8.013,15.95,9.518,23.778l0.229,1.162l0.828,0.838c1.776,1.812,4.247,4.515,7.729,8.565
		c8.939,10.47,10.833,14.845,11.491,17.486c0.609,2.591,1.768,4.107,2.984,5.721c1.237,1.604,2.503,3.207,3.175,5.396
		c0.965,3.073,2.452,12.776,1.55,21.354l-0.146,1.359l0.729,1.146c2.869,4.521,5.843,9.372,8.889,14.493l1.283,2.143l2.487-0.263
		c0.771-0.083,1.583-0.104,2.414-0.104c3.954,0,7.353,0.843,8.001,1.01l0.577,0.165l0.551,0.26
		c1.104,0.529,6.729,3.558,8.827,10.972l0.298,1.054l1.739,1.595c1.448,1.307,3.467,3.108,4.63,6.185
		c0.843,2.188,1.003,4.396,0.494,6.746l-0.305,1.398l0.666,1.258c1.296,2.451,1.729,4.89,1.32,7.454l-0.19,1.182l0.516,1.086
		c1.274,2.779,1.243,5.854-0.114,9.106c-0.406,0.962-0.854,1.825-1.359,2.588l-1.257,1.9l1.042,2.03
		c11.834,23.163,21.415,43.562,22.106,45.792l0.021-0.007c1.133,2.729,3.081,7.646,0.384,12.188
		c-1.806,3.022-4.979,4.789-9.438,5.22c-0.591,0.059-1.2,0.092-1.803,0.092c-8.062,0-13.265-5.552-14.848-11.051
		c-5.015-12.938-11.974-28.075-20.798-45.312l-0.928-1.818l-4.406-0.617l-1.118,0.599c-7.048,3.717-15.415,5.381-20.584,5.381
		c-0.479,0-0.972-0.011-1.429-0.047c-3.466-0.193-6.285-0.905-8.438-2.121l-0.788-0.438l-0.895-0.054
		c-10.812-0.646-20.248-1.979-28.058-3.953l-3.708-0.94l-1.021,3.688c-0.591,2.109-1.289,4.521-2.127,7.271
		c-2.54,8.37-5.575,14.396-9.027,17.917l-0.843,0.859l-0.212,1.188c-0.504,2.854-1.594,7.358-3.894,12.685
		c-3.854,8.884-11.979,21.885-28.776,33.397c-23.525,16.151-45.53,16.354-71.008,16.592c-9.021,0.085-19.212,0.165-30.324,1.021
		c-48.898,3.812-77.413,38.788-77.695,39.138C151.254,522.719,146.83,531.806,144.115,539.133z"/>
	<path fill="#D6D6D6" d="M167.915,493.01c4.32-5.604,8.479-10.386,10.899-13.104l7.473-8.375l-7.098-8.679
		c-8.991-11.01-14.902-25.805-20.118-38.851c-4.962-12.451-9.654-24.228-16.423-31.951c-11.679-13.294-26.784-26.062-33.313-31.377
		c8.149-6.426,30.613-25.438,47.197-51.747c16.076-25.521,20.291-49.92,21.358-59.229l0.521-4.578l-2.447-3.896
		c-7.188-11.438-3.213-29.709-2.729-31.753c1.015-6.045,9.941-55.015,45.962-94.94c27.704-30.718,48.785-39.492,58.883-41.988
		l4.752-1.174l2.825-4.007c0.584-0.825,2.219-0.92,2.895-0.92l0.781,0.021c0.299,0.024,0.833,0.146,1.16,0.526l0.354,0.571
		l1.375,3.282l2.845,2.134c0.346,0.26,1.653,1.479,2.92,5.27c3.088,9.25,11.352,22.19,22.691,39.46
		c7.778,11.844,14.522,25.778,17.854,33.029l5.551,12.106l12.026-5.732c1.587,0.058,6.688,5.181,10.089,14.578
		c2.949,8.147,2.938,16.615,2.668,20.938l-0.259,4.229l2.245,3.574c0.526,0.838,1.047,1.771,1.521,2.793l2.158,4.604l4.725,1.942
		c1.854,0.762,5.897,3.6,12.15,13.956c4.254,7.023,7.062,14.013,8.369,20.769l0.769,3.917l2.781,2.812
		c1.657,1.688,3.993,4.247,7.275,8.083c7.812,9.146,9.277,12.635,9.542,13.708c1.049,4.408,3.188,7.226,4.604,9.085
		c0.87,1.104,1.532,1.969,1.695,2.521c0.648,2.044,1.958,10.489,1.194,17.683l-0.482,4.554l2.458,3.86
		c2.818,4.438,5.745,9.226,8.755,14.267l4.317,7.206l8.325-0.876c0.477-0.051,0.957-0.062,1.453-0.062
		c2.229,0,4.322,0.406,5.236,0.608c1.08,0.646,3.005,2.116,3.854,5.094l1.016,3.573l3.657,3.354
		c1.219,1.094,1.886,1.724,2.234,2.646c0.188,0.495,0.255,0.861,0.107,1.548l-1.003,4.691l2.234,4.223
		c0.44,0.848,0.426,1.282,0.354,1.694l-0.62,3.938l1.682,3.64c0.062,0.133,0.234,0.513-0.254,1.682
		c-0.166,0.396-0.343,0.763-0.552,1.08l-4.219,6.35l3.481,6.839c12.056,23.601,20.711,42.152,21.586,44.543l1.118,3.019
		c0.246,0.921,0.217,1.341,0.103,1.517c-0.188,0.331-1.162,0.645-2.408,0.757c-0.297,0.032-0.604,0.058-0.911,0.058
		c-4.593,0-5.854-3.937-5.979-4.38l-0.269-0.789c-5.071-13.104-12.214-28.642-21.188-46.184l-3.112-6.09l-12.107-1.694l-3.771,2.011
		c-5.34,2.812-12.223,4.3-16.248,4.3l-0.652-0.015c-3.019-0.185-4.271-0.735-4.688-0.971l-2.635-1.498l-3.054-0.172
		c-10.188-0.602-19.056-1.849-26.312-3.688l-12.458-3.156l-3.421,12.386c-0.565,2.039-1.251,4.377-2.063,7.051
		c-2.756,9.1-5.438,12.771-6.795,14.153l-2.823,2.869l-0.716,3.992c-0.419,2.378-1.325,6.128-3.274,10.646
		c-3.362,7.768-10.525,19.178-25.528,29.461c-21.212,14.565-40.924,14.743-65.882,14.979c-9.422,0.082-19.682,0.177-30.946,1.047
		C205.037,468.719,182.147,481.927,167.915,493.01z"/>
	<g>
		<polygon fill="#FFFFFF" points="111.375,360.552 145.995,393.771 160.335,421.749 188.998,468.26 200.195,466.154 
			226.072,425.594 231.675,389.931 241.811,341.107 257.198,310.552 278.17,292.025 283.411,277.644 274.678,273.631 
			251.595,267.187 239.008,252.996 230.275,236.774 185.157,176.278 177.827,197.301 172.919,222.883 180.264,246.92 
			171.867,282.795 159.632,307.403 142.855,329.784 125.363,347.061 		"/>
		<path fill="#FFFFFF" d="M246.325,353.467c0,0,2.21-17.027,16.629-25.948c0,0,0.793,4.979,4.729,7.34
			c3.937,2.363,7.854,1.835,8.901,0.802c1.058-1.057-3.667-13.64,12.062-22.814c15.739-9.188,33.837-12.857,38.42-15.485
			c4.596-2.61,4.071-7.339,4.071-7.339l-24.651,2.1l-29.632,8.923l-18.1,17.313l-12.438,24.369L246.325,353.467L246.325,353.467z"/>
		<path fill="#FFFFFF" d="M373.647,246.92c0,0,12.044,28.396,12.305,35.875c0.254,7.479-17.575-1.689-17.575-1.689l-5.765-24.725
			l2.354-5.969L373.647,246.92z"/>
		<path fill="#FFFFFF" d="M362.612,217.371c0,0,8.337,16.127,10.229,24.121l8.126-4.188c0,0-8.647-33.829-13.629-24.648
			L362.612,217.371z"/>
		<path fill="#FFFFFF" d="M360.508,334.596c0,0-23.598,9.437-22.8,9.437c0.78,0,15.198,17.309,15.198,17.309l9.706,20.979v20.458
			h3.935l3.409-7.347l4.338-10.229l3.812-18.604l2.868-23.613l-6.68-11.262L360.508,334.596z"/>
		<path fill="#FFFFFF" d="M444.734,344.592c0,0-0.96,2.724,1.537,2.464c2.493-0.271,6.508-4.396,10.622-7.073
			c4.12-2.71,0.252-5.796-1.119-4.539c-1.376,1.25-4.126,2.304-4.126,2.304L444.734,344.592z"/>
		<path fill="#FFFFFF" d="M446.136,354.515c0,0-0.914,3.544,6.562,0.794c7.476-2.751,7.075-8.261,7.075-8.261
			s-4.059,4.317-8.788,4.667C446.271,352.033,446.136,354.515,446.136,354.515z"/>
		<path fill="#FFFFFF" d="M452.054,362.598c0,0,5.498,0.311,7.722-1.521c2.222-1.836,4.138-6.354-0.166-5.34
			c-4.293,1.01-6.667,3.358-6.667,3.358l-3.396,3.518L452.054,362.598z"/>
		<path fill="#FFFFFF" d="M455.864,369.69c0,0,4.787-1.01,6.312-2.845c1.537-1.834,1.567-4.109,0.617-3.544
			c-0.96,0.579-5.067,4.204-6.935,3.798c-1.854-0.387-1.979,1.849-1.979,1.849L455.864,369.69z"/>
		<polygon fill="#FFFFFF" points="288.736,232.056 299.019,242.368 302.478,239.929 299.019,223.136 		"/>
		<polygon fill="#FFFFFF" points="234.639,234.844 235.691,243.835 251.256,243.835 280.958,213.352 304.219,179.594 
			329.755,164.393 336.213,168.234 332.018,187.815 341.278,207.935 353.687,211.777 364.012,206.005 369.427,195.86 
			367.691,170.513 359.283,156.348 355.63,156.348 354.565,159.504 349.497,172.437 346.357,167.371 345.307,158.799 
			337.787,150.755 305.377,162.29 282.198,189.39 257.713,226.272 		"/>
		<path fill="#FFFFFF" d="M322.154,214.927c0,0-1.495,0.432-1.063,2.521c0.445,2.102,3.807,3.074,6.322,6.076
			c2.521,3.021,6.44,4.076,6.44,4.076l2.665-1.714c0,0,2.415-1.702,2.671-6.076c0.27-4.355-0.526-4.8-2.104-5.601
			c-1.569-0.774-12.671-1.308-12.671-1.308L322.154,214.927z"/>
		<path fill="#FFFFFF" d="M339.634,222.883c0,0,2.613,1.137,2.613,2.971c0,1.842-0.283,1.842,0.552,2.75
			c0.854,0.915,0,1.708,0,1.708h-3.556l0.471-3.727L339.634,222.883z"/>
		<path fill="#FFFFFF" d="M342.007,233.434c0,0,1.024,6.832,0.771,9.714c0,0-1.388,0.616-1.565,1.403
			c-0.188,0.794,1.038,0.172,2.354,0.692c1.313,0.527,1.672,0.102,2.102-0.794c0.435-0.856-0.324-9.245-2.479-11.701
			C341.021,230.304,342.007,233.434,342.007,233.434z"/>
		<path fill="#FFFFFF" d="M347.841,243.835c0,0-1.226,0.743-0.688,1.646c0.515,0.896,1.562,0,1.562,0s0.524-0.396,0-1.271
			C348.19,243.32,347.841,243.835,347.841,243.835z"/>
		<path fill="#FFFFFF" d="M321.091,233.543c0,0-3.665,0.432-3.584,3.403c0.101,2.984,5.86,6.661,6.118,9.974
			c0,0,1.05-4.104,5.688-6.292c4.634-2.189,5.062-5.162,8.128-5.339C337.438,235.288,325.552,232.572,321.091,233.543z"/>
		<path fill="#FFFFFF" d="M320.324,286.876c0,0-4.394,0.647-6.363-8.54c-1.968-9.181,0-11.604,0-11.604s-3.597,0.577-4.058,7.625
			c-0.47,7.062,2.035,13.683,2.035,13.683l7.671,0.508L320.324,286.876z"/>
		<path fill="#FFFFFF" d="M327.91,269.816c0,0-3.936,2.938-3.584,6.362c0.349,3.402,5.374,6.889,9.378,7.143
			c0,0-2.346-4.394-1.062-8.534C333.892,270.667,327.91,269.816,327.91,269.816z"/>
		<polygon fill="#FFFFFF" points="335.144,273.631 339.797,279.587 349.701,279.587 349.701,274.279 344.065,275.004 		"/>
		<polygon fill="#FFFFFF" points="335.872,260.965 338.677,262.673 351.075,262.152 351.075,257.365 348.313,257.028 
			342.746,257.486 339.268,257.422 		"/>
		<polygon fill="#C6190C" points="333.044,264.831 331.145,269.358 333.704,272.902 340.523,274.451 347.975,274.451 
			347.006,270.343 342.422,265.289 		"/>
		<path fill="#FFFFFF" d="M286.402,248.698c0,0-1.158,3.479,1.013,4.298c2.167,0.826,4.917,4.623,5.51,5.879
			c0.601,1.239,1.562,1.956,3.021,1.312c1.429-0.66,1.695-2.241,0-4.464l-1.079-1.873c0,0-0.632,0.037-1.093,1.092
			c-0.457,1.054-2.168-0.565-1.897-1.333c0.254-0.771,0.067-0.876,0.254-2.279c0.203-1.399-1.252-1.645-1.569-1.511
			c-0.323,0.14-2.993,1.593-3.072-0.646c-0.083-2.235,0.377-2.591,0.377-2.591S286.701,246.908,286.402,248.698z"/>
	</g>
	<polygon fill="#FFFFFF" points="393.293,321.733 395.363,339.347 416.49,341.107 420.783,339.347 439.275,335.148 430.576,321.733 
		423.828,309.554 413.177,317.011 	"/>
	<g>
		<path fill="#C6190C" d="M197.229,199.402c0,0-19.282,32.197-13.758,45.271l-2.594,2.604l-5.511-12.343l-2.896-17.562
			l12.384-38.812l12.371,11.791L197.229,199.402L197.229,199.402z"/>
		<path fill="#C6190C" d="M207.865,214.431c0,0-20.701,32.838-14.326,44.711l3.691,10.4l4.585,1.25c0,0,1.873-23.524,22.073-41.372
			l-6.037-8.382L207.865,214.431z"/>
		<path fill="#C6190C" d="M232.887,248.419c0,0-18.804,27.227-18.489,44.122l3.722,13.733l7.761,8.945
			c0,0,0.979-25.562,19.684-46.77l-7.251-12.076L232.887,248.419z"/>
		<path fill="#C6190C" d="M263.79,275.663c0,0-24.956,38.562-28.623,55.563l4.203,9.136l13.368-20.977l6.026-19.666l5.021-6.31
			l6.771-3.144l-1.038-3.866l1.038-4.598l6.032-3.601l-4.46-3.21L263.79,275.663z"/>
		<path fill="#C6190C" d="M190.102,269.72c0,0-0.041,23.168-25.229,55.959c-25.171,32.771-39.308,43.096-39.308,43.096
			l-11.832-5.337l-2.359-3.411l44.59-46.681l23.855-56.973l6.305,2.769L190.102,269.72z"/>
		<path fill="#C6190C" d="M200.843,282.795c0,0,0.229,22.433-22.854,53.645c-23.073,31.195-40.121,43.797-40.121,43.797l3.938,9.432
			l8.933,6.238c0,0,20.283-13.839,39.365-42.688c19.096-28.847,22.976-51.854,22.976-51.854l-4.971-11.608L200.843,282.795z"/>
		<path fill="#C6190C" d="M157.532,408.466c0,0,20.457-15.646,38.809-42.407c18.369-26.736,25.396-50.832,25.396-50.832l8.248,9.931
			l3.205,8.315c0,0-7.562,23.938-25.079,47.271c-17.534,23.354-42.963,44.604-42.963,44.604l-5.257-5.518L157.532,408.466z"/>
		<path fill="#C6190C" d="M171.437,437.01c0,0,32.895-20.023,58.543-66.735l1.25,22.799l-5.836,17.816
			c0,0-25.604,36.769-44.771,40.562l-9.188-4.082L171.437,437.01L171.437,437.01z"/>
	</g>
	<path fill="#0C234D" d="M494.26,424.808c-0.285-1.021-10.769-23.708-25.379-51.874c0.661-0.146,3.562-0.996,5.101-4.685
		c1.752-4.203-1.227-4.725-1.227-6.996c0-2.274,1.93-3.666-0.688-7.348c-2.631-3.682,0.862-5.422-0.521-9.088
		c-1.403-3.675-5.437-4.202-6.819-9.27c-1.403-5.085-5.429-6.998-5.429-6.998s-7.861-2.086-12.421,0.525c0,0-0.688,0-1.826,0.276
		c-4.864-8.368-9.829-16.547-14.744-24.172c0.12-0.528,0.229-1.078,0.325-1.656c1.225-7.671-0.179-17.633-1.056-20.434
		c-0.876-2.812-4.724-5.066-6.299-11.554c-1.562-6.456-18.882-24.646-19.581-24.979c-0.699-0.362-0.35-9.979-9.447-24.997
		c-9.08-15.041-14.152-15.917-16.954-15.569c0,0-2.959-8.216-5.599-10.146c0,0,2.095-13.29-2.445-25.873
		c-4.539-12.593-12.762-20.271-15.562-14.166c-2.786,6.121-2.965,15.391-2.965,15.391l-3.326-5.765c0,0-0.336-10.838-3.313-10.838
		c0,0-9.271-21.861-20.633-39.163c-11.356-17.314-19.395-29.905-22.371-38.825c-2.979-8.909-6.645-7.168-6.645-7.168
		s0.539-6.114-4.448-6.451c-5-0.368-6.912,2.083-6.927,5.238c0,0-26.924,1.042-65.385,43.702
		c-38.461,42.667-46.492,95.804-46.492,95.804s-5.943,24.134,4.892,36.711c0,0-1.051,30.077-21.333,62.269
		c-20.283,32.166-49.309,53.137-49.309,53.137s20.632,16.091,35.67,33.212c15.039,17.146,19.93,56.654,42.646,77.277
		c0,0-20.969,21.335-30.062,39.511c0,0,29.755-37.466,82.258-41.549c41.169-3.206,68.107,4.14,98.175-16.481
		c30.064-20.643,30.414-45.806,30.414-45.806s4.896-0.697,9.806-16.787c4.879-16.095,4.188-18.184,4.188-18.184
		s10.134,6.293,40.562,7.684c0,0,0.857,2.104,6.815,2.45c5.942,0.354,15.897-2.273,21.675-6.463c0,0,4.197,1.396,8.922,1.047
		l0.458-0.122c9.04,17.386,17.84,35.673,24.021,51.695c0,0,1.74,7.424,9.868,6.643C498.987,433.204,494.786,426.643,494.26,424.808z
		 M419.615,308.103c0.526,4.539-4.03,4.539-4.03,4.539c0.186-2.09-5.043-16.954-5.043-16.954
		C419.126,295.866,419.089,303.561,419.615,308.103z M250.031,235.212c9.61-3.853,32.747-40.691,38.975-49.835
		c6.238-9.124,12.104-18.812,32.011-27.271c22.209-9.447,26.566,1.226,22.021,17.479c-4.584,16.414-1.753,28.854,9.796,27.979
		c10.147-0.771,11.995-10.241,11.941-22.35c-0.07-17.86-8.104-24.686-8.104-24.686c5.438,0.673,13.021,20.99,9.784,38.108
		c-2.666,14.178-18.165,15.521-26.209,6.479c-8.127-9.146,2.09-29.905,0.701-38.646c-1.403-8.736-31.831-1.06-46.171,21.321
		c-14.324,22.395-32.687,47.563-37.938,51.229c-5.234,3.676-8.222,5.604-13.638,5.938c-5.419,0.354-6.133-2.965-6.133-2.965
		S240.408,239.053,250.031,235.212z M363.664,269.117c1.229,6.819,2.786,13.46,2.786,13.46c-6.117,3.492-12.938,2.979-12.938,2.979
		c-0.161-0.876-0.688-2.979-0.688-2.979c1.05-5.238,4.379-12.584,4.379-12.584C360.171,270.857,363.664,269.117,363.664,269.117z
		 M346.371,259.994c-3.908-0.407-8.207,1.739-8.207,1.739l-0.794-1.029c0.068-1.047,2.036-2.946,3.868-2.812
		c1.83,0.121,5.054,0.188,5.914,0c0.838-0.203,2.479-0.781,2.873,0.387c0.391,1.162,0.012,2.496,0,2.552
		C350.037,260.775,349.984,260.343,346.371,259.994z M343.138,276.108c3.279,0.203,4.852-0.324,4.852-0.324
		c0,2.482-0.594,2.876-0.594,2.876s-0.905-0.261-2.155-0.394c-1.242-0.121-5.054,0.928-5.325,0
		c-0.241-0.901-3.522-3.733-3.522-3.733S339.863,275.911,343.138,276.108z M333.001,270.8c-0.213-0.654-1.062-1.308-1.062-1.308
		c1.495-1.575,2.155-3.543,2.155-3.543s2.561-0.387,5.312,0c2.748,0.394,3.812,1.898,5.765,3.949
		c1.981,2.032,0.917,3.924,0.917,3.924s-4.188,0.133-7.404-0.477C335.469,272.755,333.23,271.448,333.001,270.8z M341.196,255.911
		c-4.81,0-7.599,4.552-9.257,8.178c-1.67,3.625-4.029,5.729-4.029,5.729c1.4,0.781,2.804,3.669,4.732,4.971
		c1.91,1.321,2.963,1.935,4.969,4.115c2.021,2.197,4.989,2.271,5.944,1.669c0.955-0.623,2.628-0.272,2.628-0.272
		s0,1.149-1.395,2.438c-1.415,1.271-3.6,0.628-3.6,0.628c1.146,0.527,1.479,3.048,1.479,3.048s-1.651,0.285-12.564,0
		c-10.938-0.286-12.508,1.849-15.757,0c-3.226-1.848-4.448-12.052-4.448-12.052c-1.926,2.54-0.872,9.271-0.872,9.271
		c-4.286-3.684-5.594-12.771-6.038-15.734c-0.433-2.979-2.372-2.104-2.372-2.104c-4.031,2.197-5.323-0.433-6.361-2.712
		c-1.032-2.267-2.365-3.229-7.606-8.381c-5.244-5.162-2.104-10.323,0-12.292c2.102-1.955,6.036-1.778,8.044,0
		c2.007,1.804,4.634,8.09,5.324,9.499c0.691,1.391,4.729-1.062,4.729-1.062s1.832,3.945,7.521,4.282
		c5.688,0.354,9.976,4.19,9.976,4.19c-0.876-3.829-7.79-7.777-10.146-8.546c-2.355-0.755-4.026-2.896-4.026-2.896
		s1.928-2.526-0.862-5.474c-2.804-2.92-2.451-10.698-3.141-12.533c-0.715-1.848-2.276-4.54-0.281-7.346
		c2.021-2.8,14.783-8.216,24.312-8.146c9.522,0.102,13.543,0.102,17.146,2.718c3.568,2.628,2.963,7.785,3.22,9.188
		c0.271,1.396,0.108,3.313-1.387,1.91c-1.481-1.39-1.146-4.717-1.146-4.717c-0.688,0.521-1.117,0.959-1.117,0.959
		c-0.189-0.959-1.239-1.312-1.239-1.312c0.271,1.312,0,2.889-0.175,4.465c-0.162,1.573-2.887,2.083-2.188,0
		c0.701-2.104-1.562-4.719-1.562-4.719s0.163,2.45-4.641,3.41c-4.812,0.964-6.993-2.724-9.362-4.115
		c-2.359-1.396-7.856-1.048-10.48,0.958c-2.63,2.008-1.054,4.725-1.054,4.725c1.927-2.014,6.035-2.521,8.747-1.562
		c2.708,0.964,3.583,3.917,3.583,3.917c-2.888,0-5.336,3.334-5.336,3.334c1.846,0.089,2.008,0.869,5.513,2.622
		c3.505,1.739,6.819,0.691,8.205-0.267c1.403-0.978,2.63-0.609,2.63-0.609c-0.352-1.143-1.562-2.178-1.562-2.178l1.036-0.61
		c0,0,1.481,0.959,2.809,0.166c1.308-0.787,2.53,1.575,3.062,0.876c0.522-0.688,2.357-0.876,2.357-0.876l0.876,0.876v1.384
		c2.271,3.695,2.626,7.893,2.626,7.893c2.79,2.271,2.537,4.889,2.01,5.67c-0.523,0.779-2.194,0.78-3.149,0.271
		c-0.96-0.521-2.531-0.179-3.765,0.698c-1.213,0.877-4.972,0.254-3.663-2.102c1.309-2.356-0.524-2.979-0.524-2.979
		c-7.13,0-9.854,5.77-10.729,8.451c1.888-4.127,9.999-6.997,8.896-4.775c-1.229,2.445,1.311,2.979,2.532,4.465
		c1.211,1.479,1.562,2.277,5.674,2.094c4.107-0.185,5.16,0.691,5.16,0.691C346.615,256.704,346.009,255.911,341.196,255.911z
		 M291.456,273.225c3.938-1.048,5.067-3.41,5.067-3.41c0,1.657,2.496,3.061,2.496,3.061c-0.396,6.901,0.995,15.669,0.995,15.669
		c-8.653,1.339-13.625,4.097-13.625,4.097c-0.526-3.771,0.948-4.991,3.584-9.354C292.59,278.902,291.456,273.225,291.456,273.225z
		 M298.005,232.489c0,0,2.104,1.403,1.021,2.723c-1.109,1.29,0.995,4.185,0.995,4.185c-2.188-0.438-2.533-2.896-2.971-4.185
		c-0.432-1.313-3.403,0.771-2.763-0.971c0.646-1.752,1.791-2.965,1.791-2.965c-1.578,0.603-2.923,2.184-2.923,2.184
		c1.953-3.771,5.865-5.436,5.865-5.436C295.905,232.056,298.005,232.489,298.005,232.489z M271.513,286.07
		c-1.822-0.622,0.691-3.625,0.691-3.625c4.826-4.165,6.478-2.979,6.478-2.979c-1.902,2.114-3.788,5.677-3.626,4.845
		c0.155-0.846,0.612-1.861,0.612-1.861C274.421,283.403,273.316,286.718,271.513,286.07z M175.899,225.936
		c-0.527-16.438,9.258-44.063,9.258-44.063s34.972,51.759,47.555,64.336c0,0-0.348,10.858,10.854,20.629
		c11.185,9.804,25.171,8.044,29.362,11.893c0,0-5.771,4.178-4.601,9.815c0,0-9.299,5.917-11.537,11.821c0,0-4.058-1.312-4.058-5.498
		c0-4.203-2.881-4.342-2.881-4.342s-8.667,2.628-8.398,5.651c0.258,3.017,4.839,3.562,6.551,7.354
		c1.717,3.783,0.142,2.602,1.576,5.359c0,0-5.767,2.888-10.215,7.737c-4.473,4.852-3.422,11.01-3.422,11.01s4.191,0.662,7.737-1.173
		c0,0-3.843,7.035-5.03,10.31c0,0-12.938-19.58-24.822-45.455C201.934,265.454,176.424,242.368,175.899,225.936z M265.92,295.784
		c-2.438,0.984-4.981,2.616-4.981,2.616s3.007-4.324,6.938-5.835C271.809,291.055,268.332,294.786,265.92,295.784z M191.449,465.1
		c0,0-18.975-19.582-33.917-56.642c-10.499-26.052-43.005-48.26-43.005-48.26s22.385-17.132,40.915-41.253
		c18.528-24.14,25.521-58.756,25.521-58.756s15.729,14.686,27.625,33.917c11.892,19.232,28.479,45.512,28.479,45.512
		c-9.854,22.236-5.051,40.517-11.346,69.896C219.427,438.885,191.449,465.1,191.449,465.1z M324.326,307.575
		c-10.755,7.621-13.114,14.693-15.742,20.982c-2.02,4.896-10.134,8.452-12.679,5.688c-1.861-2.007-3.477,0.862-3.477,0.862
		c-1.901,3.988-3.248,9.583,0.431,14.438c0,0,2.979,6.978-1.053,4.972c-8.854-4.406-6.562-7.345-16.27-6.81
		c-9.705,0.518-6.021,26.479,1.851,35.4c7.854,8.907-14.438,49.562-7.085,66.608c4.835,11.214,18.32,12.471,20.01,12.579
		c0.104,0,0.175,0.012,0.175,0.012s-0.055,0-0.175-0.012c-2.372-0.146-31.077-1.72-53.245,0.793
		c-23.149,2.608-39.674,9.952-39.674,9.952s15.479-9.952,24.918-28.562c9.441-18.642,14.756-40.661,14.756-40.661
		s8.061,4.204,8.061,17.048c0,0,2.104-12.583,5.518-21.23c3.403-8.657,1.576-17.574-1.312-25.444
		c-2.895-7.871-6.304-18.438,1.566-37.409c7.87-18.976,25.062-36.006,54.479-42.318c29.438-6.292,44.918,1.201,63.797-8.056
		c0,0,0,2.292-3.68,4.396c0,0-2.087,14.422-12.845,23.596c0,0,9.179-13.1,3.145-17.302
		C349.755,292.888,335.078,299.974,324.326,307.575z M377.297,360.28c-1.841,24.922-12.059,40.408-12.059,40.408
		s5.511-14.693-1.574-29.379c-7.089-14.68-21.242-26.229-21.242-26.229c8.653-7.858,29.639-9.969,29.639-9.969
		S379.133,335.366,377.297,360.28z M382.72,280.299c-6.108-1.048-11.896,0-11.896,0c-0.876-19.396-4.382-24.292-4.382-24.292
		s-0.336-4.546,8.048-9.626c8.396-5.062,17.841-3.841,17.841-3.841c-6.133,0.177-10.315,3.669-10.315,3.669
		c6.106,9.619,13.466,33.042,13.466,33.042C392.339,281.531,388.835,281.353,382.72,280.299z M382.186,234.844
		c-9.955,1.229-15.736,7.562-15.736,7.562s-1.913-5.98-1.736-9.124c0.182-3.155,0-11.708,0-11.708
		c1.935-3.505,2.625-8.921,2.625-8.921s6.812-5.605,14.513,0c7.688,5.588,15.39,23.245,15.39,23.245
		S392.149,233.632,382.186,234.844z M397.933,329.435c0,0,7.339-0.878,11.522-3.854c4.212-2.966,4.737-7.854,4.737-7.854
		s3.835-1.738,7.854-2.626c0.271-0.062,0.521-0.137,0.793-0.207c2.854,4.77,7.035,11.817,11.911,20.312
		c-3.485,0.021-12.222,0.078-13.739,0.354c-1.938,0.35-5.613,3.329-5.613,3.329s-6.464,0.149-10.134-3.686
		C401.596,331.366,397.933,329.435,397.933,329.435z M436.74,366.677c0,0-16.789,4.013-12.585,6.812
		c4.203,2.812,9.627,3.156,9.627,3.156c-5.436,1.04-10.146,0.86-16.267-3.679c-6.121-4.545-10.147-15.377-3.671-25.7
		c6.47-10.312,10.666-9.077,10.666-9.077h10.649c0,0-1.354,0.381-4.363,4.188c-1.567,1.979,0.268,3.938,0.426,7.002
		c0.18,3.488,0.58,5.839,1.243,7.688c1.422,3.971,4.015,3.236,4.015,3.236c0.312,2.688,2.381,6.146,2.381,6.146L436.74,366.677z
		 M439.718,355.19c0.354,1.165-0.455,1.412-0.854,1.546c-0.405,0.134-2.99,0.61-3.91-2.079c-0.896-2.618-0.335-2.955-0.957-5.955
		c-0.581-2.806-1.102-4.669,0.606-5.725c1.708-1.033,4.069-2.88,4.069-2.88l2.223,3.289
		C435.533,346.401,438.383,350.816,439.718,355.19z M445.222,370.924c-0.396-1.189-4.451-5.246-3.276-5.105
		c1.188,0.119,2.386-0.8,2.386-0.8s1.412,1.965,2.21,3.992c0.77,2.045,3.532,1.384,3.532,1.384c-0.395,0.922,0.66,1.5,0.66,1.5
		C450.208,372.979,445.609,372.094,445.222,370.924z M468.175,367.258c-0.396,1.562-3.274,4.059-6.291,4.44
		c-3.021,0.396-4.725,0.132-5.239-0.646c-0.532-0.793-1.979-2.768,0.521-3.149c2.488-0.394,5.639-4.598,5.639-4.598
		c-1.188,0.915-4.203,1.85-4.203,1.85c-5.894,1.825-5.894-0.66-6.533-2.553c-0.635-1.884,1.695-3.1,4.839-4.134
		c3.147-1.061,2.883-4.071,2.883-4.071c-0.787,0.916-0.395,0.916-6.961,3.263c-6.544,2.352-6.019-1.021-6.019-1.954
		c0-0.921-0.781-2.222,5.258-3.396c6.044-1.188,7.722-5.258,7.722-5.258c-2.224,1.835-6.299,2.355-9.904,3.271
		c-3.608,0.912-4.516,0.14-5.038-2.354c-0.525-2.492-1.973-3.274,4.853-6.688c6.818-3.403,5.64-5.243,5.64-5.243
		c1.02-2.263,5.117-0.522,6.173,2.092c1.05,2.629-0.396,2.896,1.965,3.938c2.354,1.047,3.661,2.896,3.532,5.243
		c-0.127,2.37,0.521,5.372,1.229,7.34c0.718,1.981,1.394,4.203-0.051,6.293C466.727,363.052,468.575,365.677,468.175,367.258z"/>
	<path fill="#0C234D" d="M293.64,246.344c0,0-1.058-3.207-4.521-2.361c-3.492,0.851-2.845,5.188-2.845,5.188
		s0.419-2.184,1.793-2.673c1.375-0.479,0.458,2.59,1.172,3.455c0.729,0.843,0.134-1.379,0.688-1.848
		c0.553-0.445,0.815-1.499,0.431-1.899c0,0,3.277-0.062,3.277,3.938c0,0-0.648-1.105-1.182-1.372
		c-0.521-0.254,0.19,2.305-0.062,3.016c-0.271,0.73,1.644,1.646,2.225,0.984C295.215,252.108,294.691,248.838,293.64,246.344z"/>
	<path fill="#0C234D" d="M296.457,253.688c0,0-2.021-0.604-2.156,1.302c-0.136,1.917,1.178,1.714,2.156,2.564
		c0.983,0.857,0.917,1.905,2.562,1.505c0,0-1.896-1.117-2.023-2.686C296.86,254.806,296.929,254.413,296.457,253.688z"/>
	<path fill="#0C234D" d="M323.072,267.187c0,0,0.337,3.225,0,5.975c-0.311,2.749,0.523,6.075,3.086,7.896
		c2.558,1.81,4.987,1.734,4.987,1.734s-6.174-2.496-6.497-6.293C324.326,272.698,323.072,267.187,323.072,267.187z"/>
	<path fill="#FFFFFF" d="M301.611,140.782c0.623,2.172,1.25,4.364,1.878,6.556c2.028,0.059,4.052,0.104,6.081,0.157
		c-1.631,1.317-3.275,2.605-4.92,3.896c0.635,2.212,1.269,4.425,1.913,6.653c-1.675-1.438-3.332-2.854-4.99-4.271
		c-1.651,1.27-3.305,2.539-4.969,3.782c0.646-2.109,1.288-4.235,1.928-6.362c-1.635-1.382-3.27-2.763-4.892-4.112
		c2.02,0.048,4.048,0.106,6.066,0.157C300.349,145.094,300.987,142.946,301.611,140.782z"/>
	<path fill="#FFFFFF" d="M288.512,129.832c-0.309-2.167-0.606-4.333-0.905-6.492c1.385,1.482,2.782,2.999,4.179,4.521
		c1.771-1.077,3.537-2.156,5.293-3.258c-0.884,2.051-1.781,4.078-2.68,6.104c1.419,1.555,2.839,3.107,4.271,4.69
		c-1.986-0.321-3.969-0.612-5.957-0.923c-0.896,2-1.805,3.998-2.721,5.979c-0.303-2.188-0.604-4.365-0.913-6.542
		c-1.97-0.302-3.952-0.623-5.915-0.916C284.957,131.956,286.735,130.895,288.512,129.832z"/>
	<path fill="#FFFFFF" d="M268.364,116.367c1.837,0.488,3.686,0.997,5.534,1.507c1.168-1.824,2.336-3.646,3.492-5.499
		c-0.016,2.154-0.024,4.312-0.035,6.46c1.855,0.523,3.723,1.048,5.593,1.589c-1.867,0.812-3.74,1.604-5.614,2.394
		c-0.012,2.149-0.02,4.312-0.035,6.466c-1.156-1.688-2.309-3.349-3.456-5.007c-1.879,0.773-3.759,1.557-5.646,2.312
		c1.19-1.769,2.363-3.562,3.535-5.36C270.605,119.594,269.477,117.969,268.364,116.367z"/>
	<path fill="#FFFFFF" d="M256.054,212.023c-0.45-2.044-0.896-4.076-1.347-6.106c-2.152-0.452-4.318-0.917-6.476-1.356
		c1.891-0.795,3.768-1.617,5.644-2.44c-0.438-2.016-0.882-4.032-1.312-6.033c1.578,1.48,3.171,2.991,4.764,4.502
		c1.872-0.841,3.744-1.684,5.607-2.555c-0.865,1.82-1.739,3.615-2.614,5.409c1.619,1.548,3.239,3.098,4.873,4.684
		c-2.171-0.464-4.334-0.91-6.504-1.369C257.817,208.518,256.942,210.281,256.054,212.023z"/>
	<path fill="#FFFFFF" d="M254.645,112.799c0.828,1.701,1.672,3.432,2.517,5.151c1.938-0.511,3.873-1.009,5.798-1.529
		c-1.392,1.608-2.803,3.188-4.214,4.771c0.862,1.758,1.729,3.517,2.602,5.296c-1.759-0.807-3.492-1.593-5.23-2.377
		c-1.417,1.555-2.835,3.104-4.268,4.633c0.356-2.011,0.72-4.034,1.072-6.057c-1.72-0.769-3.438-1.525-5.146-2.264
		c1.938-0.502,3.874-1.021,5.812-1.527C253.943,116.865,254.297,114.838,254.645,112.799z"/>
	<path fill="#FFFFFF" d="M242.588,202.075c-1.788-1.287-3.562-2.541-5.343-3.794c-1.714,1.033-3.428,2.064-5.155,3.062
		c0.642-1.77,1.271-3.556,1.899-5.344c-1.755-1.222-3.509-2.438-5.25-3.631c2.142,0.104,4.28,0.195,6.422,0.291
		c0.63-1.805,1.26-3.611,1.884-5.438c0.689,1.854,1.396,3.731,2.097,5.612c2.139,0.102,4.276,0.192,6.418,0.291
		c-1.696,1.087-3.405,2.146-5.115,3.201C241.153,198.238,241.865,200.145,242.588,202.075z"/>
	<path fill="#FFFFFF" d="M217.509,175.03c1.847,0.847,3.694,1.717,5.554,2.588c1.51-1.294,3.019-2.59,4.516-3.924
		c-0.339,1.869-0.683,3.723-1.025,5.577c1.879,0.895,3.76,1.79,5.646,2.714c-2.089,0.24-4.188,0.467-6.283,0.694
		c-0.347,1.844-0.689,3.688-1.047,5.521c-0.955-1.72-1.9-3.416-2.844-5.111c-2.103,0.224-4.193,0.438-6.294,0.646
		c1.523-1.23,3.041-2.495,4.552-3.76C219.351,178.314,218.424,176.656,217.509,175.03z"/>
	<path fill="#FFFFFF" d="M233.17,124.006c1.53,0.96,3.075,1.946,4.62,2.938c1.635-1.291,3.271-2.584,4.896-3.906
		c-0.659,1.938-1.325,3.854-1.991,5.771c1.563,1.014,3.139,2.023,4.725,3.066c-1.984,0.153-3.975,0.308-5.961,0.456
		c-0.67,1.901-1.341,3.801-2.021,5.688c-0.562-1.812-1.104-3.607-1.652-5.402c-1.979,0.152-3.963,0.312-5.947,0.455
		c1.658-1.234,3.301-2.501,4.938-3.771C234.233,127.526,233.696,125.757,233.17,124.006z"/>
	<path fill="#FFFFFF" d="M223.132,142.548c0.986-1.722,1.977-3.44,2.95-5.189c0.24,1.827,0.495,3.679,0.739,5.514
		c1.972,0.173,3.938,0.328,5.91,0.51c-1.812,0.979-3.634,1.921-5.458,2.866c0.25,1.857,0.49,3.697,0.746,5.564
		c-1.398-1.291-2.784-2.559-4.168-3.812c-1.832,0.928-3.665,1.854-5.508,2.748c0.993-1.663,1.979-3.354,2.97-5.048
		c-1.363-1.229-2.729-2.458-4.073-3.655C219.198,142.196,221.168,142.382,223.132,142.548z"/>
	<path fill="#FFFFFF" d="M216.817,155.75c1.141,1.425,2.295,2.881,3.449,4.338c1.976-0.607,3.945-1.228,5.918-1.854
		c-1.246,1.549-2.501,3.064-3.757,4.59c1.177,1.492,2.354,2.985,3.551,4.506c-1.975-0.58-3.938-1.14-5.896-1.699
		c-1.259,1.495-2.519,2.989-3.793,4.451c0.063-1.823,0.134-3.645,0.201-5.467c-1.95-0.546-3.9-1.091-5.837-1.621
		c1.994-0.579,3.979-1.18,5.962-1.782C216.684,159.388,216.748,157.568,216.817,155.75z"/>
</g>
<g>
	<path fill="#BDC2BC" d="M535.992,588.913c-0.739,0-1.34-0.602-1.34-1.341v-16.588c0-0.739,0.601-1.339,1.34-1.339h52.497
		c0.738,0,1.339,0.6,1.339,1.339v16.588c0,0.739-0.601,1.341-1.339,1.341H535.992z"/>
	<g>
		<path d="M559.027,571.51c-2.725,0-4.935,2.21-4.935,4.934c0,2.729,2.21,4.938,4.935,4.938c2.728,0,4.938-2.21,4.938-4.938
			C563.964,573.719,561.755,571.51,559.027,571.51z"/>
		<path fill="#FFFFFF" d="M559.027,580.461c-2.219,0-4.015-1.798-4.015-4.019c0-2.217,1.797-4.014,4.015-4.014
			c2.219,0,4.019,1.798,4.019,4.014C563.046,578.664,561.246,580.461,559.027,580.461z"/>
		<g>
			<path d="M560.402,575.293c0-0.219-0.182-0.398-0.398-0.398h-1.952c-0.221,0-0.401,0.181-0.401,0.398v1.985h0.528v2.338h1.694
				v-2.338h0.527L560.402,575.293L560.402,575.293z"/>
			<path d="M559.695,573.942c0,0.37-0.3,0.668-0.667,0.668c-0.371,0-0.67-0.299-0.67-0.668s0.301-0.67,0.67-0.67
				C559.395,573.272,559.695,573.571,559.695,573.942z"/>
		</g>
	</g>
	<path d="M588.175,569.198h-51.868c-1.157,0-2.102,0.943-2.102,2.102v15.96c0,1.158,0.943,2.1,2.102,2.1h51.868
		c1.158,0,2.102-0.94,2.102-2.1V571.3C590.275,570.141,589.332,569.198,588.175,569.198z M589.644,583.375h-37.865
		c-1.477,2.809-4.417,4.725-7.81,4.725s-6.333-1.916-7.809-4.725h-1.326V571.3c0-0.812,0.658-1.471,1.47-1.471h51.869
		c0.811,0,1.471,0.658,1.471,1.471V583.375L589.644,583.375z"/>
	<g>
		<path fill="#FFFFFF" d="M558.773,584.933c0.1,0.14,0.15,0.302,0.15,0.495c0,0.198-0.052,0.357-0.151,0.479
			c-0.057,0.066-0.14,0.131-0.25,0.187c0.168,0.061,0.294,0.155,0.378,0.289c0.085,0.13,0.127,0.289,0.127,0.477
			c0,0.192-0.049,0.365-0.145,0.519c-0.062,0.104-0.14,0.188-0.23,0.256c-0.104,0.078-0.225,0.137-0.369,0.164
			c-0.141,0.028-0.294,0.043-0.459,0.043h-1.466v-3.256h1.573C558.326,584.594,558.607,584.706,558.773,584.933z M557.009,585.151
			v0.717h0.79c0.143,0,0.257-0.026,0.345-0.08s0.133-0.147,0.133-0.286c0-0.15-0.059-0.248-0.176-0.301
			c-0.1-0.033-0.228-0.05-0.383-0.05H557.009L557.009,585.151z M557.009,586.407v0.869h0.789c0.143,0,0.25-0.02,0.328-0.058
			c0.145-0.071,0.217-0.206,0.217-0.407c0-0.17-0.07-0.285-0.208-0.35c-0.077-0.034-0.188-0.056-0.327-0.056L557.009,586.407
			L557.009,586.407z"/>
		<path fill="#FFFFFF" d="M561.469,584.586h0.771l-1.089,2.034v1.222h-0.68v-1.222l-1.127-2.034h0.8l0.677,1.418L561.469,584.586z"
			/>
	</g>
	<g>
		<g>
			<path fill="#FFFFFF" d="M567.517,584.426h0.776l1.403,2.473v-2.473h0.692v3.545h-0.742l-1.443-2.517v2.517h-0.688
				L567.517,584.426L567.517,584.426z"/>
			<path fill="#FFFFFF" d="M571.425,584.797c0.285-0.292,0.647-0.437,1.09-0.437c0.591,0,1.02,0.195,1.295,0.587
				c0.148,0.221,0.229,0.439,0.242,0.661h-0.741c-0.048-0.17-0.106-0.299-0.183-0.384c-0.132-0.153-0.328-0.229-0.586-0.229
				c-0.265,0-0.473,0.107-0.623,0.324c-0.152,0.219-0.229,0.525-0.229,0.923c0,0.399,0.08,0.696,0.241,0.895
				c0.161,0.197,0.365,0.299,0.614,0.299c0.252,0,0.447-0.086,0.581-0.256c0.072-0.09,0.136-0.229,0.183-0.41h0.736
				c-0.066,0.387-0.226,0.699-0.486,0.943c-0.262,0.241-0.594,0.36-1.002,0.36c-0.505,0-0.901-0.163-1.19-0.489
				c-0.288-0.328-0.434-0.777-0.434-1.353C570.93,585.607,571.095,585.133,571.425,584.797z"/>
		</g>
	</g>
	<g>
		<path fill="#FFFFFF" d="M579.517,586.944c0.022,0.173,0.073,0.303,0.145,0.389c0.132,0.154,0.354,0.233,0.673,0.233
			c0.19,0,0.347-0.021,0.465-0.062c0.225-0.078,0.338-0.226,0.338-0.438c0-0.125-0.055-0.223-0.166-0.291
			c-0.113-0.066-0.285-0.126-0.525-0.178l-0.411-0.088c-0.401-0.093-0.679-0.188-0.829-0.294c-0.254-0.173-0.383-0.448-0.383-0.819
			c0-0.339,0.126-0.619,0.376-0.846c0.249-0.224,0.617-0.336,1.102-0.336c0.401,0,0.748,0.104,1.033,0.315
			c0.284,0.213,0.436,0.521,0.45,0.922h-0.762c-0.014-0.227-0.117-0.387-0.306-0.484c-0.126-0.065-0.282-0.096-0.473-0.096
			c-0.209,0-0.375,0.041-0.499,0.122c-0.126,0.083-0.188,0.196-0.188,0.346c0,0.135,0.062,0.236,0.186,0.303
			c0.079,0.043,0.246,0.096,0.502,0.155l0.665,0.156c0.292,0.068,0.513,0.162,0.655,0.276c0.227,0.179,0.339,0.435,0.339,0.771
			c0,0.351-0.134,0.637-0.4,0.863c-0.269,0.229-0.646,0.344-1.134,0.344c-0.5,0-0.891-0.112-1.176-0.339
			c-0.287-0.224-0.432-0.536-0.432-0.929L579.517,586.944L579.517,586.944z"/>
		<path fill="#FFFFFF" d="M583.542,584.325h0.896l1.34,3.791h-0.858l-0.249-0.778h-1.396l-0.255,0.778h-0.828L583.542,584.325z
			 M583.486,586.681h0.972l-0.479-1.49L583.486,586.681z"/>
	</g>
	<g>
		<circle cx="543.95" cy="579.28" r="7.771"/>
		<circle fill="#FFFFFF" cx="543.95" cy="579.278" r="6.322"/>
		<g>
			<path d="M543.597,578.348l-1.188,0.215c-0.041-0.237-0.131-0.416-0.273-0.537c-0.143-0.119-0.325-0.178-0.55-0.178
				c-0.302,0-0.537,0.104-0.72,0.31c-0.18,0.204-0.268,0.555-0.268,1.038c0,0.539,0.09,0.921,0.271,1.146
				c0.183,0.223,0.426,0.332,0.73,0.332c0.229,0,0.417-0.064,0.562-0.195c0.146-0.131,0.249-0.354,0.311-0.67l1.182,0.199
				c-0.123,0.545-0.354,0.954-0.707,1.229c-0.348,0.276-0.813,0.416-1.399,0.416c-0.668,0-1.197-0.21-1.594-0.629
				c-0.396-0.42-0.592-1.004-0.592-1.746c0-0.75,0.198-1.337,0.594-1.754c0.397-0.42,0.936-0.627,1.613-0.627
				c0.555,0,0.995,0.118,1.322,0.355C543.219,577.497,543.453,577.86,543.597,578.348z"/>
			<path d="M548.477,578.348l-1.188,0.215c-0.039-0.237-0.131-0.416-0.272-0.537c-0.144-0.119-0.325-0.178-0.551-0.178
				c-0.301,0-0.539,0.104-0.72,0.31c-0.178,0.204-0.268,0.555-0.268,1.038c0,0.539,0.09,0.921,0.271,1.146
				c0.182,0.223,0.426,0.332,0.729,0.332c0.229,0,0.417-0.064,0.562-0.195c0.146-0.131,0.25-0.354,0.311-0.67l1.183,0.199
				c-0.123,0.545-0.356,0.954-0.708,1.229c-0.349,0.276-0.814,0.416-1.4,0.416c-0.668,0-1.197-0.21-1.593-0.629
				c-0.396-0.42-0.592-1.004-0.592-1.746c0-0.75,0.196-1.337,0.595-1.754c0.396-0.42,0.934-0.627,1.612-0.627
				c0.554,0,0.994,0.118,1.322,0.355C548.1,577.497,548.337,577.86,548.477,578.348z"/>
		</g>
	</g>
	<g>
		<path d="M570.93,571.719c-2.61,0-4.727,2.115-4.727,4.726c0,2.612,2.115,4.729,4.727,4.729s4.728-2.113,4.728-4.729
			C575.658,573.834,573.546,571.719,570.93,571.719z"/>
		<circle fill="#FFFFFF" cx="570.93" cy="576.447" r="3.846"/>
		
			<rect x="570.488" y="571.955" transform="matrix(0.4225 -0.9063 0.9063 0.4225 -192.7467 850.3463)" width="0.924" height="8.958"/>
		<g>
			<path d="M570.58,579.151v-0.637c-0.444-0.013-0.877-0.14-1.129-0.277l0.197-0.776c0.279,0.153,0.672,0.292,1.101,0.292
				c0.382,0,0.646-0.151,0.646-0.409c0-0.252-0.223-0.41-0.709-0.578c-0.711-0.238-1.196-0.568-1.196-1.215
				c0-0.59,0.411-1.047,1.122-1.181v-0.631h0.65v0.584c0.443,0.015,0.742,0.115,0.968,0.222l-0.199,0.748
				c-0.167-0.079-0.478-0.232-0.954-0.232c-0.434,0-0.571,0.193-0.571,0.381c0,0.212,0.231,0.356,0.798,0.564
				c0.796,0.276,1.107,0.643,1.107,1.246c0,0.591-0.411,1.09-1.182,1.221v0.684L570.58,579.151L570.58,579.151z"/>
		</g>
	</g>
	<g>
		<path d="M582.185,571.784c-2.571,0-4.66,2.086-4.66,4.658c0,2.576,2.089,4.665,4.66,4.665c2.576,0,4.665-2.089,4.665-4.665
			C586.852,573.87,584.761,571.784,582.185,571.784z"/>
		<path fill="#FFFFFF" d="M582.185,580.238c-2.092,0-3.789-1.698-3.789-3.794c0-2.091,1.695-3.79,3.789-3.79
			c2.096,0,3.793,1.696,3.793,3.79C585.979,578.538,584.281,580.238,582.185,580.238z"/>
		<path d="M582.185,573.885c-1.016,0-1.874,0.733-2.182,1.746h-0.294l0.933,1.016l0.93-1.016h-0.348
			c0.215-0.37,0.563-0.616,0.96-0.616c0.65,0,1.179,0.646,1.179,1.443c0,0.793-0.526,1.44-1.179,1.44
			c-0.432,0-0.81-0.289-1.016-0.72h-1.196c0.278,1.068,1.167,1.854,2.214,1.854c1.273,0,2.311-1.155,2.311-2.576
			C584.496,575.034,583.464,573.885,582.185,573.885z"/>
	</g>
</g>
<g>
	<path d="M11.392,586.197c-0.652,0-1.248-0.138-1.786-0.41c-0.539-0.271-1.002-0.631-1.39-1.07c-0.388-0.441-0.688-0.949-0.9-1.521
		C7.106,582.619,7,582.032,7,581.432c0-0.626,0.114-1.226,0.338-1.797c0.226-0.574,0.533-1.08,0.927-1.521
		c0.393-0.44,0.857-0.792,1.396-1.053c0.538-0.26,1.119-0.39,1.746-0.39c0.653,0,1.248,0.138,1.786,0.417
		c0.538,0.275,0.999,0.641,1.382,1.09s0.682,0.959,0.893,1.528c0.213,0.567,0.318,1.144,0.318,1.726c0,0.636-0.113,1.24-0.338,1.812
		c-0.225,0.574-0.534,1.079-0.926,1.517c-0.394,0.437-0.856,0.785-1.391,1.045C12.598,586.066,12.018,586.197,11.392,586.197z
		 M7.675,581.432c0,0.539,0.091,1.057,0.271,1.555s0.437,0.939,0.768,1.324c0.33,0.383,0.724,0.69,1.178,0.92
		c0.455,0.229,0.955,0.344,1.502,0.344c0.563,0,1.072-0.117,1.527-0.355c0.454-0.239,0.846-0.555,1.17-0.946
		c0.327-0.392,0.578-0.834,0.755-1.328s0.265-0.997,0.265-1.51c0-0.538-0.092-1.057-0.277-1.555
		c-0.185-0.498-0.442-0.939-0.773-1.323s-0.723-0.691-1.179-0.919c-0.454-0.229-0.949-0.347-1.486-0.347
		c-0.565,0-1.076,0.119-1.536,0.357c-0.458,0.238-0.85,0.554-1.17,0.945c-0.322,0.394-0.571,0.836-0.748,1.33
		C7.762,580.422,7.675,580.923,7.675,581.432z"/>
	<path d="M23.14,578.299c-0.608-0.681-1.469-1.021-2.58-1.021c-0.918,0-1.587,0.175-2.006,0.523
		c-0.417,0.349-0.628,0.817-0.628,1.407c0,0.302,0.054,0.554,0.159,0.755c0.106,0.202,0.271,0.373,0.496,0.51
		c0.226,0.137,0.513,0.256,0.86,0.355c0.35,0.103,0.761,0.2,1.237,0.299c0.512,0.106,0.97,0.223,1.377,0.352
		c0.404,0.127,0.75,0.289,1.038,0.483c0.287,0.193,0.508,0.433,0.662,0.715c0.153,0.281,0.231,0.632,0.231,1.044
		c0,0.414-0.082,0.775-0.245,1.086c-0.163,0.31-0.392,0.565-0.688,0.773c-0.297,0.208-0.648,0.364-1.059,0.471
		c-0.411,0.104-0.867,0.157-1.37,0.157c-1.463,0-2.704-0.467-3.717-1.401l0.356-0.542c0.396,0.415,0.882,0.743,1.457,0.984
		c0.573,0.242,1.217,0.363,1.931,0.363c0.821,0,1.461-0.147,1.925-0.449c0.462-0.301,0.695-0.754,0.695-1.362
		c0-0.309-0.06-0.57-0.178-0.787s-0.303-0.404-0.551-0.562c-0.247-0.158-0.554-0.295-0.919-0.409
		c-0.364-0.115-0.796-0.225-1.29-0.33c-0.503-0.105-0.945-0.219-1.329-0.338c-0.384-0.117-0.708-0.269-0.972-0.449
		c-0.265-0.181-0.463-0.398-0.596-0.654s-0.199-0.578-0.199-0.967c0-0.423,0.082-0.797,0.246-1.124
		c0.163-0.326,0.391-0.603,0.682-0.826c0.291-0.226,0.64-0.395,1.044-0.511c0.406-0.114,0.854-0.17,1.351-0.17
		c0.607,0,1.15,0.09,1.627,0.27c0.477,0.183,0.909,0.459,1.296,0.828L23.14,578.299z"/>
	<path d="M25.734,586.131v-9.395h3.863c0.396,0,0.763,0.085,1.098,0.251c0.335,0.168,0.624,0.392,0.866,0.669
		s0.432,0.591,0.568,0.938c0.138,0.35,0.205,0.698,0.205,1.053c0,0.381-0.063,0.746-0.191,1.098
		c-0.128,0.354-0.31,0.666-0.542,0.939c-0.232,0.272-0.512,0.492-0.833,0.654c-0.323,0.164-0.683,0.245-1.078,0.245h-3.281v3.546
		L25.734,586.131L25.734,586.131z M26.408,581.963h3.241c0.309,0,0.586-0.064,0.833-0.191s0.456-0.3,0.629-0.516
		c0.171-0.218,0.303-0.463,0.396-0.741c0.092-0.276,0.139-0.565,0.139-0.866c0-0.309-0.056-0.602-0.165-0.879
		c-0.11-0.279-0.26-0.523-0.45-0.734c-0.189-0.213-0.41-0.381-0.661-0.504s-0.519-0.186-0.801-0.186h-3.162L26.408,581.963
		L26.408,581.963z"/>
	<path d="M33.963,586.131v-9.395h3.917c0.397,0,0.764,0.085,1.098,0.251c0.335,0.168,0.622,0.392,0.859,0.669
		c0.238,0.277,0.426,0.591,0.563,0.938c0.137,0.35,0.204,0.698,0.204,1.053c0,0.344-0.054,0.676-0.159,0.998
		c-0.105,0.324-0.254,0.611-0.45,0.867c-0.194,0.256-0.427,0.467-0.7,0.635c-0.273,0.169-0.572,0.277-0.899,0.331l2.341,3.651
		h-0.781l-2.274-3.547h-3.043v3.547L33.963,586.131L33.963,586.131z M34.636,581.963h3.295c0.299,0,0.571-0.064,0.819-0.197
		c0.247-0.132,0.458-0.307,0.636-0.522c0.176-0.216,0.311-0.462,0.402-0.741c0.093-0.277,0.141-0.562,0.141-0.853
		c0-0.3-0.056-0.589-0.166-0.866c-0.11-0.276-0.261-0.522-0.45-0.733c-0.189-0.212-0.409-0.382-0.661-0.511
		c-0.252-0.127-0.523-0.192-0.814-0.192h-3.201V581.963z"/>
	<path d="M48.899,585.521v0.608h-6.258v-9.395h6.139v0.61h-5.464v3.688h4.775v0.582h-4.775v3.903h5.583V585.521z"/>
	<path d="M50.421,576.736l3.281,5.199l3.308-5.199h0.742l-3.706,5.849v3.546h-0.674v-3.572l-3.69-5.821L50.421,576.736
		L50.421,576.736z"/>
	<path d="M59.126,586.131v-9.395h3.122c0.741,0,1.392,0.124,1.951,0.371c0.561,0.248,1.025,0.583,1.396,1.007
		c0.371,0.423,0.647,0.919,0.833,1.487c0.185,0.567,0.277,1.175,0.277,1.819c0,0.715-0.104,1.36-0.311,1.938
		s-0.505,1.07-0.894,1.481c-0.388,0.409-0.857,0.729-1.41,0.953c-0.552,0.224-1.167,0.337-1.845,0.337L59.126,586.131
		L59.126,586.131z M66.031,581.421c0-0.592-0.083-1.137-0.251-1.635c-0.167-0.498-0.412-0.93-0.733-1.291
		c-0.322-0.359-0.718-0.644-1.185-0.848c-0.466-0.202-1.005-0.303-1.614-0.303h-2.447v8.177h2.447c0.617,0,1.162-0.104,1.633-0.312
		c0.473-0.206,0.866-0.495,1.185-0.865c0.316-0.37,0.559-0.805,0.722-1.303S66.031,582.003,66.031,581.421z"/>
	<path d="M67.288,586.131l3.996-9.395h0.555l3.997,9.395h-0.728l-1.311-3.097h-4.484l-1.311,3.097H67.288z M71.562,577.557
		l-2.09,4.922h4.141L71.562,577.557z"/>
	<path d="M80.148,576.802h0.661l1.401,3.413l1.403-3.413h0.661l-1.654,3.956l1.971,4.577l3.6-8.601h0.742l-4.023,9.395h-0.62
		l-2.063-4.829l-2.077,4.829h-0.622l-4.008-9.395h0.728l3.612,8.601l1.945-4.577L80.148,576.802z"/>
	<path d="M91.05,578.008v8.123h-0.675v-9.394h0.518l6.588,8.27v-8.255h0.675v9.379h-0.622L91.05,578.008z"/>
	<path d="M100.297,586.131v-1.125h0.583v1.125H100.297z"/>
	<path d="M102.401,581.368c0-0.563,0.098-1.127,0.298-1.688c0.197-0.561,0.486-1.062,0.866-1.502c0.379-0.44,0.844-0.8,1.395-1.077
		c0.552-0.277,1.181-0.418,1.887-0.418c0.838,0,1.552,0.192,2.144,0.576c0.591,0.383,1.027,0.877,1.309,1.475l-0.556,0.318
		c-0.159-0.327-0.351-0.601-0.576-0.82c-0.224-0.221-0.466-0.399-0.727-0.537c-0.261-0.137-0.533-0.234-0.814-0.298
		c-0.281-0.062-0.562-0.092-0.833-0.092c-0.6,0-1.129,0.121-1.589,0.364c-0.458,0.241-0.847,0.558-1.164,0.944
		c-0.316,0.39-0.557,0.826-0.722,1.316c-0.164,0.489-0.245,0.981-0.245,1.475c0,0.558,0.097,1.086,0.291,1.59
		c0.195,0.502,0.459,0.945,0.795,1.328c0.334,0.383,0.731,0.691,1.19,0.919c0.458,0.229,0.951,0.346,1.48,0.346
		c0.282,0,0.571-0.036,0.866-0.106c0.296-0.069,0.583-0.18,0.86-0.329c0.277-0.15,0.536-0.343,0.774-0.576
		c0.238-0.232,0.437-0.51,0.594-0.827l0.569,0.278c-0.159,0.352-0.372,0.665-0.642,0.939c-0.271,0.271-0.57,0.502-0.906,0.688
		c-0.335,0.186-0.689,0.324-1.065,0.416c-0.375,0.092-0.742,0.139-1.104,0.139c-0.644,0-1.233-0.141-1.768-0.423
		c-0.532-0.281-0.994-0.649-1.382-1.104c-0.387-0.455-0.689-0.972-0.905-1.549C102.509,582.555,102.401,581.969,102.401,581.368z"/>
	<path d="M115.882,586.197c-0.652,0-1.247-0.138-1.785-0.41c-0.538-0.271-1.001-0.631-1.39-1.07
		c-0.388-0.441-0.688-0.949-0.898-1.521c-0.212-0.572-0.317-1.16-0.317-1.76c0-0.627,0.112-1.225,0.337-1.798
		c0.224-0.573,0.534-1.081,0.926-1.521c0.394-0.44,0.857-0.792,1.396-1.052c0.539-0.261,1.121-0.391,1.747-0.391
		c0.65,0,1.247,0.139,1.786,0.416c0.538,0.276,0.999,0.643,1.381,1.091c0.384,0.45,0.682,0.959,0.894,1.529
		c0.211,0.566,0.317,1.144,0.317,1.726c0,0.635-0.113,1.239-0.337,1.812c-0.226,0.572-0.534,1.077-0.928,1.514
		c-0.393,0.438-0.854,0.785-1.389,1.046C117.087,586.066,116.509,586.197,115.882,586.197z M112.164,581.432
		c0,0.539,0.09,1.057,0.271,1.555c0.181,0.498,0.436,0.939,0.767,1.324c0.331,0.383,0.724,0.69,1.178,0.92s0.954,0.344,1.501,0.344
		c0.564,0,1.073-0.117,1.527-0.355c0.456-0.239,0.845-0.555,1.171-0.946s0.578-0.834,0.754-1.328
		c0.175-0.494,0.266-0.997,0.266-1.51c0-0.538-0.094-1.057-0.278-1.555c-0.186-0.498-0.443-0.939-0.774-1.323
		s-0.724-0.691-1.178-0.919c-0.455-0.229-0.95-0.347-1.488-0.347c-0.563,0-1.075,0.119-1.534,0.357s-0.851,0.554-1.172,0.945
		c-0.321,0.394-0.57,0.836-0.748,1.33C112.252,580.422,112.164,580.923,112.164,581.432z"/>
	<path d="M130.659,586.131v-8.123l-3.704,6.338h-0.423l-3.705-6.338v8.123h-0.675v-9.394h0.675l3.916,6.722l3.916-6.722h0.675v9.394
		H130.659L130.659,586.131z"/>
</g>
</svg>
