<?xml version="1.0" encoding="utf-8"?>
<!-- Generator: Adobe Illustrator 16.0.0, SVG Export Plug-In . SVG Version: 6.00 Build 0)  -->
<!DOCTYPE svg PUBLIC "-//W3C//DTD SVG 1.1//EN" "http://www.w3.org/Graphics/SVG/1.1/DTD/svg11.dtd">
<svg version="1.1" id="Layer_1" xmlns="http://www.w3.org/2000/svg" xmlns:xlink="http://www.w3.org/1999/xlink" x="0px" y="0px"
	 width="595.275px" height="595.279px" viewBox="0 0 595.275 595.279" enable-background="new 0 0 595.275 595.279"
	 xml:space="preserve">
<metadata><?xpacket begin="﻿" id="W5M0MpCehiHzreSzNTczkc9d"?>
<x:xmpmeta xmlns:x="adobe:ns:meta/" x:xmptk="Adobe XMP Core 5.3-c011 66.145661, 2012/02/06-14:56:27        ">
   <rdf:RDF xmlns:rdf="http://www.w3.org/1999/02/22-rdf-syntax-ns#">
      <rdf:Description rdf:about=""
            xmlns:dc="http://purl.org/dc/elements/1.1/">
         <dc:format>image/svg+xml</dc:format>
         <dc:title>
            <rdf:Alt>
               <rdf:li xml:lang="x-default">NFL Logo Redesigns</rdf:li>
               <rdf:li xml:lang="en_us">NFL Logo Redesigns</rdf:li>
            </rdf:Alt>
         </dc:title>
         <dc:creator>
            <rdf:Seq>
               <rdf:li>Max O'Brien/Osprey Dawn</rdf:li>
            </rdf:Seq>
         </dc:creator>
      </rdf:Description>
      <rdf:Description rdf:about=""
            xmlns:xmp="http://ns.adobe.com/xap/1.0/"
            xmlns:xmpGImg="http://ns.adobe.com/xap/1.0/g/img/">
         <xmp:CreatorTool>Adobe Illustrator CS6 (Macintosh)</xmp:CreatorTool>
         <xmp:ModifyDate>2013-10-07T00:02:14+13:00</xmp:ModifyDate>
         <xmp:MetadataDate>2013-10-07T00:02:14+13:00</xmp:MetadataDate>
         <xmp:CreateDate>2013-10-07T00:02:14+13:00</xmp:CreateDate>
         <xmp:Thumbnails>
            <rdf:Alt>
               <rdf:li rdf:parseType="Resource">
                  <xmpGImg:width>256</xmpGImg:width>
                  <xmpGImg:height>236</xmpGImg:height>
                  <xmpGImg:format>JPEG</xmpGImg:format>
                  <xmpGImg:image>/9j/4AAQSkZJRgABAgEASABIAAD/7QAsUGhvdG9zaG9wIDMuMAA4QklNA+0AAAAAABAASAAAAAEA&#xA;AQBIAAAAAQAB/+4ADkFkb2JlAGTAAAAAAf/bAIQABgQEBAUEBgUFBgkGBQYJCwgGBggLDAoKCwoK&#xA;DBAMDAwMDAwQDA4PEA8ODBMTFBQTExwbGxscHx8fHx8fHx8fHwEHBwcNDA0YEBAYGhURFRofHx8f&#xA;Hx8fHx8fHx8fHx8fHx8fHx8fHx8fHx8fHx8fHx8fHx8fHx8fHx8fHx8fHx8f/8AAEQgA7AEAAwER&#xA;AAIRAQMRAf/EAaIAAAAHAQEBAQEAAAAAAAAAAAQFAwIGAQAHCAkKCwEAAgIDAQEBAQEAAAAAAAAA&#xA;AQACAwQFBgcICQoLEAACAQMDAgQCBgcDBAIGAnMBAgMRBAAFIRIxQVEGE2EicYEUMpGhBxWxQiPB&#xA;UtHhMxZi8CRygvElQzRTkqKyY3PCNUQnk6OzNhdUZHTD0uIIJoMJChgZhJRFRqS0VtNVKBry4/PE&#xA;1OT0ZXWFlaW1xdXl9WZ2hpamtsbW5vY3R1dnd4eXp7fH1+f3OEhYaHiImKi4yNjo+Ck5SVlpeYmZ&#xA;qbnJ2en5KjpKWmp6ipqqusra6voRAAICAQIDBQUEBQYECAMDbQEAAhEDBCESMUEFURNhIgZxgZEy&#xA;obHwFMHR4SNCFVJicvEzJDRDghaSUyWiY7LCB3PSNeJEgxdUkwgJChgZJjZFGidkdFU38qOzwygp&#xA;0+PzhJSktMTU5PRldYWVpbXF1eX1RlZmdoaWprbG1ub2R1dnd4eXp7fH1+f3OEhYaHiImKi4yNjo&#xA;+DlJWWl5iZmpucnZ6fkqOkpaanqKmqq6ytrq+v/aAAwDAQACEQMRAD8A9U4q7FXYq7FXYq7FXYq7&#xA;FXYq7FXYqld95l0i0qpm9WQfsRfEfv8As/jmj1ntDpMGxlxS7o7/AG8vtczDoMs+lDzSO688XDEi&#xA;1t1QdmkJY/cOOc3qfbLIdsUAP62/3V+l2OPsiP8AEfklc/mXWpq1umQeEYCfiBXNHm9odbk55CPd&#xA;Q+7dzIaDDH+FBSXt5LvJPI/+s7H9ZzXZNXmn9U5H3kuRHFAcgFHMdm4Eg1HXFVaO9vIt455E/wBV&#xA;2H6jmRj1eaH0zkPcSwligeYCOg8y63D0uS48HAb8SK5ssPtDrcfLIT76P37uPPQYZfwppa+eJxQX&#xA;Vsrj+aMlT9x5Zu9N7ZTG2WAP9Xb7Df6HDydkR/hPzTyx8yaRd0VZvSkP7Evwn7/s/jnS6P2g0mfY&#xA;S4Zd0tv2fa67LoMsOljyTPN24bsVdirsVdirsVdirsVdirsVdirsVdirsVdirsVdirsVdirsVSTV&#xA;fNdjZ8o4P9JuBtRT8Cn3b+mc12n7T4NPcYfvMnlyHvP6vsdjpuzp5N5emLEtQ1zUr8kTykRn/dSf&#xA;Cn3d/pzg9f2zqdV9cvT/ADRsP2/G3dYNJjx8hv3rLHSNRvf954GZf9+H4V/4I7ZXo+ytRqf7uBI7&#xA;+Q+ZZZdTjx/UU+tPI8ho13cBfFIhX/hj/TOn0vsbI75Z15R/Wf1Ouy9rj+EfNNrfynokNKwmUjvI&#xA;xP4Cg/DN9g9mNFj5xMj/AEif0UPscGfaOaXWvcjotL02L+7tYl9wi1++mbPH2bpofTjgP80OPLUZ&#xA;DzkfmrCGECgjUAdBQZkjDAdB8mvjPe4wwkUMakHtQYnDA/wj5LxnvUZdL02X+8tYm9yi1++mY2Ts&#xA;3TT+rHA/5obI6jIOUj80BceU9FmrSJoSf2o2I/A8h+GavP7L6LJyiYf1T+ux9jkw7SzR6370pu/I&#xA;8oqbS4DeCSih/wCCFf1ZotV7GyG+KYPlLb7R+oObj7XH8Q+SQ3uk6jZH/SYGRf5+q/8ABCozl9Z2&#xA;ZqNN/eQIHfzHzGzssWpx5PpKrp2u6lYECGUtEP8AdL/En3dvoy7QdtanS/RK4/zTuP2fCmGfR48n&#xA;Mb97LdK81WF6Vjm/0a4P7LH4SfZv653nZntNg1FRn+7n58j7j+v7XSajs6ePceqKdZ0jr3Yq7FXY&#xA;q7FXYq7FXYq7FXYq7FXYq7FXYq7FXYqo3l5bWcDT3DhI17nqT4AdzmNqtXj08DPIeGIbMWKUzURZ&#xA;YTrXme7vi0UFYLU7cR9ph/lEfqzzftf2jy6m4Q9GL7T7/wBX3vQaXs+OPc7yQOm6PfajJxt0+AGj&#xA;ytsg+n+mazs/srPq5VjG3UnkPx83Jz6qGIeo/Bl+meU9OtAHnH1mbuXHwA+y/wBc7/s72X0+CjP9&#xA;5Pz5fL9dujz9pZJ7R9ITsAAAAUA2AGdIAAKDrnYVdirsVdirsVdirsVdiriAwIIqDsQcBAIoqCke&#xA;p+UtPuqvb/6NMf5R8BPuvb6M5ntH2W0+e5Y/3c/L6fl+p2On7SnDaXqH2sR1LSL7T5ONxHRT9mVd&#xA;0b5HOB7Q7Lz6SVZBt0PQ/H8F3mDUwyj0lH6L5ourIrDcVntelD9tR/kk/qzbdke0mXTVDJ68X2j3&#xA;fq+5xtV2fHJvHaTNrS7t7uBZ7dxJG3Qjx8COxz0fS6rHngJ4zxRLz+TFKBqQoquZDW7FXYq7FXYq&#xA;7FXYq7FXYq7FXYq7FXYqhNU1S2062M0x36Rxj7TN4DNf2l2lj0mPjn8B1Jb9Pp5ZZUHn+qardajc&#xA;GWdvhH93GPsqPb+ueVdpdp5dXk45nboOg/He9Np9PHFGopzoXlN5wtzfgpCd0g6M3+t4D8c6HsX2&#xA;YllrJn9MOkep9/cPt9zgaztIR9MOfezCKKKGNY4lCRqKKqigAz0DFijjiIxFRHQOjlIyNnmuyxi7&#xA;FXYq7FXYq7FXYq7FXYq7FXYq7FVk0MU0TRTIJI2FGVhUHK82GGSJjMCUT0LKMzE2Niw7XfKj2wa5&#xA;sQZIBu8XVkHt4jPPe2vZmWG8mD1Q6x6j9Y+0O90faIn6Z7HvSnStWu9Nn9WA1Q/3kR+yw9/f3zQ9&#xA;m9qZdHk4oHbqOh/HQudqNNHLGi9A03UrbULZZ4G26Oh+0reBz1bs/tDHqsYyYz7x1B7i8xnwSxS4&#xA;ZIrM5pdirsVdirsVdirsVdirsVdirsVQ9/fW9javcTmiL0Hdj2A98xNdrcemxHJM7D7T3Btw4ZZJ&#xA;cIed6nqVxqN008x67Ig6KvgM8k7R7QyavKck/gO4dz1ODBHFHhDJfLfllYgl7erWU7xQMPs+DN7+&#xA;3bOx9n/Z0QAzZx6v4Y93mfPy6e/lqNdr7uEOXUsnztXUOxV2KuxV2KuxV2KuxV2KuxV2KuxV2Kux&#xA;V2KuxVi/mTyyHD3titJN2mhH7Xiy+/tnEe0Hs6JA5sA35yj3+Y8/Lr7+e40Ovr0T5dCxzS9UuNOu&#xA;hPCar0kj7Mvgc5Hs3tLJpMonDl1HePxydrqNPHLGi9Esb23vbVLiBqo46dwe4PuM9b0Wsx6nEMkD&#xA;sfs8i8vmxSxyMZK+ZTU7FXYq7FXYq7FXYq7FXYq0zKqlmNFAqSegAwSkALPJIFvPvMOstqV2eBIt&#xA;YiRCvj4sfnnk/b3ax1mXb+6j9P6/j9z0+i0vhR3+o8008p6CH46jdL8I3t4z3I/bP8M3fsx2JxVq&#xA;Mo2/gH++/V8+5w+0tZX7uPx/Uy7O+dGgtY1zRdFsjfazqFtptkrBDdXk0cEQZvsrzkKrU9t8VSL/&#xA;AJWx+Vn/AFOWh/8AcSs/+qmKu/5Wx+Vn/U5aH/3ErP8A6qYq7/lbH5Wf9Tlof/cSs/8Aqpirv+Vs&#xA;flZ/1OWh/wDcSs/+qmKu/wCVsflZ/wBTlof/AHErP/qpirv+VsflZ/1OWh/9xKz/AOqmKu/5Wx+V&#xA;n/U5aH/3ErP/AKqYq7/lbH5Wf9Tlof8A3ErP/qpirv8AlbH5Wf8AU5aH/wBxKz/6qYq7/lbH5Wf9&#xA;Tlof/cSs/wDqpirv+VsflZ/1OWh/9xKz/wCqmKu/5Wx+Vn/U5aH/ANxKz/6qYq7/AJWx+Vn/AFOW&#xA;h/8AcSs/+qmKu/5Wx+Vn/U5aH/3ErP8A6qYqnGh+Z/LevxSzaFq1nq0ULBJpLG4iuVRiKhWMTOAa&#xA;eOKplirD/NegCItqFqtI2P7+Mfsk/tD2PfPPvafsTgJ1GIek/UO7z9x6+bveztZfolz6Jf5c1ltO&#xA;uwsh/wBFmIEo8D2YfLvmp7A7XOky1I/upfV5f0v1+XwcrXaXxY7fUOX6noAIIBBqDuCM9WBBFh5g&#xA;h2FXYq7FXYq7FXYq7FXYqxrzjqxhhFhEaSTDlMR2Tw/2Wcb7WdqeHAYIH1T+r+r3fH7ve7bsvTcR&#xA;4zyHL3pB5f0g6lfBGB+rx/FMfbsv05y3YfZZ1mej/dx3l+r4/rdnrdT4ULH1Hk9DVVVQqgBVFABs&#xA;ABnrUYiIobAPLk23hQ8V/wCcvf8AyTdz/wAx1p/xI4q+FcVRNhYXN9M8NuvJ44Zp29kt4mmc/QqH&#xA;K8uUQFnvA+ZofeyjEnkhssYuxV2KuxV2KuxV2KuxV2KuxV2KuxV9gf8AOEP/ACi3mX/mOh/5M4q+&#xA;lMVadEdGRwGRgQynoQcjOAkCCLBSCQbDzvXtJbTb5oxUwSfFAx/l8PmM8k7b7MOjzmI+iW8fd3fD&#xA;9r1Oj1PiwvqObIvJ+rGe3NjK1ZYBWInvH4f7HOu9lO1PFxnBM+qHL+r+z7nVdp6bhlxjkefvZHnX&#xA;uqdirsVdirsVdirsVWTzxwQSTSGkcalmPsBXKs+aOKBnL6YiyyhAyIA5l5le3Ut5eS3Em7ytWnWn&#xA;YAfIbZ4zrNTLUZpZJc5H+wfoeuxYxjgIjoz/AEHTBp+nJER++f45j/lHt9HTPU+w+zhpNOIn65by&#xA;9/d8OTzOs1Hi5CenRMc3DiuxV4r/AM5e/wDkm7n/AJjrT/iRxV8Pafp1zqFyttben6r7KJZYoQSe&#xA;3KVkX8cry5Y4xcrryBP3WyjEyNB9J/k1+S58vw3GreYfRuL6/t2t47RGEkcVvMP3nJx8LM42+HYD&#xA;ua5532/7QeORjw2IxN3yJI5fL8cnfaHQ8HqlzLzD8zPyW1DypcyXdneW0+jyFmtxcXENvcKvXgUl&#xA;ZPUI6fBUnwGdJ2P7Qw1QEZRkMnWokj7Lr4/N1+r0BxmwRw+95mRQkeHhvnSOvaxV2KuxV2KuxV2K&#xA;uxV2KuxV2KvsD/nCH/lFvMv/ADHQ/wDJnFX0pirsVS3zBpY1DTnRRWeP44T3qP2f9lmm7d7N/Nac&#xA;gfXHePv7vi5ei1HhZAeh5sD0+9ksr2K5TrG1SviOjD6Rnl2g1ctNmjkj/Cfs6h6TNiGSBier0uGW&#xA;OaJJYzWORQynxBFRns2LLHJATj9MhY+LyUomJIPML8sYuxV2KuxV2KuxVjvnS+9KxjtFNGuGq/8A&#xA;qJv+JpnI+12t4MAxDnkO/uH7adr2Vh4pmR/hSPyrp4u9VR2FYrceq3zH2R9++cx7NaHx9UCfpx+o&#xA;/o+37nY9o5uDHQ5y2Z9nqrzLsVdirxX/AJy9/wDJN3P/ADHWn/Ejir4VxV6j+TP5qX3li5u9PvpW&#xA;n0ZrW4ngtnY0jngiaZRGTXj6vAoR4kHOZ9oOxY6kRnEVk4ognvBNb+7m7HQ6w4yQfposA8weYNW8&#xA;watPquqztcXlw1WY9FHZEH7Kr2Gb7S6XHgxjHjFRH4+bhZMkpy4pc0tzIa3Yq7FXYq7FXYq7FXYq&#xA;7FXYq7FX2B/zhD/yi3mX/mOh/wCTOKvpTFXYq7FXn/mjT/qeqyFRSKf96n0/aH355R7R6H8vqjX0&#xA;z9Q+PP7Xp+z83HiF8xsyDyZfetp72zH47Zvh/wBRtx+Nc6v2S1viac4jzxn7D+23WdqYeGfF/OZB&#xA;nWOrdirsVdirsVdirz/zVd/WNZlAPwwARL9G5/4YnPKfabVeLrJDpD0/Ln9tvTdnY+HEPPdkXk2z&#xA;9HSzOR8dyxP+xX4R+Nc632S0nh6Y5DzyH7BsP0ur7Uy8WTh/mp9nUutdirsVeWf85J+UvMXmv8sJ&#xA;9I8v2TX+otd28q26MikojEsauyrt88VfJP8A0Ld+dv8A1K0//I62/wCquKuH/ON/53Dp5WnHb++t&#xA;u/8Az1xV3/Qt352/9StP/wAjrb/qrirv+hbvzt/6laf/AJHW3/VXFXf9C3fnb/1K0/8AyOtv+quK&#xA;u/6Fu/O3/qVp/wDkdbf9VcVd/wBC3fnb/wBStP8A8jrb/qrirv8AoW787f8AqVp/+R1t/wBVcVd/&#xA;0Ld+dv8A1K0//I62/wCquKu/6Fu/O3/qVp/+R1t/1VxV3/Qt352/9StP/wAjrb/qrirv+hbvzt/6&#xA;laf/AJHW3/VXFXf9C3fnb/1K0/8AyOtv+quKu/6Fu/O3/qVp/wDkdbf9VcVfSv8Azij5A84eTfL+&#xA;u23mbTX02e7u4pLdHeNyyLHxJHps/fFXumKuxV2Ksf8AOln6unJcgfFbvuf8l9j+NM5P2u0nHpxk&#xA;HPGfsO3307PsrLw5OH+ckPlK79DWI0Jok6mNvn1X8RnMey+q8LWAdJgx/SPtDsu0sfFiJ7t2fZ6m&#xA;807FXYq7FXYq07qiM7fZUEn5DIzkIgk8gkCzTyyaV5p3lbd5GLH5sa54hlyHJMyPORJ+b2MYiIA7&#xA;np1jbi2s4IB/upFU/MDfPaNFg8HDDH/NiA8jmnxzMu8q2ZLW7FXYq7FXYq7FXYq7FXYq7FXYq7FX&#xA;Yq7FXYq7FXYq7FXYq7FXYq7FUPqNt9ZsLiClTJGwX502/HMPtDT+Ngnj/nRPz6fa24J8ExLuLzS2&#xA;maC4imX7UTq4/wBia543p8px5IzHOJB+T1s48USO96krBlDA1BFQfY57fEgiw8cRTeFDsVdirsVQ&#xA;Wty+lpF2/f0mA+bDj/HNb2xk4NJkP9A/bs5GkjeWI83n2mRCXUrWI9HlQH5chXPKOzsXiajHHvnH&#xA;73p9RLhxyPkXp2e0vIOxV2KuxV5n/wA5Eed/MXkv8t5tc8vzrbail1bwrK8aSjhIxDDi4ZcVfK//&#xA;AENh+dv/AFeIP+kO2/6p4q7/AKGw/O3/AKvEH/SHbf8AVPFXf9DYfnb/ANXiD/pDtv8Aqnirv+hs&#xA;Pzt/6vEH/SHbf9U8Vd/0Nh+dv/V4g/6Q7b/qnirv+hsPzt/6vEH/AEh23/VPFXf9DYfnb/1eIP8A&#xA;pDtv+qeKu/6Gw/O3/q8Qf9Idt/1TxV3/AENh+dv/AFeIP+kO2/6p4q7/AKGw/O3/AKvEH/SHbf8A&#xA;VPFXf9DYfnb/ANXiD/pDtv8Aqnirv+hsPzt/6vEH/SHbf9U8Vd/0Nh+dv/V4g/6Q7b/qnirv+hsP&#xA;zt/6vEH/AEh23/VPFX0T/wA4v/mb5w8+6Drd35mukup7K6jit2SKOEBGj5EUjVa74q9rxV2KuxV2&#xA;KvMNQi9G/uYh0jldR8gxGeKa7F4eecP5s5D7XsMMuKET3gPRNIl9XSrSQ7kxJU+4FDnrnZWXj0uO&#xA;X9CP3PLamPDkkPMovM9odirsVdiqVeaWI0G6I/yB98ijNH7SGtDk/wA3/dBzezx++j8fuYf5bUNr&#xA;doD/ADE/cpOefez4vW4/f+gu91x/cyei5668q7FXYq7FXiv/ADl7/wCSbuf+Y60/4kcVfCuKp15b&#xA;0SXUZZnI4wpG6hz09R1KqPorXKM2Xhd72J2VLVSkeURGQv8ApEUP1pVcW81tM8E6FJUNGU5cCCLD&#xA;p82GeKZhMVIKWFqdirsVdirsVdirsVdirsVdirsVfYH/ADhD/wAot5l/5jof+TOKvpTFXYq7FXYq&#xA;858wrx1q7FKfvK/eAc8g7djw6zIP6X37vV6I3hj7mZ+WW5aHan2Yfc5Gei+zsuLQ4z5H7JF0GvFZ&#xA;pfjomebpw3Yq7FXYqlHmxa6FcH+Uof8AhwP45oPaeN6Gflw/7oOd2cf3w+P3MS8tf8dy0/1m/wCI&#xA;nOC9nv8AHcfvP3F3ev8A7mT0TPXHlnYq7FXYq8V/5y9/8k3c/wDMdaf8SOKvhmGUROHMayU/ZcEj&#xA;7gRgItsx5OE3QPvZ15Z1+2vYjamJLaWFeQRNoyo6lfD5ZgZsRjvzfRewe2ceePh8IxyiLofTXl3J&#xA;D5g8yRX0xjht4mhQ0WaReTn3B7DMjFh4RuXmu2e3I6ifDCEeEcpEeo/qCQZkPNtYq7FXYq7FXYq7&#xA;FXYq7FXYq7FX2B/zhD/yi3mX/mOh/wCTOKvpTFXYq7FXYq868yEHW7sj+YD7lAzyL2gN63J7/wBA&#xA;ep0I/cxZh5WBGg2tf8v/AJONnoHs0K0OP/O/3UnR9o/30vh9wTXN64TsVdirsVS3zHH6miXa9aKG&#xA;/wCBYN/DNP7QQ4tFkHlfyILl6GVZosJ0GT09Zs28ZVX/AIL4f455r2LPh1mI/wBMD57PQ6yN4pe5&#xA;6RnsTybsVdirsVeK/wDOXv8A5Ju5/wCY60/4kcVfCuKqtvcSQOXjNGKuh+TqVP4HARbbhzSxm49x&#xA;HzFfpUsLU7FXYq7FXYq7FXYq7FXYq7FXYq7FX2B/zhD/AMot5l/5jof+TOKvpTFXYq7FXYq811qT&#xA;1NWvG6j1XAPyNP4Z432vPi1eU/05fYaet0saxR9wZ15fj4aLaL4xhv8Agjy/jnp3YUOHR4x/Rv57&#xA;vOa03ml70wzbOK7FXYq7FVG+h9eynh7yRug+bKRmNrMPiYZw/nRI+YbMM+GYPcXmMEpimjlHWNgw&#xA;+g1zxfDkMJiQ/hIPyevnHiBHe9TVlZQymqsKg+xz2+MhIAjkXjSKbySHYq7FUr8x+WNA8y6Y2l69&#xA;Yx6hp7OsjW0wJQum6nYjpirFP+VA/k1/1Kdj/wAC3/NWKu/5UD+TX/Up2P8AwLf81Yq7/lQP5Nf9&#xA;SnY/8C3/ADVirv8AlQP5Nf8AUp2P/At/zVirv+VA/k1/1Kdj/wAC3/NWKu/5UD+TX/Up2P8AwLf8&#xA;1Yq7/lQP5Nf9SnY/8C3/ADVirv8AlQP5Nf8AUp2P/At/zVirv+VA/k1/1Kdj/wAC3/NWKu/5UD+T&#xA;X/Up2P8AwLf81Yq7/lQP5Nf9SnY/8C3/ADVirv8AlQP5Nf8AUp2P/At/zVirv+VA/k1/1Kdj/wAC&#xA;3/NWKu/5UD+TX/Up2P8AwLf81YqyPyr5I8p+U7ee38uaZDpkFy4knjgBAd1FATUntiqeYq7FXYqt&#xA;kdY42kbZUBZj7AVyGSYhEyPIC0xFmnlsjtLKzndnYk/MmueITkZyJ6kvZRFCu56faw+jaww/76RU&#xA;/wCBAGe16bF4eKMP5sQPkHj8kuKRPeVXL2DsVdirsVdirzTWLY2uqXMNKBZCVH+S3xL+BzxrtXT+&#xA;DqckO6Rr3HcfY9bpcnHjifJnPl26+s6PbPX4kX02+afD+rPTewNT42jgeoHCf83b7nnddj4Msh8f&#xA;mmWbhxHYq7FUh86+d/LvkvQ21zzBO1tpySJC0qRvKechoo4oGbFXn3/Q2H5Jf9Xef/pDuf8AmjFX&#xA;f9DYfkl/1d5/+kO5/wCaMVd/0Nh+SX/V3n/6Q7n/AJoxV3/Q2H5Jf9Xef/pDuf8AmjFXf9DYfkl/&#xA;1d5/+kO5/wCaMVd/0Nh+SX/V3n/6Q7n/AJoxV3/Q2H5Jf9Xef/pDuf8AmjFXf9DYfkl/1d5/+kO5&#xA;/wCaMVd/0Nh+SX/V3n/6Q7n/AJoxV3/Q2H5Jf9Xef/pDuf8AmjFXf9DYfkl/1d5/+kO5/wCaMVd/&#xA;0Nh+SX/V3n/6Q7n/AJoxV3/Q2H5Jf9Xef/pDuf8AmjFXf9DYfkl/1d5/+kO5/wCaMVZr5A/M3yf5&#xA;9s7u78s3T3UFlIsVwzxSQkOy8gAJFWu2KsqxV2KuxVLPMt19W0a4NaNIPSX/AGex/wCFrmk9odT4&#xA;OjmesvSPj+y3M0GPiyjy3YTolt9Z1a1ipUFwzf6q/EfwGeb9j6fxtVjh/Sv4Dc/c9Bq8nBikfJ6T&#xA;nsbybsVdirsVdirsVYd53suF1DdqPhlXg5/yl6feD+Gee+2Ok4cscw5SFH3j9n3O+7Jy3Ex7l/ki&#xA;+o89kx+1+9jHuNm/CmWex2sqU8J6+ofcf0fJj2th2E/gy7O+dG7FXYq8V/5y9/8AJN3P/Mdaf8SO&#xA;KvhXFVe0tJbqRkjBJSN5DTwRS38KZdgwSyEgdAT8hbGchEKGUsnYq7FXYq7FXYq7FXYq7FXYq7FX&#xA;Yq+wP+cIf+UW8y/8x0P/ACZxV9KYq7FXYqw/zvfc54bJTtGPUk/1m2X7h+vPPvbHW8U44R/D6j7z&#xA;y+z73e9k4aBmeuzfkiy5Tz3jDZB6aH3bdvuH68PsdpLnPMf4Rwj3nn9n3r2tloCHfuy/PQHROxV2&#xA;KuxV2KuxVL9e0/69pksKisqjnF/rr0H09M1Pbeh/M6aUB9Q3j7x+vl8XK0ebw8gPTqwCwu5LK8iu&#xA;U+1E1SPEdCPpGeVaLVS0+aOSPOJ/tHxD02bEMkDE9XpkE0c8KTRHlHIAyn2Oez4c0ckBOJuMhYeR&#xA;nExJB5hfljF2KvFf+cvf/JN3P/Mdaf8AEjir4ZhjSSQK8qxKeruGIH/Ahjk8cRI0SI++/wBAKCae&#xA;geVdG0+0tmuIZ1u5ZhxaZfsgfygfrrne9i9n4sUOOMhMy6/odTqc0pGiKY95m0TSrO4Y294kTt8R&#xA;tGDMVrvsVDUHgDnP9sdnYMMzwTAP83f9HL4uXp805DcfFjuc+5jWKuxV2KuxV2KuxV2KuxV2KuxV&#xA;9gf84Q/8ot5l/wCY6H/kzir6UxV2KqdxPHbwSTymkcalmPsMp1GeOLHKcvpiLZQgZSAHMvM7y6lv&#xA;LyW4f7crE0608B9A2zxnV6mWoyyyS5yP4H6HrsWMQiIjo9C0Sw+o6bDARSSnKX/Xbc/d0z1nsfQ/&#xA;ltNHH/FzPvPP9TzGrzeJkMunRHZs3GdirsVdirsVdirsVYH5q0s2eoGZBSC5q606Bv2h/HPLvabs&#xA;38vqOOI9GTf49R+l6Xs7UceOjzimXk3VqqdOlO4q1uT4dWX+Obj2S7U2/LTPnH9I/T83E7U03+UH&#xA;xZVnculdirxX/nL3/wAk3c/8x1p/xI4q+FcVTXy/rMumXErKaxyRuCh6FwpKH/gts2fZfaEtNMkc&#xA;jE/OtvtaM+ETCWyySSyNJIxeRyWZjuST3zXTmZEkmyW4CtgsyKXYq7FXYq7FXYq7FXYq7FXYq7FX&#xA;2B/zhD/yi3mX/mOh/wCTOKvpTFXYqxPzlq4NNOhbpRrgj71X+OcH7W9qXWngfOX6B+k/B3fZem/y&#xA;h+CA8p6Wbu/Fw4rBbUY+7/sj+Oaz2Y7N8fP4kh6Me/x6frcntLUcEOEc5fczvPT3m3Yq7FXYq7FX&#xA;Yq7FXYqg9W02PUbF7d9mO8b/AMrjoc1/anZ8dXhOM8+h7j+Psb9NnOKYkHnTC5sruhrFcQP9IZTn&#xA;kUhk0+WvpyQPyIeqBjkj3xL0HRNWi1KzEoosyfDNH4N4/I9s9X7H7UjrMPENpj6h5/qPR5jV6Y4p&#xA;106Jhm2cV57+e35ea15/8gS+XdGmtre9kuYJxJeNIkXGIksKxpK1d9vhxV82/wDQlX5p/wDV10P/&#xA;AKSLz/skxV3/AEJV+af/AFddD/6SLz/skxV3/QlX5p/9XXQ/+ki8/wCyTFXf9CVfmn/1ddD/AOki&#xA;8/7JMVd/0JV+af8A1ddD/wCki8/7JMVd/wBCVfmn/wBXXQ/+ki8/7JMVd/0JV+af/V10P/pIvP8A&#xA;skxV3/QlX5p/9XXQ/wDpIvP+yTFXf9CVfmn/ANXXQ/8ApIvP+yTFXf8AQlX5p/8AV10P/pIvP+yT&#xA;FXf9CVfmn/1ddD/6SLz/ALJMVd/0JV+af/V10P8A6SLz/skxV3/QlX5p/wDV10P/AKSLz/skxV3/&#xA;AEJV+af/AFddD/6SLz/skxV7v/zjp+UXmT8tdF1ex125s7mXULmOeFrF5ZFCpHxIb1YoTWvgDir1&#xA;3FUu1zV49NszJsZ3qsCeJ8T7DNR2z2rHR4eL+M/SPPv9w/Y5Wk0xyzrp1efxpc3t2EWslxO3fqWJ&#xA;6nPKccMmoy0PVkmftL08jHHG+UQ9G0vTotPso7aPcru7/wAzHqc9e7N0EdLhGOPTme89T+Ojyuoz&#xA;nLMyKLzPaHYq7FXYq7FXYq7FXYq7FWPeadB+txm8tlrcxj41HV1H8RnJ+0vYnjx8bGP3kRuP5w/W&#xA;Pt5dztOztZwHgl9J+ximmalcaddrPCemzoejL3Bzhezu0MmkyjJD4jvHc7rUYI5Y8Jeh6fqFtf2y&#xA;3Fu1VOzKeqnuCM9a0Oux6rGMmM7faD3F5bNhljlwyROZjU7FXYq7FXYq7FXYq7FXYq7FXYq7FXYq&#xA;7FXYq7FULqWpW2n2zTztt0RB9pm8BmD2h2hj0uMzmfcOpPcG7BglllwxeealqNxqF21xMdzsiDoq&#xA;9lGeS9oa/JqspyT+A7h3B6jBgjijwhl3lfQjZRfW7hf9KlHwqeqKe3zPfO+9m+xfy8PFyD97L/Yj&#xA;9Z6/LvdJ2hrPEPDH6R9qf51TrHYq7FXYq7FXYq7FXYq7FXYq7FWK+ZvLRYtfWKVJq08K/wDElH6x&#xA;nDe0Xs8STnwD+tH9I/SHdaDX/wAEz7ix7S9VutOuBLAfhO0kZ+yw8D/XOT7N7Ty6TJxwO3UdCPx1&#xA;dnqNPHLGiz7S9WtNSg9SBqOP7yI/aU/5989T7N7UxauHFA79Y9R+O95rUaaWI0fmjc2TjuxV2Kux&#xA;V2KuxV2KuxV2KuxV2KuxV2KuxVA6rrFppsPOY1kb+7iH2mP9PfNZ2n2ri0cOKZ9R5R6n9nm5Gn0s&#xA;spocu9gOp6ndajcmac+yRj7KjwGeWdodo5dXk48h9w6D3PTYNPHFGosj8s+WyhW+vU+LrBCw6f5T&#xA;Dx8BnXezvs+Y1nzDf+GP6T+gOq1+uv0Q+JZTncOmdirsVdirsVdirsVdirsVdirsVdirsVY3r/lV&#xA;bgtdWACzneSHorHxXwOcd257MjLeXAKn1j0Pu7j9hdto+0eH0z5d7E4pruyuecZaC4jND2I8QQc4&#xA;THly6bJcSYTj83dSjHJGjvEsu0jzfbThYb6kE3QS/wC62+f8ud72V7VY8tQz+iff/Cf1fc6TU9mS&#xA;jvDcfayJWDAMpBB3BHTOuBBFjk6oh2FXYq7FXYq7FXYq7FXYq7FXYq0zKqlmICjck7ADBKQAs8kg&#xA;Wx3V/OFvCGhsKTS9DMfsL8v5v1ZyHavtXjx3DB65fzv4R7u/7ve7XTdmSlvPYd3ViMkl3e3PJy09&#xA;xKaDuxPgBnBTnl1OSzc8kviXdiMccdtohl2geVktit1egPcDdIuqofE+LZ33Yfs0MNZc++ToOkf1&#xA;n7A6PW9oGfph9Pf3sjzr3VOxV2KuxV2KuxV2KuxV2KuxV2KuxV2KuxV2Kpdq2hWOpLWQcJwPhmX7&#xA;X0+IzUdqdi4NYPUKn0kOfx7w5Wm1k8R23HcwvVNA1DTmJkT1IO0ybr9Ph9Oec9pdh6jSG5Dih/OH&#xA;L49z0Gn1kMvLY9yzTtc1HTyBBLWLvC/xJ93b6Mr0HbOo0v0S9P8ANO4/Z8KTn0mPLzG/eyew852E&#xA;oC3aNbv3YfEn4bj7s7TRe12Ce2UHGe/mP1/Z8XUZuypx+n1J5b3VtcJzglSVfFCD+rOmwanFmF45&#xA;CQ8jbrp45RNSFKuXsHYq7FXYq7FXYqpXF3a2y8riVIl8XIFflXMfPqsWEXkkIjzLOGOUzURaRX/n&#xA;SxiBW0Q3D9nPwp+O5+7OZ1vtdghthBme/kP1/YPe7LD2VOX1HhYzqOt6jqBPryn0+0S7IPo7/TnF&#xA;6/tfUao/vJen+aNh+Pfbt8Gkx4vpG/eqaV5f1DUSGRfTg7zPsP8AY/zZd2b2FqNWbiOGH848vh3/&#xA;AI3YajWwxc95dzNNK0Ox01P3S85iKPM32j8vAZ6N2Z2Ng0Y9AufWR5/sDoNTq55Tvy7kwzbOK7FX&#xA;Yq7FXYq7FXYq7FXYq7FXYq7FXYq7FXYq7FXYq4gEEEVB2IOAi9iqSaj5S026q8I+qynug+H6U/pT&#xA;Oc1/svps+8P3cvLl/pf1U7DB2lkhsfUPx1Y5e+VNXtiSkYuIx+1Fuf8AgTv92cfrPZnV4dwPEj/R&#xA;/Vz+Vu2xdo4p8zwnzSn9/BJ+1FKvzVhmi9eKXWMh8C5m0h3hMLfzHrUFAt0zDwko/wCLAnNpg9oN&#xA;bj5ZCff6vvcaehwy/h/QjovO2qLs8cL+9GB/A5s8fthqh9UYS+B/W48uycZ5EhXXz1cftWiH5OR/&#xA;A5lR9tMnXGPmf1NZ7Ij/ADnN56uP2bRB83J/gMZe2mTpjHzKjsiP85DyedtVbZI4U96MT+LZi5Pb&#xA;DVHlGA+B/W2R7KxjmSgbjzHrU9Q10yjwjon/ABEA5rM/b+sy88hHu9P3U5MNDhjyj+lAATzybBpZ&#xA;W+bMf45qwJ5ZbXKR+JcjaI7gm9l5T1a5IMiC3jP7UnX/AIEb/fm+0fsxq828h4cf6XP5c/nThZe0&#xA;sUOR4j5Mj07ynploQ8o+syj9qQfD9CdPvrnYaD2Y02DeX7yXny/0v67dVn7RyT2HpH46p0AAKDYD&#xA;oM6MCnXuxV2KuxV2KuxV2KuxV2KuxV2KuxV2KuxV2KuxV2KuxV2KuxV2KuxVTntra4XjPEkq+DqG&#xA;/XlObT48oqcRIeYtnDJKP0mksn8q6JLuITEfGNiPwNRmmzezOin/AAcPuJ/scuHaOaPW0FJ5HsT/&#xA;AHdxKv8ArcW/UFzXZPY3AfpnMe+j+pyI9rz6gKLeRFr8N6QPeOv/ABsMxj7FDpl/2P8Ax5sHbH9H&#xA;7f2OXyItfivSR7R0/wCNjjH2KHXL/sf+PKe2P6P2/sVo/I9gP7y4lb/V4r+sNmTj9jcA+qcz7qH6&#xA;C1y7Wn0AR0HlXRIqH0DIR3kYn8Nh+GbLD7M6LH/BxHzJ/scefaOaXWkyhtreBeMESRL4IoUfhm4w&#xA;6fHiFQiIjyFOJPJKXM2qZcwdirsVdirsVdirsVdirsVdirsVdirsVdirsVdirsVdirsVdirsVdir&#xA;sVdirsVdirsVdirsVdirsVdirsVdirsVdirsVdirsVdirsVdirsVdirDI/zHDPbK2mvGlzDbX3rG&#xA;QvFHZXZf0pZXiSQRv+7aoakYp/edKqpZD+cVu+mW+oPpjLFcQx3CIJWLOk0cci+lyiQOUEv7zcBe&#xA;LULUxVObjzzdW3pwzaTL9bnjaaAD1khMaMUkZ5JoIXTg5jBBj39RePIcuKqhP+Z+m2t+NPu7YxXc&#xA;ayNeASxskQhmZHKkHk6iGGaavEUVKNxZgMVQ+n/m5pd5DDc/UJ0snjle5uw0bxQPFJ6fCQqfFoiW&#xA;H2RIpNByKqprN51K83isC8IuLewjdpVjY3d0kTxqVI2i43C1fdtjRCKEqoG1/NHTpr39HvYXEd99&#xA;eTTxGOLIziZYLiRXqB6cDutWPXkm1WpirNcVdirsVdirsVdirsVdirsVdirsVdirsVdirsVdirsV&#xA;dirsVdirsVSvzVdTWnljWLuCQwz29lcyxSilUdImZW322Irirw6LXtYXTrPVprjzHFBcejLJPNdX&#xA;C6WIp/Q+BJwwcOPW4qzTfEwOw3CBWK/4287y2F99X1e+F1Cyist7LUAIGJgCTsWrNyRvgkCoFYM5&#xA;JooVP8a+dl4SXGrXVuiWsjkjUJWRiin4pD67BJR9opy60HHFX0L/AMg14f8ASm4fWT/yy0+t7V/5&#xA;69P8rClMpv8ADH6Oj9f6l+jvSi9Ln6XoejyX0eNfg4c+PCm1aUxVSh/wb+jW9H9Hfoz05efD0PQ9&#xA;Oq+tWnwca8ef0VxV1r/g36h/on6O/R/qf7q9D0fU4n+X4eXGv0YqqR/4V+qzel9R+qenL9Y4+j6f&#xA;pcE9bnT4eHDhzrtTjXtiqAn/AOVcfWLj6x+h/rHpN9b9T6rz9Hn8XqV34c+tdq4qmlh/h76gn6P+&#xA;qfUOUXp/V/S9Hn8Ho04fDX7HD/Y07YqmGKuxV2KuxV2KuxV2KuxV2KuxV2KuxV2KuxV2KuxV2Kux&#xA;V2KuxV2KoDX/ANE/oLUf0xT9EfVZv0jy5U+rem3rV4fFThXpvir5suP+hVf8Oxev+mP0Hz/dcv0p&#xA;6daH6aUr7YqyjSv+VIfpvQfqP6c/Sf6O/wCdf5fX6fUPqqV9H1Pg4/VuFe/GmKqT/wDQvf8AhXW/&#xA;rH1//DP6Ul/T3qfWfS+v+tB63On7ynq+jy9P4emKv//Z</xmpGImg:image>
               </rdf:li>
            </rdf:Alt>
         </xmp:Thumbnails>
      </rdf:Description>
      <rdf:Description rdf:about=""
            xmlns:xmpMM="http://ns.adobe.com/xap/1.0/mm/"
            xmlns:stRef="http://ns.adobe.com/xap/1.0/sType/ResourceRef#"
            xmlns:stEvt="http://ns.adobe.com/xap/1.0/sType/ResourceEvent#">
         <xmpMM:OriginalDocumentID>uuid:9E3E5C9A8C81DB118734DB58FDDE4BA7</xmpMM:OriginalDocumentID>
         <xmpMM:DocumentID>xmp.did:1B12731713206811822A8451A1857300</xmpMM:DocumentID>
         <xmpMM:InstanceID>xmp.iid:1B12731713206811822A8451A1857300</xmpMM:InstanceID>
         <xmpMM:RenditionClass>proof:pdf</xmpMM:RenditionClass>
         <xmpMM:DerivedFrom rdf:parseType="Resource">
            <stRef:instanceID>xmp.iid:1A12731713206811822A8451A1857300</stRef:instanceID>
            <stRef:documentID>xmp.did:1A12731713206811822A8451A1857300</stRef:documentID>
            <stRef:originalDocumentID>uuid:9E3E5C9A8C81DB118734DB58FDDE4BA7</stRef:originalDocumentID>
            <stRef:renditionClass>proof:pdf</stRef:renditionClass>
         </xmpMM:DerivedFrom>
         <xmpMM:History>
            <rdf:Seq>
               <rdf:li rdf:parseType="Resource">
                  <stEvt:action>saved</stEvt:action>
                  <stEvt:instanceID>xmp.iid:F77F117407206811822A8451A1857300</stEvt:instanceID>
                  <stEvt:when>2013-10-06T17:09:14+13:00</stEvt:when>
                  <stEvt:softwareAgent>Adobe Illustrator CS6 (Macintosh)</stEvt:softwareAgent>
                  <stEvt:changed>/</stEvt:changed>
               </rdf:li>
               <rdf:li rdf:parseType="Resource">
                  <stEvt:action>saved</stEvt:action>
                  <stEvt:instanceID>xmp.iid:1B12731713206811822A8451A1857300</stEvt:instanceID>
                  <stEvt:when>2013-10-07T00:02:14+13:00</stEvt:when>
                  <stEvt:softwareAgent>Adobe Illustrator CS6 (Macintosh)</stEvt:softwareAgent>
                  <stEvt:changed>/</stEvt:changed>
               </rdf:li>
            </rdf:Seq>
         </xmpMM:History>
      </rdf:Description>
      <rdf:Description rdf:about=""
            xmlns:xmpTPg="http://ns.adobe.com/xap/1.0/t/pg/"
            xmlns:stDim="http://ns.adobe.com/xap/1.0/sType/Dimensions#"
            xmlns:xmpG="http://ns.adobe.com/xap/1.0/g/">
         <xmpTPg:NPages>1</xmpTPg:NPages>
         <xmpTPg:HasVisibleTransparency>False</xmpTPg:HasVisibleTransparency>
         <xmpTPg:HasVisibleOverprint>False</xmpTPg:HasVisibleOverprint>
         <xmpTPg:MaxPageSize rdf:parseType="Resource">
            <stDim:w>209.999929</stDim:w>
            <stDim:h>210.001308</stDim:h>
            <stDim:unit>Millimeters</stDim:unit>
         </xmpTPg:MaxPageSize>
         <xmpTPg:PlateNames>
            <rdf:Seq>
               <rdf:li>Cyan</rdf:li>
               <rdf:li>Magenta</rdf:li>
               <rdf:li>Yellow</rdf:li>
               <rdf:li>Black</rdf:li>
            </rdf:Seq>
         </xmpTPg:PlateNames>
         <xmpTPg:SwatchGroups>
            <rdf:Seq>
               <rdf:li rdf:parseType="Resource">
                  <xmpG:groupName>Default Swatch Group</xmpG:groupName>
                  <xmpG:groupType>0</xmpG:groupType>
               </rdf:li>
            </rdf:Seq>
         </xmpTPg:SwatchGroups>
      </rdf:Description>
      <rdf:Description rdf:about=""
            xmlns:pdf="http://ns.adobe.com/pdf/1.3/">
         <pdf:Producer>Adobe PDF library 10.01</pdf:Producer>
      </rdf:Description>
      <rdf:Description rdf:about=""
            xmlns:xmpRights="http://ns.adobe.com/xap/1.0/rights/">
         <xmpRights:Marked>True</xmpRights:Marked>
         <xmpRights:WebStatement rdf:resource="http://www.ospreydawn.com"/>
         <xmpRights:UsageTerms>
            <rdf:Alt>
               <rdf:li xml:lang="x-default">This work is licensed under a &lt;a rel="license" href="http://creativecommons.org/licenses/by-nc-sa/3.0/"&gt;Creative Commons Attribution-NonCommercial-ShareAlike 3.0 Unported License&lt;/a&gt;.</rdf:li>
               <rdf:li xml:lang="en_us">This work is licensed under a &lt;a rel="license" href="http://creativecommons.org/licenses/by-nc-sa/3.0/"&gt;Creative Commons Attribution-NonCommercial-ShareAlike 3.0 Unported License&lt;/a&gt;.</rdf:li>
               <rdf:li xml:lang="en">This work is licensed under a &lt;a rel="license" href="http://creativecommons.org/licenses/by-nc-sa/3.0/"&gt;Creative Commons Attribution-NonCommercial-ShareAlike 3.0 Unported License&lt;/a&gt;.</rdf:li>
            </rdf:Alt>
         </xmpRights:UsageTerms>
      </rdf:Description>
      <rdf:Description rdf:about=""
            xmlns:cc="http://creativecommons.org/ns#">
         <cc:attributionName>Max O'Brien / Osprey Dawn</cc:attributionName>
         <cc:license rdf:resource="http://creativecommons.org/licenses/by-nc-sa/3.0/"/>
      </rdf:Description>
   </rdf:RDF>
</x:xmpmeta>
                                                                                                    
                                                                                                    
                                                                                                    
                                                                                                    
                                                                                                    
                                                                                                    
                                                                                                    
                                                                                                    
                                                                                                    
                                                                                                    
                                                                                                    
                                                                                                    
                                                                                                    
                                                                                                    
                                                                                                    
                                                                                                    
                                                                                                    
                                                                                                    
                                                                                                    
                                                                                                    
                           
<?xpacket end="w"?>
	</metadata>
<g id="Layer_2">
	<g id="_x37_Wl2mV_1_">
	</g>
</g>
<g>
	<path fill="#FFBF00" d="M297.946,538.677C165.087,538.677,57,430.59,57,297.725C57,164.867,165.087,56.779,297.946,56.779
		c132.858,0,240.944,108.088,240.944,240.946C538.89,430.59,430.804,538.677,297.946,538.677z"/>
	<circle fill="#FFFFFF" cx="297.945" cy="297.725" r="222.125"/>
	<g>
		<rect x="165.427" y="163.9" width="267.962" height="70.446"/>
		<rect x="165.427" y="262.523" width="267.962" height="70.446"/>
		<rect x="165.427" y="361.149" width="267.962" height="70.445"/>
		<path fill="#FFBF00" d="M181.11,199.331c0,0,22.381,0,22.381,21.965c0,0,0.415-21.965,22.795-21.965
			c0,0-22.587-0.416-22.587-22.381C203.698,176.949,203.49,199.331,181.11,199.331z"/>
		<path fill="#CE2020" d="M181.11,297.954c0,0,22.381,0,22.381,21.971c0,0,0.415-21.971,22.795-21.971
			c0,0-22.587-0.417-22.587-22.381C203.698,275.573,203.49,297.954,181.11,297.954z"/>
		<path fill="#214DD8" d="M181.11,396.581c0,0,22.381,0,22.381,21.975c0,0,0.415-21.975,22.795-21.975
			c0,0-22.587-0.406-22.587-22.387C203.698,374.195,203.49,396.581,181.11,396.581z"/>
	</g>
</g>
<g>
	<path fill="#BDC2BC" d="M534.992,588.913c-0.739,0-1.34-0.602-1.34-1.341v-16.588c0-0.739,0.601-1.339,1.34-1.339h52.497
		c0.738,0,1.339,0.6,1.339,1.339v16.588c0,0.739-0.601,1.341-1.339,1.341H534.992z"/>
	<g>
		<path d="M558.027,571.51c-2.725,0-4.935,2.21-4.935,4.934c0,2.729,2.21,4.938,4.935,4.938c2.728,0,4.938-2.21,4.938-4.938
			C562.964,573.719,560.755,571.51,558.027,571.51z"/>
		<path fill="#FFFFFF" d="M558.027,580.461c-2.219,0-4.015-1.798-4.015-4.019c0-2.217,1.797-4.014,4.015-4.014
			c2.219,0,4.019,1.798,4.019,4.014C562.046,578.664,560.246,580.461,558.027,580.461z"/>
		<g>
			<path d="M559.402,575.293c0-0.219-0.182-0.398-0.398-0.398h-1.952c-0.221,0-0.401,0.181-0.401,0.398v1.985h0.528v2.338h1.694
				v-2.338h0.527L559.402,575.293L559.402,575.293z"/>
			<path d="M558.695,573.942c0,0.37-0.3,0.668-0.667,0.668c-0.371,0-0.67-0.299-0.67-0.668s0.301-0.67,0.67-0.67
				C558.395,573.272,558.695,573.571,558.695,573.942z"/>
		</g>
	</g>
	<path d="M587.175,569.198h-51.868c-1.157,0-2.102,0.943-2.102,2.102v15.96c0,1.158,0.943,2.1,2.102,2.1h51.868
		c1.158,0,2.102-0.94,2.102-2.1V571.3C589.275,570.141,588.332,569.198,587.175,569.198z M588.644,583.375h-37.865
		c-1.477,2.809-4.417,4.725-7.81,4.725s-6.333-1.916-7.809-4.725h-1.326V571.3c0-0.812,0.658-1.471,1.47-1.471h51.869
		c0.811,0,1.471,0.658,1.471,1.471V583.375L588.644,583.375z"/>
	<g>
		<path fill="#FFFFFF" d="M557.773,584.933c0.1,0.14,0.15,0.302,0.15,0.495c0,0.198-0.052,0.357-0.151,0.479
			c-0.057,0.066-0.14,0.131-0.25,0.187c0.168,0.061,0.294,0.155,0.378,0.289c0.085,0.13,0.127,0.289,0.127,0.477
			c0,0.192-0.049,0.365-0.145,0.519c-0.062,0.104-0.14,0.188-0.23,0.256c-0.104,0.078-0.225,0.137-0.369,0.164
			c-0.141,0.028-0.294,0.043-0.459,0.043h-1.466v-3.256h1.573C557.326,584.594,557.607,584.706,557.773,584.933z M556.009,585.151
			v0.717h0.79c0.143,0,0.257-0.026,0.345-0.08s0.133-0.147,0.133-0.286c0-0.15-0.059-0.248-0.176-0.301
			c-0.1-0.033-0.228-0.05-0.383-0.05H556.009L556.009,585.151z M556.009,586.407v0.869h0.789c0.143,0,0.25-0.02,0.328-0.058
			c0.145-0.071,0.217-0.206,0.217-0.407c0-0.17-0.07-0.285-0.208-0.35c-0.077-0.034-0.188-0.056-0.327-0.056L556.009,586.407
			L556.009,586.407z"/>
		<path fill="#FFFFFF" d="M560.469,584.586h0.771l-1.089,2.034v1.222h-0.68v-1.222l-1.127-2.034h0.8l0.677,1.418L560.469,584.586z"
			/>
	</g>
	<g>
		<g>
			<path fill="#FFFFFF" d="M566.517,584.426h0.776l1.403,2.473v-2.473h0.692v3.545h-0.742l-1.443-2.517v2.517h-0.688
				L566.517,584.426L566.517,584.426z"/>
			<path fill="#FFFFFF" d="M570.425,584.797c0.285-0.292,0.647-0.437,1.09-0.437c0.591,0,1.02,0.195,1.295,0.587
				c0.148,0.221,0.229,0.439,0.242,0.661h-0.741c-0.048-0.17-0.106-0.299-0.183-0.384c-0.132-0.153-0.328-0.229-0.586-0.229
				c-0.265,0-0.473,0.107-0.623,0.324c-0.152,0.219-0.229,0.525-0.229,0.923c0,0.399,0.08,0.696,0.241,0.895
				c0.161,0.197,0.365,0.299,0.614,0.299c0.252,0,0.447-0.086,0.581-0.256c0.072-0.09,0.136-0.229,0.183-0.41h0.736
				c-0.066,0.387-0.226,0.699-0.486,0.943c-0.262,0.241-0.594,0.36-1.002,0.36c-0.505,0-0.901-0.163-1.19-0.489
				c-0.288-0.328-0.434-0.777-0.434-1.353C569.93,585.607,570.095,585.133,570.425,584.797z"/>
		</g>
	</g>
	<g>
		<path fill="#FFFFFF" d="M578.517,586.944c0.022,0.173,0.073,0.303,0.145,0.389c0.132,0.154,0.354,0.233,0.673,0.233
			c0.19,0,0.347-0.021,0.465-0.062c0.225-0.078,0.338-0.226,0.338-0.438c0-0.125-0.055-0.223-0.166-0.291
			c-0.113-0.066-0.285-0.126-0.525-0.178l-0.411-0.088c-0.401-0.093-0.679-0.188-0.829-0.294c-0.254-0.173-0.383-0.448-0.383-0.819
			c0-0.339,0.126-0.619,0.376-0.846c0.249-0.224,0.617-0.336,1.102-0.336c0.401,0,0.748,0.104,1.033,0.315
			c0.284,0.213,0.436,0.521,0.45,0.922h-0.762c-0.014-0.227-0.117-0.387-0.306-0.484c-0.126-0.065-0.282-0.096-0.473-0.096
			c-0.209,0-0.375,0.041-0.499,0.122c-0.126,0.083-0.188,0.196-0.188,0.346c0,0.135,0.062,0.236,0.186,0.303
			c0.079,0.043,0.246,0.096,0.502,0.155l0.665,0.156c0.292,0.068,0.513,0.162,0.655,0.276c0.227,0.179,0.339,0.435,0.339,0.771
			c0,0.351-0.134,0.637-0.4,0.863c-0.269,0.229-0.646,0.344-1.134,0.344c-0.5,0-0.891-0.112-1.176-0.339
			c-0.287-0.224-0.432-0.536-0.432-0.929L578.517,586.944L578.517,586.944z"/>
		<path fill="#FFFFFF" d="M582.542,584.325h0.896l1.34,3.791h-0.858l-0.249-0.778h-1.396l-0.255,0.778h-0.828L582.542,584.325z
			 M582.486,586.681h0.972l-0.479-1.49L582.486,586.681z"/>
	</g>
	<g>
		<circle cx="542.95" cy="579.28" r="7.771"/>
		<circle fill="#FFFFFF" cx="542.95" cy="579.278" r="6.322"/>
		<g>
			<path d="M542.597,578.348l-1.188,0.215c-0.041-0.237-0.131-0.416-0.273-0.537c-0.143-0.119-0.325-0.178-0.55-0.178
				c-0.302,0-0.537,0.104-0.72,0.31c-0.18,0.204-0.268,0.555-0.268,1.038c0,0.539,0.09,0.921,0.271,1.146
				c0.183,0.223,0.426,0.332,0.73,0.332c0.229,0,0.417-0.064,0.562-0.195c0.146-0.131,0.249-0.354,0.311-0.67l1.182,0.199
				c-0.123,0.545-0.354,0.954-0.707,1.229c-0.348,0.276-0.813,0.416-1.399,0.416c-0.668,0-1.197-0.21-1.594-0.629
				c-0.396-0.42-0.592-1.004-0.592-1.746c0-0.75,0.198-1.337,0.594-1.754c0.397-0.42,0.936-0.627,1.613-0.627
				c0.555,0,0.995,0.118,1.322,0.355C542.219,577.497,542.453,577.86,542.597,578.348z"/>
			<path d="M547.477,578.348l-1.188,0.215c-0.039-0.237-0.131-0.416-0.272-0.537c-0.144-0.119-0.325-0.178-0.551-0.178
				c-0.301,0-0.539,0.104-0.72,0.31c-0.178,0.204-0.268,0.555-0.268,1.038c0,0.539,0.09,0.921,0.271,1.146
				c0.182,0.223,0.426,0.332,0.729,0.332c0.229,0,0.417-0.064,0.562-0.195c0.146-0.131,0.25-0.354,0.311-0.67l1.183,0.199
				c-0.123,0.545-0.356,0.954-0.708,1.229c-0.349,0.276-0.814,0.416-1.4,0.416c-0.668,0-1.197-0.21-1.593-0.629
				c-0.396-0.42-0.592-1.004-0.592-1.746c0-0.75,0.196-1.337,0.595-1.754c0.396-0.42,0.934-0.627,1.612-0.627
				c0.554,0,0.994,0.118,1.322,0.355C547.1,577.497,547.337,577.86,547.477,578.348z"/>
		</g>
	</g>
	<g>
		<path d="M569.93,571.719c-2.61,0-4.727,2.115-4.727,4.726c0,2.612,2.115,4.729,4.727,4.729s4.728-2.113,4.728-4.729
			C574.658,573.834,572.546,571.719,569.93,571.719z"/>
		<circle fill="#FFFFFF" cx="569.93" cy="576.447" r="3.846"/>
		
			<rect x="569.488" y="571.955" transform="matrix(0.4225 -0.9063 0.9063 0.4225 -193.3242 849.4399)" width="0.924" height="8.958"/>
		<g>
			<path d="M569.58,579.151v-0.637c-0.444-0.013-0.877-0.14-1.129-0.277l0.197-0.776c0.279,0.153,0.672,0.292,1.101,0.292
				c0.382,0,0.646-0.151,0.646-0.409c0-0.252-0.223-0.41-0.709-0.578c-0.711-0.238-1.196-0.568-1.196-1.215
				c0-0.59,0.411-1.047,1.122-1.181v-0.631h0.65v0.584c0.443,0.015,0.742,0.115,0.968,0.222l-0.199,0.748
				c-0.167-0.079-0.478-0.232-0.954-0.232c-0.434,0-0.571,0.193-0.571,0.381c0,0.212,0.231,0.356,0.798,0.564
				c0.796,0.276,1.107,0.643,1.107,1.246c0,0.591-0.411,1.09-1.182,1.221v0.684L569.58,579.151L569.58,579.151z"/>
		</g>
	</g>
	<g>
		<path d="M581.185,571.784c-2.571,0-4.66,2.086-4.66,4.658c0,2.576,2.089,4.665,4.66,4.665c2.576,0,4.665-2.089,4.665-4.665
			C585.852,573.87,583.761,571.784,581.185,571.784z"/>
		<path fill="#FFFFFF" d="M581.185,580.238c-2.092,0-3.789-1.698-3.789-3.794c0-2.091,1.695-3.79,3.789-3.79
			c2.096,0,3.793,1.696,3.793,3.79C584.979,578.538,583.281,580.238,581.185,580.238z"/>
		<path d="M581.185,573.885c-1.016,0-1.874,0.733-2.182,1.746h-0.294l0.933,1.016l0.93-1.016h-0.348
			c0.215-0.37,0.563-0.616,0.96-0.616c0.65,0,1.179,0.646,1.179,1.443c0,0.793-0.526,1.44-1.179,1.44
			c-0.432,0-0.81-0.289-1.016-0.72h-1.196c0.278,1.068,1.167,1.854,2.214,1.854c1.273,0,2.311-1.155,2.311-2.576
			C583.496,575.034,582.464,573.885,581.185,573.885z"/>
	</g>
</g>
<g>
	<path d="M11.392,586.197c-0.652,0-1.248-0.138-1.786-0.41c-0.539-0.271-1.002-0.631-1.39-1.07c-0.388-0.441-0.688-0.949-0.9-1.521
		C7.106,582.619,7,582.032,7,581.432c0-0.626,0.114-1.226,0.338-1.797c0.226-0.574,0.533-1.08,0.927-1.521
		c0.393-0.44,0.857-0.792,1.396-1.053c0.538-0.26,1.119-0.39,1.746-0.39c0.653,0,1.248,0.138,1.786,0.417
		c0.538,0.275,0.999,0.641,1.382,1.09s0.682,0.959,0.893,1.528c0.213,0.567,0.318,1.144,0.318,1.726c0,0.636-0.113,1.24-0.338,1.812
		c-0.225,0.574-0.534,1.079-0.926,1.517c-0.394,0.437-0.856,0.785-1.391,1.045C12.598,586.066,12.018,586.197,11.392,586.197z
		 M7.675,581.432c0,0.539,0.091,1.057,0.271,1.555s0.437,0.939,0.768,1.324c0.33,0.383,0.724,0.69,1.178,0.92
		c0.455,0.229,0.955,0.344,1.502,0.344c0.563,0,1.072-0.117,1.527-0.355c0.454-0.239,0.846-0.555,1.17-0.946
		c0.327-0.392,0.578-0.834,0.755-1.328s0.265-0.997,0.265-1.51c0-0.538-0.092-1.057-0.277-1.555
		c-0.185-0.498-0.442-0.939-0.773-1.323s-0.723-0.691-1.179-0.919c-0.454-0.229-0.949-0.347-1.486-0.347
		c-0.565,0-1.076,0.119-1.536,0.357c-0.458,0.238-0.85,0.554-1.17,0.945c-0.322,0.394-0.571,0.836-0.748,1.33
		C7.762,580.422,7.675,580.923,7.675,581.432z"/>
	<path d="M23.14,578.299c-0.608-0.681-1.469-1.021-2.58-1.021c-0.918,0-1.587,0.175-2.006,0.523
		c-0.417,0.349-0.628,0.817-0.628,1.407c0,0.302,0.054,0.554,0.159,0.755c0.106,0.202,0.271,0.373,0.496,0.51
		c0.226,0.137,0.513,0.256,0.86,0.355c0.35,0.103,0.761,0.2,1.237,0.299c0.512,0.106,0.97,0.223,1.377,0.352
		c0.404,0.127,0.75,0.289,1.038,0.483c0.287,0.193,0.508,0.433,0.662,0.715c0.153,0.281,0.231,0.632,0.231,1.044
		c0,0.414-0.082,0.775-0.245,1.086c-0.163,0.31-0.392,0.565-0.688,0.773c-0.297,0.208-0.648,0.364-1.059,0.471
		c-0.411,0.104-0.867,0.157-1.37,0.157c-1.463,0-2.704-0.467-3.717-1.401l0.356-0.542c0.396,0.415,0.882,0.743,1.457,0.984
		c0.573,0.242,1.217,0.363,1.931,0.363c0.821,0,1.461-0.147,1.925-0.449c0.462-0.301,0.695-0.754,0.695-1.362
		c0-0.309-0.06-0.57-0.178-0.787s-0.303-0.404-0.551-0.562c-0.247-0.158-0.554-0.295-0.919-0.409
		c-0.364-0.115-0.796-0.225-1.29-0.33c-0.503-0.105-0.945-0.219-1.329-0.338c-0.384-0.117-0.708-0.269-0.972-0.449
		c-0.265-0.181-0.463-0.398-0.596-0.654s-0.199-0.578-0.199-0.967c0-0.423,0.082-0.797,0.246-1.124
		c0.163-0.326,0.391-0.603,0.682-0.826c0.291-0.226,0.64-0.395,1.044-0.511c0.406-0.114,0.854-0.17,1.351-0.17
		c0.607,0,1.15,0.09,1.627,0.27c0.477,0.183,0.909,0.459,1.296,0.828L23.14,578.299z"/>
	<path d="M25.734,586.131v-9.395h3.863c0.396,0,0.763,0.085,1.098,0.251c0.335,0.168,0.624,0.392,0.866,0.669
		s0.432,0.591,0.568,0.938c0.138,0.35,0.205,0.698,0.205,1.053c0,0.381-0.063,0.746-0.191,1.098
		c-0.128,0.354-0.31,0.666-0.542,0.939c-0.232,0.272-0.512,0.492-0.833,0.654c-0.323,0.164-0.683,0.245-1.078,0.245h-3.281v3.546
		L25.734,586.131L25.734,586.131z M26.408,581.963h3.241c0.309,0,0.586-0.064,0.833-0.191s0.456-0.3,0.629-0.516
		c0.171-0.218,0.303-0.463,0.396-0.741c0.092-0.276,0.139-0.565,0.139-0.866c0-0.309-0.056-0.602-0.165-0.879
		c-0.11-0.279-0.26-0.523-0.45-0.734c-0.189-0.213-0.41-0.381-0.661-0.504s-0.519-0.186-0.801-0.186h-3.162L26.408,581.963
		L26.408,581.963z"/>
	<path d="M33.963,586.131v-9.395h3.917c0.397,0,0.764,0.085,1.098,0.251c0.335,0.168,0.622,0.392,0.859,0.669
		c0.238,0.277,0.426,0.591,0.563,0.938c0.137,0.35,0.204,0.698,0.204,1.053c0,0.344-0.054,0.676-0.159,0.998
		c-0.105,0.324-0.254,0.611-0.45,0.867c-0.194,0.256-0.427,0.467-0.7,0.635c-0.273,0.169-0.572,0.277-0.899,0.331l2.341,3.651
		h-0.781l-2.274-3.547h-3.043v3.547L33.963,586.131L33.963,586.131z M34.636,581.963h3.295c0.299,0,0.571-0.064,0.819-0.197
		c0.247-0.132,0.458-0.307,0.636-0.522c0.176-0.216,0.311-0.462,0.402-0.741c0.093-0.277,0.141-0.562,0.141-0.853
		c0-0.3-0.056-0.589-0.166-0.866c-0.11-0.276-0.261-0.522-0.45-0.733c-0.189-0.212-0.409-0.382-0.661-0.511
		c-0.252-0.127-0.523-0.192-0.814-0.192h-3.201V581.963z"/>
	<path d="M48.899,585.521v0.608h-6.258v-9.395h6.139v0.61h-5.464v3.688h4.775v0.582h-4.775v3.903h5.583V585.521z"/>
	<path d="M50.421,576.736l3.281,5.199l3.308-5.199h0.742l-3.706,5.849v3.546h-0.674v-3.572l-3.69-5.821L50.421,576.736
		L50.421,576.736z"/>
	<path d="M59.126,586.131v-9.395h3.122c0.741,0,1.392,0.124,1.951,0.371c0.561,0.248,1.025,0.583,1.396,1.007
		c0.371,0.423,0.647,0.919,0.833,1.487c0.185,0.567,0.277,1.175,0.277,1.819c0,0.715-0.104,1.36-0.311,1.938
		s-0.505,1.07-0.894,1.481c-0.388,0.409-0.857,0.729-1.41,0.953c-0.552,0.224-1.167,0.337-1.845,0.337L59.126,586.131
		L59.126,586.131z M66.031,581.421c0-0.592-0.083-1.137-0.251-1.635c-0.167-0.498-0.412-0.93-0.733-1.291
		c-0.322-0.359-0.718-0.644-1.185-0.848c-0.466-0.202-1.005-0.303-1.614-0.303h-2.447v8.177h2.447c0.617,0,1.162-0.104,1.633-0.312
		c0.473-0.206,0.866-0.495,1.185-0.865c0.316-0.37,0.559-0.805,0.722-1.303S66.031,582.003,66.031,581.421z"/>
	<path d="M67.288,586.131l3.996-9.395h0.555l3.997,9.395h-0.728l-1.311-3.097h-4.484l-1.311,3.097H67.288z M71.562,577.557
		l-2.09,4.922h4.141L71.562,577.557z"/>
	<path d="M80.148,576.802h0.661l1.401,3.413l1.403-3.413h0.661l-1.654,3.956l1.971,4.577l3.6-8.601h0.742l-4.023,9.395h-0.62
		l-2.063-4.829l-2.077,4.829h-0.622l-4.008-9.395h0.728l3.612,8.601l1.945-4.577L80.148,576.802z"/>
	<path d="M91.05,578.008v8.123h-0.675v-9.394h0.518l6.588,8.27v-8.255h0.675v9.379h-0.622L91.05,578.008z"/>
	<path d="M100.297,586.131v-1.125h0.583v1.125H100.297z"/>
	<path d="M102.401,581.368c0-0.563,0.098-1.127,0.298-1.688c0.197-0.561,0.486-1.062,0.866-1.502c0.379-0.44,0.844-0.8,1.395-1.077
		c0.552-0.277,1.181-0.418,1.887-0.418c0.838,0,1.552,0.192,2.144,0.576c0.591,0.383,1.027,0.877,1.309,1.475l-0.556,0.318
		c-0.159-0.327-0.351-0.601-0.576-0.82c-0.224-0.221-0.466-0.399-0.727-0.537c-0.261-0.137-0.533-0.234-0.814-0.298
		c-0.281-0.062-0.562-0.092-0.833-0.092c-0.6,0-1.129,0.121-1.589,0.364c-0.458,0.241-0.847,0.558-1.164,0.944
		c-0.316,0.39-0.557,0.826-0.722,1.316c-0.164,0.489-0.245,0.981-0.245,1.475c0,0.558,0.097,1.086,0.291,1.59
		c0.195,0.502,0.459,0.945,0.795,1.328c0.334,0.383,0.731,0.691,1.19,0.919c0.458,0.229,0.951,0.346,1.48,0.346
		c0.282,0,0.571-0.036,0.866-0.106c0.296-0.069,0.583-0.18,0.86-0.329c0.277-0.15,0.536-0.343,0.774-0.576
		c0.238-0.232,0.437-0.51,0.594-0.827l0.569,0.278c-0.159,0.352-0.372,0.665-0.642,0.939c-0.271,0.271-0.57,0.502-0.906,0.688
		c-0.335,0.186-0.689,0.324-1.065,0.416c-0.375,0.092-0.742,0.139-1.104,0.139c-0.644,0-1.233-0.141-1.768-0.423
		c-0.532-0.281-0.994-0.649-1.382-1.104c-0.387-0.455-0.689-0.972-0.905-1.549C102.509,582.555,102.401,581.969,102.401,581.368z"/>
	<path d="M115.882,586.197c-0.652,0-1.247-0.138-1.785-0.41c-0.538-0.271-1.001-0.631-1.39-1.07
		c-0.388-0.441-0.688-0.949-0.898-1.521c-0.212-0.572-0.317-1.16-0.317-1.76c0-0.627,0.112-1.225,0.337-1.798
		c0.224-0.573,0.534-1.081,0.926-1.521c0.394-0.44,0.857-0.792,1.396-1.052c0.539-0.261,1.121-0.391,1.747-0.391
		c0.65,0,1.247,0.139,1.786,0.416c0.538,0.276,0.999,0.643,1.381,1.091c0.384,0.45,0.682,0.959,0.894,1.529
		c0.211,0.566,0.317,1.144,0.317,1.726c0,0.635-0.113,1.239-0.337,1.812c-0.226,0.572-0.534,1.077-0.928,1.514
		c-0.393,0.438-0.854,0.785-1.389,1.046C117.087,586.066,116.509,586.197,115.882,586.197z M112.164,581.432
		c0,0.539,0.09,1.057,0.271,1.555c0.181,0.498,0.436,0.939,0.767,1.324c0.331,0.383,0.724,0.69,1.178,0.92s0.954,0.344,1.501,0.344
		c0.564,0,1.073-0.117,1.527-0.355c0.456-0.239,0.845-0.555,1.171-0.946s0.578-0.834,0.754-1.328
		c0.175-0.494,0.266-0.997,0.266-1.51c0-0.538-0.094-1.057-0.278-1.555c-0.186-0.498-0.443-0.939-0.774-1.323
		s-0.724-0.691-1.178-0.919c-0.455-0.229-0.95-0.347-1.488-0.347c-0.563,0-1.075,0.119-1.534,0.357s-0.851,0.554-1.172,0.945
		c-0.321,0.394-0.57,0.836-0.748,1.33C112.252,580.422,112.164,580.923,112.164,581.432z"/>
	<path d="M130.659,586.131v-8.123l-3.704,6.338h-0.423l-3.705-6.338v8.123h-0.675v-9.394h0.675l3.916,6.722l3.916-6.722h0.675v9.394
		H130.659L130.659,586.131z"/>
</g>
</svg>
