<?xml version="1.0" encoding="utf-8"?>
<!-- Generator: Adobe Illustrator 16.0.0, SVG Export Plug-In . SVG Version: 6.00 Build 0)  -->
<!DOCTYPE svg PUBLIC "-//W3C//DTD SVG 1.1//EN" "http://www.w3.org/Graphics/SVG/1.1/DTD/svg11.dtd">
<svg version="1.1" id="Layer_1" xmlns="http://www.w3.org/2000/svg" xmlns:xlink="http://www.w3.org/1999/xlink" x="0px" y="0px"
	 width="595.275px" height="595.279px" viewBox="0 0 595.275 595.279" enable-background="new 0 0 595.275 595.279"
	 xml:space="preserve">
<metadata><?xpacket begin="﻿" id="W5M0MpCehiHzreSzNTczkc9d"?>
<x:xmpmeta xmlns:x="adobe:ns:meta/" x:xmptk="Adobe XMP Core 5.3-c011 66.145661, 2012/02/06-14:56:27        ">
   <rdf:RDF xmlns:rdf="http://www.w3.org/1999/02/22-rdf-syntax-ns#">
      <rdf:Description rdf:about=""
            xmlns:dc="http://purl.org/dc/elements/1.1/">
         <dc:format>image/svg+xml</dc:format>
         <dc:title>
            <rdf:Alt>
               <rdf:li xml:lang="x-default">NFL Logo Redesigns</rdf:li>
               <rdf:li xml:lang="en_us">NFL Logo Redesigns</rdf:li>
            </rdf:Alt>
         </dc:title>
         <dc:creator>
            <rdf:Seq>
               <rdf:li>Max O'Brien/Osprey Dawn</rdf:li>
            </rdf:Seq>
         </dc:creator>
      </rdf:Description>
      <rdf:Description rdf:about=""
            xmlns:xmp="http://ns.adobe.com/xap/1.0/"
            xmlns:xmpGImg="http://ns.adobe.com/xap/1.0/g/img/">
         <xmp:CreatorTool>Adobe Illustrator CS6 (Macintosh)</xmp:CreatorTool>
         <xmp:ModifyDate>2013-10-07T00:10:28+13:00</xmp:ModifyDate>
         <xmp:MetadataDate>2013-10-07T00:10:28+13:00</xmp:MetadataDate>
         <xmp:CreateDate>2013-10-07T00:10:28+13:00</xmp:CreateDate>
         <xmp:Thumbnails>
            <rdf:Alt>
               <rdf:li rdf:parseType="Resource">
                  <xmpGImg:width>256</xmpGImg:width>
                  <xmpGImg:height>204</xmpGImg:height>
                  <xmpGImg:format>JPEG</xmpGImg:format>
                  <xmpGImg:image>/9j/4AAQSkZJRgABAgEASABIAAD/7QAsUGhvdG9zaG9wIDMuMAA4QklNA+0AAAAAABAASAAAAAEA&#xA;AQBIAAAAAQAB/+4ADkFkb2JlAGTAAAAAAf/bAIQABgQEBAUEBgUFBgkGBQYJCwgGBggLDAoKCwoK&#xA;DBAMDAwMDAwQDA4PEA8ODBMTFBQTExwbGxscHx8fHx8fHx8fHwEHBwcNDA0YEBAYGhURFRofHx8f&#xA;Hx8fHx8fHx8fHx8fHx8fHx8fHx8fHx8fHx8fHx8fHx8fHx8fHx8fHx8fHx8f/8AAEQgAzAEAAwER&#xA;AAIRAQMRAf/EAaIAAAAHAQEBAQEAAAAAAAAAAAQFAwIGAQAHCAkKCwEAAgIDAQEBAQEAAAAAAAAA&#xA;AQACAwQFBgcICQoLEAACAQMDAgQCBgcDBAIGAnMBAgMRBAAFIRIxQVEGE2EicYEUMpGhBxWxQiPB&#xA;UtHhMxZi8CRygvElQzRTkqKyY3PCNUQnk6OzNhdUZHTD0uIIJoMJChgZhJRFRqS0VtNVKBry4/PE&#xA;1OT0ZXWFlaW1xdXl9WZ2hpamtsbW5vY3R1dnd4eXp7fH1+f3OEhYaHiImKi4yNjo+Ck5SVlpeYmZ&#xA;qbnJ2en5KjpKWmp6ipqqusra6voRAAICAQIDBQUEBQYECAMDbQEAAhEDBCESMUEFURNhIgZxgZEy&#xA;obHwFMHR4SNCFVJicvEzJDRDghaSUyWiY7LCB3PSNeJEgxdUkwgJChgZJjZFGidkdFU38qOzwygp&#xA;0+PzhJSktMTU5PRldYWVpbXF1eX1RlZmdoaWprbG1ub2R1dnd4eXp7fH1+f3OEhYaHiImKi4yNjo&#xA;+DlJWWl5iZmpucnZ6fkqOkpaanqKmqq6ytrq+v/aAAwDAQACEQMRAD8A9U4q7FXYq7FXYq7FXYq7&#xA;FXYqh77UbGxi9W7mWFOxY7n5DqfoyjPqceEXOQiGUYGXJhfmL82tD0mBpi8UEI2+tXkiwx19gTU/&#xA;eM0WX2g4jw4IGZ/HQb/c5UdLW8jTyLzH/wA5W6FE7R2t7cXr9BHp8PBQf+MkvA/cTkY4e09QeYxj&#xA;8d1n7U3hjyFsD1H/AJyc1i4Y/V9GlkHaS7vGJ+lAn/G2ZMfZTU5N55JH8eZ/QyGbuilD/wDOQnm8&#xA;tWPSbFV7BmlY/eGXLR7EjrI/Ynx59wRNp/zkZ5lhIMujW7Hv6M8kRqD2qHwH2LkPpmR+Pgvjy6gM&#xA;o0j/AJyokiKi8stRtBt/cTJdKP8AYuYv1ZVL2e7Rxf3eQn5/d6kGcTzi9B8u/wDOTvlq9ZY31a3E&#xA;h6xXyNasP9mQkf4nMeWo7SwfXDjHu/V+pj4eKXI09P0b8x9D1CNHkPorIKpMrCWFh7Ov9Mv0/tBi&#xA;keHIDjl9n4+DCelkNxuymKWKWNZInEkbiqupBBHsRm9hMSFg2C4xFLskh2KqF9eQ2VnNdTGkcKlm&#xA;96dAPn0ynPmjigZy5RDKMTI0FaNuaK1KcgDT55bE2LYlvCrsVdirsVdirsVdirsVdirsVdirsVdi&#xA;rsVdirsVWTTRQxNLM6xxIKu7GgA9ycjOcYgykaASBfJ5354/OHRNAspJzcx2lsvw/XZ+rHwii+07&#xA;fR9Gc5qO2p5ZeHpY8R/nfj7y5cdOIi5l8vee/wDnJPWtSuJI/L6NCpqDqN2BJO3+pGSyIPCtfkMO&#xA;n7B4jx6iRnLu/b/YiWpraAoPH9T1fVdVuTdaldzXlwf92zuztTwHImg9hnQYsMMYqAER5OLKRPNC&#xA;AkdDTLQSENYFbDMOhI+WSEiORTaql5cJ+2SPA75fDWZI9WQyEK41FiKkUb7wf4jModon4/Z+xn4q&#xA;tHd28w4uACezbj78ycerx5RUtvezEweab6F5h8xeXbj6xoV/LaGtXt68oH/1o2qp+dMwtf2Fg1A3&#xA;Av8AHXmGQBj9Jp9AflP/AM5GRz3UWnaoV0zU3IHpOT9TuGP8hJ/dufAn5E9M4fP2fquzpGWK5Y+s&#xA;T+PtDZxxybS2k+l9D8wWOrwc4DwmUfvbdj8S/wBR75utB2jj1MbjtLqOo/Z5uLlwmB3TPM9qYR+Y&#xA;Grl3i0iE7kiS4+Z+wp/X92cn7RayyMEfef0D9Pyc7SY/4izfOscF2KuxV2KuxV2KuxV2KuxV2Kux&#xA;V2KuxV2KuxV2KpfrOuWOk23rXLVdv7qFftufYeHicwtdr8emhxTO/QdS2Y8RmaD5q/OL/nIqGwml&#xA;0+yK32qoSBaoT9Wtj/xaQRzf/JH08emaDHptR2gePKeDD0H4+8/ByjOOLaO8nzHr/mTW/MF+1/q9&#xA;291cNspc/Ci1rxRR8Kr7AZ0un02PDHhgKDhzmZGylmXsXYq7FXYq7FXYq7FXYqiba8eKit8SfiPl&#xA;mbptbKGx3i2QyUjnjhuIxXcH7LDqM208cM0e9vIEg9f/ACd/OzUNGv7fRvMF2yxghNO1ZzunYRTs&#xA;eqHpyPTvt08+7Y7EyafJ42DaQ3odfd+kfgzhk/gnyfYGl+brG70aW+kISW1TlcQjx7cfZjsMu0vb&#xA;GPJgOSW0oD1D9XvaZ6ciVd7ymx8xjXPOl/YD457V7ZrqQHb1bpmYRDw4Iqn/AGQzj5Y55JwyS55Z&#xA;/pH9g9znggAgfwh7pnpDqHYq7FXYq7FXYq7FXYq7FXYq7FXYq7FXYq7FUv1zWrbSLFrmX4nPwwxV&#xA;oXbw+XicwtfroabHxy59B3lsxYzM0Hx9+ef5639xf3OjaLcn65UxahqCdIh0MEHgR+0w6dt980ug&#xA;7PnqJ/mNRvf0x/HTuHzcnLlEBwQfPpJYkk1J3JPUnOncJrFXYq7FXYq7FXYq7FXYq7FXYqr2tyYX&#xA;od0P2h/HMvS6k4zv9JZwnSYyJHPGVqCD0I7ZuckI5Y05BAkHr/5ZfnEth5X1LTtfmL3WjW5lsnZq&#xA;NcRAhUgJPVg5UL7H/JzzLtjsKQzjg2EzUvLrfu6tmLPQIl0Zv/zj41xb6N/ifVVM13q+oS6jKdgW&#xA;CnggFeg5oSPbMHtHUQxauAAuGEDb7f1M8UDLGe+T3jTPPUFxM8t/LHZWybRwBXkkcnuzAHYfLNlp&#xA;e34zkZZCMcByG5J+NcmmelIG25ZDpusWWpK72Zd4kNDIUZVJ9iwFc3Wl1uPOCYWQOtEfe408ZjzR&#xA;uZbB2KuxV2KuxV2KuxV2KuxV2KuxV2KuxV4D+eeu+br6wvIvKts9zeO31S3eN0Qwxb+pMvNk+Jqf&#xA;CRuKg9s4rLqsWfWE5ZVihy86/Xz92zsYwlHH6R6i+Odc0HVtDvzYarB9WvAod4S6OwDbjlwZqEje&#xA;hzr8GohljxQNxcCUDE0Uvy5i7FXYq7FXYq7FXYqmVv5e1e5sPr1tbme2qQzRlWYFeoKA8vwys5Yg&#xA;0Tu5uPs/NPH4kY8UfL9XNLiCDQ7EdRljhNYq7FXYq2CQajY4g0q55WcDluw25d6ZZPKZVfMJJt6R&#xA;5I/M/wAzgwaNP5ht9D02JEjjupbX1ikaKEVI0VGSu1eT0qepOc9ruy8W8xjOSXdxV89/u+TkYs8u&#xA;V0H0n5Kv/Ll1FbvNqh1mzQfvruB4pHkc7/H6XBU+SgUzk4QhHN+/jKEO4D9e9OcSTH0my9m0nU9F&#xA;uoEi06aMogosK/Cygf5Boc7zR6rBkiBiIodOX2OsyQkD6kwzNa3Yq7FXYq7FXYq7FXYq7FXYq7FX&#xA;Yq07pGjO7BUUEsxNAAOpJwSkALPJQHhv5ufmX5R8vWn1swRxICy20cSqs11IB0UDog7sfp7DOJ1E&#xA;I63NwaeAjGPOVV+PIcy7KJOONyO/c+KtY1S71bVLvU7tuVzeSvNKfdzWg9h0GdlhxDHAQjyiKddK&#xA;Vmyg8tQ7FXYq7FXYq7FXYqyHyt5tk0T1YXh9e2lPIqDxZWpSoO9du2Y+bBx+93HZfax0tgjiiUL5&#xA;k1XTdTvfrVnaNau+89WBDt48QNj4775PDAxFE24/aOqxZ58cI8JPPzSjLXXuxV2KuxVXjugv2okb&#xA;3oAcy8eqEecYn4MxOuiLieym24KreBABzYYp4Mm1AH3NsTEom0NxZXC3On3M1lcr9maCRo2H0qQc&#xA;GfsvDkFEfp+9lwDps9A8t/nn530d0XURHrNsn7TfubkU8JEFD/slJ985XXex8D6sR4T5fq/UWwZZ&#xA;jn6g95/L/wD5yT0TVmjtTecbk0B0/UaRTV8I5alX+8n2zTHLr9FtMeJAfj3j4rw48nL0l7Ro/mrS&#xA;NU4pHJ6Vwf8AdEmzE/5J6N9GbbRdr4dRsDUu4/jdx8mCUfcnGbNpdirsVdirsVdirsVdirsVdirx&#xA;786fzY03y9pE7u/K2iPpxwo1GurjtGp/lHUn6fDOV12onrcv5fEfQPqP46feXOxQGOPHLm+IvM/m&#xA;bVfMmsT6rqcvqTzH4EFeEcYPwxxjsq/2nfOi0ulhggIQGw+3zcSczI2UpzIYOxV2KuxV2KuxV2Ku&#xA;xV2KoiKzdk9R2EadanrTMzFozKPFI8MWwY9rKi4QGiEkeJFMxpiIPpYGui3IIdirsVdirsVRUF9J&#xA;H8L/ABr+OZ+DXyhtLcNkchCNjuoJOjUPgdjmzx6vHPkW4TBXSQxSijrXwPfJ5cMMg9QSYgsv8n/m&#xA;v5u8qtHC0p1bSEIrZ3DEyIo/31Luy+w3X2zku1fZbHkuUNpd4/SOv3pjklDzD6n/ACu/PTSPMNmv&#xA;p3BuEjA9e3koLu3rt8a1+Nff8e2c7j1+o0Uhj1A4odJfjn7juyOKOQXHYvYba5t7qBJ7eQSQuKo6&#xA;7g502LLHJESibiXClEg0VTLEOxV2KuxV2KuxV2KsZ89+Y49I0l1EoilmRi0pNBHEoq7k9tv89s0n&#xA;beuOLHwQ/vJ7fD8bBydNj4jZ5B8Afmd57uPN/mOS5VmXS7UtFpsJqKR13kI/nk6n6B2zJ7L0A02K&#xA;v4z9X48mGbLxy8mIZsml2KuxV2KuxV2KuxV2KuxVXs4hJOAd1G5+jMrR4uPIAeQZ442V99OXk9MH&#xA;4F6+5y3XajilwjkGWSVmkLmA1OxV2KuxV2KuxV2KuxVeksifZYj5HLIZZR5EhIkQiI9QmU/HRx9x&#xA;zMx9oTH1btgynqj9N1K9sb2PVNHuXtdQgPJXQ0PuCOhB7g7HDq9Jh1cDQvvH46+bPnvHm+qPyL/P&#xA;WPV0NrdBYdSjFb/TwaLIo29eDkf+CXt9xzgZwy9mZbFywSPy/b97ftmFHaQfRtrdQXVvHcQOHhlH&#xA;JGHcZ1OLLHJESibiXBlEg0VXLEOxV2KuxV2KuxV8n/8AOUf5gyLYPp1tJSXWHaJaHdbOGnL5eoxH&#xA;3tnK6Afm9ZLMfoh9P6P1+9zcv7vGI9S+W86pwnYq7FXYq7FXYq7FXYq7FXYqirFgnqv/ACrXM/Qy&#xA;4eKXcG3GasoYkk1PU5gE21OoaVpt0rho1atYFdiqK03TNQ1O9isdPt3uruY8Y4YxyYn+nicry5Y4&#xA;4mUjQCYxJNB71+X/APzi7cX8In11pbi4IBNlaMEijPWkk7bE+y0+ZznsnbGfPLh0sLH84/ih8XLG&#xA;njEXMsq1b/nEnRmJaG2v7XwFvPHMv3OsjfjkfzXaWP6oCX4/oleDCeRpit3/AM4nXQekOp3cI/ll&#xA;sS5/CSPCO29QPqwS+0f71fy0Okkl1P8A5xi123FLTWIZHpsLmCS3/wCImbEe0kR9eOUfx50v5Q9C&#xA;wLzL+Vfnfy8GkvdOaa0Xc3dr++ioOpbj8SD/AF1GbXS9rafNtGVHuOx/HuaZ4JR5hiWbFpXI7IwZ&#xA;TQjvk4TMTY5pBpMtP1e90+/t9X02U2+oWjhwy+I2rTuD0I8Mt1mLHqcZJH9YfpbOL+Ic33H+RH5h&#xA;w+Y9FtZQeCXqnlDWvpXUe0qD2NKj2p45x/Zc5aXUS00j6TvH8eY+0ORmAnATD13OocJ2KuxV2Kux&#xA;VLPMt2bTQryYGjemUQ9+UnwD/iWYHambw9POXlXz2bcMbmA+aPNf5HXHnvzG2q3F5cm3iiS3t7W0&#xA;hrwVasS0jchUu5P2c5bsztDLixcGLHxG7J3/AEfrc3NiiTcjSj/0KNpH/a4/5GW//VHNj+f7R/1I&#xA;fI/8U0+Fh/nJVqf/ADiYI1Jt7zULen7U1us69+6el+vD/K+rh9eE/C/2r+XxnlJg+r/845+crQM1&#xA;hc2uoBekfJoJT/sXHD/h8txe0eE7TEo/b+37ES0kum7Add8neaNBYjV9MuLRBt6zITESdtpV5Ifo&#xA;ObjBrcOb6JA/f8ubjyxyjzCTZksHYq7FXYq7FXYqvR+KOv8AMAPuNcshOoyHf+tIOyzK0Ii1ufSq&#xA;rDkjdRmXpdT4exFxLOE6RHp2M/2SEY+G34HM3w9Pl5bH5NlRkh57KWPcfGviP6Zh59FOG43DCWMh&#xA;W0bXNX0W+S/0q6ks7uPpLGaVHXiwOzKe4IpmuzYIZY8MxxBjGRibD6N/KX/nJAPcxWWsOmnai5Ci&#xA;bpaXB6UcE/u3P3eBHTOZzdn59FI5NOeKHWP45/e5kcscgqfN9ReX/MtjrEP7s+ndKKyW5NT81P7Q&#xA;zcdndqY9SNtpjmPxzcfLhMPcm+bNpadEdSrqGU9VIqMBiCKK2kep+TNEvgWWL6rMf92Q/CK+6/Zz&#xA;UarsPT5dwOCXeP1cnIhqZx83jf5if842aJq4luBZhbg1P6QsAI5a+MkW6v77E+4zW+DrtH9B8XH3&#xA;fs5j4W3cWPJz9JfNXnb8mfNfllZLqNP0npaVJurdTzRR3li3ZfmKj3zZaHtrDn9J9E+4/oLTk08o&#xA;78wwNWKmo+n5ZuoyMTYaAXun/OLvmaWz1LUdLDbxmPUbdPdGEcv3gpnL+0ETjljzx5xNfpH6XL0p&#xA;sGL7cjdZI1kQ1VwGU+x3GdLGQIBHVwyF2FXYq7FXYqh72wtb6EQ3SepEGDlCSASvStOuU59PDLHh&#xA;mLDKMzE2FaKGKGNY4kWONRRUUAAD2AyyEBEVEUEE3zXZJDsVULrT7G7FLm3jmH+WoY/QTlOXTY8n&#xA;1xEveGUZkcix7U/y80S7RxDyty4IKf3kZr4q+/45ptR7PYJbwJgfmPx8XIjq5Dnu8M/Mj/nGPRrp&#xA;ZLu1gGm3BqReWK1gJ/4tg2C/NePzOYhza3RfX+9xd/7eY+Nhs4ceTlsXzP5x8ieYfKV6LbVYP3Uh&#xA;P1e8jq0MoH8rUG/ip3ze6LX4tRG4HfqOocXJiMDux7M1rdirsVdirsVdirsVdiqrFczR/ZY0/lO4&#xA;y/FqZw5FkJkL2MM+4Ail/wCFP9MtkYZf6M/sP6mRo+RUGUqSGFCOozElEg0Wsh63+Uv54aj5cuLf&#xA;Tdankl0xCFtb0Vaa17Dfq0Q8Oo7bbZz/AGl2RxHxcHpyjf3/ALfv6uVhz16Zbxfafk/zlZ65bRKZ&#xA;ENyyB45EIMcyEVDxkbdN6fdlvZfawz/u5+nKPt/b3hjmwcO4+lkubpx3Yq7FUm1ryrpeqhndPRuj&#xA;0uIxQk/5Q6N+vNXruyMOo3I4Z94/T3t2LPKHufN35uf84321y8l7psaadqTksk0YItLg+DqB+7c+&#xA;IHzB65qIavU6CQhmHHi6H8fcfg5Bxwyi47SeSflDp+reXvzbtdJ1KB7W7eO4hlibuBC0oNQaMp9O&#xA;oIqMze2MkM2iM4Gxsftr9LXpwY5KL728vuz6HYM3X0IwT8lAzZdnSJ0+Mn+aPuaco9Z96PzMa3Yq&#xA;7FXYq7FXYq7FXYq7FXYq4gEEEVB6jFXnn5iflhpGuaVcRizWe2lFbmxpsab84qbqy9dvozmu0Oyp&#xA;YpePpvTIcwP0fqczFnBHDPk+HPzI/L+98m62bZiZtNueT6fdH9pAd0egA5p3+/Nn2Z2jHU475SHM&#xA;fjo05sRgfJiObJpdirsVdirsVdirsVdirsVbLEgA706YTIlbawK9U/Jr83bvyvfQaVqc7foV5AYJ&#xA;yTytJCahlP8Avsn7Q7dR3rou1uy/E/e4tssft/a5ODNXpl9L7k8p+ZItasAzMv1qMD1QtKMD0kWn&#xA;Y5f2T2j+ZhUtskef62OfDwHbknmbZodirsVU7i3guYXgnQSROKOjCoIyGTHGcTGQsFIJBsPJPOnk&#xA;XTrHXrLUvQEj2/qHT7kj44xIpSSIt3FG75wnamjnpCYRJ8LJ+jp8PudngyCe5+oPVtLtja6ba2x6&#xA;wxIjfMKAfxzttLi8PFGPdEB1s5XIlE5kMXYq7FXYq7FXYq7FXYq7FXYq7FXYq8V/Pr8s7TXtFuIU&#xA;RVN1WW0kptDeICVPsr7g+1c5TXwOi1Mc8Pon9Q+/9Y83OxHxIcJ5h8MTRSwyvDKhSWNikiMKFWU0&#xA;II8Qc6oEEWHBWYVdirsVdirsVdirsVdirsVdirsVfSX/ADjV+adwhj0K7lLXmnLysix/vrStHhPv&#xA;H+z7f6uct2phlpc41OPkT6h+O/73NwyE48BfXtrcw3VvHcQtyilUOh9jnS4ssckRKPIuHKJBoquW&#xA;IdirsVQupaZa6jAsNwtVV1kU9wyGv4jbMbVaWGaPDLoQfkzhMxNhFZksHYq7FXYq7FXYq7FXYq7F&#xA;XYq7FXYq7FUq802K3uhXcdKuiGWP/Wj+Lb5gUzXdrafxdPMdQLHw3bcEuGYfn3+dmippf5h6h6a8&#xA;Yb4Jexj3lFJD9Mqscp7Dz+Jpo3zjt8uX2Uy1MamWCZt2h2KuxV2KuxV2KuxVMoPLfmK4iEtvpV5N&#xA;E32ZI4JWU/IhSMolqcUTRlEfEMhCR6IK5tLq1lMVzC8Eo6xyKUb7mAOWxmJCwbQRSlkkOxVH6DrV&#xA;7oms2mrWTcbmzkEieBpsyn2ZaqfbKdRgjlgYS5SDKMjE2H6Bfk/5wtNc0SAwPyt7qIXVnU7gN/eR&#xA;n3Vu3jXNB2HmljnLTT5x5fp/W5WpiCBMdXoedK4bsVdirsVdirsVdirsVdirsVdirsVdirsVdirs&#xA;VdiqF1a6itdMuriWnCONiQe5pQD6TtmNrMox4pSPIAs8cbkA+BP+ch76C58/RwxEF7Oxhgn9nLyS&#xA;0/4GVc1Xs5jMdNZ/ikT9w/Q36s3P4PMM3ziuxVvFWsVTfy/5X1jX/r36NhMv6Ptnu7jr9hP2R4s3&#xA;7I75jajVQw8PGfqNBnCBlddFLy75f1PzBrFvpOmx+pdXDUBNeKKN2dyK0VRuclqdRDDAznyCIQMj&#xA;QfW/5T/8476PpsEV2Ykubtaepq1ynI8x1+rxnZaePX3zmY/mu0Dd+Hh+/wDX9zmHgxecnskX5e6G&#xA;qUd5pGpu3IDf2AXM2Hs5pwNzI/H9jWdXNKPMH5R6Nqlq0DCO6iPS3vY0lQn502+dMpn7PGB4sGSU&#xA;Zef6x+pkNVe0g+Z/zX/5xyuNNeW88t27RTRgvLpDMWDr/NbOxNf9Qn5b/Dh0va2TDPwtUKPSX46e&#xA;fzWeASHFB4JLFJFI8UqGOWMlXRgQysDQgg7gg50gIIsOGswq+hP+cXvPMtpLPokj1ksn+u2SnvEx&#xA;Czx/KpB/2RzmO2oHBmhqY99H8eYsObpzxRMC+zoZY5oUmjPKORQ6N4qwqDnSwmJREhyLhkUaXZJD&#xA;sVdirsVdirsVdirsVdirsVdirsVdirsVdiq2SSOKNpJGCRoKs7GgAHck5GUhEWTQCQLeL/nT+cGl&#xA;aJo0khflCpItLcGj3U4Hw7dRGvUnt86DOU1Won2hlGHF/dDnL8fYOrmwgMQ4pfU+INV1O81XUrnU&#xA;r1/UuruRppn7cnNdh2A7DOpxYo44CEeQDhSkSbKlZ2d5e3CW1nBJc3EhpHDEpd2Psqgk5Kc4xFyN&#xA;BQCeT2z8sfyEvGuI9W81Q/u4R6sWkD4yeO/K4pUBR14/8F4Hl+0u3eIGGCz3y/V+tzMOm6yeefm1&#xA;pq6d+YutwKvFJJxcLQUH+kIsxp9LnNx2Rl49LA+VfLZozxqZYpb289zcR29vG0s8zCOKJBVmdjRV&#xA;AHUk5sJSEQSdgGkC32T+SH5QT6T5ce2BRL+QCbUbo7q05HwQqR+yg2r8z3zjcmPJ2nllKO2OG0b/&#xA;AB169zsQRhiAeZRXlL8ndL8uedbqeG0ktZtYkVZENPTjjBLyiAgfZc/FSppTbbbKsg1ObJj0+YEA&#xA;H5/HrQ6pHBEGcXvcUUcUSxRKEjQBUQbAAdAM7eEBEAAUA64m12SQ7FUHqukWWqWpt7pOQ6o4+0h8&#xA;VOYur0ePUQ4Zj9Y9zPHkMTYfNn51/wDOP0epyvf2nC11Y/3V6ARDcgDZJ6V4uAPtdfmOnOY8+bs6&#xA;XBk9eE8j3fju+TmGMcwsbSfLWuaBrGhX72GrWr2l0n7DjZh/MjD4WX3Bzp8GohljxQNhwpQMTRR3&#xA;kXzG/lzzZpurhiIoJQLkDvBJ8Eop3+BjT3ynX6bx8ModSNvf0ZYp8MgX6IeQNUW80QQ8w7Wp4qQa&#xA;1jf4kNfvA+Wa72f1PHg4Dzga+HT9XwbdVCpX3smzeuM7FXYq7FXYq7FXYq7FXYq7FXYq7FXYq7FX&#xA;Yqh9Q0+0v7Zra6TnC25UEruOhqCMo1GmhmhwTFxZQmYmwwPzH+TWh6woWaO3vIlr6cV9CsvGv8r0&#xA;NPuzQS7AnjN4Mhj+O8fqcoaoH6hbER/zjB5UEvqfonTq9Kc5ytP9WnHH8j2jy8WPzP8AxK+Lh/ms&#xA;v8u/k3oWkJwhjgs4jTnFYwpFyp/M9N/uxj2BPIbz5DL8d5/Up1QH0imVXek6fp3l7UIrOFY1NtNy&#xA;bqzH0z9pjuc2WbR4sGmyCAr0S+4tUckpTF974O/Pe1km/MuSG3iaSeeC2VI0BZncrxUADck7DMbs&#xA;CQGlsnYEstUPW9U/If8AIm8tLuPVdUjVtYdQY4yOSWcbDdmPeUjbbp08cwNXq56+fgYf7v8Ail+O&#xA;n3tuOAxDilzfVmmabbadZR2lutI0G5PVm7sfc50ml00MGMQjyDiTmZGyiqD7umZDB2KuxV2KuxVZ&#xA;PBDcRNDOiyROKMjCoI+RyGTHGcTGQsFIJG4eb+evyZ0TX7N4WtY7y3NStrPs6E94ZgQyn6R885zN&#xA;2Nkwy8TSyo/zfxz+PzcuOoEhUw+afOv/ADjLqljPI2hXBG5IsL8cHA/yJQOLe1QPmcOLt6WM8Gog&#xA;Yy7x+r9VrLSg7wNvdfyBvdbs9L0zT9cge11AQGyuI3KtVrckRPyUsG5Io3r1OYvZ+oxx18hA3DJ9&#xA;/P8AWGeWBOIXzD2zOvcB2KuxV2KuxV2KuxV2KuxV2KuxV2KuxV2KuxV2KuxV2KuxVLfMsvpaBft4&#xA;wsn/AAY4/wAcwO1J8OmyH+iR89m3CLmHk/lz8qbTUvMsvmZ7fjdTIsQv5hy9ONF48bddqV3q3z3p&#xA;tnKaDR6jU4xjvgwj7f1/d8XOy5IQN85PYNM0uy021W2tE4IN2Y7sx/mY9znY6XSY8EOCAoff73Xz&#xA;mZGyisyWDsVdirsVdirsVdirsVUrm0tbqMxXMSTRn9l1DD8cry4YZBUwJDzTGRHJJm8laOl3Fd2v&#xA;qWs0LrIoRqqSpruG5fgc1R7DwCYnC4Sib2O32t/5mVUd0+zcuO7FXYq7FXYq7FXYq7FXYq7FXYq7&#xA;FXYq7FXYq7FXYq7FXYqp3NtBcwmG4QSRMQWRuh4kMK/SMry4o5I8MhYTGRBsKiqFAVQAoFABsABk&#xA;wKQ7CrsVdirsVdirsVdirsVdirsVdirsVdirsVdirsVdirsVdirsVdirsVdirsVdirsVdirsVdir&#xA;sVdirsVdirsVdirsVdirsVdirsVdirsVdirsVdirsVdirsVdirsVdirsVdirsVdirsVdirsVdirs&#xA;VdirsVdirsVdirsVdirsVdirsVdirsVdirsVdirsVdirsVdirsVdirsVdirsVdirsVdirsVdirsV&#xA;dirsVdirsVdirsVdirsVdirsVdirsVdirsVdirsVdirsVdirsVdirsVdirsVdirsVdirsVdirsVd&#xA;irsVdirsVdirsVdirsVdirsVdirsVdirsVdirsVdirsVdirsVdirsVdirsVdirsVdirsVdirsVdi&#xA;rsVdirsVdirsVdirsVdirsVdirsVdirsVdirsVdirsVdirsVdirsVdirsVQv6W0r/ltg/wCRqf1x&#xA;V36W0r/ltg/5Gp/XFW11TTGYKt3CzMaKokQkk9hvirAo/Pfmn/R5JIrc2zfV2unis5zIksxYS2Kx&#xA;yzxBpoeI5Nz5HkKQmhxVLk/ML8zU0Ox1G50SON7q2huGX6t8K+ssQo4S9leMc3bhszHYMqdcVTyf&#xA;zf5p+rpNarYzW0kMk735UNHCLd+EqSJBdTqzMZomSkv2RJypRaqod/P3mpJgY9MF7p0HNbjU4YJE&#xA;jmdZGkUQRvIXXlbQuFPxKzyR0amzKofTPzB87TWi31zo6m1t7ed9QjS3uI5+cLg84YmZmdBFPExX&#xA;7TUk47gLiqZXHnTWw0/D6vCUlghWB7W4kZIpBF617I6SKvoxNI6kUAqtC4NaKqOm+dvOVzKI30dH&#xA;t21CG1TUVSWOI2omjjluGjdiy+skyPAOR2JqSIzyVZ/irsVdirsVdirsVdirsVdirsVdirsVdirs&#xA;VdirsVdirsVdirsVdiqS+d5Ui8ma/K54pHpt2zHrQCByemKvnEeY9AtfLdh5juL3SY7ZjFLPcpcT&#xA;S3bM3pepG9oHZQlXlWgt6AAcN+LMEJRbwSXIi0211aePUtYiS/08xRXU0k8CwLL6qpJbcVRa+uR8&#xA;HqK3pniqhsVU7i7aDRrzWLvUvW0uxWayv5Ugv/QhuIuMTQ/HExdledY+UjHl6nJm5Rpir7Dwpdir&#xA;sVdirsVdirsVdirsVdirsVdirsVdirsVdirsVdirsVdirsVdirsVdirsVdirsVdiq2X0vSf1ePpc&#xA;T6nKnHjTetdqUxV5af8AoVmpr/gevev6IxVEr/0LV6sfH/Bnq8B6VP0Vy4U249+PHFV8P/QuP+6f&#xA;8H/337H6L/v9vD9vp74q/wD/2Q==</xmpGImg:image>
               </rdf:li>
            </rdf:Alt>
         </xmp:Thumbnails>
      </rdf:Description>
      <rdf:Description rdf:about=""
            xmlns:xmpMM="http://ns.adobe.com/xap/1.0/mm/"
            xmlns:stRef="http://ns.adobe.com/xap/1.0/sType/ResourceRef#"
            xmlns:stEvt="http://ns.adobe.com/xap/1.0/sType/ResourceEvent#">
         <xmpMM:OriginalDocumentID>uuid:9E3E5C9A8C81DB118734DB58FDDE4BA7</xmpMM:OriginalDocumentID>
         <xmpMM:DocumentID>xmp.did:E35138E141206811822A8451A1857300</xmpMM:DocumentID>
         <xmpMM:InstanceID>xmp.iid:E35138E141206811822A8451A1857300</xmpMM:InstanceID>
         <xmpMM:RenditionClass>proof:pdf</xmpMM:RenditionClass>
         <xmpMM:DerivedFrom rdf:parseType="Resource">
            <stRef:instanceID>xmp.iid:E25138E141206811822A8451A1857300</stRef:instanceID>
            <stRef:documentID>xmp.did:E25138E141206811822A8451A1857300</stRef:documentID>
            <stRef:originalDocumentID>uuid:9E3E5C9A8C81DB118734DB58FDDE4BA7</stRef:originalDocumentID>
            <stRef:renditionClass>proof:pdf</stRef:renditionClass>
         </xmpMM:DerivedFrom>
         <xmpMM:History>
            <rdf:Seq>
               <rdf:li rdf:parseType="Resource">
                  <stEvt:action>saved</stEvt:action>
                  <stEvt:instanceID>xmp.iid:F77F117407206811822A8451A1857300</stEvt:instanceID>
                  <stEvt:when>2013-10-06T17:09:14+13:00</stEvt:when>
                  <stEvt:softwareAgent>Adobe Illustrator CS6 (Macintosh)</stEvt:softwareAgent>
                  <stEvt:changed>/</stEvt:changed>
               </rdf:li>
               <rdf:li rdf:parseType="Resource">
                  <stEvt:action>saved</stEvt:action>
                  <stEvt:instanceID>xmp.iid:E35138E141206811822A8451A1857300</stEvt:instanceID>
                  <stEvt:when>2013-10-07T00:10:28+13:00</stEvt:when>
                  <stEvt:softwareAgent>Adobe Illustrator CS6 (Macintosh)</stEvt:softwareAgent>
                  <stEvt:changed>/</stEvt:changed>
               </rdf:li>
            </rdf:Seq>
         </xmpMM:History>
      </rdf:Description>
      <rdf:Description rdf:about=""
            xmlns:xmpTPg="http://ns.adobe.com/xap/1.0/t/pg/"
            xmlns:stDim="http://ns.adobe.com/xap/1.0/sType/Dimensions#"
            xmlns:xmpG="http://ns.adobe.com/xap/1.0/g/">
         <xmpTPg:NPages>1</xmpTPg:NPages>
         <xmpTPg:HasVisibleTransparency>False</xmpTPg:HasVisibleTransparency>
         <xmpTPg:HasVisibleOverprint>False</xmpTPg:HasVisibleOverprint>
         <xmpTPg:MaxPageSize rdf:parseType="Resource">
            <stDim:w>209.999929</stDim:w>
            <stDim:h>210.001308</stDim:h>
            <stDim:unit>Millimeters</stDim:unit>
         </xmpTPg:MaxPageSize>
         <xmpTPg:PlateNames>
            <rdf:Seq>
               <rdf:li>Cyan</rdf:li>
               <rdf:li>Magenta</rdf:li>
               <rdf:li>Yellow</rdf:li>
               <rdf:li>Black</rdf:li>
            </rdf:Seq>
         </xmpTPg:PlateNames>
         <xmpTPg:SwatchGroups>
            <rdf:Seq>
               <rdf:li rdf:parseType="Resource">
                  <xmpG:groupName>Default Swatch Group</xmpG:groupName>
                  <xmpG:groupType>0</xmpG:groupType>
               </rdf:li>
            </rdf:Seq>
         </xmpTPg:SwatchGroups>
      </rdf:Description>
      <rdf:Description rdf:about=""
            xmlns:pdf="http://ns.adobe.com/pdf/1.3/">
         <pdf:Producer>Adobe PDF library 10.01</pdf:Producer>
      </rdf:Description>
      <rdf:Description rdf:about=""
            xmlns:xmpRights="http://ns.adobe.com/xap/1.0/rights/">
         <xmpRights:Marked>True</xmpRights:Marked>
         <xmpRights:WebStatement rdf:resource="http://www.ospreydawn.com"/>
         <xmpRights:UsageTerms>
            <rdf:Alt>
               <rdf:li xml:lang="x-default">This work is licensed under a &lt;a rel="license" href="http://creativecommons.org/licenses/by-nc-sa/3.0/"&gt;Creative Commons Attribution-NonCommercial-ShareAlike 3.0 Unported License&lt;/a&gt;.</rdf:li>
               <rdf:li xml:lang="en_us">This work is licensed under a &lt;a rel="license" href="http://creativecommons.org/licenses/by-nc-sa/3.0/"&gt;Creative Commons Attribution-NonCommercial-ShareAlike 3.0 Unported License&lt;/a&gt;.</rdf:li>
               <rdf:li xml:lang="en">This work is licensed under a &lt;a rel="license" href="http://creativecommons.org/licenses/by-nc-sa/3.0/"&gt;Creative Commons Attribution-NonCommercial-ShareAlike 3.0 Unported License&lt;/a&gt;.</rdf:li>
            </rdf:Alt>
         </xmpRights:UsageTerms>
      </rdf:Description>
      <rdf:Description rdf:about=""
            xmlns:cc="http://creativecommons.org/ns#">
         <cc:attributionName>Max O'Brien / Osprey Dawn</cc:attributionName>
         <cc:license rdf:resource="http://creativecommons.org/licenses/by-nc-sa/3.0/"/>
      </rdf:Description>
   </rdf:RDF>
</x:xmpmeta>
                                                                                                    
                                                                                                    
                                                                                                    
                                                                                                    
                                                                                                    
                                                                                                    
                                                                                                    
                                                                                                    
                                                                                                    
                                                                                                    
                                                                                                    
                                                                                                    
                                                                                                    
                                                                                                    
                                                                                                    
                                                                                                    
                                                                                                    
                                                                                                    
                                                                                                    
                                                                                                    
                           
<?xpacket end="w"?>
	</metadata>
<g id="Layer_2">
	<g id="_x37_Wl2mV_1_">
	</g>
</g>
<g>
	<path fill="#D0B320" d="M259.511,447.604c0.043-0.367,0.938-8.185,0.267-18.534l-0.554-8.553l-7.329,4.444
		c-4.484,2.719-9.418,4.979-14.667,6.729c-6.926,2.312-14.114,3.481-21.366,3.482c-12.479,0-21.021-3.541-21.377-3.691
		l-11.931-5.021l10.017-8.195c5.477-4.58,15.402-16.314,14.082-28.192c-1.326-11.933-9.855-52.227-63.952-69.677
		c-19.845-6.402-37.767-9.647-53.27-9.647c-11.482,0-17.812,1.844-19.479,2.401l-0.271,0.093l-14.098,6.604l3.452-15.312
		c0.331-1.581,8.108-37.21,44.229-70.188l7.669-7.005l-12.798-2.437l3.271-8.676c0.312-0.817,3.312-8.312,13.522-19.477
		c13.307-14.541,32.4-28.604,56.766-41.811c27.557-14.938,55.367-22.195,85.021-22.195c23.348,0,43.521,4.526,60.182,8.953
		c24.188,6.431,47.57,26.004,61.389,42.178l5.071,5.938l3.52-6.97c1.686-3.325,3.269-6.448,4.462-8.791l16.357-31.938l-1.63,35.846
		c-0.009,0.188-0.229,4.708-1.711,12.108l-1.782,8.896l17.65-6.096l-7.28,9.127l22.929-1.521l-18.744,15.227l8.703,3.104
		c13.32,4.751,26.852,10.468,40.199,16.987c17.083,8.354,31.828,18.521,43.822,30.233c11.06,10.798,15.995,19.277,17.244,21.618
		c3.797,7.117,13.479,33.771,9.396,52.146l-4.274,19.261l-9.713-16.479l-0.312-0.354c-1.665-1.924-8.584-9.114-27.715-20.863
		c-21.454-13.172-45.479-22.038-50.075-23.687l-0.35-0.125l-0.363-0.068c-4.976-1.019-14.704-2.729-19.618-2.729
		c-0.3,0-0.579,0.006-0.84,0.023c-0.494,0.024-1.07,0.047-1.695,0.047c-6.89,0-21.827-2.271-29.562-3.613l-0.508-0.087l-0.655-0.015
		c-0.96,0-2.57,0.13-4.78,0.75l-0.195,0.055l-0.188,0.069c-0.2,0.068-0.426,0.164-0.663,0.268l-8.541,3.716l7.646,5.316
		c10.154,7.063,25.577,19.098,41.388,36.317c29.938,32.621,48.605,96.137,49.391,98.825l3.918,13.479l-13.515-3.801
		c-1.199-0.338-29.709-8.533-53.687-29.342c-11.663-10.119-17.673-14.649-20.663-16.668l-0.249-0.167l-3.128-1.624
		c-1.163-0.576-10.839-5.188-22.221-5.188c-5.077,0-9.75,0.938-13.889,2.786c-14.888,6.649-19.094,17.146-19.779,19.188
		l-0.109,0.317l-1.806,9.021l-8.543-3.679c-1.094-0.42-2.86-1.345-5.062-3.355l-4.444-4.077l-3.372,5.006
		c-2.312,3.431-4.732,6.771-7.195,9.92c-11.458,14.666-28.811,26.322-29.543,26.812l-14.174,9.443L259.511,447.604z"/>
	<path d="M389.838,211.614l7.53-2.599l-2.767,3.465c0,0,10.83-2.167,17.327-2.604c0,0-6.937,5.637-15.161,8.23
		c0,0,27.724,6.062,65.842,24.688c38.119,18.627,54.146,42.021,57.611,48.521s12.13,31.188,8.664,46.782
		c0,0-5.632-8.229-30.323-23.396c-24.69-15.155-52.412-24.688-52.412-24.688s-16.461-3.472-23.392-3.033
		c-6.937,0.434-29.456-3.465-29.456-3.465s-3.47-0.867-9.529,0.86c-6.064,1.733-20.792,12.996-20.792,12.996
		s27.724,13.862,56.746,45.483c29.021,31.62,47.647,95.729,47.647,95.729s-27.729-7.8-50.687-27.728
		c-22.957-19.926-25.559-19.492-25.559-19.492s-22.522-11.69-42.888-2.6c-20.354,9.097-24.258,24.688-24.258,24.688
		s-5.63-2.165-12.128-16.462c0,0-6.062,12.562-16.896,26.427c-10.829,13.856-27.728,25.123-27.728,25.123s1.3-10.396,0-23.823
		c-1.299-13.431-3.896-20.792-3.896-20.792s-7.799,13.427-28.592,20.355c-20.792,6.934-37.252,0-37.252,0
		s19.062-15.598,16.896-35.089c-2.165-19.489-15.597-58.906-69.31-76.231c-53.714-17.33-78.4-6.937-78.4-6.937
		s8.229-39.42,49.812-72.771c0,0,2.167-9.101,8.664-14.294c0,0-7.36,1.729-16.461,0c0,0,9.963-26.427,66.708-57.182
		s105.265-21.656,139.481-12.562c34.22,9.098,66.271,46.78,68.872,57.179c0,0,9.965-19.925,14.513-28.807
		C398.284,177.61,397.635,191.905,389.838,211.614z"/>
	<path fill="#260257" d="M306.885,251.14c0,0-7.147-0.65-18.521,13.97c-11.371,14.619-14.62,44.508-14.62,44.508
		s-6.172-28.264,4.548-45.479C289.017,246.916,306.885,251.14,306.885,251.14z"/>
	<path fill="#260257" d="M306.885,293.881c0,0-3.249,4.691,2.924,10.22c6.173,5.521,20.792,8.122,36.062,13.97
		c15.271,5.85,35.087,19.817,35.087,19.817s-23.062-22.741-47.757-33.144C308.51,294.348,310.459,298.936,306.885,293.881z"/>
	<path fill="#260257" d="M368.937,227.424c0,0,21.117,3.249,41.259,16.568c20.146,13.32,31.52,14.295,57.503,21.117
		c25.99,6.822,48.407,38.335,48.407,38.335s-9.422-29.563-47.433-51.005c-38.016-21.442-62.7-25.021-62.7-25.021
		S388.754,224.175,368.937,227.424z"/>
	<path fill="#260257" d="M380.957,214.429c0,0-12.346-29.895-51.331-53.28c-38.979-23.396-100.711-15.919-112.729-9.097
		c0,0,38.979-8.122,79.594,11.69c0,0-10.071-9.747-19.167-12.67c0,0,30.538,9.097,50.681,25.021
		c20.146,15.919,26.971,28.264,26.971,28.264S372.844,202.865,380.957,214.429z"/>
	<path fill="#C8342E" d="M266.276,218.977c0,0,2.812,3.284,3.249,7.002c0.433,3.718,4.331,6.967,9.421,7.617
		c5.09,0.646,8.303-0.438,10.487-2.388c0,0-1.606,0-2.804-1.402c-1.188-1.408-4.008-4.981-7.358-7.147
		C275.914,220.493,271.69,218.977,266.276,218.977z"/>
</g>
<g>
	<path fill="#BDC2BC" d="M534.992,588.913c-0.739,0-1.34-0.602-1.34-1.341v-16.588c0-0.739,0.601-1.339,1.34-1.339h52.497
		c0.738,0,1.339,0.6,1.339,1.339v16.588c0,0.739-0.601,1.341-1.339,1.341H534.992z"/>
	<g>
		<path d="M558.027,571.51c-2.725,0-4.935,2.21-4.935,4.934c0,2.729,2.21,4.938,4.935,4.938c2.728,0,4.938-2.21,4.938-4.938
			C562.964,573.719,560.755,571.51,558.027,571.51z"/>
		<path fill="#FFFFFF" d="M558.027,580.461c-2.219,0-4.015-1.798-4.015-4.019c0-2.217,1.797-4.014,4.015-4.014
			c2.219,0,4.019,1.798,4.019,4.014C562.046,578.664,560.246,580.461,558.027,580.461z"/>
		<g>
			<path d="M559.402,575.293c0-0.219-0.182-0.398-0.398-0.398h-1.952c-0.221,0-0.401,0.181-0.401,0.398v1.985h0.528v2.338h1.694
				v-2.338h0.527L559.402,575.293L559.402,575.293z"/>
			<path d="M558.695,573.942c0,0.37-0.3,0.668-0.667,0.668c-0.371,0-0.67-0.299-0.67-0.668s0.301-0.67,0.67-0.67
				C558.395,573.272,558.695,573.571,558.695,573.942z"/>
		</g>
	</g>
	<path d="M587.175,569.198h-51.868c-1.157,0-2.102,0.943-2.102,2.102v15.96c0,1.158,0.943,2.1,2.102,2.1h51.868
		c1.158,0,2.102-0.94,2.102-2.1V571.3C589.275,570.141,588.332,569.198,587.175,569.198z M588.644,583.375h-37.865
		c-1.477,2.809-4.417,4.725-7.81,4.725s-6.333-1.916-7.809-4.725h-1.326V571.3c0-0.812,0.658-1.471,1.47-1.471h51.869
		c0.811,0,1.471,0.658,1.471,1.471V583.375L588.644,583.375z"/>
	<g>
		<path fill="#FFFFFF" d="M557.773,584.933c0.1,0.14,0.15,0.302,0.15,0.495c0,0.198-0.052,0.357-0.151,0.479
			c-0.057,0.066-0.14,0.131-0.25,0.187c0.168,0.061,0.294,0.155,0.378,0.289c0.085,0.13,0.127,0.289,0.127,0.477
			c0,0.192-0.049,0.365-0.145,0.519c-0.062,0.104-0.14,0.188-0.23,0.256c-0.104,0.078-0.225,0.137-0.369,0.164
			c-0.141,0.028-0.294,0.043-0.459,0.043h-1.466v-3.256h1.573C557.326,584.594,557.607,584.706,557.773,584.933z M556.009,585.151
			v0.717h0.79c0.143,0,0.257-0.026,0.345-0.08s0.133-0.147,0.133-0.286c0-0.15-0.059-0.248-0.176-0.301
			c-0.1-0.033-0.228-0.05-0.383-0.05H556.009L556.009,585.151z M556.009,586.407v0.869h0.789c0.143,0,0.25-0.02,0.328-0.058
			c0.145-0.071,0.217-0.206,0.217-0.407c0-0.17-0.07-0.285-0.208-0.35c-0.077-0.034-0.188-0.056-0.327-0.056L556.009,586.407
			L556.009,586.407z"/>
		<path fill="#FFFFFF" d="M560.469,584.586h0.771l-1.089,2.034v1.222h-0.68v-1.222l-1.127-2.034h0.8l0.677,1.418L560.469,584.586z"
			/>
	</g>
	<g>
		<g>
			<path fill="#FFFFFF" d="M566.517,584.426h0.776l1.403,2.473v-2.473h0.692v3.545h-0.742l-1.443-2.517v2.517h-0.688
				L566.517,584.426L566.517,584.426z"/>
			<path fill="#FFFFFF" d="M570.425,584.797c0.285-0.292,0.647-0.437,1.09-0.437c0.591,0,1.02,0.195,1.295,0.587
				c0.148,0.221,0.229,0.439,0.242,0.661h-0.741c-0.048-0.17-0.106-0.299-0.183-0.384c-0.132-0.153-0.328-0.229-0.586-0.229
				c-0.265,0-0.473,0.107-0.623,0.324c-0.152,0.219-0.229,0.525-0.229,0.923c0,0.399,0.08,0.696,0.241,0.895
				c0.161,0.197,0.365,0.299,0.614,0.299c0.252,0,0.447-0.086,0.581-0.256c0.072-0.09,0.136-0.229,0.183-0.41h0.736
				c-0.066,0.387-0.226,0.699-0.486,0.943c-0.262,0.241-0.594,0.36-1.002,0.36c-0.505,0-0.901-0.163-1.19-0.489
				c-0.288-0.328-0.434-0.777-0.434-1.353C569.93,585.607,570.095,585.133,570.425,584.797z"/>
		</g>
	</g>
	<g>
		<path fill="#FFFFFF" d="M578.517,586.944c0.022,0.173,0.073,0.303,0.145,0.389c0.132,0.154,0.354,0.233,0.673,0.233
			c0.19,0,0.347-0.021,0.465-0.062c0.225-0.078,0.338-0.226,0.338-0.438c0-0.125-0.055-0.223-0.166-0.291
			c-0.113-0.066-0.285-0.126-0.525-0.178l-0.411-0.088c-0.401-0.093-0.679-0.188-0.829-0.294c-0.254-0.173-0.383-0.448-0.383-0.819
			c0-0.339,0.126-0.619,0.376-0.846c0.249-0.224,0.617-0.336,1.102-0.336c0.401,0,0.748,0.104,1.033,0.315
			c0.284,0.213,0.436,0.521,0.45,0.922h-0.762c-0.014-0.227-0.117-0.387-0.306-0.484c-0.126-0.065-0.282-0.096-0.473-0.096
			c-0.209,0-0.375,0.041-0.499,0.122c-0.126,0.083-0.188,0.196-0.188,0.346c0,0.135,0.062,0.236,0.186,0.303
			c0.079,0.043,0.246,0.096,0.502,0.155l0.665,0.156c0.292,0.068,0.513,0.162,0.655,0.276c0.227,0.179,0.339,0.435,0.339,0.771
			c0,0.351-0.134,0.637-0.4,0.863c-0.269,0.229-0.646,0.344-1.134,0.344c-0.5,0-0.891-0.112-1.176-0.339
			c-0.287-0.224-0.432-0.536-0.432-0.929L578.517,586.944L578.517,586.944z"/>
		<path fill="#FFFFFF" d="M582.542,584.325h0.896l1.34,3.791h-0.858l-0.249-0.778h-1.396l-0.255,0.778h-0.828L582.542,584.325z
			 M582.486,586.681h0.972l-0.479-1.49L582.486,586.681z"/>
	</g>
	<g>
		<circle cx="542.95" cy="579.28" r="7.771"/>
		<circle fill="#FFFFFF" cx="542.95" cy="579.278" r="6.322"/>
		<g>
			<path d="M542.597,578.348l-1.188,0.215c-0.041-0.237-0.131-0.416-0.273-0.537c-0.143-0.119-0.325-0.178-0.55-0.178
				c-0.302,0-0.537,0.104-0.72,0.31c-0.18,0.204-0.268,0.555-0.268,1.038c0,0.539,0.09,0.921,0.271,1.146
				c0.183,0.223,0.426,0.332,0.73,0.332c0.229,0,0.417-0.064,0.562-0.195c0.146-0.131,0.249-0.354,0.311-0.67l1.182,0.199
				c-0.123,0.545-0.354,0.954-0.707,1.229c-0.348,0.276-0.813,0.416-1.399,0.416c-0.668,0-1.197-0.21-1.594-0.629
				c-0.396-0.42-0.592-1.004-0.592-1.746c0-0.75,0.198-1.337,0.594-1.754c0.397-0.42,0.936-0.627,1.613-0.627
				c0.555,0,0.995,0.118,1.322,0.355C542.219,577.497,542.453,577.86,542.597,578.348z"/>
			<path d="M547.477,578.348l-1.188,0.215c-0.039-0.237-0.131-0.416-0.272-0.537c-0.144-0.119-0.325-0.178-0.551-0.178
				c-0.301,0-0.539,0.104-0.72,0.31c-0.178,0.204-0.268,0.555-0.268,1.038c0,0.539,0.09,0.921,0.271,1.146
				c0.182,0.223,0.426,0.332,0.729,0.332c0.229,0,0.417-0.064,0.562-0.195c0.146-0.131,0.25-0.354,0.311-0.67l1.183,0.199
				c-0.123,0.545-0.356,0.954-0.708,1.229c-0.349,0.276-0.814,0.416-1.4,0.416c-0.668,0-1.197-0.21-1.593-0.629
				c-0.396-0.42-0.592-1.004-0.592-1.746c0-0.75,0.196-1.337,0.595-1.754c0.396-0.42,0.934-0.627,1.612-0.627
				c0.554,0,0.994,0.118,1.322,0.355C547.1,577.497,547.337,577.86,547.477,578.348z"/>
		</g>
	</g>
	<g>
		<path d="M569.93,571.719c-2.61,0-4.727,2.115-4.727,4.726c0,2.612,2.115,4.729,4.727,4.729s4.728-2.113,4.728-4.729
			C574.658,573.834,572.546,571.719,569.93,571.719z"/>
		<circle fill="#FFFFFF" cx="569.93" cy="576.447" r="3.846"/>
		
			<rect x="569.488" y="571.955" transform="matrix(0.4225 -0.9063 0.9063 0.4225 -193.3242 849.4399)" width="0.924" height="8.958"/>
		<g>
			<path d="M569.58,579.151v-0.637c-0.444-0.013-0.877-0.14-1.129-0.277l0.197-0.776c0.279,0.153,0.672,0.292,1.101,0.292
				c0.382,0,0.646-0.151,0.646-0.409c0-0.252-0.223-0.41-0.709-0.578c-0.711-0.238-1.196-0.568-1.196-1.215
				c0-0.59,0.411-1.047,1.122-1.181v-0.631h0.65v0.584c0.443,0.015,0.742,0.115,0.968,0.222l-0.199,0.748
				c-0.167-0.079-0.478-0.232-0.954-0.232c-0.434,0-0.571,0.193-0.571,0.381c0,0.212,0.231,0.356,0.798,0.564
				c0.796,0.276,1.107,0.643,1.107,1.246c0,0.591-0.411,1.09-1.182,1.221v0.684L569.58,579.151L569.58,579.151z"/>
		</g>
	</g>
	<g>
		<path d="M581.185,571.784c-2.571,0-4.66,2.086-4.66,4.658c0,2.576,2.089,4.665,4.66,4.665c2.576,0,4.665-2.089,4.665-4.665
			C585.852,573.87,583.761,571.784,581.185,571.784z"/>
		<path fill="#FFFFFF" d="M581.185,580.238c-2.092,0-3.789-1.698-3.789-3.794c0-2.091,1.695-3.79,3.789-3.79
			c2.096,0,3.793,1.696,3.793,3.79C584.979,578.538,583.281,580.238,581.185,580.238z"/>
		<path d="M581.185,573.885c-1.016,0-1.874,0.733-2.182,1.746h-0.294l0.933,1.016l0.93-1.016h-0.348
			c0.215-0.37,0.563-0.616,0.96-0.616c0.65,0,1.179,0.646,1.179,1.443c0,0.793-0.526,1.44-1.179,1.44
			c-0.432,0-0.81-0.289-1.016-0.72h-1.196c0.278,1.068,1.167,1.854,2.214,1.854c1.273,0,2.311-1.155,2.311-2.576
			C583.496,575.034,582.464,573.885,581.185,573.885z"/>
	</g>
</g>
<g>
	<path d="M11.392,586.197c-0.652,0-1.248-0.138-1.786-0.41c-0.539-0.271-1.002-0.631-1.39-1.07c-0.388-0.441-0.688-0.949-0.9-1.521
		C7.106,582.619,7,582.032,7,581.432c0-0.626,0.114-1.226,0.338-1.797c0.226-0.574,0.533-1.08,0.927-1.521
		c0.393-0.44,0.857-0.792,1.396-1.053c0.538-0.26,1.119-0.39,1.746-0.39c0.653,0,1.248,0.138,1.786,0.417
		c0.538,0.275,0.999,0.641,1.382,1.09s0.682,0.959,0.893,1.528c0.213,0.567,0.318,1.144,0.318,1.726c0,0.636-0.113,1.24-0.338,1.812
		c-0.225,0.574-0.534,1.079-0.926,1.517c-0.394,0.437-0.856,0.785-1.391,1.045C12.598,586.066,12.018,586.197,11.392,586.197z
		 M7.675,581.432c0,0.539,0.091,1.057,0.271,1.555s0.437,0.939,0.768,1.324c0.33,0.383,0.724,0.69,1.178,0.92
		c0.455,0.229,0.955,0.344,1.502,0.344c0.563,0,1.072-0.117,1.527-0.355c0.454-0.239,0.846-0.555,1.17-0.946
		c0.327-0.392,0.578-0.834,0.755-1.328s0.265-0.997,0.265-1.51c0-0.538-0.092-1.057-0.277-1.555
		c-0.185-0.498-0.442-0.939-0.773-1.323s-0.723-0.691-1.179-0.919c-0.454-0.229-0.949-0.347-1.486-0.347
		c-0.565,0-1.076,0.119-1.536,0.357c-0.458,0.238-0.85,0.554-1.17,0.945c-0.322,0.394-0.571,0.836-0.748,1.33
		C7.762,580.422,7.675,580.923,7.675,581.432z"/>
	<path d="M23.14,578.299c-0.608-0.681-1.469-1.021-2.58-1.021c-0.918,0-1.587,0.175-2.006,0.523
		c-0.417,0.349-0.628,0.817-0.628,1.407c0,0.302,0.054,0.554,0.159,0.755c0.106,0.202,0.271,0.373,0.496,0.51
		c0.226,0.137,0.513,0.256,0.86,0.355c0.35,0.103,0.761,0.2,1.237,0.299c0.512,0.106,0.97,0.223,1.377,0.352
		c0.404,0.127,0.75,0.289,1.038,0.483c0.287,0.193,0.508,0.433,0.662,0.715c0.153,0.281,0.231,0.632,0.231,1.044
		c0,0.414-0.082,0.775-0.245,1.086c-0.163,0.31-0.392,0.565-0.688,0.773c-0.297,0.208-0.648,0.364-1.059,0.471
		c-0.411,0.104-0.867,0.157-1.37,0.157c-1.463,0-2.704-0.467-3.717-1.401l0.356-0.542c0.396,0.415,0.882,0.743,1.457,0.984
		c0.573,0.242,1.217,0.363,1.931,0.363c0.821,0,1.461-0.147,1.925-0.449c0.462-0.301,0.695-0.754,0.695-1.362
		c0-0.309-0.06-0.57-0.178-0.787s-0.303-0.404-0.551-0.562c-0.247-0.158-0.554-0.295-0.919-0.409
		c-0.364-0.115-0.796-0.225-1.29-0.33c-0.503-0.105-0.945-0.219-1.329-0.338c-0.384-0.117-0.708-0.269-0.972-0.449
		c-0.265-0.181-0.463-0.398-0.596-0.654s-0.199-0.578-0.199-0.967c0-0.423,0.082-0.797,0.246-1.124
		c0.163-0.326,0.391-0.603,0.682-0.826c0.291-0.226,0.64-0.395,1.044-0.511c0.406-0.114,0.854-0.17,1.351-0.17
		c0.607,0,1.15,0.09,1.627,0.27c0.477,0.183,0.909,0.459,1.296,0.828L23.14,578.299z"/>
	<path d="M25.734,586.131v-9.395h3.863c0.396,0,0.763,0.085,1.098,0.251c0.335,0.168,0.624,0.392,0.866,0.669
		s0.432,0.591,0.568,0.938c0.138,0.35,0.205,0.698,0.205,1.053c0,0.381-0.063,0.746-0.191,1.098
		c-0.128,0.354-0.31,0.666-0.542,0.939c-0.232,0.272-0.512,0.492-0.833,0.654c-0.323,0.164-0.683,0.245-1.078,0.245h-3.281v3.546
		L25.734,586.131L25.734,586.131z M26.408,581.963h3.241c0.309,0,0.586-0.064,0.833-0.191s0.456-0.3,0.629-0.516
		c0.171-0.218,0.303-0.463,0.396-0.741c0.092-0.276,0.139-0.565,0.139-0.866c0-0.309-0.056-0.602-0.165-0.879
		c-0.11-0.279-0.26-0.523-0.45-0.734c-0.189-0.213-0.41-0.381-0.661-0.504s-0.519-0.186-0.801-0.186h-3.162L26.408,581.963
		L26.408,581.963z"/>
	<path d="M33.963,586.131v-9.395h3.917c0.397,0,0.764,0.085,1.098,0.251c0.335,0.168,0.622,0.392,0.859,0.669
		c0.238,0.277,0.426,0.591,0.563,0.938c0.137,0.35,0.204,0.698,0.204,1.053c0,0.344-0.054,0.676-0.159,0.998
		c-0.105,0.324-0.254,0.611-0.45,0.867c-0.194,0.256-0.427,0.467-0.7,0.635c-0.273,0.169-0.572,0.277-0.899,0.331l2.341,3.651
		h-0.781l-2.274-3.547h-3.043v3.547L33.963,586.131L33.963,586.131z M34.636,581.963h3.295c0.299,0,0.571-0.064,0.819-0.197
		c0.247-0.132,0.458-0.307,0.636-0.522c0.176-0.216,0.311-0.462,0.402-0.741c0.093-0.277,0.141-0.562,0.141-0.853
		c0-0.3-0.056-0.589-0.166-0.866c-0.11-0.276-0.261-0.522-0.45-0.733c-0.189-0.212-0.409-0.382-0.661-0.511
		c-0.252-0.127-0.523-0.192-0.814-0.192h-3.201V581.963z"/>
	<path d="M48.899,585.521v0.608h-6.258v-9.395h6.139v0.61h-5.464v3.688h4.775v0.582h-4.775v3.903h5.583V585.521z"/>
	<path d="M50.421,576.736l3.281,5.199l3.308-5.199h0.742l-3.706,5.849v3.546h-0.674v-3.572l-3.69-5.821L50.421,576.736
		L50.421,576.736z"/>
	<path d="M59.126,586.131v-9.395h3.122c0.741,0,1.392,0.124,1.951,0.371c0.561,0.248,1.025,0.583,1.396,1.007
		c0.371,0.423,0.647,0.919,0.833,1.487c0.185,0.567,0.277,1.175,0.277,1.819c0,0.715-0.104,1.36-0.311,1.938
		s-0.505,1.07-0.894,1.481c-0.388,0.409-0.857,0.729-1.41,0.953c-0.552,0.224-1.167,0.337-1.845,0.337L59.126,586.131
		L59.126,586.131z M66.031,581.421c0-0.592-0.083-1.137-0.251-1.635c-0.167-0.498-0.412-0.93-0.733-1.291
		c-0.322-0.359-0.718-0.644-1.185-0.848c-0.466-0.202-1.005-0.303-1.614-0.303h-2.447v8.177h2.447c0.617,0,1.162-0.104,1.633-0.312
		c0.473-0.206,0.866-0.495,1.185-0.865c0.316-0.37,0.559-0.805,0.722-1.303S66.031,582.003,66.031,581.421z"/>
	<path d="M67.288,586.131l3.996-9.395h0.555l3.997,9.395h-0.728l-1.311-3.097h-4.484l-1.311,3.097H67.288z M71.562,577.557
		l-2.09,4.922h4.141L71.562,577.557z"/>
	<path d="M80.148,576.802h0.661l1.401,3.413l1.403-3.413h0.661l-1.654,3.956l1.971,4.577l3.6-8.601h0.742l-4.023,9.395h-0.62
		l-2.063-4.829l-2.077,4.829h-0.622l-4.008-9.395h0.728l3.612,8.601l1.945-4.577L80.148,576.802z"/>
	<path d="M91.05,578.008v8.123h-0.675v-9.394h0.518l6.588,8.27v-8.255h0.675v9.379h-0.622L91.05,578.008z"/>
	<path d="M100.297,586.131v-1.125h0.583v1.125H100.297z"/>
	<path d="M102.401,581.368c0-0.563,0.098-1.127,0.298-1.688c0.197-0.561,0.486-1.062,0.866-1.502c0.379-0.44,0.844-0.8,1.395-1.077
		c0.552-0.277,1.181-0.418,1.887-0.418c0.838,0,1.552,0.192,2.144,0.576c0.591,0.383,1.027,0.877,1.309,1.475l-0.556,0.318
		c-0.159-0.327-0.351-0.601-0.576-0.82c-0.224-0.221-0.466-0.399-0.727-0.537c-0.261-0.137-0.533-0.234-0.814-0.298
		c-0.281-0.062-0.562-0.092-0.833-0.092c-0.6,0-1.129,0.121-1.589,0.364c-0.458,0.241-0.847,0.558-1.164,0.944
		c-0.316,0.39-0.557,0.826-0.722,1.316c-0.164,0.489-0.245,0.981-0.245,1.475c0,0.558,0.097,1.086,0.291,1.59
		c0.195,0.502,0.459,0.945,0.795,1.328c0.334,0.383,0.731,0.691,1.19,0.919c0.458,0.229,0.951,0.346,1.48,0.346
		c0.282,0,0.571-0.036,0.866-0.106c0.296-0.069,0.583-0.18,0.86-0.329c0.277-0.15,0.536-0.343,0.774-0.576
		c0.238-0.232,0.437-0.51,0.594-0.827l0.569,0.278c-0.159,0.352-0.372,0.665-0.642,0.939c-0.271,0.271-0.57,0.502-0.906,0.688
		c-0.335,0.186-0.689,0.324-1.065,0.416c-0.375,0.092-0.742,0.139-1.104,0.139c-0.644,0-1.233-0.141-1.768-0.423
		c-0.532-0.281-0.994-0.649-1.382-1.104c-0.387-0.455-0.689-0.972-0.905-1.549C102.509,582.555,102.401,581.969,102.401,581.368z"/>
	<path d="M115.882,586.197c-0.652,0-1.247-0.138-1.785-0.41c-0.538-0.271-1.001-0.631-1.39-1.07
		c-0.388-0.441-0.688-0.949-0.898-1.521c-0.212-0.572-0.317-1.16-0.317-1.76c0-0.627,0.112-1.225,0.337-1.798
		c0.224-0.573,0.534-1.081,0.926-1.521c0.394-0.44,0.857-0.792,1.396-1.052c0.539-0.261,1.121-0.391,1.747-0.391
		c0.65,0,1.247,0.139,1.786,0.416c0.538,0.276,0.999,0.643,1.381,1.091c0.384,0.45,0.682,0.959,0.894,1.529
		c0.211,0.566,0.317,1.144,0.317,1.726c0,0.635-0.113,1.239-0.337,1.812c-0.226,0.572-0.534,1.077-0.928,1.514
		c-0.393,0.438-0.854,0.785-1.389,1.046C117.087,586.066,116.509,586.197,115.882,586.197z M112.164,581.432
		c0,0.539,0.09,1.057,0.271,1.555c0.181,0.498,0.436,0.939,0.767,1.324c0.331,0.383,0.724,0.69,1.178,0.92s0.954,0.344,1.501,0.344
		c0.564,0,1.073-0.117,1.527-0.355c0.456-0.239,0.845-0.555,1.171-0.946s0.578-0.834,0.754-1.328
		c0.175-0.494,0.266-0.997,0.266-1.51c0-0.538-0.094-1.057-0.278-1.555c-0.186-0.498-0.443-0.939-0.774-1.323
		s-0.724-0.691-1.178-0.919c-0.455-0.229-0.95-0.347-1.488-0.347c-0.563,0-1.075,0.119-1.534,0.357s-0.851,0.554-1.172,0.945
		c-0.321,0.394-0.57,0.836-0.748,1.33C112.252,580.422,112.164,580.923,112.164,581.432z"/>
	<path d="M130.659,586.131v-8.123l-3.704,6.338h-0.423l-3.705-6.338v8.123h-0.675v-9.394h0.675l3.916,6.722l3.916-6.722h0.675v9.394
		H130.659L130.659,586.131z"/>
</g>
</svg>
