<?xml version="1.0" encoding="utf-8"?>
<!-- Generator: Adobe Illustrator 16.0.0, SVG Export Plug-In . SVG Version: 6.00 Build 0)  -->
<!DOCTYPE svg PUBLIC "-//W3C//DTD SVG 1.1//EN" "http://www.w3.org/Graphics/SVG/1.1/DTD/svg11.dtd">
<svg version="1.1" id="Layer_1" xmlns="http://www.w3.org/2000/svg" xmlns:xlink="http://www.w3.org/1999/xlink" x="0px" y="0px"
	 width="595.275px" height="595.279px" viewBox="0 0 595.275 595.279" enable-background="new 0 0 595.275 595.279"
	 xml:space="preserve">
<metadata><?xpacket begin="﻿" id="W5M0MpCehiHzreSzNTczkc9d"?>
<x:xmpmeta xmlns:x="adobe:ns:meta/" x:xmptk="Adobe XMP Core 5.3-c011 66.145661, 2012/02/06-14:56:27        ">
   <rdf:RDF xmlns:rdf="http://www.w3.org/1999/02/22-rdf-syntax-ns#">
      <rdf:Description rdf:about=""
            xmlns:dc="http://purl.org/dc/elements/1.1/">
         <dc:format>image/svg+xml</dc:format>
         <dc:title>
            <rdf:Alt>
               <rdf:li xml:lang="x-default">NFL Logo Redesigns</rdf:li>
               <rdf:li xml:lang="en_us">NFL Logo Redesigns</rdf:li>
            </rdf:Alt>
         </dc:title>
         <dc:creator>
            <rdf:Seq>
               <rdf:li>Max O'Brien/Osprey Dawn</rdf:li>
            </rdf:Seq>
         </dc:creator>
      </rdf:Description>
      <rdf:Description rdf:about=""
            xmlns:xmp="http://ns.adobe.com/xap/1.0/"
            xmlns:xmpGImg="http://ns.adobe.com/xap/1.0/g/img/">
         <xmp:CreatorTool>Adobe Illustrator CS6 (Macintosh)</xmp:CreatorTool>
         <xmp:ModifyDate>2013-10-07T00:07:27+13:00</xmp:ModifyDate>
         <xmp:MetadataDate>2013-10-07T00:07:27+13:00</xmp:MetadataDate>
         <xmp:CreateDate>2013-10-07T00:07:27+13:00</xmp:CreateDate>
         <xmp:Thumbnails>
            <rdf:Alt>
               <rdf:li rdf:parseType="Resource">
                  <xmpGImg:width>256</xmpGImg:width>
                  <xmpGImg:height>236</xmpGImg:height>
                  <xmpGImg:format>JPEG</xmpGImg:format>
                  <xmpGImg:image>/9j/4AAQSkZJRgABAgEASABIAAD/7QAsUGhvdG9zaG9wIDMuMAA4QklNA+0AAAAAABAASAAAAAEA&#xA;AQBIAAAAAQAB/+4ADkFkb2JlAGTAAAAAAf/bAIQABgQEBAUEBgUFBgkGBQYJCwgGBggLDAoKCwoK&#xA;DBAMDAwMDAwQDA4PEA8ODBMTFBQTExwbGxscHx8fHx8fHx8fHwEHBwcNDA0YEBAYGhURFRofHx8f&#xA;Hx8fHx8fHx8fHx8fHx8fHx8fHx8fHx8fHx8fHx8fHx8fHx8fHx8fHx8fHx8f/8AAEQgA7AEAAwER&#xA;AAIRAQMRAf/EAaIAAAAHAQEBAQEAAAAAAAAAAAQFAwIGAQAHCAkKCwEAAgIDAQEBAQEAAAAAAAAA&#xA;AQACAwQFBgcICQoLEAACAQMDAgQCBgcDBAIGAnMBAgMRBAAFIRIxQVEGE2EicYEUMpGhBxWxQiPB&#xA;UtHhMxZi8CRygvElQzRTkqKyY3PCNUQnk6OzNhdUZHTD0uIIJoMJChgZhJRFRqS0VtNVKBry4/PE&#xA;1OT0ZXWFlaW1xdXl9WZ2hpamtsbW5vY3R1dnd4eXp7fH1+f3OEhYaHiImKi4yNjo+Ck5SVlpeYmZ&#xA;qbnJ2en5KjpKWmp6ipqqusra6voRAAICAQIDBQUEBQYECAMDbQEAAhEDBCESMUEFURNhIgZxgZEy&#xA;obHwFMHR4SNCFVJicvEzJDRDghaSUyWiY7LCB3PSNeJEgxdUkwgJChgZJjZFGidkdFU38qOzwygp&#xA;0+PzhJSktMTU5PRldYWVpbXF1eX1RlZmdoaWprbG1ub2R1dnd4eXp7fH1+f3OEhYaHiImKi4yNjo&#xA;+DlJWWl5iZmpucnZ6fkqOkpaanqKmqq6ytrq+v/aAAwDAQACEQMRAD8A9U4q7FXYq7FXYq7FXYq7&#xA;FXYq7FXYqoX19Y2FpJeX1xFaWkI5TXE7rHGgrSrOxCj6cBNJAJ5PJvN//OVf5R+Xi8NtfS69eJUe&#xA;lpiepHyHSs8hjiKk90ZvljaeHveO+ZP+c2fNlyWTy7oNnp0R2Et48l3L/rAJ6CA+xDYN1sfj8fpe&#xA;a61/zkX+c+rmk/me5t0H2UslitKf7KBI3P0k48K8TDdT83ea9VYvqmtX9+zfaa5uZpienUuzeAxM&#xA;R3KJkdUVpnkjzPq1ul5b2xaGapSV2ALUNK+PXMLN2jhxS4Sdw7LT9j6nNETjHYpkn5T+bWAPCAV7&#xA;GSn8Mxz23g8/k5g9mdUekfmjrXyN+ZumsH0+8kt3AqGtrxoj4UqCmRHbGmP9jI+zutHKv9MyKw89&#xA;f85K+Xm9WHWdSuAva4li1EEf6s5nOZEO09PI7T+8fe4uTsTWQG+Ox5Ufu3ZT5a/5zS882DpD5j0e&#xA;z1WJKrI8JezuCfFj+9jqPARjM8X0LqjXUU9q8l/85T/lP5kaO3ub19AvnoPR1NRHEWPWlwpeID3d&#xA;l+WN96OHueuQTwXEKTwSLNBKoeOWNgyMp3BVhsQclbEil+KuxV2KuxV2KuxV2KuxV2KuxV2KuxV2&#xA;KuxV2KuxV2KuxVLPMfmfy/5a0uTVNe1CHTrCL7U87BQT1CqPtOx7KoJOAmkgEvmr8yP+czlUy2Hk&#xA;Cw50qv6Z1BSB3FYbYEH3DSH5pg3Kdh5vnHzZ5784+b73635j1a41KWpZElf91GW6iKFeMcY9kUYa&#xA;CDI8l2keR9f1Hi/o/VYD/u2eq1Hsv2j92YOftHFj2uz5Oz0vY+fLvXDHvP4tmFh+Wmj2ltJd6g8l&#xA;0kCNJMx/dxBUHJjRfi2A/mzU5e18kyIwqN/Eu/w+z+HHEzyEyERZ6Db8d7zrU72K7u2khgS2txtD&#xA;BGAAqjpUj7TeJOdBhxmEaJs97yeozDJOwBGPQBl/kb8t7nVnj1DVFaDTBRkjPwyTdxTwQ+Pft45q&#xA;e0e1o4rhDef3ftd92P2BLORky+nH9sv2efy73p8/mfytpwW3k1C1gEQCLCrqeIAoBxWtKZzcdHny&#xA;biMjb2U+0dNi9JnEV0v9Svp3mLQtSfhY38NxJ/vtHHP/AIE/FkMuly495RIbcGvwZjUJxkffumGY&#xA;7lsb8yaDrevT/Ujefo/RVA9URfFNcMRUg9AqDp8+3TNjpNTjwDi4eLJ58h+10/aGizamXBxcGHrX&#xA;1S/UFPTvy18n2Sj/AEL6y46yXDFyf9jsn/C5LL2vqJ/xV7vxbHB7P6TH/DxH+lv+z7Eo83+Ufy7h&#xA;QG6mTR7lx+7MJ6+5hHKq+4A+eZWh12rJ9I8Qef63A7U7L7PiPURil5f8T/Z70v8ALnmX81PyyEWq&#xA;eWdUe50CWk5jAaWykQ0NZbd/7vkOrLQ/5WbzT6/Hklwn0ZB0P43eY1fZWbDATHrxHlId33j7n0l+&#xA;Uv8AzlR5R84SQ6V5gVPL+vyUSP1H/wBDnfwjlb+7Ynoj/IMxzPuubquEHk9xyTF2KuxV2KuxV2Ku&#xA;xV2KuxV2KuxV2KuxV2KuxV2KvFvzn/5yZ8t+RWm0fRVj1rzSlUkgDH6tasP+Wh1NS4P+61NfEr3j&#xA;fcyqub4z85+fPNnnTVm1TzJqEl9c7iJW+GKJD+xFEtERfkN+p3wgIMrSFlZacgRUVFe48cQVIp6P&#xA;+Wei2U2ntfNAst4ZmSN2FSqqq/Zr03J3znu2NRIT4bqNPW+z2khLHx1c+L9T0q201Fo03xN/L2H9&#xA;c52eW+T2GPTgc0J5x28p6tTb/RZRt/qnLtB/fw/rBo7V/wAVyf1D9zD/AMvPy8sDY2+taqnrzTAS&#xA;2ts28aofssw/aJG47Ztu1e1JcRx49gOZef7C7ChwRzZRxE7gdK6E97tVvPMvnzzlb+R/KtaTymB2&#xA;BKq5QEyySOBURRgGvjTvsMzOyuzYwiMkxcz9n7XX9vdsyyTOLGaxx2P9I/qfR/lv/nFT8qtA0IjW&#xA;LN9f1P0x615cyyxpzP8AvqKJ0VVr05cj75vHmHzp/wA5AflXB5G8w22o6HG0GgakK2yhmb6vcR/b&#xA;iDElqEUdanxH7OAi+aQSDYQfkT8zZOcel69LyDUW3v2O4PQLKf8Ajb7/ABznO0uxxRniHvj+r9T2&#xA;PY3tCbGLOfdL/iv1/N6jnNPaoHXL+aw0m5uoE9W4ReNvH/NK5CRj6XYZdp8YnkETsOvu6uLrMxxY&#xA;pSiLl0952H2sQ0/8qreS7OoeYL2TUruQ85Yx8EZbuC32mHy45tsvbREeDFEQj+Px1dDg9m4mXiai&#xA;ZySPPoP1/cztIoo4liRAsSKEWMABQoFAAPCmaQyJNnm9MIgCgNnnfnP8tdNu5Wm0RorbUmBkOn8g&#xA;qygdSi1+A/8AC/LN92f2vOArJZh/O7v1/e8p2t7P48hvDUcnPh7/AHd33e5ln5H/APOSus+TryLy&#xA;t55aa50CMiCK6kBa5sCNgGB+KSEd1+0o+zX7OdNCQIuO8S8VkgQTGQqQ/G76s8z/AJheT/LPlgeZ&#xA;tW1OKPRpFRra5jPq+uZRyjWAJyMhcbjj23OwJydtfCwbyn/zlH+UvmTVo9LjvLjTLmd/Ttm1GIQx&#xA;SOTQKJEaRF5duZX78HF3suHuNvW8kwdirsVdirsVdirsVdirsVdirsVdir5W/wCcgv8AnKBle58p&#xA;+QbujKWi1PX4T3GzR2bg/Q0o/wBh/NkefuZ/T73yuqyzShVDSSyNQAVLMxP4k4SQB5MQDI0NyXoX&#xA;lf8AL2KIJeawokl2ZLPqq/8AGT+Y+3T55oNb2qT6cfLv/U9X2d2GI1PNuf5v60H+Z2lPHcWuoxpS&#xA;Bk+rvQbKyksv3gn7st7Hz2DA8+bj+0OmIlHIB6a4f1fjyZB+TF/E+nX9gaetDKJl8SkihdvYFPxz&#xA;B7fxETjLoRXydr7J5gcc4dQb+B/sej5zz1yG1SyF9pt3ZE8RdQyQlvD1FK1/HLcOTgmJfzSC06jD&#xA;4mOUP50SPmECXm0nyjzkASewsKsoIIDww9AenVcuoZdRQ5Sn95cWzg0ln6oY/tEWS/8AOEnlOEwe&#xA;YfN8y8py6aVaOf2QFWe4/wCC5Rfd75375Q+lfMFxHBpczudkX1Co6lUIJoMVfN/ky4X85fySutG1&#xA;aYSa/YkwG6enIXMQ52twe/xqeLnv8eKvlS/sbvT764sbyJobu1kaG4hbZlkjJVlPyIxV6J5N893+&#xA;jafbW+vwytpUo/0HUQC4VQacCRXkFp/rL0p4c5r+zY5Zk4iOMc4/j+wvYdldsz0+OMc4PhH6Z8/h&#xA;5/eHoSXmm61Zq1hdR3EYlhl5RsGp6UqyUYDcfZ75oTjnhl6gRsR8xT1Yy49RD0SEhcTt5EH9CZZj&#xA;OYgddvprDRb69gXnNbQSSxqdxyRSRX2y/TYxPJGJ5EgOLrcxxYZzjzjEn7GD/lFq8l62rrdEy3zy&#xA;JcSXLbu4YFeJ9lK7fPN127gEODh2jVU857L6o5PE4t5kg33/ANn6U185+VtF8yTS20E0cXmG1iEi&#xA;noTGT8IkHdffquYvZ+tyacAkXiJ/Ffjdze1uzcOrJjEgZ4i/h5+X3PLdc1zzV+irLynq1xL9R0Oa&#xA;d7OylNRC1xw9QKf5Tw5KOm5I+0c6/FOMwJRNgvn2fHPHIwmKkEiyxpfff/OL/nS+81flNZSX7tNe&#xA;6RPJpc07mrSCBUkiJ9xDKinxpXBEMpG93rOFi7FXYq7FXYq7FXYq7FXYq7FXzD/zlJ+fr2IufIPl&#xA;a5pdupj1/UIj/dqwo1pGw/bIP7wj7P2evKkefuZjb3vkuOOSWRY41LyOQqKNySdgBhJAFljGJJoc&#xA;3qvk7ydFpEQu7sB9ScfMRA/sr7+J/wAzzGv15ynhj9H3vbdldlDAOOe+Q/Yy23t3nfiuwH2m7AZq&#xA;pSADvceMyNBHX2i6ffaZLp11H6lvMtH/AJq9mB7MDuMpx6icJicTuHJzaTHkxnHIXEvM7by5rvkb&#xA;zHHqUUb32jkmO4mhUswhc7+og3BWgbwNM6Oerxa3CYE8OTpff5PH49Bn7N1AyAGeLkSP5vmPLn3P&#xA;VPrtqY4JFkDRXJAgkBBVuSllofcDbOZ8OVkVuOb2vjRoG9pclbK21KfN0bSeV9WRd2+qTEDxohP8&#xA;My9Cazw/rD73A7UiTpsgH8yX3PRf+cKtVtZ/y71fTFKi7stUaaVAN/TuIIxGzfNoXH0Z375Om3/O&#xA;T1z5s0Cw0HzvoIM1voklzaa1aGpjls9Q9EETAUPDnbqtRuGIPbFXyx+UX5qXf5f+ZHu0ia40a+4x&#xA;alZ1+MxqSUkQ/CPUj5GldjUjatQq9D/5yC8kaXr+mW/5o+UXW8068RRq5h9qIk5XqpFPTlHUECv7&#xA;WKpH+Us0F35UmspgsoguHV4XAYcHCuNjUUJrnI9uRMM4kNrD6B7Mzjk0pgd6kdvfum13+XXlWab1&#xA;4bZrKftLaSNER8lB4j6BmLDtXOBRPEP6QtzsvYOlkeIR4Jd8TX7Fa28pzWwAi17VCB0EksMv/JyF&#xA;shPWiXPHj+RH3SbcfZkocs2X4mJ++JRktlq0NnKkF0dQnkBULf8ApJGARTf6vCpb5d/HKY5MZkCR&#xA;wj+jd/7KTfLDljAiMuMn+fQH+xj9iXeSfJkHlq0lUy/WLy5KmeUDitFrxVR4Cp+eZHaHaB1EhtUR&#xA;ycTsjsmOjgd+KcuZ/Uw3z35gt9J8+WepadIJLi3iVL+NTVSORBRv8oofo2zb9m6U5dLKExsT6f1v&#xA;P9s66ODXRyYzcoj1fq+X6GR+e/KFv5k0tNS09QdRSMSQONvWjI5BD70+zmv7N1508+Cf0Xv5H8c3&#xA;bds9lx1eIZMf94BY/pDu/U8TZWVirAqymhB2IIzsgbfOyKfZ3/OE9qU/LjWbosf32sPGEI2Hp20B&#xA;5A+/qU+jB1W9n0LhQ7FXYq7FXYq7FXYq7FXYq8s/5yG/NxPy88mMbGRf8Satzt9IjIr6dAPVuSDt&#xA;SIMKV6sV2IrgPcyHe+Ap55p5pJ55GlmlYvLK5LMzMaszE7kk9cLElNfKms2ekaqt1dW/rpQqHH2o&#xA;yerKDsdtsw9bp5ZcfDE1+l2HZurhgy8Uhf6PN6xpWt6PqhQWd5EzN+wzBXHzVqNnLZtNkxfVEvca&#xA;bWYc30SH48mWQQJDGETp3Pic1kpEl3kICIoL8izdirHvPsd0PLFzcWVVurJo7qEjsYZAzH6Frmw7&#xA;MMfGAl9MrHzDqe2oy/LSlD6oVIfA39yp5R822PmLT1miIjvIwBdWtd0bxHip7HI67Qy086P09Cz7&#xA;L7Thq8djaY+od37Ey1e8tbLS7u6uwDbQxO0qn9pafZ/2XTMfBjlOYjHmS5eqyxx4pSn9IBtiP/OL&#xA;ep+cbf8ANJovKlslxa3FvI2rWVzKUj+po60YyhGpJG7LwbjuTTYMc9Djdb83yKRBJrk+qvze/LLT&#xA;/PWnomva1faf5d06KS4msNPaOEzSjcPNJKsqsqKvwLw6kmvSiTXNABJoPkDyF+V2mXPDVfM0dwbJ&#xA;zzttIikEUrod19acqeA9lSp8UzT6ztmGKRjEcUh8noezvZzLniJyPBE8upPwe9+W/NnlTQNKbRtO&#xA;8rQWekyFvWt4JmbnzUIxl9YS+oWUAHkd8wY+0Er3h9rtJ+yUa9OQ35j9rAR5Q8raT5hudT8sG6sr&#xA;G8U/WNLnKPErVqvpMPiAXsGr3zG7Q7ThqIcPDuOtub2R2Jk0mQyMwYnmK5/2Mfv/ADtfXXmaDy/5&#xA;bigupj/vVdycniSn2gAhWvEf5XXbI4uzoxwnLmsdwHM/j9rPP2xOWoGDTiMj/FI8h38q5e/ns+lP&#xA;I/5b6Npa2Vz5mEcmq35IsrCanphlQuU4ts8vAFivYA7bE5tOzuyIxAnlFy7u79ro+2PaGc5HHhPD&#xA;AfxDmfd3Bh35gedJtW1G40+0SKHSLZzFDGsaVf0zT1OVOQrTYCm2aftHXHJMxjQgPL7XoOxuyxhx&#xA;iciTkkLO569GFyxRzRPFIoeORSrqehVhQjNbEkGw7uURIEHkWJj8r/Jf1ot9WckUc2/rPxANabV5&#xA;U2PfNp/LGp4efxp0Y9ndHxXwn3Wf7WWRRxxRpFGoSNAFRRsAoFABmqJJNl3kYiIocg8d/Nry9FYa&#xA;vFqVuoWLUeRlUdBMlOR/2QNfnXOt7D1RnjMDzh9zwHtNoRiyjJHlk5+8fr/W+pP+cNofT/KOV619&#xA;bVbl6U6UjhSn/C5uo8y85LkPd+kvdMkwdirsVdirsVdirsVdiqncXEFtby3FxIsUEKNJLK5CqqKK&#xA;szE9AAN8SoFvzn/OX8xrr8wPPt/rjMRp6n6tpMJqPTtIiRHsSaM9S7f5THtgDKR6JL5N0D9Masqy&#xA;rWzt6SXPuP2U/wBkfwrmF2hqvCx7fUeTseytF4+Xf6I7n9XxZdf/AJYaZcSlrK4kteR/uyvqqK9l&#xA;qVb7zmpxdsziPUBL7HfZ/Z3HI+iRj9rS/krdlQTqqA9x6JP/ABvkv9EMf5n2/sQPZKf+qD/S/tRN&#xA;pov5geUP31pKur6Ym8tmrMSFHXijCqn/AFK/LKp6jSaraQ8Off8Aj9Ldi0mv0G8D4uPrH9Q6fBn+&#xA;javZ6vpsOoWjEwzCvE/aVhsysPEHNFqMEsUzCXMPUaTVQz4xkhyP4pG5S5LTojoyOAyMCGU7gg7E&#xA;HCDSCARReL+avJ+teVdSOqaO0osAxaK4iJ5Qg/sSU/Z7VOx752Gi1+PUw4MlcXcevufPO0uy82iy&#xA;eLhvg6Efw+R/FFLdX8/+ZNa0saVdtG8bupd404ySceitxPGnLfZeuZGn7Lw4snHG7cPV9uajPi8O&#xA;ZFe7c/o+x9P/AJR6Pon5G/lbe+c/Nw9PWNWCUtQB652LQ2cYP7Z3Z+w3rstc2LqEnufPvnHzbEdR&#xA;1yY2tvd0ktdEhYiC3h6xq/Qyy03Z377AKNs47tbtA5Z8ET6I/afxyfROweyY4cYyTH7yY+QPT9fy&#xA;UrGyub68gs7VDJcXDrHEg7sxoM1MIGchEbku+y5I44GUtoxCgXgd5fq8ongSWaFJ1+y/oStCzLXe&#xA;haM0rl2r0xw5DAm6r7nH0GsGpxDIBV39hpRvJLeOS1tbleT6gJTBEV5Bo4qCR2B/YBIWvc7Do1Dj&#xA;00zjOXlGPXvPkxza3GMowVxTl07h3yZd+T3l/RT50tlW1hhWJXuFjjjVA8kYqleIFeJPL6Mzeyyc&#xA;uojxkmt93XduAYNJLwoiPFQNCtj+K+L0b8/ryXSvy5l8xW6M955dv9P1S2CCprFeRpJ9BhkcN7E5&#xA;2b5wxfyh+WVl5ntX1waoj6Nduz6fLalZGljJJDsTsnupHIGoNM5fF2FKUiZmhe3n5vb5/aiMIRGO&#xA;PFKhd8h5MG12202x1K5gsbz63ZQMQt2y+mGA6nqdh4980ebHGMzGB4h3vT6bLOWISyR4JVuL5POY&#xA;tVvIPzXls3Ym1vrREhHYiOMyhh8mEn35tThjLQiQ+qMvvNfqdHHUzj2oYH6ZwFfAX/xSYeU9S1nV&#xA;dZ1fUJlMekcxbWCHuYGZWcD3r8Xvt2zH1uLHixwgP7znL4/j8W5XZmozZs2TIdsV8Mf80nf9f7FD&#xA;80tDfUvLTXEK8p9Pb1wB1MdKSD7vi+jLOxtT4eajylt+pq9o9Gc2m4h9UN/h1/X8Hsv/ADhdqtvc&#xA;flnqOnCQG5sNUkZ4u6xTwxNG3yZlf7s7Ecy+dS5B7/kmLsVdirsVdirsVdirsVeHf85cefn8u/l0&#xA;uh2kpj1HzLI1rVTRhaRANcn/AGXJIyPBjkT3Mhtu+HMkxeueT9PttG0OEXDpFc3QE83MhT8Q+Fd/&#xA;5V/Gucpr8ss2U1uI7Pd9lYI6fCOIgSluWV6O9pcSl0mjkKdFVgxr9BzV5xKI3Du9KYyNgg0nOYjs&#xA;XYqhrHTrWyNybdeAupjcSJ+yHZVVuI7V41PuTluTLKdX0FNOHBHHxcP8Rv47fq+aJypuaZlVSzEK&#xA;qipJ2AAwgIJp5f5z/NRucmn6ARw3SXUDvWux9If8bH6PHOl7P7F5Ty/6X9f6njO1vaQ2ceD4y/4n&#xA;9fy73rP/ADjZ/wA48TevbedfN0BV0Im0rTZV3U9VnmB/b7ov7PU70p0jxjD/AM9vOUnnj87YPLyP&#xA;y0Hy/c/ULeAH4GeIg3jkdKl0Kf6qjMXXZfDwykOdOd2ZgGXUQgeRl9nNlGefvrLPfyXsI7jzg07r&#xA;X6nbSSofB2Kx/wDEXbNz2HjEs9/zYk/o/S857UZjHS0P4pAfef0PJPyvhudTsV0+AFpm1Ge3hXrv&#xA;JMWHy3fJ9s4jLUgDnID9TV7O5xDRSlLlCUvuBZH+Yslq352Xml2gpa+WtEtNNjXsGlb60Tttyb1f&#xA;iPXMztqIx4IQjyv7g6/2anLLqsmWXMx+8/sTbyH5ms9D8/8Al6O4Xn+lbptPjoaFWmicK3uOfFfp&#xA;zB7Cx8We/wCaP2O09qM3DpuH+dIfZu+ktQsLLUbG4sL6Fbiyu42huYJBVHjkBVlYeBBzsHzx8/6h&#xA;/wA4qavpGoT3X5c+d7/y5aXBLPprNKUqe3qxSRllpsA6MfEnFQWAeefyv/OP8udKfzDd6paeYtCt&#xA;2X69GgKyojEDkVZFPGppVWNOpFM1efsjBMbDhPeP1O803tDqsZHFLjj3H9fNJdD0mxuLzRdThZpB&#xA;Y2Rihkb7TRyAeny67qjEfM5zuozyjGcD/FLf4c/teu0elhOeLIN+CFD3Hl8h97J7S0gtLdbeBeES&#xA;V4r/AKxLH8TmunMyNnm7nFjjCPDHkqMqspVgGVhQg7gg5EFmRaWf843ay3kv87b7ypK/DTfMETRQ&#xA;BjRfViBntmPieHqR/Ns7zRajxcUZ9eR975V2lpPAzzx9BuPd/Z9z7IzNdc7FXYq7FXYq7FXYq7FX&#xA;wX/zlR5xbzF+bd/axuGstBRNMgA6c46vcE7/AGvWdl+SjIjvZS6B4/kmLbMzMWYlmPUnc4AKSTfN&#xA;ysysGUkMNwRsRhIUGmUeX/zG8yaQ6q85vrQfat7gltv8lzVl/V7ZrNV2Thyjlwy7x+p3Oh7e1GA0&#xA;Txx7pfr5/jk9b8t+ctE1+IG0l4XQFZLOQgSLTrQftD3Gcrq9BkwH1D09/R7rs/tXDqh6DUv5p5/t&#xA;TzMJ2bsVeXfmn51fm/l/T5KKBTUJVO5qP7kHw/m+7xzpuxuzx/ezH9X9f6nivaPtc2cGM/1j/vf1&#xA;/Lvegf8AOMP5GLrM8PnLzDAGso25aRaSCocoaG5dT+yrCkY7n4ugFekeNfXOo3UWl6Pd3YT91ZQS&#xA;TcB3ESF6fTTFX50flxJPfefoLydjJO5uJ5nP7TvG/In5l81fbMq00vOvvd57ORvWR8uL/cl67Fr9&#xA;nN5gm0SIF7i3g9e4f9lORUKnuSGrnJS00hiGQ8iaD38dbCWc4R9UY2fLls9d/Le4j8u+TPNPnC5+&#xA;GKytpGjJ7/VomlYDx5MVA9833s/h2lPv2eU9rNRcoYx0sn48vuLz/wD5xNtNB0nyFrvnrXbhYbPS&#xA;L2dRI/SPjbQtI9OrMRIFQDufGmbiWkBz+KekaH2vPx18o6Y4I8pS4j8hQ+xhnlLVLnzJrvmbzlcR&#xA;tH+nr95LeNtysKFuC178Q4T/AGOaDt/MDOMB/CPver9lNOY455D/ABGh8P7fsXeX9f0qT/nILypZ&#xA;axOlppelXHP15DxX6zJAZICxOwBl9Jd8z+w9OI4uPrP9GzqfajVmefw+mMfaaP6n1d+Y2iecNQ0h&#xA;LnyfrQ0XXrEtJC8yCa2njYfvIZ42WQb8QVcKWUjbqc3bzT53j80/nRrvmrzD5b8z+eLbyzd+XrMX&#xA;UZtYI2iuZXVZIlU8VkKMjfFQEjpxOVZc8MYuRpvwabJmNQBkWI6h/wA5A+d/MXkGf8v9asTPrOov&#xA;HGdRakBa1JDtyj48QxA+0BShrSo3E88RAzvYfFOPTTlkGOjxHpyT/Q7WC206KKEUVFCAeCoOKj7h&#xA;nBaiZlMkvqujxxhjAHT9CPyhynYq8x866jdaf+aHl6+0wf7krN7SWGm3KVLktGP4HOt7DvwJf1j9&#xA;weB9p6OqiP6Iv5l+gWb15Z2KuxV2KuxV2KuxVB61qttpGjX+rXX+82n28t1PTr6cCGRvwXATQSBZ&#xA;p+YGp6hdalqV3qN25kur2aS4uJDuWklYu5PzZsQKCk2bReg+XdQ1q5MVqoEaU9advsID+s+AzH1O&#xA;rhhFy+TmaLQ5NRKo8hzPc9E0X8sNBEsaXjS3bdZKsY0NN9glGH/BZz+o7Zy0eGo/a9XpPZ3BYE7l&#xA;9n3frZEfy18klAv6MFB0pLMD9/OuYH8ran+d9g/U7b/Q/o6rg+2X60tv/wAofLE6n6q89m/bi/qL&#xA;9IcE/wDDZkYu3c0fqqX48nDzey+ml9JlE++/v/WwvV/yw806XKJrEfXo0NUltyVlUjoeBPKv+qTm&#xA;4wdsYMoqXp9/L5vPar2d1OE3D1jvjz+X6rTDQtT/ADb5pZxw3DKdhJfQFQo8TJIqsfvOUanDoK4i&#xA;R/mn9AcrR6jtWxACX+fH9JehazqlxoPlWa9upRc3ltCAZSAoedqKDxAAA5t08M0OnwjPnEYiok/Z&#xA;/Y9Xq9RLTaUzkeKcY8++X9v2Pn2SWSWZppSZJHYvIzVqxJqSfnneRAAocnyuUjIknmX0D+Tf5+/n&#xA;FqXmrS/K2lW2n38F06xC1ktxBHBbRr8RDwFCiRRqSKhvChwsX0r+ePmey8t/lT5kvrpgGnspbK1Q&#xA;9Xnu0MMYA70L8j7A4q+JvyT06W881yemvKQQenEP+LJZEVf45pO3CTijEc5Sel9mABmnM8oQP6P0&#xA;WyjyBp97rP52+YtM08esZZrqCB+oEcNysaMzDsI1qTg7T0hOHHihz4gPsO7LsXtADUZc2TlwmR/0&#xA;wofoD1D/AJyk816f5P8Ay6038ttLl5X2phJdQI2YWsT8yzeBnnG2/wBlWGbXTacYcYgOjotbqpaj&#xA;LLJLnL8APJddk1LRP+caPLWnpWK28061e6hcU25x2gSCNX9iyBh/qg5e4rMfLqWCaFYJYEG0ECek&#xA;V3qOPU0716++ee6oyOWXH9VvrmgEBggMf08IpKvMf5f6Br1ybu5EsN2VCtNCwBbiKLyDBgaZlaTt&#xA;TLgHDGjHzcLX9h4NTLjlYl3h7L+QvmrVtKs5/KnmPUxqFjbxhtDvbghJgg2a0kZ2o1Kj0jXpUdOI&#xA;zoNF2xjy7S9MvseR7S9nsunHFD1w8huPeP0sK8wfkN5r88a7cebPPXmLTfKUMq8ILC39OeaK2TdI&#xA;55g8EbOP2m5v9AoBs55MY+oh0uPDlJ9Il8AXn3m38qfLvlwtq3kTz7p/mHUbWpl0lnhF06D7fpBZ&#xA;H9X4eq0U06VNBgy4oZIcJ+kpw58mHJxx+oI3yd5ij1SxiukHASkxzRVrwkH+f3Zx2v0pxSMe77n0&#xA;TsrXDNASHXY+RZTmsd27FWM6dZ6YP+cgPJE+qRGayuJ4URK0H1lHf0D06LM0ZI79M6zsKd4SO6X3&#xA;08F7UYiNRGXfD7rfX/kvzIvmXyvYa2IxF9cRi0amoDI7RtQ+HJDTN5CXELeYyQ4ZEJ3kmDsVdirs&#xA;VdirsVeZf85J602k/kt5kljk9Oa6ijso/FhdTJFIv/IpnwSZRfnxhYvVfy3tvS8uCWm9xM719hRP&#xA;+Nc5fted5q7h+17bsDHw6e/50j+r9DONJWsrt4LT7z/ZmmzHZ6TTDclM8xnNdirsVdiqTebPLza/&#xA;pa6f6/1eMzJJM4HIlEqSAPE5maLVeBPjq9nXdp6H81i8O+EWCfcwD8yLXSPL2jWehaVAsTXR9W6l&#xA;6yukX2ebnc8nNfDbN72TPJnySyzN8Ow7t+74fe8v2/jxaXDHBiFcW8j1IHeff9z23/nCnyVDHput&#xA;ecriMG4uJBpti5G6xIFkmK/67lR/sc6F5FEf85v6rJF5a8saSGol3eXF0y16m1iVBt7fWTirzr/n&#xA;ErTYrrzm7yU4xSxSknoogjllB/4IDNTrY8Wpwx/rH5O+7OnwaPUS6nhj87D0P/nFTy/DZWPm380d&#xA;XpDaXrzrZ3DAqBawu093KAf2SwC/7Bs2tb26MSNU+avP/m/U/PXnnUtfnDtNqVwRaW53McNeEEIp&#xA;t8KcV26nfvhYvrz81vyH1TzB+TnlrypoLQjV/LYtuAmbgk3GAxXA5AEBndufhtirwK5/5xT/ADvs&#xA;IjPbafBcOu/C2vIVk28ObRD8cEog82UZmO4NJVp3mHzv5M1ePR/Otld20Ehpyvo3WVB05o7D94nj&#xA;ufbNLr+yITiZYxwz+wvR9le0GTFIQynixnqeY/WHo2pnUDp0zaZ6bXvHlb+p/dswINGp2I2zlcPB&#xA;xjjvh6vd6g5PDJx1x9L5JBqVvqOqaGll5hli0r6zMqSNauz+om59Pky8YyxA7tmdhnDHl4sQM6HX&#xA;p5+f2Or1EMmbCIagjFxS/hN35b8r+KTeYfyt8tw6NPLZGSC8hjZ4meTkJGUVCsG2+LptTMzS9s5j&#xA;kAlRiT3cnX672c08cJMLjMDbfmlf5YXVn+jri2RmF2snqSxsduJAAZdh4UPXMntmEuMSP004Xs7k&#xA;h4coj6rs/repW8vqwI/cjf59DnMyFGntccriCqZFmwb8zr2bSpPL+u2217pd+k9s1SKMhEo3G4+K&#xA;IZ0HYEjxzj3x/H3vJ+1cR4eOXdL7x+x9Pf8AON86J+Tvla0mkH1yS2uLn061b03vJSHPz5jOngRy&#xA;eIyA8/d9z0/JtbsVdirsVdirsVeA/wDOaN8IPyu0+1DUku9XhBXxSOCdmP0NxwHmyB2L4pwsXsfl&#xA;L0rXypYvIwjjWIyOzbABmLkn785HXXLPKudvf9mVDSwJ2FX+lTfXPOd8JI/LOmNHASAdQugqE07o&#xA;kpXb5g/LJDTaeFHNPf8Amj9JDE6zWZLGmhQ/nS2+QP7fck1/5V/Ne4rJLeySt/vuO64D6FqiDMzH&#xA;rdDHYRA/zf7S67N2b2pLcyJ906/UGLX7eddEkCXc19ZEkhG9WRVJ78WVuJ+g5ssQ02YXEQl8A6bM&#xA;dZpzUzkh8T96+38/ecLf+71SZv8AjJxl/wCTgbBPszTy5wH3fcnH21q48sh+O/3ptbfm55shAEn1&#xA;e48TJGQf+SbJmLPsPAeXEPj+tzsftPqo8+GXvH6iEen50auB8en27HxDOB+JOUn2fx9JFyh7WZes&#xA;I/axDzL5ivPMGpfX7tFjfgsaxx14qq1O1ST1JObXSaSOCHBF0PaGvnqsniS2NVs+8f8AnG/T7fTv&#xA;yd8uWyEepNbteSAda3MjS1P0NmU4LyX/AJzmikMXkuUD92jakjNtsWFqQP8AhTirEf8AnDy4tZfO&#xA;+o6TM3F7qzkeOmzEKrI/GvejjMPLivPCXdxD8fa7HBmA02SHUmJ+R3+8PTvzekuvy8/5xitfLJpD&#xA;fTiLRGZDs9XeSeQf5M0cTn5NmY658l6LpHmUWM/mnS7eQ2mhT27z3qAEQyuxaFiD25J1pQbV6jFX&#xA;6OeQfNMPmzyXo3mOIBf0naxzyRruElIpKg/1JAy/Riqf4qlnmTyxoHmbSZtJ16xi1DT5x8cEy8gD&#xA;2ZT1Rh2ZSCO2KsNg/IrybBZ21rFPfIttEkIcSxln4KF5Nyjbc0qaUzUZexMM5GXqF9x/Y9Bg9pdT&#xA;jiI1EgCtwf0EMf8AMvk38m9Bf6lrXm06ReOOSxzXlmk4UjY+nJE23uVyMewsA58R+P6gzn7UaqXL&#xA;hj7h+sl5V+an5c6npGi/4q0bULLz55Gjat4AsL3FshpWRJbf93Io25MoFP5afELD2TCIvEZQl7/v&#xA;aR29kmQM8Y5IdxA+xiun6X5XtLP9O6MUt7G9RfVq1EFCQPtH4CCSrCtK5ocubPOXhZN5R/Hxeqw6&#xA;fTY4ePiqMJge77eXcQnmh6ha3ETJDMkoBqCjBh7iozB1GKUTuKdno88ZigQU0zGc157+c7qNFsE/&#xA;aa5LD5CNgf15v/Z8fvJH+j+l5T2sP7mA/pfofQH/ADiTp+uz+S7jzLrMjN9eW30zSI2AVI9P0tGj&#xA;j9MDoGmll5fzMCxqTnURG5eGkdg92ybB2KuxV2KuxV2KvmX/AJzgnI0DyrBzoJLu5f069eEaCtPb&#xA;n+ORP1D8dzMfSfeP0vkXJMHtflpAPLumg0b/AEeI+I3UHON1h/fS/rF9F7PH+Dw/qhlGlD9wx/yv&#xA;4DNbm5u5030o3KXJUrq0truB7e6iSeCQUeKQBlI9wcnCcom4mi15McZxMZAGJ73n2vfk9Yzs02jX&#xA;H1VzuLaarxfQ+7r9PLN9pu3pR2yDi8xz/V9zy2t9lYS3wy4fI7j58/vYRqX5febrAnnp7zoOklvS&#xA;YH3olW+8ZucXamnnylXv2eb1HYerxc4Ej+jv926Qz2tzbtxnheFv5ZFKn8czozjLkbdZPHKO0gR7&#xA;1LJMH2X/AM4neeta80nUbS5pBpXlzS9L06xtVGzOsbpLMzd2b0Rt+yKDxJVT/wD5yy8i3/mb8tBf&#xA;adEZrzy/P9eeJd2a24Mk/EeKgq/yU4q+UPyL1m50j83/ACnc25IabUoLJx4x3rfVnB/2MpxW30B/&#xA;znBdSL5e8rWg/u5bu5lbf9qKJFXb/nqcVRH/ADjPpOlyflCEeJJk1K5uv0hEwDB6n0eDjwMaLscV&#xA;er/k95dTyv5buvLcLO1lp1/cHTeZqRbXJFyoB78HmZK+IxVW/Nfzy3k3yhqetqodrK39REJoHldh&#xA;FChPYNIwBpvir4X1X87vzY1LUn1CTzTqNtIzclhtLmW2hUVqFEUTKtB03r71xV6J+X//ADlz+Yeh&#xA;tHH5miHmPSAQjSuFhukp/LMi8HNN6SKSf5hgsXSeE1fR9H6R+cflfzj5akv/AClY/wCJJEAbU/L/&#xA;ADhgvo0O5rBOQkm/g1D2JO2FDy7VBpNnHd/mD+Udo629o7W35h/l7NEYA8DAiT1LI1EUiLyqUBXq&#xA;R0cMq8w00aN5a1Jb62Dap+VHmGYi3uZAW+qNJtLZXgWpjlVW4N/MKOppmt1ulJnHLD64faOodx2d&#xA;rhHHPBk/u8g/0suh918/mx/82fJT/lv5wtrjy9dyNo+pQi80q55c/gJ+OIuNpAuxH+SRmbkxQyxq&#xA;QsF12HPkwz4onhkGYeSvOVp5gsAHZY9QiAE8Fd/9ZfY5xnaGglgl/RPIvpHZHasdVDfaY5hh35pz&#xA;3Os+Y9N8v6XC97ex1VbaBTJI885AWMKtSWoo+/Nz2DhMccpn+L9DzftTqRPLHHH+Ab+8/sD7K/JL&#xA;yRrnlTyTbQeYbk3GvXKo91GCPTtY0XjDZwqlI1SFeoQU5liK9c3kY08vOVvQMmwdirsVdirsVdir&#xA;5f8A+c44nOmeUJhTgk18h8aukBH/ABE5E82Y+k+8fpfJeSYPavKrBvLmnEf74QfcKZx2tH76XvfQ&#xA;+zTenh/VDKdJP7lx4NX8Bmszc3d6b6Sjcpcl2KuxV2KrZFLxugNCwIB69RhBosZCxT5hz0l8afVH&#xA;/ODt0vq+bbU0DAWUi77mvrA7e1PxxV9R6oVGmXZZVdRDJVGFVYcDsR4HFX5zfk1Ck35s+T0etBrF&#xA;k4p4pOrj8VxV9U/85jeVrnVfy0ttXtkMj6FerNcACtLedTE7eO0hj+iuKvD/APnGv8018t66fLGq&#xA;ShdG1mUGCVjRYLwgKpP+TLQK3geJ6VxV9eRSyROHjYqw6EYqxj82NCu/NvkPXNIX95d3Vqfqy0AB&#xA;mhImiXp3kQYq+AGVlYqwIYGhB2IIxV7x5O0rTbjyTZ2s1usltcwKZo2GzFhVj/wW4zh9fmnHUykD&#xA;uC+m9labHLRxiRcZR3/HveWaXZeZLTUrjXPKRuoBp9zItrcWzsLhFU7H4KMfhYcqZ1g1cIcMchAm&#xA;QPc8Gez8mTjnhiZY4yI86eh6V+eeq6hr1jrtxcw+X/Plov1abzAIj9R1ODYehqtvECVI4/DLGp8C&#xA;q0DLmOuIe2eVfLesatcvri+SX0afVI63uq+W9W0240nUVb9uSyuDNCwqSd4mNe+Kqf8Azkp+VJ1D&#xA;8tYZ9JtB9Y8v/wClRQxJGlIitLpFSFI4+lJPhUV47DFXyD5b0bXtZ1m303QYJrjU5zSGOCoYbfEx&#xA;aoCqo3ZiQANzglEEUd2UZmJsGi9z/wCcZ/INvqH5zT6pZ3H1/SfKkTNPqQq0VzfSxmCsbGh4M7Sy&#xA;RkipVRXc4K5AJs7kvs7JMHYq7FXYq7FXYq7FXzj/AM5t2BfyR5f1Dtb6m1ud/wDf9u79P+eGCt7Z&#xA;A7U+OcLF6/5EnEvlaz3+KPmjfRI1PwpnJ9pxrPL8dHvexp8Wmj5X97MNJbeRfkRmpzDk7/SnmExz&#xA;Hct2KuxV2KuxV86+a9MfTPMWoWbCgSZmj/4xueaf8Kwz0DRZvEwxl5Pk3aWnOHUTh3S+w7j7Hsf/&#xA;ADh95mtNI8/apb306W1ldabJLLNKwRFNs6vViaABUZ2JPQDMpwX0r+XH5q2n5k6p5hj0i1p5W0rh&#xA;Zx6hIWWW7ml5c2RNvTjVF25fEeQO3TFXwtJBqvkD8w0S6iI1Hy1qccpjcFeTWkwkRhX9lwoYHuDX&#xA;FX6N282h+a/LMcyql9omt2gbg26y29zH9lgPFWocVfAn52/lFqn5beamtCHm0K9ZpdFvz+3GCKxu&#xA;Rt6sVQG8dm74q+tPyq1+68wfl1oGrXZLXU9qq3Dnq8kJMTuf9dk5YqyvFX59/mFbx23n/wAzW0Qp&#xA;FDqt9HGNtlS5cDpQdBir2byVGY/KumI1OQt0rTtVQc4LtA3nmfMvqvZEa0uMf0QkvkqyfRvMWt6L&#xA;IKIzC9sj2aGU8T/wNFXMvtDJ4uHHkH9U+8Ov7IxHT6jLhP8AXj7j+AEr/Kn8uo/zR/NbUtP1KSaL&#xA;TkS8uryeEgOgBMUAUsGXaR02PUA51WkgIYogfzQ8Lr8pyZ5yPWR+9bYy/mR5C/MHUPKv5Z6/d65J&#xA;aSNzXTInmgmZF/eF7RhNGWj+yzUO/Q5eTTigWyzz95m/5yl1fyNqE/me3l0fyzBGo1ORo4LB5VkI&#xA;RUYErO3NnClUFDWhwcTLgLF9L/LP81bPUbXyZ5WvDLdeaNGt9V1eygdbcwWs2xivHYjiF5Cq8vi5&#xA;D4ammEliBb6//Jj8rbP8t/JkOipItzqM7m51W9QECS4cAUSu/CNVCr/wVAScQEk9zO8LF2KuxV2K&#xA;uxV2KuxV43/zlro5v/yYv7gUrpd1aXlN6msv1c0+i4rkT0ZRPN8H5Ji9L/K+8V9LurQt8cM3MDvx&#xA;kUD9anOc7Zx1MS7w9h7O5bxSh3G/n/Yz3TpOF0vg1VOaPKLi9PglUk1mnhgiaaeRYokFXkchVA8S&#xA;TsMxoxMjQ3LnTmIi5GgGHav+bHlmyYx2vqahKO8Q4x1/12p+AObbB2JmnvKojz5vP6r2m02PaNzP&#xA;ly+Z/Ql1l+cKXM5T9CzsgO5gk9V6ePHgv68yMnYPCPrHxFfpcTD7VCcq8KVeRv7KDO9M1O21G2Fx&#xA;AHUVo0cqNHIp60ZWAIzSZsJxyo/Zu9Np9RHLHijfxFH5FFZU3vAfzCnM/nLVHJrxkWP/AJFoqf8A&#xA;Gud12XGtPD3fpfLu3J8WsyHzr5ABII5poixidoyylGKkiqsKMpp2I65sHUvtT/nDeKGH8trgJtLP&#xA;f3Ek47h0EaUP+xAxVQ/5y0/KXT9Z8rTeeNPhEeuaMim+ZBT6xZghTzp1aHlyDfy1HhRVN/8AnEHX&#xA;pNS/KKOzll5vo99cWiqTVljbjcLXvSs5A+VO2KvSPzF8haL568p3nl7VUHpzrytrgCrwXCg+nMnu&#xA;pP0io6HFWK/l95RvfKPkfQ9AvafW7S0Q3IBqBNJWSVQR14u5WuKp+SAKnpir86/MN+uoa/qd+v2b&#xA;u7nnFPCWRn/jir1f8qdcF5on1GRqzWZ4U/yOqfht9Gcf21puDLxDlJ9C9mtZ4mHgPOH4H48mTuln&#xA;J5jidJV+uW1pIssQ+2Yp5EKE7dOUR+X05rgZDCRXpMh8wD+t3JEDqAQfXGBseUiK/wBz+LeU3XnL&#xA;zR5RvPNGh6LP+jk1e5IvruEcbl7cMzRwrLX4EYSVbgAT0Jptnb6GfHhgf6IfMu08Rx6nJH+kf1h9&#xA;Mf8AOMsHkryZ5a8v2V7MkXnDz3FPfwlxu0Fu/GGAP+yClXUH7R5eAy8HdxTE1+Pxsnn/ADkT5A/N&#xA;Hzo2hWXlj6jNoVpOtzf2V05T1LhG+BpqijwqlfhXepOx2oTzQKrmyz8q/wAsW8oQX2p6xfHWfOOu&#xA;Os2u6w3RmUfBDCCBxhjGyigr4AcVUgIJ6BnmFi7FXYq7FXYq7FXYq7FWO/mN5d/xJ5C8waGqepLf&#xA;2FxFbqf9/mMmE/RIFOCXJlHm/M4gg0OxHUYWKN0fWL3Sb5Ly0YB12dG3V1PVWHhlOowRyx4ZOTpd&#xA;VPBPjhz+9l0v5q3Xpg29gkdwN+byF1BH+SFU/jmpj2JG95be53svaSVemAEvff6mLa35k1rWpvU1&#xA;G6aUA1SL7Ma/6qDYfPrmz0+kx4RUBX3ul1evzag3klfl0+TKPIX5dSauV1HVVaLTBvFH9lp/l3Ce&#xA;/ftmt7T7VGL0Q3n937Xc9i9hHP8AvMu2Pp/S/Z+A9fs7K0soFt7SFIIUFFjjUKPwzk8mSUzcjZe+&#xA;xYYY48MAIjyVsg2OxV88ecv+Ur1b/mKl/wCJHO+7P/uIf1Q+Udrf41k/rlW/L/RE13z15f0aRecW&#xA;oaja28ynp6ckyiSv+wrmY69+iNlpGlaL5gu5bG2S1GqTm6vBGOKyTyIqNKV+zybgORHXqd8VeSeX&#xA;fzJtvzA/Obz35GuLg/4fudJm0mxVWqrNbs0Ny6joWk9dyD3VRirw7yv5t/MX/nHzztf6Zf2Hr2Vy&#xA;wW5spSyQXUcZ/d3FtMA1DxbqAetGFRsq+hvK3/OXH5SawqJqM9zoN01AyXkLPHy8Flg9UU93C4q9&#xA;PsdY8teatPFzomqWupQrus9pMkyqT+y3AmnuDviqVanp0pgmtJ+UYmRo+a7GjAiqn6cVfn5588k6&#xA;v5M8zXWhamv7yE87ecfYmgYn05U9mp9BqO2Kov8ALzXLfRtRurqYtIWh9O3tIwWeaZmARVA+n781&#xA;namllnjGMe/n3B3fYmuhppynI/w7DvLNtW8t+Z/I3nDQNc84yi1n8yWs09zakEG2WpSOB9yKj92S&#xA;P2a0O4yvW6EflfDgLqq/T+ls7N7TP53xspoSu/lsPdyYx+Z0ek393FrWl3KTmUJFdRrXlX0/Ujen&#xA;h6ex8KZX2OckInHMVW4+e/2t3tEMWSQzY5A3QPysH5fcyODy/wCdNPsPy4886vNL9Zl1K0sPLtg1&#xA;EK2FmyPCy7fCJJGfqN68v2s3BFAvPRNyD72ybW7FXYq7FXYq7FXYq7FXYq7FXYq/OT87vKX+FfzT&#xA;8w6Skfp2v1prmyUfZFvdfvo1X2QPw+jIx7mU+d97BskxT3SfJev6kqyRwehA24mnPAEHuBux+gZg&#xA;5+0MWPYmz5Oz03ZOfNuBUe87ftegeVPy00O3m9bUWN/cR0ZI2HGH6U35U9zT2zRa3tfLIVD0j7Xq&#xA;ezPZ/DA3k9ch8vl1/Gz0MAAAAUA2AGaF6oB2BLsVQOta1p+jafJfX0npwx7ADdnY9EQdycv0+nnl&#xA;mIxG7javV49PjM5mgPt8g+e9c1FNS1i81BIzEt1K0ojJ5EcjWlaDO902Lw8cYXdB8q1mcZsssgFc&#xA;RtCQzTQSpNC7RSxkMkiEqykdCCNxlzjPUfJv/ORv5ieX7aWyvb19aszDJHa/XXMk0EhQiN0marlV&#xA;anwMSKdKYqgPyvt/M/lz0/zXtYnl0jy9qlvaagVqXdbpHE5BPw/CrKp5H7Ui4L3ZCO1vuq51DyZ5&#xA;k8nHWNRt7TVtB+rG+dbiKO4iMSx+pzCSgr9nxwsXzv8AlHrf/OOfnm0msvNHl7SNC8w+q/CJibS3&#xA;mhZyYhBIGjUOi0RlqGalRWpoq9UT/nGv8rI501Py19f8u3v2odQ0e/nVxU1qpladae1KYqzny7pn&#xA;mmwjOn65qEWvWir+41J4hb3W3RJ40rFJt/uxOHhw/axVKfPv5T+T/N2mXUV/ptvNevA0VvdSIDLG&#xA;aEr6ctPUSjNXZqYq+FPyv88S/l35+tNduNOS+Ni0kF1ZyUVwGBRyjENxkTsae2KvpiX84P8AnG78&#xA;yC9x5mZ9N1M2smnxLqUTq8dvJ8Uphli9aFGevHnyD+FK4qwLzjqf/ONnlzT9SvfJl99d8yPbahFp&#xA;8EUErQLNfy0Ry0sYjpbRM8cY3qnWpNcVYnqH/OQuq+bfOnkrVPOVlbnTPK94lxJFYq8ZkYvGWlZX&#xA;aQEr6SsEFAdxtXYS5Mo833kCCKjcHocLF2KuxV2KuxV2KuxV2KuxV2KuxV8u/wDOa3kZpbPRvO1s&#xA;hLWx/Reokb/u3LS27bDYB/UUkn9pcj1Zcx7nybkmL1f8vdXF9oa2ztWexPpN4+md4z93w/RnLdqY&#xA;ODLY5S3/AFvcdh6rxMPCfqht8On6vgyuGVopVkXqD08RmrkLFO7hLhNp6jq6B1NVYVGYZFOzBsW3&#xA;gSsnE7RMIHWOX9lnUuo+ahkJ+/JRq9+TCYlXpNH5/pDHLjyPb6lfLea9dyamY/7m2oIbdK+Eakn7&#xA;2375sI9onHHhxREL68z83Uz7Hjmnx55HJXIcoj4ftecfmrpEOn+Y0e3hWG2ubdGRI1CoClYyAB7K&#xA;M6HsXOcmHc2Qf2vI+0mlGLUAxFRlEcvLZFfkRZaTf/m35bsdWtorzT7q4eGe1nRZI39SGRVDIwIP&#xA;xEZt3n3rv/OT35D+RfKPluLzZ5bjl06SS7jtZtNVjJbN6qu3NOZLxkcOlSPADFXq/wDzjt5L0iT8&#xA;gdP0vUrUT2vmCO6n1KFxQSLcSNGvShH7lEoevcZEC2ZJBDzPX9G/ML8lbPV9FFvceYfyw1OK4igv&#xA;YRW4sFuVKMJabCnLflRHO4KkkY3XNHDfJiP5BflR+Xn5k+UtZstTN1B5p0ic3EMljNGk01pLEojT&#xA;0risTcZY3+L4ftDkwFMTzSKp5V5n0LzH5W1a5s57DUtEhMjehDeho5GQH4SzKqI5p3XbwxjL5rKN&#xA;cuT2D8n/AM7/ACH5Gto5tR1jzfq96Y/32n0tf0ahI3CRSXLueJ/bqtf5RkmD6A/KT8+9K/M3WdQs&#xA;NK0e7s7bToFnlvLlo6FnYKkfFC1C3xH7X7OKvn7/AJyP/IPzPpfm3UPNPl3T5dR0DVZWu7hbVDJJ&#xA;azyEtMHjQFvTZqsrAUFaGlN1XiemeVfM2qXsVjp2lXd3eTHjFBFDIzE/IDp4nFX1/wDk3/zit5Y0&#xA;PSYdS872UWseYZwHaylPqWlqD0j4D4JX/mZqr2X+YqpR+bv5beS/OH5oeWvy/wDKulafpl3YxvqP&#xA;me7soI4PRsAY1SJhCoBdq/CG6cl6A4JMo11fS4AAoNgOgwsXYq7FXYq7FXYq7FXYq7FXYq7FUl86&#xA;+VdP82eU9U8uX4H1bU7doS5FeD/ajlA23jkCuPcYCExNF+avmDQtS0DW77RdTi9HUNOme3uY+oDx&#xA;mhoR1U9QR1G+INqRSL8o64dH1iOZz/o0v7q5H+ST9r/YnfMTXabxcZA+obh2HZes8DMCfpOx/Hk9&#xA;jBBAINQdwRnIPoAKP0264t6Ln4W+wffwynLDq5OnyVsUZe31nZQ+vdzLDFUKGY0qx6Ko6knsBlWP&#xA;HKZqIsuRlzQxjimaCuCCAR0O++368g2B2BLCPzY0Jr/y+t9EvKfTWMhA3Jhegk+6gb5A5uuxNTwZ&#xA;eE8p/f0eb9ptH4uDjHPHv8Dz/QXl3k7XToHm3RdcFf8AcZfW92wHUrDKrsPpApnYPnj6/wD+cyVS&#xA;8/KHT7qBw8Kavazq67hke2uEUg+B9QHFXof5FMrfk/5RKkMP0bCKjfcChH0HIx5Mp8/l9zOiAQQR&#xA;UHYg5Jix6z/LzyPY68mv6folpY6wishvLSMW7Osn2hIIuCyV/wAsH8MjwhlxlP5EWSNkYBlYFSrC&#xA;qkEUoR3GSYvjX/nIny7+ewuJ4dUtY7jyckgljfQLYxWZC/ZkuYVMkyutf93Oyg/ZbKwAObaSZcv2&#xA;sn/Iz84PyN8jeWxpdvdz2t7csJdRur62lWaaUCm5gFxGqJuEXlt7kkmxqesf9DJ/kyI1kfzFCobo&#xA;AkrH6VVCw+kYqkmq/wDOXX5M2Sk213e6mR+za2jqT/0km3H44q841/8A5yw88+brn9Afln5clhvr&#xA;r4I7px9augDtySJR6UVO7OWA9sBNJAJerfkF+T1/5I06+1rzJcG985683qapcM/rGJKlhF6pqXYs&#xA;eUjVoTSn2akAdUk7UHrOSYuxV2KuxV2KuxV2KuxV2KuxV2KuxV8t/wDOYf5TtNHF+Ymkw1kiCW2v&#xA;og3KD4YLk0/l2jc+HDsDkeRZcw+T8kxel/l55lF1bDSbp/8ASYF/0dj+3GP2fmv6vlnOdq6PhPiR&#xA;5Hn73sOw+0OOPhSPqjy8x+z7k180ebrTQ4vTUCa/cVigrsB/M5HQfrzF0WhlmN8o97m9o9qQ0wrn&#xA;M8h+kpd+Xkd/5k12XXtZma4Fl8NnG32BKd/gXoOC/iQcye1DDT4hixiuLn7v2uJ2FHJq85z5jxcH&#xA;091+Xu/a9RzmXtXYqtkjSSNo5FDI4Kup3BBFCDhBINhjKIIo8ngfnfypN5e1d4lBNhOS9nKd/h7o&#xA;T/MnT8c7ns7WjPjv+Ic3zDtjs06XLX8EvpP6Pg9otPzK0fzl/wA4yat5S1e+htvMvlqO3NitxIkZ&#xA;ube3mQxelzK83WINFxXf7J3rmwdS9i/5xJ8zxav+UVrp5YG60K4ns5lJq3B3NxExHYcZuI/1ciO5&#xA;lLoXtGSYuxV2KuxVjmu/lv8Al/r7ySaz5c06+nlNZLiW2iMxJ7+qF9T/AIbBwhlxFi0n/ONf5ISO&#xA;XbytCCeoWe7UeHRZgMHCE8Z8vkFex/5x3/JaylEsPlW1dlNQJ2muF8N1mkkU/djwheM+XyDN9H0H&#xA;QtFtjbaNp1rptsTUwWcMcCE+PGNVGEBiSSjsKHYq7FXYq7FXYq7FXYq7FXYq7FXYq7FVC+sbO/sp&#xA;7G9hS4s7qNobiCQBkeNwVZWB6gg0xKgvz8/PX8oL78t/Nj28Yeby9flpdGvG3qlfigkP+/Iq0PiK&#xA;N3oAD0ZEdQ85t7ie2njngcxzRMGjdeoIwTgJCjyKYTlCQlE0QuvLy5vLqS6uXMk8rFnc+J/hgx4x&#xA;CIjHkE5csskjKRsl7J5TsTpuhWUS/DLwEsh785PiNflWmchrsviZZHo+gdmYfBwRHWr+JZbZ3izr&#xA;xbaQdR4+4zVzhTvcWXi96TvrL6j5oGi2bEW2nr6+pzL3ev7uAH5/E3yp45mDT+Hg8SXOW0f0n9Xz&#xA;dedWcup8GH0w3mfuj+k/LvZDmvds8+/NzXdPh02PSHhW4vbikqlv90qCQHFN+TGoH01zfdh6aZmc&#xA;l1Ebe/yeV9qNZjjjGIjinLf+r5/jzeQZ1jwT13/nGj804vInnsQalKItA10Jaag7GiRSBj6Fw3ai&#xA;MxVieisT2yJ72Ud9n3uCCAQag7gjJMXYq7FXYq7FXYq7FXYq7FXVFad/DFXYq7FXYq7FXYq7FXYq&#xA;7FXYq7FXYq7FWO+fvImgeefLF15e1uLnaz0aKZQPVgmUHhNESDxdan5gkHYnAQkGn59fmZ+W3mH8&#xA;vvM0+iavGSgJexvgtIrmCtFkTr/slrVTtiCkivcxMGhr1wsXrXlbznZaui283G31AChi6K9O8df+&#xA;I9c5XW9nyxGxvD8c3uuzu1oZxwn05O7v936k113Vv0TpNzfg/vIV/de8jHin4nMXTYPFyCHe5us1&#xA;PgYpT6jl7+iWflEyDTr+8uGJur25POVv2uC13Pjydsye3PrjEfTGP4+5w/Zcjw5zl9U5c/d+0l6H&#xA;mgeseG+YbO98w/mLdWCGkklx6Ct1CRxDiWp7KpOdrpckcGkEj/Nv4l8212Keq7QlAczKvcB+wW9V&#xA;k8leXX0JdFNsPqqCquKCUSU/vedPtnv93TbOYHaGYZfEv1fZ7vc9tLsjTnB4PD6ftvvvv/HJ5J5s&#xA;8g6voEjTBTdabX4bpB9keEij7J9+mdVoe08ecV9M+79TwnafYmXSm/qx/wA79fd9z3P/AJx8/wCc&#xA;noNHs7Xyj55mYadAoi0vWzycwoNlhuRuxjUbI4+zsCOO42HL3OoJv3vrOzvbO+tYruynjurSdQ8F&#xA;xC6yRup6MjqSrA+IyTFWxV2KuxV2KuxVj/mz8wPJXlG39fzHrNrpq05LFK9ZnH+RCnKV/wDYqcVf&#xA;Pfn7/nMlpnOl/l5pTzXMzelFqd6lSWb4R6FqtSzEn4eZ/wBgcVe0/k95R8w6F5Z+u+a7yXUPN+sl&#xA;brWbmZuZQ0/dWyU+FUhViKL8PItTbFWd4q7FXYq7FXYq7FXYq7FXYq7FXYq7FXYqxzz9+X/lrz35&#xA;el0PX7f1bdzzgnSizQSjpJE5B4sPuI2NRgISDT4S/Nz8kvNv5b6kRfRm90OZytjrUKkRSdwkgq3p&#xA;SU/ZY778SwGIPekjueeKzKwZSQwNQRsQRhIQDSb3/mnVb/SU027cSpHIrrMf7whQRxY9+uYmLRY4&#xA;ZOOOznZu0suXEMczdHn1Z5+W80LeXhErqZUlcvGCOQBOxI6iuaPtaJ8a+lPT9gTB09XvZZpb380N&#xA;FPxp4HqPkc08sYL0OPMY+5KdK8u28Pne712Nl9G6gPGNtmSdiofbvULX6TmVm1ZOmjiPOJ+xwdNo&#xA;Ix1ss45Sj8pbX+PNl2ap3zTKrKVYBlYUIO4IOEFBFsJ8w/lToeos0+nk6dcnfig5Qk+8e3H/AGJp&#xA;7ZudL21lx7T9Y+35vOa72aw5fVj/AHcv9j8v1fJKvLs352fl3MzeWb6YWhbk8Fuy3Fs52qWtpQRy&#xA;I25cK++bzD2vp59eE+f4p5fUez+rx/w8Y/o7/Zz+x6RpP/OYv5h6aoj8yeUobtl2LxevYuf9bmtw&#xA;tfkBmfHPCXKQPxdXPTZYfVGQ94Kfwf8AOcHl5krceVruN6/ZjuYnFPmUT9WWtDU//ObmlsKaf5Qu&#xA;7l6fZe6SPc9B8EUuAyA5soxJ5C0ru/8AnLD819SBXQPJcFoH2SW6FxOBX/K/0VK/PMbJrcMOc4/N&#xA;zMXZmpyfTjl8v0sA84/nJ+cd2jx+YfNx0kMKfovSeEc4r2LW/EqD/lzffkMes8X+7iSO87D9f2Nm&#xA;Xs7wf76Qif5o9Uvs2HxLyK4kuNQvyyCW4ubl6LzZpppHc0FWpV2J9szIg1u6+RF7cn17/wA44f8A&#xA;OOLeXGg84+cLf/c99vS9LehFoCKerKOhmI+yv7H+t9ksX0birsVdirsVdirsVdirsVdirsVdirsV&#xA;dirsVdiqG1PS9O1XT59O1K2ivLC5Ux3FrOoeN1PZlaoOJCQafLP5s/8AOHlxG82rfl3J6sRJd/L9&#xA;y9HX2tp3NGH+TIa/5R6ZHcJ2L5l1XSdU0i/m0/VLSWxvrduM1tcI0cin3VgDhBtBBChBcT28qywS&#xA;NFKv2ZEJVh8iMEoiQoiwmE5RNxNFk+mfmNrtqAlyEvYx/OOL0/11/iDmtzdk4pfT6S7nT9vZ4bSq&#xA;Y+35slsfzM0OYAXUctq3c09RPvX4v+FzXZOx8o+kiX2O4w+0GGX1Ax+38fJkNj510aQD0dThI7JK&#xA;wQ/c/E5r8nZ+Qc4H8e52uHtfCeWSPxP607ttet5hsVk942DfhmHPTEOxx62MvP3IxNQtW/b4nwIO&#xA;VHFJyBniVVZoW+y6n5EZExLYJg9VOfULC3/v7mKH/jI6r+s5KOKUuQJYTz44/VID3lJ7zz55QtAT&#xA;JqkLkdoSZq/8iw2ZePs3US5QPx2+9wMvbWkhzyRPu3+62N6n+cukxArp1nLcv0DykRJ89ubH7hmw&#xA;w9gZD9cgPtdRqPavFH+7iZHz2H6WF61+ZPmnVA0f1gWcDVBitgUqPd6l/wAc3Gn7JwY964j5/inn&#xA;dX2/qc23FwR7o7fbzVvy+/Kzzv8AmBqRtfL9i00SsBd6jNVLWDkesspB378Vqx7A5snTPsz8nv8A&#xA;nHXyj+Xqx6jMBq/mfj8WpzKAkJI3FtGa8PDmfiPiAaYUPWcVdirsVdirsVdirsVdirsVdirsVdir&#xA;sVdirsVdirsVdirHfOX5eeS/Odn9U8y6TBqCqCsUzrxnjr/vuZOMif7FsBCRIh87eef+cKWBkuvJ&#xA;OtVHVdN1Qb7CpC3MS0NTsoaMe7YN07Hy/H473hPmz8nPzN8qF21vy9dw28f2ryFPrFuB1BM0JkjH&#xA;0muPEOq8B6bsMyTF2KuxVUE84FBIwA6DkcjwjuZccu9pppmFGdmHgSSMIiApkT1WYWLsVZx5L/JX&#xA;8zPOLRtouhXBs5NxqNyPq9rxrTkJZeIengnI+2C00+jfy6/5w18uaY0d752vf01dLQ/o21Lw2an/&#xA;AC5Phml9vse4OKvoXTNL0zSrGHT9MtIbGxtxxgtbdFiiQVrRUQBRvhQisVdirsVdirsVdirsVdir&#xA;sVdirsVdirsVdirsVdirsVdirsVdirsVdirFvMn5Wflz5lMj635csLyeU8pLowKlwT/xnjCS/wDD&#xA;YOEMuIvPNY/5xA/J2/lL2sWoaUD/ALrs7rkv/T0lyfxxpFsSvf8AnB/y87k2Xmm7gSuyzW0cxpTx&#xA;V4f1Y7p2S8/84MCu3nbbt/uM/wCzvCxRNr/zg5pqlfrXm+aUb8hFYrFXwpynlpg3TsyjSv8AnDT8&#xA;qbRle8udU1Ij7Uc08ccZ38IYo3/4fCh6P5a/Jz8rvLTJJo3lqygnjNY7mSP6xOpHdZpzLIPobGk2&#xA;zHFDsVdirsVdirsVdirsVdirsVdirsVdirsVdirsVdirsVdirsVdirsVdirsVdirsVdirsVdirsV&#xA;dirsVdirsVdirsVdirsVdirsVdirsVdirsVefRfmnK0lt6lnaJbyx21xPOl4ZfRhuiQEZEh9T1k4&#xA;/GoXitVqwriqWw/nBrY0a01S60RIorm3iuF+K5UOLhYinF5LdFXiZSpLHi/GiFmPHFU5l89+YYbd&#xA;PU0uBpponniuFmYW6JC3CX1SV5qVaSGlAa8yf2Tiqi/5qNHdLbtpwlWEyLfXtvI81ojQysWWOYRK&#xA;rN9Vt5pSpoeQVN+XIKqWnfm3JdwJfNpJTTEgmlvrhJWYwPA4BqrRxs0YSWF2biOKvXopxVG3X5jy&#xA;RyTCKCxVI57ezRbi+9KYzXCwtzMYhakSeueTcq/D08FVLT/zOurucQfod2L38Ngl1DIZbUj1kiuJ&#xA;vW4L8CGVDHVR6nNaftFVWe4q7FXYq7FXYq7FXYq7FXYq7FXYq7FXYq7FXYq7FXYq7FXYq7FXYqlH&#xA;nC4a28pa3cJIYXhsLqRZlYqyFIWIYMKEEUrXFXz8t1aw6BZ+ZLnTIYNNmaFpdbkvLN7OQP6ZeBbV&#xA;Y6px9SRNn5pw5OWowwIY1DdazJbyR281qt9eslxYpPHayLPEIlZmtxHxb0uZLSOpFISpRefIFVbN&#xA;repQQvfXM9na2ltHJFNPG9sPQnjXiYpJUSNvrCM4DmMCknp8fhL4q+t/9x9D/dU9UV+z/fV2/wBn&#xA;X6cKVzfUvRHL0/R4rxrx48ajjTtStKYqpRfon6sfS+r/AFWjcuPD0+O3OtNqdK4qqp9S9FeHp+j8&#xA;PGnHj0HGnbpSmKtj6rRqenSh5dOlByr9FK4qpt+jeT8vR5emfUrwr6VTy5f5Fa17Yqqp9W9Menw9&#xA;P4acaca0HHp9FMVVMVdirsVdirsVdirsVdirsVdirsVdirsVdirsVdirsVdirsVdirsVQurfo39F&#xA;3n6U9P8ARnoSfXvWp6XocD6vqV248K19sVfPbf8AQmv1QcvR+qUFK/pf06VNP8mnLFU/s/8AoXH9&#xA;J6d9S+vfpT6oP0T6P6f+sfUvRFPq/H4/R9Cn2Ph4U7Yq2n/Qt36FvK/Wf0D9cf8ASfrfpv6h9c9S&#xA;L1PrfqfuOfqelz9Xvxrir//Z</xmpGImg:image>
               </rdf:li>
            </rdf:Alt>
         </xmp:Thumbnails>
      </rdf:Description>
      <rdf:Description rdf:about=""
            xmlns:xmpMM="http://ns.adobe.com/xap/1.0/mm/"
            xmlns:stRef="http://ns.adobe.com/xap/1.0/sType/ResourceRef#"
            xmlns:stEvt="http://ns.adobe.com/xap/1.0/sType/ResourceEvent#">
         <xmpMM:OriginalDocumentID>uuid:9E3E5C9A8C81DB118734DB58FDDE4BA7</xmpMM:OriginalDocumentID>
         <xmpMM:DocumentID>xmp.did:E25138E141206811822A8451A1857300</xmpMM:DocumentID>
         <xmpMM:InstanceID>xmp.iid:E25138E141206811822A8451A1857300</xmpMM:InstanceID>
         <xmpMM:RenditionClass>proof:pdf</xmpMM:RenditionClass>
         <xmpMM:DerivedFrom rdf:parseType="Resource">
            <stRef:instanceID>xmp.iid:1C12731713206811822A8451A1857300</stRef:instanceID>
            <stRef:documentID>xmp.did:1C12731713206811822A8451A1857300</stRef:documentID>
            <stRef:originalDocumentID>uuid:9E3E5C9A8C81DB118734DB58FDDE4BA7</stRef:originalDocumentID>
            <stRef:renditionClass>proof:pdf</stRef:renditionClass>
         </xmpMM:DerivedFrom>
         <xmpMM:History>
            <rdf:Seq>
               <rdf:li rdf:parseType="Resource">
                  <stEvt:action>saved</stEvt:action>
                  <stEvt:instanceID>xmp.iid:F77F117407206811822A8451A1857300</stEvt:instanceID>
                  <stEvt:when>2013-10-06T17:09:14+13:00</stEvt:when>
                  <stEvt:softwareAgent>Adobe Illustrator CS6 (Macintosh)</stEvt:softwareAgent>
                  <stEvt:changed>/</stEvt:changed>
               </rdf:li>
               <rdf:li rdf:parseType="Resource">
                  <stEvt:action>saved</stEvt:action>
                  <stEvt:instanceID>xmp.iid:E25138E141206811822A8451A1857300</stEvt:instanceID>
                  <stEvt:when>2013-10-07T00:07:27+13:00</stEvt:when>
                  <stEvt:softwareAgent>Adobe Illustrator CS6 (Macintosh)</stEvt:softwareAgent>
                  <stEvt:changed>/</stEvt:changed>
               </rdf:li>
            </rdf:Seq>
         </xmpMM:History>
      </rdf:Description>
      <rdf:Description rdf:about=""
            xmlns:xmpTPg="http://ns.adobe.com/xap/1.0/t/pg/"
            xmlns:stDim="http://ns.adobe.com/xap/1.0/sType/Dimensions#"
            xmlns:xmpG="http://ns.adobe.com/xap/1.0/g/">
         <xmpTPg:NPages>1</xmpTPg:NPages>
         <xmpTPg:HasVisibleTransparency>True</xmpTPg:HasVisibleTransparency>
         <xmpTPg:HasVisibleOverprint>False</xmpTPg:HasVisibleOverprint>
         <xmpTPg:MaxPageSize rdf:parseType="Resource">
            <stDim:w>209.999929</stDim:w>
            <stDim:h>210.001308</stDim:h>
            <stDim:unit>Millimeters</stDim:unit>
         </xmpTPg:MaxPageSize>
         <xmpTPg:PlateNames>
            <rdf:Seq>
               <rdf:li>Cyan</rdf:li>
               <rdf:li>Magenta</rdf:li>
               <rdf:li>Yellow</rdf:li>
               <rdf:li>Black</rdf:li>
            </rdf:Seq>
         </xmpTPg:PlateNames>
         <xmpTPg:SwatchGroups>
            <rdf:Seq>
               <rdf:li rdf:parseType="Resource">
                  <xmpG:groupName>Default Swatch Group</xmpG:groupName>
                  <xmpG:groupType>0</xmpG:groupType>
               </rdf:li>
            </rdf:Seq>
         </xmpTPg:SwatchGroups>
      </rdf:Description>
      <rdf:Description rdf:about=""
            xmlns:pdf="http://ns.adobe.com/pdf/1.3/">
         <pdf:Producer>Adobe PDF library 10.01</pdf:Producer>
      </rdf:Description>
      <rdf:Description rdf:about=""
            xmlns:xmpRights="http://ns.adobe.com/xap/1.0/rights/">
         <xmpRights:Marked>True</xmpRights:Marked>
         <xmpRights:WebStatement rdf:resource="http://www.ospreydawn.com"/>
         <xmpRights:UsageTerms>
            <rdf:Alt>
               <rdf:li xml:lang="x-default">This work is licensed under a &lt;a rel="license" href="http://creativecommons.org/licenses/by-nc-sa/3.0/"&gt;Creative Commons Attribution-NonCommercial-ShareAlike 3.0 Unported License&lt;/a&gt;.</rdf:li>
               <rdf:li xml:lang="en_us">This work is licensed under a &lt;a rel="license" href="http://creativecommons.org/licenses/by-nc-sa/3.0/"&gt;Creative Commons Attribution-NonCommercial-ShareAlike 3.0 Unported License&lt;/a&gt;.</rdf:li>
               <rdf:li xml:lang="en">This work is licensed under a &lt;a rel="license" href="http://creativecommons.org/licenses/by-nc-sa/3.0/"&gt;Creative Commons Attribution-NonCommercial-ShareAlike 3.0 Unported License&lt;/a&gt;.</rdf:li>
            </rdf:Alt>
         </xmpRights:UsageTerms>
      </rdf:Description>
      <rdf:Description rdf:about=""
            xmlns:cc="http://creativecommons.org/ns#">
         <cc:attributionName>Max O'Brien / Osprey Dawn</cc:attributionName>
         <cc:license rdf:resource="http://creativecommons.org/licenses/by-nc-sa/3.0/"/>
      </rdf:Description>
   </rdf:RDF>
</x:xmpmeta>
                                                                                                    
                                                                                                    
                                                                                                    
                                                                                                    
                                                                                                    
                                                                                                    
                                                                                                    
                                                                                                    
                                                                                                    
                                                                                                    
                                                                                                    
                                                                                                    
                                                                                                    
                                                                                                    
                                                                                                    
                                                                                                    
                                                                                                    
                                                                                                    
                                                                                                    
                                                                                                    
                           
<?xpacket end="w"?>
	</metadata>
<g id="Layer_2">
	<g id="_x37_Wl2mV_1_">
	</g>
</g>
<g>
	<g>
		<path fill="#F95500" d="M514.985,282.336c10.188-10.841,11.17-27.596,11.17-27.596c-1.312,6.571-8.542,11.17-8.542,11.17
			c5.256-19.055,0.655-36.794,0.655-36.794c0,9.855-2.627,23.325-2.627,23.325c-0.329-5.585-4.271-23.654-4.271-23.654
			c2.306-2.628,5.256-12.479,3.614-18.062c-1.643-5.591-6.896-20.697-9.527-28.582c-2.629-7.891-1.644-25.625-0.323-43.365
			c1.312-17.741-7.229-31.537-20.367-31.867c-13.146-0.329-14.127,13.25-14.127,13.25c-35.92-45.993-136.015-87.825-253.186-42.489
			C95.204,124.969,68.525,234.482,72.03,312.452c3.504,77.975,46.431,176.962,155.5,213.318
			c109.068,36.356,184.41-8.76,209.814-31.101c25.406-22.346,16.24-20.571,16.24-20.571s-19.614,3.385-26.732,7.102
			c-33.714,17.605-100.771,15.66-129.682-24.2c-28.903-39.854-7.008-81.474-7.008-81.474c10.404,30.772,39.86,31.648,39.86,31.648
			c-8.542-6.572-7.56-19.062-7.56-19.062c6.569,6.243,20.038,4.935,20.038,4.935c-5.257,1.312-9.194,5.585-9.194,5.585
			c16.099,8.869,34.496,4.271,34.496,4.271c-5.261,7.559-15.113,8.542-15.113,8.542c16.426,15.771,59.464,17.411,80.488,10.841
			c21.021-6.564,22.669-24.639,22.669-24.639s3.284-0.329,5.583-8.543c2.302-8.212-4.6-13.796-4.6-13.796
			c3.938-4.93,3.938-16.426,2.629-22.341c-1.312-5.913-5.913-9.526-5.913-9.526c-1.646,8.541-6.57,13.14-6.57,13.14
			c-4.271-20.033,11.171-28.903,11.171-28.903c8.541,0.979,19.712-2.958,19.712-2.958c-1.972,8.214-8.543,15.438-8.543,15.438
			c2.299,2.956,7.562,5.585,14.454-0.979c6.899-6.57,8.542-12.482,8.542-12.482c9.855-2.3,11.828-10.513,16.098-19.056
			c4.271-8.541,3.942-14.132,3.942-14.132c8.87-5.256,12.155-16.425,12.155-16.425C521.885,281.022,514.985,282.336,514.985,282.336
			z"/>
	</g>
	<g>
		<path fill="#FFFFFF" d="M383.466,193.745c0,0,1.758-4.928,0-13.415c-1.751-8.481,20.594-38.93,37.896-28.198
			c0,0-7.065-0.438-11.416,7.447c-4.354,7.884-2.604,20.149,1.887,22.996c0,0,8.438-13.14,18.945-4.16c0,0-7.645,3.771-6.132,10.396
			l13.797,6.472l3.616,8.541l-2.082,9.418l-4.604,4.233l-8.521-4.677c0,0-1.771,9-10.977,5.376l1.287,7.107l17.329,1.753
			l10.438,10.293l-0.794,4.38c0,0-7.229-7.009-25.735-3.062c-18.507,3.938-19.193-7.229-23.229-11.062
			c-4.032-3.834-11.801-4.377-11.801-4.377l-2.531-11.472l2.409-8.354L383.466,193.745z"/>
		<path fill="#FFFFFF" d="M366.165,156.512c0,0-7.228,4.6-17.084,1.643c-9.854-2.957-27.375-1.204-33.064,10.403v-4.161
			c0,0-16.274,10.217-25.275,21.206l-9.986,77.938l14.584,23.934c0,0-9.123-25.222,6.706-64.093l2.855,29.116
			c0,0,2.793-8.271,11.334-19.438c8.542-11.17,11.171-28.253,11.826-35.812c0.651-7.556,5.039-18.615,10.729-20.806l2.167,45.547
			c0,0-0.256-5.626,3.606-10.255c3.857-4.63,7.146-10.981,8.79-17.99c1.644-7.009,10.624-15.768,14.348-15.33l-5.479,8.321
			l-3.61,20.041l-9.198,22.997v15.438l28.252,7.285l12.686,11.043c0,0,10.646,3.688,27.396,1.225l17.413,1.478l7.396,7.712
			l10.328,13.242l4.089,6.039l9.396,3.062c0,0-4.271-3.921-5.256-9.104c-0.986-5.188-3.938-11.755-3.938-11.755l10.364,4.521
			l36.644,27.934l-2.766,10.911l-9.068,5.386l-14.479-5.386l-19.383,3.281l-58.588-33.322l-20.916,12.225v31.941l2.711,25.729
			l16.056,18.286l14.085,15.44l21.688-7.884l19.021-2.259l4.432,10.143l-4.09,9.523l-11.646,12.482l-29.403,7.229l-36.062-1.973
			l-14.197-6.569l12.479-13.473l-30.881-1.312l4.604-7.229l-26.611-8.822l-3.284,8.822l3.943,10.188l-12.155-3.612l-10.715-10.843
			l-8.997-16.977l-13.47,17.961l4.928,59.789l-13.47-2.957L233.115,336.87l14.127-101.515l-11.827-7.885l10.517-18.068
			l35.148-40.846l6.571-12.046l-6.243-25.625l10.841-28.909l25.625-7.229l16.754,15.771l13.803,25.625l6.566,13.141L366.165,156.512
			z"/>
	</g>
	<path d="M316.667,115.557c0,0,2.627,1.753,5.479,9.193c2.848,7.446,4.161,10.731,6.563,13.36
		c2.41,2.627,11.827,10.729,12.704,13.14c0,0-19.271,5.263-25.399,17.308c0,0-1.315-7.446,2.188-12.27c0,0-6.131-2.629-12.264,1.978
		c0,0,2.188-8.542,8.104-8.767c0,0-8.103-7.441-6.565-19.486c0,0,5.688,8.979,10.945,11.169c0,0-2.849-5.479-2.63-10.732
		C316.011,125.194,317.325,121.032,316.667,115.557z"/>
	<path d="M308.564,170.092c0,0-18.178,8.767-25.406,29.785c-7.227,21.026-1.971,26.727-7.665,36.795
		c-5.696,10.074-6.133,44.022,0.438,52.782c6.564,8.766,3.279,10.951,3.503,18.835c0.219,7.892,0.219,15.112,4.598,21.47
		c4.381,6.353,10.075,9.194,12.266,21.684c2.19,12.483,10.293,18.615,30.663,19.271c20.368,0.653,35.259,6.135,37.668,8.979
		c0,0-7.665-8.979-28.688-14.674c-21.026-5.695-30.229-6.354-31.76-22.562c-1.531-16.207-11.175-15.331-8.764-43.146
		c2.408-27.815-11.828-19.272-6.134-57.162c5.696-37.895,2.411-25.844,5.038-43.806
		C296.956,180.386,308.564,170.092,308.564,170.092z"/>
	<path d="M309.659,213.894c0,0-5.477-0.224-8.104,11.389c-2.635,11.608-1.753,24.967-3.512,32.415
		c-1.75,7.446,3.512,14.673,3.512,14.673s-1.976-8.323,0.438-13.797c2.407-5.475,8.32-14.236,7.007-29.567
		C307.688,213.676,309.659,213.894,309.659,213.894z"/>
	<path d="M338.787,176.444c0,0-3.505,4.818-3.505,13.578c0,8.761,1.974,26.062-11.606,48.622
		c-13.573,22.558-20.362,53.222-11.604,71.18c8.761,17.959,23.435,25.842,23.214,35.268c0,0,7.665-14.459-0.877-30.445
		c-8.539-15.985-20.586-19.491-8.102-44.021c0,0,13.796,12.045,14.017,21.901c0,0,0.877-16.427-8.104-31.979
		c0,0,4.157-13.141,7.442-27.812c3.284-14.673,0-43.365,0-43.365S337.256,179.071,338.787,176.444z"/>
	<path d="M367.698,178.415c0,0-5.479,1.312-7.011,7.007c-1.531,5.695-3.728,24.974-8.104,31.104
		c-4.382,6.131-9.419,11.387-7.666,24.09s3.505,12.264,13.58,11.827c10.074-0.438,27.593,5.914,32.412,12.703
		c0,0,1.096-11.827-13.14-20.149c-14.235-8.323-21.903,0-24.312-10.075c-2.408-10.069,5.479-10.512,8.104-26.938
		S362.442,184.766,367.698,178.415z"/>
	<path d="M383.466,193.745c0,0-2.847,15.331-5.256,17.959c-2.402,2.628-3.723,10.292-0.651,13.797
		c3.062,3.504,16.204,2.189,22.339,9.855c0,0-2.408-6.788-8.765-11.607c-6.354-4.813-8.319-6.352-5.915-14.674
		C387.628,200.754,383.466,193.745,383.466,193.745z"/>
	<path d="M404.492,245.214c0,0-1.972,6.789,1.972,7.229c3.941,0.437,7.229-1.753,9.416-1.096c0,0-3.938-3.285-7.228-3.51
		C405.368,247.623,404.492,246.089,404.492,245.214z"/>
	<path d="M418.071,255.07c0,0,0.655,2.628,2.627,2.409c1.979-0.219,3.943,0.219,3.943,0.219S422.677,254.85,418.071,255.07z"/>
	<path d="M368.573,167.902c0,0,6.791-1.533,8.979-6.57c2.188-5.037,8.763-5.476,11.821-4.6c0,0-5.475,4.161-5.257,6.352
		C384.342,165.274,379.086,171.625,368.573,167.902z"/>
	<path d="M442.551,183.616c0,0,1.146,0.985,1.312,4.435c0.164,3.45,1.479,5.099,3.448,7.229c0,0-0.819-1.314-0.985-5.093
		C446.158,186.408,442.551,183.616,442.551,183.616z"/>
	<path d="M452.236,165.383c0,0-3.448,5.426-3.448,11.827c0,6.406,5.747,14.455,3.941,18.069c0,0,5.092-4.271,4.107-13.633
		C455.851,172.281,452.073,170.311,452.236,165.383z"/>
	<path d="M468.991,168.832c0,0,0.163,2.464-2.792,6.242c-2.957,3.779-4.104,11.17-1.972,15.771c0,0,0.82-6.734,5.748-10.847
		C474.905,175.896,468.991,168.832,468.991,168.832z"/>
	<path d="M417.741,264.761c0,0,15.277-3.779,22.669,1.971c7.396,5.749,16.104,25.295,25.952,29.562c0,0-12.313,2.306-22.503-16.59
		C433.677,260.819,417.741,264.761,417.741,264.761z"/>
	<path d="M465.052,300.075c0,0-8.705,3.45-23.324-14.947c-14.618-18.396-29.896-8.542-29.896-8.542s15.44-3.772,24.811,9.855
		C445.995,300.075,460.12,302.702,465.052,300.075z"/>
	<path d="M463.57,305.826c0,0-17.081,2.142-27.431-9.854c-10.348-11.992-18.896-8.219-18.896-8.219s9.197,1.149,18.232,13.145
		C444.515,312.89,463.57,305.826,463.57,305.826z"/>
	<path d="M454.428,258.135c0.437-1.758-2.854-2.854-4.162-6.571c-1.314-3.729-4.162-5.256-4.162-5.256s5.256,1.527,5.038-1.101
		c-0.219-2.628-0.875-8.542-5.693-14.017c-4.813-5.479-7.667-5.479-8.318-7.446c0,0,3.28-2.628,2.628-5.689
		c0,0,2.629-1.101,4.163-5.262c0,0-1.978,0.658-3.943,0.438c0,0,5.912-3.942,5.693-9.855c-0.223-5.908-2.851-11.604-12.27-13.355
		c-9.418-1.751-24.751-1.094-27.158-12.921c-2.408-11.827-6.57-12.703-6.57-12.703s3.285,5.688,3.285,14.23
		c0,8.543,5.914,12.928,13.146,15.556c7.228,2.628,23.438-1.314,24.53,8.979c1.095,10.294-6.139,11.827-6.139,11.827
		s-3.279-5.475-9.417-7.007c-6.132-1.533-8.979,2.188-15.551,1.751c-6.57-0.438-8.76-1.534-10.292-3.942
		c0,0,0.218,7.016,7.446,8.766c7.228,1.752,5.256,3.062,5.688,5.688c0.439,2.629,3.066,5.257,3.066,5.257s-8.104,4.163-8.322,10.293
		c0,0,8.979-5.038,18.834-5.913c9.857-0.876,16.867,5.913,18.187,11.827c0,0-6.354-5.689-15.771-3.062s-8.543,10.075-8.543,10.729
		c0,0.657,5.695-6.132,15.333-3.938c9.643,2.188,4.816,8.979,10.517,12.046c0,0-4.386-0.22-7.014,1.532
		c-2.629,1.752-3.723-0.875-3.723-0.875s0.657,3.062,8.104,3.062c7.444,0,10.949,5.037,10.949,5.037s-1.096-3.722-2.188-5.694
		C451.802,260.545,453.99,259.888,454.428,258.135z M420.206,223.203c-2.3,0.164-3.613-3.614-2.793-8.049
		c0.821-4.435,4.105-3.285,4.105-3.285c2.708,0.738,3.203,2.215,4.109,3.946c0.01,2.062-0.146,5.021-0.677,6.99
		C422.972,222.966,421.133,223.137,420.206,223.203z M425.478,222.764c0.58-0.913,1.306-2.396,1.782-4.588
		c1.802,2.019,3.513,2.727,4.116,2.727c0.649,0,0.815,1.643,0.815,1.643C431.269,222.36,428.302,222.541,425.478,222.764z"/>
	<path d="M410.186,91.466c0,0-6.897-3.938-18.068,5.584c-11.17,9.527-5.257,26.611-5.257,26.611s-3.286-17.083,6.242-20.04
		C402.629,100.664,409.529,98.036,410.186,91.466z"/>
	<path d="M438.438,110.52c0,0-11.497,1.972-15.111,11.828c-3.613,9.854,11.17,13.14-4.928,19.71c0,0,13.799,0.98,16.426-9.855
		C437.453,121.362,425.302,118.076,438.438,110.52z"/>
	<path d="M452.236,127.274c0,0,13.146,18.069,10.841,23.326c-2.299,5.256-19.383,5.584-21.353-0.657c0,0,4.927,0.657,9.199-5.257
		C455.194,138.773,444.681,129.246,452.236,127.274z"/>
	<path d="M514.985,282.336c10.188-10.841,11.17-27.596,11.17-27.596c-1.312,6.571-8.542,11.17-8.542,11.17
		c5.256-19.055,0.655-36.794,0.655-36.794c0,9.855-2.627,23.325-2.627,23.325c-0.329-5.585-4.271-23.654-4.271-23.654
		c2.306-2.628,5.256-12.479,3.614-18.062c-1.643-5.591-6.896-20.697-9.527-28.582c-2.629-7.891-1.644-25.625-0.323-43.365
		c1.312-17.741-7.229-31.537-20.367-31.867c-13.146-0.329-14.127,13.25-14.127,13.25c-35.92-45.993-136.015-87.825-253.186-42.489
		C95.204,124.969,68.525,234.482,72.03,312.452c3.504,77.975,46.431,176.962,155.5,213.318
		c109.068,36.356,176.298-5.778,206.659-26.367c27.999-18.988,36.541-41.089,36.541-41.089s-17.146,11.839-44.335,19.974
		C388.407,489.655,326.085,496.861,297.175,457c-28.903-39.854-7.008-81.474-7.008-81.474c10.404,30.772,39.86,31.648,39.86,31.648
		c-8.542-6.572-7.557-19.062-7.557-19.062c6.566,6.243,20.034,4.935,20.034,4.935c-5.256,1.312-9.193,5.585-9.193,5.585
		c16.099,8.869,34.496,4.271,34.496,4.271c-5.262,7.559-15.113,8.542-15.113,8.542c16.426,15.771,59.464,17.411,80.488,10.841
		c21.021-6.564,22.669-24.639,22.669-24.639s3.284-0.329,5.583-8.543c2.302-8.212-4.598-13.796-4.598-13.796
		c3.938-4.93,3.938-16.426,2.627-22.341c-1.312-5.913-5.913-9.526-5.913-9.526c-1.646,8.541-6.57,13.14-6.57,13.14
		c-4.271-20.033,11.171-28.903,11.171-28.903c8.541,0.979,19.712-2.958,19.712-2.958c-1.972,8.214-8.543,15.438-8.543,15.438
		c2.299,2.956,7.562,5.585,14.454-0.979c6.899-6.57,8.542-12.482,8.542-12.482c9.855-2.3,11.828-10.513,16.098-19.056
		c4.271-8.541,3.942-14.132,3.942-14.132c8.87-5.256,12.155-16.425,12.155-16.425C521.885,281.022,514.985,282.336,514.985,282.336z
		 M272.208,320.446c0,0-8.214,3.283-15.107,14.126c0,0-8.542-27.267-3.614-54.535c0,0-5.585,3.285-7.884,8.542
		c0,0-2.306-35.809,15.769-57.491c0,0-9.199-5.914-19.71-2.628c0,0,7.555-14.127,24.637-30.226
		c17.083-16.097,24.975-31.537,26.611-37.451c0,0,1.972,0,4.927-0.328c0,0-17.411-10.842-9.854-37.78
		c7.555-26.938,26.938-25.947,31.536-23.648c4.601,2.3,30.883,66.034,46.646,57.491c0,0-6.896-6.242-7.558-17.411
		c-0.656-11.17-5.257-14.783-5.257-14.783s19.055,12.155,40.403,13.141c21.354,0.986,24.972-1.312,24.972-1.312
		s-42.055,0.329-58.81-16.426c-16.755-16.76-27.596-29.896-47.309-28.255c-19.709,1.645-26.444,10.843-30.879,19.877
		c-4.438,9.028-7.724,38.93,2.298,47.8c0,0-2.627,0-4.104-0.657c0,0-2.629,7.721-7.386,15.99c-4.076,0-12.465-1.318-22.018-10.405
		c-12.267-11.665-12.001-20.059-11.855-21.469c-0.219,1.751-1.562,14.354,3.314,24.426c4.642,9.576,12.104,15.562,21.479,19.771
		c-2.062,2.086-4.304,3.89-6.696,5.193c-14.455,7.884-40.408,38.771-36.799,58.81c0,0,12.482-10.846,20.041-11.497
		c0,0-5.269,11.14-9.49,26.716c-26.206,1.688-32.292-2.478-67.709-5.691c-36.142-3.285-49.938,16.755-49.938,16.755
		s27.596-15.769,55.851,1.313c22.805,13.788,47.944,16.018,56.808,16.366c-0.756,12.047,0.42,24.408,5.286,35.212
		c0,0-3.99,21.108-1.829,46.13c-3.874,2.567-6.998,5.36-9.017,7.749c-7.963,9.437-18.064,10.512-18.064,10.512
		c15.699,0.464,19.238-5.562,28.271-8.271c1.527,9.96,4.167,20.164,8.522,29.627c4.992,10.849,12.211,21.155,20.675,30.502
		c-1.093,0.899-2.186,1.896-3.263,3.006c-11.171,11.5-13.146,32.197-2.629,40.409c0,0,0.861-22.021,17.062-32.253
		c18.74,16.971,40.92,29.332,58.82,33.562c30.553,7.229,83.771,5.261,110.384-14.452c0,0-40.734,39.425-131.407,37.447
		c-34.78-0.754-67.146-7.708-95.535-21.354c-1.062-10.677-0.895-30.717,10.775-50.913c0,0-19.051,16.79-23.812,44.003
		c-10.656-6.196-20.665-13.438-29.929-21.767c1.781-9.684,6.999-31.249,19.901-45.896c0,0-23.838,10.146-36.604,28.708
		c-14.721-17.283-26.88-38.055-35.952-62.487c3.737-1.567,10.226-4.168,20.65-7.938c19.06-6.897,21.688-16.754,34.494-24.643
		c8.923-5.486,23.654-3.938,23.654-3.938s-11.499-12.812-35.152-3.941c-23.646,8.869-36.794,22.014-48.292,11.167
		c-2.805-2.643-4.856-5.729-6.376-8.896c-7.603-35.869-7.906-72.323-0.758-106.272c4.434-5.646,14.589-13.937,36.044-13.937
		c32.521,0,37.124,11.824,52.234,11.824c15.108,0,16.755-11.498,16.755-11.498s-9.198,8.541-39.751-12.479
		c-21.858-15.042-44.213-11.42-55.171-8.146c4.861-12.562,10.907-24.562,18.13-35.816c2.309,2.026,10.355,7.646,28.171,6.839
		c21.683-0.986,30.882,9.524,33.181,15.769c0,0,3.613-8.542-12.154-19.383c-15.105-10.388-21.181-1.79-39.289-17.237
		c11.143-14.32,24.438-27.138,39.945-37.95c3.813-2.659,7.628-5.188,11.444-7.589c0.257,5.151,1.74,14.214,8.269,22.697
		c9.854,12.812,24.644,16.428,24.644,16.428s-20.87-26.965-13.321-50.387c19.438-10.146,38.663-17.205,57.179-21.819
		c-2.772,2.521-6.782,6.479-9.358,10.441c-4.271,6.571-3.286,16.427-2.956,23.982c0.329,7.556,1.642,12.15,4.599,14.781
		c0,0-4.27-17.083,5.913-24.312c9.543-6.771,30.046-20.756,33.132-30.599c26.737-3.078,51.139-1.369,71.399,2.813
		c-5.146,2.455-13.604,7.441-17.146,14.971c0,0,17.478-9.979,34.479-10.485c52.809,17.113,100.504,76.114,98.574,88.348
		c-1.243,7.871,18.718,33.921,15.141,48.546c-2.894,11.834,3.429,26.329,3.912,35.56c1.312,24.968-3.284,49.605-14.784,45.337
		c-11.496-4.271-15.438-24.644-37.449-21.025c0,0,4.604,5.584,8.869,8.542c4.271,2.958,7.229,22.015,13.473,27.603
		c0,0-5.911,16.754-34.82-0.659c-28.909-17.411-52.235-35.812-66.69-31.209c-14.454,4.6-12.484,19.384-7.229,29.564
		c5.257,10.187,1.312,34.819-0.326,42.382c-1.646,7.555,8.54,11.498,7.555,17.081c0,0,5.915,0,9.199,2.957
		c3.284,2.955,0.657,28.255,21.683,31.21c21.024,2.957,17.412-12.155,34.166-15.109c16.761-2.957,9.856,7.884,9.856,7.884
		s-2.958,14.453-27.925,19.711c-24.974,5.258-43.366,3.943-56.184-1.312c0,0,12.484-4.936,12.812-18.398
		c0,0-19.71,3.285-29.236,0.985c0,0,6.57-4.604,14.453-5.915c0,0-7.229-4.271-17.411-4.271c-10.185,0-25.952-0.98-30.224-13.472
		c0,0-7.891,11.499-2.305,24.642c0,0-23.648-6.567-27.926-46.979c0,0-6.728,10.793-11.286,27.771
		c-6.24-6.145-12.938-9.146-19.521-10.062c0.93-7.958,2.422-15.188,4.096-21.479c0,0,2.271,4.707,6.609,6.48
		C268.853,353.385,263.531,340.177,272.208,320.446z M422.89,361.731c-0.657,2.846-2.854,3.284-2.854,3.284s1.1-5.695-0.221-11.17
		c-1.312-5.479-4.815-8.542-4.815-8.542c-4.161,12.479-15.108,19.932-15.108,19.932c-1.976-0.658-0.438-6.133,0.438-8.762
		c0.876-2.628-11.388-25.625-9.854-29.128c1.527-3.505,1.753-14.021,0.878-21.901c-0.878-7.885,4.599-18.18,14.229-7.885
		c1.604,1.708,3.362,3.292,5.188,4.752c-1.143,1.967-3.705,7.392-2.23,14.412c1.863,8.869,9.854,15.001,9.312,26.5
		c0,0,2.629-7.009-1.312-18.288c-3.514-10.049-3.278-15.141-0.633-18.921c7.647,5.005,14.866,7.751,14.866,7.751
		s-5.256,2.848-3.284,22.119c1.978,19.271,10.293,27.378,10.293,27.378c-0.438,0.658-1.312,0.876-1.312,0.876
		c-0.227,4.378-1.752,5.688-1.752,5.688c-0.657-3.724-3.066-7.659-3.066-7.659c-0.217,3.279-2.188,6.353-2.188,6.353
		c0-2.189-1.978-6.789-1.978-5.695c0,1.101-3.062,4.817-3.062,4.817C424.861,365.235,422.89,361.731,422.89,361.731z
		 M277.793,438.198c-1.225,0.144-2.881,0.408-4.812,0.938c-5.974-6.21-13.946-19.211-15.558-45.104
		c-0.145-2.352-0.22-4.664-0.25-6.938c9.303,2.269,14.467,5.542,17.257,8.079C272.866,407.974,273.247,422.698,277.793,438.198z"/>
	<path fill="#FFFFFF" d="M439.972,318.803c0,0-2.956,12.1-6.46,18.89c0,0,11.825-5.75,15.438-13.634
		C448.953,324.059,444.791,323.182,439.972,318.803z"/>
	<path fill="#FFFFFF" d="M484.103,322.091c0,0,2.136,2.795,3.286,3.445c0,0-2.958,8.706-9.526,11.335
		C477.863,336.871,482.952,329.48,484.103,322.091z"/>
	<path fill="#FFFFFF" d="M413.908,358.663c0,0-6.24,8.765-10.293,9.971c-4.052,1.198-0.657,7.443,3.723,8.979
		s4.819,0.108,4.819,0.108s1.643,3.505,6.568,2.958c0,0,5.368,3.396,9.529,0.22c0,0,2.949,1.203,5.688-0.549
		c0,0,3.066,1.753,4.928-0.438c1.863-2.188,2.188-9.748,1.429-12.593c0,0-3.613,9.526-5.913,8.869c0,0-0.657-3.723-1.752-5.803
		c0,0-2.737,6.352-4.271,6.566c0,0-0.655-4.488-1.312-6.354c0,0-4.604,4.38-5.479,5.911c0,0,1.204-4.379,0.33-7.886
		c0,0-5.037,4.604-7.774,5.479C414.129,374.104,416.866,367.097,413.908,358.663z"/>
	<path fill="#FFFFFF" d="M442.49,369.614c0,0,1.203,3.066,3.832,4.271c2.629,1.206,4.709,0.877,5.585-0.771
		c0.877-1.644,2.738-10.841,0.877-16.426C452.784,356.693,450.051,365.235,442.49,369.614z"/>
	<path fill="#FFFFFF" d="M503.185,300.521c0,0-4.142,9.86-14.99,14.793c0,0,2.104,2.235,5.854-0.329
		C497.792,312.427,502.791,304.662,503.185,300.521z"/>
	<g>
		<g opacity="0.14">
			<path d="M290.71,158.72c0,0,1.061,10.556-3.167,19.698c-4.222,9.148-32.019,33.432-37.646,48.907
				c-5.628,15.48,8.796,3.87,8.796,3.87s-11.61,30.611-10.203,44.684c0,0,2.112-2.812,5.278-3.518c0,0-1.061,47.148,5.979,58.062
				l10.203-9.854c0,0,1.056,35.539,10.555,50.667l6.334-20.056c0,0,12.666,34.13,26.394,38l4.926,5.628l1.057,5.277l-11.964-3.521
				l-15.479-16.537l-2.814-6.685l-8.093,7.389l-5.277-2.812c0,0-7.389-2.817-9.5-26.395l-6.333-11.261l-12.667,1.057l-17.591-62.979
				l11.962-33.072l0.704-7.036l-5.279-6.334l6.333-22.521l34.135-29.9l8.798-16.188L290.71,158.72z"/>
			<path d="M319.561,100.314c0,0-2.463-3.166-4.228,0c-1.76,3.167-9.146,31.667,1.765,41.167
				c10.901,9.499,21.463,9.499,21.463,9.499s10.555,9.146,25.686,5.272L350.875,145l-10.202-30.259L319.561,100.314z"/>
			<path d="M336.8,283.627c0,0,8.804,15.482,17.601,16.538c8.796,1.06,2.104-9.853,8.796-16.538
				c6.686-6.685,20.054-7.389,29.554-1.758c9.5,5.628-11.963,10.202-11.963,10.202l1.059,28.147l7.036,37.646l6.688,27.093
				l-5.276,1.409c0,0-2.465-10.205-8.797-12.312c-6.333-2.11-42.573-11.259-44.333-43.628l-11.61-14.434l-11.26-19.703l0.703-21.105
				l5.98-13.37l6.688,5.271L336.8,283.627z"/>
			<path d="M371.634,408.885c0,0,25.333,10.556,51.021,7.389l-12.669,5.278l-30.961-1.062l-19.704-6.335L371.634,408.885z"/>
			<path d="M456.781,276.238c0,0,2.814,6.508,3.521,10.203c0.702,3.696,4.751,9.501,4.751,9.501s5.102,16.188,13.188,16.889
				c8.1,0.704-2.984-21.991-2.984-21.991l-8.795-9.317L456.781,276.238z"/>
			<path d="M435.321,196.955c0,0,7.037,8.21-0.702,15.019c0,0-2.349-7.741-10.317-7.741c-7.978,0-16.427,8.913-25.808,2.346
				l6.802,7.271c0,0-0.704,11.021,4.692,15.716l9.147-3.049l-4.69-5.396l0.234-8.443l5.152-2.812l8.688,3.282l6.802,6.562
				l2.813-6.801l4.928-6.569l-1.174-5.395l-5.396-7.979L435.321,196.955z"/>
		</g>
		<g opacity="0.21">
			<path d="M361.665,71.698c0,0-83.504-9.383-146.836,44.099c-63.333,53.48-90.072,92.418-91.95,174.053
				c-1.876,81.629,57.235,169.354,129.48,201.725c72.247,32.37,152.466,21.582,152.466,21.582L262.211,523.94l-91.479-37.53
				l-65.21-84.911L88.63,249.029l46.444-109.308l96.17-54.894l74.592-22.982l57.706,4.688L361.665,71.698z"/>
			<path d="M456.197,181.005c0,0,2.582,13.37-2.346,21.35c-4.926,7.977-9.146,14.068-2.112,21.581
				c7.04,7.506,15.717,35.648,17.123,41.98c1.407,6.334,7.74,12.438,11.259,13.839c3.521,1.408,10.089,14.077,16.656,15.019
				c6.564,0.938,7.036-2.815,7.036-2.815l-0.704,5.396l-11.021,4.223l-15.723-13.136l-11.257-11.729l-8.331-0.469
				c0,0,0.824-3.753-5.042-11.494c-5.859-7.741-15.95-4.926-15.95-4.926s1.646-5.864,7.741-4.222
				c6.104,1.642,3.521-2.815,3.521-2.815l-10.789-8.444l-12.904,0.704l-4.688,4.457c0,0-0.002-12.896,12.899-14.308
				c12.9-1.407,12.9,7.271,12.9,7.271l-2.579-10.791l-7.035-5.155l-0.234-9.616l3.521-3.987L443.77,204l0.702-3.517
				C444.469,200.475,454.083,198.363,456.197,181.005z"/>
			<path d="M401.306,293.596c0,0-5.862,0.469-6.808,9.85c-0.938,9.384,0.234,16.655-0.938,20.646
				c-1.17,3.982,7.509,21.577,8.68,25.33c1.174,3.754-1.643,9.613-1.173,14.31s-0.938,4.458-0.938,4.458l-10.087-9.146l0.235-8.442
				l-9.149-26.037l2.579-26.271l2.354-12.436l13.369,1.877L401.306,293.596z"/>
			<path d="M421.011,305.56c0,0-5.865,8.209-3.762,27.209l-4.221-7.977l-3.988-14.778l2.815-7.739L421.011,305.56z"/>
		</g>
	</g>
</g>
<g>
	<path fill="#BDC2BC" d="M534.992,588.913c-0.739,0-1.34-0.602-1.34-1.341v-16.588c0-0.739,0.601-1.339,1.34-1.339h52.497
		c0.738,0,1.339,0.6,1.339,1.339v16.588c0,0.739-0.601,1.341-1.339,1.341H534.992z"/>
	<g>
		<path d="M558.027,571.51c-2.725,0-4.935,2.21-4.935,4.934c0,2.729,2.21,4.938,4.935,4.938c2.728,0,4.938-2.21,4.938-4.938
			C562.964,573.719,560.755,571.51,558.027,571.51z"/>
		<path fill="#FFFFFF" d="M558.027,580.461c-2.219,0-4.015-1.798-4.015-4.019c0-2.217,1.797-4.014,4.015-4.014
			c2.219,0,4.019,1.798,4.019,4.014C562.046,578.664,560.246,580.461,558.027,580.461z"/>
		<g>
			<path d="M559.402,575.293c0-0.219-0.182-0.398-0.398-0.398h-1.952c-0.221,0-0.401,0.181-0.401,0.398v1.985h0.528v2.338h1.694
				v-2.338h0.527L559.402,575.293L559.402,575.293z"/>
			<path d="M558.695,573.942c0,0.37-0.3,0.668-0.667,0.668c-0.371,0-0.67-0.299-0.67-0.668s0.301-0.67,0.67-0.67
				C558.395,573.272,558.695,573.571,558.695,573.942z"/>
		</g>
	</g>
	<path d="M587.175,569.198h-51.868c-1.157,0-2.102,0.943-2.102,2.102v15.96c0,1.158,0.943,2.1,2.102,2.1h51.868
		c1.158,0,2.102-0.94,2.102-2.1V571.3C589.275,570.141,588.332,569.198,587.175,569.198z M588.644,583.375h-37.865
		c-1.477,2.809-4.417,4.725-7.81,4.725s-6.333-1.916-7.809-4.725h-1.326V571.3c0-0.812,0.658-1.471,1.47-1.471h51.869
		c0.811,0,1.471,0.658,1.471,1.471V583.375L588.644,583.375z"/>
	<g>
		<path fill="#FFFFFF" d="M557.773,584.933c0.1,0.14,0.15,0.302,0.15,0.495c0,0.198-0.052,0.357-0.151,0.479
			c-0.057,0.066-0.14,0.131-0.25,0.187c0.168,0.061,0.294,0.155,0.378,0.289c0.085,0.13,0.127,0.289,0.127,0.477
			c0,0.192-0.049,0.365-0.145,0.519c-0.062,0.104-0.14,0.188-0.23,0.256c-0.104,0.078-0.225,0.137-0.369,0.164
			c-0.141,0.028-0.294,0.043-0.459,0.043h-1.466v-3.256h1.573C557.326,584.594,557.607,584.706,557.773,584.933z M556.009,585.151
			v0.717h0.79c0.143,0,0.257-0.026,0.345-0.08s0.133-0.147,0.133-0.286c0-0.15-0.059-0.248-0.176-0.301
			c-0.1-0.033-0.228-0.05-0.383-0.05H556.009L556.009,585.151z M556.009,586.407v0.869h0.789c0.143,0,0.25-0.02,0.328-0.058
			c0.145-0.071,0.217-0.206,0.217-0.407c0-0.17-0.07-0.285-0.208-0.35c-0.077-0.034-0.188-0.056-0.327-0.056L556.009,586.407
			L556.009,586.407z"/>
		<path fill="#FFFFFF" d="M560.469,584.586h0.771l-1.089,2.034v1.222h-0.68v-1.222l-1.127-2.034h0.8l0.677,1.418L560.469,584.586z"
			/>
	</g>
	<g>
		<g>
			<path fill="#FFFFFF" d="M566.517,584.426h0.776l1.403,2.473v-2.473h0.692v3.545h-0.742l-1.443-2.517v2.517h-0.688
				L566.517,584.426L566.517,584.426z"/>
			<path fill="#FFFFFF" d="M570.425,584.797c0.285-0.292,0.647-0.437,1.09-0.437c0.591,0,1.02,0.195,1.295,0.587
				c0.148,0.221,0.229,0.439,0.242,0.661h-0.741c-0.048-0.17-0.106-0.299-0.183-0.384c-0.132-0.153-0.328-0.229-0.586-0.229
				c-0.265,0-0.473,0.107-0.623,0.324c-0.152,0.219-0.229,0.525-0.229,0.923c0,0.399,0.08,0.696,0.241,0.895
				c0.161,0.197,0.365,0.299,0.614,0.299c0.252,0,0.447-0.086,0.581-0.256c0.072-0.09,0.136-0.229,0.183-0.41h0.736
				c-0.066,0.387-0.226,0.699-0.486,0.943c-0.262,0.241-0.594,0.36-1.002,0.36c-0.505,0-0.901-0.163-1.19-0.489
				c-0.288-0.328-0.434-0.777-0.434-1.353C569.93,585.607,570.095,585.133,570.425,584.797z"/>
		</g>
	</g>
	<g>
		<path fill="#FFFFFF" d="M578.517,586.944c0.022,0.173,0.073,0.303,0.145,0.389c0.132,0.154,0.354,0.233,0.673,0.233
			c0.19,0,0.347-0.021,0.465-0.062c0.225-0.078,0.338-0.226,0.338-0.438c0-0.125-0.055-0.223-0.166-0.291
			c-0.113-0.066-0.285-0.126-0.525-0.178l-0.411-0.088c-0.401-0.093-0.679-0.188-0.829-0.294c-0.254-0.173-0.383-0.448-0.383-0.819
			c0-0.339,0.126-0.619,0.376-0.846c0.249-0.224,0.617-0.336,1.102-0.336c0.401,0,0.748,0.104,1.033,0.315
			c0.284,0.213,0.436,0.521,0.45,0.922h-0.762c-0.014-0.227-0.117-0.387-0.306-0.484c-0.126-0.065-0.282-0.096-0.473-0.096
			c-0.209,0-0.375,0.041-0.499,0.122c-0.126,0.083-0.188,0.196-0.188,0.346c0,0.135,0.062,0.236,0.186,0.303
			c0.079,0.043,0.246,0.096,0.502,0.155l0.665,0.156c0.292,0.068,0.513,0.162,0.655,0.276c0.227,0.179,0.339,0.435,0.339,0.771
			c0,0.351-0.134,0.637-0.4,0.863c-0.269,0.229-0.646,0.344-1.134,0.344c-0.5,0-0.891-0.112-1.176-0.339
			c-0.287-0.224-0.432-0.536-0.432-0.929L578.517,586.944L578.517,586.944z"/>
		<path fill="#FFFFFF" d="M582.542,584.325h0.896l1.34,3.791h-0.858l-0.249-0.778h-1.396l-0.255,0.778h-0.828L582.542,584.325z
			 M582.486,586.681h0.972l-0.479-1.49L582.486,586.681z"/>
	</g>
	<g>
		<circle cx="542.95" cy="579.28" r="7.771"/>
		<circle fill="#FFFFFF" cx="542.95" cy="579.278" r="6.322"/>
		<g>
			<path d="M542.597,578.348l-1.188,0.215c-0.041-0.237-0.131-0.416-0.273-0.537c-0.143-0.119-0.325-0.178-0.55-0.178
				c-0.302,0-0.537,0.104-0.72,0.31c-0.18,0.204-0.268,0.555-0.268,1.038c0,0.539,0.09,0.921,0.271,1.146
				c0.183,0.223,0.426,0.332,0.73,0.332c0.229,0,0.417-0.064,0.562-0.195c0.146-0.131,0.249-0.354,0.311-0.67l1.182,0.199
				c-0.123,0.545-0.354,0.954-0.707,1.229c-0.348,0.276-0.813,0.416-1.399,0.416c-0.668,0-1.197-0.21-1.594-0.629
				c-0.396-0.42-0.592-1.004-0.592-1.746c0-0.75,0.198-1.337,0.594-1.754c0.397-0.42,0.936-0.627,1.613-0.627
				c0.555,0,0.995,0.118,1.322,0.355C542.219,577.497,542.453,577.86,542.597,578.348z"/>
			<path d="M547.477,578.348l-1.188,0.215c-0.039-0.237-0.131-0.416-0.272-0.537c-0.144-0.119-0.325-0.178-0.551-0.178
				c-0.301,0-0.539,0.104-0.72,0.31c-0.178,0.204-0.268,0.555-0.268,1.038c0,0.539,0.09,0.921,0.271,1.146
				c0.182,0.223,0.426,0.332,0.729,0.332c0.229,0,0.417-0.064,0.562-0.195c0.146-0.131,0.25-0.354,0.311-0.67l1.183,0.199
				c-0.123,0.545-0.356,0.954-0.708,1.229c-0.349,0.276-0.814,0.416-1.4,0.416c-0.668,0-1.197-0.21-1.593-0.629
				c-0.396-0.42-0.592-1.004-0.592-1.746c0-0.75,0.196-1.337,0.595-1.754c0.396-0.42,0.934-0.627,1.612-0.627
				c0.554,0,0.994,0.118,1.322,0.355C547.1,577.497,547.337,577.86,547.477,578.348z"/>
		</g>
	</g>
	<g>
		<path d="M569.93,571.719c-2.61,0-4.727,2.115-4.727,4.726c0,2.612,2.115,4.729,4.727,4.729s4.728-2.113,4.728-4.729
			C574.658,573.834,572.546,571.719,569.93,571.719z"/>
		<circle fill="#FFFFFF" cx="569.93" cy="576.447" r="3.846"/>
		
			<rect x="569.488" y="571.955" transform="matrix(0.4225 -0.9063 0.9063 0.4225 -193.3242 849.4399)" width="0.924" height="8.958"/>
		<g>
			<path d="M569.58,579.151v-0.637c-0.444-0.013-0.877-0.14-1.129-0.277l0.197-0.776c0.279,0.153,0.672,0.292,1.101,0.292
				c0.382,0,0.646-0.151,0.646-0.409c0-0.252-0.223-0.41-0.709-0.578c-0.711-0.238-1.196-0.568-1.196-1.215
				c0-0.59,0.411-1.047,1.122-1.181v-0.631h0.65v0.584c0.443,0.015,0.742,0.115,0.968,0.222l-0.199,0.748
				c-0.167-0.079-0.478-0.232-0.954-0.232c-0.434,0-0.571,0.193-0.571,0.381c0,0.212,0.231,0.356,0.798,0.564
				c0.796,0.276,1.107,0.643,1.107,1.246c0,0.591-0.411,1.09-1.182,1.221v0.684L569.58,579.151L569.58,579.151z"/>
		</g>
	</g>
	<g>
		<path d="M581.185,571.784c-2.571,0-4.66,2.086-4.66,4.658c0,2.576,2.089,4.665,4.66,4.665c2.576,0,4.665-2.089,4.665-4.665
			C585.852,573.87,583.761,571.784,581.185,571.784z"/>
		<path fill="#FFFFFF" d="M581.185,580.238c-2.092,0-3.789-1.698-3.789-3.794c0-2.091,1.695-3.79,3.789-3.79
			c2.096,0,3.793,1.696,3.793,3.79C584.979,578.538,583.281,580.238,581.185,580.238z"/>
		<path d="M581.185,573.885c-1.016,0-1.874,0.733-2.182,1.746h-0.294l0.933,1.016l0.93-1.016h-0.348
			c0.215-0.37,0.563-0.616,0.96-0.616c0.65,0,1.179,0.646,1.179,1.443c0,0.793-0.526,1.44-1.179,1.44
			c-0.432,0-0.81-0.289-1.016-0.72h-1.196c0.278,1.068,1.167,1.854,2.214,1.854c1.273,0,2.311-1.155,2.311-2.576
			C583.496,575.034,582.464,573.885,581.185,573.885z"/>
	</g>
</g>
<g>
	<path d="M11.392,586.197c-0.652,0-1.248-0.138-1.786-0.41c-0.539-0.271-1.002-0.631-1.39-1.07c-0.388-0.441-0.688-0.949-0.9-1.521
		C7.106,582.619,7,582.032,7,581.432c0-0.626,0.114-1.226,0.338-1.797c0.226-0.574,0.533-1.08,0.927-1.521
		c0.393-0.44,0.857-0.792,1.396-1.053c0.538-0.26,1.119-0.39,1.746-0.39c0.653,0,1.248,0.138,1.786,0.417
		c0.538,0.275,0.999,0.641,1.382,1.09s0.682,0.959,0.893,1.528c0.213,0.567,0.318,1.144,0.318,1.726c0,0.636-0.113,1.24-0.338,1.812
		c-0.225,0.574-0.534,1.079-0.926,1.517c-0.394,0.437-0.856,0.785-1.391,1.045C12.598,586.066,12.018,586.197,11.392,586.197z
		 M7.675,581.432c0,0.539,0.091,1.057,0.271,1.555s0.437,0.939,0.768,1.324c0.33,0.383,0.724,0.69,1.178,0.92
		c0.455,0.229,0.955,0.344,1.502,0.344c0.563,0,1.072-0.117,1.527-0.355c0.454-0.239,0.846-0.555,1.17-0.946
		c0.327-0.392,0.578-0.834,0.755-1.328s0.265-0.997,0.265-1.51c0-0.538-0.092-1.057-0.277-1.555
		c-0.185-0.498-0.442-0.939-0.773-1.323s-0.723-0.691-1.179-0.919c-0.454-0.229-0.949-0.347-1.486-0.347
		c-0.565,0-1.076,0.119-1.536,0.357c-0.458,0.238-0.85,0.554-1.17,0.945c-0.322,0.394-0.571,0.836-0.748,1.33
		C7.762,580.422,7.675,580.923,7.675,581.432z"/>
	<path d="M23.14,578.299c-0.608-0.681-1.469-1.021-2.58-1.021c-0.918,0-1.587,0.175-2.006,0.523
		c-0.417,0.349-0.628,0.817-0.628,1.407c0,0.302,0.054,0.554,0.159,0.755c0.106,0.202,0.271,0.373,0.496,0.51
		c0.226,0.137,0.513,0.256,0.86,0.355c0.35,0.103,0.761,0.2,1.237,0.299c0.512,0.106,0.97,0.223,1.377,0.352
		c0.404,0.127,0.75,0.289,1.038,0.483c0.287,0.193,0.508,0.433,0.662,0.715c0.153,0.281,0.231,0.632,0.231,1.044
		c0,0.414-0.082,0.775-0.245,1.086c-0.163,0.31-0.392,0.565-0.688,0.773c-0.297,0.208-0.648,0.364-1.059,0.471
		c-0.411,0.104-0.867,0.157-1.37,0.157c-1.463,0-2.704-0.467-3.717-1.401l0.356-0.542c0.396,0.415,0.882,0.743,1.457,0.984
		c0.573,0.242,1.217,0.363,1.931,0.363c0.821,0,1.461-0.147,1.925-0.449c0.462-0.301,0.695-0.754,0.695-1.362
		c0-0.309-0.06-0.57-0.178-0.787s-0.303-0.404-0.551-0.562c-0.247-0.158-0.554-0.295-0.919-0.409
		c-0.364-0.115-0.796-0.225-1.29-0.33c-0.503-0.105-0.945-0.219-1.329-0.338c-0.384-0.117-0.708-0.269-0.972-0.449
		c-0.265-0.181-0.463-0.398-0.596-0.654s-0.199-0.578-0.199-0.967c0-0.423,0.082-0.797,0.246-1.124
		c0.163-0.326,0.391-0.603,0.682-0.826c0.291-0.226,0.64-0.395,1.044-0.511c0.406-0.114,0.854-0.17,1.351-0.17
		c0.607,0,1.15,0.09,1.627,0.27c0.477,0.183,0.909,0.459,1.296,0.828L23.14,578.299z"/>
	<path d="M25.734,586.131v-9.395h3.863c0.396,0,0.763,0.085,1.098,0.251c0.335,0.168,0.624,0.392,0.866,0.669
		s0.432,0.591,0.568,0.938c0.138,0.35,0.205,0.698,0.205,1.053c0,0.381-0.063,0.746-0.191,1.098
		c-0.128,0.354-0.31,0.666-0.542,0.939c-0.232,0.272-0.512,0.492-0.833,0.654c-0.323,0.164-0.683,0.245-1.078,0.245h-3.281v3.546
		L25.734,586.131L25.734,586.131z M26.408,581.963h3.241c0.309,0,0.586-0.064,0.833-0.191s0.456-0.3,0.629-0.516
		c0.171-0.218,0.303-0.463,0.396-0.741c0.092-0.276,0.139-0.565,0.139-0.866c0-0.309-0.056-0.602-0.165-0.879
		c-0.11-0.279-0.26-0.523-0.45-0.734c-0.189-0.213-0.41-0.381-0.661-0.504s-0.519-0.186-0.801-0.186h-3.162L26.408,581.963
		L26.408,581.963z"/>
	<path d="M33.963,586.131v-9.395h3.917c0.397,0,0.764,0.085,1.098,0.251c0.335,0.168,0.622,0.392,0.859,0.669
		c0.238,0.277,0.426,0.591,0.563,0.938c0.137,0.35,0.204,0.698,0.204,1.053c0,0.344-0.054,0.676-0.159,0.998
		c-0.105,0.324-0.254,0.611-0.45,0.867c-0.194,0.256-0.427,0.467-0.7,0.635c-0.273,0.169-0.572,0.277-0.899,0.331l2.341,3.651
		h-0.781l-2.274-3.547h-3.043v3.547L33.963,586.131L33.963,586.131z M34.636,581.963h3.295c0.299,0,0.571-0.064,0.819-0.197
		c0.247-0.132,0.458-0.307,0.636-0.522c0.176-0.216,0.311-0.462,0.402-0.741c0.093-0.277,0.141-0.562,0.141-0.853
		c0-0.3-0.056-0.589-0.166-0.866c-0.11-0.276-0.261-0.522-0.45-0.733c-0.189-0.212-0.409-0.382-0.661-0.511
		c-0.252-0.127-0.523-0.192-0.814-0.192h-3.201V581.963z"/>
	<path d="M48.899,585.521v0.608h-6.258v-9.395h6.139v0.61h-5.464v3.688h4.775v0.582h-4.775v3.903h5.583V585.521z"/>
	<path d="M50.421,576.736l3.281,5.199l3.308-5.199h0.742l-3.706,5.849v3.546h-0.674v-3.572l-3.69-5.821L50.421,576.736
		L50.421,576.736z"/>
	<path d="M59.126,586.131v-9.395h3.122c0.741,0,1.392,0.124,1.951,0.371c0.561,0.248,1.025,0.583,1.396,1.007
		c0.371,0.423,0.647,0.919,0.833,1.487c0.185,0.567,0.277,1.175,0.277,1.819c0,0.715-0.104,1.36-0.311,1.938
		s-0.505,1.07-0.894,1.481c-0.388,0.409-0.857,0.729-1.41,0.953c-0.552,0.224-1.167,0.337-1.845,0.337L59.126,586.131
		L59.126,586.131z M66.031,581.421c0-0.592-0.083-1.137-0.251-1.635c-0.167-0.498-0.412-0.93-0.733-1.291
		c-0.322-0.359-0.718-0.644-1.185-0.848c-0.466-0.202-1.005-0.303-1.614-0.303h-2.447v8.177h2.447c0.617,0,1.162-0.104,1.633-0.312
		c0.473-0.206,0.866-0.495,1.185-0.865c0.316-0.37,0.559-0.805,0.722-1.303S66.031,582.003,66.031,581.421z"/>
	<path d="M67.288,586.131l3.996-9.395h0.555l3.997,9.395h-0.728l-1.311-3.097h-4.484l-1.311,3.097H67.288z M71.562,577.557
		l-2.09,4.922h4.141L71.562,577.557z"/>
	<path d="M80.148,576.802h0.661l1.401,3.413l1.403-3.413h0.661l-1.654,3.956l1.971,4.577l3.6-8.601h0.742l-4.023,9.395h-0.62
		l-2.063-4.829l-2.077,4.829h-0.622l-4.008-9.395h0.728l3.612,8.601l1.945-4.577L80.148,576.802z"/>
	<path d="M91.05,578.008v8.123h-0.675v-9.394h0.518l6.588,8.27v-8.255h0.675v9.379h-0.622L91.05,578.008z"/>
	<path d="M100.297,586.131v-1.125h0.583v1.125H100.297z"/>
	<path d="M102.401,581.368c0-0.563,0.098-1.127,0.298-1.688c0.197-0.561,0.486-1.062,0.866-1.502c0.379-0.44,0.844-0.8,1.395-1.077
		c0.552-0.277,1.181-0.418,1.887-0.418c0.838,0,1.552,0.192,2.144,0.576c0.591,0.383,1.027,0.877,1.309,1.475l-0.556,0.318
		c-0.159-0.327-0.351-0.601-0.576-0.82c-0.224-0.221-0.466-0.399-0.727-0.537c-0.261-0.137-0.533-0.234-0.814-0.298
		c-0.281-0.062-0.562-0.092-0.833-0.092c-0.6,0-1.129,0.121-1.589,0.364c-0.458,0.241-0.847,0.558-1.164,0.944
		c-0.316,0.39-0.557,0.826-0.722,1.316c-0.164,0.489-0.245,0.981-0.245,1.475c0,0.558,0.097,1.086,0.291,1.59
		c0.195,0.502,0.459,0.945,0.795,1.328c0.334,0.383,0.731,0.691,1.19,0.919c0.458,0.229,0.951,0.346,1.48,0.346
		c0.282,0,0.571-0.036,0.866-0.106c0.296-0.069,0.583-0.18,0.86-0.329c0.277-0.15,0.536-0.343,0.774-0.576
		c0.238-0.232,0.437-0.51,0.594-0.827l0.569,0.278c-0.159,0.352-0.372,0.665-0.642,0.939c-0.271,0.271-0.57,0.502-0.906,0.688
		c-0.335,0.186-0.689,0.324-1.065,0.416c-0.375,0.092-0.742,0.139-1.104,0.139c-0.644,0-1.233-0.141-1.768-0.423
		c-0.532-0.281-0.994-0.649-1.382-1.104c-0.387-0.455-0.689-0.972-0.905-1.549C102.509,582.555,102.401,581.969,102.401,581.368z"/>
	<path d="M115.882,586.197c-0.652,0-1.247-0.138-1.785-0.41c-0.538-0.271-1.001-0.631-1.39-1.07
		c-0.388-0.441-0.688-0.949-0.898-1.521c-0.212-0.572-0.317-1.16-0.317-1.76c0-0.627,0.112-1.225,0.337-1.798
		c0.224-0.573,0.534-1.081,0.926-1.521c0.394-0.44,0.857-0.792,1.396-1.052c0.539-0.261,1.121-0.391,1.747-0.391
		c0.65,0,1.247,0.139,1.786,0.416c0.538,0.276,0.999,0.643,1.381,1.091c0.384,0.45,0.682,0.959,0.894,1.529
		c0.211,0.566,0.317,1.144,0.317,1.726c0,0.635-0.113,1.239-0.337,1.812c-0.226,0.572-0.534,1.077-0.928,1.514
		c-0.393,0.438-0.854,0.785-1.389,1.046C117.087,586.066,116.509,586.197,115.882,586.197z M112.164,581.432
		c0,0.539,0.09,1.057,0.271,1.555c0.181,0.498,0.436,0.939,0.767,1.324c0.331,0.383,0.724,0.69,1.178,0.92s0.954,0.344,1.501,0.344
		c0.564,0,1.073-0.117,1.527-0.355c0.456-0.239,0.845-0.555,1.171-0.946s0.578-0.834,0.754-1.328
		c0.175-0.494,0.266-0.997,0.266-1.51c0-0.538-0.094-1.057-0.278-1.555c-0.186-0.498-0.443-0.939-0.774-1.323
		s-0.724-0.691-1.178-0.919c-0.455-0.229-0.95-0.347-1.488-0.347c-0.563,0-1.075,0.119-1.534,0.357s-0.851,0.554-1.172,0.945
		c-0.321,0.394-0.57,0.836-0.748,1.33C112.252,580.422,112.164,580.923,112.164,581.432z"/>
	<path d="M130.659,586.131v-8.123l-3.704,6.338h-0.423l-3.705-6.338v8.123h-0.675v-9.394h0.675l3.916,6.722l3.916-6.722h0.675v9.394
		H130.659L130.659,586.131z"/>
</g>
</svg>
