<?xml version="1.0" encoding="utf-8"?>
<!-- Generator: Adobe Illustrator 16.0.0, SVG Export Plug-In . SVG Version: 6.00 Build 0)  -->
<!DOCTYPE svg PUBLIC "-//W3C//DTD SVG 1.1//EN" "http://www.w3.org/Graphics/SVG/1.1/DTD/svg11.dtd">
<svg version="1.1" id="Layer_1" xmlns="http://www.w3.org/2000/svg" xmlns:xlink="http://www.w3.org/1999/xlink" x="0px" y="0px"
	 width="595.275px" height="595.279px" viewBox="0 0 595.275 595.279" enable-background="new 0 0 595.275 595.279"
	 xml:space="preserve">
<metadata><?xpacket begin="﻿" id="W5M0MpCehiHzreSzNTczkc9d"?>
<x:xmpmeta xmlns:x="adobe:ns:meta/" x:xmptk="Adobe XMP Core 5.3-c011 66.145661, 2012/02/06-14:56:27        ">
   <rdf:RDF xmlns:rdf="http://www.w3.org/1999/02/22-rdf-syntax-ns#">
      <rdf:Description rdf:about=""
            xmlns:dc="http://purl.org/dc/elements/1.1/">
         <dc:format>image/svg+xml</dc:format>
         <dc:title>
            <rdf:Alt>
               <rdf:li xml:lang="x-default">NFL Logo Redesigns</rdf:li>
               <rdf:li xml:lang="en_us">NFL Logo Redesigns</rdf:li>
            </rdf:Alt>
         </dc:title>
         <dc:creator>
            <rdf:Seq>
               <rdf:li>Max O'Brien/Osprey Dawn</rdf:li>
            </rdf:Seq>
         </dc:creator>
      </rdf:Description>
      <rdf:Description rdf:about=""
            xmlns:xmp="http://ns.adobe.com/xap/1.0/"
            xmlns:xmpGImg="http://ns.adobe.com/xap/1.0/g/img/">
         <xmp:CreatorTool>Adobe Illustrator CS6 (Macintosh)</xmp:CreatorTool>
         <xmp:ModifyDate>2013-10-07T00:05:32+13:00</xmp:ModifyDate>
         <xmp:MetadataDate>2013-10-07T00:05:32+13:00</xmp:MetadataDate>
         <xmp:CreateDate>2013-10-07T00:05:31+13:00</xmp:CreateDate>
         <xmp:Thumbnails>
            <rdf:Alt>
               <rdf:li rdf:parseType="Resource">
                  <xmpGImg:width>256</xmpGImg:width>
                  <xmpGImg:height>224</xmpGImg:height>
                  <xmpGImg:format>JPEG</xmpGImg:format>
                  <xmpGImg:image>/9j/4AAQSkZJRgABAgEASABIAAD/7QAsUGhvdG9zaG9wIDMuMAA4QklNA+0AAAAAABAASAAAAAEA&#xA;AQBIAAAAAQAB/+4ADkFkb2JlAGTAAAAAAf/bAIQABgQEBAUEBgUFBgkGBQYJCwgGBggLDAoKCwoK&#xA;DBAMDAwMDAwQDA4PEA8ODBMTFBQTExwbGxscHx8fHx8fHx8fHwEHBwcNDA0YEBAYGhURFRofHx8f&#xA;Hx8fHx8fHx8fHx8fHx8fHx8fHx8fHx8fHx8fHx8fHx8fHx8fHx8fHx8fHx8f/8AAEQgA4AEAAwER&#xA;AAIRAQMRAf/EAaIAAAAHAQEBAQEAAAAAAAAAAAQFAwIGAQAHCAkKCwEAAgIDAQEBAQEAAAAAAAAA&#xA;AQACAwQFBgcICQoLEAACAQMDAgQCBgcDBAIGAnMBAgMRBAAFIRIxQVEGE2EicYEUMpGhBxWxQiPB&#xA;UtHhMxZi8CRygvElQzRTkqKyY3PCNUQnk6OzNhdUZHTD0uIIJoMJChgZhJRFRqS0VtNVKBry4/PE&#xA;1OT0ZXWFlaW1xdXl9WZ2hpamtsbW5vY3R1dnd4eXp7fH1+f3OEhYaHiImKi4yNjo+Ck5SVlpeYmZ&#xA;qbnJ2en5KjpKWmp6ipqqusra6voRAAICAQIDBQUEBQYECAMDbQEAAhEDBCESMUEFURNhIgZxgZEy&#xA;obHwFMHR4SNCFVJicvEzJDRDghaSUyWiY7LCB3PSNeJEgxdUkwgJChgZJjZFGidkdFU38qOzwygp&#xA;0+PzhJSktMTU5PRldYWVpbXF1eX1RlZmdoaWprbG1ub2R1dnd4eXp7fH1+f3OEhYaHiImKi4yNjo&#xA;+DlJWWl5iZmpucnZ6fkqOkpaanqKmqq6ytrq+v/aAAwDAQACEQMRAD8A9U4q7FXYq7FXYq7FXYq7&#xA;FXYq7FXYq7FWO61+YvkTRSyanr1lbyr9qEzI0op/xWhZ/wAMiZgdWcccjyDDr/8A5yW/Km1JEN7c&#xA;3tO9vbSAHp09YRZWc8WwaaaVv/zlf+XKuVFhqzgdGWG3ofvuAcH5iLL8rLybi/5yt/Ld2Iay1WIU&#xA;ryeCAj5fDOxx/MRX8rLyTWy/5yU/Ke4I9XUJ7Sv+/rWY02/4qWXJDPFidNNkenfm5+WeoEC28y2A&#xA;Y/ZWaYW5JJpQCb0zXJDJE9WBxSHRlFpe2d5CJrSeO5hPSWJ1dT/slJGTBYEUrYodirsVdirsVdir&#xA;sVdirsVdirsVdirsVdirsVdirsVdirsVdirsVdirsVeefmz+cei+QrEQoFvtfuFJtdPDbIKbSz03&#xA;VPAdW7dyKsmQR97diwmfufMOsfmB+aH5gaounte3V3Jdtxh0ix5Rwn29KPZgo/aetB1OYpnKTnDH&#xA;GAt6H5Q/5xS1q7jjufNOpLpqNQmxtQJp6dw0pPpof9XnlkdOerTPVDo9Q0n/AJxw/KnT0X1dOl1G&#xA;Rekt3cSk/SsRijP/AAOXDBFoOpmWR235Uflpb09PyxprcRQepbRy9fH1A1cl4ce5gcsu9q8/K/8A&#xA;LBkaS48taVEgWjOttDCAPGqBafPAYRHOkxnMmgSwrWvy3/5xzq31iOzt5d6m1vJqj/YRyMv/AAuY&#xA;s8+nHOQ+bn4tJrJcoS+I/WwXV/yo/IaUt+j/ADPfWUu9AYnuYhXcUHoKx/4PMc6vTfzvsP6nMj2Z&#xA;rf8AU/tj+tiF3+WFvp05uPLPna2mlj3VnivdPmp/kkJKtf8AZjIfm8PSf2H9TZ/Jmp64/tif0roP&#xA;zF/O3ymwB1iW8t1NKSyRaijKPFiZZFH0rlsNYOkh83HydmzHOEh8CzPy5/zlrqMZWPzHokU67Brm&#xA;wcxMB4+lKXDH/ZjMqOo7w4EtJ3F695R/Of8ALvzSUisNUS3vXoBYXv8Ao81T0VeR4Of9Rmy6OWJc&#xA;eeGUejN8sanYq7FXYq7FXYq7FXYq7FXYq7FXYq7FXYq7FXYq7FXYqtkkjjjaSRgkaAs7sQFCgVJJ&#xA;PQDFXiP5p/8AOSWj6RBLpnk6WPUtWYFH1EfHa256VQnaZ/CnweJP2cx8mcDk5WLTE7y5PnbTtG80&#xA;ec/NFvaoZL7WtYk5maZizEH7U0jbkIqgmvgNu2YkTxmg584+HEE7B9jfln+Vvl/yHpIt7JBcanMo&#xA;+v6m6gSSt1Kr14Rg9FH01O+Z+PGIury5jM+TM8sanYq82896t+a8TyJpOnrDp4JC3FnS5nYeJBHJ&#xA;a+0e3jmn1uXVD6I+ny3P4+D0nZeDs8geJK590vSPx8fg8lu7TzlqtzS7g1C9uamiypNIwPgAQaZo&#xA;pRzTO4kT8XrceTTYo+kwiPKgll7Y3VjdSWl3GYbmI0lialVNK0NO+UzgYmjzcnHkjOIlE2CoZFsd&#xA;irsVQd7o+mXtfrNujsf2wOL/APBChy3HnnDkXGzaPFl+qIP3sd1DyN1ewmr/AMVS/wAGH9M2GLtL&#xA;+ePk6XUdh9cZ+B/WnnlD85fzI8izJZzTNfaau36Pvy0iBR/vmWvNPbiePsc22HVWLibDzup0Jiam&#xA;OEvo38uvzu8m+dRHaxS/o3WmG+mXLAMxpU+jJssv0Ub/ACczoZRJ1mTBKPuehZY0uxV2KuxV2Kux&#xA;V2KuxV2KuxV2KuxV2KuxV2KuJABJNANyTir43/Oj85NU846xcadptw9v5XtmMcFuhKi5KE/v5aUL&#xA;Bv2VOwFNq1zCy5OI+TssOERFnmw/ypoEV+7XVyK28TcVTs7Dff2GarW6ow9MeZeg7K0Aynjn9I+0&#xA;vpT/AJx08mxW+k3fnK6iH17W3aOxJG8djE3BQPD1GSp8QFza6HDwYw8/2pqfFzE9L/s+x6F5t896&#xA;D5Yh/wBNlMl24rDZRUMre57KvuforktVrceEb8+5Gg7Ly6k+kVHvPJ5Tqf54+ariZjYw29lB+wvE&#xA;yuPmzGhP+xGaPJ2xlJ9NAPVYfZrBEesykfl+PmhYfzo88R05y28tP54VFf8AgCuVjtbOOo+TdL2c&#xA;0p6SHxTO3/PrzAqUuNOtZH/mQyIPuLPl8e2snWIcWXsvhvaUh8kNqn54+abqAxWcFvYFhQzKGkkH&#xA;+qXPEf8AA5DJ2xlkKAEWzB7NYIm5GUvsH4+Lz2WWWaV5pXMksjF5JGJLMzGpJJ6knNSSSbL0MYgC&#xA;hyCzFk7FXYq7FVW2tZ7oyrbIZpIV9SWKOjSLH05lB8XD/KpTLRhmY8QFhx5arHGfAZVLz2+Xehbi&#xA;2t7mIxTxrJG3VWFchCZibBpsyYozFSFhiWr+T57dvrWlszBDyENf3ikb1Q9/15ttP2gDtPbzec1v&#xA;Yxj6sW47uv7Xrn5Pf85Fy27ReX/PE7PFUR2utybuh6BLruR/xZ1H7Veo3eLP0Ly2fTdR8n0jFLFN&#xA;EksTrJFIoeORCGVlYVBBGxBGZTgrsVdirsVdirsVdirsVdirsVdirsVdirsVUNQtjdWFzbK3EzxP&#xA;GGBpQupWtR064CkF+dua13DPfKCsdAouzF5KV8c0euP735PXdkD/AAfbvL6X82eaP8H+Q9Gt/L6h&#xA;45beK1srqnJI4oolAbwLkfZr75u9brDixAw/i6vLdldmjPqJDJtwcx37/d3vDLq6ubu4kubmVpri&#xA;UlpJZCWZie5Jzl5SMjZ3L3sIRgBGIoBSwM3Yqp/Wbflx9VOX8vIVyXAe5h4kbqwqZFm7FXYq7FXY&#xA;q7FUo8wre20cOsabNJa6lprerDcwsUkUftUYb7dcz+z8xhOu90/bOlGTFxVvH7ur0LyH5g8sfmfb&#xA;HS9W9LSPPMakw3kKhIb4KKlmjFF9Sn2gKH9obVUbfNosecfzZ9/e83pe1M2lP8/F3Hp7ikuvaDqe&#xA;halJp2oxelPHuCN0dT0dG7qc57Nhlilwy5vZ6XVQzwE4Gx+ObE9e8s2+oq00NIrwft/sv7N/XL9N&#xA;rDj2O8XD1/Zkc3qjtP7/AHq/5ffnN5z/AC/n/Rsg+vaQjHnpVyxHCpqTBJRjHX6VPWnfOhw59rG4&#xA;eM1GkqREhUg+p/IH5l+VvPGnm50eci5iA+t6fNRZ4Sf5lqaqezLUfTtmbCYlydbkxmJ3ZVk2t2Ku&#xA;xV2KuxV2KuxV2KuxV2KvNvzM/O/RPJl7Ho9raSa15il4n9HQHiIw4+D1HCueTfsoqk+NNq1TyiO3&#xA;VvxYDLfkGKR/mv8An3dqJ7T8vxHbt9lZ451fx/beI/8AC5DxJ9zPwsf85MYvzd/Nq1AOp/lpeSqa&#xA;nlaSOxAH+QIpq/fh8SXcjwYfznyzqXl/XtLJGp6bdWJBofrMEkO9aU+NVzEIIc8SB5IrTvNeoWFo&#xA;lrDFCY0rQsrFjyJO9GHjmFl0UJy4iS7TT9q5MUBCIjQ9/wCtlvlvWdU1Czcz34eCu9hFVUVv5nB7&#xA;7fLNdq4DH6QDTvOzshzfvJGJPcBy9/X9CK/S2mieSB7hI5ojR45DwPj+1Sv0Zj+BOrrYud+bxcRi&#xA;ZAEd+ySa55whgBh05llm/am6ovy/mP4ZmabQGW89g6rXdsRh6cW8u/p+1izapcXFykmoO91CGBki&#xA;LlQR4CnT6M2fgiMah6S6E6qU5A5CZDutn2m2miy2sc9nbxelIKhuA5e4JNTUZos08gkRIm3rtNiw&#xA;SgJQjGj5JiAAKDplDmOxS7FXYq7FVG6u4LWL1Z2KRg0LUJA+dAaD3OShAyNBqy5Y4xctg1ztb22c&#xA;RyLLDIpRmQhhQih6YalCW4oheKGWBo3EvL7e4uLO6juLaVori3cSQzRkhldDVWUjuCNs6cF8/I6P&#xA;qryjr9l+cPkCSC79OPzfo4Cu4AXk5HwSin+65uNGHZu32clqcA1GOv4xy/Hmuh1ktHmB/wAnLmPx&#xA;1Dy+aGWCaSGZSksTFJEbYqymhB+RzlCCDRfQ4yEgCORSfXtBg1SDsl0g/dS/8at7ZkabUnGf6Lg6&#xA;/QRzx7pjkWF6Zqmu+WdajvdPuJLDVLN/glQ7jxBG4ZWHUHYjOgx5LAlEvGZsJiTCY3D65/J7869L&#xA;882wsL0JZeZYU5TWo2jnVeskFST/AKy9R7jfM/Hl4ve6vNhMPc9Ny1odirsVdirsVdirsVdiqU+b&#xA;PMFv5d8tanrlwOUen28k/DpzZR8Cf7NqL9OCRoWyhGzT52/LK6utE/Rfn/V4xf695z1xLC2Ei8pP&#xA;qkjNHcyxVPwsZWWlOy06Mcw4SognnJz5w4okD6Yj7en6U28zfmN50fV762TVpI7eGeWKIW4WIcEc&#xA;gfEgDHYeOc/qNfmMyOLa+j2ei7I0wxxkYAkgHffp5sffzT5nkblJq967dKtcyk/i2Yp1OQ/xS+Zd&#xA;gNDgHKEP9KF8fm/zXGvBdYveBBBQ3ErKQetVLEYRqso/il8yxl2fpzzxw/0oY9qVvp+vRCe6giMj&#xA;1Jniijhl5dDzaNVLEdPirlp1maJolxh2ZppxsRr4n+xK5PJOr6BYQ+abCT65oqTfVtT4j95bliKe&#xA;qv8AIwI4v05bGm1diK1GEnr9xdIb0WqAv0n7Y9fkmN9o2mXx5XUCu9KcxVWp81oc1GPUTh9Jemz6&#xA;PFl3nGyx/VPJC8DJp0h5Df0JD1/1W/rmfh7R6T+bp9V2IKvEfgf1obyN5QsvMXmE6NqWrJoRCki4&#xA;uIjIvJSAUPxIFO9asQPfNmMkNiTQPV0Bw5LIjEmQ6dX0Lo//ADjl5LsLOJh5nvi/255YZLVIXFOq&#xA;o8coX58jl2TSYZj1btGHtDU4jULHlSN17yb+Ur231PTtZgsNSjXis5uPVjdwKfvqllFe/HjTw7Zr&#xA;8+l0hFRkIy99j4u50naHaAPFOEpw/q0fhyeU3lrLaXUttNT1ImKsVIZTTurDYg9QR1zRSiYmi9Zj&#xA;mJxEhyKjgZuxV2KtMqspVgCpFCDuCDiCgi9iwnzJoM2nF7uwLJZybTRqSOBPy/ZObnSakZPTP6nl&#xA;+0tAcNzx3wHn5fsY1mxdGyz8r/O8/kzznYayrN9UDehqMS/t2shAkFO5XZ1/ygMnjlwm2vLDijT3&#xA;L85NAgtdag1yyo1jrKerzTdTKAOTAjs6lW9981Ha+n4cnGOUvven9nNZ4mI4z9UPu/Z+p57mpeiS&#xA;bzFof1+EXFv8N9BvE38wG/E/wzL0mp4DR+kus7R0Pix4o/3keX6kiltrm0itfMuiyPZXduweQREo&#xA;0MyGhZPD4u2bLBqDGfBI+4uj1eiE8QzQG38Ue49X1d+Sn5qR+fPL7i7Cxa9p3GPUYloFkDD4J0Hg&#xA;9DUdj7Uzd4snEPN5bNi4D5PRctaXYq7FXYq7FXYq7FXjn/OU2ttZfl3DpyNR9VvYo5F8YoQZj/yU&#xA;RMozn0uTpY3K3mXnnzD9Xn8i6l5Zkj1HT/LNnZSQ28LB/wB4gVpBKFqyuWjo4IqOua7JqBHMATtw&#xA;iv0u5w6M5NMTEXLjPF+j4frYxHrOt3Sc4NJZa/tTyBPwIBOaaWDHE7z+QenhrM8x6cVe80mNkNQE&#xA;Je9KGZtxHEDxUeFTuTmPk4L9PLzc7B4nDeSr7gutL21u4y9vIHCni43DKR2YHcHBPHKBossOeGQX&#xA;E2k+h34XWNS04tUCV5ofpPxr95zL1GL93GflTrdDqKz5MX9IkfperflTqlqmuTaFqKCbStehazuY&#xA;H+wzFTwr/rVKf7LLeys3Dk4Tyls0e0Gl8TBxj6se/wAOv6/gk3njy0PLfmS50tOX1ZQstmzdTBJX&#xA;jv34kFSfEZj63THFkI6dHM7K1o1GES/iGx96Q5iOyQb6bC2pRX6jjMiMj0/aB6V+WWjMeAw6ONLT&#xA;ROUZOoFe9bqmtWGmoGuX+NvsRLu5+j+uHDp5ZDsx1Wtx4B6jv3dVLTdS1C/AlW0Fvan7EkrEuw8Q&#xA;gHT6cllxQhtdyYabU5Mu/Dww8zv8kzzHc52KuxV2KuxVbJGkkbRyKGRwVZTuCD1GEEg2GMoiQo8n&#xA;nHmDR20y+Ma1NvJ8UDHw8PmM6DS5/EjfXq8V2hozgyV/CeSWZkuC+nvJl9/jH/nH705D6mo+WmMV&#xA;T1C2oDJ70+rScfmMjrcfiac98d/l+xt7LzeDrI909vn+157nLvoDsVQl5BBFY3p40SRJJJR2rwoT&#xA;9NMthImUfg42aEY459xBJ+Sef84mib/H2qEV9H9FSc/5eX1mDjX3pypnWaf6nznV/SPe+rMzHAdi&#xA;rsVdirsVdirsVfMX/ORl7e+bPzM0XyVpVJZ7VUi412FzelWblStAsSoxPYVzEzG5UHO044YmRena&#xA;f5V/LH8r/LMVnf28N7dXC1nmmhSa4u5F3NFaoVFr8IrxHjXc16jJhxR9e/wu2/RYdTqJ/uiY11uq&#xA;eYeavNS61P6dnYW+laZG3KKyto0QFunOQoF5N+r785vU6nxDsBGPcHudDofBFylKc+8n7B3BIMxX&#xA;YMN1K+GjeaXnjqYZ1DTxL35Df6aiubfDj8bBR5jk8zqc/wCW1ZkPpkNx+Pmkun6lJFrUd+5oWmLS&#xA;/Jz8f4HMzLhBxmI7nWafUmOcZD/O3+PN6TFfz2WqWskT8JK+pC46rLEQ60/X9GaCFgcQ5xL2OUgy&#xA;4JfTMEfj4fc9M/PSa3udD8r+colCwXNLO8I3IW5T1YuR8Injcf7I50Ovx+PhExz5/seM7JznSamW&#xA;OX03R/X+OjzbOae7QGt6tFplk07fFI3wwx/zN/Qd8v0+A5JV0cPW6sYMfEefRi/lvT5NX1GXUL4+&#xA;rHGQTy6M56Cngo7ZstXlGKAhHa3Q9m6c6jKcmTcD7SzfNM9U7FXYq7FXYq7FXYqk/mrTxd6RKwFZ&#xA;bf8AeofZftD/AIHMvRZeDIO47Ot7V0/iYSesd/1vO837xj33/nE/UVlv/Mnl6b4oL20S54e0bGGS&#xA;g/yhOtfll+EXcT1cbUExIkOYKRXMDW9zLA/24nZG+amhzj5CjT6ZCXFEHvU8DJJ/Nd2LfRZhWjz0&#xA;iX/Zfa/4UHMvRQ4sg8t3W9rZuDAf6W34+D2L/nFLyv8AU/KuoeYpkIm1af0bdj3gtqiq/wCtKzg/&#xA;6udVp47W+e6qVmnueZDiuxV2KuxV2KuxVBa3q9lo2j3urXrcLSxhe4nbvxjUsQPc0oMBNC0xFmnz&#xA;N/zj9Fe+bfzh1Pzbfjk9slxeOdyFmuiYo0Hssbvx9hmLh3lbnaj0wpPvze1hdR863KRtyisEW0U9&#xA;uSVZ/udiPozne1MvHmP9HZ7XsDT+HpgTzl6v1fYwrNe7pD319b2Vq9zO1EQdO5PYD3OTx4zOVBpz&#xA;544oGUuQeaajfzX95JdS/akOyjoANgPoGdHixCEREPD6nPLLMzPVDZY0PQb65ZdF0/UT1ha3mc/5&#xA;LgI34Pmhxw/eSh32Px8nsM+SsGPL/N4T89j971hXTzJ+RXmXQn+K60WM3tuO4ijb6zVf+AkX5HNt&#xA;2Zl48Jh1j9zz3b2n8PUxyDlP7xt+p4dovnEWtstvfI8qxikcqULUHQEEjp41zF1Gg4jcdnP0XbHh&#xA;x4cgJrkQlWv6y2qXglAKQRjjEh6jxJp3OZOl0/hRrq6/tDWePO+URyZr5ZtPqui26kUeQeq/zfcf&#xA;8LTNPrJ8WQvUdmYeDBEdTv8ANNMxnPdirsVdirsVdirsVaZVZSrCqsKEexxBpBFii8ouIjDcSwnr&#xA;G7J/wJpnUQlYBfPskOGRj3F61/zi5JKv5nFUFVfT7hZT4Lyjav8AwQGZGD6nE1X0Jp5th9DzVrEV&#xA;KBL24C18PVan4Zy2qFZZD+kfvfQtBLiwYz/Qj9yU5Q5bE9fhvdc8x2Hl/Tk9W6lkSGKMdDNMQBX2&#xA;ApU9t83XZuH031k8p27qQZiPSP3vtXyt5ftPLvlzTtEtN4NPgSAN3ZlHxOfd2qx+edFEUKeOlKza&#xA;aYWLsVdirsVdirsVeI/85V+ZpLDydYaHC/F9YuC04B6wWoDlT85HjP0ZRqJbU5Wljcr7njn5Nfm1&#xA;L5Bvr2KS1S40/U1HrsBSVJYlf0WBqKpyf4h4bjfY40cpgDQtzJYI5JAE0L+zqm8s8lxK88j+pJMx&#xA;keQ78ixqT9OcnIkmzzfRoAAADkswMnn/AJt1R7vUnt1b/R7Y8FXsXH2m+/bN7ocPBC+peP7W1RyZ&#xA;TEfTH7+qR5muqdirP5oQ3k0J1/0RH+5Q+aKMv8I/znr5wvRV/QB+y2Wflr5hSzksprlq2F/bmy1N&#xA;T0aCZfTkJ/1T8X0ZPFl8DUH+bdH3Fr1Gn/NaMfzqBH9Yfr5PGJoZIZpIXFHiYo48CpofxzdPKIrR&#xA;dNfUNQitwCY68pmHZB1/plOozDHAly9FpjmyCPTr7npoAAAAoBsBnNvcgU3il2KuxV2KuxV2KuxV&#xA;2KvMdcAGsXoH+/nP3sTnSab+7j7nhNcKzT/rF6l/ziyQPzMkqaV064A/4OI5m4PqdbqvpTvz+jJ5&#xA;11oMKE3ch+hjUfgc5jWj99L3l73so3psf9UML8wa5HpdrVaNdS1EKf8AGx9hg0unOSX9EL2hrhgh&#xA;/SPL9b13/nHj8o5tMjTzt5gQ/pe8Rm023cfFDFKN5nr/ALskUmg7L7nbq9PhERb57qtQZk7+97rm&#xA;S4bsVdirsVdirsVdir5Y/wCctLx386aPZGvCHTRMB2rNPIp/5MjMTUHdz9IPSUo/JHzf+X+maRr3&#xA;l3zhH/o/mB7e3WX0+QCESBmd/wBgRMVYMNwTUdNo4pRAIPVlmhIkGPRQTTrzQ9U1Hy1ftyu9HmMK&#xA;ydPUgb4oJR7OhBHtTOe7RwcGS+he07E1fi4aPOP3fjZUuZfRtpZuvpoz0/1RXMKEbIDtcs+GJl3B&#xA;5QzMzFmNWY1JPcnOoAp8/Js2WsUOxV6XeJ6fl2eP+S0ZfuiIzncZvMD/AEv0vcZo1piO6B/3KF8n&#xA;S89CiX/fbuv/AA3L/jbLNeKylo7HlenHkSx/SmVfNk0U6h0mlnilVqEGpJ3r1+IDNhqLOASHOgXS&#xA;6MCOrMCPSTIM0tbGztQwtoUhDfa4KBWnjTNNPJKXM29TiwQx/SAFfINrsVdirsVdirsVdirsVaYh&#xA;QWJoBuTigmnlV5P693PP/v2Rn/4Jic6jHHhiB3B8/wA0+OZl3kln/wDzj9rEWmfmtozTNwivDLZs&#xA;f8qaNljH0y8Rl+E1IOLqBcC9P/OPTWs/PFxNSkd9FFcJ4fZ9Nv8Ahozmi7Vx8OYnv3ev9ns3HpQP&#xA;5pI/T+lg/wCS3li287/mi9xqUYn0vSEa7aFxVHMbhII2HgWbmR0NCD1zb6HAIxAea7W1ZnOUvOh7&#xA;n17m0dE7FXYq7FXYq7FXYq7FXyr/AM5Z27r570q5P93JpaRr847iZj/ycGYmo5ufpD6T73iGY7lP&#xA;QLrX5NT0rR/MX273SYE0nWgN2khjqLeZvH91Rd9yUY5iauPH6T/ENv6w/WHZ9nZPCHGP4Tv/AFZf&#xA;qP3hNbkC4sJRGeQmiYIRvXku1M0cPTIX0L1mUceM11j+h5VnTvAOxV2KvRbi7WbytJcf78tTX/WK&#xA;cT+Oc/GFZwP6T2eTMJaQy74foQnkYk6RLXtOwH/AJlvaX94Pd+tx+wz+5P8AW/QGOyuIPNjODQC8&#xA;qfkZN/15sAOLBX9H9DppS4dZf+2fpeiZoHs3Yq7FXYq7FXYq7FXYq7FUm816mLPS3jU/vrmsaDvQ&#xA;/aP3Zl6LDxzvoHWdq6nw8RH8Utv1vPM37xqrbXM9rcxXNvIYriB1khlU0ZXQ8lYHxBGFSHuuofm3&#xA;5c89eWbMazKul+bdNHElxxtrtGoH4SD4Y2+HlxegG4BNcx9fi8aAI+uP2ub2PqfyuQiX93L7Cjv+&#xA;cR4WOo+apdmVEtEL7dWaYj7+GZ+m6un1vR9I5luC7FXYq7FXYq7FXYq7FXgX/OWugtNomh67Gv8A&#xA;vHcSWk5H8twodCfYGEj/AGWY+oGwLl6SW5D5jzEc5MtC1X9H3beqvqWdwphu4v5o27/NTv8Ah3yv&#xA;Lj4411/S36bN4cxLmORHeDzDLfL90IJG0t35oq+tYS/zwNuB81zTaqHEOP4S971HZ+XhJxE2OcT3&#xA;x/Yw/XbE2Wq3ENKJyLx/6jbj7umbbTZOPGC83rsHhZpR6dPcUBl7iOxVObXWxH5futNevNiPQPaj&#xA;MC4P68xJ6e8omPi7PFrq00sR59P0pl5N1iytbee1uZVhJf1UZ9gaqARX/Y5ja/BKREoi3N7G1mPH&#xA;Ewma3tIL+7SXVZ7qP7DTNIh6GnKozPxQrGInudRnyiWYzHLiv7Xp6OjoHQhkYVVhuCD3Gc0RT3YI&#xA;IsN4pdirsVdirsVdirsVQ2oajaWFuZ7l+Kj7K/tMfBRlmLFKZoNGo1EMUeKRec6vqk+pXjXEvwr9&#xA;mOPsq9hnQYMIxxoPF6vVSzz4j8PJBZc4rsVRuiaTdaxrFjpVqK3N/PHbRdxylcICadhXfCBeyCaF&#xA;l9h/kr+VV9+X1lq0F7eQ3kmoTRvHJAHX93EpC8g3Q1c9K/PM3Fj4XXZ8omdnpOWtDsVdirsVdirs&#xA;VdirsVY/+YHlSHzZ5O1TQZCFe8hIt5G6JOhDwsfYSKK+2RnGxTPHPhkC+Db6yurG9nsruIw3drI8&#xA;NxC32kkjYqyn5EZryHbA2oYFTTTdQkCxQc+E0D+pYynorH7Ubf5L/r+nMbNiG56Hn+v3hz9NqDtG&#xA;6lE3E+fd7inWuxJrOlLqMCFbq0ql1CftKB9pT/qnf5Zh6aRwz4D9MuRdpr4jU4RliPXD6h9/yYjm&#xA;1ecdirsVdirsVZt5Hv2ltJrN2qYCGjB68WrUfQf15pu0cVSEh1eo7D1BlAwP8PL3Fk2a53rRZVIB&#xA;IBY0UE9TSu2NIJAbxS7FXYqpXF3bWyc7iVIl8XIH68lCEpbAW15MsIC5EBj2p+drSIFLBPXk/wB+&#xA;MCqD6Op/DM/D2dI7y2dNqe24R2xjiPf0Yje393ezGa5kMjnpXoB4Ads22PFGAqIedzZ55ZcUzZQ+&#xA;TaXYq7FXvv8AzjD+Wtxdap/jbUYitlZh4tJDD+9nYFHlFeqxqSo/yv8AVzIwQ3txNTk24Q+nMy3B&#xA;dirsVdirsVdirsVdirsVdirwH/nIf8mLnVHk84+XYDJfIn+5exjFWlVBQTxgdXVRR17gVG9a4+bF&#xA;e4cvT5q9JfMmYjnOxVN9J1ie3uFkQgz04OrH4Zk/lbwYfstmLnwCQrp9zsdJrJQlY+r/AHQ7j59x&#xA;a1iwgIN/YA/VHaksRFGhk7ow7DwxwZT9Evq+9Gs08f7zH9B5j+ae4pTmU692KuxV2Kq9lfXNlcLc&#xA;Wz8JF2r1BB6gjwyGTHGYo8m7BnnilxRNFPf8dalwp6EPP+ajU+7lmD/JsL5l2v8ALuWuUb+P60FD&#xA;r11Pq1td30x9OF+XFRsAOoVR49MvlpoxxmMRzcWGvnPNGeQ7RKaXnnuYkizt1Rezynkf+BWlPvOY&#xA;2Ps0fxH5Ofm7dl/BH5pVN5q12XrclB4Iqr+IFcyY6LEOjgT7V1Ev4q91IV9Y1Z/tXs5B6j1GA+6u&#xA;WjT4x/CPk451mY/xy+ZQru7sWdizHqSan8ctAA5OOZE7lbih2KuxVFaZpepapex2Om2st5eSmkdv&#xA;AjSO3yVQThAtBIHN79+Wv/OL8zvDqfnd+EYo6aLA1WbvSeVTQf6qf8EOmZEMHe4mTVdIvoy0tLWz&#xA;torW0hS3toFEcMEShERFFAqqtAAB4ZlOETarirsVdirsVdirsVdirsVdirsVdiryz8yP+cffKfm3&#xA;1r/TwNG12QlzcwrWGVzv++iFBVj1ZaHua9MpnhBb8eoMfMPlbzj5J8yeUNWbTNdtTbzbmGUfFDMg&#xA;/bifow/EdwDmJKJid3YQmJCwkWRZIu31CaE1BqSODchVXT+Rx+0PxGVTxA/j7nIx6iUfxzHce9Sn&#xA;Fux9SCqqftRMalT7HuP8/fJRvkWExE7x+Sjk2p2KuxV2KuxV2KuxV2KuxV2KuxVOPLHlDzJ5ovxY&#xA;aDp8t9cbF/TFEQHblJI1EQe7EZKMSeTGUxHm938m/wDOKEQWO5836kWbYnT7DYD2edxU+4VR88yI&#xA;6fvcSeq/mvcfLPk3yv5XtPqug6bDYRkAO0a1kenT1JW5SP8A7Jjl8YgcnFlMy5pzkmLsVdirsVdi&#xA;rsVdirsVdirsVdirsVdirsVSXzd5O8vebdIk0rXLUXFu28b9JInpQSRP1Vh/t7ZGUQRRZQmYmw+Y&#xA;vPf/ADjR5y0WaS48vj9O6ZuyiOiXSDwaIn4/mla/yjMWeAjk50NTE89nl1/5c8w6eWW/0u7tGWoY&#xA;TwSxEU615qMpMSHIEgeqXYEuxV2KuxV2KuxV2KuxV2KuxV2Kvcvyn/5xwvtbjh1rzd6lhpT0e305&#xA;fguZ16hpCf7pD/wR9ticjHhvcuLl1NbB9MaJoOjaFp0enaPZxWNlEPghhUKK92Y9WY92O5zKAA5O&#xA;DKRJso/Ch2KuxV2KuxV2KuxV2KuxV2KuxV2KuxV2KuxV2KuxV2KuxVJ/MHk/yv5it2t9b0u3v0YU&#xA;5SoPUXalUkFHQ+6kZExB5sozI5F88/md/wA4yXunRy6p5MeS+tFq0ukynlcIOp9FtvVH+Sfi/wBb&#xA;MaeCtw5mLU3tJ4M6PG7RyKUdCVdGFCCNiCDmO5a3FXYq7FXYq7FXYq7FX0j+Q/5D+l9X82ebLf8A&#xA;e7S6VpUo+z3WedT+13RD06nfplYsXUuFnz9A+iMyXDdirsVdirsVdirsVdirsVdirsVdirsVdirs&#xA;VdirsVdirsVdirsVdirsVeS/m9+QulecfV1jRymn+ZKEu1KQ3RA2E1Psvts4+kHtTkxcW45uRhzm&#xA;Ox5PkzWNH1PRtTuNL1S3e1v7VzHPBIKFSPwII3BGxG4zDIp2AIIsIPAl2KuxV2KuxV9H/kH+RaBL&#xA;bzf5pgq5pLpOmSrso6rcTKe/dF/2XhTKw4upcLPn/hD6KzJcN2KuxV2KuxV2KuxV2KuxV2KuxV2K&#xA;uxV2KuxV2KuxV2KuxV2KuxV2KuxV2KuxV5n+dn5SWnnfRHvLGJI/M1ihNlPspmRak28h8G/YJ+y3&#xA;sTlWXHxDzb8OXhPk+NZoZYZXhmQxyxsUkjYEMrKaEEHoQcwXZLMVdirsVe7/APOPf5LjWJofN3mG&#xA;CulQty0uzcbXEiH+9cf77QjYftH2G+RhxXuXF1GavSH1FmW4DsVdirsVdirsVdirsVdirsVdirsV&#xA;dirsVdirsVdirsVdirsVdirsVdirsVdirsVdir5U/wCcn/IUekeY4PM9jHxs9aJW8AHwreIKk/8A&#xA;PVPi+YY5iZ4Ubc/S5LFdzxHMdynYq9I/JL8qpvPPmD1bxWTy7pzK+oSio9Vuq26MO7/tEdF9yMtx&#xA;Y+I+TTmy8I832bb28FtbxW9vGsNvCixwxIAqIiiiqqjYAAUAzOdYqYq7FXYq7FXYq7FXYq7FXYq7&#xA;FXYq7FXYq7FXYq7FXYq7FXYq7FXYq7FXYq7FXYq7FXYqxb8zfJMPnPybf6GxVLl1E1hM3RLmPeMn&#xA;2O6t/kk5DJHiFNmKfDK3wvqGn3unX09hfQtb3lq7RXEDijI6GhBzAIp2gNo3yv5b1TzLr9lommR+&#xA;peXsgRP5VXq8jeCooLH2wxjZpEpCIsvujyV5Q0ryj5btNC01f3Nsv72YgB5pW+3K9P2mP3DboMz4&#xA;x4RTq5zMjZTzJMHYq7FXYq7FXYq7FXYq7FXYq7FXYq7FXYq7FXYq7FXYq7FXYq7FXYq7FXYq7FXY&#xA;q7FXYq7FXnn5k/kj5T88yfXZi+nayFC/pG3AJcAUUTRnaSnY1De9MqniEm7HnMfcoflL+SWm/l9c&#xA;Xt619+ldSulEUd0YPQ9KEbsirzl+0wBY17D6XHi4U5c5m9Ky1odirsVdirsVdirsVdirsVdirsVd&#xA;irsVdirsVdirsVdirsVdirsVdirsVdirsVdirsVdirsVdirsVdirsVdirsVdirsVdirsVdirsVdi&#xA;rsVdirsVdirsVdirsVdirsVdirsVdirsVdirsVdirsVdirsVdirsVdirsVdirsVdirsVdirsVdir&#xA;sVdirsVdirsVdirsVdirsVdirsVdirsVdirsVdirsVdirsVdirsVdirsVdirsVdirsVdirsVdirs&#xA;VdirsVdirsVdiriQBU7AdTiqU/4v8p/9Xuw/6Sof+asVd/i/yn/1e7D/AKSof+asVbj82eVpHWOP&#xA;WbF3chURbmEkk7AABsVYfH5x86D6vLJb84f9Ha8WPTrpZRLKWE1pGruFYxcRVy4ry2rQ4qlqedPz&#xA;Tj0Oxv59IkE9xbQzMjW0ZCNKsQcTpHcPIvxs/pcFLdPUVRVsVTufzB5xFvHJbelLayRSTy3ZiZnh&#xA;9Bwjx8EorGT1o2TwCvXtiqg3nLzqs4Melvdadb+ost8ttLEZ2WRpVCQO/qKXt4CimhVpJUaoA4lV&#xA;Q03zn+Yclml9c6TWG3t52vrc20sVw7ROCJIIyz/7qnjYR7s3GQD4qYqmFz5t8yBrgJH6TRywRpEd&#xA;Ou5qQOIvXujIjKhEbPL8P+T96qlpvmvz/PKEl0lGtn1CGBb70pIQLQTRpJM0EjGQGaOVWjH7Px8z&#xA;8FGVZ/irsVdirsVdirsVdirsVdirsVdirsVdirsVdirsVdirsVdirsVdiqS+d5Ej8l6/I/2E027Z&#xA;tq7CBydsVfOQ886Ra+WLDzHNqmkCJmiaW4hmu31d5CYjIksJbh6VTMCvDhxA9OjBahCVW0d/delp&#xA;Nvq06alr0KalYiJpZDPbi3WT1JElRkVQD65Vxyk5emx4qrYqsu9R1CHRL/WrrUpJ9G08T6dqLKt0&#xA;0cFzFxia3QNzZ0VrhY+cjHnzDHeMYq//2Q==</xmpGImg:image>
               </rdf:li>
            </rdf:Alt>
         </xmp:Thumbnails>
      </rdf:Description>
      <rdf:Description rdf:about=""
            xmlns:xmpMM="http://ns.adobe.com/xap/1.0/mm/"
            xmlns:stRef="http://ns.adobe.com/xap/1.0/sType/ResourceRef#"
            xmlns:stEvt="http://ns.adobe.com/xap/1.0/sType/ResourceEvent#">
         <xmpMM:OriginalDocumentID>uuid:9E3E5C9A8C81DB118734DB58FDDE4BA7</xmpMM:OriginalDocumentID>
         <xmpMM:DocumentID>xmp.did:1C12731713206811822A8451A1857300</xmpMM:DocumentID>
         <xmpMM:InstanceID>xmp.iid:1C12731713206811822A8451A1857300</xmpMM:InstanceID>
         <xmpMM:RenditionClass>proof:pdf</xmpMM:RenditionClass>
         <xmpMM:DerivedFrom rdf:parseType="Resource">
            <stRef:instanceID>xmp.iid:1B12731713206811822A8451A1857300</stRef:instanceID>
            <stRef:documentID>xmp.did:1B12731713206811822A8451A1857300</stRef:documentID>
            <stRef:originalDocumentID>uuid:9E3E5C9A8C81DB118734DB58FDDE4BA7</stRef:originalDocumentID>
            <stRef:renditionClass>proof:pdf</stRef:renditionClass>
         </xmpMM:DerivedFrom>
         <xmpMM:History>
            <rdf:Seq>
               <rdf:li rdf:parseType="Resource">
                  <stEvt:action>saved</stEvt:action>
                  <stEvt:instanceID>xmp.iid:F77F117407206811822A8451A1857300</stEvt:instanceID>
                  <stEvt:when>2013-10-06T17:09:14+13:00</stEvt:when>
                  <stEvt:softwareAgent>Adobe Illustrator CS6 (Macintosh)</stEvt:softwareAgent>
                  <stEvt:changed>/</stEvt:changed>
               </rdf:li>
               <rdf:li rdf:parseType="Resource">
                  <stEvt:action>saved</stEvt:action>
                  <stEvt:instanceID>xmp.iid:1C12731713206811822A8451A1857300</stEvt:instanceID>
                  <stEvt:when>2013-10-07T00:05:32+13:00</stEvt:when>
                  <stEvt:softwareAgent>Adobe Illustrator CS6 (Macintosh)</stEvt:softwareAgent>
                  <stEvt:changed>/</stEvt:changed>
               </rdf:li>
            </rdf:Seq>
         </xmpMM:History>
      </rdf:Description>
      <rdf:Description rdf:about=""
            xmlns:xmpTPg="http://ns.adobe.com/xap/1.0/t/pg/"
            xmlns:stDim="http://ns.adobe.com/xap/1.0/sType/Dimensions#"
            xmlns:xmpG="http://ns.adobe.com/xap/1.0/g/">
         <xmpTPg:NPages>1</xmpTPg:NPages>
         <xmpTPg:HasVisibleTransparency>False</xmpTPg:HasVisibleTransparency>
         <xmpTPg:HasVisibleOverprint>False</xmpTPg:HasVisibleOverprint>
         <xmpTPg:MaxPageSize rdf:parseType="Resource">
            <stDim:w>209.999929</stDim:w>
            <stDim:h>210.001308</stDim:h>
            <stDim:unit>Millimeters</stDim:unit>
         </xmpTPg:MaxPageSize>
         <xmpTPg:PlateNames>
            <rdf:Seq>
               <rdf:li>Cyan</rdf:li>
               <rdf:li>Magenta</rdf:li>
               <rdf:li>Yellow</rdf:li>
               <rdf:li>Black</rdf:li>
            </rdf:Seq>
         </xmpTPg:PlateNames>
         <xmpTPg:SwatchGroups>
            <rdf:Seq>
               <rdf:li rdf:parseType="Resource">
                  <xmpG:groupName>Default Swatch Group</xmpG:groupName>
                  <xmpG:groupType>0</xmpG:groupType>
               </rdf:li>
            </rdf:Seq>
         </xmpTPg:SwatchGroups>
      </rdf:Description>
      <rdf:Description rdf:about=""
            xmlns:pdf="http://ns.adobe.com/pdf/1.3/">
         <pdf:Producer>Adobe PDF library 10.01</pdf:Producer>
      </rdf:Description>
      <rdf:Description rdf:about=""
            xmlns:xmpRights="http://ns.adobe.com/xap/1.0/rights/">
         <xmpRights:Marked>True</xmpRights:Marked>
         <xmpRights:WebStatement rdf:resource="http://www.ospreydawn.com"/>
         <xmpRights:UsageTerms>
            <rdf:Alt>
               <rdf:li xml:lang="x-default">This work is licensed under a &lt;a rel="license" href="http://creativecommons.org/licenses/by-nc-sa/3.0/"&gt;Creative Commons Attribution-NonCommercial-ShareAlike 3.0 Unported License&lt;/a&gt;.</rdf:li>
               <rdf:li xml:lang="en_us">This work is licensed under a &lt;a rel="license" href="http://creativecommons.org/licenses/by-nc-sa/3.0/"&gt;Creative Commons Attribution-NonCommercial-ShareAlike 3.0 Unported License&lt;/a&gt;.</rdf:li>
               <rdf:li xml:lang="en">This work is licensed under a &lt;a rel="license" href="http://creativecommons.org/licenses/by-nc-sa/3.0/"&gt;Creative Commons Attribution-NonCommercial-ShareAlike 3.0 Unported License&lt;/a&gt;.</rdf:li>
            </rdf:Alt>
         </xmpRights:UsageTerms>
      </rdf:Description>
      <rdf:Description rdf:about=""
            xmlns:cc="http://creativecommons.org/ns#">
         <cc:attributionName>Max O'Brien / Osprey Dawn</cc:attributionName>
         <cc:license rdf:resource="http://creativecommons.org/licenses/by-nc-sa/3.0/"/>
      </rdf:Description>
   </rdf:RDF>
</x:xmpmeta>
                                                                                                    
                                                                                                    
                                                                                                    
                                                                                                    
                                                                                                    
                                                                                                    
                                                                                                    
                                                                                                    
                                                                                                    
                                                                                                    
                                                                                                    
                                                                                                    
                                                                                                    
                                                                                                    
                                                                                                    
                                                                                                    
                                                                                                    
                                                                                                    
                                                                                                    
                                                                                                    
                           
<?xpacket end="w"?>
	</metadata>
<g id="Layer_2">
	<g id="_x37_Wl2mV_1_">
	</g>
</g>
<g>
	<path fill="#FFFFFF" d="M283.815,517.404c-7.72,0-27.038-3.435-39.648-35.229c-10.342-26.064-29.062-39.184-32.712-41.543
		l-1.044-0.681l-0.896-0.854c-8.82-8.383-25.668-21.146-35.913-21.942c-11.768-0.9-20.104-1.913-23.457-2.834
		c-4.497-1.19-16.571-5.228-29.531-16.266c-9.239-7.861-18.316-13.241-22.223-15.18l0.006-0.021
		c-3.312-1.771-28.039-16.261-38.02-57.054c-9.379-38.355,3.44-66.25,6.105-71.452l0.208-0.417
		c0.872-1.894,9.674-21.07,12.521-35.29c3.646-18.193,8.863-38.406,24.826-47.915c5.479-3.256,13.04-4.837,23.119-4.837
		c2.979,0,5.979,0.145,8.839,0.354l4.791,0.363v-5.146l-0.067-0.598c-0.615-5.549-0.812-8.188,0.816-14.074
		c1.997-7.184,9.146-14.65,12.118-17.532l0.916-0.885l1.056-0.692c1.781-1.158,8.052-5.188,14.323-8.333
		c4.668-2.408,20.441-15.964,24.646-20.158c7.896-7.896,23.273-13.424,49.854-17.926c9.821-1.667,20.951-2.521,33.094-2.521
		c20.219,0,36.344,2.338,37.021,2.438l0.354,0.043c1.812,0.188,49.946,5.515,86.48,19.568
		c37.258,14.324,56.384,30.892,57.176,31.591c4.729,4.237,15.67,13.259,24.062,17.755c13.422,7.168,41.221,31.785,50.397,44.635
		c10.698,14.976,3.896,34.438,1.559,40.047l-0.153,0.424c-1.896,6.434-8.817,28.165-18.499,39.298
		c-6.896,7.935-11.161,13.684-12.679,15.781l-0.295,0.417l-0.201,0.479c-0.646,1.551-2.146,5.675-2.146,10.592
		c0,8.76-1.645,20.444-2.146,23.82l-1.357,9.103l-10.104,2.229l-0.977,2.252c-4.821,11.438-12.193,20.648-21.859,27.247
		c-18.422,12.564-40.712,20.899-43.193,21.812l-0.379,0.147c-10.001,4.088-32.395,15.082-43.868,26.769
		c-2.48,2.519-5.356,5.34-8.396,8.312c-18.304,17.958-45.981,45.118-72.002,87.477l-3.501,5.702l-6.663,0.614
		C285.547,517.354,284.748,517.404,283.815,517.404z"/>
	<path fill="#E64F0F" d="M283.815,504.031c-4.994,0-17.634-2.604-27.222-26.79c-11.738-29.588-33.062-44.716-37.866-47.833
		c-2.716-2.581-25.938-24.174-44.089-25.583c-16.946-1.306-20.803-2.354-20.957-2.396c-2.402-0.645-12.896-3.748-24.403-13.549
		c-11.148-9.486-21.406-15.229-24.943-16.979l0.417,0.197c-1.259-0.663-22.511-12.197-31.381-48.465
		c-8.433-34.491,3.618-59.447,5.021-62.186l0.308-0.626c1.732-3.735,10.545-23.147,13.636-38.549
		c3.071-15.383,7.296-32.354,18.561-39.058c2.254-1.345,6.929-2.951,16.271-2.951c2.647,0,5.303,0.132,7.831,0.316l19.176,1.447
		v-20.371l-0.175-1.39c-0.491-4.419-0.583-5.251,0.436-8.896c0.596-2.146,3.514-6.648,8.521-11.5
		c1.812-1.179,7.48-4.807,12.997-7.565c7.192-3.713,24.479-19.038,28.094-22.649c8.402-8.399,34.181-12.77,42.644-14.204
		c9.091-1.545,19.471-2.328,30.859-2.328c18.998,0,34.43,2.199,35.074,2.294l0.645,0.08c1.96,0.211,48.332,5.316,83.336,18.786
		c35.219,13.543,52.99,29.007,53.167,29.16c0.597,0.538,14.632,13.096,26.559,19.49c11.696,6.246,37.825,29.396,45.851,40.624
		c6.849,9.588,1.271,24.271,0.088,27.121l-0.369,0.89l-0.271,0.922c-3.343,11.288-9.473,27.043-15.762,34.287
		c-7.248,8.323-11.812,14.483-13.444,16.747l-1.193,1.662l-0.787,1.892c-1.189,2.853-3.186,8.676-3.186,15.739
		c0,6.304-1.027,15.383-1.992,21.844l-7.782,1.723l-3.697,8.52c-3.854,9.16-9.618,16.399-17.124,21.521
		c-17.1,11.667-37.946,19.456-40.271,20.306l-0.592,0.229c-1.312,0.53-32.271,13.266-48.59,29.864
		c-2.413,2.443-5.23,5.214-8.212,8.125c-18.845,18.491-47.16,46.282-74.035,90.036C284.645,504.01,284.263,504.031,283.815,504.031z
		"/>
	<g>
		<path fill="#FFFFFF" d="M101.116,291.82c0,0,1.769,4.699,3.157,12.354c1.388,7.646,11.614,24.298,11.614,24.298l-14.771-1.185
			l-20.81-26.734l3.354-20.623l5.847-7.235l10.577,13.651L101.116,291.82z"/>
		<path fill="#FFFFFF" d="M94.827,272.69c0,0,7.96-18.568,9.261-26.371c1.291-7.801,8.533-9.844,8.533-9.844
			s11.062-5.644,15.048-11.881c0,0-7.457,4.979-19.796,0.719c0,0-8.697,1.688-9.773,1.315c-1.068-0.375-9.438,15.604-9.438,15.604
			l-5.184,25.807L94.827,272.69z"/>
		<path fill="#FFFFFF" d="M105.564,223.55c0,0-4.447-5.088-0.922-12.697c3.521-7.612,5.565-17.274,5.565-17.274l2.041,8.544
			l-1.854,10.033l5.49,5.387l0.694-1.867c0,0-2.368-4.084,0-9.649c2.359-5.571,0-12.441,0-12.441s21.461-8.695,68.375-1.003
			l-13.096-6.606l-36.768-5.201l-26,3.524l-5.822,10.771l-8.661,21.062l1.671,7.435h9.276L105.564,223.55L105.564,223.55z"/>
		<path fill="#FFFFFF" d="M192.849,196.344c0,0,9.441,16.356,17.733,44.03c8.271,27.662,12.739,25.271,16.448,42.729v-20.631
			l-11.188-35.336C215.846,227.136,202.664,197.624,192.849,196.344z"/>
		<path fill="#FFFFFF" d="M190.111,155.694c0,0-2.482,10.298,2.739,13.316c5.221,3.019,8.729,1.152,8.729,1.152
			s-4.441-1.108-3.342-6.124c1.118-5.015,16.718-15.045,16.718-15.045s8.918-6.873,18.015-9.477c9.109-2.6,30.097,0,30.097,0
			s14.299,3.345,26.188,0.559c11.879-2.783,12.629-10.396,12.629-10.396s-11.144,5.194-23.967,1.667
			c-12.812-3.528-14.109-4.83-17.088-4.646c0,0,8.55-8.169,41.055-13.931c32.488-5.752,64.101,0,64.101,0v-3.707L289.627,94.76
			l-58.879,10.028l-32.308,27.95L190.111,155.694z"/>
		<path fill="#FFFFFF" d="M481.454,312.51c-10.553-0.157-16.879-28.112-16.879-42.427c0-14.29-2.225-32.685-2.225-32.685
			s-2.8-24.695-18.941-53.484c-16.167-28.788-48.867-36.883-48.867-36.883l31.771,34.841l23.967,67.979l2.776,46.987l17.1,17.832
			l13.187,2.223L481.454,312.51z"/>
		<path fill="#FFFFFF" d="M253.116,197.922c0,0,6.412,7.539,16.08,7.539c9.656,0,14.115-2.045,14.115-2.045
			s11.891-3.148,18.377,2.045c0,0-6.523-13.224-19.606-12.926l-8.427,0.035l-10.589-0.041L253.116,197.922z"/>
	</g>
	<g>
		<path fill="#4C230E" d="M110.212,193.573c0,0,1.119,7.988-0.938,11.888c-2.039,3.897-2.912,9.849,1.229,14.486
			c4.165,4.646,12.149,0.744,12.149,0.744s1.474-1.49,8.907-1.861c7.438-0.368,11.338-7.057,11.338-7.057s-24.89,7.804-28.229,2.595
			c-3.341-5.194-0.934-10.208-0.934-10.208S115.777,198.959,110.212,193.573z"/>
		<path fill="#4C230E" d="M210.588,182.695c0,0,0.369,6.687,6.854,8.351c6.511,1.683,12.456,2.791,12.456,2.791
			s20.229,7.982,25.072,22.284c0,0,2.973-8.916-1.854-18.199c0,0,9.839-0.562,15.601-4.085c0,0,7.789,2.977,13.366-1.302
			c0,0-10.771,1.48-16.338-6.317c-5.577-7.797-9.287-9.653-9.287-9.653s3.896-5.199,24.521-6.317c0,0-7.997-2.782-23.033,0
			c-15.048,2.792-21.362,8.916-21.362,8.916s-7.979,8.547-15.229,7.438C214.114,185.475,210.588,182.695,210.588,182.695z"/>
		<path fill="#4C230E" d="M524.081,201.632c-8.354-11.695-34.543-34.817-46.521-41.226c-11.988-6.406-26.189-19.221-26.189-19.221
			s-17.554-15.604-53.769-29.536c-36.215-13.928-84.142-18.945-84.142-18.945s-35.652-5.289-66.849,0
			c-31.202,5.298-40.121,11.146-43.744,14.771c-3.624,3.621-20.896,18.943-27.578,22.29c-6.689,3.339-13.36,7.795-13.36,7.795
			s-7.812,7.521-9.201,12.536c-1.4,5.021-0.835,5.566,0,14.21c0.835,8.633,0,15.883,0,15.883s-30.92-6.416-42.626,0.556
			c-11.701,6.963-16.147,23.678-19.501,40.396c-3.347,16.716-13.648,38.438-13.648,38.438s-14.479,26.193-5.294,63.809
			c9.188,37.604,32.038,49.585,32.038,49.585s11.418,5.562,24.513,16.722c13.107,11.136,25.084,13.924,25.084,13.924
			s3.33,1.112,21.438,2.513c18.119,1.396,42.921,25.065,42.921,25.065s24.507,14.759,37.319,47.078
			c12.812,32.316,31.479,27.864,31.479,27.864c31.468-51.537,66.025-81.904,82.45-98.616c16.438-16.716,48.189-29.538,48.189-29.538
			s22.562-8.078,40.97-20.605c18.364-12.538,21.448-34.555,21.448-34.555c3.06,4.188,7.8,2.793,7.8,2.793s2.226-13.938,2.226-23.531
			c0-9.59,3.896-16.873,3.896-16.873s5.021-7.233,14.226-17.825c9.188-10.578,16.428-35.938,16.428-35.938
			S532.447,213.342,524.081,201.632z M127.742,344.268c-20.017-24.225-28.727-45.915-28.727-45.915s-3.587-7.939-7.125-7.396
			c-2.149,0.354-2.561,1.545-2.456,2.613c0.344,1.131,0.602,1.843,0.602,1.843s-0.505-0.854-0.602-1.843
			c-1.155-3.722-3.271-12.038-0.123-14.354c3.938-2.9,7.42,3.943,7.42,3.943s15.251,31.066,31.011,55.534
			c16.166,25.068,50.525,49.582,50.525,49.582S153.38,375.28,127.742,344.268z M502.35,260.418c0,0-4.177,6.124-7.521,9.747
			c-3.354,3.622-13.095,14.771-13.93,25.908c-0.848,11.146,0.553,16.438,0.553,16.438s-10.854,1.148-19.488-10.438
			c-8.643-11.566-6.401-43.886-6.401-43.886s2.225-17.544-8.917-47.915c-11.155-30.37-34.005-52.657-52.104-63.239
			c0,0,6.118,10.583,9.478,18.938c3.341,8.357,4.177,17.459,4.177,17.459s0.368,4.644-3.158,6.127
			c-3.537,1.481-10.207-2.41-10.207-2.41s-8.181-3.342-13.01-3.717c0,0,19.877,15.229,33.808,38.26
			c13.924,23.03,12.995,52.003,12.995,52.003s0.738,38.447-30.465,60.355c-31.188,21.919-57.195,20.438-57.195,20.438
			s-34.543,2.041-47.918,12.442c0,0,4.631-9.66-0.354-16.899c0,0-6.327,9.652-22.68,9.652c-16.341,0-17.822-13.75-17.822-13.75
			s-2.057-9.84-8.918-15.036c0,0-1.308-29.344-7.419-54.977c0,0,7.604,8.724,15.22,4.646c7.616-4.094,14.115-28.045,14.115-28.045
			s3.15-17.647,15.229-28.236c10.405-9.124,16.081-9.554,17.457-9.493c-2.187-0.175-14.754-0.801-25.257,6.339
			c-14.483,9.849-23.218,28.788-23.218,28.788c-1.854,4.459-10.036,6.873-16.337,1.305c0,0-9.029-6.391-19.692-31.942
			c0,0,11.326,34.544,13.562,62.405c2.224,27.852,1.289,40.854,1.289,40.854s0.192,10.034-7.055,8.542
			c-8.354-1.702-7.249-13.363-7.249-13.363s0.75-14.68-3.152-39.938c-3.855-25.054-13.745-49.396-13.745-49.396
			s7.062,28.417,8.182,53.115c1.118,24.697-2.789,46.246-2.789,46.246s-2.42,6.609-9.102-11.321
			c-5.946-15.981-3.896-25.636-3.896-25.636s2.567-18.343,1.67-33.244c-0.934-15.604-8.538-39.755-19.876-57.943
			c0,0,5.018,14.675,2.229,26.56c-2.776,11.888-5.383,10.215-5.383,10.215s-3.154-13.559-16.151-17.276c0,0,3.709,4.835,6.13,12.264
			c2.408,7.431-0.197,14.121-0.197,14.121s-6.116,9.469-12.996,16.896c-6.864,7.422-10.771,24.146-10.771,24.146
			s-6.13,20.247,8.721,50.149c14.865,29.902,48.302,54.411,48.302,54.411s-40.305-22.29-61.852-57.388
			c-21.528-35.104-25.619-46.065-25.619-46.065s-7.062-16.707-16.35-21.915c0,0,3.623-11.971,5.011-17.545
			c1.398-5.568,2.507-15.318,15.602-22.845c0,0,0.271-1.111-4.441-2.503c-4.742-1.397-5.024-3.346-4.477-8.645
			c0.565-5.292,5.592-16.712,8.918-22.283c3.338-5.569,10.03-6.407,10.03-6.407s7.801-3.351,35.933,0
			c28.146,3.344,39.019,10.867,39.019,10.867s10.021,5.017,14.754,15.046c0,0,0.282-20.618-17.26-29.263
			c0,0,6.95-2.227,10.574-7.795c0,0-15.592,4.182-26.476,2.229c0,0,2.521-10.312,1.671-16.712c-0.82-6.41,0.851-13.104,5.859-18.663
			c0,0,11.777-9.991,20.6-20.645c0.713-0.894,1.131-1.375,1.131-1.375c-0.354,0.458-0.747,0.921-1.131,1.375
			c-3.599,4.623-14.667,20.61-14.188,42.094c0,0,5.562-35.104,37.332-52.104c31.755-16.993,76.876-10.031,76.876-10.031
			s67.978,5.857,119.521,34.82c51.529,28.979,83.02,76.614,83.02,76.614s-3.062-15.319-11.424-25.352
			c0,0,14.212,6.407,20.609,19.775C520.74,219.739,502.35,260.418,502.35,260.418z"/>
	</g>
</g>
<g>
	<path fill="#BDC2BC" d="M534.992,588.913c-0.739,0-1.34-0.602-1.34-1.341v-16.588c0-0.739,0.601-1.339,1.34-1.339h52.497
		c0.738,0,1.339,0.6,1.339,1.339v16.588c0,0.739-0.601,1.341-1.339,1.341H534.992z"/>
	<g>
		<path d="M558.027,571.51c-2.725,0-4.935,2.21-4.935,4.934c0,2.729,2.21,4.938,4.935,4.938c2.728,0,4.938-2.21,4.938-4.938
			C562.964,573.719,560.755,571.51,558.027,571.51z"/>
		<path fill="#FFFFFF" d="M558.027,580.461c-2.219,0-4.015-1.798-4.015-4.019c0-2.217,1.797-4.014,4.015-4.014
			c2.219,0,4.019,1.798,4.019,4.014C562.046,578.664,560.246,580.461,558.027,580.461z"/>
		<g>
			<path d="M559.402,575.293c0-0.219-0.182-0.398-0.398-0.398h-1.952c-0.221,0-0.401,0.181-0.401,0.398v1.985h0.528v2.338h1.694
				v-2.338h0.527L559.402,575.293L559.402,575.293z"/>
			<path d="M558.695,573.942c0,0.37-0.3,0.668-0.667,0.668c-0.371,0-0.67-0.299-0.67-0.668s0.301-0.67,0.67-0.67
				C558.395,573.272,558.695,573.571,558.695,573.942z"/>
		</g>
	</g>
	<path d="M587.175,569.198h-51.868c-1.157,0-2.102,0.943-2.102,2.102v15.96c0,1.158,0.943,2.1,2.102,2.1h51.868
		c1.158,0,2.102-0.94,2.102-2.1V571.3C589.275,570.141,588.332,569.198,587.175,569.198z M588.644,583.375h-37.865
		c-1.477,2.809-4.417,4.725-7.81,4.725s-6.333-1.916-7.809-4.725h-1.326V571.3c0-0.812,0.658-1.471,1.47-1.471h51.869
		c0.811,0,1.471,0.658,1.471,1.471V583.375L588.644,583.375z"/>
	<g>
		<path fill="#FFFFFF" d="M557.773,584.933c0.1,0.14,0.15,0.302,0.15,0.495c0,0.198-0.052,0.357-0.151,0.479
			c-0.057,0.066-0.14,0.131-0.25,0.187c0.168,0.061,0.294,0.155,0.378,0.289c0.085,0.13,0.127,0.289,0.127,0.477
			c0,0.192-0.049,0.365-0.145,0.519c-0.062,0.104-0.14,0.188-0.23,0.256c-0.104,0.078-0.225,0.137-0.369,0.164
			c-0.141,0.028-0.294,0.043-0.459,0.043h-1.466v-3.256h1.573C557.326,584.594,557.607,584.706,557.773,584.933z M556.009,585.151
			v0.717h0.79c0.143,0,0.257-0.026,0.345-0.08s0.133-0.147,0.133-0.286c0-0.15-0.059-0.248-0.176-0.301
			c-0.1-0.033-0.228-0.05-0.383-0.05H556.009L556.009,585.151z M556.009,586.407v0.869h0.789c0.143,0,0.25-0.02,0.328-0.058
			c0.145-0.071,0.217-0.206,0.217-0.407c0-0.17-0.07-0.285-0.208-0.35c-0.077-0.034-0.188-0.056-0.327-0.056L556.009,586.407
			L556.009,586.407z"/>
		<path fill="#FFFFFF" d="M560.469,584.586h0.771l-1.089,2.034v1.222h-0.68v-1.222l-1.127-2.034h0.8l0.677,1.418L560.469,584.586z"
			/>
	</g>
	<g>
		<g>
			<path fill="#FFFFFF" d="M566.517,584.426h0.776l1.403,2.473v-2.473h0.692v3.545h-0.742l-1.443-2.517v2.517h-0.688
				L566.517,584.426L566.517,584.426z"/>
			<path fill="#FFFFFF" d="M570.425,584.797c0.285-0.292,0.647-0.437,1.09-0.437c0.591,0,1.02,0.195,1.295,0.587
				c0.148,0.221,0.229,0.439,0.242,0.661h-0.741c-0.048-0.17-0.106-0.299-0.183-0.384c-0.132-0.153-0.328-0.229-0.586-0.229
				c-0.265,0-0.473,0.107-0.623,0.324c-0.152,0.219-0.229,0.525-0.229,0.923c0,0.399,0.08,0.696,0.241,0.895
				c0.161,0.197,0.365,0.299,0.614,0.299c0.252,0,0.447-0.086,0.581-0.256c0.072-0.09,0.136-0.229,0.183-0.41h0.736
				c-0.066,0.387-0.226,0.699-0.486,0.943c-0.262,0.241-0.594,0.36-1.002,0.36c-0.505,0-0.901-0.163-1.19-0.489
				c-0.288-0.328-0.434-0.777-0.434-1.353C569.93,585.607,570.095,585.133,570.425,584.797z"/>
		</g>
	</g>
	<g>
		<path fill="#FFFFFF" d="M578.517,586.944c0.022,0.173,0.073,0.303,0.145,0.389c0.132,0.154,0.354,0.233,0.673,0.233
			c0.19,0,0.347-0.021,0.465-0.062c0.225-0.078,0.338-0.226,0.338-0.438c0-0.125-0.055-0.223-0.166-0.291
			c-0.113-0.066-0.285-0.126-0.525-0.178l-0.411-0.088c-0.401-0.093-0.679-0.188-0.829-0.294c-0.254-0.173-0.383-0.448-0.383-0.819
			c0-0.339,0.126-0.619,0.376-0.846c0.249-0.224,0.617-0.336,1.102-0.336c0.401,0,0.748,0.104,1.033,0.315
			c0.284,0.213,0.436,0.521,0.45,0.922h-0.762c-0.014-0.227-0.117-0.387-0.306-0.484c-0.126-0.065-0.282-0.096-0.473-0.096
			c-0.209,0-0.375,0.041-0.499,0.122c-0.126,0.083-0.188,0.196-0.188,0.346c0,0.135,0.062,0.236,0.186,0.303
			c0.079,0.043,0.246,0.096,0.502,0.155l0.665,0.156c0.292,0.068,0.513,0.162,0.655,0.276c0.227,0.179,0.339,0.435,0.339,0.771
			c0,0.351-0.134,0.637-0.4,0.863c-0.269,0.229-0.646,0.344-1.134,0.344c-0.5,0-0.891-0.112-1.176-0.339
			c-0.287-0.224-0.432-0.536-0.432-0.929L578.517,586.944L578.517,586.944z"/>
		<path fill="#FFFFFF" d="M582.542,584.325h0.896l1.34,3.791h-0.858l-0.249-0.778h-1.396l-0.255,0.778h-0.828L582.542,584.325z
			 M582.486,586.681h0.972l-0.479-1.49L582.486,586.681z"/>
	</g>
	<g>
		<circle cx="542.95" cy="579.28" r="7.771"/>
		<circle fill="#FFFFFF" cx="542.95" cy="579.278" r="6.322"/>
		<g>
			<path d="M542.597,578.348l-1.188,0.215c-0.041-0.237-0.131-0.416-0.273-0.537c-0.143-0.119-0.325-0.178-0.55-0.178
				c-0.302,0-0.537,0.104-0.72,0.31c-0.18,0.204-0.268,0.555-0.268,1.038c0,0.539,0.09,0.921,0.271,1.146
				c0.183,0.223,0.426,0.332,0.73,0.332c0.229,0,0.417-0.064,0.562-0.195c0.146-0.131,0.249-0.354,0.311-0.67l1.182,0.199
				c-0.123,0.545-0.354,0.954-0.707,1.229c-0.348,0.276-0.813,0.416-1.399,0.416c-0.668,0-1.197-0.21-1.594-0.629
				c-0.396-0.42-0.592-1.004-0.592-1.746c0-0.75,0.198-1.337,0.594-1.754c0.397-0.42,0.936-0.627,1.613-0.627
				c0.555,0,0.995,0.118,1.322,0.355C542.219,577.497,542.453,577.86,542.597,578.348z"/>
			<path d="M547.477,578.348l-1.188,0.215c-0.039-0.237-0.131-0.416-0.272-0.537c-0.144-0.119-0.325-0.178-0.551-0.178
				c-0.301,0-0.539,0.104-0.72,0.31c-0.178,0.204-0.268,0.555-0.268,1.038c0,0.539,0.09,0.921,0.271,1.146
				c0.182,0.223,0.426,0.332,0.729,0.332c0.229,0,0.417-0.064,0.562-0.195c0.146-0.131,0.25-0.354,0.311-0.67l1.183,0.199
				c-0.123,0.545-0.356,0.954-0.708,1.229c-0.349,0.276-0.814,0.416-1.4,0.416c-0.668,0-1.197-0.21-1.593-0.629
				c-0.396-0.42-0.592-1.004-0.592-1.746c0-0.75,0.196-1.337,0.595-1.754c0.396-0.42,0.934-0.627,1.612-0.627
				c0.554,0,0.994,0.118,1.322,0.355C547.1,577.497,547.337,577.86,547.477,578.348z"/>
		</g>
	</g>
	<g>
		<path d="M569.93,571.719c-2.61,0-4.727,2.115-4.727,4.726c0,2.612,2.115,4.729,4.727,4.729s4.728-2.113,4.728-4.729
			C574.658,573.834,572.546,571.719,569.93,571.719z"/>
		<circle fill="#FFFFFF" cx="569.93" cy="576.447" r="3.846"/>
		
			<rect x="569.488" y="571.955" transform="matrix(0.4225 -0.9063 0.9063 0.4225 -193.3242 849.4399)" width="0.924" height="8.958"/>
		<g>
			<path d="M569.58,579.151v-0.637c-0.444-0.013-0.877-0.14-1.129-0.277l0.197-0.776c0.279,0.153,0.672,0.292,1.101,0.292
				c0.382,0,0.646-0.151,0.646-0.409c0-0.252-0.223-0.41-0.709-0.578c-0.711-0.238-1.196-0.568-1.196-1.215
				c0-0.59,0.411-1.047,1.122-1.181v-0.631h0.65v0.584c0.443,0.015,0.742,0.115,0.968,0.222l-0.199,0.748
				c-0.167-0.079-0.478-0.232-0.954-0.232c-0.434,0-0.571,0.193-0.571,0.381c0,0.212,0.231,0.356,0.798,0.564
				c0.796,0.276,1.107,0.643,1.107,1.246c0,0.591-0.411,1.09-1.182,1.221v0.684L569.58,579.151L569.58,579.151z"/>
		</g>
	</g>
	<g>
		<path d="M581.185,571.784c-2.571,0-4.66,2.086-4.66,4.658c0,2.576,2.089,4.665,4.66,4.665c2.576,0,4.665-2.089,4.665-4.665
			C585.852,573.87,583.761,571.784,581.185,571.784z"/>
		<path fill="#FFFFFF" d="M581.185,580.238c-2.092,0-3.789-1.698-3.789-3.794c0-2.091,1.695-3.79,3.789-3.79
			c2.096,0,3.793,1.696,3.793,3.79C584.979,578.538,583.281,580.238,581.185,580.238z"/>
		<path d="M581.185,573.885c-1.016,0-1.874,0.733-2.182,1.746h-0.294l0.933,1.016l0.93-1.016h-0.348
			c0.215-0.37,0.563-0.616,0.96-0.616c0.65,0,1.179,0.646,1.179,1.443c0,0.793-0.526,1.44-1.179,1.44
			c-0.432,0-0.81-0.289-1.016-0.72h-1.196c0.278,1.068,1.167,1.854,2.214,1.854c1.273,0,2.311-1.155,2.311-2.576
			C583.496,575.034,582.464,573.885,581.185,573.885z"/>
	</g>
</g>
<g>
	<path d="M11.392,586.197c-0.652,0-1.248-0.138-1.786-0.41c-0.539-0.271-1.002-0.631-1.39-1.07c-0.388-0.441-0.688-0.949-0.9-1.521
		C7.106,582.619,7,582.032,7,581.432c0-0.626,0.114-1.226,0.338-1.797c0.226-0.574,0.533-1.08,0.927-1.521
		c0.393-0.44,0.857-0.792,1.396-1.053c0.538-0.26,1.119-0.39,1.746-0.39c0.653,0,1.248,0.138,1.786,0.417
		c0.538,0.275,0.999,0.641,1.382,1.09s0.682,0.959,0.893,1.528c0.213,0.567,0.318,1.144,0.318,1.726c0,0.636-0.113,1.24-0.338,1.812
		c-0.225,0.574-0.534,1.079-0.926,1.517c-0.394,0.437-0.856,0.785-1.391,1.045C12.598,586.066,12.018,586.197,11.392,586.197z
		 M7.675,581.432c0,0.539,0.091,1.057,0.271,1.555s0.437,0.939,0.768,1.324c0.33,0.383,0.724,0.69,1.178,0.92
		c0.455,0.229,0.955,0.344,1.502,0.344c0.563,0,1.072-0.117,1.527-0.355c0.454-0.239,0.846-0.555,1.17-0.946
		c0.327-0.392,0.578-0.834,0.755-1.328s0.265-0.997,0.265-1.51c0-0.538-0.092-1.057-0.277-1.555
		c-0.185-0.498-0.442-0.939-0.773-1.323s-0.723-0.691-1.179-0.919c-0.454-0.229-0.949-0.347-1.486-0.347
		c-0.565,0-1.076,0.119-1.536,0.357c-0.458,0.238-0.85,0.554-1.17,0.945c-0.322,0.394-0.571,0.836-0.748,1.33
		C7.762,580.422,7.675,580.923,7.675,581.432z"/>
	<path d="M23.14,578.299c-0.608-0.681-1.469-1.021-2.58-1.021c-0.918,0-1.587,0.175-2.006,0.523
		c-0.417,0.349-0.628,0.817-0.628,1.407c0,0.302,0.054,0.554,0.159,0.755c0.106,0.202,0.271,0.373,0.496,0.51
		c0.226,0.137,0.513,0.256,0.86,0.355c0.35,0.103,0.761,0.2,1.237,0.299c0.512,0.106,0.97,0.223,1.377,0.352
		c0.404,0.127,0.75,0.289,1.038,0.483c0.287,0.193,0.508,0.433,0.662,0.715c0.153,0.281,0.231,0.632,0.231,1.044
		c0,0.414-0.082,0.775-0.245,1.086c-0.163,0.31-0.392,0.565-0.688,0.773c-0.297,0.208-0.648,0.364-1.059,0.471
		c-0.411,0.104-0.867,0.157-1.37,0.157c-1.463,0-2.704-0.467-3.717-1.401l0.356-0.542c0.396,0.415,0.882,0.743,1.457,0.984
		c0.573,0.242,1.217,0.363,1.931,0.363c0.821,0,1.461-0.147,1.925-0.449c0.462-0.301,0.695-0.754,0.695-1.362
		c0-0.309-0.06-0.57-0.178-0.787s-0.303-0.404-0.551-0.562c-0.247-0.158-0.554-0.295-0.919-0.409
		c-0.364-0.115-0.796-0.225-1.29-0.33c-0.503-0.105-0.945-0.219-1.329-0.338c-0.384-0.117-0.708-0.269-0.972-0.449
		c-0.265-0.181-0.463-0.398-0.596-0.654s-0.199-0.578-0.199-0.967c0-0.423,0.082-0.797,0.246-1.124
		c0.163-0.326,0.391-0.603,0.682-0.826c0.291-0.226,0.64-0.395,1.044-0.511c0.406-0.114,0.854-0.17,1.351-0.17
		c0.607,0,1.15,0.09,1.627,0.27c0.477,0.183,0.909,0.459,1.296,0.828L23.14,578.299z"/>
	<path d="M25.734,586.131v-9.395h3.863c0.396,0,0.763,0.085,1.098,0.251c0.335,0.168,0.624,0.392,0.866,0.669
		s0.432,0.591,0.568,0.938c0.138,0.35,0.205,0.698,0.205,1.053c0,0.381-0.063,0.746-0.191,1.098
		c-0.128,0.354-0.31,0.666-0.542,0.939c-0.232,0.272-0.512,0.492-0.833,0.654c-0.323,0.164-0.683,0.245-1.078,0.245h-3.281v3.546
		L25.734,586.131L25.734,586.131z M26.408,581.963h3.241c0.309,0,0.586-0.064,0.833-0.191s0.456-0.3,0.629-0.516
		c0.171-0.218,0.303-0.463,0.396-0.741c0.092-0.276,0.139-0.565,0.139-0.866c0-0.309-0.056-0.602-0.165-0.879
		c-0.11-0.279-0.26-0.523-0.45-0.734c-0.189-0.213-0.41-0.381-0.661-0.504s-0.519-0.186-0.801-0.186h-3.162L26.408,581.963
		L26.408,581.963z"/>
	<path d="M33.963,586.131v-9.395h3.917c0.397,0,0.764,0.085,1.098,0.251c0.335,0.168,0.622,0.392,0.859,0.669
		c0.238,0.277,0.426,0.591,0.563,0.938c0.137,0.35,0.204,0.698,0.204,1.053c0,0.344-0.054,0.676-0.159,0.998
		c-0.105,0.324-0.254,0.611-0.45,0.867c-0.194,0.256-0.427,0.467-0.7,0.635c-0.273,0.169-0.572,0.277-0.899,0.331l2.341,3.651
		h-0.781l-2.274-3.547h-3.043v3.547L33.963,586.131L33.963,586.131z M34.636,581.963h3.295c0.299,0,0.571-0.064,0.819-0.197
		c0.247-0.132,0.458-0.307,0.636-0.522c0.176-0.216,0.311-0.462,0.402-0.741c0.093-0.277,0.141-0.562,0.141-0.853
		c0-0.3-0.056-0.589-0.166-0.866c-0.11-0.276-0.261-0.522-0.45-0.733c-0.189-0.212-0.409-0.382-0.661-0.511
		c-0.252-0.127-0.523-0.192-0.814-0.192h-3.201V581.963z"/>
	<path d="M48.899,585.521v0.608h-6.258v-9.395h6.139v0.61h-5.464v3.688h4.775v0.582h-4.775v3.903h5.583V585.521z"/>
	<path d="M50.421,576.736l3.281,5.199l3.308-5.199h0.742l-3.706,5.849v3.546h-0.674v-3.572l-3.69-5.821L50.421,576.736
		L50.421,576.736z"/>
	<path d="M59.126,586.131v-9.395h3.122c0.741,0,1.392,0.124,1.951,0.371c0.561,0.248,1.025,0.583,1.396,1.007
		c0.371,0.423,0.647,0.919,0.833,1.487c0.185,0.567,0.277,1.175,0.277,1.819c0,0.715-0.104,1.36-0.311,1.938
		s-0.505,1.07-0.894,1.481c-0.388,0.409-0.857,0.729-1.41,0.953c-0.552,0.224-1.167,0.337-1.845,0.337L59.126,586.131
		L59.126,586.131z M66.031,581.421c0-0.592-0.083-1.137-0.251-1.635c-0.167-0.498-0.412-0.93-0.733-1.291
		c-0.322-0.359-0.718-0.644-1.185-0.848c-0.466-0.202-1.005-0.303-1.614-0.303h-2.447v8.177h2.447c0.617,0,1.162-0.104,1.633-0.312
		c0.473-0.206,0.866-0.495,1.185-0.865c0.316-0.37,0.559-0.805,0.722-1.303S66.031,582.003,66.031,581.421z"/>
	<path d="M67.288,586.131l3.996-9.395h0.555l3.997,9.395h-0.728l-1.311-3.097h-4.484l-1.311,3.097H67.288z M71.562,577.557
		l-2.09,4.922h4.141L71.562,577.557z"/>
	<path d="M80.148,576.802h0.661l1.401,3.413l1.403-3.413h0.661l-1.654,3.956l1.971,4.577l3.6-8.601h0.742l-4.023,9.395h-0.62
		l-2.063-4.829l-2.077,4.829h-0.622l-4.008-9.395h0.728l3.612,8.601l1.945-4.577L80.148,576.802z"/>
	<path d="M91.05,578.008v8.123h-0.675v-9.394h0.518l6.588,8.27v-8.255h0.675v9.379h-0.622L91.05,578.008z"/>
	<path d="M100.297,586.131v-1.125h0.583v1.125H100.297z"/>
	<path d="M102.401,581.368c0-0.563,0.098-1.127,0.298-1.688c0.197-0.561,0.486-1.062,0.866-1.502c0.379-0.44,0.844-0.8,1.395-1.077
		c0.552-0.277,1.181-0.418,1.887-0.418c0.838,0,1.552,0.192,2.144,0.576c0.591,0.383,1.027,0.877,1.309,1.475l-0.556,0.318
		c-0.159-0.327-0.351-0.601-0.576-0.82c-0.224-0.221-0.466-0.399-0.727-0.537c-0.261-0.137-0.533-0.234-0.814-0.298
		c-0.281-0.062-0.562-0.092-0.833-0.092c-0.6,0-1.129,0.121-1.589,0.364c-0.458,0.241-0.847,0.558-1.164,0.944
		c-0.316,0.39-0.557,0.826-0.722,1.316c-0.164,0.489-0.245,0.981-0.245,1.475c0,0.558,0.097,1.086,0.291,1.59
		c0.195,0.502,0.459,0.945,0.795,1.328c0.334,0.383,0.731,0.691,1.19,0.919c0.458,0.229,0.951,0.346,1.48,0.346
		c0.282,0,0.571-0.036,0.866-0.106c0.296-0.069,0.583-0.18,0.86-0.329c0.277-0.15,0.536-0.343,0.774-0.576
		c0.238-0.232,0.437-0.51,0.594-0.827l0.569,0.278c-0.159,0.352-0.372,0.665-0.642,0.939c-0.271,0.271-0.57,0.502-0.906,0.688
		c-0.335,0.186-0.689,0.324-1.065,0.416c-0.375,0.092-0.742,0.139-1.104,0.139c-0.644,0-1.233-0.141-1.768-0.423
		c-0.532-0.281-0.994-0.649-1.382-1.104c-0.387-0.455-0.689-0.972-0.905-1.549C102.509,582.555,102.401,581.969,102.401,581.368z"/>
	<path d="M115.882,586.197c-0.652,0-1.247-0.138-1.785-0.41c-0.538-0.271-1.001-0.631-1.39-1.07
		c-0.388-0.441-0.688-0.949-0.898-1.521c-0.212-0.572-0.317-1.16-0.317-1.76c0-0.627,0.112-1.225,0.337-1.798
		c0.224-0.573,0.534-1.081,0.926-1.521c0.394-0.44,0.857-0.792,1.396-1.052c0.539-0.261,1.121-0.391,1.747-0.391
		c0.65,0,1.247,0.139,1.786,0.416c0.538,0.276,0.999,0.643,1.381,1.091c0.384,0.45,0.682,0.959,0.894,1.529
		c0.211,0.566,0.317,1.144,0.317,1.726c0,0.635-0.113,1.239-0.337,1.812c-0.226,0.572-0.534,1.077-0.928,1.514
		c-0.393,0.438-0.854,0.785-1.389,1.046C117.087,586.066,116.509,586.197,115.882,586.197z M112.164,581.432
		c0,0.539,0.09,1.057,0.271,1.555c0.181,0.498,0.436,0.939,0.767,1.324c0.331,0.383,0.724,0.69,1.178,0.92s0.954,0.344,1.501,0.344
		c0.564,0,1.073-0.117,1.527-0.355c0.456-0.239,0.845-0.555,1.171-0.946s0.578-0.834,0.754-1.328
		c0.175-0.494,0.266-0.997,0.266-1.51c0-0.538-0.094-1.057-0.278-1.555c-0.186-0.498-0.443-0.939-0.774-1.323
		s-0.724-0.691-1.178-0.919c-0.455-0.229-0.95-0.347-1.488-0.347c-0.563,0-1.075,0.119-1.534,0.357s-0.851,0.554-1.172,0.945
		c-0.321,0.394-0.57,0.836-0.748,1.33C112.252,580.422,112.164,580.923,112.164,581.432z"/>
	<path d="M130.659,586.131v-8.123l-3.704,6.338h-0.423l-3.705-6.338v8.123h-0.675v-9.394h0.675l3.916,6.722l3.916-6.722h0.675v9.394
		H130.659L130.659,586.131z"/>
</g>
</svg>
