<?xml version="1.0" encoding="utf-8"?>
<!-- Generator: Adobe Illustrator 16.0.0, SVG Export Plug-In . SVG Version: 6.00 Build 0)  -->
<!DOCTYPE svg PUBLIC "-//W3C//DTD SVG 1.1//EN" "http://www.w3.org/Graphics/SVG/1.1/DTD/svg11.dtd">
<svg version="1.1" id="Layer_1" xmlns="http://www.w3.org/2000/svg" xmlns:xlink="http://www.w3.org/1999/xlink" x="0px" y="0px"
	 width="595.275px" height="595.279px" viewBox="0 0 595.275 595.279" enable-background="new 0 0 595.275 595.279"
	 xml:space="preserve">
<metadata><?xpacket begin="﻿" id="W5M0MpCehiHzreSzNTczkc9d"?>
<x:xmpmeta xmlns:x="adobe:ns:meta/" x:xmptk="Adobe XMP Core 5.3-c011 66.145661, 2012/02/06-14:56:27        ">
   <rdf:RDF xmlns:rdf="http://www.w3.org/1999/02/22-rdf-syntax-ns#">
      <rdf:Description rdf:about=""
            xmlns:dc="http://purl.org/dc/elements/1.1/">
         <dc:format>image/svg+xml</dc:format>
         <dc:title>
            <rdf:Alt>
               <rdf:li xml:lang="x-default">NFL Logo Redesigns</rdf:li>
               <rdf:li xml:lang="en_us">NFL Logo Redesigns</rdf:li>
            </rdf:Alt>
         </dc:title>
         <dc:creator>
            <rdf:Seq>
               <rdf:li>Max O'Brien/Osprey Dawn</rdf:li>
            </rdf:Seq>
         </dc:creator>
      </rdf:Description>
      <rdf:Description rdf:about=""
            xmlns:xmp="http://ns.adobe.com/xap/1.0/"
            xmlns:xmpGImg="http://ns.adobe.com/xap/1.0/g/img/">
         <xmp:CreatorTool>Adobe Illustrator CS6 (Macintosh)</xmp:CreatorTool>
         <xmp:ModifyDate>2013-10-06T23:50:59+13:00</xmp:ModifyDate>
         <xmp:MetadataDate>2013-10-06T23:50:59+13:00</xmp:MetadataDate>
         <xmp:CreateDate>2013-10-06T23:50:59+13:00</xmp:CreateDate>
         <xmp:Thumbnails>
            <rdf:Alt>
               <rdf:li rdf:parseType="Resource">
                  <xmpGImg:width>256</xmpGImg:width>
                  <xmpGImg:height>236</xmpGImg:height>
                  <xmpGImg:format>JPEG</xmpGImg:format>
                  <xmpGImg:image>/9j/4AAQSkZJRgABAgEASABIAAD/7QAsUGhvdG9zaG9wIDMuMAA4QklNA+0AAAAAABAASAAAAAEA&#xA;AQBIAAAAAQAB/+4ADkFkb2JlAGTAAAAAAf/bAIQABgQEBAUEBgUFBgkGBQYJCwgGBggLDAoKCwoK&#xA;DBAMDAwMDAwQDA4PEA8ODBMTFBQTExwbGxscHx8fHx8fHx8fHwEHBwcNDA0YEBAYGhURFRofHx8f&#xA;Hx8fHx8fHx8fHx8fHx8fHx8fHx8fHx8fHx8fHx8fHx8fHx8fHx8fHx8fHx8f/8AAEQgA7AEAAwER&#xA;AAIRAQMRAf/EAaIAAAAHAQEBAQEAAAAAAAAAAAQFAwIGAQAHCAkKCwEAAgIDAQEBAQEAAAAAAAAA&#xA;AQACAwQFBgcICQoLEAACAQMDAgQCBgcDBAIGAnMBAgMRBAAFIRIxQVEGE2EicYEUMpGhBxWxQiPB&#xA;UtHhMxZi8CRygvElQzRTkqKyY3PCNUQnk6OzNhdUZHTD0uIIJoMJChgZhJRFRqS0VtNVKBry4/PE&#xA;1OT0ZXWFlaW1xdXl9WZ2hpamtsbW5vY3R1dnd4eXp7fH1+f3OEhYaHiImKi4yNjo+Ck5SVlpeYmZ&#xA;qbnJ2en5KjpKWmp6ipqqusra6voRAAICAQIDBQUEBQYECAMDbQEAAhEDBCESMUEFURNhIgZxgZEy&#xA;obHwFMHR4SNCFVJicvEzJDRDghaSUyWiY7LCB3PSNeJEgxdUkwgJChgZJjZFGidkdFU38qOzwygp&#xA;0+PzhJSktMTU5PRldYWVpbXF1eX1RlZmdoaWprbG1ub2R1dnd4eXp7fH1+f3OEhYaHiImKi4yNjo&#xA;+DlJWWl5iZmpucnZ6fkqOkpaanqKmqq6ytrq+v/aAAwDAQACEQMRAD8A9U4q7FXYq7FXYq7FXYq7&#xA;FXYq7FXYq7FXYq7FXYq7FXk/5z/mFdaRXR7Gc2oWH19RukJDqhBIRSN1+Ecmpv0982ug00SOOXJw&#xA;9TlIPCGHflZ5Yg816xI+oySRw28QuHRH/euzMAoL9vFqf25m6zUHHAUObj4MYnLd9A2Fhb2Fqlrb&#xA;mQxJ9n1ZJJm/4ORnb8c5+czI2XZxFCkRkUuxVA61rWnaLp0uoahKIreIbnqzMeiqO7HsMsxYpTlw&#xA;x5sZzERZYT5N/N6z1rVZNP1GFLFppCNPkBPFlJ+GOQno/v0PTbvnans8wjxR373HxakSNHZ6Jmtc&#xA;p2KuxV2KuxV2KuxV2KuxV2KuxV2KuxV2KuxV2KuxV2KuxV2KuxV2KuxV2KoDWtd0nRbJrzU7hbeA&#xA;bAtuzN/Kijdj7DLMeKUzURbGcxEWXzF+bOsWHmTUNYvYJfqtvexqkLXJWOhjiVBy3IAJSudBiwmG&#xA;HgJ3dXknxTsMH8lfm1faBKivPJaXkC+j9dgKyI6DajqOQYbe4PXKvFhKPDkFpAINxe1+Vv8AnIW8&#xA;n4/WhbarB+20JEM6jxIFV+jiMql2fjn9BpujqpD6g9Ds/wA4vI06BpbmW0YipSaGQke37oSDMOXZ&#xA;2UchfxbxqoFD6r+dXlC1X/QvW1CQ9PTQxJ9LS8D9ynJY+zch57Ilqojlu8j/ADJ/NaDXTAb30dPg&#xA;sxI0Vt6vJ2L03NePI/DtRc2WnwQwA77lxMuU5OjyLyV5puXv7pdTuiIZvjSSU0RZCfsgnZajoPbH&#xA;T5jZ4ixnHufV/kn839H1CK2sNV/0K7CJGl0zcoZSAByL0HAt77e+YGp7PlG5R3Dl4tSDsdnpGaxy&#xA;3Yq7FXYq7FXYq7FXYq7FXYq7FXYq7FXYq7FXYq7FXYq7FXYq7FXYqpXVzDa2s11O3CCBGllc9kQF&#xA;mP0AYYxJNBBNC3yj+Z/5gavrGpNPBE9xdzlk02xG6wxD9ph08OR7n2zo4YxhgIxFyLq5z4zZ5PNJ&#xA;PL3ncSnUZkhu7nr6c4huKDrQRyq8X0DKZ4Mh3KiYCzTfzG13S7tPrFhp00lsQqiSwtYpo+J6Ryxx&#xA;pJER4rmOQORDYCej1KD84Pym802qxecPLkdpfAUGqaeDb3SmlKiVCC3+yeh8Mj4IG8JV7/1s/Fv6&#xA;h8kDe235fJYvf6R5v1pLNe93a2lwB/k+ozRVP+qDmTA5qvijX48mqXh+bzDWPM99czy/Vr65fT46&#xA;Kpk4RNKxr1WEJxU0rSp+eROaR6o4Qxx3Z2LMak/RlLJn35a6xHoOpwvc2X6Qspykk0MkBkiqpoY5&#xA;FowKurUJptlmnlKQlGQIB6uVqsOPGIShMTJFyH809z1jzX5T8tR6RL5x8jSmHS4Cr695bYk/VkkN&#xA;GuLcHdFQtVlHwcakUpTHFkyYZ8M/pPVx5wjMcUXqv5M+apdU0WXSrp+dzpvH0XJqWgf7I9+BFPlT&#xA;KO0sAjLiHKX3t2lyWKPR6Jmtcp2KuxV2KuxV2KuxV2KuxV2KuxV2KuxV2KuxV2KuxV2KuxV2KuxV&#xA;I/PEE0/k/WI4amQ2spAG5IVakfSBl+lIGSN97XmHoLwPyT5LuvNOrNbQuIIYkD3V0V5FUrRQBtUk&#xA;9BXxzoNTqBijZ5utxYjM09KuvyI0M2hW11G5S8p8MkvptET7oqq1P9lmsj2rO9wKco6MVsXz9+Y3&#xA;kW0trm8TVHW0v9PqJrmKjqwAqKgU5VB26Ht7ZsZxhkhx8nE3iaeXWOpQWEZeG3Sa8JNJ51DiNe3C&#xA;M/Dy71NcwozEeQ3bCLRy6d5t8xMs7pLPH+xJIRHEB/kA8V/4EZZwZMm6LAUfMWizaMLWzmkWSV1a&#xA;ZylaAsePEE9acMjlxmFApibULPSGuJo44r23WST7HxODXw2XY5GOOzzCkrNLtL/Ur1LO3lpNIGKc&#xA;2YA8VLEVFewxhEyNBSael/lXoXnyDzKtiwY6ZdRTQ30LSrIj27xkSrQM1BwrXb8aZZOEowPH9P6e&#xA;iwNyFPSv+cd726Os6aa8vrNgyTn2CK1T/skGHWi8AJ8mWnNZH0bmidi7FXYq7FXYq7FXYq7FXYq7&#xA;FXYq7FXYq7FXYq7FXYq7FXYq7FXYq4gEUO4PUYqkPl/ybpWgalf3em8ootQ4GS1NCiMhYj0z1A+M&#xA;/DmRm1MskQJdGuGIRJI6p9mO2PjX84m1G+n1JY0Z57nUZfVjHWimSTj70KAAZ0c4/uogeX3Opv1k&#xA;l5Z5YtLW71+yt7qnoO/xA9GKqWVT/rEAZi4YgzALOR2fSflnyl5ev/K2qapdajwvbGCZ4NNiKqwK&#xA;JWNm5AllLU+yPpzLzZ5xyRiBsa3RjxxMSSd3hX5mlP0paAfbEFWHsXNP45XrPqCMfJjWivw1W1el&#xA;eMgNPlmNj+oMzyR/kpynmexI/mcb/wCVGw/jlmn+sMZ8n0V+WXq/4guBCoec2F2IYz+0/pHiPpy/&#xA;tH+6+IXTfUhv+cdJYxq+jgtu9i6r7sI6kf8ACnKtX/i4+DPT/wB4+lM0TsXYq7FXYq7FXYq7FXYq&#xA;7FXYq7FXYq7FXYq7FXYqg7/WtH0//e++t7XatJpUjP3MRk4Y5S5AliZgcylTfmH5JVip1i3qPBiR&#xA;94GXfk8v80sPHh3q1t538oXJAi1i0qegaZEP3OVyMtLkH8JSMsD1CcQzQzIJIZFkQ9HQhh94ykgj&#xA;m2Ar8CuxV2KuxV4P+a/kG/tNaudXtbZrjTLt/rDugLejMTyfnTcAt8QPTemb7Q6qMoCJ+oOu1GEg&#xA;2OTx3UPJWmXF79dtybW4J5OoFY2Na1KgqQfdWHj1zKlp4k2NnHEyyW2sb36i1zxLwwlY5ZhUAMw2&#xA;BqzHf55dxAGuqK6vJvP9x6vmWZK1ECRxj/gef63zW6o3NuhySOynWC7imYVVGBIHhlMTRZFE6Dew&#xA;2WsWl1NURRSBnI3IHQ5LFKpAlEhYe0/lv+bHk7SvONhe3129taKXSaV4nIAkjZAfgDnZiO2X6vLH&#xA;JjMRzXCDGQJTD8ptQsbTzlafo+ZZrCDVrm0tZ4yeDwSzukbKTQ8THKOuCuLTEeX7Viayh9UZoXZu&#xA;xV2KuxV2KuxV2KuxV2KuxV2KuxV2KuxVivm38x/L/lwNDI/1vUQNrKEjkDTb1G6IPx9sy9Po55N+&#xA;Ue9pyZ4w97wrzx+fmqOzxTX/ANSjPSwsNpKeDuDy+9gPbNpHT4cXP1Fw5Zpz8g8mv/zRvJJGa1tF&#xA;BJqZJ2Z2Ne5C8f15I6w9A1+H3pa35ieYyahoQPAR/wBTlf5qafDCpD+ZGvIR6kcEo71Rgf8AhWGE&#xA;auXkvhhPNJ/N2a0lEnoz2kg6zWkpDfd8B/4bJ/moy2kEcBHIvRvL3/ORepxcVGspMo/3TqCfrkPF&#xA;v+Hys4NPPy+z9jYM2SPm9H0f8/oJUU3+mh0PWezlDA/JH/5rymfZd/TJtjrO8Mms/wA4/I04BluZ&#xA;rUntNC5/5NeoMxpdnZR0ttGqgUf/AMrP8if9XaP/AICX/mjIfkc381l+Yh3qE/5s+Qoq01IyMP2U&#xA;hmP4lAv44R2fmPT7Qg6mHexbWPzX8iEs1toQ1C47PPDDGp/2REj/APC5l49Bm6yofFplqYd1vJ/P&#xA;n5xQXKG1uDb29sjB00uwjUUZRQF2Hen8zD2GZcI48O9kyceU5T8g8R8wapbapqUl7DbtbmWnNS/O&#xA;pApXoKZjZZiRsBlEUEXL5dF3plvfaO31orGBfWwNZUkH2iF6lT2pkjiuIMd+9HFvuzzylb/l5qd1&#xA;pdhetY2iSemLp7jjGyKo5ShnahLUBoK1J2G+Xylj4NhvX2sYg8Xkk35w6L5IsNdMvlOJ7TT5m4xW&#xA;ju0lVUbyr6haRQzdAxP0dMxpYTCI4j6mwyBJrk7yT510LRY4IoxLZ3EUonE8lJV9UEUbYf5I240z&#xA;IxZYCPCerXKJu30Z5V/PyKa1VtXtxdRsB6d5Y8fi8eSMwWvyI+WY2TswHfGfm5ENXX1B6HoHn7yr&#xA;rrLFY3qi5bpazAxSk+ADbN/sScwMukyY+Y2cmGaMuRZDmM2uxV2KuxV2KuxV2KuxV2KuxVpmVFLM&#xA;QqqKsx2AA7nFXjn5lfnPFbRXFlolwsFtECt1qtevYrD/AM1dT+z45uNLoABx5Pl+twc2pvaL5i8y&#xA;/mDfX0kkWns0EDE87gn99IT1Nf2a/fl+XUk7R2DRGHexAkkkk1J6nMVsawK7FXYq7FXYqqwXVzbt&#xA;zt5nhf8AmjYqfvFMkJEckUmkHnHzLAAEv3Yf8WBZPxcNlgzzHVHAET/j7zP/AMtC/wDItP6ZL81P&#xA;vRwBfbebPOOoXSWttclpZTRESOIdPfj0+nCM+SRoFTEBkdxptpY2yyeZ9ZmndxX6ssrrGfYInxN8&#xA;9syDARHrkwu+QY1da55YV2htdDRrU7c5JHWU07hvi4/ecxpZIchHZmInvSi6OkuC9qJ4T2ik4yD/&#xA;AIMcD/wuVS4ejIWp2FvJc3sNvHy5SuE+GlaE0PUgdMERZpS9g8o+RvKmoajpVhc2aPBc3MNvPIGq&#xA;5SSQKx5qSK0OZ88UY4yQNwC1RJMgEk/Pn8rv8CeblSyWVvL+oxiTTZpWMhUoAssBc0qYzuP8kr75&#xA;qsWTjG/NyskOEsR0fW/L2myJK+jDUZFNW+ty1Q+3phKU+nMqM4Do0kFnOga1+WV8BF+jG0yeQkt9&#xA;UvLu1m5N/IZJLi3+Q9PLIwifpkYlBl3i2SahoOo6dpk2uaFeya9o1iPU1K0nRYtTsoh/u34P3dxG&#xA;v7TrQjuAK5Lx54zWTkeq+GJC4vW/yc/MyTVxDo9/P9Z9WMvpt6xqzhRUxuTuTQVBO+1DmJrtLEDx&#xA;IcurkafMSeEvWs1TmOxV2KuxV2KuxV2KuxV2KvDvzi/NSAxXOl2Nx6Wl21Rf3Sn++Yf7rSnVQdv8&#xA;o+3XdaLSiA8SfNwNRm4jwxfLPmTzNd61cksTHZof3FvXYf5TeLY5sxmfJrjGklylk7FXYq7FXYq7&#xA;FXYq7FXYq7FXpP5d6THbaW+pSqBLckhXPaJDTv0qwJ+7NjpYVHi72nId6YLrmoy6jqlxdSNyDuRH&#xA;vUBAaKB9GYWSfFIlsiKCAytk7FVezjunuYxaxtLOGDIip6hJG/2aGv0jJRBvZBZLc+YfzCsEWe4e&#xA;a3QEcZTBEAD23CbHMiWTKBv9zARi9JsvzOt/P3l5PLnm+Rr6KitQcEu4ZU6T28xU8zStVetQSDTr&#xA;kY4Mc94+mf2MzlkNpbhh3mX8l9fsrWTVPLkg8x6KlTJJaoRdwD/l5td3X/WTkvvmPK4GpCizEbFj&#xA;d54QQaHrixem/lL5+1DTdVgt2k5ywgm39TdZI6Ukt3H7Sslfo+jMvERkiccmBuJ4gy3T/R8r+cbm&#xA;LR6jToJotW0QGtBbXJ5+jv2ilV4m+WT04MoSxy6bLkNSEg+sbS6hu7WG6hPKGdFljbxVwGB+45z0&#xA;okGi7MGxargS7FXYq7FXYq7FXYq87/N3zudH079EWUnHUL5CZpFNDFAdia9mfcD2r7Zsuz9Nxy4j&#xA;9IcXU5eEUOZfG3nPzK2rXvoQN/oFuxEdOjt0Ln/jX2+eZeozcRocnFhGkktNN1C8NLW2ln8TGjMB&#xA;8yBlEYE8gyJTFfJvmZhUWD0PiUH62yz8vPuRxhQufLOv2wLS2EwUdWVeYHzK8sBwzHRRIJaQQaHY&#xA;jqMrZNYFdirsVdirsVdiqJ0/T7rULyO0tl5zSmg8AO5PsMlGJkaCCaer3ltp1noMWmXLv6ZiWFY4&#xA;K+rLxAqEVak8u/45tJACPCWgc7YM3kTWLidmtLZre1P939bkT1Kf5QStPuzC/LSJ2G3m2cYREf5Z&#xA;6yaepcW6DboXY/8AERkho5d4XxAmdt+WlhChkv713VRVhGBGB8y3PLBpAOZYnInvljTdEtrFLvTY&#xA;uC3K8jI55PTwJPT5ZfhhEC49WMieq3zLNDNpNykXp3FI39RAOZAC1/ZdWXp1APyxzEGJWPN5Ijuj&#xA;h0Yq6mqsDQgjuCM1TkPRPI/5pajpt7D9ZuXt7lDSHUYzxI9pR0IPc9PHMuGYSHDPcNfCQbi9cuNM&#xA;/LL8xh6Xmi0TRfMUo/deYLDjCkzHoZ13jJPcsPky5j5tJPHvDePc3QyxntLYsA8xfkF5q8ja1Fqd&#xA;yzal5dt3Eo1WyQkoF3H1mKpeJf5mHJad8r02eJkL2XLikB3qXmLUprKfTtWCevZ28clrdSKeRW3l&#xA;dZEKj+VZOTf7L3zZz9MuMcjz/W4w3FPf/wAmvP8AFf2kOgXcoaSOMNpk4O0kIFfT+aruvt8s1vaG&#xA;mr95HkebmabLfpL1TNU5jsVdirsVdirsVQ+o39tp9hcX1y3G3to2llPfigqae+ShAyIA5lEjQt8f&#xA;fmVr+ta/qE8dspfUdWdmlIPww24+GhbstKIPb3zo5Q4IDHF1JlxHiKD8n/lQLm5SGK1fVtQO5QL+&#xA;6T3IPw093NMHhY8YuZSDKRoPa9D/ACH1J4kOp3sVigApb26+qwH8pNURformNk7UiNoi2+OkJ5lk&#xA;cf5FeVgoEl7fM/cq8Kj7jE368xz2pk7h9v62z8nHvKC1H8hrBkJ03VJY3FeK3CLID4Asnp0+7Jw7&#xA;VP8AFFjLRjoXkX5hflJc2LcNZtApkPGDU7fdWIHTlQf8C4zOhPFnG3P7XHlCWPm8P1vRbzSL1ra5&#xA;FR1ilH2XXxH8RmHkxmBosgbS/K2TsVdirsVdir0/yFoKWWmLfyLW6vFDA/yxHdQP9b7RzZ6bFUb6&#xA;lonKyySZrS3D3UxSIAASTOQKKOgLHtmQaG7Bimr/AJj2EBaLTojdONvVaqR/R+034Ziz1YHLdsGP&#xA;vVfJtvrfnO6K6hr48v6ezrDFNDbtMzzOyoqIiMj9ZBX4+lepzC1GslCHETtdOfoezp6iRjAWYxMj&#xA;7gyXVf8AnGDzbaXPPWvNWkQWdTxnnnuDMV8RE8YqfYPlEcxnyBLUcXDzIDMPJP5P/kPp5WLWNcfX&#xA;b00DiczWVpy8VVOH/DSsMZ489fTQTHw+96Xqf5L/AJKy6Z6l1odjbWXEEXccjW9A3RvWR0rWvc5i&#xA;Rnkuhdt5hCnjHmr/AJxx8jz3JPlHznZwliaWWozRulT2W4ipt4AofnmVHxa3ifk0GMOkglM//OLe&#xA;q6PpdxqvmjzLYWGnxBfSnso570MzkKobktqEUk/aqcpyauMRZDl6Ps3LqJiEN5FiX17VvI3mC68r&#xA;eYf3kdmyqsyBjxSRRJG6hgrcGRg1COQ8O2bPTaqgL+l1uXCQSOoe0/l1+cMunQpbTTDVNE+yArBp&#xA;YR4IT2/yG+imS1Gjhl9UfqTizmGx5Jt5/wBB/LbUdAm1fy/c2dvcOS9xp6uE9ZZdnX6uxBRv2vhU&#xA;A718cq0ZywlwTB4WeYQI4ond415Tub7y/rrabDIyi2IvdJnrUqgcVTf+VszYRq4Hk4xPUPsbQdUX&#xA;VdFstSUcfrcKSlB+yzCrL9B2znMsOCRj3O2hLiAKOytk7FXYq7FXYq82/O7X/qmhW+kRNSXUH5Sg&#xA;f75hINP9k/H7jmz7MxXMy7nE1c6jXe838h+QrvzRqLMP3Gnw8ReXgA5UFSI0r1bf5Dr7HZarVDEP&#xA;6RcXDhMz5PoLRNB0nRLFbLTbdYIV3am7O38zt1Y/POey5ZTNyLs4QERQR+VsnYq7FUNqOnWWpWU1&#xA;jexLNbTqUkjbuD3HgR2OShMxNjmiUQRRfJ/5u+QJbKe90lgZJrb/AEjTpqbvGRVf+CA4n/KGdCJD&#xA;Pi4hz/S6uUeCVPB8wGx2KovT9LvtQkKWsRfgKyOaKiDxZjQDJxgZckE0uurewtj6az/W5hszRDjC&#xA;D7M3xP8AcPnjIAeahB5BL1jSNbRvLEE1kgvLu3t0VrSNgH5IAp26jx6ZtYZPRtuaccjd5zret6tq&#xA;dyTfuw4H4behVE+Snv8APfNfkySkd26IAQi2Ny1o95wK2yEL6rbBmP7K+J77ZDhNX0TaaaD5u1TR&#xA;YHhthG6M3qJ6gJKORTkpBXtko5KFEAjzZRnKJuJMT5GkNceZ/MVxO80up3RkkJZiJnAqfYHHxZd7&#xA;DhCJ0bUtZvtVtLSXUbsxTSqkgE8leJPxd/DJ45ylICyggAPp1tOCf841eYIbTlGYlmnDBiXrDKkh&#xA;PNjyrROtcxtV6c4pyMW+IvlUa9rgAA1G6AHQCaT+uXeLLvLRwhk/lT84vPvluKS3ttQN7YS/asdQ&#xA;H1qEEGvJEl5cW9xlU4xn9QtuxZp4zcCY+5jnmTzFqvmPWrrWdVl9a/u2DSuBxX4VCqqqNgqqAAMO&#xA;3RrJJNlCW9xfWUiT28kkDsKpIhK1HzHUZIEjcI5s78o+cdUvpzbX0SywxoXlvRRBGoFayfs7+1Mz&#xA;sGeUjR+bVOACZabqNtq/mUXdmS9tbWbI70I/eSS7Lv8A5K1yyExOdjkAgig+vvIUEkHkzR45BRvq&#xA;sb09nHIfg2c/qzeWXvdphFQCfZjtjsVdirsVdirxHU9J1D8wvzAu/q5K6RYuLZ7v9lIoyQeHYs7c&#xA;iub2GSOnwi/qO7r5ROWfkHsWkaRp+kafFYWEQhtoRRVHUnuzHuT3OaXJkMzZ5udGIiKCMyDJ2Kux&#xA;V2KuxV5v+dfls3uiw6zAlZ9OPGenUwSHr/sHp95zZ9mZuGXCev3uJq4WL7nyBr2gWVn5naG7YwWF&#xA;+S8FwvSNmPcHaitsfY5l5cQE6PIuLGWyMf8AL6ysUa71PUwtlHuxROLMPAEltz7A5P8AKiO8jsjx&#xA;L5JHrGvi4iGn6dH9T0qM/DCv2pD/ADynuTlGTLew2izEe9JcpZOxVfFNLDIssLtHIu6uhKsD7EYQ&#xA;aQnUPm6/JX69b22o8PstdRKzgezCh+/LhnPUAseBD675hu9Xkj9RVht4Rxhto9kXxPzyOTKZpjGk&#xA;qypk7FU98kRep5nshTZS7H/YxsR+OX6cesMJ8n1Z5Lg/SP5Lec7HdyyahCqkV4s2nxsvEH3avzzF&#xA;15/f/JydP/dl8bZNpdirsVZP5P07W7wS/VBA9krATR3i+pCWI6hKH4gPCmZOCEjyqvNrmQz7SPIt&#xA;zqMiWfpvqDE8l0+0i9KAHxMUW7U8XOZRhGIuZ2+QYAknZ675Q/Iy+EsTausWn6eh5NZQFTI/+T8H&#xA;wID3IJP68w83aMIisY3+xyMelJNye2xRxxRpFGoWNAFRR0AAoAM0pNuwXYFdirsVdiqhfw3E1lPD&#xA;bS+hPKjJHMRXgWFOYHcr1AyUCAQSgjZD6FoenaHpkOnafHwt4h1O7Mx+07HuxyWXLLJLiKIQERQR&#xA;+VsnYq7FXYq7FXYqp3NvBc28tvOgkgmRo5Y26MrChB+YwxJBsIIt8yfmp+VjafK9tdRtLpMzk2F8&#xA;v2lJqQjGmzgdv2hv8uhw5oZ4UfqdZkxnGfJ8/a5BPZ38unPcvcRWjcIy9QBsOiktTMXICDV8kx70&#xA;uytk7FXYq7FXYqnOoaLJFoGm6qi/BMHjn9mEj8D9KCn0ZdLHUBJiDvSTZSydirKPy6i5+YuVP7qF&#xA;2+8hf+NsytIPW15OT6x/IqOPUPJfmK0Owk1Oe3kruPisbYfqbMDtA/vXM0v0PihlZGKOCrKSGUih&#xA;BHUEZa463FV0cbySLGilnchVUdSSaAYQEPpD8l/IEd5f2enTJzs7NfrOpN2dq/Yr/lN8P+rmZqMn&#xA;gYtvqLHFDjn5Ppaw0zTtOh9CwtYrWH+SFFQGnjxArmgnOUjZNuzEQOSJyKXYq7FXYq7FXYq7FXYq&#xA;7FXYq7FXYq7FXYq7FXnf55qx8o2pAqFv4yfYejKP45suy/7w/wBX9IcXV/T8XxV5uBHmS/B2/e1+&#xA;8A5kZ/rLjQ5JPlLJ2KuxV2Kq1naT3d1FbW685pmCovuf4ZKMSTQQS9i/Qlo2hrpEo5QCJYi3Q1Uf&#xA;bHvy3zbeGOHhce97eN3EQinkiDcxGzKG6VoaVzUEUXIU8CWZ/ljFXUryX+SEJX/WYH/jXMzRjctW&#xA;Tk+pP+ccG5eWfMRpT/c7MPus7QZrO0P70ubpfofH3m6z+pea9asqcfqt/cw8dxT05mXvv2y6J2DR&#xA;LmlOFDL/AMuNMtrnUpruY1ezCmKOm3J6jl/saZl6SAJvua8h2fav5Z+Vo9A8txcwDe3wW4unH+UK&#xA;olfBFP31zWa3P4k/IOdp8fDHzLLcw292KuxV2KuxV2KuxV2KuxV2KuxV2KuxV2KuxV2KsO/NqwN3&#xA;5GvSoq9q0dwo9lcBj9CMczez51lHm0akXAvib8w7RofMLzU+G5jSQH3UcD/xHNhqo1P3uDjOzGMx&#xA;mx2KuxVcqs7BEBZmICqBUknoAMKvT/JnlQaXCLy7UHUJV+z/AL6U/sj/ACj3P0ZstPg4dzzaJytl&#xA;GZLB4fqUXpajdRUp6c0i0+TEZpZiiXJHJDZFLPvyvipHqMviYkB+QYn9eZ+jHNqyPpb/AJxrkQ+W&#xA;/MkYPxrrszFfANaWwB/4U5qdf/elztL9D5d/OSz+qfmp5qipTlqVxNTf/d7mXv8A6+WYz6Q0ZPqL&#xA;DcmxZ5+V0ZrqMvb90o/4cnM7Rjm1ZH3bpsTQ6daxPs8cMaN81UA5z8zciXaxGyIyKXYq7FXYq7FX&#xA;Yq7FXYq7FXYq7FXYq7FXYq7FXYqoX1nBe2VxZzisFzG8Mo/yXUqfwOSjIxII6IIsU+MvzX8pXcAu&#xA;bd0re6RK4YAfaj/aI9iAHHtnRZayYxIOqA4ZUXkWa9tdirsVeh+QfLCRQpq92tZpBW0Q/sof2/m3&#xA;b2zYabDQ4i0zl0ZtmY1uxV4hqkgk1O7kBqHmkYH5uTmmmfUXJHJC5BL0r8s4uOjXEnd7gj6FRf65&#xA;sdGPSfe05Ob6A/5xlflpPmo0p/uZcfdBEM0+v/vC52l+l4H/AM5JWf1b85NeI2ScWsy9T9q1iDdf&#xA;8oHJYD6Q15vqeY5a1s9/K6QcdRj71iYf8OMztGebVkfd1nP9Ys4J619WNHr/AKyg5z8hRIdqDYVs&#xA;il2KuxV2KuxV2KuxV2KuxV2KuxV2KuxV2KuxV2KuxV5x+bXkKTV7ca1psXPUbZONxAo+KaIdCB3d&#xA;PxHyAzZ9n6vgPBL6S4mpw8W45vkvzZ5FnhmkvdKjLwsS0tqo+JD34DuPbtmdm03WLiRn3sKIKkqw&#xA;oRsQeoOYba1gV7dpU8E+m2stuQYWiThTsKUp9HTN1AgxFOMeaLySEFqmqWen2ss08yRsqMyIzAFi&#xA;BUAA9a5CcxEbpAt4oSSancnqc07ktYFeq/l/Fw8tQt/v2SRvubj/AMa5tNKPQ0ZOb3P/AJxh/wCO&#xA;P5r/AO23J/yZjzSa/wDvC5+l+l5B/wA5aWnofmnFL/y1aZby9fCSWL/mXjp/pY5/qeLZe0st/La6&#xA;EetywE0E8J4jxZCD+quZekPqpryDZ9y+Qb8X/k3SLgGpFusLH/Kh/dH8UzUauHDlkPN2GE3AJ/mO&#xA;2uxV2KuxV2KuxV2KuxV2KuxV2KuxV2KuxV2KuxV2KuxVg/nL8qdG1+R720YafqT1LyItYpG8ZEFN&#xA;z/MPprmfptfLHsd4uPl04luNi8R84/ktqsLO+paQblB0v7QF9vEsnxgf64zZxz4cvv8AkXDlinB5&#xA;reflhblj9UvXjp+xKgf8VKfqwy0Y6FgMinZ+SfNNjVbLVUhQmvFWkAPuVoRgjp5x5FJmD0RB8o+a&#xA;7iou9dYIeoQyEU/1aoMl4GQ85I4x3JX5m8p6boukG5eeW5vZpFjjZiAoJ+JjxG/RT1OV5sAhG+ZZ&#xA;RkSWHZhtjsVeweT4vS8tWC9KxlvD7bFv45tsAqAcefN7R/zjLyXTvNicKRjVyyvXqzQRlhT22+/N&#xA;Fr/7wuw0v0vPP+cx7Ph5o8vXn+/rGWGu3+6peXz/AN24NMdijUcw+esyGhMfL199R1uzua0VJAH/&#xA;ANR/hb/hTlmKXDIFjIWH2p+Rmr+vod7pbmr2UwlT/jHMOg+TIx+nK+1MdTEu9yNJKwQ9MzVuW7FX&#xA;Yq7FXYq7FXYq7FXYq7FXYq7FXYq7FXYq7FXYq7FXYq7FUBf6BoeoEm+0+2umP7UsSO33kVyyGWce&#xA;RIYmETzCUy/lt5GkNW0iEf6pdP8AiLDLhrco/ia/Ah3K9t5C8mW7Bo9GtSR09SMSdP8AX5ZE6vKf&#xA;4ikYYDo+TPzm0o26ahAF4iw1BxQCgCh2jFPb4hm7ynixA+51wFTIeP5gNrsVe16JF6WjWEfdLeIH&#xA;tvwFc3OMVEe5xjzew/8AONH/ABy/NX/bYP8A1DRZz/aH94XY6X6WJ/8AOZlnysPKt4B/dS3kJO3+&#xA;7FhYe/8Aus5DTHmnUdHy/mU4yL0m3NzqlpbgV9WaNT8iwrk4C5AIPJ9ofkLaFbPWLsjaWSGJT7xq&#xA;zH/k4MHast4ht0Y2JerZqXNdirsVdirsVdirsVdirsVdirsVdirsVdirsVdirsVdirsVdirsVdir&#xA;sVfOf59+WSddv0C0i1a3E0R7CVV4H/h0DH55v9FLjw8Pds63UDhnb5cZWRirCjKaMD1BGYqWgCSA&#xA;BUnYDFXusMYjiSMdEUKPoFM3QDivW/8AnGy3ePRfM0pI4ya06gDrVbWBv1OM57tD+9LstL9KVf8A&#xA;OX9n6n5e6XdAVa31WNSdtlkt5q7/AOsq5Tpj6mWfk+Q8zHFZT+XmnG51z6yR+7s0Lk/5b/Co/Wfo&#xA;zK0sLlfc15Ds+2/yr0htM8l2QdeMt5yu5B/xl+x/yTC5rdfk4sp8tnO08agGW5ht7sVdirsVdirs&#xA;VdirsVdirsVdirsVdirsVdirsVdirsVdirsVdirsVdirAvzl8v8A6R8r/X41rc6W/qjxML0WQf8A&#xA;EW+jNh2dl4cldJONqoXG+58XefNLFlrskiCkN2PWWnTkdnH/AAW/05mamHDL3uJA2EhtXjS5ieT+&#xA;7V1L032BqcoHNkXuMM0U8KTRMHikUOjjoVIqDm6BvdxntP8Azj1B6XljWzWpl1iSQ+1bO1H6hnPd&#xA;o/3pdlpfoSX/AJyz1bSrf8uIdNuJANQvr2J7GGgLEQVMr/5IVXpXxIHfKNOPUzznZ8dZmuI9t/Jf&#xA;ye1/JptgVIbUpRPcsOqwAcjv/wAY1qPc5nCXhYTLr+KaxHjnT7DjjSONY0UKiAKqjYADYAZzpNu1&#xA;bxV2KuxV2KuxV2KuxV2KuxV2KuxV2KuxV2KuxV2KuxV2KuxV2KuxV2KuxVSu7WG7tJrWccobiNop&#xA;V8VcFWH3HDGRBsdEEWKfE/5uaFJawypIP3+l3TwSH/JLFG+9lXOi1FTxiQ/FuqiKkQ8rzAbWe/l3&#xA;5g66PcN4vaE/eyfxH05naXL/AAlqyR6vrD8nrrTbLyFc3k0qwQwXE81/NIwCJwRSWJ/ZAjC5rO0Y&#xA;nxfeA5ulPofI/wCbv5iXXnzznd6uxZdOi/0fSrdtvTtkJ4kj+ZzV29zToBkscOEU1ZJ8RYlp9o15&#xA;fW9qvWeRY6jtyIFctjGyA1kvsX8hNDjE9/qnCiW8aWlt4Dl8T0+QVfvyfamSgIBs0kdyXsmaZznY&#xA;q7FXYq7FXYq7FXYq7FXYq7FXYq7FXYq7FXYq7FXYq7FXYq7FXYq7FXYq7FXzp+fPlRjrd6CvG31m&#xA;H1YX/ZEqgK33OoY/PN9opDJh4eo/AdbqI8M773y7NDLBM8MqlJY2KOp6hlNCMxiK2V0E0sEyTRMU&#xA;ljYMjjqCDUHEGt1ej61+b15N+Xj+VbAmE6rMs+quu1FjAUwr7SMoY7/ZFO5yzOROQl1pYEgEPNMq&#xA;Syv8vNJa61c3rr+4sxUHsZGFFH0CpzK0sLlfc15Ds+2fys0R9J8m2iyrxnvCbuVSKEerThX/AJ5q&#xA;ua3XZePKfLZztPDhgy3MNvdirsVdirsVdirsVdirsVdirsVdirsVdirsVdirsVdirsVdirsVdirs&#xA;VdirsVY15/8AKKeZtBe1Si30B9WykPQSAfZJ/lcbH7+2ZWk1HhTvp1as2PjjXV8f/mB5GvHuprmC&#xA;BotSgJS8tGFGYptUD+Yfj+vc5sQmOKLroyrYvNGVlYqwKspoQdiCMwW1rAqYaNol/q90ILVKgU9W&#xA;U/YQHux/hlmPGZmgxMqfR35OfllHfXEMZjP6GsGD3krCnry9eHuW/a8F+jMjU5hghwx+o/i1w4zO&#xA;Vnk+kwABQbAdBnPuzdirsVdirsVdirsVdirsVdirsVdirsVdirsVdirsVdirsVdirsVdirsVdirs&#xA;VdirsVYf56/LjTfM8f1mMi01ZFpHcgfC4HRZQOo9+o/DMzS6yWLbnFozYBP3vmf8wPyvnivZIL+3&#xA;Nhqi7pcAVjlA6Go2ce43H4ZuOGGYcUT+PNwDxQNFguk/l3qU12w1Ii3tozQlCGaT/Up0HufuyqGl&#xA;kTvyScg6Pfvy3/Jqa+t4ZZ4jpmhijKAKTTg915dj/O30VwajWQxDhhvJniwGe55Pe9N0yw0yxisb&#xA;CFYLWEcY416D3JO5J7k5pJzMjZ5uxjEAUETkEuxV2KuxV2KuxV2KuxV2KuxV2KuxV2KuxV2KuxV2&#xA;KuxV2KuxV2KuxV2KuxV2KuxV2KuxVL9c0DSdcsWstTt1nhO612ZG/mRhupyzFllA3EsZwEhRYj5b&#xA;/J7y/pOoSXl251Iq5NpFMoCIvbmu4dh49PbMzN2jOYoelox6WMTZ3Z9mvcl2KuxV2KuxV2KuxV2K&#xA;uxV2KuxV2KuxV2KuxV2KuxV2KuxV2KuxV2KuxV2KuxV2KuxV2KuxV2KuxV2KuxV2KuxV2KuxV2Ku&#xA;xV2KuxViUf5kaazWwfTr2BbtLeaGWYWyRejd8vRkaUz+mnMowCMwfb7OKoE/nF5bEIma1ugjBWQB&#xA;rN2YMqN8CpcMWKiX41G6UJYAb4qjrz8ydMs4BJNp1+HaJ7iKFUhLPFFyErKwl9OkbBFbkw3dP5sV&#xA;Wzfmh5et9RXTbqK4t78LI9xbuIS0KxScC0nCVgQY1knqnL93G1aNRSqh4Pzd8syvahoLuKK6VyLh&#xA;kjaKN0d4/TldJHCsWQAdvjTf4sVTaXznboZjHp15NDDJb27ToIOBnulhaKIBplep+soORXiP5sVS&#xA;tPzb8sm9NhLDdw34vbfTRavGnNp7i4+rNxKuyMsD/wB6wbYUpXktVWa4q7FXYq7FXYq7FXYq7FXY&#xA;q7FXYq7FXYq7FXYq7FXYq7FXYq7FXYqlnme7uLPy1q15bSelcW1lcTQy0B4vHEzK1GBGxHfFXiNv&#xA;5p1Y29peSXGvItz6LyGY3EdgIZ/SK+ndfWvULgXKjkyUdgQFUEHArHF8++fWsruSCW7nuo5UUQS3&#xA;V7DxBQMVRhI9SzkxCoYJx9Rm4OOKhWHn7zxUyCa8tY0t2lSWWe5qaIzK7q080cbmnP035BePBqmR&#xA;MVe4x/8AKseLen+jac05cfT6fsVp/unw/YwpR+o/4L/Rkf1/6n+jvQh9L1eHp+hzX0ONduPPjxxV&#xA;bJ/gz9FSev6H6P8AQn9T1+VPQ5R+v/efFx5eny+jFVG1/wCVefUJvq/6P+p+q31mnp09aknP1e/K&#xA;nqc+X+XX9rFVOH/lWn6Om9H9Gfo70p/X4+l6XpehH9Y5/s8fq/p86/s07Yqsuv8AlWX1h/rX6O9e&#xA;nxc+FeXalf8AdtPs0+OlKbYqiLD/AJV79XH1H9H+j60FPT9P+/8AVi9Gvf1PW9P350rvirJcVdir&#xA;sVdirsVdirsVdirsVdirsVdirsVdirsVdirsVdirsVdirsVSzzR+iv8ADWrfpfl+ifqVx+kePLl9&#xA;X9JvWpx+KvCvTfFXyve/8qg/wRB9c/5WD/gzl/o/qeh9R58mrwr8HKvLlTfrXFU3sv8AlVX6Y0H0&#xA;P8UfXv0X/uE9T9B+l+j/AKlHX+8/c8vq3CvqfvK9fjxVTm/5Uf8A4U1n9If4h/QH6Wn/AEv9Y/Rf&#xA;qfXPWt/rHHh/pXD1PSr6O3WnfFX/2Q==</xmpGImg:image>
               </rdf:li>
            </rdf:Alt>
         </xmp:Thumbnails>
      </rdf:Description>
      <rdf:Description rdf:about=""
            xmlns:xmpMM="http://ns.adobe.com/xap/1.0/mm/"
            xmlns:stRef="http://ns.adobe.com/xap/1.0/sType/ResourceRef#"
            xmlns:stEvt="http://ns.adobe.com/xap/1.0/sType/ResourceEvent#">
         <xmpMM:OriginalDocumentID>uuid:9E3E5C9A8C81DB118734DB58FDDE4BA7</xmpMM:OriginalDocumentID>
         <xmpMM:DocumentID>xmp.did:1712731713206811822A8451A1857300</xmpMM:DocumentID>
         <xmpMM:InstanceID>xmp.iid:1712731713206811822A8451A1857300</xmpMM:InstanceID>
         <xmpMM:RenditionClass>proof:pdf</xmpMM:RenditionClass>
         <xmpMM:DerivedFrom rdf:parseType="Resource">
            <stRef:instanceID>xmp.iid:1612731713206811822A8451A1857300</stRef:instanceID>
            <stRef:documentID>xmp.did:1612731713206811822A8451A1857300</stRef:documentID>
            <stRef:originalDocumentID>uuid:9E3E5C9A8C81DB118734DB58FDDE4BA7</stRef:originalDocumentID>
            <stRef:renditionClass>proof:pdf</stRef:renditionClass>
         </xmpMM:DerivedFrom>
         <xmpMM:History>
            <rdf:Seq>
               <rdf:li rdf:parseType="Resource">
                  <stEvt:action>saved</stEvt:action>
                  <stEvt:instanceID>xmp.iid:F77F117407206811822A8451A1857300</stEvt:instanceID>
                  <stEvt:when>2013-10-06T17:09:14+13:00</stEvt:when>
                  <stEvt:softwareAgent>Adobe Illustrator CS6 (Macintosh)</stEvt:softwareAgent>
                  <stEvt:changed>/</stEvt:changed>
               </rdf:li>
               <rdf:li rdf:parseType="Resource">
                  <stEvt:action>saved</stEvt:action>
                  <stEvt:instanceID>xmp.iid:1712731713206811822A8451A1857300</stEvt:instanceID>
                  <stEvt:when>2013-10-06T23:50:59+13:00</stEvt:when>
                  <stEvt:softwareAgent>Adobe Illustrator CS6 (Macintosh)</stEvt:softwareAgent>
                  <stEvt:changed>/</stEvt:changed>
               </rdf:li>
            </rdf:Seq>
         </xmpMM:History>
      </rdf:Description>
      <rdf:Description rdf:about=""
            xmlns:xmpTPg="http://ns.adobe.com/xap/1.0/t/pg/"
            xmlns:stDim="http://ns.adobe.com/xap/1.0/sType/Dimensions#"
            xmlns:xmpG="http://ns.adobe.com/xap/1.0/g/">
         <xmpTPg:NPages>1</xmpTPg:NPages>
         <xmpTPg:HasVisibleTransparency>False</xmpTPg:HasVisibleTransparency>
         <xmpTPg:HasVisibleOverprint>False</xmpTPg:HasVisibleOverprint>
         <xmpTPg:MaxPageSize rdf:parseType="Resource">
            <stDim:w>209.999929</stDim:w>
            <stDim:h>210.001308</stDim:h>
            <stDim:unit>Millimeters</stDim:unit>
         </xmpTPg:MaxPageSize>
         <xmpTPg:PlateNames>
            <rdf:Seq>
               <rdf:li>Cyan</rdf:li>
               <rdf:li>Magenta</rdf:li>
               <rdf:li>Yellow</rdf:li>
               <rdf:li>Black</rdf:li>
            </rdf:Seq>
         </xmpTPg:PlateNames>
         <xmpTPg:SwatchGroups>
            <rdf:Seq>
               <rdf:li rdf:parseType="Resource">
                  <xmpG:groupName>Default Swatch Group</xmpG:groupName>
                  <xmpG:groupType>0</xmpG:groupType>
               </rdf:li>
            </rdf:Seq>
         </xmpTPg:SwatchGroups>
      </rdf:Description>
      <rdf:Description rdf:about=""
            xmlns:pdf="http://ns.adobe.com/pdf/1.3/">
         <pdf:Producer>Adobe PDF library 10.01</pdf:Producer>
      </rdf:Description>
      <rdf:Description rdf:about=""
            xmlns:xmpRights="http://ns.adobe.com/xap/1.0/rights/">
         <xmpRights:Marked>True</xmpRights:Marked>
         <xmpRights:WebStatement rdf:resource="http://www.ospreydawn.com"/>
         <xmpRights:UsageTerms>
            <rdf:Alt>
               <rdf:li xml:lang="x-default">This work is licensed under a &lt;a rel="license" href="http://creativecommons.org/licenses/by-nc-sa/3.0/"&gt;Creative Commons Attribution-NonCommercial-ShareAlike 3.0 Unported License&lt;/a&gt;.</rdf:li>
               <rdf:li xml:lang="en_us">This work is licensed under a &lt;a rel="license" href="http://creativecommons.org/licenses/by-nc-sa/3.0/"&gt;Creative Commons Attribution-NonCommercial-ShareAlike 3.0 Unported License&lt;/a&gt;.</rdf:li>
               <rdf:li xml:lang="en">This work is licensed under a &lt;a rel="license" href="http://creativecommons.org/licenses/by-nc-sa/3.0/"&gt;Creative Commons Attribution-NonCommercial-ShareAlike 3.0 Unported License&lt;/a&gt;.</rdf:li>
            </rdf:Alt>
         </xmpRights:UsageTerms>
      </rdf:Description>
      <rdf:Description rdf:about=""
            xmlns:cc="http://creativecommons.org/ns#">
         <cc:attributionName>Max O'Brien / Osprey Dawn</cc:attributionName>
         <cc:license rdf:resource="http://creativecommons.org/licenses/by-nc-sa/3.0/"/>
      </rdf:Description>
   </rdf:RDF>
</x:xmpmeta>
                                                                                                    
                                                                                                    
                                                                                                    
                                                                                                    
                                                                                                    
                                                                                                    
                                                                                                    
                                                                                                    
                                                                                                    
                                                                                                    
                                                                                                    
                                                                                                    
                                                                                                    
                                                                                                    
                                                                                                    
                                                                                                    
                                                                                                    
                                                                                                    
                                                                                                    
                                                                                                    
                           
<?xpacket end="w"?>
	</metadata>
<g id="Layer_2">
	<g id="_x37_Wl2mV_1_">
	</g>
</g>
<g id="Layer_1_1_">
	<g>
		<g>
			<path fill="#527ABF" d="M352.708,174.312c2.315-0.908,4.254-1.854,6.176-2.792c1.612-0.787,3.299-1.607,5.179-2.419
				c0-0.461,0.021-0.896,0.062-1.305c0.104-1.009,0.396-3.085,0.781-5.669l-7.135,0.5l4.562,3.043
				c-0.729,0.032-6.015,1.062-6.715,1.062c-2.42,0-4.466,0.489-6.582,0.167c-20.013,1.228-26.412-8.715-26.412-8.715
				c-0.792-0.992-7.648-10.104-4.29-24.552c0.682-2.923,1.576-5.475,2.575-7.688c-2.076-1.538-3.883-3.166-5.538-4.659
				c-3.504-3.158-5.634-3.108-8.431-3.562c-0.487-0.078-0.996-0.118-1.507-0.118c-5.02,0-10.1,1.918-11.64,3.372
				c-8.102,5.847-4.622,16.419-4.622,16.419c-17.669-6.008-11.654-27.259-11.654-27.259c5.455-14.098,16.132-21.287,25.522-24.958
				c-0.479-2.06-0.679-4.322-0.494-6.812c1.002-13.378,10.224-18.775,13.021-20.113c0,0,13.188-4.971,24.498,2.809
				c0,0-17.77-2.075-13.83,14.513c1.104,3.517,9.057,4.336,12.851,5.519c4.125,1.276,8.022,2.487,11.361,4.258
				c3.155,1.672,10.92,3.446,19.087,3.446c5.366,0,8.367-0.771,9.68-1.229c6.599-2.301,13.354-4.019,17.771-5.036l1.24-5.938
				l8.691-8.812l4.186-4.244l5.312,4.237l8.702,8.817l1.333,6.396c5.462,2.212,13.309,6.105,18.306,11.729
				c7.673,8.633,10.349,23.185,10.627,24.812l0.16,0.93l-0.375,21.016c0.866,5.334,3.688,22.692,4.056,26.312
				c0.088,0.891,0.091,1.752,0.006,2.601c0.922,0.314,1.827,0.633,2.697,0.938c4.604,1.61,7.835,3.396,10.103,5.109
				c14.133,1.958,30.831,8.975,37.334,20.896c4.103,7.511,7.604,20.443,8.986,25.94c5.009,5.938,15.418,19.039,17.756,28.016
				c2.927,11.225-1.234,23.864-1.717,25.271l-0.674,1.947l-1.393,1.522c-0.984,1.09-6.019,6.199-14.221,7.5
				c-3.703,1.831-12.778,6.066-22.771,8.895c-3.572,7.729-9.849,20.589-15.354,28.412c0.521,4.429,0.517,11.178-0.864,21.578
				c-0.062,2.88-0.168,23.717,8.877,51.5l0.524,1.604l-0.033,1.688c-0.017,0.802-0.491,19.817-10.158,42.338
				c-8.396,19.562-11.333,34.815-11.355,34.973l-0.085,0.407c-0.225,0.938-5.562,23.229-25.873,38.368
				c-13.729,10.22-20.757,15.099-23.143,16.722l-2.552,1.735l-3.864,2.826l-3.431-2.826l-2.551-1.735
				c-2.374-1.616-9.39-6.479-23.139-16.722c-20.316-15.138-25.653-37.433-25.876-38.368l-0.047-0.208l-0.039-0.212
				c-0.022-0.145-2.957-15.396-11.354-34.96c-8.025-18.695-9.717-34.98-10.068-40.432c-6.328,1.252-14.143,2.241-23.009,2.241
				c-17.785,0-35.085-3.911-51.41-11.625c-21.382-10.102-35.297-29.461-40.247-55.989c-2.121-11.354-2.144-21.705-1.787-28.406
				c-10.52-6.607-16.047-19.722-19.956-29.002c-0.55-1.299-1.062-2.519-1.552-3.618l-0.367-0.831
				c-4.238-9.604-13.061-29.6-46.048-31.044c-1.154-0.053-2.289-0.073-3.412-0.073c-32.917,0-53.677,21.453-53.881,21.672
				L58.135,303.44l18.515-47.505c0.854-2.186,21.489-53.739,78.341-82.354c14.894-7.496,30.188-11.14,46.749-11.14
				c18.601,0,36.396,4.604,53.604,9.06c16.805,4.354,34.182,8.853,51.958,8.853c1.15,0,2.312-0.021,3.472-0.062
				c12.302-0.399,21.08-1.224,27.668-2.292C345.299,176.909,352.708,174.312,352.708,174.312z M366.987,148.831
				c0.491-3.064,0.932-5.752,1.192-7.354l-0.115-6.476c-0.252,0.071-0.503,0.146-0.748,0.21c-5.663,1.596-8.12,2.493-9.622,5.057
				c-0.556,0.941-1.312,2.234,1.396,4.104L366.987,148.831z"/>
			<g>
				<path fill="#FFFFFF" d="M425.957,95.543c0,0-4.724-2.938-4.439,0c0.282,2.942,1.405,5.752,7.866,10.247
					s12.073,8.427,12.073,14.606c0,6.179-3.365,6.18-3.365,6.18s-2.247,24.721,3.365,38.771h6.467l-4.219-24.44l0.562-18.258
					l-1.544-10.112l-5.479-10.395l-9.131-6.604L425.957,95.543z"/>
				<path fill="#FFFFFF" d="M431.038,171.384c0,0-3.062,7.589-11.351,10.678c0,0,5.359-7.391,5.056-14.471
					C424.44,160.511,431.038,171.384,431.038,171.384z"/>
				<path fill="#FFFFFF" d="M463.369,187.811c0,0-1.546-0.415-5.896,1.13c0,0,13.949-0.511,26.967,7.021
					c13.023,7.534,22.268,34.271,22.268,34.271l0.635-4.775l-6.462-19.521l-4.92-7.729l-11.652-7.727l-18.54-3.935L463.369,187.811z
					"/>
				<path fill="#FFFFFF" d="M425.362,189.644c0,0-2.584-0.422-2.725,3.647c-0.146,4.072,0.058,7.584,1.355,9.129
					c1.312,1.549,4.116,3.516,7.91,3.937c3.791,0.421,5.479,2.811,7.443,4.213c1.966,1.405,24.158,14.749,36.801,24.02
					c12.64,9.271,22.19,16.995,26.403,18.54c4.214,1.545,6.745,1.405,8.708,0c1.969-1.4-3.288-6.793-6.949-10.396
					c-3.658-3.604-31.813-20.801-31.813-20.801l-33.009-17.965l-7.438-11.803l-2.272,0.163
					C429.777,192.334,428.791,189.502,425.362,189.644z"/>
				<path fill="#FFFFFF" d="M369.914,247.381c0,0-4.957-0.853-5.896,4.021c-0.938,4.869,2.623,5.431,4.684,5.807
					c2.062,0.375,7.304-1.125,17.042-3.934c9.738-2.812,18.577-1.445,27.089,4.495l-0.999,204.562l3.896,23.29l26.575-36.456
					L422.6,260.015c0,0-2.021-3.371-4.08-4.12c-2.062-0.75,7.306-2.812,17.229-2.438c9.931,0.374,16.537,6.559,16.537,6.559
					s5.831,2.851,10.062,0.562c4.224-2.289,3.74-7.432,0-10.487c-3.741-3.058-5.243-2.718-8.239-2.765
					c-2.995-0.045-18.167-1.729-18.167-1.729l-11.798-3.562l-10.127-2.246l-16.098,2.622l-18.541,4.494L369.914,247.381z"/>
				<path fill="#FFFFFF" d="M378.804,99.68c0,0-17.521,9.217-34.935,2.209c-16.257-6.544-29.962-8.139-38.62-3.014l1.468-3.888
					l16.909-2.827l3.186-3.711l19.438,5.781l9.723,3.938L378.804,99.68z"/>
			</g>
			<path fill="#04203A" d="M320.044,66.374c0.271-0.125,0.436-0.188,0.436-0.188S320.304,66.248,320.044,66.374z"/>
			<path fill="#04203A" d="M412.401,275.462c0,0-2.688,41.575-2.404,106.473c0.279,64.89,1.904,81.184,1.904,81.184
				s2.589-34.834,2.028-81.466C413.366,335.017,412.401,275.462,412.401,275.462z"/>
			<path fill="#04203A" d="M526.572,252.896c-2.245-8.614-17.229-25.844-17.229-25.844s-4.12-17.604-8.614-25.849
				c-4.495-8.241-18.729-14.979-32.964-16.104c0,0-1.496-2.622-8.986-5.244c-7.494-2.623-17.604-5.991-17.604-5.991
				s8.617-2.248,8.241-5.994c-0.375-3.745-4.122-26.594-4.122-26.594l0.376-20.975c0,0-2.248-13.11-8.239-19.854
				c-5.994-6.742-19.479-10.862-19.479-10.862l-1.875-8.983l-3.683-3.731l-1.122,0.001l-3.688,3.73l-1.874,8.983
				c0,0-1.196,0.37-3.021,1.06c-2.84,0.595-11.657,2.544-20.021,5.459c-10.131,3.534-28.738,1.414-36.754-2.827
				c-8.011-4.24-25.68-5.889-28.979-15.313c-2.796-7.98,1.67-10.887,3.104-11.59c-1.521,0.729-6.741,3.789-7.344,11.824
				c-0.707,9.425,8.479,12.251,8.479,12.251s-25.685,0.473-34.162,22.384c0,0,9.896-9.66,21.676-7.771
				c11.78,1.885,15.312,13.896,27.562,16.021c0,0-5.648,3.771-8.01,13.899c-2.354,10.13,2.358,16.02,2.358,16.02
				s-2.356-5.419,0-10.603c0,0,5.649,16.964,27.096,16.021c0,0-11.546,0.476-12.369-11.31c0,0,2.476,7.304,8.604,6.832
				c0,0-11.073-6.833-4.716-17.67c6.36-10.837,19.561-8.015,27.1-14.843c0,0,2.056-14.058,11.062-22.009c0,0,3.305-3.6,14.896-6.623
				c-4.404,1.688-11.955,5.062-16.036,9.65c-5.99,6.741-8.24,19.854-8.24,19.854l0.376,20.975c0,0-3.746,22.849-4.12,26.594
				c-0.289,2.899,4.793,4.896,7.109,5.651c-24.101,4.265-16.553,14.102-70.096,15.858c-53.724,1.771-97.541-34.983-151.612-7.771
				c-54.07,27.212-73.508,77.042-73.508,77.042s24.734-26.505,65.021-24.737c40.288,1.771,50.896,28.271,55.136,37.813
				c4.236,9.542,10.247,27.566,22.971,30.393c0,0-9.188,60.438,35.692,81.643c44.884,21.204,83.402,4.234,83.402,4.234l0.21-0.062
				c-1.006,3.88-2.175,7.938-3.548,12.16c0,0,0.342,17.604,9.35,38.577c9.01,20.976,12.006,37.082,12.006,37.082
				s4.486,19.476,22.097,32.586c13.453,10.019,20.305,14.776,22.788,16.474h1.122c2.479-1.689,9.337-6.455,22.788-16.474
				c17.604-13.11,22.096-32.586,22.096-32.586s2.999-16.106,12.005-37.082c9.004-20.979,9.352-38.577,9.352-38.577
				c-10.485-32.213-9.352-55.438-9.352-55.438c2.643-19.477,0-23.223,0-23.223c6.382-5.993,19.084-34.46,19.084-34.46
				c13.484-2.997,26.975-10.112,26.975-10.112c5.988-0.374,9.732-4.494,9.732-4.494S528.819,261.511,526.572,252.896z
				 M351.727,116.55c-10.982,2.289-14.979,10.482-15.869,12.686c-0.134,0.353-0.211,0.56-0.211,0.56s0.072-0.211,0.211-0.56
				c0.629-1.646,2.601-6.625,4.736-10.207c1.653-2.775,5.65-5.874,11.119-7.312c6.488-1.695,8.142-3.646,8.142-3.646
				s-11.588,2.207-26.844-5.922c-13.725-7.312-27.762-3.271-27.762-3.271s7.951-7.736,29.688-2.364c0,0-4.594-3.109-8.48-3.993
				c0,0,10.589,0.086,17.852,3.004c7.253,2.915,8.654,4.771,19.609,5.479c10.956,0.707,14.89-1.315,14.89-1.315
				S364.45,113.899,351.727,116.55z M425.383,109.021c0,0-4.219-1.826-6.742-4.495c-2.526-2.669-4.773-7.021-4.072-10.814
				c0.701-3.792,4.495-1.544,4.495-1.544s11.798,4.773,17.697,11.521c5.896,6.742,6.18,17.417,6.18,17.417l-0.701,19.94
				l3.791,22.332c0,0-0.139-0.697-8.986-2.389c-8.853-1.686-15.448,0-15.448,0l-2.106-39.048c0,0,9.978,3.372,14.188,2.528
				c4.212-0.846,4.489-5.197,4.489-5.197c-3.093-6.039-11.52-7.021-11.52-7.021s-7.311-0.422-14.812-0.422
				s-15.038,0.844-15.038,0.844C411.052,109.021,425.383,109.021,425.383,109.021z M398.553,177.089
				c5.337,4.44,9.825,5.25,9.825,5.25s0.984,1.825-3.646,2.247s-12.079-3.09-13.903-7.439c-1.827-4.354,2.812-7.584,2.812-7.584
				S393.214,172.648,398.553,177.089z M407.261,173.491c-0.984-4.636,4.567-6.182,4.567-6.182s6.662,0.143,14.246,2.249
				c7.587,2.104,9.559,5.191,9.559,5.191s0.275,4.641-1.688,7.023c-1.966,2.388-5.759,3.934-5.759,3.934s-5.477-3.229-8.854-4.635
				c-3.368-1.404-9.688,0-9.688,0S408.245,178.125,407.261,173.491z M394.9,123.629c7.372-0.092,11.519-2.524,11.519-2.524
				l-0.843,39.89c-2.104-2.387-2.104-7.303-2.104-7.303s0-20.933,0-25.146c0-4.213-3.229-2.81-3.229-2.81s-5.618,0.562-9.131,0
				c-3.511-0.562-3.932-2.812-3.932-2.812S387.529,123.72,394.9,123.629z M382.493,173.866c0,0-0.255,0.085-0.672,0.224
				l-0.177-0.476C382.164,173.779,382.493,173.866,382.493,173.866z M300.232,252.99c2.669-8.007,16.435-23.879,16.435-23.879
				c1.27-7.021,6.186-20.085,6.186-20.085s4.488-9.551,14.323-15.729c9.83-6.182,22.476-5.759,22.476-5.759s0.28-3.229,9.271,0.842
				c8.987,4.073,20.229,6.321,20.229,6.321c-8.854,0.981-21.354-1.688-24.726-2.67c-3.364-0.982-9.974,3.651-12.5,4.916
				c-2.522,1.266-7.861,1.687-12.502,7.165c-4.634,5.478-4.634,13.905-4.634,13.905c-2.67,2.388-5.619,7.304-5.619,7.304
				c5.762-0.422,12.225,3.935,12.225,3.935c-10.814,2.812-20.084,12.358-20.084,12.358c13.198-9.69,30.479-9.833,42.417-10.814
				c11.938-0.979,19.521-4.49,25.703-5.056c6.181-0.562,9.132-4.354,9.132-4.354s2.943-4.915,12.72-4.64
				c0,0,9.854-0.887,10.894,6.274c0,0-3.104-2.624-5.354-1.359c0,0,4.628,0.28,6.392,2.812c1.76,2.522,0.655,4.916,0.655,4.916
				c-3.116-3.629-7.469-1.966-7.469-1.966s3.794-0.428,6.041,1.684s1.449,5.574,1.449,5.574c-2.197-2.522-7.49-2.062-7.49-2.062
				s3.09,0.422,6.041,2.528c2.948,2.104-0.141,5.058-0.141,5.058c-0.896-2.523-3.938-2.104-3.938-2.104s-8.427-1.404-13.623,0.562
				c-5.195,1.966-11.521-0.275-11.521-0.275c-3.089-1.124-2.387-8.011-2.387-8.011c-2.247,3.371-3.093,7.584-3.093,7.584
				s-25.562,2.527-45.929,11.938c-20.365,9.411-30.766,18.54-30.766,18.54c3.937,5.197,17.562,8.569,17.562,8.569
				s5.059,0,11.232-3.653c6.184-3.651,9.135-7.163,9.135-7.163c-2.248,9.27-10.957,16.854-10.957,16.854
				c-12.781,0.146-30.064-8.984-30.064-8.984c-3.939,0-6.875-3.09-6.875-3.09S297.562,260.996,300.232,252.99z M231.044,295.054
				c-9.542-0.707-14.485-18.382-14.485-18.382s10.397,16.971,30.393,0.536c19.991-16.43,49.438-17.854,49.438-17.854
				C260.689,262.188,240.586,295.761,231.044,295.054z M350.323,380.673c-2.882,1.277-8.7,3.062-21.03,5.211
				c-24.386,4.235-32.515-1.413-31.101-15.903c1.413-14.489,27.212-31.453,35.688-48.771c5.561-11.346,4.596-23.296,3.269-30.188
				c3.757,8.069,12.349,25.833,17.237,30.423c0,0-2.644,3.746,0,23.226C354.386,344.661,355.084,358.954,350.323,380.673z
				 M462.215,263.57c-5.243,1.687-9.362-1.124-9.932-3.558c0,0-5.213-1.372-16.665-0.938c-6.801,0.257-14.797-1.124-14.797-1.124
				l17.231,191.021L412.83,490.36l-26.22-41.387l17.229-184.896c0,0-0.188-2.012,4.312-3.696c4.495-1.686,4.684-2.617,4.684-2.617
				s-12.355,2.242-23.785,1.312c-11.423-0.938-16.667,0.938-16.667,0.938c-0.562,2.434-4.681,5.239-9.927,3.558
				c-5.243-1.688-4.494-8.054-4.494-8.054s0.938-6.366,6.186-8.056c5.239-1.688,8.235,1.312,8.235,1.312s7.575,2.343,18.021-1.825
				c10.444-4.169,15.004-5.665,21.433-5.854h0.999c6.432,0.188,10.985,1.685,21.436,5.854c10.447,4.167,18.021,1.825,18.021,1.825
				s2.998-2.997,8.241-1.312c5.243,1.688,6.186,8.056,6.186,8.056S467.456,261.885,462.215,263.57z M522.435,270.265
				c-0.562,1.4-3.793,2.104-3.793,2.104c0.845-1.968,0-4.916,0-4.916c-5.479,11.938-23.455,14.326-23.455,14.326
				c-9.553-3.652-14.749-12.5-14.749-12.5s11.378,9.41,19.667,7.304c8.282-2.104,11.516-8.708,11.516-8.708
				c-5.612-4.354-26.969-12.357-33.008-15.591c-6.041-3.229-17.838-16.293-23.598-20.508c-5.76-4.212-21.069-15.449-24.021-16.713
				c-2.943-1.27-5.613-7.021-6.602-8.146c-0.983-1.124-5.765-0.979-8.007,0c-2.247,0.982-2.946,0.562-5.116,0
				c-2.17-0.562-7.383,0-7.383,0s-0.146-2.81,2.522-4.354c2.669-1.544,6.04-1.265,6.04-1.265s-6.318-1.125-9.411,2.389
				c0,0-1.398-5.195,2.669-7.021c4.072-1.827,6.118-1.124,6.118-1.124s-3.168-1.686-8.226,1.545c0,0-0.281-4.49,1.821-5.479
				c2.106-0.981,5.197-1.124,5.197-1.124s-1.688-0.701-4.215,0.143c0,0,0.463-1.739,2.95-2.811
				c4.915-2.108,13.202-0.562,13.202-0.562s6.038,0.562,7.021,4.495c0.982,3.937,10.11,16.017,10.11,16.017
				s16.292,9.129,35.256,18.396c18.963,9.271,29.354,16.572,29.354,16.572c-4.773-5.337-15.169-12.779-15.169-12.779
				c2.67-0.143,5.896-4.214,5.896-4.214s0.562-1.968-4.917-11.379c-5.479-9.409-11.233-13.202-18.116-15.591
				c-6.882-2.39-12.922-6.46-15.447-5.759c-2.529,0.697-20.088,0.697-20.088,0.697c9.133-0.697,19.387-8.146,22.612-8.005
				c3.229,0.145,3.709,2.105,3.709,2.105s16.616-0.563,28.453,8.564c11.841,9.137,15.45,33.854,15.45,33.854
				s15.873,19.383,16.996,25C524.823,260.855,522.435,270.265,522.435,270.265z"/>
		</g>
		<polygon fill="#E61621" points="366.223,250.227 367.219,253.29 370.438,253.29 367.834,255.183 368.829,258.246 366.223,256.352 
			363.617,258.246 364.613,255.183 362.007,253.29 365.228,253.29 		"/>
		<polygon fill="#E61621" points="458.861,250.224 459.858,253.289 463.079,253.289 460.473,255.184 461.469,258.249 
			458.861,256.354 456.259,258.249 457.248,255.184 454.642,253.289 457.865,253.289 		"/>
		<polygon fill="#E61621" points="412.027,101.085 412.879,103.708 415.638,103.708 413.405,105.329 414.257,107.953 
			412.027,106.331 409.794,107.953 410.648,105.329 408.416,103.708 411.173,103.708 		"/>
	</g>
</g>
<g>
	<path fill="#BDC2BC" d="M533.992,588.913c-0.739,0-1.34-0.602-1.34-1.341v-16.588c0-0.739,0.601-1.339,1.34-1.339h52.497
		c0.738,0,1.339,0.6,1.339,1.339v16.588c0,0.739-0.601,1.341-1.339,1.341H533.992z"/>
	<g>
		<path d="M557.027,571.51c-2.725,0-4.935,2.21-4.935,4.934c0,2.729,2.21,4.938,4.935,4.938c2.728,0,4.938-2.21,4.938-4.938
			C561.964,573.719,559.755,571.51,557.027,571.51z"/>
		<path fill="#FFFFFF" d="M557.027,580.461c-2.219,0-4.015-1.798-4.015-4.019c0-2.217,1.797-4.014,4.015-4.014
			c2.219,0,4.019,1.798,4.019,4.014C561.046,578.664,559.246,580.461,557.027,580.461z"/>
		<g>
			<path d="M558.402,575.293c0-0.219-0.182-0.398-0.398-0.398h-1.952c-0.221,0-0.401,0.181-0.401,0.398v1.985h0.528v2.338h1.694
				v-2.338h0.527L558.402,575.293L558.402,575.293z"/>
			<path d="M557.695,573.942c0,0.37-0.3,0.668-0.667,0.668c-0.371,0-0.67-0.299-0.67-0.668s0.301-0.67,0.67-0.67
				C557.395,573.272,557.695,573.571,557.695,573.942z"/>
		</g>
	</g>
	<path d="M586.175,569.198h-51.868c-1.157,0-2.102,0.943-2.102,2.102v15.96c0,1.158,0.943,2.1,2.102,2.1h51.868
		c1.158,0,2.102-0.94,2.102-2.1V571.3C588.275,570.141,587.332,569.198,586.175,569.198z M587.644,583.375h-37.865
		c-1.477,2.809-4.417,4.725-7.81,4.725s-6.333-1.916-7.809-4.725h-1.326V571.3c0-0.812,0.658-1.471,1.47-1.471h51.869
		c0.811,0,1.471,0.658,1.471,1.471V583.375L587.644,583.375z"/>
	<g>
		<path fill="#FFFFFF" d="M556.773,584.933c0.1,0.14,0.15,0.302,0.15,0.495c0,0.198-0.052,0.357-0.151,0.479
			c-0.057,0.066-0.14,0.131-0.25,0.187c0.168,0.061,0.294,0.155,0.378,0.289c0.085,0.13,0.127,0.289,0.127,0.477
			c0,0.192-0.049,0.365-0.145,0.519c-0.062,0.104-0.14,0.188-0.23,0.256c-0.104,0.078-0.225,0.137-0.369,0.164
			c-0.141,0.028-0.294,0.043-0.459,0.043h-1.466v-3.256h1.573C556.326,584.594,556.607,584.706,556.773,584.933z M555.009,585.151
			v0.717h0.79c0.143,0,0.257-0.026,0.345-0.08s0.133-0.147,0.133-0.286c0-0.15-0.059-0.248-0.176-0.301
			c-0.1-0.033-0.228-0.05-0.383-0.05H555.009L555.009,585.151z M555.009,586.407v0.869h0.789c0.143,0,0.25-0.02,0.328-0.058
			c0.145-0.071,0.217-0.206,0.217-0.407c0-0.17-0.07-0.285-0.208-0.35c-0.077-0.034-0.188-0.056-0.327-0.056L555.009,586.407
			L555.009,586.407z"/>
		<path fill="#FFFFFF" d="M559.469,584.586h0.771l-1.089,2.034v1.222h-0.68v-1.222l-1.127-2.034h0.8l0.677,1.418L559.469,584.586z"
			/>
	</g>
	<g>
		<g>
			<path fill="#FFFFFF" d="M565.517,584.426h0.776l1.403,2.473v-2.473h0.692v3.545h-0.742l-1.443-2.517v2.517h-0.688
				L565.517,584.426L565.517,584.426z"/>
			<path fill="#FFFFFF" d="M569.425,584.797c0.285-0.292,0.647-0.437,1.09-0.437c0.591,0,1.02,0.195,1.295,0.587
				c0.148,0.221,0.229,0.439,0.242,0.661h-0.741c-0.048-0.17-0.106-0.299-0.183-0.384c-0.132-0.153-0.328-0.229-0.586-0.229
				c-0.265,0-0.473,0.107-0.623,0.324c-0.152,0.219-0.229,0.525-0.229,0.923c0,0.399,0.08,0.696,0.241,0.895
				c0.161,0.197,0.365,0.299,0.614,0.299c0.252,0,0.447-0.086,0.581-0.256c0.072-0.09,0.136-0.229,0.183-0.41h0.736
				c-0.066,0.387-0.226,0.699-0.486,0.943c-0.262,0.241-0.594,0.36-1.002,0.36c-0.505,0-0.901-0.163-1.19-0.489
				c-0.288-0.328-0.434-0.777-0.434-1.353C568.93,585.607,569.095,585.133,569.425,584.797z"/>
		</g>
	</g>
	<g>
		<path fill="#FFFFFF" d="M577.517,586.944c0.022,0.173,0.073,0.303,0.145,0.389c0.132,0.154,0.354,0.233,0.673,0.233
			c0.19,0,0.347-0.021,0.465-0.062c0.225-0.078,0.338-0.226,0.338-0.438c0-0.125-0.055-0.223-0.166-0.291
			c-0.113-0.066-0.285-0.126-0.525-0.178l-0.411-0.088c-0.401-0.093-0.679-0.188-0.829-0.294c-0.254-0.173-0.383-0.448-0.383-0.819
			c0-0.339,0.126-0.619,0.376-0.846c0.249-0.224,0.617-0.336,1.102-0.336c0.401,0,0.748,0.104,1.033,0.315
			c0.284,0.213,0.436,0.521,0.45,0.922h-0.762c-0.014-0.227-0.117-0.387-0.306-0.484c-0.126-0.065-0.282-0.096-0.473-0.096
			c-0.209,0-0.375,0.041-0.499,0.122c-0.126,0.083-0.188,0.196-0.188,0.346c0,0.135,0.062,0.236,0.186,0.303
			c0.079,0.043,0.246,0.096,0.502,0.155l0.665,0.156c0.292,0.068,0.513,0.162,0.655,0.276c0.227,0.179,0.339,0.435,0.339,0.771
			c0,0.351-0.134,0.637-0.4,0.863c-0.269,0.229-0.646,0.344-1.134,0.344c-0.5,0-0.891-0.112-1.176-0.339
			c-0.287-0.224-0.432-0.536-0.432-0.929L577.517,586.944L577.517,586.944z"/>
		<path fill="#FFFFFF" d="M581.542,584.325h0.896l1.34,3.791h-0.858l-0.249-0.778h-1.396l-0.255,0.778h-0.828L581.542,584.325z
			 M581.486,586.681h0.972l-0.479-1.49L581.486,586.681z"/>
	</g>
	<g>
		<circle cx="541.95" cy="579.28" r="7.771"/>
		<circle fill="#FFFFFF" cx="541.95" cy="579.278" r="6.322"/>
		<g>
			<path d="M541.597,578.348l-1.188,0.215c-0.041-0.237-0.131-0.416-0.273-0.537c-0.143-0.119-0.325-0.178-0.55-0.178
				c-0.302,0-0.537,0.104-0.72,0.31c-0.18,0.204-0.268,0.555-0.268,1.038c0,0.539,0.09,0.921,0.271,1.146
				c0.183,0.223,0.426,0.332,0.73,0.332c0.229,0,0.417-0.064,0.562-0.195c0.146-0.131,0.249-0.354,0.311-0.67l1.182,0.199
				c-0.123,0.545-0.354,0.954-0.707,1.229c-0.348,0.276-0.813,0.416-1.399,0.416c-0.668,0-1.197-0.21-1.594-0.629
				c-0.396-0.42-0.592-1.004-0.592-1.746c0-0.75,0.198-1.337,0.594-1.754c0.397-0.42,0.936-0.627,1.613-0.627
				c0.555,0,0.995,0.118,1.322,0.355C541.219,577.497,541.453,577.86,541.597,578.348z"/>
			<path d="M546.477,578.348l-1.188,0.215c-0.039-0.237-0.131-0.416-0.272-0.537c-0.144-0.119-0.325-0.178-0.551-0.178
				c-0.301,0-0.539,0.104-0.72,0.31c-0.178,0.204-0.268,0.555-0.268,1.038c0,0.539,0.09,0.921,0.271,1.146
				c0.182,0.223,0.426,0.332,0.729,0.332c0.229,0,0.417-0.064,0.562-0.195c0.146-0.131,0.25-0.354,0.311-0.67l1.183,0.199
				c-0.123,0.545-0.356,0.954-0.708,1.229c-0.349,0.276-0.814,0.416-1.4,0.416c-0.668,0-1.197-0.21-1.593-0.629
				c-0.396-0.42-0.592-1.004-0.592-1.746c0-0.75,0.196-1.337,0.595-1.754c0.396-0.42,0.934-0.627,1.612-0.627
				c0.554,0,0.994,0.118,1.322,0.355C546.1,577.497,546.337,577.86,546.477,578.348z"/>
		</g>
	</g>
	<g>
		<path d="M568.93,571.719c-2.61,0-4.727,2.115-4.727,4.726c0,2.612,2.115,4.729,4.727,4.729s4.728-2.113,4.728-4.729
			C573.658,573.834,571.546,571.719,568.93,571.719z"/>
		<circle fill="#FFFFFF" cx="568.93" cy="576.447" r="3.846"/>
		
			<rect x="568.488" y="571.955" transform="matrix(0.4225 -0.9063 0.9063 0.4225 -193.9016 848.5336)" width="0.924" height="8.958"/>
		<g>
			<path d="M568.58,579.151v-0.637c-0.444-0.013-0.877-0.14-1.129-0.277l0.197-0.776c0.279,0.153,0.672,0.292,1.101,0.292
				c0.382,0,0.646-0.151,0.646-0.409c0-0.252-0.223-0.41-0.709-0.578c-0.711-0.238-1.196-0.568-1.196-1.215
				c0-0.59,0.411-1.047,1.122-1.181v-0.631h0.65v0.584c0.443,0.015,0.742,0.115,0.968,0.222l-0.199,0.748
				c-0.167-0.079-0.478-0.232-0.954-0.232c-0.434,0-0.571,0.193-0.571,0.381c0,0.212,0.231,0.356,0.798,0.564
				c0.796,0.276,1.107,0.643,1.107,1.246c0,0.591-0.411,1.09-1.182,1.221v0.684L568.58,579.151L568.58,579.151z"/>
		</g>
	</g>
	<g>
		<path d="M580.185,571.784c-2.571,0-4.66,2.086-4.66,4.658c0,2.576,2.089,4.665,4.66,4.665c2.576,0,4.665-2.089,4.665-4.665
			C584.852,573.87,582.761,571.784,580.185,571.784z"/>
		<path fill="#FFFFFF" d="M580.185,580.238c-2.092,0-3.789-1.698-3.789-3.794c0-2.091,1.695-3.79,3.789-3.79
			c2.096,0,3.793,1.696,3.793,3.79C583.979,578.538,582.281,580.238,580.185,580.238z"/>
		<path d="M580.185,573.885c-1.016,0-1.874,0.733-2.182,1.746h-0.294l0.933,1.016l0.93-1.016h-0.348
			c0.215-0.37,0.563-0.616,0.96-0.616c0.65,0,1.179,0.646,1.179,1.443c0,0.793-0.526,1.44-1.179,1.44
			c-0.432,0-0.81-0.289-1.016-0.72h-1.196c0.278,1.068,1.167,1.854,2.214,1.854c1.273,0,2.311-1.155,2.311-2.576
			C582.496,575.034,581.464,573.885,580.185,573.885z"/>
	</g>
</g>
<g>
	<path d="M11.392,586.197c-0.652,0-1.248-0.138-1.786-0.41c-0.539-0.271-1.002-0.631-1.39-1.07c-0.388-0.441-0.688-0.949-0.9-1.521
		C7.106,582.619,7,582.032,7,581.432c0-0.626,0.114-1.226,0.338-1.797c0.226-0.574,0.533-1.08,0.927-1.521
		c0.393-0.44,0.857-0.792,1.396-1.053c0.538-0.26,1.119-0.39,1.746-0.39c0.653,0,1.248,0.138,1.786,0.417
		c0.538,0.275,0.999,0.641,1.382,1.09s0.682,0.959,0.893,1.528c0.213,0.567,0.318,1.144,0.318,1.726c0,0.636-0.113,1.24-0.338,1.812
		c-0.225,0.574-0.534,1.079-0.926,1.517c-0.394,0.437-0.856,0.785-1.391,1.045C12.598,586.066,12.018,586.197,11.392,586.197z
		 M7.675,581.432c0,0.539,0.091,1.057,0.271,1.555s0.437,0.939,0.768,1.324c0.33,0.383,0.724,0.69,1.178,0.92
		c0.455,0.229,0.955,0.344,1.502,0.344c0.563,0,1.072-0.117,1.527-0.355c0.454-0.239,0.846-0.555,1.17-0.946
		c0.327-0.392,0.578-0.834,0.755-1.328s0.265-0.997,0.265-1.51c0-0.538-0.092-1.057-0.277-1.555
		c-0.185-0.498-0.442-0.939-0.773-1.323s-0.723-0.691-1.179-0.919c-0.454-0.229-0.949-0.347-1.486-0.347
		c-0.565,0-1.076,0.119-1.536,0.357c-0.458,0.238-0.85,0.554-1.17,0.945c-0.322,0.394-0.571,0.836-0.748,1.33
		C7.762,580.422,7.675,580.923,7.675,581.432z"/>
	<path d="M23.14,578.299c-0.608-0.681-1.469-1.021-2.58-1.021c-0.918,0-1.587,0.175-2.006,0.523
		c-0.417,0.349-0.628,0.817-0.628,1.407c0,0.302,0.054,0.554,0.159,0.755c0.106,0.202,0.271,0.373,0.496,0.51
		c0.226,0.137,0.513,0.256,0.86,0.355c0.35,0.103,0.761,0.2,1.237,0.299c0.512,0.106,0.97,0.223,1.377,0.352
		c0.404,0.127,0.75,0.289,1.038,0.483c0.287,0.193,0.508,0.433,0.662,0.715c0.153,0.281,0.231,0.632,0.231,1.044
		c0,0.414-0.082,0.775-0.245,1.086c-0.163,0.31-0.392,0.565-0.688,0.773c-0.297,0.208-0.648,0.364-1.059,0.471
		c-0.411,0.104-0.867,0.157-1.37,0.157c-1.463,0-2.704-0.467-3.717-1.401l0.356-0.542c0.396,0.415,0.882,0.743,1.457,0.984
		c0.573,0.242,1.217,0.363,1.931,0.363c0.821,0,1.461-0.147,1.925-0.449c0.462-0.301,0.695-0.754,0.695-1.362
		c0-0.309-0.06-0.57-0.178-0.787s-0.303-0.404-0.551-0.562c-0.247-0.158-0.554-0.295-0.919-0.409
		c-0.364-0.115-0.796-0.225-1.29-0.33c-0.503-0.105-0.945-0.219-1.329-0.338c-0.384-0.117-0.708-0.269-0.972-0.449
		c-0.265-0.181-0.463-0.398-0.596-0.654s-0.199-0.578-0.199-0.967c0-0.423,0.082-0.797,0.246-1.124
		c0.163-0.326,0.391-0.603,0.682-0.826c0.291-0.226,0.64-0.395,1.044-0.511c0.406-0.114,0.854-0.17,1.351-0.17
		c0.607,0,1.15,0.09,1.627,0.27c0.477,0.183,0.909,0.459,1.296,0.828L23.14,578.299z"/>
	<path d="M25.734,586.131v-9.395h3.863c0.396,0,0.763,0.085,1.098,0.251c0.335,0.168,0.624,0.392,0.866,0.669
		s0.432,0.591,0.568,0.938c0.138,0.35,0.205,0.698,0.205,1.053c0,0.381-0.063,0.746-0.191,1.098
		c-0.128,0.354-0.31,0.666-0.542,0.939c-0.232,0.272-0.512,0.492-0.833,0.654c-0.323,0.164-0.683,0.245-1.078,0.245h-3.281v3.546
		L25.734,586.131L25.734,586.131z M26.408,581.963h3.241c0.309,0,0.586-0.064,0.833-0.191s0.456-0.3,0.629-0.516
		c0.171-0.218,0.303-0.463,0.396-0.741c0.092-0.276,0.139-0.565,0.139-0.866c0-0.309-0.056-0.602-0.165-0.879
		c-0.11-0.279-0.26-0.523-0.45-0.734c-0.189-0.213-0.41-0.381-0.661-0.504s-0.519-0.186-0.801-0.186h-3.162L26.408,581.963
		L26.408,581.963z"/>
	<path d="M33.963,586.131v-9.395h3.917c0.397,0,0.764,0.085,1.098,0.251c0.335,0.168,0.622,0.392,0.859,0.669
		c0.238,0.277,0.426,0.591,0.563,0.938c0.137,0.35,0.204,0.698,0.204,1.053c0,0.344-0.054,0.676-0.159,0.998
		c-0.105,0.324-0.254,0.611-0.45,0.867c-0.194,0.256-0.427,0.467-0.7,0.635c-0.273,0.169-0.572,0.277-0.899,0.331l2.341,3.651
		h-0.781l-2.274-3.547h-3.043v3.547L33.963,586.131L33.963,586.131z M34.636,581.963h3.295c0.299,0,0.571-0.064,0.819-0.197
		c0.247-0.132,0.458-0.307,0.636-0.522c0.176-0.216,0.311-0.462,0.402-0.741c0.093-0.277,0.141-0.562,0.141-0.853
		c0-0.3-0.056-0.589-0.166-0.866c-0.11-0.276-0.261-0.522-0.45-0.733c-0.189-0.212-0.409-0.382-0.661-0.511
		c-0.252-0.127-0.523-0.192-0.814-0.192h-3.201V581.963z"/>
	<path d="M48.899,585.521v0.608h-6.258v-9.395h6.139v0.61h-5.464v3.688h4.775v0.582h-4.775v3.903h5.583V585.521z"/>
	<path d="M50.421,576.736l3.281,5.199l3.308-5.199h0.742l-3.706,5.849v3.546h-0.674v-3.572l-3.69-5.821L50.421,576.736
		L50.421,576.736z"/>
	<path d="M59.126,586.131v-9.395h3.122c0.741,0,1.392,0.124,1.951,0.371c0.561,0.248,1.025,0.583,1.396,1.007
		c0.371,0.423,0.647,0.919,0.833,1.487c0.185,0.567,0.277,1.175,0.277,1.819c0,0.715-0.104,1.36-0.311,1.938
		s-0.505,1.07-0.894,1.481c-0.388,0.409-0.857,0.729-1.41,0.953c-0.552,0.224-1.167,0.337-1.845,0.337L59.126,586.131
		L59.126,586.131z M66.031,581.421c0-0.592-0.083-1.137-0.251-1.635c-0.167-0.498-0.412-0.93-0.733-1.291
		c-0.322-0.359-0.718-0.644-1.185-0.848c-0.466-0.202-1.005-0.303-1.614-0.303h-2.447v8.177h2.447c0.617,0,1.162-0.104,1.633-0.312
		c0.473-0.206,0.866-0.495,1.185-0.865c0.316-0.37,0.559-0.805,0.722-1.303S66.031,582.003,66.031,581.421z"/>
	<path d="M67.288,586.131l3.996-9.395h0.555l3.997,9.395h-0.728l-1.311-3.097h-4.484l-1.311,3.097H67.288z M71.562,577.557
		l-2.09,4.922h4.141L71.562,577.557z"/>
	<path d="M80.148,576.802h0.661l1.401,3.413l1.403-3.413h0.661l-1.654,3.956l1.971,4.577l3.6-8.601h0.742l-4.023,9.395h-0.62
		l-2.063-4.829l-2.077,4.829h-0.622l-4.008-9.395h0.728l3.612,8.601l1.945-4.577L80.148,576.802z"/>
	<path d="M91.05,578.008v8.123h-0.675v-9.394h0.518l6.588,8.27v-8.255h0.675v9.379h-0.622L91.05,578.008z"/>
	<path d="M100.297,586.131v-1.125h0.583v1.125H100.297z"/>
	<path d="M102.401,581.368c0-0.563,0.098-1.127,0.298-1.688c0.197-0.561,0.486-1.062,0.866-1.502c0.379-0.44,0.844-0.8,1.395-1.077
		c0.552-0.277,1.181-0.418,1.887-0.418c0.838,0,1.552,0.192,2.144,0.576c0.591,0.383,1.027,0.877,1.309,1.475l-0.556,0.318
		c-0.159-0.327-0.351-0.601-0.576-0.82c-0.224-0.221-0.466-0.399-0.727-0.537c-0.261-0.137-0.533-0.234-0.814-0.298
		c-0.281-0.062-0.562-0.092-0.833-0.092c-0.6,0-1.129,0.121-1.589,0.364c-0.458,0.241-0.847,0.558-1.164,0.944
		c-0.316,0.39-0.557,0.826-0.722,1.316c-0.164,0.489-0.245,0.981-0.245,1.475c0,0.558,0.097,1.086,0.291,1.59
		c0.195,0.502,0.459,0.945,0.795,1.328c0.334,0.383,0.731,0.691,1.19,0.919c0.458,0.229,0.951,0.346,1.48,0.346
		c0.282,0,0.571-0.036,0.866-0.106c0.296-0.069,0.583-0.18,0.86-0.329c0.277-0.15,0.536-0.343,0.774-0.576
		c0.238-0.232,0.437-0.51,0.594-0.827l0.569,0.278c-0.159,0.352-0.372,0.665-0.642,0.939c-0.271,0.271-0.57,0.502-0.906,0.688
		c-0.335,0.186-0.689,0.324-1.065,0.416c-0.375,0.092-0.742,0.139-1.104,0.139c-0.644,0-1.233-0.141-1.768-0.423
		c-0.532-0.281-0.994-0.649-1.382-1.104c-0.387-0.455-0.689-0.972-0.905-1.549C102.509,582.555,102.401,581.969,102.401,581.368z"/>
	<path d="M115.882,586.197c-0.652,0-1.247-0.138-1.785-0.41c-0.538-0.271-1.001-0.631-1.39-1.07
		c-0.388-0.441-0.688-0.949-0.898-1.521c-0.212-0.572-0.317-1.16-0.317-1.76c0-0.627,0.112-1.225,0.337-1.798
		c0.224-0.573,0.534-1.081,0.926-1.521c0.394-0.44,0.857-0.792,1.396-1.052c0.539-0.261,1.121-0.391,1.747-0.391
		c0.65,0,1.247,0.139,1.786,0.416c0.538,0.276,0.999,0.643,1.381,1.091c0.384,0.45,0.682,0.959,0.894,1.529
		c0.211,0.566,0.317,1.144,0.317,1.726c0,0.635-0.113,1.239-0.337,1.812c-0.226,0.572-0.534,1.077-0.928,1.514
		c-0.393,0.438-0.854,0.785-1.389,1.046C117.087,586.066,116.509,586.197,115.882,586.197z M112.164,581.432
		c0,0.539,0.09,1.057,0.271,1.555c0.181,0.498,0.436,0.939,0.767,1.324c0.331,0.383,0.724,0.69,1.178,0.92s0.954,0.344,1.501,0.344
		c0.564,0,1.073-0.117,1.527-0.355c0.456-0.239,0.845-0.555,1.171-0.946s0.578-0.834,0.754-1.328
		c0.175-0.494,0.266-0.997,0.266-1.51c0-0.538-0.094-1.057-0.278-1.555c-0.186-0.498-0.443-0.939-0.774-1.323
		s-0.724-0.691-1.178-0.919c-0.455-0.229-0.95-0.347-1.488-0.347c-0.563,0-1.075,0.119-1.534,0.357s-0.851,0.554-1.172,0.945
		c-0.321,0.394-0.57,0.836-0.748,1.33C112.252,580.422,112.164,580.923,112.164,581.432z"/>
	<path d="M130.659,586.131v-8.123l-3.704,6.338h-0.423l-3.705-6.338v8.123h-0.675v-9.394h0.675l3.916,6.722l3.916-6.722h0.675v9.394
		H130.659L130.659,586.131z"/>
</g>
</svg>
