<?xml version="1.0" encoding="utf-8"?>
<!-- Generator: Adobe Illustrator 16.0.0, SVG Export Plug-In . SVG Version: 6.00 Build 0)  -->
<!DOCTYPE svg PUBLIC "-//W3C//DTD SVG 1.1//EN" "http://www.w3.org/Graphics/SVG/1.1/DTD/svg11.dtd">
<svg version="1.1" id="Layer_1" xmlns="http://www.w3.org/2000/svg" xmlns:xlink="http://www.w3.org/1999/xlink" x="0px" y="0px"
	 width="595.275px" height="595.279px" viewBox="0 0 595.275 595.279" enable-background="new 0 0 595.275 595.279"
	 xml:space="preserve">
<metadata><?xpacket begin="﻿" id="W5M0MpCehiHzreSzNTczkc9d"?>
<x:xmpmeta xmlns:x="adobe:ns:meta/" x:xmptk="Adobe XMP Core 5.3-c011 66.145661, 2012/02/06-14:56:27        ">
   <rdf:RDF xmlns:rdf="http://www.w3.org/1999/02/22-rdf-syntax-ns#">
      <rdf:Description rdf:about=""
            xmlns:dc="http://purl.org/dc/elements/1.1/">
         <dc:format>image/svg+xml</dc:format>
         <dc:title>
            <rdf:Alt>
               <rdf:li xml:lang="x-default">NFL Logo Redesigns</rdf:li>
               <rdf:li xml:lang="en_us">NFL Logo Redesigns</rdf:li>
            </rdf:Alt>
         </dc:title>
         <dc:creator>
            <rdf:Seq>
               <rdf:li>Max O'Brien/Osprey Dawn</rdf:li>
            </rdf:Seq>
         </dc:creator>
      </rdf:Description>
      <rdf:Description rdf:about=""
            xmlns:xmp="http://ns.adobe.com/xap/1.0/"
            xmlns:xmpGImg="http://ns.adobe.com/xap/1.0/g/img/">
         <xmp:CreatorTool>Adobe Illustrator CS6 (Macintosh)</xmp:CreatorTool>
         <xmp:ModifyDate>2013-10-06T23:58:55+13:00</xmp:ModifyDate>
         <xmp:MetadataDate>2013-10-06T23:58:55+13:00</xmp:MetadataDate>
         <xmp:CreateDate>2013-10-06T23:58:55+13:00</xmp:CreateDate>
         <xmp:Thumbnails>
            <rdf:Alt>
               <rdf:li rdf:parseType="Resource">
                  <xmpGImg:width>256</xmpGImg:width>
                  <xmpGImg:height>236</xmpGImg:height>
                  <xmpGImg:format>JPEG</xmpGImg:format>
                  <xmpGImg:image>/9j/4AAQSkZJRgABAgEASABIAAD/7QAsUGhvdG9zaG9wIDMuMAA4QklNA+0AAAAAABAASAAAAAEA&#xA;AQBIAAAAAQAB/+4ADkFkb2JlAGTAAAAAAf/bAIQABgQEBAUEBgUFBgkGBQYJCwgGBggLDAoKCwoK&#xA;DBAMDAwMDAwQDA4PEA8ODBMTFBQTExwbGxscHx8fHx8fHx8fHwEHBwcNDA0YEBAYGhURFRofHx8f&#xA;Hx8fHx8fHx8fHx8fHx8fHx8fHx8fHx8fHx8fHx8fHx8fHx8fHx8fHx8fHx8f/8AAEQgA7AEAAwER&#xA;AAIRAQMRAf/EAaIAAAAHAQEBAQEAAAAAAAAAAAQFAwIGAQAHCAkKCwEAAgIDAQEBAQEAAAAAAAAA&#xA;AQACAwQFBgcICQoLEAACAQMDAgQCBgcDBAIGAnMBAgMRBAAFIRIxQVEGE2EicYEUMpGhBxWxQiPB&#xA;UtHhMxZi8CRygvElQzRTkqKyY3PCNUQnk6OzNhdUZHTD0uIIJoMJChgZhJRFRqS0VtNVKBry4/PE&#xA;1OT0ZXWFlaW1xdXl9WZ2hpamtsbW5vY3R1dnd4eXp7fH1+f3OEhYaHiImKi4yNjo+Ck5SVlpeYmZ&#xA;qbnJ2en5KjpKWmp6ipqqusra6voRAAICAQIDBQUEBQYECAMDbQEAAhEDBCESMUEFURNhIgZxgZEy&#xA;obHwFMHR4SNCFVJicvEzJDRDghaSUyWiY7LCB3PSNeJEgxdUkwgJChgZJjZFGidkdFU38qOzwygp&#xA;0+PzhJSktMTU5PRldYWVpbXF1eX1RlZmdoaWprbG1ub2R1dnd4eXp7fH1+f3OEhYaHiImKi4yNjo&#xA;+DlJWWl5iZmpucnZ6fkqOkpaanqKmqq6ytrq+v/aAAwDAQACEQMRAD8A9U4q7FXYq7FXYq7FXYq7&#xA;FXYq7FXYq7FXYq7FXYq7FXYq7FXYq7FXYq7FXYq7FXYq7FXYq7FXYq7FXYq7FXYq7FXYq7FXYq7F&#xA;XYq7FXYq7FXYq7FXYq7FXYq7FXYq7FXYq7FXYq7FXYq7FXYq7FXYq7FXYq7FXYq7FXYq7FXYq7FX&#xA;YqlXmfzRofljRp9Z1u6W0sLcDlI1SWY/ZRFG7M3YDCASaCk0x78rPOGtedNKu/M11bix0a8mMWhW&#xA;JAMvoQFleeWTu8slRxGyhRStSTKcaNIibFs2yCXYq7FXYq7FXYq7FXYq7FXYq7FXYq7FXYq7FXYq&#xA;7FXYq7FXYq7FXYq7FXYq7FXYq7FXYq7FUDruuaXoOj3esarcLa6fZRmW4mboANgAOpZiQFA3J2GE&#xA;C1fO35uWOteY/IGo+ffNKy2schht/J/lxiUFtHcTKhuroD7VxJFyIHRf1ZGMgGh8WjIDIfc+h/Lu&#xA;iWuhaDp2i2n+8+nW0VtG1ApYRIF5EDu1Kn3zHJst6YYFdirsVdirsVdirsVdirsVdirsVdirsVdi&#xA;rsVdirsVdirsVdirsVdirsVdirsVdirsVdirsVeWXjJ+Yn5lSaSw9Tyh5JlSS/T9i81dgeETfzR2&#xA;oqWH8+xqKZaPSL6lgdzXQJj+fXlfUfMn5Y6rZ6ajS39v6d5bwoKtIbdw7Io6linLiB1NMGIgS3XI&#xA;CYmk1/K7z/p/nnyhZ6xbOv1sKsWp242MV0qj1Fp/KT8S/wCSRkZx4TTKMhIWGW5FLsVdirsVdirs&#xA;VdirsVdirsVdirsVdirsVdirsVdirsVdirsVY/5V856Z5iudas7cGK+0K+lsL62ZgzDgx9KUU/Yl&#xA;QVG3XkO1cJjSsgwK7FXYq7FXYq7FXYql3mXV/wBDeXNV1jgJP0bZ3F36ZNA3oRNJQn344QLKvPv+&#xA;carcf8qqtNSkf1b3WLu9vb6ZjV3mNw8JZz3JWEZZm+qmvFvG+96llTY8p8w/lHrWleZpfOP5a38W&#xA;lavcMG1PRbkN+jr3ep5Km6Manp33BU1JtGQEVJr4CDYRUX5zXOkAQ+e/K2p+XpVNJb+GI3+nf6wu&#xA;Lfkd/wCXiaYPDvkbTx9+ye6T+b35Yasgez8z6fvQBJ51tpDXpSOf03/DImEh0ZCQPIsmsdT06/jM&#xA;ljdQ3cYoS8EiyLv03UnrkWRCJxQx3X/zF8ieXnePWdesrOeP7ds8yGcbV/uVLSf8LkhEnkEEgc2J&#xA;Xn/OSv5OWy/Brb3LVoUhtbokDxq8aLT5HJjDLuYHLHvSSX/nLb8r0IC22qS17rbwin/BTLh8CSDm&#xA;h3oWb/nL/wDLsRsYdK1d5QPgV4rZFJ92Fw5H3Yfy8mP5mPmg/wDocTyl/wBWG/8A+Dh/5qw/l5J/&#xA;MQ8/x8Xf9DieUv8Aqw3/APwcP/NWP5eS/mIef4+KNg/5y+/LpkX1tL1eOQ/bCxWzqD7N9YUn/gcH&#xA;5eSPzEUzsP8AnKr8p7p1WeW+sQer3FsWA3pv6DTH7hg8CTPxod/3sm0v88/yk1OQR23me0Rj0+tc&#xA;7QbCv2rlYhkDjkOjITj3hmGm6vpWqQfWNMvYL63/AN/W0qTJ/wAEhYZBlSKxV2KuxV2KuxV2KvlX&#xA;8vfM93o/55y6/wA2by5541XUtNgkPIh2S4HoMAaDZ5IhXsGYZlSjcPMNEZETN9f0PqrMVvdirsVd&#xA;irsVdirsVSrzZpMuseVdZ0iIgS6jY3NpGW2AaeFoxX2q2EGja1fN4p/zib5yhk0PUPJV6fS1LTJn&#xA;ubaF9maCQgSqFPeOWvL/AFh75fnjvbRgltwnmH0BmO3uxV2KpJqvkbyXq7mTVNB0+9lPWWe1hkf/&#xA;AINlLfjkhIjkUGIPNi93/wA4+/k9dPzfy5EjVqDDPcwUNKdIpUGS8WXew8KPOkPF/wA46/lbECIr&#xA;K7jB3IW/u1Ffokx8QswB+Cf1sO85f84leWL6Ca48s6hcafqRqyxXb/WLd260ZiPVWp6tyb5ZZHUE&#xA;c2meAHcc3zbq3lHUvLnmV9A8y2zWV4rKtWYLHRjRZBIfhaNv5q5dOUjG4MtFHAMnDqOLh7x0/WHq&#xA;tn/zi350nRXMFrEriqs91yFO28YfrmF4+V3/AIPZQ6Tl8/2JlF/ziV5nbj6lxpiA/a/f3RYfQIqf&#xA;jg8XL3rfZY/yUz8T/wAWiP8AoUbWP+W+w/4O5/5px8XL3/j5MePs3/UZf6Y/8U0f+cRtZP8A0sLA&#xA;f7K4/wCacPi5e9Bl2af8lL/TH/ilCf8A5xF8ych6N/p7LTctLcKa/wDIl8PjZe8MOHs0/wAGQe4/&#xA;rKW3X/OJ/neMVia2lO+0dx4f8ZI064fzOTuDA6Ts6XKWWPy/Ukd//wA40/mZbVK6Y8ijo0clvLX6&#xA;Fk5fhkxq5dYsD2VpJfTnr3xLBvMPlPzh5OvYTqdnd6XLJU2twySQ8ytOXpvtUrUVocyceQTHJ1Oq&#xA;0x086EhId8T+KT7QPz3/ADX0Rh9X8w3F1FUcor4i8BA7VnDuo/1WGJwxPRpjnkPN6r5X/wCcw7gO&#xA;kXmnQkdCfju9McqwHtBMWDH/AJ6jKpabuLbHUjqHufkf8y/Jvna1afy/frPLEA1xZyAx3EVf5423&#xA;pU05LVffMeUDHm5EZA7hlGRSo3l7Z2VtJdXs8dtaxDlLPM6xxqOlWZiAPpxV4/54/O5dXmk8n/li&#xA;r655mvlMJ1G3B+q2aN8LzetsGKA1DD4BUHkacTdHF1lsGuWTpHcsS/Ozyhb+Qfyc8m21k/PUNE1a&#xA;Fvra7cp5Yp7iZwftAGWMcfAAZPGeKR8w15PREeRfR9tcRXNvFcRGsUyLJGSKVVhUbH2OYzkKmKux&#xA;V2KuxV2KuxV2Kvlz/nID8ute8n+ah+ZvlF5LeGWcT37wVLWt25o0pG/7qcn4uW3IkHZgMysMwRwl&#xA;x80CDxRZj+Wn/OUfljW4obDzbw0TVqBTdmv1KVvHkamH5P8AD/ldshPARyTDODz2e22t1a3dvHc2&#xA;syXFvKOUU0TB0ZT0KspIIyhvVcVdirsVdirsVeLf85T+SbPV/ILeYkiA1TQXRxKB8T20riOSM+IU&#xA;sHFelDTqcvwSqVd7Rnjcb7mAflj/AM5Iahovky00O70v9J3OmgwRXb3Hp/uBvEpURvXgvw9egGV6&#xA;o8Mve7nsXswauBPFw8Jrlf6U/m/5yh108vQ0S1Sv2ecsj0+dAlcxfGLvR7NY+sz8kM//ADk75vKk&#xA;Jpenq/YsJiPuEg/Xg8Utg9m8P86X2fqUo/8AnJvzyHBk0/TGTuFjuFP3mdv1Y+KUn2bwfzp/Z+pE&#xA;J/zk95pDAvpFiydwpmU/eXP6sfFLA+zeL+dL7Ebb/wDOUl+tPrHl6KTrX07lo/l1jkw+M1y9mY9J&#xA;n5ftTez/AOcoNAcj65ol3CO/oyRy/wDEvSw+M48/ZrJ/DMH5j9ah55/Mn8pPzC8pXWg6lcT6dNKv&#xA;qWNzc27MYLlQTG9YfW2qeLU6qSMtx5xE24Of2e1NVQl7j+unyLLE0UrxP9pGKtTxBpm0BsWHlsmO&#xA;UJGMhRGxW4WCO0S9is9VtbieS4jtllT6y1nJ6M/pcgX9N6EBqfZqOuCQsM4SIL7M0z8mLG5061ud&#xA;P/MDzg1jPEktq0erUQxOoZCoEI2KnME5PIOb4d9T81eP/nHb8t5JhPqyX+uTA1EmpX1xKa/7Bo6/&#xA;Tg8U9NmRxgjff4s70Hyz5e8v2v1TRNNt9OtzQsltGsfIjarlRVj7nIEk82QAHJ82f85afmBp+oXW&#xA;n+TtPmWc6dK13qjIQVSfiY4oqg/bRXcsO1R3rmVp4dXF1E+j6R8qQzQeVtHhmPKaKxtkkapNWWFQ&#xA;TU79cxS5kuaaYEOxV2KuxV2KuxV2KrJoYZ4ZIJ41lhlUpLE4DKysKMrKdiCOoxV81/mv/wA4sO0k&#xA;2r+QqUYl5dClYLQ9/q0jmn+wc/JugzJx5+hcfJgB3Dw3SfNH5geRdSlt7C9vtDvIW/0iyflGOQ/3&#xA;7byDg3+yXMgxjJxrlA9z0LS/+csfzQtEVLuPTtRp9qSeBkcj/nhJEo/4HKzp4tg1EmQ2v/OY+uqv&#xA;+leW7WVqDeK4kiFe+zLJkTpvNmNT5JlF/wA5mRFwJfKLIndl1AMfuNsv68H5bzX8z5K//Q5Wmf8A&#xA;UrTf9Jaf9UsH5bzX8z5IlP8AnMby0UUv5evA9ByAmiIB70JAr92D8se9l+Ziknnf/nJnRfNvlPWN&#xA;AttImsheWcqtc3EqGhA+BVVRuWeg65KOAg2iWcEEPC/LJ+K4Hsn8cp1/IPTeyB9WT3R/Sn2a57h2&#xA;KuxV2KuxV2KuxVjnmK2Ed0syjaUfF/rL/Zm00U7jXc+e+1Ok4M4yDlMfaP2UlOZry7sVe+fl9/zl&#xA;O/lnyppnl++0Br/9Gxegt6t2IyyKx9MekYWpxSi/b7ZjzwWbtyYaihVJ7d/85lpxpaeVCWI2eW+o&#xA;Aa/yrAa/8Fkfy3my/M+TAfN3/OTn5l6/DJa2k0Oh2klVIsFImKnsZ3LuD7pxyyOCIa5aiR8mCeRf&#xA;LV15s86aVocfJ31C5RbiT7RWIHnPIf8AVjDNk5yoWwxR4pB+h2a52LsVdirsVdirsVdirsVdirsV&#xA;SHzZ5D8oebbX6v5h0qC/VRxjldeM0YrX93MnGRN/5WyUZEckEAii8N82f84e2khebyprbQk/YstS&#xA;XmtSd/38QDADsPTPzy+OoPVolp4nls8u1r/nHD83dLZyNGF/AhoJrKaKUN7rGWSb/hMtGeJaTp5B&#xA;i1z+Wn5i228/lfVo1BpyNlccan/K4UyYnHvazjkOilF+X3n2VwkXlvVZHPRVsrhjt7BMPGO9eA9y&#xA;TXtleWN3NZ3sEltd27mOe3lUpIjqaFWVqEEYQbYkUo4UMu0/QtS0hCmpWstndTqkohnRo39Nl5Rt&#xA;xYA0YGozU6zJxSodH0P2X0nh4DM85n7B+Ci8xHp2wCegr3+7FBNNYpbRGdgq7seg8T4DCAxnMRFk&#xA;0P17NYGTsVdiqWeYYg9hz7xsD9+38cy9FKp13vN+1GHi0vF/NkD+j9LGc2z5y7FXYq2qszBVBZj0&#xA;A3OKQLZx5S/JT8y/NEsYsNFnt7WSh+v3qm2twhNOYaQAuP8AjGGPtlUssQ2xwSPk+qPyb/JDSPy8&#xA;t5LyWYah5iuo/Tub2nGONK1MUCncLUCrHdqdumYmTKZOZjxiI2em5WzdirsVdirsVdirsVdirsVd&#xA;irsVdirsVYt5k/NH8vfLTvHrWv2ltPGeMlsr+tOp/wAqGESSD6VyQgTyCDIDm8+1j/nK78vbd3g0&#xA;a01DWrqpW3EUIhikP+tIRKAf+MRPtlgwSaznh3vHvN3lb8zfzZ81Nrun+SH0ZJ1VGlkDQLIFFBJL&#xA;NceisrBdqog2FKHL4yjAVbjziZmwGcfl9/ziU9rf2upectQinSB1lOkWYZkkKmoWWZwnw/zKqb/z&#xA;ZCeo7mcNP3oT/nI/XtM1DzlBaWjLJJpdt6F5MtD+8LlzHUfyA7+BJGa3IbL3/YGKWPAZS2Ejfw73&#xA;jGlar9d5o6cJEFduhGW6jT+HuOSexe2vzdxkOGcd9uRCYqzKwZTRhuDmK72URIUdwqTI8/720iLz&#xA;7ma0Tq1B9qAeJ6mP/gdvhF0QJ7HYuqzzy6X1C8mLu/ij7u8eR+ahaXzD07yxkHrRMJIHpUCRDyWo&#xA;PuMABhPdszGGt00vDN8Q2943F926c69p0CC31fTkI0TVQ01kevpMDSW1c/78gf4T4ijdGGDLj4TS&#xA;9la8ajECfrjtIeaUZW7N2KoHW6fouav+T/xIZkaX+8DpfaH/ABKf+b/ugxTNy+XtgEkACpOwGKQH&#xA;2z+Uv5IeXvLvky1tfMujafqOvTs1xfS3FvDctG0lOMKyOrfDGqgGh48qkdcwMmQk7OxxwEQ9G03Q&#xA;dD0sEaZp1tYgihFtDHDUbbfAF/lGVW2WjsUOxV2KuxV2KuxV2KuxV2KuxV2KuxV2KsO/Mb80ND8k&#xA;WcIuI5NQ1q+PDS9FtfiuLhyaCgAYqvLblQ+wJ2ycIGTGcxEbsFHkj82fPyG88+a63lXy/Luvl3Sm&#xA;Ecpjb9m4mNRUimzc9/2V6ZPijHluwEZy8vcnuiflv+QvlxUWO20mSZRX19QniuZCR+1+/ZlB/wBU&#xA;DISzk9XIhoZ9ISPwLIYfO35W6VGRa6xpFshFStrLB0HtCTlZmO9yY9m5zyxy+RS3U/z2/LOxVuOp&#xA;teSD/dVrDK5PyZlSP/hsgcgcrH2JqZfw17yP7XmHnf8A5yO1XUoJbHyzbNpkEgKtfSkG6KnrwC1S&#xA;M+9WPgRlcst8nd6L2ehA8WU8R7un7XgWv6vtJArmS4lr6zk1I5danxOZOlwEniPJx/aHteOOBwYz&#xA;6jsfId3v/Q15dtCkD3DDeXZP9Uf1OOtyWeHuX2V0XBjOY857D3D9Z+5N8wXrG1ZlYMpIYGoI2IIx&#xA;QmN/os2s6bd+YdHX/c3pyetrtgtKXNsNjexqP20P9+B48/5szsMxkHBL4PF9pYMnZ+bx8H0S5x6f&#xA;juWeS/PGm6UZbTWYGvvJ2sOo1ayX+9trhRRLu3P7MqjrT7a7HtSYxWOCXMcnF1WqEZDWac0JGpju&#xA;l5+R/G6c+c/JEvly9tpFuBeaBqaC40nV4RySeBgGBpUUcBhVcwZQ4TRes0XaUdRiMoC5j+H8d6G0&#xA;by7pvmHRdQv/AC9qLXV9pEX1nUdIuYPq9wtup4vNFxknSRUP2viBA+7LcmmMBbgaL2ix5snhyiYH&#xA;l8WJaxDJPZ+lGwDswoD+1TfjXxx00hGVlv7ewSzafgiQJE9etWa956MUIIND1zcvmJDsVfXX/OO/&#xA;54QeYbC38qeYbmnmG1T07G5lP+9kKDYFj1mQDfuw33PLMLNirccnOxZeIeb3TKG52KuxV2KuxV2K&#xA;uxV2KuxV2KuxV2KuxV2KvEPNX5FfmBe+cr7zjo/nOOLWLrnHbrLaGMW1sdkhhlDzsnFPh5Kqk7/z&#xA;HLhkHDwkMIxInxA/Zf3vKPPn5efnHoPqX3mO2l16yj3k1S0mkuwoAqWdZP3qgd2ZAvvlMsEJcjR8&#xA;3oNH2/PFtPHEx/obH5dfsYDHrmmuN5Ch8GBH6qjK5aTIOju8XtHo5jeXD7wf0WFRtW04CpnX6Kn9&#xA;WRGnydzfLtzRj/KD7f1IeXzDYIPg5SH2FB/w1Msjo5nns4Of2o0sfp4p+4V99fcll3r93MCsQ9FD&#xA;/Kat9/8ATMvHo4x57vOa72lz5hww/dx8ufz/AFUgrS3a5uY4R1c7nwHUn7svyT4Ykun0WmOozRxj&#xA;+I/2n5Mw9GP0hEBSMAKACRsPlmk4jd9X1j8vDwxjr0gV8Ezm8r6LZflnJ5nh1VYdbTUxbfo2SR5A&#xA;1uVk4D00RyjyMjMGkZV4oaGubKMRkABHR88z6rJo9RPwpECMvpJJFJPY3sd3AJU2PR17g5gZcRhK&#xA;i912b2hDVYhOPPqO4p35Z1+78v67Z6vaby2kgYxnpIh2kjb/ACXQlT88rBo25Op08c2MwlyKr+dP&#xA;kiw8seZIL/Rh/wA6r5qt/rumD9mMsAzRD/jGzqw8FYDNtCXHEHrF8xjeDJLFL6Z3E+/ofhL7E68i&#xA;a9+mPyK8y6Jfn1ZPLN1Z3elO25RLyf0nRa9lPM/7LKtbDq5/szlI1Ij0N/cT+hJfyO1RdL/OjTYi&#xA;wa01NprG5So4ul1E3FT/AM9eJp7ZYPVhFuH2jEY9bPhO3Fe3nux3zc0VlJPBA/NUuWWF/FY3JDfg&#xA;MxNJDike6nrfaHWHHpo/z5SifluxnUVVb6cL0Lkj6d82OA3APE9qREdTkrlxH7d0NlrgKzLeWN4V&#xA;YSW15ayEMN0kjljb6GVlYfRg5p3Be6fl/wD85X+YtJgisPNlp+m7SMBFv4mEd4FG3x1+CY08eJPU&#xA;scx56fucqGp/nPpXyP540Lzr5fi1zRHkNpI7RMkycJI5EpyRxUioqPskj3zGlEg0XJBBFhP8il2K&#xA;uxV2KuxV2KuxV2KuxV2KuxV2KuxV2KsA83fkT+WXmmWS5vtJW1v5SS97YsbeQsTUsyr+7dj4uhOT&#xA;jkkORYyhGXMPHPzd/wCcevy88k+RNQ8wWl/qkl9C0UdlBPNA0TySyqtGCW6tRULN9odMvx5pSNNE&#xA;8EQCXznmU4bsVTby2qm8kY9VjNPpIzC1x9I971PsnAHUSJ5iH6QyPNW+gpdqunS3MT+hIVLFXkir&#xA;RHZAwQkfzKHYA++Zen1PBseTzXbfYX5n95j2yf7r9qS2s91pl1WRGUHaRD3HtmdkhHLHYvJ6LUZ+&#xA;zs9yiR/OB6j8ciya2uoLmMSQuGHcdx8xmpnjMTRfRtJrcWohxYzf3j3vQPzbu4j+RfkW2v24awLm&#xA;d7aFv7w2amVedOoX+6A8c2Gjunz/ANoeH8zLh7/0b/a8Th1C+gtJ7OG4kjtboobmFGISQxV4cwPt&#xA;ceRpXM0gF0UZkcjzdp+oXunXsN9YzNb3du3OCdNmRh0ZT2I7HEixSxkYmx0WXF1cXDBpnLkdK9vu&#xA;yMMcY8g5Gp1mXObySMiFksryyNI5qzGpOSjEAUGrLllkkZS5lM/Ktppl35j06DVblLTTDOrX1xL9&#xA;lYEPOXYVqxRSFXuaDBImtmEAL3VfN+tnzH5v1fWYoiv6UvJriKECrBZZCyLtWpAIxiKCZeqWyc+U&#xA;fye/MTzVcxR6bo1xFbSEV1C7Rre2VagFvUcDlSvROTe2RlliOrOOCR6U+1fy38j2XkjyfY+XraT1&#xA;mtwXurkgKZZ5Dykeg7VNFHZQBvmDOXEbc6MaFMmyKXYq7FXYq7FXYq7FXYq7FXYq7FXYq7FXYq7F&#xA;Xin/ADlt6n/KsLXhXj+lbf1Kfy+jP1/2VMuwfU1ZvoL48zOden2maFGY1muhyLCqxdAB75rs+rN1&#xA;F7fsj2bgYDJn3vlH9f6kTcQJZ3kV3EgSCnpThRQAE7Nt79cqhMziYnnzDsNVpo6PUQ1EAI4q4J10&#xA;B5S+fNMsxHogVr8+J4AFuwbYfeMIq92GXj4fRXF5pZfT6pJC8C2VOYKlwwcUPhsMy8MMYIPE812l&#xA;qtbkxyxDBXFtfFxbeWwQun6HeK4meVraRd4zGfjB8ag7Zfl1kRy3dVofZfNLfKfD7q3KrNouo3dy&#xA;Zr68adiADK7NJIQNgKt/XAddGtgzh7JZTP1zjw+V3+Pi+lPyN8k/k75n8tJcHy/bT61pDLaan9YZ&#xA;5ucgUMJjGzGOkm/7PUEY+LOgT1dRqtLjxZpQjuImnmv5yfl/p3ljztcW0FrGmm3Y+uaeioAqJKSG&#xA;jAG1EdSAPCmYksk4nYl7HsvBp9TgiZQiZQ25D8b7PMfMkKqtuyKFUcloBQdiMytDK7t1HtZp4wGM&#xA;xFD1Db4JJmweNdiqY+XdZuNE1/TdYt/7/TrmG6j9zC4eh9jSmRkLFM8cqkC/R3Na7J2KuxV2KuxV&#xA;2KuxV2KuxV2KuxV2KuxV2KuxV2KuxViv5peS185+RdV0BSq3NxGJLKRui3ELCSKp7BmXix8CclCX&#xA;CbRKNinwFf2F5p99PY3sL295ayNDcQSDi6SIeLKwPcEZsQbdbKJBoswikSWNZENVcAj5HNDKJBov&#xA;seDLHJATjykLbIDAgioOxB6ZEFnKIkKO4KyGEQjgpPp/sqd+PsD4ZOUuLc82jT6fwhwxPo6Du9x7&#xA;vLp7tlTIOS7FXYq7FWQ/kR50fyj+asdtcSFdM1t/qV2D9kNKa28h/wBWQgV7Atm2A48QPc+WdoYz&#xA;h1c4nrI/buPve5/85LeXxd+VbLWo0rLplx6crf8AFNwApr/z0VPvzByja3oPZzPw5TD+cPtH7LfK&#xA;vmRK2SN/LIPuIOW6E+s+5yvayF6eMu6f6CxzNo+fOxVkX5feT73zh5w03QLVWIupV+syL/uu3U8p&#xA;pD/qoDTxNB3yGSXCLbcUOKVP0MzXOwdirsVdirsVdirsVdirsVdirsVdirsVdirsVdirsVdirx/8&#xA;8fyFs/PEba3opSz80xIAxb4YrxEFFSUj7Lqooj/7FtqFbsWXh9zVkxCXvfKNxFrnlfUptH1yyltL&#xA;iBqSW0ylXWu4Za7MrdQRseoOTzYBk3HN2XZXbeTR/u5jix/aPd+pMra+tbkVhkDH+Xow+g5rZ4pR&#xA;5h7rSdpYNQP3cgT3dfkr5W5zsVdirsVdirHvMKtHexTISrFQQw2IZT1BzaaGVxIfPvavDw6iM/50&#xA;fuP9j7Q0/Ul/ML8jfrj/AL251HS3EooP97bcFWNB/wAvEVRlOaFWHD7Nz8GWE/MftfH+vrXTXPgy&#xA;n8aZXoz+8et9po3pD5SDF8275q7FX1t/ziZ5Kg0/yhc+ap4h9e1mV4baU0JW0t24EL3HOZW5ePFc&#xA;wtRKzTn4I1H3veMobnYq7FXYq7FXYq7FXYq7FXYq7FXYq7FXYq7FXYq7FXYq7FUi82eRvKXm2zFp&#xA;5h0yG/jX+6dwVljrufTlQrIlab8W3yUZEckEAii8X1z/AJw88vzTNJofmC5sE6rDdQpdUbwDo1uQ&#xA;PmCcuGoPUNJwR5jZgWv/APOOf5u6BG09gbfXrZAWKWshMoA/4qmEbE+yFsiRinzFOx0/aerwfTPi&#xA;HdLf8fN582oy2t5JYarbSadfQtwmgnVkZWHUMrAMp+YzHyaQjeO4el0PtLiyHhyjw5f7H9n43RwN&#xA;dxmI9KDbsUuxVJPMwHG3buCw++mbDQHm8Z7Xx2xn+t+h9I/84ga/9a8p61oMrcm067S4jDdortKc&#xA;R7B4GP8Asst1A3t5XTS2p4L51sxYyalZUp9VuXhp/wAY5SvifDMTSf3ge77fnxaAy7+H7wwrNu+b&#xA;uxV+gH5Q6dFp/wCV/la3jFA2m207A/z3EYmf/hpDmumfUXZx5D3MuyDJ2KuxV2KuxV2KuxV2KuxV&#xA;2KuxV2KuxV2KuxV2KuxV2KuxV2KuxV2KsQ/Mb8rfKnn3TGtdXtwl6i0stUiAFxAeoo37SVO6NsfY&#xA;0InCZidmMoiQovi/XtO1TyT5g1Dy1rSl7iwk4o8e6ujAMjqTT4HRgw8Mnl0/iVKOzt+yu3fykTjy&#xA;3KI+mvu36fcssdUjvZGWJGVUWrs1OpOwFCffMTLpzjG5en7O7Yjq5kQjIRiNye/oNifNGMwVSx6D&#xA;c0Ff1ZQBbtpzEQSeQY3rl8LmSNFR0WPl9scak07fRm10mLhBN83zz2i7RGonGIjKIhf1Cruv1PXv&#xA;+cRdUa3/ADC1DTy1I77TnIXxkhljZf8AhGfJ6gel0enPqYh+b3GPzV5ijUUX9L3aqPACeQ/wzD0g&#xA;/eF7TtuddnY/Pg/3NvPM2jwaL0jSr/V9UtdL0+Iz317KkFvEvVnc8QPb54CaFsoxMjQfopoGlJpG&#xA;habpKNzTTrWG0V+nIQRrGD368c1pLs0fgV2KuxV2KuxV2KuxV2KuxV2KuxV2KuxV2KuxV2KuxV2K&#xA;uxV2KuxV2KuxV8Ofnt5t03zv+ZlxdaGqyWVvDHZRXSjiJ/RLF5j7cnKqe6gZmQPhwuTTDTy1GYY8&#xA;e5/H2JHZ2kFhaleWw+KSQ7VPjmsy5Dkk+kaDRYtDhq/OUkG3mS0D0EblP5tv1Vy8aGVcw6iXtZgE&#xA;qEZGPft9yPR7S+t6gCWJtiCOh/gcxiJY5dxd3jng1uG9pwP4+BUfKPmW+8h+ebDW7MlktpA0sX+/&#xA;baT4ZYj81qB4Ghza45+LB867U0R0eoMR9PMe78bIn81NQivfM+p3ULB4rvUbu4jdfslXlZgR7EPm&#xA;Pox6pF3XtFOtNgh5X8oj9bD4bS5mVmijZ1T7RAzNlkjHmXmcGizZQTCJkI86euf84rX+nW35qxW9&#xA;1bJLcXtpcRWE7CrQzIvqsy16coY3U99/CuV6gelGmO5D7NzCcx2KuxV2KuxV2KuxV2KuxV2KuxV2&#xA;KuxV2KuxV2KuxV2KuxV2KuxV2KuxVhf5z63Lov5W+ZL+HaUWbW6NvVWumFuGFO6+rUZOAuQRI0CX&#xA;xL5bt1EElwR8Tnip9h/bkddPcRen9k9KBjllPMmh7h+PsZh5O8j6h578yweW7NzDCw+saneUqILZ&#xA;CATTuzNRVHj7ZDTRr1lu9pdYOAYI/VLc+Q/aX0J52/JH8tbH8sdYtbLR7a3uNP0+e4t9TZQboS28&#xA;RkV5J/tmrJ8QrSnbMiOWXFzeOljjw8nyN5Zd+U6fsUU/TvkdcBQL0XsjOXFkj/DQPxd5mC87c/tE&#xA;MD8tqY6DkV9rwOLGetS/R+1FzaUt7FbM8jJwjAKgDuBlMdR4ZlQ6uzz9iDV48RlIx4YAV8Ho+m/l&#xA;lpcP5Q3PnBLuRLuG6ESWpAKOpkSI1NOXP4i3WlBlWSRn6i26SUNLnGlxx9FWT1uuf2MN/J+8aL84&#xA;fLs8BoJNSVB/qSko33qxzZyFY6Pc8LlyRnqZSj9JlIj7X3nmG2uxV2KuxV2KuxV2KuxV2KuxV2Ku&#xA;xV2KuxV2KuxV2KuxV2KuxV2KuxV2KvOP+cihG35N+Y1kkEYKWxUtXdhdwsq7d2IplmL6gwyfSXx5&#xA;oE8P1IRch6ilmK9wtRv+OVayB476PX+zOpxjT8F+ocRry23fU/8Azi95cSz8iT+YZEpd+YLl5Q5F&#xA;GFtbMYYUPyZXb6csmOGo9zy+bUHNkllP8R+zoPkpf85VebZtG/L2PSbZylxr04t5CDQ/VoR6ktD/&#xA;AJTcFPsTlmCNy9zi55VH3vl+wjh06yVpOTSSgM3FS3bZdh298xsxOWe3IPbdm48fZ+nEp8RlOiai&#xA;T7httt5oJobrVb9XeNo7ZNviFPhBr95zIEo4YUDcnTywZu09UJGJhij3936z9jIM1j3gCaedvzQh&#xA;n8laT5H0MOthYBptRu2BUz3chZmCjrwj5lVJ69adM2eDTcjJ867R7WHiZDD65em+6PLbzPf0Q3/O&#xA;Pmm/pD83/LsZ+xDLLcsacgPQgkkXw/aUCuZOY+kui049T7qzAc52KuxV2KuxV2KuxV2KuxV2KuxV&#xA;2KuxV2KuxV2KuxV2KuxV2KuxV2KuxV8//wDOYWtzW/lXQ9GTaPULyS4lYVqRaRgBfkTcA/QMyNON&#xA;2nUGovmDSgQt3IDQpA4H05PUfwj+k5nY4IGaY6Ypfa+8/wApLRLT8sPKsSCgbS7SUj/KmhWVuvu+&#xA;Y+T6i48PpHueD/8AOZFzI2s+WbY/3cVvcyL/AK0jxq3/ACbGX6bq4+p6PI9NvYbm2Tiw9RVAdO4I&#xA;Hhmvz4jGR7n0nsjtDHqMMaPrAAI67foReUO1JQN7q1tBbs6OHkNVjA3qfH5DMjFp5SlR5Ok7Q7bw&#xA;4cRlEiU9xH39/uHf8GKEkmp6nNy+ZE2+i/8AnD/ypLLq2s+apkIgtohp9o5GzSylZZSp8UREB/18&#xA;xdRLkHL00diX1HmK5LsVdirsVdirsVdirsVdirsVdirsVdirsVdirsVdirsVdirsVdirsVdirCvz&#xA;X/K7SvzD8urpt1KbS9tnM2n36qHMUhFGDLUckcfaFR2PbJwmYm2M4CQovjnz7+WHnT8vbsR61bL9&#xA;Uu+cNvfwN6lvMKbgNsyt34uAfozLEoz+DRCU8F1ylExPuP4t9tfl1cLc/l95ZnXYS6VZNStaVt02&#xA;r7Zhz5lvh9IeS/8AOU3kW511fLWpQTwWaRTy2Fzd3TMkEf1kK0BkdVfgpeMpyI4gsKkDfLsE6tqz&#xA;wunkbf8AOMX5vo/7vTreRRusiXcFD7jkyn8Mu8eLR4EwdkY//ON/nSxtDe+bNc0zy/pMdPWnurlp&#xA;CK70RFHF2/yee/bIDJG9hu3y8WQqUzw+8vO/NknlWK4TTvLPq3Nhbf3urXSBJruXoXWP/dMI/YT7&#xA;XdjWgW+N9XEmR0S3RNF1LW9XtNI0yBri/vZFht4V7s3j4AdST0G+GRoWiMTI0H37+Xfkqx8l+UNP&#xA;8v2lHNsnK6nAp6tw/wAUsnju32a9FoO2a6UrNuyiKFBkmRS7FXYq7FXYq7FXYq7FXYq7FXYq7FXY&#xA;q7FXYq7FXYq7FXYq7FXYq7FXYq7FWP8AnzyTo/nTyzdaBqoIhno0M6AGSGZN0lSvcfiCR3yUZEGw&#xA;ggEUWL/kJqkz+R/8O37U1nyrczaRqERO49GRvRYD+QxEBT34nJZRvfexhyruZ5rOjaZrWlXWlapb&#xA;rdafeRmK4gcVDKf1EHcEbg7jIA0yIvm+UPze8o/mH+Vcds+h+btTPlW8kaCyhS7nie3YDmImVHCb&#xA;qDRkpWhqB3y8coz5jdxMsZQ5HZ4vqesavqtx9Z1S+uL+4pT1rqV5np/rOWOXgAcmgyJ5qVnZ3d7d&#xA;w2dnBJc3dw4jgt4lLyO7GiqqrUkk9hiTSACTQfZH5CfkhH5Isv01raJL5pvI+JUEMtnE25iQjYyN&#xA;+24/1V2qWwsuXi9zn4sfCPN7BlLa7FXYq7FXYq7FXYq7FXYq7FXYq7FXYq7FXYq7FXYq7FXYq7FX&#xA;Yq7FXYq7FXYq7FWAeavIeu2/mY+dPJFzDa6/LGsOradd8vqeowxiiCQpVo5UAojgex2rk4yFUeTE&#xA;x3sc1Kf81fMWnxenq35feYFvwPij06O31G3qRUUnilG3+ww8A7wtnu+54l+akn50fmpf2lnb+TL/&#xA;AEzSLNy1razxtEWkccfVmlmEKVp07LU7nrl+Mwh1aMkZz6bITyt/ziV571B1k1+7ttEt60eMMLu4&#xA;28FjIi3/AOMv0YZagdGMdN3l9Cfl1+TfknyHGZNKtjcam44y6rdcZLgg9VQgKsanwQCveuY08hlz&#xA;cmMBHkzjIMnYq7FXYq7FXYq7FXYq7FXYq7FXYq7FXYq7FXYq7FXYq7FXYq7FXYq7FXYq7FXYq7FX&#xA;Yq7FXYq7FXYq7FXYq7FXYq7FXYq7FXYq7FXYq7FXYq7FXYq7FXYq7FXYq7FXYq7FXYq7FXYq7FXY&#xA;q7FXYq7FXYq7FXYq7FXYq7FXYq7FXYq7FXYq7FXYqw1PzGVpLZX02SNLiG2vTM0gaKKyu+QilleN&#xA;XEb1jaoaiCn950qqlcX5x276Zbag+lusVxFHOiCRizpMkci+lyiUOUEv73cBeLULUxVObjz1dWxj&#xA;hm0iX63PG00FPWSExoxSRpJJoYZI+DmNSDHU+ovHkORVVQufzP0yzvxp95bmG7jWRr1RLGyxCKUq&#xA;7A1DOnowzTcuIosdG4swXFUNp/5vaTdxQ3BsZ47N4pHuLwNG8UEkchj4SFTXctEeQFAJEJ25FVU1&#xA;n87lObx6e7w/WLexidpY4y13dLE8a8W3EYW4FX3bY0QihKqCtvzS0ua+/R7WVxHfG+TTljorI0gm&#xA;WC4dXBpwgdhyY0rySm7UxVmuKuxV2KuxV2KuxV2KuxV2KuxV2KuxV2KuxV2KuxV2KuxV2KuxV2Kp&#xA;X5quprTyxrF3BIYZ7eyuZYpRSqOkTMrb7bEVxV4jDr+rrplrq01z5hihm9GSWaa4uF0sRXHo0VJ+&#xA;XPmPWIVmmozqQVFaIEMSk88eeBpV5JDrd014jr/eXkq8UKBv3IE7En1i0bDjLxRQ4Z+WKr/8c+du&#xA;XK41a6t4hZu6Mt9KwJVT+8lb12EcoG/CvWg474q+hF/5Vj6I4/oT0frW1PqnH63UfR6taf5WFKOu&#xA;P8F/oqH6z+jf0T6EH1f1PQ+r/V+S/V+Ffg9Plx9Om1aUxVan+CP0c3D9Gfo305uVPq/oelyT160+&#xA;Dhy4c+1eNe2KrbX/AAH+jT9V/Rf6N9Xf0vq/oetx/wAn4OfH6aYqqQf4M+qz+h+jvqvpTfWuHoen&#xA;6PCP1/Uptw9P0uddqca7UxVBz/8AKs/rFx9Y/Qv1j0G+t+p9V5/V+fxepXf0+fWu1cVTLT/8Mfo9&#xA;f0f9S/R3qQ8Pq/pej6lI/q9OHw8qel6f+xp2xVNMVdirsVdirsVdirsVdirsVdirsVdirsVdirsV&#xA;dirsVdirsVdirsVQGv8A6J/QWo/pin6I+qzfpHlyp9W9NvWrw+KnCvTfFXzjc/8AQr3+FYPrH6a/&#xA;w36h9Dl+lPQ503p/sfwxVk+m/wDKlP075f8AqX6Z/Sv6MH+Hq/XKfo76on91z/d0+rcK1+KnviqH&#xA;u/8AoX3/AAprv1v6/wD4a/SU/wCna/WPT+vevD6/2P3lPW9Gvp/D0pir/9k=</xmpGImg:image>
               </rdf:li>
            </rdf:Alt>
         </xmp:Thumbnails>
      </rdf:Description>
      <rdf:Description rdf:about=""
            xmlns:xmpMM="http://ns.adobe.com/xap/1.0/mm/"
            xmlns:stRef="http://ns.adobe.com/xap/1.0/sType/ResourceRef#"
            xmlns:stEvt="http://ns.adobe.com/xap/1.0/sType/ResourceEvent#">
         <xmpMM:OriginalDocumentID>uuid:9E3E5C9A8C81DB118734DB58FDDE4BA7</xmpMM:OriginalDocumentID>
         <xmpMM:DocumentID>xmp.did:1A12731713206811822A8451A1857300</xmpMM:DocumentID>
         <xmpMM:InstanceID>xmp.iid:1A12731713206811822A8451A1857300</xmpMM:InstanceID>
         <xmpMM:RenditionClass>proof:pdf</xmpMM:RenditionClass>
         <xmpMM:DerivedFrom rdf:parseType="Resource">
            <stRef:instanceID>xmp.iid:1912731713206811822A8451A1857300</stRef:instanceID>
            <stRef:documentID>xmp.did:1912731713206811822A8451A1857300</stRef:documentID>
            <stRef:originalDocumentID>uuid:9E3E5C9A8C81DB118734DB58FDDE4BA7</stRef:originalDocumentID>
            <stRef:renditionClass>proof:pdf</stRef:renditionClass>
         </xmpMM:DerivedFrom>
         <xmpMM:History>
            <rdf:Seq>
               <rdf:li rdf:parseType="Resource">
                  <stEvt:action>saved</stEvt:action>
                  <stEvt:instanceID>xmp.iid:F77F117407206811822A8451A1857300</stEvt:instanceID>
                  <stEvt:when>2013-10-06T17:09:14+13:00</stEvt:when>
                  <stEvt:softwareAgent>Adobe Illustrator CS6 (Macintosh)</stEvt:softwareAgent>
                  <stEvt:changed>/</stEvt:changed>
               </rdf:li>
               <rdf:li rdf:parseType="Resource">
                  <stEvt:action>saved</stEvt:action>
                  <stEvt:instanceID>xmp.iid:1A12731713206811822A8451A1857300</stEvt:instanceID>
                  <stEvt:when>2013-10-06T23:58:55+13:00</stEvt:when>
                  <stEvt:softwareAgent>Adobe Illustrator CS6 (Macintosh)</stEvt:softwareAgent>
                  <stEvt:changed>/</stEvt:changed>
               </rdf:li>
            </rdf:Seq>
         </xmpMM:History>
      </rdf:Description>
      <rdf:Description rdf:about=""
            xmlns:xmpTPg="http://ns.adobe.com/xap/1.0/t/pg/"
            xmlns:stDim="http://ns.adobe.com/xap/1.0/sType/Dimensions#"
            xmlns:xmpG="http://ns.adobe.com/xap/1.0/g/">
         <xmpTPg:NPages>1</xmpTPg:NPages>
         <xmpTPg:HasVisibleTransparency>False</xmpTPg:HasVisibleTransparency>
         <xmpTPg:HasVisibleOverprint>False</xmpTPg:HasVisibleOverprint>
         <xmpTPg:MaxPageSize rdf:parseType="Resource">
            <stDim:w>209.999929</stDim:w>
            <stDim:h>210.001308</stDim:h>
            <stDim:unit>Millimeters</stDim:unit>
         </xmpTPg:MaxPageSize>
         <xmpTPg:PlateNames>
            <rdf:Seq>
               <rdf:li>Cyan</rdf:li>
               <rdf:li>Magenta</rdf:li>
               <rdf:li>Yellow</rdf:li>
               <rdf:li>Black</rdf:li>
            </rdf:Seq>
         </xmpTPg:PlateNames>
         <xmpTPg:SwatchGroups>
            <rdf:Seq>
               <rdf:li rdf:parseType="Resource">
                  <xmpG:groupName>Default Swatch Group</xmpG:groupName>
                  <xmpG:groupType>0</xmpG:groupType>
               </rdf:li>
            </rdf:Seq>
         </xmpTPg:SwatchGroups>
      </rdf:Description>
      <rdf:Description rdf:about=""
            xmlns:pdf="http://ns.adobe.com/pdf/1.3/">
         <pdf:Producer>Adobe PDF library 10.01</pdf:Producer>
      </rdf:Description>
      <rdf:Description rdf:about=""
            xmlns:xmpRights="http://ns.adobe.com/xap/1.0/rights/">
         <xmpRights:Marked>True</xmpRights:Marked>
         <xmpRights:WebStatement rdf:resource="http://www.ospreydawn.com"/>
         <xmpRights:UsageTerms>
            <rdf:Alt>
               <rdf:li xml:lang="x-default">This work is licensed under a &lt;a rel="license" href="http://creativecommons.org/licenses/by-nc-sa/3.0/"&gt;Creative Commons Attribution-NonCommercial-ShareAlike 3.0 Unported License&lt;/a&gt;.</rdf:li>
               <rdf:li xml:lang="en_us">This work is licensed under a &lt;a rel="license" href="http://creativecommons.org/licenses/by-nc-sa/3.0/"&gt;Creative Commons Attribution-NonCommercial-ShareAlike 3.0 Unported License&lt;/a&gt;.</rdf:li>
               <rdf:li xml:lang="en">This work is licensed under a &lt;a rel="license" href="http://creativecommons.org/licenses/by-nc-sa/3.0/"&gt;Creative Commons Attribution-NonCommercial-ShareAlike 3.0 Unported License&lt;/a&gt;.</rdf:li>
            </rdf:Alt>
         </xmpRights:UsageTerms>
      </rdf:Description>
      <rdf:Description rdf:about=""
            xmlns:cc="http://creativecommons.org/ns#">
         <cc:attributionName>Max O'Brien / Osprey Dawn</cc:attributionName>
         <cc:license rdf:resource="http://creativecommons.org/licenses/by-nc-sa/3.0/"/>
      </rdf:Description>
   </rdf:RDF>
</x:xmpmeta>
                                                                                                    
                                                                                                    
                                                                                                    
                                                                                                    
                                                                                                    
                                                                                                    
                                                                                                    
                                                                                                    
                                                                                                    
                                                                                                    
                                                                                                    
                                                                                                    
                                                                                                    
                                                                                                    
                                                                                                    
                                                                                                    
                                                                                                    
                                                                                                    
                                                                                                    
                                                                                                    
                           
<?xpacket end="w"?>
	</metadata>
<g id="Layer_2">
	<g id="_x37_Wl2mV_1_">
	</g>
</g>
<g>
	<path fill="#FFFFFF" d="M352.92,538.591c-6.445,0-12.374-0.709-17.604-2.111c-17.34-4.657-25.693-17.732-28.836-27.716
		c-2.261-2.279-3.964-5.071-5.414-7.45c-0.438-0.713-1.032-1.688-1.482-2.369c-0.639-0.352-1.576-0.823-2.312-1.196
		c-5.693-2.858-15.228-7.664-18.203-17.795c-2.651-9.013,1.062-21.547,3.979-29.188c-1.475-7.446-0.527-15.812,0.302-20.709
		c1.292-7.643,4.062-17.718,9.923-22.828c0.055-0.761-0.413-3.123-3.766-6.47c-7.031-7.036-19.437-12.164-35.854-14.827
		c-20.729-3.36-44.104-19.062-56.854-38.185c-6.136-9.207-8.566-21.353-7.042-35.125c0.058-0.459,0.105-0.91,0.162-1.354
		c-6.867-0.985-16.333-3.397-26.36-9.131c-10.146-5.802-20.646-6.428-24.688-6.428c-0.847,0-1.392,0.028-1.553,0.039l-19.876,1.656
		l8.091-18.267c5.448-12.411,19.227-25.599,39.887-33.188c-8.125-1.156-15.777-2.894-22.902-5.205
		c-39.405-12.779-80.097-40.264-76.102-79.062c3.684-35.765,46.765-69.251,51.663-72.952l42.417-32.04l-24.752,47.044
		c-14.08,26.759-9.486,30.669,1.611,40.117c8.142,6.933,40.196,11.197,68.043,11.564c3.664-1.938,7.804-2.754,10.498-3.281
		c5.562-1.102,13.216-2.069,22.73-2.896c17.375-1.505,40.088-2.402,60.755-2.402c10.909,0,20.585,0.241,28.77,0.722
		c39.829,2.312,69.469,9.793,90.844,16.051c10.729,3.14,18.632,6.618,23.614,10.391c4.348,0.545,8.531,0.821,12.475,0.82
		c16.665,0,25.915-4.752,30.742-8.737c2.955-2.438,4.878-15.224,3.883-25.805l-3.918-41.672l25.222,33.405
		c21.709,28.759,24.432,78.142,5.491,99.692c-13.896,15.822-42.239,19.544-57.896,20.354c-0.615,1.228-1.341,2.454-2.188,3.611
		c11.396,14.734,20.262,17.661,26.328,19.675c4.713,1.556,19.049,6.293,13.602,23.738c-3.688,11.79-13.827,18.021-23.715,20.968
		c2.603,12.089,0.848,20.501-8.84,35.467c-5.396,8.336-6.102,19.212-6.668,27.948c-0.316,4.956-0.6,9.229-1.737,12.893
		c-1.562,4.98-4.396,9.579-6.953,13.042c2.354,7.42,4.646,19.759,2.771,37.273c-2.843,26.534-14.54,49.188-35.763,69.264
		C404.389,526.387,381.391,538.591,352.92,538.591z"/>
	<path fill="#B12333" d="M501.52,139.167c0,0,2.562,27.229-8.145,36.07c-10.703,8.843-29.095,14.194-56.082,10.006
		c0,0-2.562-4.653-21.646-10.238c-19.081-5.585-48.172-13.265-88.197-15.592c-40.021-2.328-117.055,1.396-117.985,7.912
		c0,0-62.599,0.231-79.814-14.429c-17.227-14.661-19.781-25.496-4.422-54.688c0,0-43.749,33.046-47.013,64.694
		c-3.259,31.646,33.515,55.386,67.95,66.556c34.443,11.17,73.072,4.188,73.072,4.188s2.326,6.516,6.515,7.912
		c0,0-9.646,5.93-31.646,10.233c-19.964,3.911-49.335,13.032-57.712,32.114c0,0,16.756-1.396,33.046,7.911
		c16.289,9.312,31.646,8.852,35.371,7.447c0,0-9.312,25.133,1.856,41.889c11.17,16.755,31.648,30.253,48.87,33.045
		c17.228,2.793,32.58,8.378,42.354,18.15c9.771,9.772,8.375,19.549,3.257,23.737c-5.12,4.188-9.312,26.521-5.585,35.375
		c0,0-7.448,17.216-5.12,25.131c2.328,7.91,14.895,10.705,17.688,13.965c2.792,3.258,6.357,11.635,8.77,10.702
		c0,0,2.405,18.62,21.487,23.731c19.082,5.12,51.657-1.396,68.882-17.688c17.221-16.289,29.322-35.837,32.116-61.902
		c2.792-26.062-4.656-38.161-4.656-38.161s6.98-6.979,9.31-14.43c2.327-7.446-0.467-27.926,9.773-43.749
		c10.239-15.824,9.775-20.013,3.724-38.63c0,0,22.812,0,27.46-14.896c4.655-14.896-15.354,0.933-42.354-38.632
		c0,0-0.463-4.188,2.794-6.747c3.258-2.561,4.653-9.771,4.653-9.771s42.354,0.693,57.479-16.521S519.439,162.904,501.52,139.167z"/>
	<g>
		<path fill="#FFFFFF" d="M144.541,279.492c0,0,8.146-3.025,21.874-5.12c13.731-2.095,46.078-0.931,63.531-7.912
			c17.454-6.979,24.668-20.711,20.014-27.228c-4.649-6.521-6.278-1.629-6.278-1.629l-30.723,13.032l-39.562,8.604l-24.9,12.104
			L144.541,279.492z"/>
		<path fill="#FFFFFF" d="M330.477,312.467c0,0,10.707,2.396,9.076-10.635c-1.634-13.032-10.479-37.464-44.913-63.762l41.188,35.604
			l12.567,18.616v20.177l-7.686,4.962L330.477,312.467z"/>
		<path fill="#FFFFFF" d="M361.428,297.645c0,0,5.354-2.329,4.889-9.312c-0.467-6.979-0.467-10.703-8.845-19.312
			c-8.377-8.61-18.854-13.495-25.832-33.509v6.396l4.307,10.356l11.635,16.173l8.146,14.051l2.328,13.875L361.428,297.645z"/>
		<path fill="#FFFFFF" d="M385.164,297.412c0,0,3.375-0.468,4.422-6.979c1.048-6.521-1.273-16.18-6.05-21.182
			c-4.771-5.004-15.593-1.163-15.593-1.163l8.844,4.892l2.676,11.636L385.164,297.412z"/>
		<path fill="#FFFFFF" d="M241.087,179.684c0,0,69.704-8.029,139.477,2.838l10.228,6.91v8.812c0,0-29.354-6.021-70.546-7.187
			c-41.188-1.164-70.758,2.332-70.758,2.332l-8.396-5.855L241.087,179.684L241.087,179.684z"/>
		<path fill="#FFFFFF" d="M355.203,317.427l1.804,3.724l17.569,79.064l15.319,19.419c0,0,5.101-33.562-5.546-71.437
			c-10.646-37.873-17.104-38.746-17.104-38.746l-13.089,1.396L355.203,317.427z"/>
		<path fill="#FFFFFF" d="M408.668,452.635c0,0,4.132-7.042,4.479-15.072c0.349-8.026,0.698-9.773,3.841-9.424
			c3.142,0.351,3.84,2.968,3.314,7.158C419.781,439.481,417.105,446.405,408.668,452.635z"/>
	</g>
	<path fill="#02243B" d="M501.52,139.167c0,0,2.562,27.229-8.145,36.07c-10.703,8.843-29.095,14.194-56.082,10.006
		c0,0-2.562-4.653-21.646-10.238c-19.081-5.585-48.172-13.265-88.197-15.592c-40.026-2.328-117.055,1.396-117.985,7.912
		c0,0-62.599,0.231-79.814-14.429c-17.227-14.661-19.781-25.496-4.422-54.688c0,0-43.749,33.046-47.013,64.694
		c-3.259,31.646,33.515,55.386,67.951,66.556c34.442,11.17,63.438,6.058,63.438,6.058s2.327,6.516,6.516,7.906
		c0,0-0.333,4.727-22.009,8.376c-22.78,3.848-49.334,13.032-57.712,32.114c0,0,16.756-1.396,33.045,7.911
		c16.291,9.312,31.646,8.852,35.372,7.447c0,0-9.312,25.133,1.856,41.889c11.176,16.755,31.649,30.253,48.87,33.045
		c17.227,2.793,32.58,8.378,42.354,18.15c9.771,9.775,8.376,19.549,3.258,23.737c-5.12,4.188-9.308,26.521-5.585,35.375
		c0,0-7.448,17.216-5.12,25.131c2.328,7.91,14.896,10.705,17.688,13.965c2.792,3.258,6.354,11.635,8.766,10.702
		c0,0,2.405,18.62,21.487,23.737c19.082,5.114,51.663-1.396,68.882-17.688c17.221-16.289,29.322-35.837,32.116-61.902
		c2.792-26.062-4.656-38.161-4.656-38.161s6.98-6.979,9.312-14.43c2.321-7.446-0.473-27.926,9.771-43.749
		c10.239-15.824,9.775-20.013,3.725-38.631c0,0,22.811,0.001,27.464-14.896c4.65-14.896-15.358,0.935-42.354-38.632
		c0,0-0.463-4.188,2.794-6.747c3.258-2.561,4.653-9.771,4.653-9.771s42.354,0.693,57.479-16.521S519.439,162.904,501.52,139.167z
		 M131.626,205.606c-22.341-7.68-44.681-17.453-46.771-41.888c-2.1-24.438,27.751-48.521,27.751-48.521
		c-4.893,18.676-3.458,26.851,9.277,38.37c16.221,14.661,62.805,17.307,70.827,17.655c8.029,0.35,23.737-3.146,38.052,11.862
		c14.312,15.017,7.854,35.954,7.854,35.954c1.396-7.854-1.919-14.48-1.919-14.48c1.57,4.713,0,7.331,0,7.331
		S153.966,213.285,131.626,205.606z M331.99,518.021c-12.122-8.594-15.708-29.672-12.217-56.549s18.5-36.65,18.5-36.65
		s9.076-4.888,11.52,3.489c3.416,11.717-2.967,9.949-6.283,28.625c-3.88,21.846,0,38.396,15.016,46.773
		C373.53,512.092,351.19,531.635,331.99,518.021z M364.452,495.684c-12.101,0-16.289-9.077-16.289-9.077s5.816,3.026,25.366,1.628
		c19.548-1.395,25.365-10.241,25.365-10.241C391.787,491.299,376.555,495.684,364.452,495.684z M426.123,436.807
		c-5.12,13.494-17.455,15.824-17.455,15.824c0.698,19.082-18.609,25.132-18.609,25.132c4.188-3.022,5.584-7.68,5.584-7.68
		c-6.055,5.354-14.661,9.771-31.188,4.888c-16.521-4.888-9.541-26.064-9.541-26.064c3.729-2.095,9.541-12.562,7.448-21.177
		c-2.095-8.609-7.682-15.357-19.781-14.661c-12.103,0.699-14.192,16.757-14.192,16.757s-6.053,4.893-11.479,21.872
		c-5.43,16.986-2.716,33.048-2.716,33.048c-4.893-5.585-7.445-11.398-5.119-19.084c2.326-7.678-1.628-13.496-1.628-13.496
		c-0.232,3.264-3.026,3.488-3.026,3.488c-4.649-26.529,6.056-37.699,14.896-46.307c8.844-8.612,7.912-17.688,7.912-17.688
		s-1.163,5.585-7.446,4.188c-6.283-1.397-10.705,0.932-10.705,0.932c-3.49-11.171-18.616-21.177-47.705-29.557
		c-29.089-8.376-38.165-21.646-36.304-35.604c1.856-13.961,24.202-19.152,24.202-19.152c5.586,19.471,23.188,26.139,23.188,26.139
		c-13.576-9.773-19.002-21.409-18.537-35.836c0.466-14.436,20.479-40.729,18.386-48.643c-2.096-7.914-10.008-7.913-10.008-7.913
		c0.699,20.944-21.404,37.234-49.8,42.12c-28.39,4.894-42.818-1.854-51.196-5.119c-8.378-3.258-16.756-3.723-16.756-3.723
		c5.12-8.378,26.996-19.781,46.542-21.643c19.549-1.861,38.166-7.913,45.147-10.938c6.979-3.021,7.44-9.309,7.44-9.309
		c5.818-4.421,12.104-15.359,8.384-35.372c-3.729-20.02-19.083-30.021-19.083-30.021c82.146-6.517,141.483,3.729,141.483,3.729
		s16.062,13.729,24.667,43.104c8.612,29.379,1.396,47.648,1.396,47.648s3.725-0.936,7.217,5.813
		c3.49,6.749,3.954,20.944,2.791,23.975s-4.188,2.794-4.188,2.794c1.635-1.63,1.635-10.705-0.229-19.083s-6.516-9.541-6.516-9.541
		c6.277,5.585,0.465,19.312-1.396,23.729c-1.862,4.429-13.033,3.026-13.033,3.026c1.861-2.562-0.465-14.895-3.258-22.806
		c-2.794-7.912-13.963-6.521-13.963-6.521c5.12,0.937,5.586,12.334,6.979,16.755c1.396,4.425,2.562,6.75-1.629,7.686
		c-4.188,0.931-11.862,5.12-11.862,5.12s4.647-13.497-12.805-31.188c-17.447-17.686-16.983-30.95-16.983-30.95
		s-4.892,6.282,9.543,27.93c14.427,21.644,10.702,32.349,10.702,32.349s0-11.636-14.896-27.229
		c-14.896-15.592-42.354-30.479-42.354-30.479c19.774,12.333,46.543,42.354,49.801,54.919c3.259,12.566,2.324,22.342-13.964,19.473
		c-16.289-2.865-21.183-18.076-32.877-29.711c-11.701-11.636-22.979-4.422-22.979-4.422c6.521-0.698,9.542,3.258,9.542,3.258
		c-1.856,5.585-2.096,13.032,8.849,21.409c10.936,8.379,19.076,8.379,19.076,8.379c3.956,0.937,3.489,6.747-3.021,8.848
		c-6.517,2.095-16.522-0.699-16.522-0.699s9.312,7.216,20.246,6.519c10.938-0.695,17.452-8.146,17.452-8.146
		c11.403,7.913,15.593,3.258,20.946,1.396c5.351-1.855,5.351-5.812,5.351-5.812c-0.466,2.793,6.982,1.857,11.868,0.467
		c4.888-1.396,11.638-1.477,11.638-1.477c-0.229,2.943,4.188,2.401,7.219,1.236c3.021-1.164,10.005-2.56,10.005-2.56
		s5.354,36.07,5.354,60.271c0,24.199-5.812,56.314-5.812,56.314c3.722,3.257,16.057-1.396,17.22-6.051
		c1.161-4.652,4.421-6.284,8.61-4.421C426.819,419.116,431.24,423.31,426.123,436.807z M444.51,290.429
		c1.048,3.84,2.438,2.677,1.63,8.022c-0.813,5.354-5.354,10.241-5.354,10.241c0.115-1.164-0.581-2.096-0.581-2.096
		C443.466,302.648,444.51,290.429,444.51,290.429z M494.306,205.489c-19.315,9.309-45.843,5.12-45.843,5.12
		c-1.397-11.17-7.448-19.781-7.448-19.781s17.722,2.25,39.328-2.792c27.925-6.516,24.202-30.02,24.202-30.02
		C511.76,173.375,513.622,196.181,494.306,205.489z"/>
	<path fill="#02243B" d="M357.007,321.147c0,0,0.698,3.651-0.692,6.247c-1.397,2.596-2.793,4.458,0,13.301
		c2.793,8.844,10.008,38.865,4.188,54.689c0,0-5.587,0-10.938,4.886c0,0,17.919-0.933,25.133,10.937
		c7.215,11.867,7.216,27.932,1.164,35.374c-6.052,7.446-15.591,6.748-15.591,6.748s12.799,6.285,21.874-0.933
		c9.07-7.212,13.265-31.647,1.157-47.705C383.302,404.691,381.443,365.134,357.007,321.147z"/>
	<path fill="#FFFFFF" d="M291.237,280.773c0,0-2.182,1.223-3.055,2.793c0,0-1.483-1.396-1.919-2.793c0,0-0.18,4.188,0.349,5.499
		c0,0-1.047,2.438-0.96,5.497c0,0,0.96-1.396,2.354-2.008c0,0,1.312,4.103,3.229,6.021c0,0-0.959-4.363-0.959-6.633
		c0,0,3.839-0.873,4.362-1.396c0,0-3.321-0.693-4.497-2.354C290.143,285.398,290.364,282.431,291.237,280.773z"/>
	<path fill="#FFFFFF" d="M444.51,290.429c1.048,3.84,2.438,2.676,1.63,8.022c-0.813,5.354-5.354,10.241-5.354,10.241
		c0.115-1.164-0.581-2.095-0.581-2.095C443.466,302.647,444.51,290.429,444.51,290.429z"/>
	<path fill="#FFFFFF" d="M131.626,205.606c-22.341-7.68-44.681-17.453-46.771-41.888c-2.1-24.438,27.751-48.521,27.751-48.521
		c-4.893,18.676-3.458,26.851,9.277,38.37c16.221,14.661,62.805,17.307,70.827,17.655c8.029,0.35,23.737-3.146,38.052,11.862
		c14.312,15.017,7.854,35.954,7.854,35.954c1.396-7.854-1.919-14.48-1.919-14.48c1.57,4.713,0,7.331,0,7.331
		S153.966,213.285,131.626,205.606z"/>
	<path fill="#FFFFFF" d="M331.99,518.021c-12.122-8.594-15.708-29.672-12.217-56.549s18.5-36.65,18.5-36.65s9.076-4.888,11.52,3.489
		c3.416,11.717-2.967,9.949-6.283,28.625c-3.879,21.846,0,38.396,15.016,46.773C373.53,512.092,351.19,531.635,331.99,518.021z"/>
	<path fill="#FFFFFF" d="M494.306,205.489c-19.315,9.309-45.841,5.12-45.841,5.12c-1.397-11.17-7.45-19.781-7.45-19.781
		s17.722,2.25,39.328-2.792c27.925-6.516,24.202-30.02,24.202-30.02C511.761,173.375,513.622,196.181,494.306,205.489z"/>
	<path fill="#FFFFFF" d="M364.452,495.684c-12.101,0-16.289-9.077-16.289-9.077s5.816,3.026,25.366,1.628
		c19.548-1.395,25.365-10.241,25.365-10.241C391.787,491.299,376.555,495.684,364.452,495.684z"/>
</g>
<g>
	<path fill="#BDC2BC" d="M534.992,588.913c-0.739,0-1.34-0.602-1.34-1.341v-16.588c0-0.739,0.601-1.339,1.34-1.339h52.497
		c0.738,0,1.339,0.6,1.339,1.339v16.588c0,0.739-0.601,1.341-1.339,1.341H534.992z"/>
	<g>
		<path d="M558.027,571.51c-2.725,0-4.935,2.21-4.935,4.934c0,2.729,2.21,4.938,4.935,4.938c2.728,0,4.938-2.21,4.938-4.938
			C562.964,573.719,560.755,571.51,558.027,571.51z"/>
		<path fill="#FFFFFF" d="M558.027,580.461c-2.219,0-4.015-1.798-4.015-4.019c0-2.217,1.797-4.014,4.015-4.014
			c2.219,0,4.019,1.798,4.019,4.014C562.046,578.664,560.246,580.461,558.027,580.461z"/>
		<g>
			<path d="M559.402,575.293c0-0.219-0.182-0.398-0.398-0.398h-1.952c-0.221,0-0.401,0.181-0.401,0.398v1.985h0.528v2.338h1.694
				v-2.338h0.527L559.402,575.293L559.402,575.293z"/>
			<path d="M558.695,573.942c0,0.37-0.3,0.668-0.667,0.668c-0.371,0-0.67-0.299-0.67-0.668s0.301-0.67,0.67-0.67
				C558.395,573.272,558.695,573.571,558.695,573.942z"/>
		</g>
	</g>
	<path d="M587.175,569.198h-51.868c-1.157,0-2.102,0.943-2.102,2.102v15.96c0,1.158,0.943,2.1,2.102,2.1h51.868
		c1.158,0,2.102-0.94,2.102-2.1V571.3C589.275,570.141,588.332,569.198,587.175,569.198z M588.644,583.375h-37.865
		c-1.477,2.809-4.417,4.725-7.81,4.725s-6.333-1.916-7.809-4.725h-1.326V571.3c0-0.812,0.658-1.471,1.47-1.471h51.869
		c0.811,0,1.471,0.658,1.471,1.471V583.375L588.644,583.375z"/>
	<g>
		<path fill="#FFFFFF" d="M557.773,584.933c0.1,0.14,0.15,0.302,0.15,0.495c0,0.198-0.052,0.357-0.151,0.479
			c-0.057,0.066-0.14,0.131-0.25,0.187c0.168,0.061,0.294,0.155,0.378,0.289c0.085,0.13,0.127,0.289,0.127,0.477
			c0,0.192-0.049,0.365-0.145,0.519c-0.062,0.104-0.14,0.188-0.23,0.256c-0.104,0.078-0.225,0.137-0.369,0.164
			c-0.141,0.028-0.294,0.043-0.459,0.043h-1.466v-3.256h1.573C557.326,584.594,557.607,584.706,557.773,584.933z M556.009,585.151
			v0.717h0.79c0.143,0,0.257-0.026,0.345-0.08s0.133-0.147,0.133-0.286c0-0.15-0.059-0.248-0.176-0.301
			c-0.1-0.033-0.228-0.05-0.383-0.05H556.009L556.009,585.151z M556.009,586.407v0.869h0.789c0.143,0,0.25-0.02,0.328-0.058
			c0.145-0.071,0.217-0.206,0.217-0.407c0-0.17-0.07-0.285-0.208-0.35c-0.077-0.034-0.188-0.056-0.327-0.056L556.009,586.407
			L556.009,586.407z"/>
		<path fill="#FFFFFF" d="M560.469,584.586h0.771l-1.089,2.034v1.222h-0.68v-1.222l-1.127-2.034h0.8l0.677,1.418L560.469,584.586z"
			/>
	</g>
	<g>
		<g>
			<path fill="#FFFFFF" d="M566.517,584.426h0.776l1.403,2.473v-2.473h0.692v3.545h-0.742l-1.443-2.517v2.517h-0.688
				L566.517,584.426L566.517,584.426z"/>
			<path fill="#FFFFFF" d="M570.425,584.797c0.285-0.292,0.647-0.437,1.09-0.437c0.591,0,1.02,0.195,1.295,0.587
				c0.148,0.221,0.229,0.439,0.242,0.661h-0.741c-0.048-0.17-0.106-0.299-0.183-0.384c-0.132-0.153-0.328-0.229-0.586-0.229
				c-0.265,0-0.473,0.107-0.623,0.324c-0.152,0.219-0.229,0.525-0.229,0.923c0,0.399,0.08,0.696,0.241,0.895
				c0.161,0.197,0.365,0.299,0.614,0.299c0.252,0,0.447-0.086,0.581-0.256c0.072-0.09,0.136-0.229,0.183-0.41h0.736
				c-0.066,0.387-0.226,0.699-0.486,0.943c-0.262,0.241-0.594,0.36-1.002,0.36c-0.505,0-0.901-0.163-1.19-0.489
				c-0.288-0.328-0.434-0.777-0.434-1.353C569.93,585.607,570.095,585.133,570.425,584.797z"/>
		</g>
	</g>
	<g>
		<path fill="#FFFFFF" d="M578.517,586.944c0.022,0.173,0.073,0.303,0.145,0.389c0.132,0.154,0.354,0.233,0.673,0.233
			c0.19,0,0.347-0.021,0.465-0.062c0.225-0.078,0.338-0.226,0.338-0.438c0-0.125-0.055-0.223-0.166-0.291
			c-0.113-0.066-0.285-0.126-0.525-0.178l-0.411-0.088c-0.401-0.093-0.679-0.188-0.829-0.294c-0.254-0.173-0.383-0.448-0.383-0.819
			c0-0.339,0.126-0.619,0.376-0.846c0.249-0.224,0.617-0.336,1.102-0.336c0.401,0,0.748,0.104,1.033,0.315
			c0.284,0.213,0.436,0.521,0.45,0.922h-0.762c-0.014-0.227-0.117-0.387-0.306-0.484c-0.126-0.065-0.282-0.096-0.473-0.096
			c-0.209,0-0.375,0.041-0.499,0.122c-0.126,0.083-0.188,0.196-0.188,0.346c0,0.135,0.062,0.236,0.186,0.303
			c0.079,0.043,0.246,0.096,0.502,0.155l0.665,0.156c0.292,0.068,0.513,0.162,0.655,0.276c0.227,0.179,0.339,0.435,0.339,0.771
			c0,0.351-0.134,0.637-0.4,0.863c-0.269,0.229-0.646,0.344-1.134,0.344c-0.5,0-0.891-0.112-1.176-0.339
			c-0.287-0.224-0.432-0.536-0.432-0.929L578.517,586.944L578.517,586.944z"/>
		<path fill="#FFFFFF" d="M582.542,584.325h0.896l1.34,3.791h-0.858l-0.249-0.778h-1.396l-0.255,0.778h-0.828L582.542,584.325z
			 M582.486,586.681h0.972l-0.479-1.49L582.486,586.681z"/>
	</g>
	<g>
		<circle cx="542.95" cy="579.28" r="7.771"/>
		<circle fill="#FFFFFF" cx="542.95" cy="579.278" r="6.322"/>
		<g>
			<path d="M542.597,578.348l-1.188,0.215c-0.041-0.237-0.131-0.416-0.273-0.537c-0.143-0.119-0.325-0.178-0.55-0.178
				c-0.302,0-0.537,0.104-0.72,0.31c-0.18,0.204-0.268,0.555-0.268,1.038c0,0.539,0.09,0.921,0.271,1.146
				c0.183,0.223,0.426,0.332,0.73,0.332c0.229,0,0.417-0.064,0.562-0.195c0.146-0.131,0.249-0.354,0.311-0.67l1.182,0.199
				c-0.123,0.545-0.354,0.954-0.707,1.229c-0.348,0.276-0.813,0.416-1.399,0.416c-0.668,0-1.197-0.21-1.594-0.629
				c-0.396-0.42-0.592-1.004-0.592-1.746c0-0.75,0.198-1.337,0.594-1.754c0.397-0.42,0.936-0.627,1.613-0.627
				c0.555,0,0.995,0.118,1.322,0.355C542.219,577.497,542.453,577.86,542.597,578.348z"/>
			<path d="M547.477,578.348l-1.188,0.215c-0.039-0.237-0.131-0.416-0.272-0.537c-0.144-0.119-0.325-0.178-0.551-0.178
				c-0.301,0-0.539,0.104-0.72,0.31c-0.178,0.204-0.268,0.555-0.268,1.038c0,0.539,0.09,0.921,0.271,1.146
				c0.182,0.223,0.426,0.332,0.729,0.332c0.229,0,0.417-0.064,0.562-0.195c0.146-0.131,0.25-0.354,0.311-0.67l1.183,0.199
				c-0.123,0.545-0.356,0.954-0.708,1.229c-0.349,0.276-0.814,0.416-1.4,0.416c-0.668,0-1.197-0.21-1.593-0.629
				c-0.396-0.42-0.592-1.004-0.592-1.746c0-0.75,0.196-1.337,0.595-1.754c0.396-0.42,0.934-0.627,1.612-0.627
				c0.554,0,0.994,0.118,1.322,0.355C547.1,577.497,547.337,577.86,547.477,578.348z"/>
		</g>
	</g>
	<g>
		<path d="M569.93,571.719c-2.61,0-4.727,2.115-4.727,4.726c0,2.612,2.115,4.729,4.727,4.729s4.728-2.113,4.728-4.729
			C574.658,573.834,572.546,571.719,569.93,571.719z"/>
		<circle fill="#FFFFFF" cx="569.93" cy="576.447" r="3.846"/>
		
			<rect x="569.488" y="571.955" transform="matrix(0.4225 -0.9063 0.9063 0.4225 -193.3242 849.4399)" width="0.924" height="8.958"/>
		<g>
			<path d="M569.58,579.151v-0.637c-0.444-0.013-0.877-0.14-1.129-0.277l0.197-0.776c0.279,0.153,0.672,0.292,1.101,0.292
				c0.382,0,0.646-0.151,0.646-0.409c0-0.252-0.223-0.41-0.709-0.578c-0.711-0.238-1.196-0.568-1.196-1.215
				c0-0.59,0.411-1.047,1.122-1.181v-0.631h0.65v0.584c0.443,0.015,0.742,0.115,0.968,0.222l-0.199,0.748
				c-0.167-0.079-0.478-0.232-0.954-0.232c-0.434,0-0.571,0.193-0.571,0.381c0,0.212,0.231,0.356,0.798,0.564
				c0.796,0.276,1.107,0.643,1.107,1.246c0,0.591-0.411,1.09-1.182,1.221v0.684L569.58,579.151L569.58,579.151z"/>
		</g>
	</g>
	<g>
		<path d="M581.185,571.784c-2.571,0-4.66,2.086-4.66,4.658c0,2.576,2.089,4.665,4.66,4.665c2.576,0,4.665-2.089,4.665-4.665
			C585.852,573.87,583.761,571.784,581.185,571.784z"/>
		<path fill="#FFFFFF" d="M581.185,580.238c-2.092,0-3.789-1.698-3.789-3.794c0-2.091,1.695-3.79,3.789-3.79
			c2.096,0,3.793,1.696,3.793,3.79C584.979,578.538,583.281,580.238,581.185,580.238z"/>
		<path d="M581.185,573.885c-1.016,0-1.874,0.733-2.182,1.746h-0.294l0.933,1.016l0.93-1.016h-0.348
			c0.215-0.37,0.563-0.616,0.96-0.616c0.65,0,1.179,0.646,1.179,1.443c0,0.793-0.526,1.44-1.179,1.44
			c-0.432,0-0.81-0.289-1.016-0.72h-1.196c0.278,1.068,1.167,1.854,2.214,1.854c1.273,0,2.311-1.155,2.311-2.576
			C583.496,575.034,582.464,573.885,581.185,573.885z"/>
	</g>
</g>
<g>
	<path d="M11.392,586.197c-0.652,0-1.248-0.138-1.786-0.41c-0.539-0.271-1.002-0.631-1.39-1.07c-0.388-0.441-0.688-0.949-0.9-1.521
		C7.106,582.619,7,582.032,7,581.432c0-0.626,0.114-1.226,0.338-1.797c0.226-0.574,0.533-1.08,0.927-1.521
		c0.393-0.44,0.857-0.792,1.396-1.053c0.538-0.26,1.119-0.39,1.746-0.39c0.653,0,1.248,0.138,1.786,0.417
		c0.538,0.275,0.999,0.641,1.382,1.09s0.682,0.959,0.893,1.528c0.213,0.567,0.318,1.144,0.318,1.726c0,0.636-0.113,1.24-0.338,1.812
		c-0.225,0.574-0.534,1.079-0.926,1.517c-0.394,0.437-0.856,0.785-1.391,1.045C12.598,586.066,12.018,586.197,11.392,586.197z
		 M7.675,581.432c0,0.539,0.091,1.057,0.271,1.555s0.437,0.939,0.768,1.324c0.33,0.383,0.724,0.69,1.178,0.92
		c0.455,0.229,0.955,0.344,1.502,0.344c0.563,0,1.072-0.117,1.527-0.355c0.454-0.239,0.846-0.555,1.17-0.946
		c0.327-0.392,0.578-0.834,0.755-1.328s0.265-0.997,0.265-1.51c0-0.538-0.092-1.057-0.277-1.555
		c-0.185-0.498-0.442-0.939-0.773-1.323s-0.723-0.691-1.179-0.919c-0.454-0.229-0.949-0.347-1.486-0.347
		c-0.565,0-1.076,0.119-1.536,0.357c-0.458,0.238-0.85,0.554-1.17,0.945c-0.322,0.394-0.571,0.836-0.748,1.33
		C7.762,580.422,7.675,580.923,7.675,581.432z"/>
	<path d="M23.14,578.299c-0.608-0.681-1.469-1.021-2.58-1.021c-0.918,0-1.587,0.175-2.006,0.523
		c-0.417,0.349-0.628,0.817-0.628,1.407c0,0.302,0.054,0.554,0.159,0.755c0.106,0.202,0.271,0.373,0.496,0.51
		c0.226,0.137,0.513,0.256,0.86,0.355c0.35,0.103,0.761,0.2,1.237,0.299c0.512,0.106,0.97,0.223,1.377,0.352
		c0.404,0.127,0.75,0.289,1.038,0.483c0.287,0.193,0.508,0.433,0.662,0.715c0.153,0.281,0.231,0.632,0.231,1.044
		c0,0.414-0.082,0.775-0.245,1.086c-0.163,0.31-0.392,0.565-0.688,0.773c-0.297,0.208-0.648,0.364-1.059,0.471
		c-0.411,0.104-0.867,0.157-1.37,0.157c-1.463,0-2.704-0.467-3.717-1.401l0.356-0.542c0.396,0.415,0.882,0.743,1.457,0.984
		c0.573,0.242,1.217,0.363,1.931,0.363c0.821,0,1.461-0.147,1.925-0.449c0.462-0.301,0.695-0.754,0.695-1.362
		c0-0.309-0.06-0.57-0.178-0.787s-0.303-0.404-0.551-0.562c-0.247-0.158-0.554-0.295-0.919-0.409
		c-0.364-0.115-0.796-0.225-1.29-0.33c-0.503-0.105-0.945-0.219-1.329-0.338c-0.384-0.117-0.708-0.269-0.972-0.449
		c-0.265-0.181-0.463-0.398-0.596-0.654s-0.199-0.578-0.199-0.967c0-0.423,0.082-0.797,0.246-1.124
		c0.163-0.326,0.391-0.603,0.682-0.826c0.291-0.226,0.64-0.395,1.044-0.511c0.406-0.114,0.854-0.17,1.351-0.17
		c0.607,0,1.15,0.09,1.627,0.27c0.477,0.183,0.909,0.459,1.296,0.828L23.14,578.299z"/>
	<path d="M25.734,586.131v-9.395h3.863c0.396,0,0.763,0.085,1.098,0.251c0.335,0.168,0.624,0.392,0.866,0.669
		s0.432,0.591,0.568,0.938c0.138,0.35,0.205,0.698,0.205,1.053c0,0.381-0.063,0.746-0.191,1.098
		c-0.128,0.354-0.31,0.666-0.542,0.939c-0.232,0.272-0.512,0.492-0.833,0.654c-0.323,0.164-0.683,0.245-1.078,0.245h-3.281v3.546
		L25.734,586.131L25.734,586.131z M26.408,581.963h3.241c0.309,0,0.586-0.064,0.833-0.191s0.456-0.3,0.629-0.516
		c0.171-0.218,0.303-0.463,0.396-0.741c0.092-0.276,0.139-0.565,0.139-0.866c0-0.309-0.056-0.602-0.165-0.879
		c-0.11-0.279-0.26-0.523-0.45-0.734c-0.189-0.213-0.41-0.381-0.661-0.504s-0.519-0.186-0.801-0.186h-3.162L26.408,581.963
		L26.408,581.963z"/>
	<path d="M33.963,586.131v-9.395h3.917c0.397,0,0.764,0.085,1.098,0.251c0.335,0.168,0.622,0.392,0.859,0.669
		c0.238,0.277,0.426,0.591,0.563,0.938c0.137,0.35,0.204,0.698,0.204,1.053c0,0.344-0.054,0.676-0.159,0.998
		c-0.105,0.324-0.254,0.611-0.45,0.867c-0.194,0.256-0.427,0.467-0.7,0.635c-0.273,0.169-0.572,0.277-0.899,0.331l2.341,3.651
		h-0.781l-2.274-3.547h-3.043v3.547L33.963,586.131L33.963,586.131z M34.636,581.963h3.295c0.299,0,0.571-0.064,0.819-0.197
		c0.247-0.132,0.458-0.307,0.636-0.522c0.176-0.216,0.311-0.462,0.402-0.741c0.093-0.277,0.141-0.562,0.141-0.853
		c0-0.3-0.056-0.589-0.166-0.866c-0.11-0.276-0.261-0.522-0.45-0.733c-0.189-0.212-0.409-0.382-0.661-0.511
		c-0.252-0.127-0.523-0.192-0.814-0.192h-3.201V581.963z"/>
	<path d="M48.899,585.521v0.608h-6.258v-9.395h6.139v0.61h-5.464v3.688h4.775v0.582h-4.775v3.903h5.583V585.521z"/>
	<path d="M50.421,576.736l3.281,5.199l3.308-5.199h0.742l-3.706,5.849v3.546h-0.674v-3.572l-3.69-5.821L50.421,576.736
		L50.421,576.736z"/>
	<path d="M59.126,586.131v-9.395h3.122c0.741,0,1.392,0.124,1.951,0.371c0.561,0.248,1.025,0.583,1.396,1.007
		c0.371,0.423,0.647,0.919,0.833,1.487c0.185,0.567,0.277,1.175,0.277,1.819c0,0.715-0.104,1.36-0.311,1.938
		s-0.505,1.07-0.894,1.481c-0.388,0.409-0.857,0.729-1.41,0.953c-0.552,0.224-1.167,0.337-1.845,0.337L59.126,586.131
		L59.126,586.131z M66.031,581.421c0-0.592-0.083-1.137-0.251-1.635c-0.167-0.498-0.412-0.93-0.733-1.291
		c-0.322-0.359-0.718-0.644-1.185-0.848c-0.466-0.202-1.005-0.303-1.614-0.303h-2.447v8.177h2.447c0.617,0,1.162-0.104,1.633-0.312
		c0.473-0.206,0.866-0.495,1.185-0.865c0.316-0.37,0.559-0.805,0.722-1.303S66.031,582.003,66.031,581.421z"/>
	<path d="M67.288,586.131l3.996-9.395h0.555l3.997,9.395h-0.728l-1.311-3.097h-4.484l-1.311,3.097H67.288z M71.562,577.557
		l-2.09,4.922h4.141L71.562,577.557z"/>
	<path d="M80.148,576.802h0.661l1.401,3.413l1.403-3.413h0.661l-1.654,3.956l1.971,4.577l3.6-8.601h0.742l-4.023,9.395h-0.62
		l-2.063-4.829l-2.077,4.829h-0.622l-4.008-9.395h0.728l3.612,8.601l1.945-4.577L80.148,576.802z"/>
	<path d="M91.05,578.008v8.123h-0.675v-9.394h0.518l6.588,8.27v-8.255h0.675v9.379h-0.622L91.05,578.008z"/>
	<path d="M100.297,586.131v-1.125h0.583v1.125H100.297z"/>
	<path d="M102.401,581.368c0-0.563,0.098-1.127,0.298-1.688c0.197-0.561,0.486-1.062,0.866-1.502c0.379-0.44,0.844-0.8,1.395-1.077
		c0.552-0.277,1.181-0.418,1.887-0.418c0.838,0,1.552,0.192,2.144,0.576c0.591,0.383,1.027,0.877,1.309,1.475l-0.556,0.318
		c-0.159-0.327-0.351-0.601-0.576-0.82c-0.224-0.221-0.466-0.399-0.727-0.537c-0.261-0.137-0.533-0.234-0.814-0.298
		c-0.281-0.062-0.562-0.092-0.833-0.092c-0.6,0-1.129,0.121-1.589,0.364c-0.458,0.241-0.847,0.558-1.164,0.944
		c-0.316,0.39-0.557,0.826-0.722,1.316c-0.164,0.489-0.245,0.981-0.245,1.475c0,0.558,0.097,1.086,0.291,1.59
		c0.195,0.502,0.459,0.945,0.795,1.328c0.334,0.383,0.731,0.691,1.19,0.919c0.458,0.229,0.951,0.346,1.48,0.346
		c0.282,0,0.571-0.036,0.866-0.106c0.296-0.069,0.583-0.18,0.86-0.329c0.277-0.15,0.536-0.343,0.774-0.576
		c0.238-0.232,0.437-0.51,0.594-0.827l0.569,0.278c-0.159,0.352-0.372,0.665-0.642,0.939c-0.271,0.271-0.57,0.502-0.906,0.688
		c-0.335,0.186-0.689,0.324-1.065,0.416c-0.375,0.092-0.742,0.139-1.104,0.139c-0.644,0-1.233-0.141-1.768-0.423
		c-0.532-0.281-0.994-0.649-1.382-1.104c-0.387-0.455-0.689-0.972-0.905-1.549C102.509,582.555,102.401,581.969,102.401,581.368z"/>
	<path d="M115.882,586.197c-0.652,0-1.247-0.138-1.785-0.41c-0.538-0.271-1.001-0.631-1.39-1.07
		c-0.388-0.441-0.688-0.949-0.898-1.521c-0.212-0.572-0.317-1.16-0.317-1.76c0-0.627,0.112-1.225,0.337-1.798
		c0.224-0.573,0.534-1.081,0.926-1.521c0.394-0.44,0.857-0.792,1.396-1.052c0.539-0.261,1.121-0.391,1.747-0.391
		c0.65,0,1.247,0.139,1.786,0.416c0.538,0.276,0.999,0.643,1.381,1.091c0.384,0.45,0.682,0.959,0.894,1.529
		c0.211,0.566,0.317,1.144,0.317,1.726c0,0.635-0.113,1.239-0.337,1.812c-0.226,0.572-0.534,1.077-0.928,1.514
		c-0.393,0.438-0.854,0.785-1.389,1.046C117.087,586.066,116.509,586.197,115.882,586.197z M112.164,581.432
		c0,0.539,0.09,1.057,0.271,1.555c0.181,0.498,0.436,0.939,0.767,1.324c0.331,0.383,0.724,0.69,1.178,0.92s0.954,0.344,1.501,0.344
		c0.564,0,1.073-0.117,1.527-0.355c0.456-0.239,0.845-0.555,1.171-0.946s0.578-0.834,0.754-1.328
		c0.175-0.494,0.266-0.997,0.266-1.51c0-0.538-0.094-1.057-0.278-1.555c-0.186-0.498-0.443-0.939-0.774-1.323
		s-0.724-0.691-1.178-0.919c-0.455-0.229-0.95-0.347-1.488-0.347c-0.563,0-1.075,0.119-1.534,0.357s-0.851,0.554-1.172,0.945
		c-0.321,0.394-0.57,0.836-0.748,1.33C112.252,580.422,112.164,580.923,112.164,581.432z"/>
	<path d="M130.659,586.131v-8.123l-3.704,6.338h-0.423l-3.705-6.338v8.123h-0.675v-9.394h0.675l3.916,6.722l3.916-6.722h0.675v9.394
		H130.659L130.659,586.131z"/>
</g>
</svg>
