<?xml version="1.0" encoding="utf-8"?>
<!-- Generator: Adobe Illustrator 16.0.0, SVG Export Plug-In . SVG Version: 6.00 Build 0)  -->
<!DOCTYPE svg PUBLIC "-//W3C//DTD SVG 1.1//EN" "http://www.w3.org/Graphics/SVG/1.1/DTD/svg11.dtd">
<svg version="1.1" id="Layer_1" xmlns="http://www.w3.org/2000/svg" xmlns:xlink="http://www.w3.org/1999/xlink" x="0px" y="0px"
	 width="595.275px" height="595.279px" viewBox="0 0 595.275 595.279" enable-background="new 0 0 595.275 595.279"
	 xml:space="preserve">
<metadata><?xpacket begin="﻿" id="W5M0MpCehiHzreSzNTczkc9d"?>
<x:xmpmeta xmlns:x="adobe:ns:meta/" x:xmptk="Adobe XMP Core 5.3-c011 66.145661, 2012/02/06-14:56:27        ">
   <rdf:RDF xmlns:rdf="http://www.w3.org/1999/02/22-rdf-syntax-ns#">
      <rdf:Description rdf:about=""
            xmlns:dc="http://purl.org/dc/elements/1.1/">
         <dc:format>image/svg+xml</dc:format>
         <dc:title>
            <rdf:Alt>
               <rdf:li xml:lang="x-default">NFL Logo Redesigns</rdf:li>
               <rdf:li xml:lang="en_us">NFL Logo Redesigns</rdf:li>
            </rdf:Alt>
         </dc:title>
         <dc:creator>
            <rdf:Seq>
               <rdf:li>Max O'Brien/Osprey Dawn</rdf:li>
            </rdf:Seq>
         </dc:creator>
      </rdf:Description>
      <rdf:Description rdf:about=""
            xmlns:xmp="http://ns.adobe.com/xap/1.0/"
            xmlns:xmpGImg="http://ns.adobe.com/xap/1.0/g/img/">
         <xmp:CreatorTool>Adobe Illustrator CS6 (Macintosh)</xmp:CreatorTool>
         <xmp:ModifyDate>2013-10-06T23:55:10+13:00</xmp:ModifyDate>
         <xmp:MetadataDate>2013-10-06T23:55:10+13:00</xmp:MetadataDate>
         <xmp:CreateDate>2013-10-06T23:55:10+13:00</xmp:CreateDate>
         <xmp:Thumbnails>
            <rdf:Alt>
               <rdf:li rdf:parseType="Resource">
                  <xmpGImg:width>256</xmpGImg:width>
                  <xmpGImg:height>224</xmpGImg:height>
                  <xmpGImg:format>JPEG</xmpGImg:format>
                  <xmpGImg:image>/9j/4AAQSkZJRgABAgEASABIAAD/7QAsUGhvdG9zaG9wIDMuMAA4QklNA+0AAAAAABAASAAAAAEA&#xA;AQBIAAAAAQAB/+4ADkFkb2JlAGTAAAAAAf/bAIQABgQEBAUEBgUFBgkGBQYJCwgGBggLDAoKCwoK&#xA;DBAMDAwMDAwQDA4PEA8ODBMTFBQTExwbGxscHx8fHx8fHx8fHwEHBwcNDA0YEBAYGhURFRofHx8f&#xA;Hx8fHx8fHx8fHx8fHx8fHx8fHx8fHx8fHx8fHx8fHx8fHx8fHx8fHx8fHx8f/8AAEQgA4AEAAwER&#xA;AAIRAQMRAf/EAaIAAAAHAQEBAQEAAAAAAAAAAAQFAwIGAQAHCAkKCwEAAgIDAQEBAQEAAAAAAAAA&#xA;AQACAwQFBgcICQoLEAACAQMDAgQCBgcDBAIGAnMBAgMRBAAFIRIxQVEGE2EicYEUMpGhBxWxQiPB&#xA;UtHhMxZi8CRygvElQzRTkqKyY3PCNUQnk6OzNhdUZHTD0uIIJoMJChgZhJRFRqS0VtNVKBry4/PE&#xA;1OT0ZXWFlaW1xdXl9WZ2hpamtsbW5vY3R1dnd4eXp7fH1+f3OEhYaHiImKi4yNjo+Ck5SVlpeYmZ&#xA;qbnJ2en5KjpKWmp6ipqqusra6voRAAICAQIDBQUEBQYECAMDbQEAAhEDBCESMUEFURNhIgZxgZEy&#xA;obHwFMHR4SNCFVJicvEzJDRDghaSUyWiY7LCB3PSNeJEgxdUkwgJChgZJjZFGidkdFU38qOzwygp&#xA;0+PzhJSktMTU5PRldYWVpbXF1eX1RlZmdoaWprbG1ub2R1dnd4eXp7fH1+f3OEhYaHiImKi4yNjo&#xA;+DlJWWl5iZmpucnZ6fkqOkpaanqKmqq6ytrq+v/aAAwDAQACEQMRAD8A9U4q7FXYq7FXYq7FXYq7&#xA;FXYq7FXYqsmmhhieWZ1iijBZ5HIVVA6kk7DEBWCap+d/kK1u2sNMnn8xamOljokL3rnts6Ui/wCH&#xA;zKjo5kWfSPPZqOaPTf3IQ+bvzj1YFtH8o2miW1Kpea/d1PHxa3th6iU8Ccl4WGPORPuH60cczyFe&#xA;9j2qar5gj5DzN+bml6Q37dhpUFrzFfB5Gefb/Vy2MY/w4yffbAk9ZBit95j/ACTFf0n+YvmbXJN+&#xA;UQuLsRdBsqrDEg7dG69cvGPN0hEfJrModZEpXN5m/wCcWGZludK1jUanl6ss12fiPU73Ue/0ZMY9&#xA;V0MR8v1I4sXcWk86f84qiT0v8I34RRQTMrFTQf8AMWX+8Y+Dqv5w/HwRx4u5UXzL/wA4mzTq7eXr&#xA;+3ZBVZAbpACDUbRXXX3pg8PVfzh9n6k8WLuTGz1f/nGlwq2fmLWdFc9PTn1JCC3XfjMop92RMNT1&#xA;jE/JIOLvIZDpzeUpqHy9+c1/A5+xHqd5b3PXegjukiY/a6ZTLj/ixD4D9TMV0myi2sfztt4vW0vz&#xA;PofmaDs17atalqdQGsmda5SThPOMo/H9bYBPoQVU/mD+Y+lH/nYfIV1NAv2rvQ7iK/5f6tufTlwe&#xA;Bjl9M/nsviSHOPyRuk/nX+XOoXP1ObU/0TqFaPZarG9lKpPQEzBUr8myMtJkAurHlukZolm8UsU0&#xA;ayxOskTjkjoQykHuCNjmMQ2rsVdirsVdirsVdirsVdirsVdirsVdirsVdirsVdiqC1jW9I0XT5NR&#xA;1a8isbGH+8uJ3CIK9BU9SewG5yUIGRoCygyA3Lzm9/NTzJr1vLL5I0uO30ZB+983a+xs9PVenOGN&#xA;uMko/wArYV6jMsaaMfrO/wDNG5aTlJ+nl3l5X5o87/lrDMZPNWuaj+ZGrRnktlAfqWjRuOgVEKqf&#xA;9ZeYPh1zOx4cn8IGMfMtEpx6ni+5jeo/85H+bo7Y2HlSw0/yrpoFI4bGBGkA92deFfcRg5bHQQu5&#xA;EyPmwOoPTZ59rnnHzZrzFtZ1i81AE1CXE8joP9VCeK/QMy4YoR5ABplMnmUnyxi7FXYq7FXYqi9K&#xA;0fV9XuxZ6TY3GoXZUuLe1ieaTivVuEYZqDIymIiyaSATyUbq0urS5ktbuF7e5hYpNBKpSRGHVWVg&#xA;CCPA4QQRYUhdZahf2EwnsbmW1nHSWB2jcU/ylIOAxB5qDTONC/Pj81tGKiHX5ruJesV8FugR4FpQ&#xA;0n3MMx56LFLp8myOeY6s9sv+coLPVoEsvPflKz1a1/bkhVWp7iC4Egr/AM9BmKezjHeEiG4am/qD&#xA;IfLd3+S+rTep5F8133kXVpTUWTStHbu/b1Le4Z7eT/VSTKcgzR+uImGUTA/SeFnv6d/OLy0obVtJ&#xA;tvOOlqKnUNHIt70J/M1pJVJGP8sRzG4MM+R4D58vm3cU48xaf+VfzR8l+ZZjaWN99X1VDxm0i9U2&#xA;14jDqphkoWI78KjKsmmnDcjbv6Mo5YyZXlDY7FXYq7FXYq7FXYq7FXYq7FXYq7FXYq8787/m7a6X&#xA;dXGi+W4Y9Y8wW68r1nkWLT9PStPVvrkkIgBP2K1PTY0rl4dKZDiltH7T7mmeWthuXgHmf80tGTUD&#xA;f3sn+OvMsZPo3V6rR6JZnws7L4Wlp05yca0rTNpj0xqh6I/7I+8uJLKP6x+x535q89ebPNVz9Y17&#xA;UprziaxQMeMEftHCtI0+gZl48MID0hqlMy5pFlrB2KuxVtOHNedeFRyp1p3pXFX1H+Z19+Rj/k9J&#xA;Ho50wymBP0HFben9dWaooWC/vlPX1efXeu+aTTjP429+fc52Q4+DZ8t5u3BdirsVeu/848fmj5Y8&#xA;jalqya/E6Q6mkIjv4kMjRmEuSjKPi4v6n7I6gV9sDXaaWQDh6ORp8oiTbGvzm87aR5y8+XetaTbm&#xA;CyaOOBHdQkk3pLT1XAJ3PQf5IGXaTCccBE82GaYlKwwfMlqdirsVdirK/KH5p+fPKLKNF1aaO1U1&#xA;NjKfWtiO49KTkq18VoffKMumhk+oNkMso8i9bsfzx/LTzzDHY/mXoEdpeKOMWtWiuwQjcFWT/SYq&#xA;HsC48cwDo8mPfGfh+Nm8Zoy+oPRdJg8/aHYx6l5J1uLz95VbdNOvp0+uoo6rBfL8LkfyyjbpSuYk&#xA;jjkamOCXly+TcOIbxPEGVeT/AM0fLHmW4bTlaXS9fh2udC1FDb3iEdaI32x3qtdutMpy6aUN+ce8&#xA;cmyGUS26svzHbHYq7FXYq7FXYq7FXYq7FWmZVUsxAUCpJ2AAxV84fm5/zkVaXM9z5f8AK948NhFV&#xA;L/V7avrzkEgw2b0Kop7zHt9kHblt9LoCPVIb936/1OHl1HQPAdW8y3+oWyWCBbTSom9SLT4KiP1K&#xA;UMspJLSynu7knsKLQDaRxgG+riGVpTljFMfL3l7WfMOr2+kaNatd6hdNxhhSg6CpLMxCqqgVJJoM&#xA;hPIICzyZRiSaCP8AOfkLzV5Mv4rLzDZG0lnT1LdwyyRyKNjxdCykqeo6j6RkcWeOQXEpnAx5sfy1&#xA;g7FWZ+Wfyc/MnzIEk03Q7hbZ9xdXIFtER4q0xTkP9WuY2TV44cy2RwyPIMmf8k/LejCvnDz9pOmS&#xA;rvJZ2PK/nX2KKY3H/AnKvzkpfRAn7GzwQOcgotD/AM436XsbjzB5gl8YlhtoD/wYjkH443qJfzYo&#xA;/djvKm/nv8lrUFbH8uGuDQj1rzVbmvWoqih1+4jD4OY85/YvHD+b9rQ/NnyVHMXg/LbRgvZZXkl7&#xA;b1qAv4Y/lp/z5L4sf5oXv+cHlJ0KH8t9CAPUqrKfoIAOP5Wf8+S+KP5oaX80PyylCi8/LGxcAbm3&#xA;vp4DU99kb7sfy+TpkPyXxI/zVRfMn/OO92CLryhq2l1/asb03BGxG31iRRg8PUDlIH3heLH3FtvL&#xA;v/OO+o/7w+atX0R36LqNoLlVJOw/0dF2+bfTj4moHOIPuK8OM9SEvufyq8tE+rp/5haDNZjdnuWn&#xA;tpqddoBHKSfauTGpl1hJBxD+cGP+ZrHyPptlHZaLqM2uaoXD3Wp+k1taIgBBigjf965LEVdwBtsN&#xA;8txmZNyFDu6sJCI5bsay5g7FU98peefNXlK+F5oGoy2bkgyxA8oZQO0kTVR/pG3bKsuGOQVIM4TM&#xA;eT3zQPzW/LT80YbbR/PtjHpHmFCFsdVhYxKJK1UwXP24WrvwclSe5O2auemyYd8ZuPc5UcsZ7S2L&#xA;NJvMfnb8szH/AIqnPmTyUZEiTzEBS/sxIwVPriDaZKmnqL8R770XMcY4Zvp9M+7ofc2cUoc94vVw&#xA;QRUdMwXIdirsVdirsVdirsVdir5c/wCchPz0k1Ga48n+V7mmmR1i1bUIjvcODRoI2H+6h+0w+30+&#xA;z9rdaHR165c+jg5897B8/ZtXEdirsVZX+WPn648i+bYNehtlvEVHguLZm4F4pBvxejcWBAINMo1G&#xA;DxYcLZjycJtkf5wfmxd/mfqml22n6XJb29j6iWlsD69xLLOV5GiL4RqFUV/pTpdMMIJJ5s8uXjI2&#xA;RGlfkaNNsY9X/MfWoPKmnOOcdixEuozKOoSFa8TT2Zh3XBLWWaxjiP2KMNbyNIk/mt+XvlEel+Xf&#xA;lWOS9j2HmDW/39wSNuccQNEJ61Vl/wBXB+WyZP7yW3cE+LGP0j5sK80/ml5/80FhrOtXE0DVraRt&#xA;6NvTw9KLghp7gnMjHpscOQa5ZZS5li8cckjrHGpd2NFRQSSfYDLmtk+l/lX+ZGqKrWXlvUHjahWV&#xA;4HijIPg8gRT9+Uy1OOPOQbBikejJLT/nG7837gAtoyW6tShmurYbHuQsjsKfLKTr8Q6sxp59yZQ/&#xA;84sfmnISHWwip0L3JNf+ARsge0sXmn8tN03/ADix+acZARbCWvUpckU/4NFxHaWLzX8tNLrv/nG3&#xA;84LcEpoyXCrWpiurboO4DyITXttXJjtDEev2FB08+5j2o/lL+ZmnV+teWdR4r9p4oHnUdt2iDjtl&#xA;0dVjPKQYHFIdGL3Nrc2sphuYXglHWORSjD6GocuBB5MKUsKHYq7FXYq7FXYq9P8Ayk0TzL+ZHna0&#xA;0/WdSvL/AEWx43eprczyzIYYWHGKjsR+8ai/Kp7ZhaqccMLAAJ5N+KJnKjyfauc67J2KuxV2KuxV&#xA;2KuxV4j/AM5I/m4/lzS/8LaNNw1vU4ibudD8VtattsR0kl3A8Fqf5Tmy0Gl4zxHkHG1GWhQ5vknN&#xA;6692KuxV2Ksz8gflbrnm71b4yR6V5cs99R127IS3iA3YLUrzenYH5kVzGz6mOPbnLubMeIy9zLLv&#xA;8z/KHkW3k0r8r7ESX5Ux3fm+/QPcSE7H6tGwpGnhVaeKn7WUjTzyb5Tt/NDYcgjtH5vK9V1bVdXv&#xA;5L/U7qW9vpzWS4ndpHY9hU128BmbGIiKGwaCSeb0LyP/AM48/mH5pWO5ktRo2mSUIu7+qMy+McA/&#xA;eN7EgKfHMTNrscNuZ8m6GnlLye5eVP8AnFn8vtKVJNZefXbobn1WMEFR4RREN/wTnNbl7SyS5ely&#xA;Y6aI57vUtF8seXNDi9LRtLtdOSlCLaFIif8AWKgFvpzCnklLmbbxEDkmeQZOxV2KuxV2KuxVC6hp&#xA;Wl6lD6Go2cF7Bv8AuriNJU36/C4IyUZEcjSCAebAPMP/ADjx+VOtBm/RP6Mnbb1tOcwU+UfxQ/8A&#xA;CZlY9dlj1v3tUtPA9HiX5n/840X3lXRLzX9I1RdQ02yX1Li2nT0rhI+VCVZSyPxrU/ZzY6ftATkI&#xA;kUS4uTTcIsF4jmycZ2KuxV2KvtX/AJx7/L4eUvIsNxdR8NY1sJeXvIUZEI/cQ/7BGqQejMc53XZ+&#xA;Oe3IOy0+Phj5l6fmE3uxV2KuxV2KuxVJvOXmnT/KvlnUNfvz+4sYi4jrQySH4Y41r3dyFGWYsZnI&#xA;RHVjOXCLfAvmLX9S8w65e61qcnq31/K00zdgT0VR2VVoqjsBnUY4CEREcg6qUiTZS7JsXqX5X/kF&#xA;r3nzQrjWotQg06zSRoLX1UaRpZEALbKRxQEgV3PXbMLUa2OKXDVt+LAZi3nWt6Pe6LrF7pF8oW80&#xA;+eS2uAp5LziYq3E9xttmXCYkAR1aZCjTO/y//LfTJdHk87+d5m0/ydZtSGIbXGozA7QW4qDxJFGY&#xA;e9KUZlxc+oN8EN5/c248YrilyS38wvzR1XzYYtNtol0nytY/Dpmh23wxIi7K0lKc5Pc9O3es8GmE&#xA;NzvI8yjJlMtuiE/L78svNXnrUjaaNb0toiPreoTVW3hB/mYA1Y9lXc/LfJZ9RHELKMeMyOz6y/Lj&#xA;8ifJfkpI7kQjVNbUAtqd0oJVv+KI/iWL57t/lZotRrZ5NuUe5z8eCMfe9HzEbnYq7FXYq7FXYq7F&#xA;XYq7FXYq7FWAfnj5Z81+Zvy/utG8tCN7u4lia5hkcRmSCMlyiMfh5GRU+0QKVzK0eSMMlyas0TKN&#xA;B8U61oGt6HfNYaxYz6feJuYbhGjYj+Ych8SnsRtnRQnGQsG3WGJHNAZNDsVelfkF+Xx84eeoGuYv&#xA;U0bSCt5qPIVVqH9zCfH1HG4/lDZh63P4cNuZbsGPil5PtrOcdm7FXYq7FXYq7FXYq+Yv+ctPO7T6&#xA;jp/k61f9zaKL7UaHrNICsKH/AFYyW/2Qzc9mYaBmfc4WqnvwvnjNs4bsVZ9+X/52+dvI2lXOl6Qb&#xA;aayuGaVIruNpPSkYAM8RV49zQbNVfbMXPo4ZDZ5tuPNKIoLvIXln/GWvar5o82XbReXtNLaj5i1B&#xA;tmleRiwgjpT95M2wA6DpvQYM+Tw4iMB6jsEwjxEk8ks/Mb8wr7zjqyOsYsdDsF9DRdIjoIraBQAA&#xA;FWi82AHI/R0AyenwDGO+R5ljkycR8k7/ACb/ACb1Tz9qnrz87Ty3aOBfXwFC5G/ow12LkdT0Ubns&#xA;DXq9WMQ/pMsOEzPk+zNA8v6P5f0qDSdHtUs7C2XjFDGPvZid2Y92O5zn5zMjZ5uyjEAUEwyCXYq7&#xA;FXYq7FXYq7FXYq7FXYq7FXYq7FUs8weWfL/mKxNjrmnwahamtI50DFSdqo32kb3Ug5OGSUDcTTGU&#xA;Qebwbz1/ziZbyepd+S7/ANFqE/ou+JZCfCOcDkPYOD/rZs8PafSY+IcWel/mvA/Mnkfzb5a1Eafr&#xA;Wlz2ly7cIQy8klJNB6Uickkr/kk5tMeaExcS4soGJoh9j/kf+Xo8leRra2uY+GsX9LvVCftLI4+G&#xA;L/nklF/1qnvnP6zP4k76Dk7DDj4Y+b0HMVudirsVdirsVdiqy4nht4JLidxHDCrSSyHoqqKsT8gM&#xA;IFq/Pbzj5iuPMnmrVddnJ56hcyTKrblYyaRp/sEAUfLOqxY+CIj3OonKySk+WMXYqvt7ea4njt4E&#xA;Mk8zLHFGoqzOxoqgeJJwE0r0f80NUg0HSrD8tNJkU2ujkT+YZ4ztc6s4/egkdVg/u1+W/QZiaaPE&#xA;TkPXl7m7IaHCOn3sb/LryLqPnbzXaaFZVRJD6l7c0qIbdCPUkP30Ud2IGXZ8wxxMiwxwMjT7t8u+&#xA;XtJ8u6La6NpMAt7CzQRxRjqfFmP7TMd2Pc5zOSZmbPN2sYgCgmOQS7FXYq7FXYq7FXYq7FXYq7FX&#xA;Yq7FXYq7FXYq7FXYq7FXYq7FXYq7FXYq7FWB/nprp0X8qvMFwjcZriAWUXiTdsIWp8kdj9GZWjhx&#xA;ZQ1Z5VAvhfOldW7FXYqyz8tZ4NO16bzFOodPLtpLqUUbdGuVKw2n3XU0TfIZRqBceH+ca/X9jZj2&#xA;N9zFp55rieSed2kmlYvLIxqzMxqzEnqScuAprfX/APzjJ5ETQfI4125jpqfmCk9SPiS0WogUf6+8&#xA;nvUeGaHtHNxT4Ryi7HTQqN972LNe5DsVdirsVdirsVdirsVdirsVdirsVdirsVdirsVdirsVdirs&#xA;VdirsVdirsVdirw3/nLfUGh8iaXYqaG71JXf3SGGTb/gnU5suy4+snycXVH0sJ0HUfyt/NLyrp/l&#xA;LULeHyr5s0yBbbRrxP7iXiNk5tu3NyWaNzyqaqxJOZM45cMjMeqJ5tcTGYrkXjnm/wAo635S1+50&#xA;PWYRFeW5BBU8o5I23SSNu6sP6GhBGbDFljkjxBxpwMTRSbLGKMt7/wBHSryzWoe7khLMO8cXMlT8&#xA;3KH6MiY7gpvZf5f0iXWde03SITSXUbqG1RvAzSBK/RywTlwxJ7liLNP0Qs7S3s7SC0tkEdvbRrFD&#xA;GOioihVA+QGcoTZt3ACrgV2KuxV2KuxV2KuxV2KuxV2KuxV2KuxV2KuxV2KuxV2KuxV2KuxV2Kux&#xA;V2KuxV85f85izkW3lSCm0j3z1r/IIB0/2ebfsoby+H6XD1fR80AkGo65uHCej/ndqk+pah5TuriU&#xA;T3T+V9La5mrVnldXkdnP8xZ98w9HGhIf0y3Zjde4POMzGl2Ks/8AyDslvPze8txMAQs0s2/jBbyS&#xA;j8UzF1prFJuwD1h9y5zTs3Yq7FXYq7FXYq7FXYq7FXYq7FXYq7FXYq7FXYq7FXYq7FXYq7FXYq7F&#xA;XYq7FXYq+cP+cxonMPlOUfYRr9D82FuR/wARObfso/V8P0uHq+j5qzcOEyHzpqAvbjSaFf8ARtJs&#xA;Lc8TX7EI+1775ThjV+8s5m69zHsuYOxV6H/zj5cpb/nD5ckfo0lxGKmm8trLGPxbMTXC8Mvx1bsB&#xA;9YfcOc27N2KuxV2KuxV2KuxV2KuxV2KuxV2KuxV2KuxV2KuxV2KuxV2KuxV2KuxV2KuxV2KvB/8A&#xA;nLuwMnk3Rb8LX6tqBhJpuBPC7dfCsObPsuXrI8nF1Y9IfKebxwG2ZmNWJY0Aqd9gKAfQMVaxV2Kp&#xA;x5N1v9BebNH1kk8NPvILiQDeqRyBnH0rUZXlhxQI7wyhKiC/QtHR0V0YMjAFWBqCDuCCM5R27eKu&#xA;xV2KuxV2KuxV2KuxV2KuxV2KuxV2KuxV2KuxV2KuxV2KuxV2KuxV2KuxV2KvN/8AnIfRTqv5TayE&#xA;XlNYiK9j9vQkBkP/ACKL5maGfDlHm06gXAviPOjdY7FXYq7FXYq+2P8AnHvzunmf8urOKWQNqWjA&#xA;WF4pPxFYx+4kI6/HHTfuwbOc12HgyHuO7s8E+KPuemZhtzsVdirsVdirsVdirsVdirsVdirsVdir&#xA;sVdirsVdirsVdirsVdirsVdirsVdiqG1PT7bUtNu9Oul5W17DJbzr4xyqUYfccMZEEEdEEWKfnlr&#xA;2j3Wi63f6Rdilzp9xLbS7Uq0TlCR7GlRnVwmJRBHV1EhRpH+VNOGqvqOlKoa7uLKWawFKkz2lLii&#xA;/wCU8MciL4lsjllw0fNlEXskWWsHYq7FXq/5F+dn8sajLqESlobVf9zdtGKtNprN8Vwqj7UlnIef&#xA;djGzdFXMHWYeMV8vf+1vwT4S+yLS7tby1hu7SVZ7W4RZYJoyGR0cclZSNiCDUZz5BBouyBtVwK7F&#xA;XYq7FXYq7FXYq7FXYq7FXYq7FXYq7FXYq7FXYq7FXYq7FXYq7FXYq7FXYq+TP+cq/JR0vzfbeZra&#xA;OlnrcfC4IGy3cACmtNhzj4keJDHN72bm4ocJ6OBqoUb73jugazd6JrdhrFof9J0+eO4iHYmNg3E+&#xA;zUocz5wEokHq40TRtP8A80PLNnovmQXGlivl/W4Y9U0Rx0Ftcjl6XsYWqhHXbfKtNkMo7/UNizyR&#xA;o7cil/lzyH5x8ywXM+g6TcahDaf38kK1VTSvEE05NT9ld8nkzQh9RpEYGXIJFJG8btHIpR0JV0YU&#xA;II2IIOWMEdoOt3+h6xa6tYMFurR+achyVgRxZHU/aR1JVh3BIyM4CQopiaNvpn8t/wAxLLy5pcOp&#xA;wM8v5b6jLwKD95LoF9IayW0wHxG1d25Rv2qPHfT6jAZmv8oP9kP1ubjyUL/h+57zDPDPCk8Eiywy&#xA;qHjlQhlZWFQysNiDmsIpy1+BXYq7FXYq7FXYq7FXYq7FXYq7FXYq7FWpJEjRpJGCRoCzuxoABuSS&#xA;cVefap+cmky3kmleTbCfzfrCbOmn0FnESaAz3jfukX3HLMuOkNXM8A8+fyaTmHKO5Sy98p/nJrlp&#xA;c32oeao9E1aGJpdL0PR1At1kAJjF1NLV5QxHFhTj3HhkxlwxNCNjqT+hBjM9aZf+XPnAebPKlrqc&#xA;sf1fUYy1rqtoRRoLyA8JoyO2/wAQHgRmPnxcEq6dPc2Y58Qtk2Us3Yq7FXYq7FXYq7FWKfmf5Gt/&#xA;O3ky/wBDk4rcuvrafM3+67mOpjb5HdW/yScv0+bw5iTXlhxRp8GX1ld2N7PZXkTQXdrI0NxC+zJJ&#xA;GxVlPuCM6cEEWHVkU9Q8jwJ5/wDIF35Gcg+ZNCMup+VWY0Msbb3VkK/zH419/YHMLMfCycf8Mtpf&#xA;oLdD1x4eo5J9+S3586H5D8sXXl7XNMumliuJJ4JLVULMzgBo5lkaPiVK/a322ptvVq9FLLLiiWeH&#xA;OIii8e80a42veZNU1t4Vt21K6mujApqE9Zy/Gu1aV6982GOHDER7nHlKzaWZNiyn8vfP+oeTtWkn&#xA;SFL7Sb1Pq+r6TP8AFBdW7faVlII5Cp4tTb5Eg0Z8AyDuI5Fsx5OEvoTyhrOoaFpX+Ify5eTzN5Bk&#xA;YvfeVHaupaW7buttUsSB19I1r1Fal81WWAkeHJ6Z/wA7oXLgaFx3j3dz1fyd588reb7D65oV6s5S&#xA;n1i1b4LiFv5ZYj8S77V6HsTmDlwyxmpBvhMS5Mgypm7FXYq7FXYq7FXYq7FXYq7FXYqw/wDNXz1d&#xA;eSfKh1q2slvZDcRW37xykMPrVAmlKhm4KwAooqa5kabCMkuEmmvLPhFvL9dv/KE2nw61+aPniPX4&#xA;Z1E9n5Y0RylkR2HpxN601D0eVl7g5mQjO+HFDh8zzaJEc5G/IME8z/8AOSmprZHRvIWlweWNGQcY&#xA;5EjQ3JHSqqo9KOo60DH/ACsysfZ4u8h4i1S1B5R2DD/y3/M/WPLX5gW/mXULqe9S5b0dYeV2lklt&#xA;5COZJYksyUDr7jMjUacTx8I27mvHkMZW+mmmtvKP5k2us2sgPlPz+I4ppE3ii1Xjyt5gegF1Gabd&#xA;W3OaavEx0fqh937HN+mV9Jfe9RzCb3Yq7FXYq7FXYq7FXYq+bf8AnJ/8p3Zm896NDUUVNdgQb7fC&#xA;lyAPaiv9B/mObfs7U/wH4fqcPU4v4g+etD1rUtD1e01fTJjBf2UqzW8o7Mp6Ed1PQjuNs204CQIP&#xA;IuHEkGw9X/Mny1p3nfy6PzR8owBWb4fNmkR7vbXKirzqB1RurHwo381MHT5Djl4U/wDNLfkiJDiH&#xA;xeN5sHHdirsVTzyd528yeUNXTVNCu2tpxQSx/aimSteEqdGX9XUUOVZcMcgqQZwmYmw9y0bzl+Vv&#xA;5jXkF7eXD+Q/zBT+71izk9GOaQ7byfCj8u6yUb9kMc1s8WXEKHrx9zkicZ/0ZPQU80fnB5PATzHo&#xA;y+cdHUbazogC3gX+aWzNA7U/33RR/NmL4eHJ9J4D3Hl827inHmLHkyPyz+b/AOXnmIiKy1iKC9rx&#xA;awvT9VuFatOPCXjyP+rXKcmlyQ5jZnHLE9WZZjtjsVdirsVdirsVdirsVSbX/OflPy8hfW9XtNPI&#xA;FRHPKiyHv8MdebfQMshinP6QSxlMDmXjH5yfnV5d1ryNqOkaNZzXVpqMYRdVvENrbEKwcNbrLxmn&#xA;cMm3FKKdyaZsNJpJRmCTy6ONmzAxoPlvN24LsVdir6P/ACP12z8+/l7qn5ZazMUvrOIzaNcknmsa&#xA;sGjZCN+VtNQ9fsmnQHNRrIHFkGQcuv483Mwy4o8Je1flr5nvdd8uBdVUR+YNKlfTtchG1Lu3PFnH&#xA;+TKtJFptQ5rtRjEZbfSdw5OOVjfmyvKGx2KuxV2KuxV2KuxVZPBDcQSQTxrLBMpjlicBlZGFGVgd&#xA;iCMINK+Nvz0/Ji58k6m2raVG0nla9kpC1eTWsjb+jJ34/wAjeGx369Bo9WMgo/UHXZ8PCbHJif5b&#xA;fmLq/kXzAupWf7+ymAi1PTmNI7iHup2NGWtVam3yJBv1GAZI0efRrx5DE2zX8wfyr0fVtFbz9+Wx&#xA;N75fmrJqOkIB69g9KuPTBJ4qeq/sjcVTcY2DUmJ8PJtLv72zJiBHFHk8ezYOOnfk3yfrXm/zBb6F&#xA;o0aveXHJuUjcY0RByZ5GoaKB7ew3yrLljjjxHkyhAyNBNfzI/K3zN+X9/bWus+jLFeKz2l3bMzRS&#xA;cKc1+NUYMvIVBHfIafUxyiwyyYjDmw/MhrZn5M/N/wDMDyhwj0nVHaxSn+4+5/f29B2CNug/1CuY&#xA;+XS48nMbtkMso8i9JH/OQX5f+aI1i/MLyXDczU4tqFmEeTw+H1DHKg+UxzD/ACOSH93Jv8eMvqCf&#xA;aHd/k64UeTvzG1Tyo3RLC4uJFtEJ7NFeL6Zp4+plUxm/jgJff9jKJh/DIhm2nQ/m8U5aF530DzOg&#xA;BKm8thHUdqtYu3yrmNI4v4oSj+PNtHH0IKO/TH59Wu0/l7Q9Q41qbS9mgDU6U9dDSvvkeDAf4pD4&#xA;JvJ3BzedPzmiVQfy3juHNeTRa3aIPueP+OPg4f5/+xK8c/5v2uXzp+c0qsB+W8du4pxaXW7Rx9yR&#xA;/wAcfBw/z/8AYleOf837VG48x/nh6fqtoWg6RFtWS/v5JFXxBMSj54Rjw98j7gjin3Bi2r/mD5ut&#xA;1Yax+ZHlbRHH94mj276lIlfCORnavzGXxwQPKEz79mByHrIB575h/NPyw6ut35p80eapd6xQSR6L&#xA;Yv7MkavJ/wALmVj00ukYR/2RaZZR3k/Y8/u/P/pu3+H9FsNEU/8AHwsZvLypNS31q8Mzq1f2owmZ&#xA;YwfziT9g+Qajk7hTGb2+vr65e6vriW6uZN5J53aSRvmzEk5cIgCgwJtQwodirsVTfyl5m1Hyv5js&#xA;Ne05qXVhKJFUkhXXo8bU/ZdCVPscry4xOJierKEjE2H1paebfL6eaNL896JexSaD5njg07zJAsil&#xA;ra6YAWNxOgJ4MGrbycqUquaI4pcJhIeqO4/T+tzxMWJDkeb1nMFyHYq7FXYq7FXYq7FXYqhtT0vT&#xA;9V0+fTtRt0u7G6Qxz28oDI6nsQclGRibHNBAOxfIH5z/AJD6n5MuJdX0ZHvfK8jFuQq0tpX9ibuU&#xA;/lk+ht+u+0mtGTY7S+91+bAY7jkwnyD+YfmTyPrA1LRZ6K9Bd2clTBOg/ZkUeFTRhuMyc+COQUWq&#xA;GQxNh6pe+Tfy+/N63k1fyRLF5f8AOXEyah5duCFimYCrPFxHf+dBT+ZVJrmCMuTBtP1Q728wjk3j&#xA;se551oepedvym87x3lxYNaalbq8c1ndKfTnhfZgGU/EppVWQ0qB16ZlzjDPCr2aomWOSt+a35ua1&#xA;+Yl9Zy3ltHY2Wnq62lnEzPRpac3d2pyY8AOgoPpwabSjEDW5K5cpmwTMpqdirsVdirgSCCDQjcEY&#xA;qmdr5o8zWgAtdXvbcAEARXEqUBNT9lhkDjieYDISPeiP8c+dv+pg1L/pMn/5ryPgw/mj5Lxy71k3&#xA;nLzfMoSbXNQlUGoV7qdhXxoWwjFAdB8l4z3pVNPPO/OaRpX6cnJY/ecmBTFZhV2KuxV2KuxV2Kux&#xA;V2KvSvyu/Izzd52livGRtL8vEgyalMCDIoIqLdDvIf8AK+z712zD1Oshj25ybsWAy9z7aAoKZzjs&#xA;3Yq7FXYq7FXYq7FXYq7FVskccsbRyKHjcFXRgCrKRQgg9QcVfPH5sf8AOMEVy02s+RVWGY1ebQ3P&#xA;GNj1P1Zzsn+o3w+BHTNtpu0a2n83Dy6brF84z2+saHqpimSfTdVspN1POGeKRdwR9llI7HNuCJDv&#xA;BcPcF6xoH/OQEWo6cmg/mZo8XmbSRst6FVbyKu3IH4QzU/aVkbxY5gz0NHixnhP2ORHPYqQtGXH5&#xA;GeSvOEUl9+WHmeC4enN9E1Bik8Y605UEgAOw5R0/ysiNZPHtlj8QnwYy+kvNPNH5Z+fPKxY63otz&#xA;bQL1ulX1bf8A5HRF4/o5ZmY9RCf0loljlHmGM5cwbRQzqpYIGIBY9BXuaYFfTH5k/kH+W+g/lZc6&#xA;vp0zx6np8CTR6o8zMt2zFRxaOrR/vOXwcAN6bkZp9PrckstHkenc5uTBEQsPmbNy4TsVdir0f8mf&#xA;yfm/MW+1APf/AKP07TFjNxKqepIzzcvTRFJUf7rYkk/Rvth6vVeEBtZLdhxcaR/mb5BuvInmyfQZ&#xA;7lbxFRJ7a6VeHOKStCyVbiQQQRXLdPnGWHExyY+E0xTL2t2Ksj8rfl35x8ztXSdNle1Xea/lHo2s&#xA;ajcs88nGMUG/WuU5M8IcyzjjMuSv5utvKuk2FroWkXMer6lDI8+ra3CD6DOVCrbWpIDNFHQkufts&#xA;dthgxGUjxHYdB+tMwBsGK5e1uxVlPkr8svOnnO4Eehac8tuG4y30v7u2j8eUrbEj+Vat7ZRm1EMf&#xA;1FshjlLk+lfy5/5xm8p+XTFf+YWXXtWWjCORaWcTf5MR/vKeMm3+SM0+ftCc9o+kfa5mPTAc93sq&#xA;qqKEQBVUUVRsAB0AGa9yW8VdirsVdirsVdirsVdirsVdirsVYv54/LXyd51tPQ12xWWZVKwX0X7u&#xA;5ir/ACSgVpXfi1V9suw6ieM+ksJ4xLm+bvPf/OLnnHRmkuvLkg17TxVhCKR3iDwMZPGT/YGp/lzc&#xA;Ye0YS2l6T9jhT0xHLd47NDqelX5jmjmsL+2fdHDwzRuN+h4spGZ4IkO8OPuHoflf/nIn80NBVYX1&#xA;BdXtFAAg1JPWNB/xaCk33ucxcmgxS6V7m6OokGSH84vyd8x/8pj5AjguG2kvdLZQ7E/tHibV/vds&#xA;p/K5ofRP5/gs/Fgfqisbyp/zjLrdW03zTf6FcP0t7tGaNe/V4qf8lsfF1MecRJHDiPI0ibr8l7LV&#xA;dPi0/SfzV0/VNPtyWtNPuJwscRofsxrPMFNO4QYBqzE2cZB/Hkk4bG0kvb/nFbz9ISbLVNHvU8Yr&#xA;iaoU9CQYab/PJfylj6iQR+Wl5IZ/+cW/zVVioisnANAwuRQ+4qoOS/lHF5o/LTcn/OLn5o7mUWEE&#xA;aglpJLn4RT/VVsf5Rxea/lpMi8k/lf8AmX5Cv5L+x84+XtINwgS6huLoyLIoJ4B0eIL13BDV/HKc&#xA;2px5RRjIs4Y5Q6hLfMvkTylq+sXGt+cPzY026vrggzPYwi6qFAVVUQyUUAU2C5PHmnEcMMZpjKAJ&#xA;sySz6l/zjVpB5SajrnmSQbhLeNbaE+APqrBIP+Cyd6mXSMUViHeVp/N/yLo23lD8vtOtpU/ur7VW&#xA;e/lB/mAfdT8pMP5WcvrmfhsjxYjlFiPnD80fPPm74Na1SSSzH2NPhpDbKB0/dR8VanYtU++X4tND&#xA;H9IYTySlzYvFFLNIsUSNJK5oiICzEnsAOuXEtb0zyj/zjr+ZnmIpLLYjRrJutxqJMTU70gAaavhV&#xA;QPfMPLr8cOtnyb4aeR8nu3kn/nGLyFoJjudY5+YL9aH/AEkBLUEeFupPL/nozD2zWZu0Zy5ekOVD&#xA;TRHPd67BBBbwpBBGsUMahY4kAVVUbAKo2AGYJNuQvwK7FXYq7FXYq7FXYq7FXYq7FXYq7FXYq7FX&#xA;Yqk3mXyZ5U8z2/oa9pdvqCAcUeVB6iA/ySikif7FhlmPLKH0mmMoCXMPHvM//OJPle7ZpvLuqXGl&#xA;uakW9wouofYKaxyKPmzZn4+05D6hbjy0o6F5dr//ADjF+aWmFmtLa21eEb8rOZQ1PdJ/RavstczY&#xA;do4pc9miWmmGA6v5G856MzDVNDvrML1eW3lVD8n48T9BzKjmhLkQ0mEhzCSZaxdiq9J5o0dI5GRJ&#xA;BSRVJAYe4HXBSrMKuxVVtrW5upRFbQvPKekcal28OignASBzTTKdI/KP8zdWK/UvLV+Vb7Mk0Rt0&#xA;P+zn9NfxyiWqxx5yDMYpHozvQ/8AnFH8xL0htTuLLSY/2leQzyj5LECh/wCRmY0+08Y5WW2Olkeb&#xA;0ry5/wA4m+SLHjJrd/d6xKPtRrS1gP8AsULyf8lMw8nacz9IAbo6WI57vVfLnkfyh5aj4aFpFrYG&#xA;nEyxRj1WHg0rVkb6WzByZpz+o25EYCPIJ5lbJ2KuxV2KuxV2KuxV2KuxV2KuxV2KuxV2KuxV2Kux&#xA;V2KuxV2KuxV2KoC+8vaBqDFr/TLS7Y9TPBHKf+HU5OM5DkSgxBSSb8qfyzlYM/lbSgQKfBaQoPuR&#xA;VGWDU5P5x+bDwo9wQX/Kk/yo/wCpZs/+Bb/mrJfm8v8AOKPBh3K0P5OflbCCE8saea7nnCH/AOJ8&#xA;sB1eX+cU+DDuTK0/L7yFZkG18t6XAwp8Udnbq3w9CSErkDnmecj80jHHuCd29rbW0YitokhiHSON&#xA;Qi9KdBQdBlZJLOlTArsVdirsVdirsVdirsVdirsVdirsVdirsVdirsVdirsVdirsVdirsVdirsVd&#xA;irsVdirsVdirsVdirsVdirsVdirsVdirsVdirsVdirsVdirsVdirsVdirsVdirsVdirsVdirsVdi&#xA;rsVdirsVdirsVdirsVdirsVdirsVdirsVdirsVdiq2SSOKN5ZXEccYLO7EBVUCpJJ6AYqlA86+TS&#xA;KjXtOp/zFwf814q7/Gvk3/q/ad/0lwf814q7/Gvk3/q/ad/0lwf814qxOLWvPge2kkW7khH1Z7yH&#xA;6mYpPrTk/WbWMiCZTBGOPBzxBqf9I+HFUtS9/OKHQ7K6la4lvHtoZpIvStmYSSrEJUnjS3Vqq5cR&#xA;rHTjsZGYA0VTd5/Pq2S+he3Elu8Mss91JbhryJ4X4+nFGbK1R/VEyuvKCo9NgOfKqqrJNe/MNZl+&#xA;qWNzc6db81+szW8cU9xxkaZOcZ4OheGFYarEByl5Hjw44qpadrX5qNbi8urJiLa3nFxYGFElndHV&#xA;lkiNSquY514JyIZo2G1ahVF3es+cPVm4m8ib1II/RisTLGtoRCLi6RzH8U6uZQsdTsBSNhRmVW6b&#xA;qv5myyqJLVWsGv4EW7liEU4sUljDu0J4nncRSBvsD0+MleJCLirP8VdirsVdirsVdirsVdirsVdi&#xA;rsVdirsVdirsVdirsVdirsVdirsVSXzu4j8ma/IQWCaddtxUVJpA5oB44q+YR+ZHlK18vWeuyarp&#xA;ck4MMki21tIurvN+6MvOVkUsC3q8lM3HiaAAUVFUps7iwuiNKS6KXWuRLf2XoTxRF4hbI4e5d7or&#xA;HItfWjWQM3qs3Iv0AV0ur21vpN5rDXU89tYGbTbk/wCjiRZo+MRhghW45+nymVVZRTgXotORCh//&#xA;2Q==</xmpGImg:image>
               </rdf:li>
            </rdf:Alt>
         </xmp:Thumbnails>
      </rdf:Description>
      <rdf:Description rdf:about=""
            xmlns:xmpMM="http://ns.adobe.com/xap/1.0/mm/"
            xmlns:stRef="http://ns.adobe.com/xap/1.0/sType/ResourceRef#"
            xmlns:stEvt="http://ns.adobe.com/xap/1.0/sType/ResourceEvent#">
         <xmpMM:OriginalDocumentID>uuid:9E3E5C9A8C81DB118734DB58FDDE4BA7</xmpMM:OriginalDocumentID>
         <xmpMM:DocumentID>xmp.did:1912731713206811822A8451A1857300</xmpMM:DocumentID>
         <xmpMM:InstanceID>xmp.iid:1912731713206811822A8451A1857300</xmpMM:InstanceID>
         <xmpMM:RenditionClass>proof:pdf</xmpMM:RenditionClass>
         <xmpMM:DerivedFrom rdf:parseType="Resource">
            <stRef:instanceID>xmp.iid:1812731713206811822A8451A1857300</stRef:instanceID>
            <stRef:documentID>xmp.did:1812731713206811822A8451A1857300</stRef:documentID>
            <stRef:originalDocumentID>uuid:9E3E5C9A8C81DB118734DB58FDDE4BA7</stRef:originalDocumentID>
            <stRef:renditionClass>proof:pdf</stRef:renditionClass>
         </xmpMM:DerivedFrom>
         <xmpMM:History>
            <rdf:Seq>
               <rdf:li rdf:parseType="Resource">
                  <stEvt:action>saved</stEvt:action>
                  <stEvt:instanceID>xmp.iid:F77F117407206811822A8451A1857300</stEvt:instanceID>
                  <stEvt:when>2013-10-06T17:09:14+13:00</stEvt:when>
                  <stEvt:softwareAgent>Adobe Illustrator CS6 (Macintosh)</stEvt:softwareAgent>
                  <stEvt:changed>/</stEvt:changed>
               </rdf:li>
               <rdf:li rdf:parseType="Resource">
                  <stEvt:action>saved</stEvt:action>
                  <stEvt:instanceID>xmp.iid:1912731713206811822A8451A1857300</stEvt:instanceID>
                  <stEvt:when>2013-10-06T23:55:10+13:00</stEvt:when>
                  <stEvt:softwareAgent>Adobe Illustrator CS6 (Macintosh)</stEvt:softwareAgent>
                  <stEvt:changed>/</stEvt:changed>
               </rdf:li>
            </rdf:Seq>
         </xmpMM:History>
      </rdf:Description>
      <rdf:Description rdf:about=""
            xmlns:xmpTPg="http://ns.adobe.com/xap/1.0/t/pg/"
            xmlns:stDim="http://ns.adobe.com/xap/1.0/sType/Dimensions#"
            xmlns:xmpG="http://ns.adobe.com/xap/1.0/g/">
         <xmpTPg:NPages>1</xmpTPg:NPages>
         <xmpTPg:HasVisibleTransparency>False</xmpTPg:HasVisibleTransparency>
         <xmpTPg:HasVisibleOverprint>False</xmpTPg:HasVisibleOverprint>
         <xmpTPg:MaxPageSize rdf:parseType="Resource">
            <stDim:w>209.999929</stDim:w>
            <stDim:h>210.001308</stDim:h>
            <stDim:unit>Millimeters</stDim:unit>
         </xmpTPg:MaxPageSize>
         <xmpTPg:PlateNames>
            <rdf:Seq>
               <rdf:li>Cyan</rdf:li>
               <rdf:li>Magenta</rdf:li>
               <rdf:li>Yellow</rdf:li>
               <rdf:li>Black</rdf:li>
            </rdf:Seq>
         </xmpTPg:PlateNames>
         <xmpTPg:SwatchGroups>
            <rdf:Seq>
               <rdf:li rdf:parseType="Resource">
                  <xmpG:groupName>Default Swatch Group</xmpG:groupName>
                  <xmpG:groupType>0</xmpG:groupType>
               </rdf:li>
            </rdf:Seq>
         </xmpTPg:SwatchGroups>
      </rdf:Description>
      <rdf:Description rdf:about=""
            xmlns:pdf="http://ns.adobe.com/pdf/1.3/">
         <pdf:Producer>Adobe PDF library 10.01</pdf:Producer>
      </rdf:Description>
      <rdf:Description rdf:about=""
            xmlns:xmpRights="http://ns.adobe.com/xap/1.0/rights/">
         <xmpRights:Marked>True</xmpRights:Marked>
         <xmpRights:WebStatement rdf:resource="http://www.ospreydawn.com"/>
         <xmpRights:UsageTerms>
            <rdf:Alt>
               <rdf:li xml:lang="x-default">This work is licensed under a &lt;a rel="license" href="http://creativecommons.org/licenses/by-nc-sa/3.0/"&gt;Creative Commons Attribution-NonCommercial-ShareAlike 3.0 Unported License&lt;/a&gt;.</rdf:li>
               <rdf:li xml:lang="en_us">This work is licensed under a &lt;a rel="license" href="http://creativecommons.org/licenses/by-nc-sa/3.0/"&gt;Creative Commons Attribution-NonCommercial-ShareAlike 3.0 Unported License&lt;/a&gt;.</rdf:li>
               <rdf:li xml:lang="en">This work is licensed under a &lt;a rel="license" href="http://creativecommons.org/licenses/by-nc-sa/3.0/"&gt;Creative Commons Attribution-NonCommercial-ShareAlike 3.0 Unported License&lt;/a&gt;.</rdf:li>
            </rdf:Alt>
         </xmpRights:UsageTerms>
      </rdf:Description>
      <rdf:Description rdf:about=""
            xmlns:cc="http://creativecommons.org/ns#">
         <cc:attributionName>Max O'Brien / Osprey Dawn</cc:attributionName>
         <cc:license rdf:resource="http://creativecommons.org/licenses/by-nc-sa/3.0/"/>
      </rdf:Description>
   </rdf:RDF>
</x:xmpmeta>
                                                                                                    
                                                                                                    
                                                                                                    
                                                                                                    
                                                                                                    
                                                                                                    
                                                                                                    
                                                                                                    
                                                                                                    
                                                                                                    
                                                                                                    
                                                                                                    
                                                                                                    
                                                                                                    
                                                                                                    
                                                                                                    
                                                                                                    
                                                                                                    
                                                                                                    
                                                                                                    
                           
<?xpacket end="w"?>
	</metadata>
<g id="Layer_2">
	<g id="_x37_Wl2mV_1_">
	</g>
</g>
<g>
	<path fill="#04296C" d="M516.622,376.828c-2.695-4.237-7.324-2.312-7.324-2.312s-48.998,22.765-52.084,24.308
		c-3.096,1.543-0.775,5.4-0.775,5.4l2.318,6.173c1.929,5.788-5.021,8.104-5.021,8.104s-60.188,23.528-137.736,14.271
		c-77.55-9.261-150.083-57.488-150.083-133.104h-0.001c0-75.626,72.533-123.854,150.084-133.108
		c77.554-9.262,137.736,14.271,137.736,14.271s6.947,2.313,5.021,8.104l-2.318,6.173c0,0-2.312,3.857,0.775,5.401
		c3.086,1.543,52.084,24.307,52.084,24.307s4.629,1.93,7.324-2.314c2.7-4.239,35.495-67.52,35.495-67.52s3.086-5.401-3.086-9.26
		c-6.173-3.857-102.243-71.377-235.736-65.589C179.802,85.922,71,173.117,71,299.665h0.001
		c0,126.556,108.806,213.745,242.293,219.532c133.493,5.786,229.563-61.729,235.736-65.59c6.172-3.854,3.086-9.261,3.086-9.261
		S519.323,381.073,516.622,376.828z M369.28,113.337c4.476,0,8.104,3.627,8.104,8.104c0,4.475-3.63,8.103-8.104,8.103
		c-4.476-0.001-8.104-3.629-8.104-8.103C361.176,116.962,364.807,113.337,369.28,113.337z M287.291,116.879
		c4.479,0,8.104,3.627,8.104,8.104c0,4.475-3.628,8.103-8.104,8.103c-4.476-0.001-8.103-3.628-8.103-8.103
		C279.188,120.504,282.815,116.879,287.291,116.879z M208.832,146.905c4.479,0,8.104,3.629,8.104,8.104
		c0,4.479-3.628,8.104-8.104,8.104c-4.475-0.002-8.103-3.629-8.103-8.104C200.729,150.534,204.357,146.905,208.832,146.905z
		 M147.778,401.138c-4.476,0-8.104-3.627-8.104-8.104c0-4.475,3.632-8.103,8.104-8.103c4.475,0.002,8.103,3.63,8.103,8.103
		C155.881,397.513,152.253,401.138,147.778,401.138z M147.778,214.402c-4.475,0-8.104-3.628-8.104-8.104
		c0.002-4.475,3.631-8.103,8.104-8.103c4.476,0,8.104,3.628,8.104,8.103C155.882,210.777,152.254,214.402,147.778,214.402z
		 M208.833,452.427c-4.476,0-8.104-3.626-8.104-8.104c0-4.477,3.628-8.102,8.104-8.102c4.479,0,8.104,3.625,8.104,8.102
		C216.937,448.802,213.309,452.427,208.833,452.427z M287.292,482.453c-4.476-0.002-8.104-3.629-8.104-8.104
		c0-4.473,3.628-8.104,8.104-8.104c4.479,0,8.104,3.636,8.104,8.104C295.396,478.826,291.767,482.453,287.292,482.453z
		 M369.28,485.994c-4.476-0.001-8.104-3.629-8.104-8.101c0-4.475,3.632-8.104,8.104-8.104c4.476,0,8.104,3.633,8.104,8.104
		S373.754,485.994,369.28,485.994z"/>
	<path fill="#FFFFFF" d="M439.845,149.196c-15.817,2.701-99.542-26.235-194.455,15.048
		C150.479,205.526,144.306,273.43,144.306,273.43c2.958-56.592,59.891-102.606,125.646-123.468
		c68.937-21.857,145.323-8.74,161.021-4.886c14.767,3.632,24.175-5.397,24.175-5.397S455.661,146.496,439.845,149.196z"/>
	<path fill="#FFFFFF" d="M535.722,154.598c0,0,1.062-1.451-0.222-2.442c-5.609-4.322-90.276-64.861-223.53-60.833
		C209.92,94.411,144.966,147.91,144.966,147.91c43.57-38.062,103.417-60.582,168.521-63.404c5.318-0.229,10.721-0.349,16.059-0.349
		c106.402,0,186.316,44.999,215.737,64.346c0.661,0.438,1.146,0.75,1.438,0.936c0.687,0.428,2.501,1.562,1.553,3.477
		L535.722,154.598z"/>
	<path fill="#FFFFFF" d="M104.31,285.776l-2.062,32.667c0,0-2.058-29.064-1.8-32.408c0.257-3.344-3.344-6.688-3.344-6.688
		l-16.462-11.575l4.373-5.916c0,0,12.09,10.546,16.205,13.89C105.338,279.089,104.31,285.776,104.31,285.776z"/>
	<path fill="#FFFFFF" d="M429.428,484.475c-18.14,6.943-129.25,32.021-219.924-9.646C118.84,433.159,108.81,353.682,108.81,353.682
		c9.26,29.322,38.968,97.999,129.636,125.777c90.671,27.773,181.205,4.888,198.188-1.806c16.974-6.688,15.94-13.246,15.94-13.246
		C456.82,469.427,447.56,477.528,429.428,484.475z"/>
	<path fill="#FFFFFF" d="M455.244,422.604c-0.642,0.25-2.669,1.489-7.972,3.706c-79.007,31.597-164.233,19.766-209.604-5.111
		c-46.454-25.475-61.249-65.895-61.249-65.895c21.533,39.046,66.891,73.197,139.057,81.812c12.168,1.453,24.671,2.19,37.168,2.19
		c44.498-0.002,79.104-9.063,94.302-13.858c4.316-1.725,8.617-3.547,12.896-5.532C462.115,418.859,455.885,422.385,455.244,422.604z
		"/>
	<path fill="#FFFFFF" d="M509.571,389.948c-1.543-3.088-4.244-1.545-4.244-1.545l-38.088,17.748l-6.85-3.839l-0.079-0.133
		c6.4-3.041,35.088-16.387,50.681-23.631c0.075-0.021,0.398-0.104,0.743-0.104c0.49,0,0.812,0.114,1.198,0.729l35.22,64.779
		l-9.645-3.088C538.51,440.881,511.114,393.034,509.571,389.948z"/>
</g>
<g>
	<path fill="#BDC2BC" d="M534.992,588.913c-0.739,0-1.34-0.602-1.34-1.341v-16.588c0-0.739,0.601-1.339,1.34-1.339h52.497
		c0.738,0,1.339,0.6,1.339,1.339v16.588c0,0.739-0.601,1.341-1.339,1.341H534.992z"/>
	<g>
		<path d="M558.027,571.51c-2.725,0-4.935,2.21-4.935,4.934c0,2.729,2.21,4.938,4.935,4.938c2.728,0,4.938-2.21,4.938-4.938
			C562.964,573.719,560.755,571.51,558.027,571.51z"/>
		<path fill="#FFFFFF" d="M558.027,580.461c-2.219,0-4.015-1.798-4.015-4.019c0-2.217,1.797-4.014,4.015-4.014
			c2.219,0,4.019,1.798,4.019,4.014C562.046,578.664,560.246,580.461,558.027,580.461z"/>
		<g>
			<path d="M559.402,575.293c0-0.219-0.182-0.398-0.398-0.398h-1.952c-0.221,0-0.401,0.181-0.401,0.398v1.985h0.528v2.338h1.694
				v-2.338h0.527L559.402,575.293L559.402,575.293z"/>
			<path d="M558.695,573.942c0,0.37-0.3,0.668-0.667,0.668c-0.371,0-0.67-0.299-0.67-0.668s0.301-0.67,0.67-0.67
				C558.395,573.272,558.695,573.571,558.695,573.942z"/>
		</g>
	</g>
	<path d="M587.175,569.198h-51.868c-1.157,0-2.102,0.943-2.102,2.102v15.96c0,1.158,0.943,2.1,2.102,2.1h51.868
		c1.158,0,2.102-0.94,2.102-2.1V571.3C589.275,570.141,588.332,569.198,587.175,569.198z M588.644,583.375h-37.865
		c-1.477,2.809-4.417,4.725-7.81,4.725s-6.333-1.916-7.809-4.725h-1.326V571.3c0-0.812,0.658-1.471,1.47-1.471h51.869
		c0.811,0,1.471,0.658,1.471,1.471V583.375L588.644,583.375z"/>
	<g>
		<path fill="#FFFFFF" d="M557.773,584.933c0.1,0.14,0.15,0.302,0.15,0.495c0,0.198-0.052,0.357-0.151,0.479
			c-0.057,0.066-0.14,0.131-0.25,0.187c0.168,0.061,0.294,0.155,0.378,0.289c0.085,0.13,0.127,0.289,0.127,0.477
			c0,0.192-0.049,0.365-0.145,0.519c-0.062,0.104-0.14,0.188-0.23,0.256c-0.104,0.078-0.225,0.137-0.369,0.164
			c-0.141,0.028-0.294,0.043-0.459,0.043h-1.466v-3.256h1.573C557.326,584.594,557.607,584.706,557.773,584.933z M556.009,585.151
			v0.717h0.79c0.143,0,0.257-0.026,0.345-0.08s0.133-0.147,0.133-0.286c0-0.15-0.059-0.248-0.176-0.301
			c-0.1-0.033-0.228-0.05-0.383-0.05H556.009L556.009,585.151z M556.009,586.407v0.869h0.789c0.143,0,0.25-0.02,0.328-0.058
			c0.145-0.071,0.217-0.206,0.217-0.407c0-0.17-0.07-0.285-0.208-0.35c-0.077-0.034-0.188-0.056-0.327-0.056L556.009,586.407
			L556.009,586.407z"/>
		<path fill="#FFFFFF" d="M560.469,584.586h0.771l-1.089,2.034v1.222h-0.68v-1.222l-1.127-2.034h0.8l0.677,1.418L560.469,584.586z"
			/>
	</g>
	<g>
		<g>
			<path fill="#FFFFFF" d="M566.517,584.426h0.776l1.403,2.473v-2.473h0.692v3.545h-0.742l-1.443-2.517v2.517h-0.688
				L566.517,584.426L566.517,584.426z"/>
			<path fill="#FFFFFF" d="M570.425,584.797c0.285-0.292,0.647-0.437,1.09-0.437c0.591,0,1.02,0.195,1.295,0.587
				c0.148,0.221,0.229,0.439,0.242,0.661h-0.741c-0.048-0.17-0.106-0.299-0.183-0.384c-0.132-0.153-0.328-0.229-0.586-0.229
				c-0.265,0-0.473,0.107-0.623,0.324c-0.152,0.219-0.229,0.525-0.229,0.923c0,0.399,0.08,0.696,0.241,0.895
				c0.161,0.197,0.365,0.299,0.614,0.299c0.252,0,0.447-0.086,0.581-0.256c0.072-0.09,0.136-0.229,0.183-0.41h0.736
				c-0.066,0.387-0.226,0.699-0.486,0.943c-0.262,0.241-0.594,0.36-1.002,0.36c-0.505,0-0.901-0.163-1.19-0.489
				c-0.288-0.328-0.434-0.777-0.434-1.353C569.93,585.607,570.095,585.133,570.425,584.797z"/>
		</g>
	</g>
	<g>
		<path fill="#FFFFFF" d="M578.517,586.944c0.022,0.173,0.073,0.303,0.145,0.389c0.132,0.154,0.354,0.233,0.673,0.233
			c0.19,0,0.347-0.021,0.465-0.062c0.225-0.078,0.338-0.226,0.338-0.438c0-0.125-0.055-0.223-0.166-0.291
			c-0.113-0.066-0.285-0.126-0.525-0.178l-0.411-0.088c-0.401-0.093-0.679-0.188-0.829-0.294c-0.254-0.173-0.383-0.448-0.383-0.819
			c0-0.339,0.126-0.619,0.376-0.846c0.249-0.224,0.617-0.336,1.102-0.336c0.401,0,0.748,0.104,1.033,0.315
			c0.284,0.213,0.436,0.521,0.45,0.922h-0.762c-0.014-0.227-0.117-0.387-0.306-0.484c-0.126-0.065-0.282-0.096-0.473-0.096
			c-0.209,0-0.375,0.041-0.499,0.122c-0.126,0.083-0.188,0.196-0.188,0.346c0,0.135,0.062,0.236,0.186,0.303
			c0.079,0.043,0.246,0.096,0.502,0.155l0.665,0.156c0.292,0.068,0.513,0.162,0.655,0.276c0.227,0.179,0.339,0.435,0.339,0.771
			c0,0.351-0.134,0.637-0.4,0.863c-0.269,0.229-0.646,0.344-1.134,0.344c-0.5,0-0.891-0.112-1.176-0.339
			c-0.287-0.224-0.432-0.536-0.432-0.929L578.517,586.944L578.517,586.944z"/>
		<path fill="#FFFFFF" d="M582.542,584.325h0.896l1.34,3.791h-0.858l-0.249-0.778h-1.396l-0.255,0.778h-0.828L582.542,584.325z
			 M582.486,586.681h0.972l-0.479-1.49L582.486,586.681z"/>
	</g>
	<g>
		<circle cx="542.95" cy="579.28" r="7.771"/>
		<circle fill="#FFFFFF" cx="542.95" cy="579.278" r="6.322"/>
		<g>
			<path d="M542.597,578.348l-1.188,0.215c-0.041-0.237-0.131-0.416-0.273-0.537c-0.143-0.119-0.325-0.178-0.55-0.178
				c-0.302,0-0.537,0.104-0.72,0.31c-0.18,0.204-0.268,0.555-0.268,1.038c0,0.539,0.09,0.921,0.271,1.146
				c0.183,0.223,0.426,0.332,0.73,0.332c0.229,0,0.417-0.064,0.562-0.195c0.146-0.131,0.249-0.354,0.311-0.67l1.182,0.199
				c-0.123,0.545-0.354,0.954-0.707,1.229c-0.348,0.276-0.813,0.416-1.399,0.416c-0.668,0-1.197-0.21-1.594-0.629
				c-0.396-0.42-0.592-1.004-0.592-1.746c0-0.75,0.198-1.337,0.594-1.754c0.397-0.42,0.936-0.627,1.613-0.627
				c0.555,0,0.995,0.118,1.322,0.355C542.219,577.497,542.453,577.86,542.597,578.348z"/>
			<path d="M547.477,578.348l-1.188,0.215c-0.039-0.237-0.131-0.416-0.272-0.537c-0.144-0.119-0.325-0.178-0.551-0.178
				c-0.301,0-0.539,0.104-0.72,0.31c-0.178,0.204-0.268,0.555-0.268,1.038c0,0.539,0.09,0.921,0.271,1.146
				c0.182,0.223,0.426,0.332,0.729,0.332c0.229,0,0.417-0.064,0.562-0.195c0.146-0.131,0.25-0.354,0.311-0.67l1.183,0.199
				c-0.123,0.545-0.356,0.954-0.708,1.229c-0.349,0.276-0.814,0.416-1.4,0.416c-0.668,0-1.197-0.21-1.593-0.629
				c-0.396-0.42-0.592-1.004-0.592-1.746c0-0.75,0.196-1.337,0.595-1.754c0.396-0.42,0.934-0.627,1.612-0.627
				c0.554,0,0.994,0.118,1.322,0.355C547.1,577.497,547.337,577.86,547.477,578.348z"/>
		</g>
	</g>
	<g>
		<path d="M569.93,571.719c-2.61,0-4.727,2.115-4.727,4.726c0,2.612,2.115,4.729,4.727,4.729s4.728-2.113,4.728-4.729
			C574.658,573.834,572.546,571.719,569.93,571.719z"/>
		<circle fill="#FFFFFF" cx="569.93" cy="576.447" r="3.846"/>
		
			<rect x="569.488" y="571.955" transform="matrix(0.4225 -0.9063 0.9063 0.4225 -193.3242 849.4399)" width="0.924" height="8.958"/>
		<g>
			<path d="M569.58,579.151v-0.637c-0.444-0.013-0.877-0.14-1.129-0.277l0.197-0.776c0.279,0.153,0.672,0.292,1.101,0.292
				c0.382,0,0.646-0.151,0.646-0.409c0-0.252-0.223-0.41-0.709-0.578c-0.711-0.238-1.196-0.568-1.196-1.215
				c0-0.59,0.411-1.047,1.122-1.181v-0.631h0.65v0.584c0.443,0.015,0.742,0.115,0.968,0.222l-0.199,0.748
				c-0.167-0.079-0.478-0.232-0.954-0.232c-0.434,0-0.571,0.193-0.571,0.381c0,0.212,0.231,0.356,0.798,0.564
				c0.796,0.276,1.107,0.643,1.107,1.246c0,0.591-0.411,1.09-1.182,1.221v0.684L569.58,579.151L569.58,579.151z"/>
		</g>
	</g>
	<g>
		<path d="M581.185,571.784c-2.571,0-4.66,2.086-4.66,4.658c0,2.576,2.089,4.665,4.66,4.665c2.576,0,4.665-2.089,4.665-4.665
			C585.852,573.87,583.761,571.784,581.185,571.784z"/>
		<path fill="#FFFFFF" d="M581.185,580.238c-2.092,0-3.789-1.698-3.789-3.794c0-2.091,1.695-3.79,3.789-3.79
			c2.096,0,3.793,1.696,3.793,3.79C584.979,578.538,583.281,580.238,581.185,580.238z"/>
		<path d="M581.185,573.885c-1.016,0-1.874,0.733-2.182,1.746h-0.294l0.933,1.016l0.93-1.016h-0.348
			c0.215-0.37,0.563-0.616,0.96-0.616c0.65,0,1.179,0.646,1.179,1.443c0,0.793-0.526,1.44-1.179,1.44
			c-0.432,0-0.81-0.289-1.016-0.72h-1.196c0.278,1.068,1.167,1.854,2.214,1.854c1.273,0,2.311-1.155,2.311-2.576
			C583.496,575.034,582.464,573.885,581.185,573.885z"/>
	</g>
</g>
<g>
	<path d="M11.392,586.197c-0.652,0-1.248-0.138-1.786-0.41c-0.538-0.271-1.002-0.631-1.39-1.07c-0.389-0.441-0.688-0.949-0.9-1.521
		C7.105,582.619,7,582.032,7,581.432c0-0.626,0.113-1.226,0.338-1.797c0.226-0.574,0.533-1.08,0.927-1.521
		c0.393-0.44,0.856-0.792,1.396-1.053c0.538-0.26,1.119-0.39,1.745-0.39c0.653,0,1.248,0.138,1.786,0.417
		c0.538,0.275,0.999,0.641,1.383,1.09c0.383,0.449,0.682,0.959,0.893,1.528c0.213,0.567,0.318,1.144,0.318,1.726
		c0,0.636-0.113,1.24-0.338,1.812c-0.226,0.574-0.534,1.079-0.926,1.517c-0.394,0.437-0.856,0.785-1.391,1.045
		C12.598,586.066,12.018,586.197,11.392,586.197z M7.675,581.432c0,0.539,0.091,1.057,0.271,1.555s0.437,0.939,0.769,1.324
		c0.33,0.383,0.724,0.69,1.178,0.92c0.455,0.229,0.955,0.344,1.502,0.344c0.563,0,1.071-0.117,1.526-0.355
		c0.454-0.239,0.846-0.555,1.171-0.946c0.327-0.392,0.577-0.834,0.755-1.328c0.177-0.494,0.265-0.997,0.265-1.51
		c0-0.538-0.092-1.057-0.277-1.555c-0.185-0.498-0.442-0.939-0.773-1.323c-0.33-0.384-0.723-0.691-1.179-0.919
		c-0.453-0.229-0.948-0.347-1.485-0.347c-0.565,0-1.076,0.119-1.536,0.357c-0.458,0.238-0.849,0.554-1.17,0.945
		c-0.322,0.394-0.571,0.836-0.748,1.33C7.762,580.422,7.675,580.923,7.675,581.432z"/>
	<path d="M23.14,578.299c-0.608-0.681-1.47-1.021-2.58-1.021c-0.918,0-1.587,0.175-2.006,0.523
		c-0.417,0.349-0.628,0.817-0.628,1.407c0,0.302,0.054,0.554,0.158,0.755c0.106,0.202,0.271,0.373,0.496,0.51
		c0.226,0.137,0.512,0.256,0.859,0.355c0.35,0.103,0.762,0.2,1.236,0.299c0.513,0.106,0.972,0.223,1.378,0.352
		c0.404,0.127,0.751,0.289,1.037,0.483c0.287,0.193,0.509,0.433,0.662,0.715c0.153,0.281,0.231,0.632,0.231,1.044
		c0,0.414-0.082,0.775-0.245,1.086c-0.163,0.31-0.393,0.565-0.688,0.773s-0.647,0.364-1.059,0.471
		c-0.411,0.105-0.866,0.157-1.37,0.157c-1.463,0-2.704-0.467-3.717-1.401l0.356-0.542c0.396,0.415,0.882,0.743,1.455,0.984
		c0.574,0.242,1.218,0.363,1.932,0.363c0.821,0,1.462-0.147,1.926-0.449c0.462-0.301,0.694-0.754,0.694-1.362
		c0-0.309-0.06-0.57-0.179-0.787c-0.117-0.217-0.302-0.404-0.55-0.562c-0.247-0.158-0.554-0.295-0.919-0.409
		c-0.365-0.115-0.796-0.225-1.29-0.33c-0.503-0.105-0.945-0.219-1.329-0.338c-0.384-0.117-0.708-0.269-0.972-0.449
		c-0.265-0.181-0.463-0.398-0.596-0.654c-0.132-0.256-0.198-0.578-0.198-0.967c0-0.423,0.082-0.797,0.245-1.124
		c0.163-0.326,0.391-0.603,0.682-0.826c0.291-0.226,0.641-0.395,1.045-0.511c0.406-0.114,0.854-0.17,1.351-0.17
		c0.607,0,1.15,0.09,1.627,0.27c0.477,0.183,0.909,0.459,1.297,0.828L23.14,578.299z"/>
	<path d="M25.733,586.131v-9.395h3.863c0.396,0,0.763,0.085,1.099,0.251c0.335,0.168,0.623,0.392,0.866,0.669
		c0.242,0.277,0.432,0.591,0.567,0.938c0.138,0.35,0.205,0.698,0.205,1.053c0,0.381-0.063,0.746-0.191,1.098
		c-0.128,0.354-0.31,0.666-0.543,0.939c-0.232,0.272-0.512,0.492-0.832,0.654c-0.323,0.164-0.683,0.245-1.078,0.245h-3.281v3.546
		L25.733,586.131L25.733,586.131z M26.408,581.963h3.241c0.309,0,0.587-0.064,0.834-0.191c0.246-0.127,0.456-0.3,0.629-0.516
		c0.171-0.218,0.303-0.463,0.396-0.741c0.093-0.276,0.14-0.565,0.14-0.866c0-0.309-0.056-0.602-0.165-0.879
		c-0.11-0.279-0.261-0.523-0.45-0.734c-0.189-0.213-0.41-0.381-0.661-0.504s-0.519-0.186-0.801-0.186h-3.162V581.963z"/>
	<path d="M33.963,586.131v-9.395h3.917c0.396,0,0.764,0.085,1.098,0.251c0.335,0.168,0.622,0.392,0.859,0.669
		c0.238,0.277,0.426,0.591,0.563,0.938c0.137,0.35,0.204,0.698,0.204,1.053c0,0.344-0.054,0.676-0.159,0.998
		c-0.105,0.324-0.254,0.611-0.449,0.867c-0.194,0.256-0.428,0.467-0.7,0.635c-0.273,0.169-0.572,0.277-0.899,0.331l2.341,3.651
		h-0.78l-2.274-3.547h-3.043v3.547L33.963,586.131L33.963,586.131z M34.636,581.963h3.295c0.299,0,0.571-0.064,0.818-0.197
		c0.247-0.132,0.459-0.307,0.637-0.522c0.176-0.216,0.311-0.462,0.402-0.741c0.093-0.277,0.141-0.562,0.141-0.853
		c0-0.3-0.056-0.589-0.166-0.866c-0.11-0.276-0.262-0.522-0.45-0.733c-0.189-0.212-0.409-0.382-0.661-0.511
		c-0.252-0.127-0.522-0.192-0.813-0.192h-3.201L34.636,581.963L34.636,581.963z"/>
	<path d="M48.899,585.521v0.608h-6.258v-9.395h6.139v0.61h-5.464v3.688h4.775v0.582h-4.775v3.903h5.583V585.521z"/>
	<path d="M50.421,576.736l3.28,5.199l3.308-5.199h0.742l-3.705,5.849v3.546h-0.674v-3.572l-3.69-5.821L50.421,576.736
		L50.421,576.736z"/>
	<path d="M59.126,586.131v-9.395h3.122c0.741,0,1.393,0.124,1.951,0.371c0.562,0.248,1.025,0.583,1.396,1.007
		c0.37,0.423,0.647,0.919,0.833,1.487c0.186,0.567,0.277,1.175,0.277,1.819c0,0.715-0.104,1.36-0.311,1.938s-0.505,1.07-0.894,1.481
		c-0.389,0.409-0.857,0.729-1.41,0.953c-0.551,0.225-1.166,0.337-1.845,0.337L59.126,586.131L59.126,586.131z M66.031,581.421
		c0-0.592-0.083-1.137-0.251-1.635s-0.412-0.93-0.733-1.291c-0.322-0.359-0.719-0.644-1.186-0.848
		c-0.466-0.202-1.005-0.303-1.613-0.303h-2.447v8.177h2.447c0.616,0,1.161-0.104,1.633-0.312c0.474-0.206,0.866-0.495,1.186-0.865
		c0.316-0.37,0.559-0.805,0.722-1.303C65.95,582.543,66.031,582.003,66.031,581.421z"/>
	<path d="M67.288,586.131l3.996-9.395h0.555l3.997,9.395h-0.728l-1.312-3.097h-4.483l-1.312,3.097H67.288z M71.561,577.557
		l-2.09,4.922h4.141L71.561,577.557z"/>
	<path d="M80.148,576.802h0.661l1.401,3.413l1.403-3.413h0.661l-1.654,3.956l1.972,4.577l3.6-8.601h0.742l-4.023,9.395H84.29
		l-2.062-4.829l-2.077,4.829h-0.622l-4.009-9.395h0.728l3.612,8.601l1.944-4.577L80.148,576.802z"/>
	<path d="M91.05,578.008v8.123h-0.676v-9.394h0.518l6.589,8.27v-8.255h0.675v9.379h-0.622L91.05,578.008z"/>
	<path d="M100.297,586.131v-1.125h0.583v1.125H100.297z"/>
	<path d="M102.4,581.368c0-0.563,0.099-1.127,0.298-1.688c0.197-0.561,0.486-1.062,0.866-1.502c0.379-0.44,0.844-0.8,1.396-1.077
		s1.181-0.418,1.887-0.418c0.838,0,1.552,0.192,2.144,0.576c0.591,0.383,1.027,0.877,1.309,1.475l-0.556,0.318
		c-0.159-0.327-0.351-0.601-0.576-0.82c-0.224-0.221-0.466-0.399-0.727-0.537c-0.261-0.137-0.532-0.234-0.813-0.298
		c-0.281-0.062-0.562-0.092-0.834-0.092c-0.6,0-1.129,0.121-1.589,0.364c-0.458,0.241-0.847,0.558-1.164,0.944
		c-0.316,0.39-0.557,0.826-0.722,1.316c-0.163,0.489-0.244,0.981-0.244,1.475c0,0.558,0.097,1.086,0.291,1.59
		c0.194,0.502,0.459,0.945,0.795,1.328c0.334,0.383,0.73,0.691,1.19,0.919c0.458,0.229,0.952,0.346,1.48,0.346
		c0.282,0,0.57-0.036,0.866-0.106c0.296-0.069,0.583-0.18,0.859-0.329c0.277-0.15,0.536-0.343,0.774-0.576
		c0.237-0.232,0.437-0.51,0.594-0.827l0.569,0.278c-0.159,0.352-0.372,0.665-0.643,0.939c-0.271,0.271-0.57,0.502-0.905,0.688
		s-0.689,0.324-1.065,0.416c-0.374,0.092-0.742,0.139-1.104,0.139c-0.645,0-1.233-0.141-1.767-0.423
		c-0.534-0.281-0.995-0.649-1.384-1.104c-0.387-0.455-0.689-0.972-0.904-1.549C102.509,582.555,102.4,581.969,102.4,581.368z"/>
	<path d="M115.882,586.197c-0.652,0-1.247-0.138-1.785-0.41c-0.538-0.271-1.001-0.631-1.391-1.07
		c-0.388-0.441-0.688-0.949-0.898-1.521c-0.212-0.572-0.317-1.16-0.317-1.76c0-0.627,0.112-1.225,0.338-1.798
		c0.224-0.573,0.533-1.081,0.926-1.521c0.394-0.44,0.857-0.792,1.396-1.052c0.538-0.261,1.12-0.391,1.747-0.391
		c0.65,0,1.247,0.139,1.785,0.416c0.538,0.276,0.999,0.643,1.382,1.091c0.384,0.45,0.682,0.959,0.894,1.529
		c0.211,0.566,0.317,1.144,0.317,1.726c0,0.635-0.113,1.239-0.337,1.812c-0.227,0.572-0.534,1.077-0.927,1.514
		c-0.394,0.438-0.855,0.785-1.391,1.046C117.087,586.066,116.509,586.197,115.882,586.197z M112.164,581.432
		c0,0.539,0.09,1.057,0.271,1.555s0.436,0.939,0.768,1.324c0.331,0.383,0.725,0.69,1.178,0.92c0.454,0.229,0.954,0.344,1.501,0.344
		c0.564,0,1.073-0.117,1.527-0.355c0.456-0.239,0.845-0.555,1.172-0.946c0.326-0.392,0.577-0.834,0.754-1.328
		s0.266-0.997,0.266-1.51c0-0.538-0.094-1.057-0.278-1.555s-0.443-0.939-0.773-1.323c-0.331-0.384-0.724-0.691-1.178-0.919
		c-0.455-0.229-0.95-0.347-1.488-0.347c-0.563,0-1.075,0.119-1.533,0.357c-0.46,0.238-0.852,0.554-1.171,0.945
		c-0.322,0.394-0.571,0.836-0.748,1.33C112.252,580.422,112.164,580.923,112.164,581.432z"/>
	<path d="M130.659,586.131v-8.123l-3.704,6.338h-0.423l-3.705-6.338v8.123h-0.675v-9.394h0.675l3.916,6.722l3.916-6.722h0.675v9.394
		H130.659L130.659,586.131z"/>
</g>
</svg>
