<?xml version="1.0" encoding="utf-8"?>
<!-- Generator: Adobe Illustrator 16.0.0, SVG Export Plug-In . SVG Version: 6.00 Build 0)  -->
<!DOCTYPE svg PUBLIC "-//W3C//DTD SVG 1.1//EN" "http://www.w3.org/Graphics/SVG/1.1/DTD/svg11.dtd">
<svg version="1.1" id="Layer_1" xmlns="http://www.w3.org/2000/svg" xmlns:xlink="http://www.w3.org/1999/xlink" x="0px" y="0px"
	 width="595.275px" height="595.279px" viewBox="0 0 595.275 595.279" enable-background="new 0 0 595.275 595.279"
	 xml:space="preserve">
<metadata><?xpacket begin="﻿" id="W5M0MpCehiHzreSzNTczkc9d"?>
<x:xmpmeta xmlns:x="adobe:ns:meta/" x:xmptk="Adobe XMP Core 5.3-c011 66.145661, 2012/02/06-14:56:27        ">
   <rdf:RDF xmlns:rdf="http://www.w3.org/1999/02/22-rdf-syntax-ns#">
      <rdf:Description rdf:about=""
            xmlns:dc="http://purl.org/dc/elements/1.1/">
         <dc:format>image/svg+xml</dc:format>
         <dc:title>
            <rdf:Alt>
               <rdf:li xml:lang="x-default">NFL Logo Redesigns</rdf:li>
               <rdf:li xml:lang="en_us">NFL Logo Redesigns</rdf:li>
            </rdf:Alt>
         </dc:title>
         <dc:creator>
            <rdf:Seq>
               <rdf:li>Max O'Brien/Osprey Dawn</rdf:li>
            </rdf:Seq>
         </dc:creator>
      </rdf:Description>
      <rdf:Description rdf:about=""
            xmlns:xmp="http://ns.adobe.com/xap/1.0/"
            xmlns:xmpGImg="http://ns.adobe.com/xap/1.0/g/img/">
         <xmp:CreatorTool>Adobe Illustrator CS6 (Macintosh)</xmp:CreatorTool>
         <xmp:ModifyDate>2013-10-06T23:52:49+13:00</xmp:ModifyDate>
         <xmp:MetadataDate>2013-10-06T23:52:49+13:00</xmp:MetadataDate>
         <xmp:CreateDate>2013-10-06T23:52:49+13:00</xmp:CreateDate>
         <xmp:Thumbnails>
            <rdf:Alt>
               <rdf:li rdf:parseType="Resource">
                  <xmpGImg:width>256</xmpGImg:width>
                  <xmpGImg:height>232</xmpGImg:height>
                  <xmpGImg:format>JPEG</xmpGImg:format>
                  <xmpGImg:image>/9j/4AAQSkZJRgABAgEASABIAAD/7QAsUGhvdG9zaG9wIDMuMAA4QklNA+0AAAAAABAASAAAAAEA&#xA;AQBIAAAAAQAB/+4ADkFkb2JlAGTAAAAAAf/bAIQABgQEBAUEBgUFBgkGBQYJCwgGBggLDAoKCwoK&#xA;DBAMDAwMDAwQDA4PEA8ODBMTFBQTExwbGxscHx8fHx8fHx8fHwEHBwcNDA0YEBAYGhURFRofHx8f&#xA;Hx8fHx8fHx8fHx8fHx8fHx8fHx8fHx8fHx8fHx8fHx8fHx8fHx8fHx8fHx8f/8AAEQgA6AEAAwER&#xA;AAIRAQMRAf/EAaIAAAAHAQEBAQEAAAAAAAAAAAQFAwIGAQAHCAkKCwEAAgIDAQEBAQEAAAAAAAAA&#xA;AQACAwQFBgcICQoLEAACAQMDAgQCBgcDBAIGAnMBAgMRBAAFIRIxQVEGE2EicYEUMpGhBxWxQiPB&#xA;UtHhMxZi8CRygvElQzRTkqKyY3PCNUQnk6OzNhdUZHTD0uIIJoMJChgZhJRFRqS0VtNVKBry4/PE&#xA;1OT0ZXWFlaW1xdXl9WZ2hpamtsbW5vY3R1dnd4eXp7fH1+f3OEhYaHiImKi4yNjo+Ck5SVlpeYmZ&#xA;qbnJ2en5KjpKWmp6ipqqusra6voRAAICAQIDBQUEBQYECAMDbQEAAhEDBCESMUEFURNhIgZxgZEy&#xA;obHwFMHR4SNCFVJicvEzJDRDghaSUyWiY7LCB3PSNeJEgxdUkwgJChgZJjZFGidkdFU38qOzwygp&#xA;0+PzhJSktMTU5PRldYWVpbXF1eX1RlZmdoaWprbG1ub2R1dnd4eXp7fH1+f3OEhYaHiImKi4yNjo&#xA;+DlJWWl5iZmpucnZ6fkqOkpaanqKmqq6ytrq+v/aAAwDAQACEQMRAD8A9U4q7FXYq7FXYq7FXYq7&#xA;FXYq7FXYq7FXYq7FXYqg59Z0i3r699bxU685UX9ZyieqxR+qUR8QzGKR5AoZvNfllWIOqWtR4SoR&#xA;94OUntLTj/KR+YZ/l8n80tf4t8sf9XS2/wCRi/1wfylpv9Uj81/LZP5paufN3lm3gad9TtnVRXjH&#xA;Isjn5IhLH7scnaenjGzOPwNn5BMdNkJrhLzzzT+cUkMMklo8WmWKfavLkpyp4/F8C/jnO6jt/Nll&#xA;wYI19svl/a5+PQwiLmf1PEvMf/OQXl4zMGurzWJB+2tfTr4VlK/gtMqHY2sz75JV/WN/rZnWYobR&#xA;HyQuif8AOQPl0XKcvrulSEj/AEhd1X5mJuf/AAuGXYOqxerHIE+RIP4+KBrsctpB795E/NUXYt49&#xA;QuUu7C5A+rakhBpXYc2GxX36jvl/Z/bWSE/C1Hus8x7/ANbDPo4mPFjep51rqnYq7FXYq7FXYq7F&#xA;XYq7FXYq7FXYq7FXYq7FXYq7FXYq7FXYq7FWNa3+YPl3Sy0Ym+uXI29G3owB/wAp/sj76+2ajV9t&#xA;YMO18Uu4fr5OXi0c5+Qee+Zvzqu7aFpXuLbRrXejyspc+waTYn5Lmin23qs54cMa9w4j+Pg5o0WK&#xA;AuZ/Q8k8w/8AOQnl4uyyX97q7VpSMN6YP/PVoxT/AFRgHZOtz75JV/Wl+gWn81hh9I+QYjdf85Bo&#xA;DS10QkdnluKf8KsZ/XmRD2YP8U/s/a1ntLuj9qCb/nIDV6njpNuFrsDI5NPuGXf6Gcf88/Jh/KUu&#xA;5r/oYDWP+rTb/wDIx8f9DOP+efkv8pS7l5/5yB1P0SBo8ImoeLmV+IPYleNf+Gwf6GIX9Zr3L/KR&#xA;7m/K35XfnB+b14moMjRaSW+HUr0mGzQdxBGAWk/2Cn/KbN9pdHiwRqAr73ByZpTNyL2vSP8AnCTy&#xA;VFbqNY8wald3FPjezWC1Su3RZEuT/wANmU1sf8//APOF31TTJ73yTq095cwKXGl6gI+coG5WOeMR&#xA;KG8AyUPiMVeWfkp5kvdP8wS+WrwukF1z9OCSqmK5iBLDifs8lUgjxAznPaHRiWPxQPVHn7v2Ow7P&#xA;zES4TyL7f/L/AFg6n5atzI3K4ta28xPX4Psn/gCMzexdV42nF/VHY/o+xp1mPgyHuO7I82ziuxV2&#xA;KuxV2KuxV2KuxV2KuxV2KuxV2KvO/Pn5mPo1zNaWTxQraj/S72enBTStByIUce5Ocz2n2zOGTwsI&#xA;uQ59d+4B2Om0cTHinySXQPznu50WVzbapaHb1rZ1B+hkLIfuzDx9v6jFKssb/wBifx8G6WgxyFwP&#xA;6WeaR5+8talRRci1nP8Aum5pGa+zV4H783um7Z0+X+LhPdLb9jhZNHkh0v3MiBDAMpqDuCOhGbUF&#xA;xUPe6jYWMXq3lxHbx/zSMFr8q9cqy54YxcyIjzZQhKRoC2Iav+auj23JNOie9kHSQ1jj+8jkf+Bz&#xA;Ran2jxQ2xgzPyH63Ox9nyP1bPJPPv54W9sskWsaqsX/artN3NezIpLf8jDTNScmu12w2h8o/t+1y&#xA;uHDh9/2vCfM/5469fF4NFiGm2x2EzUkuCPmfgSvsCffNto/Z3FDfIeM/Z+38bOLl7Qkdo7JTaflz&#xA;5511G1bUj9Wt3X1JL/U5ip4deRrykpTfcUzKn2rpsP7uG5/mwH4DUNLkn6j8yl+j+Sjqk99PFfxx&#xA;aDpv+9esyoyx9to0+07H9kbV2rQkDL8/aHhiIMbyz5QHP4nowhg4id/SOrNfy68t/lbrl5c2SQ3l&#xA;7eW6eqDeN6SPGGCl0WBhT4mHwuT1+7Udq6vW4YiRMYxP83f4b/ocvS4sMyRuT5s/ufJv5caTatcX&#xA;mm2NtbJSstwFI2HSshNT+vNFDX6vLKoymT5fsc04MURZAef6qIfPOpf4Y/LfytBdTOR6+oQ2kMbB&#xA;a0qHZVEMderuR4bd+p7M0GeB4805E/zeI18d3WanPA7QA99Pdvym/wCcSPLegCHVPOjR67q4o6ae&#xA;ATYwt4MrUM5/1wF/yT1zeOE+go444o1jjUJGgCoigBVUCgAA6AYqwuw88J5i/MS88uaLJz07y1GJ&#xA;PMF4hqrXk1Vgslb/ACArySkHqqr/ADDFWbYq+E/+cktKfyZ+edxqmmIsJvlg1iBKfB6khKS1ApUP&#xA;NE5PzyrPhjkgYS5SDKEzEgjoyr8uvzysru6iX1zo2smihS37iU+CsdjU/sP9Fc47UdmajRy8TCSY&#xA;+XP4jq7fHqceYcMxu+jfK35k2OolLXUwtneGgWStIZD8z9g+x+/Nt2d29DL6cnpn9h/U4uo0JjvH&#xA;cM1zoHAdirsVdirsVdirsVdirsVdirsVdir5Q/5yKiuP0J5mArUXgdwK/YN0pH0bjOL0e3aRv+dP&#xA;9LuM2+mFdwfP3krTtSu7uVtK1RtN1CEBloWXkhNCSyGtAeopnSdoZYRiOOHHEuJo8ByE8MuGQeox&#xA;eafzV8uuItc0Ya3aL/x+2Qq5H81YwR/wUa5zZ0ehz74p+HLul+39ZcsZs2P6o8Q8mRaR+fmkWiBX&#xA;utR0U9HjkjlCg0r0i51+7IR7M1mL+6nY/oy/sSdThl9Q+YSDzJ/zkDpfqM2nw3Gq3Ldbm4Yxp97c&#xA;pG+4Zdi9n82Q8WaVf7IsZa+ERUB+h5tr/wCannPWeSNeGytm/wB0WdYhTwLgmQ/S2bzTdjafFvw8&#xA;R75b/scLJrMk+te535c+R7nzTrSmdG/RNu3O+nqRy7iJW/mbv4Dfwx7V7RGmx7fWeQ/Sul05yS3+&#xA;nqzbQfyguv8AGs99qNrFbaDbTtJZWquJPVVW/cqRVjxAoW5bn6c0+p7cj+WEYEnKRue7v/ZTl49E&#xA;fEsj0sf/ADf87ajqOuXOhwyNDpdi/pvENvVlX7TP4gNso6d8zuw+z4Y8QynecvsDRrdQZSMegV9B&#xA;8r+cdd/LFrGyiVIPr6z20b0iaeLgwc8jQMA5WnLw67DIanWafDreKR34KPWj/Yyx4ck8NDvZj+U/&#xA;5c6h5be51PVSq39xH6EdujBwkfIM3JhsSzKOnSnvtqe2u1YagCEPpG9+blaPSnHZlzZtpv5LeU/P&#xA;HnGB9buL70gGke2juD6bBRXgocOUDHrwIy7sDWzOQYvTw+7f5/rYa7COHi3t9A6PoHlLyNoYtNE0&#xA;sWGnIRWGxtpriR2IpzcQrLNI227NU++dk6hhHnj859HsY/V8u+YdOi1eyq1x5d1xX0/60lRVEluR&#xA;A8Ev8jNVD3H7QVeEXn/OV2p2C+ZoPL8Uy2utoLnR1uWV5NLvZ6fXFRhtJEXLyReDEbfaGKs0/wCc&#xA;bvP3kfyt5Ms9GFxPrXnbzHdTX1zpenxNc3AJPBFklPCFKRx825yDjU1xV9MRM7RIzoY3ZQWjJBKk&#xA;jcEio29sVfG//ObEan8w9CIUeo+kqpbYEgXM1AT7VOKsG1v8qtE1JJbnyPqsF+8QrLpxmR2p4o4P&#xA;4P8A8FnN6ftnJjoamBjf8Vff+z5OxyaOMt8ZvyUPJ/5pa95Yuho/mGKWeyhPpskoIubenYcvtKP5&#xA;T9B7ZPXdj4tTHxMRAkf9KWODVyxnhny+0PqP8u/zYhNlblrgajokopDcIeUkXtvvRe6ncfhms0Xa&#xA;uXSy8LODwj5j9Y/AcnNpY5RxQ5vY7W6t7q3juLaRZYJRyjkU1BGdjjyRnESibBdRKJBoqmTQ7FXY&#xA;q7FXYq7FXYq7FXYq7FXh353eWFvLrULVhxh1i1IV+wk48K/NWVWziu1wdPrBlHI1L5bH8ebuNJ+8&#xA;wmPwfFdld3+iauJQpju7SRklibbdSVdG/VnXZIRzY6/hkHWYsksU7HMPoDyV+YOlarYpGZaOgAIb&#xA;7adqOPDwbpnDdodmTxSunosWWOUXH5Mh1fy1o+soU1KOS4hanKD151iPE1BMaOqHceGYGDV5MW8C&#xA;Ae+hfzq2M8UZc3n3nLyJdXF/aaB5W0m3sNPlQPqWrKqcwCxHps5Pq0CitAfir4Vze6DtKMYnLnnK&#xA;Ux9Mf0936nBz6ckiMAAOpQPm3Tvy18laZFpx01NX1pwG4zSMH/4ySshHBfBV6/jl+hy6zWTM+Lgx&#xA;+X3D9bDNHFiFVxSZB+WXnq21Dy/qMk+nwaVZaKodjbAiExsru1E3PJeFTua1zA7X7OOPLECRnLJ3&#xA;8+jfpNQJRNihFiHmf89NWuZUj8vw/UIEarTTBJZJAOg4kMqDx6n3za6P2cxxF5TxHy2A/W4uXtCR&#xA;+nZ7DpSG90iyudRtoxe3FvE92hQUEjRguu9dgds5TMeDJIQJ4RI17rdpDeIJG9JiAAAAKAbADKGx&#xA;2BURY311YXcV3aSGK4hblG48f4g98tw5pY5CUTUgxnASFHk9V8tfmVpmoKlvqRFlemg5k/uXPsx+&#xA;z8m+/O00Hb2PLUcnon9h/V8XTZ9DKO8dwmvm/wAk+WfOOlHTdftfrlmalFEkkdCw+0DGyVzfuC+K&#xA;Pz0/IPVfIGp/W9MVr3y7cRvPHKnN3t0iMEchuKqBGpmuQsfxNt1Na4qyX/nGeP8AN2ysbvU/JHln&#xA;RtQsbic297q2oShLgGNQ3oKyzh0X4lanpUNe/ZV9e+XrnzHcaer6/YW2n33RobS5e6jNP2ubwwUr&#xA;4UPzxV8af85k6kl1+bUFsrV/R+lW0DqD0d5JZunY8ZVxVgX5NaZPeeeLaaN2SOxjkuJivdaemF+l&#xA;nGabt7MIaYg/xED9P6HM0MCcg8nsHn3yj5W1yxDavLFYXI+C21FmSNlalQpLFQ6/5J+imcp2brs+&#xA;GX7sGQ6x/HL3u01GGEx6tj3vH7W782/lnr3Fh6tlPRioJNtdRD9pG7MAevUd9uvVzhg7Rxd0h/po&#xA;l1YlPTy8vsL6b/Kr81bV7WK9spTPpFwQLq1b7cL/ALXw/suvfsw+g5z+l1OXs/L4eT6Px6g52THD&#xA;PDijz/Gxe+Wt1b3VvHc28glglUNHIvQg522PJGcRKJsF00okGiqZNDsVdirsVdirsVdirsVdirH/&#xA;ADt5ZGvaSY4qC9tyZLVj3P7SE+DD8aZq+1tB+ZxUPrjuP1fFydLn8OXkXyB+a/5SXd/eTatpEPDV&#xA;FNL/AE9vgMjLtyStKP4g9fn10XZXa/gfuc2wHI93kXO1Wk4/XB43pU0ul69bPch7ZrW4UXKsCHQK&#xA;9JFZevSoIzqc0RkxGt7G36HX4JcGQE7Ud3unkT8xrvzVe6hZW1gLaC0g5Wtyz8iWrwUSLT9r7W3S&#xA;h65xfaXZUdNGMjKzI7j9TtsGqOWRAFJF5S8peaPKQ1zzdrcivdR2k7LbCT1Glkr6nOVhtSqe5+WZ&#xA;2t1uHVeHgxjbiG/KumzRhwzxcU5dzy+wsNf826+Y4g93qN45knlatFBO7uf2UWv8BnR5MuLS4rPp&#xA;hHl+O910YyyS7yXpXn4ad5J8hQeU7Fi99qR53c/QsqkGRz4ciAij+XOe7N49Zqjnl9MOQ+4fp97n&#xA;6msWLgHMsZ/KnyLLr+sJf3UZGkWDh5GI+GWRd1iFevi3t882PbXaIwY+CJ/eS+wd/wCpx9Hp+OVn&#xA;6Q9m8zefvLPlu4httUuGW4nXmsUaGRlStOTAdBUbZyOk7MzagEwGwdtl1MMZoploXmDSdesfr2lT&#xA;m4teZj9Qo8fxKASKOFPfKNTpcmGXDMVL8dzPHkjMXHk8L8kfmjNo3mDUr3VkkuLbVpPUuQhq8bgn&#xA;iyqxAIAbjTbanhnZ9o9jjLijHHQMOXm6fT6vgkTL+J7noPmDSNesFvtLuBcW5PFqAhlYdVdTQqc4&#xA;zU6XJhlwzFF3GPJGYuKY5jtie6B5y1zRWC283q2o62stWj/2O9V+jNjou1M2n+k3HuPL9jj5tLDJ&#xA;z5vTdC816D5ptJbCeJRLNGyXOn3AV0kjYUcCu0ikdRT6M7Ps/tbHqdh6Z936u90+fSyx+YeW/lr5&#xA;PuPyp/OS/wDLFuzN5P8AOUEl3oJYlvSu7Osj2xJ35LCzmv7Sha1INNo4z3jFX5yfnh5kTzH+bHmf&#xA;VI25wG9e2gcdGitALZGHsyxBsVe7eW9G0XS9LgTSrNLSGWNHIUfG1VqDI5+Jjv1OeY6vUZMkyZy4&#xA;jf4p6TFCMY+kU8c/PjVRceZrXT0aqWFuC616STHkdv8AUCZ1ns3h4cJn/OP2D9tur7RncwO4Mw8m&#xA;2Gga3+WujaLr0sRmu0n+qRySKs/wTyBXgDHlVFp0HTY7Zqdfly4dZPJiBqNXttyHNysEYzwxjLqw&#xA;VV8yflZ5qDMDcaZcGhYbR3MIP/CypX6D4qd93eHtLB3THzif1H8buH69PPy+99S/lT+ZVl9Wt3Sf&#xA;1tCv/iRz1hcmhqO1Ds4/zOn7N109HlOHL9N/Lz9x/a5eowjNHjjze2ghgGU1B3BHQjO1BdM7FXYq&#xA;7FXYq7FXYq7FXYqtlljhieWVgkUal3c7AKoqSflkZSEQSeQSBZp8u/nZ+YxsrS/1iMhbu7b6tpcd&#xA;BUbUVyP8hByPvtnD4YHX6wyP0f70cvm7qZ8DFXX9L5Rd3kdndi8jklmJqSTuSSc7kAAOke5/lboM&#xA;vlLyrqXmHWEaGS4j9c27CjpBArMoIPRnLdPlnGdsakarPHFj3o1fmf0B3Gkx+FAykoeSPNP5hebf&#xA;MIu3VLbywhYXMXpIYmWhAjV3Xm7V60NP1ZPtDR6TS4uHnm6b7++uQRp82XLK/wCBnry+UfLXBSLL&#xA;SfrjhVVFjgMj9Oiha0r17ZowM+o/nT4feac24Y+6Nsc/Niy8qQaSuuazpxv7q3K29ogkkiDM5LBX&#xA;KMPhFCfHNh2LkzmfhY5cMTudgfk4+sjAR4pCyl/5Q+eb/XJLnSZNOt7S0sohJA9mhjjQF6CNlLNu&#xA;1SQfY1y/tzs6OECYkZSkd+Lc+9hotQZ3GgAO5v8AML8qdS8zeY4dTtLyGGBo0iuVm5814E/FGFBD&#xA;bHoSN++PZfbUNPhMJRJN2K/Sup0ZyTsFm2lw6H5fsbHRIriKD00WO3ikdFkkNaFuJI5Mzbmg65p8&#xA;0smeUshBPf3By4CMAIvDfOn5VeZtM1G6ubG0e/0ySR5IZLcc3RGPLi8Y+Oq+IFM7Ps/tnDkgBI8M&#xA;66/rdRn0c4kkCwn/AOQEWorqGrtxZbERRrLWoHrhjxG/cLyrmD7TGHBD+df2N3ZoNnue0ZyDtnYq&#xA;mfltrYazbCeV7cM4WO6iNGikJ+B96ggHqPDMzQmPix4iY78x0PQtOe+A1u9m1PQRqtvpxvGVb7Tb&#xA;uC9guI16SQtxfiCdhLCzxnwDHrnpOPi4Rxc3nZVeyl5zvtUttBuIdGHLXL5Ta6VUVCzyKQJn/wAi&#xA;FayN7LQVJAMiUPikfkNPHq7TtfpcabGfUSFgwmlIFfTc7KvJti1emcqfaQGFcNTPyHm7QdnVLnsj&#xA;fJNj+Z1z55Gp+YFmt7KKOVZYmZVgoVKpHFGrFdmoa+25yntDJo46bgxUZGvf7yWeCOY5LlyTjX/y&#xA;f0PW/MUus3V3cKLhlae2TiASihaBiCQDxGYem7dyYcQxxA25FtyaKM58RLz/APOUHTfNGmW9hEbO&#xA;30+yiWyZNqcZHIKHr8Jp71ze9g/vMMzI8RlI38g4Wu9MwBtQelareeV9e8raZYeZrqC2u9XtYLiJ&#xA;HcJIk0kYIkSv2aMxArsemc9hx5sOecsIJjCRHwvk585QnACZ3kHnvlbWNU/LfzbLoWsknSLpwWk3&#xA;4UbZLmP22o4/iM32swQ7QwDLj/vB+DE/o/a4OGcsE+GX0n8W+w/yv82i5hXRbqQM6LysZK15xgVK&#xA;V/yRuPb5ZX2B2iZDwZ8x9P6vh+OTLXaevWPi9Czp3WuxV2KuxV2KuxV2KuxVhX5o64bPR006JqTX&#xA;5IfxESULf8EaD785/wBodX4eIYxzn9zn6DFxS4j0fC/5ueZzrfmuWGFy1jptbaAdi4P71/pbb5AZ&#xA;kdiaPwcAJ+qe5/Q163Lxz8gy38o/INqk6atqcQlukQSwQuKrEW+wSD+1Tffp881fbfaciPDgaHXz&#xA;/Y7DS6IQiJS+o/YmXnPX7DXfPGi+UVuBLpnrepqqRt8Mki1ZIHI7Dh8Q9/EZjaDTSw6aeoqp16fI&#xA;d7DPkE8kcfTqyXz35st/J3l1bi3tleV2FvZW4HCJW4k1IXoqheg+Wa/s3RHV5aJ25k9XI1GYYoWA&#xA;8q8hWp89ecnvPMd+ZprULcR2hFBKFb7C9lRTSoA3+8503aU/yWn4cMaB2vu/a63TjxslzPJ7frmi&#xA;aVrWnSWGqQiezchmQsyUKmoYMpUinzzjdPqJ4Z8UDUncZMcZipcmEflx5s8ltqlx5c8vadJZoA8q&#xA;3LkP65jIBJYlm6Gq1PTwzc9q6LUcAzZZCXSu5w9Lmx3wRFMv8xebNA8uwJLq10LcTBvQTizvIUpy&#xA;CqoP8wzVaXRZc5rGLrm5WXNGH1F4xqF7H5i8xS+dtRiNhoNiyfVkc0lumgNUhi8Xcj4yuyjOuxYz&#xA;p8Q00DxZZc+6N8yfLu73Uylxy8Q7RH2pZcfm556l1I3qX/ooGqloiJ6IWv2SpBJ+ZNcyI9h6YQ4e&#xA;G/Pq1nW5Cbt9BaDdi+0Wx1D0lge+giupI1FAHmQO3z3OcLqYcGSULvhJHyd5jlcQe9iP5qaR521Z&#xA;NMsvLrMtszu160cghIYcfTLtUNxHxGi9/oza9jZ9Ni4pZufTa/e4ushklQgyHWfMNj5V8vQ3mszt&#xA;KYljgLotXmm478RsKtxLbnMDT6WWpymOMVdn3BvnlGONyYFP/wA5BacoJt9HmkbsJJlj/EK+buPs&#xA;xPrMfL+xwj2kOgZJ/wBDtec1nh4eX9PNogUSo8k7TPTqRICqgn/UOddEEAA7uqJ3fTS/mJoy/lrH&#xA;+YFxHJFpjaaupvAAGlVXjD+kOgLcjx8K5JDzu7t9I8z6DB548pM1xouoBpJ4CtJbeQEiVWXenFge&#xA;VNh2qtDnGdtdkGBOXGPSeY7v2fc7jR6sEcMubHs5p2LBdM8rea4fzLv9ckuyuhyrRYjJzMoMYCpw&#xA;/ZCPv9Hvm6y6zAdHHEB+8Hly37/MOHDDMZjK/SmfmZPJOq61p2ga3FHdalKHmsoTyqoUcjVkIoG4&#xA;HYmjUzH0h1OLHLLjJEBsfx8fg2ZfDlIRluXkX53RTx+dQHAWH6pD9VVdgIgWFKf64bOq9niDp9uf&#xA;Eb9/9lOr14/efB6L5t8r2PmPyzYaTLPGPM9tZJcWYZh6jcUVZAe/B22r479s0Gh1ktPmlkAPgmVH&#xA;u8viHOzYRkgI/wAdKP5Hedr4wnRbmRotW0Rg1qW2f0kbjxIPeJvh+VBmR21pjhyR1GPlI38f2sNH&#xA;k44nHLp9z7F0DWIdY0m31CLb1V/eJ/K42ZfoOdTotUM+ITHX73WZsRhIxTDMpqdirsVdirsVdirs&#xA;VfOH56+dGs4tb1SN/itV+p2HtJX01I/2bF/lnEZh+c1/D/CDXwjz+f6Xcw/dYL6/rfJnl6yW/wBd&#xA;sraQckklBkB7qvxN+Azr9Vk4MUiO51umx8eSIPe9B0vzP5i1G+8zW2jTkulmYrCxTiHkYSqjyxk/&#xA;EWWMuwpv0zRZtHixxxHIP4rke7bkfjTscmqnknMRPIbD9K/8rPIOtWXmi11TWbZrRIVka2hlIEju&#xA;UK8inVVUE7nvSnfB2z2ljnhMMZ4rq+5r0ekmJcUhQD0H80fLd3r/AJTmtbGAXF/FJHNbJUKaqaNQ&#xA;sQPsMc0XY+rjgziUjUSCD+Pe5erxGcKHN5NoenX35f3qeYNeh9K8VJE0zTBIpkmd1KM8nAsFiQMe&#xA;u5NKDOn1GWOuj4WI3HbilWw93mXW44nCeKXPoHT6p+annrmtvHcPYSVHpW4+r2tP5S7FVf8A2THG&#xA;OHRaLnXF57y/Z8ApnmzcuX2J75X0XTPy4uzrHmm/jGpSwslppdtWWXixFXboP2aD9n3zC1mon2hH&#xA;w8ETwA7yOw/H2+TdhxjAeKZ37kD5q/OWXVysGnaRbqqMfQnvI0uZQTtyRGBRGP8Assv0XYIxbzmf&#xA;MRPCP1n7GGbXcWwHz3UtA/KX81PPl2Jnh9FaALcapOlqqr+yI4nPqcfDhHTNtiyafH6YGA+IcWcc&#xA;ktyCs/MP8hPzI8hWA1LWbKObSqqr6hZSetFGzGiiTZXSp2BK0rtWuZjSnX/OOEPmDzF+YdtoQ1C4&#xA;/R/1OdpkdmliijiT92fTLAKPUKqKeOazX9l49RAgARld8VOTg1MoG+Y7npv5teaNN/Le/i0y+kTU&#xA;dUnjEyWlqxBSMkhWmZlATlxNAKn6M52Ps1m4qMo8Pf8Asdge0YVyNteWdKP5neT4b6XQJZ9PnlZf&#xA;SYF1WWIlSySrw8ftCmUy7O1WlzfuuI/0gGQ1GLJD1V7nhX5vfl+/kbzg2jlWjjmt47uGF2DvGkpZ&#xA;eLMu3VDT2pXOw0UsssQOUVN1OYQEvRyRH5KflcfzJ86DQXvTYW0Nu97dzqhkcxRuiFUH2QzGUULb&#xA;D36HLanuMn5yWHmbXZPyV03y7LaeT5oz5ajvVDy3tvJHWCK5aMfD6cboCysa0BYt2xV9B/l75Otf&#xA;JnkrSfLNu4mTTYBHJOF4CWViXmk41NOcjM1KnFXnflh/Kf5o6Zf6x5Xhn0e8sbqS0u7G7j4L6imq&#xA;mi8gvJaE8eh2I7nntf2BDL6sfol3dP2Ofg10o7S3CV6l5X1zT55YZrZnMNDK0NJVUN9ktwrx5U25&#xA;Uzl9R2ZqMP1RNd43Ds8epxz5F5Hqv5Y+eNR/NK18x6FaSXNgJLeW8niIYwrEqxyI0YPOjou1BvX5&#xA;5vNDqIz0MsVGUgCKAvnuD8/ucLPjIziV0Cm3nzyZ5M1bVLNvMV19Q1FQIoYzOkEkyBiRHwkBJHJj&#xA;9mh365rNBrNVgjKOONx6+kmvP+1yc+LFMgyO/vQV/wCUPMMv5paf5gg9NdJtoREWDUZVEbqUKd6s&#xA;+1Nssxa7ENFLEb4yf0jdjLBLxhIfSxj8xLWTyh5903zbZIVtbx/9MRehcfDMvh+8jNR/lVObHsuY&#xA;1Wllgl9UeX6PkfscfUjwsomORfUn5P69G8k2niTnBdILq0bsTQcqf6ykH6Mh7OagxnLDL3/Ec/x5&#xA;J7Qx2BMPUM651TsVdirsVdirsVUrucQWs056RIz7/wCSCchknwxMu4JiLNPiH/nILUJBpGmWhapu&#xA;bmSd/EmJKf8AM3OR9mocWWcz0H3n9jtu0TUQHmP5fxSP5ptWUVWJZXc+AMbLX72GdF2nIDAfOvvc&#xA;bs2JOYeV/clmsaZfaRqbwTckkRucMw25LX4XUjMjBmjlhY5OPnwyxzIL3f8ALnWZPMATVJOZkRCs&#xA;pk/34KKaHw60ziu1cAwegPRYc4yYgQo+cvzai8t+aYtJaz+sWkSK99Kp/egyLVRGpouwoTU7+2S0&#xA;HYh1GA5OKpHl3fFws+t8OfDWzz7y5b3H5i/mG9zqnI2SBp5oami28ZAjgUjoCWANPc9c3uqkNBpO&#xA;GH1cvieZ/Hk4OIHPls8nvrLHaWfp20ccaxKEt4do46/ZRBQbAmg6Zw9mUrPXn+l3VUNkk0vyPo1v&#xA;O9/qMSaprNwedzf3KBzy8IkbkI0XooHQd8zM3aOSQ4YHgxjkB+nvLVDTxG53l3putppNk6yLDb2z&#xA;uwjRwqRks2wUGg3PhmKZzntZLZUQi8qZpzpvme6trCfSr2KPU9Fuo2hudNuhziaNhQqK141+72za&#xA;6HtfNp9h6odx/R3OLn0kMnkVLyE/kTyJe3l35b8rrZS39EuJTdzTSCINyEaNMH4rXeg67V6DNqPa&#xA;c3vj+39ji/yaP532J157/IjyF+bV/YebJru8sbholhuPqxjHqpGTRXEivxdCSOQ7eO2dNpdTHNjE&#xA;48i63JjMJcJepeXvL+keXdFs9E0e3W102wjEVtAtSFUbkkncsxJLE7k75kMHwd/zk7ez3X53+Y/V&#xA;JpA1tDEvZUS1i6fMkt9OKvY/+cfPLNl+U35f6v8AmX53WSwk1COOK1tmQ/WFtefwKIzQ87iQqQp/&#xA;ZAJoK4qlV5/zm1cR61y0zypCujF6zLNORdSiv2+SL6aNTsQ/zxV9OeUvNOkea/Len+YdIkMmn6jE&#xA;JYSwoympV0cCtGR1Ktv1GKpsiIgIRQoJLEAUqSak/ScVeLfkf5D/ADH0fz75580ebbdLGLzDcB7e&#xA;1W4S4L8ZZHRgUaTikcb8EDEGnYYq9k9OyF0G4xi6Kkg0X1Cvf/KpkPDjd0LTxGqfJn59fkh+bfmX&#xA;81pNXtVS/wBHvmijsL9pUjhsYY1A4Tq5rGqNyaqg8q1+0aZMhCM/NY+aG/Nby95a8lFY9HvRbJdX&#xA;1qI7mJpnlK3DOx9URLGm/Dbx8M08uw9NvUdz5n9bljW5Nt1353+RtSi8p6haXsPGa1X65ayr8SP6&#xA;G7FD3/dlhTrvnPaHFk0eriJihLbyN/tp2GaUc2ImPTd3/OPnmV30jy/dM5MllN9SnPgit6YH/Ilx&#xA;lmqH5ftESHIyB/02x/Sxx/vNPXl9z6rztXTOxV2KuxV2KuxVLdWuYZrXUdPjat0tozlPBZFdV/FT&#xA;mJqcglGeMfVwffbbjiQRLpb4i/5yEikMOhTAfu0a6Rm8C4iIH/CnOd9mJC8g/q/pdh2kPp+LDfyw&#xA;mgTVrqJyBNJD+6r3CtVgP15tu2IkwB6Ar2TICZHWlvma6udelSzsoWu7m2muXYxjkUiMvBFr/sa/&#xA;dh0kBhHFI8IIj86tGrmcx4YjiIMvlb278vNAbRfK1lbyrxuXjV518Gb4qbe7HOO7U1PjZ5Ecrdji&#xA;hwQEe4MT/MT8o9R8w66+r6XdQRSXCotxDcl1HKNQgZWRX6qo2pmz7L7bhgxeHME1yr8BwtTojOXF&#xA;EojRPLa/lr5U1HVJpEvNWn9NCwBESktwjRa0Yjk/I9K9MhqNX/KGeMAOGAv3+bPFh8CBkdynnmS+&#xA;eXzh5d0osVt3uHnlH8zwwSSID/slU5h6THWnyT61XzIDlZTvEd5+4Mou7q3tLWa6uXEVvAjSTSN0&#xA;VEFWJ+gZrYQMpCI3JZyIAsvI9UsLjzf5Zbz2+uS6ddNq0mmeX9Kj/Yt4LcSzTMyupDn1UBp+IIp6&#xA;X2T2RjhDwzVkb7XZ/U8vr9fIevpbBdXfztpHGaTVrt4eQCzx3MuzdRUFgQdsys/ZOPHzhAj3Bp0/&#xA;aHibAkF7L5J1a60r8vodZ80ag8gkU3Pqznk6xPQRID9pywHId/ipnn/aGCOTVHHhjXTbv6+79j0e&#xA;CZji4pliGo/85ATC7pp2lKbNT9q4ciR1+SfCn/DZtcXsyOH1z9Xly/HycaXaW+w2fXP5KXzah5Et&#xA;dR4GOO9YXEUbdVWWKNuJPsSc2PYeI48UonfhySHyoOPrZCUge+IZ4SAKnYDqc3ThsZtvL/5b+YtS&#xA;TzTa2Ok6xqEZCJrMUdvcuGjAAAmUP8SClN6jFVv5meRLLz35J1LyzdSm3F6qmC5A5GKaJxJG/Goq&#xA;Ay/EK7ioxV8E/mD+Tn5geQ7h113TH+ohqR6rbgzWbitAfVUfBXssgVvbFWb/AJC/85D655IlsPK9&#xA;7bw3nle4u/3hIZbm3+sMAzxuDxKqTyKMu/iMVfc+Ksd88/mD5T8j6OdW8x3y2kBqsEQ+OaZwK8IY&#xA;x8Tn8B3IGKvgD80vzBfzh+Y2pebLA3NlHcvH9RSSSs0KRRLGAGQ0WpUtRele/XFVx0X81fOrR3F8&#xA;2o6om3p3OozyFAKUBRrhtxT+XMDUdp6fFtKQvuG/3N+PTZJcgmKfkT5zaLmZrFG/320snL8Iyv45&#xA;rz7R6e+UvkP1t/8AJ+TyR0d9+cHkbT5bO9E2oeWXVkuLKWQ3VoEIozLuzW7U/aAX3qNsyI63S6sc&#xA;F79L2N+Xn7mBw5cRuk8/5x+u3OjapbgkejcpKvsZEp/zLzS+0saywl/R+4/tczs4+kjzfcFtL61v&#xA;FN/vxFf/AIIVzrscuKIPeHUyFGlTJodirsVdirsVYB5d1j6x+ZOro7fBKjwRj3t2VRT6FY5zGh1X&#xA;F2hkB62P9L+C7LNirBH8c3k355eR7P6hrGmFfUWOFr3T2I+JHVWdAKfIp8s13AdFrgIn0kj/AEsv&#xA;1foci/Gw2ef6Q+RAxUgqSCOhGdw6V6v+TOircQSzMu0037w/8VxAfrZiM5jt7UcJA7h9pd72ZHhx&#xA;mXUl7ZnHOY7FWLfmVYy33laa2ioZWdWjB6F0BdQf9kozZ9k5BDOJHkxyY+OBiOdMH/N7Vprd9B1u&#xA;ydoLhitxArbMpC/EG912DDNz2HgEhkxy3HIuJrshjGJHMFimv/mfrXmO0i0q8lFlpzkfXGQc2cKa&#xA;70VTSo6ZuNB2Nhw5OPr9zrtXrpThUY/tWW9x5TsLuO9gvnKRpSO1AZhyKBC1KbEgb1zqInBCXEC8&#xA;7IaiceAx+Kb6bp2rfmLrUP8Ao/1Ty/bMhuZ1RYg3pqF4qEAX1Co7eJZiSc0XbfbccUKH1dB+k+Tt&#xA;OzOzDdn4n9Sd/n5K9tpmh6fAOFmzzMY12UGFY1jH0LI1M5r2aiJTyTP1bfbd/c7jtE0IgcmP+RfJ&#xA;HlR9Hi17zZeCK3uXK2FiH4tKEbiTxX949WBAVMz+0Nfn8TwdPG5Dme6/s+bRp8EOHjyHZ9tfl1qE&#xA;h0WxsLDRb210yCPe/vo1s1ct8R9G3c/WaVO3qRIKd82ui0/g4owPMc/edy42bJxyJTbz5ot3rvkn&#xA;XtGs5TDd6jp9zbW8imlJJYmVd9tiTv7ZlNT5L/5w717zLY+ddSsI34eVvqkl1rrTHjDbtCP3U3Nq&#xA;BGr8J8VrX7Oyr7D0bXtC1u1N3ouo2up2iuY2uLOaO4jDrQlS8bMtRXpiqLuLeC4gkt7iNZoJVKSx&#xA;SKGRlYUKspqCCO2Kvnib/nDby3H54tdasNYkh0CO6W6m0SWESNxR/U9GOcOv7sn4fiQkL3JxV6r+&#xA;bP5p6H+XHleTWNR/f3cpMWmacrBXuJqdK78UXq7dh4kgFV8QXL+f/wA3vNlxq2ozmVi3GS4fkLW1&#xA;irVYYVqaAdlG56nck5g67tDHpo3Ln0HUt+DTyyHZ7T+XX5Hafbsv6OsP0jfIR6mpXSjijf5Nfgj9&#xA;qfF7nOVlqdZr5VDaHlsPiev42dmMeLALPN7XpX5SWaKr6pdvM/UxQDgg9uTAsfuGbHT+zUBvklfk&#xA;Nvx9jj5O0T/CE+X8vfJ6pw/R4I7kySk/fzzZDsTSgVwfaf1uP+cy97HPMv5V2/1aSfRS3qKCWspD&#xA;yDjwRjvX2Na5qtd7PADiw3Y/h/UXJwa83U/m8d0XyppmhX+oz6fF9XW/aNprUCiJJHyBKj9nly6d&#xA;s53U6zJljGM9zC9+vxdjjxRiSY9X1BYI0djbI4oyRIrDwIUA56RhFQiD3B52Z3KvljF2KuxV2Kux&#xA;V8+WHmF9M/Mt5JXPFT9YA8U9aSO4I/2Miffnn2LL4WYZu7Ib9x/EnfSjxQ4P6P4/Qjfz0v0WTV7h&#xA;CGW20x2BG4IELSD5/azM7UIya6AH9AfM/tadN6cBPvfEOdq6d9D/AJMaf6Hk+C4YfHOXofbmT/EZ&#xA;wfb+Xi1BHc9DpBWGI/HNnuaNyHYqx/z5qlhpflye8vH4pGyeko3Z3J2RR4kVzP7NwyyZhGLGWaOM&#xA;cReJ2VhqXnbXhLqLvZaTbv6bECpjUmpRAern9o/2DOwyZYaPFUPVM/b+x1ox5NVMk7RH4r3vZdP/&#xA;AC38i2tqkUWk2860BE0w9Z2qOpZq9fbbOSy9q6mUrMyPds5kdJjAqlK+8j/l3pdrPqdzpFskFrGZ&#xA;ZWZSyhUFfsEkE/RvksfaOrySEIzlZYy0+KIsgbMJj/PuzguFgttC9PTIzxjCyqjhB3EYTgP9Wv05&#xA;uD7NSkLOT1+79N24g7RANCOyRfmj5+i8zWdnDbae0FjHK0tvezGkktAUYIv8lep33HbNh2R2TLTE&#xA;ylLcjl0adZqo5NhyD6U/5xU/LzyRH5A0rzjHZLc+Yrz11lvbkCR4DDPJEFgBqIxxQbjc1+jNyIb2&#xA;4ZltT3vJsXYqgLrQNFurDUNPmsoTZ6rHJFqMSKE9dJlKSBynEnkrEVrXFUi/L78r/KPkCDULby1B&#xA;Lb22ozLPLDLK0wVlXiFQvVuNPEk4qyzFWOTa9rWm6jr15r0Frp/lHS7aO4tNU9UvLKAhe4MiUHpi&#xA;LjSlDyqKYq+JfNOv69+dv5mzXbs9vo8NUtYjutpYo3w7dPVk6nxY/wAo2we0NdHTY+I8+g7y36fC&#xA;ckqfRv5YflhZvZwxRQ/VdBtPhVV2eZx9r4uu5+03+Y5bQaDJrchy5T6Pv8h5Oyz544Y8Meb2u1tL&#xA;a0t0t7aJYYIxRI0FABnaY8cYREYigHUSkZGyq5Ni7FXYq808z+UBL57sRBHS21JvWnAGwMRrN94o&#xA;fmc5HtDszi1seEenJufh9X47y7XBqawm+cfwHpedc6p2KuxV2KuxVougcIWAdgSq9yBSv68Fi6Wn&#xA;yx+a0p0LzrZas/w20GpXFhdt0AgvT8Lt4Krxoc4bwePJnw9bMh74n9IJd3x1GE/h80x16GbV9Ku7&#xA;GZ+RuLV7RWbsjRmNRX2Bpmpx6gjJGZ34SPscqUAYkDq+RXhlSZoXQrKrFGQ9QwNCPvz08SBF9Hm6&#xA;3p9VeUdPGn+WdNs+8MCAnxNK1zzPXZfEzSl3l6aMeEAdwTfMRk7FWL+ZNIjvdSbUNRUNYaXbN9Rj&#xA;enA3c/INKR39NAoWvcnwzZaTOYQ4IfVOW/8AVHT4721DHxZATyi8/u/OXlnTS8UUvrylmYxWw5ku&#xA;5qfi2WpJ8c3sNBmybkUPNnPXYcewNnyZ55U8lfnZ5gtIdQs9Im0zQmIa3iuJIorqZeqtwmZDHGev&#xA;TfttvluXsaIjYHHI/AftcOPaEZy9XoiPeSU383/lX5gTylqF5541WPQNCiQG4meUTykghkWKGI8Z&#xA;HZgAF5CuHQ9lTx5BOoxr4p1WtwygYizbyj8u/wAuPJkclh5q/Ma8n0nyTe3Rg0eN45BPqDIaszmI&#xA;P6UCj7bg+ynqw6N0b0v89f8AnGrzxrfncav5Mtba50O6gt4ILJJYrZbFYIVi4KkjIpjbhzHDerHb&#xA;uVXvH5L/AJfyeQPINj5aublLrUIi9zfPFXh6s7lqID8XFacQSBypWg6Yqkf5Y/mx+WmveavMmlaP&#xA;f3EWpvfs/o6jcFkuSP3RawV5HAi5IW4LQ71pTYKvVcVeP/8AOSP5s+a/y50DSrvy9aQSvqNxJBPd&#xA;3KPIkXBOaKFVkHN/iIqeinbwVRH/ADjp+b2qfmT5XvrjWYIYdW0u4EE72wKxyRyJyjfgxYq2zAit&#xA;Nq+wVesYq+X/APnMn8z2t7S1/L/TZiJboJe62yH/AHUDWCBqfzMvqMPZfHFUL+R/5cPb2FlpvEpf&#xA;ahS51OWnxItK8f8AnmppT+Y++cPqZS1+r4I/QNvgOZ+P6ndYwMGKzzfUtnaW9naxWtugjghUJGg7&#xA;AZ2mLFHHERiKAdPKRkbKrljF2KuxV2KtFELhyo5qCA1NwDQkV96DBQu1tvCrsVdirsVdirEPzGvb&#xA;7TbTTtVs24y2tzTfcEOjVDDwPGmaLt3LPFGGWHOMvvDm6KIkTE9Q8b/M63tPOdpqkaReg2owqQjG&#xA;oS4RRxYEdV5oDnNHtEfmhniK5WPhRdkNP+64Cwv8r/N8mraa+kalWPXdJ/cXUT/bdEPAPv3H2X99&#xA;++T7Y0IxT8SH93Pcfq/Ux0mfiHCfqi8ltrKDW/zLvZLUB7MX09yGXcMiykqR7OxH351E8hw6OIl9&#xA;XAB9n6HC0+MZNRtyBt9HxRiOJIx0RQo+gUzz8mzbuSuwK7FXlfnMa55182SeVNMl+raRpgV9Uuty&#xA;pkYVoadaV4qvjU9s6bQeHo8AzzF5J/SPx9/udfmMss/DjtEc0j8seW9Y1jzH/hf8vNNS6v4dr7Vp&#xA;qFIwDRneVhRVHy3OyqTm7xYJZgJZSfVyiGvJnjhuOIcuci+rNB8l/nrbWsB1b8wbGBYEAe1t9Ihl&#xA;jCqtKes7wNQePDNsBQp1ZNm3jy3N/wDnN59mTXtd9X8rPJcnrX+pTCKyt7mT7IPw0UCUqQpZiVjq&#xA;ahnphQ9V1T83f+caNYNn5f1TUtLvbexdPqMFxaSvZwtGvBOErQ/V0AXb7VKYqp/85Jal+aH+DNOb&#xA;8uFu50vJidQutIDS3XoFKxekYeUgRyal499hvQ4qivKX5f8AmTzT+Vmijz1cXWnee7aOVrXXIH9L&#xA;UbXlKxh5vGV5fu+HqRt1/a+LfFXxp+Zv5feaPIHm2bS9b3nYm5tL+KojuI2Y0ljO3E8huvVT9GKv&#xA;qv8A5xZ/Om885aRP5Y1+cz+YdIjEkN1ISZLq0qF5OTu0kTEKx7gqetTirIP+cqG0kfkprX1/j6hk&#xA;tRp9ftfWfrCU4e/p86/5NcVSz/nEbyhJof5WJqdxtceYbh70Kf2YE/cxD/ZcGf5MMVet+ZfMOm+X&#xA;PL+oa7qb+nY6bA9xO3chBXivizH4VHc4q/P7RLjUvzG/NiXWdVHqPd3L6her9pUijI9OIV/YWiRD&#xA;2zW9rarwdPIjmdh8XI0uPjyAPtb8p9HEOnXGqyL+8um9KEn/AH3GfiI/1n/Vms9m9Lw4zlPOWw9w&#xA;/b9zk9o5bkI9zPc6V1zsVdirsVdirsVdirsVdirsVdiqUebNI/S/l+8slFZXTlCP8tDyUfTSmYPa&#xA;Om8bBKA59PeG7T5OCYL5JfzTd+StUGk+YVeTQpmI0rVgCxiWv9xcDqTGNg3WnjvTkfyQ1cOPFtlH&#xA;1R7/ADHv7nbeMcR4ZfT0LFPzV0iCF4fPPlu+RVnYQ3UltIBV3UgOpU7ll+Fx9Pjmz7Gzk3ps0eW4&#xA;sfZ+pxtZAD95Atfk5og9KO7ZfjupeVf+KoSdvpYHHt3UbmP80faXM7Nx8OIy6ye05yDlOxV2KsSl&#xA;0650Dy1q8trGZNY1Se5nMiVoJrhm9Ms37KRJT7ttyM2scoz5oCX93ARHwHP4kuPHGYxNfVI/j5Pe&#xA;/wAj/wAsbLyB5ItrIRg6veqtzq1wRR2lYVCH2jB40+ed9iBriPM/inR5SL4RyH4thn/OVH5k3Wi+&#xA;XLbyVobM/mPzV+4McX94lo7em3ED9qd/3S+I5dxlrU+XtXkvNQjh8j6LcBPL2hsWu5UY+ld37fDP&#xA;dvT7dWXhDXpGo7lq34MByGg0ajURxCymf5beYLryN5xOkxeXrLzcuvJFZy2VzDWd0lYr6Vu5LiMv&#xA;WjVUg98dRh8OVXa6bP4seKqfTfkWe4/LT8wY/wAvb13Xyp5jie/8oeuwc2lyDyutN9TowBPJN/Dq&#xA;WyhvexT31lA4Se4jicioV3VTTpWhOKvnr/nMPzV5IPkm00S4SO/8xXUwn0p4nUtaIjASzOVr8Mi/&#xA;uwp+0d/2cVeX/wDOG+hm9/NCfUhepB+ibGWRrOp9SdZ6Q7AbcIywZie/HbeoVfT35ufl5oH5k6LB&#xA;5Uv9U+o3EF1FqMawlGnpGrxn92xB4skrDlTY4qy3QtP0rSdLtdE0vitppUEVrDAGDMkcSBEDd60X&#xA;v1xV8z/85l/maAtp+XunSip4X2uFT0A+K3gb/k6wP+QcVYn+Qfk24j0wX/pVvtakWO1U9RCpop9u&#xA;TVPyAOcZ25nOfPHDDev90f1frdvooCEDM9fufZel6fDp+nW9jD/d28axg+NBuT8zvnW6fCMWMQHK&#xA;IdXkmZSJPVE5cwdirsVdirsVdirsVdirsVdirsVdir53892mjavqV7pupWsXOZpFurNiOLSRtxaW&#xA;IV5LU/Ft0PQ551qc04ZzOAMJA71yv9vc9BjgJQETuHy9+Y/la08r6+dNsrp57aWNbkRv1j5MyqrE&#xA;bMQB1p0Odl2VrJanFxyFEGve6jVYRjlQL2D8tLFbayto6UMNogP+s1Cx++ucp2tk4pE98noYR4cU&#xA;R5M5zSodirsVRUOkyzah5fjkTnbalfwIQO6Rzj1R9CrXNr2bpyc2MnlL9BotU8gEZd8R+h6b5/vf&#xA;LGn6hZ+aNW8yS6dH5OjmvbzSreeMCdLqMxRi4g+2/IgiId26Z6G82+ZNGk1zzbL54/PPXojFb6ba&#xA;zxeWom+yt26/VrYx+K2gkU8gN5CD1BxV5j5Z1LTdH0M3F0/765kZljXd2VfhG3hUHc5tNLlhix2e&#xA;ZdTq8U8uSo8gifKWq+dtU/MjSLnySj2vmOVvR0xwEelVZZHb1FZOIjZudQQBXMLUZfElxVTm6XD4&#xA;ceG7es/nT+S/5h6X+X0/nLzf50uNf1TTJoGFipkNrAJ5VhZoWdloeTr9mNMocl6r+Xf5AfkbqPlX&#xA;SNfh0D64dTtIbvneXM8xBljDlGUOsdVJIPwYq+XvN8vla1/Pq6hfS4LbyxpeupZz6ZEgSI2tlcLB&#xA;MCB19QRsxr1rir2y50K18i/85e6GNLiW00rzDaVNunwxj1LeWAoOv+7rdXp74q8S/OLzdfN+eOv+&#xA;YNLu3ju7DU+NjdD7SPY8YUK8qiimLbscVV/yO823HlrztfeeL+5le10qzup79TIQ17PcqYoLdial&#xA;2kuJFfvTiX/ZOKpPoWna3+ZHnu61DU5Gla6na81e5FQFVmrwSteNfsIvYewzX9p64abEZfxH6ff+&#xA;xyNNgOSVdOr7Q/KXyrHEo1Z4hHbwL6GnRgUAAHFmHso+EfTmj9n9EZSOefw/Sf0fNzdfmAHAHp2d&#xA;Y6p2KuxV2KuxV2KuxV2KuxV2KuxV2KuxV5J+cv5bWGsI+pT2a3dm1Gu03DxSLRRMjLRlqOpU5y/b&#xA;Gly4cn5jCa/nf2dR3uz0mSM4+HP4Pjf8z/JzeW9fCQ+q+m3SB7OWVubVAAkQtt9lvwIzZdj678xi&#xA;3rjHOvsLjavB4cvIvR/KvnrQUJkt7iNg6BTA7iKRaezeHtmg1nZ2U7EH383fx1GLINpBO7v8ztCt&#xA;E5zvEid/3ys30KoJOYUOyMsthfyROeOIsyCUr+e3lA3qwmC7W3Jo10UXiPfiGLkfRX2zKPs5qOG7&#xA;jfc4X8oY7reu9GeY/wA4vKel2nKwnGqXjrWKGGoQVGxkcii/Lc+2V6PsLNkl6xwR+34fik5tdCI2&#xA;3L6JnlttH8j6D5qu9LlmudE01r1tPt+MYjlmtg9w8jzMqosY5k8iT4VbY9hj0OOHBw/5MED4uqOo&#xA;kRL+lzeL3v5ZX/5o3MH5r68i6zpmovbwWflzy6zK5to5zC5nuboQN+5o3qcEq3YqNxmNCF/5yL/M&#xA;L8uINBn/AC18oaLb3V1YwrENQsgnoWEazpc3USFASzn6qnqmtNzyPIEYq8R8reVbOe2i1C8ImElT&#xA;HB+yKEj4vHp06ZtNJpIkCUt3U6zWyBMI7eat5ymvdNudP1HTZ5LKeIPGk1u7ROtKFeLIQR3wdow+&#xA;kr2ZO+IPoe9tvOo/5xF1i984ancalqGpQQ3dst3RpIbZ7mEwq0hHqOzL+8JdiRyp2zWO2Zv/AM4u&#xA;63HP+SOi/WpVT6lLdWhkkIUHjcO6CpoNkcD6MVeKfnR+R13qH5s3er2eqaZb+WdYmS7vr+4vrWE2&#xA;nOguC8ckiyPVgzJwU9aYqmlj+ZkH5qf85H+T7rT9Pa20rSJ7uOyuyWMk8UMLTc5FpRPiFaeDUJri&#xA;qj5y/wCcWPMl9+aur6pNcW1j5FurqTVLvV5ZkQwwSsZriMRk8g0dWAZvhpQk9Riry3zRb6F5q83N&#xA;5a/LTTWsfLEEnJHkkmczug4Ne3DSs7KoBIjXsDsAztXG1erhggZzO33tmLFKcqD6A/KL8qre3gj0&#xA;uzB+qRESanfkUaRz4e56KOw/Hj8WPL2ln4pbQH2DuHmXbylHTwoc30TbW0Frbx28CCOGJQkaDoFA&#xA;oBnbY8YhERiKAdLKRJsqmTQ7FXYq7FXYq7FXYq7FXYq7FXYq7FXYqtkjjkjaORQ8bgq6EVBBFCCM&#xA;EogijySDT5D/AD88o3Uuh31vHGWudGuTOqjctEtVantwbn9GcT2XP8rrDjlsDcf1fP8AS7jUjxMI&#xA;kPe+bPRl9ETcG9EsUElDx5AAla+NDnbumaRHd1RFLOxAVQKkk9ABir1nyF/zjN+Zfmh47m+s/wDD&#xA;uimjS6hqQ9JvT6kx25pKxpuOQVT/ADYq9+sPyb/5x18iecfL+l6hzuvM2olTpNvfSSzq8sfSV441&#xA;EK8nFF9QcS3QbYqgvNPnH82PK35u3+reZmCfluWe0sdNe4sYre8WS3IhRGu5IFD+p8cpZthyG42x&#xA;VKfzPX8xPqc/mTzbrs3lPyXqfoWVp5U8vzLf3lwHBIjjdRBApmFSzhiKbUI2Kryrz3dRaJ5eHlC1&#xA;0K38nW16kF3f2Rd9R8wXUSj1I/rkgEUUMdQJfQYxstAePiQLQSBzYd5a0ttR09uGo3UMEMjRrDG3&#xA;AEbOGoCQK8um++bHSYjOH1EAdHWazMMc/piSepVfMPla3t9JmuY57iaWGj0mcMKEgN2HbJ6nSCMC&#xA;QSSO9r0usMpgEAA9zCySTUmp981TuH1f/wA4z/kn+W3mj8u01/zHo66lqb3txGkrzXCKsUYVVQxx&#xA;yLGd6mpXvir3e1/KT8s7Oxns7Pyzp1rHcxPBLLFbRrMUkUo376nqVoevLFWDeWfyl8g/k/d/4lm1&#xA;B4dG0u1uy19qEiNIZ754VoojRN0itQiqFqxc09lXkn5h/mb5v/Oi7k0Py2kmj+QoJALm7l2kumQ1&#xA;BkAO4HVYgadCx6U1vaHaePTDfeXQfjk5GDTSyHbl3s5/Kz8oraG2W10yE29gpBvdRkFZJWHv+03s&#xA;PhX9fMYsGftHJxTNQHyHkPP8F2U5w08aH1fjm990vS7LS7KOysoxHBGPpY92Y9yc7LT6eGGAhAUA&#xA;6jJkMzZReXsHYq7FXYq7FXYq7FXYq7FXYq7FXYq7FXYq7FWCfmV5PfUIf0tZR87mJeN1CBUyRjow&#xA;Hdl/EfLOb7d7MOQeLAeoc/MfrDsdDqeH0y5PmWHTrb8u/MF5qNxoya/+XWsBV1/RWRZDBxJKTRq2&#xA;3KIsxjbagJWq7NlnY/bAygY8h/ef7r9rHV6QwPFH6fuSry9e/lt5M/P7Qtd0a+t9T8k3c3r2zvXn&#xA;Y/WleILOklGRraRgwLD7FCPi6dA4D6Xt47/X9W8wflrr1nqGreXb21l1CTzY7CGFlvZxJFZWwVOJ&#xA;SKNqK6yNup+EDoqluveWbWH/AA/5puPL+l6L5l0S/h0TRbjXdSmkjXTY3kWB1aKTg9xIHJjVw5DG&#xA;pO2yrKfzf/Kvyt+YWh2tt5hvZ9OttMmN0t5BJHHxBQo4cyq6cSDWtNqfPFXi2p/85UL5Y8kpoun6&#xA;daTeabLnZWotJ/rlhaWcR9O3eS5Uss8pjVdo24nqSp+DFXkVjaSXU1xrWp3D6hq2rVnvbyb7TmX4&#xA;mFOw3zeaXTRjG+ZIef1eqlOVcgClPkuE21zq1mdxbyqAfHdx/wAa5VoRwmce4tvaEuIQl3j9TIdQ&#xA;hE1jcQnpJE6n6VIzNyRuJHk4OKVSB83kWc29S+/P+cWtONl+SWgsy8ZLtrq5YU/nupFU+9UVcVZ9&#xA;5y83aJ5Q8t3vmHWpfSsLFOT8aF3YmiRxqSKu7EADFXxdqHmLzb+eXnB73WpWs/LGnNWHT4WPpRKf&#xA;solftTOB8ch/AcVzVdq9pDTQ23nLl+tytLp/EP8ARD6N/Ln8srSSxtpriEW2jwqFs7JPh9RV7nuF&#xA;/Fuvz0XZnZMtSfGzfSfnL9jm6nVDGOCHP7nrcEEMEKQwIscUY4pGgAUAdgBnYQgIigKAdSSSbK/J&#xA;IdirsVdirsVdirsVdirsVdirsVdirsVdirsVdirsVeZ/mV5It1hk1axgBieo1C3AqtG2MgXw/m+/&#xA;xzku3OyxD99jFfzv1/rdrotTfol8HyF5n/LGDQ9ZuZ5rK/vfL1xHIbSbTijS20p3QTI6vzjU7faW&#xA;o35VFDsuzO2MeaAEyI5B39fMONqdJKBsC4pl+XuifmYdAWfy75tv9E4SNHNphlubeJWBqCFVuLAq&#xA;1a8OuDV9twwZOEx4h3ghOLRGcbBpPdT8q/nXqsCQal51ku4Y5FmjSa4uHCSp9iRKr8LrX4WG4zH/&#xA;ANE2H+bL7P1tn8nT7whtW/KXzHqun3M2ueaLzWNTVGe0SeSSRPV60ZpnkY8um1PHfKP9E1zAEKhe&#xA;++9M/wCTtjvulHmDz35U1H8lvL3kvQtIhsfMkl+H10wxkGQ2iNHFK8jfEzTetyO5C0boKZ1kYmRo&#xA;dXUykIiz0WSXNvptnHG7F3jjVI4kHKRyooAqjfemdCZCEaeaEDkkShvL2n3FvHcXV0vC6vpTNJGP&#xA;2ASeK/RXIabGYgk85G2zVZRIiMfpiKTG7cR2kznokbMfoBOXTNAtEBcgHlekaXfatqtnpdhGZr2/&#xA;mjtraIftSSsEQfec5p6p+mnlPy9a+XPLGlaBanlBpdrDao9KFvSQKXPuxHI4q+Uv+czfPc9/5o0/&#xA;yTaufqmlRrd3sa/t3dwv7sEf5EJBH+ucVZn+Sn5eQwW+naK6USBPrWqsP25DQuKjxaiD/JzhsUTr&#xA;9YSfoH+5HIfH9bupHwMO3P8AS+jkRUUIgCooAVQKAAdABncAACg6VvCrsVdirsVdirsVdirsVdir&#xA;sVdirsVdirsVdirsVdirsVaZVZSrAFSKEHcEHARasH1n8qtMupmm0+4axLGphK+pHX/J3Ur95znd&#xA;V7OY5m8Z4PLmHYYu0JAVIWg7T8oIg9bvUmdP5Iowp/4Jmb9WUY/ZgX657eQbJdpHoEu/MDQdD0HT&#xA;rKzsYP8ASJ5Hke4c8pOCACldhQlvDtmJ21o8OmxxhAeok79dm3R5p5JEk7B81a9+aGpRWXmWEq1u&#xA;JmePy7dFSqyJFIttccH/AJl3kHv9AzJwdhi8MiLH8f3j9Rap60+sfL7v2sc8p6LY2thBeIBLc3CB&#xA;2lO/HkPsr4U6HPR9HgjGIl1Lxmt1EpSMeQCM1fXLfS5rVZ1Pp3DMGcb8QoHxU+nLc2oGMi+rVg0x&#xA;yA10TCOSORFkjYOjCqspqCD3BGXgg7hxyCDRSzzRdra6HdMTRpV9FB4mT4f1VOY+rnw4y5OjhxZR&#xA;5bvRv+cOvyvbUNan8+6lF/oWmFrbRww2kunWksor1ESNxH+U3iuaB6N9f4q/PrU7s+cv+cgL+8Y+&#xA;rBPq88qN1BtrRm9IH/nlCozX9qZvD005eVfPZv00OLIA+yPyj08R6ZeX5HxTyiJT/kxrXb5l/wAM&#xA;1Xs1hrHKfea+X9rldozuQj3M9zpXXOxV2KuxV2KuxV2KuxV2KuxV2KuxV2KuxV2KuxV2KuxV2Kux&#xA;V2KuxV5f+bwP6R0802MLgH5NnHe0395D3F2/Zv0l41+Xf5e6P+av5ES+Wo5YrXzj5W1G7a3mf9mS&#xA;4f1aSADkIZx8FabMld+ND18CDEEcnUnmw3SP+cdfz3sbNrizsI1VWdZ7GWZOQdJfT2Vtmqv7wNGa&#xA;Fe/L4cyMWonDkXHzaaGT6gustA85eUfzA8oXf5g+XVs9Gubw2lxNIFltWivAbWZJSGkQURi3Endd&#xA;xUZPPqTkAscmGn0oxE0eb1fzV/zibc29zNc+QdbFjaycnGjakrTQox3AinHKRV7UZSfFjkcWonDk&#xA;dmWbSwybkbvmrRvLnmrzr59svKDtTUZbtrSRRRo4BGT68h4bMI1RmJB3ptkcuaU/qLLDghj+kP0O&#xA;8q+WdK8r+XbDQNJi9Kw06FYYRtVqfadqdWdqsx7k5U3Mb/Oj8wrbyH+X2payZQmoyRta6RGacnu5&#xA;VIjoO4Td29lOKvj78hNCkl1C/wBdlX93An1WBj3kkIZyP9VQP+Czl/aXU1GOIczufx+OTsuzse5k&#xA;+4vKGmNpvlyxtXHGUR+pKD1DyEuQflypm57M0/haeMTzqz8d3E1OTjyEpxme0OxV2KuxV2KuxV2K&#xA;uxV2KuxV2KuxV2KuxV2KuxV2KuxV2KuxV2KuxVi35heXH1jRhJbit5ZFpYl/mUj40HuaAj5Zpu29&#xA;Cc+K4/VDcfpDmaPPwT35F8gefLLzV5J8wHzn5KubjTmulZdTktjUK7HkS6EEGN+p5AgMPlmH2D2k&#xA;JR8KZ9Q+nzHd8G3XaejxDl1Z5+U1p/zkDrmlXGueXvzG0e8m1YJPPZXkz3c8Mirx4SRPbv8AV2Ao&#xA;CEFDt7Z0rrkZ+YvlT/nK/wAweW7ry9q1ppGu6bOF9VrMwRyFomV1kQzG3Iao7DxFO2KsE1D/AJyA&#xA;/P8A0TR/8CahZG11lE+qJfS2sv6TKABRwPL03bjSkgQk9a1+LFXqv/OKn5Lat5Wt7vzf5mtWtta1&#xA;KMQafZzCk0FsTykeVTuskrBfh6qBv9ogKvZPPH5geU/JGjtqvmO+S0g3EEP2ppnH7EMY+J2/AdyB&#xA;ir4e/Mn8xPNX5z+d7eK3gaDT4SY9K07kWSCIkepPMw25tQF2+Sj3o1OphhgZzOwZ48ZnKg+h/wAm&#xA;/wAu7W3WzsIU5abpgEl1KRT1pSa7+7tuR2G3hnH6HFLXao5Z/SN/1RdvnkMOPhHP8bvfM7d0rsVd&#xA;irsVdirsVdirsVdirsVdirsVdirsVdirsVdirsVdirsVdirsVdirsVef+cvy1jvDLfaQoWd6tNZG&#xA;gR69SldgT4Hb5ZzPafYXGTkw7S/m/q7nZabW16Z8u980edPyGsJ7uV9OLaNfVrJZyoTCSfBdmjr7&#xA;VHgMwtN27mwHgzRJr4S/b+N23JooT3ga+5gT/lx+YOianDqDaZHrH1VgyfH68bcOgMfKOUjw2ze4&#xA;e3NNP+Lh9/4pwp6LJHpb1ix/5yv/ADU0eyjtNR8m24FuixofTvYaKgpv6rzE/DTflmfDVYpfTKJ+&#xA;IaDikOYKSa1/zlf+deso1tpFjbaWWFPUsrSSabf3nMy/cmTlmhHnID4oECejCIvIP5medNUOpeYp&#xA;rhZJaerfao7tNx/lWNiZNuy0AzV6rtzT4hseOXl+vk5OLRZJcxQe8flX+T0NpH9V0iI0cj6/q0w3&#xA;anb6P2UX6fHOdrUdpZO6A+Q/WfxsHYXj08fN9EaLo1lo+nx2NmnGNN2Y/adj1Zj3JzstLpYYICEO&#xA;Q+11GXKZyso7MhrdirsVdirsVdirsVdirsVdirsVdirsVdirsVdirsVdirsVdirsVdirsVdirsVQ&#xA;moaTpmox+nfW0dwo6c1BI+TdR9GUZ9NjyipxEmcMko8jTGL38q/Lc5LW7T2hPRUcOg+hwzf8Nmny&#xA;+zunl9PFH8ef63Lh2hkHOilM35PmtYdUFPB4f4h/4ZhS9mO7J/sf2t47S74/aoxflBeE/vdSjUeK&#xA;xMx/FlyEfZifWY+X7UntIdIp5pf5W+X7Rlku2kvnH7LnhHX/AFV3+9s2Gn9nsEN5XM/Ifj4uPk18&#xA;zy2ZfBBBbxLDBGsUSCiRoAqgewGb2EBEVEUHCJJNlfkkOxV2KuxV2KuxV2KuxV2KuxV2KuxV2Kux&#xA;V2KuxV2KuxV2KuxV2KuxV2KuxV2KuxV2KuxV2KuxV2KuxV2KuxV2KuxV2KuxV2KuxV2KuxV2KuxV&#xA;2KuxV2KrTNEKVdRVuA3G7fy/PFVNb6ybhxuI29TkUo6nkF+1TfenfFXLfWTRGZbiMwrs0gdeI+Zr&#xA;TFVT1oiFIdaOKpuNxsKjx+0MVaWeFjRZFJILAAg/CDQn5Yq2ZIxWrDYcjuPs+PyxVvmlK8hSoFa9&#xA;zSg/HFW8VdirsVdirsVdirsVdirsVdirsVdirsVdirsVdirsVdirsVdirsVQ2qahFp2mXeoSqzxW&#xA;cMlxIiU5FYkLkLUgVIG1TirBU/NLVmghuz5fKabcOsVvqTXEotnd24IA/wBWrxdtkcjgxI4saiqq&#xA;SH/nIfSkgnuJrKG3hglWH1ZrmVEZmAYcWNrxFFZWbkQVUhmoCCVUT/yvmyWR0bTkLRIZJ41nmEqc&#xA;QSyFJLaOjjjxoxFGKhiCwqqmcX5WTRG3kiubOO5tFt4reVLPYfVix+sNG0jRtPIG+Niv7K0IpiqE&#xA;P5LImhW2nxaofXit7aG4leCHhK9usSBqIiMgCwjjxYMf22ddsVTi5/LwXKRSyyRi6ihkTh8TQySc&#xA;wYJJF+GpiR5kG3ST2GKoST8rrqSb62NTW2uEL/Vre3gVLSASO1xWOMlm5LdelLswDNEtR4KofTvy&#xA;hksrRQNUH6RtoZ4dOvI4fTWH1GEiL6StxaPm84Ze6yUqKA4qmFx+XlxNJMzy2MvqzQXBlntDJMRb&#xA;CFVty/qD9y4txyFO52xVR078q0tZ1uDqLj/T4tQe0hX07VjBMk0MfpEtRIP3qxKDTdeVeC0VZ9ir&#xA;sVdirsVdirsVdirsVdirsVdirsVdirsVdirsVdirsVdirsVdiqXeZbC61Hy5qun2bIt3eWdxb27S&#xA;1CCSWJkQvQE8eR3pir51f8vvzYj0G2Fn5CtY/NUASOTV31ON4WSNYk2gM9AzLboGPzoBtRVWs/yw&#xA;/MJbqyhuPKzDTJbVf0zwuLN5frQhC8bVXvAqwF6xtyNWi4qRQccVQ7/lJ+Y50e5S08sx2mspLLb6&#xA;UWltDaLZO0axvclbwuZvTMjSERtV1jP7Oyr/AP/Z</xmpGImg:image>
               </rdf:li>
            </rdf:Alt>
         </xmp:Thumbnails>
      </rdf:Description>
      <rdf:Description rdf:about=""
            xmlns:xmpMM="http://ns.adobe.com/xap/1.0/mm/"
            xmlns:stRef="http://ns.adobe.com/xap/1.0/sType/ResourceRef#"
            xmlns:stEvt="http://ns.adobe.com/xap/1.0/sType/ResourceEvent#">
         <xmpMM:OriginalDocumentID>uuid:9E3E5C9A8C81DB118734DB58FDDE4BA7</xmpMM:OriginalDocumentID>
         <xmpMM:DocumentID>xmp.did:1812731713206811822A8451A1857300</xmpMM:DocumentID>
         <xmpMM:InstanceID>xmp.iid:1812731713206811822A8451A1857300</xmpMM:InstanceID>
         <xmpMM:RenditionClass>proof:pdf</xmpMM:RenditionClass>
         <xmpMM:DerivedFrom rdf:parseType="Resource">
            <stRef:instanceID>xmp.iid:1712731713206811822A8451A1857300</stRef:instanceID>
            <stRef:documentID>xmp.did:1712731713206811822A8451A1857300</stRef:documentID>
            <stRef:originalDocumentID>uuid:9E3E5C9A8C81DB118734DB58FDDE4BA7</stRef:originalDocumentID>
            <stRef:renditionClass>proof:pdf</stRef:renditionClass>
         </xmpMM:DerivedFrom>
         <xmpMM:History>
            <rdf:Seq>
               <rdf:li rdf:parseType="Resource">
                  <stEvt:action>saved</stEvt:action>
                  <stEvt:instanceID>xmp.iid:F77F117407206811822A8451A1857300</stEvt:instanceID>
                  <stEvt:when>2013-10-06T17:09:14+13:00</stEvt:when>
                  <stEvt:softwareAgent>Adobe Illustrator CS6 (Macintosh)</stEvt:softwareAgent>
                  <stEvt:changed>/</stEvt:changed>
               </rdf:li>
               <rdf:li rdf:parseType="Resource">
                  <stEvt:action>saved</stEvt:action>
                  <stEvt:instanceID>xmp.iid:1812731713206811822A8451A1857300</stEvt:instanceID>
                  <stEvt:when>2013-10-06T23:52:49+13:00</stEvt:when>
                  <stEvt:softwareAgent>Adobe Illustrator CS6 (Macintosh)</stEvt:softwareAgent>
                  <stEvt:changed>/</stEvt:changed>
               </rdf:li>
            </rdf:Seq>
         </xmpMM:History>
      </rdf:Description>
      <rdf:Description rdf:about=""
            xmlns:xmpTPg="http://ns.adobe.com/xap/1.0/t/pg/"
            xmlns:stDim="http://ns.adobe.com/xap/1.0/sType/Dimensions#"
            xmlns:xmpG="http://ns.adobe.com/xap/1.0/g/">
         <xmpTPg:NPages>1</xmpTPg:NPages>
         <xmpTPg:HasVisibleTransparency>False</xmpTPg:HasVisibleTransparency>
         <xmpTPg:HasVisibleOverprint>False</xmpTPg:HasVisibleOverprint>
         <xmpTPg:MaxPageSize rdf:parseType="Resource">
            <stDim:w>209.999929</stDim:w>
            <stDim:h>210.001308</stDim:h>
            <stDim:unit>Millimeters</stDim:unit>
         </xmpTPg:MaxPageSize>
         <xmpTPg:PlateNames>
            <rdf:Seq>
               <rdf:li>Cyan</rdf:li>
               <rdf:li>Magenta</rdf:li>
               <rdf:li>Yellow</rdf:li>
               <rdf:li>Black</rdf:li>
            </rdf:Seq>
         </xmpTPg:PlateNames>
         <xmpTPg:SwatchGroups>
            <rdf:Seq>
               <rdf:li rdf:parseType="Resource">
                  <xmpG:groupName>Default Swatch Group</xmpG:groupName>
                  <xmpG:groupType>0</xmpG:groupType>
               </rdf:li>
            </rdf:Seq>
         </xmpTPg:SwatchGroups>
      </rdf:Description>
      <rdf:Description rdf:about=""
            xmlns:pdf="http://ns.adobe.com/pdf/1.3/">
         <pdf:Producer>Adobe PDF library 10.01</pdf:Producer>
      </rdf:Description>
      <rdf:Description rdf:about=""
            xmlns:xmpRights="http://ns.adobe.com/xap/1.0/rights/">
         <xmpRights:Marked>True</xmpRights:Marked>
         <xmpRights:WebStatement rdf:resource="http://www.ospreydawn.com"/>
         <xmpRights:UsageTerms>
            <rdf:Alt>
               <rdf:li xml:lang="x-default">This work is licensed under a &lt;a rel="license" href="http://creativecommons.org/licenses/by-nc-sa/3.0/"&gt;Creative Commons Attribution-NonCommercial-ShareAlike 3.0 Unported License&lt;/a&gt;.</rdf:li>
               <rdf:li xml:lang="en_us">This work is licensed under a &lt;a rel="license" href="http://creativecommons.org/licenses/by-nc-sa/3.0/"&gt;Creative Commons Attribution-NonCommercial-ShareAlike 3.0 Unported License&lt;/a&gt;.</rdf:li>
               <rdf:li xml:lang="en">This work is licensed under a &lt;a rel="license" href="http://creativecommons.org/licenses/by-nc-sa/3.0/"&gt;Creative Commons Attribution-NonCommercial-ShareAlike 3.0 Unported License&lt;/a&gt;.</rdf:li>
            </rdf:Alt>
         </xmpRights:UsageTerms>
      </rdf:Description>
      <rdf:Description rdf:about=""
            xmlns:cc="http://creativecommons.org/ns#">
         <cc:attributionName>Max O'Brien / Osprey Dawn</cc:attributionName>
         <cc:license rdf:resource="http://creativecommons.org/licenses/by-nc-sa/3.0/"/>
      </rdf:Description>
   </rdf:RDF>
</x:xmpmeta>
                                                                                                    
                                                                                                    
                                                                                                    
                                                                                                    
                                                                                                    
                                                                                                    
                                                                                                    
                                                                                                    
                                                                                                    
                                                                                                    
                                                                                                    
                                                                                                    
                                                                                                    
                                                                                                    
                                                                                                    
                                                                                                    
                                                                                                    
                                                                                                    
                                                                                                    
                                                                                                    
                           
<?xpacket end="w"?>
	</metadata>
<g id="Layer_2">
	<g id="_x37_Wl2mV_1_">
	</g>
</g>
<g id="Layer_1_1_">
	<g>
		<path fill="#C69307" d="M93.32,391.175c0.736,1.552,1.771,3.03,3.174,4.346c0.447,0.604,1.232,1.915,1.992,3.303
			c0.525,4.445,2.472,12.526,9.335,21.997c6.403,8.832,13.216,14.604,16.746,17.284c2.495,4.331,7.93,12.63,15.004,16.874
			c4.322,2.593,9.535,3.966,15.077,3.966c4.174,0,7.292-0.776,7.875-0.934l14.417-3.851l-0.949-1.421
			c0.805,0.016,1.633,0.021,2.486,0.021c1.773,0,3.465-0.043,5.062-0.122c-2.144,5.122-5.007,13.979-4.793,24.394
			c0.214,10.55,3.991,17.791,8.374,22.021c0.856,2.417,2.341,5.2,4.909,7.771c2.777,2.776,6.192,5.063,8.104,6.249
			c4.961,4.716,20.743,16.062,59.646,18.771c2.034,0.144,4.071,0.217,6.056,0.217c19.666-0.002,37.204-7.106,50.715-20.542
			c12.913-12.841,18.719-27.671,21.021-35.366c1.151-3.842,2.044-7.814,2.909-11.661c3.521-15.665,7.164-31.859,29.958-48.192
			c35.641-25.545,49.979-50.74,61.561-83.121c11.308-31.597,31.057-50.539,62.146-59.615c5.321-1.559,10.402-2.346,15.102-2.346
			c16.646,0,24.266,9.943,25.001,10.979c0,0,8.479,9.966,10.354,23.598c0,0,7.031-7.231,9.262-29.271
			c1.191-60.146-34.108-98.952-57.477-124.638c-20.868-22.938-52.569-42.417-64.149-49.146
			c-5.252-22.396-17.795-33.651-39.146-35.293c-0.886-0.068-1.804-0.104-2.724-0.104c-16.59,0-36.025,11.398-43.798,16.435
			c-5.398-0.313-16.076-0.825-28.221-0.825c-8.726,0-16.67,0.271-23.631,0.797c-23.078,1.757-45.688,8.229-69.123,19.778
			c-17.229,8.491-38.322,15.877-54.774,21.355c-0.005,0.003-0.5,0.161-1.725,0.161c-7.868,0-22.724-5.842-32.55-9.708
			c-9.193-3.615-14.187-5.521-18.238-5.917c-0.576-0.056-1.154-0.085-1.722-0.085c-5.046,0-9.6,2.296-12.498,6.298
			c-3.282,4.537-6.714,13.438,1.431,38.229c3.854,11.738,11.229,19.57,17.504,24.421c-9.496,16.242-21.593,41.925-24.258,55.734
			c-1.931,9.98-5.33,34.062,4.271,43.521c0.912,1.596,2.251,7.812,0.964,18.109c-0.693,5.591-0.547,10.353-0.001,14.411
			c-11.941-10.436-15.312-48.634-15.312-48.634c-15.231,29.935-2.312,73.257-2.312,73.257
			c-10.061-4.519-14.259-14.995-14.259-14.995s-2.612,25.937,17,50.383c-3.906-0.143-8.717-5.481-8.717-5.481
			S82.189,383.302,93.32,391.175z"/>
		<g>
			<path fill="#A04F05" d="M132.333,131.979c0,0,1.959,15.144,16.396,21.73c14.432,6.596-7.309,43.649-7.309,43.649l6.948-0.895
				c0,0-4.275,7.66-5.166,18.527c-0.893,10.867,0.354,28.505,0.354,28.505l9.085-6.77c0,0,10.513-6.594,12.828-13.72
				c0,0,1.778,15.679-6.771,33.137c-8.553,17.462-14.432,28.509-18.174,43.204c-3.74,14.698-8.021,46.77-10.422,52.646
				c-2.404,5.882-6.947,31.53-1.604,33.938c5.35,2.403,16.035-0.534,20.312,0.268c4.271,0.808,5.789,3.027,9.62,2.142
				c3.831-0.895,6.681,0.803,6.681,0.803l-9.888,6.947l-33.939-2.404l-11.491-4.271l1.871-14.698l11.758-38.214l12.562-64.678
				l-11.759-6.414l-0.271-27.794l3.742-34.741l13.629-22.441l2.673-13.101l-24.052-27.521l-1.337-14.435l16.569,4.012
				L132.333,131.979z"/>
			<path fill="#A04F05" d="M198.253,387.281c0,0,2.438-7.333,2.822-13.687c0.385-6.354,1.384-16.185,5.017-21.229l0.447-7.577
				c0,0-0.135-3.734,1.604-7.751c1.732-4.007-2.539-5.739-2.539-5.739l-5.349-1.202l-5.346,3.207c0,0,2.405-6.28,7.083-11.357
				c4.677-5.077,2.811-17.638,2.811-17.638s-10.428-37.062,1.47-48.326l-0.802,9.977l1.732,13.769c0,0,1.068,5.076,8.557,8.418
				l0.53-2.007c0,0-3.604-9.616-3.208-20.574c0.4-10.956,9.225-17.504,9.225-17.504l-2.144,14.024c0,0-0.668,7.618,6.548,9.622
				c7.22,2.005,9.487,0.801,11.625-0.936c2.143-1.737,2.143,0.396,2.143,0.396l-10.154,11.089l-9.755,13.362
				c0,0,1.471,3.479,3.607,4.543c2.138,1.069,4.81,5.214,4.81,5.214s2.673,4.145,18.975,2.139
				c16.308-2.003,30.198-10.688,37.552-12.159c7.349-1.474,16.301-0.938,21.108-4.273c4.812-3.342,12.562,3.339,12.562,3.339
				l-51.444,23.117l-46.766,24.854l-13.63,41.42l-4.542,4.279L198.253,387.281z"/>
		</g>
		<path fill="#FFFFFF" d="M189.88,383.54c0,0,5.972-4.858,5.166-14.317c0,0,4.542,12.186,3.207,18.062c0,0,6.414-6.411,6.948-18.972
			c0.533-12.562,10.423-26.993,17.104-32.606c6.68-5.604,3.736-21.104,3.736-21.104s14.698,7.479,31.807,0
			c17.104-7.482,21.107-13.36,35.812-17.37c14.697-4.013,25.388-14.968,28.326-29.129c2.938-14.164,1.336-27.794-11.491-28.863
			c-12.827-1.067-9.889,3.743-21.913-4.812c-12.021-8.554-26.991-4.811-26.991-4.811l8.021-6.684l25.12-2.939l16.034,1.336
			c0,0,21.914,8.553,36.88,7.218c14.964-1.338,25.922-10.688,25.12-24.053c-0.808-13.36-8.557-22.447-8.557-22.447
			s10.153,4.542,12.827,9.891c0,0-3.74-12.293-16.562-21.112c-12.828-8.815-45.698-21.379-49.178-31.801
			c-3.477-10.422,8.021-14.699,8.021-14.699l25.653-23.25l21.38-10.422l19.238-4.543l13.631,3.741l14.693,6.681l4.014,26.457
			l0.53,23.518l-6.146,25.655l-5.609,13.36c0,0-2.138,6.947,3.739,14.432c5.882,7.481,15.771,15.771,27.262,22.184
			c11.49,6.415,27.525,10.423,39.556,11.228c0,0-4.544-2.406-8.021-5.614c0,0,34.742,5.614,50.241,16.572
			c15.501,10.956,16.838,17.104,16.838,17.104l-17.639-6.683l-38.749,5.345l-21.38,10.151l-33.675,40.62l-17.104,35.543
			l-17.639,29.93l-16.84,22.448l-21.915,14.967l-17.637,17.904l-6.146,22.181L312.632,489.9l-14.164,14.967l-25.388,10.689
			l-22.716-1.069l-25.12-6.413l-16.035-5.344l-9.354-8.553l-6.413-11.758l-2.404-12.025l3.479-11.76l6.409,8.283l4.812,2.673v-9.086
			l3.476-7.48l1.87-4.01l-7.749-14.967l-14.967,4.012l-20.576-0.271l-14.967-3.201l1.604,8.017l0.268,2.14h-7.482l-6.944-7.75
			l-5.35-6.683l-9.62-8.021l-6.146-21.105l14.163,4.543l22.979-2.673l21.11-8.819L189.88,383.54z"/>
		<g>
			<polygon fill="#0F5C88" points="248.494,259.362 241.546,272.191 234.776,279.495 239.408,283.948 256.868,285.375 
				272.011,277.713 275.931,267.557 275.931,260.434 263.104,254.554 254.195,254.554 			"/>
			<path fill="#0F5C88" d="M222.482,424.162c0,0-1.246,8.371-1.246,9.617c0,1.249-0.356,11.049-0.356,11.049l-7.126,6.234
				l-8.019,5.882l1.604,11.938l16.396,8.377l10.512,0.888l3.92-1.067l-0.892-8.904l-0.712-6.947l4.271,4.274l9.269,6.232
				l11.046,3.915l11.225-4.81l9.979-16.565l0.179-20.846l0.712-15.857l-4.454-16.21l-5.7-19.955l-3.023-20.134l0.178-10.688
				l-1.604-2.854l-8.905-2.312l-9.441,6.229l-4.633,16.033l-1.96,16.392l0.713,13.727L246,407.77l-5.521-2.494l-5.35,5.524
				l-8.017,9.438L222.482,424.162z"/>
		</g>
		<g>
			<path d="M200.658,355.748c0,0,4.009-3.476,5.076-8.813c1.069-5.344,6.146-13.63,13.631-17.903
				c7.482-4.271,26.724,0.533,33.138-1.065c0,0-6.682,2.399-13.896,2.672c-7.216,0.267-18.708,2.4-24.586,10.688
				C208.141,349.601,204.935,354.411,200.658,355.748z"/>
			<path d="M191.038,353.075c0,0-1.064-16.3,7.75-25.39c8.817-9.083,15.5-8.55,28.326-13.36c12.827-4.81,14.699-7.479,14.699-7.479
				s-4.812,8.812-14.965,13.096C216.693,324.219,200.124,326.616,191.038,353.075z"/>
			<path d="M206.271,255.979c0,0-4.104,5.702-3.029,14.788c1.069,9.087,5.88,12.472,5.88,12.472s-3.386-8.197-2.851-13.005
				C206.805,265.42,206.271,255.979,206.271,255.979z"/>
			<path d="M272.011,251.257c-7.749,0-15.771,0.536-15.771,0.536c0.534-1.339,3.207-3.743,3.207-3.743
				c-10.688,0.271-18.707,21.384-21.914,24.32c-3.206,2.938-8.019,7.747-14.164,0.8c-6.146-6.941-1.063-25.12-1.063-25.12
				c-5.885,7.75-4.812,19.243-4.276,29.663c0.534,10.422-6.681,14.435-14.431,22.186c-7.75,7.749-8.285,18.975-8.285,18.975
				c6.683-16.303,14.966-17.103,14.966-17.103c-0.801,1.603-0.267,6.413-0.267,6.413s4.271-9.086,16.029-16.842
				c11.763-7.746,21.913,1.604,36.612-4.271c14.697-5.879,18.706-18.977,20.042-22.982s3.206-7.479,3.741-9.086
				C286.977,253.394,279.761,251.257,272.011,251.257z M274.327,266.135c-0.354,1.777-2.312,10.688-15.321,14.78
				c-13.007,4.102-21.196-1.777-21.196-1.777c5.345-3.649,8.418-8.372,11.224-13.985c2.808-5.61,5.7-7.75,5.7-7.75
				s6.231,0.891,11.046,2.673C270.586,261.859,274.683,264.351,274.327,266.135z"/>
			<path d="M364.285,153.858c0,0,15.287,14.97,22.34,31.746c0,0-3.468-18.896-10.926-31.438c0,0,15.571-3.057,21.494-2.749
				c0,0-8.896-4.342-21.479-4.83c0,0,8.186-8.603,15.123-13.395c0,0-12.934,2.979-17.463,5.271c0,0,7.21-24.149,11.834-31.387
				c0,0-17.02,19.97-20.176,26.95c0,0-4.482-7.371-10.12-11.516c0,0,4.291,10.625,4.578,13.415c0,0-8.961-6.979-16.825-8.657
				c0,0,10.566,8.599,11.626,11.444c0,0-8.915-2.016-25.715-2.763c0,0,19.033,4.666,25.219,7.579c0,0-5.007-0.465-8.718-0.018
				c0,0,10.136,1.667,11.764,2.333l-4.37,2.075l6.033-1.229l-1.265,4.763l3.735-1.396c0,0,1.59,4.842,1.418,7.143
				C362.226,159.514,364.285,153.858,364.285,153.858z"/>
			<path d="M488.476,159.06c-24.462-26.896-65.739-49.439-65.739-49.439c-3.742-21.379-13.097-30.198-30.468-31.534
				s-42.758,16.568-42.758,16.568s-29.396-2.138-53.982-0.268c-24.586,1.867-46.231,9.354-65.207,18.707
				c-18.975,9.354-42.491,17.366-56.12,21.91c-13.63,4.549-48.639-14.159-56.924-14.965c-8.283-0.802-7.481,12.562-1.604,30.465
				c5.884,17.905,22.187,24.319,22.187,24.319c-8.819,12.292-25.655,45.966-28.595,61.196c-2.94,15.229-2.677,30.2,1.336,33.938
				c4.009,3.74,5.607,14.161,4.009,26.99c-1.604,12.826,2.138,19.773,3.741,25.652c1.604,5.881,0.529,13.63-0.807,15.234
				c-1.336,1.603-3.207,7.216-3.207,7.216s-7.215-5.613-15.229-20.046c-8.021-14.433-12.293-36.077-12.293-36.077
				s1.336,19.509,7.216,36.077c5.879,16.569,17.37,29.666,17.37,29.666c-1.067,2.138-1.871,5.344-1.871,5.344
				c-18.171-4.54-29.93-19.507-29.93-19.507c2.938,14.431,26.457,28.326,26.457,28.326c-1.336,5.078-2.406,8.814-2.406,8.814
				c-7.75,0.805-15.5-2.404-15.5-2.404c5.346,5.347,14.433,8.021,14.433,8.021s-0.535,2.938,1.335,4.544
				c1.871,1.604,5.079,8.021,5.079,8.021s-0.269,8.018,7.481,18.709c7.75,10.688,16.302,16.302,16.302,16.302
				s5.612,10.955,12.293,14.964c6.682,4.01,14.698,1.872,14.698,1.872c-2.143-3.209-3.478-8.554-3.478-8.554
				s4.275,2.938,22.186,2.938c17.899,0,23.784-4.812,23.784-4.812c3.737,4.008,5.879,11.225,5.879,11.225
				c-0.807,2.938-3.206,5.613-4.812,9.354c-1.604,3.738,0.801,8.818,0.801,8.818c-6.146-3.477-9.086-13.364-9.086-13.364
				s-5.88,10.426-5.607,23.521c0.268,13.094,7.216,16.035,7.216,16.035s0,3.475,2.938,6.411c2.939,2.938,7.22,5.346,7.22,5.346
				s11.486,13.63,53.715,16.569c42.226,2.938,61.195-29.396,66.812-48.104c5.609-18.707,4.812-42.49,36.88-65.472
				c32.066-22.982,45.969-45.162,57.728-78.033c11.759-32.87,32.604-55.588,69.217-66.277
				c36.612-10.688,52.023,13.006,52.023,13.006C544.24,222.305,513.596,186.673,488.476,159.06z M132.512,424.43
				c-6.686-5.347-9.622-15.5-9.622-15.5s8.28,8.284,12.021,7.215c0,0,7.482,9.619,7.482,12.025
				C142.4,430.573,136.655,427.741,132.512,424.43z M143.736,436.99c3.475,1.336,7.216,1.336,7.216,1.336
				c0,2.144,1.068,4.812,1.068,4.812C148.011,442.867,143.736,436.99,143.736,436.99z M207.874,435.653
				c5.611-1.604,11.49-6.413,11.49-6.413c1.871,12.023-5.611,17.643-5.611,17.643C212.951,441.802,207.874,435.653,207.874,435.653z
				 M226.046,423.094c8.819-4.812,14.698-14.163,14.698-14.163s1.932,4.479,3.741,10.688c1.871,6.416,4.543,14.437-0.802,21.916
				c-5.35,7.481-10.957,7.481-10.957,7.481c11.758,0.269,16.564-7.481,18.707-13.897c3.139-9.419-2.94-33.938-4.275-42.484
				c-1.337-8.559,2.138-35.016,8.817-40.354c6.684-5.344,12.293-2.137,12.293-2.137c-1.871,33.938,10.423,59.594,11.225,76.163
				c0.802,16.562-2.138,30.729-3.74,36.078c-1.604,5.346-6.682,12.29-16.565,11.486c-9.892-0.806-22.448-16.033-22.448-16.033
				c-3.739,7.746-0.533,17.9-0.533,17.9c-11.76,0.804-25.923-6.146-26.991-11.224c-1.064-5.077-0.178-6.062,9.893-13.896
				C230.328,441.87,226.046,423.094,226.046,423.094z M273.97,377.844c0,0,3.386-8.198,8.192-10.336c0,0-5.88-4.986-8.019-6.589
				c0,0,3.562-5.703,7.126-9.093c0,0-6.062-4.448-11.402-5.879c0,0,1.068-4.456,6.234-5.704c0,0,11.225,5.889,16.035,25.479
				c4.81,19.598,1.247,34.209,1.247,34.209s-7.482,0.354-12.647-5.169c0,0,4.273-9.618,6.947-12.47
				C287.69,382.3,281.454,378.555,273.97,377.844z M263.459,484.558c-0.801,3.476-7.215,12.026-15.5,7.479
				c-8.284-4.541-9.354-26.449-9.354-26.449c2.671,4.812,14.164,12.021,18.172,12.021
				C260.787,477.61,264.262,481.081,263.459,484.558z M194.245,477.874c-1.604-5.604,1.067-15.765,1.067-15.765
				c7.479,18.972,19.509,21.913,19.509,21.913s0.535,4.274-6.947,5.877C200.391,491.51,195.848,483.488,194.245,477.874z
				 M487.944,250.811c-32.063,8.375-53.449,26.369-76.966,74.472c-23.521,48.104-35.812,65.919-55.229,80.891
				c-19.42,14.965-31.713,21.73-37.771,57.543c-6.061,35.812-46.321,57.547-81.24,44.896c0,0,6.059-2.139,9.264-1.424
				c0,0-0.89-2.138-5.878-2.673c-4.985-0.534-27.259,2.673-32.064-6.416c0,0,7.127-2.854,19.062-0.895
				c11.938,1.96,17.104,1.96,20.131,4.274c3.028,2.317,9.801,3.565,16.748-0.89s8.021-12.649,15.146-24.231
				c7.127-11.58,20.484-32.062,22.805-48.991c2.315-16.925,4.634-44.896-6.946-68.416c-11.582-23.517-20.487-25.476-33.14-21.021
				s-22.981,23.517-22.627,48.637c0.354,25.123-20.844,39.731-34.206,44.188c-13.361,4.448-49.172,6.591-54.161-2.496
				c-4.988-9.084-4.631-13.006,0-15.855c4.633-2.852,17.459-5.165,22.271-12.293c0,0,7.84,1.425,12.824-2.672
				c4.989-4.099,5.349-9.801,3.921-13.896c0,0-11.938,10.688-17.278,8.371c-5.349-2.312-5.879-4.271-10.333-4.447
				c-4.454-0.186-15.146,7.304-27.262,6.77c-12.112-0.534-19.422-5.88-19.422-5.88s0.717-27.438,10.334-47.391
				c9.62-19.953,12.475-44.188,13.188-50.959c0.712-6.77,2.673-21.021,6.592-25.115c3.921-4.103-0.711-9.444-0.711-9.444
				s0.179,1.604-1.604,4.279c-1.781,2.671-3.741,7.302-3.741,7.302s-0.713-6.062-0.183-8.55c0.535-2.495-0.892-6.597-0.892-6.597
				s-0.178,5.167-1.425,7.312c-1.247,2.134-0.355,7.302-1.426,8.369c-1.069,1.066-6.061,2.14-8.373-3.206
				c-2.315-5.349-1.959-11.938,0.53-17.281c2.495-5.345,1.604-9.086,1.604-12.469c0-3.39,1.427-20.669,11.937-37.237
				c10.516-16.568,9.092-33.14,7.482-37.415c0,0-6.236-2.138-13.006-8.551c-6.771-6.415-12.648-20.667-12.648-20.667
				s8.909,0.535,16.396,4.099c7.479,3.562,22.092,5.167,27.971,4.633c0,0-0.89,2.494-3.207,3.027
				c-2.315,0.535-4.452,1.069-6.413,1.961c0,0,4.987-0.535,8.729-0.354c3.736,0.178,16.748-1.781,42.938-11.763
				c26.188-9.979,63.246-27.611,123.107-26.546c0,0-7.839,9.086-17.46,13.361c-9.62,4.275-10.154,5.879-14.074,4.988
				c0,0,1.604,4.455,9.799,4.098c8.194-0.356,52.562-33.138,66.274-35.275c13.72-2.138,30.645-2.673,35.985,21.201
				c5.35,23.873-2.14,65.028-13.357,80.706c0,0,14.076-15.854,19.955-35.098s5.7-34.028,5.7-34.028s19.771,8.907,43.293,29.396
				c23.517,20.483,44.355,45.432,53.27,63.247c8.908,17.812,11.045,29.041,13.188,40.8
				C535.332,259.186,520.01,242.44,487.944,250.811z"/>
			<path d="M199.856,391.024c0,0,18.173-9.888,24.854-20.044c9.699-14.743,16.567-31.534,31.534-49.173
				c16.261-19.163,46.771-39.556,74.562-43.827c0,0-45.646,15.771-71.894,50.24C232.459,362.969,240.744,382.473,199.856,391.024z"
				/>
			<path fill="#FFFFFF" d="M230.188,396.235l11.894-7.082c0,0-2.4,7.354-7.616,11.229
				C229.253,404.257,230.188,396.235,230.188,396.235z"/>
			<path fill="#FFFFFF" d="M231.658,406.26l-2.405,4.142c0,0,9.354-4.676,18.038-6.947c8.688-2.271-1.731-1.471-1.731-1.471
				L231.658,406.26z"/>
			<path d="M195.046,409.197c0,0,19.774-2.938,45.164-25.391c25.393-22.446,67.077-30.73,101.283-22.713
				c0,0-50.241-5.077-87.923,22.441C213.994,412.451,202.796,407.86,195.046,409.197z"/>
			<path d="M217.761,413.205c0,0,6.691-13.049,42.487-16.303c38.215-3.476,55.056,0.271,88.99-5.879c0,0-25.944,7.553-47.302,8.552
				C273.347,400.91,242.615,400.11,217.761,413.205z"/>
			<path d="M146.141,219.188c0,0-1.336-4.009-4.543-1.604c-3.207,2.402-8.021,14.435-6.414,21.377
				c1.604,6.95,8.019,7.482,9.621,14.971c1.604,7.479,1.604,10.421,3.474,10.421c1.872,0,5.078-0.535,5.881-2.938
				c0.802-2.406,2.139-10.688,3.74-13.629c1.604-2.938-1.067-5.077-3.473-6.414c-2.406-1.336,0.529-8.82-5.612-10.152
				C142.667,229.877,144.003,223.732,146.141,219.188z"/>
			<path d="M153.356,213.309c0,0-5.61,6.414-4.812,11.758c0.807,5.347,12.293,1.87,14.436-1.068
				c2.139-2.938,4.543-10.422,3.742-13.896c-0.808-3.479-1.342-10.156,5.344-14.166c6.683-4.008,13.096-7.48,13.096-12.562
				c0-5.076-13.896-1.333-16.034,6.687c-2.138,8.019-2.139,3.736-5.879,9.621c-3.742,5.88-3.208,9.352-5.346,10.423
				C155.762,211.17,153.356,213.309,153.356,213.309z"/>
			<path d="M131.443,218.386c0,0,4.009-11.491,12.561-18.177c8.556-6.68,13.099-9.616,16.306-16.303
				c3.208-6.681,0.802-8.284,2.672-11.758c1.871-3.479-2.672-8.818-8.021-3.207c-5.346,5.612-9.087,8.018-9.087,8.018l-6.146,10.689
				l-10.957,25.923L131.443,218.386z"/>
			<path d="M177.942,158.257c0,0-4.008-1.064-6.681,4.543c-2.677,5.612-0.271,8.556,2.138,8.285c2.405-0.27,7.217-1.872,8.553-5.347
				C183.287,162.266,182.486,158.525,177.942,158.257z"/>
			<path d="M191.305,136.344c0,0-10.688,9.888-12.827,13.896c-2.145,4.009,1.063,5.612,4.81,3.475
				c3.742-2.137,8.552-10.15,14.437-10.422c5.879-0.268,6.943,2.143,13.629-2.138c6.681-4.276,10.958-11.491,12.021-15.232
				c1.068-3.736-19.241,5.884-19.241,5.884L191.305,136.344z"/>
			<path d="M229.788,123.249c0,0-3.475,7.749-2.405,9.893c1.069,2.137,5.612,2.938,8.556-0.271
				c2.938-3.208,7.479-13.896,14.694-17.906l-13.63,3.741L229.788,123.249z"/>
			<path d="M269.874,110.688c0,0-8.814,9.889-14.698,14.163c-5.879,4.271-10.15,12.021-8.279,14.433
				c1.87,2.404,10.422,0.271,13.094,1.336c2.674,1.067,7.216-3.207,8.819-5.88c1.604-2.672,1.336-7.216-1.604-7.216
				c-2.938,0,1.604-8.285,6.413-12.024c4.812-3.742,21.647-8.814,21.647-8.814l-14.436,1.064L269.874,110.688z"/>
			<path d="M203.598,149.438c0,0-9.894,8.284-13.629,13.896c-3.742,5.611-6.147,12.562-0.271,14.697
				c5.879,2.139,9.62-1.603,14.431-6.412c4.812-4.812,15.771-17.64,10.428-21.915C209.21,145.43,203.598,149.438,203.598,149.438z"
				/>
			<path d="M232.192,149.705c0,0-6.947,1.069-8.552,5.879c-1.604,4.812-3.479,11.764-5.35,14.164
				c-1.871,2.405-5.879,9.354-1.604,10.957c4.271,1.604,9.354,0.271,15.768-6.413c6.415-6.683,17.643-24.587,11.229-28.062
				C237.27,142.756,235.132,148.637,232.192,149.705z"/>
			<path d="M285.373,114.43c0,0-6.947,1.865-10.688,9.085c-3.742,7.215-1.069,11.225,4.542,11.487
				c5.607,0.271,10.958-4.543,11.759-11.487C291.787,116.567,289.382,117.103,285.373,114.43z"/>
			<path d="M196.382,195.937c0,0-6.408,4.544-10.15,7.75c-3.741,3.207-6.146,6.415-3.479,12.021
				c2.673,5.612,0.806,5.612,1.604,8.557c0.803,2.938,8.814,4.543,13.896-0.534c5.078-5.078,4.543-8.819,1.604-13.361
				c-2.938-4.544-2.137-5.345-0.271-6.415c1.871-1.064,6.687-5.076,6.687-9.086C206.271,190.86,201.192,190.059,196.382,195.937z"/>
			<path d="M225.245,184.446c0,0-6.949,3.476-5.879,9.088c1.067,5.61,2.404,5.61,6.947,5.878c4.543,0.271,8.813-5.613,9.889-9.621
				C237.27,185.783,230.322,180.974,225.245,184.446z"/>
			<path d="M256.512,170.817c0,0-5.884,1.068-6.688,7.215c-0.802,6.147,1.337,9.087,5.079,9.622c3.74,0.534,7.216-2.674,9.086-6.948
				c1.869-4.271,4.543-5.606,4.008-7.75C267.468,170.817,258.116,169.213,256.512,170.817z"/>
			<path d="M284.304,159.06c0,0-4.276,5.078-4.013,12.562c0.271,7.48,0.807,13.094,4.812,16.033
				c4.009,2.939,12.828,4.542,15.229,6.68c2.406,2.143,4.812,1.068,7.481-4.542c2.674-5.607-0.801-15.768-9.619-18.706
				c-8.819-2.938-8.552-6.415-9.354-9.086C288.046,159.326,286.443,157.722,284.304,159.06z"/>
			<path d="M182.753,238.43c0,0-5.078,1.064-6.146,6.144c-1.068,5.08-2.673,14.434,7.479,15.771
				c10.156,1.337,13.896-6.414,14.971-10.956c1.063-4.543,4.271-16.308,14.966-20.312c10.688-4.01,21.913-4.01,23.249-12.828
				c1.337-8.815-1.336-12.293-6.948-10.957c-5.611,1.338-2.404,4.544-5.611,7.482c-3.207,2.938-11.225,4.007-17.371,8.019
				c-6.146,4.014-15.5,15.771-16.564,18.979c-1.068,3.207-4.812,3.473-5.611,1.604C184.356,239.499,184.625,238.163,182.753,238.43z
				"/>
			<path d="M223.374,243.239c0,0,3.742-9.887,12.025-14.966c8.285-5.076,37.414-12.024,42.491-21.11
				c5.073-9.086,10.688-9.086,14.431-8.553c3.742,0.534,7.484,4.275,8.018,7.749c0.536,3.477-2.137,7.218,1.069,8.553
				c3.206,1.336,6.412-2.138,8.819,3.208c2.399,5.345-1.069,16.569-5.351,17.637c-4.271,1.07-8.018-1.604-10.423-5.072
				c-2.4-3.478-10.15-8.817-20.311-5.077c-10.154,3.742-19.775,7.217-28.328,6.414C237.27,231.216,228.452,236.292,223.374,243.239z
				"/>
			<path d="M255.442,209.567c0,0-3.206,0-2.404,2.673s2.138,2.94,8.552,1.604c6.413-1.341,9.621-6.686,13.1-9.354
				c3.475-2.675,6.943-12.296-1.871-11.227c-8.818,1.063-2.939,7.479-6.415,9.888C262.925,205.56,261.856,208.498,255.442,209.567z"
				/>
			<path d="M330.27,196.206c0,0-1.068-0.27-1.87,1.604c-0.803,1.871-1.338,0.802-2.674,3.207c-1.335,2.399,0,8.815,3.476,7.75
				c3.479-1.07,7.215-4.543,6.688-8.285C335.348,196.741,332.675,195.671,330.27,196.206z"/>
			<path d="M330.27,223.732c0,0-10.153,4.006-7.479,10.154c2.671,6.146,8.817,5.344,11.758,2.673
				c2.938-2.673,7.479-8.021,4.812-12.028C336.684,220.523,330.27,223.732,330.27,223.732z"/>
			<path d="M355.659,205.291c0,0-9.088,1.338-9.621,6.948c-0.535,5.611,8.817,3.207,12.025,9.087c3.206,5.879,0,10.424-0.801,17.904
				c-0.809,7.48-0.809,12.293,4.541,12.562c5.345,0.271,13.896-4.812,18.172-15.229c4.272-10.424,1.338-10.958,2.4-12.562
				c1.069-1.604,9.354-3.735,9.354-12.828c0-9.086-8.021-9.619-12.562-8.813C374.632,203.153,363.674,205.56,355.659,205.291z"/>
			<path d="M354.589,265.689c0,0-5.607,2.671-4.272,8.284c1.338,5.606,2.674,6.414,2.674,9.354c0,2.94,5.346,4.275,7.749,2.403
				c2.405-1.87,6.684-7.48,3.743-11.229c-2.938-3.735-5.35-6.68-5.613-7.75C358.598,265.689,354.589,265.689,354.589,265.689z"/>
			<path d="M393.073,241.103c0,0-10.156,2.938-9.088,9.084c1.069,6.146,4.544,10.151,14.433,14.434
				c9.894,4.275,8.558,4.275,10.688,7.48c2.14,3.209,9.889,6.146,12.293,4.012c2.404-2.14,5.344-10.424,1.069-16.303
				c-4.275-5.88-8.558-1.604-9.894-7.75C411.245,245.913,405.366,234.153,393.073,241.103z"/>
			<path d="M398.148,220.259c0,0-1.87,1.339-4.273,2.675c-2.4,1.337-4.811,3.738-2.674,6.944c2.142,3.207,5.077,0.807,8.818,0.536
				c3.742-0.269,5.348-2.141,4.812-3.742c-0.534-1.604-2.673-3.207-2.673-4.543C402.158,220.792,399.752,218.386,398.148,220.259z"
				/>
			<path d="M406.969,205.56c0,0-3.479,3.206-2.939,8.551c0.534,5.345,2.672,8.552,4.811,8.018c2.144-0.53,2.676-9.086,3.74-10.958
				C413.649,209.3,408.839,203.42,406.969,205.56z"/>
			<path d="M428.885,223.197c0,0-3.479,1.068-3.211,2.672c0.269,1.604,0.804,6.147,4.012,5.348c3.206-0.803,4.007-2.14,3.472-3.479
				C432.63,226.402,430.486,223.197,428.885,223.197z"/>
			<path d="M450.262,230.413c0,0-4.277,2.405-3.741,5.343c0.533,2.94-1.071,3.479-1.872,4.812s0.267,4.809,4.544,3.741
				c4.274-1.071,5.344-5.08,4.274-8.559C452.401,232.283,452.666,229.877,450.262,230.413z"/>
			<path d="M409.907,180.439c0,0-0.268,6.146,4.276,6.68c4.544,0.535,9.354-2.14,11.489-10.155
				c2.142-8.018-3.205-11.759,1.604-14.693c4.812-2.939,9.087-2.939,9.619-8.285c0.537-5.344,7.752-10.688-2.671-15.231
				s-12.827,4.275-13.362,6.415c-0.531,2.141-7.482,23.25-7.482,23.25L409.907,180.439z"/>
			<path d="M434.494,178.031c0,0-4.81,2.674-7.479,4.812c-2.673,2.137-3.742,5.608-0.534,7.216
				c3.208,1.604,9.354,1.871,11.224-2.142C439.574,183.91,438.77,177.766,434.494,178.031z"/>
			<path d="M451.864,195.403c0,0-4.81,0.804-4.271,4.812c0.529,4.014-0.534,7.749,2.938,7.219c3.479-0.534,6.414-3.206,6.414-6.413
				S451.864,195.403,451.864,195.403z"/>
			<path d="M452.135,162.534c0,0-1.069,6.413-2.407,10.421c-1.336,4.009-4.007,9.623,1.604,11.229
				c5.613,1.604,13.365-3.74,14.166-8.819c0.807-5.078,2.404-14.697-2.674-17.639C457.742,154.783,452.401,158.257,452.135,162.534z
				"/>
			<path d="M471.639,207.963c0,0-1.87,3.479-3.472,4.544c-1.604,1.069-1.604,4.812-0.809,7.752c0.809,2.938,2.939,8.555,7.215,6.146
				c4.277-2.403,3.742-6.946,1.872-10.153C474.579,213.042,476.986,206.359,471.639,207.963z"/>
			<path d="M487.944,231.216c0,0-1.873,2.401-3.477,5.076c-1.604,2.671-0.271,4.812,2.137,6.414c2.409,1.604,5.881,5.344,10.156,0
				c4.271-5.347,0.269-6.146,0.803-10.157C498.095,228.543,489.55,227.738,487.944,231.216z"/>
			<path d="M505.847,238.163c0,0-3.206,5.878,0.267,7.75c3.479,1.87,4.812,2.671,6.948,0c2.139-2.675,0.803-6.684,2.404-8.018
				C517.073,236.56,510.122,233.084,505.847,238.163z"/>
			<path d="M469.508,177.499c0,0,0.266,7.48-1.339,10.155c-1.604,2.672,5.073,12.561,9.088,11.225
				c4.009-1.337,5.604-8.28,4.81-12.293c-0.801-4.008-5.076-11.758-8.552-12.021C470.037,174.292,470.037,176.697,469.508,177.499z"
				/>
			<path d="M486.872,197.541c0,0-1.865,4.812-1.062,7.75c0.799,2.939,1.87,5.879,1.602,9.621
				c-0.267,3.741,10.425,8.285,10.957-0.268c0.535-8.55,1.338-10.152,1.604-12.827c0.269-2.672-2.405-10.688-8.021-10.155
				C486.341,192.195,486.872,197.541,486.872,197.541z"/>
			<path d="M507.238,210.444c0,0-2.091,0.644-2.412,5.305c-0.315,4.663-0.963,4.184-1.124,5.626c-0.163,1.445,1.285,3.696,4.5,4.183
				c3.223,0.479,4.021-2.411,4.348-4.98C512.865,218,509.65,207.871,507.238,210.444z"/>
			<path d="M467.098,258.473c0,0-3.208-5.613,1.336-8.286c4.543-2.671,4.543-0.271,8.284,0c3.734,0.268,7.214,5.079,7.214,5.079
				l-9.354,5.345L467.098,258.473z"/>
			<path d="M373.028,283.594c0,0-4.453-0.718-4.274,1.243c0.185,1.958-0.179,2.142,0,3.916c0.185,1.783,6.771,3.927,8.556,3.031
				C379.086,290.9,380.688,283.415,373.028,283.594z"/>
			<path d="M413.649,293.748c0,0-2.854,1.248-1.959,2.854c0.891,1.603,1.064,2.851,3.208,2.495c2.137-0.357,4.099-4.104,2.851-5.351
				C416.5,292.503,413.649,293.748,413.649,293.748z"/>
			<path d="M368.752,310.317c0,0-5.695,0.002-6.229,4.455c-0.535,4.455,2.492,6.056,4.096,11.58
				c1.604,5.521,0.356,9.085-1.245,12.112c-1.604,3.024-0.891,8.729,1.068,9.979c1.96,1.246,5.521-2.14,6.771-6.95
				c1.249-4.81,1.43-5.703,3.562-10.868c2.14-5.165,3.208-12.473,0.535-17.104C374.632,308.892,368.752,310.317,368.752,310.317z"/>
			<path d="M362.16,357.531c0,0-2.851-1.063-4.632,3.026c-1.779,4.098,0.178,7.485-1.959,11.404s0.18,18.171,5.879,17.812
				c5.7-0.354,8.729-6.593,9.086-8.196c0.357-1.603,3.562-1.062,5.168-0.527c1.604,0.527,2.316-0.72,4.098-3.922
				c1.783-3.204,6.771-13.361,3.029-16.931c-3.742-3.562-9.267-1.961-10.156-0.354c-0.892,1.603-1.425,4.455-2.674,4.271
				c-1.246-0.18-1.062-3.384-2.671-5.168C365.724,357.177,362.16,357.531,362.16,357.531z"/>
			<path d="M290.54,287.512c0,0,2.673,7.306,0.535,11.046c-2.139,3.745-7.84,7.663-6.235,12.295c1.604,4.63,7.31,8.729,13.896,4.453
				c6.594-4.274,4.632-10.509,3.562-16.748c-1.063-6.234-1.777-17.104,3.926-22.445c5.695-5.347,7.125-1.605,9.798-5.703
				c2.672-4.1,3.92-9.623-0.184-11.937c-4.096-2.318-9.085-1.249-14.431,1.425c-5.346,2.672-9.441,7.479-10.868,11.937
				C289.115,276.288,288.759,282.523,290.54,287.512z"/>
			<path d="M268.27,294.641c0,0-5.349,1.064-8.021,5.343s-3.562,8.73-1.064,11.048c2.494,2.315,13.718,0.895,17.277-2.312
				c3.562-3.207,6.771-10.156,2.495-12.115C274.684,294.641,272.724,293.749,268.27,294.641z"/>
			<path d="M277.178,317.443c0,0-4.812-0.89-5.167,1.784c-0.356,2.67,0.891,5.699,4.271,5.521c3.386-0.18,3.74-2.674,3.74-4.271
				C280.028,318.868,278.247,317.802,277.178,317.443z"/>
			<path d="M296.063,324.928c0,0-4.455,1.602-5.522,4.632c-1.064,3.027-0.712,6.232,2.673,7.479c3.39,1.249,7.126,0.721,9.086-3.382
				c1.966-4.099-0.354-7.129-2.672-8.19C297.311,324.392,296.063,324.928,296.063,324.928z"/>
			<path d="M319.223,307.288c0,0,1.066,3.207,3.208,2.494c2.139-0.712,2.489-2.494,1.776-3.386
				C323.5,305.51,318.87,304.973,319.223,307.288z"/>
			<path d="M322.431,314.772c0,0-2.854-0.18-4.277,3.382c-1.425,3.565-3.025,8.554,6.771,18.886
				c9.804,10.342,5.522,12.117,3.925,13.724c-1.604,1.604-11.229,14.434-9.804,24.938c1.428,10.517,4.276,15.322,9.804,14.076
				c5.521-1.249,6.058-8.375,4.81-15.854c-1.245-7.485-3.917-8.731,0-13.188c3.92-4.455,14.787-9.266,13.719-16.215
				c-1.062-6.947-9.267-19.773-16.747-22.983C323.143,318.339,324.749,315.664,322.431,314.772z"/>
			<path d="M339.712,385.507c0,0-8.019,7.304-6.592,12.107c1.427,4.812,5.522,5.522,7.306,2.854
				c1.781-2.671,2.315-10.519,3.206-11.582C344.523,387.817,342.921,383.01,339.712,385.507z"/>
			<path d="M305.15,321.72c0,0,26.012,17.639,33.67,39.91c7.662,22.268,3.923,46.143,3.923,46.143s9.085-17.461,5.166-41.688
				C343.988,341.853,316.55,323.322,305.15,321.72z"/>
			<path d="M156.831,416.01c0,0-2.405,0.938-2.405,3.477c0,2.538,1.474,1.87,1.871,2.137c0.399,0.271,2.142-1.062,2.003-2.938
				C158.167,416.812,157.766,415.742,156.831,416.01z"/>
			<path d="M160.84,422.557c-2.317-0.464-2.401,2.141-2.54,2.938c-0.133,0.808-0.267,1.604-0.529,2.811
				c-0.271,1.204,2.004,2.938,3.604,1.204c1.604-1.738,1.736-2.675,2.938-3.875c1.203-1.202,0.134-3.347-1.067-3.207
				C162.042,422.557,162.176,422.826,160.84,422.557z"/>
			<path d="M170.059,412.535c-2.938,0.196-2.81,1.738-2.672,2.54c0.134,0.807-0.667,3.74,1.064,4.146
				c1.736,0.396,4.41-1.066,4.677-3.073C173.399,414.139,172.063,412.403,170.059,412.535z"/>
			<path d="M182.887,408.132c0,0-2.143,0-2.271,1.064c-0.135,1.066-1.87,2.271-2.138,2.811c-0.271,0.528-1.737,4.679,1.063,5.346
				c2.811,0.668,5.479-0.401,6.018-3.341C186.093,411.067,184.625,408.396,182.887,408.132z"/>
			<path d="M174.736,422.157c0,0-3.073,1.07-3.208,2.671c-0.134,1.604,2.539,3.479,3.875,2.004c1.336-1.469,2.005-2.67,1.471-3.473
				C176.338,422.557,174.736,422.157,174.736,422.157z"/>
			<path d="M185.025,428.438c0,0-2.005,0.668-2.271,2.004c-0.268,1.337-0.801,2.539,0.938,3.339c1.738,0.81,4.271-0.266,4.41-2.397
				C188.231,429.24,187.163,428.035,185.025,428.438z"/>
			<path d="M182.887,421.094c0,0-1.203,3.206,0.396,4.007c1.604,0.803,3.875,0,4.543-1.334c0.668-1.337,0.271-3.608-0.936-3.877
				C185.693,419.616,184.223,418.951,182.887,421.094z"/>
			<path d="M195.848,398.639c0,0-2.004,1.34-3.207,4.678c-1.202,3.342,0.668,5.745,4.144,5.212c3.474-0.533,5.344-4.543,5.879-5.212
				c0.535-0.667,0.134-3.072-1.471-4.408C199.589,397.572,197.184,397.572,195.848,398.639z"/>
			<path d="M202.796,410.264c0,0-3.341,1.205-3.341,3.875c0,2.674,0.271,6.015,4.01,6.015c3.741,0,4.681-1.87,5.21-4.271
				c0.535-2.403-1.336-5.077-2.672-5.077C204.667,410.802,203.865,410.531,202.796,410.264z"/>
			<path d="M211.348,420.286c-1.723,0.285-2.003,0.808-2.811,1.203c-0.801,0.401-2.4,2.811-1.336,3.874
				c1.068,1.068,2.404,2.404,4.009,1.068c1.604-1.337,1.737-3.072,2.004-3.479C213.486,422.557,212.15,420.153,211.348,420.286z"/>
			<path d="M205.201,392.494c0,0-1.069,1.868,0.533,3.071c1.604,1.205,4.678,0.803,5.346-0.668s0.938-3.072,0.4-3.207
				C210.947,391.56,206.404,389.425,205.201,392.494z"/>
			<path d="M215.224,398.105c0,0-1.476,1.202-2.678,1.471c-1.198,0.271,0,1.736,0.938,3.073c0.936,1.336,2.938,0.134,3.742-0.804
				c0.801-0.938,1.202-2.002,0.801-3.072S216.158,397.572,215.224,398.105z"/>
			<path d="M223.374,406.657c0,0-3.475,0.533-3.604,1.738c-0.138,1.201-0.534,4.408,2.005,4.273c2.539-0.14,5.607-3.204,6.547-4.408
				c0.936-1.204,0-3.074-1.068-3.342C226.179,404.653,225.245,406.123,223.374,406.657z"/>
			<path d="M221.637,386.482c0,0-2.939,1.335-2.143,3.339c0.803,2.005,2.673,2.539,3.742,2.005c1.068-0.528,1.735-2.271,1.47-3.476
				C224.442,387.148,222.572,385.68,221.637,386.482z"/>
			<path d="M214.822,374.855c0,0-2.004,0.134-1.87,2.673c0.134,2.538,0.534,4.276,2.539,4.009c2.004-0.269,3.606-2.808,3.072-4.271
				C218.029,375.789,215.757,374.455,214.822,374.855z"/>
			<path d="M217.895,360.427c0,0-1.736,2.138-1.871,3.475c-0.133,1.336,1.737,2.939,2.938,2.538c1.203-0.402,2.678-1.469,2.54-2.674
				C221.369,362.562,220.433,359.224,217.895,360.427z"/>
			<path d="M229.52,376.859c0,0-1.87,0.535-1.202,1.736c0.667,1.205,1.069,0.536,1.736,0.27
				C230.722,378.596,230.856,377.262,229.52,376.859z"/>
			<path d="M236.068,376.464c0,0-2.004,0.396-1.736,1.604c0.271,1.204,0.801,1.738,2.003,1.604c1.203-0.136,1.604-0.268,1.475-1.473
				C237.67,376.994,237.404,376.594,236.068,376.464z"/>
			<path d="M227.649,369.644c0,0,1.203,1.604,2.271,1.604c1.069,0,1.604-1.062,1.604-1.729c0-0.669-0.803-2.673-2.405-2.271
				C227.516,367.64,227.516,368.576,227.649,369.644z"/>
			<path d="M233.262,387.281c0,0-1.737,0.67-1.475,1.604c0.271,0.938,1.475,2.141,2.673,1.873c1.202-0.271,0.806-1.604,0.667-2.406
				C234.999,387.552,233.262,387.281,233.262,387.281z"/>
			<path d="M248.627,263.952c0,0-2.538,5.879,0.139,8.951c2.673,3.074,4.543,2.675,5.607,2.138c1.067-0.534,3.073-3.206,1.871-7.615
				c-1.203-4.406-4.543-5.346-5.88-5.479C249.029,261.814,248.627,263.952,248.627,263.952z"/>
		</g>
		<g>
			<path fill="#FFFFFF" d="M255.175,259.186c0,0-0.354,1.961-1.336,5.166c-0.979,3.206-1.336,4.009-2.584,3.649
				c-1.247-0.354-1.336-1.777-1.426-2.764c-0.089-0.979,0.713-5.256,1.337-6.146c0.623-0.896,1.158-2.144,2.766-2.053
				C255.532,257.134,255.175,258.74,255.175,259.186z"/>
			<path fill="#FFFFFF" d="M263.727,269.875c-0.564,0.688-0.623,1.958,0.088,2.403c0.713,0.448,2.049,0.267,2.406-1.245
				C266.578,269.52,264.529,268.896,263.727,269.875z"/>
		</g>
		<path fill="#FFFFFF" d="M217.935,490.891c0,0-5.979-4.12-5.201-12.124c0,0,1.763,2.447,5.539,3.238c0,0-0.323-1.596,0.137-2.778
			c0,0,3.646,3.448,5.979,3.744c0,0-0.557-1.062-0.126-2.914c0,0,2.521,3.146,4.86,3.206c0,0-0.396-1.413,0.336-2.771
			c0,0,6.128,3.396,7.457,4.967c0,0,1.229,3.693,2.931,5.897c1.695,2.203-6.194,2.06-6.831,0.029c0,0-4.224,1.368-5.807-0.465
			c0,0-3.667,1.025-4.938-0.242C222.269,490.679,219.58,492.062,217.935,490.891z"/>
	</g>
</g>
<g>
	<path fill="#BDC2BC" d="M534.992,588.913c-0.739,0-1.34-0.602-1.34-1.341v-16.588c0-0.739,0.601-1.339,1.34-1.339h52.497
		c0.738,0,1.339,0.6,1.339,1.339v16.588c0,0.739-0.601,1.341-1.339,1.341H534.992z"/>
	<g>
		<path d="M558.027,571.51c-2.725,0-4.935,2.21-4.935,4.934c0,2.729,2.21,4.938,4.935,4.938c2.728,0,4.938-2.21,4.938-4.938
			C562.964,573.719,560.755,571.51,558.027,571.51z"/>
		<path fill="#FFFFFF" d="M558.027,580.461c-2.219,0-4.015-1.798-4.015-4.019c0-2.217,1.797-4.014,4.015-4.014
			c2.219,0,4.019,1.798,4.019,4.014C562.046,578.664,560.246,580.461,558.027,580.461z"/>
		<g>
			<path d="M559.402,575.293c0-0.219-0.182-0.398-0.398-0.398h-1.952c-0.221,0-0.401,0.181-0.401,0.398v1.985h0.528v2.338h1.694
				v-2.338h0.527L559.402,575.293L559.402,575.293z"/>
			<path d="M558.695,573.942c0,0.37-0.3,0.668-0.667,0.668c-0.371,0-0.67-0.299-0.67-0.668s0.301-0.67,0.67-0.67
				C558.395,573.272,558.695,573.571,558.695,573.942z"/>
		</g>
	</g>
	<path d="M587.175,569.198h-51.868c-1.157,0-2.102,0.943-2.102,2.102v15.96c0,1.158,0.943,2.1,2.102,2.1h51.868
		c1.158,0,2.102-0.94,2.102-2.1V571.3C589.275,570.141,588.332,569.198,587.175,569.198z M588.644,583.375h-37.865
		c-1.477,2.809-4.417,4.725-7.81,4.725s-6.333-1.916-7.809-4.725h-1.326V571.3c0-0.812,0.658-1.471,1.47-1.471h51.869
		c0.811,0,1.471,0.658,1.471,1.471V583.375L588.644,583.375z"/>
	<g>
		<path fill="#FFFFFF" d="M557.773,584.933c0.1,0.14,0.15,0.302,0.15,0.495c0,0.198-0.052,0.357-0.151,0.479
			c-0.057,0.066-0.14,0.131-0.25,0.187c0.168,0.061,0.294,0.155,0.378,0.289c0.085,0.13,0.127,0.289,0.127,0.477
			c0,0.192-0.049,0.365-0.145,0.519c-0.062,0.104-0.14,0.188-0.23,0.256c-0.104,0.078-0.225,0.137-0.369,0.164
			c-0.141,0.028-0.294,0.043-0.459,0.043h-1.466v-3.256h1.573C557.326,584.594,557.607,584.706,557.773,584.933z M556.009,585.151
			v0.717h0.79c0.143,0,0.257-0.026,0.345-0.08s0.133-0.147,0.133-0.286c0-0.15-0.059-0.248-0.176-0.301
			c-0.1-0.033-0.228-0.05-0.383-0.05H556.009L556.009,585.151z M556.009,586.407v0.869h0.789c0.143,0,0.25-0.02,0.328-0.058
			c0.145-0.071,0.217-0.206,0.217-0.407c0-0.17-0.07-0.285-0.208-0.35c-0.077-0.034-0.188-0.056-0.327-0.056L556.009,586.407
			L556.009,586.407z"/>
		<path fill="#FFFFFF" d="M560.469,584.586h0.771l-1.089,2.034v1.222h-0.68v-1.222l-1.127-2.034h0.8l0.677,1.418L560.469,584.586z"
			/>
	</g>
	<g>
		<g>
			<path fill="#FFFFFF" d="M566.517,584.426h0.776l1.403,2.473v-2.473h0.692v3.545h-0.742l-1.443-2.517v2.517h-0.688
				L566.517,584.426L566.517,584.426z"/>
			<path fill="#FFFFFF" d="M570.425,584.797c0.285-0.292,0.647-0.437,1.09-0.437c0.591,0,1.02,0.195,1.295,0.587
				c0.148,0.221,0.229,0.439,0.242,0.661h-0.741c-0.048-0.17-0.106-0.299-0.183-0.384c-0.132-0.153-0.328-0.229-0.586-0.229
				c-0.265,0-0.473,0.107-0.623,0.324c-0.152,0.219-0.229,0.525-0.229,0.923c0,0.399,0.08,0.696,0.241,0.895
				c0.161,0.197,0.365,0.299,0.614,0.299c0.252,0,0.447-0.086,0.581-0.256c0.072-0.09,0.136-0.229,0.183-0.41h0.736
				c-0.066,0.387-0.226,0.699-0.486,0.943c-0.262,0.241-0.594,0.36-1.002,0.36c-0.505,0-0.901-0.163-1.19-0.489
				c-0.288-0.328-0.434-0.777-0.434-1.353C569.93,585.607,570.095,585.133,570.425,584.797z"/>
		</g>
	</g>
	<g>
		<path fill="#FFFFFF" d="M578.517,586.944c0.022,0.173,0.073,0.303,0.145,0.389c0.132,0.154,0.354,0.233,0.673,0.233
			c0.19,0,0.347-0.021,0.465-0.062c0.225-0.078,0.338-0.226,0.338-0.438c0-0.125-0.055-0.223-0.166-0.291
			c-0.113-0.066-0.285-0.126-0.525-0.178l-0.411-0.088c-0.401-0.093-0.679-0.188-0.829-0.294c-0.254-0.173-0.383-0.448-0.383-0.819
			c0-0.339,0.126-0.619,0.376-0.846c0.249-0.224,0.617-0.336,1.102-0.336c0.401,0,0.748,0.104,1.033,0.315
			c0.284,0.213,0.436,0.521,0.45,0.922h-0.762c-0.014-0.227-0.117-0.387-0.306-0.484c-0.126-0.065-0.282-0.096-0.473-0.096
			c-0.209,0-0.375,0.041-0.499,0.122c-0.126,0.083-0.188,0.196-0.188,0.346c0,0.135,0.062,0.236,0.186,0.303
			c0.079,0.043,0.246,0.096,0.502,0.155l0.665,0.156c0.292,0.068,0.513,0.162,0.655,0.276c0.227,0.179,0.339,0.435,0.339,0.771
			c0,0.351-0.134,0.637-0.4,0.863c-0.269,0.229-0.646,0.344-1.134,0.344c-0.5,0-0.891-0.112-1.176-0.339
			c-0.287-0.224-0.432-0.536-0.432-0.929L578.517,586.944L578.517,586.944z"/>
		<path fill="#FFFFFF" d="M582.542,584.325h0.896l1.34,3.791h-0.858l-0.249-0.778h-1.396l-0.255,0.778h-0.828L582.542,584.325z
			 M582.486,586.681h0.972l-0.479-1.49L582.486,586.681z"/>
	</g>
	<g>
		<circle cx="542.95" cy="579.28" r="7.771"/>
		<circle fill="#FFFFFF" cx="542.95" cy="579.278" r="6.322"/>
		<g>
			<path d="M542.597,578.348l-1.188,0.215c-0.041-0.237-0.131-0.416-0.273-0.537c-0.143-0.119-0.325-0.178-0.55-0.178
				c-0.302,0-0.537,0.104-0.72,0.31c-0.18,0.204-0.268,0.555-0.268,1.038c0,0.539,0.09,0.921,0.271,1.146
				c0.183,0.223,0.426,0.332,0.73,0.332c0.229,0,0.417-0.064,0.562-0.195c0.146-0.131,0.249-0.354,0.311-0.67l1.182,0.199
				c-0.123,0.545-0.354,0.954-0.707,1.229c-0.348,0.276-0.813,0.416-1.399,0.416c-0.668,0-1.197-0.21-1.594-0.629
				c-0.396-0.42-0.592-1.004-0.592-1.746c0-0.75,0.198-1.337,0.594-1.754c0.397-0.42,0.936-0.627,1.613-0.627
				c0.555,0,0.995,0.118,1.322,0.355C542.219,577.497,542.453,577.86,542.597,578.348z"/>
			<path d="M547.477,578.348l-1.188,0.215c-0.039-0.237-0.131-0.416-0.272-0.537c-0.144-0.119-0.325-0.178-0.551-0.178
				c-0.301,0-0.539,0.104-0.72,0.31c-0.178,0.204-0.268,0.555-0.268,1.038c0,0.539,0.09,0.921,0.271,1.146
				c0.182,0.223,0.426,0.332,0.729,0.332c0.229,0,0.417-0.064,0.562-0.195c0.146-0.131,0.25-0.354,0.311-0.67l1.183,0.199
				c-0.123,0.545-0.356,0.954-0.708,1.229c-0.349,0.276-0.814,0.416-1.4,0.416c-0.668,0-1.197-0.21-1.593-0.629
				c-0.396-0.42-0.592-1.004-0.592-1.746c0-0.75,0.196-1.337,0.595-1.754c0.396-0.42,0.934-0.627,1.612-0.627
				c0.554,0,0.994,0.118,1.322,0.355C547.1,577.497,547.337,577.86,547.477,578.348z"/>
		</g>
	</g>
	<g>
		<path d="M569.93,571.719c-2.61,0-4.727,2.115-4.727,4.726c0,2.612,2.115,4.729,4.727,4.729s4.728-2.113,4.728-4.729
			C574.658,573.834,572.546,571.719,569.93,571.719z"/>
		<circle fill="#FFFFFF" cx="569.93" cy="576.447" r="3.846"/>
		
			<rect x="569.488" y="571.955" transform="matrix(0.4225 -0.9063 0.9063 0.4225 -193.3242 849.4399)" width="0.924" height="8.958"/>
		<g>
			<path d="M569.58,579.151v-0.637c-0.444-0.013-0.877-0.14-1.129-0.277l0.197-0.776c0.279,0.153,0.672,0.292,1.101,0.292
				c0.382,0,0.646-0.151,0.646-0.409c0-0.252-0.223-0.41-0.709-0.578c-0.711-0.238-1.196-0.568-1.196-1.215
				c0-0.59,0.411-1.047,1.122-1.181v-0.631h0.65v0.584c0.443,0.015,0.742,0.115,0.968,0.222l-0.199,0.748
				c-0.167-0.079-0.478-0.232-0.954-0.232c-0.434,0-0.571,0.193-0.571,0.381c0,0.212,0.231,0.356,0.798,0.564
				c0.796,0.276,1.107,0.643,1.107,1.246c0,0.591-0.411,1.09-1.182,1.221v0.684L569.58,579.151L569.58,579.151z"/>
		</g>
	</g>
	<g>
		<path d="M581.185,571.784c-2.571,0-4.66,2.086-4.66,4.658c0,2.576,2.089,4.665,4.66,4.665c2.576,0,4.665-2.089,4.665-4.665
			C585.852,573.87,583.761,571.784,581.185,571.784z"/>
		<path fill="#FFFFFF" d="M581.185,580.238c-2.092,0-3.789-1.698-3.789-3.794c0-2.091,1.695-3.79,3.789-3.79
			c2.096,0,3.793,1.696,3.793,3.79C584.979,578.538,583.281,580.238,581.185,580.238z"/>
		<path d="M581.185,573.885c-1.016,0-1.874,0.733-2.182,1.746h-0.294l0.933,1.016l0.93-1.016h-0.348
			c0.215-0.37,0.563-0.616,0.96-0.616c0.65,0,1.179,0.646,1.179,1.443c0,0.793-0.526,1.44-1.179,1.44
			c-0.432,0-0.81-0.289-1.016-0.72h-1.196c0.278,1.068,1.167,1.854,2.214,1.854c1.273,0,2.311-1.155,2.311-2.576
			C583.496,575.034,582.464,573.885,581.185,573.885z"/>
	</g>
</g>
<g>
	<path d="M11.392,586.197c-0.652,0-1.248-0.138-1.786-0.41c-0.539-0.271-1.002-0.631-1.39-1.07c-0.388-0.441-0.688-0.949-0.9-1.521
		C7.106,582.619,7,582.032,7,581.432c0-0.626,0.114-1.226,0.338-1.797c0.226-0.574,0.533-1.08,0.927-1.521
		c0.393-0.44,0.857-0.792,1.396-1.053c0.538-0.26,1.119-0.39,1.746-0.39c0.653,0,1.248,0.138,1.786,0.417
		c0.538,0.275,0.999,0.641,1.382,1.09s0.682,0.959,0.893,1.528c0.213,0.567,0.318,1.144,0.318,1.726c0,0.636-0.113,1.24-0.338,1.812
		c-0.225,0.574-0.534,1.079-0.926,1.517c-0.394,0.437-0.856,0.785-1.391,1.045C12.598,586.066,12.018,586.197,11.392,586.197z
		 M7.675,581.432c0,0.539,0.091,1.057,0.271,1.555s0.437,0.939,0.768,1.324c0.33,0.383,0.724,0.69,1.178,0.92
		c0.455,0.229,0.955,0.344,1.502,0.344c0.563,0,1.072-0.117,1.527-0.355c0.454-0.239,0.846-0.555,1.17-0.946
		c0.327-0.392,0.578-0.834,0.755-1.328s0.265-0.997,0.265-1.51c0-0.538-0.092-1.057-0.277-1.555
		c-0.185-0.498-0.442-0.939-0.773-1.323s-0.723-0.691-1.179-0.919c-0.454-0.229-0.949-0.347-1.486-0.347
		c-0.565,0-1.076,0.119-1.536,0.357c-0.458,0.238-0.85,0.554-1.17,0.945c-0.322,0.394-0.571,0.836-0.748,1.33
		C7.762,580.422,7.675,580.923,7.675,581.432z"/>
	<path d="M23.14,578.299c-0.608-0.681-1.469-1.021-2.58-1.021c-0.918,0-1.587,0.175-2.006,0.523
		c-0.417,0.349-0.628,0.817-0.628,1.407c0,0.302,0.054,0.554,0.159,0.755c0.106,0.202,0.271,0.373,0.496,0.51
		c0.226,0.137,0.513,0.256,0.86,0.355c0.35,0.103,0.761,0.2,1.237,0.299c0.512,0.106,0.97,0.223,1.377,0.352
		c0.404,0.127,0.75,0.289,1.038,0.483c0.287,0.193,0.508,0.433,0.662,0.715c0.153,0.281,0.231,0.632,0.231,1.044
		c0,0.414-0.082,0.775-0.245,1.086c-0.163,0.31-0.392,0.565-0.688,0.773c-0.297,0.208-0.648,0.364-1.059,0.471
		c-0.411,0.104-0.867,0.157-1.37,0.157c-1.463,0-2.704-0.467-3.717-1.401l0.356-0.542c0.396,0.415,0.882,0.743,1.457,0.984
		c0.573,0.242,1.217,0.363,1.931,0.363c0.821,0,1.461-0.147,1.925-0.449c0.462-0.301,0.695-0.754,0.695-1.362
		c0-0.309-0.06-0.57-0.178-0.787s-0.303-0.404-0.551-0.562c-0.247-0.158-0.554-0.295-0.919-0.409
		c-0.364-0.115-0.796-0.225-1.29-0.33c-0.503-0.105-0.945-0.219-1.329-0.338c-0.384-0.117-0.708-0.269-0.972-0.449
		c-0.265-0.181-0.463-0.398-0.596-0.654s-0.199-0.578-0.199-0.967c0-0.423,0.082-0.797,0.246-1.124
		c0.163-0.326,0.391-0.603,0.682-0.826c0.291-0.226,0.64-0.395,1.044-0.511c0.406-0.114,0.854-0.17,1.351-0.17
		c0.607,0,1.15,0.09,1.627,0.27c0.477,0.183,0.909,0.459,1.296,0.828L23.14,578.299z"/>
	<path d="M25.734,586.131v-9.395h3.863c0.396,0,0.763,0.085,1.098,0.251c0.335,0.168,0.624,0.392,0.866,0.669
		s0.432,0.591,0.568,0.938c0.138,0.35,0.205,0.698,0.205,1.053c0,0.381-0.063,0.746-0.191,1.098
		c-0.128,0.354-0.31,0.666-0.542,0.939c-0.232,0.272-0.512,0.492-0.833,0.654c-0.323,0.164-0.683,0.245-1.078,0.245h-3.281v3.546
		L25.734,586.131L25.734,586.131z M26.408,581.963h3.241c0.309,0,0.586-0.064,0.833-0.191s0.456-0.3,0.629-0.516
		c0.171-0.218,0.303-0.463,0.396-0.741c0.092-0.276,0.139-0.565,0.139-0.866c0-0.309-0.056-0.602-0.165-0.879
		c-0.11-0.279-0.26-0.523-0.45-0.734c-0.189-0.213-0.41-0.381-0.661-0.504s-0.519-0.186-0.801-0.186h-3.162L26.408,581.963
		L26.408,581.963z"/>
	<path d="M33.963,586.131v-9.395h3.917c0.397,0,0.764,0.085,1.098,0.251c0.335,0.168,0.622,0.392,0.859,0.669
		c0.238,0.277,0.426,0.591,0.563,0.938c0.137,0.35,0.204,0.698,0.204,1.053c0,0.344-0.054,0.676-0.159,0.998
		c-0.105,0.324-0.254,0.611-0.45,0.867c-0.194,0.256-0.427,0.467-0.7,0.635c-0.273,0.169-0.572,0.277-0.899,0.331l2.341,3.651
		h-0.781l-2.274-3.547h-3.043v3.547L33.963,586.131L33.963,586.131z M34.636,581.963h3.295c0.299,0,0.571-0.064,0.819-0.197
		c0.247-0.132,0.458-0.307,0.636-0.522c0.176-0.216,0.311-0.462,0.402-0.741c0.093-0.277,0.141-0.562,0.141-0.853
		c0-0.3-0.056-0.589-0.166-0.866c-0.11-0.276-0.261-0.522-0.45-0.733c-0.189-0.212-0.409-0.382-0.661-0.511
		c-0.252-0.127-0.523-0.192-0.814-0.192h-3.201V581.963z"/>
	<path d="M48.899,585.521v0.608h-6.258v-9.395h6.139v0.61h-5.464v3.688h4.775v0.582h-4.775v3.903h5.583V585.521z"/>
	<path d="M50.421,576.736l3.281,5.199l3.308-5.199h0.742l-3.706,5.849v3.546h-0.674v-3.572l-3.69-5.821L50.421,576.736
		L50.421,576.736z"/>
	<path d="M59.126,586.131v-9.395h3.122c0.741,0,1.392,0.124,1.951,0.371c0.561,0.248,1.025,0.583,1.396,1.007
		c0.371,0.423,0.647,0.919,0.833,1.487c0.185,0.567,0.277,1.175,0.277,1.819c0,0.715-0.104,1.36-0.311,1.938
		s-0.505,1.07-0.894,1.481c-0.388,0.409-0.857,0.729-1.41,0.953c-0.552,0.224-1.167,0.337-1.845,0.337L59.126,586.131
		L59.126,586.131z M66.031,581.421c0-0.592-0.083-1.137-0.251-1.635c-0.167-0.498-0.412-0.93-0.733-1.291
		c-0.322-0.359-0.718-0.644-1.185-0.848c-0.466-0.202-1.005-0.303-1.614-0.303h-2.447v8.177h2.447c0.617,0,1.162-0.104,1.633-0.312
		c0.473-0.206,0.866-0.495,1.185-0.865c0.316-0.37,0.559-0.805,0.722-1.303S66.031,582.003,66.031,581.421z"/>
	<path d="M67.288,586.131l3.996-9.395h0.555l3.997,9.395h-0.728l-1.311-3.097h-4.484l-1.311,3.097H67.288z M71.562,577.557
		l-2.09,4.922h4.141L71.562,577.557z"/>
	<path d="M80.148,576.802h0.661l1.401,3.413l1.403-3.413h0.661l-1.654,3.956l1.971,4.577l3.6-8.601h0.742l-4.023,9.395h-0.62
		l-2.063-4.829l-2.077,4.829h-0.622l-4.008-9.395h0.728l3.612,8.601l1.945-4.577L80.148,576.802z"/>
	<path d="M91.05,578.008v8.123h-0.675v-9.394h0.518l6.588,8.27v-8.255h0.675v9.379h-0.622L91.05,578.008z"/>
	<path d="M100.297,586.131v-1.125h0.583v1.125H100.297z"/>
	<path d="M102.401,581.368c0-0.563,0.098-1.127,0.298-1.688c0.197-0.561,0.486-1.062,0.866-1.502c0.379-0.44,0.844-0.8,1.395-1.077
		c0.552-0.277,1.181-0.418,1.887-0.418c0.838,0,1.552,0.192,2.144,0.576c0.591,0.383,1.027,0.877,1.309,1.475l-0.556,0.318
		c-0.159-0.327-0.351-0.601-0.576-0.82c-0.224-0.221-0.466-0.399-0.727-0.537c-0.261-0.137-0.533-0.234-0.814-0.298
		c-0.281-0.062-0.562-0.092-0.833-0.092c-0.6,0-1.129,0.121-1.589,0.364c-0.458,0.241-0.847,0.558-1.164,0.944
		c-0.316,0.39-0.557,0.826-0.722,1.316c-0.164,0.489-0.245,0.981-0.245,1.475c0,0.558,0.097,1.086,0.291,1.59
		c0.195,0.502,0.459,0.945,0.795,1.328c0.334,0.383,0.731,0.691,1.19,0.919c0.458,0.229,0.951,0.346,1.48,0.346
		c0.282,0,0.571-0.036,0.866-0.106c0.296-0.069,0.583-0.18,0.86-0.329c0.277-0.15,0.536-0.343,0.774-0.576
		c0.238-0.232,0.437-0.51,0.594-0.827l0.569,0.278c-0.159,0.352-0.372,0.665-0.642,0.939c-0.271,0.271-0.57,0.502-0.906,0.688
		c-0.335,0.186-0.689,0.324-1.065,0.416c-0.375,0.092-0.742,0.139-1.104,0.139c-0.644,0-1.233-0.141-1.768-0.423
		c-0.532-0.281-0.994-0.649-1.382-1.104c-0.387-0.455-0.689-0.972-0.905-1.549C102.509,582.555,102.401,581.969,102.401,581.368z"/>
	<path d="M115.882,586.197c-0.652,0-1.247-0.138-1.785-0.41c-0.538-0.271-1.001-0.631-1.39-1.07
		c-0.388-0.441-0.688-0.949-0.898-1.521c-0.212-0.572-0.317-1.16-0.317-1.76c0-0.627,0.112-1.225,0.337-1.798
		c0.224-0.573,0.534-1.081,0.926-1.521c0.394-0.44,0.857-0.792,1.396-1.052c0.539-0.261,1.121-0.391,1.747-0.391
		c0.65,0,1.247,0.139,1.786,0.416c0.538,0.276,0.999,0.643,1.381,1.091c0.384,0.45,0.682,0.959,0.894,1.529
		c0.211,0.566,0.317,1.144,0.317,1.726c0,0.635-0.113,1.239-0.337,1.812c-0.226,0.572-0.534,1.077-0.928,1.514
		c-0.393,0.438-0.854,0.785-1.389,1.046C117.087,586.066,116.509,586.197,115.882,586.197z M112.164,581.432
		c0,0.539,0.09,1.057,0.271,1.555c0.181,0.498,0.436,0.939,0.767,1.324c0.331,0.383,0.724,0.69,1.178,0.92s0.954,0.344,1.501,0.344
		c0.564,0,1.073-0.117,1.527-0.355c0.456-0.239,0.845-0.555,1.171-0.946s0.578-0.834,0.754-1.328
		c0.175-0.494,0.266-0.997,0.266-1.51c0-0.538-0.094-1.057-0.278-1.555c-0.186-0.498-0.443-0.939-0.774-1.323
		s-0.724-0.691-1.178-0.919c-0.455-0.229-0.95-0.347-1.488-0.347c-0.563,0-1.075,0.119-1.534,0.357s-0.851,0.554-1.172,0.945
		c-0.321,0.394-0.57,0.836-0.748,1.33C112.252,580.422,112.164,580.923,112.164,581.432z"/>
	<path d="M130.659,586.131v-8.123l-3.704,6.338h-0.423l-3.705-6.338v8.123h-0.675v-9.394h0.675l3.916,6.722l3.916-6.722h0.675v9.394
		H130.659L130.659,586.131z"/>
</g>
</svg>
