<?xml version="1.0" encoding="utf-8"?>
<!-- Generator: Adobe Illustrator 16.0.0, SVG Export Plug-In . SVG Version: 6.00 Build 0)  -->
<!DOCTYPE svg PUBLIC "-//W3C//DTD SVG 1.1//EN" "http://www.w3.org/Graphics/SVG/1.1/DTD/svg11.dtd">
<svg version="1.1" id="Layer_1" xmlns="http://www.w3.org/2000/svg" xmlns:xlink="http://www.w3.org/1999/xlink" x="0px" y="0px"
	 width="595.275px" height="595.279px" viewBox="0 0 595.275 595.279" enable-background="new 0 0 595.275 595.279"
	 xml:space="preserve">
<metadata><?xpacket begin="﻿" id="W5M0MpCehiHzreSzNTczkc9d"?>
<x:xmpmeta xmlns:x="adobe:ns:meta/" x:xmptk="Adobe XMP Core 5.3-c011 66.145661, 2012/02/06-14:56:27        ">
   <rdf:RDF xmlns:rdf="http://www.w3.org/1999/02/22-rdf-syntax-ns#">
      <rdf:Description rdf:about=""
            xmlns:dc="http://purl.org/dc/elements/1.1/">
         <dc:format>image/svg+xml</dc:format>
         <dc:title>
            <rdf:Alt>
               <rdf:li xml:lang="x-default">NFL Logo Redesigns</rdf:li>
               <rdf:li xml:lang="en_us">NFL Logo Redesigns</rdf:li>
            </rdf:Alt>
         </dc:title>
         <dc:creator>
            <rdf:Seq>
               <rdf:li>Max O'Brien/Osprey Dawn</rdf:li>
            </rdf:Seq>
         </dc:creator>
      </rdf:Description>
      <rdf:Description rdf:about=""
            xmlns:xmp="http://ns.adobe.com/xap/1.0/"
            xmlns:xmpGImg="http://ns.adobe.com/xap/1.0/g/img/">
         <xmp:CreatorTool>Adobe Illustrator CS6 (Macintosh)</xmp:CreatorTool>
         <xmp:ModifyDate>2013-10-06T23:41:17+13:00</xmp:ModifyDate>
         <xmp:MetadataDate>2013-10-06T23:41:17+13:00</xmp:MetadataDate>
         <xmp:CreateDate>2013-10-06T23:41:17+13:00</xmp:CreateDate>
         <xmp:Thumbnails>
            <rdf:Alt>
               <rdf:li rdf:parseType="Resource">
                  <xmpGImg:width>256</xmpGImg:width>
                  <xmpGImg:height>236</xmpGImg:height>
                  <xmpGImg:format>JPEG</xmpGImg:format>
                  <xmpGImg:image>/9j/4AAQSkZJRgABAgEASABIAAD/7QAsUGhvdG9zaG9wIDMuMAA4QklNA+0AAAAAABAASAAAAAEA&#xA;AQBIAAAAAQAB/+4ADkFkb2JlAGTAAAAAAf/bAIQABgQEBAUEBgUFBgkGBQYJCwgGBggLDAoKCwoK&#xA;DBAMDAwMDAwQDA4PEA8ODBMTFBQTExwbGxscHx8fHx8fHx8fHwEHBwcNDA0YEBAYGhURFRofHx8f&#xA;Hx8fHx8fHx8fHx8fHx8fHx8fHx8fHx8fHx8fHx8fHx8fHx8fHx8fHx8fHx8f/8AAEQgA7AEAAwER&#xA;AAIRAQMRAf/EAaIAAAAHAQEBAQEAAAAAAAAAAAQFAwIGAQAHCAkKCwEAAgIDAQEBAQEAAAAAAAAA&#xA;AQACAwQFBgcICQoLEAACAQMDAgQCBgcDBAIGAnMBAgMRBAAFIRIxQVEGE2EicYEUMpGhBxWxQiPB&#xA;UtHhMxZi8CRygvElQzRTkqKyY3PCNUQnk6OzNhdUZHTD0uIIJoMJChgZhJRFRqS0VtNVKBry4/PE&#xA;1OT0ZXWFlaW1xdXl9WZ2hpamtsbW5vY3R1dnd4eXp7fH1+f3OEhYaHiImKi4yNjo+Ck5SVlpeYmZ&#xA;qbnJ2en5KjpKWmp6ipqqusra6voRAAICAQIDBQUEBQYECAMDbQEAAhEDBCESMUEFURNhIgZxgZEy&#xA;obHwFMHR4SNCFVJicvEzJDRDghaSUyWiY7LCB3PSNeJEgxdUkwgJChgZJjZFGidkdFU38qOzwygp&#xA;0+PzhJSktMTU5PRldYWVpbXF1eX1RlZmdoaWprbG1ub2R1dnd4eXp7fH1+f3OEhYaHiImKi4yNjo&#xA;+DlJWWl5iZmpucnZ6fkqOkpaanqKmqq6ytrq+v/aAAwDAQACEQMRAD8A9U4q7FXYq7FXYq7FXYq7&#xA;FXYq7FXYq7FXYq7FXYq7FXYq7FXYq7FXYq7FXYq7FXYq7FXYq7FXYq7FXYq7FXYq7FXYq7FXYq7F&#xA;XYq7FXYq7FXYq7FXYq7FXYqkPmDzXZabDIkTq9yoJYkjhGB1Zz028MICCVTQfM1pqcKI7rHdkbpX&#xA;Z/dD3r4YkKCnWBLsVdirsVdirsVdirsVdirsVdirsVdirsVdirsVdirsVdirsVdiqE1TU7bTrVri&#xA;c9NkTuzdgMVeJa3/AM5C+XNG84vpd/qpt7ziPV+BntYifsxSFa8Woa1pt3IyWzHd6Pon5laRqVrH&#xA;cKUngf7N1aOs0Te4IP8AE4KTafweY9EmHw3aL7SVT/iVMaW0Wt9YsKrcRMPEOp/jgS0+oWCCr3MS&#xA;jxLqP1nFUHP5m0OGvK6Vj4Rgv+KgjDSLSbVfzG0uygebiI4kHxT3LrDGPckk/wAMaW3jvnj/AJyi&#xA;8s2KSQ2982pz0IFtpu0Vf8q4Pw8f9Ut8sOyN3zt59/OPzX5vD2sjjT9IY7afbk0YdvWk2aT5bL7Y&#xA;CUgK/kL87fNnlRI7ORhqmkR7JZ3DENGPCKWjMo9jVfbEFSH0V5I/5ye8ragkcUuo/UJ+9rqnwqP9&#xA;WevCnhVh8sOyN3rmm/mFpd3CkrITG4qs0DLLGR4ggjbBSbTmDzLoc1ON2inweqf8SAxpbRaahYOK&#xA;pcxMPEOp/jgS5r+xQVe5iUeJdR/HFUHceZdDg+1dox8I6v8A8RBGGkWx3X/zP0jS7V7iR4rWBet1&#xA;eyLFGPvO/wB+NLbAPK3/ADkD5e17za+nadqbXV0q1SN0aKCdRUukPKlWQCv2em4qK4dkbvbNPv7a&#xA;/tUubdqo3Ud1PdT7jIskRirsVdirsVdirsVdirsVdirsVdiqld3cFpbvcTtxijFWP8B7nFXzR/zk&#xA;B+d0mjRtp+nSA67dIRAgoy2kLbeowr/eN+z952oDLkx5vkqWWWaV5ZXaSWRi8kjkszMxqSSdySci&#xA;yRWmazq+lT+vpl7PYzd5LeR4mPzKEVxVmmmfnv8AmbYqEOqLdxjotzDE5/4MKrn6Ww2ik6j/AOcm&#xA;fPyoFaz0xyP2mhnqf+BnA/DG1pbP/wA5L/mBInFLXTYT/OkMxP8Aw8zj8MbWkh1L88PzNvwytrDW&#xA;0Z/Yto4oqV8HVef/AA2NrTENR1jVtTl9XUr2e9l/nuJXlbf3cnAlB4q7FXYq7FUdpeua1pUvq6Xf&#xA;3FjITUtbyvETTx4EVxVmGnfnn+Z1iAv6X+sxj9i5iik/4fiH/wCGw2ik8i/5yY8/onFrTTJT/M8M&#xA;wP8AwsyjG1puT/nJnz+6FVs9MjP8ywz1/wCGnYY2tJFqf55/mbfqUOrfVYz1W2iiiP8AwYUv/wAN&#xA;ja0wvUdV1PUrg3Go3c17cHrNcSNK/wDwTknAlStbq5tLmK6tZWguYGEkM0ZKurqahlI6EYq+wvyD&#xA;/O0a9a/V7xgmsWqqNRtRQCeMbC4iXx/mHY+xGS5seT6Kt54riFJoWDxSDkrDuDkWS/FXYq7FXYq7&#xA;FXYq7FXYq7FXYq8U/PP82rPy3o0typWVwxh0y1r/AH9xT7bU/wB1p1Pt7sMlyY83xdDD5g83+ZhG&#xA;nK/1rVZiakgFnO5JJoFVVHyAGRZMim/KTV39WDSdV0zW9Utqm50qwuOdwoBoSodUV+P7XE7YaRbD&#xA;9S0zUNMvJLLULaS0u4TSSCZSjj6D+GBKFxVO/Lnknzf5llEWgaNeamSeJe2hd0U/5cgHBf8AZEYq&#xA;yPzL+Q/5teWtGk1nWfLs0GmxLzmnjlt7j01/mkSCSR0UdywAHfFWWf8AOOX5G6B+Zg1u41y9u7W2&#xA;0prZIksmiVpGnEpfk0iS04+mtNu+KoD/AJyG/KGz/LXzZYLpSyzeXtRgWW0a4bm3qwkLPEzqEr+y&#xA;/wDsvbFXun5ufk9+Wmj+X/K99oGgWtqJPMOlJO/FnMtrPIUaKT1S/JG5iqnFWf8AmTyj+Q+jXOma&#xA;drXlrQ7OXXZ/qWnH9HW6epPSoj9WOMcC3RakVO3XFXjnnL/nHvy15c/OryRPpNosvljXb8pdaTOB&#xA;PFHJbp6zJ+95c4pUUni1eh7UGKvRfO/k7/nGHy9d29l5p0vStKuLuMyW6FJIOSI1CQ0HEdT41xV5&#xA;/wDl3+Qf5Tee9S8539vG48vW2qrZaDNp9zIVVI7dJJSryGUOGaZT8VadtsVSj8zf+cQYNI8uXev+&#xA;TNXm1COxie4l0+8EbSSQxgs7RTxCNSyqCePD4uxrsVXjvk78lfzQ846adT8u6DLd6fyKrdPJBbRu&#xA;VND6bXEkXOh2JWu+KpD5p8n+aPKmpHTfMWmz6ZeU5LHOtA61pyjcVR1r3UkYqk2Ko/RtC1nW70WW&#xA;k2ct7dFS/pQqWIUdWPgPc4qy6T8n9YgaGzvNX0qz16dVePQ57nhc/GPgQniYxI9fhUv9OGkWxbTN&#xA;T1vyv5gS7tWaz1XTZirKwoVdCVeN17jqrDAl9x/kp+aNh5l0S3uo2CRzn07m3Jqba6H2l/1W6g+B&#xA;B8ckd2PJ67kWTsVdirsVdirsVdirsVdiqU+aZ7uHR5fqyMxf4ZHX9hD9o/wwhBfCP/OQjeZ388s2&#xA;rRGPTlQJoxU1iaEULEGg+MsfjHUbdqHEqEv/ACNDx+fY79hW006zvLq92/3SsDId9uPxON8QpYVL&#xA;qd4yxRJNIlvbcxaR8/7tZG5MARx6nrgSzuyj1vzl5Hls72NrzWNMpN5euWFZ57WAFby1R6VlMIaO&#xA;QIfiAPhSpQ85wJfZP/OFfmj675K1jy7K9ZdIvBcQqTuILxegHtJE5/2WKvWvI2qebtVt/Mdr5y02&#xA;K2jstSurOwnEZjhu9PAHpy8JGeoKkgnofvxV5f8A84eadZweW/Nl1YnlYya3JbWsgIYNFbxIyb9T&#xA;8Mw3OKp9+dHknVfP/wCSCy6jYG082adax6otp8LMlzFHW5gUoWBDrzCgHrx8MVTDzGf0z+Snli/U&#xA;8md/LV6hGwPK8s2Y/Fv9hz74qofnz5D8yeb9R8jw6LCWSw1hbrULrkFW3gTizSEkgk/D8IG5OKsg&#xA;86zWk35ifl9p7MDcpeahfiKlf3cGnTQlj4UkuUocVQ/5jeftL0DVYbDVPJOs+Y7VoEuRqGnaal/b&#xA;RM0jx+m7Oy8XXjyI8GGKoH/nH7SJLT8rEmjiOnXGr3mo3oheMI0BmuZEiDR/DuqInw/RiqA1ify3&#xA;+R/5JNo1xqhu7iK3u4dM9cAS3V3cF3okVWoivL8XUKvXfqqyHyZeSXn5NaPJ+X0ll9ZXS7ePS/rY&#xA;drZZokVZI5xEyvyDKytvs25rir5f/wCcjPzr1bzbb2XlHUfLo0TUdIl9TWFuOMkq3YBXhbOOkLIQ&#xA;3L9uo7CrKvDIIJp5o4IEaWaVgkUaAszMxoqqBuSTir1Hzi+r+TfJth5Z0r/RJWRX82Xdv9pru55S&#xA;Q2rzADdIkPwKen4lDz3TNZuLa6j+sSyyWL3EE97AHIMggao3/mCkhT2rgSm/5o288H5h+YFmPJpL&#xA;2WZGAoDHMfUjI9uDjfvhKAzX/nG7/FC+bJ20+IvobxFdXdyVjUgEwlTQ1k5dB4E/PEKX3L5envJ9&#xA;Jge7RklA41bqyj7LfSMSoTHAl2KuxV2KuxV2KuxV2KuIBFD0xV5T+b/5XaT5h0O4tZo+NpP8UUii&#xA;rW1x+xIntU9Po75IbsTs+UvMWmy/lx5LuPL8zofM/mSRhfvGaiLTYHKxqp/5eGBP+rsRtgSw7zr5&#xA;Zu/Lmo2mn3URimayt55BQ7vMnN9+/FyVPywJRfkPzINPvP0bd3TWen3kiSRX4qWsb2PaC9QAE0Qn&#xA;jKtPjjLCleJCqcfmH5aNyl35htrVbTULOf6t5r0uI8kt7pj8F1CRWtvc/aUjYHoSCMKGUf8AOI/m&#xA;f9D/AJtwWEj8bfXbWayYHp6igTxH51iKj/WwJfXmu+ftD0XzZD5c8xSQWNnqtk9xp17csqQSvAxF&#xA;3byNIeAKxsjivUEjsOSry/RPzV/IX8rNL1fR9D8wJeR3d7PqFpa2UUlysTTRonpiaNTEyq0fw/HX&#xA;jQb9cVec+Sv+czfMmn22of4s0/8ATlzI6Np31YxWaRrQh0chHJFaEGhPXFUBq/8AzlteXHlceXtL&#xA;8rQafaxemtqzXTzeikEgkiVVEUWycFA9hiqrcf8AOa/5itEywaNpEUh2WRkuXA/2PrLirA9E/P7z&#xA;xZfmI3nzUjFrOr/V3tIorkMkEUTkfDEkRQKBvt7kmp3xV6rZ/wDOceqpT655Rgm619G9eH5fahlx&#xA;VD3/APzlppEn5cnQtO0e8sNeijthb3AkjkgMkU8ckzM9UkXmqudkO5p74qzTzv8Amv8A846/mRb+&#xA;X49a1hxb6fqUVzNZTQTwsyvG8fpyuU4el6jI0hRz8I+nFXqHk38vPLug69e+YvKuovBoWtJ6s2iW&#xA;zxPpjTmn+lQBQfTJC0IRuJ+gAKvj/wD5yk8y6Fr/AObd7Po0qXEFnbwWdxdREMkk8QYuVYfa48gl&#xA;f8nwxVb+X3lyTy7ZWWtyRxv5s1tH/wAN21wQsVnaqhafVLkn7KRx8mWvbff9koYR518xQ6pfra2E&#xA;kkmj2LSfVZZv764llIa4vZ/+LbhxyNfsqFToowJW+UvLNzr0OuJbxGSWx06S8RqEgGGWNmHzaPmF&#xA;8cVZXpHl67/MvRtKisnQeYdGePT9ReQgc9Oav1e5PTl6FGjam5HHCh9fflT+W+kaBolrb20HGwth&#xA;+5V92ml/bmkPck/50AwlAelZFk7FXYq7FXYq7FXYq7FXYq7FUDrkkcej3jSAMvpMKHpUig/HEKX5&#xA;+a+1x5p/NGDUrg87HVdd/RltXp6VvJDGB3/3XMhPzwoZgPN2qed73z95ZuHF2Ginm8u2ciJyVrSW&#xA;gSI0Dc3RVNK9QffCh4cysjFHBVlJDKRQgjqCMiyepeU/MLXfl9dYaI3l95bgXT/Mdj1+v+XZ2ESM&#xA;wrUvZyMI+X8hj7IcVYj5h0698m+bIp9IvHEcZi1DQdUiNGeBzzglU7fEKUbb7QOKpde6p5n80apC&#xA;L68vNZ1O4cRwfWJZLiVncgBVLljucVRfmbyH5s8sxwy6zYNbwzHikyuksYcCpjZ4mdVcfyk1xpbY&#xA;/irsVdirsVdirsVZLoX5c+dNd0uTVNL0x57JCVSQsiGVl+0sKuytKRQ/YB8OuNLaSxajqlrBLZxX&#xA;U8EEhInt1kdEY9DzQEA/TirJfy28r2Or6rPqWsnh5b0OP67q8n8yr/dwDp8UrClPCvfCEFkPnzzJ&#xA;fxaRJfXdYfMPnKNZTApp9R0FG/0W2SlKfWnT1H/yFU/7sbAl5jFDLNKkUKNJLIQscaAszMTQAAbk&#xA;nFXvunebb7QPP3lPyPEyx6VDp9rYa1p8aJwe+uYT6juQK8uToTv4+JyTFgP5X3M3lz8x7G4jk/0U&#xA;aidIvBuBxuS0cfJvAspb/Y4Akv0OtTEbaIwgLEUUxqOgWmwwJVMVdirsVdirsVdirsVdirsVdiqU&#xA;+a6/oC7p1onTw9Ra4QgvgFVlsPy+8r+ZIlYyaX5kv0veR39f0bGeL3+JYmH+xwJS7z5HeaD+YF7q&#xA;GmXLwrdTfpTSr2FipMF3++jZGG/Ryp+RwlATrzzdXPmb8u/L3mq4VbjVYLm6sNbvo40RmYsr23re&#xA;mqjaMUB/riVDE/JXmZvLfmS01RovrNmOUGpWRPw3FnOpiuYG7fvImYDwND2wJZ/rPlJNRs7nybZX&#xA;kV1e6VOl95MuLiRYnv8ASdRT1hFGX4qXHwNxrsxYdsKELaWn/KtdL9Z4xP8AmFqkfC0tlAkOmQTD&#xA;iHYAH/SJQaKvb7wVUq8xE+V/Kc/le6na58w6zPDfa1GWDpZiLkYoSatWd+fKQ12FBirCrGwvtQuk&#xA;tLG3kurqU0jghRpHY+yqCcCWcWX5TT2zxL5o1KLSJ5qGHSYEa+1KQHccbaAnjXxY7dxhpFqusWP5&#xA;ZeW7v6hfaHrtzeBVdhfTQ2Z4sNmWONJGANNgxriqr5f0T8uvN162n6TomvW98sZk42UsF6AgYLya&#xA;N1jcirgUU1xVQ1j8mtZilmTQrldWmgFbjTJI3sdThFK/vLK44ye3wk1xpbYDdWl1aXD291C9vcRH&#xA;jJDKpR1I7MrAEYEvTLF7jzr5L0y30ad4PNvk5C1vYRtxN1bBwwmtwKfvoqCoG5+ZAwoQl7oj/mHC&#xA;NW0S3CebkKrrekKVjFxVuH16AMVG7bTL2O+KskttD0qx0/S/JNxdxHT7H1tf/MO4tZBJxjtSAtpz&#xA;XbmTxhVa/wB4y4q8r81eY77zJ5hvtbvQFmvZS4hX7EUY+GKGPwSKMKijwGBLMfL2o3/lL8sZtdsC&#xA;LLWdY1IWtjdmNGmNpDCxmaJnDcV9RuJK98KEF+VSyTedG8x6g7S2miRT6tqVxISSzRqSgLmtXklZ&#xA;adziFKM0KzlPkix1iQE3eqebbeOBgDzY20BeUqev2rtPpwJfoHpFf0VZV6+hFWv+oMSoReKuxV2K&#xA;uxV2KuxV2KuxV2KuxVD6haC7sZ7YmnqoVB8DTY/fir5DPkhY9e83/lPqrLZR+aZRrHk27m2iTU7d&#xA;m/0evYyK7RHvQCn2hhKA8yjtBqFq3kLzZ/uG8zaJJJFo97d/Aq8jyayuW7Rs3xRP0Ff5TuqhNLm/&#xA;MLyFqE1jLpj/AFe+KxXWm3kPr2d2CaKNqo9SaBkbFUN+auiWGi+criwtIEtGWG3ku7OJmaKG4lhW&#xA;SSONmqSgLbYlQkdpeau81jd/W5U/RhRLGcsWaHhIZUSAE9RI5YKvc1264Es5e9PlXRrTzVcsdQ82&#xA;a+JJ9LmmPrR2iBij3MjkFZbquwX/AHX3FdsKEr0zybbLYDzT55vpbHTbxjLbWy0fUdQZjyZolf7K&#xA;mtTK+331xVk3lTU9e8xtc6f5Qt4PJflS0Tnq2rRkmZYgK1mvHo7uRXiqlfuxV65+Unl/QbTTbnVt&#xA;IhJtL6QpZ3swJubiGElWuJXYcqzS8mC7Djx2rXCEF4n/AM5E/wDkyZv+YW3/AOInAUhMP+cYmK+f&#xA;r5lNCNLlIPuLm3xCl9W/mgvlyTQdK8zeYbGK+0G1dI9Z5oTJbQXRCfW4JIx60clvNxqYyDwL9wuB&#xA;LBPPX5LNqejR6no4j88aBJEJra2uZVXU0hccg1jqKcfWWhqEm3P8xw2inzhrHk7UPLk3+KfKF5PN&#xA;aaZNS4WVPR1DTplNPTvICNv5eVOLfLqqm95JHr+hyfmHoAfRdc02dE1m3gJije5moq3Fk/TnJX95&#xA;D+0Ou9CyrzWWfUokuXW5ke31D4bqVWbjNRxLxl8WDqGo3ff3wJZJ+VukW2pa7eCSxj1O5tLCe70/&#xA;Tp+Xoz3EJUhHCUJHAsQOhNAdsIQW5oPP/wCYmpxSrZtNDAgig9KMW9haQjegO0cagb7mp98VTaSz&#xA;a5jtfyy8iKdY1DUZ0bWdRgHw3c8e6Rxseltb7sXbYn4th1VeqaV5KttW/MTyl+X+huLzRPy6Qza1&#xA;qUe8Uur3Egmno37QWSNQK7gKw7YhS+tY41jjWNRRUAVR7AUGBK7FXYq7FXYq7FXYq7FXYq7FXYq7&#xA;FXnn5vflLpvnvRjHvb6lCRLaXke0scq/ZdDUb7UIqKjuCAcKHz35r1qeGFNN/Onyi/mGCzX0bPzt&#xA;pB9K+9Nfsid/gWQivSUr40YktjS2ldl5y/J/RLRP0B5y8321qteOlNDay8BvQJ6gMS42tMG8zXcP&#xA;mXUbzXNG0bVtYCR87nU9S4uqxwpQu6WccSAqFrVpCO3HFWb/APOLtt5X17zNq9nrNnHc+Y47Vbry&#xA;7cSV4xegxM0UUQ/dBiGVlovw0amIUr/zI13yV5b81X2lXtkus2TEatBpoNFtNUaoKMdv3NwtHkTf&#xA;ftvhKA820mw8z/mf54WOeYvdXJ53M9P3VtbJ14qNlRAaKvcnxNcCeT0r84dOXR7Typ+XPlj/AEaC&#xA;+lDToPtTSGRI4XlYU5Vfkze4HgMJQHuel6dbaZplpp1qvG2s4UghX/IjUKPwGFD5f/5yJ/8AJkzf&#xA;8wtv/wARORLII/8A5xj/AOU9v/8AtlS/9RFviFL7N0nT7LzB5KvdEv19Szu457G4Xv6cykGn0SbY&#xA;lQ8f/wCcUPMWvw6n5w8i63IDNoVwrQRBeKo6u8F1xA2AaSNX92Zj3OBL0D81fys/TgfzL5aSK285&#xA;WsRQcwBBqNvT47K8X7Lq67Kx3U03pirwT8u9S8s6350g0GCxbQ7fy8rXNp5elrzk1VyRcyPX7Rtf&#xA;sRqd/wBralBIMSxj/nJeDyvoXn6DS/L1nFbahDaJJ5ieM8oprqf94EeE1jqqcWqF35VO4rkWTHfK&#xA;1/b+UdUj1LW9J1rQJJYiq3unBADHJQgpHfRyA18fVphQzDUfNv5Na1bFvMPm/wA3ajb8uX6JWK2j&#xA;VqdOYUJET4GuNrSd+Vb/AFfVLZtE/J/ys3k7SL+kN95wvyZdTmjYiqwyk/DX+WMnfcMnXGlt9H/l&#xA;b+WWjeQfL0em2S87hvjurlt3kkanJmbuTT9Q6DFWaYEuxV2KuxV2KuxV2KuxV2KuxV2KuxV2KvkD&#xA;/nI3zp5j8vapoUmiX8tjNKb17hUoY3HKHhzRwyNx+KnIbVyRYh5Efzj85H4wNPFwTX60LC19SvXq&#xA;Y6bHfpgtNIry3+b/AJrHmvT7vX9UmvNJ5+jfWbELbmCUGNz6MYWP4Vao+Htja0g9RfW/yw/M17nR&#xA;pfSutKuDPpsx+NHt5Vqgb+ZXifi+/jgKQxC+vru/vZ728lae7uZGmuJn3Z5HPJmPuScVfTn/ADjv&#xA;5Sj0nyd+mZU/07Wm9Tkeq28RKxL/ALI8n+keGSDEq3mHQJ7/APPny7eyUe0s9LluAncNDJInIjt8&#xA;dxGQfbHqvR6fhQ+Vf+cif/Jkzf8AMLb/APETkSyCP/5xj/5T2/8A+2VL/wBRFviFL7L8hS1jvIa9&#xA;CjgfMEH9WEoDz/yd5TudK/5yj85ajEBHp9/osF0Y6gEyXMsS8gOpHqWk1T75Fk9sxV8r/wDOVnkW&#xA;78ta/pX5q+WAbS7S4jTU3iGy3SfFb3BHT94F9N67Gi1+0cVeDaA0/nX8wbjWvMUnqQNJNrGvTU+E&#xA;QQ/vZFAJ2Vto1HaoGIUr5Pzi/MFdTvby01eaGK8lkkFm/GeGNZGJEaRzK6BQDTYYbRS9vzl868R6&#xA;ZsYZgSfrCWNqJKnvUxkfhja09p/5xm80a5r8uqT6zezX1xHeWpWWZywVX5fCi/ZUVWtBhCC+ssiy&#xA;dirsVdirsVdirsVdirsVdirsVdirsVWyuEjdz0VS33CuKvhf/nKG65eZNGta/wB1ZvLSv+/ZSv8A&#xA;zLwlAeK4EuxV6LrzJ5q/LTTte5g6v5XKaVqlacntZCfqcnvQ/B7mpwoedYEvufy1Yx2Hl3S7GL+7&#xA;tbSCFKeCRqv8MmwY3oco1D81PMtzWq6RY2OmxkGorNzupPpFVBxVmuKvlX/nIn/yZM3/ADC2/wDx&#xA;E5Esgj/+cY/+U9v/APtlS/8AURb4hS+u/JVyItXMRO08bKP9ZfiH4A4SgILzJONJ/Pbyfd1ovmLS&#xA;tS0iU9uVo0d7FX3+2B9ORZPScVYt+aXliPzR+XfmDQnQO93ZS/VwRWlxGPUgan+TKinFXwZKh8u/&#xA;lrEV21DzhIWZwQeGn2T0CVHQyzbn2XfChg+BLsVe9/8AOKV6Ir/X4SdyLOZQT/vtpQdv9mMIQX2z&#xA;gS7FXYq7FXYq7FXYq7FXYq7FXYq7FXYqg9Zl9LSbx+4hcD5lSBiFL4G/5yLvxc/mRLDWv1K0t4CP&#xA;DkDN/wAzsJQHmGBLsVZ1ZVtfyW1KZdjqOuwWrbjdYLZpunXYsMKGC4EvsO081J5e/LbQLy7jku9T&#xA;n0+zhtNPjBM9zdPbrSNQATUndjTYZNiu/LLy/wCYtOtdV1PzGIo9Y1y8N7PbwnksKcFVIiakVWh6&#xA;E/M4hBZnir5V/wCcif8AyZM3/MLb/wDETkSyCP8A+cY/+U9v/wDtlS/9RFviFL6htLmS1uYriP7c&#xA;TBl+g9MkxVvzZ0TzP5k0jQPMnkcwTa/5ZvxqMFlcMVEyekyS29agBmqBuRUdGGQZss8g+eLDzhoS&#xA;38MMllfwMbfVtKuAVuLO7QD1IZFIU7VqrU+JaHFWSYq/Pv8AM/TRaeUdLs+PE6FrWtaVx2BCrch1&#xA;UigIp2woeX4EuxV67/zjPfej55vLVjRbqwk4jxeOWNh3/l5YQgvvCwl9axt5f9+RI33qDgSr4q7F&#xA;XYq7FXYq7FXYq7FXYq7FXYq7FUl84T+nocq95WRB9/L9S4Qgvzv/ADT1L9I/mJ5guQeQF5JCprWq&#xA;2/7kU9qR7YlQxXAl2Ks7uVjH5I2RQ/E3mGYyb1+L6mo+j4QMPRHVjflLQZNf8zaZoyEj67cJE7Dq&#xA;sdayN/sUBOBL7Rg0Sxi1AX5QPcRRC3tCRtBCAKpEO3IirHqdh0AAmwTDFWM6v+ZHlHTNUbSJLqS6&#xA;1dRVtPsoJrqYdPtLCjhTuNicbWnhv5q+UvPXnPzm2raH5S1yWxlgijjll026iBManluycfxyJZBE&#xA;/lD5e86eRPNd1qPmHynrsNpNZParLFp1zIBI8kUi7haU4xnoeuIUvbdB8/8AlnW79tNtZ5INTVPV&#xA;Nhdwy20xT+ZVlVeQHfjXJWxpldhqN3YTia2kKN+0P2WHgw74qy7Rk0rU9UXXbUC01gRi31EJ/u+E&#xA;VKLIP2gjGsbfaXcdGYGJDIFkuBL4R/OQA6L5iYrRl896yqN4glyfxH4YeiOrxnAl2Ks4/JXUv0f+&#xA;ZuiSE0SeR7Zx4+vG0aj/AINlwhBfoP5Xn9bQrU90BQ/7FiB+GJUJrgS7FXYq7FXYq7FXYq7FXYq7&#xA;FXYq7FWG/mZqkdjpayyH91bpLdSjp8MKV/VXCEF+cNzPJcXEtxKayzO0jnxZjU/rwJU8VdirObAf&#xA;Xvyc1W3jp6mj6zb38vj6V3Abb/iaLhQxryzr955e1+x1qzVXuLGUSKj/AGWFKMpp2ZSRgS+idJ/5&#xA;yV8j3SINQtrzT5jT1PgWaIE9aOjczT/UGStjTONC/MbyPrpVNL1q2mmf7Nu7+lMa+EUvBz92G0Uw&#xA;P/nHa4a6m83a4hYT6hqHxTg7spLy05deslT9GAJL2JpZWrydmr1qScKHpHl1+eiWZrWkYH/Amn8M&#xA;iWQeV/8AORcENtc+Qdc4KJ7fzDBYev0cRX0UiutdvhPpiu+ISUTkmCK0zVP0Zex3jOI4kIExY0HA&#xA;mjA1xKhlMn5p/lwmrW+kDzJp8upXLFIrWGdJm5AFiH9MsE2U/bpkGb4g/M3VBdeVdMuCay+YNW1f&#xA;XGrUsEmn9OMmp/bAJwoeZ4EuxVG6LqD6brFjqKfbsriK4WnWsThx/wARxV+kHkG7SbTZkRgyq4kQ&#xA;j+WRRT/iOEoDJ8CXYq7FXYq7FXYq7FXYq7FXYq7FXYq8R/5yX1n6l5M11gaEWS2gFaVN04ian+xl&#xA;w9EdXwzgS7FXYqzj8t63Ok+dNMb+7m0Oa7p2L2Uscq/cOWEIKf8AmTQtMi026S50dYf0NoNtcJfh&#xA;iDPcypYWRSgp/c3cs7b/AGvkMCWApYeWv8Iy376k/wDiQXqwQ6OsTcDaGPk1y0xHDZxw4A179MVQ&#xA;lrY2FwictQjtZT9tbiOUKD7NEs1fpAxVOfLHnHzl5bnOnaJqwsI7iUM/xQvAXNFDs7h0psKn78UP&#xA;SNW84/8AOQ3l3SRrGrtAdMBUC6I0+RX9TZKC3bkQe1Bh3XZllz+Yv/OSOm+V7jV7Zox5f0+BJZ9T&#xA;hOmxqgkO4EVykk3NZGMfGhJI2GBLAtU/Nfz95404ya5cxtpdpOs8dxfXLWtslzHupjW0EEskqBtl&#xA;jqVrWmKpevnPzpqAH6Mt5dYnGyG1l165VRxIY0nuSKnqfgP0YqyQ2d8fL+iX+sazDpuqTXvp67o1&#xA;za6fpd1bWPNqyQXFwqzykqNlBJqem1cVSbSreCfSfKk1tYrMttf/AKKv9bjfgRCl5IkkbKQOQlh1&#xA;SIV2I4iu2Ksf/NhWt7/y/phHH9G6HYQsvT94yGWQ08S0mEoDBsCXYq7FX3z/AM4+6ydQ8paRMzcm&#xA;n02ESMdyZIAI2P3hsJ5IHN63gS7FXYq7FXYq7FXYq7FXYq7FXYq7FXzH/wA5b3pTyxcpyp9Y1G3g&#xA;I8QkTPTb/jFh6I6vkfAl2KuxV6L+U2mvdad5paOqyXVra6OjDb4tUvI4QNwf5cIQWQfmtqccuj67&#xA;cxbJe31lb2q70EE5vNWlUV8DdW/X5YEovUvJWiah/wA4uaT5g0exin1zS9TkbWr6GJTcC2dplKyu&#xA;Bz4IWipU0A3xV4firsVem6J+Q35ma3p9rLxhtraUK9rDdTmoWT4gwSMS8a1rTY+2GkWybzv+Uf8A&#xA;zkB5X0G91nULmK90lAbnUjZTRyKq8uRd4mSMsATX4VNOvTAl5BF5o8zQxCKLV72OJa8Y0uJVUVNT&#xA;QBqdcVUb7Xdb1AEX+oXN2DuRPNJJUk1/bJ74q93svIOmWX/ONOpatcaXBB5mg+r6jHfyRAXKp9eV&#xA;RHzI5hWhYHjsPHxwoUtchmt3/MKwVPTkjmi1e0jNQf8ASYBqMzkCn2JNNRT7nFWG/n7bQDzLpt3b&#xA;b201gIFfxa0nlgP/AAqLiVDzHAl2KuxV9mf84oXrSeTtHiJJ9KS8h38Oby/8bYeiOr6IwJdirsVd&#xA;irsVdirsVdirsVdirsVdir5k/wCcttPeTyvdSBai11C3uCfAPG0dfvlph6I6vkbAl2KuxV6R+U+p&#xA;m10jzKIU9W8shp2uQwdOaaTdiaVf+AfChOtQu9Ot4Bd+n+lLPy7qdlq7W7H4rnTri2gs/X9gktrF&#xA;8Lf78WtRgSlsfmfzR+VHnJtW8q3fLQNYX63YpubW6s5DVUdOnOKvE91Psdyhlw/5ytl4ty8sIjSb&#xA;zCG7WFGY7k8EtqbnG1pCaB5p/JzzxrsNrrPluPRNSuZlaKaOQGGaTkD6cjosVDIf8jfpy33VQv5s&#xA;/mx5gsvzFhs9PdrfTvLk8bC1U8BPIFBk9Sn7JVigHhv3xJUBlX/OM/5qa1r3mK//AC98zudU0PzJ&#xA;FeOqSkkwySI0k6KSa+lKvP4ezUIpU1CXn17540fyZqkunad5GtLHXtMleC4n1KR7uRJkYg8Rxh6f&#xA;ssOo3w2iljf85DeeJJvWntdMnkX+6aS2JKbU+E+oD3xtaUNB1zzh5+1+Ya9q0n6AhVLvXyT6dsln&#xA;auJOHppRfiYDivdqE144qitS/MGXUvNfmzXLiJoIZtNks7a2FAUDhYoPVqft8n+Nfduy4qhfzouo&#xA;frHl7T0ryttOE7hq81F3K8yI9d+QjK1+eJUPN8CXYq7FX2b/AM4o2EkPk/R5SCPWe7uKH+Uu8Q/4&#xA;jh6I6vofAl2KuxV2KuxV2KuxV2KuxV2KuxV2KvLfz08qHXfLmoWSKC+oWjxxV6fWIvjiJ/2YX7sk&#xA;GJfn+ysjFHBVlJDKRQgjqCMiyW4q7FWQeQvMSeXvNdhqUw52Ycw38ZFQ1tMDHMCO/wADE/PEKWX3&#xA;8MflzW73SLtvrEWkSS2ssQZS9zpF3HyPGp+ORbdg6sfsemlMKEkjvbiLQNU8pasn1uwsJPX0rUY9&#xA;xazufhdWND9XuxQGu1SrfNVheBLYJBBBoR0OKvp+HRvMVnptr55bSfV1iSxih81aHcCN3vYoFH+k&#xA;REcuMwC8uDdfs0qN5MWXfk15DsrDzg3nPW7aHT9a1T+5sIF4w2cbIFSIUAHqtxHqPTrWnU1aW2Y/&#xA;n7+UPl3zn5O1XUVsEHmiwtZLjT7+JQs8jQIXEDsP7xXC8QG6VqMiyfB15pN1Z2FleXFEXUFeS1ir&#xA;8ZiRzH6pHZWdWVfHifaqrPdB1TT9O8l3McIV9OsvSu9WlYU+v6pJU2VkAftwW9DJIP2uLdiKlCXe&#xA;T9Ei1fXNK0u+kVoJ3bWdfmY1pbwq0gRya7+lyao/35v0xVjvm/zBL5i8zajrMgK/XJmeJD+xEPhi&#xA;T/YoAMCUnxV2KqttbzXNxFbQKXmndY4kHVmc8VH0k4q/Q38n/LUei6Hb2iCqafbRWaP/ADMqgyN8&#xA;yRX6cJQHoWBLsVdirsVdirsVdirsVdirsVdirsVSzzHppv8AS5YkFZo/3kP+svb6RUYQgvgf89vJ&#xA;Enl3zjLfQR8dL1lmubcgUCyk1mj9qMeQ9j7YlQ82wJdirsVej/mGmk3PnfSNW1ZpF0bXNNsbma4g&#xA;ALqptxAzKNwWjaOpX6MJQEt0G41jQUs/NUlrFqegyBtMvLZiAZ7Z/UAjnFCfiWFuDb8eA8BUKxfW&#xA;W0ttSnfS4pYLCRudvBOQZI1YV4Fh9oLWgbuMUst0qDyZeWVjFckeX9e8v29/canJcKZYdQltmWWz&#xA;t1jLoyzSMZIn7AKOtaBV7jH+ccVvEjXj6RdtJaLfEWOqW6+ko5+pbuLgxlrgemOCJ9rkPs95WxpF&#xA;Qfmjql6kcul2unRyC2e9jSfUIpvWKH4LaP6tzKTtxIKyAcTTqNw2tME/Mfzf53uLX9L+YJLvW79b&#xA;G2u/L+oranTbfSZZ5/UuPgU/HPEYUjU1Jox5eGRZMD896HC+uR2z6pZW1jpdnbafbyPL60sgtoQJ&#xA;WMFp9ZkiLSc2pIFp3xVFeXtNs7rTdO0uGGSXS5rm+uU1m7jUQrNBbRF+VqkjCicY1SSaTh8bckPZ&#xA;VV8rx6TZ63541XTpC+kadpF5FbXLUo010FgirxCrWR2bZfh/l2phQ8ywJdirsVesf848+R5db81j&#xA;W7iItp+jMGjNNnu2/ulHjw+2adDx8cIQX3domnjT9Nhtz/eAcpT/AJbbn7umJUI7Al2KuxV2KuxV&#xA;2KuxV2KuxV2KuxV2KuxV5Z+cP5X6b5m0W5t7iM/VZz6glQVe2uBXjMntvv8AMjvkgxL4e86eSNe8&#xA;oas2n6rCVBJNtdKCYp0B+0jfrHUd8iyY/iqIsNPvtRvIbKxge5u524QwRKWdmPYAYq9G89afHpHk&#xA;HTfLl6x1PXdHuWe5u7f4oNOjuQT9SkmFQ7s6Fqdvl1JQEl8n+XbXVfL+pXWk308Hm3Sq3cengBku&#xA;rVQob0gPi5x/GWG9RTbriqnq9x5kufLQ0x/qur6VpXp3UWo2w5yW0dyWAj5DgyR8gQyMlFNBt8OK&#xA;u1y807TPPd/NqWlQ6xpVxf8A6QWEyzQmezuCZoxHNGwdFmilVqkEjb3GBKD1O+8iy6JDBp+m3UGr&#xA;pZ2qy3by8o2vEllN0/As37uSJowoAFGX3xVlGsS/l+yfV9YtfQ12HRxHLdepccZb42VqLOQJGrrR&#xA;OMhkJ+2zbjbFUNex+QpbS8Ftod7FqF+Xh0SC2jmkgink4CKNpJ5FllbY067knj0Cqp/rXnCQaU2g&#xA;Q6fZx2UcJN7q11MUg1F7Qqk7qLdIp5ka4qIwJGDd60OFCR/mHHc2nlzTBquqyNr+qFb250KCNLe2&#xA;trdw7IZ0SheduS8Wf4gKg9jiqpoOnT6x+Wp8vaPGbPWbq5a/lhnBX9LQwAqqWkhorNAesXc/ED2x&#xA;V5xLDLDK8UyNHLGSskbgqysNiCDuCMCVmKsn8hfl9rvnPVls9PjMdqhH12/YExQofH+Zj+yo6/Lf&#xA;EBSX3P8AlR+XOm+WtGtILaEx2dqtbcP9uWQ7tPIdqkn+zYDCUB6NgS7FXYq7FXYq7FXYq7FXYq7F&#xA;XYq7FXYq7FWmVWUqwBUihB3BBxVgfnf8rNG8wWEtrLaRXdpL8T2Uu1G3+KJ9ijb7UIp44bRT5g88&#xA;/wDONA0ueW70/WItP06NuV1HqtY/QjruwlUEOB2DAf6xxpbTb8uvy+v76BrPyHBNZ6VIOOqeeruP&#xA;07m4j6slgj0EUZ/nb8SMVZH5i84fkH5C8qXHlYFPNM0qNHPpWnuHiaRgKyXN79kych9peTKR9nYY&#xA;2tPl3S7rUrfWYLnQ/Wiv0l5WIhJeYNX4VHEDkabH4d/DAl7/APlf+cPk65E2n67ZWmha1dGl7drE&#xA;kNvdv0LSkAcHO9Q+3vvTJAsSGNfmZ5I0jRrtVubeW50QJJNo89q6rJHaSP6s0KFgyP8AVpHMqIR8&#xA;Ubv8Q4VAISCknmL8ub+z8gy+Y9N1XT9Z8uUieO6eD0r9ecqxBAeLt8LNxZWk27DGlt6Vpeha3p+g&#xA;Tecm1DR/LWhQW8aTa6LJrvV3ZUWIwKspWNpGdCqKu1KcsVSj8u9KTzp5nfzXfNePpOnoUtZNTnE0&#xA;jkE+pO3wpDGG3VViWi0b4uahmQpRv5mfm15Phkt9N8uafa69r9swTT7oQpNDayGgHomh9R+nEJ8N&#xA;ab7UwkoAeB3GoXFxr7X3mBZr6ZrgPqMUjmKaSjfvIy5VvTJA4/Z+HwyLJ9UaX5k/Ij8zPL9roVpc&#xA;L5Zv4AgsNKvHFs8EqDijWV1unKv2fiqe64bRTBPzL/LW/s5fR88wtBKKR6f55tYi0Uo6ImpxJWh7&#xA;esvtWu+KteQP+cZP0hJBd6zqMeoW8lHhtdKYyRyp1DG4IX4T/kr/ALIY0tvqHyd+Wmj6DZQ26WsV&#xA;vbQ/3VjCAIwfFz+2x7/jXG1pmoAAoOmBLsVdirsVdirsVdirsVdirsVdirsVdirsVQN7rml2Tcbm&#xA;fg/8vFifwBw0i2Aebf8AnILyH5bEi3L3Es6V/dpBKakdaMquv3kY0tvE/Nv/ADmXfXRa38vac1vE&#xA;231q4oCP+eUb8j/yNXFXlepfnLf3t0t7d2KaxfoecUurubi2if8AngsYhDbqf+MnqH3xtaUNU1z8&#xA;5/P4W2uW1PUrSvw2kMTRWSb/AO+oljgWniRirL/Jf/OKPn3WeNxq/HTLT7TRpxlmI8AaiIf8Gflj&#xA;S29A1P8AJHVPLmlfVPJM8eiai68bjULyFpLub2W6qfRU9xHFhpFvOfNWi6mqFvzI8rzSSKPi826F&#xA;w9QgCnK5jA9J/m4Q0wJY+nlqC8sfqflnz5Z3GnBvUTTNTkksGV6EUWOYPEWoxUlSKivY4qjLDyV+&#xA;cFn5W1LyzZ6fBf6LqbxySiK5tpuLxsGDxcJgVq0a8qrTbFU2866b+c3mjR7HRNT0+10fQNNmnuba&#xA;3ku7aKrTuTznZpayMnIhW4DauNLbH7jRLW0sFsfM3ny1j06KnHR9HMl7UqAtGWMRwK9FpyYnFWR+&#xA;WNC8wSQgflv5ZfS45VKnzXrZX60yMKcoQRxjBGxMSNir0iP8j7nzXpKxebjHqeuqAq6xpsBt51AF&#xA;KSybpNTsXjGGkPMPOn/OLX5gaEzy6aq6pablRtDMB1oQxMbfQ9fbBSbY7pXnD86vIcRsVk1G006h&#xA;RtNv4GuLJkAoVWK4WSKhG1U+/AlE6T+dd1pt0bzTNPGgXrtyl/REjLYu3d30+cypyP8AxTJFhtFP&#xA;VfKP/OaE0XGDzLpbSqNvrVrQ136+m7Ar/wAG+KvbPKf58eQ/MoUWUs6St1R4JVAO23J1SvUdMaW2&#xA;cWWtaZetxtpvUbw4sKfeBgpbRuKXYq7FXYq7FXYq7FXYq7FXYq7FXYqtkjjkXjIodT1VgCPuOKoK&#xA;TQNFk+1ZxD/VXj/xGmG0Ug5vJXlad+c2nxyNSlWLnb78bWm4PJfleBi0OnxxsRQlS42+/G1pH2+k&#xA;aXbmsNrErDo3EE/ed8FppF4q06I6lHUMp6qwqD9BxVJNR8oaTdgmJfq0p7x/Z+lOn3Uw2ingH5s/&#xA;8426VqAlvNOij0rVWqY7mFaWkzdaSxqPgY/zKK9/iw80cnytruhatoWqTaXqtu1re25pJE1DsejK&#xA;RUMp7EbZFkq+WvLOs+ZNWi0rSLc3F1LueyIgNDJI37KrXc/xxV9X/lN/zjjo+lLFeXMSajqa0Mmo&#xA;XC1hibuLeM7VH8x3/wBXpkuTHm930/ynpNoAzp9ZlHV5dx9C9PvwWmk4VVVQqgKo2AGwGBLZAIoe&#xA;mKoKfQ9InJMlpESepChT960xtFIGbyT5WmfnLp0bv0qxc7ffhtabg8l+V4GLQ6fHGxFCVLjb78bW&#xA;kZFoWjRbpZxVHQsob/iVcbWkaqKihUAVR0AFBgS3irsVdirsVdirsVdirsVdirsVdirsVdirsVdi&#xA;rsVdirsVdirsVWTwQ3ETQzIJInFGRtwcVeA/n1+TEHmDTj9WVV1OAM+k3bbV7tbynwPY9jv4jJc2&#xA;PJHfkZ+Ttl5d0lYnAe5k4vq14P8Adso3ESHsiV/j1OPJeb3GKKOKNY4lCRoKKqigAGRZLsVdirsV&#xA;dirsVdirsVdirsVdirsVdirsVdirsVdirsVdirsVdirsVdirsVdirsVdirsVdirsVQup6dBqFm9t&#xA;NsG3Vu6sOjDFV9jZQWVrHbQCiRile5Pcn3OKq+KuxV2KuxV2KuxV2KuxV2KuxV2KuxV2KuxV2Kux&#xA;V2KuxV2KuxV2KuxV2KuxV2KuxV2KuxV2KuxV2KuxV2KuxV2KuxV2KuxV2KuxV2KuxV2KuxV2KuxV&#xA;2KsNT8xlaS2V9NkjS4htr0zNIGiisrvkIpZXjVxG9Y2qGogp/edKqpXF+cdu+mW2oPpbrFcRRzog&#xA;kYs6TJHIvpcolDlBL+93AXi1C1MVTm489XVsY4ZtIl+tzxtNBT1khMaMUkaSSaGGSPg5jUgx1PqL&#xA;x5DkVVULn8z9Ms78afeW5hu41ka9USxssQilKuwNQzp6MM03LiKLHRuLMFxVDaf+b2k3cUNwbGeO&#xA;zeKR7i8DRvFBJHIY+EhU13LRHkBQCRCduRVVNZvO/Dm0enu8IuLewjdpY0LXd0kLxrxbcRhbgVf7&#xA;WxohFCVUFbfmlpc19+j2sriO+N8mnLHRWRpBMsFw6uDThA7DkxpXklN2pirNcVdirsVdirsVdirs&#xA;VdirsVdirsVdirsVdirsVdirsVdirsVdirsVSvzVdTWnljWLuCQwz29lcyxSilUdImZW322Irirx&#xA;GHX9XXTLXVp7nzFFDN6Mks01xcLpYiuDDREnqH5KJiqs01GdSCBWiBDEpPPHngaTePFrl094jr/e&#xA;Xkq8UKA/uQs7EkzFo2HGTiihwz8sVX/4587cuVxq11bxCzd0Zb6VgSqn95K3rsI5QN+FetBx3xV9&#xA;CL/yq/0vg/QnpfWu31Tj9c2+j1un+V0wpRtz/gn9Ew/Wv0b+iPQg+r+r6H1b6vzX6vw5fB6fPh6d&#xA;Nq0pirSf4I/RzcP0Z+jfTm5U+r+h6XJPXrT4OHLhz7V417Yqttf8B/o0/Vf0X+jfV39L6v6Hrcf8&#xA;n4OfH6aYqqQf4M+qz+h+jvqvpTfWuHoen6PCP1/Uptw9P0uddqca7UxVBz/8qz+sXH1j9C/WPQb6&#xA;36n1Xn9X5/F6ld/T59a7VxVMtP8A8Mfo9f0f9S/R3qQ8Pq/pej6lI/q9OHw8qel6f+xp2xVNMVdi&#xA;rsVdirsVdirsVdirsVdirsVdirsVdirsVdirsVdirsVdirsVQGv/AKJ/QWo/pin6I+qzfpHlyp9W&#xA;9NvWrw+KnCvTfFXzjc/9Cvf4Vg+sfpr/AA36h9Dl+lPQ503p/sfwxVk+m/8AKlP075f+pfpn9K/o&#xA;wf4er9cp+jvqif3XP93T6twrX4qe+Koe7/6F9/wprv1v6/8A4a/SU/6dr9Y9P6968Pr/AGP3lPW9&#xA;Gvp/D0pir//Z</xmpGImg:image>
               </rdf:li>
            </rdf:Alt>
         </xmp:Thumbnails>
      </rdf:Description>
      <rdf:Description rdf:about=""
            xmlns:xmpMM="http://ns.adobe.com/xap/1.0/mm/"
            xmlns:stRef="http://ns.adobe.com/xap/1.0/sType/ResourceRef#"
            xmlns:stEvt="http://ns.adobe.com/xap/1.0/sType/ResourceEvent#">
         <xmpMM:OriginalDocumentID>uuid:9E3E5C9A8C81DB118734DB58FDDE4BA7</xmpMM:OriginalDocumentID>
         <xmpMM:DocumentID>xmp.did:1412731713206811822A8451A1857300</xmpMM:DocumentID>
         <xmpMM:InstanceID>xmp.iid:1412731713206811822A8451A1857300</xmpMM:InstanceID>
         <xmpMM:RenditionClass>proof:pdf</xmpMM:RenditionClass>
         <xmpMM:DerivedFrom rdf:parseType="Resource">
            <stRef:instanceID>xmp.iid:1312731713206811822A8451A1857300</stRef:instanceID>
            <stRef:documentID>xmp.did:1312731713206811822A8451A1857300</stRef:documentID>
            <stRef:originalDocumentID>uuid:9E3E5C9A8C81DB118734DB58FDDE4BA7</stRef:originalDocumentID>
            <stRef:renditionClass>proof:pdf</stRef:renditionClass>
         </xmpMM:DerivedFrom>
         <xmpMM:History>
            <rdf:Seq>
               <rdf:li rdf:parseType="Resource">
                  <stEvt:action>saved</stEvt:action>
                  <stEvt:instanceID>xmp.iid:F77F117407206811822A8451A1857300</stEvt:instanceID>
                  <stEvt:when>2013-10-06T17:09:14+13:00</stEvt:when>
                  <stEvt:softwareAgent>Adobe Illustrator CS6 (Macintosh)</stEvt:softwareAgent>
                  <stEvt:changed>/</stEvt:changed>
               </rdf:li>
               <rdf:li rdf:parseType="Resource">
                  <stEvt:action>saved</stEvt:action>
                  <stEvt:instanceID>xmp.iid:1412731713206811822A8451A1857300</stEvt:instanceID>
                  <stEvt:when>2013-10-06T23:41:17+13:00</stEvt:when>
                  <stEvt:softwareAgent>Adobe Illustrator CS6 (Macintosh)</stEvt:softwareAgent>
                  <stEvt:changed>/</stEvt:changed>
               </rdf:li>
            </rdf:Seq>
         </xmpMM:History>
      </rdf:Description>
      <rdf:Description rdf:about=""
            xmlns:xmpTPg="http://ns.adobe.com/xap/1.0/t/pg/"
            xmlns:stDim="http://ns.adobe.com/xap/1.0/sType/Dimensions#"
            xmlns:xmpG="http://ns.adobe.com/xap/1.0/g/">
         <xmpTPg:NPages>1</xmpTPg:NPages>
         <xmpTPg:HasVisibleTransparency>False</xmpTPg:HasVisibleTransparency>
         <xmpTPg:HasVisibleOverprint>False</xmpTPg:HasVisibleOverprint>
         <xmpTPg:MaxPageSize rdf:parseType="Resource">
            <stDim:w>209.999929</stDim:w>
            <stDim:h>210.001308</stDim:h>
            <stDim:unit>Millimeters</stDim:unit>
         </xmpTPg:MaxPageSize>
         <xmpTPg:PlateNames>
            <rdf:Seq>
               <rdf:li>Cyan</rdf:li>
               <rdf:li>Magenta</rdf:li>
               <rdf:li>Yellow</rdf:li>
               <rdf:li>Black</rdf:li>
            </rdf:Seq>
         </xmpTPg:PlateNames>
         <xmpTPg:SwatchGroups>
            <rdf:Seq>
               <rdf:li rdf:parseType="Resource">
                  <xmpG:groupName>Default Swatch Group</xmpG:groupName>
                  <xmpG:groupType>0</xmpG:groupType>
               </rdf:li>
            </rdf:Seq>
         </xmpTPg:SwatchGroups>
      </rdf:Description>
      <rdf:Description rdf:about=""
            xmlns:pdf="http://ns.adobe.com/pdf/1.3/">
         <pdf:Producer>Adobe PDF library 10.01</pdf:Producer>
      </rdf:Description>
      <rdf:Description rdf:about=""
            xmlns:xmpRights="http://ns.adobe.com/xap/1.0/rights/">
         <xmpRights:Marked>True</xmpRights:Marked>
         <xmpRights:WebStatement rdf:resource="http://www.ospreydawn.com"/>
         <xmpRights:UsageTerms>
            <rdf:Alt>
               <rdf:li xml:lang="x-default">This work is licensed under a &lt;a rel="license" href="http://creativecommons.org/licenses/by-nc-sa/3.0/"&gt;Creative Commons Attribution-NonCommercial-ShareAlike 3.0 Unported License&lt;/a&gt;.</rdf:li>
               <rdf:li xml:lang="en_us">This work is licensed under a &lt;a rel="license" href="http://creativecommons.org/licenses/by-nc-sa/3.0/"&gt;Creative Commons Attribution-NonCommercial-ShareAlike 3.0 Unported License&lt;/a&gt;.</rdf:li>
               <rdf:li xml:lang="en">This work is licensed under a &lt;a rel="license" href="http://creativecommons.org/licenses/by-nc-sa/3.0/"&gt;Creative Commons Attribution-NonCommercial-ShareAlike 3.0 Unported License&lt;/a&gt;.</rdf:li>
            </rdf:Alt>
         </xmpRights:UsageTerms>
      </rdf:Description>
      <rdf:Description rdf:about=""
            xmlns:cc="http://creativecommons.org/ns#">
         <cc:attributionName>Max O'Brien / Osprey Dawn</cc:attributionName>
         <cc:license rdf:resource="http://creativecommons.org/licenses/by-nc-sa/3.0/"/>
      </rdf:Description>
   </rdf:RDF>
</x:xmpmeta>
                                                                                                    
                                                                                                    
                                                                                                    
                                                                                                    
                                                                                                    
                                                                                                    
                                                                                                    
                                                                                                    
                                                                                                    
                                                                                                    
                                                                                                    
                                                                                                    
                                                                                                    
                                                                                                    
                                                                                                    
                                                                                                    
                                                                                                    
                                                                                                    
                                                                                                    
                                                                                                    
                           
<?xpacket end="w"?>
	</metadata>
<g id="Layer_2">
	<g id="_x37_Wl2mV_1_">
	</g>
</g>
<g id="Layer_1_1_">
	<g>
		<g>
			<g>
				<path fill="#B6BBBF" d="M290.989,529.225c-19.039-26.88-38.344-32.253-76.802-42.955c-4.323-1.203-8.855-2.465-13.623-3.824
					c-51.396-14.646-67.857-39.705-77.771-75.382c-5.792-20.853-1.976-40.588,2.858-65.575c3.736-19.31,8.385-43.34,9.782-74.654
					c1.231-27.702-5.031-53.292-18.629-76.062c-10.225-17.11-20.99-26.136-21.102-26.229l-5.145-4.262l3.17-5.886
					c12.5-23.026,42.729-54.007,44.015-55.313l4.378-4.471l5.439,3.093c7.877,4.42,30.198,12.8,58.153,12.799
					c7.348-0.001,14.801-0.562,22.147-1.668c37.505-5.646,58.362-17.312,64.151-22.695l5.769-5.587l5.479,5.644
					c5.729,5.326,26.588,16.998,64.093,22.644c7.354,1.106,14.809,1.668,22.147,1.668c27.95,0,50.275-8.38,58.181-12.812
					l5.425-3.044l4.374,4.434c1.28,1.312,31.512,32.287,44.016,55.313l3.2,5.898l-5.189,4.262
					c-0.095,0.071-10.86,9.101-21.079,26.211c-13.604,22.77-19.867,48.354-18.63,76.062c1.396,31.315,6.047,55.352,9.774,74.655
					c4.833,24.986,8.651,44.729,2.859,65.574c-9.909,35.677-26.376,60.729-77.771,75.382c-4.768,1.359-9.301,2.621-13.623,3.824
					c-38.458,10.703-57.761,16.075-76.803,42.956l-6.63,9.354L290.989,529.225z"/>
				<path d="M494.362,158.276c-12.102-22.293-42.676-53.504-42.676-53.504s-34.752,19.745-85.53,12.103
					c-50.779-7.645-68.535-24.841-68.535-24.841s-17.757,17.197-68.535,24.841c-50.774,7.646-85.525-12.103-85.525-12.103
					s-30.574,31.211-42.682,53.504c0,0,45.86,37.582,42.682,108.92c-3.188,71.34-22.483,103.297-12.934,137.692
					c9.559,34.395,24.669,56.203,72.167,69.743c47.497,13.541,71.817,17.411,94.828,49.896
					c23.011-32.484,47.331-36.354,94.826-49.896c47.498-13.54,62.613-35.354,72.168-69.743c9.56-34.396-9.745-66.354-12.929-137.692
					C448.505,195.857,494.362,158.276,494.362,158.276z"/>
			</g>
			<path fill="#B6BBBF" d="M297.62,493.078c-12.062,0-24.307-2.021-35.396-5.859c-8.938-3.097-16.935-7.314-21.939-11.587
				c-8.661-7.392-21.979-23.479-27.415-33.104c-4.562-8.096-4.804-18.3-4.688-22.312l0.029-1.201l-0.479-1.105
				c-1.719-3.962-7.428-17.396-8.688-23.896c-1.332-6.88-0.482-11.902-0.062-13.742l0.059-0.249l2.065-15.615l-0.037-0.543
				c-0.178-2.598-0.97-11.892-3.646-22.408c-3.588-14.099-2.056-56.127,9.479-76.563c12.071-21.396,26.641-32.268,34.25-36.84
				c8.786-5.278,23.955-11.596,26.906-12.809l0.25-0.107c2.446-1.202,14.99-7.014,29.312-7.014c14.312,0,26.865,5.812,29.237,6.978
				l0.248,0.11c1.891,0.776,18.002,7.44,26.982,12.843c7.611,4.574,22.187,15.445,34.25,36.84
				c11.53,20.438,13.062,62.47,9.479,76.563c-2.678,10.521-3.468,19.812-3.646,22.409l-0.032,0.543l2.062,15.609l0.059,0.25
				c0.43,1.844,1.271,6.866-0.062,13.747c-1.262,6.517-6.968,19.938-8.688,23.896l-0.479,1.105l0.031,1.198
				c0.109,4.014-0.119,14.211-4.688,22.312c-5.433,9.628-18.757,25.716-27.416,33.104c-5.012,4.271-13.007,8.488-21.938,11.585
				C321.925,491.052,309.686,493.078,297.62,493.078z"/>
			<g>
				<path fill="#B6BBBF" d="M198.957,292.529c-0.954-1.301-4.211-6.824-13.831-29.979l-1.789-4.305l-4.521,1.127
					c-4.925,1.229-12.113,2.69-18.385,2.69c-1.959,0-3.771-0.145-5.386-0.416c-10.374-1.778-23.931-6.34-36.79-25.983
					c-12.342-18.854-3.617-47.947,0.062-53.267c2.197-3.172,8.6-15.521,9.854-17.966l0.59-1.139l0.018-1.271
					c0.021-1.489,0.392-3.104,1.103-4.803l0.729-1.738l-0.508-1.812c-0.711-2.541-0.634-4.873,0.227-6.935
					c0.646-1.541,2.405-4.317,6.958-5.587c1.244-0.352,2.458-0.522,3.609-0.522c3.146,0,5.324,1.312,6.595,2.415l1.439,1.247
					l1.896,0.072c3.357,0.129,5.486,1.854,6.458,2.873l0.571,0.604l0.729,0.402c3.566,1.967,5.906,5.402,6.265,9.193l0.159,1.706
					l1.108,1.304c3.795,4.454,13.191,15.638,18.438,23.237c6.342,9.191,13.938,22.646,15.646,26.437
					c0.289,0.642,0.527,1.278,0.712,1.894l0.665,2.223l2.062,1.053c0.306,0.155,0.595,0.312,0.871,0.481l3.728,2.233l2.991-3.146
					c4.6-4.833,8.938-10.151,11.271-13.013c1.146-1.396,1.66-2.026,2.021-2.403c1.255-1.329,2.852-2.062,4.492-2.062
					c1.188,0,2.44,0.42,3.36,1.123c0.603,0.439,2.779,2.04,3.747,2.731c1.155,0.826,1.912,2.039,2.131,3.417
					c0.342,2.127-0.697,3.875-1.165,4.523c-3.929,5.64-14.501,16.733-20.45,22.854l-3.098,3.179l12.651,18.491l-2.962,2.354
					c-7.979,6.336-15.184,28.028-17.072,35.127l-2.187,8.194L198.957,292.529z M144.913,189.647c0.081,0.271-4.629-4.754-7.26-1.176
					c-1.433,1.945-2.204,8.548-2.204,8.548l-0.021,2.297c-0.062,7.076,1.284,13.313,4.006,18.557
					c6.521,12.568,14.915,19.34,25.652,20.696l4.144,0.521l1.562-3.864c0.133-0.331,0.292-0.662,0.476-0.98l2.865-5.146
					l-5.363-2.433c-2.371-1.068-5.949-2.688-8.37-6.625c-2.504-4.065-2.63-7.195-2.706-9.065l-0.146-3.585l-3.354-1.271
					c-2.771-1.043-6.159-2.832-7.843-7.437c-0.134-0.354-0.248-0.694-0.356-1.022l-0.721-2.182
					C144.546,193.299,144.026,186.582,144.913,189.647z"/>
				<path fill="#FFFFFF" d="M125.75,188.471c0,0-4.297,48.479,25.447,57.387c29.746,8.906,39.98-3.547,39.98-3.547l-6.54,6.757
					l-22.692,7.062l-23.169-8.355l-14.812-15.048l-4.533-25.319l1.433-13.137L125.75,188.471z"/>
				<polygon fill="#FFFFFF" points="154.304,160.347 184.161,215.284 194.193,229.377 199.687,222.3 186.55,196.892 
					159.319,158.436 				"/>
				<path fill="#FFFFFF" d="M200.642,240.245c0,0,3.583,10.987,8.719,20.899l-3.771,6.33l-10.68-20.427l-0.836-3.697
					L200.642,240.245z"/>
				<path fill="#FFFFFF" d="M141.783,147.584c0,0-2.628,0-1.852,1.611c0.771,1.612,3.521,2.243,4.718,0.299L141.783,147.584z"/>
				<path d="M234.322,204.536c-1.113-0.798-3.821-2.787-3.821-2.787s-1.11-0.956-2.468,0.479
					c-1.354,1.435-12.183,15.604-20.86,22.527c0,0-2.782-1.188-2.782-3.577c0-2.393-3.822-2.553-5.415-3.981
					c-1.597-1.432-0.479-2.229-1.911-5.415c-1.438-3.185-8.917-16.561-15.287-25.797c-6.369-9.234-19.427-24.363-19.427-24.363
					s-0.955-2.064-0.955-3.345c0-1.272-0.797-5.414-5.732-7.166c0,0-1.911-4.458-8.281-1.91c0,0-1.593-6.052-8.438-4.141
					c-6.853,1.911-4.618,7.803-3.025,10.669c0,0-3.502,4.771-2.229,7.961c0,0-8.604,16.879-11.465,21.021
					c-2.866,4.145-11.47,31.21,0,48.729c11.465,17.517,22.931,22.293,34.073,24.204c11.146,1.911,29.938-4.458,29.938-4.458
					s13.058,32.166,16.562,36.938c0,0,7.646-28.664,18.478-37.263l-12.421-18.152c0,0,20.062-20.062,25.478-27.864
					C234.322,206.844,235.437,205.332,234.322,204.536z M160.116,162.735c0,0,8.917,10.511,19.587,27.868
					c10.668,17.354,16.403,31.052,16.403,31.052c-0.479,1.594-2.231,2.707-2.231,2.707s-11.938-23.567-18.255-34.396
					c-6.312-10.824-19.167-28.187-19.167-28.187C158.364,161.78,160.116,162.735,160.116,162.735z M139.654,147.766
					c1.11-0.64,3.026-0.318,4.062,0.797c1.036,1.115-0.313,2.064-1.832,2.707c-1.513,0.636-3.104,0.955-4.062-0.717
					C136.866,148.881,139.654,147.766,139.654,147.766z M136.389,177.544c2.389-4.459,2.229-12.261,2.229-12.261
					c2.707,4.617-0.956,13.693,2.707,17.516c2.323,2.43,6.21-0.155,7.803,4.145c1.598,4.299-0.797,3.822,1.597,10.352
					c2.389,6.527,9.714,4.458,10.982,8.604c1.274,4.14-0.479,6.847,2.708,12.021c3.188,5.177,9.077,4.855,11.204,8.2
					c2.128,3.345,0.58,8.918,0,9.715c-0.578,0.796-1.331,2.548,0,3.504c1.333,0.955,2.172,2.865,2.172,2.865
					c-19.428,3.345-32.646-5.573-41.398-22.452C127.631,202.864,134,182.003,136.389,177.544z M216.168,250.317
					c-7.166,8.6-10.579,14.332-10.579,14.332c-2.317-3.305-9.02-20.572-9.02-20.572c6.859-2.995,10.682-7.454,10.682-7.454
					L216.168,250.317z M141.007,246.177c-29.938-16.884-14.969-59.396-14.969-59.396c-3.822,21.021,0.904,40.984,12.897,50.957
					c14.172,11.783,36.436,6.688,36.436,6.688c-1.147,1.146,0.854,1.271,0.854,1.271c24.421-2.866,53.314-39.332,53.314-39.332
					C209.162,235.667,170.944,263.056,141.007,246.177z"/>
			</g>
			<g>
				<path fill="#B6BBBF" d="M423.969,497.748c-7.354,0-14.363-0.374-20.838-1.106c-27.88-3.186-54.694-21.412-55.821-22.188
					l-3.93-2.691l30.441-31.972l2.893,3.766c0.355,0.438,7.898,9.562,29.399,24.192c21.986,14.959,51.549,20.199,52.476,20.354
					l-0.075-0.014c0.084,0.017,7.562,1.275,18.077,2.78c-10.395,2.947-17.831,4.306-17.936,4.318
					C458.061,495.283,443.052,497.748,423.969,497.748z"/>
				<path fill="#FFFFFF" d="M370.114,459.882c0,0,38.338,22.931,66.646,28.186l-43.354-5.136l-32.246-17.078L370.114,459.882z"/>
				<path d="M404.39,471.104c-23.17-15.765-30.336-25.08-30.336-25.08l-23.891,25.08c0,0,26.753,18.392,53.981,21.497
					c27.23,3.104,54.46-1.433,54.46-1.433S427.559,486.867,404.39,471.104z M367.605,464.893c0,0,5.256-5.971,9.556-11.465
					c0,0,10.51,10.981,24.125,19.348c13.614,8.361,32.011,14.57,32.011,14.57S397.89,482.155,367.605,464.893z"/>
			</g>
			<g>
				<path fill="#B6BBBF" d="M387.927,291.162c-2.048-7.624-9.095-28.788-17.075-35.128l-2.963-2.354l12.647-18.492l-3.094-3.178
					c-5.955-6.12-16.53-17.226-20.432-22.814c-0.479-0.675-1.523-2.438-1.188-4.562c0.218-1.377,0.974-2.591,2.129-3.411
					c0.844-0.604,2.611-1.9,3.396-2.477l0.271-0.202c0.996-0.761,2.238-1.183,3.442-1.183c1.643,0,3.234,0.732,4.489,2.062
					c0.354,0.374,0.902,1.044,2.019,2.405c2.34,2.864,6.69,8.198,11.271,13.011l2.992,3.146l3.726-2.235
					c0.274-0.168,0.564-0.328,0.869-0.479l2.064-1.059l0.665-2.219c0.188-0.615,0.424-1.251,0.713-1.895
					c1.705-3.788,9.311-17.24,15.646-26.438c5.396-7.829,15.476-19.766,18.436-23.232l1.112-1.31l0.158-1.707
					c0.354-3.789,2.69-7.225,6.258-9.188l0.73-0.401l0.569-0.604c0.979-1.021,3.104-2.746,6.459-2.875l1.901-0.073l1.438-1.246
					c1.271-1.104,3.444-2.415,6.6-2.415c1.146,0,2.362,0.177,3.608,0.521c4.554,1.271,6.312,4.048,6.953,5.59
					c0.86,2.062,0.938,4.395,0.229,6.936l-0.508,1.812l0.726,1.734c0.711,1.696,1.083,3.312,1.104,4.801l0.019,1.276l0.586,1.135
					c1.262,2.441,7.662,14.79,9.858,17.969c3.682,5.315,12.398,34.403,0.06,53.267c-12.854,19.645-26.416,24.205-36.792,25.981
					c-1.607,0.274-3.42,0.414-5.38,0.414c-6.271,0-13.458-1.463-18.388-2.688l-4.521-1.127l-1.787,4.306
					c-9.614,23.147-12.876,28.678-13.832,29.979l-5.017,6.839L387.927,291.162z M449.406,195.517l-0.721,2.183
					c-0.109,0.328-0.229,0.671-0.356,1.022c-1.685,4.604-5.071,6.393-7.843,7.437l-3.354,1.265l-0.146,3.585
					c-0.074,1.87-0.201,5-2.706,9.07c-2.42,3.938-5.999,5.553-8.369,6.625l-5.367,2.428l2.868,5.146
					c0.186,0.32,0.343,0.651,0.479,0.979l1.562,3.869l4.146-0.521c10.738-1.356,19.133-8.127,25.653-20.696
					c2.721-5.237,4.062-11.479,4.006-18.557l-0.021-2.297c0,0-0.771-6.603-2.206-8.553c-2.629-3.573-7.339,1.453-7.259,1.181
					C450.649,186.618,450.132,193.336,449.406,195.517z"/>
				<path fill="#FFFFFF" d="M469.38,188.766c0,0,4.298,48.479-25.447,57.387c-29.746,8.906-39.981-3.547-39.981-3.547l6.541,6.757
					l22.691,7.062l23.169-8.355l14.81-15.048l4.538-25.319l-1.433-13.137L469.38,188.766z"/>
				<polygon fill="#FFFFFF" points="440.822,160.641 410.964,215.579 400.932,229.672 395.438,222.595 408.576,197.187 
					435.805,158.73 				"/>
				<path fill="#FFFFFF" d="M394.483,240.54c0,0-3.583,10.986-8.719,20.899l3.771,6.33l10.68-20.422l0.836-3.703L394.483,240.54z"/>
				<path fill="#FFFFFF" d="M453.323,147.584c0,0,2.627,0,1.854,1.611c-0.775,1.612-3.521,2.243-4.723,0.299L453.323,147.584z"/>
				<path d="M360.882,206.832c5.413,7.808,25.479,27.867,25.479,27.867l-12.421,18.152c10.829,8.6,18.474,37.263,18.474,37.263
					c3.503-4.776,16.562-36.943,16.562-36.943s18.79,6.369,29.936,4.458c11.148-1.906,22.615-6.688,34.081-24.205
					c11.465-17.518,2.866-44.587,0-48.728c-2.862-4.141-11.466-21.02-11.466-21.02c1.272-3.188-2.229-7.966-2.229-7.966
					c1.592-2.861,3.815-8.759-3.025-10.669c-6.849-1.906-8.442,4.145-8.442,4.145c-6.362-2.547-8.273,1.911-8.273,1.911
					c-4.938,1.752-5.732,5.892-5.732,7.166c0,1.271-0.956,3.344-0.956,3.344s-13.059,15.128-19.428,24.364
					c-6.367,9.231-13.854,22.607-15.285,25.797c-1.436,3.187-0.318,3.979-1.911,5.415c-1.592,1.435-5.415,1.593-5.415,3.979
					c0,2.393-2.785,3.582-2.785,3.582c-8.68-6.928-19.507-21.1-20.854-22.532c-1.354-1.434-2.474-0.479-2.474-0.479
					s-2.708,1.99-3.816,2.787C359.768,205.319,360.882,206.832,360.882,206.832z M438.748,161.768c0,0-12.854,17.354-19.166,28.187
					c-6.312,10.828-18.254,34.396-18.254,34.396s-1.757-1.114-2.229-2.707c0,0,5.731-13.693,16.397-31.057
					c10.676-17.354,19.592-27.862,19.592-27.862S436.842,161.768,438.748,161.768z M457.385,150.541
					c-0.955,1.672-2.547,1.354-4.062,0.717c-1.514-0.637-2.868-1.592-1.831-2.707c1.034-1.11,2.95-1.432,4.062-0.797
					C455.552,147.754,458.341,148.869,457.385,150.541z M458.815,219.731c-8.76,16.879-21.978,25.797-41.404,22.453
					c0,0,0.84-1.911,2.172-2.866c1.333-0.956,0.579-2.708,0-3.504c-0.578-0.796-2.127-6.37,0-9.714
					c2.133-3.349,8.021-3.025,11.203-8.201c3.188-5.175,1.438-7.882,2.708-12.021c1.274-4.142,8.604-2.066,10.987-8.6
					c2.389-6.528,0-6.052,1.592-10.351c1.6-4.305,5.48-1.72,7.812-4.145c3.655-3.822,0-12.896,2.706-17.517
					c0,0-0.158,7.802,2.229,12.261C461.202,181.991,467.572,202.852,458.815,219.731z M387.954,236.61c0,0,3.82,4.459,10.68,7.454
					c0,0-6.691,17.269-9.021,20.573c0,0-3.412-5.732-10.577-14.332L387.954,236.61z M365.659,206.355
					c0,0,28.896,36.465,53.317,39.332c0,0,2.006-0.127,0.854-1.272c0,0,22.268,5.1,36.438-6.688
					c11.993-9.978,16.721-29.938,12.896-50.957c0,0,14.974,42.518-14.97,59.396C424.26,263.044,386.042,235.655,365.659,206.355z"/>
			</g>
			<g>
				<path fill="#B6BBBF" d="M170.12,497.737c-18.256-0.001-32.681-2.237-34.617-2.552c-5.913-1.32-11.395-2.756-16.188-4.123
					c5.34-0.793,11.086-1.794,16.521-3.034c1.961-0.354,30.818-5.791,52.143-20.295c21.984-14.962,29.337-24.118,29.403-24.209
					l2.907-3.778l3.219,3.438l27.201,28.562l-3.927,2.699c-1.126,0.773-27.945,19.006-55.823,22.188
					c-6.472,0.732-13.479,1.106-20.828,1.106L170.12,497.737L170.12,497.737z"/>
				<path fill="#FFFFFF" d="M233.968,466.145l-8.952-5.972c0,0-38.342,22.931-66.646,28.186"/>
				<path d="M136.591,491.155c0,0,27.229,4.538,54.46,1.438c27.229-3.105,53.982-21.498,53.982-21.498l-23.887-25.08
					c0,0-7.166,9.312-30.335,25.08C167.643,486.856,136.591,491.155,136.591,491.155z M161.911,487.339
					c0,0,18.396-6.217,32.007-14.57c13.615-8.36,24.125-19.354,24.125-19.354c4.3,5.493,9.56,11.471,9.56,11.471
					C197.312,482.143,161.911,487.339,161.911,487.339z"/>
			</g>
			<g>
				<path fill="#FFFFFF" d="M313.983,216.972c0,0,7.407,18.058,11.325,48.632c3.921,30.574,10.29,40.766,17.935,45.543
					c7.646,4.777,26.523,17.733,28.271,35.928h11.854l4.46,8.341l5.094-18.147v-27.07l-3.502-23.999l-7.008-19.952l-13.058-18.312
					l-14.65-12.898l-13.688-8.12l-21.657-9.938l-6.05-1.056L313.983,216.972z"/>
				<path fill="#FFFFFF" d="M270.055,333.492c0,0,1.052-2.601,5.67-2.919c4.618-0.312,20.223-1.271,25.479-1.114l1.752,25.956
					l28.821-2.064l-3.184-19.745l-4.619-6.37l-26.354-2.866l-24.125,3.025l-4.618,2.548L270.055,333.492z"/>
				<path fill="#FFFFFF" d="M300.328,484.007c0,0,4.762-10.889,11.229-15.446c6.465-4.562,14.485-8.758,14.485-8.758l-2.064,6.769
					l-9.951,8.065l-4.698,8.973L300.328,484.007z"/>
				<path fill="#FFFFFF" d="M298.775,377.351c0,0,14.531-4.1,14.646,3.704c0.116,7.805,3.069,11.782,3.069,11.782l1.115,2.229
					l15.366,10.908l3.266,14.57l-2.628,7.644l-4.618,4.459c0.557-3.662-1.273-9.714-1.273-9.714l-1.673,0.795l-2.39,5.255
					l-4.139-1.91l-4.155,2.946c1.578-5.812,0.016-10.908-1.104-12.978c-1.11-2.07-3.979-2.866-3.979-2.866s2.866-5.896,3.027-9.396
					c0.153-3.503-2.611-8.511-2.611-8.511s-5.829-5.979-9.011-10.916c-3.187-4.937-6.373-1.911-6.373-1.911
					c0.836-0.995,2.31-2.07,2.31-2.07S299.093,380.654,298.775,377.351z"/>
				<path fill="#FFFFFF" d="M310.359,360.033c0,0-1.752,1.438-2.389,4.226c-0.641,2.781-3.269,3.896-4.384,4.38l9.72,0.396
					l2.467-5.335l1.911-4.771L310.359,360.033z"/>
				<path fill="#FFFFFF" d="M357.148,356.348c0,0,2.976,3.448,3.294,9.658c0.312,6.21,2.069,8.997,2.866,10.902
					c0.795,1.911-0.648,6.691-0.808,10.113c-0.15,3.422,0.011,6.049,0.011,6.049s2.549-1.593,2.941-1.911
					c0.396-0.312,4.144-7.165,4.144-7.165l-0.955-7.239l-2.627-19.905l-0.956-3.821l-7.91,1.593V356.348L357.148,356.348z"/>
				<path fill="#FFFFFF" d="M235.994,354.54c0,0-2.673,5.372-3.186,9.315c-0.516,3.942-3.428,13.217,1.593,19.348
					c5.017,6.134,11.227,5.732,14.251,4.146c3.025-1.592,10.479-4.782,18.14-0.521l-3.809-5.292l-17.438-0.717l-4.937-9.794
					l1.114-15.604L235.994,354.54z"/>
				<path fill="#FFFFFF" d="M317.672,428.384c0,0,1.604-0.189,2.805,1.88c1.188,2.064,1.829,6.847,1.829,6.847l2.548-0.636
					l-1.194-6.052l-2.395-3.35L317.672,428.384z"/>
				<path fill="#FFFFFF" d="M308.793,430.344c0,0,2.366-0.562,4.035,2.787c1.666,3.35,1.83,5.095,1.83,5.095l3.014-0.717
					l-1.342-4.856l-1.672-2.345L308.793,430.344z"/>
				<path fill="#FFFFFF" d="M303.512,432.094c0,0-2.149-0.644-1.598,1.188c0.562,1.831,2.312,2.788,2.627,4.38h3.429l-0.955-3.396
					l-1.194-1.614L303.512,432.094z"/>
				<path fill="#FFFFFF" d="M296.067,432.923c0,0-1.396-1.066-1.472,2.272c-0.081,3.344,0,3.741,0,3.741h3.344l-0.318-3.09v-1.586
					C297.62,434.262,297.144,432.685,296.067,432.923z"/>
				<path fill="#FFFFFF" d="M284.164,430.303c0,0-1.035,0.771,0,1.68s2.229,2.575,0.637,5.123l3.269,0.559l1.189-3.681l-1.672-3.087
					L284.164,430.303z"/>
				<path fill="#FFFFFF" d="M277.635,427.949c0,0-2.07,0.646-1.438,2.354s-0.243,3.67-0.122,4.52
					c0.122,0.854,1.555,1.812,1.555,1.812l1.354-2.646l0.718-3.246L277.635,427.949z"/>
				<path fill="#FFFFFF" d="M268.452,423.615c0,0-1.326-0.521-0.849,1.707c0.479,2.23,0.307,6.453,3.218,8.044l1.64-3.664
					l1.115-3.265L268.452,423.615z"/>
				<path fill="#FFFFFF" d="M278.451,442.858c0,0-1.075,4.657,1.254,6.21h1.254l0.836-6.688L278.451,442.858z"/>
				<path fill="#FFFFFF" d="M284.004,442.923c0,0-0.956,6.808,3.104,7.279l0.771-1.135v-6.449L284.004,442.923z"/>
				<path fill="#FFFFFF" d="M306.099,442.618c0,0,0.537,6.986-0.955,8.002l3.344-0.418l0.307-6.927L306.099,442.618z"/>
				<path fill="#FFFFFF" d="M312.011,442.923c0,0,1.069,6.27,0.233,7.697h3.522l-0.775-2.627l-0.354-5.607L312.011,442.923z"/>
				<path fill="#FFFFFF" d="M317.982,442.385c0,0,1.493,5.255,0.771,6.27l2.508-3.135l0.896-3.673L317.982,442.385z"/>
				<g>
					<path d="M310.99,397.773c-0.302-5.255-9.306-12.421-9.306-12.421s0.022-0.956-1.23,1.592c-1.103,2.222-2.451,5.896-3.042,8.7
						c-0.595-2.805-1.938-6.479-3.042-8.7c-1.262-2.548-1.229-1.592-1.229-1.592s-9.011,7.166-9.312,12.421
						c-0.303,5.255,1.074,7.802,5.244,11.624c4.169,3.821,7.628,7.644,8.127,9.714h0.42c0.5-2.07,3.96-5.893,8.129-9.714
						C309.916,405.574,311.292,403.028,310.99,397.773z M303.46,407.649c0,0-5.526,4.458-5.871,6.847c0,0-2.406-3.502-6.393-6.847
						c-3.979-3.344-0.423-6.546,2.417-5.184c2.839,1.356,4.75,1.044,5.863,0.885c1.111-0.16,2.066-0.479,3.344,0.796
						C304.097,405.425,304.567,406.706,303.46,407.649z"/>
					<path d="M384.803,266.878c-10.515-18.631-23.578-29.807-32.809-35.352c-9.336-5.611-26.672-12.659-26.672-12.659
						s-12.896-6.688-27.708-6.688c-14.811,0-27.708,6.688-27.708,6.688s-17.335,7.047-26.673,12.659
						c-9.229,5.545-22.294,16.721-32.804,35.352c-10.515,18.631-12.423,60.437-9.077,73.568c3.345,13.137,3.82,24.125,3.82,24.125
						l-2.148,16.242c0,0-1.435,5.016,0,12.421c1.434,7.404,9.313,25.08,9.313,25.08s-1.191,12.898,4.062,22.214
						c5.255,9.316,18.392,25.08,26.513,32.007c8.122,6.934,28.663,16.481,54.699,16.481c26.034,0,46.576-9.554,54.698-16.481
						c8.121-6.927,21.259-22.688,26.514-32.007c5.255-9.312,4.062-22.214,4.062-22.214s7.883-17.676,9.312-25.08
						c1.438-7.405,0-12.421,0-12.421l-2.146-16.242c0,0,0.479-10.988,3.817-24.125C397.223,327.309,395.313,285.509,384.803,266.878
						z M321.427,328.346c0,0,5.255,0.796,5.729,6.528c0.479,5.729,1.592,16.561,1.592,16.561s-21.021,2.39-31.132,2.229
						c-10.111-0.153-28.902-2.229-28.902-2.229l0.956-15.445c0,0,0.16-6.052,4.146-7.326c3.979-1.271,19.898-1.905,23.807-2.064
						C301.521,326.435,321.427,328.346,321.427,328.346z M330.036,359.891c7.069-0.632,13.526-1.427,19.312-2.286
						c-0.149,0.062-0.293,0.127-0.416,0.196c-1.438,0.802-3.89,2.534-7.994,2.543c-4.108,0.01-14.456,4.328-16.369,6.229
						l-0.077,0.074c-1.297,0.1-2.611,0.19-3.938,0.277c0.646-0.973,2.344-3.312,4.219-4.188c2.388-1.109,5.271-2.85,5.271-2.85
						L330.036,359.891L330.036,359.891z M314.653,360.927c-1.938,2.351-2.482,5.498-2.604,6.442
						c-3.526,0.146-7.146,0.245-10.867,0.282c0.379-1.739,0.812-4.203,1.178-6.372C306.595,361.23,310.688,361.103,314.653,360.927z
						 M293.549,365.056c-1.771,0.994-4.876,2.456-7.634,2.301c-3.06-0.173-8.191-4.516-10.675-6.775
						c5.577,0.354,11.462,0.604,17.646,0.688C293.09,362.497,293.32,363.82,293.549,365.056z M269.829,366.569c0,0-0.001,0-0.002,0
						c-1.923-1.903-12.259-6.216-16.365-6.226c-4.104-0.015-6.561-1.741-7.988-2.543c-0.604-0.337-1.576-0.604-2.507-0.798
						c5.067,0.812,10.732,1.6,16.938,2.269C268.013,363.302,269.81,366.533,269.829,366.569z M223.175,321.343
						c7.011-17.682,3.508-25.159,2.707-28.668c-0.796-3.503,0.319-22.607,11.943-39.333c11.625-16.72,31.848-35.51,48.09-36.779
						V323.89c0,0-11.784,0.955-15.287,1.91c-3.503,0.956-6.209,3.662-6.848,7.644c-0.638,3.982-1.91,14.812-1.91,14.812
						s-15.766-4.938-24.842-6.21C227.953,340.766,216.168,339.014,223.175,321.343z M240.513,356.599
						c-0.011,0-0.021-0.002-0.021-0.002s-0.011-0.003-0.027-0.005C240.482,356.594,240.498,356.597,240.513,356.599z
						 M240.415,356.581c-0.492-0.069-3.183-0.2-3.864,5.688c-1.8-0.328-3.521-0.657-5.144-0.983c0.38-2.347,0.732-4.525,1.001-6.178
						C234.854,355.595,237.533,356.094,240.415,356.581z M213.94,350.599c0,0,1.254,0.405,3.626,1.055l-1.137,6.147
						c-1.56-0.421-2.702-0.755-3.441-0.979L213.94,350.599z M220.31,418.798c0,0-6.688-15.446-9.714-21.979
						c-3.025-6.529-1.751-12.896-1.751-12.896l3.476-22.733c0.725,0.37,1.771,0.872,3.21,1.47l-4.14,22.378
						c0,0-1.273,5.733,1.434,12.421c2.167,5.354,8.814,19.471,11.387,24.896c-2.026-1.341-3.25-2.416-3.869-3.021
						C220.321,418.995,220.31,418.798,220.31,418.798z M226.36,431.054c-0.198,1.145-0.479,2.428-0.762,3.646
						c-1.534-0.939-2.575-1.689-3.188-2.165c-0.081-0.215-0.144-0.394-0.188-0.525c-0.651-1.992-1.104-4.854-1.4-7.398
						c0.977,1.062,2.751,2.729,5.674,4.653C226.503,429.831,226.468,430.43,226.36,431.054z M220.82,390.448
						c2.264-2.549,4.104-7.644,4.104-7.644s1.911,7.644,3.981,11.08c2.069,3.436,10.35,13.761,11.623,17.583
						c0.862,2.585,5.098,10.828,3.345,8.274c-1.751-2.547-12.262-13.058-13.689-15.604
						C228.749,401.594,220.82,390.448,220.82,390.448z M249.106,451.115c0.598,2.445,1.299,4.779,1.299,4.779s-1.91,0-5.312-2.866
						c-0.888-0.749-1.709-2.212-2.438-3.955C244.626,449.767,246.782,450.451,249.106,451.115z M240.278,441.559
						c-0.649-2.611-1.021-4.612-1.021-4.612s5.323,4.076,7.823,6.814C244.62,443.049,242.352,442.304,240.278,441.559z
						 M250.313,444.654c-1.438-1.681-4.025-4.796-5.812-7.354c2.587,0.79,5.436,1.546,8.543,2.245
						c0.812,1.581,2.042,3.711,3.579,5.442l-0.126,1.146C254.32,445.664,252.265,445.173,250.313,444.654z M241.013,429.894
						c-2.411-4.057-6.062-10.662-6.691-14.444c0,0,10.43,8.541,15.442,16.812C246.537,431.514,243.628,430.719,241.013,429.894z
						 M237.647,440.572c-1.673-0.648-3.203-1.305-4.593-1.938l0.79-4.076c0,0,0.109-0.422,0.226-1.158
						c0.954,0.438,1.973,0.872,3.048,1.306l-0.001,0.001C237.116,434.705,237.238,437.273,237.647,440.572z M231.184,448.281
						l0.727-3.746c1.937,0.984,4.271,2.061,7.009,3.146c0.396,1.572,0.875,3.045,1.455,4.23c2.707,5.573,8.279,7.484,8.279,7.484
						s3.016-0.322,4.81-3.504c0,0-0.592-1.651-1.146-3.906c0.894,0.229,1.812,0.454,2.756,0.676
						c1.312,1.742,3.439,3.937,6.404,5.063l14.269,21.671C253.385,473.564,239.28,459.608,231.184,448.281z M293.507,460.15
						c0.021,1.083,0.051,2.176,0.074,3.271c-8.182-1.733-12.846-5.62-14.293-7.017C279.288,456.409,285.557,459.298,293.507,460.15z
						 M288.19,443.635c1.1,0.036,2.22,0.062,3.351,0.088c0.396,0.843,1.124,1.392,1.743,1.725c0.015,1.363,0.031,2.937,0.054,4.67
						c-0.842-0.016-1.654-0.044-2.479-0.062c-0.727-0.33-1.415-0.729-1.78-1.156C288.373,448.071,288.222,445.195,288.19,443.635z
						 M282.222,449.636l0.634-6.235c1.325,0.071,2.678,0.133,4.057,0.188l0.238,6.318
						C285.473,449.84,283.826,449.743,282.222,449.636z M287.569,436.77c-2.807-0.097-5.504-0.23-8.095-0.397
						c0.346-1.562,1.178-4.629,2.5-5.152c1.792-0.723,5.136-1.313,6.21,2.86C288.185,434.079,287.666,435.434,287.569,436.77z
						 M280.571,443.268l-0.627,5.225c-3.586-0.289-4.521-3.753-4.767-5.63C276.922,443.015,278.721,443.15,280.571,443.268z
						 M278.78,431.451c0,0-1.089,2.486-1.31,4.782c-1.771-0.129-3.484-0.271-5.152-0.433c0.003-0.028,0.463-5.433,1.296-6.618
						c0.837-1.194,3.345-1.792,4.418,0C279.108,430.975,278.78,431.451,278.78,431.451z M273.687,442.727
						c0.224,1.282,0.685,3.164,0.685,3.164c-3.552-0.092-4.772-2.28-5.198-3.646C270.638,442.422,272.139,442.578,273.687,442.727z
						 M271.583,428.824c-0.354,1.672-0.928,3.946-0.763,4.541c0,0-2.939-1.675-4.97-4.541c0,0-1.792-1.792-1.075-3.938
						c0.717-2.149,1.434-3.229,3.226-1.672C269.793,424.765,271.942,427.153,271.583,428.824z M288.985,481.732
						c-0.222-0.498-2.273-4.952-6.325-9.754c-3.753-4.447-7.53-5.92-8.432-6.224l-3.407-5.438c0.003,0.002,9.77,6.864,22.896,8.078
						c0.16,5.229,0.373,10.154,0.653,13.688C292.533,482.021,290.739,481.9,288.985,481.732z M289.073,436.819
						c0.094-1.056,0.364-2.694,1.143-3.42c1.194-1.11,4.658-2.241,5.854-0.479c0.729,1.066,1.02,2.815,1.134,4.021
						C294.398,436.936,291.685,436.896,289.073,436.819z M297.772,432.224c-0.414-0.487-1.713-1.846-3.403-1.846
						c-2.059,0-5.349,2.024-5.349,2.024s0.12-1.792-2.586-3.225c-2.706-1.438-6.251,0.836-6.251,0.836
						c-0.357-1.313-2.03-3.105-2.03-3.105s0.479-7.644,3.226-10.146c2.747-2.508,4.658-1.553,4.658-1.553s-3.583-2.03-4.181-5.493
						c-0.603-3.464-5.977-14.684-15.884-15.818c-9.913-1.142-20.359,2.203-26.959-3.888c-6.604-6.091-7.317-5.375-7.317-5.375
						l-2.627-5.021c0,0-0.357-0.956,0-3.583c0.135-0.979,0.702-4.567,1.362-8.681c1.856,0.454,3.88,0.906,6.052,1.351
						c0.393,7.601,1.962,11.87,1.962,11.87s2.249,5.896,13.555,3.822c11.312-2.071,11.785,2.706,18.152,3.185
						c4.709,0.354,5.509-0.337,5.604-0.722c0.032,0.675,0.009,2.646-1.306,3.429c0,0,5.732-0.637,6.528-9.23
						c0,0,1.72-0.318,2.851-1.91c0,0,3.31,0.318,5.244-1.274c1.938-1.592,3.585-0.637,4.991-0.153
						c1.405,0.478,3.136-0.479,3.136-0.479s1.729,0.955,3.137,0.479c1.408-0.479,3.056-1.438,4.992,0.153
						c1.938,1.599,5.24,1.274,5.24,1.274c1.132,1.592,2.851,1.91,2.851,1.91c0.797,8.6,6.529,9.23,6.529,9.23
						c-1.309-0.779-1.336-2.754-1.305-3.429c0.098,0.385,0.896,1.075,5.604,0.722c6.369-0.479,6.852-5.256,18.152-3.185
						c11.308,2.07,13.557-3.822,13.557-3.822s1.528-4.17,1.943-11.578c2.694-0.52,5.165-1.055,7.414-1.591
						c0.948,5.561,1.832,10.882,1.974,12.212c0.315,3.025-0.64,5.732-0.64,5.732s-3.188,6.369-3.854,4.3s0-5.574,0-5.574
						c-0.666,1.273-0.604,1.911-7.136,5.255c-6.53,3.35-9.556,0.955-16.082,1.115c-6.529,0.159-16.084,3.503-18.792,3.821
						c-2.707,0.313-4.299-1.438-4.299-1.438c0.636,5.732,2.549,8.764,8.498,11.783c5.948,3.024,6.599,6.37,6.599,6.37
						s2.267,7.006,2.896,10.032c0.64,3.021-1.273,5.056-1.273,5.056c-0.717-4.061-2.27-6.21-5.853-4.771
						c-3.583,1.434-3.702,6.443-3.702,6.443c-2.271-4.419-6.268-0.836-6.268-0.836s-1.675,1.792-2.027,3.105
						c0,0-3.546-2.271-6.252-0.836c-2.706,1.433-2.586,3.225-2.586,3.225s-3.29-2.03-5.352-2.03
						C299.484,430.383,298.185,431.736,297.772,432.224z M355.038,356.714c2.939-0.492,5.675-0.994,8.173-1.486
						c0.271,1.518,0.642,3.648,1.054,6.032c-1.989,0.396-4.136,0.802-6.396,1.196C357.431,358.36,356.048,357.078,355.038,356.714z
						 M370.791,375.007l-1.271-8.66c1.342-0.363,2.588-0.728,3.734-1.072c1.021,5.511,2.118,11.384,2.915,15.306
						c0.665,3.267,0.886,6.056,0.894,8.316c-3.3,4.496-10.396,14.901-12.324,17.799c-2.229,3.344-12.002,13.062-12.002,13.062
						c0.896-3.507,7.387-15.93,13.597-24.05C372.543,387.581,370.791,375.007,370.791,375.007z M367.75,354.286
						c1.191-0.257,2.325-0.509,3.377-0.752c0.282,1.563,0.657,3.646,1.086,6.016c-1.108,0.257-2.312,0.521-3.568,0.799
						L367.75,354.286z M358.533,434.742c1.146-0.457,2.226-0.918,3.236-1.377c0.109,0.759,0.229,1.191,0.229,1.191l0.797,4.104
						c-1.393,0.643-2.926,1.289-4.604,1.945c0.396-3.23,0.518-5.734,0.518-5.734S358.646,434.823,358.533,434.742z M361.83,427.14
						c-0.887,0.366-1.825,0.729-2.806,1.098c0.071-1.575,0.354-4.62,1.472-8.489c1.329-4.615,12.076-20.05,16.196-25.857
						c-0.186,1.083-0.358,1.659-0.358,1.659s-7.961,17.354-12.103,24.683C362.862,422.648,362.164,425.029,361.83,427.14z
						 M334.006,431.219c3.661-2.866,1.597-4.306,3.822-11.147c2.229-6.848,9.396-8.599,9.396-8.599
						c-5.414,3.815-6.688,12.733-7.166,16.083c-0.289,2.017-1.328,4.55-2.107,6.246c-1.229,0.221-2.499,0.432-3.801,0.633
						C334.35,433.028,334.006,431.219,334.006,431.219z M351.514,437.198c-1.73,2.525-4.354,5.688-5.859,7.46
						c-1.999,0.526-4.104,1.035-6.339,1.521l-0.646-5.816C343.529,439.424,347.786,438.344,351.514,437.198z M346.737,451.218
						c2.312-0.646,4.463-1.312,6.44-1.981c-0.732,1.749-1.56,3.217-2.447,3.968c-3.398,2.866-5.312,2.866-5.312,2.866
						S346.136,453.685,346.737,451.218z M348.907,443.76c2.562-2.733,7.658-6.645,7.658-6.645s-0.355,1.938-0.982,4.479
						C353.546,442.322,351.32,443.052,348.907,443.76z M318.376,436.219c-0.228-2.291-1.312-4.769-1.312-4.769
						s-0.326-0.478,0.748-2.269c1.075-1.792,3.583-1.194,4.419,0c0.806,1.146,1.261,6.203,1.292,6.583
						C321.858,435.932,320.141,436.081,318.376,436.219z M327.041,442.156c-0.472,1.37-1.729,3.381-5.137,3.475
						c0,0,0.418-1.708,0.649-2.979C324.092,442.496,325.586,442.339,327.041,442.156z M321.071,442.79
						c-0.284,1.914-1.275,5.156-4.739,5.438l-0.604-5.021C317.559,443.091,319.344,442.947,321.071,442.79z M308.281,436.768
						c-0.1-1.335-0.617-2.688-0.617-2.688c1.074-4.18,4.419-3.583,6.211-2.86c1.318,0.521,2.148,3.565,2.496,5.144
						C313.778,436.531,311.082,436.673,308.281,436.768z M314.079,449.618c-1.614,0.111-3.271,0.202-4.964,0.28l0.239-6.349
						c1.39-0.062,2.753-0.123,4.085-0.2L314.079,449.618z M308.079,443.6c-0.041,1.603-0.211,4.247-0.875,5.021
						c-0.477,0.562-1.5,1.062-2.429,1.438c-0.691,0.02-1.371,0.044-2.076,0.057c0.033-2.512,0.057-4.691,0.07-6.368
						C304.587,443.719,306.347,443.662,308.079,443.6z M310.971,456.806v-0.005c6.298-0.355,12.062-0.953,17.307-1.729l-1.23,1.963
						c-0.014,0.014-12.046,6.772-24.605,7.191c0.035-1.383,0.062-2.761,0.096-4.128
						C310.787,459.177,310.971,456.806,310.971,456.806z M319.546,449.164c0.709-0.644,1.336-1.399,1.806-2.345
						c0,0,5.574,0.158,6.931-3.504c0,0,1.398-0.35,2.877-1.31l0.433,5.613C327.858,448.233,323.838,448.758,319.546,449.164z
						 M330.542,428.824c-2.025,2.866-4.973,4.541-4.973,4.541c0.166-0.595-0.402-2.869-0.762-4.541
						c-0.356-1.672,1.792-4.061,3.583-5.607c1.792-1.559,2.509-0.479,3.226,1.672C332.333,427.032,330.542,428.824,330.542,428.824z
						 M299.781,432.923c1.194-1.766,4.657-0.635,5.853,0.479c0.778,0.729,1.054,2.364,1.146,3.42
						c-2.616,0.077-5.327,0.118-8.129,0.124C298.763,435.74,299.052,433.99,299.781,432.923z M312.987,471.979
						c-4.292,5.088-6.341,9.788-6.349,9.803c-1.623,0.146-3.276,0.255-4.976,0.316c0.283-3.555,0.496-8.514,0.655-13.776
						c12.822-1.399,22.656-7.993,22.664-7.998l-3.365,5.367C321.622,465.69,317.287,466.885,312.987,471.979z M319.989,479.521
						l14.056-21.346c3.896-0.921,6.566-3.729,8.06-5.771c0.479-0.114,0.972-0.228,1.438-0.346c-0.562,2.305-1.175,4.003-1.175,4.003
						c1.793,3.182,4.812,3.504,4.812,3.504s5.572-1.911,8.278-7.479c0.572-1.187,1.047-2.643,1.441-4.193
						c2.747-1.049,5.114-2.085,7.104-3.049l0.741,3.816C356.542,460.007,342.361,473.823,319.989,479.521z M373.976,432.01
						c-0.021,0.048-0.035,0.104-0.061,0.163c-0.43,0.354-1.609,1.278-3.667,2.553c-0.289-1.23-0.562-2.521-0.768-3.672
						c-0.107-0.63-0.146-1.235-0.133-1.812c3.638-2.39,5.434-4.344,6.08-5.135C375.135,426.78,374.67,429.885,373.976,432.01z
						 M385.6,396.818c-3.023,6.528-9.713,21.979-9.713,21.979s-0.009,0.062-0.015,0.155c-0.828,0.747-2.146,1.818-4.092,3.077
						c2.672-5.645,9.111-19.327,11.234-24.576c2.708-6.688,1.435-12.421,1.435-12.421l-4.111-22.225
						c1.631-0.65,2.788-1.19,3.542-1.567l3.472,22.684C387.352,383.925,388.627,390.288,385.6,396.818z M378.298,351.743
						c2.584-0.695,3.96-1.146,3.96-1.146l0.934,6.085c-0.646,0.196-1.916,0.57-3.777,1.069L378.298,351.743z M388.147,350.599
						c-1.438-8.161-5.731-6.012-5.731-6.012s-12.261,3.344-24.044,4.459c-11.783,1.109-25.64,1.553-25.64,1.553
						s-1.113-9.515-1.911-16.84c-0.795-7.325-8.438-8.759-8.438-8.759l-12.896-1.273V216.558c7.479,0,13.938,3.624,13.938,3.624
						s28.579,9.752,44.661,28.856c16.084,19.108,20.386,32.167,23.094,57.646C393.88,332.172,388.147,350.599,388.147,350.599z"/>
					<path d="M263.94,234.154c-7.166,4.3-10.458,11.228-10.458,11.228c-1.622,5.494-3.156,19.353-3.156,19.353
						c0.479,3.344,2.149,6.688,2.149,6.688c-3.104,12.187-5.732,27.474-5.732,27.474c-7.645,6.927-17.198,20.781-17.198,20.781
						c6.932-8.121,20.661-16.825,20.661-16.825s2.029-19.725,6.812-40.267c4.774-20.542,13.854-38.935,13.854-38.935
						C267.832,227.146,263.94,234.154,263.94,234.154z M261.193,241.201c0,0-1.553-0.239-3.821,1.433c0,0,3.463-4.299,5.255-5.489
						C262.626,237.14,261.432,240.126,261.193,241.201z"/>
					<path d="M349.433,298.885c0,0-2.627-15.287-5.731-27.474c0,0,1.672-3.345,2.148-6.688c0,0-1.533-13.854-3.155-19.353
						c0,0-3.294-6.927-10.459-11.228c0,0-3.891-7.008-6.928-10.51c0,0,9.077,18.393,13.854,38.935
						c4.777,20.542,6.812,40.268,6.812,40.268s13.729,8.7,20.656,16.818C366.631,319.665,357.077,305.812,349.433,298.885z
						 M336.434,243.708c-0.357-1.792-2.03-5.494-2.03-5.494c2.39,1.313,3.822,3.583,3.822,3.583l1.069,3.583
						C338.106,243.828,336.434,243.708,336.434,243.708z"/>
				</g>
				<g>
					<path fill="#FFFFFF" d="M376.324,348.448l6.888,36.729c0,0,0.956,5.432-1.109,10.687c0,0,0.954-5.767-0.16-10.687
						l-6.893-36.409L376.324,348.448z"/>
					<path fill="#FFFFFF" d="M385.042,345.821c0,0,1.672,1.791,2.271,5.494c0.599,3.702,4.3,33.56,4.3,33.56
						s0.599,5.978-1.553,11.823c0,0,1.312-8.002,0.717-12.062c-0.598-4.062-4.18-33.32-4.18-33.32S385.878,348.215,385.042,345.821z
						"/>
					<path fill="#FFFFFF" d="M301.68,359.197l-1.479,8.854c0,0-0.395,1.673-1.87,2.164c0,0,0.493-0.296,1.083-2.95
						c0.59-2.655,0.982-9.049,0.982-9.049S301.289,358.705,301.68,359.197z"/>
					<path fill="#FFFFFF" d="M369.815,349.051c0,0-23.354,5.607-67.338,5.894c0,0,36.818,1.396,67.637-4.879L369.815,349.051z"/>
					<path fill="#FFFFFF" d="M372.263,360.392c0,0-27.354,7.763-70.941,8.002c0,0,40.188,1.096,71.24-6.867L372.263,360.392z"/>
					<path fill="#FFFFFF" d="M368.402,429.94c0,0,0.159,3.98,0.956,5.095c0,0-0.379,0.479-1.215,0.776c0,0-0.836-2.508-0.956-5.255
						C367.187,430.557,367.883,430.279,368.402,429.94z"/>
					<path fill="#FFFFFF" d="M299.491,438.537c0,0,1.035,0.837,1.193,2.354c0.135,1.271-1.035,41.084-1.035,41.084
						s-0.119,1.672-0.955,1.95c0,0,1.912-0.479,2.071-2.229c0.153-1.751,0.875-40.685,0.875-40.685S301.561,438.537,299.491,438.537
						z"/>
					<path fill="#FFFFFF" d="M330.462,436.11c0,0-16.356,2.03-26.986,1.791c0,0,14.566,0.837,27.229-0.955L330.462,436.11z"/>
					<path fill="#FFFFFF" d="M331.657,448.531c0,0-16.361,2.508-26.991,2.271c0,0,14.569,0.354,27.229-1.438L331.657,448.531z"/>
					<path fill="#FFFFFF" d="M336.434,435.514l1.553,10.987c0,0,0.119,3.815-3.225,8.718c-3.349,4.896-16.362,24.842-16.362,24.842
						l15.646-25.08c0,0,3.229-4.956,2.985-8.539c-0.238-3.583-1.373-10.688-1.373-10.688L336.434,435.514z"/>
					<path fill="#FFFFFF" d="M335.658,435.573c0,0,18.333-1.672,36.845-12.72c0,0-12.66,9.854-36.726,13.556L335.658,435.573z"/>
					<path fill="#FFFFFF" d="M337.669,447.139c0,0,21.896-3.188,36.704-14.331c0,0-10.982,10.51-36.859,15.127L337.669,447.139z"/>
					<path fill="#FFFFFF" d="M262.109,436.31c0,0,1.114,0.876,0.796,2.707c-0.317,1.832-0.876,7.724-0.876,7.724
						s-0.477,2.787,1.036,5.494c1.514,2.707,15.446,26.274,15.446,26.274l-14.251-26.115c0,0-1.912-2.787-1.518-5.414
						c0.397-2.628,0.716-7.883,0.716-7.883S263.543,437.427,262.109,436.31z"/>
					<path fill="#FFFFFF" d="M233.048,433.05l-1.03,4.938c0,0-0.319-0.08-0.802-0.315l0.876-5.335
						C232.093,432.329,232.491,432.886,233.048,433.05z"/>
					<path fill="#FFFFFF" d="M206.375,378.427c2.081-11.571,4.658-29.021,4.658-29.021l1.396,0.479l-4.539,28.503
						c0,0-1.429,8.454-0.642,12.58c1.115,5.853,10.908,27.787,10.908,27.787l-11.068-24.848
						C207.091,393.91,204.385,389.491,206.375,378.427z"/>
					<path fill="#FFFFFF" d="M221.901,352.713l-5.414,32.804c0,0-0.956,4.938,1.751,10.988c2.707,6.05,12.898,29.459,12.898,29.459
						l-14.812-30.103c0,0-2.39-4.771-1.271-11.465c1.109-6.688,5.568-32.326,5.568-32.326L221.901,352.713z"/>
				</g>
			</g>
		</g>
		<g>
			<path fill="#FFFFFF" d="M194.29,147.825l12.694-3.52c5.056-1.401,9.396-1.22,12.629,0.607c2.812,1.645,4.891,4.331,6.042,8.487
				l0.141,0.506c1.573,5.673,0.104,9.528-2.521,12.494l10.452,12.83l-12.021,3.332l-7.957-10.376l-0.956,0.266l3.238,11.688
				l-10.841,3.005L194.29,147.825z M212.366,163.501c2.246-0.623,3.384-2.631,2.512-5.772l-0.124-0.449
				c-0.873-3.146-2.861-4.229-5.057-3.619l-1.966,0.546l2.726,9.829L212.366,163.501z"/>
			<path fill="#FFFFFF" d="M234.878,137.674l12.646-2.124l17.292,38.578l-11.551,1.939l-2.302-5.938l-8.271,1.395l-0.231,6.357
				l-11.316,1.901L234.878,137.674z M247.66,161.705l-4.201-10.937l-0.396,11.708L247.66,161.705z"/>
			<path fill="#FFFFFF" d="M261.524,133.881l11.312-1.027l3.705,40.627l-11.312,1.027L261.524,133.881z"/>
			<path fill="#FFFFFF" d="M278.302,132.209l11.479-0.158c12.47-0.171,18.805,7.027,18.973,19.146l0.023,1.808
				c0.166,12.121-6.022,19.666-18.553,19.838l-11.363,0.156L278.302,132.209z M289.806,142.309l0.275,20.274l0.523-0.008
				c4.021-0.056,6.668-2.423,6.572-9.475l-0.021-1.52c-0.101-7.226-2.81-9.345-6.831-9.29L289.806,142.309z"/>
			<path fill="#FFFFFF" d="M313.911,132.158l24.276,2.042l-0.859,10.223l-13.011-1.094l-0.438,5.169l11.907,1.001l-0.811,9.646
				l-11.907-1.001l-0.453,5.397l13.241,1.112L335,174.878l-24.51-2.062L313.911,132.158z"/>
			<path fill="#FFFFFF" d="M343.617,134.835l12.975,2.272c5.173,0.906,9.017,2.938,11.146,5.977
				c1.84,2.688,2.558,6.015,1.812,10.264l-0.09,0.516c-1.018,5.8-4.001,8.646-7.646,10.2l3.932,16.069l-12.287-2.148l-2.729-12.786
				l-0.979-0.171l-2.094,11.938l-11.079-1.938L343.617,134.835z M353.208,156.753c2.297,0.401,4.188-0.924,4.749-4.14l0.08-0.459
				c0.562-3.215-0.771-5.047-3.013-5.438l-2.008-0.353l-1.767,10.048L353.208,156.753z"/>
			<path fill="#FFFFFF" d="M364.988,175.417l7.062-7.847c2.45,3.396,5.412,6.029,8.164,6.789c1.972,0.543,2.979-0.271,3.271-1.334
				l0.016-0.056c0.355-1.292-0.621-2.354-3.186-4.447c-5.922-4.839-9.281-9.093-7.452-15.728l0.079-0.276
				c2.048-7.416,8.807-10.872,16.84-8.652c4.104,1.132,7.954,3.163,11.535,7.72l-7.235,7.375c-1.537-1.876-3.964-4.479-6.887-5.287
				c-1.629-0.445-2.719,0.221-2.998,1.229l-0.031,0.112c-0.342,1.231,0.734,2.38,3.823,4.981c5.059,4.238,8.581,8.778,6.814,15.188
				l-0.079,0.276c-2.062,7.478-8.949,10.953-16.764,8.802C372.853,182.85,368.576,180.158,364.988,175.417z"/>
		</g>
		<g>
			<path fill="#FFFFFF" d="M185.63,76.899l-0.008-0.04c-0.724-3.765,1.406-7.67,5.586-8.473c4.183-0.809,7.562,2,8.282,5.766
				l0.008,0.039c0.729,3.766-1.407,7.67-5.585,8.474C189.734,83.469,186.354,80.664,185.63,76.899z M198.442,74.435l-0.008-0.04
				c-0.656-3.41-3.683-5.73-7.087-5.075c-3.41,0.655-5.324,3.886-4.668,7.295l0.007,0.04c0.651,3.41,3.678,5.731,7.087,5.076
				C197.185,81.073,199.098,77.845,198.442,74.435z"/>
			<path fill="#FFFFFF" d="M226.376,62.566l0.993-0.146l8.521,13.058l-1.137,0.165l-2.336-3.639l-8.196,1.199l-1.199,4.149
				l-1.072,0.151L226.376,62.566z M231.847,71.137l-4.829-7.513l-2.499,8.579L231.847,71.137z"/>
			<path fill="#FFFFFF" d="M257.355,58.822l1.039-0.092l0.812,9.189l8.104-9.979l1.419-0.125l-5.57,6.716l7.065,7.252l-1.36,0.119
				l-6.38-6.566l-3.168,3.825l0.312,3.562l-1.039,0.092L257.355,58.822z"/>
			<path fill="#FFFFFF" d="M292.541,56.701l1.043-0.007l0.076,13.08l8.243-0.048l0.007,0.963l-9.288,0.055L292.541,56.701z"/>
			<path fill="#FFFFFF" d="M331.321,58.153l0.999,0.087l5.282,14.662l-1.143-0.1l-1.438-4.073l-8.255-0.728l-2.122,3.767
				l-1.079-0.099L331.321,58.153z M334.668,67.751l-2.969-8.417l-4.405,7.771L334.668,67.751z"/>
			<path fill="#FFFFFF" d="M362.315,61.752l0.974,0.146l7.814,13.501l1.771-12.093l0.992,0.146l-2.039,13.899l-0.771-0.113
				l-7.979-13.788l-1.811,12.35l-0.992-0.146L362.315,61.752z"/>
			<path fill="#FFFFFF" d="M398.247,67.639l4.589,0.893c4.333,0.845,6.75,4.4,5.994,8.28l-0.009,0.04
				c-0.756,3.88-4.337,6.312-8.67,5.467l-4.589-0.893L398.247,67.639z M400.336,81.374c3.846,0.748,6.771-1.396,7.414-4.688
				l0.008-0.04c0.641-3.271-1.266-6.419-5.104-7.167l-3.565-0.693l-2.312,11.896L400.336,81.374z"/>
		</g>
	</g>
</g>
<g>
	<path fill="#BDC2BC" d="M534.992,588.913c-0.739,0-1.34-0.602-1.34-1.341v-16.588c0-0.739,0.601-1.339,1.34-1.339h52.497
		c0.738,0,1.339,0.6,1.339,1.339v16.588c0,0.739-0.601,1.341-1.339,1.341H534.992z"/>
	<g>
		<path d="M558.027,571.51c-2.725,0-4.935,2.21-4.935,4.934c0,2.729,2.21,4.938,4.935,4.938c2.728,0,4.938-2.21,4.938-4.938
			C562.964,573.719,560.755,571.51,558.027,571.51z"/>
		<path fill="#FFFFFF" d="M558.027,580.461c-2.219,0-4.015-1.798-4.015-4.019c0-2.217,1.797-4.014,4.015-4.014
			c2.219,0,4.019,1.798,4.019,4.014C562.046,578.664,560.246,580.461,558.027,580.461z"/>
		<g>
			<path d="M559.402,575.293c0-0.219-0.182-0.398-0.398-0.398h-1.952c-0.221,0-0.401,0.181-0.401,0.398v1.985h0.528v2.338h1.694
				v-2.338h0.527L559.402,575.293L559.402,575.293z"/>
			<path d="M558.695,573.942c0,0.37-0.3,0.668-0.667,0.668c-0.371,0-0.67-0.299-0.67-0.668s0.301-0.67,0.67-0.67
				C558.395,573.272,558.695,573.571,558.695,573.942z"/>
		</g>
	</g>
	<path d="M587.175,569.198h-51.868c-1.157,0-2.102,0.943-2.102,2.102v15.96c0,1.158,0.943,2.1,2.102,2.1h51.868
		c1.158,0,2.102-0.94,2.102-2.1V571.3C589.275,570.141,588.332,569.198,587.175,569.198z M588.644,583.375h-37.865
		c-1.477,2.809-4.417,4.725-7.81,4.725s-6.333-1.916-7.809-4.725h-1.326V571.3c0-0.812,0.658-1.471,1.47-1.471h51.869
		c0.811,0,1.471,0.658,1.471,1.471V583.375L588.644,583.375z"/>
	<g>
		<path fill="#FFFFFF" d="M557.773,584.933c0.1,0.14,0.15,0.302,0.15,0.495c0,0.198-0.052,0.357-0.151,0.479
			c-0.057,0.066-0.14,0.131-0.25,0.187c0.168,0.061,0.294,0.155,0.378,0.289c0.085,0.13,0.127,0.289,0.127,0.477
			c0,0.192-0.049,0.365-0.145,0.519c-0.062,0.104-0.14,0.188-0.23,0.256c-0.104,0.078-0.225,0.137-0.369,0.164
			c-0.141,0.028-0.294,0.043-0.459,0.043h-1.466v-3.256h1.573C557.326,584.594,557.607,584.706,557.773,584.933z M556.009,585.151
			v0.717h0.79c0.143,0,0.257-0.026,0.345-0.08s0.133-0.147,0.133-0.286c0-0.15-0.059-0.248-0.176-0.301
			c-0.1-0.033-0.228-0.05-0.383-0.05H556.009L556.009,585.151z M556.009,586.407v0.869h0.789c0.143,0,0.25-0.02,0.328-0.058
			c0.145-0.071,0.217-0.206,0.217-0.407c0-0.17-0.07-0.285-0.208-0.35c-0.077-0.034-0.188-0.056-0.327-0.056L556.009,586.407
			L556.009,586.407z"/>
		<path fill="#FFFFFF" d="M560.469,584.586h0.771l-1.089,2.034v1.222h-0.68v-1.222l-1.127-2.034h0.8l0.677,1.418L560.469,584.586z"
			/>
	</g>
	<g>
		<g>
			<path fill="#FFFFFF" d="M566.517,584.426h0.776l1.403,2.473v-2.473h0.692v3.545h-0.742l-1.443-2.517v2.517h-0.688
				L566.517,584.426L566.517,584.426z"/>
			<path fill="#FFFFFF" d="M570.425,584.797c0.285-0.292,0.647-0.437,1.09-0.437c0.591,0,1.02,0.195,1.295,0.587
				c0.148,0.221,0.229,0.439,0.242,0.661h-0.741c-0.048-0.17-0.106-0.299-0.183-0.384c-0.132-0.153-0.328-0.229-0.586-0.229
				c-0.265,0-0.473,0.107-0.623,0.324c-0.152,0.219-0.229,0.525-0.229,0.923c0,0.399,0.08,0.696,0.241,0.895
				c0.161,0.197,0.365,0.299,0.614,0.299c0.252,0,0.447-0.086,0.581-0.256c0.072-0.09,0.136-0.229,0.183-0.41h0.736
				c-0.066,0.387-0.226,0.699-0.486,0.943c-0.262,0.241-0.594,0.36-1.002,0.36c-0.505,0-0.901-0.163-1.19-0.489
				c-0.288-0.328-0.434-0.777-0.434-1.353C569.93,585.607,570.095,585.133,570.425,584.797z"/>
		</g>
	</g>
	<g>
		<path fill="#FFFFFF" d="M578.517,586.944c0.022,0.173,0.073,0.303,0.145,0.389c0.132,0.154,0.354,0.233,0.673,0.233
			c0.19,0,0.347-0.021,0.465-0.062c0.225-0.078,0.338-0.226,0.338-0.438c0-0.125-0.055-0.223-0.166-0.291
			c-0.113-0.066-0.285-0.126-0.525-0.178l-0.411-0.088c-0.401-0.093-0.679-0.188-0.829-0.294c-0.254-0.173-0.383-0.448-0.383-0.819
			c0-0.339,0.126-0.619,0.376-0.846c0.249-0.224,0.617-0.336,1.102-0.336c0.401,0,0.748,0.104,1.033,0.315
			c0.284,0.213,0.436,0.521,0.45,0.922h-0.762c-0.014-0.227-0.117-0.387-0.306-0.484c-0.126-0.065-0.282-0.096-0.473-0.096
			c-0.209,0-0.375,0.041-0.499,0.122c-0.126,0.083-0.188,0.196-0.188,0.346c0,0.135,0.062,0.236,0.186,0.303
			c0.079,0.043,0.246,0.096,0.502,0.155l0.665,0.156c0.292,0.068,0.513,0.162,0.655,0.276c0.227,0.179,0.339,0.435,0.339,0.771
			c0,0.351-0.134,0.637-0.4,0.863c-0.269,0.229-0.646,0.344-1.134,0.344c-0.5,0-0.891-0.112-1.176-0.339
			c-0.287-0.224-0.432-0.536-0.432-0.929L578.517,586.944L578.517,586.944z"/>
		<path fill="#FFFFFF" d="M582.542,584.325h0.896l1.34,3.791h-0.858l-0.249-0.778h-1.396l-0.255,0.778h-0.828L582.542,584.325z
			 M582.486,586.681h0.972l-0.479-1.49L582.486,586.681z"/>
	</g>
	<g>
		<circle cx="542.95" cy="579.28" r="7.771"/>
		<circle fill="#FFFFFF" cx="542.95" cy="579.278" r="6.322"/>
		<g>
			<path d="M542.597,578.348l-1.188,0.215c-0.041-0.237-0.131-0.416-0.273-0.537c-0.143-0.119-0.325-0.178-0.55-0.178
				c-0.302,0-0.537,0.104-0.72,0.31c-0.18,0.204-0.268,0.555-0.268,1.038c0,0.539,0.09,0.921,0.271,1.146
				c0.183,0.223,0.426,0.332,0.73,0.332c0.229,0,0.417-0.064,0.562-0.195c0.146-0.131,0.249-0.354,0.311-0.67l1.182,0.199
				c-0.123,0.545-0.354,0.954-0.707,1.229c-0.348,0.276-0.813,0.416-1.399,0.416c-0.668,0-1.197-0.21-1.594-0.629
				c-0.396-0.42-0.592-1.004-0.592-1.746c0-0.75,0.198-1.337,0.594-1.754c0.397-0.42,0.936-0.627,1.613-0.627
				c0.555,0,0.995,0.118,1.322,0.355C542.219,577.497,542.453,577.86,542.597,578.348z"/>
			<path d="M547.477,578.348l-1.188,0.215c-0.039-0.237-0.131-0.416-0.272-0.537c-0.144-0.119-0.325-0.178-0.551-0.178
				c-0.301,0-0.539,0.104-0.72,0.31c-0.178,0.204-0.268,0.555-0.268,1.038c0,0.539,0.09,0.921,0.271,1.146
				c0.182,0.223,0.426,0.332,0.729,0.332c0.229,0,0.417-0.064,0.562-0.195c0.146-0.131,0.25-0.354,0.311-0.67l1.183,0.199
				c-0.123,0.545-0.356,0.954-0.708,1.229c-0.349,0.276-0.814,0.416-1.4,0.416c-0.668,0-1.197-0.21-1.593-0.629
				c-0.396-0.42-0.592-1.004-0.592-1.746c0-0.75,0.196-1.337,0.595-1.754c0.396-0.42,0.934-0.627,1.612-0.627
				c0.554,0,0.994,0.118,1.322,0.355C547.1,577.497,547.337,577.86,547.477,578.348z"/>
		</g>
	</g>
	<g>
		<path d="M569.93,571.719c-2.61,0-4.727,2.115-4.727,4.726c0,2.612,2.115,4.729,4.727,4.729s4.728-2.113,4.728-4.729
			C574.658,573.834,572.546,571.719,569.93,571.719z"/>
		<circle fill="#FFFFFF" cx="569.93" cy="576.447" r="3.846"/>
		
			<rect x="569.488" y="571.955" transform="matrix(0.4225 -0.9063 0.9063 0.4225 -193.3242 849.4399)" width="0.924" height="8.958"/>
		<g>
			<path d="M569.58,579.151v-0.637c-0.444-0.013-0.877-0.14-1.129-0.277l0.197-0.776c0.279,0.153,0.672,0.292,1.101,0.292
				c0.382,0,0.646-0.151,0.646-0.409c0-0.252-0.223-0.41-0.709-0.578c-0.711-0.238-1.196-0.568-1.196-1.215
				c0-0.59,0.411-1.047,1.122-1.181v-0.631h0.65v0.584c0.443,0.015,0.742,0.115,0.968,0.222l-0.199,0.748
				c-0.167-0.079-0.478-0.232-0.954-0.232c-0.434,0-0.571,0.193-0.571,0.381c0,0.212,0.231,0.356,0.798,0.564
				c0.796,0.276,1.107,0.643,1.107,1.246c0,0.591-0.411,1.09-1.182,1.221v0.684L569.58,579.151L569.58,579.151z"/>
		</g>
	</g>
	<g>
		<path d="M581.185,571.784c-2.571,0-4.66,2.086-4.66,4.658c0,2.576,2.089,4.665,4.66,4.665c2.576,0,4.665-2.089,4.665-4.665
			C585.852,573.87,583.761,571.784,581.185,571.784z"/>
		<path fill="#FFFFFF" d="M581.185,580.238c-2.092,0-3.789-1.698-3.789-3.794c0-2.091,1.695-3.79,3.789-3.79
			c2.096,0,3.793,1.696,3.793,3.79C584.979,578.538,583.281,580.238,581.185,580.238z"/>
		<path d="M581.185,573.885c-1.016,0-1.874,0.733-2.182,1.746h-0.294l0.933,1.016l0.93-1.016h-0.348
			c0.215-0.37,0.563-0.616,0.96-0.616c0.65,0,1.179,0.646,1.179,1.443c0,0.793-0.526,1.44-1.179,1.44
			c-0.432,0-0.81-0.289-1.016-0.72h-1.196c0.278,1.068,1.167,1.854,2.214,1.854c1.273,0,2.311-1.155,2.311-2.576
			C583.496,575.034,582.464,573.885,581.185,573.885z"/>
	</g>
</g>
<g>
	<path d="M11.392,586.197c-0.652,0-1.248-0.138-1.786-0.41c-0.539-0.271-1.002-0.631-1.39-1.07c-0.388-0.441-0.688-0.949-0.9-1.521
		C7.106,582.619,7,582.032,7,581.432c0-0.626,0.114-1.226,0.338-1.797c0.226-0.574,0.533-1.08,0.927-1.521
		c0.393-0.44,0.857-0.792,1.396-1.053c0.538-0.26,1.119-0.39,1.746-0.39c0.653,0,1.248,0.138,1.786,0.417
		c0.538,0.275,0.999,0.641,1.382,1.09s0.682,0.959,0.893,1.528c0.213,0.567,0.318,1.144,0.318,1.726c0,0.636-0.113,1.24-0.338,1.812
		c-0.225,0.574-0.534,1.079-0.926,1.517c-0.394,0.437-0.856,0.785-1.391,1.045C12.598,586.066,12.018,586.197,11.392,586.197z
		 M7.675,581.432c0,0.539,0.091,1.057,0.271,1.555s0.437,0.939,0.768,1.324c0.33,0.383,0.724,0.69,1.178,0.92
		c0.455,0.229,0.955,0.344,1.502,0.344c0.563,0,1.072-0.117,1.527-0.355c0.454-0.239,0.846-0.555,1.17-0.946
		c0.327-0.392,0.578-0.834,0.755-1.328s0.265-0.997,0.265-1.51c0-0.538-0.092-1.057-0.277-1.555
		c-0.185-0.498-0.442-0.939-0.773-1.323s-0.723-0.691-1.179-0.919c-0.454-0.229-0.949-0.347-1.486-0.347
		c-0.565,0-1.076,0.119-1.536,0.357c-0.458,0.238-0.85,0.554-1.17,0.945c-0.322,0.394-0.571,0.836-0.748,1.33
		C7.762,580.422,7.675,580.923,7.675,581.432z"/>
	<path d="M23.14,578.299c-0.608-0.681-1.469-1.021-2.58-1.021c-0.918,0-1.587,0.175-2.006,0.523
		c-0.417,0.349-0.628,0.817-0.628,1.407c0,0.302,0.054,0.554,0.159,0.755c0.106,0.202,0.271,0.373,0.496,0.51
		c0.226,0.137,0.513,0.256,0.86,0.355c0.35,0.103,0.761,0.2,1.237,0.299c0.512,0.106,0.97,0.223,1.377,0.352
		c0.404,0.127,0.75,0.289,1.038,0.483c0.287,0.193,0.508,0.433,0.662,0.715c0.153,0.281,0.231,0.632,0.231,1.044
		c0,0.414-0.082,0.775-0.245,1.086c-0.163,0.31-0.392,0.565-0.688,0.773c-0.297,0.208-0.648,0.364-1.059,0.471
		c-0.411,0.104-0.867,0.157-1.37,0.157c-1.463,0-2.704-0.467-3.717-1.401l0.356-0.542c0.396,0.415,0.882,0.743,1.457,0.984
		c0.573,0.242,1.217,0.363,1.931,0.363c0.821,0,1.461-0.147,1.925-0.449c0.462-0.301,0.695-0.754,0.695-1.362
		c0-0.309-0.06-0.57-0.178-0.787s-0.303-0.404-0.551-0.562c-0.247-0.158-0.554-0.295-0.919-0.409
		c-0.364-0.115-0.796-0.225-1.29-0.33c-0.503-0.105-0.945-0.219-1.329-0.338c-0.384-0.117-0.708-0.269-0.972-0.449
		c-0.265-0.181-0.463-0.398-0.596-0.654s-0.199-0.578-0.199-0.967c0-0.423,0.082-0.797,0.246-1.124
		c0.163-0.326,0.391-0.603,0.682-0.826c0.291-0.226,0.64-0.395,1.044-0.511c0.406-0.114,0.854-0.17,1.351-0.17
		c0.607,0,1.15,0.09,1.627,0.27c0.477,0.183,0.909,0.459,1.296,0.828L23.14,578.299z"/>
	<path d="M25.734,586.131v-9.395h3.863c0.396,0,0.763,0.085,1.098,0.251c0.335,0.168,0.624,0.392,0.866,0.669
		s0.432,0.591,0.568,0.938c0.138,0.35,0.205,0.698,0.205,1.053c0,0.381-0.063,0.746-0.191,1.098
		c-0.128,0.354-0.31,0.666-0.542,0.939c-0.232,0.272-0.512,0.492-0.833,0.654c-0.323,0.164-0.683,0.245-1.078,0.245h-3.281v3.546
		L25.734,586.131L25.734,586.131z M26.408,581.963h3.241c0.309,0,0.586-0.064,0.833-0.191s0.456-0.3,0.629-0.516
		c0.171-0.218,0.303-0.463,0.396-0.741c0.092-0.276,0.139-0.565,0.139-0.866c0-0.309-0.056-0.602-0.165-0.879
		c-0.11-0.279-0.26-0.523-0.45-0.734c-0.189-0.213-0.41-0.381-0.661-0.504s-0.519-0.186-0.801-0.186h-3.162L26.408,581.963
		L26.408,581.963z"/>
	<path d="M33.963,586.131v-9.395h3.917c0.397,0,0.764,0.085,1.098,0.251c0.335,0.168,0.622,0.392,0.859,0.669
		c0.238,0.277,0.426,0.591,0.563,0.938c0.137,0.35,0.204,0.698,0.204,1.053c0,0.344-0.054,0.676-0.159,0.998
		c-0.105,0.324-0.254,0.611-0.45,0.867c-0.194,0.256-0.427,0.467-0.7,0.635c-0.273,0.169-0.572,0.277-0.899,0.331l2.341,3.651
		h-0.781l-2.274-3.547h-3.043v3.547L33.963,586.131L33.963,586.131z M34.636,581.963h3.295c0.299,0,0.571-0.064,0.819-0.197
		c0.247-0.132,0.458-0.307,0.636-0.522c0.176-0.216,0.311-0.462,0.402-0.741c0.093-0.277,0.141-0.562,0.141-0.853
		c0-0.3-0.056-0.589-0.166-0.866c-0.11-0.276-0.261-0.522-0.45-0.733c-0.189-0.212-0.409-0.382-0.661-0.511
		c-0.252-0.127-0.523-0.192-0.814-0.192h-3.201V581.963z"/>
	<path d="M48.899,585.521v0.608h-6.258v-9.395h6.139v0.61h-5.464v3.688h4.775v0.582h-4.775v3.903h5.583V585.521z"/>
	<path d="M50.421,576.736l3.281,5.199l3.308-5.199h0.742l-3.706,5.849v3.546h-0.674v-3.572l-3.69-5.821L50.421,576.736
		L50.421,576.736z"/>
	<path d="M59.126,586.131v-9.395h3.122c0.741,0,1.392,0.124,1.951,0.371c0.561,0.248,1.025,0.583,1.396,1.007
		c0.371,0.423,0.647,0.919,0.833,1.487c0.185,0.567,0.277,1.175,0.277,1.819c0,0.715-0.104,1.36-0.311,1.938
		s-0.505,1.07-0.894,1.481c-0.388,0.409-0.857,0.729-1.41,0.953c-0.552,0.224-1.167,0.337-1.845,0.337L59.126,586.131
		L59.126,586.131z M66.031,581.421c0-0.592-0.083-1.137-0.251-1.635c-0.167-0.498-0.412-0.93-0.733-1.291
		c-0.322-0.359-0.718-0.644-1.185-0.848c-0.466-0.202-1.005-0.303-1.614-0.303h-2.447v8.177h2.447c0.617,0,1.162-0.104,1.633-0.312
		c0.473-0.206,0.866-0.495,1.185-0.865c0.316-0.37,0.559-0.805,0.722-1.303S66.031,582.003,66.031,581.421z"/>
	<path d="M67.288,586.131l3.996-9.395h0.555l3.997,9.395h-0.728l-1.311-3.097h-4.484l-1.311,3.097H67.288z M71.562,577.557
		l-2.09,4.922h4.141L71.562,577.557z"/>
	<path d="M80.148,576.802h0.661l1.401,3.413l1.403-3.413h0.661l-1.654,3.956l1.971,4.577l3.6-8.601h0.742l-4.023,9.395h-0.62
		l-2.063-4.829l-2.077,4.829h-0.622l-4.008-9.395h0.728l3.612,8.601l1.945-4.577L80.148,576.802z"/>
	<path d="M91.05,578.008v8.123h-0.675v-9.394h0.518l6.588,8.27v-8.255h0.675v9.379h-0.622L91.05,578.008z"/>
	<path d="M100.297,586.131v-1.125h0.583v1.125H100.297z"/>
	<path d="M102.401,581.368c0-0.563,0.098-1.127,0.298-1.688c0.197-0.561,0.486-1.062,0.866-1.502c0.379-0.44,0.844-0.8,1.395-1.077
		c0.552-0.277,1.181-0.418,1.887-0.418c0.838,0,1.552,0.192,2.144,0.576c0.591,0.383,1.027,0.877,1.309,1.475l-0.556,0.318
		c-0.159-0.327-0.351-0.601-0.576-0.82c-0.224-0.221-0.466-0.399-0.727-0.537c-0.261-0.137-0.533-0.234-0.814-0.298
		c-0.281-0.062-0.562-0.092-0.833-0.092c-0.6,0-1.129,0.121-1.589,0.364c-0.458,0.241-0.847,0.558-1.164,0.944
		c-0.316,0.39-0.557,0.826-0.722,1.316c-0.164,0.489-0.245,0.981-0.245,1.475c0,0.558,0.097,1.086,0.291,1.59
		c0.195,0.502,0.459,0.945,0.795,1.328c0.334,0.383,0.731,0.691,1.19,0.919c0.458,0.229,0.951,0.346,1.48,0.346
		c0.282,0,0.571-0.036,0.866-0.106c0.296-0.069,0.583-0.18,0.86-0.329c0.277-0.15,0.536-0.343,0.774-0.576
		c0.238-0.232,0.437-0.51,0.594-0.827l0.569,0.278c-0.159,0.352-0.372,0.665-0.642,0.939c-0.271,0.271-0.57,0.502-0.906,0.688
		c-0.335,0.186-0.689,0.324-1.065,0.416c-0.375,0.092-0.742,0.139-1.104,0.139c-0.644,0-1.233-0.141-1.768-0.423
		c-0.532-0.281-0.994-0.649-1.382-1.104c-0.387-0.455-0.689-0.972-0.905-1.549C102.509,582.555,102.401,581.969,102.401,581.368z"/>
	<path d="M115.882,586.197c-0.652,0-1.247-0.138-1.785-0.41c-0.538-0.271-1.001-0.631-1.39-1.07
		c-0.388-0.441-0.688-0.949-0.898-1.521c-0.212-0.572-0.317-1.16-0.317-1.76c0-0.627,0.112-1.225,0.337-1.798
		c0.224-0.573,0.534-1.081,0.926-1.521c0.394-0.44,0.857-0.792,1.396-1.052c0.539-0.261,1.121-0.391,1.747-0.391
		c0.65,0,1.247,0.139,1.786,0.416c0.538,0.276,0.999,0.643,1.381,1.091c0.384,0.45,0.682,0.959,0.894,1.529
		c0.211,0.566,0.317,1.144,0.317,1.726c0,0.635-0.113,1.239-0.337,1.812c-0.226,0.572-0.534,1.077-0.928,1.514
		c-0.393,0.438-0.854,0.785-1.389,1.046C117.087,586.066,116.509,586.197,115.882,586.197z M112.164,581.432
		c0,0.539,0.09,1.057,0.271,1.555c0.181,0.498,0.436,0.939,0.767,1.324c0.331,0.383,0.724,0.69,1.178,0.92s0.954,0.344,1.501,0.344
		c0.564,0,1.073-0.117,1.527-0.355c0.456-0.239,0.845-0.555,1.171-0.946s0.578-0.834,0.754-1.328
		c0.175-0.494,0.266-0.997,0.266-1.51c0-0.538-0.094-1.057-0.278-1.555c-0.186-0.498-0.443-0.939-0.774-1.323
		s-0.724-0.691-1.178-0.919c-0.455-0.229-0.95-0.347-1.488-0.347c-0.563,0-1.075,0.119-1.534,0.357s-0.851,0.554-1.172,0.945
		c-0.321,0.394-0.57,0.836-0.748,1.33C112.252,580.422,112.164,580.923,112.164,581.432z"/>
	<path d="M130.659,586.131v-8.123l-3.704,6.338h-0.423l-3.705-6.338v8.123h-0.675v-9.394h0.675l3.916,6.722l3.916-6.722h0.675v9.394
		H130.659L130.659,586.131z"/>
</g>
</svg>
