<?xml version="1.0" encoding="utf-8"?>
<!-- Generator: Adobe Illustrator 16.0.0, SVG Export Plug-In . SVG Version: 6.00 Build 0)  -->
<!DOCTYPE svg PUBLIC "-//W3C//DTD SVG 1.1//EN" "http://www.w3.org/Graphics/SVG/1.1/DTD/svg11.dtd">
<svg version="1.1" id="Layer_1" xmlns="http://www.w3.org/2000/svg" xmlns:xlink="http://www.w3.org/1999/xlink" x="0px" y="0px"
	 width="595.275px" height="595.279px" viewBox="0 0 595.275 595.279" enable-background="new 0 0 595.275 595.279"
	 xml:space="preserve">
<metadata><?xpacket begin="﻿" id="W5M0MpCehiHzreSzNTczkc9d"?>
<x:xmpmeta xmlns:x="adobe:ns:meta/" x:xmptk="Adobe XMP Core 5.3-c011 66.145661, 2012/02/06-14:56:27        ">
   <rdf:RDF xmlns:rdf="http://www.w3.org/1999/02/22-rdf-syntax-ns#">
      <rdf:Description rdf:about=""
            xmlns:dc="http://purl.org/dc/elements/1.1/">
         <dc:format>image/svg+xml</dc:format>
         <dc:title>
            <rdf:Alt>
               <rdf:li xml:lang="x-default">NFL Logo Redesigns</rdf:li>
               <rdf:li xml:lang="en_us">NFL Logo Redesigns</rdf:li>
            </rdf:Alt>
         </dc:title>
         <dc:creator>
            <rdf:Seq>
               <rdf:li>Max O'Brien/Osprey Dawn</rdf:li>
            </rdf:Seq>
         </dc:creator>
      </rdf:Description>
      <rdf:Description rdf:about=""
            xmlns:xmp="http://ns.adobe.com/xap/1.0/"
            xmlns:xmpGImg="http://ns.adobe.com/xap/1.0/g/img/">
         <xmp:CreatorTool>Adobe Illustrator CS6 (Macintosh)</xmp:CreatorTool>
         <xmp:ModifyDate>2013-10-06T23:38:17+13:00</xmp:ModifyDate>
         <xmp:MetadataDate>2013-10-06T23:38:17+13:00</xmp:MetadataDate>
         <xmp:CreateDate>2013-10-06T23:38:17+13:00</xmp:CreateDate>
         <xmp:Thumbnails>
            <rdf:Alt>
               <rdf:li rdf:parseType="Resource">
                  <xmpGImg:width>256</xmpGImg:width>
                  <xmpGImg:height>236</xmpGImg:height>
                  <xmpGImg:format>JPEG</xmpGImg:format>
                  <xmpGImg:image>/9j/4AAQSkZJRgABAgEASABIAAD/7QAsUGhvdG9zaG9wIDMuMAA4QklNA+0AAAAAABAASAAAAAEA&#xA;AQBIAAAAAQAB/+4ADkFkb2JlAGTAAAAAAf/bAIQABgQEBAUEBgUFBgkGBQYJCwgGBggLDAoKCwoK&#xA;DBAMDAwMDAwQDA4PEA8ODBMTFBQTExwbGxscHx8fHx8fHx8fHwEHBwcNDA0YEBAYGhURFRofHx8f&#xA;Hx8fHx8fHx8fHx8fHx8fHx8fHx8fHx8fHx8fHx8fHx8fHx8fHx8fHx8fHx8f/8AAEQgA7AEAAwER&#xA;AAIRAQMRAf/EAaIAAAAHAQEBAQEAAAAAAAAAAAQFAwIGAQAHCAkKCwEAAgIDAQEBAQEAAAAAAAAA&#xA;AQACAwQFBgcICQoLEAACAQMDAgQCBgcDBAIGAnMBAgMRBAAFIRIxQVEGE2EicYEUMpGhBxWxQiPB&#xA;UtHhMxZi8CRygvElQzRTkqKyY3PCNUQnk6OzNhdUZHTD0uIIJoMJChgZhJRFRqS0VtNVKBry4/PE&#xA;1OT0ZXWFlaW1xdXl9WZ2hpamtsbW5vY3R1dnd4eXp7fH1+f3OEhYaHiImKi4yNjo+Ck5SVlpeYmZ&#xA;qbnJ2en5KjpKWmp6ipqqusra6voRAAICAQIDBQUEBQYECAMDbQEAAhEDBCESMUEFURNhIgZxgZEy&#xA;obHwFMHR4SNCFVJicvEzJDRDghaSUyWiY7LCB3PSNeJEgxdUkwgJChgZJjZFGidkdFU38qOzwygp&#xA;0+PzhJSktMTU5PRldYWVpbXF1eX1RlZmdoaWprbG1ub2R1dnd4eXp7fH1+f3OEhYaHiImKi4yNjo&#xA;+DlJWWl5iZmpucnZ6fkqOkpaanqKmqq6ytrq+v/aAAwDAQACEQMRAD8A9U4q7FXYq7FXYq7FXYq7&#xA;FXYq7FXYq7FXYq7FXYq7FXYq7FUs8y+ZNK8uaPPq2qS+nawDoN3dz9lEXuzH/OmXafTyyzEI8y15&#xA;cscceKXJ8sfmH+fXmXWbs20FxLY2kjcbbS7FiJXDGg9WRaM5bw6eAzpRg02jjc/VP8fAOlOXNqD6&#xA;fTH8fNLvyjMmu+etC9eMq315XdXbmT9WPqGpNP8AfdMycur49JKYFbEfoaYafh1EYk3u+y84t6R2&#xA;KuxV3TFUj8t+cNG8xXGpxaXJ6yaZOLeSYbo7Fa8kI6rWor3p4Zk6jSzxCJl/ELacWeOQnh6J5mM3&#xA;OxV2KuxV2KuxV2KuxV2KuxV2KuxV2KuxV2KuxV2KuxV2KuxV2KuxV2KuxV8u/wDOSXn83OtyaZBJ&#xA;Wy0UemEB+GS8cfGTT+T7PtRvHOo7OgNPpzlP1S5fo/W6PWSObMMY+mP4Lz38mdIS71m61y7AlntY&#xA;ZZrcuKjmKLy/4Y08KZyXtTmlDQ8RPqzZBC/6O5PzqvdbvexoRlqeHpjhxfHkP1+9Pf8AnG2ZF88a&#xA;A8jdZLpSTv8AE8EoX8WGdbIX2ea/HqDoh/jY/HR9j5y7vHYq7FXif58fmvFp9pP5Z0i5C3DKf0vd&#xA;of7qPvApH7bft+A26nboOydAK8bJ9I5fr/U6nX6o/wB3D6jz/UlP/OL+qq9/rFopPp3VtBdoD2Eb&#xA;Fen/AD2GXdugTxwmPxYtq7KuM5RP4p9BZzLu3Yq7FXYq7FXYq7FXYq7FXYq7FXYq7FXYq7FXYq7F&#xA;XYq7FXYqgdT17RNLTnqWoW1kvWtxKkVflyIy3HhnP6QT7gwnkjH6iAxm7/OX8tLUkPrcbsO0UU0t&#xA;fpRGH45mR7J1Mv4PucaWvwj+JLZPz/8Ay4RqLc3Eg/mW3en/AA3E5aOxNR3D5tZ7Tw95+Tj+fv5d&#xA;NbTOl3KsyIxiikglHNgtVWqqwHI7b4f5F1FjYV7wv8p4q5/Y+OfPmqXF5fgzuXmmZ7m4c9WeRjuf&#xA;prmz7WmBw4xyA/YHC7PjfFM8yzL8kdWtorxbSUikySW7KaU5OwkWvzoVzl/ajTHUdlXD6sE+I+7c&#xA;H77+Duex8wxa71cskeH47fq+1LtAmvvJXnaayTa60m7W6si1aSRghlr7MlK/M5vPZ3Ww1ml4T/HH&#xA;7eUvkXXdr6aWnzcQ/hP9j7a8u6/p/mDRbTV9PfnbXaBwP2kboyNT9pG2OafPglimYS5h2OLKJxEh&#xA;yKY5S2PJPzd/Omz0G3n0fQZ0k1ehW6vAQY7Uftb9DL7fs999s3fZvZfH+8y7Yx9v7HWazXcPohvL&#xA;7v2vkDzFr8upTuiuzQcizOxJaRyalmJ365fr9b4h4Y/QPta9JpeD1S+ovd/+cWZmHmhAOkmlyI1f&#xA;BZIj+tcs7R30UPePuLXo9tTL4/ofUecy7t2KuxV2KuxV2KuxV2KuxV2KuxV2KuxV2KuxV2KuxVQv&#xA;b6ysbWS6vZ47a2iFZJ5mCIo92YgZKEDI1EWWMpCIs7B5V5s/5yK8uaf6kGg27arOtR9ZesNuD4/E&#xA;Ob0+QHvm703YWSW+Q8I+11ubtSA2gOIvFPNn/OQnmvUi8cmrvbxGv+i6aPRUA9jIp5n5FzmcIaLB&#xA;045fP9jimWpy/wBEfL9rCbS98269Kz6RpM92XJ5XDK8gJ7ln+FQfm2Yes9p8WDYmEPed/k5Gn7Fn&#xA;k/nS9360/svyv/NG8Aa4mtdPU9VkdWYf8ill/XnNaj2+xR+mUpe6I/31O4xey8jzAHvP6kcfyd15&#xA;QBd+aYYZP5Qp+ncsn6swx7bZ57wx5JD8dwLkH2dxR+qcB+PMuP5S66gH1bzVbSydkkTY/Tyk/Vlk&#xA;PbXUx3liygfP7wwl7PYJcpwv8ebzXzlpup6X5guNO1OSKW8thGsjwcjGQ6CRacgp+y47ZusPaX52&#xA;AzURxd/ka83Ano/y0jj7v0obQNQmsdVt5Y3KVdVYg06kUP0HfM7STAnR3jL0kd4LjaiFwscxuPeH&#xA;rHm/T5vN3l6PzFp6U8xaGAt3Gg3mg3aoHtuwH+sPDOWOGXYmv8K/8HzHixn+ae4/YD5cJ73cRyjt&#xA;LTcdfvce0h3jv/T81H8tPzs1fyzWKxmiMVwwa4065BMTPSnJGBUqxHgfCoNM7yf5fWAcfpyfj5vM&#xA;xGbTk8O8E389f85EeZNVSS2+trp1q1QbOwqJGHhJLXl8xVQfDIQ0+k0259c/n9nL5spZdRn5emLx&#xA;jVteutQPD+6t619MGpPux75iavXzzbco9zkafSRx785JZmA5b6Y/5xZsmPmN5iCFg0s1I/nkkioD&#xA;9HLNt2p6dJAe77i67Rb6iR9/3vpzOZd27FXYq7FXYq7FXYq7FXYq7FXYq7FXYq7FXYq7FXnP5ifn&#xA;VoHlUS2Vnx1LWUBDQq1IYSP9/OO4/kG/jTNtouyp5vVL0w7/ANX63A1Ovjj2Hqk+XPPX5v635jvG&#xA;kvbpr11YmGFapaxV2/dxj7q9T4nNr+awaYcOEWe/9vX7nA/L5cxvIaHct0D8r/OvmcLc6pIdL05v&#xA;iBmU8yPFYAV+9yPpziu1vbDHE8IPiy7o/T8/7Xo9B2BIi64B3nn+Pky210L8rfKlAkH6a1FOskvG&#xA;YBh86QrQ+AJGYWn7L7Z7S3P+D4j3+n7PqPxoFvza/s/SbD97P5/b9P3lu/8AzI1qYenZRx2MIFFC&#xA;AOwHhVhx+5c6XQf8D7RYt8xlml5+kfIb/ORdNqvavUz2xgYx8z8z+pjGo+Z7mUn6/qbN4pJKafQt&#xA;f4Z0+HQaHS/RDHD4Rv8AW6bJqdTn+qU5fE1+pKW8waOta3K7eAY/qGZJ7QwD+L72oaPKeja69pDG&#xA;guV+kMP1jEdoYT/Ep0mUfwse8zxxSXK3kEiyxSKFYowajDxp4jNN2pGJmJxIIP3uy0MiI8MhRCTR&#xA;uUdXHVSCPozWRNG3OIsU9/8Ayrdjql4AfgaAMR2JDin681//AASQDpcR6+J/vT+xu9jyRnmP6H6Q&#xA;8c8waOn+MNV07TlBgivJ44qfZRFkI3p2XpmR2RHJqMOP+dKEb+XNjr5QxTn/ADRIo1PJ9qqVluHJ&#xA;G5KgKPxrnTx7GgB6pF0h7SkTsGNXQgFxILevog0jJNSQNqn59c0WXh4jw/S7XHfCOLmv0+0a7vIr&#xA;df22+I+Cjcn7snp8JyTER1Y5snBEyfZf/ONvlxrPy7fa1InE6jKsNtUf7pt6gsPYuzD/AGOX9vZg&#xA;Zxxj+Eff+xp7Kx1EzP8AE9hzQu1dirsVdirsVdirsVdirsVdirsVdirsVdiq2WWKKJ5ZXWOKNS0k&#xA;jEKqqoqSSdgAMIBJoIJp89fm7/zkAPRuNN8tTtBYrVLjVF+GWU/yW/dV/wArqe1Buej0nZsMMfFz&#xA;/CP46+Tp9RrZZJcGL5vnS3TzB5u1VNN06JnaQ8vSBoqqDvJK3gPE/Rvmv7W7aEIGeQ8OMdO/9Zcv&#xA;QdnEyEYDin3/AI5PWdF8oeUPIFvHd6iV1PzARyj2B4H/AIqQ7IP8tt/DwziMENf23Mwwjw9OOcun&#xA;x/nH+iNu/veiyz03Z0eLJ68vQfjkPM/DuSjzJ531LUVc3U4tLH/fCHitPBj1c/50z0Xsj2X0XZse&#xA;OuLIP45c/wDN/m/DfzLyOv7Z1OsPDdQ/mx/T3/HZgl95uiWqWcfqH/fj7L9A6n8Mzs/bAG0BfmWj&#xA;F2cTvM0kV1rGpXRPqztxP7C/Cv3DNTl1mXJzk7DHpscOQQeYre7FXYq7FXYq9K8iedbqwhY2bR/W&#xA;jEIpkkFdl6OtCM2Oq7M03auGGPMZXjN7GvLuOxcDFrM2hySnjqp97SxRIzsiKjSEs5UAVJ3JNM6X&#xA;FhhjjwwAAdPkySmbkbKV+aJpItIYoaCWRYm8aMGb/jSma3tbVcERjHOd/IVf3hzez8HFIy6R+88v&#xA;uYVnNu6ejflV5Ev9e1i1soEIub5hWQiohtxu8jfRv9w75vNJEabCc0+Z5fjzdVqJHNkGOPL8fc+4&#xA;9J0uz0rTLXTbJPTtbOJYYV78UFKk9yepOctlyGcjI8y72EBGIA5BF5Bk7FXYq7FXYq7FXYq7FXYq&#xA;7FXYq7FXYq7FXn/5weU/OnmPRltdAvY0tkBa7041ie4I+yPVrxI/yGoK7k9KbXsvU4cU7yDfoe74&#xA;fpcHXYcmSNQO3d3vkHzr5V8w29+9vdQvDPbbPYyqUdT/ADCv2q+P3Zu9dgnnAnjPFHudZpcscRMZ&#xA;jhkjfyz/ADKtvKbPp2oaev1WeSs95EpFyrdBzBPxqv8AKKU365532/2DPVHijIicf4Ty/YXrezO0&#xA;44RRHpPUc/2vRfM/lq11q1/xHoEwu0nX1JEQlxIO7JXcMOhT+O2W+yntUdKRotWOAR2jLlw+UvL+&#xA;l89txT252GMwOpwHiJ3I535j9Xy7nlPmDRJL1fWhY+vGP7pj8JHsD0OejdoaI5RxRPqHR5PR6oYz&#xA;R5MNZSpKsKMNiD1BzmSKd2C7Al2KuxV2KuxV2Kr4J5YJVliYrIhqrDJwmYESHMMZxEhR5M60jU01&#xA;C0Eoosi/DKng39DnW6PVDNC+vV57UYDjlXROvNfluVvLOoiJS8ax2+rWj9S0KExyAnxRbg8vlnF9&#xA;odpxyyxSO04ZJ4ZjukRYPulwXH313vRaPRnGJgfTKEckfdy+zi39zzTSEt31O3S4HKJnoVPQk/Z/&#xA;4amZ2jjE5YiXK2nUmQxkx5vs3/nHPRtEi8rT6vb/ALzVbmZ7e8dgKxrGQUjXwBVg58T8hk+3cszl&#xA;ED9IFhh2VjjwcQ+p63mido7FXYq7FXYq7FXYq7FXYq7FXYq7FXYq7FXYq7FXi/57+bvIUli+jz26&#xA;6lr0VRFNCwU2jd+coDfTHv702OdD2Nps4PGDw4/Pr8P0uo7Rz4iOGrl9347nyj5lvtLuGCwL6lyh&#xA;o067LTwr+1l/aefDM1HeXf8Ajm16HFkjz2j3My/Ja686WupqlnYzXXl+5YC7LfBFGenqxs5VeS/t&#xA;Beo+jPOvafHpZ47lIRzR5d58jXTu7vm9b2PLNGXpBOM8+73hlf5iaPp1tei9s5ohJOxFzaqy8w/X&#xA;mFBrRu/v886b2D7V1GbCcGaM+GA9EyDRjy4b5WOnl7nR+0+hxY8niYzG5H1RsXffXn18/e8o816W&#xA;FpfxLQE8ZwPHs38M6PtbS1+8Hx/W6vs/PfoPwY3mjdo7FXYq7FURY2NzezrDAtWP2mP2VHix8Mtx&#xA;YZ5DURZa8mWMBcjTIdU/L7ULTSH1Wzu4NSt7cA3qQeoskIO3JkkVSU/yhmBk1E8OYYs8JYzL6SaM&#xA;Ze4gnfyLk48cckDPHITEefOx8D082LZlNSa+W7422oqjGkU/7tvn+yfvzY9mZ+DKB0lt+pw9bi44&#xA;X1D6D8gva6p5bksbpBL9X9W2ZT19GcVI+Tbj6M899vME9Nr/ABIGo5RGXlxQ2+Y2Px83qPZfLHNp&#xA;uCW5xkj/ADZb/j3PnzzNoV15e8wXelzVD2sh9KTpyQ/FG4+a0OdP2frBqMMcseo+R6/a6nVac4pm&#xA;B6fc9t/IH8z4dF1YR3rhNL1PhDeknaGZfsS/6vxUb2Ne2dLq8X5zAJx+uP4I/U6XTz/L5TE/TJ9Z&#xA;AggEGoPQ5yjvnYq7FXYq7FXYq7FXYq7FXYq7FXYq7FXYq7FXiH52fnQdL+saBoNyIpogV1TUkO8R&#xA;6GGI/wA/8zDp0G/ToOzezo8PjZvp6D9P6h1dTrdYb8PHzfMlvH5i836kdO0eB3Q7yGtAFr9uZ+gH&#xA;+e5zF7Y7ehjgTM8GPu6n8dzd2f2XKUqiOKf3M2svKHkzylT9IBfMGvJ9qE7WkLeBX9sj/Kr8lzQ6&#xA;LRa/tT1D/BtMev8AHIeXd79v852Wp1Wl0XpP77N3fwj3/j5IDzF+Zl5JWGW6Koo4iztPgRQNuJof&#xA;wJOdHpexuzOz/ph4mT+dL1S+3YfCnU5tfrdXzlww7h6R+s/Fhlx5vvGJEEKRjxarH+AzNydsTP0g&#xA;D7WiHZsRzJKBudf1S5iaKWUGJxRlCLuPurmJl7QyzBiTsfIORDSY4mwN0vzCcl2KuxV2Ksl0uQ6f&#xA;5cmvY1HrSMeJPz4D7tzm90svB0pyD6j/AGOqzx8TOIHkP7WQflp5onGsxrdlZEYiK4BA4vBKeDhl&#xA;GxpWuartLGe0NDlxy/vIDjgevFHcfq9xc3SyGk1MJx+iR4ZDyP4v4Jb+aXkg+V9eJtkP6JvuUtke&#xA;oTf44if8iu3tT3zm+wO1fzeH1f3kNpefcfj97ue09F4GTb6Jcv1MMBIIINCNwc3oNOtL3L8rNUEl&#xA;6bcuUTUrbYqaMJFHIEHxA5Zje3mm8bQQ1AFnFIH4S2P+y4WXsxm8PVSxHlMEfEbj7LYX+YOt2usw&#xA;tb6sBbebNDka0mmVf3d5Cjlajj9h1PxUPw0Jp1AzSdj6WWA8WL1abKOIDrA19o6d/K+92mvzDIKn&#xA;tlht/WDD9I1STT7oSCrRNtKniPEe4zrtHqjhnfTq6LU4BkjXXo+x/wDnHjzze61pFxot65mbTUje&#xA;ynPU271ARj/kECnsadsPbWljEjJHlP8AH2sezc8pAwlzi9fzRu0dirsVdirsVdirsVdirsVdirsV&#xA;dirsVedfnP8AmN/hXRBZWEnHW9RUiBh1hi6PN8+ye+/bNt2ToPGnxS+iP2+X63A1+q8OND6i+RNP&#xA;0zU/PHmNNKsWIs4z6lzdNUhVBo0jeJ3oo75X7R9uwwwMv4RtEfzj+PsZdkdmSnKv4jzPcHpGrX2l&#xA;+VdP/wANeWV9Ep/vdeA1lL9wXHV/E9ug9tN7M+z89dMa3WjiifogeVd9fze4deZ2553bPasdMPy2&#xA;n2P8Uuvuvv7+7k8m8w6/IZHs7RuKr8M0o6k91B8PHOy7R7QNnHDl1P6HQaPSCuOXwY5mkdo7FXYq&#xA;7FXYq7FXYqnmkXkNzYPo9w3D1P8AeeQ9ORPIA/7LNto80Z4zgltfI/jzdfqcZhMZY9Oa/RrW90vW&#xA;EW4iISYGISLupJ3FCPcZLR4Z4MwEhtLbyY6nJDLiuJ5bvYvM0th5y/Ly6hLqdY06H60Iz9v1LcVZ&#xA;lHcSJUfM55tqeys3ZPaXEAfy2SVCXSpconuMT86euwa7HrtJV/voCyOu3X4/pfP2di6N6H+XOqG3&#xA;lsJyf95bgK/+oWBP/Ctm1zYPzXZuXF14ZAe/nH7XXRyeBrIZP6QP6Cp/ndpQsvPMs6iiahBFcbdO&#xA;QBib8Y6/TnD+y2o8TSCP8yRH6f0vT9s4uHOT/OF/o/QwOGF5pkhjFXkYKo9yaZ00IGUhEcy6eUhE&#xA;Eno+u/8AnGDRJobfV9TYEW4WGygbszIC8n/Agp9+bDt2YiIYx0/sDh9lRJMp973bOcdw7FXYq7FX&#xA;Yq7FXYq7FXYq7FXYq7FVO4uIba3luJ3EcEKNJLI3RUUVYn5AYYxJNDmgkAWXw9+cHni58wa7eahV&#xA;la/cpbR947aP4UX5kUr7k51eprTacYh9R5/p/Hc6HB+/zGZ5D8BlmjWK+QPJMcIUL5g1X95O37SG&#xA;nT5RKaD/ACiTnnPZui/lrtAyl/iuH/ZeX+dzP9Ee563W6n+TtLQ/vsn2efw+9h7FmJYmrHck7mpz&#xA;2MRAFB8+Js2UhvtN0bTLR7iWL15TsnqEks59hQfhmpz6bBggZEcR8+pdhiz5csuEGh5MTdi7sxAH&#xA;I1oooB8gM56Rs27gCg1kUuxV2KuxV2Ks3/KryTpvmrVbyHUndLW2gDARMEcyO1FpUNtxDds0Xb/a&#xA;WTSYoyxiyZdRYp2XZmkhnmRM7UmXnr8mtS0GB9S0iVtQ06IFpkIAniUftELs6juQBTwpvmJ2T7TQ&#xA;1EhDIOCZ5dx/Ufxbfrux5YhxQ9UftCE0e5a60y3mk3dloxPcqStfwz1nR5DkxRkebwephwZCAyHy&#xA;vOsWv2XPeOWQQSDsUmHptX6GzV+02n8Xs/MOohxD3w9X6HM7Gy+HqsZ6GVf6bb9LyOaJ4ZpIX+3G&#xA;xRvmpoeuaGMhIAjq7gijTIPJ09JbmA/tKrgfI0P6xm97GnvKPxdV2lHYFm/55p9ZsPLOqjc3EEiy&#xA;N81jdR/wzZ5z7PY/B1GpwfzMn3GQ/QHre05+Jhw5P50f0AvM9CTnq9qPB6/8CCf4Z22gF5o+957V&#xA;msUn3J+Qtt6X5a2ElKfWJbiT7pmj/wCNMo7aleoPkB9zPs0VhHxehZqnPdirsVdirsVdirsVdirs&#xA;VdirsVdirzf8+vMraR5Gks4W43OryC1Wh3EVOcx+RUcD/rZt+xdP4mazyjv+p1/aWXhxV1ls+V/y&#xA;/wBIHmX8xEklHOx0v/SHHY+iaRj/AGUhr8q5p/bHtTgxTIO8vRH9P6fm5/s/ouKUb6eovVNS8m3u&#xA;u61NfanP9Wsk/d28KUaT00713VeW7d+uaLs/2tw9maKODTQ8TMfVOR2jxH7ZV9PQbbEuw1XYOTWa&#xA;iWTNLgxjaIHOh9gvn1UdYsPKGhaGby0t4byeasdrJIwnDOKgtuStEpvQddsu7G7R7U7W1gxzySx4&#xA;o+qfD6KHdY39XTflv0a+0dHotDp+OMBKZ2jxerfv7tvc8F8z6gbm/MSn91b1UU6Fv2j/AAzuu09R&#xA;x5OEco7fred0OHhhZ5ySfNa5rsVdirsVdirsVZX5MUpBPKpoxkUBhsfhFR+vOg7HgDCV9dnUdoyI&#xA;lHyepeVvPtzayLZ6s5uLJ/hEz/E8dfE9WXxrv+rOW9pfYjFnicukAhmG/CNoy/4mX2d/e7jsf2kn&#xA;iIx5zxY+/qP1j7fuSrzd5ZtNCvkWw20+75z26inFS7lmRabcRy+H2zZexXa0tVpDCe2XCeGXf5E+&#xA;fMHzDie0ehGHPxR+jILH6vx3pJDK0UqSp9qNgy/MGozrsuMTgYnlIV83QwmYyBHMMJ83QLB5o1RE&#xA;FImuZZIf+McjF4/+FYZ59orGGIl9URR98dj9oeu1BBmSORNj3HcLPLM3p6vEOgkDIfuqPxGbrsyf&#xA;DmHm63XRvEfJ6P8AmK31v8rtFuPtSWd6bd/YFJKfgq5yubD4PbeePTJATH+xv7eJ3WHJ4nZ2M9Yy&#xA;Mfv/AEU848srXWYD4Bz/AMIRnVdmD9/H4/c6bXH90fh977v/ACeh9H8tdCSgFYXeg/y5nev08s1/&#xA;apvUT9/6HK0IrDFmOa9y3Yq7FXYq7FXYq7FXYq7FXYq7FXYq+av+co9eca5bWSt+706xMoHhNcMf&#xA;+NUTOm7JHh6aeTqf0cvtLpNf680YPLPy7856F5M8sXd7Mpu9Z1KWkNnGQCIoRRWkffgC7N7+2ef9&#xA;s9mZtdqIwHpxQG8j3nuHXanq+z9Zj02IyO85Hl5BADzR5y/MPzFa6NLdtb2d3Jxe1t6pEkI+KRmF&#xA;avxUE/GTvmR+Q0vZuCWUR4pRHM7m+nu37mr8zm1eQQJoHoOVMg8+azbI8kVmoj07SYha2MQ+zRPh&#xA;r9LfhnXezehOi0By5P77L65e8/SPh95Lz/a+pGp1QhH+7h6Y+4cz+PJ5ExLEsTUncn3zEJtygHYE&#xA;uxV2KuxV2KuxVlPk6UGC5i7qytT/AFhT/jXOg7Gl6ZDzdR2lHcFkWbp1ic3OqG88s29rM3KfT5+E&#xA;JPUwyoxp/sWj/VnPafs38v2lPLAVDPjuX9eEhv8A5wl8wS7XLq/F0cYS+rFPb+rIH7iPuSbOhdUx&#xA;XzpCxvobun99Esbt/lQgIP8AknxzkdfpvCzSr6ZHiHx+r/ZWfiHodJm8TGO+O3y5fZt8En0yT09R&#xA;tn7CVK/IkA5XpZcOWJ8wzzi4SHk9K1Um6/L7WbIULWksF/GvcjmIZD9AYZT7Sabg12DP/OEsZ/3U&#xA;f98nsbNxabLi7iJj/cn9DAfLH/HYi/1X/wCInM/sv+/Hx+5o1390X3n+VH/kutB/5hR/xI5rO0v8&#xA;Yn73M0X9zH3MszBcp2KuxV2KuxV2KuxV2KuxV2KuxV2Kvjb/AJyPvmn86a8QaqJbeAU7COKMH8Vz&#xA;qYjh0AHf/wAVboz6tWfL9TyrTdGD2kl/d1W2iUsqdDJQePYV2yjTaK4HJP6B9rbn1NSEI/UfsZ3+&#xA;VNl+jfL+ueaXFJyP0fYGlKM9DIy/Kq/cc5LV4vzmvwaT+C/En7o9PjRHxDvMWT8vpcmf+KuGPvP4&#xA;+xjfm+cpYxQg/wB69T8lH9SM77tjJWMR7z9zy/Z0LmT3BiWc47l2KuxV2KuxV2KuxVMdB1AWWoKz&#xA;mkMg4SHwB6H6Dmd2fqPCyWfpOxcXV4fEhtzDOgQRUdM6x592KuxVBatp639k0FaODyjbsGHSv30z&#xA;F1mlGaFdejkafOccr6dWCskttccZFKyRN8SnqCDnJmJhKjzDvwRKO3IvULDjJJJasR6V/DJaOT0A&#xA;nQorf7FiG+jN929pvF0siPqhUx74G/tFj4uo7MzeHnF8pek/5232c/g898vsYtatwwIPJkYHY1Kk&#xA;UP05quzZVmifxydhrY/ui+5/yQu1uPyz0kAjlB68Tgdis7kf8KRmL2xGtTLzr7m/s6V4R+OrO81j&#xA;muxV2KuxV2KuxV2KuxV2KuxV2KuxV8Zfm/aLqXnzXI5jRE1CQsB3WMlQPpzttPphl02OJ5bF5nLm&#xA;MM0yOe4YV5nkEOkekgCrIyxhRtQD4tv+Bw9qS4cNDqQPx8l0EeLLZ6M91Cz/AEP+X3lvSAOLzIbu&#xA;4Hfm45kH5Gan0Zw/scPzHaOp1H82oD5/8c+16P2hPhaXDi/nXI/j/OeZ+cifUtR2o/61zre2ucfj&#xA;+h0nZnKXwY5mjdo7FXYq7FXYq7FXYq7FWQ6B5hEKraXjfuhtFKf2fZvbN12f2jw+ifLoXWavR8Xq&#xA;jzT2/wBRW3FsqUZ7qRY4z1FGIq3vSubfUakQ4QOcyAP1uvxYeK7/AIRaNzJaHYqkHmrTVltxeoP3&#xA;kVBJTuh/oc1Ha2m4o+IOY5+52PZ+epcB5FOrV+dtC/8AMimvzAObPEbgD5ODkFSPvYjqzC28zyzV&#xA;2M6znsB6hEjAew5EZyUcX5fKI9IS2917fY9AZ+NjvrIfb1+19ff842aos/lbUtNLVksrv1aeEdxG&#xA;OP8Aw0T5b2/jrLGXePu/ta+yZ3AjuL17NC7V2KuxV2KuxV2KuxV2KuxV2KuxV2KvFdL/ACtOufmt&#xA;r2tarDTRbK85xREbXMxVXA90XlV/E7eOdFk7R8PSwhE+sx+QdPDR8eeUpfSD83zd5ptxfa5YWCbr&#xA;eXpjXj35yKgpT/Xy3t/N4eAS7oyPyDX2Tj48pHeQPmXoX5nSg61bQKAEhtloo2ALM38AM0P/AAOM&#xA;NaKczzlkP2Rj+m3Ze12S9TGP82H6S8w82WM831MxIWZmZFHjyoR/xE51HauI5OHh3N06fs/II8V7&#xA;bWpw+XLSzs5Lm8/fSxoX4VIQECtNtzgh2bDFAzn6iB8Ey1spyEY7Ali+c+7d2KuxV2KuxV2Ktojy&#xA;OERS7tsFUVJ+gZKMSTQ3KCQBZRFzpt9axrJcQtGj7AmnX3p0+nLcumyYxchQLXjzwmaibUhcTj0x&#xA;zNITyiBOymoO33ZWMktt+XJnwDfbmz+wvI7y0juE/bHxDwYdRnY6fMMsBIPN5sRhIxKF1vV/0dCh&#xA;VA8spIRT0oOpP35j67WeBEULJbtLpvFJ7gs0nVItWtpY5UCuBxlQGoKsCKjI6TVDUQII36/FOowH&#xA;DIEFMLWJobWGFjyMaKhbx4ilczMUOGAj3Bx8kuKRPeWL+cIQt5DKP92JQ/NT/bmh7YhUxLvDtuzZ&#xA;XEjuL3//AJxb1hv09Pas3w32nhyK9ZYHWn4O+R7VHHpYT6ivuXQenPKL6XzmXduxV2KuxV2KuxV2&#xA;KuxV2KuxV2KuxV2Kvgy0RX89eWFbcC8jYD3EiEfiM3ftiSNLL/hc/udZ7PD98P60XqHmbT9Mh1m+&#xA;8w6+3p6Pp8cQVO80nEEIB33NKd/vzhezO3MmHs7HpNLvqMpkSf5kbq/ft8Ofc9HrOzIZdZPPn/uY&#xA;CP8AnGvx7/mx7z96b6vbXEScIrizhliSgHFTUAUHhTOz9gpk6GQkblHLME+ex/S897TxA1II2EoR&#xA;P3j9DB/MchTR7inVuK/ewr+GdR2lKsEvx1dNoheUMHzk3oHYq7FXYq7FV0MUk0qRRjk7kKo9zkoQ&#xA;MiAOZYykIiy9w/J38mbrzLOzBvq2nQEC/wBR48mZyK+lED3/AAA3PYHd5cuPQwAA4sh/Hy+91cIT&#xA;1Uu6A/Hzeo+e/wDnHKxl04SeVmLTxpxnsbtwwnp+0rmgV/Y/D8sxNN21xExzC4n8cnJzdmVviO4f&#xA;NfmX8v8AUtLvJbd4JLW6iPx2VwpRh/qk9R4frzIy9mxmOPCbHd+39bTj1pieHIKKU+X9QksL42tx&#xA;VIpTxdW24v0B3+45T2fqDhycEtgfsLbrMIyQ4o8wj/NVtLcXVjFGPik5qtdhXbMvtXEZzgB1v9Dj&#xA;aCYjGRPRK9Nmn0jVVF0hjUjhKD/Ke48aHMDTTlps3rFd7l54jNj9O7NIpoZk5xOsiH9pSCPwzqIT&#xA;jIWDYdHKJiaIpiXmu9Se8SBACIF3cGvLmA36s53tbOJzER/D+l3HZ+IxiSev6HsP/OMUj/4x0gA0&#xA;DQ3asPEBXP8ADDqN9APx/EjFtq/x3PrjOYd27FXYq7FXYq7FXYq7FXYq7FXYq7FXYq+ELaNovPvl&#xA;pZKKy3qowJ6MJEFPvObr2xF6SRH8yf3Os9nts4H9KKv+eXmuXUPMA0OBz9S0wAyqDs9w4qxP+op4&#xA;jwNc4v2V7PGPD4xHryf7n9vP5PR9taozyeGPpj97IvMFLnyv5W1FdxLYRxSEdAyIm33ls6H2Hy8O&#xA;bVYT0ycQ+Nj9AdP7SwvHgyd8K+VfrLBfNFf0Q9OnJK/Kudl2r/cn3h5/Qf3oYXnLO+dirsVdirsV&#xA;ZH5K0yW71DnGhkkqsUCDq0khoAPft9ObfsnEOI5Dyi67tDIaEB1fe/kzy1beWvLNho8IHK3jH1hx&#xA;+3M28r/SxNPbbNBq9Qc2QzPX7na6fCMcBEJ1mO3JJ5r8m+X/ADTp5stXtllAB9GdaLNEx/ajfqPl&#xA;0PfMnTavJhlcD+ppzYIZBUg+NPze8gP5Z1i8sZ5FkmtAskNyooJYZN15Ds2/Tx9t86PUcGpweMNp&#xA;D8V+p0+Hiw5fDO4KUaSwv9Os55STLCdm71Wq7/MZn6Q+LihI84/2OJqB4c5AcijbqxtLtQtxEsgX&#xA;pXqPkRvmVlwQyD1C2jHllD6TS+CCGCJYoUCRr9lR0ycMcYCoigxlMyNnms80+R9C0byBb6w0kkmr&#xA;ahdKISzfCsdHJQKNiOK1JPt0zy+evyS7UyaeP91jHxvb9Jp7WGniNFDKfrmf1vSP+cXdOaTzVbyE&#xA;bWmnyz1I6eoyoP8Ak7nX688GiiO+v1uh0vq1Mj3X+p9UZzDu3Yq7FXYq7FXYq7FXYq7FXYq7FXYq&#xA;7FXw555gOj+fo3YcBputsDtQAR3FQadKUTOi7dh42hH9KBHzi6fsuXh6k+Uvukwq4R9XbWtXerSy&#xA;zNOp/wBdzI//AApzF7P0PDpSB/BGIHw5/Y5Gq1V5h/SJ+16V5Um/S/5RCMfFPolyykftcC3P7uM3&#xA;4ZznZmb8r26L+nUQr4/2x+12uux+N2btzxSv4f2H7GJ+YIjJo9yB1UBv+BYE/gM9J7QjxYJPH6OV&#xA;ZQwXORehdirsVdirsVez/wDOO2iJfecNCR1qizyXr/O3VnT/AIaNc3N+HoZHrL9Jr7nW1x6oDu/t&#xA;fZucs7x2KuxV8sf85RafOPNU78SVubCKSI06+mzKR8/gzp+z/XopRHME/oLpNX6dTEn8dHivlfV4&#xA;ol+ozkICxMLnpU9VP8Mt7L1giPDl8GGv0xPrHxZRm+dSr2FjcX15DaW68ppmCqPn3PsOpzF1usx6&#xA;bDLNkNQgLP47zyDdptPLNkGOAuUipfnFqcN3q+l+V9NcSw6TEIpOPT13oCD7qqCvhU55f7N4MmeW&#xA;TUTH7zUTv4c/lv8AIPb9rZIYoxxRPpxRr4vdf+cY9CaG01fVmQiJvSsrZvERgvJ+tM7Lt7IBwYx0&#xA;/sDz3ZUSeKZ6vcs513DsVdirsVdirsVdirsVdirsVdirsVdir5J/5yV8uNa+btSkVaR38Md/D8wO&#xA;En0lo2+/Op0p8bREdYfo3+50ef8Ad6m+kv7HmPlWJP0S1RUSSNyH0AfwzN7JiPB95LjdoSPie4Mi&#xA;/KG9j07zRqPlm8P+iavEyRhjsWQEr1/mjZh88879rtHPDw5ofXgmCD5XsfnX2vW9haiOUHHL6cka&#xA;Pv8AxbWsaY9rdXenXA3QtE/uDtX6RvnpWi1UNZpo5Y/Tkj9/MfDk8ZqMEtPmMD9UJPMZonhmeJ9n&#xA;jYq3zBpnLTgYyIPMO/jISAI6rMgydirsVdir6D/5xhkjHm/ThWnK0uFUeLAEn9Rzb6vfQCvL73Xa&#xA;f/Gi+sc5h3bsVdirA/zf/L//ABb5d52ij9M6dylsT09QEfHD/s6Dj/lAdq5s+y9d4GTf6Jc/1uFr&#xA;tL4sNvqHJ8Q+ZdGexumlRCsDsQy0pwfupHbNh2jpPDlxR+iX2OJotRxjhP1BQsvMWpWqBAwljHRZ&#xA;BWnyIocrwdpZcYq7Hmzy6LHPfkfJPLPz95hWB7PRoI7W5uBwlu4gWuOJ6qrseMa+4APvmv12nl2h&#xA;kj4lyjHlAfTfee8+815c3K02SOkgeDYnnLr7h3fDdlH5X/ldrPmLWBBbKXmYhr6+YEx28bHckn7T&#xA;Heg6t95zf48ePQ4+Of19B+gfrdVOc9VPhj9PV9meXdA07y/otrpGnpwtbVOKk/aZjuzt4szbnOXz&#xA;55ZZmcuZd5ixCEREcgmOUtjsVdirsVdirsVdirsVdirsVdirsVdiryL/AJyN8sm+8tWuuRJyl0uT&#xA;07j/AIwT0Wp/1ZAv3nN72FqOHIcZ5SH2j9jq+1cVwEh/C+fPy58tLfeYdN0OYH6vdX6xyFTRvQdw&#xA;WINDvwr9ObuIOnwT/o8VfodYSM2WPnV/pQ35keVtW8p+ZZApK6hos4eGcCnqRAh4pQPClDT55r+0&#xA;cMNZpuOrBjUh5dfk5ejyS0+bgPft7/2sr1+S28y+X7Lzdp4FXQRajCu5jkXY1/1W237cTnK+xmvO&#xA;kzz7PynqZYz394+PP38TuvaLSjPjjq4e6f6/0fJ5P5r08xXK3iD93Ns/s4H8RnVdrafhnxjlL73T&#xA;dn5rjwnmEhzTuxdirsVdir1j8iPMCaV5p0W6duMcF56ExPQR3IMbMfYCUn6M3WGPi6OUOov/AIp1&#xA;mU+HqYy7/wCx9uZyrvXYq7FXYq8n/M38ibHzLcTapo0kdnqU9Wu7aYE287H9o0qUY99iD86nN3oe&#xA;1/DjwZBxQ/HzdZquz+M8UDUnjE//ADjR52EzcdBDqD9qO8gCH5BplP4Zm+N2ed7r/TON4erG3/Es&#xA;38lf84y3aOsmvTRWFoCC1paESTvTs0hHBfn8X0ZDJ2xixDhwR+P43LKHZ2SZvKXvGheX9H0HTo9O&#xA;0m1S0tI9wiVqWPVnY1ZmPiTXOfzZ55ZcUzZdtjxRgKiKCYZU2OxV2KuxV2KuxV2KuxV2KuxV2Kux&#xA;V2KuxVC6rptpqmmXWnXa87a8ieGZf8l1KmnuK7ZPHkMJCQ5hjOAkCDyL5x/LbypeaJ+ddto98Kya&#xA;c1w3KhAkQW7+nIPZgyt+Gdb2hqRk0ZnH+Kvvef0mEw1Iiel/c9F/Pf8AL3/EGhjWrGLnqmlo3qxq&#xA;Kma13LrTuU3ZfpHcZqex9aMc/Dl9Evv/AGuw7R03HHjj9UfufM3k3zIPJ+ty2N+DJ5Z1b4Z1PxLG&#xA;x2509hs3ivuM0/tT2FMkZMO2WG8D7t+H9X7S5/YvacaMMm8JbSH6f1pz518oLZhlX9/pN4OVpcqQ&#xA;wAI5KOQ2qOoPcZvPZ/t3H2ppzjyenPEeuP8Avh5fcdj0vV9qdmT0OUSjviP0n9B/G/N5LfWU1ncv&#xA;BKPiXoezDsRmPnwSxTMZOTiyiceIKGUtjsVdiqdeVL30L8wMaLcCg/113X+ObXsnNw5OE8pfe4Ha&#xA;GLihfc+8/wAtvNKeZvJ2n6kXDXQT0L4VqRcRAK9f9bZx7HNNr9N4OYx6cx7nYaTN4mMHr1ZPmG5L&#xA;sVdirsVdirsVdirsVdirsVdirsVdirsVdirsVdirsVdirsVdirsVSm68s6dP5ksvMNOGo2cUlvzH&#xA;SSKQfZb/AFW3X6cvjqJDGcf8JNtRwgzE+oTbKG185fnp+S6w/WNd0e2MmlTkyX9pGN7Z+pljAH93&#xA;3P8AL/q9Om7P1sM8PBy8+h/HX73S6vTSxS8THy6/jueV+UPOh0CP/DXmdPrfluclbe6oSYamtNt+&#xA;Nd9t16jOS7d9n8+DMNTpjw5o8iOUv0XXMHY9Xe9m9qYsuPwcw4sZ+z9n3Inz1+Xw+qLe2UgutNkH&#xA;O0vo6PxDbgOV2Kn+YbZt+yO38PakfByjwtXHoevfX6Y8x5uu13ZeTQy8SHrwS693v/XyLyi5tpra&#xA;ZoZl4yL1H8RlmXFKEjGQ3TCYkLHJSytm7FW0dkdXQ0ZSCpHYjcZKJINhBFii+hf+cf8A8z4dH1Rb&#xA;e9kCaTqhWK7qfhguF2SXfou9G9jXtm51mIavAMkfrj+CP0h1mnyfl8pjL6ZPq7rnKO+dirsVdirs&#xA;VdirsVdirsVdirsVdirsVdirsVdirsVdirsVdirsVdirsVdiriAwIIqDsQehGKvCvzV/ICG8S41P&#xA;yvArB6vc6NsFPctb9KHvw/4HsM6HRdrRlHw8+47/ANf63UanQEHjxbHu/V+p4Xo2s+aPJFxLbQRt&#xA;e6TyZbvR7kEOhrR+IIqp8dvmM1nbnspDUfvcZqY5SjzH6x9rmdm9uSx+ifLqDy/Ymd/5e8qeebNr&#xA;ryzMIr9F5S6VLRJ4z34An4l9gae46ZrNP27lw1h7RG3KOaO/+m/F+X8TmZezITvJpD78Z/3v4/U8&#xA;t1XSL/S7p7a8iaKRSRuCOnzzczx0AQRKJ5SG4I8i4MJ3Y5EcweYQeVs3Yqj9H1WTT7nn9qF9pU8R&#xA;4j3GZmj1Zwzv+E83G1OnGSNdej6r/Jj87rI2dtoXmG5AgUBNO1Rz8IXoIpmP2ePRWPyOX9o9mjIP&#xA;Fw7g8x+r9TTo9aYfu8m1dXvQIYAg1B3BHQjOcdy7FXYq7FXYq7FXYq7FXYq7FXYq7FXYq7FXYq7F&#xA;XYq7FXYq7FXYq7FXYq7FXYqw/wA9flb5Z83xGS6j+q6mFpFqMAAk26CQdJF9jv4EZn6PtHJgO28e&#xA;78cnE1Ojhl57HvfNPn/8kvM3lq5N+0TmKJucOtWHKikdGkAo0Z9z9DZuz+V10aO0z0PX9EnWDx9K&#xA;b5xH4+DF7rzNfzWv1Lzdp41qzUcU1O3pHeRgdCTSj0/yh/ss0E+wc+iJOmNYzzgbljPw+qB84u1j&#xA;2ni1NDKPX0kNpfqkPIsWv/L1pKDPoF4NRt+ptmHp3cfs0J3enjGWGQjqQdpxOOXnuPhLl8+GXkzO&#xA;IjkeIfb8R+qx5pERTY5ktbsCo3TNXutPkrEeUTH44m+yf6HMvS6yeE7cu5x8+mjkG/N7R+W35+a5&#xA;oSR2cUwvdPWg/Rd2xqg8IJNyvyFR/k5scmHTazcejJ+Pn97hxyZtP/Sh+Pk+gPLH53+RNbCRzXX6&#xA;KvDSsF7REr34zf3dPmQfbNPqOx8+PkOIeX6ubsMPaOKfXhPmz2KaKaJZYXWSJxVJEIZSD3BGxzWE&#xA;EGi5oNrsCXYq7FXYq7FXYq7FXYq7FXYq7FXYq7FXYq7FXYq7FXYq7FXYq7FXYq7FXEAggioPUYq8&#xA;783fkb5M14vPaRnR79v93WigRMf8uDZf+B4n3zbaXtjNi2Prj5/rcDP2djnuPSfL9Twfzt/zjt5o&#xA;015JlsP0jbipF7p1WenWrw0518fhI982g1Gj1PP0S+X7HBOLUYeXqj+Pi8q1HyjqKzORN6soNHWa&#xA;qyVHY1rv88hPsaQHoII+TKPaQJ9QIKUT6PqkP27Z6DqVHIfetcwp6LLHnE/f9zlR1OOXIhCMjqaM&#xA;pU+BFMxiCObcCC1ilMrPzDqdqAok9VB+xJ8X49fxzNw9o5cfWx5uLk0eOfSvcyvy7+ZuuabJXT57&#xA;yyc/a+pyvxP+soK1+muZ41+PNtkx38LcQ6SePeE6+x6Tpn59fmSkKk6h6yjot1bRBvpIRGP35cOy&#xA;dNkFiJj8x97Udfmga4gfkzXyh55/PDzZKo02O3jsyaSajNbhIE8aMa8yPBQcw9Vo9FgHqu+693Jw&#xA;ajU5eVV309u0m1v7Wwihv71tQuwP3100aRcmPXikYAVfAbn3Oc5llGUriOEdzuIAgbmyi8rZuxV2&#xA;KuxV2KuxV2KuxV2KuxV2KuxV2KuxV2KuxV2KuxV2KuxV2KuxV2KpVrPlXy3ra01bTLa8NKCSWNS4&#xA;Hs9OQ+g5fi1OTH9EiGrJhhP6gCwjU/8AnHv8vrwlrZbrTydwIJuS1+UwlP45scfbmePOpe8fqpw5&#xA;9l4jysMcu/8AnGKyev1bX3ReyzWyyfiskf6syx7QH+KF/H9jQeyB0l9iXH/nFqYmp1q3J8fqh/6q&#xA;Yf5cx/6n936kfyXP+f8Aj5ro/wDnFqQOK65Ao7stoSR9HqD9eP8ALuMcsf2/sX+S5/z/AMfNOLD/&#xA;AJxm0KOn17WbmdR1EEccH/EvWyuftBP+GIH2/qZR7Jj1kT+PizLQvyd/L3RmWSLS0u7hek14TOaj&#xA;oeD/ALsH5LmBm7V1GTnKh5bftcvHoMUOl+9maIiIqIoVFACqBQADYAAZriXMbxV2KuxV2KuxV2Ku&#xA;xV2KuxV2KuxV2KuxV2KuxV2KuxV2KuxV2KuxV2KuxV2KuxV2KuxV2KuxV2KuxV2KuxV2KuxV2Kux&#xA;V2KuxV2KsST8x9NZrYPp17CLtLeaGSUWyR+jd8vRkaUz+mvPg1EZue32cVQJ/OPy2sAma0u+DBWQ&#xA;K1m7MGVG+FUuGLFRL8ajdACWAG+Ko69/MnTLOEST6dfh3ieeKFUhZnii5CVwwl9MCNgqtyYbun82&#xA;KrJvzR8u22orpt3FcW1/SRp7d/RLQrFJxLPwlYEekkk9U5fu43rRqKVVCD83fLMr2oaC7iiulci4&#xA;ZI2ijdHeP05XSRwrFkAHb403+LFU2l8526GYx6deTQwyW9u06CDgZ7pYWiiAaZXqfrKDkV4j+bFU&#xA;rT82/LJvTYSw3cN+L2300Wrxpzae4uPqzcSrsjLA/wDesG2FKV5LVVmuKuxV2KuxV2KuxV2KuxV2&#xA;KuxV2KuxV2KuxV2KuxV2KuxV2KuxV2KpZ5ou7iz8tateW8npXFtZXE0MtAeLpEzK1GBGxHfFXiFv&#xA;5q1c21neS3GvILn0HlMpuI9PWGf0mHp3X1r1C4FyoDFKOwoFUEHArHV8++fmsruS3lu57qOZF9CW&#xA;6voeKlAxWNhI9S0hMQqGCcfUZuDjioVh5+88VMgmvLWNLdpUllnuamiMyu6tPNHG5pz9N+QXjwap&#xA;kTFXuMf/ACrHi3p/o2nNOXH0+n7Faf7p8P2MKUfqX+Cv0XH+kfqf6N9GD0vV4en6PNfQ41248+PH&#xA;3xVbJ/gz9FSev6H6P9Cf1PX5U9DlH6/958XHl6fL6MVUbX/lXn1Cb6v+j/qfqt9Zp6dPWpJz9Xvy&#xA;p6nPl/l1/axVTh/5Vp+jpvR/Rn6O9Kf1+Ppel6XoR/WOf7PH6v6fOv7NO2KrLr/lWX1h/rX6O9en&#xA;xc+FeXalf920+zT46UptiqIsP+Ve/Vx9R/R/o+tBT0/T/v8A1YvRr39T1vT9+dK74qyXFXYq7FXY&#xA;q7FXYq7FXYq7FXYq7FXYq7FXYq7FXYq7FXYq7FXYq7FUs80for/DWrfpfl+ifqVx+kePLl9X9JvW&#xA;px+KvCvTfFXyve/8qg/wRB9c/wCVg/4M5f6P6nofUefJq8K/Byry5U361xVNrH/lVP6Y0H6v/ij6&#xA;7+iz+hOf6D9H6h9TTl/efueX1bhy9T95Xr8eKrJf+VH/AOFda/SH+If0B+lZ/wBMfWP0X6n1z1oP&#xA;rHDh/pPD1PS5ej9HfFX/2Q==</xmpGImg:image>
               </rdf:li>
            </rdf:Alt>
         </xmp:Thumbnails>
      </rdf:Description>
      <rdf:Description rdf:about=""
            xmlns:xmpMM="http://ns.adobe.com/xap/1.0/mm/"
            xmlns:stRef="http://ns.adobe.com/xap/1.0/sType/ResourceRef#"
            xmlns:stEvt="http://ns.adobe.com/xap/1.0/sType/ResourceEvent#">
         <xmpMM:OriginalDocumentID>uuid:9E3E5C9A8C81DB118734DB58FDDE4BA7</xmpMM:OriginalDocumentID>
         <xmpMM:DocumentID>xmp.did:1312731713206811822A8451A1857300</xmpMM:DocumentID>
         <xmpMM:InstanceID>xmp.iid:1312731713206811822A8451A1857300</xmpMM:InstanceID>
         <xmpMM:RenditionClass>proof:pdf</xmpMM:RenditionClass>
         <xmpMM:DerivedFrom rdf:parseType="Resource">
            <stRef:instanceID>xmp.iid:1212731713206811822A8451A1857300</stRef:instanceID>
            <stRef:documentID>xmp.did:1212731713206811822A8451A1857300</stRef:documentID>
            <stRef:originalDocumentID>uuid:9E3E5C9A8C81DB118734DB58FDDE4BA7</stRef:originalDocumentID>
            <stRef:renditionClass>proof:pdf</stRef:renditionClass>
         </xmpMM:DerivedFrom>
         <xmpMM:History>
            <rdf:Seq>
               <rdf:li rdf:parseType="Resource">
                  <stEvt:action>saved</stEvt:action>
                  <stEvt:instanceID>xmp.iid:F77F117407206811822A8451A1857300</stEvt:instanceID>
                  <stEvt:when>2013-10-06T17:09:14+13:00</stEvt:when>
                  <stEvt:softwareAgent>Adobe Illustrator CS6 (Macintosh)</stEvt:softwareAgent>
                  <stEvt:changed>/</stEvt:changed>
               </rdf:li>
               <rdf:li rdf:parseType="Resource">
                  <stEvt:action>saved</stEvt:action>
                  <stEvt:instanceID>xmp.iid:1312731713206811822A8451A1857300</stEvt:instanceID>
                  <stEvt:when>2013-10-06T23:38:17+13:00</stEvt:when>
                  <stEvt:softwareAgent>Adobe Illustrator CS6 (Macintosh)</stEvt:softwareAgent>
                  <stEvt:changed>/</stEvt:changed>
               </rdf:li>
            </rdf:Seq>
         </xmpMM:History>
      </rdf:Description>
      <rdf:Description rdf:about=""
            xmlns:xmpTPg="http://ns.adobe.com/xap/1.0/t/pg/"
            xmlns:stDim="http://ns.adobe.com/xap/1.0/sType/Dimensions#"
            xmlns:xmpG="http://ns.adobe.com/xap/1.0/g/">
         <xmpTPg:NPages>1</xmpTPg:NPages>
         <xmpTPg:HasVisibleTransparency>False</xmpTPg:HasVisibleTransparency>
         <xmpTPg:HasVisibleOverprint>False</xmpTPg:HasVisibleOverprint>
         <xmpTPg:MaxPageSize rdf:parseType="Resource">
            <stDim:w>209.999929</stDim:w>
            <stDim:h>210.001308</stDim:h>
            <stDim:unit>Millimeters</stDim:unit>
         </xmpTPg:MaxPageSize>
         <xmpTPg:PlateNames>
            <rdf:Seq>
               <rdf:li>Cyan</rdf:li>
               <rdf:li>Magenta</rdf:li>
               <rdf:li>Yellow</rdf:li>
               <rdf:li>Black</rdf:li>
            </rdf:Seq>
         </xmpTPg:PlateNames>
         <xmpTPg:SwatchGroups>
            <rdf:Seq>
               <rdf:li rdf:parseType="Resource">
                  <xmpG:groupName>Default Swatch Group</xmpG:groupName>
                  <xmpG:groupType>0</xmpG:groupType>
               </rdf:li>
            </rdf:Seq>
         </xmpTPg:SwatchGroups>
      </rdf:Description>
      <rdf:Description rdf:about=""
            xmlns:pdf="http://ns.adobe.com/pdf/1.3/">
         <pdf:Producer>Adobe PDF library 10.01</pdf:Producer>
      </rdf:Description>
      <rdf:Description rdf:about=""
            xmlns:xmpRights="http://ns.adobe.com/xap/1.0/rights/">
         <xmpRights:Marked>True</xmpRights:Marked>
         <xmpRights:WebStatement rdf:resource="http://www.ospreydawn.com"/>
         <xmpRights:UsageTerms>
            <rdf:Alt>
               <rdf:li xml:lang="x-default">This work is licensed under a &lt;a rel="license" href="http://creativecommons.org/licenses/by-nc-sa/3.0/"&gt;Creative Commons Attribution-NonCommercial-ShareAlike 3.0 Unported License&lt;/a&gt;.</rdf:li>
               <rdf:li xml:lang="en_us">This work is licensed under a &lt;a rel="license" href="http://creativecommons.org/licenses/by-nc-sa/3.0/"&gt;Creative Commons Attribution-NonCommercial-ShareAlike 3.0 Unported License&lt;/a&gt;.</rdf:li>
               <rdf:li xml:lang="en">This work is licensed under a &lt;a rel="license" href="http://creativecommons.org/licenses/by-nc-sa/3.0/"&gt;Creative Commons Attribution-NonCommercial-ShareAlike 3.0 Unported License&lt;/a&gt;.</rdf:li>
            </rdf:Alt>
         </xmpRights:UsageTerms>
      </rdf:Description>
      <rdf:Description rdf:about=""
            xmlns:cc="http://creativecommons.org/ns#">
         <cc:attributionName>Max O'Brien / Osprey Dawn</cc:attributionName>
         <cc:license rdf:resource="http://creativecommons.org/licenses/by-nc-sa/3.0/"/>
      </rdf:Description>
   </rdf:RDF>
</x:xmpmeta>
                                                                                                    
                                                                                                    
                                                                                                    
                                                                                                    
                                                                                                    
                                                                                                    
                                                                                                    
                                                                                                    
                                                                                                    
                                                                                                    
                                                                                                    
                                                                                                    
                                                                                                    
                                                                                                    
                                                                                                    
                                                                                                    
                                                                                                    
                                                                                                    
                                                                                                    
                                                                                                    
                           
<?xpacket end="w"?>
	</metadata>
<g id="Layer_2">
	<g id="_x37_Wl2mV_1_">
	</g>
</g>
<g id="Layer_1_1_">
	<g>
		<path fill="#0B5FC3" d="M370.634,538.59c-4.896,0-10.062-0.116-15.323-0.371c-40.27-1.905-69.664-15.752-75.149-18.506
			c-7.138-2.98-67.896-29.023-94.448-69.271c-3.415-5.161-6.636-10.409-9.576-15.604l-6.338-11.207l-2.046,12.71
			c-0.104,0.667-2.104,13.292-2.302,28.302c-18.446-23.812-25.773-56.646-27.184-63.703l-0.122-0.651
			c-0.055-0.255-4.854-26.262-2.111-58.549V328.27l-8.084,10.285l-6.505,8.619c-1.563-15.719-2.646-43.157,4.435-69.063
			c5.57-20.428,14.588-36.758,16.342-39.823c2.352-3.706,13.06-20.021,24.569-30.532c4.243-3.894,9.918-8.266,16.876-13.009
			l5.073-3.465l-4.818-3.805c-7.25-5.729-16.975-10.659-23.188-13.524c10.354-10.343,34.432-32.337,65.357-47.306
			c11.593-5.615,29.726-13.151,50.315-17.188l0.775-0.162c2.012-0.517,10.146-2.271,30.313-3.333
			c2.393-0.137,4.752-0.188,7.038-0.188c5.177,0,10.156,0.324,14.801,0.958l3.888,0.523l1.342-4.708
			c5.424-18.861,11.737-27.204,13.552-29.309c2.105-2.68,12.778-15.31,28.674-16.044l10.732-0.498l-1.756,10.609
			c-0.896,5.486-2.417,21.692,1.271,30.696c3.339,8.062,8.854,14.562,11.848,17.727l0.688,0.729l0.943,0.373
			c1.668,0.652,3.88,1.56,5.915,2.468l1.692,0.77l1.742-0.66c3.494-1.312,10.233-4.021,16.229-7.368
			c7.389-4.13,24.912-23.339,27.896-27.396c1.22-1.854,2.425-3.306,2.781-3.724l12.13-14.014l3.057,18.232
			c0.209,1.219,4.957,29.979-1.826,51.34c-4.758,14.918-14.957,29.403-20.614,36.72l-1.424,1.848l0.678,2.231
			c1.716,5.622,4.204,10.945,7.189,15.385c6.361,9.446,10.54,14.18,11.663,15.41c4.086,3.763,5.418,9.924,4.131,18.104
			c-0.696,4.394-1.822,7.944-3.353,10.568l-0.471,0.827l-0.104,0.952c-0.788,7.326-2.625,26.269-2.625,43.979
			c0,21.192,4.521,41.234,5.042,43.459c1.143,4.229,4.73,18.719,4.73,33.771c0,16.184-4.646,34.726-5.167,36.782l-0.199,0.746
			l-0.305,0.678c-9.056,20.013-30.36,30.254-34.544,32.103c-2.647,1.382-7.822,3.473-15.731,3.473c-1.877,0-3.832-0.124-5.759-0.358
			c-13.669-1.71-21.578-12.729-23.021-14.925l-8.048-11.813c-3.96-5.039-5.634-13.97-4.911-25.406l0.117-1.778l-1.138-1.38
			c-2.99-3.626-8.128-8.766-15.601-12.604c-6.948-3.559-13.222-7.568-18.632-11.935l-2.074-1.667l-2.457,1.002
			c-5.262,2.138-12.66,7.112-18.024,18.635c-11.328,24.346-8.698,43.611-8.356,45.732l0.178,0.938l-0.008,0.279
			c0.133,1.438,3.438,33.76,28.764,62.065c13.382,14.938,33.231,23.862,47.539,28.724c15.271,5.193,27.767,7.047,28.692,7.095
			c-0.042,0.01,6.568,0.808,15.629,0.808c6.459,0,12.403-0.396,17.807-1.172C428.541,534.362,395.886,538.59,370.634,538.59z"/>
		<g>
			<path fill="#FCA815" d="M325.96,254.798c0,0,12.728,1.305,23.941,12.835c11.193,11.535,14.521,25.072,14.521,25.072
				s-0.471-19.508-7.374-29.127l-7.146-15.907l-27.188-10.21l1.206,13.531L325.96,254.798z"/>
			<path fill="#FCA815" d="M350.721,196.395c0,0,8.832-1.543,13.706,5.56c4.876,7.104,6.202,15.979,6.202,15.979
				s2.229,8.662,5.11,12.861c2.888,4.22,6.431,5.111,6.431,5.111s2.229,0.447,3.771,7.536c1.563,7.103,2.673,17.761,5.546,29.297
				c2.886,11.534,9.839,22.933,9.839,22.933l-3.348-27.597l-10.035-50.812l-15.312-24.637l-18.423-9.979L350.721,196.395z"/>
			<path fill="#FCA815" d="M419.013,158.909c0,0-3.333,2.88-1.559,12.425c1.778,9.54,2.675,18.419,2.675,18.419l-12.051-17.499
				c0,0,5.384,17.947,11.154,37.688c5.771,19.756,8.654,39.725,8.654,39.725s3.097,21.298,7.761,36.396
				c4.665,15.086,13.47,40.681,13.47,40.681l-4.59-42.896l-4.664-58.594l6.656-2.413l2.598-16.174l-21.45-27.119L419.013,158.909z"
				/>
			<path fill="#FCA815" d="M460.28,383.024l-11.156,22.188l-16.344,8.173l-4.188-3.562c0,0,9.056-3.729,14.168-13.046
				c5.101-9.328,5.101-16.418,5.101-16.418l1.271-9.546l6.056-5.777L460.28,383.024z"/>
			<path fill="#FCA815" d="M373.022,70.706c0,0-6.877,5.562-8.595,16.527c0,0-1.331,6.432,1.333,15.534
				c2.654,9.091,10.271,17.585,10.271,17.585s7.039,7.937,6.591,18.575c-0.354,8.869-0.883,10.429-0.883,10.429
				s-0.445,4.465,3.32,4.458c4.664-0.021,5.226-3.898,5.226-3.898l6.542-7.438l-6.653-20.188l-15.547-21.086l-1.984-19.521
				L373.022,70.706z"/>
			<path fill="#FCA815" d="M340.115,129.427c0,0-30.284-6.478-69.098,5.964c-38.846,12.424-61.688,32.833-61.688,32.833
				s21.739,17.521,28.188,30.844c0,0-34.841,5.323-57.476,30.626c-22.637,25.291-25.97,42.604-25.97,42.604
				s14.664-10.865,35.956-13.315c0,0-19.974,27.357-26.627,58.729c-6.667,31.364-4.888,48.229-4.888,48.229
				s5.979-12.206,18.19-19.521c0,0,0,69.896,43.492,110.725c43.492,40.821,88.76,57.926,88.76,57.926l2.213,3.771l-32.614-11.985
				l-34.835-19.077l-28.406-21.529l-20.633-23.959l-19.978-39.507l-8.208-27.729l-5.771,13.749l-4.204,21.044h-4.216l-3.333-11.938
				l-1.779-35.062l3.321-39.537l10.211-37.016l-26.185,16.864l7.104-33.293l11.095-25.297l25.521-30.396l35.062-21.292
				l-28.631-20.866l23.743-22.411l41.938-20.407l52.6-11.097h25.295l15.311,3.552L340.115,129.427z"/>
		</g>
		<g>
			<path fill="#0B1A31" d="M461.832,328.2c0,0-5.314-22.182-5.314-45.698c0-23.521,3.104-48.812,3.104-48.812
				s2.216-0.454,3.562-8.874c1.314-8.437-1.347-10.21-1.347-10.21s-4.871-4.893-13.079-17.088c-8.21-12.201-10-24.854-10-24.854
				s16.877-19.302,23.079-38.842c6.224-19.513,1.56-47.26,1.56-47.26s-1.172,1.368-2.003,2.674
				c-1.854,2.947-21.505,25.073-31.061,30.396c-9.553,5.32-20.633,9.1-20.633,9.1s-2.214,0.666-2.214,1.548
				c0,0-0.848-1.33-4.502-2.998c-3.668-1.659-8.16-3.325-8.16-3.325s-10.311-9.318-15.796-22.63
				c-5.509-13.312-1.838-35.444-1.838-35.444c-13.209,0.608-22.313,12.812-22.313,12.812s-6.312,6.66-11.978,26.298
				c-1.379,4.81-2.088,9.341-2.36,13.451c0,0-10.449-4.961-32.569-3.806c-22.14,1.169-28.967,3.165-28.967,3.165
				s-21.13,3.988-49.438,16.809c-28.281,12.815-40.757,24.961-40.757,24.961s-7.661,7.325-12.324,13.818
				c0,0,3.668,1.666,13.146,7.314c9.49,5.657,14.314,11.484,14.314,11.484s-19.638,11.313-31.278,21.964
				c-11.648,10.658-22.811,28.294-22.811,28.294s-9.489,16.641-15.646,38.107c-6.153,21.479-4.646,40.612-4.646,40.612
				s6.331-8.984,13.146-16.146c6.815-7.155,12.637-9.488,12.637-9.488s-7.974,15.644-10.646,46.943
				c-2.661,31.271,2.002,56.239,2.002,56.239s4.988,22.636,12.151,36.949c0,0-1.332-16.479,0.833-30.459
				c2.146-13.979,5.479-21.146,5.479-21.146s2.984,23.98,27.797,61.59c26.469,40.104,90.703,66.063,90.703,66.063
				s29.944,15.81,72.062,17.81c42.1,1.998,59.07-4.823,59.07-4.823s-52.921-6.985-81.215-38.606
				c-28.293-31.619-30.952-67.239-30.952-67.239s-4.415-22.511,8.988-51.26c11.317-24.295,31.278-25.188,31.278-25.188
				s7.023,7.542,21.754,15.098c14.889,7.637,21.751,19.521,21.751,19.521s-2.229,18.646,2.651,23.96l8.431,12.396
				c0,0,6.219,9.8,16.863,11.131c10.659,1.33,16.431-2.229,16.431-2.229s22.174-9.312,30.607-27.94c0,0,4.896-18.646,4.896-34.612
				C466.287,343.746,461.832,328.2,461.832,328.2z M293.975,145.259c-33.281,5.323-62.571,23.972-62.571,23.972
				s9.987,6.979,17.637,16.97c7.648,9.987,11.317,20.97,11.317,20.97s-17.972-1.667-39.275,6.989
				c-21.292,8.649-29.272,22.972-29.272,22.972s-3.333,7.325-2.34,8.646c0,0,8.317-4.65,22.974-4.979c0,0-12.325,8.32-25.633,46.6
				c-13.319,38.272-2.662,60.583-2.662,60.583s2.326-5.002,10.646-10.319c8.32-5.334,13.979-5.663,13.979-5.663
				s-18.646,52.264,8.992,101.521c27.617,49.264,91.192,81.55,91.192,81.55s-66.567-18.979-102.852-62.906
				c-36.278-43.938-33.616-93.865-33.616-93.865s-7.998,5.985-13.645,19.306c-5.659,13.312-5.659,27.293-5.659,27.293
				s-7.326-37.28,0-72.896c7.312-35.604,22.299-59.244,22.299-59.244s-26.439,10.432-35.941,20.298c0,0,5.658-30.274,24.289-56.566
				c18.646-26.309,60.257-40.284,60.257-40.284s-12.656-17.637-30.296-24.961c0,0,20.974-25.296,68.9-41.271
				c48.576-16.196,77.542-6.995,77.542-6.995s-2.661,15.978,9.665,25.634C349.903,148.586,327.267,139.931,293.975,145.259z
				 M454.51,384.135c-0.661,3.314-3.771,11.752-3.771,11.752s-7.979,15.771-25.297,13.768c-17.3-1.997-28.396-17.307-29.499-19.307
				c-1.12-1.998-1.557-3.992-1.557-3.992s1.557-7.998-4.22-18.428c-5.771-10.421-13.098-21.08-13.098-21.08
				s-5.323-7.312-7.535-15.31c-2.239-7.985,0.212-13.837,0.212-13.837c-6.432,3.246-7.771,15.397-7.771,15.397
				s-25.507-13.32-34.395-36.627c-8.861-23.294,1.107-52.359,1.107-52.359s6.438-1.33,15.979,5.323
				c9.538,6.66,12.375,14.142,12.375,14.142s1.171-9.253-0.834-16.579c-2.003-7.326-11.767-15.979-11.767-15.979
				s-2.886-2.662-4.426-6.435c-1.562-3.776,0.21-13.316,1.33-16.86c1.104-3.556,2.213-6.877,10.211-11.877
				c7.979-4.987,13.967,1.336,13.967,1.336s9.327,9.979,16.641,23.295c7.326,13.312,7.66,26.627,7.66,26.627
				s2.003,24.967,6.991,38.947c4.987,13.979,15.645,24.296,15.645,24.296s1.669,1.331,5.323,7.354
				c3.656,6.021,10.323,23.271,10.323,23.271s-2.675-43.938-6.332-67.896c-3.654-23.966-13.311-62.247-13.311-62.247
				c-2.338-9.979-8.988-24.632-12.321-29.954c-3.319-5.322-10.982-14.312-16.979-18.645c-5.979-4.328-7.324-14.312-7.324-14.312
				l-1.651-13.312c0,0-0.335-9.321-2.326-14.253c-2.002-4.938-6.653-10.708-6.653-10.708s-4.888-6.311-3.333-16.979
				c2.153-14.812,15.142-21.964,15.142-21.964s-3.158,12.647-1.665,24.625c1.503,11.982,16.312,31.124,16.312,31.124
				s1.828,1.324,4.165,9.321c2.327,7.98-1.554,14.142-1.554,14.142s8.034-0.336,12.201-5.491c4.146-5.157,6.812-6.32,6.812-6.32
				s5.994-1.834,12.15-1.66c6.157,0.155,9.663-3.003,9.663-3.003s-2.834,9.316-6.329,13.651c-3.496,4.321-5.771,11.813-5.771,11.813
				c-0.882,2.881-0.653,6.431-0.653,6.431s2.215,11.542,7.979,25.073c5.771,13.544,15.312,26.628,15.312,26.628
				c-8.207-1.331-17.09-11.979-17.09-11.979s7.552,19.302,10.213,39.938c2.662,20.633,2.872,27.292,3.979,36.832
				c1.118,9.54,12.486,53.146,12.486,53.146s1.344,5.989,1.665,8.656c0.324,2.66-0.159,4.104-0.159,4.104
				c2.229,1.773,0.882,6.872,0.882,6.872l-3.543,3.562c0,0-1.554,2.88-1.554,5.548c0,2.663-1.331,3.771-1.331,3.771
				c-0.226-1.549-2.664-3.992-2.664-3.992c0.885,2.217,0.229,5.104,0.659,7.535c0.448,2.445,3.992,2.891,5.325,1.113
				c1.331-1.772,3.99-2.88,3.99-2.88C458.967,372.594,455.179,380.804,454.51,384.135z"/>
			<path fill="#0B1A31" d="M403.929,372.813c0,0-7.104-6.206-5.771-22.636c1.329-16.417,11.095-13.084,11.095-13.084
				s4.892,1.543,6.433,5.535c1.562,4.005,5.336,13.104,5.336,13.104s3.77,10.191,10.646,7.979c0,0-1.771,5.553-6.647,5.553
				c-4.874,0-6.879-2.003-6.879-2.003s-4.89-4.215-6.651-5.328c-1.778-1.102-6.008-3.32-6.008-3.32S402.596,361.719,403.929,372.813
				z"/>
			<path fill="#0B1A31" d="M352.227,207.501c0,0-5.546,5.11-3.543,14.42c2,9.322,8.861,11.77,8.861,11.77s7.984,2.879,9.751,5.329
				c0,0,0.896-1.559,0.677-3.773c-0.218-2.228-1.331-3.445-1.331-3.445s-1.543-2.65-1.878-5.54
				c-0.337-2.886-1.668-9.654-1.668-9.654s-1.259-6.062-5.551-9.102C354.875,205.623,352.227,207.501,352.227,207.501z"/>
		</g>
	</g>
</g>
<g>
	<path fill="#BDC2BC" d="M534.992,588.913c-0.739,0-1.34-0.602-1.34-1.341v-16.588c0-0.739,0.601-1.339,1.34-1.339h52.497
		c0.738,0,1.339,0.6,1.339,1.339v16.588c0,0.739-0.601,1.341-1.339,1.341H534.992z"/>
	<g>
		<path d="M558.027,571.51c-2.725,0-4.935,2.21-4.935,4.934c0,2.729,2.21,4.938,4.935,4.938c2.728,0,4.938-2.21,4.938-4.938
			C562.964,573.719,560.755,571.51,558.027,571.51z"/>
		<path fill="#FFFFFF" d="M558.027,580.461c-2.219,0-4.015-1.798-4.015-4.019c0-2.217,1.797-4.014,4.015-4.014
			c2.219,0,4.019,1.798,4.019,4.014C562.046,578.664,560.246,580.461,558.027,580.461z"/>
		<g>
			<path d="M559.402,575.293c0-0.219-0.182-0.398-0.398-0.398h-1.952c-0.221,0-0.401,0.181-0.401,0.398v1.985h0.528v2.338h1.694
				v-2.338h0.527L559.402,575.293L559.402,575.293z"/>
			<path d="M558.695,573.942c0,0.37-0.3,0.668-0.667,0.668c-0.371,0-0.67-0.299-0.67-0.668s0.301-0.67,0.67-0.67
				C558.395,573.272,558.695,573.571,558.695,573.942z"/>
		</g>
	</g>
	<path d="M587.175,569.198h-51.868c-1.157,0-2.102,0.943-2.102,2.102v15.96c0,1.158,0.943,2.1,2.102,2.1h51.868
		c1.158,0,2.102-0.94,2.102-2.1V571.3C589.275,570.141,588.332,569.198,587.175,569.198z M588.644,583.375h-37.865
		c-1.477,2.809-4.417,4.725-7.81,4.725s-6.333-1.916-7.809-4.725h-1.326V571.3c0-0.812,0.658-1.471,1.47-1.471h51.869
		c0.811,0,1.471,0.658,1.471,1.471V583.375L588.644,583.375z"/>
	<g>
		<path fill="#FFFFFF" d="M557.773,584.933c0.1,0.14,0.15,0.302,0.15,0.495c0,0.198-0.052,0.357-0.151,0.479
			c-0.057,0.066-0.14,0.131-0.25,0.187c0.168,0.061,0.294,0.155,0.378,0.289c0.085,0.13,0.127,0.289,0.127,0.477
			c0,0.192-0.049,0.365-0.145,0.519c-0.062,0.104-0.14,0.188-0.23,0.256c-0.104,0.078-0.225,0.137-0.369,0.164
			c-0.141,0.028-0.294,0.043-0.459,0.043h-1.466v-3.256h1.573C557.326,584.594,557.607,584.706,557.773,584.933z M556.009,585.151
			v0.717h0.79c0.143,0,0.257-0.026,0.345-0.08s0.133-0.147,0.133-0.286c0-0.15-0.059-0.248-0.176-0.301
			c-0.1-0.033-0.228-0.05-0.383-0.05H556.009L556.009,585.151z M556.009,586.407v0.869h0.789c0.143,0,0.25-0.02,0.328-0.058
			c0.145-0.071,0.217-0.206,0.217-0.407c0-0.17-0.07-0.285-0.208-0.35c-0.077-0.034-0.188-0.056-0.327-0.056L556.009,586.407
			L556.009,586.407z"/>
		<path fill="#FFFFFF" d="M560.469,584.586h0.771l-1.089,2.034v1.222h-0.68v-1.222l-1.127-2.034h0.8l0.677,1.418L560.469,584.586z"
			/>
	</g>
	<g>
		<g>
			<path fill="#FFFFFF" d="M566.517,584.426h0.776l1.403,2.473v-2.473h0.692v3.545h-0.742l-1.443-2.517v2.517h-0.688
				L566.517,584.426L566.517,584.426z"/>
			<path fill="#FFFFFF" d="M570.425,584.797c0.285-0.292,0.647-0.437,1.09-0.437c0.591,0,1.02,0.195,1.295,0.587
				c0.148,0.221,0.229,0.439,0.242,0.661h-0.741c-0.048-0.17-0.106-0.299-0.183-0.384c-0.132-0.153-0.328-0.229-0.586-0.229
				c-0.265,0-0.473,0.107-0.623,0.324c-0.152,0.219-0.229,0.525-0.229,0.923c0,0.399,0.08,0.696,0.241,0.895
				c0.161,0.197,0.365,0.299,0.614,0.299c0.252,0,0.447-0.086,0.581-0.256c0.072-0.09,0.136-0.229,0.183-0.41h0.736
				c-0.066,0.387-0.226,0.699-0.486,0.943c-0.262,0.241-0.594,0.36-1.002,0.36c-0.505,0-0.901-0.163-1.19-0.489
				c-0.288-0.328-0.434-0.777-0.434-1.353C569.93,585.607,570.095,585.133,570.425,584.797z"/>
		</g>
	</g>
	<g>
		<path fill="#FFFFFF" d="M578.517,586.944c0.022,0.173,0.073,0.303,0.145,0.389c0.132,0.154,0.354,0.233,0.673,0.233
			c0.19,0,0.347-0.021,0.465-0.062c0.225-0.078,0.338-0.226,0.338-0.438c0-0.125-0.055-0.223-0.166-0.291
			c-0.113-0.066-0.285-0.126-0.525-0.178l-0.411-0.088c-0.401-0.093-0.679-0.188-0.829-0.294c-0.254-0.173-0.383-0.448-0.383-0.819
			c0-0.339,0.126-0.619,0.376-0.846c0.249-0.224,0.617-0.336,1.102-0.336c0.401,0,0.748,0.104,1.033,0.315
			c0.284,0.213,0.436,0.521,0.45,0.922h-0.762c-0.014-0.227-0.117-0.387-0.306-0.484c-0.126-0.065-0.282-0.096-0.473-0.096
			c-0.209,0-0.375,0.041-0.499,0.122c-0.126,0.083-0.188,0.196-0.188,0.346c0,0.135,0.062,0.236,0.186,0.303
			c0.079,0.043,0.246,0.096,0.502,0.155l0.665,0.156c0.292,0.068,0.513,0.162,0.655,0.276c0.227,0.179,0.339,0.435,0.339,0.771
			c0,0.351-0.134,0.637-0.4,0.863c-0.269,0.229-0.646,0.344-1.134,0.344c-0.5,0-0.891-0.112-1.176-0.339
			c-0.287-0.224-0.432-0.536-0.432-0.929L578.517,586.944L578.517,586.944z"/>
		<path fill="#FFFFFF" d="M582.542,584.325h0.896l1.34,3.791h-0.858l-0.249-0.778h-1.396l-0.255,0.778h-0.828L582.542,584.325z
			 M582.486,586.681h0.972l-0.479-1.49L582.486,586.681z"/>
	</g>
	<g>
		<circle cx="542.95" cy="579.28" r="7.771"/>
		<circle fill="#FFFFFF" cx="542.95" cy="579.278" r="6.322"/>
		<g>
			<path d="M542.597,578.348l-1.188,0.215c-0.041-0.237-0.131-0.416-0.273-0.537c-0.143-0.119-0.325-0.178-0.55-0.178
				c-0.302,0-0.537,0.104-0.72,0.31c-0.18,0.204-0.268,0.555-0.268,1.038c0,0.539,0.09,0.921,0.271,1.146
				c0.183,0.223,0.426,0.332,0.73,0.332c0.229,0,0.417-0.064,0.562-0.195c0.146-0.131,0.249-0.354,0.311-0.67l1.182,0.199
				c-0.123,0.545-0.354,0.954-0.707,1.229c-0.348,0.276-0.813,0.416-1.399,0.416c-0.668,0-1.197-0.21-1.594-0.629
				c-0.396-0.42-0.592-1.004-0.592-1.746c0-0.75,0.198-1.337,0.594-1.754c0.397-0.42,0.936-0.627,1.613-0.627
				c0.555,0,0.995,0.118,1.322,0.355C542.219,577.497,542.453,577.86,542.597,578.348z"/>
			<path d="M547.477,578.348l-1.188,0.215c-0.039-0.237-0.131-0.416-0.272-0.537c-0.144-0.119-0.325-0.178-0.551-0.178
				c-0.301,0-0.539,0.104-0.72,0.31c-0.178,0.204-0.268,0.555-0.268,1.038c0,0.539,0.09,0.921,0.271,1.146
				c0.182,0.223,0.426,0.332,0.729,0.332c0.229,0,0.417-0.064,0.562-0.195c0.146-0.131,0.25-0.354,0.311-0.67l1.183,0.199
				c-0.123,0.545-0.356,0.954-0.708,1.229c-0.349,0.276-0.814,0.416-1.4,0.416c-0.668,0-1.197-0.21-1.593-0.629
				c-0.396-0.42-0.592-1.004-0.592-1.746c0-0.75,0.196-1.337,0.595-1.754c0.396-0.42,0.934-0.627,1.612-0.627
				c0.554,0,0.994,0.118,1.322,0.355C547.1,577.497,547.337,577.86,547.477,578.348z"/>
		</g>
	</g>
	<g>
		<path d="M569.93,571.719c-2.61,0-4.727,2.115-4.727,4.726c0,2.612,2.115,4.729,4.727,4.729s4.728-2.113,4.728-4.729
			C574.658,573.834,572.546,571.719,569.93,571.719z"/>
		<circle fill="#FFFFFF" cx="569.93" cy="576.447" r="3.846"/>
		
			<rect x="569.488" y="571.955" transform="matrix(0.4225 -0.9063 0.9063 0.4225 -193.3242 849.4399)" width="0.924" height="8.958"/>
		<g>
			<path d="M569.58,579.151v-0.637c-0.444-0.013-0.877-0.14-1.129-0.277l0.197-0.776c0.279,0.153,0.672,0.292,1.101,0.292
				c0.382,0,0.646-0.151,0.646-0.409c0-0.252-0.223-0.41-0.709-0.578c-0.711-0.238-1.196-0.568-1.196-1.215
				c0-0.59,0.411-1.047,1.122-1.181v-0.631h0.65v0.584c0.443,0.015,0.742,0.115,0.968,0.222l-0.199,0.748
				c-0.167-0.079-0.478-0.232-0.954-0.232c-0.434,0-0.571,0.193-0.571,0.381c0,0.212,0.231,0.356,0.798,0.564
				c0.796,0.276,1.107,0.643,1.107,1.246c0,0.591-0.411,1.09-1.182,1.221v0.684L569.58,579.151L569.58,579.151z"/>
		</g>
	</g>
	<g>
		<path d="M581.185,571.784c-2.571,0-4.66,2.086-4.66,4.658c0,2.576,2.089,4.665,4.66,4.665c2.576,0,4.665-2.089,4.665-4.665
			C585.852,573.87,583.761,571.784,581.185,571.784z"/>
		<path fill="#FFFFFF" d="M581.185,580.238c-2.092,0-3.789-1.698-3.789-3.794c0-2.091,1.695-3.79,3.789-3.79
			c2.096,0,3.793,1.696,3.793,3.79C584.979,578.538,583.281,580.238,581.185,580.238z"/>
		<path d="M581.185,573.885c-1.016,0-1.874,0.733-2.182,1.746h-0.294l0.933,1.016l0.93-1.016h-0.348
			c0.215-0.37,0.563-0.616,0.96-0.616c0.65,0,1.179,0.646,1.179,1.443c0,0.793-0.526,1.44-1.179,1.44
			c-0.432,0-0.81-0.289-1.016-0.72h-1.196c0.278,1.068,1.167,1.854,2.214,1.854c1.273,0,2.311-1.155,2.311-2.576
			C583.496,575.034,582.464,573.885,581.185,573.885z"/>
	</g>
</g>
<g>
	<path d="M12.392,586.197c-0.652,0-1.248-0.138-1.786-0.41c-0.539-0.271-1.002-0.631-1.39-1.07c-0.388-0.441-0.688-0.949-0.9-1.521
		C8.106,582.619,8,582.032,8,581.432c0-0.626,0.114-1.226,0.338-1.797c0.226-0.574,0.533-1.08,0.927-1.521
		c0.393-0.44,0.857-0.792,1.396-1.053c0.538-0.26,1.119-0.39,1.746-0.39c0.653,0,1.248,0.138,1.786,0.417
		c0.538,0.275,0.999,0.641,1.382,1.09s0.682,0.959,0.893,1.528c0.213,0.567,0.318,1.144,0.318,1.726c0,0.636-0.113,1.24-0.338,1.812
		c-0.225,0.574-0.534,1.079-0.926,1.517c-0.394,0.437-0.856,0.785-1.391,1.045C13.598,586.066,13.018,586.197,12.392,586.197z
		 M8.675,581.432c0,0.539,0.091,1.057,0.271,1.555s0.437,0.939,0.768,1.324c0.33,0.383,0.724,0.69,1.178,0.92
		c0.455,0.229,0.955,0.344,1.502,0.344c0.563,0,1.072-0.117,1.527-0.355c0.454-0.239,0.846-0.555,1.17-0.946
		c0.327-0.392,0.578-0.834,0.755-1.328s0.265-0.997,0.265-1.51c0-0.538-0.092-1.057-0.277-1.555
		c-0.185-0.498-0.442-0.939-0.773-1.323s-0.723-0.691-1.179-0.919c-0.454-0.229-0.949-0.347-1.486-0.347
		c-0.565,0-1.076,0.119-1.536,0.357c-0.458,0.238-0.85,0.554-1.17,0.945c-0.322,0.394-0.571,0.836-0.748,1.33
		C8.762,580.422,8.675,580.923,8.675,581.432z"/>
	<path d="M24.14,578.299c-0.608-0.681-1.469-1.021-2.58-1.021c-0.918,0-1.587,0.175-2.006,0.523
		c-0.417,0.349-0.628,0.817-0.628,1.407c0,0.302,0.054,0.554,0.159,0.755c0.106,0.202,0.271,0.373,0.496,0.51
		c0.226,0.137,0.513,0.256,0.86,0.355c0.35,0.103,0.761,0.2,1.237,0.299c0.512,0.106,0.97,0.223,1.377,0.352
		c0.404,0.127,0.75,0.289,1.038,0.483c0.287,0.193,0.508,0.433,0.662,0.715c0.153,0.281,0.231,0.632,0.231,1.044
		c0,0.414-0.082,0.775-0.245,1.086c-0.163,0.31-0.392,0.565-0.688,0.773c-0.297,0.208-0.648,0.364-1.059,0.471
		c-0.411,0.104-0.867,0.157-1.37,0.157c-1.463,0-2.704-0.467-3.717-1.401l0.356-0.542c0.396,0.415,0.882,0.743,1.457,0.984
		c0.573,0.242,1.217,0.363,1.931,0.363c0.821,0,1.461-0.147,1.925-0.449c0.462-0.301,0.695-0.754,0.695-1.362
		c0-0.309-0.06-0.57-0.178-0.787s-0.303-0.404-0.551-0.562c-0.247-0.158-0.554-0.295-0.919-0.409
		c-0.364-0.115-0.796-0.225-1.29-0.33c-0.503-0.105-0.945-0.219-1.329-0.338c-0.384-0.117-0.708-0.269-0.972-0.449
		c-0.265-0.181-0.463-0.398-0.596-0.654s-0.199-0.578-0.199-0.967c0-0.423,0.082-0.797,0.246-1.124
		c0.163-0.326,0.391-0.603,0.682-0.826c0.291-0.226,0.64-0.395,1.044-0.511c0.406-0.114,0.854-0.17,1.351-0.17
		c0.607,0,1.15,0.09,1.627,0.27c0.477,0.183,0.909,0.459,1.296,0.828L24.14,578.299z"/>
	<path d="M26.734,586.131v-9.395h3.863c0.396,0,0.763,0.085,1.098,0.251c0.335,0.168,0.624,0.392,0.866,0.669
		s0.432,0.591,0.568,0.938c0.138,0.35,0.205,0.698,0.205,1.053c0,0.381-0.063,0.746-0.191,1.098
		c-0.128,0.354-0.31,0.666-0.542,0.939c-0.232,0.272-0.512,0.492-0.833,0.654c-0.323,0.164-0.683,0.245-1.078,0.245h-3.281v3.546
		L26.734,586.131L26.734,586.131z M27.408,581.963h3.241c0.309,0,0.586-0.064,0.833-0.191s0.456-0.3,0.629-0.516
		c0.171-0.218,0.303-0.463,0.396-0.741c0.092-0.276,0.139-0.565,0.139-0.866c0-0.309-0.056-0.602-0.165-0.879
		c-0.11-0.279-0.26-0.523-0.45-0.734c-0.189-0.213-0.41-0.381-0.661-0.504s-0.519-0.186-0.801-0.186h-3.162L27.408,581.963
		L27.408,581.963z"/>
	<path d="M34.963,586.131v-9.395h3.917c0.397,0,0.764,0.085,1.098,0.251c0.335,0.168,0.622,0.392,0.859,0.669
		c0.238,0.277,0.426,0.591,0.563,0.938c0.137,0.35,0.204,0.698,0.204,1.053c0,0.344-0.054,0.676-0.159,0.998
		c-0.105,0.324-0.254,0.611-0.45,0.867c-0.194,0.256-0.427,0.467-0.7,0.635c-0.273,0.169-0.572,0.277-0.899,0.331l2.341,3.651
		h-0.781l-2.274-3.547h-3.043v3.547L34.963,586.131L34.963,586.131z M35.636,581.963h3.295c0.299,0,0.571-0.064,0.819-0.197
		c0.247-0.132,0.458-0.307,0.636-0.522c0.176-0.216,0.311-0.462,0.402-0.741c0.093-0.277,0.141-0.562,0.141-0.853
		c0-0.3-0.056-0.589-0.166-0.866c-0.11-0.276-0.261-0.522-0.45-0.733c-0.189-0.212-0.409-0.382-0.661-0.511
		c-0.252-0.127-0.523-0.192-0.814-0.192h-3.201V581.963z"/>
	<path d="M49.899,585.521v0.608h-6.258v-9.395h6.139v0.61h-5.464v3.688h4.775v0.582h-4.775v3.903h5.583V585.521z"/>
	<path d="M51.421,576.736l3.281,5.199l3.308-5.199h0.742l-3.706,5.849v3.546h-0.674v-3.572l-3.69-5.821L51.421,576.736
		L51.421,576.736z"/>
	<path d="M60.126,586.131v-9.395h3.122c0.741,0,1.392,0.124,1.951,0.371c0.561,0.248,1.025,0.583,1.396,1.007
		c0.371,0.423,0.647,0.919,0.833,1.487c0.185,0.567,0.277,1.175,0.277,1.819c0,0.715-0.104,1.36-0.311,1.938
		s-0.505,1.07-0.894,1.481c-0.388,0.409-0.857,0.729-1.41,0.953c-0.552,0.224-1.167,0.337-1.845,0.337L60.126,586.131
		L60.126,586.131z M67.031,581.421c0-0.592-0.083-1.137-0.251-1.635c-0.167-0.498-0.412-0.93-0.733-1.291
		c-0.322-0.359-0.718-0.644-1.185-0.848c-0.466-0.202-1.005-0.303-1.614-0.303h-2.447v8.177h2.447c0.617,0,1.162-0.104,1.633-0.312
		c0.473-0.206,0.866-0.495,1.185-0.865c0.316-0.37,0.559-0.805,0.722-1.303S67.031,582.003,67.031,581.421z"/>
	<path d="M68.288,586.131l3.996-9.395h0.555l3.997,9.395h-0.728l-1.311-3.097h-4.484l-1.311,3.097H68.288z M72.562,577.557
		l-2.09,4.922h4.141L72.562,577.557z"/>
	<path d="M81.148,576.802h0.661l1.401,3.413l1.403-3.413h0.661l-1.654,3.956l1.971,4.577l3.6-8.601h0.742l-4.023,9.395h-0.62
		l-2.063-4.829l-2.077,4.829h-0.622l-4.008-9.395h0.728l3.612,8.601l1.945-4.577L81.148,576.802z"/>
	<path d="M92.05,578.008v8.123h-0.675v-9.394h0.518l6.588,8.27v-8.255h0.675v9.379h-0.622L92.05,578.008z"/>
	<path d="M101.297,586.131v-1.125h0.583v1.125H101.297z"/>
	<path d="M103.401,581.368c0-0.563,0.098-1.127,0.298-1.688c0.197-0.561,0.486-1.062,0.866-1.502c0.379-0.44,0.844-0.8,1.395-1.077
		c0.552-0.277,1.181-0.418,1.887-0.418c0.838,0,1.552,0.192,2.144,0.576c0.591,0.383,1.027,0.877,1.309,1.475l-0.556,0.318
		c-0.159-0.327-0.351-0.601-0.576-0.82c-0.224-0.221-0.466-0.399-0.727-0.537c-0.261-0.137-0.533-0.234-0.814-0.298
		c-0.281-0.062-0.562-0.092-0.833-0.092c-0.6,0-1.129,0.121-1.589,0.364c-0.458,0.241-0.847,0.558-1.164,0.944
		c-0.316,0.39-0.557,0.826-0.722,1.316c-0.164,0.489-0.245,0.981-0.245,1.475c0,0.558,0.097,1.086,0.291,1.59
		c0.195,0.502,0.459,0.945,0.795,1.328c0.334,0.383,0.731,0.691,1.19,0.919c0.458,0.229,0.951,0.346,1.48,0.346
		c0.282,0,0.571-0.036,0.866-0.106c0.296-0.069,0.583-0.18,0.86-0.329c0.277-0.15,0.536-0.343,0.774-0.576
		c0.238-0.232,0.437-0.51,0.594-0.827l0.569,0.278c-0.159,0.352-0.372,0.665-0.642,0.939c-0.271,0.271-0.57,0.502-0.906,0.688
		c-0.335,0.186-0.689,0.324-1.065,0.416c-0.375,0.092-0.742,0.139-1.104,0.139c-0.644,0-1.233-0.141-1.768-0.423
		c-0.532-0.281-0.994-0.649-1.382-1.104c-0.387-0.455-0.689-0.972-0.905-1.549C103.509,582.555,103.401,581.969,103.401,581.368z"/>
	<path d="M116.882,586.197c-0.652,0-1.247-0.138-1.785-0.41c-0.538-0.271-1.001-0.631-1.39-1.07
		c-0.388-0.441-0.688-0.949-0.898-1.521c-0.212-0.572-0.317-1.16-0.317-1.76c0-0.627,0.112-1.225,0.337-1.798
		c0.224-0.573,0.534-1.081,0.926-1.521c0.394-0.44,0.857-0.792,1.396-1.052c0.539-0.261,1.121-0.391,1.747-0.391
		c0.65,0,1.247,0.139,1.786,0.416c0.538,0.276,0.999,0.643,1.381,1.091c0.384,0.45,0.682,0.959,0.894,1.529
		c0.211,0.566,0.317,1.144,0.317,1.726c0,0.635-0.113,1.239-0.337,1.812c-0.226,0.572-0.534,1.077-0.928,1.514
		c-0.393,0.438-0.854,0.785-1.389,1.046C118.087,586.066,117.509,586.197,116.882,586.197z M113.164,581.432
		c0,0.539,0.09,1.057,0.271,1.555c0.181,0.498,0.436,0.939,0.767,1.324c0.331,0.383,0.724,0.69,1.178,0.92s0.954,0.344,1.501,0.344
		c0.564,0,1.073-0.117,1.527-0.355c0.456-0.239,0.845-0.555,1.171-0.946s0.578-0.834,0.754-1.328
		c0.175-0.494,0.266-0.997,0.266-1.51c0-0.538-0.094-1.057-0.278-1.555c-0.186-0.498-0.443-0.939-0.774-1.323
		s-0.724-0.691-1.178-0.919c-0.455-0.229-0.95-0.347-1.488-0.347c-0.563,0-1.075,0.119-1.534,0.357s-0.851,0.554-1.172,0.945
		c-0.321,0.394-0.57,0.836-0.748,1.33C113.252,580.422,113.164,580.923,113.164,581.432z"/>
	<path d="M131.659,586.131v-8.123l-3.704,6.338h-0.423l-3.705-6.338v8.123h-0.675v-9.394h0.675l3.916,6.722l3.916-6.722h0.675v9.394
		H131.659L131.659,586.131z"/>
</g>
</svg>
