<?xml version="1.0" encoding="utf-8"?>
<!-- Generator: Adobe Illustrator 16.0.0, SVG Export Plug-In . SVG Version: 6.00 Build 0)  -->
<!DOCTYPE svg PUBLIC "-//W3C//DTD SVG 1.1//EN" "http://www.w3.org/Graphics/SVG/1.1/DTD/svg11.dtd">
<svg version="1.1" id="Layer_1" xmlns="http://www.w3.org/2000/svg" xmlns:xlink="http://www.w3.org/1999/xlink" x="0px" y="0px"
	 width="595.275px" height="595.279px" viewBox="0 0 595.275 595.279" enable-background="new 0 0 595.275 595.279"
	 xml:space="preserve">
<metadata><?xpacket begin="﻿" id="W5M0MpCehiHzreSzNTczkc9d"?>
<x:xmpmeta xmlns:x="adobe:ns:meta/" x:xmptk="Adobe XMP Core 5.3-c011 66.145661, 2012/02/06-14:56:27        ">
   <rdf:RDF xmlns:rdf="http://www.w3.org/1999/02/22-rdf-syntax-ns#">
      <rdf:Description rdf:about=""
            xmlns:dc="http://purl.org/dc/elements/1.1/">
         <dc:format>image/svg+xml</dc:format>
         <dc:title>
            <rdf:Alt>
               <rdf:li xml:lang="x-default">NFL Logo Redesigns</rdf:li>
               <rdf:li xml:lang="en_us">NFL Logo Redesigns</rdf:li>
            </rdf:Alt>
         </dc:title>
         <dc:creator>
            <rdf:Seq>
               <rdf:li>Max O'Brien/Osprey Dawn</rdf:li>
            </rdf:Seq>
         </dc:creator>
      </rdf:Description>
      <rdf:Description rdf:about=""
            xmlns:xmp="http://ns.adobe.com/xap/1.0/"
            xmlns:xmpGImg="http://ns.adobe.com/xap/1.0/g/img/">
         <xmp:CreatorTool>Adobe Illustrator CS6 (Macintosh)</xmp:CreatorTool>
         <xmp:ModifyDate>2013-10-06T23:47:22+13:00</xmp:ModifyDate>
         <xmp:MetadataDate>2013-10-06T23:47:22+13:00</xmp:MetadataDate>
         <xmp:CreateDate>2013-10-06T23:47:22+13:00</xmp:CreateDate>
         <xmp:Thumbnails>
            <rdf:Alt>
               <rdf:li rdf:parseType="Resource">
                  <xmpGImg:width>256</xmpGImg:width>
                  <xmpGImg:height>212</xmpGImg:height>
                  <xmpGImg:format>JPEG</xmpGImg:format>
                  <xmpGImg:image>/9j/4AAQSkZJRgABAgEASABIAAD/7QAsUGhvdG9zaG9wIDMuMAA4QklNA+0AAAAAABAASAAAAAEA&#xA;AQBIAAAAAQAB/+4ADkFkb2JlAGTAAAAAAf/bAIQABgQEBAUEBgUFBgkGBQYJCwgGBggLDAoKCwoK&#xA;DBAMDAwMDAwQDA4PEA8ODBMTFBQTExwbGxscHx8fHx8fHx8fHwEHBwcNDA0YEBAYGhURFRofHx8f&#xA;Hx8fHx8fHx8fHx8fHx8fHx8fHx8fHx8fHx8fHx8fHx8fHx8fHx8fHx8fHx8f/8AAEQgA1AEAAwER&#xA;AAIRAQMRAf/EAaIAAAAHAQEBAQEAAAAAAAAAAAQFAwIGAQAHCAkKCwEAAgIDAQEBAQEAAAAAAAAA&#xA;AQACAwQFBgcICQoLEAACAQMDAgQCBgcDBAIGAnMBAgMRBAAFIRIxQVEGE2EicYEUMpGhBxWxQiPB&#xA;UtHhMxZi8CRygvElQzRTkqKyY3PCNUQnk6OzNhdUZHTD0uIIJoMJChgZhJRFRqS0VtNVKBry4/PE&#xA;1OT0ZXWFlaW1xdXl9WZ2hpamtsbW5vY3R1dnd4eXp7fH1+f3OEhYaHiImKi4yNjo+Ck5SVlpeYmZ&#xA;qbnJ2en5KjpKWmp6ipqqusra6voRAAICAQIDBQUEBQYECAMDbQEAAhEDBCESMUEFURNhIgZxgZEy&#xA;obHwFMHR4SNCFVJicvEzJDRDghaSUyWiY7LCB3PSNeJEgxdUkwgJChgZJjZFGidkdFU38qOzwygp&#xA;0+PzhJSktMTU5PRldYWVpbXF1eX1RlZmdoaWprbG1ub2R1dnd4eXp7fH1+f3OEhYaHiImKi4yNjo&#xA;+DlJWWl5iZmpucnZ6fkqOkpaanqKmqq6ytrq+v/aAAwDAQACEQMRAD8A9U4q7FXYq7FXYq7FXYq7&#xA;FXYq7FWJfmV+Zvlv8vtDGqayzvJOxisbGGhmnkAqQoJACqN2Y7D5kAzhjMjQYykAjfIHmqTzZ5P0&#xA;zzFJZfo86lG0q2nqetwXmyp8fGOvJVDfZ74Jxo0sTYtkGRZOxV2KuxV2KuxV2KuxV5r+f/5jXnkb&#xA;yDLd6awXWNRlWx0+Q0JiZ1ZnmCnrwRDx7citajbLcMOI7sMkqDFP+cQy915H1zVrqR7jUrzWJFur&#xA;uV2eSQR20DrzZiSTylY198nqeYHkww8nuuY7c7FXYq7FXYq7FXYq7FXYq7FXYq7FXYq7FXYq7FXY&#xA;q7FXYq7FXyl/zlzb3d3+YPlu0mdo9PmsCluxqUE7zuJCB0rT0q/Rlwy+HilMCzHdODAM2eGMmhM1&#xA;fvQf5cfn95q/L3RYfLmu6GdV0iyqtneQOY5I42YsVLFXSQb/AAg8SP1V49Rhz7wkL7jz+TkavszV&#xA;aUkZIGh/ENx8/wAFk2pf85fXl1G8XlvyjLLOR8M91MWRT/lRRJuP+egycxjhvOYDRhw5sxrHCUvc&#xA;CWMX/wCef5/6nLzt5bHRI+yQQROOn/F/1pswp9qaSPUy+B/Y7jF7M9oT5xEPeR+iyk135v8Azxvp&#xA;C9z5xmjYnlS2YwLU/wCTDHEKZSe3NOOUJfZ+tzY+xmqPPJD7f1BRTzB+c8bB0863pZTVQ08rLUeI&#xA;NQfuwfy7g/mH7GR9jNT/AKpD7f1Jpbfmt/zkHp6oE1+C/jj6RSw2zFhWtGdoUc/8HlkO2NLLmJR/&#xA;HkS42X2S10BsYT9x/WAybS/+crfPOmMR5q8qw3MIoDcWDyQcfFm5G5Rj7clzMxZcGX6Ji/x02LqN&#xA;T2fq9P8A3mOQHfzHzFh6R5d/5yd/KfWZLWB76bTLq6lEIhvoTGqEjZpJkMkKoTtUv86DfLZYJBwh&#xA;liXqysrqHQhlYVVhuCD0IOUtj5r/AOcu7iO41zyPpZqQZLmWZf2SskkCL9Pwtk5SMcOSQ6RP3Ft0&#xA;mMZNTigeUpxH2hb/AM4la4NP1vzR5NnYg8l1CxQ7AhD6Ux+bK8JHsMIyeLihk7wjVac4NRPEf4ZH&#xA;5dPmKfS+VtbsVdirsVdirsVdirsVdirsVdirsVdirsVdirsVdirsVdirsVed/nf+VNr+YXlZYEmS&#xA;01nTGa40u8kNI1LAepFKQCRHIFFSNwQDvShtxZOE+TCcbfIkXnK60u4k03WI0nuLVvTe4tZop0Yr&#xA;t9uJnjf/AFlbNVquwBI8WI1fQvYdne2RhEQ1EeIj+Ic/iP0/YyPSL/UNZdY9K0y6uZH3VVic1Hts&#xA;AfoOaXJoJQNEi/I2fkLL1GLtuGSPFGMhHvkOEfOVD7WZ2X5T/mTeoHGlSxgivFzFAf8AksynBHQ5&#xA;Tygfjsxn25pY/VlH+aCftAKb2/5LfmPbtyhg4Pt8S3aKdtx0cZYOz9QOQ+0OOfaDQH6pE+8SXt+X&#xA;f5uaeKww3QRejW92h6ipoFl5fhgOi1Meh+B/azHbHZuTmY/GB/UlF3f+d9EkiTWo7tY2qI4tQiEi&#xA;PxAqF+spKrAVFaZjyllh9d/H9rm48WkzgnEY3/QNV/pSC7V/zA/LSDS5ptd8uPFdlCLaWwmSJnlp&#xA;8K+kqRRqK/abiaDtmfo8UNTLh4N+8dP0Om7Uy6js+HiDNY/myFk+4kk/c8R1Xyp5hPlkeddQi9DT&#xA;9QvBbWfIUaZiruzIP99oI6V7np3OdhhjHGBjj/CHzfU5p5pnLPnIsw8l+afzL8mWlve+U9We402V&#xA;Flk0a5/eQfFRmAiY8Qdt2jKsc1P8q4vEOPKOGQNX0/Y9FL2azHDHNpz4kZRB4f4h5dxr4HyX/mV+&#xA;bB/MHzD5XurrTW0vUtMb6vfQ8uUZZ5UIdC3F1B3qrDbxOZmogPy8+E2DE/c6vs8mOtxCY4SMkbv+&#xA;sFNtavPJvnXRvO1ihf6nMqXsS0HqRMCjrU1+3EzJXttmo7C1HFGWE+8fp/X83p/bLs/hnHUxGx9M&#xA;v0H5bfAPtvStUsdW0y01PT5RPY3sSXFtMvRo5FDKaHcbHNmRTyANorArsVdirsVdirsVdirsVdir&#xA;sVdirsVdirsVdirsVdirsVecfmr+eflL8v4jayn9JeYHUGHSIGAZeQqrTv8AEIlO1Nix7KRvluPE&#xA;Ze5hKYHvfNnmjzV+ZX5iymXzJqDadozEGLRrWscQA6VjqeR/ypSxHbbNfqe2MWH04xxy7+n493ze&#xA;l7N9ldRqKlmPhw7v4j8Onx38lXy/pHlzRP3qaZFd3S/YlumZlHvxUoa/7Lj4g5oc3aebL9Rsd3If&#xA;Ic/i9lp/Z/TYAPDHCf52xl8zdfABkkvn3zKYTBBqJsLb/lnsQlnHT5QCOv05j/mcvIGh5bfc5Q7N&#xA;0wPFKInLvkeI/wCytCweadURq+tFct3NzDDd1PWp+sLLkBlmP2gH7246PDLlt/VkY/7khkNh+bvn&#xA;WxRUt5rZEHVVtYIwfmI0T8MyIdo5Y8iPkHX5fZ3S5DchL/TSP3kq1x+dP5gyhgt9HDy/33BFt8uS&#xA;tkj2nnPX7Awh7MaIfwk/5xYN5q83XLB9T1u8lu5vsp6jFmY9QiA7AfLYZDBhy6rJQ3PeejlarUab&#xA;s7BxUIx6Ac5H8dWHeQ9Km/MD8xtNsNQJ+os7S3ESk8Vt4VMjIKb/AB8QtffO1waaGmxVH595fKO0&#xA;O0cutzceT4DoB3Ppn/nIfyZaah+S8rQgQPoJhv7aNAFTiv7p46dgIpTT3AyOCVS97j5R6WGflNoO&#xA;leefyZtbK2dR5p8vNcRx1NHeJpnmSNvFCJOK/wAp9s1famljllID+8G/wel7B7TyaQRlKzgmaPkR&#xA;+kCveGCan5VstVs5XliYXlm1ZXX4ZY0qArDatFfZq+IzQ6XWZcN8J26xPJ7ftHs7T6ogZBufpmPq&#xA;v3/aB70Yujx6to2o2cqiR0iWdiAKmNDxfj1NRzD/ACX2yrT5JQlxw5x3cjX4Y5YDHk3hP0n3ncH5&#xA;jbzpmP8AzjD+Y8ul38/5aa9KFKu83l+ZqgMWJeSAHwbeRPfkK14jO1GSObGMseRfI9TpZ6bNLDPn&#xA;E/Pz+L6WytrdirsVdirsVdirsVdirsVdirsVdirsVdirsVdirsVeIf8AOQP59p5Ohfy35ckWTzPO&#xA;gM9wOLrZRuNiRuDMw3VT0HxHsDkYcPFueTVkyVsHyrYapdyX7z2sL6nrdyzSTX1wWlbmxqzgE1rU&#xA;1LufuynWYhKN5ZcGLuHX3n9A+12vZeoOOYGnx+LnP8RF1/Vj0/rS+QZJa+X/ADDeUl1fU5Ywettb&#xA;tx/4IrRfuB+eaDLr9Pj2w4wfOW/37/jk9lp+xtdn9WqzyH9GBr51t8gfenVpomnWicYozv1ZmZif&#xA;mSc1ebV5MhuRd/puzMGAVAfaSfmi4bGN24xQ8260ALH+OU8RLleHCO5pfx4/DSlNqZFtDsVQ19dy&#xA;W0BeO3kuZf2Iox1Pux2GXYMQnKjIRHeXF1mpOKFxhLJLoI/r5B55rlp5q1G5Nzd2U1BtHGillRfA&#xA;AV+nOy0OXSYY8MJx95PN8v7V0/aWqyeJlxz8gASAPgyP8iNYg0b80NM+uAxrdmSxJbYrJOvGPY+M&#xA;nFfpzYZfVCw8/AGM6OxfUH/OROrfUvyR1XiaSXi2tqlK/tzIXG3+QrZjYBcg3ZT6Xzd+RvnC88u6&#xA;q9zat8UEiySQ1oJYZBxkQ/8AAj6aHNX22ZYssMo9xes9mMUNVpsumn3iQ8jyv4UPm9S/MRotL86x&#xA;63ozAWurQR6lbHiCjCcFZUdTsQzBuan+ahzSa0COXjhylv8Aren7FJy6Y4Mv1YzwH4cj8Oh8luj2&#xA;UF1fw655VjD3tsTJfeW5DykMZBEotyf76F0LKV+2oP7XXI44gnjx8xzj+rvH2tmpymEDh1B9Mvpy&#xA;dL6cX82QO9/SfLkx381fy0ljtbPzh5Tkk+phxNYzoSs9rMrcvq8rDdWjkHwN4/edros400uIb4J/&#xA;7E/jZ57tHTnXx8OVDWYuXdkj5e/mP1E12j8ivzjt/P2iNZ6gVg816YgGpW1AnqqDx+sRr4E7OB9l&#xA;vYrm7yY63H0l4qJPI7SD1HKmbsVdirsVdirsVdirsVdirsVdirsVdirsVdiryn8+fzptfIGjfUNO&#xA;dJfNWoRn6lCaMLeM1X6zIpBGxHwKftH2By7Di4j5NeSde98e6Pomp+ZdQnv76eR1llaW8vZCXkll&#xA;c8n+Jq8nYmpJyvtHtKOmjQ3meQ/W7XsPsHJrpcR9OIc5foHn932PTfLPlSWaVdN0KyMkrCrKg3oO&#xA;ryOegH8zGgzjsmXLqZ2blL8fJ9NxYdLoMWwEIfaf0kvRdA/L/wAveqI7ua48w6kv95pujAGCM+E1&#xA;4/GOnjxIpmRh0kLo3OXdHl8ZOr1na+eriI4YfzsnM/1YDd6Vo3kq8tgrWmjaNoi9jJG+pXIHvIxg&#xA;AP8Asmza4tKRyjCH+yP6HltT2nGX1ZMuX4jHH5er7gy2y0++hQCbUHlI6LHFDEg+S8WP/DZmwhIc&#xA;z9zp8uaEjtGviT+lWvH0+KENfPEI1H2pygB7H7VBkpmIHqa8YmT6Lvyt5d52/Mjynpsfo6do+n6j&#xA;dVoDJ6EiIafapB6oPhQupzT6rW4o7RjEn4foet7L7F1OU3PJkhH/ADgf9lX3F8++dvzVjuZyDFbS&#xA;3CEhYbSCKCKP2LxqGb5VODT9l5tT6p1CHu/R+tzNX29pdADDEZZcnnIkfEnb/Sj5JV5K8mfmT+aF&#xA;9LDpNIdOhYLd3jsYbSLlvxJFWkan7I5HxoM3+HQafTjYXLvO5eN1nber1Z9U6j3R2H7fjbMvO/8A&#xA;zjJr/krTbLzHpWqDVxYywvqMSwmKWM+qAJYgGk5opIr3HXpWmVHOJbF1UsRG73T8zPIlx+YH5d3X&#xA;l61nWDULeVLqxeSojMicqI5AJAYMwr2zGxT4TbdONh8leT/LGvaZ+Zdt5V1OBtO1S5l+oyRTg0Dy&#xA;isVStaoz8fiWu24rh7R0w1GEgHzDmdidonRakTIsHYjyL0XzHd31qmnaDqUTQ32ky3cDo9PhjkaN&#xA;lQEVrSTma9KMKZxeQSEeCQ3gfx+l9R05gcvjQIMMoHzFj/iR8EDb3FxbTx3FvK0M8TBo5YyVZWHQ&#xA;qw3BzGBINh2k4RkDGQsF7V+WfnzStfkn0bX0jS/1BeE1VUQXxpxq6bKs9Nqj7Y9wM3uh1UchMZ8z&#xA;8pft+94TtzsrJpgMuG+CHLvh8f5v3fEvG/zM0LVPym/M228z6BUR28izqjV4y20pKGOT2YcomPXo&#xA;w3zZ6DJwTOnly5w93d8HT9q4hqMEdbAVK+HIP6XSXx6/DzfWfl3XtP8AMGhWGt6c/Oy1GBLiAmlQ&#xA;rivFqE0ZT8LDscyZCjTowbTDAl2KuxV2KuxV2KuxV2KuxV2KuxV2KuxVSuxdm0mFm0a3Zjb6u0wL&#xA;RiSh4F1UqxXl1AIxCvh/8wZdN8xecbrTNFun1VUl9TzB5qm4mW+uBsfS4/BFbR04wxR7GlSWCoVs&#xA;1esGnxcR5/wj8fa5XZXZc9bn4I/SN5S7h+OX6gnOl6dZwwpApFtZ26gHiAzU8FUkcmPz+Zzh8mSW&#xA;SRlM7l9dxYY4MYx4o7DYD9Z+88yyfRtYubmRNI07S3uYZWX0tLidwszD9q7aMLJN/wAEqr2AGWY8&#xA;hPpiL8u/39/2OHqdNGI8XJPhI/iI5f1L2j8iT5vV4/MsXkbTYz5kvo21EpW28uaXHFFFCGH7XEAn&#xA;/WdqeAJ3zcjP+Xj+8Pq/mx6PHy0R1+Q+BE8HXJMkk/juA99MG1788/N9+zJpwi0q3NQPTAklofGR&#xA;wR/wKjMDN2rll9PpDv8ASeyumx7zvIfPYfIfpJYPqXmTW74l9R1O4n5dfWmdh9AY0zBlkyT5kl3k&#xA;NNgwj0xhD4AJcjXUwP1Oyurxx+zBC7fiQq/jk8emlLqB8f1Wfsas/aMMY5SPwr7ZcI+1INf0n8yL&#xA;2Fo4NDubOzOzsaB2B2oxqKA+AzeaLFpMJ4py4pf1ZUPseS7V1faOrHBigMeM/wBOHEff6vsHzQnk&#xA;DyZoZ1gz+dre/wD0XAoZbOw9EyTvX7DSPLHwTbem57Edc2uXtnTgbS+w/qedxezGukd8dfGP631T&#xA;5I1vVtYtLfSvJuiJ5X8p2vwnUHVXkKA7rbxU9MyswPJmMg6lt6Vw4aqWY3EER/nH9Ab9R2dj0grL&#xA;ISyfzI9P60v0Dc9/V6a6wXEUkL8ZY2rHKhow3G6kfTmY6ZK9AVg857DiD898VSzzR+Xei6/5o8ue&#xA;ZJkWPUfL9y0omCjlLEY3CxMfBZijrXpQ0+1k4zIBHexMbNsM/PP8qV81T6PqNjcHTrv65BbXt5Gn&#xA;MhJT6UUpXknLi7hD4gjsuYssMePiIsEcJ/R9rs8GtyRwnHGVGMhOPkRsfmD9jxHzTovm3yPdi183&#xA;WDJbM3C31y1Bks5vAkgVjY/ysK+1M1up7EJ9WE3/AETzeo7O9r40I6kcJ/nDl8R0+F/BTgvFMaXd&#xA;pLyAo8csTb1BrVWHcZojCUJUfTIPYxywy4+KJE4Ee8EPQPzA1SHzz+Wem6lckNqVnK+maiwAqfWi&#xA;5xzUH83pg9PtVGbbLqiYQy/xwlR/HnTymk7Ojjz5tL/ks0OKP3fMX9ie/wDOIvmCW9/L6+0Wdy0u&#xA;iXzrEh6JBcASKP8Akb6pzp9QNwR1fPMdiwej3PKGx2KuxV2KuxV2KuxV2KuxVLvMPmLR/Lukzavr&#xA;E/1XTrcqJ7jhJIE5sEUsI1dgOTCppQd8MYkmggmm9F8xaBrtsbrRdSttStwQGltJkmVSRWjFC1D7&#xA;HExI5qCCmGBKnc3Vta28lzdSpBbwqXlmlYIiKNyzM1AAPfFXzT+d359/4gE/kjyDKZ4rjlFqutRk&#xA;iNo+jxQt3Q9Gk6MNlqDXLJyhhj4mTYBnptNk1WQYsQuR+Q8z5MK8oeTb4wpp2j2c17cGjTNEhYlj&#xA;tyYjZV+fTOQ1OfJq8nFV9w7g+qaHS6fs3AImQHfI/wAR/HIM7t/y80vTAJvOGt2+mAbnTrZhc3h9&#xA;iqclT574Ro4x3yyEfIblpn2xky7aXHLJ/SPph9vP7Fa6/MnT9HtH07yPpw0uKQcZtTnpJeSj5nkF&#xA;+8+1MlLWxgOHCOHz6sMfYk80hPVz8QjlEbQH6/xdsLgt9U1a/wDThjmvr+4YkhQ0srsepPUn3OYA&#xA;Epnbcl3s548MLJEID4AMstvIWi6W6N501yDS2b/pWW7Ce88fjC8lj26dfDrmdDQiP97Lh8uZ/Y6L&#xA;N25Oe2mxnJ/SO0fh1P2Ia+856NZM0HlLRYLKJdl1K+Rbu9f/AClEvOKKvgAfoyM9TjhtjiPedy2Y&#xA;ezc+X1anJI/0Y+mP2bljmtfmJq8a11TXrhVIqsJncCn+TEhp9y44o6nOajxS+79TZn/k/RC5jHA+&#xA;65fpkWTflt+XmsefrI60ZmsNGZikF7cIXknK7ExR8lJQEcSzMN+lczI9i5L9cgPtdRm9sMERWKBl&#xA;7/SP0n7nsHl/8l/JWlMstxC+qXC0PK7IaMEDekShUIPg/LM/D2bihvXEfN57We0mqz7A8Ef6P6+a&#xA;UfnH+ccHkeC08v6Bbpf+b9S4w6bp6AFIQ5CRvIi/zMaRp3+WbXFi4tzyedyZK97M/JGhXXl7yjY2&#xA;F/O13qMcbT6ndOeTS3c7Ga4fl3Bldqe1MhM2WcRQTPSLcxWgLfblPM/T0yKUbiqWeZdYtdF0S51a&#xA;8iMtnYhZ7riORSJHUyS8QGJ9JayUArtthEbNKTW6lJqnlvWo7fT5Db6jYazbSTW4bhNbXMMZQSDf&#xA;krf3imnhXwOGiEWC+U/zm8reVPy+8zvJ5V1D00ZkbUvK9wsqFElFVmtJJVCyx9vhZip8RULHUaOO&#xA;phUh6uknO7M7WyaHJcDcD9Ue/wDb5oLRddRLG+s4352WorDJEAKj1I35IfaiSOPpzksglCMoS5/p&#xA;D6ViMMuSGWBuO9e6Q/XT0H/nEH4dR8+xUpwuLPbsPiux/DOwBvFjP9EfcHy3VR4dTlHdOX+6L6Qy&#xA;DU7FXYq7FXYq7FXYq7FXYqo3tna31nPZXcSz2l1G8NxA4qjxyKVdGHcMpocQVfC35k/lvqX5beff&#xA;qn1u5stKumaXRNYiJDelUfCzIU+OKoV6EHo1KEZlzzSOO4jikOjDT4cZyiOSRhE/xVde8bbJlFqn&#xA;5pmOsPn3VJIpB9s3Vyx49QQTK34HNGe3oDY46Pv/AGPYD2MnIAxzAxPWv2oHUdA13W5EfzJ5jv8A&#xA;V/TFIxcSySFRWtFaZ5aD5DKp+0Jr0QA9/wCA5WH2Ihf7zKZe4V9pJ+5P9Bi0vQ4BHZabbs/UzTh5&#xA;WJ7EqW4NTwZTmmza3JllxT9R+74cnptN2RhwR4MVwj1rmffL6vt9yb3fm/zLdQfVn1CWO0/5Zbel&#xA;vB/yKhEcf4ZXLUTIq9u7kPkG/H2dggeIQBl3n1H5yspPlLmLU1Cxgk5TR/WKdIg3EE/5RG9PkQff&#xA;LIQcfNmAFA7ov/GHmSW2az06QaVYsKPFZD0eQ8JJR+9k/wBmxzI8YxFA17vx97rxo45JcRHEe+W/&#xA;y6D/ADQEBDbJGSxPOQ7s565iymS7PHhEfex/zX5sGnA2dmQ16w+N+ojB/wCNvDN12V2V43rn9H3/&#xA;ALHl/aL2jGl/dYt8p5n+b+38FW/J38oNc/MjX/rF16sXl+2kDapqTVq/f0YWNeUjfco3PYHq5Sji&#xA;jURXk+aGU8sjKRJJ5kvuXT9PstOsLewsYVt7K0jWG2gjFFSNBxVQPAAZhE25ADCfzj/NjTPy78tm&#xA;7YLca1eco9JsGP25AN5HoQfTjqC3jsO+TxY+IsJz4Q8e/wCcaPI2qeZ/Ml7+aPmh2u5fVddOkm6y&#xA;3R+GSemw4xL8CAClelOOX55gDhDVijZsvp2WMSRlD9ltm9x3GYjkJHf3nnW2mZbTTLLUIDX03Fy9&#xA;s48OSNHKPufMacswO0RL407HDi0sh6pzgf6ol9tj7kmuW/OC+PG2j0nSIv5neS4l+iilP+FyiX5q&#xA;XLhj9rmwHZmP6jlyH3CI++0HN5S/NaRG9TzXbz+oCstvJaRekyEUKkemwow6/DkPA1XPxBfubvz/&#xA;AGadvANf1jf3/peFecPKXnX8sbnS5tF1bhDFfNfWOkOSYUuY1IkWFj0SWKVl48gZFryUcRTPx6nJ&#xA;EXmAMesh08yO7z+x1uTR6fNKtMTGfSMv4vIHpL+ibB6Seq+Y/LvlT8+vy3t9UsCtprluGW2lf7dp&#xA;dqB6tpcUHIoTTt0o4HY5UJmB7w6mcL2OxD5Zsk1byvr915c1yFrS7tpSjxv+xIOlD0KuKFSNj1HX&#xA;MLtbReLHxIcxz8x+x6D2b7V8CfgzPpkdvI/qP3vYf+cXr36p+bPmXTS4VL6xN0oJA5Ok0bqB4njO&#xA;xy7Sy4tLA9wr5bfocHtjHwa7KO+XF/pvV+l9UYXBdirsVdirsVdirsVdirsVdiqQ+dvJHl3zpoE2&#xA;ia9b+taS/FHItFlhlH2ZYXIPF1r8iNiCCRkoTMTYRKII3fJ3nP8AKT8yPy1llmt4X17yutWW9t1J&#xA;MSbk+tGOTRUpud0965VqtBh1O/0zdp2Z27qNF6R68fcenu7vuY7Z+edInA9UmFz2cEfjuPxzQ5ux&#xA;M8OQ4h5fi3tdL7WaTIPUeA+f4r7UwXzJpLfZnjYnoA6f1zDOgzDnGXyLtI9taY8px/00f1rB5gtZ&#xA;ZFit5Ymlc0RFcOx+QGJ0WSIuUZADyYjtfFOQjCUTI8gCCfkFf6vezf3jcV8Cf4DKeKI5OT4eSfNX&#xA;isIU3b429+n3ZA5CW6GniOe6d6J5d1PWJJBaRhbe3XndXcp4QQIP2pJDsPl1PYZLFhlPl05noGGq&#xA;1mPABxczyiOZ9wSrzjfaZpVhKdOlMpiBX67KOIkc9DHF1C7fCDuep4jpk6TTRy5hAWR1/HQfjns6&#xA;/tHXZNPppZZVGXQc6/4qXkNvhcmOfkz+VOo/mR5paOd5ItFtCJtYvx9qjEkRITUepIQevQVPse7n&#xA;IY40Pg+QerJIykbJ3JfbdhY6V5e0yz0LRLWO2t7dBFa2sYoqL/M3cknck7k7nMAkk2XIApCedfO2&#xA;heR/Lc+ta5cUjjFIo6j1biYiqxRL4tT5AbnauGEDI0ESkAHxVNe+aPzm/NS2S5crc6rMIYo1q0dn&#xA;Zx1dgg2+GKMMx/map6nM+hCLi7yL7p0HQ9N0HRrLRtMiENhYQrBbxjrxQUqT3Y9WPc75rybNuWBS&#xA;PwJdiq2WQRxs56Dtiq7FWA/m/wDltceePLrWNnOltfRSR3VlO4qqXEJPEtTsysVNOnXfpkokbg8i&#xA;KKRIxIlE1KJse8PA9Ktvzi/JrzTP5j1DRWn8t3bKutrZOLi2kjTYyih5wsu7K0gXc0OxyzBhgMYx&#xA;g3XK+adbqpZs0spiI8XOuV/t5vVvPfkHyV+eHlC28w+XruKPV0SllqNKMCN2tbtFqwoT81O4qD8R&#xA;hM4zRaJRExYeA/l9J5j/AC+/PDQYvNNs1jdRzLY3JnIVGgula2Wb1a8HRedeYNPh+eWxxQGMiHLm&#xA;nLqJ5Jgz3kABff3X9z7izDbHYq7FXYq7FXYq7FXYq7FXYq7FXYqxHzH+Uf5aeY5Gl1fy7ZzTuxeS&#xA;5jT6vM7HqXlgMUjfS2TjkkORYmALyn81vyX/ACO8leU7/wAxz6bPGyARWFil5NxlunFI4x6js9CQ&#xA;Wf4tlDEdKZdjyzkaa5wiBbwzyPoK21r+kp0/0i4H7kH9iM9/m36s5ztzX8c/Cj9Mefmf2fe+ieyX&#xA;Y4xY/wAxMeuf0+Uf+Pfd8WXW9tcXMywW0TzzOaJFGpdmPsq1JzQgEmg9hOcYi5Gh5s40f8sGi08a&#xA;35svU0bRVI+EFXuJep4RqvKjGnTc/wCTmfi0Hp48h4Yfa8/qu3hx+Fp4nJl/2I9/4rzSbzz+YNlJ&#xA;pn6O02EaR5VsjyitR/eTMOkk5qebnsN/p64ZTlnIxYhUe79JZYNNDRxlqdVPiy1ue7+jEPHNO03z&#xA;J+Ynm220jSYDJPO3GCM19OGIH4pZWAPFR1ZvoHYZ12i0cNLjrr1Pe+b9rdq5Ndm4jtEfTHuH6+99&#xA;w+SfJ2i/l75PttE00B/SHKecij3Fy4HOV/nTYdlAHbITmZG3FjGhSC1vzroHlLTrrzD5huRDbxAr&#xA;Go+KWaZhVYok/aZgD7DqaDBGBkaCZSA5vjP80/zS178w/MB1HUD6FjByTTNOU1jgiYivhydqDm3f&#xA;2AAGwx4xEOJOZkXsX/OG3lRJLvXfNUyV9BU06zYivxPSWc/MKIx9JyjUy5Bswjq+o8xHIdiryb8x&#xA;/wDnJLyL5M1CXSY1l1rV4Kie3tCgiicdUlmY0DDuFVqd6ZdDAZbtcsoCdeRfzA1Lzr5Wh1250b9C&#xA;2d3cFbBHuPXkmhiNGlYelFwBcUXc1pXpSsMkOE1bKErFs/yDJ2KtOiupRwGVgQykVBB6gjFXkGr+&#xA;Q7z8uPMUnnXyLbu2iXDD/FXlaAVVoB1ubOMdJIqlvTHaoWg2y8T4hRajHhNhkH5r/lxov5l+SvSh&#xA;9J9QWL61oOpCnwu6hlHMCvpTCgYfJuoGQxzMCynHiDyb8ivz2vtIvx+X/wCYDvbz2shtLHULk0eG&#xA;RDw+rXLHsCKI56dDtQi/Liv1Ra8eSti+mcxG92KuxV2KuxV2KuxV2KuxV2KuxVI/OHnfyx5P0l9U&#xA;8wX0dnbioiQmssrj9iKMfE7fLp1NBkowMjQRKQHN8j+efO+s/m15nivp4Hs/KunMU0zTyatISfid&#xA;6bNI9Bypso+Eb1Y43aGujpocETeU/Z+OjvOwexJazIMmQVgj/svL9Z+HNnGhfl9qYtxqOtxW+k6Z&#xA;twn1WVraMjvxiUpK56caFc5vFo5n1SqI/pbfte41fbOKPoxEzn3QF/b9I+1M5fPPk7QoGtvL9udc&#xA;u/stczRfVNOHSn7haSXFKf7tJ8eWZBzYsQqPqPyHy6/F10NDqtVK5nw4+/il/puUf82vcwPzd51v&#xA;7121TzDftMy/DEpoFUH/AHXDEtFX6PmfHMaIzarJQ3P2B21aTszCZGoj/ZSP6T+OTHvKH5d+ePzZ&#xA;1UNYxGw8vW78ZNRmB9CPx49PWlp+yvTuR1zrdHo8ekh3zPM/jo+a9r9r5dfks+nGPpj+k95fXH5d&#xA;fll5V/L7RjZaPF+9kAa/1GahnnZa7uw6KKnio2HzqclPIZHd18YAJH+Zn5maB5VsG1HVJd6FbCxQ&#xA;j1p2H8q9h/Mx2GMIGR2WUgHxt59/MHX/ADrrBv8AVJOMMfJbKyQ/uoI2NeKjux25Mdz9wzYQgIjZ&#xA;xJSJYzk2L7n/AOcftHi8sflBov1hOFzqavqMqgbubluUR/5ECPNdmlci5eMVF6LaG4ulE854xN/d&#xA;wr0I8WPfKmx57+Zlx+cWuW76H5H0waPbTrxuPMN7cwxScW6i2jieWaPb9tlDDsAd8thwjctcuI8n&#xA;yz+YX5SzeUfMWjeWX1WPVPMuqlDdQwIwigM8gjgX1HPJ2duRNVWgp45mQycQJ6OPKFGn2hPpVppG&#xA;laXpNmvC00+3S2t18EiVUX8FzXk2bcsCk/s7gT2ySA7kUb2YdcCWr0Xptn+otGt0BWP1lZoyR2bi&#xA;VYV8R08D0xCsc0D8wNPv9Zk8u6pA2i+aIRyOlXDAiaMCvrWc1FW4j67qAwoeSrkzChY5MRLoyrIM&#xA;kgutR/w4BG9hIdBQfuriyjeY2w7pLAnOT067q0SkKNiqheRlV+9jdPKfze/Kvyn+aumyeYfJd/Z3&#xA;Hme1SjtbSxsl0qDaGfifglXorN/qttQrdjyGGx5Nc4CW4Y1+QH573llexeQPPDtFNC5tNNv7g8Xi&#xA;kQ8Ra3Bb3HFGPQ/Ce1J5sX8QRjydC+msxG92KuxV2KuxV2KuxV2KuxV4J+av/OS0WnXsvlvyFCmq&#xA;60OUc+pkc7aBuh9MA0ldf5ieC/5W4FpjGEePIeGKcOPJmmMeKJlM/j8dHjbeXrjVtQ/xB+YmtzXt&#xA;7MA62wJmmKElgqpVFRN9hVF/lDDNRqO2DIcOL0R7+vwHT4vV6L2ajjPFm/eT/m3UB7zzl7oiuhLJ&#xA;I/Pa6NAq+XLK20OJRxXUbgpLdUpTaWQKkf8AzyRc1MMkr9A9X+ml8/1U9Hk00DEePIcHcTwYx/m3&#xA;v8SWJav520ya4e61PU5dVvDuzEtMT8mY8f8Ahsvh2Zqspuq85H8H7HGydudnaYUJcVdIDb9EftSP&#xA;U/PV+sCPZWJt7eXkILmcEhuNK8AKLVaiu5zZ6f2eiN8kr8h+v+x0mt9tZkVghwjvluflyH2p/wDk&#xA;5+Veufmd5lF3qjSjy7ZODqV6ajnT4vq0J6cm78fsjfrQHciGPBHhgAHkc2oy6mfHlkZHz/R3fB9s&#xA;2trpOiaVFa20cVhpllGEiiUCOKONB0HYDMUm2XJ4h+a3/OTflvSEm03y2y6vqS1Xmhrao3jJIp+O&#xA;n8qH5sDl+PATz2a55QOT5U8xeZNa8xapLqms3T3d5L1duiqOiIo+FVHYDMyMQBQcYknmlmSQn/kT&#xA;ypd+bPN+leXrUHnfzqkjjfhEPilk/wBhGrNkZy4RbKIs0+8lhikuIbS1UR20QWC2jXokUY4qB8lG&#xA;atzWTqoVQqiiqKAewxVLPNHmTS/LXl+/13VJPTsdPiaaUinJqbKi1pVnaiqPE4Yxs0gmg+PfykbV&#xA;vzH/AOcgLbzBqEfqFLl9XvKVZYY7Yf6OoJ/ZST0kXM7JUYU40PVK31H+YfmKHQrrQ5r1hHpl/cvp&#xA;8tw2wjuJk527O3ZG9J0+bDMKMbtyCaRtjfy2klV+KM/aTx/tyLJP7W9t7laxtv3Q/aH0Yqxf8zfy&#xA;507zxoP1OSQ2erWjevo2rRfDNa3K7qysPi4kgcgD+IBE8c+EsZRsMH/JT839W1PVbvyB53pB5y0l&#xA;pIknNALtYSeY2ovqKByqv21+Lscsy4wBxDkwhPoeb2fKG1ifmr8r/J3mSQ3dzaGy1kbw65p7G0v4&#xA;2pQMs8dGalej8h7ZOOQhiYAvkX8+/wAv/PHlrzGl75huP0vZ3YEVnr4jRHnEY2S54b+sq7VapYDY&#xA;mm2bhmCNnGyRIO72/wD5xm/OWTzNpn+E9dn569psfKyuHPxXVqu1GJ6yRd+7LQ9QxzHz4q3HJtxT&#xA;vYvd8x252KuxV2KuxV2KuxV4d/zlJ+Y2oaDoFj5X0ab0NT8wlxcTq3F4rRKKwB24+qzceX8obLsQ&#xA;ABkeUWJiZSEI85Gnzdosk5nTQ/KGnzavqsw/eSQRs7SEfaICjlwX6ABvXNdLQZdTLjznhh0j3fte&#xA;lj2xg0GPwtKOPJ/FPvP313Db3l6foX/OMn5taxwl13VLXQIGYh4Ub6xcIPELBSNv+R2ZUNLpsfKP&#xA;F79/v/U6nN2trMp3mY/1dvu/WznRv+cP/JENJNc1fUNVuQauUMdtEw8CtJpP+SmZHjkCogAOulDi&#xA;NyJJRH5hWX5K/k5oIvLTyxY3OuXhI0m0uVN1I0idZDJcGV0jSo5FTU7D5GBnM80S4Yjk8G8t6Pff&#xA;mT5iuvNnn7XF07y9byAalqty4Tl1ZbOyQ7FqdFQHgN6bgHIkeEVEbtIHEbL1DV/+cofJnlTSIvL/&#xA;AOW2hepZ2a+nb3FyGhtx1PIR19aUsdyXKsT1yoYCTci2HKBsHh/nX81/PvnKRv05qsslqT8NjF+5&#xA;tgK1A9JKBqeLVOXwxxjyaZTJYjljF2KuxV9W/wDOLf5dNo3lm888ajFxvdVjNvpSsPiS15UaUV/3&#xA;642/yVr0bMLUTs05OGPV7noNtVnuGGw+FPmeuYzcnOKvjv8A5yb/ADgTzNrA8qaJPz0LSpCbueM1&#xA;S5u1+E0I+1HFuF7E1P8AKczsGOhZ5uNlnezLf+cVb3yR5Z8q6lq+t67punanq9z6ccN3d28MotrY&#xA;UU8ZHVhykkft2GV6gEmgGWKgHqnm3Uvyw/MfyzqHlRPM2mzSXo4QmG6gklSeNg0ciR8wzcXA6dRU&#xA;VyqIlE3TYSJCreHN+Y35nflJfx+XPO9h+l9OUEafqAch5IlNKxTkMJAtfsuOQ7kbZd4cZ7xauMx2&#xA;LPvLX/OQf5b6vIinUH0m6NKJfr6IB/4zKXiH0sMqlgkGwZQXrOkeYYriONzKk9vKKxXMZDKR41XY&#xA;j3ylsfMP/OT8d35Y/ODSfNOlP6F3cW1veJKuxNxayNHvTqDGqA+I2zNwbxouNl2lb6o8ta7ba9oN&#xA;hrFt/c30Ec6itaCRA4H/AA2YZFGnIBtD+ZvNcPl2A3d5p19Pp0a87m+tIluEhG9S8SObigAqWWMg&#xA;DqcMY2pNIK5j8j/mX5Pntkng1jQ9QQoZYWDFHG6sK/FHKh3FRUHDvA+aNpB8WeavK/m78oPzCgdW&#xA;ZJ7GYXWj6kFIiuIlPXw3B4yJ8x0IJzoyE4uKQYl9u+RvOGmecPKun+YdONIb2MNJDUM0Uo2kiand&#xA;GqPfrmBOPCacuMrFp9kUuxV2KuxV2KuxV8zf85d+Qdev7zS/NunW0t5ZW1sbHUBCpcwBJGljkZVq&#xA;eDeowLUoKCvUZl6aY5NGaJ5vc/y/8geVvJehQ6foFtGqsiG4vqAzXLgf3sknVq1JA+yK7UGY85mR&#xA;3bYxA5MmyDJxIAqdgMVfn5+cfnubzr5/1LV+fKwjc2umJWqrawkqhH+vvIfds2WKHDGnDnKywx5p&#xA;njSN5GaOKoiQklVDGp4jtU5YwWYq7FXYq7FWbfk9+Xdx59872ej0ZdOj/wBJ1WZduFrGRyAP8zkh&#xA;F9zXoMryT4RbOEbL7r1KC3tNPtNOs4ligjCxQQIKKscahURR4DYDNaXMTO0txb26RDqo+I+JPXFX&#xA;zp/zkP8A85Bx2cd15O8oXIe9cGLVtWiaohB2aCBh/uw9HYfZ6D4vs5WHD1LRkydA+W/q0/1f6yY2&#xA;FuX9MSkfCXA5FQe5AIrmW46lhV2Kpnc+ZfMF3pEWjXeoT3OmQSCW3tJnMiROFK1i5V4VDbhaA9+m&#xA;R4RdpspZkkMw8han+ZGnfWb3ydNdOtoPUvbO2PrDh/vyS1+Lkg6F+B4+IyuYiebOJI5Iv8yfzW1L&#xA;z9ZaMmq2kdvqGkidGngLenKk3pkfu25FCpjP7RrXtgx4+G6Wc+J75/zih5+j1Dy5J5Yupf8ATNKJ&#xA;9FWO7W8jFkIr/I5KHwHHMbUQo33t2GVin0FmO3Pkf/nJnyzdeSPOVj5k8qPPolvrcbfWX0+R7dRe&#xA;QtViPSKcS6OrU7nkfHM3BLiFFxsoo2GNRfmnB5g/KbW9E883r6pq1vLG/lyWYerdiRhufVIqFTj8&#xA;RZt1Yr4ZLw6mDFHHcd0t/JD83dS8g+ZYUnmd/LN9IF1SzqSq8qL9YRezpQVp9pRTwpLLj4h5oxzo&#xA;vu2OSOSNZI2DxuAyOpqCDuCCOoOa5y12KuxV2KuxV2KuxV2KuxVbLFHLE8Ui8o5FKup7qwoRir54&#xA;/MP/AJxG0a+9W+8k3f6MuTVv0ZdFpLZj4Ry/FJH9PIfLMqGpPVplh7nzj5v/AC985eT7r6v5i0qa&#xA;xqaRzkB4JP8AUmTlG3yDV8cyYzEuTRKJHNjuTYuxV2KuxV9i/wDOIeiaZbfl5d6tCoOoajevHdy7&#xA;VCW6gRR/Icy3+yzB1J9VOThGz0vzH5t8taB6useYNQisNPtapE0p+KSQblY0FWdvZQTlMYk8m0kD&#xA;m+Z/zc/5yg1rzGk+jeUhJpGivVJr0njeXC9KAqf3KHwU8j4jcZl48AG5ceeW+Txzyt5a1XzP5hsd&#xA;B0qP1L6/lEUQP2VHVnY9lRQWb2GXykALLUBZp6J/zkHpGk+V9T0DyNpPxWug6eJLqUgBpb28fnNK&#xA;/u6Rx/IUXoBleEk2T1Z5BWzybLmt2KuxV2Ksh8g+arryr5v0zXIJGRbaZfrIWvxQMeMq0HihNPeh&#xA;yE48QplGVG31r+Yn5H+VvzE0qbULKOLTvNCLzh1KABY7gkVUXKrs4b+cfEPcbZhY8xj7nJnjBfJ/&#xA;lrXvMH5f+dEvFjaDUdLnaC+s5KryCtxlhf5069jQ5myiJBxgTEvujyl+YGleYtAs9Ysz6ttdxh1Z&#xA;SKhujI47MjVDDxzXSiQaLmA2LRvmPy/5b86eXrrR9XgFzYTj41b4ZInH2ZEbfi69mH6qjGMiDYUg&#xA;EPzw1e2tLTVr21s5zc2cFxLFbXLKFMkaOVRyoLU5KK0rmzHJwimnlvyB518zSImhaLd36uaCeOJh&#xA;CD/lTNxiX/ZNglMDmUiJPJ96/lvpGuaN5D0PSddZH1WwtI7e4MTc1Hpjii8qCpVAoJ8c10yCSQ5c&#xA;RQ3ZJkGTsVdirsVdirsVdirsVdirsVUb2ysr61ktL23jurWYFZbeZFkjdT1DIwII+eIKvH/Of/OK&#xA;35ca6z3GkiXy9etU1tP3lsSe5t5Dt8o2UZfHUSHPdqliBeN+Yf8AnEj8y7CRzpM1lrMAr6fpy/V5&#xA;iP8AKSbigPykOXx1MTzajhLyXzH5V8x+Wr/6hr2nT6ddUqsc6FQw/mRvsuvupIy6MgeTWQRzSrJI&#xA;en/lj+ems/l/5S1rRtNtUnutQnSexnlJMdu5jMczlB9tiEj4itNt69MpyYhIgtkMnCGBa95i13X7&#xA;9r/Wb6W+u3r+8mavEE14ov2UX/JUAZZGIHJgSTzS3JIfXH/OJ35aJpegS+ddQi/3IauDFpobrHZq&#xA;3xOB2Mzr/wACBTqcwtROzTk4Y7W8J/P+8mu/zh8zSSmrJcpCvssMKRr+C5kYR6Q05PqLz3LWDsVd&#xA;irsVdir6h/Jz/nIryxZeXrPTPM901lqFhEtt6zxyPFPFGKRtyjDlXCijchud670zCy4DdhyYZRW7&#xA;Gvz+8wfkh5uB1vRdTkj81KlJPq9tIYrpVFFEzOI1VxSgcEmmxB2pZhExsRswyGJeWeSPzK82+TLh&#xA;30W6At5SGnsZx6lvIR3KVBB91IOWzxiXNrjMjkzPXfz7/MzzfZtoGkW31M3q+ncRaWkr3M690Bq7&#xA;hT3CbnoTTbIRwRjuWZyE7J9+V3/OLPmvVNQtdS83xjSdHidZJLByGu51U14FFqIlboSx5f5PfI5N&#xA;QByTDEer68gggt4Y4II1igiUJFEgCoqqKBVUbAAZhOSvxV2KuxV2KuxV2KuxV2KuxV2KuxV2KuxV&#xA;2KpJ5v8AJnl3zfosuj69aLdWkoPBiAJInpQSRP1Rx4j6dslGRibCDEHm+Hvze/KXWPy7182s3K60&#xA;e6JbS9S40EijrG9NlkT9ofSNjmwx5BIOJOHCWBZYwdiqrbJC9zEk8npQM6rLLQtwQmjNQbmg3wK/&#xA;R/yrdeXrjy7p7eXZ4bjRY4I4rGS3YMgijUKq7dCoFCDuO+auV3u5wqtnyZ/zll5Jl0jz7H5jiX/Q&#xA;fMEYZmHRbm2VY5F9uScGHia+GZunlYrucbNGjbw7MhqdirsVdirsVRml6Pq+rXItdLsbi/uT0gtY&#xA;nmkP+xjDHASBzSBbM9N/IT84NQIEHli6jr3uTFbf8n3j8MrOaI6shjl3PRPJf/OIfmy51C3n82Xd&#xA;tYaYjK9xa27ma5dQatGCoEachty5NTwOVy1I6M44T1fUHlzyj5Z8tWYs9B0y302CgDCCMKz06GR/&#xA;tufdiTmJKRPNyAAOSbZFLsVdirsVdirsVdirsVdirsVdirsVdirsVdirsVdiqQ+ePJWh+c/Ll1oO&#xA;sRc7ecVilAHqQyj7EsZPRl/EbHYnJQkYmwiUbFPhD8xvy18yeQtdk0zV4S0BJNlqCKfQuI+zI3Zv&#xA;5l6j8c2MJiQ2cOUSGJ5Ni7FWSeSvzF84+S703Xl3UpLQOQZ7Y/Hby0/35E1UbbatKjschKAlzZRk&#xA;RyZ1+Z35+n8xPI9touraOlprNpdx3Ud7bOTCwWN0cem/xpXmP2myvHh4TYZyycQeQ5e1OxV2Ks58&#xA;hfkv+YPnd45NJ05odNc76rd1htQOhKsQWk+Uatlc8sY82cYEvozyN/ziZ5I0hY7nzLPJr98NzDvB&#xA;aKfZEPqPQ92eh/lzFnqCeWzdHCBze0aVo2kaRaLZ6VYwWFon2be2iSFB/sUCjKCSebaBSMwJdirs&#xA;VdirsVdirsVdirsVdirsVdirsVdirsVdirsVdirsVdirsVUbyysr63e2vbeO6tpBSSCZFkRh7qwI&#xA;OIKvOfMf/OOX5R65zc6Kum3D1/f6c7W3Gv8ALEKwf8k8tjnkOrWccS8r8zf84aXC8pfLHmBZP5LX&#xA;Uoyp/wCR8Iav/IoZdHU94azh7njfm/8AJv8AMjykHl1jRZhZpWt9b0uLfiP2mki5cB/r0y+OWMuR&#xA;a5QIYVljB2Ksx8gflN5389XATQ7A/U1bjNqc9Y7WMjqDJQ8iP5UBb2yueQR5sowJfUf5c/8AOMHk&#xA;fywYr7Wh/iHV0o1bhALSNv8AItzyDU8ZCfEAZiTzk8tnIjiAeyIiooRAFVQAqgUAA6ADKG1vFXYq&#xA;7FXYq7FXYq7FXYq7FXYq7FXYq7FXYq7FXYq7FXYq7FXYq7FXYq7FXYq7FXYq4gEUO4OKvKfzJ/5x&#xA;y8iecI5rqzgXQ9cerLfWigRu/wDxdAOKNU9WWje+XQzGPua5YwWI/lt/ziXoulyR6h51uE1e7Q8o&#xA;9Ntyy2a0O3qMQskvbair2PIZOeoJ5MY4e97/AGlpaWdtFa2cMdtawKEhghUJGijYKqqAAB4DMYlu&#xA;VcVdirsVdirsVdirsVdirsVdirsVdirsVdirsVdirsVdirsVdirsVdirsVdirsVdirsVdirsVdir&#xA;sVdirsVdirsVdirsVdirsVdirsVdirsVdirsVdirsVdirsVdirsVdirsVdirsVdirsVdirsVdirs&#xA;VdirsVdirsVdirsVdirsVdirsVdirsVdirsVdirsVdirsVdirsVdirsVdirsVdirsVdirsVdirsV&#xA;dirsVdirsVdirsVdirsVdirsVdirsVdirsVdirsVdirsVdirsVdirsVdirsVdirsVdirsVdirsVd&#xA;irsVdirsVdirsVdirsVdirsVdirsVdirsVdirsVdirsVdirE0/MfSmmtonsruA3Yglgec20KGC7J&#xA;EExeSdVHMo1I6+rsfgxVL7b85vKc9nHeLHcCGREkX4rVm4yJG60VJ2LNSZeSrVl/aAG+KpnJ+Yej&#xA;oI1NvcPPOhkt4YvQm9RFLLIyyRSvDSNlVXq44l0B3ZcVbk/MXQILtLK6Se2vKMZ4JBHWELN6NZCr&#xA;stOKyS1Un92jN2piqHtPzS8s3JtiFuYo7lGcSvGvpoVkaL05GVmCMzqoWv8AOgrVhiqOl872atKY&#xA;rC8uIY5IbYTxiEI9zcCJo4F5yo3Kk61YgIN6tscVQ1v+Znlua5+pkTxXv1uLT/qrxjn9YkkMbqCr&#xA;MjeiwPqlWIXbryXkqyvFXYq7FXYq7FXYq7FXYq7FXYq7FXYq7FXYq7FXYq7FXYq7FXYq7FUt8y3l&#xA;xZeXNVvLZ/TubazuJoXoDxeOJmU0IINCO+KvFrbzx5jlW1mGqamfXMLNA1t6cQhnETLxuS5LOFuF&#xA;/wB00YigoCrEKki/mH+aJs7yWGWe4uYJEUwss0CoOAcoXZGBZ2JhBPEIR6j0Rhihv/lY35n1R2a8&#xA;tozbtKGmiZXqsbMJCp9WNAaFijFuPHgSTIpCr2OH/lWvoN6Pp+h8HLj6/H6vX4On/Hl/L/uinthS&#xA;irv/AAB+grT6z9W/RH1S3+p1rw+q1X6vwpvx6fR12riqu/8Ahj9Hn6z9Y9L0Z6fW/rn1n0ucXq8f&#xA;W/0j7fp0p3pxxVL4P+VX/VpOP1L+8k9f1a/WPU9OT1vU9T99y4er6nL/AC+X7WKt2f8Ayq39DXv1&#xA;P9H/AKI9G6+venx9D0uEP1nnT4fsejy+jFWp/wDlW/1ib1fT9bknOnrU+sfD6XCm31rj6fpcf3vH&#xA;hx+HjiqM0z/APox/UPqdPWHClPV9f1Lfl9r95z9X0PUrvz48/ixVkuKuxV2KuxV2KuxV2KuxV2Ku&#xA;xV2KuxV2KuxV2KuxV2KuxV2KuxV2KpV5s/Rf+FtZ/S3P9F/Ubn6/6f2/q/ot6vCn7XCtMVfKWo/4&#xA;A/wHF9e/5Wf/AIJ4r6Xqfoz6lTmen7NeXKv01xVH6b/yqD9OeXPQ/wAS/Wv0Z/uI9f8Awz6H1T6o&#xA;lfV9T4PU9Lj/AHnx8v8AKxVSk/5UP/gzWfr36f8A0V+lZ/0h636B+u+v61v63pen/pHpep6f9325&#xA;U+Hlir//2Q==</xmpGImg:image>
               </rdf:li>
            </rdf:Alt>
         </xmp:Thumbnails>
      </rdf:Description>
      <rdf:Description rdf:about=""
            xmlns:xmpMM="http://ns.adobe.com/xap/1.0/mm/"
            xmlns:stRef="http://ns.adobe.com/xap/1.0/sType/ResourceRef#"
            xmlns:stEvt="http://ns.adobe.com/xap/1.0/sType/ResourceEvent#">
         <xmpMM:OriginalDocumentID>uuid:9E3E5C9A8C81DB118734DB58FDDE4BA7</xmpMM:OriginalDocumentID>
         <xmpMM:DocumentID>xmp.did:1612731713206811822A8451A1857300</xmpMM:DocumentID>
         <xmpMM:InstanceID>xmp.iid:1612731713206811822A8451A1857300</xmpMM:InstanceID>
         <xmpMM:RenditionClass>proof:pdf</xmpMM:RenditionClass>
         <xmpMM:DerivedFrom rdf:parseType="Resource">
            <stRef:instanceID>xmp.iid:1512731713206811822A8451A1857300</stRef:instanceID>
            <stRef:documentID>xmp.did:1512731713206811822A8451A1857300</stRef:documentID>
            <stRef:originalDocumentID>uuid:9E3E5C9A8C81DB118734DB58FDDE4BA7</stRef:originalDocumentID>
            <stRef:renditionClass>proof:pdf</stRef:renditionClass>
         </xmpMM:DerivedFrom>
         <xmpMM:History>
            <rdf:Seq>
               <rdf:li rdf:parseType="Resource">
                  <stEvt:action>saved</stEvt:action>
                  <stEvt:instanceID>xmp.iid:F77F117407206811822A8451A1857300</stEvt:instanceID>
                  <stEvt:when>2013-10-06T17:09:14+13:00</stEvt:when>
                  <stEvt:softwareAgent>Adobe Illustrator CS6 (Macintosh)</stEvt:softwareAgent>
                  <stEvt:changed>/</stEvt:changed>
               </rdf:li>
               <rdf:li rdf:parseType="Resource">
                  <stEvt:action>saved</stEvt:action>
                  <stEvt:instanceID>xmp.iid:1612731713206811822A8451A1857300</stEvt:instanceID>
                  <stEvt:when>2013-10-06T23:47:22+13:00</stEvt:when>
                  <stEvt:softwareAgent>Adobe Illustrator CS6 (Macintosh)</stEvt:softwareAgent>
                  <stEvt:changed>/</stEvt:changed>
               </rdf:li>
            </rdf:Seq>
         </xmpMM:History>
      </rdf:Description>
      <rdf:Description rdf:about=""
            xmlns:xmpTPg="http://ns.adobe.com/xap/1.0/t/pg/"
            xmlns:stDim="http://ns.adobe.com/xap/1.0/sType/Dimensions#"
            xmlns:xmpG="http://ns.adobe.com/xap/1.0/g/">
         <xmpTPg:NPages>1</xmpTPg:NPages>
         <xmpTPg:HasVisibleTransparency>True</xmpTPg:HasVisibleTransparency>
         <xmpTPg:HasVisibleOverprint>False</xmpTPg:HasVisibleOverprint>
         <xmpTPg:MaxPageSize rdf:parseType="Resource">
            <stDim:w>209.999929</stDim:w>
            <stDim:h>210.001308</stDim:h>
            <stDim:unit>Millimeters</stDim:unit>
         </xmpTPg:MaxPageSize>
         <xmpTPg:PlateNames>
            <rdf:Seq>
               <rdf:li>Cyan</rdf:li>
               <rdf:li>Magenta</rdf:li>
               <rdf:li>Yellow</rdf:li>
               <rdf:li>Black</rdf:li>
            </rdf:Seq>
         </xmpTPg:PlateNames>
         <xmpTPg:SwatchGroups>
            <rdf:Seq>
               <rdf:li rdf:parseType="Resource">
                  <xmpG:groupName>Default Swatch Group</xmpG:groupName>
                  <xmpG:groupType>0</xmpG:groupType>
               </rdf:li>
            </rdf:Seq>
         </xmpTPg:SwatchGroups>
      </rdf:Description>
      <rdf:Description rdf:about=""
            xmlns:pdf="http://ns.adobe.com/pdf/1.3/">
         <pdf:Producer>Adobe PDF library 10.01</pdf:Producer>
      </rdf:Description>
      <rdf:Description rdf:about=""
            xmlns:xmpRights="http://ns.adobe.com/xap/1.0/rights/">
         <xmpRights:Marked>True</xmpRights:Marked>
         <xmpRights:WebStatement rdf:resource="http://www.ospreydawn.com"/>
         <xmpRights:UsageTerms>
            <rdf:Alt>
               <rdf:li xml:lang="x-default">This work is licensed under a &lt;a rel="license" href="http://creativecommons.org/licenses/by-nc-sa/3.0/"&gt;Creative Commons Attribution-NonCommercial-ShareAlike 3.0 Unported License&lt;/a&gt;.</rdf:li>
               <rdf:li xml:lang="en_us">This work is licensed under a &lt;a rel="license" href="http://creativecommons.org/licenses/by-nc-sa/3.0/"&gt;Creative Commons Attribution-NonCommercial-ShareAlike 3.0 Unported License&lt;/a&gt;.</rdf:li>
               <rdf:li xml:lang="en">This work is licensed under a &lt;a rel="license" href="http://creativecommons.org/licenses/by-nc-sa/3.0/"&gt;Creative Commons Attribution-NonCommercial-ShareAlike 3.0 Unported License&lt;/a&gt;.</rdf:li>
            </rdf:Alt>
         </xmpRights:UsageTerms>
      </rdf:Description>
      <rdf:Description rdf:about=""
            xmlns:cc="http://creativecommons.org/ns#">
         <cc:attributionName>Max O'Brien / Osprey Dawn</cc:attributionName>
         <cc:license rdf:resource="http://creativecommons.org/licenses/by-nc-sa/3.0/"/>
      </rdf:Description>
   </rdf:RDF>
</x:xmpmeta>
                                                                                                    
                                                                                                    
                                                                                                    
                                                                                                    
                                                                                                    
                                                                                                    
                                                                                                    
                                                                                                    
                                                                                                    
                                                                                                    
                                                                                                    
                                                                                                    
                                                                                                    
                                                                                                    
                                                                                                    
                                                                                                    
                                                                                                    
                                                                                                    
                                                                                                    
                                                                                                    
                           
<?xpacket end="w"?>
	</metadata>
<g id="Layer_2">
	<g id="_x37_Wl2mV_1_">
	</g>
</g>
<g id="Layer_1_1_">
	<g>
		<path fill="#021836" d="M210.106,130.585c0.766,5.132,10.059,8.71,17.92,8.71c2.104,0,4.041-0.248,5.591-0.716
			c5.333-1.612,24.719-6.872,50.314-6.872c13.718,0,26.98,1.538,39.432,4.571c5.846,1.425,11.831,3.185,17.793,5.231l8.714,2.986
			l-6.044,6.952c-3.38,3.887-6.354,8.287-6.387,8.33l-0.234,0.351l-0.282,0.317c-0.82,0.923-17.917,20-30.441,31.382
			c4.89,0.391,9.617,1.109,14.132,2.167l18.785,4.397l14.56-10.979l-9.896,12.071l4.966,1.162l-7.021,1.345l-20.958,25.567
			c-11.737,14.324-27.265,19.979-41.854,24.109l-50.664,37.147c-0.671,0.562-2.981,3.358-5.021,5.827
			c-6.717,8.127-17.96,21.729-34.003,34.98c-15.392,12.715-41.175,18.271-63.922,23.181c-11.866,2.56-23.072,4.976-28.956,7.836
			c-12.991,6.313-15.345,9.483-15.438,9.617c-3.624,4.585-1.068,11.521-1.068,11.521c-11.68-2.008-10.61-15.113-10.61-15.113
			l0.04-0.238c2.063-11.417,7.9-17.903,17.283-25.241c5.283-4.133,10.655-7.127,15.854-10.021
			c10.363-5.775,19.315-10.771,26.9-23.704c2.394-4.076,4.628-7.613,6.617-10.604c-1.291,0.052-2.646,0.08-4.065,0.08
			c-8.659,0-17.314-1.064-25.728-3.167c-25.638-6.41-39.464-27.039-40.04-27.915l-9.53-14.479l16.561,5.142
			c0.062,0.021,7.979,2.396,18.749,2.396c7.452,0,14.477-1.117,20.875-3.322c10.178-3.505,18.833-14.592,27.994-26.326
			c3.412-4.371,6.871-8.806,10.527-13.021l-19.215,12.48l30.39-34.271c0.504-0.563,12.545-13.993,34.173-25.443
			c5.403-2.858,10.982-5.317,16.32-7.397c-1.442-0.697-2.813-1.48-4.106-2.354c-13.104-8.813-13.25-22.138-11.354-28.494
			c0,0,2.812-9.562,13.396-11.393C211.139,119.367,209.263,123.885,210.106,130.585z M272.606,253.482
			c-10.167,2.741-19.771,5.331-25.896,10.333c-2.316,1.896-4.486,3.854-6.506,5.812l35.903-17.101
			C274.933,252.855,273.763,253.17,272.606,253.482z M278.563,227.057c1.188,0.054,2.354,0.124,3.504,0.21
			c1.02,0.076,2.059,0.11,3.09,0.11c15.619,0,27.233-8.617,27.35-8.708l19.604-14.777l-11.75,2.25
			c-10.021,1.919-25.36,9.797-35.374,16.305c-2.192,1.426-4.064,2.836-5.875,4.199C278.927,226.784,278.745,226.92,278.563,227.057z
			"/>
		<path fill="#021836" d="M395.418,123.828c0.224,23.75,26.855,60.666,33.992,68.455c14.559,15.885,22.128,32.667,22.517,49.881
			c0.468,21.104,5.139,38.371,5.186,38.542l5.216,19.039l-15.173-12.626c-11.188-9.31-19.763-23.729-24.885-32.353
			c-1.312-2.202-2.545-4.282-3.104-5.014c-2.604-3.408-9.962-9.021-20.505-13.852c-2.577-1.182-5.258-2.653-7.859-4.251
			c0.356,1.053,0.744,2.134,1.159,3.229c0.242,0.604,0.438,1.104,0.57,1.478l-11.564,4.513c0-0.002-0.223-0.549-0.568-1.473
			c-1.767-4.378-8.183-18.926-18.191-26.312l-3.479-2.562l0.809-2.801c-0.268-1.012-0.737-2.605-1.166-4.062
			c-1.938-6.591-4.868-16.55-5.714-25.116c-0.737-7.493-2.602-16.778-4.748-23.667l-3.997-12.815l12.354,5.261
			c9.583,4.08,17.729,8.297,23.979,11.832c-1.965-17.337,2.042-32.979,2.312-34.009c0,0,2.865-12.894,14.362-15.266
			C396.916,109.878,395.382,114.784,395.418,123.828z"/>
		<path fill="#FFFFFF" d="M336.886,477.886c-16.189-11.688-44.644-19.086-63.944-24.107c-7.604-1.978-14.173-3.687-16.744-4.838
			c-2.555-1.146-7.343-6.785-11.565-11.76c-10.18-11.986-22.848-26.905-40.017-29.589c-18.052-2.82-51.733-19.277-63.682-25.325
			c1.246-3.923,3.767-10.134,8.564-16.627c2.896-3.914,8.855-9.213,15.165-14.824c12.62-11.224,26.922-23.943,31.209-37.34
			c0.484-1.521,1.005-3.18,1.562-4.966c5.816-18.646,16.65-53.35,36.138-67.023c18.78-13.188,29.018-23.688,32.869-27.646
			c0.324-0.332,0.59-0.604,0.801-0.815c1.522-0.855,4.688-2.777,12.023-7.394c3.854-0.013,11.771-1.257,21.921-9.332
			c12.312-9.797,34.701-34.793,35.646-35.853l0.282-0.314l0.236-0.354c2.442-3.625,5.779-7.862,8.429-10.556
			c2.516,5.726,5.703,18.354,6.78,29.312c0.918,9.325,2.896,14.469,4.345,18.229c0.926,2.4,1.332,3.521,1.282,4.734l-0.223,5.233
			l5.124,1.096c0.271,0.062,27.786,6.119,50.44,22.765c21.951,16.132,31.47,52.896,31.562,53.271l0.46,1.812l1.388,1.267
			c0.21,0.188,21.213,19.277,42.164,41.438c12.585,13.31,18.832,24.159,23.396,32.093c3.214,5.582,5.529,9.609,8.841,12.095
			c3.522,2.646,8.402,10.694,10.338,17.661c-2.994,1.612-5.759,2.256-8.456,2.885c-4.957,1.155-11.125,2.591-14.056,10.405
			c-1.525,2.979-14.354,7.51-19.83,9.438c-7.67,2.706-11.781,4.229-14.148,6.604c-0.849,0.848-1.452,1.613-1.936,2.228
			c-1.193,1.52-2.684,3.396-27.021,6.213C417.374,431.344,353.159,468.299,336.886,477.886z"/>
		<g opacity="0.14">
			<path d="M157.168,369.204c0,0,8.485-6.564,27.646-15.056c19.162-8.486,33.122-16.15,48.726-41.061
				c15.604-24.915,28.194-34.77,34.77-37.229c0,0-11.771,10.402-13.688,23.815s-15.056,31.479-15.056,31.479l-52.562,29.837
				L157.168,369.204z"/>
			<path d="M255.987,414.924c0,0,12.044-22.179,15.604-35.859c3.562-13.688,8.396-41.062,17.521-51.463
				c9.125-10.402,27.557-16.789,27.557-16.789s-12.956,7.848-16.235,16.604c-3.285,8.766-26.827,69.353-37.959,81.396
				C251.335,420.851,255.987,414.924,255.987,414.924z"/>
			<path d="M370.321,283.069c0,0-25.55,56.754,9.488,70.806c35.039,14.059,55.295,22.994,55.295,22.994h3.285
				c0,0-14.966-17.147-22.446-22.44c-7.482-5.291-33.029-14.233-41.427-30.479C366.123,307.705,370.321,283.069,370.321,283.069z"/>
			<path d="M412.11,376.868c0,0,17.154,9.679,19.896,16.79c2.732,7.117,4.562,18.248,16.236,18.614
				c11.685,0.365,14.964,1.46,14.964,1.46l2.562,3.104l-22.447,2.731l-17.703-4.19l-4.742-21.898L412.11,376.868z"/>
			<path d="M434.557,339.276c0,0,13.505,17.154,22.628,38.872c9.125,21.715,20.256,13.32,26.826,17.521
				c6.563,4.19,8.396,11.857,4.016,14.229c-4.379,2.372-13.139,1.277-13.139,1.277l-20.988-18.79l-7.847-22.083l-7.664-16.978
				L434.557,339.276z"/>
			<path d="M499.888,368.109c0,0,13.687-0.547,14.781,8.76c1.094,9.312-1.458,8.578-1.458,8.578l-8.766-3.833l-3.285-8.577
				L499.888,368.109z"/>
			<path d="M392.765,267.375c0,0,1.097,2.373,2.008,6.938c0.913,4.562,1.461,10.397,7.117,11.497
				c5.651,1.095,10.766-1.1,16.604,2.919c5.846,4.016,1.461-2.56,1.461-2.56l-16.06-10.312l-2.373-4.835
				C401.525,271.025,397.51,268.47,392.765,267.375z"/>
			<path d="M349.699,155.143c0,0-14.602,7.3-13.688,31.39c0.906,24.089,8.023,22.08,8.213,38.688
				c0.183,16.604-13.688,38.688-13.688,38.688s8.027-23.359,3.104-42.703c-4.933-19.345-10.402-26.097-10.402-26.097l2.374-12.773
				l9.123-20.069l13.688-9.854L349.699,155.143z"/>
		</g>
		<path fill="#021836" d="M336.39,485.402c0,0,79.028-47.588,110.562-51.237c31.533-3.646,28.613-6.198,32.634-10.22
			c4.014-4.015,32.111-9.489,35.396-18.249c3.285-8.76,12.153-3.926,23.6-12.547c-0.98-8.6-7.612-21.128-13.514-25.551
			c-5.896-4.422-10.075-20.883-31.448-43.484c-21.375-22.603-42.504-41.767-42.504-41.767s-9.82-39.062-33.901-56.751
			c-24.071-17.688-52.815-23.831-52.815-23.831c0.246-5.896-4.177-8.849-5.649-23.831c-1.477-14.987-7.617-39.56-13.021-36.605
			c-5.404,2.948-13.519,14.985-13.519,14.985s-22.848,25.552-34.884,35.132c-12.04,9.582-19.657,7.862-19.657,7.862
			s-13.268,8.354-14.002,8.6c-0.733,0.245-10.562,12.284-33.654,28.5c-23.099,16.214-34.15,56.751-40.05,75.182
			c-5.896,18.427-36.357,38.074-45.447,50.359c-9.095,12.284-10.812,23.584-10.812,23.584s46.594,24.543,69.953,28.193
			c23.358,3.65,39.418,36.134,50.004,40.878C264.243,459.349,316.559,468.023,336.39,485.402z M328.834,448.924
			c-19.716-6.271-32.245-16.585-32.245-16.585c0.926-17.319,30.956-55.646,30.956-55.646s-7.188,27.271-7.557,35.011
			c-0.367,7.738,0.555,11.606,4.978,20.641C329.386,441.364,328.834,448.924,328.834,448.924z M402.474,361.325
			c-13.542-4.788-31.012-5.167-40.034-27.646c0,0,2.054,16.799,8.688,22.512c6.639,5.712,8.936,5.021,12.807,13.678
			c0,0-16.771-7.554-25.803-7.554c-9.021,0-18.983,0.921-18.983,0.921s3.145-13.635,7.013-19.715
			c3.868-6.082,4.606-32.431,14.926-42.012c0,0-13.269-1.106-20.271,4.79c-7.001,5.896-17.871,16.952-23.954,17.505
			c0,0,16.77-0.367,28.562-7c0,0-12.159,30.771-35.379,55.646c-23.214,24.875-46.98,29.854-56.562,40.354
			c0,0-5.712-14.188-4.604-20.821c1.104-6.634,24.32-39.979,30.401-57.305s7.739-32.304,15.105-47.568
			c7.37-15.264,26.9-40.323,26.722-51.011c0,0-3.501,5.896-8.291,9.767c-4.791,3.869-21.007,23.031-29.854,34.271
			c-8.846,11.235-44.592,46.987-64.491,59.331c-19.896,12.346-52.695,21.006-63.197,29.479c0,0,5.896-9.212,15.479-17.506
			c9.581-8.291,13.722-13.958,18.471-19.969c2.604-3.296,22.438-15.039,31.647-24.804c9.213-9.771,16.032-23.591,28.562-33.905
			c12.528-10.317,14.559-18.431,21.188-24.143s30.467-5.771,45.636-24.998c0,0-13.391,8.783-28.128,7.683
			c0,0,2.024-3.138,4.978-5.159c2.946-2.026,8.844-4.979,12.715-9.028c3.866-4.055,15.847-8.66,15.847-8.66
			s10.318,3.688,10.688,12.35c0,0,2.211-5.348,1.104-14.93c-1.104-9.581-6.634-12.345-4.79-25.427
			c1.842-13.083,14.371-23.218,19.161-25.429c0,0-5.342,8.476,0,17.688c5.346,9.214-3.688,29.3,0,35.378
			c3.688,6.081,16.216,11.06,17.319,21.188c0,0,5.713-11.424,0-22.848c0,0,5.713,4.422,9.396,9.945
			c3.646,5.479,8.238,10.654,12.188,22.151c-0.449-2.12-2.011-6.606-0.697-12.265c0,0,1.354,1.119,7.617,5.354
			c6.266,4.239,21.919,11.021,28.088,21.789c0,0-7.319-2.555-10.27-2.187c0,0,27.011,31.852,35.854,36.644
			c8.848,4.79,13.45,16.217,17.688,20.82c4.232,4.604,21.559,21.188,23.771,25.979c0,0-3.972-1.821-14.714-5.784
			c-8.578-3.163-17.921-3.854-25.178-11.557c0,0,2.233,6.226,22.203,13.281c16.312,5.772,28.559,25.245,32.429,29.114
			c3.869,3.868-0.737-0.676,3.869,3.868c4.604,4.547,12.635,12.234-1.369,17.025c0,0,1.091,0.771,0.627-4.057
			c-0.344-3.604-1.479-5.588-2.121-6.416c-1.335-1.729-2.864-2.42-9.171-3.293c-8.212-1.135-12.854-5.829-16.796-6.927
			c-3.593-0.999-7.427-2.271-9.679-0.763c0,0,2.577-0.188,4.789,0.924c2.212,1.104,11.233,7,12.896,10.134
			c1.66,3.134,1.844,8.66,4.423,11.605c2.579,2.947,9.396,9.396,10.318,11.605c0,0-2.027,2.766-1.845,5.16
			c0.186,2.396-8.85,10.503-14.739,10.503c-5.896,0-16.399-4.055-21.927-14.561c0,0-13.191-15.115-18.435-36.401
			c-6.262-25.458-41.888-41.335-41.888-41.335s25.115,18.146,28.979,33.837c4.168,16.926,2.058,19.997,5.063,25.475
			C436.516,376.135,422.694,368.478,402.474,361.325z M410.348,375.929c0,0,27.218,8.021,34.296,20.438
			c7.079,12.41,16.934,16.062,16.934,16.062s-22.507,8.171-30.537-1.319C423.01,401.616,427.01,385.422,410.348,375.929z"/>
		<path fill="#021836" d="M384.687,246.396c0,0,2.248,13.067,12.37,19.396s8.434,8.438,8.434,8.438s-4.217-4.076-7.167-5.343
			c0,0,2.107,3.095,3.514,9.274c1.405,6.188,6.747,6.888,14.898,9.562c8.15,2.669,27.688,19.913,30.222,26.823
			c0,0-1.824-11.931-17.854-25.699c-16.021-13.775-30.225-36.826-31.203-40.345c0,0,2.11,9.417,4.499,13.493
			C402.399,261.997,386.375,252.44,384.687,246.396z"/>
		<path fill="#F23C07" d="M412.66,282.098c0,0-1.125-1.617-1.616-4.222c-0.494-2.601-1.761-4.427-3.938-6.531
			c-2.177-2.109-8.151-9.141-21.438-11.104c-13.278-1.967-24.598,3.444-33.237,4.218c-8.646,0.772-16.729-1.266-16.729-1.266
			s6.253,5.974,20.872,4.428c14.614-1.547,15.39-2.812,24.526-2.53c9.136,0.281,13.354,3.271,14.056,3.938
			c0,0-4.92-6.188-15.812-6.188c0,0,7.443-0.422,14.336,1.827c6.889,2.249,11.028,6.606,12.02,9.839
			c0.983,3.232,1.053,3.866,2.389,5.201S410.481,280.341,412.66,282.098z"/>
		<path fill="#F23C07" d="M319.192,200.045c-11.549,2.211-27.763,10.812-37.59,17.197c-9.828,6.388-12.773,11.793-30.956,15.479
			c-18.187,3.686-24.567,8.104-24.567,8.104c12.775-5.159,35.868-8.846,55.522-7.37c19.648,1.479,34.642-9.827,34.642-9.827
			c-20.793,25.366-56.016,21.133-73.458,35.377c-17.443,14.25-26.779,31.693-26.779,31.693c3.688-4.423,8.849-6.88,8.849-6.88
			c-3.688,2.703-16.706,22.357-39.312,41.029c-22.603,18.672-73.95,21.619-91.639,30.218c-17.688,8.604-18.265,12.521-18.265,12.521
			c1.643-9.154,6.117-14.56,15.009-21.511c15.021-11.749,31.754-14.104,44.284-35.479c8.334-14.224,14.735-21.621,14.735-21.621
			s-18.18,4.667-41.766-1.229c-23.585-5.896-36.36-25.306-36.36-25.306s21.375,6.634,43.485-0.981
			c22.112-7.612,35.133-42.011,58.473-56.752c23.339-14.737,43.979-20.637,43.979-20.637c-26.042-1.229-50.119,14.494-50.119,14.494
			s11.548-13.021,32.431-24.075c20.227-10.706,43.438-15.652,44.892-15.955c-1.265,0.258-19.775,3.865-32.112-4.438
			c-12.774-8.604-8.604-22.604-8.604-22.604c1.726,11.547,20.888,16.215,31.447,13.021c10.563-3.194,47.171-11.792,86.479-2.211
			c6.009,1.464,11.776,3.189,17.249,5.067c-3.688,4.242-6.853,8.937-6.853,8.937s-22.849,25.551-34.887,35.132
			c-5.432,4.324-9.961,6.343-13.297,7.26C284.111,198.706,300.826,195.746,319.192,200.045z"/>
		<path fill="#F23C07" d="M445.719,242.302c-0.491-22.111-14.249-38.591-20.889-45.827c-6.631-7.24-35.375-46.062-35.621-72.596
			c0,0-8.104,31.446,1.229,48.895c0,0-14.416-10.296-36.609-19.746c2.381,7.631,4.271,17.452,5,24.906
			c1.215,12.342,7.411,28.922,7.06,30.152c12.333,9.096,19.441,26.735,20.837,30.443c0,0-3.668-9.034-4.495-15.33
			c-0.479-3.659-1.729-6.604-2.534-7.938c1.666,2.273,12.062,10.646,21.56,14.998c11.792,5.4,19.654,11.547,22.854,15.723
			c3.19,4.178,13.332,24.969,27.021,36.36C451.119,282.347,446.205,264.413,445.719,242.302z"/>
		<g opacity="0.21">
			<path d="M75.548,367.737c0,0,6.938-16.788,47.812-30.293c40.878-13.505,78.473-44.527,78.473-44.527
				s-27.734,28.473-56.208,40.518c-28.47,12.044-39.418,17.519-41.604,20.438C101.827,356.787,75.548,367.737,75.548,367.737z"/>
			<path d="M71.534,262.257c0,0,24.817,31.394,69.347,20.438c44.528-10.948,90.879-40.147,112.054-43.798
				c0,0-20.25,7.312-34.312,18.249c-16.425,12.771-49.64,29.193-72.997,32.85C122.266,293.646,87.593,292.551,71.534,262.257z"/>
			<path d="M167.889,198.021c0,0,14.6-8.396,34.674-13.145c20.074-4.739,41.604-1.82,54.747-5.476c0,0-13.505,6.205-34.312,7.301
				c-20.805,1.095-45.983,14.233-53.647,20.438S167.889,198.021,167.889,198.021z"/>
			<path d="M205.847,147.289c0,0,4.016,9.489,22.265,8.76c18.249-0.729,27.191-8.938,57.303-7.665c0,0-23.104,1.979-43.615,10.401
				C221.359,167.18,205.847,147.289,205.847,147.289z"/>
			<path d="M380.582,217.456c0,0-3.832-23.812-13.141-39.688c0,0,10.129,11.497,16.146,29.837
				c6.021,18.34,3.017,16.146,3.017,16.146L380.582,217.456z"/>
			<path d="M420.821,228.132c0,0,9.033,13.96,9.581,26.279c0.547,12.317,18.066,26.825,18.066,26.825s-7.396-21.352-12.045-46.534
				l-18.613-24.363h-2.738c0,0,16.978,15.061,18.895,34.77C433.965,245.104,428.486,233.88,420.821,228.132z"/>
		</g>
		<path fill="#021836" d="M353.691,153.028c22.194,9.45,36.61,19.746,36.61,19.746c-9.34-17.443-1.229-48.895-1.229-48.895
			c0.245,26.533,28.989,65.354,35.621,72.596c6.634,7.235,20.396,23.716,20.883,45.827c0.49,22.106,5.404,40.045,5.404,40.045
			s-10.764-9.166-21.488-27.584l3.37,13.335l14.149,19.021l15.173,12.626l-5.216-19.039c-0.047-0.172-4.718-17.438-5.188-38.542
			c-0.383-17.214-7.957-33.996-22.51-49.881c-7.137-7.79-33.773-44.705-33.993-68.455c-0.035-9.044,1.497-13.95,1.497-13.95
			c-11.497,2.372-14.366,15.266-14.366,15.266c-0.266,1.025-4.271,16.671-2.308,34.009c-6.252-3.535-14.398-7.751-23.981-11.832
			l-6.45-2.746l0.062-0.068l-1.134-0.39l-4.831-2.057l0.139,0.441l-2.887-0.986c-5.962-2.052-11.948-3.812-17.793-5.231
			c-12.446-3.033-25.714-4.571-39.438-4.571c-25.595,0-44.979,5.265-50.312,6.872c-1.549,0.47-3.481,0.716-5.59,0.716
			c-7.863,0-17.156-3.573-17.925-8.71c-0.844-6.696,1.032-11.218,1.032-11.218c-10.583,1.824-13.393,11.396-13.393,11.396
			c-1.896,6.354-1.747,19.675,11.354,28.489c1.294,0.872,2.665,1.654,4.109,2.354c-5.336,2.08-10.914,4.54-16.323,7.401
			c-21.628,11.446-33.668,24.879-34.17,25.44l-30.39,34.271l19.209-12.478c-3.659,4.215-7.12,8.646-10.531,13.021
			c-9.163,11.733-17.817,22.822-27.995,26.33c-6.396,2.205-13.424,3.317-20.877,3.317c-10.77,0-18.683-2.378-18.749-2.396
			l-16.556-5.14l9.525,14.479c0.577,0.875,14.402,21.506,40.041,27.915c8.408,2.103,17.062,3.167,25.729,3.167
			c1.42,0,2.776-0.028,4.063-0.08c-1.986,2.987-4.229,6.524-6.613,10.604c-7.586,12.938-16.539,17.929-26.903,23.707
			c-5.195,2.896-10.567,5.89-15.853,10.021c-9.385,7.338-15.222,13.824-17.281,25.241l-0.041,0.24c0,0-1.067,13.104,10.606,15.113
			c0,0-2.556-6.938,1.067-11.521c0.094-0.133,2.446-3.302,15.438-9.617c5.885-2.854,17.093-5.271,28.953-7.836
			c22.748-4.905,48.53-10.466,63.924-23.18c16.045-13.254,27.284-26.854,34.006-34.981l-6.146-2.312
			c-6.674,8.049-17.256,20.479-31.812,32.508c-22.604,18.672-73.948,21.619-91.642,30.218
			c-17.084,8.311-18.204,12.241-18.261,12.501c-0.001,0.006-0.002,0.011-0.003,0.021c0,0,0.001-0.011,0.003-0.021
			c1.646-9.145,6.124-14.542,15.005-21.489c15.021-11.744,31.755-14.104,44.285-35.479c8.334-14.224,14.739-21.621,14.739-21.621
			s-18.184,4.667-41.769-1.229C84.176,281.857,71.4,262.447,71.4,262.447s21.375,6.634,43.486-0.981
			c22.107-7.612,35.132-42.011,58.472-56.752c23.34-14.737,43.977-20.637,43.977-20.637c-26.041-1.229-50.118,14.494-50.118,14.494
			s11.552-13.021,32.435-24.075c20.222-10.706,43.437-15.647,44.887-15.955c-1.26,0.258-19.771,3.865-32.109-4.438
			c-12.772-8.604-8.601-22.604-8.601-22.604c1.72,11.547,20.883,16.215,31.445,13.021c10.562-3.194,47.171-11.792,86.479-2.211
			c6.014,1.464,11.782,3.189,17.25,5.067"/>
		<g>
			<path fill="#FFFFFF" d="M100.29,345.733c0,0,14.495-10.318,45.452-22.848c30.954-12.53,33.411-17.198,33.411-17.198
				s-22.604,10.072-35.133,12.039c0,0,33.412-10.074,45.45-19.9c12.034-9.828,27.021-18.427,27.021-18.427
				s-11.057,9.09-14.987,13.268c-3.93,4.182-17.935,17.196-37.835,26.777C143.776,329.027,125.596,331.484,100.29,345.733z"/>
			<path fill="#FFFFFF" d="M279.636,236.467c0,0-24.142-2.022-43.673,3.87c-19.527,5.896-38.511,18.241-53.983,23.399
				c0,0,28.93-8.106,44.224-15.846c0,0-2.765,2.58-4.604,4.791c0,0,7.922-7.739,21.005-11.609
				C255.683,237.204,279.636,236.467,279.636,236.467z"/>
			<path fill="#FFFFFF" d="M121.542,262.448c0,0,24.689-7.002,46.438-16.951c21.744-9.95,23.217-15.663,37.59-23.954
				c0,0-13.636,1.848-25.796,6.817c0,0,19.348-12.897,40.721-17.688c21.374-4.791,30.219-3.312,30.219-3.312
				s-21.188-5.343-49.75,5.16c-28.562,10.503-37.771,22.479-37.771,22.479s13.269-14.926,33.167-24.508
				c19.896-9.582,41.271-10.502,54.726-9.213c13.451,1.29,33.354,1.659,40.169,2.022c0,0-4.976,0.926-14.188,4.979
				c-9.213,4.055-24.322,7.924-24.322,7.924s15.479-2.396,20.821-2.58c0,0-12.161,4.979-26.722,5.159
				c-14.559,0.185-28.188,4.976-36.668,8.107c-8.478,3.133-19.896,12.896-34.271,19.896
				C161.526,253.788,141.811,258.578,121.542,262.448z"/>
			<path fill="#FFFFFF" d="M214.961,172.897c0,0,19.722-11.607,48.646-13.083c28.93-1.479,39.98,3.87,43.67,2.765
				c0,0-2.212,6.633-23.032,7.002c-20.822,0.369-24.323-2.396-36.301-0.369c0,0,21.007-4.055,29.298-4.791
				c0,0-12.529-1.104-29.298,0.736C231.176,167.001,214.961,172.897,214.961,172.897z"/>
			<g>
				<path fill="#FFFFFF" d="M327.175,153.366c-4.421-0.554-15.656-0.186-15.656-0.186c7.356,0.465,13.997,1.97,19.968,4.213
					c0.625-0.691,0.975-1.081,0.975-1.081s0.812-1.208,2.101-2.951c-35.404-11.146-63.022-4.972-63.022-4.972
					C295.852,143.785,331.597,153.919,327.175,153.366z"/>
				<path fill="#FFFFFF" d="M356.827,164.191c0.862,4.142,1.546,8.312,1.979,12.022c15.392,16.77,20.888,36.479,20.888,36.479
					S380.083,182.281,356.827,164.191z"/>
			</g>
			<path fill="#FFFFFF" d="M438.1,248.996c0,0,0-21.373-8.293-36.852c-8.291-15.479-26.533-20.453-31.324-44.959
				c0,0,2.767,16.214,9.769,25.979c7.001,9.771,14.188,18.062,15.852,22.295c0,0-5.6-8.588-21.743-18.979
				c-21.188-13.635-24.14-24.321-24.14-24.321s4.422,12.528,19.896,24.321C413.594,208.275,432.204,220.99,438.1,248.996z"/>
		</g>
	</g>
</g>
<g>
	<path fill="#BDC2BC" d="M534.992,588.913c-0.739,0-1.34-0.602-1.34-1.341v-16.588c0-0.739,0.601-1.339,1.34-1.339h52.497
		c0.738,0,1.339,0.6,1.339,1.339v16.588c0,0.739-0.601,1.341-1.339,1.341H534.992z"/>
	<g>
		<path d="M558.027,571.51c-2.725,0-4.935,2.21-4.935,4.934c0,2.729,2.21,4.938,4.935,4.938c2.728,0,4.938-2.21,4.938-4.938
			C562.964,573.719,560.755,571.51,558.027,571.51z"/>
		<path fill="#FFFFFF" d="M558.027,580.461c-2.219,0-4.015-1.798-4.015-4.019c0-2.217,1.797-4.014,4.015-4.014
			c2.219,0,4.019,1.798,4.019,4.014C562.046,578.664,560.246,580.461,558.027,580.461z"/>
		<g>
			<path d="M559.402,575.293c0-0.219-0.182-0.398-0.398-0.398h-1.952c-0.221,0-0.401,0.181-0.401,0.398v1.985h0.528v2.338h1.694
				v-2.338h0.527L559.402,575.293L559.402,575.293z"/>
			<path d="M558.695,573.942c0,0.37-0.3,0.668-0.667,0.668c-0.371,0-0.67-0.299-0.67-0.668s0.301-0.67,0.67-0.67
				C558.395,573.272,558.695,573.571,558.695,573.942z"/>
		</g>
	</g>
	<path d="M587.175,569.198h-51.868c-1.157,0-2.102,0.943-2.102,2.102v15.96c0,1.158,0.943,2.1,2.102,2.1h51.868
		c1.158,0,2.102-0.94,2.102-2.1V571.3C589.275,570.141,588.332,569.198,587.175,569.198z M588.644,583.375h-37.865
		c-1.477,2.809-4.417,4.725-7.81,4.725s-6.333-1.916-7.809-4.725h-1.326V571.3c0-0.812,0.658-1.471,1.47-1.471h51.869
		c0.811,0,1.471,0.658,1.471,1.471V583.375L588.644,583.375z"/>
	<g>
		<path fill="#FFFFFF" d="M557.773,584.933c0.1,0.14,0.15,0.302,0.15,0.495c0,0.198-0.052,0.357-0.151,0.479
			c-0.057,0.066-0.14,0.131-0.25,0.187c0.168,0.061,0.294,0.155,0.378,0.289c0.085,0.13,0.127,0.289,0.127,0.477
			c0,0.192-0.049,0.365-0.145,0.519c-0.062,0.104-0.14,0.188-0.23,0.256c-0.104,0.078-0.225,0.137-0.369,0.164
			c-0.141,0.028-0.294,0.043-0.459,0.043h-1.466v-3.256h1.573C557.326,584.594,557.607,584.706,557.773,584.933z M556.009,585.151
			v0.717h0.79c0.143,0,0.257-0.026,0.345-0.08s0.133-0.147,0.133-0.286c0-0.15-0.059-0.248-0.176-0.301
			c-0.1-0.033-0.228-0.05-0.383-0.05H556.009L556.009,585.151z M556.009,586.407v0.869h0.789c0.143,0,0.25-0.02,0.328-0.058
			c0.145-0.071,0.217-0.206,0.217-0.407c0-0.17-0.07-0.285-0.208-0.35c-0.077-0.034-0.188-0.056-0.327-0.056L556.009,586.407
			L556.009,586.407z"/>
		<path fill="#FFFFFF" d="M560.469,584.586h0.771l-1.089,2.034v1.222h-0.68v-1.222l-1.127-2.034h0.8l0.677,1.418L560.469,584.586z"
			/>
	</g>
	<g>
		<g>
			<path fill="#FFFFFF" d="M566.517,584.426h0.776l1.403,2.473v-2.473h0.692v3.545h-0.742l-1.443-2.517v2.517h-0.688
				L566.517,584.426L566.517,584.426z"/>
			<path fill="#FFFFFF" d="M570.425,584.797c0.285-0.292,0.647-0.437,1.09-0.437c0.591,0,1.02,0.195,1.295,0.587
				c0.148,0.221,0.229,0.439,0.242,0.661h-0.741c-0.048-0.17-0.106-0.299-0.183-0.384c-0.132-0.153-0.328-0.229-0.586-0.229
				c-0.265,0-0.473,0.107-0.623,0.324c-0.152,0.219-0.229,0.525-0.229,0.923c0,0.399,0.08,0.696,0.241,0.895
				c0.161,0.197,0.365,0.299,0.614,0.299c0.252,0,0.447-0.086,0.581-0.256c0.072-0.09,0.136-0.229,0.183-0.41h0.736
				c-0.066,0.387-0.226,0.699-0.486,0.943c-0.262,0.241-0.594,0.36-1.002,0.36c-0.505,0-0.901-0.163-1.19-0.489
				c-0.288-0.328-0.434-0.777-0.434-1.353C569.93,585.607,570.095,585.133,570.425,584.797z"/>
		</g>
	</g>
	<g>
		<path fill="#FFFFFF" d="M578.517,586.944c0.022,0.173,0.073,0.303,0.145,0.389c0.132,0.154,0.354,0.233,0.673,0.233
			c0.19,0,0.347-0.021,0.465-0.062c0.225-0.078,0.338-0.226,0.338-0.438c0-0.125-0.055-0.223-0.166-0.291
			c-0.113-0.066-0.285-0.126-0.525-0.178l-0.411-0.088c-0.401-0.093-0.679-0.188-0.829-0.294c-0.254-0.173-0.383-0.448-0.383-0.819
			c0-0.339,0.126-0.619,0.376-0.846c0.249-0.224,0.617-0.336,1.102-0.336c0.401,0,0.748,0.104,1.033,0.315
			c0.284,0.213,0.436,0.521,0.45,0.922h-0.762c-0.014-0.227-0.117-0.387-0.306-0.484c-0.126-0.065-0.282-0.096-0.473-0.096
			c-0.209,0-0.375,0.041-0.499,0.122c-0.126,0.083-0.188,0.196-0.188,0.346c0,0.135,0.062,0.236,0.186,0.303
			c0.079,0.043,0.246,0.096,0.502,0.155l0.665,0.156c0.292,0.068,0.513,0.162,0.655,0.276c0.227,0.179,0.339,0.435,0.339,0.771
			c0,0.351-0.134,0.637-0.4,0.863c-0.269,0.229-0.646,0.344-1.134,0.344c-0.5,0-0.891-0.112-1.176-0.339
			c-0.287-0.224-0.432-0.536-0.432-0.929L578.517,586.944L578.517,586.944z"/>
		<path fill="#FFFFFF" d="M582.542,584.325h0.896l1.34,3.791h-0.858l-0.249-0.778h-1.396l-0.255,0.778h-0.828L582.542,584.325z
			 M582.486,586.681h0.972l-0.479-1.49L582.486,586.681z"/>
	</g>
	<g>
		<circle cx="542.95" cy="579.28" r="7.771"/>
		<circle fill="#FFFFFF" cx="542.95" cy="579.278" r="6.322"/>
		<g>
			<path d="M542.597,578.348l-1.188,0.215c-0.041-0.237-0.131-0.416-0.273-0.537c-0.143-0.119-0.325-0.178-0.55-0.178
				c-0.302,0-0.537,0.104-0.72,0.31c-0.18,0.204-0.268,0.555-0.268,1.038c0,0.539,0.09,0.921,0.271,1.146
				c0.183,0.223,0.426,0.332,0.73,0.332c0.229,0,0.417-0.064,0.562-0.195c0.146-0.131,0.249-0.354,0.311-0.67l1.182,0.199
				c-0.123,0.545-0.354,0.954-0.707,1.229c-0.348,0.276-0.813,0.416-1.399,0.416c-0.668,0-1.197-0.21-1.594-0.629
				c-0.396-0.42-0.592-1.004-0.592-1.746c0-0.75,0.198-1.337,0.594-1.754c0.397-0.42,0.936-0.627,1.613-0.627
				c0.555,0,0.995,0.118,1.322,0.355C542.219,577.497,542.453,577.86,542.597,578.348z"/>
			<path d="M547.477,578.348l-1.188,0.215c-0.039-0.237-0.131-0.416-0.272-0.537c-0.144-0.119-0.325-0.178-0.551-0.178
				c-0.301,0-0.539,0.104-0.72,0.31c-0.178,0.204-0.268,0.555-0.268,1.038c0,0.539,0.09,0.921,0.271,1.146
				c0.182,0.223,0.426,0.332,0.729,0.332c0.229,0,0.417-0.064,0.562-0.195c0.146-0.131,0.25-0.354,0.311-0.67l1.183,0.199
				c-0.123,0.545-0.356,0.954-0.708,1.229c-0.349,0.276-0.814,0.416-1.4,0.416c-0.668,0-1.197-0.21-1.593-0.629
				c-0.396-0.42-0.592-1.004-0.592-1.746c0-0.75,0.196-1.337,0.595-1.754c0.396-0.42,0.934-0.627,1.612-0.627
				c0.554,0,0.994,0.118,1.322,0.355C547.1,577.497,547.337,577.86,547.477,578.348z"/>
		</g>
	</g>
	<g>
		<path d="M569.93,571.719c-2.61,0-4.727,2.115-4.727,4.726c0,2.612,2.115,4.729,4.727,4.729s4.728-2.113,4.728-4.729
			C574.658,573.834,572.546,571.719,569.93,571.719z"/>
		<circle fill="#FFFFFF" cx="569.93" cy="576.447" r="3.846"/>
		
			<rect x="569.488" y="571.955" transform="matrix(0.4225 -0.9063 0.9063 0.4225 -193.3242 849.4399)" width="0.924" height="8.958"/>
		<g>
			<path d="M569.58,579.151v-0.637c-0.444-0.013-0.877-0.14-1.129-0.277l0.197-0.776c0.279,0.153,0.672,0.292,1.101,0.292
				c0.382,0,0.646-0.151,0.646-0.409c0-0.252-0.223-0.41-0.709-0.578c-0.711-0.238-1.196-0.568-1.196-1.215
				c0-0.59,0.411-1.047,1.122-1.181v-0.631h0.65v0.584c0.443,0.015,0.742,0.115,0.968,0.222l-0.199,0.748
				c-0.167-0.079-0.478-0.232-0.954-0.232c-0.434,0-0.571,0.193-0.571,0.381c0,0.212,0.231,0.356,0.798,0.564
				c0.796,0.276,1.107,0.643,1.107,1.246c0,0.591-0.411,1.09-1.182,1.221v0.684L569.58,579.151L569.58,579.151z"/>
		</g>
	</g>
	<g>
		<path d="M581.185,571.784c-2.571,0-4.66,2.086-4.66,4.658c0,2.576,2.089,4.665,4.66,4.665c2.576,0,4.665-2.089,4.665-4.665
			C585.852,573.87,583.761,571.784,581.185,571.784z"/>
		<path fill="#FFFFFF" d="M581.185,580.238c-2.092,0-3.789-1.698-3.789-3.794c0-2.091,1.695-3.79,3.789-3.79
			c2.096,0,3.793,1.696,3.793,3.79C584.979,578.538,583.281,580.238,581.185,580.238z"/>
		<path d="M581.185,573.885c-1.016,0-1.874,0.733-2.182,1.746h-0.294l0.933,1.016l0.93-1.016h-0.348
			c0.215-0.37,0.563-0.616,0.96-0.616c0.65,0,1.179,0.646,1.179,1.443c0,0.793-0.526,1.44-1.179,1.44
			c-0.432,0-0.81-0.289-1.016-0.72h-1.196c0.278,1.068,1.167,1.854,2.214,1.854c1.273,0,2.311-1.155,2.311-2.576
			C583.496,575.034,582.464,573.885,581.185,573.885z"/>
	</g>
</g>
<g>
	<path d="M11.392,586.197c-0.652,0-1.248-0.138-1.786-0.41c-0.539-0.271-1.002-0.631-1.39-1.07c-0.388-0.441-0.688-0.949-0.9-1.521
		C7.106,582.619,7,582.032,7,581.432c0-0.626,0.114-1.226,0.338-1.797c0.226-0.574,0.533-1.08,0.927-1.521
		c0.393-0.44,0.857-0.792,1.396-1.053c0.538-0.26,1.119-0.39,1.746-0.39c0.653,0,1.248,0.138,1.786,0.417
		c0.538,0.275,0.999,0.641,1.382,1.09s0.682,0.959,0.893,1.528c0.213,0.567,0.318,1.144,0.318,1.726c0,0.636-0.113,1.24-0.338,1.812
		c-0.225,0.574-0.534,1.079-0.926,1.517c-0.394,0.437-0.856,0.785-1.391,1.045C12.598,586.066,12.018,586.197,11.392,586.197z
		 M7.675,581.432c0,0.539,0.091,1.057,0.271,1.555s0.437,0.939,0.768,1.324c0.33,0.383,0.724,0.69,1.178,0.92
		c0.455,0.229,0.955,0.344,1.502,0.344c0.563,0,1.072-0.117,1.527-0.355c0.454-0.239,0.846-0.555,1.17-0.946
		c0.327-0.392,0.578-0.834,0.755-1.328s0.265-0.997,0.265-1.51c0-0.538-0.092-1.057-0.277-1.555
		c-0.185-0.498-0.442-0.939-0.773-1.323s-0.723-0.691-1.179-0.919c-0.454-0.229-0.949-0.347-1.486-0.347
		c-0.565,0-1.076,0.119-1.536,0.357c-0.458,0.238-0.85,0.554-1.17,0.945c-0.322,0.394-0.571,0.836-0.748,1.33
		C7.762,580.422,7.675,580.923,7.675,581.432z"/>
	<path d="M23.14,578.299c-0.608-0.681-1.469-1.021-2.58-1.021c-0.918,0-1.587,0.175-2.006,0.523
		c-0.417,0.349-0.628,0.817-0.628,1.407c0,0.302,0.054,0.554,0.159,0.755c0.106,0.202,0.271,0.373,0.496,0.51
		c0.226,0.137,0.513,0.256,0.86,0.355c0.35,0.103,0.761,0.2,1.237,0.299c0.512,0.106,0.97,0.223,1.377,0.352
		c0.404,0.127,0.75,0.289,1.038,0.483c0.287,0.193,0.508,0.433,0.662,0.715c0.153,0.281,0.231,0.632,0.231,1.044
		c0,0.414-0.082,0.775-0.245,1.086c-0.163,0.31-0.392,0.565-0.688,0.773c-0.297,0.208-0.648,0.364-1.059,0.471
		c-0.411,0.104-0.867,0.157-1.37,0.157c-1.463,0-2.704-0.467-3.717-1.401l0.356-0.542c0.396,0.415,0.882,0.743,1.457,0.984
		c0.573,0.242,1.217,0.363,1.931,0.363c0.821,0,1.461-0.147,1.925-0.449c0.462-0.301,0.695-0.754,0.695-1.362
		c0-0.309-0.06-0.57-0.178-0.787s-0.303-0.404-0.551-0.562c-0.247-0.158-0.554-0.295-0.919-0.409
		c-0.364-0.115-0.796-0.225-1.29-0.33c-0.503-0.105-0.945-0.219-1.329-0.338c-0.384-0.117-0.708-0.269-0.972-0.449
		c-0.265-0.181-0.463-0.398-0.596-0.654s-0.199-0.578-0.199-0.967c0-0.423,0.082-0.797,0.246-1.124
		c0.163-0.326,0.391-0.603,0.682-0.826c0.291-0.226,0.64-0.395,1.044-0.511c0.406-0.114,0.854-0.17,1.351-0.17
		c0.607,0,1.15,0.09,1.627,0.27c0.477,0.183,0.909,0.459,1.296,0.828L23.14,578.299z"/>
	<path d="M25.734,586.131v-9.395h3.863c0.396,0,0.763,0.085,1.098,0.251c0.335,0.168,0.624,0.392,0.866,0.669
		s0.432,0.591,0.568,0.938c0.138,0.35,0.205,0.698,0.205,1.053c0,0.381-0.063,0.746-0.191,1.098
		c-0.128,0.354-0.31,0.666-0.542,0.939c-0.232,0.272-0.512,0.492-0.833,0.654c-0.323,0.164-0.683,0.245-1.078,0.245h-3.281v3.546
		L25.734,586.131L25.734,586.131z M26.408,581.963h3.241c0.309,0,0.586-0.064,0.833-0.191s0.456-0.3,0.629-0.516
		c0.171-0.218,0.303-0.463,0.396-0.741c0.092-0.276,0.139-0.565,0.139-0.866c0-0.309-0.056-0.602-0.165-0.879
		c-0.11-0.279-0.26-0.523-0.45-0.734c-0.189-0.213-0.41-0.381-0.661-0.504s-0.519-0.186-0.801-0.186h-3.162L26.408,581.963
		L26.408,581.963z"/>
	<path d="M33.963,586.131v-9.395h3.917c0.397,0,0.764,0.085,1.098,0.251c0.335,0.168,0.622,0.392,0.859,0.669
		c0.238,0.277,0.426,0.591,0.563,0.938c0.137,0.35,0.204,0.698,0.204,1.053c0,0.344-0.054,0.676-0.159,0.998
		c-0.105,0.324-0.254,0.611-0.45,0.867c-0.194,0.256-0.427,0.467-0.7,0.635c-0.273,0.169-0.572,0.277-0.899,0.331l2.341,3.651
		h-0.781l-2.274-3.547h-3.043v3.547L33.963,586.131L33.963,586.131z M34.636,581.963h3.295c0.299,0,0.571-0.064,0.819-0.197
		c0.247-0.132,0.458-0.307,0.636-0.522c0.176-0.216,0.311-0.462,0.402-0.741c0.093-0.277,0.141-0.562,0.141-0.853
		c0-0.3-0.056-0.589-0.166-0.866c-0.11-0.276-0.261-0.522-0.45-0.733c-0.189-0.212-0.409-0.382-0.661-0.511
		c-0.252-0.127-0.523-0.192-0.814-0.192h-3.201V581.963z"/>
	<path d="M48.899,585.521v0.608h-6.258v-9.395h6.139v0.61h-5.464v3.688h4.775v0.582h-4.775v3.903h5.583V585.521z"/>
	<path d="M50.421,576.736l3.281,5.199l3.308-5.199h0.742l-3.706,5.849v3.546h-0.674v-3.572l-3.69-5.821L50.421,576.736
		L50.421,576.736z"/>
	<path d="M59.126,586.131v-9.395h3.122c0.741,0,1.392,0.124,1.951,0.371c0.561,0.248,1.025,0.583,1.396,1.007
		c0.371,0.423,0.647,0.919,0.833,1.487c0.185,0.567,0.277,1.175,0.277,1.819c0,0.715-0.104,1.36-0.311,1.938
		s-0.505,1.07-0.894,1.481c-0.388,0.409-0.857,0.729-1.41,0.953c-0.552,0.224-1.167,0.337-1.845,0.337L59.126,586.131
		L59.126,586.131z M66.031,581.421c0-0.592-0.083-1.137-0.251-1.635c-0.167-0.498-0.412-0.93-0.733-1.291
		c-0.322-0.359-0.718-0.644-1.185-0.848c-0.466-0.202-1.005-0.303-1.614-0.303h-2.447v8.177h2.447c0.617,0,1.162-0.104,1.633-0.312
		c0.473-0.206,0.866-0.495,1.185-0.865c0.316-0.37,0.559-0.805,0.722-1.303S66.031,582.003,66.031,581.421z"/>
	<path d="M67.288,586.131l3.996-9.395h0.555l3.997,9.395h-0.728l-1.311-3.097h-4.484l-1.311,3.097H67.288z M71.562,577.557
		l-2.09,4.922h4.141L71.562,577.557z"/>
	<path d="M80.148,576.802h0.661l1.401,3.413l1.403-3.413h0.661l-1.654,3.956l1.971,4.577l3.6-8.601h0.742l-4.023,9.395h-0.62
		l-2.063-4.829l-2.077,4.829h-0.622l-4.008-9.395h0.728l3.612,8.601l1.945-4.577L80.148,576.802z"/>
	<path d="M91.05,578.008v8.123h-0.675v-9.394h0.518l6.588,8.27v-8.255h0.675v9.379h-0.622L91.05,578.008z"/>
	<path d="M100.297,586.131v-1.125h0.583v1.125H100.297z"/>
	<path d="M102.401,581.368c0-0.563,0.098-1.127,0.298-1.688c0.197-0.561,0.486-1.062,0.866-1.502c0.379-0.44,0.844-0.8,1.395-1.077
		c0.552-0.277,1.181-0.418,1.887-0.418c0.838,0,1.552,0.192,2.144,0.576c0.591,0.383,1.027,0.877,1.309,1.475l-0.556,0.318
		c-0.159-0.327-0.351-0.601-0.576-0.82c-0.224-0.221-0.466-0.399-0.727-0.537c-0.261-0.137-0.533-0.234-0.814-0.298
		c-0.281-0.062-0.562-0.092-0.833-0.092c-0.6,0-1.129,0.121-1.589,0.364c-0.458,0.241-0.847,0.558-1.164,0.944
		c-0.316,0.39-0.557,0.826-0.722,1.316c-0.164,0.489-0.245,0.981-0.245,1.475c0,0.558,0.097,1.086,0.291,1.59
		c0.195,0.502,0.459,0.945,0.795,1.328c0.334,0.383,0.731,0.691,1.19,0.919c0.458,0.229,0.951,0.346,1.48,0.346
		c0.282,0,0.571-0.036,0.866-0.106c0.296-0.069,0.583-0.18,0.86-0.329c0.277-0.15,0.536-0.343,0.774-0.576
		c0.238-0.232,0.437-0.51,0.594-0.827l0.569,0.278c-0.159,0.352-0.372,0.665-0.642,0.939c-0.271,0.271-0.57,0.502-0.906,0.688
		c-0.335,0.186-0.689,0.324-1.065,0.416c-0.375,0.092-0.742,0.139-1.104,0.139c-0.644,0-1.233-0.141-1.768-0.423
		c-0.532-0.281-0.994-0.649-1.382-1.104c-0.387-0.455-0.689-0.972-0.905-1.549C102.509,582.555,102.401,581.969,102.401,581.368z"/>
	<path d="M115.882,586.197c-0.652,0-1.247-0.138-1.785-0.41c-0.538-0.271-1.001-0.631-1.39-1.07
		c-0.388-0.441-0.688-0.949-0.898-1.521c-0.212-0.572-0.317-1.16-0.317-1.76c0-0.627,0.112-1.225,0.337-1.798
		c0.224-0.573,0.534-1.081,0.926-1.521c0.394-0.44,0.857-0.792,1.396-1.052c0.539-0.261,1.121-0.391,1.747-0.391
		c0.65,0,1.247,0.139,1.786,0.416c0.538,0.276,0.999,0.643,1.381,1.091c0.384,0.45,0.682,0.959,0.894,1.529
		c0.211,0.566,0.317,1.144,0.317,1.726c0,0.635-0.113,1.239-0.337,1.812c-0.226,0.572-0.534,1.077-0.928,1.514
		c-0.393,0.438-0.854,0.785-1.389,1.046C117.087,586.066,116.509,586.197,115.882,586.197z M112.164,581.432
		c0,0.539,0.09,1.057,0.271,1.555c0.181,0.498,0.436,0.939,0.767,1.324c0.331,0.383,0.724,0.69,1.178,0.92s0.954,0.344,1.501,0.344
		c0.564,0,1.073-0.117,1.527-0.355c0.456-0.239,0.845-0.555,1.171-0.946s0.578-0.834,0.754-1.328
		c0.175-0.494,0.266-0.997,0.266-1.51c0-0.538-0.094-1.057-0.278-1.555c-0.186-0.498-0.443-0.939-0.774-1.323
		s-0.724-0.691-1.178-0.919c-0.455-0.229-0.95-0.347-1.488-0.347c-0.563,0-1.075,0.119-1.534,0.357s-0.851,0.554-1.172,0.945
		c-0.321,0.394-0.57,0.836-0.748,1.33C112.252,580.422,112.164,580.923,112.164,581.432z"/>
	<path d="M130.659,586.131v-8.123l-3.704,6.338h-0.423l-3.705-6.338v8.123h-0.675v-9.394h0.675l3.916,6.722l3.916-6.722h0.675v9.394
		H130.659L130.659,586.131z"/>
</g>
</svg>
