<?xml version="1.0" encoding="utf-8"?>
<!-- Generator: Adobe Illustrator 16.0.0, SVG Export Plug-In . SVG Version: 6.00 Build 0)  -->
<!DOCTYPE svg PUBLIC "-//W3C//DTD SVG 1.1//EN" "http://www.w3.org/Graphics/SVG/1.1/DTD/svg11.dtd">
<svg version="1.1" id="Layer_1" xmlns="http://www.w3.org/2000/svg" xmlns:xlink="http://www.w3.org/1999/xlink" x="0px" y="0px"
	 width="595.275px" height="595.279px" viewBox="0 0 595.275 595.279" enable-background="new 0 0 595.275 595.279"
	 xml:space="preserve">
<metadata><?xpacket begin="﻿" id="W5M0MpCehiHzreSzNTczkc9d"?>
<x:xmpmeta xmlns:x="adobe:ns:meta/" x:xmptk="Adobe XMP Core 5.3-c011 66.145661, 2012/02/06-14:56:27        ">
   <rdf:RDF xmlns:rdf="http://www.w3.org/1999/02/22-rdf-syntax-ns#">
      <rdf:Description rdf:about=""
            xmlns:dc="http://purl.org/dc/elements/1.1/">
         <dc:format>image/svg+xml</dc:format>
         <dc:title>
            <rdf:Alt>
               <rdf:li xml:lang="x-default">NFL Logo Redesigns</rdf:li>
               <rdf:li xml:lang="en_us">NFL Logo Redesigns</rdf:li>
            </rdf:Alt>
         </dc:title>
         <dc:creator>
            <rdf:Seq>
               <rdf:li>Max O'Brien/Osprey Dawn</rdf:li>
            </rdf:Seq>
         </dc:creator>
      </rdf:Description>
      <rdf:Description rdf:about=""
            xmlns:xmp="http://ns.adobe.com/xap/1.0/"
            xmlns:xmpGImg="http://ns.adobe.com/xap/1.0/g/img/">
         <xmp:CreatorTool>Adobe Illustrator CS6 (Macintosh)</xmp:CreatorTool>
         <xmp:ModifyDate>2013-10-06T23:44:30+13:00</xmp:ModifyDate>
         <xmp:MetadataDate>2013-10-06T23:44:30+13:00</xmp:MetadataDate>
         <xmp:CreateDate>2013-10-06T23:44:29+13:00</xmp:CreateDate>
         <xmp:Thumbnails>
            <rdf:Alt>
               <rdf:li rdf:parseType="Resource">
                  <xmpGImg:width>256</xmpGImg:width>
                  <xmpGImg:height>204</xmpGImg:height>
                  <xmpGImg:format>JPEG</xmpGImg:format>
                  <xmpGImg:image>/9j/4AAQSkZJRgABAgEASABIAAD/7QAsUGhvdG9zaG9wIDMuMAA4QklNA+0AAAAAABAASAAAAAEA&#xA;AQBIAAAAAQAB/+4ADkFkb2JlAGTAAAAAAf/bAIQABgQEBAUEBgUFBgkGBQYJCwgGBggLDAoKCwoK&#xA;DBAMDAwMDAwQDA4PEA8ODBMTFBQTExwbGxscHx8fHx8fHx8fHwEHBwcNDA0YEBAYGhURFRofHx8f&#xA;Hx8fHx8fHx8fHx8fHx8fHx8fHx8fHx8fHx8fHx8fHx8fHx8fHx8fHx8fHx8f/8AAEQgAzAEAAwER&#xA;AAIRAQMRAf/EAaIAAAAHAQEBAQEAAAAAAAAAAAQFAwIGAQAHCAkKCwEAAgIDAQEBAQEAAAAAAAAA&#xA;AQACAwQFBgcICQoLEAACAQMDAgQCBgcDBAIGAnMBAgMRBAAFIRIxQVEGE2EicYEUMpGhBxWxQiPB&#xA;UtHhMxZi8CRygvElQzRTkqKyY3PCNUQnk6OzNhdUZHTD0uIIJoMJChgZhJRFRqS0VtNVKBry4/PE&#xA;1OT0ZXWFlaW1xdXl9WZ2hpamtsbW5vY3R1dnd4eXp7fH1+f3OEhYaHiImKi4yNjo+Ck5SVlpeYmZ&#xA;qbnJ2en5KjpKWmp6ipqqusra6voRAAICAQIDBQUEBQYECAMDbQEAAhEDBCESMUEFURNhIgZxgZEy&#xA;obHwFMHR4SNCFVJicvEzJDRDghaSUyWiY7LCB3PSNeJEgxdUkwgJChgZJjZFGidkdFU38qOzwygp&#xA;0+PzhJSktMTU5PRldYWVpbXF1eX1RlZmdoaWprbG1ub2R1dnd4eXp7fH1+f3OEhYaHiImKi4yNjo&#xA;+DlJWWl5iZmpucnZ6fkqOkpaanqKmqq6ytrq+v/aAAwDAQACEQMRAD8A9U4q7FXYq7FXYq7FUp1r&#xA;y5Z6mpf+6ugPhmA6+zDvml7V7ExasX9OT+d+vvcrT6qWPzi8N/MnSvzQ0GeS60i4E9oAWa09GJ3A&#xA;H7UTcf3i+32h75y2DQafDPwdXDhn0lZ4Zfq/F09Roc2nyjfn+ObANA85fmlr0kkWm3dvLPFu8Lrb&#xA;RyU/mCuFJHuM2Os7M7O04ByRkAevqI+x2OXT4Mf1D706/wCQ6/8AFP8A06Zgf6z/ANL/AGbT/gv4&#xA;tbJJ+eMUbSyvbxxoCzuxswoA3JJPQYYx7IJocV/56QNKfwWO2P5h/mZqGo/o6wuFu7osVCwwwMp4&#xA;mhbnx48f8qtM2mXsbQY8fiTHDHzMvu7/ACciWkwRFkUPi95/L/yZ5rubJZ/MV+JmkoWMcaRqo/lj&#xA;oql/djt4DNTpuxI6yYljicWDvNmUvdf49/J5zXa7FA1Ab/jmyHzN5GuGs5W0WdoJSu2yyMpH7Shw&#xA;Q3up+jMvtD2YGM+JhHHEc4E8/cfx+hw9L2gLrIHzv5t8zfmt5YvDDf3KG3ZuMN4tvH6bex+Cqt4q&#xA;d/nktD2d2fqR6YkTHOJJsfa9Vgw6fKLiPtTex/5XBf2kV3Z6tp09tMvKOVAhBH/IrMDL/JmORjLH&#xA;kEh7/wDimqX5eJoxlf481WS1/OeKNpJNT09I0BZ3YRgADckkxZGOTsomhDJfx/4piJaY9D+Piw66&#xA;/Mvz9Ff/AFKDU4L6XkEVrWFJFZiacUJjUt9GbvH2HopQ45QlAf0iR899nMjo8RFkV73pXkny/wDm&#xA;5rbLNqV8tpBsTbxwQGWn+W5XhH49z7ZqJ6TS5ZGGlxHIf53EREfbv9nlbrNXqNNiGwv4l67p3kRV&#xA;Ctf3BcgbpFtX5sR+oZm6T2RHPNL4R/Wf1Ogy9o/zQyOy0vT7JaWsCxnoWAqx+bGpzqdL2fg04/dx&#xA;Efv+fNwMmac/qKKzManYq7FXYq7FXYq7FXYq7FXYq7FXYq7FXYq7FXYq7FXYqo3lnbXkDQXMYkjb&#xA;sex8QexzH1Olx54GGQcUWcMkoGwXzF+c2hWHl3zxo1/pa+hdvd8ZZV258TGwLAUBNHIPiOuctpcZ&#xA;j+Y0xJljgNr6WC9r2XmllwkS7v1vQrq4FvazXDDkIUaQqOpCgmn4ZwuOHFIR7y4MRZp87+b/AMwd&#xA;c8yyGOZvq2nA1jsYieOxqDI2xc/PbwAz03s3sbDpRY9U/wCcf0dz0ODSxx8tz3vof8hfJ2gp5Ytr&#xA;4W4M8sMU07HcyPIC3xnuF/ZXpmDpNNHWavLLN6o4pVGP8Py+Dy/bWryCfCD3vYgABQbAdBnWAPOI&#xA;bUdRtdPtWuLhqKNlUdWPYAZia3W49NjM5nb7Se4NmLFKcqD5l/Mvz1f+d9bk8seXIY5vXIW9uQAY&#xA;1RCNudPsoftP3Oy+/L44gTOu1Po/mxHPyvvJ/t25dpoNHHTw45nl+PwEbcatov5beV7XTixvb4hm&#xA;SAEI0rsavI32uCA7Dr9O+aWGny9qaiU/ph39w6DzKBCWpyE8g8t1nzX5s856hFY1Z1mfjb6bb1WO&#xA;vYkV+KnXkx29hnXabs/TaGBn3c5Hn+PIO0x4MeEX9r3/APKD8lrHSbRNR1BRLeyD95N36bpESPhT&#xA;sW6t+rCw4MnaUuPJcdMD6Y9ZeZ/Hu73mu1O1iTwx/H7Xs0EEMESxQoI412VFFAM6jFhhjiIwAjEd&#xA;A83KRkbK/LGLsVdirsVdirsVdirsVdirsVdirsVdirsVdirsVdirsVdirsVdir5t/wCcif8AlKtE&#xA;/wCYw/qhzk8X+Nar+qP9y9l2H/cn3frZVrH/AByL7/mHl/4gc4PTf3kf6w+9px/UPe+V89geofZP&#xA;5Ef8oTZ/8w1t/wAQOaPsT/GNR/X/AFvC9uf3vxLPtR1G10+1a4uGoo2VR1Y9gBm51utx6bGZzO32&#xA;k9wdTixSnKg+a/zH/MfW/OWtnyx5YPMvVLm5Qn00jrR1Vx0Uftv36D35j6v8M1m0R9EO7u26yP7T&#xA;5dloNBDTw45/j8dAsnn8vflj5eEMIW61q6Wu+zyuNub03SJD0H8anNTCGftXPZ9OKP2frkfxtQbA&#xA;J6mdnaI/HzeQzz635l1vm/O91O9eiqOpPYAdFVR9AGdrCGHS4aFRxxH4+LtgI4490Q+l/wAm/wAm&#xA;7XRbVdQ1BRLeSj97L/N39OOu4jB6nqx/DTYcM+0pjJkBjpon0x/n+Z/HkOpeU7V7VMjwx/H7fuez&#xA;KqqoVQAoFABsABnVxiAKHJ5olvCrsVdirsVdirsVdirsVdirsVdirsVdirsVdirsVdirsVdirsVd&#xA;irsVfNv/ADkT/wApVon/ADGH9UOcni/xrVf1R/uXsuw/7k+79bKtY/45F9/zDy/8QOcHpv7yP9Yf&#xA;e04/qHvfK+ewPUPr/wDJnUbXT/y/tbi4aii2tgqjqx4GgAzmNDrcemnqZzO3H8SfVsHie18Up56H&#xA;eXmf5j/mPrfnLWz5Y8sHmXqlzcoT6aR1o6q46KP2379B7w+r/DNZtEfRDu7tusj+0+W40Gghp4cc&#xA;/wAfjoFk8/l78sfLwhhC3WtXS132eVxtzem6RIeg/jU5qYQz9q57PpxR+z9cj+NqDYBPUzs7RH4+&#xA;byGefW/Mut8353up3r0VR1J7ADoqqPoAztYQw6XDQqOOI/HxdsBHHHuiH0v+Tf5N2ui2q6hqCiW8&#xA;lH72X+bv6cddxGD1PVj+Gmw4Z9pTGTIDHTRPpj/P8z+PIdS8p2r2qZHhj+P2/c9mVVVQqgBQKADY&#xA;ADOrjEAUOTzRLeFXYq7FXYq7FXYq7FXYq7FXYq7FXYq7FXYq7FXYq7FXYq7FXYq7FXYq7FXzb/zk&#xA;T/ylWif8xh/VDnJ4v8a1X9Uf7l7LsP8AuT7v1sq1j/jkX3/MPL/xA5wem/vI/wBYfe04/qHvfK+e&#xA;wPUPTE82avrWiaT5N8sK3rtaxpqN3uoUBQHXl+yi/tN36D35Q9n48GXJqtR9PETGP3fHuHxLrfAj&#xA;CUsk+/Zl1tZ6X5B0GS102IX+vSwvcOnSSb0hVnI6rFHvRR9FTU5pZ5cnaOYSyHgwg15C+n9Y9/6H&#xA;FMpZ53LaH4+14hq2rX+rX8t/fyma5mNXc9AOyqOwHYZ32n08MMBCAqId1CAgKHJ9Af8AOPHlDytP&#xA;ZR6kJRcX06t9YLCjBkO8C7/CBsx7t16UpoMsDq9d4OY8OOHqjH+f5/jzHeXm+29VkjsBt+N30Iqq&#xA;qhVACgUAGwAGdbGIAocnkSW8KuxV2KuxV2KuxV2KuxV2KuxV2KuxV2KuxV2KuxV2KuxV2KuxV2Ku&#xA;xV2KuxV82/8AORP/AClWif8AMYf1Q5yeL/GtV/VH+5ey7D/uT7v1sq1j/jkX3/MPL/xA5wem/vI/&#xA;1h97Tj+oe98uWdpc3l3DaW0ZluJ3WOKMdWZjQDPXcuSMImUjURuXp5SAFnk9pkn0D8svLawxqtzr&#xA;t2oZh+1LIB9pj1WJD0H8anODEM3auez6cUfsH/FH8bU6YCepn3RH4+bGPyt1W81f8wZr/UZfWupr&#xA;aU8m8aqOKjsAvQDtm27f08cOiEMYqIkP0uTrYCGGo8rS380fJn6A1j63aR8dKvyWhCj4YpOrReAH&#xA;dfbbtmV2B2n+YxcMj+8hz8x3/r/a26LUeJGj9Qd+VXnmbyt5hjMkpj0+6ZVnJ6RuPsS/R0b/ACfl&#xA;mR2vopZIjJj/AL7HvH9X4/SjX6UZoEdX2fpGpw6lYR3UVPiFJFG/Fh1H9M2PZ2ujqsIyD4juPUfj&#xA;o+e58JxyMSjMzmp2KuxV2KuxV2KuxV2KuxV2KuxV2KuxV2KuxV2KuxV2KuxV2KuxV2KuxV2Kvm3/&#xA;AJyJ/wCUq0T/AJjD+qHOTxf41qv6o/3L2XYf9yfd+tlWsf8AHIvv+YeX/iBzg9N/eR/rD72nH9Q9&#xA;7xPya2neVNLbzVqaCXULgNFodkdmb9l5j4L+zXwr4jO+7TE9Zk/LYzUI75JfdH39f7Hdai8svDjy&#xA;/iP6GLXFxrfmbXC7B7zUr16Ii/gqg/ZVR9AGbeEMWkw19OOA/HxLlARxx7oh6BrH5X615Q8v6f5l&#xA;sZHbVbNzcXLAH0zGKBvTGxZY+jV+0CTsNs0WPtT8zM48sOHBmFQJ61+Nu406/HroZpnGeTO4JNH8&#xA;+eTvjFIrtOMijd4J08PdG3HiPY5y045ez9Vtzif9NH9v2FwiJYMnu+0Pn3WdIvdI1O4028XjcW7c&#xA;W8COqsvsw3GelaXUwz4xkh9MnfY8gnESHIvfP+ce/wAy6x/oLUJKyW6hVZv2oAaK3zirxP8Ak0zR&#xA;5T+Q1Pij+4zGpf0Zd/48/J53tvQcQ44/j+19EAgio6Z1byDsVdirsVdirsVdirsVdirsVdirsVdi&#xA;rsVdirsVdirsVdirsVdirsVdirsVfNv/ADkT/wApVon/ADGH9UOcni/xrVf1R/uXsuw/7k+79bK9&#xA;WKjS7wsOSiCSq1pUcDtXOD0/95H+sPvacf1D3vl/UtSutRujcXLAtxCRoookcaCiRov7KqNgM9aw&#xA;YI4o8Mf7T1J8y9NCAiKD6Q/IL8ttHTSYdal/fXNzEkszsN+MnxLEv8qinxd2P0U0McR7Q1M45DWH&#xA;DL6f5x8/x+kvL9tdoSB4A9m1vRrfU9Mks2RR8P7qo+EEClKeBGxzddp9nR1ODwxsR9PkRy/U85p8&#xA;5xz4nzBGk/5bee5LC5rH5c1ZyELH4YXBpvX/AH2Txb/JIPbOX1GI6/TGx/hOHYjqf7fve2sanFxD&#xA;64/amf5teTP0vpf6XskrqNghLqo3lgG5HuU+0Pp9s1/s72n4OTwpn0T+yX7eXya9BqOCXCeReL6R&#xA;qt5pOpW+o2bcLm2fmhO4PYqfZgaHO71OnjmxnHP6ZO5nASiYnkXtK/nl531O3jh0DRLuaJFCLLyk&#xA;KCgpQ+kqig93zm5aOeKIhm1XDGO1A8O3zv7HR/yThibmRf471B9d/PO+HL9HW8CnuzJXx6STO34Z&#xA;hTj2Z/FlyT+Z/wB62DDpI9fx8lnr/nh/yz2v3wf815Xw9kd8/wDZfqTWl7z9qtH52/OzS6NcaMJU&#xA;G5+rMzP/AMkZZP8AiOZGLHoT/daicD/WI+8D72B0mln1+f7Qm2l/85JX9lOttr2n3NlINisqiUD3&#xA;bkIZAPvzZY4a6A4sOaGaP9L9Y/W42XsGEhcCPx8w9P8AK/5weVNeUCG4QvSrCNqsB4tEwWRfuOXx&#xA;7eliNanHLH/SG8fx83TansjLj/H4DN7e5t7mISwSLLGejKajN9hzwyx4oESj5OrlAxNEUqZaxdir&#xA;sVdirsVdirsVdirsVdirsVdirsVdirsVdirsVfNv/ORP/KVaJ/zGH9UOcni/xrVf1R/uXsuw/wC5&#xA;Pu/WyrWP+ORff8w8v/EDnB6b+8j/AFh97Tj+oe98r57A9Q+yfyI/5Qmz/wCYa2/4gc0fYn+Maj+v&#xA;+t4Xtz+9+Jej50jpXk3586D5d1DQZ2vrmO1mRPV9Zv8Adbp/dvtX7X2KdSDtvnJ9qSGHW454t8s9&#xA;pQHWPf5fHu8i9D2JmyRlQFj8f2vGvKep/mD5m0O20awk+o2FsDFc60a+o0Y+zGh2PJV2+HfpUjvi&#xA;do4NFpcxyzHHOW4h0vvPv8/kXoM8MOORkdyejLtM8g+RvK9n9cvlilaOnqXt+VKhu3FW+Bd+lBXN&#xA;Ln7X1mrlwwsX/DD8X+hxJ6rLlND5BLdY/Ovy9ZkxaXbS6gy7B/7iL6CwL/8ACZlab2Xzz3yEQ+0/&#xA;q+1sx9nTP1GvtYtdfnj5mkY/VrO0gj7BlkkYfTzUf8Lm3x+ymnH1SmT8B+hyo9mw6koL/lcvnXlX&#xA;1Lela8fRFPl1zI/0M6Tul82f8n4vNHWv54+ZUYfWbO0nQdeIkjY/TzYf8LmPk9lMB+mUx8j+hhLs&#xA;2HQlP7T84vKuqRfVde01oY32YMq3UPzYEK33Ic1uT2a1OE8WGdn/AEp/HxceXZ+SO8D+hWn/AC78&#xA;leYI/wBIeVr8WVyh5LJavzRW7coyQ8Z+RHyyEO2tXpjwaiPFH+kN/nyP2oGry49sgsea3TfPn5hf&#xA;l9dpFr8cl9pteMepQnkxHarGgf8A1ZKN75n6fFhznxNFPwsvWPT4j9VjyRl0eDUj07Hu/H6Hptx/&#xA;zkP5Sh0mK6+tQPNIteKl3evvCo5r/siMz49p6+Q4Bg/eDnIn0/D+10sewZmVb1+OrKPJOsap5kWL&#xA;VrhpYbPgskds4EZrIKqHVSeg3oT4ZT2Rk1Wp1EpZZ3DEaqO0TL7LA8/JxNdihhHAAOLvZlnWuqdi&#xA;rsVdirsVdirsVdirsVdirsVdirsVdirsVfNv/ORP/KVaJ/zGH9UOcni/xrVf1R/uXsuw/wC5Pu/W&#xA;yrWP+ORff8w8v/EDnB6b+8j/AFh97Tj+oe98r57A9Q+yfyI/5Qmz/wCYa2/4gc0fYn+Maj+v+t4X&#xA;tz+9+JZ1rGpxabYSXT0JUUjU92PQZte0tdHS4TkPPoO89HV4MRySEQ+XdUvNQ/NDzjLD6zjy1p0n&#xA;K4mU09Z9wCPdqEJ/Ku/emctPMdDiObJ6tVm7+n7B9+3IPbY4R0uIbes/j8ebJPNnm/RfJOkQ2dpC&#xA;huuHGx09DQKo25vTcLX6WP0kaPs7s3Lr8plInhv1S/QPP7mjBp5ZpWeXUvDNe8x6xr14bvU7hpn3&#xA;9OPpHGD+yi9AP8znoOk0WLTx4cYr7z73d4sUYCohLSCDQih67+++ZdtjM/y68jaX5snmgn1JrW6h&#xA;KkWqotWjag5h2bsxofh228c0va3aWXTGPDAES2snYHuP9ve4er1MsQsCw9ai/wCcWbAqOd1dBqbn&#xA;1oQPuELZES7UP8OIfP8AQXSH2iHd9h/Wp3P/ADi1bBD6F1dc96EywMPu9OP9eA5O1I88eOXuNfeU&#xA;x9oR1+4sS13/AJxy8zWCNJaXAlUb0njaMfLmhlX76ZE9s5cX9/hnAd49Q/Hxc7D21in+P7Hnt5pn&#xA;mrynqCSTRz6bdD+6nQ0VvELIhKsPEV+ebDHn02sgQDGce79h3Dsozx5RtRDONL/OiN9IntPMOn/X&#xA;5ynBTGEEcwIoRMrbL81BHsM5/UezBGUSwT4B53Y93f8AH5uFPs71XA1+j3PPbvUrKTV1vrbToba1&#xA;SRXFhykkjYK1Srlm5EN0NKe2dNjwTGLglMylX1bA/D8F2EYERomz3vqT8p/zg0DWLJbJgLW4X4pb&#xA;cn94hPVtv7xP8oCo7jNFo9RLsz9zmH7knbIPP+d+Pn05DtPsqYPEN/x9j1uORJEV42DowqrKagg+&#xA;BGdZCYkAYmwXniCDRbySHYq7FXYq7FXYq7FXYq7FXYq7FXYq4kAEk0A6nATSpfdeYdGtq+pdIWH7&#xA;KHmf+Frms1HbWkxfVkF+W/3N8NLklyD5w/PbWNO1LzPoptJ0kcXhLwhlMiA+kByUEla8TSuaLQ5f&#xA;FyajMARCcRRIrkC9h2RhlDEQR0/WnfnnzlomhabPb3UvO9uIXWG0joZDzBUM38q+5+iucx2V2Zm1&#xA;GQSiPRE7k8v2lr02nlOQI5PnPPUHoX2P+REif4Lsk5DkbW3IWu9AhB2zRdiSH5nUDrx/reG7cH73&#xA;4ljX/ORvnCSx0j9FWrkXN0fq0YU/F8YDSsB3+CifNsjqj+Z14gf7vAOI/wBY8vx5Fy+wdLZ4z+O5&#xA;JdCsbHyR5H9S6ADW8Rub4girzuB8AP8ArURfozkNXlnr9XUf4jUfKP43LnZZHPl2+Hu/G7wTWtYv&#xA;dY1S41G9fnPcNyPgo6Kq+yjYZ6NpdNDBjGOHIO9x4xCIiGQeSLWz0zzDpN35isa6bqAb6lNN/dhw&#xA;3FZCOhAbb4vHl4Zre1cksuDJHBL1w+oDnXd/Z3U0akmUJCB3HNHfm9qXlu/16J9Kb1byJDHfzx09&#xA;JitAgDD7TKKgnpSg7Zj+zeDPjwkZNoneI6+fwP62vQQnGHq5dGJ6DrV7omrW+pWbUmgapXs6nZkb&#xA;2YbZudXpYZ8Zxy5H8W5eXGJxMS+0Py5876d5i0O1kjmDOyD0uRHIgDdG/wAtDsRmu7G15j/g2Y1l&#xA;hsP6Q6V+OXxeB7R0UsUya2ZjnROsdirGPOHkjQ9b0u5jntY25IWeMgcHpvuOzeDDcHOf7T7HgQc2&#xA;H93mjvY2v3jz/tt2Gj108chvs+LfN+hrofmS+0tGLx27j0mPX05FEiV9wrCuZXZuqOowRyHnIfaN&#xA;i9/gyccBJ6toX5DNqnkRLmRHh1cEyvOtWKlwCImj/aVVpypuCc0p7T1Msk8uKPHp4Hhrqa5yH45V&#xA;8NRm7XEM3D/C8q1bRvMHlXV0S4D2l3EedvcxEhWA/bjcUqP8zm60+pw6zFcalE8wf0h28MkMsdtw&#xA;9l/Kv8/WhaPTdfdY3NAJ2ISGQ+JPSJ/f7J9ts1R02fQS4sF5MPWHUf1fx775ui7R7GE/VD8freuf&#xA;8rg8l/8ALbD/AMj4P+a8yP8ARD/tOX/Sui/kfN3fYXf8rg8l/wDLbD/yPg/5rx/0Q/7Tl/0q/wAj&#xA;5u77CjLH8x9D1AVsA12OXCsDRyDl/L8LHffK5e08IyETiyCR5Ct/vYT7MyR+ogMohd3iV3QxswqY&#xA;2oSPY0qM6PFMyiCRwk9O510hRX5Yh2KuxV2KuxVBXWt6Ta19a6jDDqoPJv8AgVqc1+o7W02H68kf&#xA;vPyFt0NPklyDFdd/N3ylo9VuLmNJAKhJZEjYj2T4nP8AwOaw+0Pif3GKeTz5D57ufh7Iyzee6v8A&#xA;85L2by/V9GgmvZm/uxbwkV9qy/F9yZXPL2jkFyOPBH5n9I+52uL2fA3mfmf1frY/c+cfzk8xf7y6&#xA;WNNt26S3zlnX5LIU/wCTWajP+TH9/nnmPcDt+kf7JzIaXS4ut+78fpQN75D803VtJdeZfMV1coBW&#xA;Sw06N25nwRRwX/knlOLtbTwkI6fDGP8ASmfv5/7pujqsYNQiB5n8fpYDP5X8ywalHc6R5fvrZLZg&#xA;1u00bSyllNVkf4QnKu9AtPnnRw1+nljMcuWEuLnRoe4dftc4ZoEVKQNoO48oeeLmZ57jSr6aeQ8p&#xA;JZI5GZj4liKnL4dpaSIqM4ADzDMZ8Q2BCn/gjzh/1Zrz/kS/9Ml/Kul/1SHzCfzOP+cPmzDyJq35&#xA;neUpkSHSL24sFYsLYxupQnqY34njXuOhzVa78nmkMkMsceYcpA/f3uHqsWDMNyLReoa1qnnL8ztE&#xA;i1Sxm082xM8ltcbsWWs7Oaquz+mq9MoMBp9HmyiYyyyfxDz2+yyxhijgwS4Tf4pNPzx1R4NDsdOQ&#xA;kfXZ2kendIAPhP8AspFP0Zr/AGUwCWaUz/DH7/7C1dmwuRl3PKPLGjnWfMFhpm4W5lVZSOojHxSE&#xA;e4QHOx1+p8DBLJ/NH29PtdrmycEDLuZp5+j85a9dpZWmh3MOi6eTHYxJA/xKvwiQmndRsOwzQ9kS&#xA;0unjxyyxOWf1er7HD0vhwFmQ4jz3Yn/gjzh/1Zrz/kS/9M3P8q6X/VIfMOV+Zx/zh83f4I84f9Wa&#xA;8/5Ev/TH+VdL/qkPmF/M4/5w+ac+W7b8zfLlwZtM068RHIMtu8LtE9P5lp19xQ5g63JoNSKyThY5&#xA;HiFhpzHBkFSI+b1Kw/OL8y4bVI5vLN+0iijMhYqfkHjdh8qnNeJyhtDWDh86J+duon2Vpib4o/j4&#xA;oj/ldH5if9SxqP4f9UcPj5f+UyHyix/knT/zo/j4tP8AnN+YToyN5Y1EqwIYbdDt/vnIyy5JAg6y&#xA;NHyio7J04/ij+Pi8wvdP8x33nU+YbvyzfSWrSpM1lxap9NAFUuUpTkor8PTbMvFmwY9J4Ec0BKq4&#xA;vee63bxlCOPgExfe9Ltfze8+WkKwW/lXUI4lrRR7mp6w5r9PE4YCGPVwjEeQdVPszBI2Zxv8eaRe&#xA;ZfNeteYrOa31PyPeXBlqys1VKyUoHUrECp9xleHTxhm8UaqAkedAb/C6cnBp4YiOHIB+Pek/kj8o&#xA;mntHvfMMbRtKCkFmSVdAdjI9P2v5R26mvTMjtX2j4ZcGA3XOXf5Dy7/kO9u1Ovo1Bkd1+Vnk62t5&#xA;Lm4hSKCFWeZzJKFVRRmNS21AtPlXuajV4+39VKQjEkk8th+r8bdBRx467ITQYz5f/L2186arEui2&#xA;DWXl+FipvTy+sXj1+LgHLKiDoNtu9TsN8ddnw/uyfF1M+UR9MPf+n9A3OTn1ngRuZuX2B9OeTvJG&#xA;k+WrCG3tYUR41ooUfClevGu5J7sdzm07N7J8KXi5Tx55cz3eQeM1munmlvyZHm6cF2KuxV2KuxVb&#xA;LFFNG0cqLJG2zIwBB+g5DJjjOJjIAxPQpjIg2Enu/J+h3ANIjCT1MbUH3NyH4Zo9R7NaTJuImB/o&#xA;n9dhy4a7JHrbAtd/5x68o6gXeK3ijkapDIGtyCe/7s8D9K5T/Jetxf3WbiHdMfp3/Q7PD29kjz/W&#xA;wDVv+cbtZseb6NqFzAD1U0lDU6VaExsPpTKp6rWQ/vsAyDvjv9m5+52mLt3HP6gPx72C6t+W35m6&#xA;czAPLdqvUwXDVH+wkMb/AHDHF2voZGpDgl3Sj/a7LHrMEvL4MTvpPM9hJ6d897aydlmMsZP/AAVM&#xA;22IafILhwS91Fy4iEuVFV0R9T1TUobA6u1o054xzTyyiPmeikrWlegyGqGPDjM/D4q6AC0ZOGMb4&#xA;begRfkv+Ycy84tVEi1pyR7lhX5hM0uPtnBMXHBOQ8oAuul2lgHMfcu/5Uj+ZP/VyP/BXX/NGWfyp&#xA;j/5R8n+kCP5U0/d9zj+SX5kgVOpEAdTyuv8AmjAe1cf/ACj5P9IF/lTT933JX5OhTyz+Zk1nr19G&#xA;Z44DGLt3b0zJJGkigu9P2DT4u+Q7SkdVoBLDE0ZXVb0CRyHm36g+LguAUvzm17TtS1iygsbiO5S0&#xA;hb1JYmDoHkb7PIEgkBRXJ+zGkyYsUpTBjxHr5J7PxSjEkirS78qrZrjzQ8cThLk2dyLV2rQSsnAE&#xA;03FORzK9oJ8OnBP08cb91tmtlUPKwzD/AJU7+av/AFeJf+Rl5/zTmH/KGH/lGn/yrDhfylpu4f7F&#xA;3/KnfzV/6vEv/Iy8/wCacf5Qw/8AKNP/AJVhf5S03cP9i7/lTv5q/wDV4l/5GXn/ADTj/KGH/lGn&#xA;/wAqwv8AKWm7h/sXf8qd/NX/AKvEv/Iy8/5px/lDD/yjT/5Vhf5S03cP9i7/AJU7+av/AFeJf+Rl&#xA;5/zTj/KGH/lGn/yrC/ylpu4f7F3/ACp381f+rxL/AMjLz/mnH+UMP/KNP/lWF/lLTdw/2Lv+VO/m&#xA;r/1eJf8AkZef804/yhh/5Rp/8qwv8pabuH+xd/yp381f+rxL/wAjLz/mnH+UMP8AyjT/AOVYX+Ut&#xA;N3D/AGLv+VO/mr/1eJf+Rl5/zTj/AChh/wCUaf8AyrC/ylpu4f7FAap+XXn7S7Se5vvMgt47dS0n&#xA;q3NzHTbYfEB17ZXDtXSyyDH4B4j04I38mzHrMMyBGN35B57/AIj8w/8AV0u/+R8v/NWdF+SwfzIf&#xA;6UOw8GHcPktl17XJomim1G5kiccXjeaRlIPUEE0OSjpMMTYhEH3BIxRHQPQfyq/OG+8s3ENjqMpf&#xA;T1+CGc1YxKf2HA3aP8V7Zqtb2dOGT8xptsvWPSf7fxz3dd2h2bHMCRz/AB9r6u0DzDp+tWaXFrIp&#xA;LKHKghtmFQykfaU9jmy7N7Thqo7enJH6onmP2PD6jTSxSopnmzcd2KuxV2KuxV2KuxV2KuxVTntr&#xA;a4XjPEkq+DqGH45VlwY8gqcRIeYtlGZjyNJPf+SvL97GySW/BX+0qmqn/YtyX8M0+b2c0sjcQYS7&#xA;4mv1hysevyx6sE13/nHnyhf8mhtoY5D0MYa3I/5FHgfpXMc9l63F/dZuId0x+nf9Ds8Pb2SPP9ab&#xA;+V9F8xeU4orYifULNAEd2KyyFB9ndAtSo7kb9/HNXp4a7R5zkOL93L6hDce8CyQWrU5sWo3sRl8m&#xA;fRSpLGsifZcVFdjv4g522PIJxEhyLppCjS4gEEHodjkiLFIfGX556TJYedS5B4zwqCx/niYxsPuV&#xA;c5n2ePDiliPPHOQ/H2vofZeTixPPM37sWR/l3qqaZ5y0y4kPGJ5DBIT0pMpjqfYFgc1fbWnOXSzi&#xA;OdX8t3H1cOLGQ+4tJvFvNNt7gGpdBy/1hs34jM/s7UjPp4ZO8b+/r9r5xnx8EyEXma1OxV2KuxV2&#xA;KuxVzMFBZjQDck9AMBIAsq82/Mj84dF8s2bLHNzuHBESpQySH/isHovi528N6ZzWo7Uy6mRxaTl/&#xA;Fk6D3ef4He7vs/smWU3Ll+Of6nyz5t86675rvvUvHIh51t7NCSqk7Anu7mv2j9FOmZuh7NxaWJI3&#xA;mfqkeZexwaaGIUHoP5ZfkRqGsSx3uuRNHBswsjVaA9DMw3X/AFBv406ZgZe0cupmcWk6fVk/hHu7&#xA;/wAV3ut1/a0cQqPP8cv1vVf+hc/JX/LNF/yW/wCquWfyXrv+Uj/YB0v8v5PxX6nf9C5+Sv8Almi/&#xA;5Lf9Vcf5L13/ACkf7AL/AC/k/FfqZB5f/LOPy9GkWj3QtYo2LogDsAW605u2x7jpmMfZ/U+KMvjf&#xA;vB14f27uNn7U8X642zeISiNRKQ0gA5sooCfYGudVjEuEcW8utOpNXsuyaHYq7FXYq7FXYq7FXYq7&#xA;FXYq7FXYq7FXYq8E/wCclfJ8lzp41a3Sr2pM5oP91kBZwPlRXP05zE/8F7Q3+jUD/ZD8f7J6rsDV&#xA;fwH3fq/U+as371T0eP8AJjUZvLialDeq+oSQrcJYhPhIZQ3piTl9qnelK/fnLS9p4DOcZj6Aa4r+&#xA;2q5fjydee0IifCRt3vWfyR/NaG6sv0PqzmPUbb4LmN6hyU+H1Qp3NaUcdjlmLN/J2Ug76XIbBH8J&#xA;P6Px3uj7X7NN8cPx5fqe3RyxyxrJGweNhVWU1BHsRnVY8kZxEomweoeYIINFdk0OxV2KuxVA6jrW&#xA;m6epNzMA46RLu5/2I/jmv1vamn0w/eS37hufk3YtPOfIPCvzR/PtFMmmaDS5uNwwQ8oowoJLSFft&#xA;sKfZGw7nbNHKOftA3kvFp/5v8Uvf+PdfN6js7sbh9U3hFvbeYfNWtFU9S/1K4PJ3Y9B4sfsoi/cO&#xA;gzbzng0eLeoQj+PiXoSYYo90Q+iPyq/Ii00xYtT1Sk15SomI2WvaFT0/1zue1M1McWftHeV4tN3f&#xA;xT/Z+N+bzHaXbN3GH49/6nttta29rCsNugjiXoozpcGnhhgIQHDEPMzmZGzzVcuYuxV2KuxV2Kux&#xA;V2KuxV2KuxV2KuxV2KuxV2KuxV2KuxVLPMWjQ6vpctpIqsxBKBhUE0oVPswNDms7W0H5nCYjaY3i&#xA;e4hyNNnOKYL4r/MPyTd+VdcltzGwsJmY2kjV2APxRsf5k6e43zG7L1/5iFS2yw2kPP8Aa+haTUjL&#xA;C+rMfy1/NC2jtYdE12RYRCojsr1qBOCiixyn9niNg3SnXxPP9udgyMjmwi73lHz7x+pxNZoiTxQ+&#xA;IZJ5w/LqHWLldZ0a5/R2uJRkuEJVJCBsWKfErf5Q+45q+ze2jgj4WUceLu6j5/c42n1ZgOGQuKX6&#xA;d+aX5leTf3OvabJNbpsb6DZG/wApiA8LH6FObvTYMUjxaLP4ZP8AAdx/pT+1ll7P0+f6Tv8Aj4sr&#xA;0/8A5yf0R1AuEkiPcywGtf8Ank7fqzYeL2pDasU/mP1OBP2ePT7/ANaNP/OTPlen94p9vQnw/nO0&#xA;/wDUsfz/AOPNf+h6X4IS28/5yi0lVPowyuabenABv/z0l/hjx9qT/wBSh8/2tsPZ3vP2/sSK6/Pf&#xA;z1rdU0PRrmcN9mVufp/7JYVRafN8xM+DJ/yJ1VeUaj+Pk5cOx8GP6iPx70qfyr+Z/mgka/qK6Xp8&#xA;ledpEQSQe3CI0Yf68ma4dodn6XfDDxJ/zj+s/oDkDPgxfQOIqWuf4A8maFqOl2DC61y8t5bV5NpZ&#xA;l9VSp5sKLGN68Rv7HJ6T87rs0Mk/TijIS7ht3d/vTj8XNISO0QbSP8k9bvbDzYLWGEz294oacBeQ&#xA;Qw1ZJG/yakqfnm09osUfBjlscWOQIvr5V1/Y3dpYhLHZPL9L7Ks7gXNrFOFKCVA3BhQio6Z0Wmze&#xA;LjjMCuIXT59OPDIjuVcvYOxV2KuxV2KuxV2KuxV2KuxV2KuxV2KuxV2KuxV2KuxV2KuxVh35hfl3&#xA;pfmzTZYZog0rCtBRWLAfC6MfsuvY/Qds0PaXZkzP8xpzw5hzHSY7j+P0F2fZ/aEsEvL8fY+TPO/5&#xA;b695WupfWiafT1ai3YUjjX9mVeqN+B7HDoO1YZzwS9GUc4nn8Ht9NrIZRsd0N5c/MHzPoAEVpc+r&#xA;aDpaXAMkQ/1dwy/7EjDrex9Pqd5Cpd42P7fiyzaWGTmN3oGl/npprqF1TTpYX6F7dllUnx4v6ZH3&#xA;nOaz+yeQf3cwfft+twJ9mH+EpifO/wCUl+Q13HbGQ/8ALRZFj9/puPxzG/krtLH9JlXlP9rX+W1E&#xA;eV/Nv/EH5Mf7603/AKQR/wBUsH5PtXvyf6f/AI8vhan+l8/2rf8AlYn5W6eA1lHGzDoLazMZ/wCG&#xA;SPD/ACL2jk+sn/Onf6Sv5TPLn9pSzUvz2s1BXTNMkkJ6SXLqgB/1E51/4IZmYPZOX+UmB/VF/aa+&#xA;5th2Yf4j8mDa7+ZPm7WQ0c14ba3aoNvaj0loeoJBLsPYsc3+k7D02DcR4pd8t/2fY5uLR44chv5o&#xA;zyb+VPmfzLNEwha0spDtPIpLuP8AiuP7TfM0X3wavtjHjl4eMeJl/mx/SWGp1+PENzu+nfy8/KXR&#xA;PK1ov7kNMaM/KjOzDvKw+1Tso+EZDS9k5Msxm1Z4pD6YD6Y/rP43eP1/as8xocvxyegZ0bp3Yq7F&#xA;XYq7FXYq7FXYq7FXYq7FXYq7FXYq7FXYq7FXYq7FXYq7FXYql+raDpuqRFLqIFiCvqCgah7e49jm&#xA;u1/ZWHVD1j1dJDYhvw6ieM+kvHvNv/ONmjXrvPpg+rStU/6NRFr7wv8AB/wBXNV+X7Q030EZ4ee0&#xA;vn+0vQabt8jaf4+Ly3WfyB842DMYXinjHT1A8Dn6CGT/AIfB/Lwhtmx5MZ91j57fc7nF2tin+LY5&#xA;N+VvnuI0Ollx2KSwt0+T1y+Pb+jP8f2S/U5Q1uI9VBPy687O3EaROD/lcVH3kgZYe2tIP8oGX5vF&#xA;/OR1p+Ufnq4YBrFYA1KNLNH39kZ2/DKJ+0WkHKRkfIFhLX4h1ZjoP/ONvmK7ZWv7ngtd1gjYgj2l&#xA;l9MD/gTlf8rajL/cYJnzl6R+Pi4GbtvFHl+Pk9Y8o/kB5Y0VknliElwtCJZP30tR0IZgEQ/6iZL+&#xA;StXqP8YycMf5sP1/2uk1Xbk57RemWGmWNhHwtYVjr9purH5sd83Oj0GHTxrHER+8+8ukyZpTNyKK&#xA;zMa3Yq7FXYq7FXYq7FXYq7FXYq7FXYq7FXYq7FXYq7FXYq7FXYq7FXYq7FXYq7FXYqovZWchq8Eb&#xA;n/KRT+sZjz0uKX1QifgGYySHIlYNM00EkWkIJ6/u0/pkBoNP/qcP9KP1J8afefmrRwQRf3cap/qg&#xA;D9WXwwwh9IA9wYGRPMr8sQ7FXYq7FXYq7FXYq7FXYq7FXYq7FXYq7FXYq7FXYq7FXYq7FXYq7FXY&#xA;q7FXYq7FXYq7FXYq7FXYq7FXYq7FXYq7FXYq7FXYq7FXYq7FXYq7FXYq7FXYq7FXYq7FXYq7FXYq&#xA;7FXYq7FXYq7FXYq7FXYq7FXYq7FXYq7FXYq7FXYq7FXYq7FXYq7FXYq7FXYq7FXYq7FXYq7FXYq7&#xA;FXYq7FXYq7FXYq7FXYq7FXYq7FXYq7FXYq7FXYq7FXYq7FXYq7FXYq7FXYq7FXYq7FXYq7FXYq7F&#xA;XYq7FXYq7FXYq7FXYq7FXYq7FXYq7FXYq7FXYq7FXYq7FXYq7FXYq7FXYq7FXYq7FXYq7FXYq7FX&#xA;Yq7FXYq7FXYq7FXYq7FXYq7FXYq7FXYq7FXYq7FXYq7FXYq7FXYq7FXYq7FXYqg/01o3/Lfb/wDI&#xA;1P64q79NaN/y32//ACNT+uKuXWdIZgq31uWJoAJUJJP04qweLzx5uJtpHtFaBltnuxHp9360ck1f&#xA;VtFSSWNWkhoOT8677RkimKoNfO/5nx6Ha39xosYnuLeCdohauOLTLFyV1S7ldOLO4XYsaDkqD4sV&#xA;TeXzP50FvHLDBaSxPFJNJdiCYrF6DcHQxCUs7P6sbJRh8KyV/ZxVDP5385rcD0tJ+t6dD6qz38dt&#xA;PEJmSVpFEMLyGUcraBkBoytJJGQ3H4Sqo6d568/S2aX1zoY+r28E738KwTx3DPEw+OCJnfkvpzxt&#xA;wqWbjIF+IKpVR9z5w8wrJMERIik0EKwPp95KwicQ+vdNIjqpjjZ5BSg+z9rriqyw83+eZ51RtGR7&#xA;Vr+G2F/6csKi1EqJNO0MjGQGVJVaICtPi5fY+JVnmKuxV2KuxV2KuxV2KuxV2KuxV2KuxV2KuxV2&#xA;KuxV2KuxV2KuxV2KpL53lSLyZr8rnikem3bMetAIHJ6Yq+b0816Bb+W7DXri+0JbVmimnkjmuG1P&#xA;m3pCVZLfkV9Ll6vw+lx409McuLMEJXBa3eoJDpVtqgg1LVYUvdM9GO8eS5tkgWb1eM0BVV+L16He&#xA;UN6TEKqtiqjMywaLe6ze6vHcabpYl0++lhivjFFdx8Yng+OJzKFadIw7v8fPmTWMVVfYmFLsVdir&#xA;sVdirsVdirsVdirsVdirsVdirsVdirsVdirsVdirsVdirsVdirsVdirsVdirsVWy+l6T+rx9LifU&#xA;5U48ab1rtSmKvP8A/rHz/v0/+5biq+L/AJUFz/c/4V50P2P0dWnfpiqvb/8AKkar9X/w1X1Rx9P6&#xA;h/fVFKU/b6e+Kv8A/9k=</xmpGImg:image>
               </rdf:li>
            </rdf:Alt>
         </xmp:Thumbnails>
      </rdf:Description>
      <rdf:Description rdf:about=""
            xmlns:xmpMM="http://ns.adobe.com/xap/1.0/mm/"
            xmlns:stRef="http://ns.adobe.com/xap/1.0/sType/ResourceRef#"
            xmlns:stEvt="http://ns.adobe.com/xap/1.0/sType/ResourceEvent#">
         <xmpMM:OriginalDocumentID>uuid:9E3E5C9A8C81DB118734DB58FDDE4BA7</xmpMM:OriginalDocumentID>
         <xmpMM:DocumentID>xmp.did:1512731713206811822A8451A1857300</xmpMM:DocumentID>
         <xmpMM:InstanceID>xmp.iid:1512731713206811822A8451A1857300</xmpMM:InstanceID>
         <xmpMM:RenditionClass>proof:pdf</xmpMM:RenditionClass>
         <xmpMM:DerivedFrom rdf:parseType="Resource">
            <stRef:instanceID>xmp.iid:1412731713206811822A8451A1857300</stRef:instanceID>
            <stRef:documentID>xmp.did:1412731713206811822A8451A1857300</stRef:documentID>
            <stRef:originalDocumentID>uuid:9E3E5C9A8C81DB118734DB58FDDE4BA7</stRef:originalDocumentID>
            <stRef:renditionClass>proof:pdf</stRef:renditionClass>
         </xmpMM:DerivedFrom>
         <xmpMM:History>
            <rdf:Seq>
               <rdf:li rdf:parseType="Resource">
                  <stEvt:action>saved</stEvt:action>
                  <stEvt:instanceID>xmp.iid:F77F117407206811822A8451A1857300</stEvt:instanceID>
                  <stEvt:when>2013-10-06T17:09:14+13:00</stEvt:when>
                  <stEvt:softwareAgent>Adobe Illustrator CS6 (Macintosh)</stEvt:softwareAgent>
                  <stEvt:changed>/</stEvt:changed>
               </rdf:li>
               <rdf:li rdf:parseType="Resource">
                  <stEvt:action>saved</stEvt:action>
                  <stEvt:instanceID>xmp.iid:1512731713206811822A8451A1857300</stEvt:instanceID>
                  <stEvt:when>2013-10-06T23:44:30+13:00</stEvt:when>
                  <stEvt:softwareAgent>Adobe Illustrator CS6 (Macintosh)</stEvt:softwareAgent>
                  <stEvt:changed>/</stEvt:changed>
               </rdf:li>
            </rdf:Seq>
         </xmpMM:History>
      </rdf:Description>
      <rdf:Description rdf:about=""
            xmlns:xmpTPg="http://ns.adobe.com/xap/1.0/t/pg/"
            xmlns:stDim="http://ns.adobe.com/xap/1.0/sType/Dimensions#"
            xmlns:xmpG="http://ns.adobe.com/xap/1.0/g/">
         <xmpTPg:NPages>1</xmpTPg:NPages>
         <xmpTPg:HasVisibleTransparency>False</xmpTPg:HasVisibleTransparency>
         <xmpTPg:HasVisibleOverprint>False</xmpTPg:HasVisibleOverprint>
         <xmpTPg:MaxPageSize rdf:parseType="Resource">
            <stDim:w>209.999929</stDim:w>
            <stDim:h>210.001308</stDim:h>
            <stDim:unit>Millimeters</stDim:unit>
         </xmpTPg:MaxPageSize>
         <xmpTPg:PlateNames>
            <rdf:Seq>
               <rdf:li>Cyan</rdf:li>
               <rdf:li>Magenta</rdf:li>
               <rdf:li>Yellow</rdf:li>
               <rdf:li>Black</rdf:li>
            </rdf:Seq>
         </xmpTPg:PlateNames>
         <xmpTPg:SwatchGroups>
            <rdf:Seq>
               <rdf:li rdf:parseType="Resource">
                  <xmpG:groupName>Default Swatch Group</xmpG:groupName>
                  <xmpG:groupType>0</xmpG:groupType>
               </rdf:li>
            </rdf:Seq>
         </xmpTPg:SwatchGroups>
      </rdf:Description>
      <rdf:Description rdf:about=""
            xmlns:pdf="http://ns.adobe.com/pdf/1.3/">
         <pdf:Producer>Adobe PDF library 10.01</pdf:Producer>
      </rdf:Description>
      <rdf:Description rdf:about=""
            xmlns:xmpRights="http://ns.adobe.com/xap/1.0/rights/">
         <xmpRights:Marked>True</xmpRights:Marked>
         <xmpRights:WebStatement rdf:resource="http://www.ospreydawn.com"/>
         <xmpRights:UsageTerms>
            <rdf:Alt>
               <rdf:li xml:lang="x-default">This work is licensed under a &lt;a rel="license" href="http://creativecommons.org/licenses/by-nc-sa/3.0/"&gt;Creative Commons Attribution-NonCommercial-ShareAlike 3.0 Unported License&lt;/a&gt;.</rdf:li>
               <rdf:li xml:lang="en_us">This work is licensed under a &lt;a rel="license" href="http://creativecommons.org/licenses/by-nc-sa/3.0/"&gt;Creative Commons Attribution-NonCommercial-ShareAlike 3.0 Unported License&lt;/a&gt;.</rdf:li>
               <rdf:li xml:lang="en">This work is licensed under a &lt;a rel="license" href="http://creativecommons.org/licenses/by-nc-sa/3.0/"&gt;Creative Commons Attribution-NonCommercial-ShareAlike 3.0 Unported License&lt;/a&gt;.</rdf:li>
            </rdf:Alt>
         </xmpRights:UsageTerms>
      </rdf:Description>
      <rdf:Description rdf:about=""
            xmlns:cc="http://creativecommons.org/ns#">
         <cc:attributionName>Max O'Brien / Osprey Dawn</cc:attributionName>
         <cc:license rdf:resource="http://creativecommons.org/licenses/by-nc-sa/3.0/"/>
      </rdf:Description>
   </rdf:RDF>
</x:xmpmeta>
                                                                                                    
                                                                                                    
                                                                                                    
                                                                                                    
                                                                                                    
                                                                                                    
                                                                                                    
                                                                                                    
                                                                                                    
                                                                                                    
                                                                                                    
                                                                                                    
                                                                                                    
                                                                                                    
                                                                                                    
                                                                                                    
                                                                                                    
                                                                                                    
                                                                                                    
                                                                                                    
                           
<?xpacket end="w"?>
	</metadata>
<g id="Layer_2">
	<g id="_x37_Wl2mV_1_">
	</g>
</g>
<g id="Layer_1_1_">
	<g>
		<path fill="#EDBF09" d="M340.634,462.266c-8.559,0-17.254-0.671-25.852-1.995c-33.595-5.16-59.607-21.519-75.225-47.306
			c-10.999-18.151-14.031-35.875-14.845-45.417h-49.19l17.046,18.994l-135.875-33.91l100.13-25.821V160.091
			c0-0.283-0.312-0.688-0.545-0.905l-0.052-0.031l-35.923-26.135H251.71l-0.131,0.095h131.9l-28.043,10.758
			c-22.731,8.719-33.326,21.466-33.435,21.594l-0.176,0.22l-51.262,51.32l31.463,48.231c4.188-1.077,8.461-1.953,12.75-2.61
			c8.627-1.322,17.323-1.996,25.848-1.996c44.396,0,76.084,17.69,91.19,28.399c0.076,0.037,0.16,0.075,0.246,0.112l26.515-8.734
			l-11.021,21.11l32.781,24.792h58.235l-30.329,26.18l29.855,26.284h-58.09l-39.592,29.914l6.648,12.237l-6.812,6.304
			C438.722,428.655,401.681,462.266,340.634,462.266z M279.432,367.552c0.709,7.581,3.016,17.983,9.749,26.892
			c9.73,12.872,26.51,19.398,49.854,19.398c29.678,0,49.022-5.584,60.024-10.271c5.892-2.505,9.937-4.976,12.312-6.628l2.76-2.081
			c0.513-0.427,0.798-0.698,0.854-0.759l0.1-0.098l0.312-0.271l6.924-5.06l27.957-21.126L279.432,367.552L279.432,367.552z
			 M450.622,337.531l-15.646-11.84l-6.164,11.84H450.622z M406.083,337.531l0.446-6.688c0.355-5.209-4.555-8.646-4.604-8.682
			l-0.284-0.19l-0.283-0.21c-6.494-4.911-21.646-13.098-50.647-13.098c-3.5,0-7.164,0.124-10.89,0.368
			c-2.944,0.193-5.823,0.499-8.612,0.915l10.864,16.659c0.664,0.841,4.396,5.337,9.922,7.608l8.044,3.312L406.083,337.531
			L406.083,337.531z M227.901,337.531c2.604-9.787,6.514-19.024,11.646-27.522c4.369-7.229,9.658-13.81,15.765-19.623
			l-22.989-35.074l-17.143,17.161v57.63c0,0.288,0.314,0.688,0.551,0.911l0.062,0.038l8.911,6.479H227.901L227.901,337.531z
			 M215.723,159.186c-0.225,0.211-0.543,0.6-0.543,0.9v48.361l54.3-54.301l-23.414-17.029L215.723,159.186z"/>
		<path fill="#9C0025" d="M353.449,138.673h-95.792l20.359,14.812l-68.398,68.396V160.09c0-3.442,2.888-5.45,2.92-5.482l0.092-0.046
			l21.979-15.979h-97.202l21.884,15.92l0.18,0.104c0.03,0.021,2.923,2.056,2.923,5.482V330.1c0,0.356-0.037,0.705-0.096,1.043
			l-82.979,21.396l96.997,24.21l-13.25-14.764h66.939c0.062,5.139,1.14,26.346,14.314,48.098
			c14.739,24.343,39.396,39.786,71.312,44.688c8.353,1.285,16.763,1.931,25.006,1.931c58.859,0,94.382-32.188,95.854-33.562
			l3.643-3.364l-6.871-12.645l44.896-33.931h45.218l-23.584-20.762l23.841-20.576h-45.148l-38.021-28.757l6.857-13.142
			l-14.857,4.896c0,0-0.057,0.015-0.18,0.015c-1.012,0-2.58-0.657-3.383-1.112c-14.545-10.37-45.187-27.578-88.262-27.578
			c-8.244,0-16.654,0.646-25.005,1.932c-5.573,0.855-10.914,2.055-16.036,3.551L263.45,216.26l54.238-54.308
			C317.689,161.958,328.824,148.118,353.449,138.673z M244.312,312.885c-6.562,10.851-10.114,21.556-12.045,30.213h-9.373
			l-10.172-7.404l-0.188-0.105c-0.032-0.022-2.92-2.06-2.92-5.481V270.17l23.605-23.632l29.348,44.778
			C255.427,297.454,249.291,304.648,244.312,312.885z M433.077,317.283l29.771,22.521l-3.283,3.29H419.64L433.077,317.283z
			 M339.455,303.481c3.83-0.251,7.614-0.38,11.252-0.38c30.644,0,46.953,8.887,53.957,14.183l0.19,0.146l0.156,0.104
			c0.312,0.204,7.646,5.221,7.065,13.684l-0.797,11.885h-52.35l-9.062-3.734c-7.188-2.956-11.812-8.833-12.343-9.522l-15.504-23.771
			C327.3,304.79,333.089,303.898,339.455,303.481z M418.882,398.079c-0.016,0.02-0.438,0.438-1.276,1.145l-2.957,2.229
			c-2.858,1.995-7.244,4.622-13.399,7.24c-11.478,4.887-31.593,10.712-62.205,10.712c-25.181,0-43.455-7.271-54.294-21.604
			c-9.532-12.604-11.104-27.654-11.157-35.812c-0.053-8.156,3.5-18.892,3.5-18.892c1.995-5.31,4.947-10.704,9.093-15.771l5.486,8.39
			l-8.178,7.382c0,0-4.309,6.049-4.938,18.892h181.01l3.144,3.147l-37.097,28.024"/>
		<path fill="#FFFFFF" stroke="#000000" stroke-miterlimit="10" d="M168.751,254.914"/>
		<path fill="#FFFFFF" stroke="#000000" stroke-miterlimit="10" d="M203.257,254.914"/>
		<path fill="none" stroke="#000000" stroke-miterlimit="10" d="M490.109,352.683"/>
		<path fill="#EDBF09" d="M210.518,231.691l73.453-73.453c1.586-1.587,2.354-3.304,2.28-5.099c-0.023-0.688-0.174-1.362-0.435-2.02
			l-6.964-6.132h43.993l-29.021,16.574L187.14,268.524L210.518,231.691z"/>
		<path fill="#EDBF09" d="M187.766,324.35V161.37l22.751-15.218h-51.185l7.864,5.646c1.259,1.736,2.76,4.583,2.76,8.29v170.012
			c0,3.703-1.5,6.549-2.76,8.285L187.766,324.35z"/>
		<path fill="#EDBF09" d="M278.635,402.28c12.688,16.213,32.728,24.696,60.403,24.696c16.065,0,56.115-1.948,80.935-19.999
			l3.281-2.388l-0.891,11.668l0,0c-18.075,10.714-44.208,21.889-81.288,21.889c-16.707,0-31.886-2.574-45.118-7.65
			c-12.872-4.935-23.259-12.001-30.873-21c0,0-5.232-9.138,2.51-12.271C274.881,394.267,277.708,401.097,278.635,402.28z"/>
		<path fill="#EDBF09" d="M418.871,308.269c-0.336-0.315-35.75-30.738-94.353-22.941c-11.363,1.513-65.864,12.069-72.521,66.606
			c-0.813,6.697-0.098,15.572-7.42,15.782c-7.323,0.21-6.999-6.46-6.999-6.46c0.013-3.796,1.368-73.901,79.2-85.853
			c7.951-1.225,15.978-1.846,23.854-1.846c41.164,0,70.335,16.479,84.062,26.307l0.094,0.067l0.002-0.003
			c0.018,0.009,1.359,0.854,3.287,1.528l3.891,1.353L418.871,308.269z"/>
		<g>
			<path fill="#EDBF09" d="M279.893,279.669l-41.795-62.253l-0.521,22.351l30.959,47.395
				C268.535,287.156,273.674,283.011,279.893,279.669z"/>
			<path fill="#EDBF09" d="M301.468,314.307l6.511,10.043l-9.932,7.893l-6.666-10.604
				C291.381,321.635,295.562,316.896,301.468,314.307z"/>
		</g>
		<path fill="#EDBF09" d="M230.871,349.047h-85.679l15.43-10.659l-53.302,13.748h122.924
			C230.243,352.135,230.4,350.51,230.871,349.047z"/>
		<polygon fill="#EDBF09" points="503.859,337.279 490.109,349.27 500.566,337.279 498.454,337.279 484.706,349.27 495.161,337.279 
			493.052,337.279 479.302,349.27 489.761,337.279 487.65,337.279 473.902,349.27 484.357,337.279 482.245,337.279 468.497,349.27 
			478.954,337.279 476.152,337.279 464.386,349.047 280.798,349.047 279.793,352.683 495.04,352.683 495.04,349.581 
			508.642,337.279 		"/>
	</g>
</g>
<g>
	<path fill="#BDC2BC" d="M534.992,588.913c-0.739,0-1.34-0.602-1.34-1.341v-16.588c0-0.739,0.601-1.339,1.34-1.339h52.497
		c0.738,0,1.339,0.6,1.339,1.339v16.588c0,0.739-0.601,1.341-1.339,1.341H534.992z"/>
	<g>
		<path d="M558.027,571.51c-2.725,0-4.935,2.21-4.935,4.934c0,2.729,2.21,4.938,4.935,4.938c2.728,0,4.938-2.21,4.938-4.938
			C562.964,573.719,560.755,571.51,558.027,571.51z"/>
		<path fill="#FFFFFF" d="M558.027,580.461c-2.219,0-4.015-1.798-4.015-4.019c0-2.217,1.797-4.014,4.015-4.014
			c2.219,0,4.019,1.798,4.019,4.014C562.046,578.664,560.246,580.461,558.027,580.461z"/>
		<g>
			<path d="M559.402,575.293c0-0.219-0.182-0.398-0.398-0.398h-1.952c-0.221,0-0.401,0.181-0.401,0.398v1.985h0.528v2.338h1.694
				v-2.338h0.527L559.402,575.293L559.402,575.293z"/>
			<path d="M558.695,573.942c0,0.37-0.3,0.668-0.667,0.668c-0.371,0-0.67-0.299-0.67-0.668s0.301-0.67,0.67-0.67
				C558.395,573.272,558.695,573.571,558.695,573.942z"/>
		</g>
	</g>
	<path d="M587.175,569.198h-51.868c-1.157,0-2.102,0.943-2.102,2.102v15.96c0,1.158,0.943,2.1,2.102,2.1h51.868
		c1.158,0,2.102-0.94,2.102-2.1V571.3C589.275,570.141,588.332,569.198,587.175,569.198z M588.644,583.375h-37.865
		c-1.477,2.809-4.417,4.725-7.81,4.725s-6.333-1.916-7.809-4.725h-1.326V571.3c0-0.812,0.658-1.471,1.47-1.471h51.869
		c0.811,0,1.471,0.658,1.471,1.471V583.375L588.644,583.375z"/>
	<g>
		<path fill="#FFFFFF" d="M557.773,584.933c0.1,0.14,0.15,0.302,0.15,0.495c0,0.198-0.052,0.357-0.151,0.479
			c-0.057,0.066-0.14,0.131-0.25,0.187c0.168,0.061,0.294,0.155,0.378,0.289c0.085,0.13,0.127,0.289,0.127,0.477
			c0,0.192-0.049,0.365-0.145,0.519c-0.062,0.104-0.14,0.188-0.23,0.256c-0.104,0.078-0.225,0.137-0.369,0.164
			c-0.141,0.028-0.294,0.043-0.459,0.043h-1.466v-3.256h1.573C557.326,584.594,557.607,584.706,557.773,584.933z M556.009,585.151
			v0.717h0.79c0.143,0,0.257-0.026,0.345-0.08s0.133-0.147,0.133-0.286c0-0.15-0.059-0.248-0.176-0.301
			c-0.1-0.033-0.228-0.05-0.383-0.05H556.009L556.009,585.151z M556.009,586.407v0.869h0.789c0.143,0,0.25-0.02,0.328-0.058
			c0.145-0.071,0.217-0.206,0.217-0.407c0-0.17-0.07-0.285-0.208-0.35c-0.077-0.034-0.188-0.056-0.327-0.056L556.009,586.407
			L556.009,586.407z"/>
		<path fill="#FFFFFF" d="M560.469,584.586h0.771l-1.089,2.034v1.222h-0.68v-1.222l-1.127-2.034h0.8l0.677,1.418L560.469,584.586z"
			/>
	</g>
	<g>
		<g>
			<path fill="#FFFFFF" d="M566.517,584.426h0.776l1.403,2.473v-2.473h0.692v3.545h-0.742l-1.443-2.517v2.517h-0.688
				L566.517,584.426L566.517,584.426z"/>
			<path fill="#FFFFFF" d="M570.425,584.797c0.285-0.292,0.647-0.437,1.09-0.437c0.591,0,1.02,0.195,1.295,0.587
				c0.148,0.221,0.229,0.439,0.242,0.661h-0.741c-0.048-0.17-0.106-0.299-0.183-0.384c-0.132-0.153-0.328-0.229-0.586-0.229
				c-0.265,0-0.473,0.107-0.623,0.324c-0.152,0.219-0.229,0.525-0.229,0.923c0,0.399,0.08,0.696,0.241,0.895
				c0.161,0.197,0.365,0.299,0.614,0.299c0.252,0,0.447-0.086,0.581-0.256c0.072-0.09,0.136-0.229,0.183-0.41h0.736
				c-0.066,0.387-0.226,0.699-0.486,0.943c-0.262,0.241-0.594,0.36-1.002,0.36c-0.505,0-0.901-0.163-1.19-0.489
				c-0.288-0.328-0.434-0.777-0.434-1.353C569.93,585.607,570.095,585.133,570.425,584.797z"/>
		</g>
	</g>
	<g>
		<path fill="#FFFFFF" d="M578.517,586.944c0.022,0.173,0.073,0.303,0.145,0.389c0.132,0.154,0.354,0.233,0.673,0.233
			c0.19,0,0.347-0.021,0.465-0.062c0.225-0.078,0.338-0.226,0.338-0.438c0-0.125-0.055-0.223-0.166-0.291
			c-0.113-0.066-0.285-0.126-0.525-0.178l-0.411-0.088c-0.401-0.093-0.679-0.188-0.829-0.294c-0.254-0.173-0.383-0.448-0.383-0.819
			c0-0.339,0.126-0.619,0.376-0.846c0.249-0.224,0.617-0.336,1.102-0.336c0.401,0,0.748,0.104,1.033,0.315
			c0.284,0.213,0.436,0.521,0.45,0.922h-0.762c-0.014-0.227-0.117-0.387-0.306-0.484c-0.126-0.065-0.282-0.096-0.473-0.096
			c-0.209,0-0.375,0.041-0.499,0.122c-0.126,0.083-0.188,0.196-0.188,0.346c0,0.135,0.062,0.236,0.186,0.303
			c0.079,0.043,0.246,0.096,0.502,0.155l0.665,0.156c0.292,0.068,0.513,0.162,0.655,0.276c0.227,0.179,0.339,0.435,0.339,0.771
			c0,0.351-0.134,0.637-0.4,0.863c-0.269,0.229-0.646,0.344-1.134,0.344c-0.5,0-0.891-0.112-1.176-0.339
			c-0.287-0.224-0.432-0.536-0.432-0.929L578.517,586.944L578.517,586.944z"/>
		<path fill="#FFFFFF" d="M582.542,584.325h0.896l1.34,3.791h-0.858l-0.249-0.778h-1.396l-0.255,0.778h-0.828L582.542,584.325z
			 M582.486,586.681h0.972l-0.479-1.49L582.486,586.681z"/>
	</g>
	<g>
		<circle cx="542.95" cy="579.28" r="7.771"/>
		<circle fill="#FFFFFF" cx="542.95" cy="579.278" r="6.322"/>
		<g>
			<path d="M542.597,578.348l-1.188,0.215c-0.041-0.237-0.131-0.416-0.273-0.537c-0.143-0.119-0.325-0.178-0.55-0.178
				c-0.302,0-0.537,0.104-0.72,0.31c-0.18,0.204-0.268,0.555-0.268,1.038c0,0.539,0.09,0.921,0.271,1.146
				c0.183,0.223,0.426,0.332,0.73,0.332c0.229,0,0.417-0.064,0.562-0.195c0.146-0.131,0.249-0.354,0.311-0.67l1.182,0.199
				c-0.123,0.545-0.354,0.954-0.707,1.229c-0.348,0.276-0.813,0.416-1.399,0.416c-0.668,0-1.197-0.21-1.594-0.629
				c-0.396-0.42-0.592-1.004-0.592-1.746c0-0.75,0.198-1.337,0.594-1.754c0.397-0.42,0.936-0.627,1.613-0.627
				c0.555,0,0.995,0.118,1.322,0.355C542.219,577.497,542.453,577.86,542.597,578.348z"/>
			<path d="M547.477,578.348l-1.188,0.215c-0.039-0.237-0.131-0.416-0.272-0.537c-0.144-0.119-0.325-0.178-0.551-0.178
				c-0.301,0-0.539,0.104-0.72,0.31c-0.178,0.204-0.268,0.555-0.268,1.038c0,0.539,0.09,0.921,0.271,1.146
				c0.182,0.223,0.426,0.332,0.729,0.332c0.229,0,0.417-0.064,0.562-0.195c0.146-0.131,0.25-0.354,0.311-0.67l1.183,0.199
				c-0.123,0.545-0.356,0.954-0.708,1.229c-0.349,0.276-0.814,0.416-1.4,0.416c-0.668,0-1.197-0.21-1.593-0.629
				c-0.396-0.42-0.592-1.004-0.592-1.746c0-0.75,0.196-1.337,0.595-1.754c0.396-0.42,0.934-0.627,1.612-0.627
				c0.554,0,0.994,0.118,1.322,0.355C547.1,577.497,547.337,577.86,547.477,578.348z"/>
		</g>
	</g>
	<g>
		<path d="M569.93,571.719c-2.61,0-4.727,2.115-4.727,4.726c0,2.612,2.115,4.729,4.727,4.729s4.728-2.113,4.728-4.729
			C574.658,573.834,572.546,571.719,569.93,571.719z"/>
		<circle fill="#FFFFFF" cx="569.93" cy="576.447" r="3.846"/>
		
			<rect x="569.488" y="571.955" transform="matrix(0.4225 -0.9063 0.9063 0.4225 -193.3242 849.4399)" width="0.924" height="8.958"/>
		<g>
			<path d="M569.58,579.151v-0.637c-0.444-0.013-0.877-0.14-1.129-0.277l0.197-0.776c0.279,0.153,0.672,0.292,1.101,0.292
				c0.382,0,0.646-0.151,0.646-0.409c0-0.252-0.223-0.41-0.709-0.578c-0.711-0.238-1.196-0.568-1.196-1.215
				c0-0.59,0.411-1.047,1.122-1.181v-0.631h0.65v0.584c0.443,0.015,0.742,0.115,0.968,0.222l-0.199,0.748
				c-0.167-0.079-0.478-0.232-0.954-0.232c-0.434,0-0.571,0.193-0.571,0.381c0,0.212,0.231,0.356,0.798,0.564
				c0.796,0.276,1.107,0.643,1.107,1.246c0,0.591-0.411,1.09-1.182,1.221v0.684L569.58,579.151L569.58,579.151z"/>
		</g>
	</g>
	<g>
		<path d="M581.185,571.784c-2.571,0-4.66,2.086-4.66,4.658c0,2.576,2.089,4.665,4.66,4.665c2.576,0,4.665-2.089,4.665-4.665
			C585.852,573.87,583.761,571.784,581.185,571.784z"/>
		<path fill="#FFFFFF" d="M581.185,580.238c-2.092,0-3.789-1.698-3.789-3.794c0-2.091,1.695-3.79,3.789-3.79
			c2.096,0,3.793,1.696,3.793,3.79C584.979,578.538,583.281,580.238,581.185,580.238z"/>
		<path d="M581.185,573.885c-1.016,0-1.874,0.733-2.182,1.746h-0.294l0.933,1.016l0.93-1.016h-0.348
			c0.215-0.37,0.563-0.616,0.96-0.616c0.65,0,1.179,0.646,1.179,1.443c0,0.793-0.526,1.44-1.179,1.44
			c-0.432,0-0.81-0.289-1.016-0.72h-1.196c0.278,1.068,1.167,1.854,2.214,1.854c1.273,0,2.311-1.155,2.311-2.576
			C583.496,575.034,582.464,573.885,581.185,573.885z"/>
	</g>
</g>
<g>
	<path d="M11.392,586.197c-0.652,0-1.248-0.138-1.786-0.41c-0.539-0.271-1.002-0.631-1.39-1.07c-0.388-0.441-0.688-0.949-0.9-1.521
		C7.106,582.619,7,582.032,7,581.432c0-0.626,0.114-1.226,0.338-1.797c0.226-0.574,0.533-1.08,0.927-1.521
		c0.393-0.44,0.857-0.792,1.396-1.053c0.538-0.26,1.119-0.39,1.746-0.39c0.653,0,1.248,0.138,1.786,0.417
		c0.538,0.275,0.999,0.641,1.382,1.09s0.682,0.959,0.893,1.528c0.213,0.567,0.318,1.144,0.318,1.726c0,0.636-0.113,1.24-0.338,1.812
		c-0.225,0.574-0.534,1.079-0.926,1.517c-0.394,0.437-0.856,0.785-1.391,1.045C12.598,586.066,12.018,586.197,11.392,586.197z
		 M7.675,581.432c0,0.539,0.091,1.057,0.271,1.555s0.437,0.939,0.768,1.324c0.33,0.383,0.724,0.69,1.178,0.92
		c0.455,0.229,0.955,0.344,1.502,0.344c0.563,0,1.072-0.117,1.527-0.355c0.454-0.239,0.846-0.555,1.17-0.946
		c0.327-0.392,0.578-0.834,0.755-1.328s0.265-0.997,0.265-1.51c0-0.538-0.092-1.057-0.277-1.555
		c-0.185-0.498-0.442-0.939-0.773-1.323s-0.723-0.691-1.179-0.919c-0.454-0.229-0.949-0.347-1.486-0.347
		c-0.565,0-1.076,0.119-1.536,0.357c-0.458,0.238-0.85,0.554-1.17,0.945c-0.322,0.394-0.571,0.836-0.748,1.33
		C7.762,580.422,7.675,580.923,7.675,581.432z"/>
	<path d="M23.14,578.299c-0.608-0.681-1.469-1.021-2.58-1.021c-0.918,0-1.587,0.175-2.006,0.523
		c-0.417,0.349-0.628,0.817-0.628,1.407c0,0.302,0.054,0.554,0.159,0.755c0.106,0.202,0.271,0.373,0.496,0.51
		c0.226,0.137,0.513,0.256,0.86,0.355c0.35,0.103,0.761,0.2,1.237,0.299c0.512,0.106,0.97,0.223,1.377,0.352
		c0.404,0.127,0.75,0.289,1.038,0.483c0.287,0.193,0.508,0.433,0.662,0.715c0.153,0.281,0.231,0.632,0.231,1.044
		c0,0.414-0.082,0.775-0.245,1.086c-0.163,0.31-0.392,0.565-0.688,0.773c-0.297,0.208-0.648,0.364-1.059,0.471
		c-0.411,0.104-0.867,0.157-1.37,0.157c-1.463,0-2.704-0.467-3.717-1.401l0.356-0.542c0.396,0.415,0.882,0.743,1.457,0.984
		c0.573,0.242,1.217,0.363,1.931,0.363c0.821,0,1.461-0.147,1.925-0.449c0.462-0.301,0.695-0.754,0.695-1.362
		c0-0.309-0.06-0.57-0.178-0.787s-0.303-0.404-0.551-0.562c-0.247-0.158-0.554-0.295-0.919-0.409
		c-0.364-0.115-0.796-0.225-1.29-0.33c-0.503-0.105-0.945-0.219-1.329-0.338c-0.384-0.117-0.708-0.269-0.972-0.449
		c-0.265-0.181-0.463-0.398-0.596-0.654s-0.199-0.578-0.199-0.967c0-0.423,0.082-0.797,0.246-1.124
		c0.163-0.326,0.391-0.603,0.682-0.826c0.291-0.226,0.64-0.395,1.044-0.511c0.406-0.114,0.854-0.17,1.351-0.17
		c0.607,0,1.15,0.09,1.627,0.27c0.477,0.183,0.909,0.459,1.296,0.828L23.14,578.299z"/>
	<path d="M25.734,586.131v-9.395h3.863c0.396,0,0.763,0.085,1.098,0.251c0.335,0.168,0.624,0.392,0.866,0.669
		s0.432,0.591,0.568,0.938c0.138,0.35,0.205,0.698,0.205,1.053c0,0.381-0.063,0.746-0.191,1.098
		c-0.128,0.354-0.31,0.666-0.542,0.939c-0.232,0.272-0.512,0.492-0.833,0.654c-0.323,0.164-0.683,0.245-1.078,0.245h-3.281v3.546
		L25.734,586.131L25.734,586.131z M26.408,581.963h3.241c0.309,0,0.586-0.064,0.833-0.191s0.456-0.3,0.629-0.516
		c0.171-0.218,0.303-0.463,0.396-0.741c0.092-0.276,0.139-0.565,0.139-0.866c0-0.309-0.056-0.602-0.165-0.879
		c-0.11-0.279-0.26-0.523-0.45-0.734c-0.189-0.213-0.41-0.381-0.661-0.504s-0.519-0.186-0.801-0.186h-3.162L26.408,581.963
		L26.408,581.963z"/>
	<path d="M33.963,586.131v-9.395h3.917c0.397,0,0.764,0.085,1.098,0.251c0.335,0.168,0.622,0.392,0.859,0.669
		c0.238,0.277,0.426,0.591,0.563,0.938c0.137,0.35,0.204,0.698,0.204,1.053c0,0.344-0.054,0.676-0.159,0.998
		c-0.105,0.324-0.254,0.611-0.45,0.867c-0.194,0.256-0.427,0.467-0.7,0.635c-0.273,0.169-0.572,0.277-0.899,0.331l2.341,3.651
		h-0.781l-2.274-3.547h-3.043v3.547L33.963,586.131L33.963,586.131z M34.636,581.963h3.295c0.299,0,0.571-0.064,0.819-0.197
		c0.247-0.132,0.458-0.307,0.636-0.522c0.176-0.216,0.311-0.462,0.402-0.741c0.093-0.277,0.141-0.562,0.141-0.853
		c0-0.3-0.056-0.589-0.166-0.866c-0.11-0.276-0.261-0.522-0.45-0.733c-0.189-0.212-0.409-0.382-0.661-0.511
		c-0.252-0.127-0.523-0.192-0.814-0.192h-3.201V581.963z"/>
	<path d="M48.899,585.521v0.608h-6.258v-9.395h6.139v0.61h-5.464v3.688h4.775v0.582h-4.775v3.903h5.583V585.521z"/>
	<path d="M50.421,576.736l3.281,5.199l3.308-5.199h0.742l-3.706,5.849v3.546h-0.674v-3.572l-3.69-5.821L50.421,576.736
		L50.421,576.736z"/>
	<path d="M59.126,586.131v-9.395h3.122c0.741,0,1.392,0.124,1.951,0.371c0.561,0.248,1.025,0.583,1.396,1.007
		c0.371,0.423,0.647,0.919,0.833,1.487c0.185,0.567,0.277,1.175,0.277,1.819c0,0.715-0.104,1.36-0.311,1.938
		s-0.505,1.07-0.894,1.481c-0.388,0.409-0.857,0.729-1.41,0.953c-0.552,0.224-1.167,0.337-1.845,0.337L59.126,586.131
		L59.126,586.131z M66.031,581.421c0-0.592-0.083-1.137-0.251-1.635c-0.167-0.498-0.412-0.93-0.733-1.291
		c-0.322-0.359-0.718-0.644-1.185-0.848c-0.466-0.202-1.005-0.303-1.614-0.303h-2.447v8.177h2.447c0.617,0,1.162-0.104,1.633-0.312
		c0.473-0.206,0.866-0.495,1.185-0.865c0.316-0.37,0.559-0.805,0.722-1.303S66.031,582.003,66.031,581.421z"/>
	<path d="M67.288,586.131l3.996-9.395h0.555l3.997,9.395h-0.728l-1.311-3.097h-4.484l-1.311,3.097H67.288z M71.562,577.557
		l-2.09,4.922h4.141L71.562,577.557z"/>
	<path d="M80.148,576.802h0.661l1.401,3.413l1.403-3.413h0.661l-1.654,3.956l1.971,4.577l3.6-8.601h0.742l-4.023,9.395h-0.62
		l-2.063-4.829l-2.077,4.829h-0.622l-4.008-9.395h0.728l3.612,8.601l1.945-4.577L80.148,576.802z"/>
	<path d="M91.05,578.008v8.123h-0.675v-9.394h0.518l6.588,8.27v-8.255h0.675v9.379h-0.622L91.05,578.008z"/>
	<path d="M100.297,586.131v-1.125h0.583v1.125H100.297z"/>
	<path d="M102.401,581.368c0-0.563,0.098-1.127,0.298-1.688c0.197-0.561,0.486-1.062,0.866-1.502c0.379-0.44,0.844-0.8,1.395-1.077
		c0.552-0.277,1.181-0.418,1.887-0.418c0.838,0,1.552,0.192,2.144,0.576c0.591,0.383,1.027,0.877,1.309,1.475l-0.556,0.318
		c-0.159-0.327-0.351-0.601-0.576-0.82c-0.224-0.221-0.466-0.399-0.727-0.537c-0.261-0.137-0.533-0.234-0.814-0.298
		c-0.281-0.062-0.562-0.092-0.833-0.092c-0.6,0-1.129,0.121-1.589,0.364c-0.458,0.241-0.847,0.558-1.164,0.944
		c-0.316,0.39-0.557,0.826-0.722,1.316c-0.164,0.489-0.245,0.981-0.245,1.475c0,0.558,0.097,1.086,0.291,1.59
		c0.195,0.502,0.459,0.945,0.795,1.328c0.334,0.383,0.731,0.691,1.19,0.919c0.458,0.229,0.951,0.346,1.48,0.346
		c0.282,0,0.571-0.036,0.866-0.106c0.296-0.069,0.583-0.18,0.86-0.329c0.277-0.15,0.536-0.343,0.774-0.576
		c0.238-0.232,0.437-0.51,0.594-0.827l0.569,0.278c-0.159,0.352-0.372,0.665-0.642,0.939c-0.271,0.271-0.57,0.502-0.906,0.688
		c-0.335,0.186-0.689,0.324-1.065,0.416c-0.375,0.092-0.742,0.139-1.104,0.139c-0.644,0-1.233-0.141-1.768-0.423
		c-0.532-0.281-0.994-0.649-1.382-1.104c-0.387-0.455-0.689-0.972-0.905-1.549C102.509,582.555,102.401,581.969,102.401,581.368z"/>
	<path d="M115.882,586.197c-0.652,0-1.247-0.138-1.785-0.41c-0.538-0.271-1.001-0.631-1.39-1.07
		c-0.388-0.441-0.688-0.949-0.898-1.521c-0.212-0.572-0.317-1.16-0.317-1.76c0-0.627,0.112-1.225,0.337-1.798
		c0.224-0.573,0.534-1.081,0.926-1.521c0.394-0.44,0.857-0.792,1.396-1.052c0.539-0.261,1.121-0.391,1.747-0.391
		c0.65,0,1.247,0.139,1.786,0.416c0.538,0.276,0.999,0.643,1.381,1.091c0.384,0.45,0.682,0.959,0.894,1.529
		c0.211,0.566,0.317,1.144,0.317,1.726c0,0.635-0.113,1.239-0.337,1.812c-0.226,0.572-0.534,1.077-0.928,1.514
		c-0.393,0.438-0.854,0.785-1.389,1.046C117.087,586.066,116.509,586.197,115.882,586.197z M112.164,581.432
		c0,0.539,0.09,1.057,0.271,1.555c0.181,0.498,0.436,0.939,0.767,1.324c0.331,0.383,0.724,0.69,1.178,0.92s0.954,0.344,1.501,0.344
		c0.564,0,1.073-0.117,1.527-0.355c0.456-0.239,0.845-0.555,1.171-0.946s0.578-0.834,0.754-1.328
		c0.175-0.494,0.266-0.997,0.266-1.51c0-0.538-0.094-1.057-0.278-1.555c-0.186-0.498-0.443-0.939-0.774-1.323
		s-0.724-0.691-1.178-0.919c-0.455-0.229-0.95-0.347-1.488-0.347c-0.563,0-1.075,0.119-1.534,0.357s-0.851,0.554-1.172,0.945
		c-0.321,0.394-0.57,0.836-0.748,1.33C112.252,580.422,112.164,580.923,112.164,581.432z"/>
	<path d="M130.659,586.131v-8.123l-3.704,6.338h-0.423l-3.705-6.338v8.123h-0.675v-9.394h0.675l3.916,6.722l3.916-6.722h0.675v9.394
		H130.659L130.659,586.131z"/>
</g>
</svg>
