<?xml version="1.0" encoding="utf-8"?>
<!-- Generator: Adobe Illustrator 16.0.0, SVG Export Plug-In . SVG Version: 6.00 Build 0)  -->
<!DOCTYPE svg PUBLIC "-//W3C//DTD SVG 1.1//EN" "http://www.w3.org/Graphics/SVG/1.1/DTD/svg11.dtd">
<svg version="1.1" id="Layer_1" xmlns="http://www.w3.org/2000/svg" xmlns:xlink="http://www.w3.org/1999/xlink" x="0px" y="0px"
	 width="595.275px" height="595.279px" viewBox="0 0 595.275 595.279" enable-background="new 0 0 595.275 595.279"
	 xml:space="preserve">
<metadata><?xpacket begin="﻿" id="W5M0MpCehiHzreSzNTczkc9d"?>
<x:xmpmeta xmlns:x="adobe:ns:meta/" x:xmptk="Adobe XMP Core 5.3-c011 66.145661, 2012/02/06-14:56:27        ">
   <rdf:RDF xmlns:rdf="http://www.w3.org/1999/02/22-rdf-syntax-ns#">
      <rdf:Description rdf:about=""
            xmlns:dc="http://purl.org/dc/elements/1.1/">
         <dc:format>image/svg+xml</dc:format>
         <dc:title>
            <rdf:Alt>
               <rdf:li xml:lang="x-default">NFL Logo Redesigns</rdf:li>
               <rdf:li xml:lang="en_us">NFL Logo Redesigns</rdf:li>
            </rdf:Alt>
         </dc:title>
         <dc:creator>
            <rdf:Seq>
               <rdf:li>Max O'Brien/Osprey Dawn</rdf:li>
            </rdf:Seq>
         </dc:creator>
      </rdf:Description>
      <rdf:Description rdf:about=""
            xmlns:xmp="http://ns.adobe.com/xap/1.0/"
            xmlns:xmpGImg="http://ns.adobe.com/xap/1.0/g/img/">
         <xmp:CreatorTool>Adobe Illustrator CS6 (Macintosh)</xmp:CreatorTool>
         <xmp:ModifyDate>2013-10-06T18:26:52+13:00</xmp:ModifyDate>
         <xmp:MetadataDate>2013-10-06T18:26:52+13:00</xmp:MetadataDate>
         <xmp:CreateDate>2013-10-06T18:26:52+13:00</xmp:CreateDate>
         <xmp:Thumbnails>
            <rdf:Alt>
               <rdf:li rdf:parseType="Resource">
                  <xmpGImg:width>256</xmpGImg:width>
                  <xmpGImg:height>204</xmpGImg:height>
                  <xmpGImg:format>JPEG</xmpGImg:format>
                  <xmpGImg:image>/9j/4AAQSkZJRgABAgEASABIAAD/7QAsUGhvdG9zaG9wIDMuMAA4QklNA+0AAAAAABAASAAAAAEA&#xA;AQBIAAAAAQAB/+4ADkFkb2JlAGTAAAAAAf/bAIQABgQEBAUEBgUFBgkGBQYJCwgGBggLDAoKCwoK&#xA;DBAMDAwMDAwQDA4PEA8ODBMTFBQTExwbGxscHx8fHx8fHx8fHwEHBwcNDA0YEBAYGhURFRofHx8f&#xA;Hx8fHx8fHx8fHx8fHx8fHx8fHx8fHx8fHx8fHx8fHx8fHx8fHx8fHx8fHx8f/8AAEQgAzAEAAwER&#xA;AAIRAQMRAf/EAaIAAAAHAQEBAQEAAAAAAAAAAAQFAwIGAQAHCAkKCwEAAgIDAQEBAQEAAAAAAAAA&#xA;AQACAwQFBgcICQoLEAACAQMDAgQCBgcDBAIGAnMBAgMRBAAFIRIxQVEGE2EicYEUMpGhBxWxQiPB&#xA;UtHhMxZi8CRygvElQzRTkqKyY3PCNUQnk6OzNhdUZHTD0uIIJoMJChgZhJRFRqS0VtNVKBry4/PE&#xA;1OT0ZXWFlaW1xdXl9WZ2hpamtsbW5vY3R1dnd4eXp7fH1+f3OEhYaHiImKi4yNjo+Ck5SVlpeYmZ&#xA;qbnJ2en5KjpKWmp6ipqqusra6voRAAICAQIDBQUEBQYECAMDbQEAAhEDBCESMUEFURNhIgZxgZEy&#xA;obHwFMHR4SNCFVJicvEzJDRDghaSUyWiY7LCB3PSNeJEgxdUkwgJChgZJjZFGidkdFU38qOzwygp&#xA;0+PzhJSktMTU5PRldYWVpbXF1eX1RlZmdoaWprbG1ub2R1dnd4eXp7fH1+f3OEhYaHiImKi4yNjo&#xA;+DlJWWl5iZmpucnZ6fkqOkpaanqKmqq6ytrq+v/aAAwDAQACEQMRAD8A9U4q7FXYq7FXYq7FXYq7&#xA;FXYqo3d7aWkfq3MyQp2LkCvy8cVY5qP5haRaqzQo0ypu0jkRR08eTb/hirANe/5yH8v2RZDqtpEw&#xA;6JbBrp6+BKB1r8wMNFgckR1YHqv/ADk/ZsWFv+kLk+IKW6H/AIFq/wDC4eFgc4Yxef8AOR1/KSIt&#xA;IqOxmumeu/cBF/Xh4WHj+SGX8/deeNpF0aFo0pzcNIQtelTTbHhXxz3Nwf8AOQ+qIxL6REf9SZ0P&#xA;3lWx4V8c9ye6d/zk2UI+sWd7bDv6FyJfHswiBx4WQzjuZnov/OTOhTcVl1JoSekd7bn8XiDD72wc&#xA;JZDNF6Lof5taTqcYeIw3cf7UtlMslPmtTT6WyLYCDyZTZeaNDvKCO5WNz+xL8B/HY/QcUpqCCKjp&#xA;irsVdirsVdirsVdirsVdirsVdirsVdirsVdirsVdirsVdiq2WaKGNpZXEcaCrOxoAPcnFWAecvzX&#xA;0rRrSSYXEdrbJUG8m6sfCKPqx+ivtjSDIDm+dfOX/OQmoXk0i6HEamoOoXnxuf8AUjrxX25V+WTE&#xA;XHln7kBof5T/AJ0fmJIl3dxzxWUhqt7qjtBAB4xxULkf6kdMNgMRCUnrflj/AJxB8rWqrJ5i1a51&#xA;OYbtDbBbWH5En1JG+YZcjxNgwDq9I0v8nPym0GEyw+XbBUiXk894ouSoXcsXuTJx+eCy2DHEdEnT&#xA;82/y8t9RfSfKGm/pq8t9pX0uKCCzh26yXkrQwKtB1UnGkcY6MttfPXlwQqdT1XS7C5YVNv8AX4JC&#xA;AfFj6f4Y0y4gqnzb5GvSIjrOmXJHxBPrNvJTtWnI40vEFCfyT+XesxcpdD0m+jNP3n1a3k7bUYKa&#xA;bHxxteEFjGrf845flBqIJ/QYs5T/ALttJpoqfJOZj/4XHiLE4osH1f8A5xB0ZZDceW/MV5p86nlE&#xA;LlEmofAPEbdl+e+HiYHB3FIrr8vf+civKI5WskHmmwT9hX9WTj7iX0ZyfZWbHYrUx5t6H+f11o14&#xA;NO8w2V75dvUNJIpkd4h2q0bqsi/8AfnjwpGbv2ew+WvzZ0nVrdZg8V1CaVuLRw4Ff50Jqp+n6Mi2&#xA;gg8maWOqWF+nO0nWUdSoPxD5qdxilFYq7FXYq7FXYq7FXYq7FXYq7FXYq7FXYq7FXYqp3FxDbwST&#xA;zMEijUs7HsBirwP84fzoi0mL0lpNeSVNjpvKgUdBNPTt4Dv0Hc4QLa8mTheR+T/y0/Mn83NT/Sl1&#xA;K0GlBir6rcgiBBXeO2iFOZHgtB/MwOTsBxxGUzb6Z/L/APInyB5MWOe3sxqOrJQnU70LJIGHeJKc&#xA;IvbiOXiTkCXIjjAeh4GxLPMvmXRfLWi3Os6zcra2FqvKSRupP7KIvVmY7Ko64oJAFl8d/mv+bfnf&#xA;8wYLm5t4J9O8kW0qxRwLVY5JCar9Yl2WWU05CMGigbDYsbAKcSczL3MG8teRPM/mM8tMs2a3Bo13&#xA;IfThBHX42+0R4LU4SWMYE8meWX/OPWpOoN9rEMLd1gieYfezQ/qyPE2jAe9H/wDQvNn/ANXuT/pH&#xA;X/qpjxJ8DzUT+QWpWsgm07zDwmX7Lei8JG9R8SSOceJfA80ws7P/AJyI8s0OkeYZNQiT7MDXH1ha&#xA;eHp3q8R/scbC8ExyLK9F/wCcnPOGhypbfmB5YkWGoU6hZo0TU8fTkLRSH/VkXHhSMpHMPbvJv5g+&#xA;UPOVkbry9qMd3wH7633SeL/jJE1HX50oexyJDbGQPJMdc8u6Dr1obPWtPt9Rtt6RXMayAE915A8T&#xA;7jfAkgHm8c8z/wDOLWjidtS8i6rceXdSXdIGd5bc714h6+sgPerOPbJcTUcPdswa880fmv8AlzcI&#xA;nnbSHubFW4xa5ZEUO9AfUjpHU9lYI2NAo45R5vVPI/53aTrUSiK6S+2q8RpHdIB15RmnKnj+OAht&#xA;jMHk9M03WNO1KPnaTByPtRnZ1+anAyRuKuxV2KuxV2KuxV2KuxV2KuxV2KuxVAatrmnaXHyuZPjI&#xA;qkK7u3yH8Tirxz8yPzz0bTo3tLqYczQjTLakkzU3HqMaBPpp8jhAthLIIvlfW9dfWPMdzrF7GZFu&#xA;J/Va3Lkfugfhi5gVACDjXLAHDlKzb6b0D/nLP8ure0tbGTQ7/TLeGNYo4rZIJIYlXYKtHiPEDwX6&#xA;MhwuQM4ezeVfOPlvzVo66voN6l7YklXdaqyOoBKSIwDIwB6Ee/TIkN0ZA8njPnj89PzP8u6m19b6&#xA;BZ3PluQP6UYE8lxEqbhrmRDwQkbkBSo6cjSpkAGqc5Dps8u8wzfmf+cmnTeYmQ3lvYTfVbDQtMQS&#xA;CGRihLSxmT1EDoxIlIapUr8Ipktg1Hinuq/nhPI+keQvJ/ow/wCJdKs3j1TTNOAZI7i4MSww+nEW&#xA;X1zwPML1J9xiFydB1TvSJ/z5tbGC3h8iBLSJFSGJYJYSqrtTi0u33YKDMSn3JovnbzjplD5p8lap&#xA;ptstBJfwxSTQrt1b4AAP9kcFMxkPUMr0zVNO1SyjvdPuEubWUVSWM1HyPcEdwci2A2i8UuxVbJGk&#xA;iMkih0YUZWFQR7g4qxi6/LvQfr8eqaOZdB1iE8ob/TW9BgfdB+7YH9oU3w21nGOmz1PyP5z1Z4jp&#xA;/miSF7qIAQatCPSjuB0/ew9IpP8AVJQ/5PTFkL6s8BBAINQdwRgZMK/M3yh5y8x6VJb+XPMf6IZ4&#xA;mjmsp7aCe2uAezu0byx1rQkVH+ThBYTiTyL4s83+SPO3kXWFj1m0l0+55lrW9hNIZCD9qCWOi/QK&#xA;EdwMsBtxJRMS9c/KTzj5j1O2jL6nb38sFPWVi9vfwb05fCGSVfBtj4mu2QkHIxSJe66L57kTjDqi&#xA;806C5QfEP9ZR1+jItzM7e5t7mFZoJFlif7LqajFVTFXYq7FXYq7FXYq7FXYq7FWNecPONrodtIBI&#xA;iTIhkllkICQoBXm9dumKvmHzD+ZXnHz1rx8v+RYZ7ie4YiS9TaaQDYuGaggjH8xIP+r0yYFc3Glk&#xA;JNRZX5a/5xp8raOi3nn/AFR9Q1B/jbSbBiqVO5Eku0j/ADHD5nAZMo4O9mMuneSNM0u5g8t+S9KF&#xA;2sEgs2uoYpneXgfSV5JVZqFwK8nOC2zgAGwYPZaLo/n/AMnTya/5PsvLuuxTzWgvLC2ewdZogrB/&#xA;TJ+MfvArK9e9KbUJNNcYiQ3FFIP+cZPME3lr8zb7yxqMwhg1KOS0khc0Q3ls1Y+u1SokUeNcMuTD&#xA;EalT3XzN5PntBM0cf1nTZAwcU5FUYbq48Kd8g5T5v1T8t5fK3muHUDY3ereUpJD9ahsHdLqOJ6gr&#xA;8B5VjryU/ZNPipkwXFljo+T3T8qfy8/Iq21GPXfLNx+kdThq8IvpiZ7cnav1d1iZWFaBmSo7HASW&#xA;2EI8w9emv7GBeU1xFGPFnUfrORbUlvvPGi29VhL3Tj/fYov/AATU/DFWG3155dubqe7j0WO0u7mn&#xA;rXNu/BnI6NIoUJI3uwrTauKKSw0rt0xS7FXYq7FXYqmuj+ZNS0tgsT+pb97d91/2P8v0Yqz7RvMO&#xA;n6rH+5bhOBV7dvtD3HiPcYqqa5oOja9pk2l6xZxX1hOKS28y8lPgR3Vh2Ybjtigi3yt+an5C+YPI&#xA;N2fNfkqae40i3YyyIp5XNoO/Kn97DTqadPtCm+TBtxp4zHcJp+W/5qaf5k9PT9SAttZUbxqeKTgd&#xA;TETWjU6r93sDFtx5b973by9pDLGt9oupn0mNJbaZKitPsvRhv7jItrLV5cRyADU+IA1FfY7Yq3ir&#xA;sVdirsVdirsVdiqje3SWtpNcv9mFGcjx4itMVfI35067rnmHzNY+TdL5TXmoyRvcxqaepNO9Io2P&#xA;ZV+0a7dD2ycR1cfNIk8Iew+WfK+kflloCaDowWTWrhEfWtWI+N5KfZSv2VFfgXsP8ok5Em22EBEK&#xA;Du7uXdizsasxNSSe5JwM2sVSPzT5+8veX0jXV74+sF/c2q1ll4+yD7I9zQYQGEpgc3i/mvzP+Vuv&#xA;ahJf/o/U7W8kIZ7m3MKc2A+0yM0i1+VDkwC48pRKdeWvzY8y6UAuheerkRxg8dO8wQerEwH7AmDX&#xA;PH2oVxpIn3H5vTPJnno+dNHbVpbGOwvIpWtryO3NYHlQK3qRAklVZXG1Tv3yBFN+OfEE+wM3Yq7F&#xA;XYq7FXYq7FXYq7FXYqi9Kure2vY5bhGaMHdo2KSIf5kII3HgcVerWkscttHJHL68bLVZdviHjsAM&#xA;VVSARQ9MVfM356/849SWzzeb/I0HpCKs+oaTBVWQr8RntQv3sg6fs+GTEnHyYuod+SP5xzXrLY3r&#xA;gatAoEiE0W7iUbuPCRe/3jaoAkGeLJex5vpKyvbe9tY7m3blFIKg9x4g+4yLar4q7FXYq7FXYq7F&#xA;XYqkfnSZo/L84HWRkSvsWBP6sVfOn5K2kes/85D6/qd0OX6Hiu3iZuzxulkv/JNmpkzyceG8y9Hv&#xA;bp7u8muX+1M7OfaprT6Mg5CGlliijaSV1jjQVd2ICgeJJxV5r58/OXStMgksvL8qX2ptVfrK/FBD&#xA;716SN4AbePhkhFpnmA5PCby8ur26luruVp7mZi8srkszMe5Jybik2ogEkACpOwAwoZL5g0yHy9pl&#xA;vpM8SNrl2q3OpM6hmto2FYbda14uR8chG+4HStQGchQrq96/LHQZNE8l2FtMnC6mBubhTsQ8x5AH&#xA;3VOIPyysndy8caiyrAzdirsVdirsVdiqlcC4MLfV2VZqVQuCVr4NShocVKC0/XILm6k0+dDaanCO&#xA;UlpJ+0laerC1AJIz/MOnRgDthpiJJlgZOxV2Ksj8peYzp84tLlv9ClOxP+62Pf5Hv9+KvQwQRUdM&#xA;VUL975LKd7CKOa8VCbeGZzHG7gbKzqrlQfHiaeGKl8IfmXq9tF58mv8ATNDm8pazbTE6hpomWaOO&#xA;6Rq+pCypHRX6lace42OWBwpHfbZ9Efkx+aMWp2INz+5lUiLVLQ1BimptKqnfi/8AZ2yBFOVCfEHt&#xA;wIYBlNQdwR0IwM3Yq7FXYq7FXYq7FUg87qzaBIR0V0J+XKn8cVfPH5DBbP8AN3z5an4JDZX0kIP8&#xA;oukI6+zg5M8nHx/WUf8AmL+Ydp5SskSNFuNWuQTbWxPwqo29SSm/GvQd/vyIFtmTJwvKLby7+Zn5&#xA;hOL66lb6ixrFLcsYrYf8YolBr8wvzOTsBoEZTR9/+Rmoado1/qV3qccjWVtLcCCCNjzMaFqcmK0G&#xA;3hg4knDQt5fk2h675J8k2nlXRpPOvmhKTW6erp9g/VWbaNnB/wB2MSOI/Z6nfpAm9nIhDhHEUy/L&#xA;TyQmuTyedvMafWLq9naeyt2r6a0b+8ZT13FEHQAV8KJPRljhfqL1rIN7sVdirsVdirsVdirsVS3X&#xA;fL1hrlqkFw721xC3qWOowbT20tKepGaio/mStGHgaEEFjKNpBo3m3UNO1z/Cfm8R2+tgK1jfR/7z&#xA;X0T/AN3JGdqM/h47bN8OEhhGe9HmzHItrsVdirOvJPmD14xply1Zox/o7H9pB+z81/VirLMVeFf8&#xA;5N/lMmvaI3m/SYf9zWkx1vo0G9xaJuTt1eH7X+rUdlyUS05oWLeafkx57hvlXQdTK/pKCPhYXTAc&#xA;5YF39Et1JSlR4j5YyCMM72L6g8mvffoxEmdJrYCtvMjVKjoY2BANV/z7ZFvZBirsVdirsVdirsVQ&#xA;es2RvdLurUCrSRngP8obr/wwxV8wGT/Cn566dqklY9P8yQSWM79B60sXoBfokETH55IcmiW0770p&#xA;8peUT+YPnjUvMOpIbnTobs2um2ZHwy+lsgau3BVoWHQkmvepJpEY8RJL6h0Dydp2nQIZ40nuQANw&#xA;DGlP2UXpt45ByHnX/OQGvW1j5e1QAhfRs3tlpt++uvgAA9uYOEc2GQ1Evnf8lvKcOs+Ynv7uPnZ6&#xA;UFlCn7LTsf3QPsOJb6Bk5Fx8MbKb+eNcn8++c7LyrpEhbSoJqSzJursv97NXoVjSoXx+kYAKDKcu&#xA;KVB7VaWkFnaQ2lugjt7dFiiQdAiDio+4ZByQFbFXYq7FXYqsSWN2dUcM0Z4uAQSpoDQ+BoQcVX4q&#xA;7FXYq7FUD5m8lab570FtAu2SDU4uUug6g1f3NwRUxORv6UtKEdjuBXCDTCcOIPOPIX5h6lp+qyeT&#xA;vOYa21S0kNtFczbNzQ8fSmboT/K/7X4kkNePJ0L1XIt7sVXwzSwTJNExSSMhkYdQRir1PQtWj1TT&#xA;o7laCQfDMn8rjr9B6jFUwIBBBFQdiDir4f8Azw8g3H5efmD6+lBrfS71vr2jSpt6TKwLxL/xic7f&#xA;5JXLAbcPJHhOz3T8kfzPg1nTY5ZmVGYiHUYa7RTgbSAfyOP8/hyBFOTCfEHtmBm7FXYq7FXYq7FX&#xA;Yq8U/PP8uv0xYTLbAJO7G602b7PC5Xdk5dg/+fTCDTDJHiCA/wCca7Ew6Hp0UsRjurdrz6zGwoyy&#xA;rPIhDA9wKDGXNGIel7fquoR6fp812+/pr8K/zMdlH0nA2PjL8+/Ocmqa0mixS+oloxnvmHRrmQbL&#xA;/sFP3sR2ycQ4uaVmkln1+70Ty5F5O0FWbVLwmTW54VLS+rIKfVY+O/wKAr071A74aY8VCgl9h+XH&#xA;5jhfrFppdzAafa5rA9CRtRnRvoxsIGOSCv5/Pnl+4WO8uNR06Vt0LSzRhuxKsDRvow7IPEE98sfm&#xA;x58gvYbb62mopIwRYL0oAxPb1jwZSexZqYDEMo5ZPb/LHmqHWklgmtpdO1a1p9c024FJEr0ZTQc0&#xA;PZhkCHKjK09wMnYqlOuwX8UTanpUfq6jbLU2u4F1Eu7Q7V+PqYzTZtujNhDGXeFbQdc07XNKg1PT&#xA;5PUtp1qP5lb9pHHZlOxwEJjIEWmGKXYq7FW1ZlYMpIZTUEdQRirDf+chvIcfmPyxF+YGmxj9K6aq&#xA;2+vRIBWSFaKs1B3jqK/5B/yclEtGaHVjX5P/AJkvqKR+XdXl5X0a0sLlusqKP7tz3dR0Pce/VkFx&#xA;ZL2L1bIt7sVTvyjrH6P1NUkaltc0jlr0B/Zb6D+GKvS8Vec/n1+X485fl/eQ28PqaxpgN7phH2i8&#xA;Y/eRCnX1Y6qB/Nx8MMS15I2Hx5+XvnCbyv5hiuySbCakV/EO8ZP2gP5kPxD7u+WEW42OfCX3J5G8&#xA;wRappiReqJZIkVo5AaiSFh8Dg9/D7sqc1kuKuxV2KuxV2KuxVB6vpkOpWEtpLtzFUf8AlcfZbFWG&#xA;+RtPNn5jvInjEUyRuZQBSr8kWp8ajviqP/Mm6eHTIAN05PIw6V9Ndh/w2KvhG2Gr63r6G3DTarf3&#xA;HNCOplduRap6UO9e2WuALJfVf5Q/k7YaXYg0BmIH17UaVkkfqY4iR8KD/b3ysm3MhAResx+T/LyI&#xA;F+q8/FmdyT+OBmxbz1+Wuj3+jzp9XFxZlSZ7ST4qAD7cbH4gy9etcUEA83xj558qTeWPMU+mMxkg&#xA;oJbSY9XhevEn3BBU+4y0G3CnHhNPcPyo1iPX/LFpe3aiTVNLL2LXJ/vClFYVPUhl41r1Ir1yEnJx&#xA;GwzJr23S9jsnbjcTRvLEp/aWMqHp/q81r88i2WiMUuBINR1xV5drN4fy9/MRLihj8q+aR9YdQKRw&#xA;XIbhOVA2HB6MQOiOPAZPmHHJ4JeReoKysoZSCpFQRuCDkHIbxV2KuxVkvlFVYzWtzGs+makrWtzG&#xA;wqvIqaK48HUke+Kvj78xvKd75D8/3+kxO8f1KcT6Zc9GMLH1IHDeIGx/ygctG7gyHCXvHkDzbF5o&#xA;8uwX+y3kf7m+iH7MqjcgfysPiGVkU5cJ8QZJgZuxV6f5W1Q6hpETuazw/upvElRsfpGKpvir4R/P&#xA;fyUvlL8ydTs4I/T069Iv9PAFAIrgksg9kkDoPYZYC4WSNFn/APzjx+YcsarpE78rrTvjtQx/vLVj&#xA;R4/9hXb2I8MjIN2Gdin1XbzxXEEc8TcopVDI3iCK5FvVMVdirsVdirsVdiqGXT4F1Jr9RSZ4vSkp&#xA;0YAgg/MUpiqT+eLA3OjGZRV7Vg5Hip+Fv11xV4v+Wf5M6dpvmC6urR2nlmZuErqAtrbsa8F3PJu1&#xA;e/tvhJtrhjETb6Es7SC0to7aBeMUQ4qP4n3OBsVcVcQCCCKg7EHFXx//AM5K6VBBdWE6CjQT3NoT&#xA;3KAgr93E/fk4uPnHJZ/zj07Gw1pK/CJYCB7lXr+rGS4Oqdfm3q8+hv5d1yH7VnesrqOrRyRn1E/2&#xA;SqRgizymqL0CCaKeGOaJg8Uqh43HQqwqD92RbV+Ksc/NHyqPMn5aar6SctQ0BhqtpQVJiA4XS/L0&#xA;6P8ANRkolqyxsMe/JbzY2seXG025fle6TxjBPVoGr6R/2NCv0DxxkEYZWKeiZFudirsVT/yXqAt9&#xA;WW3k3hu6IQenNTyjP37YqwH/AJy78li60PTfN1vHWfTn+pXzAbm3mNYmY+CS1H+zyUS0Z47W8P8A&#xA;yf8ANR0TzVHazScbDVKW84P2RJ/ul/8Agjx+ROSkGrFKi+j8rcx2Ksk8i6j9X1VrVjSO6WgH+Wm6&#xA;/hUYq9CxV8kf85aebPL2reaNO0jTws2oaKk0eo3aEFQ0pUi326tHwJPgWp1rk4hxc8gSxH8iNCmv&#xA;fNj6nxPo6bE1CK7yzgxqvv8ACWOGRRhjvb7a0iz+paZbWp+1FGA/+sd2/HK3LReKuxV2KuxV2Kux&#xA;V2KrZoo5onikHKORSjjxDChxVCaRpNrpdoLe3Fe8kh+07eJxVG4q7FXEgAkmgG5JxV8gf85KanFP&#xA;Lp0S7vcXFzdEeC1UD7+Z+7JxcfOeS/8A5x9tSuh6pdU2muViB/4xRhv+ZmCScA2d/wA5BS00HS4q&#xA;faumav8Aqxkf8bYxXPyZV+Veotf+QtJkc1khja3b2EDmNf8AhFGCXNniNxDLMDYyDyZCsupPDNGJ&#xA;LW7hlt5VYVVgQGZT8wMVfLXlJ5fJP5uXGjzORBHeT6TOzftL6hSN/wDg1Rq+GWHcOJA8Mn0Llblu&#xA;xV2KropXilSWM0eNgyHwKmoxV6L5o0O083+Sb/SZQPS1ezZI2P7Ejryjf5pJxb6MQiQsU/PS4gub&#xA;O6kgmVobm3do5EOzI6GhG3cEZa4D6l8i+YRr/lWw1JmrO8fp3X/GaP4X+8jkPY5WQ5sJWLT/AAM1&#xA;S2uHt7mK4j+3E6uvzU1xVLvz2/5yAtvLlk/l/wAsTLL5huox9Yu1IK2Uci1HTrMQfhH7PU9hkoxa&#xA;cuStg+R1W4urkKoae5negG7O7ufvJJOTcV9gfkT+Xg0XTLaKZAZYSLm/cbhrlx8KA9wgAH0e+Vk2&#xA;5uOPCHteBm7FXYq7FXYq7FXYq7FXYq7FXYq7FUj836qLHSXRT+/uqxRjuAR8bfQMVfDX5p+Zk1/z&#xA;fczQOHsrQC1tWHRljJ5MPHk5Yg+FMsiHCyysvbfyp0dtL8jadG68ZrlTdS9t5jyT/knxGQlzcnEK&#xA;iwb/AJyGuwZdEtB1VbiVx7MY1X/iJyUWrOeTI/yKdm8jkHol3Mq/Lih/WcEubPD9L0TItzMPy7NZ&#xA;L1SAQBGy17H4xUfQcVfKn/ORtmdP/OXWpIf3frG2uoyNqM1vGWYf7ME5ZHk4eX6ntmgamuqaJYak&#xA;tP8AS7eOYgdmdQWH0HbKy5cTYtH4pdirsVek+Srn1tAhUmphZ4z9B5D8GGKvjj/nIryyNB/NfVhG&#xA;nC21ThqUHv8AWK+qf+R6yZZHk4eUVJN/+cftcIk1PQ5G2IW8t19xSOX76pgkGzBLo9lkkjjjaSRg&#xA;kaAs7sQAAOpJOQch5F+YH50wxrLpnld/UlNUm1P9lexEIP2j/l9PCvXJiLj5M3QPF5JJJZGkkYvI&#xA;5LO7ElixNSST1JybjvbfyL/Ky8ubu312+gPry/8AHLt3FOKnrcPXoKfZ+/wyEi5GHH1L610nTINN&#xA;sY7SHcLu792Y9WOQchF4q7FXYq7FXYq7FXYq7FXYq7FXYqhtR1G00+1a5uX4ovQftMeyqO5xV8y/&#xA;nz+bMiLNpdnKBqd2nBwhr9Vt27V/344P8dtslENOXJWweK+QfK0vmXzLa2HEm0U+rfOP2YUNW37F&#xA;vsj3OTJceEbL6lVVRQiAKqgBVAoAB0AGVOc+dfzr1Zb7zxLCjco9PhjttunLeRvuMlD8ssjycPMb&#xA;k9O/JG3MXkKB6U9eeeQHfejcP+NMjLm34fpZ9kW1mP5dKfUv27ARD7y39MVfMX/OU7K35t3QBBK2&#xA;dqGAPQ8CaH6DlkeTiZvqZl+S+oG78hWkZNWs5Zrcn5P6g+5ZBkZc27CfSzrItrsVUri5t7aFp7iV&#xA;IYUFXlkYIqjxLGgGKsUvv+cmtG8s6dc6f5ftf0xqDyFkuJCUtIzxArt8cnTovEf5WSEWiWYDk8D8&#xA;5edvMvnHVzq3mC7N1dcfTiFAkccYJISNFoFUV/rvkwHHlInmt8meZpfLXmG31dIjOsKyLJBy4c1d&#xA;CtC1DTcg9O2JFphKjaN83fmN5l8zsY7ub0LCtUsYKrH7c+7n/W+gDABSZ5DJi+Sa3r35T/k1d6tc&#xA;22qazbM0LkNZaaw+KXuJJQekfeh699usDJyMeLqX1x5a8uwaPa0IDXbgCWQDYD+Rf8kZByU5xV2K&#xA;uxV2KuxV2KuxV2KuxV2KqdxOlvC8zhiqCpCKXb6AoJxVhGv/AJjz28Mh02ykk4dTRWlp3KxllG3z&#xA;PyxUvn38wPz+1WSWWzsbS5h1AAq1zqKBHir/ACQbj5cvuyYi4883c8RuLie5nkuLiRpZ5WLyyuSz&#xA;MzGpJJ75Jx3qP5UfmB5M8vafJZ38MtpezvyuNQp6yOB9kUQc0C+FD3NcjIFuxTiHpV7+ZvkuDS7i&#xA;+g1W3uHhjaSO2VwJZGH2UVGo1SfbI0W85I0+Z7+9uL++uL25blcXUjzTN4u7Fm/E5Y4RNvp78t7E&#xA;2PkXRYCOJNssxHvOTL/xvlZ5ubjFRDJMDNnn5fW5TTric7erLxHyRR/FsVfHv/OQOqrqX5v+YpUb&#xA;lHBNHarTsbaFInH/AAaNlkeThZT6iy7/AJx8ui2i6ta9orlJQP8AjLHx/wCZWRk3YDsWc65578pa&#xA;IGGoalEky9beM+rL/wAAnJh9OABslMB5x5h/P9jyi0DT6dhdXh/VEh/W30ZIRapZ+55jrvmnzBr0&#xA;3q6rfSXNDVIyeMa/6sa0QfdkgGiUiea/yz5T1vzJfC00uAyEU9advhiiB7u/b5dT2xJWMSeTM/zH&#xA;/LjTvKnlTTZoGae9e5Md5dtsGLRlgqr0VRwNO+AG23Jj4Q80yTQrWdld3t1Ha2cL3FzKeMcMalmY&#xA;+wGBIFvffyo/IiVbqG+1aJbrU1o8dsfigt/BpG6O4+4dq9cgZOTjxVuX0xoXl+z0mCkY9S4YfvZy&#xA;Nz7DwHtkW9NMVdirsVdirsVdirsVdirsVdirsVdiqB1DRNK1AH61bq7n/dg+F/8AghQ4qwzzJ+UW&#xA;k6tEY5EhvIt+MV5GGK1/lkAqD8gMbQYg83levf8AOMelMzPb2t3Zn9n6rIJ4/wDgXEj/AIjJcRaj&#xA;hiwfUv8AnHPUYGIt9WAPaO5t2iP3hn/Vh4mBwebyjVrBdP1K5sRPHdfVpDEZ4q+mxXY8eQBIrkmg&#xA;iiho1VpFV24ISAz0JoCdzQeGFX0XB+b/AOXNrbw28N+5iijVEAgm2CigBqg6UyvhLl+LFB3n58+T&#xA;oVP1eG8uX/ZCxoi/SXcH8MeFBzhBah/zlb5lh0pNN8taVb6aEBBvLhjdSksSSyrSONTU/tBsPC1n&#xA;OejxK+vbq/vbi+u5DNd3Urz3ErUq8kjFnY023Y1yTSW7fUb+2hmgtrmWGG44/WI43ZFk4148wCA1&#xA;ORpXFbQ+FC+CCeeZIYI2lmkIWONAWZiegAG5OKXq3kb8h9W1OaKbXQ9vE5BTT4fiuH/1yKiMfefl&#xA;kDJuhh73015N/K/StFs4oWto4LePeOxi+zXxkfq7eO/0nIOSAByeP/8AOUEMC6RIqkKsepRemooB&#xA;X0ZBxA9gTko82rP9Lx7yf+VfmXzGyTGM2GmtQm8nUjkP+Kk2Z/nsPfJGTTDES+mfy2/JLTNFt1eK&#xA;EwBwPWvJgDdSjrQbfAv0U9jkCbcmMBF67Y2FpY26wWsYjjXsOpPiT1JwM1fFXYq7FXYq7FXYq7FX&#xA;Yq7FXYq7FXYq7FXYq7FVG8u7eztpLm4bhFGKsf4D3OKvAfzj80+b72xlXQbCe4uboNEkkIBFtD3o&#xA;K8jI3Yge/hhDXkJrZ81zeT/NkJpLot8m9Km2moSPA8aHLLcTgPctj8p+apSRHo185G5C20x/UuNr&#xA;wnuTSy/K7z7eECPR5ox3M5SGn/IxlODiDIY5dzL9D/5x7166kT9JX0UHL/dNsrTyH234KD8q4OJs&#xA;GA9WX6t+WflTyL5c1HUJbFpdQt7V3imviHcSMpWKiUCIeZFPhrgslmccYi3zxljiJhpHl7XNYl9P&#xA;S7Ga7YGjGJCVX/Wb7K/ScFshEnk9J8r/APOP2uX0sZ1icWwb/jztR6058RyFUX6OWRMm6OA9Xvfk&#xA;b8kNJ0SNWhtUsuQ/eTN+9unHu5rxB8PwyJLfGAHJ6fpukafpsXC0iCE/akO7t82O+BkjMVed635G&#xA;l8wa7M9zaRvaw3HrQy3KhlDqpUOikGpAY0OKCLZVo/lPS9OpJx+sXI39aQDY/wCSvQfrxSnWKuxV&#xA;2KuxV2KuxV2KuxV2KuxV2KuxV2KuxV2KuxV2KqVzaWt1H6VzEs0da8XAYVHffFUsl8o+XpOtoFPi&#xA;rOv6jTFUM/kTQm6CVfk/9QcVaXyHoQNT6zexcfwAxVFQeUfL8JqLUOfF2ZvwJpiqZwW1rbIRBEkK&#xA;DqEUKPwpirx/zt5OuvPf1i3niu1sp5lkPoAIHSPaNGd1Ycdge24wgsZRsUhtA/5x08v2RVjpVsrD&#xA;q92xuW+fEl0/VjZQMcR0eiad+XmkWqKsztKqCixIBFGB4UXf8cDNkdpYWVmnC1gSFe/AAE/M9Tiq&#xA;virsVdirsVdirsVdirsVdirsVdirsVdirsVdirsVdirsVdirsVdirsVdirsVdirsVdirsVdirsVd&#xA;irsVdirsVdirsVdirsVdirsVdirsVdirsVdirsVdirsVdirsVdirsVdirsVdirsVdirsVdirsVdi&#xA;rsVdirsVdirsVdirsVdirsVdirsVdirsVdirsVdirsVdirsVdirsVdirsVdirsVdirsVdirsVdir&#xA;sVdirsVdirsVdirsVdirsVdirsVdirsVdirsVdirsVdirsVdirsVdirsVdirsVdirsVdirsVdirs&#xA;VdirsVdirsVdirsVdirsVdirsVdirsVdirsVdirsVdirsVdirsVdirsVdirsVdirsVdirsVdirsV&#xA;dirsVdirsVdirsVdirsVdirsVdirsVdirsVdirsVdirsVdirsVY9b+fvLFxcW9tDNO890Ea3iFrc&#xA;8njkrwmUGPeJqGj/AGdjvscVU2/MfygkLTSXU0cSKjvI9ndqoWXh6bEmIUV/VUKehOw74qvuPzB8&#xA;pW0RlnvHjHHmEa3uBIy0kNVj9PmwAgevEbU9xiqr/jnyuJo4HvGjmk5UikhnjZSsywESB0Bj+N9u&#xA;dKqGcfArMFVCD8xfJk09tbpqIE14jSWyPFNHyCNIrD40WjcoHHE77dOmKom485aDA8ivJM3pGJHe&#xA;O2uJE9ScI0UQdI2UyOJkogNd8VQ8X5i+TJHaMakqzpc21k9vJHKkoubyUwQxGNkD8jIrK23w0PKg&#xA;BxVkeKuxV2KuxV2KuxV2KuxV2KuxV2KuxV2KuxV2KuxV2KuxV2KuxV2KoDzDfT6foGpX9uFM9paz&#xA;zxBwSvOKNnXkAQSKjffFXjdn+aOs3D2xXzJzluSn+41LdPrEccnArIZTZ/V2ISZGdA3w7gM5WhCp&#xA;Ev53+cjZXVylxPcGGVEEUC2ZdFZA55h7dAWNfTjWql5Q0dAQCyqov53+bWljENzKxaEzR+pHDwlo&#xA;jOHRfqsMjRNSq14lkDt8PDdQ9GP/ACrf6mPV+u/VeFpw9b63w+qcm+p8efw+lXn6f7f2qb1wpU7/&#xA;AP5U1+irXl9W9D0U+q/Vv7+nwcqel+89Thx9X9rh9rbFUyvv8E/on/T/AFuH1K+9Pl/f/VfVt/rP&#xA;p+n/AMWej0xVLZv+VS87r6/y/SfOb639c9b6/wAfRuPX+3+99L0vXrw+DjWm3HFVKy/5U5+hZfQr&#xA;+jeN1y/3orX04PV4U+PnX0+HD4vUrx+OuKprc/4OrNX9Ken6sHP0PrvpfW6R/Vf7v4fU4+jw5fD9&#xA;jviqAtf+VR/XI/8Aq6fpCH0/rPrfWvr31uCtPV+Ov1nh6lNuv7NcVek4q7FXYq7FXYq7FXYq7FXY&#xA;q7FXYq7FXYq7FXYq7FXYq7FXYq7FXYqk3nX6v/g3XvrPq/Vv0dd+t9Xp63D0H5ely250+zXvir5B&#xA;1L/lcn/KsrP6z+kf8Nfuvqvp/VvrtOS+lXj/AKTx/u+Ffh+xx/YxVF6d/jD9MaH/AHXo/o08/W+u&#xA;fVuf1OPl+kPT/e/XK/R6vKm2Kqd5+m/8Ha7+k/rHD9KXHqfVvrf6Q+r+rB6n1L/dP1bjX0vU/Y54&#xA;q//Z</xmpGImg:image>
               </rdf:li>
            </rdf:Alt>
         </xmp:Thumbnails>
      </rdf:Description>
      <rdf:Description rdf:about=""
            xmlns:xmpMM="http://ns.adobe.com/xap/1.0/mm/"
            xmlns:stRef="http://ns.adobe.com/xap/1.0/sType/ResourceRef#"
            xmlns:stEvt="http://ns.adobe.com/xap/1.0/sType/ResourceEvent#">
         <xmpMM:OriginalDocumentID>uuid:9E3E5C9A8C81DB118734DB58FDDE4BA7</xmpMM:OriginalDocumentID>
         <xmpMM:DocumentID>xmp.did:691E35630F206811822A8451A1857300</xmpMM:DocumentID>
         <xmpMM:InstanceID>xmp.iid:691E35630F206811822A8451A1857300</xmpMM:InstanceID>
         <xmpMM:RenditionClass>proof:pdf</xmpMM:RenditionClass>
         <xmpMM:DerivedFrom rdf:parseType="Resource">
            <stRef:instanceID>uuid:1499d9da-1b04-f340-a398-29bb2c5fcb0c</stRef:instanceID>
            <stRef:documentID>xmp.did:F77F117407206811822A8451A1857300</stRef:documentID>
            <stRef:originalDocumentID>uuid:9E3E5C9A8C81DB118734DB58FDDE4BA7</stRef:originalDocumentID>
            <stRef:renditionClass>proof:pdf</stRef:renditionClass>
         </xmpMM:DerivedFrom>
         <xmpMM:History>
            <rdf:Seq>
               <rdf:li rdf:parseType="Resource">
                  <stEvt:action>saved</stEvt:action>
                  <stEvt:instanceID>xmp.iid:F77F117407206811822A8451A1857300</stEvt:instanceID>
                  <stEvt:when>2013-10-06T17:09:14+13:00</stEvt:when>
                  <stEvt:softwareAgent>Adobe Illustrator CS6 (Macintosh)</stEvt:softwareAgent>
                  <stEvt:changed>/</stEvt:changed>
               </rdf:li>
               <rdf:li rdf:parseType="Resource">
                  <stEvt:action>saved</stEvt:action>
                  <stEvt:instanceID>xmp.iid:691E35630F206811822A8451A1857300</stEvt:instanceID>
                  <stEvt:when>2013-10-06T18:26:52+13:00</stEvt:when>
                  <stEvt:softwareAgent>Adobe Illustrator CS6 (Macintosh)</stEvt:softwareAgent>
                  <stEvt:changed>/</stEvt:changed>
               </rdf:li>
            </rdf:Seq>
         </xmpMM:History>
      </rdf:Description>
      <rdf:Description rdf:about=""
            xmlns:xmpTPg="http://ns.adobe.com/xap/1.0/t/pg/"
            xmlns:stDim="http://ns.adobe.com/xap/1.0/sType/Dimensions#"
            xmlns:xmpG="http://ns.adobe.com/xap/1.0/g/">
         <xmpTPg:NPages>1</xmpTPg:NPages>
         <xmpTPg:HasVisibleTransparency>False</xmpTPg:HasVisibleTransparency>
         <xmpTPg:HasVisibleOverprint>False</xmpTPg:HasVisibleOverprint>
         <xmpTPg:MaxPageSize rdf:parseType="Resource">
            <stDim:w>209.999929</stDim:w>
            <stDim:h>210.001308</stDim:h>
            <stDim:unit>Millimeters</stDim:unit>
         </xmpTPg:MaxPageSize>
         <xmpTPg:PlateNames>
            <rdf:Seq>
               <rdf:li>Cyan</rdf:li>
               <rdf:li>Magenta</rdf:li>
               <rdf:li>Yellow</rdf:li>
               <rdf:li>Black</rdf:li>
            </rdf:Seq>
         </xmpTPg:PlateNames>
         <xmpTPg:SwatchGroups>
            <rdf:Seq>
               <rdf:li rdf:parseType="Resource">
                  <xmpG:groupName>Default Swatch Group</xmpG:groupName>
                  <xmpG:groupType>0</xmpG:groupType>
               </rdf:li>
            </rdf:Seq>
         </xmpTPg:SwatchGroups>
      </rdf:Description>
      <rdf:Description rdf:about=""
            xmlns:pdf="http://ns.adobe.com/pdf/1.3/">
         <pdf:Producer>Adobe PDF library 10.01</pdf:Producer>
      </rdf:Description>
      <rdf:Description rdf:about=""
            xmlns:xmpRights="http://ns.adobe.com/xap/1.0/rights/">
         <xmpRights:Marked>True</xmpRights:Marked>
         <xmpRights:WebStatement rdf:resource="http://www.ospreydawn.com"/>
         <xmpRights:UsageTerms>
            <rdf:Alt>
               <rdf:li xml:lang="x-default">This work is licensed under a &lt;a rel="license" href="http://creativecommons.org/licenses/by-nc-sa/3.0/"&gt;Creative Commons Attribution-NonCommercial-ShareAlike 3.0 Unported License&lt;/a&gt;.</rdf:li>
               <rdf:li xml:lang="en_us">This work is licensed under a &lt;a rel="license" href="http://creativecommons.org/licenses/by-nc-sa/3.0/"&gt;Creative Commons Attribution-NonCommercial-ShareAlike 3.0 Unported License&lt;/a&gt;.</rdf:li>
               <rdf:li xml:lang="en">This work is licensed under a &lt;a rel="license" href="http://creativecommons.org/licenses/by-nc-sa/3.0/"&gt;Creative Commons Attribution-NonCommercial-ShareAlike 3.0 Unported License&lt;/a&gt;.</rdf:li>
            </rdf:Alt>
         </xmpRights:UsageTerms>
      </rdf:Description>
      <rdf:Description rdf:about=""
            xmlns:cc="http://creativecommons.org/ns#">
         <cc:attributionName>Max O'Brien / Osprey Dawn</cc:attributionName>
         <cc:license rdf:resource="http://creativecommons.org/licenses/by-nc-sa/3.0/"/>
      </rdf:Description>
   </rdf:RDF>
</x:xmpmeta>
                                                                                                    
                                                                                                    
                                                                                                    
                                                                                                    
                                                                                                    
                                                                                                    
                                                                                                    
                                                                                                    
                                                                                                    
                                                                                                    
                                                                                                    
                                                                                                    
                                                                                                    
                                                                                                    
                                                                                                    
                                                                                                    
                                                                                                    
                                                                                                    
                                                                                                    
                                                                                                    
                           
<?xpacket end="w"?>
	</metadata>
<g id="Layer_2">
	<g id="_x37_Wl2mV_1_">
	</g>
</g>
<g id="Layer_1_1_">
	<g>
		<path fill="#B2B2B2" d="M475.643,206.162c12.476,10.36,24.474,24.79,32.341,35.069l19.646,25.665l-10.9-2.274
			c4.638,6.253,9.923,13.606,14.864,21.021c10.812,16.227,20.332,33.411,22.984,38.29l2.312,4.229l-1.259,4.653
			c-2.161,7.994-11.773,36.379-44.701,66.014c-27.167,24.45-51.616,38.312-63.772,44.4l-17.811,8.918l0.418-19.916
			c0.12-5.626-0.104-10.809-0.438-15.182c-9.724,7.229-25.298,17.769-45.63,28.024c-25.725,12.983-51.642,19.536-64.8,22.288
			l-20.812,4.354l7.017-20.075c0.274-0.81,0.544-1.629,0.79-2.452c-8.631,3.159-20.621,6.793-34.696,8.997
			c-7.901,1.238-16.416,1.865-25.305,1.865c-9.601,0-17.941-0.749-23.259-1.378l-21.543-2.557l13.599-16.903
			c1.031-1.288,2.021-2.645,2.938-3.977c-6.005-0.823-13.72-2.145-22.305-4.217c-6.448-1.557-12.812-3.526-18.896-5.858
			l-28.009-10.729l27.671-11.573c6.518-2.725,14.146-9.761,20.931-19.306c8.504-11.958,21.077-39.974,7.814-60.417
			c-4.575-7.056-11.966-10.939-20.805-10.939c-3.975,0-8.139,0.812-12.38,2.4c-6.69,2.509-12.583,10.834-16.891,16.911
			c-1.652,2.343-3.705,5.229-5.492,7.227l-13.184,14.686l-6.994-18.447l-0.181-0.489c-5.344-15.03,0.287-25.503,6.252-36.589
			c1.562-2.909,3.181-5.915,4.722-9.206c3.646-7.778,4.04-13.073,3.754-16.75c-1.354,0.185-2.688,0.312-3.928,0.438
			c-1.878,0.188-3.996,0.397-4.996,0.692c-4.385,1.289-8.917,2.622-18.958,12.664c-2.712,2.712-4.249,6.828-4.562,12.237
			l-2.204,37.378l-19.956-31.688c-22.093-35.079-12.729-66.771-7.681-78.77c7.622-18.106,37.229-33.802,48.695-39.324
			c3.273-11.472,17.922-21.439,24.026-25.594c14.812-10.081,32.464-18.276,48.423-22.485c20.411-5.383,43.283-10.365,72.188-10.365
			c23.557,0,48.062,3.497,72.84,10.396c41.017,11.417,76.229,27.562,98.54,39.095c0,0,32.825,16.326,54.572,33.524L475.643,206.162z
			"/>
		<path fill="#FFFFFF" d="M316.434,455.61c3.104-8.896,4.166-18.735,4.22-19.267l0.776-7.446l-6.623,3.488
			c-0.188,0.095-18.833,9.764-45.479,13.938c-7.291,1.146-15.18,1.728-23.445,1.728c-8.845,0-16.558-0.677-21.841-1.303
			c5.881-7.312,10.209-15.899,10.44-16.363l2.751-5.505l-6.146-0.287c-0.14-0.014-14.245-0.724-32.956-5.231
			c-6.805-1.644-12.688-3.593-17.418-5.403c11.396-4.763,20.823-16.022,26.083-23.427c10.894-15.311,24.854-48.104,8.106-73.919
			c-6.771-10.431-18.023-16.414-30.884-16.414c-5.416,0-11.002,1.064-16.604,3.164c-10.145,3.805-17.271,13.87-22.471,21.22
			c-1.454,2.059-3.3,4.659-4.629,6.146c-0.03-0.081-0.062-0.165-0.094-0.255c-3.562-10.015,0.049-16.727,5.511-26.874
			c1.644-3.062,3.344-6.223,5.021-9.808c6.521-13.933,5.004-22.884,4.274-27.187c-0.104-0.584-0.224-1.312-0.229-1.548
			c0-1.11,0.317-2.618,0.854-4.028l-7.364-3.134c-0.773,1.638-6.636,2.222-9.783,2.531c-2.629,0.267-5.106,0.514-7.189,1.121
			c-6.484,1.907-12.772,4.405-24.062,15.694c-5.729,5.733-7.672,13.359-8.062,20.023c-18.906-30.021-11.37-56.778-6.771-67.702
			c6.062-14.387,35.732-30.103,46.657-34.938l2.738-1.213l-0.396-2.972c-1.086-8.251,31.457-32.709,64.138-41.327
			c19.629-5.177,41.589-9.968,69.125-9.968c22.467,0,45.891,3.35,69.611,9.953c41.123,11.441,76.38,27.925,96.253,38.188h-8.229
			l9.794,7.229c0.064,0.047,6.551,4.854,25.854,20.884c11.794,9.796,23.347,23.812,30.476,33.129
			c-0.176-0.036-11.248-2.252-11.248-2.252l6.908,8.599c0.146,0.188,15.058,18.777,27.488,37.431
			c10.562,15.849,19.837,32.6,22.438,37.375c-1.646,6.087-10.214,32.385-41.14,60.22c-26.562,23.904-50.481,37.262-61.116,42.586
			c0.364-17.229-2.236-30.729-2.36-31.369l-1.354-6.932l-5.251,4.727c-0.201,0.187-20.438,18.235-54.525,35.444
			C353.571,446.825,328.493,453.094,316.434,455.61z"/>
		<path fill="#B2B2B2" d="M99.074,294.09c0,0-8.79-51.174,11.901-68.522c20.688-17.354,39.347-18.021,39.347-18.021
			s-0.854,5.562,1.815,8.683c2.669,3.109,8.896,5.78,10.68,0.89c1.78-4.896-5.34-9.79-5.34-9.79s9.122-0.223,14.9,1.78
			c5.786,2.003,15.803,12.231,15.803,12.231l26.254,10.233c0,0,4.445-6.229-5.785-12.903c-10.233-6.676-22.249-12.231-18.8-23.356
			l5.005-5.345l6.896,1.562l10.685,6.007l7.781,6.453l2.009,8.455l14.685,4.228c0,0,11.792,3.336,29.146-2.444
			c17.354-5.782,22.689-7.578,36.483-2.897c0,0-10.831-9.171-25.771-13.259l-29.188-6.312l-7.676-0.668l1.445-8.011L263.6,170.4
			l35.147-2.448l32.935,4.005l38.715,15.354l11.348,7.344c0,0,29.147,14.462,47.614,30.479c0,0-6.896-3.111-12.904-3.561
			c0,0,25.812,25.585,50.511,64.521c24.69,38.938,33.668,78.179,33.668,78.179v14.158L443.603,400L405.557,294.31L367.594,257.3
			l-19.225-14.938c0,0,39.827,36.155,56.959,86.884c0,0-7.119-8.457-12.46-12.017c0,0,19.487,34.515,22.536,76.441l-70.815,35.25
			l-14.687-13.57l-8.009-73.868l-27.031-43.424l-9.903-9.646c0,0,25.363,31.705,26.479,76.872c0,0-2.896-5.119-6.229-7.122
			c0,0,4.678,9.791,2.448,36.271c-2.225,26.478-8.734,36.044-8.734,36.044l-48.891,7.119l-9.123-13.57l-34.709-7.789v-14.461
			l20.469-63.188l-17.106-35.822l-24.494-2.446l-10.234-0.666l-34.48,28.479l-2.001-8.897l24.251-52.509l-9.123-13.354
			l-32.038,10.686l-16.47,18.463L99.074,294.09z"/>
		<g>
			<path fill="#062424" d="M524.927,290.084c-12.688-19.021-27.7-37.712-27.7-37.712s8.342,1.669,11.681,3.671
				c0,0-18.688-27.36-38.381-43.719c-19.688-16.354-26.031-21.026-26.031-21.026s8.018,0,15.354,2.002
				c0,0-49.729-30.03-114.479-48.059c-64.745-18.021-110.469-8.011-140.837,0c-30.371,8.01-68.751,33.04-67.082,45.722
				c0,0-40.718,18.021-48.727,37.045c-8.016,19.022-11.687,50.729,15.687,83.104c0,0-5.34-20.023,5.673-31.038
				c11.019-11.013,16.688-13.016,22.359-14.685c5.675-1.668,17.688-0.333,19.69-6.347c0,0-1.338,3.004-1.338,6.013
				c0,3.003,3.675,11.347-3.673,27.027c-7.342,15.688-16.02,24.696-10.68,39.721c5.34,15.019,13.684-17.688,32.372-24.696
				c18.688-7.009,34.709-0.668,42.719,11.681c8.01,12.354,13.354,39.387-8.01,69.419c-21.361,30.035-37.712,23.36-37.712,23.36
				s12.015,7.008,31.372,11.686c19.354,4.675,33.708,5.342,33.708,5.342s-7.01,14.018-15.021,21.021c0,0,26.365,5.006,54.065,0.667
				s46.725-14.351,46.725-14.351s-1.671,16.02-7.009,25.024c0,0,35.376-5.342,70.419-23.021
				c35.042-17.688,55.399-36.044,55.399-36.044s3.338,17.021,2.002,37.045c0,0,31.372-13.021,68.082-46.062
				c36.713-33.04,42.721-63.739,42.721-63.739S537.608,309.108,524.927,290.084z M135.118,253.04
				c-14.352,4.672-33.041,11.353-36.043,41.05c0,0-10.682-17.021-7.343-46.724c3.337-29.702,39.381-45.055,55.729-46.057
				c16.354-1.001,22.361,3.671,25.365,10.68c3.002,7.009-0.668,10.68,18.688,13.684c19.354,3.01,18.021,7.014,18.021,7.014
				s-4.339,1.001-7.676-0.667c-3.338-1.669-20.692-5.68-34.375-0.667C153.806,236.353,149.468,248.367,135.118,253.04z
				 M168.825,293.422c-4.74,4.219-17.787,19.646-23.082,25.97c-0.807,1.097-1.575,2.022-2.282,2.731c0,0,0.867-1.048,2.282-2.731
				c6.419-8.717,15.406-28.271,18.074-35.979c3.004-8.678,12.683-17.354,21.021-26.032c8.349-8.677,11.353-15.019,14.021-17.688
				s7.343-1.001,7.343-1.001c-3.67-0.668-7.009,6.007-12.683,17.354C187.849,267.39,174.832,288.082,168.825,293.422z
				 M504.566,360.509c-19.354,19.354-46.055,31.704-46.055,31.704s-13.354-59.737-45.729-95.115
				c-32.371-35.377-64.411-54.731-64.411-54.731s33.042,26.365,53.063,59.072c20.021,32.705,32.373,82.099,32.373,82.099
				s-10.679,7.348-38.38,19.356c-27.699,12.016-51.729,18.021-51.729,18.021s-1.668-37.713-16.02-73.757
				c-14.354-36.044-42.726-58.737-42.726-58.737s13.021,10.352,29.369,53.396c16.354,43.053,4.005,80.099,4.005,80.099
				c-23.69,11.353-57.731,9.351-57.731,9.351s9.345-34.375,7.342-63.41c-2.002-29.036-15.354-46.729-15.354-46.729
				s4.676,12.354,1.335,46.729c-3.337,34.375-14.017,47.725-14.017,47.725c-18.354,0-29.035-7.676-29.035-7.676
				c21.358-23.026,25.697-60.407,22.693-79.43c-3.004-19.023-14.354-25.364-14.354-25.364c12.02,1.001,19.022,9.678,19.022,9.678
				c-2.002-7.675-12.354-15.353-26.031-18.354c-13.685-3.007-29.703-2.675-29.703-2.675c9.582-16.111,11.019-27.694,19.689-33.037
				c8.679-5.343,10.682-17.688,12.35-26.029c1.669-8.346-14.353-9.683-24.362-13.354c-10.014-3.671-3.672-11.682-12.683-21.021
				c-9.013-9.351-27.7-2.002-25.364-11.019c2.337-9.012,42.057-29.03,71.421-36.711c29.367-7.677,69.083-8.679,118.812,2.002
				c49.727,10.686,86.771,32.707,86.771,32.707c-6.347-0.333-15.021,2.336-15.021,2.336s16.354,5.345,38.38,22.693
				c22.025,17.354,38.379,36.711,38.379,36.711c-5.007-1.335-13.684-2.002-13.684-2.002s10.679,9.012,27.034,38.047
				c16.353,29.035,22.688,51.396,22.688,51.396S523.927,341.146,504.566,360.509z"/>
			<path fill="#062424" d="M151.805,205.982c0,0-2.002,4.339-0.334,6.007c1.669,1.668,3.672,5.675,7.342,4.673
				c3.672-1.001,0.334-7.677-1.334-9.346C155.809,205.648,153.14,205.648,151.805,205.982z"/>
			<path fill="#062424" d="M189.851,195.303c0,0,4.338-7.015,8.343-7.015c4.004,0,5.006,3.671,13.017,0.334
				c8.017-3.337,28.368-34.375,58.403-33.04c0,0-10.679,1.668-18.688,8.349c0,0,36.383-5.679,74.095,2.67
				c37.714,8.344,56.73,28.028,56.73,28.028s-36.044-20.021-82.101-22.688s-55.065,13.017-55.065,13.017s0.333,3.003,0,4.004
				c0,0,13.354-0.667,25.696,2.336c12.35,3.008,20.358,12.354,20.358,12.354s-10.686-7.342-30.036-7.676
				c-19.356-0.334-18.688,2.336-18.688,2.336s-2.336,6.007-8.678,7.008c-6.341,1.001-13.018-1.334-13.018-1.334
				s2.338,11.348,16.688,12.683c0,0-11.682,2.336-20.358-4.339c-8.676-6.675-11.348-14.685-11.348-14.685s-4.006,1.168-6.342-3.005
				C196.523,190.463,191.686,192.633,189.851,195.303z"/>
		</g>
		<path fill="#FFFFFF" d="M216.439,193.679c0,0-1.779,1.225-2.337,1.441c0,0,1.44,5.963,9.562,5.071
			c8.121-0.89,9.456-5.45,10.567-7.786c1.113-2.336,0.333-7.229-0.561-8.455c0,0,3.006-3.783,6.229-5.673
			c0,0-7.676,1.891-13.128,7.676c0,0,3.562,1.562,3.228,5.006c-0.334,3.449-2.337,5.229-4.673,5.785
			C223,197.306,218.438,197.887,216.439,193.679z"/>
		<path fill="#FFFFFF" d="M217.707,192.719c0,0,1.464,1.824,3.293,0.549c1.83-1.28-0.549-2.562-0.549-2.562
			S218.988,191.803,217.707,192.719z"/>
	</g>
</g>
<g>
	<path fill="#BDC2BC" d="M534.992,588.913c-0.739,0-1.34-0.602-1.34-1.341v-16.588c0-0.739,0.601-1.339,1.34-1.339h52.497
		c0.738,0,1.339,0.6,1.339,1.339v16.588c0,0.739-0.601,1.341-1.339,1.341H534.992z"/>
	<g>
		<path d="M558.027,571.51c-2.724,0-4.934,2.21-4.934,4.934c0,2.729,2.21,4.938,4.934,4.938c2.729,0,4.938-2.21,4.938-4.938
			C562.964,573.719,560.756,571.51,558.027,571.51z"/>
		<path fill="#FFFFFF" d="M558.027,580.461c-2.219,0-4.014-1.798-4.014-4.019c0-2.217,1.797-4.014,4.014-4.014
			c2.219,0,4.019,1.798,4.019,4.014C562.046,578.664,560.246,580.461,558.027,580.461z"/>
		<g>
			<path d="M559.402,575.293c0-0.219-0.182-0.398-0.398-0.398h-1.952c-0.222,0-0.402,0.181-0.402,0.398v1.985h0.528v2.338h1.694
				v-2.338h0.528L559.402,575.293L559.402,575.293z"/>
			<path d="M558.695,573.942c0,0.37-0.3,0.668-0.667,0.668c-0.371,0-0.67-0.299-0.67-0.668s0.302-0.67,0.67-0.67
				C558.395,573.272,558.695,573.571,558.695,573.942z"/>
		</g>
	</g>
	<path d="M587.175,569.198h-51.868c-1.157,0-2.102,0.943-2.102,2.102v15.96c0,1.158,0.943,2.1,2.102,2.1h51.868
		c1.158,0,2.102-0.94,2.102-2.1V571.3C589.275,570.141,588.332,569.198,587.175,569.198z M588.644,583.375h-37.865
		c-1.478,2.809-4.418,4.725-7.81,4.725c-3.393,0-6.333-1.916-7.809-4.725h-1.326V571.3c0-0.812,0.658-1.471,1.47-1.471h51.869
		c0.811,0,1.471,0.658,1.471,1.471V583.375L588.644,583.375z"/>
	<g>
		<path fill="#FFFFFF" d="M557.773,584.934c0.1,0.139,0.15,0.301,0.15,0.494c0,0.199-0.052,0.357-0.151,0.48
			c-0.057,0.065-0.14,0.13-0.25,0.187c0.169,0.061,0.294,0.156,0.378,0.288c0.086,0.131,0.127,0.289,0.127,0.478
			c0,0.192-0.047,0.365-0.145,0.52c-0.062,0.102-0.14,0.187-0.23,0.254c-0.104,0.079-0.224,0.137-0.367,0.165
			c-0.143,0.03-0.295,0.042-0.459,0.042h-1.467v-3.256h1.572C557.326,584.594,557.607,584.706,557.773,584.934z M556.009,585.151
			v0.717h0.79c0.143,0,0.257-0.026,0.345-0.08s0.133-0.147,0.133-0.286c0-0.15-0.059-0.248-0.176-0.301
			c-0.099-0.033-0.227-0.05-0.382-0.05H556.009L556.009,585.151z M556.009,586.407v0.869h0.789c0.143,0,0.249-0.02,0.328-0.058
			c0.145-0.071,0.217-0.206,0.217-0.407c0-0.17-0.07-0.285-0.208-0.35c-0.077-0.034-0.188-0.056-0.327-0.056L556.009,586.407
			L556.009,586.407z"/>
		<path fill="#FFFFFF" d="M560.469,584.586h0.771l-1.089,2.034v1.222h-0.68v-1.222l-1.127-2.034h0.8l0.677,1.418L560.469,584.586z"
			/>
	</g>
	<g>
		<g>
			<path fill="#FFFFFF" d="M566.517,584.426h0.776l1.402,2.473v-2.473h0.693v3.545h-0.743l-1.442-2.517v2.517h-0.689
				L566.517,584.426L566.517,584.426z"/>
			<path fill="#FFFFFF" d="M570.425,584.797c0.285-0.292,0.647-0.437,1.09-0.437c0.591,0,1.02,0.196,1.295,0.588
				c0.148,0.221,0.229,0.439,0.242,0.66h-0.741c-0.048-0.17-0.106-0.297-0.183-0.383c-0.132-0.153-0.328-0.229-0.586-0.229
				c-0.265,0-0.473,0.108-0.623,0.325c-0.152,0.22-0.229,0.525-0.229,0.923c0,0.399,0.08,0.695,0.241,0.895
				c0.161,0.197,0.365,0.299,0.615,0.299c0.251,0,0.447-0.086,0.58-0.256c0.073-0.09,0.136-0.228,0.184-0.409h0.734
				c-0.063,0.386-0.225,0.698-0.484,0.942c-0.263,0.242-0.593,0.36-1.003,0.36c-0.504,0-0.9-0.163-1.189-0.488
				c-0.288-0.329-0.434-0.778-0.434-1.354C569.93,585.607,570.095,585.133,570.425,584.797z"/>
		</g>
	</g>
	<g>
		<path fill="#FFFFFF" d="M578.517,586.944c0.022,0.173,0.073,0.303,0.145,0.389c0.132,0.154,0.354,0.233,0.671,0.233
			c0.192,0,0.349-0.021,0.466-0.062c0.226-0.078,0.339-0.226,0.339-0.438c0-0.125-0.058-0.223-0.166-0.291
			c-0.113-0.066-0.286-0.126-0.525-0.178l-0.412-0.088c-0.401-0.094-0.679-0.188-0.829-0.295c-0.253-0.172-0.382-0.447-0.382-0.819
			c0-0.339,0.126-0.618,0.376-0.845c0.249-0.226,0.617-0.336,1.102-0.336c0.401,0,0.748,0.104,1.032,0.314
			c0.285,0.213,0.437,0.521,0.451,0.922h-0.762c-0.014-0.226-0.117-0.386-0.305-0.484c-0.125-0.065-0.283-0.095-0.473-0.095
			c-0.209,0-0.375,0.04-0.499,0.121c-0.126,0.084-0.188,0.196-0.188,0.346c0,0.136,0.062,0.236,0.186,0.303
			c0.079,0.043,0.246,0.095,0.502,0.155l0.665,0.156c0.291,0.067,0.513,0.161,0.654,0.276c0.227,0.178,0.34,0.434,0.34,0.771
			c0,0.351-0.135,0.637-0.4,0.862c-0.27,0.229-0.646,0.344-1.135,0.344c-0.499,0-0.891-0.112-1.176-0.338
			c-0.287-0.223-0.432-0.535-0.432-0.93L578.517,586.944L578.517,586.944z"/>
		<path fill="#FFFFFF" d="M582.542,584.325h0.896l1.34,3.791h-0.858l-0.248-0.778h-1.397l-0.254,0.778h-0.827L582.542,584.325z
			 M582.486,586.681h0.972l-0.479-1.49L582.486,586.681z"/>
	</g>
	<g>
		<circle cx="542.95" cy="579.28" r="7.771"/>
		<circle fill="#FFFFFF" cx="542.95" cy="579.278" r="6.322"/>
		<g>
			<path d="M542.597,578.348l-1.188,0.215c-0.041-0.237-0.131-0.416-0.274-0.537c-0.142-0.119-0.325-0.178-0.55-0.178
				c-0.302,0-0.538,0.104-0.719,0.31c-0.18,0.204-0.27,0.555-0.27,1.037c0,0.54,0.092,0.921,0.272,1.146
				c0.182,0.223,0.425,0.332,0.73,0.332c0.227,0,0.416-0.065,0.561-0.195c0.146-0.131,0.25-0.354,0.311-0.671l1.183,0.201
				c-0.123,0.543-0.354,0.953-0.707,1.229c-0.348,0.275-0.815,0.416-1.4,0.416c-0.669,0-1.196-0.211-1.594-0.631
				c-0.395-0.42-0.591-1.004-0.591-1.746c0-0.749,0.196-1.336,0.593-1.754c0.398-0.42,0.937-0.627,1.614-0.627
				c0.555,0,0.995,0.119,1.322,0.356C542.219,577.497,542.453,577.86,542.597,578.348z"/>
			<path d="M547.477,578.348l-1.188,0.215c-0.039-0.237-0.131-0.416-0.273-0.537c-0.143-0.119-0.325-0.178-0.551-0.178
				c-0.301,0-0.538,0.104-0.719,0.31c-0.179,0.204-0.268,0.555-0.268,1.037c0,0.54,0.09,0.921,0.271,1.146
				c0.183,0.223,0.427,0.332,0.73,0.332c0.227,0,0.416-0.065,0.562-0.195c0.146-0.131,0.249-0.354,0.31-0.671l1.183,0.201
				c-0.123,0.543-0.355,0.953-0.708,1.229c-0.348,0.275-0.814,0.416-1.401,0.416c-0.668,0-1.195-0.211-1.591-0.631
				s-0.592-1.004-0.592-1.746c0-0.749,0.196-1.336,0.595-1.754c0.396-0.42,0.934-0.627,1.612-0.627c0.554,0,0.994,0.119,1.322,0.356
				C547.1,577.497,547.337,577.86,547.477,578.348z"/>
		</g>
	</g>
	<g>
		<path d="M569.93,571.719c-2.61,0-4.727,2.115-4.727,4.726c0,2.612,2.115,4.729,4.727,4.729s4.728-2.113,4.728-4.729
			C574.658,573.834,572.546,571.719,569.93,571.719z"/>
		<circle fill="#FFFFFF" cx="569.93" cy="576.447" r="3.846"/>
		
			<rect x="569.485" y="571.838" transform="matrix(-0.4233 0.906 -0.906 -0.4233 1333.3553 303.9469)" width="0.923" height="8.957"/>
		<g>
			<path d="M569.58,579.151v-0.637c-0.444-0.013-0.877-0.14-1.129-0.277l0.197-0.775c0.279,0.152,0.671,0.292,1.1,0.292
				c0.382,0,0.646-0.151,0.646-0.41c0-0.25-0.224-0.409-0.709-0.578c-0.712-0.237-1.196-0.567-1.196-1.214
				c0-0.591,0.411-1.046,1.123-1.18v-0.632h0.648v0.583c0.444,0.017,0.744,0.117,0.969,0.224l-0.199,0.748
				c-0.166-0.08-0.477-0.232-0.953-0.232c-0.434,0-0.571,0.193-0.571,0.381c0,0.212,0.231,0.356,0.797,0.563
				c0.797,0.277,1.108,0.644,1.108,1.247c0,0.592-0.412,1.09-1.182,1.222v0.683L569.58,579.151L569.58,579.151z"/>
		</g>
	</g>
	<g>
		<path d="M581.185,571.784c-2.571,0-4.66,2.086-4.66,4.659c0,2.575,2.089,4.665,4.66,4.665c2.576,0,4.665-2.09,4.665-4.665
			C585.853,573.87,583.761,571.784,581.185,571.784z"/>
		<path fill="#FFFFFF" d="M581.185,580.239c-2.092,0-3.789-1.698-3.789-3.794c0-2.091,1.695-3.79,3.789-3.79
			c2.096,0,3.793,1.695,3.793,3.79C584.979,578.538,583.281,580.239,581.185,580.239z"/>
		<path d="M581.185,573.885c-1.016,0-1.874,0.732-2.182,1.745h-0.294l0.933,1.016l0.932-1.016h-0.35
			c0.215-0.37,0.563-0.616,0.96-0.616c0.651,0,1.179,0.646,1.179,1.443c0,0.794-0.526,1.44-1.179,1.44
			c-0.433,0-0.809-0.289-1.015-0.722h-1.197c0.278,1.069,1.168,1.854,2.215,1.854c1.273,0,2.311-1.156,2.311-2.576
			C583.496,575.034,582.466,573.885,581.185,573.885z"/>
	</g>
</g>
<g>
	<path d="M12.392,586.197c-0.652,0-1.248-0.138-1.786-0.41c-0.539-0.271-1.003-0.631-1.39-1.07c-0.388-0.44-0.689-0.949-0.9-1.521
		C8.106,582.619,8,582.032,8,581.432c0-0.626,0.114-1.224,0.338-1.797c0.226-0.574,0.533-1.08,0.927-1.521
		c0.393-0.44,0.857-0.792,1.396-1.053c0.538-0.26,1.118-0.39,1.745-0.39c0.653,0,1.249,0.138,1.786,0.417
		c0.538,0.274,0.999,0.641,1.382,1.089c0.382,0.45,0.682,0.96,0.894,1.529c0.212,0.566,0.317,1.144,0.317,1.726
		c0,0.635-0.113,1.24-0.338,1.812c-0.225,0.573-0.533,1.078-0.926,1.516c-0.394,0.437-0.856,0.784-1.39,1.045
		C13.598,586.066,13.018,586.197,12.392,586.197z M8.675,581.432c0,0.539,0.091,1.057,0.271,1.555s0.437,0.939,0.769,1.325
		c0.329,0.382,0.723,0.69,1.177,0.919c0.456,0.23,0.956,0.345,1.503,0.345c0.563,0,1.071-0.117,1.526-0.355
		c0.454-0.239,0.846-0.556,1.17-0.946c0.328-0.392,0.578-0.834,0.755-1.328s0.265-0.997,0.265-1.51c0-0.538-0.092-1.057-0.276-1.555
		c-0.185-0.497-0.442-0.938-0.773-1.323c-0.33-0.385-0.723-0.691-1.179-0.92c-0.453-0.229-0.949-0.344-1.485-0.344
		c-0.564,0-1.076,0.117-1.536,0.354c-0.458,0.238-0.849,0.555-1.169,0.946c-0.323,0.394-0.571,0.836-0.749,1.33
		C8.762,580.422,8.675,580.923,8.675,581.432z"/>
	<path d="M24.14,578.299c-0.608-0.681-1.469-1.021-2.58-1.021c-0.918,0-1.587,0.175-2.006,0.523
		c-0.417,0.349-0.628,0.817-0.628,1.407c0,0.302,0.054,0.554,0.159,0.753c0.106,0.202,0.271,0.375,0.495,0.512
		c0.226,0.137,0.512,0.255,0.86,0.354c0.35,0.103,0.761,0.201,1.237,0.3c0.512,0.106,0.97,0.223,1.377,0.352
		c0.404,0.127,0.75,0.289,1.036,0.483c0.287,0.194,0.51,0.434,0.663,0.716c0.153,0.28,0.23,0.631,0.23,1.043
		c0,0.414-0.082,0.775-0.245,1.087c-0.163,0.31-0.393,0.564-0.688,0.773c-0.295,0.207-0.647,0.363-1.058,0.47
		c-0.41,0.105-0.866,0.159-1.371,0.159c-1.462,0-2.704-0.468-3.716-1.402l0.355-0.542c0.396,0.414,0.881,0.742,1.457,0.985
		c0.573,0.24,1.217,0.362,1.93,0.362c0.822,0,1.462-0.148,1.926-0.45c0.461-0.301,0.695-0.754,0.695-1.361
		c0-0.309-0.06-0.571-0.18-0.787c-0.117-0.218-0.301-0.405-0.549-0.563c-0.247-0.159-0.554-0.295-0.919-0.409
		c-0.364-0.115-0.796-0.224-1.29-0.329c-0.503-0.106-0.945-0.219-1.328-0.339c-0.384-0.117-0.708-0.269-0.972-0.449
		c-0.265-0.181-0.463-0.398-0.596-0.654s-0.199-0.577-0.199-0.965c0-0.424,0.083-0.799,0.246-1.125s0.391-0.603,0.682-0.826
		c0.291-0.226,0.64-0.395,1.045-0.512c0.406-0.114,0.854-0.17,1.351-0.17c0.607,0,1.15,0.09,1.627,0.27
		c0.476,0.182,0.909,0.459,1.296,0.828L24.14,578.299z"/>
	<path d="M26.734,586.131v-9.395h3.863c0.396,0,0.763,0.086,1.098,0.251c0.335,0.168,0.624,0.392,0.866,0.669
		s0.432,0.591,0.568,0.938c0.138,0.35,0.204,0.698,0.204,1.053c0,0.381-0.063,0.747-0.191,1.098
		c-0.128,0.354-0.31,0.666-0.542,0.939c-0.232,0.272-0.512,0.492-0.832,0.654c-0.323,0.164-0.683,0.245-1.078,0.245h-3.281v3.546
		L26.734,586.131L26.734,586.131z M27.408,581.963h3.241c0.309,0,0.586-0.064,0.833-0.191s0.456-0.3,0.629-0.516
		c0.17-0.218,0.303-0.462,0.396-0.741c0.092-0.276,0.139-0.564,0.139-0.866c0-0.309-0.056-0.602-0.165-0.879
		c-0.11-0.279-0.26-0.523-0.45-0.734c-0.189-0.213-0.41-0.381-0.661-0.504s-0.519-0.186-0.801-0.186h-3.162L27.408,581.963
		L27.408,581.963z"/>
	<path d="M34.963,586.131v-9.395h3.917c0.397,0,0.764,0.086,1.098,0.251c0.335,0.168,0.622,0.392,0.859,0.669
		c0.238,0.277,0.426,0.591,0.564,0.938c0.137,0.35,0.204,0.698,0.204,1.053c0,0.344-0.054,0.676-0.159,0.998
		c-0.105,0.324-0.254,0.611-0.45,0.867c-0.194,0.256-0.427,0.467-0.699,0.635c-0.274,0.17-0.573,0.277-0.9,0.331l2.341,3.651h-0.78
		l-2.275-3.547h-3.043v3.547L34.963,586.131L34.963,586.131z M35.636,581.963h3.295c0.299,0,0.57-0.064,0.819-0.195
		c0.247-0.133,0.458-0.307,0.636-0.523c0.176-0.217,0.311-0.463,0.402-0.74c0.093-0.278,0.142-0.563,0.142-0.854
		c0-0.301-0.056-0.59-0.167-0.867c-0.11-0.274-0.261-0.521-0.45-0.733s-0.409-0.381-0.661-0.511
		c-0.252-0.127-0.523-0.192-0.814-0.192h-3.201V581.963z"/>
	<path d="M49.899,585.521v0.608h-6.258v-9.395h6.139v0.61h-5.464v3.688h4.775v0.582h-4.775v3.903h5.583V585.521z"/>
	<path d="M51.421,576.736l3.281,5.199l3.308-5.199h0.743l-3.706,5.849v3.546h-0.673v-3.572l-3.69-5.821L51.421,576.736
		L51.421,576.736z"/>
	<path d="M60.126,586.131v-9.395h3.122c0.741,0,1.392,0.124,1.951,0.371c0.562,0.249,1.025,0.583,1.396,1.007
		s0.647,0.92,0.833,1.488c0.185,0.565,0.277,1.174,0.277,1.819c0,0.714-0.104,1.359-0.311,1.938
		c-0.207,0.577-0.505,1.069-0.894,1.48c-0.388,0.41-0.857,0.729-1.41,0.952c-0.552,0.225-1.167,0.339-1.845,0.339H60.126
		L60.126,586.131z M67.031,581.421c0-0.592-0.083-1.137-0.251-1.635c-0.167-0.498-0.411-0.93-0.733-1.292
		c-0.323-0.358-0.719-0.644-1.186-0.847c-0.466-0.203-1.005-0.303-1.614-0.303H60.8v8.177h2.447c0.617,0,1.162-0.104,1.633-0.312
		c0.473-0.207,0.866-0.496,1.185-0.866c0.316-0.37,0.559-0.805,0.722-1.303C66.95,582.543,67.031,582.003,67.031,581.421z"/>
	<path d="M68.288,586.131l3.996-9.395h0.555l3.998,9.395h-0.728l-1.311-3.097h-4.484l-1.311,3.097H68.288z M72.562,577.557
		l-2.09,4.922h4.141L72.562,577.557z"/>
	<path d="M81.148,576.802h0.661l1.401,3.413l1.404-3.413h0.662l-1.654,3.956l1.972,4.577l3.598-8.601h0.743l-4.023,9.395h-0.62
		l-2.063-4.829l-2.077,4.829h-0.622l-4.008-9.395h0.727l3.612,8.601l1.945-4.577L81.148,576.802z"/>
	<path d="M92.05,578.008v8.123h-0.675v-9.394h0.518l6.588,8.27v-8.255h0.675v9.379h-0.622L92.05,578.008z"/>
	<path d="M101.297,586.131v-1.125h0.583v1.125H101.297z"/>
	<path d="M103.401,581.368c0-0.563,0.098-1.127,0.298-1.688c0.197-0.561,0.485-1.062,0.866-1.502
		c0.379-0.439,0.844-0.801,1.395-1.078c0.552-0.275,1.181-0.416,1.887-0.416c0.838,0,1.552,0.192,2.144,0.576
		c0.591,0.383,1.027,0.877,1.308,1.475l-0.556,0.318c-0.159-0.328-0.351-0.601-0.576-0.822c-0.224-0.22-0.466-0.398-0.726-0.535
		c-0.261-0.137-0.534-0.236-0.814-0.299c-0.281-0.062-0.562-0.092-0.833-0.092c-0.6,0-1.129,0.121-1.589,0.362
		c-0.458,0.243-0.847,0.56-1.164,0.946c-0.316,0.387-0.557,0.826-0.722,1.315c-0.164,0.489-0.245,0.982-0.245,1.477
		c0,0.556,0.097,1.086,0.291,1.588c0.195,0.503,0.459,0.945,0.795,1.328c0.333,0.383,0.73,0.691,1.19,0.919
		c0.458,0.229,0.951,0.345,1.48,0.345c0.282,0,0.571-0.036,0.866-0.104c0.297-0.069,0.584-0.18,0.86-0.33
		c0.277-0.15,0.536-0.342,0.774-0.576c0.238-0.231,0.436-0.51,0.594-0.826l0.569,0.277c-0.159,0.353-0.372,0.666-0.643,0.939
		c-0.271,0.272-0.57,0.502-0.906,0.688s-0.69,0.324-1.065,0.417c-0.375,0.091-0.742,0.139-1.104,0.139
		c-0.644,0-1.233-0.141-1.767-0.423c-0.533-0.283-0.994-0.649-1.383-1.104c-0.386-0.455-0.689-0.971-0.904-1.548
		C103.509,582.555,103.401,581.969,103.401,581.368z"/>
	<path d="M116.882,586.197c-0.652,0-1.247-0.138-1.785-0.41c-0.538-0.271-1.001-0.631-1.39-1.07
		c-0.388-0.44-0.688-0.949-0.898-1.521c-0.212-0.572-0.317-1.16-0.317-1.76c0-0.627,0.112-1.225,0.337-1.798
		c0.224-0.573,0.534-1.081,0.926-1.521c0.394-0.44,0.857-0.792,1.396-1.052c0.539-0.261,1.121-0.391,1.747-0.391
		c0.65,0,1.246,0.139,1.786,0.416c0.538,0.276,0.999,0.643,1.381,1.09c0.384,0.45,0.682,0.959,0.893,1.53
		c0.212,0.566,0.317,1.143,0.317,1.725c0,0.636-0.112,1.24-0.336,1.812c-0.226,0.572-0.535,1.078-0.929,1.515
		c-0.393,0.438-0.854,0.785-1.389,1.045C118.087,586.066,117.509,586.197,116.882,586.197z M113.164,581.432
		c0,0.539,0.09,1.057,0.271,1.555c0.181,0.498,0.435,0.939,0.767,1.325c0.331,0.382,0.724,0.69,1.178,0.919
		c0.454,0.23,0.954,0.345,1.501,0.345c0.564,0,1.073-0.117,1.527-0.355c0.456-0.239,0.845-0.556,1.171-0.946
		c0.326-0.392,0.578-0.834,0.754-1.328c0.175-0.494,0.266-0.997,0.266-1.51c0-0.538-0.094-1.057-0.278-1.555
		c-0.186-0.497-0.443-0.938-0.774-1.323s-0.724-0.691-1.178-0.92c-0.456-0.229-0.95-0.344-1.488-0.344
		c-0.563,0-1.075,0.117-1.534,0.354c-0.459,0.238-0.852,0.555-1.172,0.946c-0.321,0.394-0.57,0.836-0.748,1.33
		C113.252,580.422,113.164,580.923,113.164,581.432z"/>
	<path d="M131.659,586.131v-8.123l-3.704,6.338h-0.423l-3.705-6.338v8.123h-0.675v-9.394h0.675l3.916,6.722l3.916-6.722h0.675v9.394
		H131.659L131.659,586.131z"/>
</g>
</svg>
