<?xml version="1.0" encoding="utf-8"?>
<!-- Generator: Adobe Illustrator 16.0.0, SVG Export Plug-In . SVG Version: 6.00 Build 0)  -->
<!DOCTYPE svg PUBLIC "-//W3C//DTD SVG 1.1//EN" "http://www.w3.org/Graphics/SVG/1.1/DTD/svg11.dtd">
<svg version="1.1" id="Layer_1" xmlns="http://www.w3.org/2000/svg" xmlns:xlink="http://www.w3.org/1999/xlink" x="0px" y="0px"
	 width="595.275px" height="595.279px" viewBox="0 0 595.275 595.279" enable-background="new 0 0 595.275 595.279"
	 xml:space="preserve">
<metadata><?xpacket begin="﻿" id="W5M0MpCehiHzreSzNTczkc9d"?>
<x:xmpmeta xmlns:x="adobe:ns:meta/" x:xmptk="Adobe XMP Core 5.3-c011 66.145661, 2012/02/06-14:56:27        ">
   <rdf:RDF xmlns:rdf="http://www.w3.org/1999/02/22-rdf-syntax-ns#">
      <rdf:Description rdf:about=""
            xmlns:dc="http://purl.org/dc/elements/1.1/">
         <dc:format>image/svg+xml</dc:format>
         <dc:title>
            <rdf:Alt>
               <rdf:li xml:lang="x-default">NFL Logo Redesigns</rdf:li>
               <rdf:li xml:lang="en_us">NFL Logo Redesigns</rdf:li>
            </rdf:Alt>
         </dc:title>
         <dc:creator>
            <rdf:Seq>
               <rdf:li>Max O'Brien/Osprey Dawn</rdf:li>
            </rdf:Seq>
         </dc:creator>
      </rdf:Description>
      <rdf:Description rdf:about=""
            xmlns:xmp="http://ns.adobe.com/xap/1.0/"
            xmlns:xmpGImg="http://ns.adobe.com/xap/1.0/g/img/">
         <xmp:CreatorTool>Adobe Illustrator CS6 (Macintosh)</xmp:CreatorTool>
         <xmp:ModifyDate>2013-10-06T18:32:32+13:00</xmp:ModifyDate>
         <xmp:MetadataDate>2013-10-06T18:32:32+13:00</xmp:MetadataDate>
         <xmp:CreateDate>2013-10-06T18:32:32+13:00</xmp:CreateDate>
         <xmp:Thumbnails>
            <rdf:Alt>
               <rdf:li rdf:parseType="Resource">
                  <xmpGImg:width>256</xmpGImg:width>
                  <xmpGImg:height>232</xmpGImg:height>
                  <xmpGImg:format>JPEG</xmpGImg:format>
                  <xmpGImg:image>/9j/4AAQSkZJRgABAgEASABIAAD/7QAsUGhvdG9zaG9wIDMuMAA4QklNA+0AAAAAABAASAAAAAEA&#xA;AQBIAAAAAQAB/+4ADkFkb2JlAGTAAAAAAf/bAIQABgQEBAUEBgUFBgkGBQYJCwgGBggLDAoKCwoK&#xA;DBAMDAwMDAwQDA4PEA8ODBMTFBQTExwbGxscHx8fHx8fHx8fHwEHBwcNDA0YEBAYGhURFRofHx8f&#xA;Hx8fHx8fHx8fHx8fHx8fHx8fHx8fHx8fHx8fHx8fHx8fHx8fHx8fHx8fHx8f/8AAEQgA6AEAAwER&#xA;AAIRAQMRAf/EAaIAAAAHAQEBAQEAAAAAAAAAAAQFAwIGAQAHCAkKCwEAAgIDAQEBAQEAAAAAAAAA&#xA;AQACAwQFBgcICQoLEAACAQMDAgQCBgcDBAIGAnMBAgMRBAAFIRIxQVEGE2EicYEUMpGhBxWxQiPB&#xA;UtHhMxZi8CRygvElQzRTkqKyY3PCNUQnk6OzNhdUZHTD0uIIJoMJChgZhJRFRqS0VtNVKBry4/PE&#xA;1OT0ZXWFlaW1xdXl9WZ2hpamtsbW5vY3R1dnd4eXp7fH1+f3OEhYaHiImKi4yNjo+Ck5SVlpeYmZ&#xA;qbnJ2en5KjpKWmp6ipqqusra6voRAAICAQIDBQUEBQYECAMDbQEAAhEDBCESMUEFURNhIgZxgZEy&#xA;obHwFMHR4SNCFVJicvEzJDRDghaSUyWiY7LCB3PSNeJEgxdUkwgJChgZJjZFGidkdFU38qOzwygp&#xA;0+PzhJSktMTU5PRldYWVpbXF1eX1RlZmdoaWprbG1ub2R1dnd4eXp7fH1+f3OEhYaHiImKi4yNjo&#xA;+DlJWWl5iZmpucnZ6fkqOkpaanqKmqq6ytrq+v/aAAwDAQACEQMRAD8A9U4q7FXYq7FXYq7FXYq7&#xA;FXYq7FXYq7FXYq7FXYq7FWKedtfbTbnTI4yQRMLiYDqY0+Hj/suRxVlSsrKGU1VhUEdwcVbxV2Ku&#xA;xV2KuxV2KuxV2KuxV2KuxV2KuxV2KuxV2KuxV2KuxV2KuxV2KuxV2KuxV2KuxV2KuxV2KvIvOWo/&#xA;XvMFy6mscJ9CP5R7H/hqnFXoHkrUfrvl63LGslvWB/8AYfZ/4QjFU9xV2KuxV2KuxV2KuxV2KuxV&#xA;2KuxV2KuxV2KuxV2KuxV2KuxV2KuxV2KuxV2KuxV2KuxV2KuxVB6zfjT9Kurw9YYyUr3c7KPpYjF&#xA;Xzh5n83x6Rr2g6fIQf0tcOk7HqF48UPtWV1+45ZCFgnuYSlRD1f8tNR9O9ubBj8M6CSMf5SbH71P&#xA;4ZWzeiYq7FXYq7FXYq7FXYq7FXYq7FXYq7FXYq7FXYq7FXYq7FXYq7FXYq7FXYq7FXYq7FXYq7FX&#xA;Yqwz8y9QEdhb2Cn4p39Rx/kR9K/Nj+GKvjL83dce988ziGT4NNVLaFlPR0+Nz8xIxH0ZnYI1FxMp&#xA;uT6D/L7zQl1a6N5gQikio84HY/YmUfI8hmHONGnJibFvfQQQCDUHcEZFk7FXYq7FXYq7FXYq7FXY&#xA;q7FXYq7FXYq7FXYq7FXYq7FXYq7FXYq7FXYq7FXYq7FXYq7FWmZVUsxCqBUsdgBirxz8xvMNv9f1&#xA;DUWcPZ6dC3FgdikKlmofdq4QLNIJp8Y3l1Nd3c93OeU1xI0sreLOxZj95zZgU4JL2f8AIbW/W0m+&#xA;0aRvjtJBPAD/AL7l2YD/AFXWv+yzE1Ed7cjCdqfV/k7VY77Q7ZTIGuYE9OVKjkOB4qSOu603zGb0&#xA;8xV2KuxV2KuxV2KuxV2KuxV2KuxV2KuxV2KuxV2KuxV2KuxV2KuxV2KuxV2KuxV2KuxV41+bn5jw&#xA;6baXk8rt+jLJvTWBDRp5q8QPf4ungBXJQiZGmMpULeNW/nyD8wdE1Ty5FH+itYuYibNGk9RJQjBy&#xA;nPilCQtG26b5ecfAQeYauPjFPMpfy987RSNG2i3RZTQlIy6/Qy1U/QcyPFj3tPBLuejflD5B8x6R&#xA;qkms6mhsongaFLViPVfkymrqK8VHHvvXMfPkBFBuxQINl7DbTXdo8V5A5hcMRFIDQkqAWoO9OQ5f&#xA;MV65jN71ryxrY1jSY7lgBOhMdwo6c1puPYgg4qm2KuxV2KuxV2KuxV2KuxV2KuxV2KuxV2KuxV2K&#xA;uxV2KuxV2KuxV2KuxV2KuxV2KoLWr8WGlXV5WhhjYp/rnZf+GIxV8Zfn5rhebTtFR68Q15citfia&#xA;qR19/t/fmVpo8y4+Y9Hk9le3NjeQ3lq5iubd1kikHUMpqDmURbQDT6n8s65Drug2WqxAKLmMM6D9&#xA;mQfC6/7FgRmtnGjTmxNi0zyLJjn5i6jLp3mD8urytLGX9IWExpsJZpU+03vzjO/hl0BcS1TNSD1b&#xA;8tNQ9O/ubFj8M6CRB/lR9QPmrfhlLa9FxV2KuxV2KuxV2KuxV2KuxV2KuxV2KuxV2KuxV2KuxV2K&#xA;uxV2KuxV2KuxV2KuxVh35lah6Wm29kp+K5k5uP8AIj8f9kR92Kvhfz5rX6Z826lfKeULSmOA9vTi&#xA;HpoR8wtc2OONRAcKZspBk2L3D8hdSebQtR09jX6pcLIleyzr0/4KMnMPUjcFycJ2eoZjtya6Pofl&#xA;zzOv+HPMdoLuwmkW6tfiaN4rmIVDJIhVlLJUGh36ZKMiOSDEHmr76B5u2+GO1uPp9F/6xtkUvXAQ&#xA;RUbg9DirsVdirsVdirsVdirsVdirsVdirsVdirsVdirsVdirsVdirsVdirsVdirsVdirwv8APbzV&#xA;9RtNYvEejWcH1W2I7TP8IP8AsZH/AAyeONyAYzNB8d5sXCdir1P8grsJrOqWdd5rdJQP+MT8f+Zu&#xA;Y2pGwbsB3e25iOSidOumtL+3ulNDBIkn0KQTirJ/zKsxHqlvdqPhuYqEju0Z6/8AAsuKsx8pah9e&#xA;8v2kpNZEX0pPHlH8O/zFDiqb4q7FXYq7FXYq7FXYq7FXYq7FXYq7FXYq7FUDq+rJplv9Yktp54R/&#xA;eNAqtwHiwLKaYqkH/Ky9C/3xdf8AAR/9VMVd/wArL0L/AHxdf8BH/wBVMVd/ysvQv98XX/AR/wDV&#xA;TFXf8rL0L/fF1/wEf/VTFXf8rL0L/fF1/wABH/1UxV3/ACsvQv8AfF1/wEf/AFUxV3/Ky9C/3xdf&#xA;8BH/ANVMVd/ysvQv98XX/AR/9VMVc35maHxPG3uS1NgVjAr/AMHir5c/5yC8wySLZaVzrLcyPfXf&#xA;vuVT72L/AHZlaaPMtGY9Hi+ZTjuxVkPkHzCugearLUJDS25GK6/4xSDix/2P2voyGSPFGmUJUX0+&#xA;rBgGU1U7gjoRmuc12KvQfNUX1/yVYX43kgWF3PXZ1CN/wxGKpR5O822uiwXFveJLJFIyvEIgpo1K&#xA;NXky9aDFWQ/8rL0L/fF1/wABH/1UxV3/ACsvQv8AfF1/wEf/AFUxV3/Ky9C/3xdf8BH/ANVMVd/y&#xA;svQv98XX/AR/9VMVd/ysvQv98XX/AAEf/VTFXf8AKy9C/wB8XX/AR/8AVTFXf8rL0L/fF1/wEf8A&#xA;1UxV3/Ky9C/3xdf8BH/1UxVFaf550/Ublbazs7uWVuwSOgHix9SgGKsjxV2KuxV2KuxV3XFWG+Zf&#xA;IMF1zu9KCw3B3e36Rv8A6v8AKfw+WKvPbi3ntpngnjaKZDR0YUIOKqXNOfDkOZFQtd6DvTFW8Vdi&#xA;rsVdirsVdirzb80fyz1HzHeRarpUifW44hDLbSniHVSWVkbcV+KlDtmRhyiOxacmO9w8i1HyV5t0&#xA;5it3pNygGxdYzIn/AAacl/HMkZInq0GBHRJnR0Yq6lWHVSKH8cmxaxV6V5C/N+40a3i0vWo3u9Pj&#xA;osFwm80S9lIJAdB27j32GY+TBe4boZa2L1Gz/MfydeKhgvmYv0BgnB/GP8emY5xSDcMgep6N5x0G&#xA;+8hzWXrn6wkTxIjxypzJJaMqWUA/RkCKZA2xHAl2KuxV2KuxVsAk0G5PQYqjV0PVzbSXRtJI7aJD&#xA;JJPIPTQIoqTyfiNsVQIIIqNwehxVP/LnlC/1hhK1bexB+Kdhu1OyDv8APpir03StIsNLthb2cQRe&#xA;rsd2Y+LHviqMxV2KuxV2KuxV2KuxVKtd8t6drMPG4XhOopFcL9tf6j2OKvKPNfk24sz6F/GWhJrb&#xA;3kLMhB7FHUhkb/PcYQaQQ891fzB5r8p1mv7b9O6EvW/hAju4V/4uQfA/+soUeNMtjGMuWxYGRj5h&#xA;H6H+ZXk3WAqwagkE7U/0e6/cvU9hy+Fj/qscjLFIJGQFk4IIBBqDuCMrZuxV2KuxV2KuxVZNbwTr&#xA;xmjSVf5XUMN/njaob9DaP/yw2/8AyKT+mHiKKDNPK3nCHSxHb3VqkkCDjHPGirKi+HbkMFpeiWGq&#xA;6XqUXK0njnUirID8QH+Uh3H0jFVlzoGiXNTNYwOx6twUN/wQAOKoFvI/lZjU2Ir7SSj9T4qpnyF5&#xA;YJJ+rMPYSSf81Yq7/APlj/lnb/kY/wDXFXf4B8sf8s7f8jH/AK4qkXmC6/KHykGk16/tLORBy+rz&#xA;Ts8xH+TbqzSN9CHJRgTyYmQHN5zqH/OSnl6S+/Rf5ceWG1XUmqEvJ41tYFAIHqEL+8ZPHmY8t8Ct&#xA;5GmHi3sF0R83a9NHceatQOpXjMGg0u2Ux2EDVqojhG8rg9Hl5MO1MrlIdGYier0ny1+X6pwu9YAZ&#xA;tiln2H/GQ9/9XIMmcKqqoVQFVRRVGwAHYYq3irsVdirsVdirsVdirsVdiqncW0FzA8FxGssMgo6M&#xA;KgjFXnfmbyBNbB7nTFM9ruXtj8ToPb+cfjir598+fk1bXvqah5cVba83aWwPwxSH/is9Eb2+z8sy&#xA;ceeti0zxXyeVW2t+bPLty9rDeXWnzQtSS2LMoDD+aNvh/DMkxjJoshlOm/nf5xtgFultr5R9ppI+&#xA;Dn6Yii/8LlR08WYzFktj+f8AYtQX+kSxeLQSrJ/wrrH+vKzpj0LMZ/JPbT86vI09PVluLSv+/oSa&#xA;f8ijJkDgkyGaKbW/5l+Rbinp6xAtf9+c4u1f92KuROKXcy8SPemun+Y/L+oyiGw1O1u5ivP0YZo3&#xA;fiOp4qS2RMSOYZCQKNnube3TncSpChNA0jBRXwqaZGk21b3lpchjbzxzBftGNlelfGhOEhbQet+Y&#xA;tE0MoNXvI7JpKhElNGPH7VF67YYwJ5IMgOaSp+bXklLmJLXU3lundUiWCGcvyY0FCEHj45PwZdzD&#xA;xIvT9N8/a/ZgJK63cY7TCrf8GKH765U2LdZ/5yT/AC40N2tNVluBq0IH1mxt4HkKFlDrSRvTjPJS&#xA;D9rvlkcUpCwwlkAYhq3/ADmV5ShqNJ0C+vCOn1mSG1BPzQ3Jp9GWjTHqWBzhg+t/85h+e7oOmk6X&#xA;YaajfZeQSXMq/Ji0afemTGnHVgcxec+Yfzp/NLXw6aj5kvPRcUeC2YWsRU/ssluIlYfPLRiiOjWZ&#xA;kqfkr8ttb80Si6kraaWWrJeyAln33ESn7Z9+n6sjkyiPvZQxmT6J8ifl5bWkI03QLQImxubp9yT/&#xA;ADSyU3PgPuGYUpmR3cmMQOT2Ty95U07Row6D1rwij3LDf5IP2RkWSdYq7FXYq7FXYq7FXYq7FXYq&#xA;7FXYq7FXYqxnzL5Is9U5XNpxtr47k0+CQ/5QHQ+4xV4l5/8AyzsNZ5WmrW5tNSiFILxAPUUdt+ki&#xA;e33UyyGQxYSgJPnnzb5K1zyxd+lfxcrdyfq95HUxSD59m8VOZsMglycWUCEgybF2KuxV6H+SfmBd&#xA;P8ztp0oURaonpq5AqJY6sg5eDCop40yjURsX3NuGVGlf88tee68xQ6QjfuNOiDSL/wAXTDkSfknG&#xA;n04NPGhac0t6ZD/zjlHLO2qW7L+5kntFU+LPzDCvy45HU9GWDqzH85/I/wDjG5up7QiPVbaeY2nI&#xA;8VdWbeJyaUrQUJ6HKsWThPkzyQ4gxP8AIvyP5v1zzLHbSaJZ2Fhoc3p6pql1ZkXCvGaNbo1UJnPQ&#xA;n9kbnsDfmIrnzasYN8n0T+ZdpZxLp7xqqTBWiCqAP3aAcR/sa7ZhuS+L/wA0bpLnz7rEi0IWVItv&#xA;GKJIz+KZsMI9IcPIfUWLZYwVLe3nuZ0gt42mnkIWOKMFmZj0AA3OJKvYvIn5MRxenqPmZRJJs0em&#xA;A1RT29Yj7X+qNvGvTMXJn6ByIYu99BeV/IdxfJFNcr9U05QPTRQFdlHQIv7K07/dmK3vSbKxtLG3&#xA;W2tIlhhToq/rJ6k+5xVXxV2KuxV2KuxV2KuxV2KuxV2KuxV2KuxV2KuxVA6to2n6rbGC8j5AfYkG&#xA;zoT3U4q8q84+Qnt7eWC+gW/0mb4S7LVaHoHH7J8D92EEjkgi3zr58/J690v1NQ0EPd6cKtJa/ami&#xA;Ht/vxR949+uZePPexceeKuTzTMhpdiqrZ3dxZ3cN3bOY7i3dZYpB1V0NVP3jEi1BVtX1S61bVLrU&#xA;rsg3F3I0sgWoUFj9lQSTQDYb4IihSSbNvYfyM81+W9P09dNmmMOpG5e6kQqfjSNA5KsAV+FIzscx&#xA;c8CTfRvwyFUzDzf+YVgskHmfSD9c8r3N3LHfSKp9SNZWoklDuODAgjvUZXHHZIPNmZ9ej2nyF5xg&#xA;1GwS2nlVmihEtvcg1WWECoNe5C/eMqbGCeavMbXUt5q923GCCN5AvZIYwWp9w3wgWpL48v7ya9vr&#xA;i9mNZrmV5pD/AJUjFj+JzZAUHAJtNfKvk3XPM156GnQ/ukIE929RFGD/ADN4/wCSN8jPII82UYEv&#xA;oLyF+WemaF6cOnwNe6vMOL3bLWRq9Qg6Rp/mTmFkymTlQgIvbPLXkO2suF1qQWe7FCkXWOM/8bH8&#xA;MrZsuxV2KuxV2KuxV2KuxV2KuxV2KuxV2KuxV2KuxV2KuxV2KtOiSIyOoZGBDKwqCD1BBxV5t558&#xA;s6fpfp3dm3prcOVNqdwNqllPh7Yq+TvzoTSIvN/o2FukM6wq9+ybBpZCWFVG1eBBr3rmdgvh3cXL&#xA;VsCy5qdirsVey/lpP5d0XQfL11cRRSajq95qQkviygWcMEUQAkNNvVYbAkUG/fMbKCSfJvxkCnp7&#xA;2GlX2mSWgiil0+7Vg6R8fTcSVLEcdtya1HfMWyC30CGM/lyup6Hcal5WupHb9GsJdMuSaGSzuOQF&#xA;KfykEH50yzLRqQYY9tlv5v6qdP8AI92itxkvnS1Q+znk4+lEYY4BclymovnWNlV1Zl5qCCyEkVHh&#xA;UZnuI+tfKNlo81jplvpax2em3SxGDgvwqs1CGI7n4t65rZXe7nRqtnt+ieX9O0eD07VKyMP3s7bu&#xA;/wAz2HsMilMsVdirsVdirsVdirsVdirsVdirsVdirsVdirsVdirsVdirsVdiry/8ydVjfVjEzhYL&#xA;CL42PQMw5uf+Bpir4n8w6s+r65fam9a3czyKD2Un4F/2K0GbOMaFODI2bS/Ch2KuxV6b+W+k/k5r&#xA;F5p+n68dUS/lXhJHEyBJZuoCEA0U+9DlGSUxv0bYCJetweRPKeiX8cvlW51SysxvPZXE8csEp942&#xA;R+PzVq5jSyGXNvjCuSH893zWHlq7nhbhdS+lbQOp4vymlVKBhv0YnBjFlZmg8y/PPzLZ3t5ZaPZz&#xA;LL9SMkl5wNVWVqKqEj9pQGr88yNPCt2nNLo8szJaX0H+Sut/XvKCWjMTPpkrQmp34MfUjP8AwxUf&#xA;LMLPGpOViNh9T6HqA1DSLW8rVpYx6n+uNn/4YHKG1HYq7FXYq7FXYq7FXYq7FXYq7FXYq7FXYq7F&#xA;XYq7FXYq7FXYqsnmjggknkNI4lZ3PgqipxV8wfnN5lltvK2p3RbjdapIbdP+e5Jcf8iw2W4Y3Jry&#xA;movmnM9xHYq7FXYq+pvykvtK0fRdB1K0t7Uztax+rSONXdivGWhArz5Ajl1r1zX5CeIuZCqCfeYt&#xA;W0uO5vNRd0srAyM4aUrGqqTtWpoPlkALZE08B/NL8yYNemtrDRmdbGzl9c3W6GSZdkZBswVKmld6&#xA;/LMzDi4dy42TJfJ5ySSSSak7knL2p2KvQ/yR1v6j5rfT3akOpxFAO3qxVdD/AMDyH05RqI3G+5tw&#xA;mi+wfyz1D1LO6sGO8LiWMf5L7ED5EfjmE5TNMVdirsVdirsVdirsVdirsVdirsVdirsVdirsVdir&#xA;sVdirsVY35+1H6poEkSmkl2wiXx4/aY/cKfTir48/PjWzPrFlo6N+7s4jNMB/vyboD/qov45maeO&#xA;1uNmO9PLsyGl2KuxVtVZmCqCzMaADcknFXpnlf8AJTWb6wa+1G5Ol3DKGsoOPKQN1DS0I4fL7Xyp&#xA;Q4884Bobt0cJPNiXnHT/ADfp18LPzHNcTulfq8s0rzRso25RM5O34+OWwMSNmuYI5sfybF2KuxVE&#xA;6XqE+nala38B/fWsqTJ2qUYNT6aYCLFJBovs78v9chXVdPvYmra6giqD4pOAUP8AwXE5rSKc4F7D&#xA;gV2KuxV2KuxV2KuxV2KuxV2KuxV2KuxV2KuxV2KuxV2KuxV5n+ZWppJqqWxcCKyirIT0DP8AEx/4&#xA;ELir4n80ay2teYdQ1QklbmZmjr1EY+GMfQgAzZQjQpwZGzaV5JDsVTHQfL2r69frZaZbtPMd3PRE&#xA;X+Z26KMjKQiLKYxJ5PfPIP5VaboDRTOn6R1x6ATcSVRj+zAn/G3U+3TMPJmMvc5UMYD23Rvy4Mlq&#xA;0mqStFNIv7uGOhKHxc9CfYZS2MM87+QENu+n61ard2Ep/dTgGlexVhuj/wCfTJRkQbCCAeb5z89/&#xA;lVqvl4yXthyvtHFSZAP3sI/4tUdR/lDbxpmZjzCXPm408RDBMuanYq7FX0N+S+utf+UIoC/+k6XI&#xA;YCe/D7cZ+5uI+WYOeNScrEbD6n0i/XUNLtrwf7ujDMB2bow+hq5S2ovFXYq7FXYq7FXYq7FXYq7F&#xA;XYq7FXYq7FXYq7FXYq7FVskiRRtI54ogLM3gAKnFXzN+cPmd7byzq9+W43OosbeEeBuCQQP9WPlT&#xA;5ZbhjcmGQ0HzFme4bsVZr5F/K/V/MjJd3HKy0eu9yw+OQdxCp6/6x2+fTKsmYR97ZDGS+ivJHkGG&#xA;CFNM0GzEMCUM858f55ZOrMf9rbMKUjI2XKjEDk9f8veVdO0aMMg9a7Io9yw39wo/ZGRSnWKqdxbw&#xA;XMLwTxrLC4o6MKgjFXnvmbyDNbB7rSwZ7bcvbHd1H+T/ADD8fnir598+fk3a33qah5dVbW93aWw+&#xA;zDIf+K+0be32flmTjz1sWmeK+TxW8sruyuZLW7heC5iPGSKQFWU+4OZYNuMRSjir0X8j9b+peaZN&#xA;OdqQ6nEVUVoPVhq6f8LzGUaiNxttwnen2F+Wuo+rp1xYsfitn5oP8iT+jA/fmE5TMcVdirsVdirs&#xA;VdirsVdirsVdirsVdirsVdirsVdirsVY9571H6n5emRTSS6IgX5Nu/8AwoIxV8ffn1rQl1HT9Gjb&#xA;4baNrmcDpzlPFAfdVUn/AGWZemjsS4+Y9HlttbXFzOlvbRNNPKQscUYLMxPYAbnMkloey+Q/yZht&#xA;vT1HzKqzT7NFpoIaNO/74jZz/kjbxrmJkz9A5EMXUvoDyv5EuL5Y57xTa2AA9OMDi7r24j9lff7s&#xA;xm96TZWVpZW629rEsMKdEUfifE++Kq2KuxV2KuxVjXmXyTZ6pzuLWltfHctT4JD/AJYHf3GKvE/P&#xA;/wCWlhrAaz1i2NrqMQpBeoB6ijtv0kT2+6hyyGQxYSgJPnjzb5I1zyxdenfR87ZzSC9jBMT+1f2W&#xA;/wAk5mwyCXJxZQISvR9Sm0vVbTUYf7y0mSZR48GBp9PTJSFikA0X2f8Al5rMK6xZXMT1tdQjCK/Y&#xA;rKA0Z+luOa0inOD13ArsVdirsVdirsVdirsVdirsVdirsVdirsVdirsVdirzf8ytSEupQ2Qb4LVO&#xA;Un+vJvv8lAxV8hzaRrnn/wA56jdadHyt5JyDdvURRwr8EfI+PBRsN8z+IQiLcSjIva/IP5aaboXC&#xA;DToGvdWmHGS7Zf3jeIUbiNP8yTmJkyGTkQgIvbPLXkO2seF1qPG4uxusXWOM/wDGx/D9eVs2W4q7&#xA;FXYq7FXYq7FXYqgtW0bT9VtjBeRhx+w42dD4q3bFXlfnHyE9tbywXkC3+kTfCzMvJaHoJF/ZPgf4&#xA;4QaQRb518+fk7eab6moeXw93YCrSWe7TRD/J/wB+KP8Agh79cy8ee9i488Vcmefkzr733lG3iLkX&#xA;WlSG3Jr8QVTziP0KeI+WU541JtxGw+ptMvVvtOtrtek8auQOxI3H0HbKWxE4q7FXYq7FXYq7FXYq&#xA;7FXYq7FXYq7FXYq7FXYq07qiM7niqglmPQAbnFXhvmCUazPftKWVL0yKSpoyo4KgA9iFwgqUT5O8&#xA;imaCOy0q2Sy0yD4TIBRF8ad3fx/E4kk80AU9Y0Ty/p2jwenap+8YfvZ23dz7nw9sCUyxV2KuxV2K&#xA;uxV2KuxV2KuxVp0R0KOoZGFGUioIPYg4qwXzL+X4PO70cUPV7M/8yz/xqfo8MVea23l/T9O1S8vL&#xA;e3+q3V3xW9jUcFd4yaMydnHI1PfvkjIkUgAPV/y21H1tKmsmNXtHqg/yJKn/AIkGyKWXYq7FXYq7&#xA;FXYq7FXYq7FXYq7FXYq7FXYq7FXYqkXnW/Nn5fuAp/e3NLeMDqef2v8AhQcVYz5a8gSz8LvVwYoe&#xA;qWnR2/1/5R7dflir0CGGGCJYoUWOJBREUAAD2AxVfirsVdirsVdirsVdirsVdirsVdirsVSPzF5T&#xA;0/WULkehegfBcKOvs4/aGKsU8tW2oeXvNMdpfJwjuwYVkG6OTuhU/wCsAPpxV6PirsVdirsVdirs&#xA;VdirsVdirsVdirsVdirsVdiqlLa28ssUssYeSEkxM2/EnYke/viqrirsVdirsVdirsVdirsVdirs&#xA;VdirsVdirsVdiqlcWtvcoEnjEiqwda9mU1DA9iMVVcVdirsVdirsVdirsVdirsVdirsVdirsVdir&#xA;sVdirsVdirsVdirsVdirsVdirsVdirsVdirsVdirsVdirsVdirsVdirsVdirsVSv/FXlfb/cxY/F&#xA;KIF/0mHeU9Ix8X2/8nriqxfOHlJhVdbsGFSKi6hO4CsR9rwdT9IxVVbzP5aW3e5bVrIW8VDJMbiL&#xA;gvLkRyblQV9NvuPhiq9PMGgyLAyalastzX6sVnjIk4zJbtwo3xUmlSM0/bYL1IxVbb+ZfLly0SW+&#xA;q2czTo0sKx3ETl40LBnUBjyUem1SPA+GKtz+Y/L1vK0VxqlpDKkfrPHJPErCMgEOQWB40I3xV0Pm&#xA;Ly/PF60Op2ksXKGP1EnjZedywSBahqVldgqD9o7DFUwxV2KuxV2KuxV2KuxV2KuxV2KuxV2KuxV2&#xA;KuxV2KuxV2KuxV2KuxVBa3qDabo1/qKxiZrK2muBEW4hzEhfjyo1K8aVpirzWL839YdbeQw6WI7l&#xA;wkSC7R7ij8PTka2WQzBH9VD9mqhgXCjcBUmm/wCciLuGye8l0+EQrTiU5ymnpCd2KxF2AjhdZGNK&#xA;cTtUhgCrov8AnIm6mI9DToJlWJpZCrnipSgZfUVpFNHZE5JyFWBHJakKs/T8t4o/q7pqt0lxaw29&#xA;nbXKLFHKlralvTQPGqNy/eHka8W/aQjbFVt3+VWgXFgloLi7TjFFE8nryPz9HhxLrIWRqekOK04q&#xA;d1AOKoi9/LzTL22VLmUm5jt57aK5RFDKLhlblQ8qsnFgpPQO4/aOKoeb8rtLubqe+ur67l1K4Zy1&#xA;0riMKrrKOKRIBGOJnLKxBYFVNajdVDx/k/oK26xveXck8Ql+rXjMnrQtKAQ0bBRThJzcDoebg1U8&#xA;cVTWXyUzLLHHqk0cMs8F5wEUDEXNp6QhbkyE8AttGCvU7/EK4qlsf5SeXhffpCae4mvzfQ6m8xZU&#xA;VriG5F0C0aBUYc+YXkDxDtx3NcVZxirsVdirsVdirsVdirsVdirsVdirsVdirsVdirsVdirsVdir&#xA;sVdiqA8wabNqmg6lpsMot5r61nto5yvII00bIHK9+JatMVeGyfk1+cX6AttMtrjyva31ssaLrUUN&#xA;x9bZYyhVX5QtGV/dLtx3p8VatyVVrD8kvzDt7mD1JdFNiYANTgj4I91dogMdwJBp37oJccpURVPG&#xA;tK13KrUn5HfmNNo15atf6PbanLK8en6hbxxhLWxYqqQCE2ILmKIzIh9RT+8O/iq//9k=</xmpGImg:image>
               </rdf:li>
            </rdf:Alt>
         </xmp:Thumbnails>
      </rdf:Description>
      <rdf:Description rdf:about=""
            xmlns:xmpMM="http://ns.adobe.com/xap/1.0/mm/"
            xmlns:stRef="http://ns.adobe.com/xap/1.0/sType/ResourceRef#"
            xmlns:stEvt="http://ns.adobe.com/xap/1.0/sType/ResourceEvent#">
         <xmpMM:OriginalDocumentID>uuid:9E3E5C9A8C81DB118734DB58FDDE4BA7</xmpMM:OriginalDocumentID>
         <xmpMM:DocumentID>xmp.did:1212731713206811822A8451A1857300</xmpMM:DocumentID>
         <xmpMM:InstanceID>xmp.iid:1212731713206811822A8451A1857300</xmpMM:InstanceID>
         <xmpMM:RenditionClass>proof:pdf</xmpMM:RenditionClass>
         <xmpMM:DerivedFrom rdf:parseType="Resource">
            <stRef:instanceID>xmp.iid:6A1E35630F206811822A8451A1857300</stRef:instanceID>
            <stRef:documentID>xmp.did:6A1E35630F206811822A8451A1857300</stRef:documentID>
            <stRef:originalDocumentID>uuid:9E3E5C9A8C81DB118734DB58FDDE4BA7</stRef:originalDocumentID>
            <stRef:renditionClass>proof:pdf</stRef:renditionClass>
         </xmpMM:DerivedFrom>
         <xmpMM:History>
            <rdf:Seq>
               <rdf:li rdf:parseType="Resource">
                  <stEvt:action>saved</stEvt:action>
                  <stEvt:instanceID>xmp.iid:F77F117407206811822A8451A1857300</stEvt:instanceID>
                  <stEvt:when>2013-10-06T17:09:14+13:00</stEvt:when>
                  <stEvt:softwareAgent>Adobe Illustrator CS6 (Macintosh)</stEvt:softwareAgent>
                  <stEvt:changed>/</stEvt:changed>
               </rdf:li>
               <rdf:li rdf:parseType="Resource">
                  <stEvt:action>saved</stEvt:action>
                  <stEvt:instanceID>xmp.iid:1212731713206811822A8451A1857300</stEvt:instanceID>
                  <stEvt:when>2013-10-06T18:32:32+13:00</stEvt:when>
                  <stEvt:softwareAgent>Adobe Illustrator CS6 (Macintosh)</stEvt:softwareAgent>
                  <stEvt:changed>/</stEvt:changed>
               </rdf:li>
            </rdf:Seq>
         </xmpMM:History>
      </rdf:Description>
      <rdf:Description rdf:about=""
            xmlns:xmpTPg="http://ns.adobe.com/xap/1.0/t/pg/"
            xmlns:stDim="http://ns.adobe.com/xap/1.0/sType/Dimensions#"
            xmlns:xmpG="http://ns.adobe.com/xap/1.0/g/">
         <xmpTPg:NPages>1</xmpTPg:NPages>
         <xmpTPg:HasVisibleTransparency>False</xmpTPg:HasVisibleTransparency>
         <xmpTPg:HasVisibleOverprint>False</xmpTPg:HasVisibleOverprint>
         <xmpTPg:MaxPageSize rdf:parseType="Resource">
            <stDim:w>209.999929</stDim:w>
            <stDim:h>210.001308</stDim:h>
            <stDim:unit>Millimeters</stDim:unit>
         </xmpTPg:MaxPageSize>
         <xmpTPg:PlateNames>
            <rdf:Seq>
               <rdf:li>Cyan</rdf:li>
               <rdf:li>Magenta</rdf:li>
               <rdf:li>Yellow</rdf:li>
               <rdf:li>Black</rdf:li>
            </rdf:Seq>
         </xmpTPg:PlateNames>
         <xmpTPg:SwatchGroups>
            <rdf:Seq>
               <rdf:li rdf:parseType="Resource">
                  <xmpG:groupName>Default Swatch Group</xmpG:groupName>
                  <xmpG:groupType>0</xmpG:groupType>
               </rdf:li>
            </rdf:Seq>
         </xmpTPg:SwatchGroups>
      </rdf:Description>
      <rdf:Description rdf:about=""
            xmlns:pdf="http://ns.adobe.com/pdf/1.3/">
         <pdf:Producer>Adobe PDF library 10.01</pdf:Producer>
      </rdf:Description>
      <rdf:Description rdf:about=""
            xmlns:xmpRights="http://ns.adobe.com/xap/1.0/rights/">
         <xmpRights:Marked>True</xmpRights:Marked>
         <xmpRights:WebStatement rdf:resource="http://www.ospreydawn.com"/>
         <xmpRights:UsageTerms>
            <rdf:Alt>
               <rdf:li xml:lang="x-default">This work is licensed under a &lt;a rel="license" href="http://creativecommons.org/licenses/by-nc-sa/3.0/"&gt;Creative Commons Attribution-NonCommercial-ShareAlike 3.0 Unported License&lt;/a&gt;.</rdf:li>
               <rdf:li xml:lang="en_us">This work is licensed under a &lt;a rel="license" href="http://creativecommons.org/licenses/by-nc-sa/3.0/"&gt;Creative Commons Attribution-NonCommercial-ShareAlike 3.0 Unported License&lt;/a&gt;.</rdf:li>
               <rdf:li xml:lang="en">This work is licensed under a &lt;a rel="license" href="http://creativecommons.org/licenses/by-nc-sa/3.0/"&gt;Creative Commons Attribution-NonCommercial-ShareAlike 3.0 Unported License&lt;/a&gt;.</rdf:li>
            </rdf:Alt>
         </xmpRights:UsageTerms>
      </rdf:Description>
      <rdf:Description rdf:about=""
            xmlns:cc="http://creativecommons.org/ns#">
         <cc:attributionName>Max O'Brien / Osprey Dawn</cc:attributionName>
         <cc:license rdf:resource="http://creativecommons.org/licenses/by-nc-sa/3.0/"/>
      </rdf:Description>
   </rdf:RDF>
</x:xmpmeta>
                                                                                                    
                                                                                                    
                                                                                                    
                                                                                                    
                                                                                                    
                                                                                                    
                                                                                                    
                                                                                                    
                                                                                                    
                                                                                                    
                                                                                                    
                                                                                                    
                                                                                                    
                                                                                                    
                                                                                                    
                                                                                                    
                                                                                                    
                                                                                                    
                                                                                                    
                                                                                                    
                           
<?xpacket end="w"?>
	</metadata>
<g id="Layer_2">
	<g id="_x37_Wl2mV_1_">
	</g>
</g>
<g id="Layer_1_1_">
	<g>
		<path fill="#A5A5A5" d="M340.985,159.353c0,0,3.062-0.665,10.103,5.259c7.035,5.925,8.889,13.326,8.889,13.326l20.989,67.312
			H552.89L403.977,353.44l56.881,175.057L311.945,420.307L163.032,528.497l56.881-175.057L71,245.25h172.258l20.729-67.312
			c0,0,1.851-7.402,8.885-13.326c7.033-5.923,10.104-5.259,10.104-5.259l28.97-89.161L340.985,159.353z"/>
		<path fill="#FFFFFF" d="M317.879,270.198c4.096-0.492,8.201-0.598,12.316-0.534c0.451,0.756,1.186,0.63,1.893,0.621
			c1.955-0.026,3.918,0.085,5.859-0.068c8.062-0.634,15.867,0.941,23.716,2.417c5.127,0.969,10.315,1.556,15.528,2.02
			c5.589,0.499,11.175,0.267,16.754,0.53c16.866,0.799,33.738,0.28,50.607,0.29c5.644,0.001,11.335-0.481,16.844-2.008
			c2.241-0.614,4.55-0.668,6.826-0.973c3.162-0.425,6.288-0.88,9.312-1.954c4.521-1.604,9.232-2.458,13.929-3.372
			c0.969-0.188,1.907-0.352,2.772-0.843c0.478-0.271,0.983-0.406,1.533-0.275c0.55,0.137,0.972,0.448,1.172,0.979
			c0.243,0.646-0.188,0.979-0.662,1.27c-0.831,0.515-1.674,1.008-2.5,1.522c-0.437,0.275-0.976,0.514-0.728,1.213
			c-0.356,0.241-0.713,0.48-1.069,0.722c-0.823-0.574-1.191-0.203-1.34,0.642c-0.956,0.829-2.136,1.232-3.271,1.729
			c-17.907,7.83-36.527,13.479-55.521,17.956c-17.689,4.177-35.575,7.271-53.646,9.267c-0.353,0.039-0.705,0.036-1.061,0.053
			c-0.918-3.631-3.3-5.234-6.982-5.729c-4.756-0.634-9.059-2.914-13.539-4.521c-5.315-1.911-10.521-4.152-15.896-5.904
			c-1.893-0.614-3.476-1.748-5.148-2.712c-4.751-2.722-9.726-5.089-13.987-8.601C320.236,272.808,318.813,271.745,317.879,270.198z"
			/>
		<path fill="#FFFFFF" d="M365.295,265.998c-0.688,0.01-3.336,0.646-4.312,0.095c-3.354-1.883-4.104-14.982-4.959-20.188
			c-2.188-13.277-4.088-30.506-11.044-42.262c-2.131-3.604-3.576-7.532-4.743-11.552c-1.118-3.849-0.849-7.729,0.062-11.565
			c0.521-2.189,2.021-3.733,3.941-4.812c1.301-0.729,1.707-0.439,2.246,1.314c-1.236,0.768-1.671,1.931-1.839,3.33
			c-0.374,3.084-0.56,6.171-0.246,9.26c0.366,3.661,1.45,7.1,3.749,10.042c1.696,2.173,2.604,2.422,5.224,1.669
			c1.854,6.375,4.163,13.75,5.823,20.16c2.286,8.833,4.012,15.687,6.142,24.093C365.988,248.134,371.767,265.903,365.295,265.998z"
			/>
		<path fill="#FFFFFF" d="M352.253,312.388c1.797-1.551,2.71-3.688,3.812-5.701c0.758-1.39,0.973-1.387,2.057-0.211
			c2.651,2.871,4.146,6.342,5.089,10.062c0.479,1.905-0.139,3.699-1.055,5.363c-1.241,2.256-2.619,4.438-4.354,6.353
			c-3.388,3.729-5.079,8.264-6.271,13.035c-0.274,1.101-0.501,2.201-0.893,3.938c-1.365-2.146-2.447-3.8-3.483-5.479
			c-1.49-2.42-2.905-4.901-5.078-6.793c-3.593-3.115-5.545-7.308-7.619-11.422c-0.601-1.188-1.132-2.401-1.699-3.605
			c-0.229-0.487-0.521-0.979,0.188-1.33c1.756,1.854,3.509,3.722,5.271,5.573c1.869,1.964,2.146,1.978,4.386,0.311
			c1.486-1.113,2.856-2.348,4.026-3.809c1.318-1.652,2.584-3.36,4.592-4.308C352.007,313.995,352.313,313.262,352.253,312.388z"/>
		<path fill="#FFFFFF" d="M314.856,366.156c3.897-0.312,7.822-0.924,11.629,0.608c0.027,1.812-0.99,2.628-2.528,3.521
			c-3.084,1.803-6.334,1.896-9.683,1.854c-0.438-0.005-0.896,0.005-1.314-0.088c-1.229-0.271-2.331-1.447-2.396-2.502
			c-0.064-1.045,0.926-2.275,2.145-2.728C313.413,366.568,314.346,367.033,314.856,366.156z"/>
		<path fill="#FFFFFF" d="M319.548,308.563c0.229,2.278-0.304,4.073-0.772,5.864c-1.175,4.441-1.021,8.923-0.417,13.42
			c0.243,1.823,0.12,3.704,1.143,5.386c0.237,0.396,0.115,1.044,0.062,1.564c-0.113,1.028-0.731,1.562-1.776,1.593
			c-1.009,0.021-1.72-0.378-1.938-1.414c-0.072-0.343-0.147-0.729-0.062-1.053c1.183-4.476-0.197-8.934-0.093-13.402
			c0.09-3.748,0.816-7.358,1.385-11.007c0.156-1.005-0.034-1.907-0.005-2.854c0.021-0.688,0.193-1.539,1.047-1.639
			c1.021-0.118,1.354,0.688,1.424,1.533C319.599,307.349,319.548,308.15,319.548,308.563z"/>
		<path fill="#FFFFFF" d="M309.479,379.158c1.601-0.148,3.302,0.225,4.709-0.916c0.417,1.043,1.558,1.062,2.337,1.562
			c2.2,1.41,3.495,3.117,3.095,5.896c-0.165,1.144-0.323,2.272-0.55,3.398c-0.129,0.633-0.285,1.266-0.997,1.421
			c-0.822,0.182-1.009-0.524-1.273-1.077c-0.15-0.312-0.294-0.646-0.465-0.957c-0.854-1.539-1.829-2.893-3.271-4.062
			C311.439,383.097,309.405,381.763,309.479,379.158z"/>
		<path fill="#FFFFFF" d="M309.951,350.221c-0.854,2.807-1.104,5.768-2.146,8.528c-2.309-0.534-2.729-1.021-2.595-3.157
			c0.125-1.869,0.825-3.623,1.396-5.37C307.174,348.51,308.404,348.57,309.951,350.221z"/>
		<path fill="#041935" d="M497.389,269.705c-0.195,0.126-0.313,0.419-0.622,0.286c-0.008-0.005,0.01-0.144,0.051-0.176
			c0.14-0.104,0.28-0.231,0.441-0.274C497.512,269.474,497.563,269.558,497.389,269.705z"/>
		<path fill="#A4A5A5" d="M490.649,272.391c0.146-0.847,0.517-1.221,1.34-0.642C491.72,272.341,491.248,272.501,490.649,272.391z"/>
		<g>
			<g>
				<path fill="#021934" d="M498.747,268.789c0,0-41.212,24.067-122.81,33.348c0.062,0.296,0.115,0.544,0.133,0.787
					c0.836,11.611-1.887,22.647-5.191,33.653c-2.688,8.961-4.854,18.08-7.234,27.141c-0.721,2.729-1.323,5.485-2.081,8.209
					c-0.229,0.817-0.64,1.722-1.231,2.304c-2.916,2.822-5.923,5.551-8.899,8.304c-0.1,0.086-0.305,0.045-0.604,0.082
					c0.363-2.295,0.873-4.485,1.031-6.707c0.282-4.052,0.381-8.116,0.499-12.176c0.013-0.374-0.394-0.764-0.604-1.146
					c-0.329,0.349-0.729,0.646-0.966,1.052c-0.17,0.275-0.104,0.688-0.166,1.039c-1.05,5.729-1.672,11.562-4.011,16.997
					c-2.855,6.64-2.812,6.709-8.839,10.624c-2.949,1.921-6.064,3.593-9.173,5.255c-1.156,0.613-2.537,0.808-3.749,1.344
					c-3.408,1.509-7.021,1.285-9.81-0.66c-3.079-2.146-5.982-1.799-9.018-1.021c-2.388,0.608-3.122,0.438-4.146-1.932
					c-1.442-3.362-1.052-6.813-0.771-10.28c0.096-1.188,0.182-2.331-1.314-2.79c3.165-2.114,6.647-2.657,10.296-2.481
					c2.596,0.124,3.637-0.912,3.52-3.358c-0.104-2.173-1.835-1.99-3.182-2.312c-2.899-0.697-5.841-1.251-8.723-2.005
					c-1.582-0.412-1.969-1.63-1.539-3.163c0.597-2.11,2.14-2.428,3.955-2.412c3.455,0.016,6.918,0.15,10.366-0.006
					c3.89-0.186,7.744-0.563,11.521,0.854c0.898,0.344,1.979,0.321,2.976,0.278c0.895-0.036,1.777-0.326,2.663-0.504
					c0.014-0.162,0.021-0.324,0.035-0.484c-1.541-0.854-3.066-1.739-4.628-2.561c-1.975-1.028-4-1.939-5.941-3.02
					c-2.442-1.352-4.938-1.842-7.707-1.211c-2.518,0.573-4.983,1.996-7.696,0.709c-0.289-0.138-0.688-0.04-1.042-0.034
					c-1.729,0.01-2.267-0.553-1.938-2.229c0.824-4.264,1.719-8.516,2.55-12.776c0.161-0.839,0.171-1.709,0.283-2.928
					c0.644,0.56,1.092,0.886,1.466,1.288c0.837,0.897,1.635,1.836,2.446,2.757c0.665-1.151,1.33-2.309,1.983-3.468
					c0.085-0.153,0.121-0.333,0.186-0.5c1.021-2.883,0.021-4.171-3.02-3.888c-1.938,0.179-4.433-1.014-4.585-2.536
					c-0.186-1.838-0.133-3.782,0.271-5.579c0.852-3.779,2.251-7.451,2.929-11.255c0.397-2.248,0.729-4.67-0.479-7.025
					c-0.59-1.148-0.395-2.761-0.354-4.157c0.021-0.812,0.234-1.633,0.438-2.496c-4.823-0.021-9.559-0.102-14.176-0.229
					c-0.404,0.375-0.76,0.864-1.124,1.439c-3.449,5.476-4.938,11.671-6.732,17.763c-0.688,2.312-1.468,4.604-2.312,6.871
					c-0.276,0.753-0.984,1.69-1.733,0.443c-1.206-2.011-2.492-4.051-3.223-6.251c-1.754-5.312-3.5-10.604-6.634-15.312
					c-0.407-0.61-0.604-1.357-0.81-1.841c1.688-1.391,3.207-2.633,4.716-3.867c-103.562-5.896-149.104-35.935-149.104-35.935
					l109.083,79.255l-47.438,146.016l124.208-90.245l124.207,90.245L387.76,348.067L498.747,268.789z"/>
				<path fill="#021934" d="M361.767,267.076c-2.703,0.453-5.396,1.121-8.114,1.319c-9.759,0.712-19.527,1.332-29.301,1.854
					c-7.712,0.413-15.438,0.701-23.155,0.894c-2.083,0.051-4.176-0.516-6.271-0.721c-9.859-0.964-19.751-1.793-29.333-4.522
					c-2.938-0.839-5.854-1.827-8.647-3.06c-3.554-1.562-5.968-4.19-6.255-8.307c-0.045-0.637-0.104-1.326,0.091-1.912
					c1.581-4.812,3.292-9.586,4.826-14.415c3.769-11.854,7.416-23.757,11.204-35.604c2.585-8.095,5.252-16.155,8.031-24.184
					c0.938-2.694,2.225-5.271,4.77-7.007c2.611-1.782,5.271-1.826,7.855,0.021c3.058,2.18,5.062,5.22,7.146,8.229
					c6.292,9.084,10.172,19.154,12.053,29.977c0.979,5.625,1.354,11.354,2.104,17.021c1.271,9.627,4.703,18.493,9.84,26.688
					c1.039,1.653,2.507,3.182,4.094,4.337c3.031,2.21,6.188,4.311,9.49,6.062c2.035,1.081,4.414,1.758,6.713,2.052
					c4.014,0.519,8.081,0.686,12.133,0.827c3.56,0.128,7.118,0.026,10.685,0.026C361.732,266.796,361.75,266.936,361.767,267.076z"
					/>
				<path fill="#021934" d="M342.04,302.748c2.608-0.521,5.212-1.092,7.832-1.546c0.755-0.13,1.866-0.211,2.271,0.209
					c0.374,0.396,0.312,1.686-0.062,2.229c-1.557,2.269-2.854,4.987-6.146,5.17c-1.797,0.098-3.607-0.058-5.41,0.013
					c-1.049,0.042-2.123,0.195-3.117,0.518c-0.438,0.138-0.79,0.771-0.999,1.257c-0.052,0.126,0.544,0.689,0.916,0.81
					c3.363,1.035,6.682,2.38,10.341,1.312c0.873-0.253,1.882-0.181,2.812-0.076c1.189,0.131,1.295,0.836,0.64,1.727
					c-0.135,0.188-0.306,0.399-0.509,0.481c-2.532,1.046-3.843,3.311-5.521,5.265c-1.315,1.539-3.053,2.744-4.692,3.965
					c-0.387,0.282-1.438,0.275-1.729-0.023c-4.182-4.441-8.354-8.896-12.346-13.508c-0.896-1.028-1.252-2.646-1.505-4.06
					c-0.271-1.521,0.86-2.75,2.396-2.896c4.451-0.438,8.905-0.846,13.359-1.243c0.468-0.043,0.938-0.005,1.41-0.005
					C341.999,302.469,342.019,302.608,342.04,302.748z"/>
				<path fill="#021934" d="M326.595,330.232c0.462,0.249,1.042,0.399,1.363,0.771c1.789,2.02,3.604,4.029,5.245,6.171
					c1.938,2.515,3.729,5.146,5.562,7.732c2.795,3.946,4.596,8.322,5.602,13.042c0.171,0.81,0.531,1.579,0.604,2.391
					c0.035,0.427-0.358,0.892-0.562,1.338c-0.388-0.189-0.938-0.271-1.138-0.581c-2.659-4.109-5.271-8.255-7.896-12.386
					c-2.424-3.812-5.021-7.523-7.218-11.471c-1.114-2.001-1.495-4.399-2.21-6.629C326.171,330.489,326.382,330.361,326.595,330.232z
					"/>
				<path fill="#021934" d="M343.407,186.018c0.157-1.875,0.296-3.753,0.488-5.625c0.057-0.521,0.146-1.107,0.438-1.514
					c0.379-0.521,0.979-0.891,1.479-1.321c0.214,0.54,0.482,1.062,0.633,1.613c1.396,5.34,2.719,10.691,4.196,16.01
					c0.464,1.666,1.396,3.192,1.979,4.838c0.188,0.521,0.146,1.587-0.146,1.735c-0.771,0.403-1.917,0.854-2.562,0.54
					c-1.104-0.524-2.137-1.479-2.854-2.499C344.134,195.683,343.387,190.953,343.407,186.018z"/>
				<path fill="#021934" d="M308.738,360.135c-1.61-0.024-1.837-0.573-1.316-2.104c0.562-1.65,0.857-3.397,1.227-5.12
					c0.202-0.938-0.025-2.354,1.315-2.252c0.604,0.046,1.26,1.283,1.622,2.104c0.405,0.894,0.479,1.936,0.747,2.894
					C313.173,358.656,311.962,360.177,308.738,360.135z"/>
				<path fill="#021934" d="M315.225,341.021c0.622-1.668,2.499-2.559,5.104-2.049c1.396,0.271,2.146,1.405,2.048,2.702
					c-0.062,0.854-0.646,1.837-1.29,2.452c-0.855,0.819-1.479-0.059-2.185-0.644C317.834,342.596,316.587,341.914,315.225,341.021z"
					/>
			</g>
			<path fill="#021934" d="M294.347,166.697c0.092,0.027,0.183,0.056,0.271,0.08c0,0.472-0.014,0.942,0.007,1.414
				c0.007,0.17,0.062,0.354,0.147,0.503c1.851,3.173,3.996,6.25,7.845,6.871c3.666,0.593,7.442,0.562,11.177,0.681
				c4.777,0.148,8.812-1.863,12.476-4.709c2.364-1.845,3.06-4.555,2.08-7.416l-17.665-52.333L294.347,166.697z"/>
		</g>
	</g>
</g>
<g>
	<path fill="#BDC2BC" d="M534.992,588.913c-0.739,0-1.34-0.602-1.34-1.341v-16.588c0-0.739,0.601-1.339,1.34-1.339h52.497
		c0.738,0,1.339,0.6,1.339,1.339v16.588c0,0.739-0.601,1.341-1.339,1.341H534.992z"/>
	<g>
		<path d="M558.027,571.51c-2.725,0-4.935,2.21-4.935,4.934c0,2.729,2.21,4.938,4.935,4.938c2.728,0,4.938-2.21,4.938-4.938
			C562.964,573.719,560.755,571.51,558.027,571.51z"/>
		<path fill="#FFFFFF" d="M558.027,580.461c-2.219,0-4.015-1.798-4.015-4.019c0-2.217,1.797-4.014,4.015-4.014
			c2.219,0,4.019,1.798,4.019,4.014C562.046,578.664,560.246,580.461,558.027,580.461z"/>
		<g>
			<path d="M559.402,575.293c0-0.219-0.182-0.398-0.398-0.398h-1.952c-0.221,0-0.401,0.181-0.401,0.398v1.985h0.528v2.338h1.694
				v-2.338h0.527L559.402,575.293L559.402,575.293z"/>
			<path d="M558.695,573.942c0,0.37-0.3,0.668-0.667,0.668c-0.371,0-0.67-0.299-0.67-0.668s0.301-0.67,0.67-0.67
				C558.395,573.272,558.695,573.571,558.695,573.942z"/>
		</g>
	</g>
	<path d="M587.175,569.198h-51.868c-1.157,0-2.102,0.943-2.102,2.102v15.96c0,1.158,0.943,2.1,2.102,2.1h51.868
		c1.158,0,2.102-0.94,2.102-2.1V571.3C589.275,570.141,588.332,569.198,587.175,569.198z M588.644,583.375h-37.865
		c-1.477,2.809-4.417,4.725-7.81,4.725s-6.333-1.916-7.809-4.725h-1.326V571.3c0-0.812,0.658-1.471,1.47-1.471h51.869
		c0.811,0,1.471,0.658,1.471,1.471V583.375L588.644,583.375z"/>
	<g>
		<path fill="#FFFFFF" d="M557.773,584.933c0.1,0.14,0.15,0.302,0.15,0.495c0,0.198-0.052,0.357-0.151,0.479
			c-0.057,0.066-0.14,0.131-0.25,0.187c0.168,0.061,0.294,0.155,0.378,0.289c0.085,0.13,0.127,0.289,0.127,0.477
			c0,0.192-0.049,0.365-0.145,0.519c-0.062,0.104-0.14,0.188-0.23,0.256c-0.104,0.078-0.225,0.137-0.369,0.164
			c-0.141,0.028-0.294,0.043-0.459,0.043h-1.466v-3.256h1.573C557.326,584.594,557.607,584.706,557.773,584.933z M556.009,585.151
			v0.717h0.79c0.143,0,0.257-0.026,0.345-0.08s0.133-0.147,0.133-0.286c0-0.15-0.059-0.248-0.176-0.301
			c-0.1-0.033-0.228-0.05-0.383-0.05H556.009L556.009,585.151z M556.009,586.407v0.869h0.789c0.143,0,0.25-0.02,0.328-0.058
			c0.145-0.071,0.217-0.206,0.217-0.407c0-0.17-0.07-0.285-0.208-0.35c-0.077-0.034-0.188-0.056-0.327-0.056L556.009,586.407
			L556.009,586.407z"/>
		<path fill="#FFFFFF" d="M560.469,584.586h0.771l-1.089,2.034v1.222h-0.68v-1.222l-1.127-2.034h0.8l0.677,1.418L560.469,584.586z"
			/>
	</g>
	<g>
		<g>
			<path fill="#FFFFFF" d="M566.517,584.426h0.776l1.403,2.473v-2.473h0.692v3.545h-0.742l-1.443-2.517v2.517h-0.688
				L566.517,584.426L566.517,584.426z"/>
			<path fill="#FFFFFF" d="M570.425,584.797c0.285-0.292,0.647-0.437,1.09-0.437c0.591,0,1.02,0.195,1.295,0.587
				c0.148,0.221,0.229,0.439,0.242,0.661h-0.741c-0.048-0.17-0.106-0.299-0.183-0.384c-0.132-0.153-0.328-0.229-0.586-0.229
				c-0.265,0-0.473,0.107-0.623,0.324c-0.152,0.219-0.229,0.525-0.229,0.923c0,0.399,0.08,0.696,0.241,0.895
				c0.161,0.197,0.365,0.299,0.614,0.299c0.252,0,0.447-0.086,0.581-0.256c0.072-0.09,0.136-0.229,0.183-0.41h0.736
				c-0.066,0.387-0.226,0.699-0.486,0.943c-0.262,0.241-0.594,0.36-1.002,0.36c-0.505,0-0.901-0.163-1.19-0.489
				c-0.288-0.328-0.434-0.777-0.434-1.353C569.93,585.607,570.095,585.133,570.425,584.797z"/>
		</g>
	</g>
	<g>
		<path fill="#FFFFFF" d="M578.517,586.944c0.022,0.173,0.073,0.303,0.145,0.389c0.132,0.154,0.354,0.233,0.673,0.233
			c0.19,0,0.347-0.021,0.465-0.062c0.225-0.078,0.338-0.226,0.338-0.438c0-0.125-0.055-0.223-0.166-0.291
			c-0.113-0.066-0.285-0.126-0.525-0.178l-0.411-0.088c-0.401-0.093-0.679-0.188-0.829-0.294c-0.254-0.173-0.383-0.448-0.383-0.819
			c0-0.339,0.126-0.619,0.376-0.846c0.249-0.224,0.617-0.336,1.102-0.336c0.401,0,0.748,0.104,1.033,0.315
			c0.284,0.213,0.436,0.521,0.45,0.922h-0.762c-0.014-0.227-0.117-0.387-0.306-0.484c-0.126-0.065-0.282-0.096-0.473-0.096
			c-0.209,0-0.375,0.041-0.499,0.122c-0.126,0.083-0.188,0.196-0.188,0.346c0,0.135,0.062,0.236,0.186,0.303
			c0.079,0.043,0.246,0.096,0.502,0.155l0.665,0.156c0.292,0.068,0.513,0.162,0.655,0.276c0.227,0.179,0.339,0.435,0.339,0.771
			c0,0.351-0.134,0.637-0.4,0.863c-0.269,0.229-0.646,0.344-1.134,0.344c-0.5,0-0.891-0.112-1.176-0.339
			c-0.287-0.224-0.432-0.536-0.432-0.929L578.517,586.944L578.517,586.944z"/>
		<path fill="#FFFFFF" d="M582.542,584.325h0.896l1.34,3.791h-0.858l-0.249-0.778h-1.396l-0.255,0.778h-0.828L582.542,584.325z
			 M582.486,586.681h0.972l-0.479-1.49L582.486,586.681z"/>
	</g>
	<g>
		<circle cx="542.95" cy="579.28" r="7.771"/>
		<circle fill="#FFFFFF" cx="542.95" cy="579.278" r="6.322"/>
		<g>
			<path d="M542.597,578.348l-1.188,0.215c-0.041-0.237-0.131-0.416-0.273-0.537c-0.143-0.119-0.325-0.178-0.55-0.178
				c-0.302,0-0.537,0.104-0.72,0.31c-0.18,0.204-0.268,0.555-0.268,1.038c0,0.539,0.09,0.921,0.271,1.146
				c0.183,0.223,0.426,0.332,0.73,0.332c0.229,0,0.417-0.064,0.562-0.195c0.146-0.131,0.249-0.354,0.311-0.67l1.182,0.199
				c-0.123,0.545-0.354,0.954-0.707,1.229c-0.348,0.276-0.813,0.416-1.399,0.416c-0.668,0-1.197-0.21-1.594-0.629
				c-0.396-0.42-0.592-1.004-0.592-1.746c0-0.75,0.198-1.337,0.594-1.754c0.397-0.42,0.936-0.627,1.613-0.627
				c0.555,0,0.995,0.118,1.322,0.355C542.219,577.497,542.453,577.86,542.597,578.348z"/>
			<path d="M547.477,578.348l-1.188,0.215c-0.039-0.237-0.131-0.416-0.272-0.537c-0.144-0.119-0.325-0.178-0.551-0.178
				c-0.301,0-0.539,0.104-0.72,0.31c-0.178,0.204-0.268,0.555-0.268,1.038c0,0.539,0.09,0.921,0.271,1.146
				c0.182,0.223,0.426,0.332,0.729,0.332c0.229,0,0.417-0.064,0.562-0.195c0.146-0.131,0.25-0.354,0.311-0.67l1.183,0.199
				c-0.123,0.545-0.356,0.954-0.708,1.229c-0.349,0.276-0.814,0.416-1.4,0.416c-0.668,0-1.197-0.21-1.593-0.629
				c-0.396-0.42-0.592-1.004-0.592-1.746c0-0.75,0.196-1.337,0.595-1.754c0.396-0.42,0.934-0.627,1.612-0.627
				c0.554,0,0.994,0.118,1.322,0.355C547.1,577.497,547.337,577.86,547.477,578.348z"/>
		</g>
	</g>
	<g>
		<path d="M569.93,571.719c-2.61,0-4.727,2.115-4.727,4.726c0,2.612,2.115,4.729,4.727,4.729s4.728-2.113,4.728-4.729
			C574.658,573.834,572.546,571.719,569.93,571.719z"/>
		<circle fill="#FFFFFF" cx="569.93" cy="576.447" r="3.846"/>
		
			<rect x="569.488" y="571.955" transform="matrix(0.4225 -0.9063 0.9063 0.4225 -193.3242 849.4399)" width="0.924" height="8.958"/>
		<g>
			<path d="M569.58,579.151v-0.637c-0.444-0.013-0.877-0.14-1.129-0.277l0.197-0.776c0.279,0.153,0.672,0.292,1.101,0.292
				c0.382,0,0.646-0.151,0.646-0.409c0-0.252-0.223-0.41-0.709-0.578c-0.711-0.238-1.196-0.568-1.196-1.215
				c0-0.59,0.411-1.047,1.122-1.181v-0.631h0.65v0.584c0.443,0.015,0.742,0.115,0.968,0.222l-0.199,0.748
				c-0.167-0.079-0.478-0.232-0.954-0.232c-0.434,0-0.571,0.193-0.571,0.381c0,0.212,0.231,0.356,0.798,0.564
				c0.796,0.276,1.107,0.643,1.107,1.246c0,0.591-0.411,1.09-1.182,1.221v0.684L569.58,579.151L569.58,579.151z"/>
		</g>
	</g>
	<g>
		<path d="M581.185,571.784c-2.571,0-4.66,2.086-4.66,4.658c0,2.576,2.089,4.665,4.66,4.665c2.576,0,4.665-2.089,4.665-4.665
			C585.852,573.87,583.761,571.784,581.185,571.784z"/>
		<path fill="#FFFFFF" d="M581.185,580.238c-2.092,0-3.789-1.698-3.789-3.794c0-2.091,1.695-3.79,3.789-3.79
			c2.096,0,3.793,1.696,3.793,3.79C584.979,578.538,583.281,580.238,581.185,580.238z"/>
		<path d="M581.185,573.885c-1.016,0-1.874,0.733-2.182,1.746h-0.294l0.933,1.016l0.93-1.016h-0.348
			c0.215-0.37,0.563-0.616,0.96-0.616c0.65,0,1.179,0.646,1.179,1.443c0,0.793-0.526,1.44-1.179,1.44
			c-0.432,0-0.81-0.289-1.016-0.72h-1.196c0.278,1.068,1.167,1.854,2.214,1.854c1.273,0,2.311-1.155,2.311-2.576
			C583.496,575.034,582.464,573.885,581.185,573.885z"/>
	</g>
</g>
<g>
	<path d="M12.392,586.197c-0.652,0-1.248-0.138-1.786-0.41c-0.539-0.271-1.002-0.631-1.39-1.07c-0.388-0.441-0.688-0.949-0.9-1.521
		C8.106,582.619,8,582.032,8,581.432c0-0.626,0.114-1.226,0.338-1.797c0.226-0.574,0.533-1.08,0.927-1.521
		c0.393-0.44,0.857-0.792,1.396-1.053c0.538-0.26,1.119-0.39,1.746-0.39c0.653,0,1.248,0.138,1.786,0.417
		c0.538,0.275,0.999,0.641,1.382,1.09s0.682,0.959,0.893,1.528c0.213,0.567,0.318,1.144,0.318,1.726c0,0.636-0.113,1.24-0.338,1.812
		c-0.225,0.574-0.534,1.079-0.926,1.517c-0.394,0.437-0.856,0.785-1.391,1.045C13.598,586.066,13.018,586.197,12.392,586.197z
		 M8.675,581.432c0,0.539,0.091,1.057,0.271,1.555s0.437,0.939,0.768,1.324c0.33,0.383,0.724,0.69,1.178,0.92
		c0.455,0.229,0.955,0.344,1.502,0.344c0.563,0,1.072-0.117,1.527-0.355c0.454-0.239,0.846-0.555,1.17-0.946
		c0.327-0.392,0.578-0.834,0.755-1.328s0.265-0.997,0.265-1.51c0-0.538-0.092-1.057-0.277-1.555
		c-0.185-0.498-0.442-0.939-0.773-1.323s-0.723-0.691-1.179-0.919c-0.454-0.229-0.949-0.347-1.486-0.347
		c-0.565,0-1.076,0.119-1.536,0.357c-0.458,0.238-0.85,0.554-1.17,0.945c-0.322,0.394-0.571,0.836-0.748,1.33
		C8.762,580.422,8.675,580.923,8.675,581.432z"/>
	<path d="M24.14,578.299c-0.608-0.681-1.469-1.021-2.58-1.021c-0.918,0-1.587,0.175-2.006,0.523
		c-0.417,0.349-0.628,0.817-0.628,1.407c0,0.302,0.054,0.554,0.159,0.755c0.106,0.202,0.271,0.373,0.496,0.51
		c0.226,0.137,0.513,0.256,0.86,0.355c0.35,0.103,0.761,0.2,1.237,0.299c0.512,0.106,0.97,0.223,1.377,0.352
		c0.404,0.127,0.75,0.289,1.038,0.483c0.287,0.193,0.508,0.433,0.662,0.715c0.153,0.281,0.231,0.632,0.231,1.044
		c0,0.414-0.082,0.775-0.245,1.086c-0.163,0.31-0.392,0.565-0.688,0.773c-0.297,0.208-0.648,0.364-1.059,0.471
		c-0.411,0.104-0.867,0.157-1.37,0.157c-1.463,0-2.704-0.467-3.717-1.401l0.356-0.542c0.396,0.415,0.882,0.743,1.457,0.984
		c0.573,0.242,1.217,0.363,1.931,0.363c0.821,0,1.461-0.147,1.925-0.449c0.462-0.301,0.695-0.754,0.695-1.362
		c0-0.309-0.06-0.57-0.178-0.787s-0.303-0.404-0.551-0.562c-0.247-0.158-0.554-0.295-0.919-0.409
		c-0.364-0.115-0.796-0.225-1.29-0.33c-0.503-0.105-0.945-0.219-1.329-0.338c-0.384-0.117-0.708-0.269-0.972-0.449
		c-0.265-0.181-0.463-0.398-0.596-0.654s-0.199-0.578-0.199-0.967c0-0.423,0.082-0.797,0.246-1.124
		c0.163-0.326,0.391-0.603,0.682-0.826c0.291-0.226,0.64-0.395,1.044-0.511c0.406-0.114,0.854-0.17,1.351-0.17
		c0.607,0,1.15,0.09,1.627,0.27c0.477,0.183,0.909,0.459,1.296,0.828L24.14,578.299z"/>
	<path d="M26.734,586.131v-9.395h3.863c0.396,0,0.763,0.085,1.098,0.251c0.335,0.168,0.624,0.392,0.866,0.669
		s0.432,0.591,0.568,0.938c0.138,0.35,0.205,0.698,0.205,1.053c0,0.381-0.063,0.746-0.191,1.098
		c-0.128,0.354-0.31,0.666-0.542,0.939c-0.232,0.272-0.512,0.492-0.833,0.654c-0.323,0.164-0.683,0.245-1.078,0.245h-3.281v3.546
		L26.734,586.131L26.734,586.131z M27.408,581.963h3.241c0.309,0,0.586-0.064,0.833-0.191s0.456-0.3,0.629-0.516
		c0.171-0.218,0.303-0.463,0.396-0.741c0.092-0.276,0.139-0.565,0.139-0.866c0-0.309-0.056-0.602-0.165-0.879
		c-0.11-0.279-0.26-0.523-0.45-0.734c-0.189-0.213-0.41-0.381-0.661-0.504s-0.519-0.186-0.801-0.186h-3.162L27.408,581.963
		L27.408,581.963z"/>
	<path d="M34.963,586.131v-9.395h3.917c0.397,0,0.764,0.085,1.098,0.251c0.335,0.168,0.622,0.392,0.859,0.669
		c0.238,0.277,0.426,0.591,0.563,0.938c0.137,0.35,0.204,0.698,0.204,1.053c0,0.344-0.054,0.676-0.159,0.998
		c-0.105,0.324-0.254,0.611-0.45,0.867c-0.194,0.256-0.427,0.467-0.7,0.635c-0.273,0.169-0.572,0.277-0.899,0.331l2.341,3.651
		h-0.781l-2.274-3.547h-3.043v3.547L34.963,586.131L34.963,586.131z M35.636,581.963h3.295c0.299,0,0.571-0.064,0.819-0.197
		c0.247-0.132,0.458-0.307,0.636-0.522c0.176-0.216,0.311-0.462,0.402-0.741c0.093-0.277,0.141-0.562,0.141-0.853
		c0-0.3-0.056-0.589-0.166-0.866c-0.11-0.276-0.261-0.522-0.45-0.733c-0.189-0.212-0.409-0.382-0.661-0.511
		c-0.252-0.127-0.523-0.192-0.814-0.192h-3.201V581.963z"/>
	<path d="M49.899,585.521v0.608h-6.258v-9.395h6.139v0.61h-5.464v3.688h4.775v0.582h-4.775v3.903h5.583V585.521z"/>
	<path d="M51.421,576.736l3.281,5.199l3.308-5.199h0.742l-3.706,5.849v3.546h-0.674v-3.572l-3.69-5.821L51.421,576.736
		L51.421,576.736z"/>
	<path d="M60.126,586.131v-9.395h3.122c0.741,0,1.392,0.124,1.951,0.371c0.561,0.248,1.025,0.583,1.396,1.007
		c0.371,0.423,0.647,0.919,0.833,1.487c0.185,0.567,0.277,1.175,0.277,1.819c0,0.715-0.104,1.36-0.311,1.938
		s-0.505,1.07-0.894,1.481c-0.388,0.409-0.857,0.729-1.41,0.953c-0.552,0.224-1.167,0.337-1.845,0.337L60.126,586.131
		L60.126,586.131z M67.031,581.421c0-0.592-0.083-1.137-0.251-1.635c-0.167-0.498-0.412-0.93-0.733-1.291
		c-0.322-0.359-0.718-0.644-1.185-0.848c-0.466-0.202-1.005-0.303-1.614-0.303h-2.447v8.177h2.447c0.617,0,1.162-0.104,1.633-0.312
		c0.473-0.206,0.866-0.495,1.185-0.865c0.316-0.37,0.559-0.805,0.722-1.303S67.031,582.003,67.031,581.421z"/>
	<path d="M68.288,586.131l3.996-9.395h0.555l3.997,9.395h-0.728l-1.311-3.097h-4.484l-1.311,3.097H68.288z M72.562,577.557
		l-2.09,4.922h4.141L72.562,577.557z"/>
	<path d="M81.148,576.802h0.661l1.401,3.413l1.403-3.413h0.661l-1.654,3.956l1.971,4.577l3.6-8.601h0.742l-4.023,9.395h-0.62
		l-2.063-4.829l-2.077,4.829h-0.622l-4.008-9.395h0.728l3.612,8.601l1.945-4.577L81.148,576.802z"/>
	<path d="M92.05,578.008v8.123h-0.675v-9.394h0.518l6.588,8.27v-8.255h0.675v9.379h-0.622L92.05,578.008z"/>
	<path d="M101.297,586.131v-1.125h0.583v1.125H101.297z"/>
	<path d="M103.401,581.368c0-0.563,0.098-1.127,0.298-1.688c0.197-0.561,0.486-1.062,0.866-1.502c0.379-0.44,0.844-0.8,1.395-1.077
		c0.552-0.277,1.181-0.418,1.887-0.418c0.838,0,1.552,0.192,2.144,0.576c0.591,0.383,1.027,0.877,1.309,1.475l-0.556,0.318
		c-0.159-0.327-0.351-0.601-0.576-0.82c-0.224-0.221-0.466-0.399-0.727-0.537c-0.261-0.137-0.533-0.234-0.814-0.298
		c-0.281-0.062-0.562-0.092-0.833-0.092c-0.6,0-1.129,0.121-1.589,0.364c-0.458,0.241-0.847,0.558-1.164,0.944
		c-0.316,0.39-0.557,0.826-0.722,1.316c-0.164,0.489-0.245,0.981-0.245,1.475c0,0.558,0.097,1.086,0.291,1.59
		c0.195,0.502,0.459,0.945,0.795,1.328c0.334,0.383,0.731,0.691,1.19,0.919c0.458,0.229,0.951,0.346,1.48,0.346
		c0.282,0,0.571-0.036,0.866-0.106c0.296-0.069,0.583-0.18,0.86-0.329c0.277-0.15,0.536-0.343,0.774-0.576
		c0.238-0.232,0.437-0.51,0.594-0.827l0.569,0.278c-0.159,0.352-0.372,0.665-0.642,0.939c-0.271,0.271-0.57,0.502-0.906,0.688
		c-0.335,0.186-0.689,0.324-1.065,0.416c-0.375,0.092-0.742,0.139-1.104,0.139c-0.644,0-1.233-0.141-1.768-0.423
		c-0.532-0.281-0.994-0.649-1.382-1.104c-0.387-0.455-0.689-0.972-0.905-1.549C103.509,582.555,103.401,581.969,103.401,581.368z"/>
	<path d="M116.882,586.197c-0.652,0-1.247-0.138-1.785-0.41c-0.538-0.271-1.001-0.631-1.39-1.07
		c-0.388-0.441-0.688-0.949-0.898-1.521c-0.212-0.572-0.317-1.16-0.317-1.76c0-0.627,0.112-1.225,0.337-1.798
		c0.224-0.573,0.534-1.081,0.926-1.521c0.394-0.44,0.857-0.792,1.396-1.052c0.539-0.261,1.121-0.391,1.747-0.391
		c0.65,0,1.247,0.139,1.786,0.416c0.538,0.276,0.999,0.643,1.381,1.091c0.384,0.45,0.682,0.959,0.894,1.529
		c0.211,0.566,0.317,1.144,0.317,1.726c0,0.635-0.113,1.239-0.337,1.812c-0.226,0.572-0.534,1.077-0.928,1.514
		c-0.393,0.438-0.854,0.785-1.389,1.046C118.087,586.066,117.509,586.197,116.882,586.197z M113.164,581.432
		c0,0.539,0.09,1.057,0.271,1.555c0.181,0.498,0.436,0.939,0.767,1.324c0.331,0.383,0.724,0.69,1.178,0.92s0.954,0.344,1.501,0.344
		c0.564,0,1.073-0.117,1.527-0.355c0.456-0.239,0.845-0.555,1.171-0.946s0.578-0.834,0.754-1.328
		c0.175-0.494,0.266-0.997,0.266-1.51c0-0.538-0.094-1.057-0.278-1.555c-0.186-0.498-0.443-0.939-0.774-1.323
		s-0.724-0.691-1.178-0.919c-0.455-0.229-0.95-0.347-1.488-0.347c-0.563,0-1.075,0.119-1.534,0.357s-0.851,0.554-1.172,0.945
		c-0.321,0.394-0.57,0.836-0.748,1.33C113.252,580.422,113.164,580.923,113.164,581.432z"/>
	<path d="M131.659,586.131v-8.123l-3.704,6.338h-0.423l-3.705-6.338v8.123h-0.675v-9.394h0.675l3.916,6.722l3.916-6.722h0.675v9.394
		H131.659L131.659,586.131z"/>
</g>
</svg>
