<?xml version="1.0" encoding="utf-8"?>
<!-- Generator: Adobe Illustrator 16.0.0, SVG Export Plug-In . SVG Version: 6.00 Build 0)  -->
<!DOCTYPE svg PUBLIC "-//W3C//DTD SVG 1.1//EN" "http://www.w3.org/Graphics/SVG/1.1/DTD/svg11.dtd">
<svg version="1.1" id="Layer_1" xmlns="http://www.w3.org/2000/svg" xmlns:xlink="http://www.w3.org/1999/xlink" x="0px" y="0px"
	 width="595.275px" height="595.279px" viewBox="0 0 595.275 595.279" enable-background="new 0 0 595.275 595.279"
	 xml:space="preserve">
<metadata><?xpacket begin="﻿" id="W5M0MpCehiHzreSzNTczkc9d"?>
<x:xmpmeta xmlns:x="adobe:ns:meta/" x:xmptk="Adobe XMP Core 5.3-c011 66.145661, 2012/02/06-14:56:27        ">
   <rdf:RDF xmlns:rdf="http://www.w3.org/1999/02/22-rdf-syntax-ns#">
      <rdf:Description rdf:about=""
            xmlns:dc="http://purl.org/dc/elements/1.1/">
         <dc:format>image/svg+xml</dc:format>
         <dc:title>
            <rdf:Alt>
               <rdf:li xml:lang="x-default">NFL Logo Redesigns</rdf:li>
               <rdf:li xml:lang="en_us">NFL Logo Redesigns</rdf:li>
            </rdf:Alt>
         </dc:title>
         <dc:creator>
            <rdf:Seq>
               <rdf:li>Max O'Brien/Osprey Dawn</rdf:li>
            </rdf:Seq>
         </dc:creator>
      </rdf:Description>
      <rdf:Description rdf:about=""
            xmlns:xmp="http://ns.adobe.com/xap/1.0/"
            xmlns:xmpGImg="http://ns.adobe.com/xap/1.0/g/img/">
         <xmp:CreatorTool>Adobe Illustrator CS6 (Macintosh)</xmp:CreatorTool>
         <xmp:ModifyDate>2013-10-06T18:29:12+13:00</xmp:ModifyDate>
         <xmp:MetadataDate>2013-10-06T18:29:12+13:00</xmp:MetadataDate>
         <xmp:CreateDate>2013-10-06T18:29:12+13:00</xmp:CreateDate>
         <xmp:Thumbnails>
            <rdf:Alt>
               <rdf:li rdf:parseType="Resource">
                  <xmpGImg:width>256</xmpGImg:width>
                  <xmpGImg:height>236</xmpGImg:height>
                  <xmpGImg:format>JPEG</xmpGImg:format>
                  <xmpGImg:image>/9j/4AAQSkZJRgABAgEASABIAAD/7QAsUGhvdG9zaG9wIDMuMAA4QklNA+0AAAAAABAASAAAAAEA&#xA;AQBIAAAAAQAB/+4ADkFkb2JlAGTAAAAAAf/bAIQABgQEBAUEBgUFBgkGBQYJCwgGBggLDAoKCwoK&#xA;DBAMDAwMDAwQDA4PEA8ODBMTFBQTExwbGxscHx8fHx8fHx8fHwEHBwcNDA0YEBAYGhURFRofHx8f&#xA;Hx8fHx8fHx8fHx8fHx8fHx8fHx8fHx8fHx8fHx8fHx8fHx8fHx8fHx8fHx8f/8AAEQgA7AEAAwER&#xA;AAIRAQMRAf/EAaIAAAAHAQEBAQEAAAAAAAAAAAQFAwIGAQAHCAkKCwEAAgIDAQEBAQEAAAAAAAAA&#xA;AQACAwQFBgcICQoLEAACAQMDAgQCBgcDBAIGAnMBAgMRBAAFIRIxQVEGE2EicYEUMpGhBxWxQiPB&#xA;UtHhMxZi8CRygvElQzRTkqKyY3PCNUQnk6OzNhdUZHTD0uIIJoMJChgZhJRFRqS0VtNVKBry4/PE&#xA;1OT0ZXWFlaW1xdXl9WZ2hpamtsbW5vY3R1dnd4eXp7fH1+f3OEhYaHiImKi4yNjo+Ck5SVlpeYmZ&#xA;qbnJ2en5KjpKWmp6ipqqusra6voRAAICAQIDBQUEBQYECAMDbQEAAhEDBCESMUEFURNhIgZxgZEy&#xA;obHwFMHR4SNCFVJicvEzJDRDghaSUyWiY7LCB3PSNeJEgxdUkwgJChgZJjZFGidkdFU38qOzwygp&#xA;0+PzhJSktMTU5PRldYWVpbXF1eX1RlZmdoaWprbG1ub2R1dnd4eXp7fH1+f3OEhYaHiImKi4yNjo&#xA;+DlJWWl5iZmpucnZ6fkqOkpaanqKmqq6ytrq+v/aAAwDAQACEQMRAD8A9U4q7FXYq7FXYq+XP+cv&#xA;f+Uk8v8A/MHL/wAnc2eh5FqyPAczmDsVdirsVdir9D/LP/KN6V/zB2//ACaXNBPmW8JlkUuxV2Ku&#xA;xV2KuxV2KuxVJPPP/KFeYP8Atm3n/Jh8nj+oe9B5Pz5zfNDsVdirsVdir6R/5w6/6a7/ALd3/Y1m&#xA;u1/8Px/Q2Y30hmvbHYq7FXYq7FXYq7FXYq7FXYq8K/5yI/Kvzp501rSLry/aJcw2ltJFOzzRxUZp&#xA;OQFHZa7Zm6XNGANsJxJeSf8AQtP5u/8AVrh/6S7f/mvMv83j72HAUq8zfkd+ZflvSJtX1PSqWFvQ&#xA;3EsM0UxjU/tMsbM3EdzTbvkoamEjQKmJYHl7F2KvQPL35F/mH5i0mDV9Gtba80+4FYpkuoBuNirK&#xA;zBlYHqrCoyiWphE0WQiX2poltNa6LYWsw4zQW0MUqgg0ZIwrCo9xmmkbJbgjcCuxV2KuxV2KuxV2&#xA;KuxVLPNNjc6h5Z1ewtVD3N3ZXEECkhQXkiZFFTsNzkoGpAoL4z138h/zG0HSrjVtXtLaz0+1XnNP&#xA;JdwUA6AAByWYnYKBUnpm3jqYSNBqMS89zIYuxVnnln8jvzL8yaRDq+maVWwuKm3lmmihMij9pVkZ&#xA;W4nsab9sonqYRNEshEpr/wBC0/m7/wBWuH/pLt/+a8j+bx968Be0f845flp5v8k/4h/xFapbfpD6&#xA;n9V4Sxy8vR9fnX0y1KeqvXMPV5ozqmcBT2jMNm7FXYq7FXYq7FXYq7FXYq7FXYq7FWpI0kRo5FDo&#xA;4KujCoIOxBBxV8pfnx+Q7+Xnn8z+WIC+guS99YoKm0J6ug/3z/xD/V6bTTani9MubVKLwzM1gzv8&#xA;p/zY1nyBrPqxcrrRbph+kdOrsw6epHXZZFHQ9+h9qM+AZB5soyp9qeXPMejeY9GttY0e5W6sLpeU&#xA;ci9Qf2kdeqsp2IPTNPOBiaLaCmWRS7FXYq7FXYq7FXYq7FUBr2vaToGk3OratcraWFovOaZ/uAAG&#xA;7Mx2AG5OSjEyNBSXxd+b35vat5/1ag5WmgWjH9H6fX6PWmps0jD6FGw7k7jBgEB5tMpW8+y9i9z/&#xA;ACH/ACHfzC8HmfzPAU0FCHsbFxQ3ZHR3H++f+J/6vXC1Op4fTHmzjF9WxxpGixxqERAFRFFAANgA&#xA;BmrbW8VdirsVdirsVdirsVdirsVdirsVdirsVdirsVakjSRGjkUOjgq6MKgg7EEHFXyl+fH5Dv5e&#xA;efzP5YgL6C5L31igqbQnq6D/AHz/AMQ/1em002p4vTLm1Si8MzNYM7/Kf82NZ8gaz6sXK60W6Yfp&#xA;HTq7MOnqR12WRR0PfofajPgGQebKMqfanlzzHo3mPRrbWNHuVurC6XlHIvUH9pHXqrKdiD0zTzgY&#xA;mi2gplkUuxV2KuxV2KuxVAa9r2k6BpNzq2rXK2lhaLzmmf7gABuzMdgBuTkoxMjQUl8Xfm9+b2re&#xA;f9WoOVpoFox/R+n1+j1pqbNIw+hRsO5O4wYBAebTKVvPsvYvcPyE/Iv/ABI8XmfzJCRoMT1srJwQ&#xA;bt1/aav+6Qf+CO3TrhanU8PpjzZxi+sI40jRY41CIgCoiigAGwAAzVtreKuxV2KuxV2KuxV2KuxV&#xA;2KuxV2KuxVbNNFDC80rhIo1LyOxoFVRUkn2GKsU/5W3+WP8A1NGm/wDSTH/XLfAn3FHEFkv5w/ld&#xA;HTl5n081/lmV/wDiNcPgT7ivEFP/AJXP+Vf/AFM1l/wZ/pj+Xn3LxBtfzl/KxmCjzNY1Y0FZKDfx&#xA;JFBj+Xn3LxBmH7i4g/ZmgmX2ZHRh9xBGUpfKn58fkO/l55/M/liAvoLkvfWKCptCeroP98/8Q/1e&#xA;m002p4vTLm1Si8MzNYM7/Kf82NZ8gaz6sXK60W6YfpHTq7MOnqR12WRR0PfofajPgGQebKMqfanl&#xA;zzHo3mPRrbWNHuVurC6XlHIvUH9pHXqrKdiD0zTzgYmi2gplkUuxV2KuxVB6zrOl6LpdxqmqXCWl&#xA;haIZJ55DQKB+JJOwA3J2GGMSTQV8W/nD+bup+ftZKxl7by7aOf0dYnYnt60wBIMjf8KNh3J3GDAI&#xA;DzaZSt55mQxeoflN5A8rXN9ba15+1K20nRCPWsbG6lWGS+CsV5AMQfQDKQW/a6Ducxs+WQFQFn7m&#xA;UR3vqGH81fyrghSGHzLpcUMShI40niVVVRQKoBoABms8GfcW3iC//lbf5Y/9TRpv/STH/XHwJ9xX&#xA;iDv+Vt/lj/1NGm/9JMf9cfAn3FeIO/5W3+WP/U0ab/0kx/1x8CfcV4g7/lbf5Y/9TRpv/STH/XHw&#xA;J9xXiDLcqS7FXYq7FXYq7FXYq7FXYqlvmb/lG9V/5g7j/k02ShzCC/PDN+0OxV2KuxV7n+Q/58P5&#xA;eeDyx5nnL6C5CWN85qbQnojn/fP/ABD/AFemFqdNxeqPNnGT6r/cXEH7M0Ey+zI6MPuIIzVtr5U/&#xA;Pj8h38vPP5n8sQF9Bcl76xQVNoT1dB/vn/iH+r02mm1PF6Zc2qUXhmZrBnf5T/mxrPkDWfVi5XWi&#xA;3TD9I6dXZh09SOuyyKOh79D7UZ8AyDzZRlT7U8ueY9G8x6Nbaxo9yt1YXS8o5F6g/tI69VZTsQem&#xA;aecDE0W0FMsil2KoPWdZ0vRdLuNU1S4S0sLRDJPPIaBQPxJJ2AG5OwwxiSaCvjH84/zj1Tz9qnoQ&#xA;c7Ty5aOTY2JNC5G3rTU2LkdB0UbDuTuMGAQHm0ylbzjMhi9r/In8iZvNE0XmPzHE0XlyJuVtbNVW&#xA;vGU/eIQep/a6Ducw9TqeHYc2cY2iP+ctIYYPOGhwwosUMWlqkcaAKqqs8gCqBsABg0P0n3rN4Zma&#xA;wdirsVdirsVfpDnPOQ7FXYq7FXYq7FXYq7FXYqhdWs3vdKvbONgr3MEsKM3QGRCoJp88MTRtXy7/&#xA;ANCjedf+rzpv3z/9U82f56PcWrgLv+hRvOv/AFedN++f/qnj+ej3FeAu/wChRvOv/V50375/+qeP&#xA;56PcV4C89/Mj8qPNPkG7gj1ZY57O6H+jahbcmgZh1jJZVKuOtCPlXL8WeM+TExphmXIe5/kP+fD+&#xA;Xng8seZ5y+guQljfOam0J6I5/wB8/wDEP9XphanTcXqjzZxk+q/3FxB+zNBMvsyOjD7iCM1ba+VP&#xA;z4/Id/Lzz+Z/LEBfQXJe+sUFTaE9XQf75/4h/q9NpptTxemXNqlF4ZmawZ3+U/5saz5A1n1YuV1o&#xA;t0w/SOnV2YdPUjrssijoe/Q+1GfAMg82UZU+1PLnmPRvMejW2saPcrdWF0vKOReoP7SOvVWU7EHp&#xA;mnnAxNFtBTLIpeAfnH5B/Onz7qnoQQW1r5btHJsbL60oMhG3rzUG7kdB0UbDuTn6fLjgPNrkCXm/&#xA;/Qr/AOa3/LPZ/wDSSv8ATMj85jY8BZX+XH/OLusJr6XXnYQjSrWki2cEvqG4euyORTig/a7np75V&#xA;l1gr082Qh3vpqGGGCFIYUWKGJQkcaAKqqooFUDYADNa2PG/zu/JHzB5/8wWGpabf2lpFaWn1Z0uf&#xA;U5FvUd6jgjClGzM0+oGMUWEo285/6FG86/8AV50375/+qeZH56PcWPAXnv5m/ldq/wCX19ZWep3d&#xA;vdvfRNNG1tzoArcSDzVMvw5hkFhiRTDMuQ9j8tf84x+bdf8AL+n63barYRW+owJcxRyGbmqyLyAb&#xA;jGRX6cxJ6yMSRRZiCZf9Cjedf+rzpv3z/wDVPI/no9xXgL6szVtrsVdirsVdirsVdirsVYf+Zv5m&#xA;6F5C0I39+RNfTArp2nKaSTyD7+KLX4m7e5IGXYcJmaCCafOTf85WfmaWJEOmgE7D6vJt/wAlc2H5&#xA;KHm18Za/6Gr/ADO/31pv/SPJ/wBVcfyUPNeMu/6Gr/M7/fWm/wDSPJ/1Vx/JQ814y7/oav8AM7/f&#xA;Wm/9I8n/AFVx/JQ814ylvmL/AJyI86+Y9HuNH1mx0u6sLlaSRNbyAgjoysJaqyncEdMlDSxibFoM&#xA;y8uzJYuxV7n+Q/58P5eeDyx5nnL6C5CWN85qbQnojn/fP/EP9XphanTcXqjzZxk9w/NnU/zD0/y/&#xA;+l/JkdnqNtFGWv8AT54WneSFhX1ISrqHAXqlNx08MwsAgTUtmcr6PiTUbtby+nult4bQTuX+rW4Z&#xA;YUJ3IRWZyF9q7ZuQKDSh8Ks//KH82dT/AC/1v1KPdaFdkDUdPB+j1oq7CRR/wQ2PYijPgGQebKMq&#xA;fYn6Ym8xeUv0r5Nv7dpryL1NNu50aSAsD9iVAUcbgo3dT22pmo4eGVSbfc+b9e/5yN/OXQNWudJ1&#xA;ax0+0v7RuE0L28nzBBEtGVhuCNiM2MdJjkLFtZmUv/6Gr/M7/fWm/wDSPJ/1VyX5KHmvGXf9DV/m&#xA;d/vrTf8ApHk/6q4/koea8Zd/0NX+Z3++tN/6R5P+quP5KHmvGXf9DV/md/vrTf8ApHk/6q4/koea&#xA;8Zd/0NX+Z3++tN/6R5P+quP5KHmvGWD/AJg/mX5i8+Xlpd62tustlG0UP1ZGjHFm5GoZn75diwiA&#xA;2Yk2xTLUPsq18y6j5Y/5x007XdNEZvbHSbN4RMpZKsY0PJQVJ2bxzUGAlmIPe3XQeMf9DV/md/vr&#xA;Tf8ApHk/6q5mfkoebDjK+H/nK38ylmRpbfTZI1YF4xBIvJQdxy9U0r44PyUPNeMvpX8vvzB0Hzxo&#xA;MeraTJRxRL2ycj1beWm6OPD+VuhH0jNdlxGBotgNsmytLsVdirsVdirsVfEf/OQd5d3H5t66k8zy&#xA;pbtDFbq7EiOMQI3BAeg5MTQdzm50o/dhplzedZkMXYq7FXYq7FXYq7FXYq9z/If8+H8vPB5Y8zzl&#xA;9BchLG+c1NoT0Rz/AL5/4h/q9MLU6bi9UebOMmQfnx+Q6XKT+cfJ0AdnBn1PTIBUSA/Ebi3C9+7K&#xA;OvUb9a9Nqf4ZJlF82ZsWt2KvSPya/OLUvIWrC3uGa58tXkg+v2fUxk0BnhHZ1HUftDbwIx9RgEx5&#xA;soyp9HfmT+W3lj81fLFvqemXEX6R9L1NH1iPdHQ7+lLTcxk/Sh+kHX4c0sUqPJsIt8ca9oOraBq1&#xA;zpOrWzWl/aNwmhf7wQRsysNwRsRm2jISFhpIQGSV2KuxV2KuxV2KvrXzB/6ypF/2x7H/AJORZqo/&#xA;3/xbT9L5KzatTsVer/8AOMl5dw/mtZQRTPHBdW9ylzErELIqQs6hh0NGUEZi6wfu2UOb7KzUNzsV&#xA;dirsVdirsVfDv59/+Td8x/8AGaL/AKh483Wm/uw0y5sQ8uxpJ5g0yORQ6PdwK6MKggyKCCDls+RY&#xA;h97f4G8lf9S/pv8A0hwf80Zo/El3lvoIbU/LH5e6Zpt3qV9oemw2VjDJc3Uv1KFuEUSl3bisbMaK&#xA;pNAK4ROZNAlaDAP+Vpf84y+Om/8AcHm/7Jcv8HN5/P8Aax4op75R1r8jvOF7NY+XbLTb66t4vXmj&#xA;/Rhh4x8gvKs0EYO7DochkjlgLN/NIosr/wADeSv+pf03/pDg/wCaMq8SXeU0ELqv5aeQdT0+ewud&#xA;AsFhuEKM8NvFFItf2kkRQysOxBwxzTBu1oPj782Pyn1nyBrPpS8rrRbpj+jtRpsw6+nJTZZFHUd+&#xA;o9ttgzjIPNqlGmCZexe5/kP+fD+Xng8seZ5y+guQljfOam0J6I5/3z/xD/V6YWp03F6o82cZPpM+&#xA;TfJNyPWOhabMJvjMv1WB+fPfly4Gta9c13iS7y2UHyl/zkT+W2jeTPM1pcaMTFYayssy2NPhgeNl&#xA;DrGf5G51A7fKmbTS5jOO/RqmKeTZlMX0/wD84hXl3JonmG0kmd7a3uLd4IWYlEaRZOZUduXAVzW6&#xA;4bhsxvcdR8ueXtTmE+paXaXs6rwWW4gilcKCTxDOrGlTmEJkci2Uhf8AA3kr/qX9N/6Q4P8AmjD4&#xA;ku8ooO/wN5K/6l/Tf+kOD/mjHxJd5Wg7/A3kr/qX9N/6Q4P+aMfEl3laDv8AA3kr/qX9N/6Q4P8A&#xA;mjHxJd5Wg+bP+cq9G0jS/MGhR6ZY29iklpK0iW0SQhiJKAkIFrmx0UiQba5vDMzWD7u/K+zs738q&#xA;PLVreQR3NtLplsJIJkWRGAQH4lYEHcZpMxrIfe3jknH+BvJX/Uv6b/0hwf8ANGQ8SXeVoPz5zfND&#xA;1H/nGn/ybul/8Ybv/qHfMbV/3ZZQ5vtDNO3OxV2KuxV2KuxV8O/n3/5N3zH/AMZov+oePN1pv7sN&#xA;MubEvLP/ACkelf8AMZb/APJ1ctnyLEP0PzQOQxv8y/8AyXHmv/tj6h/1CyZZh+se8IPJ8BZvWh7r&#xA;/wA4jf8AKa6z/wBs0/8AJ+PMLXfSPezhzfVmattdiqW+Y/LmjeY9GudH1i2W6sLpeMkbdQf2XRuq&#xA;sp3BHTJQmYmwgh8V/mx+U+s+QNZ9KXldaLdMf0dqNNmHX05KbLIo6jv1HtuMGcZB5tUo0wTL2L3P&#xA;8h/z4fy88HljzPOX0FyEsb5zU2hPRHP++f8AiH+r0wtTpuL1R5s4yel/85E/lhqPnTQrPWtEk+sX&#xA;2jxyulkg5fWIJeLN6RXq44VUftfOlcbS5hA0erKYt8hMrKxVgQwNCDsQRm2an0z/AM4ff8c3zP8A&#xA;8ZrT/iMua3X8w2Y30PmA2OxV2KuxV2Kvlz/nL3/lJPL/APzBy/8AJ3NnoeRasjwHM5g+9Pyk/wDJ&#xA;Y+V/+2bbf8mxmjz/AFn3t8eTLcqS8l/6Ff8Ayp/3xef9JLf0zK/OTYcATnyh+RnkHynrsOt6PFcp&#xA;fwK6xtLOXWkilGqpHgchk1M5CikRAeg5QydirsVdirsVdir4d/Pv/wAm75j/AOM0X/UPHm60392G&#xA;mXNiXln/AJSPSv8AmMt/+Tq5bPkWIfofmgchjf5l/wDkuPNf/bH1D/qFkyzD9Y94QeT4CzetD3X/&#xA;AJxG/wCU11n/ALZp/wCT8eYWu+ke9nDm+rM1ba7FXYqlvmPy5o3mPRrnR9YtlurC6XjJG3UH9l0b&#xA;qrKdwR0yUJmJsIIfFf5sflPrPkDWfSl5XWi3TH9HajTZh19OSmyyKOo79R7bjBnGQebVKNMEy9i9&#xA;z/If8+H8vPB5Y8zzl9BchLG+c1NoT0Rz/vn/AIh/q9MLU6bi9UebOMmVfn/+R6apFP518qRB7vj6&#xA;2p2EIBFwtKm4hC9Xpuw/a6j4vtVaXUV6ZJlHqs/5w+/45vmf/jNaf8Rlx1/MLjfQ+YDY7FXYq7FX&#xA;Yq89/M38l9B/MG+srzUr66tHsYmhjW29OhDNyqeatmRh1BxigxMbYZ/0KL5K/wCrzqX3wf8AVPLf&#xA;z0u4I4A9j8taFb6B5f0/RLaR5bfToI7aKSSnNljXiC3EAVzEnLiJLIBMsil2KuxV2KuxV2KuxV2K&#xA;uxV8O/n3/wCTd8x/8Zov+oePN1pv7sNMubEvLP8Aykelf8xlv/ydXLZ8ixD9D80DkMb/ADL/APJc&#xA;ea/+2PqH/ULJlmH6x7wg8nwFm9aHuv8AziN/ymus/wDbNP8AyfjzC130j3s4c31ZmrbXYq7FXYql&#xA;vmPy5o3mPRrnR9YtlurC6XjJG3UH9l0bqrKdwR0yUJmJsIIfFf5sflPrPkDWfSl5XWi3TH9HajTZ&#xA;h19OSmyyKOo79R7bjBnGQebVKNMEy9i9z/If8+H8vPB5Y8zzl9BchLG+c1NoT0Rz/vn/AIh/q9ML&#xA;U6bi9UebOMn0d5b8m+X9D1TV9W0ZBCmvNDPcwx09H1Iw/wC8jp09T1KntXfvmvnkMgAejYAxv/nI&#xA;K5ubX8odfntpXgnT6pwljYo4rewg0ZaHocs0ovIPx0RLk+NP8TeY/wDq63n/AEkS/wDNWbfgHc02&#xA;7/E3mP8A6ut5/wBJEv8AzVjwDuW3f4m8x/8AV1vP+kiX/mrHgHctu/xN5j/6ut5/0kS/81Y8A7lt&#xA;3+JvMf8A1dbz/pIl/wCaseAdy27/ABN5j/6ut5/0kS/81Y8A7lt3+JvMf/V1vP8ApIl/5qx4B3Lb&#xA;v8TeY/8Aq63n/SRL/wA1Y8A7lt3+JvMf/V1vP+kiX/mrHgHctvTP+cc9b1m6/NfTIbq/uZ4Whui0&#xA;Us0jqaQORVWJGY2riBjOzOHN9h5qW12KuxV2KuxV2Kvh38+//Ju+Y/8AjNF/1Dx5utN/dhplzYl5&#xA;Z/5SPSv+Yy3/AOTq5bPkWIfofmgchjf5l/8AkuPNf/bH1D/qFkyzD9Y94QeT4CzetD3X/nEb/lNd&#xA;Z/7Zp/5Px5ha76R72cOb6szVtrsVdirsVdiqW+Y/LmjeY9GudH1i2W6sLpeMkbdQf2XRuqsp3BHT&#xA;JQmYmwgh8T/mz+WGofl/5iFhLJ9Z067DS6ZebBnjBoVdR0dKgN27jNzgzDIL6tMhTCMuQ9z/ACH/&#xA;AD4fy88HljzPOX0FyEsb5zU2hPRHP++f+If6vTC1Om4vVHmzjJ7l+dukalr/AOVWsafosDX95di1&#xA;a2hhoxkC3cMhK70PwKTmFp5CMwSzlyfKH/KlPzW/6lm8/wCBX/mrNp+Yh3tXCXf8qU/Nb/qWbz/g&#xA;V/5qx/MQ714S7/lSn5rf9Szef8Cv/NWP5iHevCXf8qU/Nb/qWbz/AIFf+asfzEO9eEu/5Up+a3/U&#xA;s3n/AAK/81Y/mId68Jd/ypT81v8AqWbz/gV/5qx/MQ714S7/AJUp+a3/AFLN5/wK/wDNWP5iHevC&#xA;Xf8AKlPzW/6lm8/4Ff8AmrH8xDvXhLCcuQ9R/wCcaf8Aybul/wDGG7/6h3zG1f8AdllDm+0M07c7&#xA;FXYq7FXYq7FXw7+ff/k3fMf/ABmi/wCoePN1pv7sNMubEvLP/KR6V/zGW/8AydXLZ8ixD9D80DkM&#xA;b/Mv/wAlx5r/AO2PqH/ULJlmH6x7wg8nwFm9aHuv/OI3/Ka6z/2zT/yfjzC130j3s4c31ZmrbXYq&#xA;7FXYq7FXYq+Zf+cwf+Ol5Y/4w3f/ABKLNloORa8j54zPa3Yq9z/If8+H8vPB5Y8zzl9BchLG+c1N&#xA;oT0Rz/vn/iH+r0wtTpuL1R5s4yfVsciSIskbB0cBkdTUEHcEEZq21vFXYq7FXlP5y/nbdfl5qenW&#xA;UOkpqIvoXmLvMYuPB+NKBHrmVp9P4gJtjKVPO/8AocHUv+pYh/6S2/6pZkfkB3sfEfQXk7Xn8weV&#xA;dK1x4RbvqVrFctAG5hDIobiGIFafLMDJHhkR3MwU4yCX5vZ0LjvUf+caf/Ju6X/xhu/+od8xtX/d&#xA;llDm+0M07c7FXYq7FXYq7FXw7+ff/k3fMf8Axmi/6h483Wm/uw0y5sS8s/8AKR6V/wAxlv8A8nVy&#xA;2fIsQ/Q/NA5DG/zL/wDJcea/+2PqH/ULJlmH6x7wg8nwFm9aHuv/ADiN/wAprrP/AGzT/wAn48wt&#xA;d9I97OHN9WZq212KuxV2KuxV2KvmX/nMH/jpeWP+MN3/AMSizZaDkWvI+eMz2tU+rXBtjdCNjbBx&#xA;EZqHgHILBSegJAJGC1U8Kvc/yH/Ph/LzweWPM85fQXISxvnNTaE9Ec/75/4h/q9MLU6bi9UebOMn&#xA;1bHIkiLJGwdHAZHU1BB3BBGattbxV2Kvlz/nL3/lJPL/APzBy/8AJ3NnoeRasjwHM5g+9Pyk/wDJ&#xA;Y+V/+2bbf8mxmjz/AFn3t8eTLcqS/N7Ohcd6j/zjT/5N3S/+MN3/ANQ75jav+7LKHN9oZp252Kux&#xA;V2KuxV2Kvh38+/8AybvmP/jNF/1Dx5utN/dhplzYl5Z/5SPSv+Yy3/5Orls+RYh+h+aByGN/mX/5&#xA;LjzX/wBsfUP+oWTLMP1j3hB5PgLN60Pdf+cRv+U11n/tmn/k/HmFrvpHvZw5vqzNW2uxV2KuxV2K&#xA;uxV4j/zkX+V/nHzre6HL5etEuUso7hbgvNHFQyNGVp6jLX7J6Zm6TNGANsJi3jv/AELT+bv/AFa4&#xA;f+ku3/5rzL/N4+9hwF65+TH5K6npvlrzLoXnnTYjZ6u1uYohLHKf3SyVdWjLcGUsCpzE1GoBkDE8&#xA;mcY97zbzH/zi7+YVprNzDocUWpaUGraXTzRQuUO4WRHZfiXoabHMmGsgRvsWJgUs/wChafzd/wCr&#xA;XD/0l2//ADXkvzePvRwF7f8AkfpH5v8AleNfL3mnT1m0BVP1K7FzDJJakCvp8Q5Zoj2A3U+3TC1M&#xA;sct4ndnGw9hzEZuxV8uf85e/8pJ5f/5g5f8Ak7mz0PItWR4Dmcwfen5Sf+Sx8r/9s22/5NjNHn+s&#xA;+9vjyZblSX5vZ0LjvUf+caf/ACbul/8AGG7/AOod8xtX/dllDm+0M07c7FXYq7FXYq7FXw7+ff8A&#xA;5N3zH/xmi/6h483Wm/uw0y5sHsLx7K+tryNQz20qTIrdCY2DAGnyy4ixTF7d/wBDc+df+rNpv3T/&#xA;APVTMP8AIx7yz4ygdf8A+covN+taFqOjz6Tp8cGpWs1nLJGJuapPG0bMtZCKgNtXDHRxBBs7KZvG&#xA;MzGD3X/nEb/lNdZ/7Zp/5Px5ha76R72cObK/zT/5yL80eT/Pmp+XbHTbG4tbH0PTmnE3qN61vHMe&#xA;XF1GxkI6ZVh0kZxBJTKdFin/AENz51/6s2m/dP8A9VMt/Ix7yjjLv+hufOv/AFZtN+6f/qpj+Rj3&#xA;leMu/wChufOv/Vm037p/+qmP5GPeV4y7/obnzr/1ZtN+6f8A6qY/kY95XjLv+hufOv8A1ZtN+6f/&#xA;AKqY/kY95XjKk3/OW/5g8jx0vSQtdgY7kmnz9cY/kYd5XjLl/wCct/zA5Dlpekle4EdyD9/rnH8j&#xA;DvK8ZVf+hufOv/Vm037p/wDqpj+Rj3leMu/6G586/wDVm037p/8Aqpj+Rj3leMu/6G586/8AVm03&#xA;7p/+qmP5GPeV4y7/AKG586/9WbTfun/6qY/kY95XjLv+hufOv/Vm037p/wDqpj+Rj3leMu/6G586&#xA;/wDVm037p/8Aqpj+Rj3leMvPfzN/NHV/zBvrK81O0t7R7GJoY1tudCGbkSebPl+HCMYoMSbYZlyH&#xA;2dpvmm88q/8AOPOmeYLOKOe5sNJs3jim5cGLGNPi4lT0bxzTmHFlI8266Dyb/obnzr/1ZtN+6f8A&#xA;6qZl/kY95YcZeFZmsHqP/ONP/k3dL/4w3f8A1DvmNq/7ssoc32hmnbnYq7FXYq7FXYq+a/8AnI78&#xA;mNRkvbvz1oYe6SUK+sWX2nj9NAnrx06pxUcx1Xr0rx2Ok1ArhLXOPV85ZsGt2KuxV2Kvdf8AnEb/&#xA;AJTXWf8Atmn/AJPx5ha76R72cObEv+ci/wDycnmH/oz/AOoGDLdJ/dj8dUT5vN8yGLsVdirsVdir&#xA;sVdirsVdirsVdirsVdirsVdir618wf8ArKkX/bHsf+TkWaqP9/8AFtP0vkrNq1OxV9P/APOOX5Ma&#xA;jo88PnXXg9tePEw0zTj8LLHKvEyzA7gsp+FO3U77DW6vUA+kNkI9X0FmA2OxV2KuxV2KuxVxAIoe&#xA;mKsal/Ln8tlV5pvK+jBQC8kj2NqAANySSmWeLPvPzRQSX9GfkH/yyeVf+Renf0yd5f6X2o2SPz3p&#xA;/wCSSeSPMLadbeWl1BdMvDZtbpYCYTC3f0zFwHLnypx471yeM5OIXxc/NBqnxzm3antX/OK+r6Tp&#xA;nnDVptSvYLGJ9PKJJcypEpb14zxBcqCaDMPWxJiK72cH0DqP/KlNTvZL7Uv8N317NT1bq5+oSyvx&#xA;UKvJ35MaKoAqemYA8QChxfaz2X6b5U/JrVHePTNG8u3zxjlIltbWMxUHapCK1MTPIOZl9qaCP/5V&#xA;p+XH/UqaP/3D7X/qnkfGn3n5rQd/yrT8uP8AqVNH/wC4fa/9U8fGn3n5rQd/yrT8uP8AqVNH/wC4&#xA;fa/9U8fGn3n5rQd/yrT8uP8AqVNH/wC4fa/9U8fGn3n5rQY75qtfyH8pyW0fmHR9E097sM1uH02F&#xA;uYQgNT04X6ch1yyByy5E/NBoJF/jD/nFv/ln0H/uFL/2T5Pw8/n80XFkPlXTvyM82R3Mnl7RdE1B&#xA;LQqtwU02FeBcErX1IU68T0yuZyx5k/NIop9/yrT8uP8AqVNH/wC4fa/9U8h40+8/NNB3/KtPy4/6&#xA;lTR/+4fa/wDVPHxp95+a0Hf8q0/Lj/qVNH/7h9r/ANU8fGn3n5rQSLzVpv5H+VI4JfMGhaNYRXLM&#xA;sEr6XE6MyipXlHC4Bp2OTgcsuRPzQaDHf8Yf84t/8s+g/wDcKX/snyzw8/n80XF4p+fmq/lvqOr6&#xA;U/kZLJLSO3cXgsLYWq+oXqvJRHFyPHvmbpozAPEwlXR5ZmSxfdn5Z6fp+o/lL5bstQtoryzm0y2E&#xA;1tcIssTgIpAZHBU7iu4zSZiRkJHe3jkmP/KtPy4/6lTR/wDuH2v/AFTyPjT7z81oL4fy6/L6CZJo&#xA;fLGkxTRMHjkSxtlZWU1DKQlQQcfFn3n5rQZDlaXYq7FXYq7FXYq7FXYqlvmb/lG9V/5g7j/k02Sh&#xA;zCC/PDN+0OxV2KuxV2Kvfv8AnEL/AJSTzB/zBxf8ncwddyDPG+o81ja7FXYq7FXzL/zmD/x0vLH/&#xA;ABhu/wDiUWbLQci15Hzxme1vpr/nD7/jm+Z/+M1p/wARlzW6/mGzG+h8wGx2KuxVLfMflzRvMejX&#xA;Oj6xbLdWF0vGSNuoP7Lo3VWU7gjpkoTMTYQQ+K/zY/KfWfIGs+lLyutFumP6O1GmzDr6clNlkUdR&#xA;36j23GDOMg82qUaYJl7F2KvvT8pP/JY+V/8Atm23/JsZo8/1n3t8eTLcqS7FXYq7FXYq7FXYq7FX&#xA;Yq7FUJrFpJe6Te2cRVZbm3lhQtUKGkQqK0BNKnDE0VfKv/QpP5j/APVy0f8A5HXX/ZNm0/PQ7i1c&#xA;Bd/0KT+Y/wD1ctH/AOR11/2TY/nodxXgLv8AoUn8x/8Aq5aP/wAjrr/smx/PQ7ivAXf9Ck/mP/1c&#xA;tH/5HXX/AGTY/nodxXgLv+hSfzH/AOrlo/8AyOuv+ybH89DuK8BeofkT+TPmjyBq2qXms3VjcRXt&#xA;ukMQs5JnYMr8jy9SKIUp4ZjanURyAUyjGnsuYbN2KuxV2KvmX/nMH/jpeWP+MN3/AMSizZaDkWvI&#xA;+eMz2t9Nf84ff8c3zP8A8ZrT/iMua3X8w2Y30PmA2OxV2KuxVLfMflzRvMejXOj6xbLdWF0vGSNu&#xA;oP7Lo3VWU7gjpkoTMTYQQ+Z9U/5xH85rqNwNK1XTpNO5n6q91JPHOY+3qLHBInIdNm39umbGOujW&#xA;4LXwFCf9Ck/mP/1ctH/5HXX/AGTZL89DuK8BfTPkbQ7vQPJ2jaLePHJdadaRW87wljGXjUKShYI1&#xA;PmBmtyS4pEtgCeZBLsVdirsVdirsVdirsVdirsVdirsVdirsVdirsVdirsVdirsVdir5l/5zB/46&#xA;Xlj/AIw3f/Eos2Wg5FryPnjM9rfTX/OH3/HN8z/8ZrT/AIjLmt1/MNmN9D5gNjsVdirsVdirsVdi&#xA;rsVdirsVdirsVdirsVdirsVdirsVdirsVdirsVdirsVdirsVdirsVdir5l/5zB/46Xlj/jDd/wDE&#xA;os2Wg5FryPnjM9rfTX/OH3/HN8z/APGa0/4jLmt1/MNmN9D5gNjsVdirsVdirsVdirsVdirsVdir&#xA;sVdirsVdirsVdirsVdirsVdirsVdirsVdirsVdiqVeZfNXl/yxpw1LXbxbGyMiwiZ1dhzYEqtEDH&#xA;cKclCBkaCCaYr/yvv8ov+pjh/wCRVx/1Ty38tk7kcQeD/wDOS/nryn5svtBk8vagmoJaRXK3BRZF&#xA;4F2jK19RU68T0zO0mOUQbDCZt4rmYwe8f840fmD5O8p2OvR+YdTTT3u5bZrcOkjcwiyBqemr9OQ6&#xA;5g6vFKRFBnA09q/5X3+UX/Uxw/8AIq4/6p5h/lsncz4gy3y95j0XzFpceq6LdLeafMWWOdQyglGK&#xA;ts4U7EeGVSgYmiyBTLIq7FXYq7FXYq7FXYq7FXYq7FXYq7FXYq7FXYq7FXYq7FXYq7FXYq7FXYq7&#xA;FXYq8c/5yr/8ljF/20rf/k3LmXovr+DCfJ8g5tmp2KuxV2KuxV9of840/wDkotL/AOM11/1EPmn1&#xA;f94W6HJ6jmMydirsVdirsVdirsVdirsVdirsVdirsVdirsVdirsVdirsVdirsVdirsVdirsVYd+a&#xA;35d/4+8sJof6Q/RvG5jufrHo+v8A3auvHhzi68+tcuw5eCV1aJC3kH/QnX/f3f8Acu/7Osyvz/8A&#xA;R+39jDw3f9Cdf9/d/wBy7/s6x/P/ANH7f2L4bv8AoTr/AL+7/uXf9nWP5/8Ao/b+xfDd/wBCdf8A&#xA;f3f9y7/s6x/P/wBH7f2L4bv+hOv+/u/7l3/Z1j+f/o/b+xfDe0flp5I/wT5RtfLv139IfVnlf616&#xA;Xo8vVkMlOHOWlOVPtZiZsnHK2YFMoypLsVdirsVdirsVdirsVdirsVdirsVdirsVdirsVdirsVdi&#xA;rsVdirsVdirsVdirsVdirsVdirsVdirsVdirsVdirsVdirsVdirsVdirsVdirsVYan5jK0lsr6bJ&#xA;GlxDbXpmaQNFFZXfIRSyvGriN6xtUNRBT+86VVSuL847d9MttQfS3WK4ijnRBIxZ0mSORfS5RKHK&#xA;CX97uAvFqFqYqnNx56urYxwzaRL9bnjaaCnrJCY0YpI0kk0MMkfBzGpBjqfUXjyHIqqoXP5n6ZZ3&#xA;40+8tzDdxrI16oljZYhFKVdgahnT0YZpuXEUWOjcWYLiqG0/83tJu4obg2M8dm8Uj3F4GjeKCSOQ&#xA;x8JCpruWiPICgEiE7ciqqazed+HNo9Pd4RcW9hG7SxoWu7pIXjXi24jC3Aq/2tjRCKEqoK2/NLS5&#xA;r79HtZXEd8b5NOWOisjSCZYLh1cGnCB2HJjSvJKbtTFWa4q7FXYq7FXYq7FXYq7FXYq7FXYq7FXY&#xA;q7FXYq7FXYq7FXYq7FXYqlfmq6mtPLGsXcEhhnt7K5lilFKo6RMytvtsRXFXiMOv6uumWurT3PmK&#xA;KGb0ZJZpri4XSxFcGGiJPUPyUTFVZpqM6kECtECGJSeePPA0m8eLXLp7xHX+8vJV4oUB/chZ2JJm&#xA;LRsOMnFFDhn5Yqv/AMc+duXK41a6t4hZu6Mt9KwJVT+8lb12EcoG/CvWg474q+hF/wCVX+l8H6E9&#xA;L612+qcfrm30et0/yumFKNuf8E/omH61+jf0R6EH1f1fQ+rfV+a/V+HL4PT58PTptWlMVULD/lXf&#xA;6HP1D9Efob05uXofVvq3p8k+sV4fu+PLhz9+Ne2Kqlr/AID/AEafqv6L/Rvq7+l9X9D1uP8Ak/Bz&#xA;4/TTFVSD/Bn1Wf0P0d9V9Kb61w9D0/R4R+v6lNuHp+lzrtTjXamKoOf/AJVn9YuPrH6F+seg31v1&#xA;PqvP6vz+L1K7+nz612riqZaf/hj9Hr+j/qX6O9SHh9X9L0fUpH9Xpw+HlT0vT/2NO2KppirsVdir&#xA;sVdirsVdirsVdirsVdirsVdirsVdirsVdirsVdirsVdiqA1/9E/oLUf0xT9EfVZv0jy5U+rem3rV&#xA;4fFThXpvir5xuf8AoV7/AArB9Y/TX+G/UPocv0p6HOm9P9j+GKsn03/lSn6d8v8A1L9M/pX9GD/D&#xA;1frlP0d9UT+65/u6fVuFa/FT3xVD3f8A0L7/AIU13639f/w1+kp/07X6x6f1714fX+x+8p63o19P&#xA;4elMVf/Z</xmpGImg:image>
               </rdf:li>
            </rdf:Alt>
         </xmp:Thumbnails>
      </rdf:Description>
      <rdf:Description rdf:about=""
            xmlns:xmpMM="http://ns.adobe.com/xap/1.0/mm/"
            xmlns:stRef="http://ns.adobe.com/xap/1.0/sType/ResourceRef#"
            xmlns:stEvt="http://ns.adobe.com/xap/1.0/sType/ResourceEvent#">
         <xmpMM:OriginalDocumentID>uuid:9E3E5C9A8C81DB118734DB58FDDE4BA7</xmpMM:OriginalDocumentID>
         <xmpMM:DocumentID>xmp.did:6A1E35630F206811822A8451A1857300</xmpMM:DocumentID>
         <xmpMM:InstanceID>xmp.iid:6A1E35630F206811822A8451A1857300</xmpMM:InstanceID>
         <xmpMM:RenditionClass>proof:pdf</xmpMM:RenditionClass>
         <xmpMM:DerivedFrom rdf:parseType="Resource">
            <stRef:instanceID>xmp.iid:691E35630F206811822A8451A1857300</stRef:instanceID>
            <stRef:documentID>xmp.did:691E35630F206811822A8451A1857300</stRef:documentID>
            <stRef:originalDocumentID>uuid:9E3E5C9A8C81DB118734DB58FDDE4BA7</stRef:originalDocumentID>
            <stRef:renditionClass>proof:pdf</stRef:renditionClass>
         </xmpMM:DerivedFrom>
         <xmpMM:History>
            <rdf:Seq>
               <rdf:li rdf:parseType="Resource">
                  <stEvt:action>saved</stEvt:action>
                  <stEvt:instanceID>xmp.iid:F77F117407206811822A8451A1857300</stEvt:instanceID>
                  <stEvt:when>2013-10-06T17:09:14+13:00</stEvt:when>
                  <stEvt:softwareAgent>Adobe Illustrator CS6 (Macintosh)</stEvt:softwareAgent>
                  <stEvt:changed>/</stEvt:changed>
               </rdf:li>
               <rdf:li rdf:parseType="Resource">
                  <stEvt:action>saved</stEvt:action>
                  <stEvt:instanceID>xmp.iid:6A1E35630F206811822A8451A1857300</stEvt:instanceID>
                  <stEvt:when>2013-10-06T18:29:12+13:00</stEvt:when>
                  <stEvt:softwareAgent>Adobe Illustrator CS6 (Macintosh)</stEvt:softwareAgent>
                  <stEvt:changed>/</stEvt:changed>
               </rdf:li>
            </rdf:Seq>
         </xmpMM:History>
      </rdf:Description>
      <rdf:Description rdf:about=""
            xmlns:xmpTPg="http://ns.adobe.com/xap/1.0/t/pg/"
            xmlns:stDim="http://ns.adobe.com/xap/1.0/sType/Dimensions#"
            xmlns:xmpG="http://ns.adobe.com/xap/1.0/g/">
         <xmpTPg:NPages>1</xmpTPg:NPages>
         <xmpTPg:HasVisibleTransparency>False</xmpTPg:HasVisibleTransparency>
         <xmpTPg:HasVisibleOverprint>False</xmpTPg:HasVisibleOverprint>
         <xmpTPg:MaxPageSize rdf:parseType="Resource">
            <stDim:w>209.999929</stDim:w>
            <stDim:h>210.001308</stDim:h>
            <stDim:unit>Millimeters</stDim:unit>
         </xmpTPg:MaxPageSize>
         <xmpTPg:PlateNames>
            <rdf:Seq>
               <rdf:li>Cyan</rdf:li>
               <rdf:li>Magenta</rdf:li>
               <rdf:li>Yellow</rdf:li>
               <rdf:li>Black</rdf:li>
            </rdf:Seq>
         </xmpTPg:PlateNames>
         <xmpTPg:SwatchGroups>
            <rdf:Seq>
               <rdf:li rdf:parseType="Resource">
                  <xmpG:groupName>Default Swatch Group</xmpG:groupName>
                  <xmpG:groupType>0</xmpG:groupType>
               </rdf:li>
            </rdf:Seq>
         </xmpTPg:SwatchGroups>
      </rdf:Description>
      <rdf:Description rdf:about=""
            xmlns:pdf="http://ns.adobe.com/pdf/1.3/">
         <pdf:Producer>Adobe PDF library 10.01</pdf:Producer>
      </rdf:Description>
      <rdf:Description rdf:about=""
            xmlns:xmpRights="http://ns.adobe.com/xap/1.0/rights/">
         <xmpRights:Marked>True</xmpRights:Marked>
         <xmpRights:WebStatement rdf:resource="http://www.ospreydawn.com"/>
         <xmpRights:UsageTerms>
            <rdf:Alt>
               <rdf:li xml:lang="x-default">This work is licensed under a &lt;a rel="license" href="http://creativecommons.org/licenses/by-nc-sa/3.0/"&gt;Creative Commons Attribution-NonCommercial-ShareAlike 3.0 Unported License&lt;/a&gt;.</rdf:li>
               <rdf:li xml:lang="en_us">This work is licensed under a &lt;a rel="license" href="http://creativecommons.org/licenses/by-nc-sa/3.0/"&gt;Creative Commons Attribution-NonCommercial-ShareAlike 3.0 Unported License&lt;/a&gt;.</rdf:li>
               <rdf:li xml:lang="en">This work is licensed under a &lt;a rel="license" href="http://creativecommons.org/licenses/by-nc-sa/3.0/"&gt;Creative Commons Attribution-NonCommercial-ShareAlike 3.0 Unported License&lt;/a&gt;.</rdf:li>
            </rdf:Alt>
         </xmpRights:UsageTerms>
      </rdf:Description>
      <rdf:Description rdf:about=""
            xmlns:cc="http://creativecommons.org/ns#">
         <cc:attributionName>Max O'Brien / Osprey Dawn</cc:attributionName>
         <cc:license rdf:resource="http://creativecommons.org/licenses/by-nc-sa/3.0/"/>
      </rdf:Description>
   </rdf:RDF>
</x:xmpmeta>
                                                                                                    
                                                                                                    
                                                                                                    
                                                                                                    
                                                                                                    
                                                                                                    
                                                                                                    
                                                                                                    
                                                                                                    
                                                                                                    
                                                                                                    
                                                                                                    
                                                                                                    
                                                                                                    
                                                                                                    
                                                                                                    
                                                                                                    
                                                                                                    
                                                                                                    
                                                                                                    
                           
<?xpacket end="w"?>
	</metadata>
<g id="Layer_2">
	<g id="_x37_Wl2mV_1_">
	</g>
</g>
<g id="Layer_1_1_">
	<g>
		<g>
			<rect x="175.333" y="373.635" fill="#1C2459" width="260.318" height="30.835"/>
			<polygon fill="#1C2459" points="529.277,389.052 529.277,276.716 348.457,276.716 348.457,307.552 498.441,307.552 
				498.441,373.635 476.388,373.635 476.388,404.469 513.859,404.469 			"/>
			<polygon fill="#1C2459" points="435.465,190.815 311.689,190.815 342.529,221.65 435.465,221.65 			"/>
			<g>
				<polygon fill="#1C2459" points="263.608,221.65 280.485,221.65 249.648,190.815 232.771,190.815 				"/>
				<polygon fill="#1C2459" points="81.417,404.469 134.441,404.469 134.441,373.635 96.835,373.635 96.835,221.65 204.504,221.65 
					173.667,190.815 81.417,190.815 66,206.232 66,389.052 				"/>
			</g>
			<polygon fill="#1C2459" points="529.277,206.231 529.277,220.461 529.277,221.65 529.277,244.001 498.441,244.001 
				498.441,221.65 476.388,221.65 476.388,190.815 513.859,190.815 			"/>
		</g>
		<g>
			<g>
				<polygon fill="#1C2459" points="324.316,360.82 324.316,334.272 289.038,303.433 289.038,360.82 				"/>
				<polygon fill="#1C2459" points="289.038,245.082 324.316,282.583 324.316,237.457 324.316,224.421 285.926,184.104 
					285.944,184.088 158.549,56.695 136.744,78.5 289.038,230.792 				"/>
				<rect x="282.373" y="373.552" fill="#1C2459" width="30.835" height="30.913"/>
				<rect x="289.038" y="417.196" fill="#1C2459" width="35.277" height="121.395"/>
			</g>
			<rect x="106.338" y="56.695" fill="#1C2459" width="101.486" height="30.835"/>
			<rect x="387.455" y="56.695" fill="#1C2459" width="101.481" height="30.835"/>
			<rect x="255.934" y="507.748" fill="#1C2459" width="101.482" height="30.842"/>
			<g>
				<polygon fill="#1C2459" points="361.001,178.086 457.859,80.151 436.054,58.347 317.634,178.086 				"/>
			</g>
		</g>
		<g>
			<g>
				<polyline fill="#1C2459" points="126.133,145.293 163.357,182.518 163.359,182.518 163.389,182.518 163.389,182.548 
					341.496,360.658 385.107,360.658 169.744,145.295 				"/>
				<polygon fill="#1C2459" points="433.724,320.344 433.724,404.469 433.76,404.469 433.76,417.196 398.039,417.196 
					430.825,449.984 464.564,449.984 464.564,320.344 				"/>
			</g>
			<rect x="433.724" y="174.043" fill="#1C2459" width="30.84" height="89.776"/>
			<rect x="132.521" y="234.452" fill="#1C2459" width="30.835" height="215.531"/>
			<rect x="97.271" y="419.149" fill="#1C2459" width="101.479" height="30.835"/>
			<rect x="396.523" y="145.295" fill="#1C2459" width="101.484" height="30.836"/>
			<rect x="97.271" y="145.293" fill="#1C2459" width="71.115" height="30.837"/>
		</g>
	</g>
</g>
<g>
	<path fill="#BDC2BC" d="M534.992,588.913c-0.739,0-1.34-0.602-1.34-1.341v-16.588c0-0.739,0.601-1.339,1.34-1.339h52.497
		c0.738,0,1.339,0.6,1.339,1.339v16.588c0,0.739-0.601,1.341-1.339,1.341H534.992z"/>
	<g>
		<path d="M558.027,571.51c-2.725,0-4.935,2.21-4.935,4.934c0,2.729,2.21,4.938,4.935,4.938c2.728,0,4.938-2.21,4.938-4.938
			C562.964,573.719,560.755,571.51,558.027,571.51z"/>
		<path fill="#FFFFFF" d="M558.027,580.461c-2.219,0-4.015-1.798-4.015-4.019c0-2.217,1.797-4.014,4.015-4.014
			c2.219,0,4.019,1.798,4.019,4.014C562.046,578.664,560.246,580.461,558.027,580.461z"/>
		<g>
			<path d="M559.402,575.293c0-0.219-0.182-0.398-0.398-0.398h-1.952c-0.221,0-0.401,0.181-0.401,0.398v1.985h0.528v2.338h1.694
				v-2.338h0.527L559.402,575.293L559.402,575.293z"/>
			<path d="M558.695,573.942c0,0.37-0.3,0.668-0.667,0.668c-0.371,0-0.67-0.299-0.67-0.668s0.301-0.67,0.67-0.67
				C558.395,573.272,558.695,573.571,558.695,573.942z"/>
		</g>
	</g>
	<path d="M587.175,569.198h-51.868c-1.157,0-2.102,0.943-2.102,2.102v15.96c0,1.158,0.943,2.1,2.102,2.1h51.868
		c1.158,0,2.102-0.94,2.102-2.1V571.3C589.275,570.141,588.332,569.198,587.175,569.198z M588.644,583.375h-37.865
		c-1.477,2.809-4.417,4.725-7.81,4.725s-6.333-1.916-7.809-4.725h-1.326V571.3c0-0.812,0.658-1.471,1.47-1.471h51.869
		c0.811,0,1.471,0.658,1.471,1.471V583.375L588.644,583.375z"/>
	<g>
		<path fill="#FFFFFF" d="M557.773,584.933c0.1,0.14,0.15,0.302,0.15,0.495c0,0.198-0.052,0.357-0.151,0.479
			c-0.057,0.066-0.14,0.131-0.25,0.187c0.168,0.061,0.294,0.155,0.378,0.289c0.085,0.13,0.127,0.289,0.127,0.477
			c0,0.192-0.049,0.365-0.145,0.519c-0.062,0.104-0.14,0.188-0.23,0.256c-0.104,0.078-0.225,0.137-0.369,0.164
			c-0.141,0.028-0.294,0.043-0.459,0.043h-1.466v-3.256h1.573C557.326,584.594,557.607,584.706,557.773,584.933z M556.009,585.151
			v0.717h0.79c0.143,0,0.257-0.026,0.345-0.08s0.133-0.147,0.133-0.286c0-0.15-0.059-0.248-0.176-0.301
			c-0.1-0.033-0.228-0.05-0.383-0.05H556.009L556.009,585.151z M556.009,586.407v0.869h0.789c0.143,0,0.25-0.02,0.328-0.058
			c0.145-0.071,0.217-0.206,0.217-0.407c0-0.17-0.07-0.285-0.208-0.35c-0.077-0.034-0.188-0.056-0.327-0.056L556.009,586.407
			L556.009,586.407z"/>
		<path fill="#FFFFFF" d="M560.469,584.586h0.771l-1.089,2.034v1.222h-0.68v-1.222l-1.127-2.034h0.8l0.677,1.418L560.469,584.586z"
			/>
	</g>
	<g>
		<g>
			<path fill="#FFFFFF" d="M566.517,584.426h0.776l1.403,2.473v-2.473h0.692v3.545h-0.742l-1.443-2.517v2.517h-0.688
				L566.517,584.426L566.517,584.426z"/>
			<path fill="#FFFFFF" d="M570.425,584.797c0.285-0.292,0.647-0.437,1.09-0.437c0.591,0,1.02,0.195,1.295,0.587
				c0.148,0.221,0.229,0.439,0.242,0.661h-0.741c-0.048-0.17-0.106-0.299-0.183-0.384c-0.132-0.153-0.328-0.229-0.586-0.229
				c-0.265,0-0.473,0.107-0.623,0.324c-0.152,0.219-0.229,0.525-0.229,0.923c0,0.399,0.08,0.696,0.241,0.895
				c0.161,0.197,0.365,0.299,0.614,0.299c0.252,0,0.447-0.086,0.581-0.256c0.072-0.09,0.136-0.229,0.183-0.41h0.736
				c-0.066,0.387-0.226,0.699-0.486,0.943c-0.262,0.241-0.594,0.36-1.002,0.36c-0.505,0-0.901-0.163-1.19-0.489
				c-0.288-0.328-0.434-0.777-0.434-1.353C569.93,585.607,570.095,585.133,570.425,584.797z"/>
		</g>
	</g>
	<g>
		<path fill="#FFFFFF" d="M578.517,586.944c0.022,0.173,0.073,0.303,0.145,0.389c0.132,0.154,0.354,0.233,0.673,0.233
			c0.19,0,0.347-0.021,0.465-0.062c0.225-0.078,0.338-0.226,0.338-0.438c0-0.125-0.055-0.223-0.166-0.291
			c-0.113-0.066-0.285-0.126-0.525-0.178l-0.411-0.088c-0.401-0.093-0.679-0.188-0.829-0.294c-0.254-0.173-0.383-0.448-0.383-0.819
			c0-0.339,0.126-0.619,0.376-0.846c0.249-0.224,0.617-0.336,1.102-0.336c0.401,0,0.748,0.104,1.033,0.315
			c0.284,0.213,0.436,0.521,0.45,0.922h-0.762c-0.014-0.227-0.117-0.387-0.306-0.484c-0.126-0.065-0.282-0.096-0.473-0.096
			c-0.209,0-0.375,0.041-0.499,0.122c-0.126,0.083-0.188,0.196-0.188,0.346c0,0.135,0.062,0.236,0.186,0.303
			c0.079,0.043,0.246,0.096,0.502,0.155l0.665,0.156c0.292,0.068,0.513,0.162,0.655,0.276c0.227,0.179,0.339,0.435,0.339,0.771
			c0,0.351-0.134,0.637-0.4,0.863c-0.269,0.229-0.646,0.344-1.134,0.344c-0.5,0-0.891-0.112-1.176-0.339
			c-0.287-0.224-0.432-0.536-0.432-0.929L578.517,586.944L578.517,586.944z"/>
		<path fill="#FFFFFF" d="M582.542,584.325h0.896l1.34,3.791h-0.858l-0.249-0.778h-1.396l-0.255,0.778h-0.828L582.542,584.325z
			 M582.486,586.681h0.972l-0.479-1.49L582.486,586.681z"/>
	</g>
	<g>
		<circle cx="542.95" cy="579.28" r="7.771"/>
		<circle fill="#FFFFFF" cx="542.95" cy="579.278" r="6.322"/>
		<g>
			<path d="M542.597,578.348l-1.188,0.215c-0.041-0.237-0.131-0.416-0.273-0.537c-0.143-0.119-0.325-0.178-0.55-0.178
				c-0.302,0-0.537,0.104-0.72,0.31c-0.18,0.204-0.268,0.555-0.268,1.038c0,0.539,0.09,0.921,0.271,1.146
				c0.183,0.223,0.426,0.332,0.73,0.332c0.229,0,0.417-0.064,0.562-0.195c0.146-0.131,0.249-0.354,0.311-0.67l1.182,0.199
				c-0.123,0.545-0.354,0.954-0.707,1.229c-0.348,0.276-0.813,0.416-1.399,0.416c-0.668,0-1.197-0.21-1.594-0.629
				c-0.396-0.42-0.592-1.004-0.592-1.746c0-0.75,0.198-1.337,0.594-1.754c0.397-0.42,0.936-0.627,1.613-0.627
				c0.555,0,0.995,0.118,1.322,0.355C542.219,577.497,542.453,577.86,542.597,578.348z"/>
			<path d="M547.477,578.348l-1.188,0.215c-0.039-0.237-0.131-0.416-0.272-0.537c-0.144-0.119-0.325-0.178-0.551-0.178
				c-0.301,0-0.539,0.104-0.72,0.31c-0.178,0.204-0.268,0.555-0.268,1.038c0,0.539,0.09,0.921,0.271,1.146
				c0.182,0.223,0.426,0.332,0.729,0.332c0.229,0,0.417-0.064,0.562-0.195c0.146-0.131,0.25-0.354,0.311-0.67l1.183,0.199
				c-0.123,0.545-0.356,0.954-0.708,1.229c-0.349,0.276-0.814,0.416-1.4,0.416c-0.668,0-1.197-0.21-1.593-0.629
				c-0.396-0.42-0.592-1.004-0.592-1.746c0-0.75,0.196-1.337,0.595-1.754c0.396-0.42,0.934-0.627,1.612-0.627
				c0.554,0,0.994,0.118,1.322,0.355C547.1,577.497,547.337,577.86,547.477,578.348z"/>
		</g>
	</g>
	<g>
		<path d="M569.93,571.719c-2.61,0-4.727,2.115-4.727,4.726c0,2.612,2.115,4.729,4.727,4.729s4.728-2.113,4.728-4.729
			C574.658,573.834,572.546,571.719,569.93,571.719z"/>
		<circle fill="#FFFFFF" cx="569.93" cy="576.447" r="3.846"/>
		
			<rect x="569.488" y="571.955" transform="matrix(0.4225 -0.9063 0.9063 0.4225 -193.3242 849.4399)" width="0.924" height="8.958"/>
		<g>
			<path d="M569.58,579.151v-0.637c-0.444-0.013-0.877-0.14-1.129-0.277l0.197-0.776c0.279,0.153,0.672,0.292,1.101,0.292
				c0.382,0,0.646-0.151,0.646-0.409c0-0.252-0.223-0.41-0.709-0.578c-0.711-0.238-1.196-0.568-1.196-1.215
				c0-0.59,0.411-1.047,1.122-1.181v-0.631h0.65v0.584c0.443,0.015,0.742,0.115,0.968,0.222l-0.199,0.748
				c-0.167-0.079-0.478-0.232-0.954-0.232c-0.434,0-0.571,0.193-0.571,0.381c0,0.212,0.231,0.356,0.798,0.564
				c0.796,0.276,1.107,0.643,1.107,1.246c0,0.591-0.411,1.09-1.182,1.221v0.684L569.58,579.151L569.58,579.151z"/>
		</g>
	</g>
	<g>
		<path d="M581.185,571.784c-2.571,0-4.66,2.086-4.66,4.658c0,2.576,2.089,4.665,4.66,4.665c2.576,0,4.665-2.089,4.665-4.665
			C585.852,573.87,583.761,571.784,581.185,571.784z"/>
		<path fill="#FFFFFF" d="M581.185,580.238c-2.092,0-3.789-1.698-3.789-3.794c0-2.091,1.695-3.79,3.789-3.79
			c2.096,0,3.793,1.696,3.793,3.79C584.979,578.538,583.281,580.238,581.185,580.238z"/>
		<path d="M581.185,573.885c-1.016,0-1.874,0.733-2.182,1.746h-0.294l0.933,1.016l0.93-1.016h-0.348
			c0.215-0.37,0.563-0.616,0.96-0.616c0.65,0,1.179,0.646,1.179,1.443c0,0.793-0.526,1.44-1.179,1.44
			c-0.432,0-0.81-0.289-1.016-0.72h-1.196c0.278,1.068,1.167,1.854,2.214,1.854c1.273,0,2.311-1.155,2.311-2.576
			C583.496,575.034,582.464,573.885,581.185,573.885z"/>
	</g>
</g>
<g>
	<path d="M11.392,586.197c-0.652,0-1.248-0.138-1.786-0.41c-0.539-0.271-1.002-0.631-1.39-1.07c-0.388-0.441-0.688-0.949-0.9-1.521
		C7.106,582.619,7,582.032,7,581.432c0-0.626,0.114-1.226,0.338-1.797c0.226-0.574,0.533-1.08,0.927-1.521
		c0.393-0.44,0.857-0.792,1.396-1.053c0.538-0.26,1.119-0.39,1.746-0.39c0.653,0,1.248,0.138,1.786,0.417
		c0.538,0.275,0.999,0.641,1.382,1.09s0.682,0.959,0.893,1.528c0.213,0.567,0.318,1.144,0.318,1.726c0,0.636-0.113,1.24-0.338,1.812
		c-0.225,0.574-0.534,1.079-0.926,1.517c-0.394,0.437-0.856,0.785-1.391,1.045C12.598,586.066,12.018,586.197,11.392,586.197z
		 M7.675,581.432c0,0.539,0.091,1.057,0.271,1.555s0.437,0.939,0.768,1.324c0.33,0.383,0.724,0.69,1.178,0.92
		c0.455,0.229,0.955,0.344,1.502,0.344c0.563,0,1.072-0.117,1.527-0.355c0.454-0.239,0.846-0.555,1.17-0.946
		c0.327-0.392,0.578-0.834,0.755-1.328s0.265-0.997,0.265-1.51c0-0.538-0.092-1.057-0.277-1.555
		c-0.185-0.498-0.442-0.939-0.773-1.323s-0.723-0.691-1.179-0.919c-0.454-0.229-0.949-0.347-1.486-0.347
		c-0.565,0-1.076,0.119-1.536,0.357c-0.458,0.238-0.85,0.554-1.17,0.945c-0.322,0.394-0.571,0.836-0.748,1.33
		C7.762,580.422,7.675,580.923,7.675,581.432z"/>
	<path d="M23.14,578.299c-0.608-0.681-1.469-1.021-2.58-1.021c-0.918,0-1.587,0.175-2.006,0.523
		c-0.417,0.349-0.628,0.817-0.628,1.407c0,0.302,0.054,0.554,0.159,0.755c0.106,0.202,0.271,0.373,0.496,0.51
		c0.226,0.137,0.513,0.256,0.86,0.355c0.35,0.103,0.761,0.2,1.237,0.299c0.512,0.106,0.97,0.223,1.377,0.352
		c0.404,0.127,0.75,0.289,1.038,0.483c0.287,0.193,0.508,0.433,0.662,0.715c0.153,0.281,0.231,0.632,0.231,1.044
		c0,0.414-0.082,0.775-0.245,1.086c-0.163,0.31-0.392,0.565-0.688,0.773c-0.297,0.208-0.648,0.364-1.059,0.471
		c-0.411,0.104-0.867,0.157-1.37,0.157c-1.463,0-2.704-0.467-3.717-1.401l0.356-0.542c0.396,0.415,0.882,0.743,1.457,0.984
		c0.573,0.242,1.217,0.363,1.931,0.363c0.821,0,1.461-0.147,1.925-0.449c0.462-0.301,0.695-0.754,0.695-1.362
		c0-0.309-0.06-0.57-0.178-0.787s-0.303-0.404-0.551-0.562c-0.247-0.158-0.554-0.295-0.919-0.409
		c-0.364-0.115-0.796-0.225-1.29-0.33c-0.503-0.105-0.945-0.219-1.329-0.338c-0.384-0.117-0.708-0.269-0.972-0.449
		c-0.265-0.181-0.463-0.398-0.596-0.654s-0.199-0.578-0.199-0.967c0-0.423,0.082-0.797,0.246-1.124
		c0.163-0.326,0.391-0.603,0.682-0.826c0.291-0.226,0.64-0.395,1.044-0.511c0.406-0.114,0.854-0.17,1.351-0.17
		c0.607,0,1.15,0.09,1.627,0.27c0.477,0.183,0.909,0.459,1.296,0.828L23.14,578.299z"/>
	<path d="M25.734,586.131v-9.395h3.863c0.396,0,0.763,0.085,1.098,0.251c0.335,0.168,0.624,0.392,0.866,0.669
		s0.432,0.591,0.568,0.938c0.138,0.35,0.205,0.698,0.205,1.053c0,0.381-0.063,0.746-0.191,1.098
		c-0.128,0.354-0.31,0.666-0.542,0.939c-0.232,0.272-0.512,0.492-0.833,0.654c-0.323,0.164-0.683,0.245-1.078,0.245h-3.281v3.546
		L25.734,586.131L25.734,586.131z M26.408,581.963h3.241c0.309,0,0.586-0.064,0.833-0.191s0.456-0.3,0.629-0.516
		c0.171-0.218,0.303-0.463,0.396-0.741c0.092-0.276,0.139-0.565,0.139-0.866c0-0.309-0.056-0.602-0.165-0.879
		c-0.11-0.279-0.26-0.523-0.45-0.734c-0.189-0.213-0.41-0.381-0.661-0.504s-0.519-0.186-0.801-0.186h-3.162L26.408,581.963
		L26.408,581.963z"/>
	<path d="M33.963,586.131v-9.395h3.917c0.397,0,0.764,0.085,1.098,0.251c0.335,0.168,0.622,0.392,0.859,0.669
		c0.238,0.277,0.426,0.591,0.563,0.938c0.137,0.35,0.204,0.698,0.204,1.053c0,0.344-0.054,0.676-0.159,0.998
		c-0.105,0.324-0.254,0.611-0.45,0.867c-0.194,0.256-0.427,0.467-0.7,0.635c-0.273,0.169-0.572,0.277-0.899,0.331l2.341,3.651
		h-0.781l-2.274-3.547h-3.043v3.547L33.963,586.131L33.963,586.131z M34.636,581.963h3.295c0.299,0,0.571-0.064,0.819-0.197
		c0.247-0.132,0.458-0.307,0.636-0.522c0.176-0.216,0.311-0.462,0.402-0.741c0.093-0.277,0.141-0.562,0.141-0.853
		c0-0.3-0.056-0.589-0.166-0.866c-0.11-0.276-0.261-0.522-0.45-0.733c-0.189-0.212-0.409-0.382-0.661-0.511
		c-0.252-0.127-0.523-0.192-0.814-0.192h-3.201V581.963z"/>
	<path d="M48.899,585.521v0.608h-6.258v-9.395h6.139v0.61h-5.464v3.688h4.775v0.582h-4.775v3.903h5.583V585.521z"/>
	<path d="M50.421,576.736l3.281,5.199l3.308-5.199h0.742l-3.706,5.849v3.546h-0.674v-3.572l-3.69-5.821L50.421,576.736
		L50.421,576.736z"/>
	<path d="M59.126,586.131v-9.395h3.122c0.741,0,1.392,0.124,1.951,0.371c0.561,0.248,1.025,0.583,1.396,1.007
		c0.371,0.423,0.647,0.919,0.833,1.487c0.185,0.567,0.277,1.175,0.277,1.819c0,0.715-0.104,1.36-0.311,1.938
		s-0.505,1.07-0.894,1.481c-0.388,0.409-0.857,0.729-1.41,0.953c-0.552,0.224-1.167,0.337-1.845,0.337L59.126,586.131
		L59.126,586.131z M66.031,581.421c0-0.592-0.083-1.137-0.251-1.635c-0.167-0.498-0.412-0.93-0.733-1.291
		c-0.322-0.359-0.718-0.644-1.185-0.848c-0.466-0.202-1.005-0.303-1.614-0.303h-2.447v8.177h2.447c0.617,0,1.162-0.104,1.633-0.312
		c0.473-0.206,0.866-0.495,1.185-0.865c0.316-0.37,0.559-0.805,0.722-1.303S66.031,582.003,66.031,581.421z"/>
	<path d="M67.288,586.131l3.996-9.395h0.555l3.997,9.395h-0.728l-1.311-3.097h-4.484l-1.311,3.097H67.288z M71.562,577.557
		l-2.09,4.922h4.141L71.562,577.557z"/>
	<path d="M80.148,576.802h0.661l1.401,3.413l1.403-3.413h0.661l-1.654,3.956l1.971,4.577l3.6-8.601h0.742l-4.023,9.395h-0.62
		l-2.063-4.829l-2.077,4.829h-0.622l-4.008-9.395h0.728l3.612,8.601l1.945-4.577L80.148,576.802z"/>
	<path d="M91.05,578.008v8.123h-0.675v-9.394h0.518l6.588,8.27v-8.255h0.675v9.379h-0.622L91.05,578.008z"/>
	<path d="M100.297,586.131v-1.125h0.583v1.125H100.297z"/>
	<path d="M102.401,581.368c0-0.563,0.098-1.127,0.298-1.688c0.197-0.561,0.486-1.062,0.866-1.502c0.379-0.44,0.844-0.8,1.395-1.077
		c0.552-0.277,1.181-0.418,1.887-0.418c0.838,0,1.552,0.192,2.144,0.576c0.591,0.383,1.027,0.877,1.309,1.475l-0.556,0.318
		c-0.159-0.327-0.351-0.601-0.576-0.82c-0.224-0.221-0.466-0.399-0.727-0.537c-0.261-0.137-0.533-0.234-0.814-0.298
		c-0.281-0.062-0.562-0.092-0.833-0.092c-0.6,0-1.129,0.121-1.589,0.364c-0.458,0.241-0.847,0.558-1.164,0.944
		c-0.316,0.39-0.557,0.826-0.722,1.316c-0.164,0.489-0.245,0.981-0.245,1.475c0,0.558,0.097,1.086,0.291,1.59
		c0.195,0.502,0.459,0.945,0.795,1.328c0.334,0.383,0.731,0.691,1.19,0.919c0.458,0.229,0.951,0.346,1.48,0.346
		c0.282,0,0.571-0.036,0.866-0.106c0.296-0.069,0.583-0.18,0.86-0.329c0.277-0.15,0.536-0.343,0.774-0.576
		c0.238-0.232,0.437-0.51,0.594-0.827l0.569,0.278c-0.159,0.352-0.372,0.665-0.642,0.939c-0.271,0.271-0.57,0.502-0.906,0.688
		c-0.335,0.186-0.689,0.324-1.065,0.416c-0.375,0.092-0.742,0.139-1.104,0.139c-0.644,0-1.233-0.141-1.768-0.423
		c-0.532-0.281-0.994-0.649-1.382-1.104c-0.387-0.455-0.689-0.972-0.905-1.549C102.509,582.555,102.401,581.969,102.401,581.368z"/>
	<path d="M115.882,586.197c-0.652,0-1.247-0.138-1.785-0.41c-0.538-0.271-1.001-0.631-1.39-1.07
		c-0.388-0.441-0.688-0.949-0.898-1.521c-0.212-0.572-0.317-1.16-0.317-1.76c0-0.627,0.112-1.225,0.337-1.798
		c0.224-0.573,0.534-1.081,0.926-1.521c0.394-0.44,0.857-0.792,1.396-1.052c0.539-0.261,1.121-0.391,1.747-0.391
		c0.65,0,1.247,0.139,1.786,0.416c0.538,0.276,0.999,0.643,1.381,1.091c0.384,0.45,0.682,0.959,0.894,1.529
		c0.211,0.566,0.317,1.144,0.317,1.726c0,0.635-0.113,1.239-0.337,1.812c-0.226,0.572-0.534,1.077-0.928,1.514
		c-0.393,0.438-0.854,0.785-1.389,1.046C117.087,586.066,116.509,586.197,115.882,586.197z M112.164,581.432
		c0,0.539,0.09,1.057,0.271,1.555c0.181,0.498,0.436,0.939,0.767,1.324c0.331,0.383,0.724,0.69,1.178,0.92s0.954,0.344,1.501,0.344
		c0.564,0,1.073-0.117,1.527-0.355c0.456-0.239,0.845-0.555,1.171-0.946s0.578-0.834,0.754-1.328
		c0.175-0.494,0.266-0.997,0.266-1.51c0-0.538-0.094-1.057-0.278-1.555c-0.186-0.498-0.443-0.939-0.774-1.323
		s-0.724-0.691-1.178-0.919c-0.455-0.229-0.95-0.347-1.488-0.347c-0.563,0-1.075,0.119-1.534,0.357s-0.851,0.554-1.172,0.945
		c-0.321,0.394-0.57,0.836-0.748,1.33C112.252,580.422,112.164,580.923,112.164,581.432z"/>
	<path d="M130.659,586.131v-8.123l-3.704,6.338h-0.423l-3.705-6.338v8.123h-0.675v-9.394h0.675l3.916,6.722l3.916-6.722h0.675v9.394
		H130.659L130.659,586.131z"/>
</g>
</svg>
