<?xml version="1.0" encoding="utf-8"?>
<!-- Generator: Adobe Illustrator 16.0.0, SVG Export Plug-In . SVG Version: 6.00 Build 0)  -->
<!DOCTYPE svg PUBLIC "-//W3C//DTD SVG 1.1//EN" "http://www.w3.org/Graphics/SVG/1.1/DTD/svg11.dtd">
<svg version="1.1" id="Layer_1" xmlns="http://www.w3.org/2000/svg" xmlns:xlink="http://www.w3.org/1999/xlink" x="0px" y="0px"
	 width="595.275px" height="595.279px" viewBox="0 0 595.275 595.279" enable-background="new 0 0 595.275 595.279"
	 xml:space="preserve">
<metadata><?xpacket begin="﻿" id="W5M0MpCehiHzreSzNTczkc9d"?>
<x:xmpmeta xmlns:x="adobe:ns:meta/" x:xmptk="Adobe XMP Core 5.3-c011 66.145661, 2012/02/06-14:56:27        ">
   <rdf:RDF xmlns:rdf="http://www.w3.org/1999/02/22-rdf-syntax-ns#">
      <rdf:Description rdf:about=""
            xmlns:dc="http://purl.org/dc/elements/1.1/">
         <dc:format>image/svg+xml</dc:format>
         <dc:title>
            <rdf:Alt>
               <rdf:li xml:lang="x-default">NFCE_Washington-Only.svg</rdf:li>
               <rdf:li xml:lang="en_us">NFCE_Washington-Only.svg</rdf:li>
            </rdf:Alt>
         </dc:title>
         <dc:creator>
            <rdf:Seq>
               <rdf:li>Max O'Brien/Osprey Dawn</rdf:li>
            </rdf:Seq>
         </dc:creator>
      </rdf:Description>
      <rdf:Description rdf:about=""
            xmlns:xmp="http://ns.adobe.com/xap/1.0/"
            xmlns:xmpGImg="http://ns.adobe.com/xap/1.0/g/img/">
         <xmp:CreatorTool>Adobe Illustrator CS6 (Macintosh)</xmp:CreatorTool>
         <xmp:ModifyDate>2013-10-06T18:25:26+13:00</xmp:ModifyDate>
         <xmp:MetadataDate>2013-10-06T18:25:26+13:00</xmp:MetadataDate>
         <xmp:CreateDate>2013-10-06T18:25:25+13:00</xmp:CreateDate>
         <xmp:Thumbnails>
            <rdf:Alt>
               <rdf:li rdf:parseType="Resource">
                  <xmpGImg:width>256</xmpGImg:width>
                  <xmpGImg:height>196</xmpGImg:height>
                  <xmpGImg:format>JPEG</xmpGImg:format>
                  <xmpGImg:image>/9j/4AAQSkZJRgABAgEASABIAAD/7QAsUGhvdG9zaG9wIDMuMAA4QklNA+0AAAAAABAASAAAAAEA&#xA;AQBIAAAAAQAB/+4ADkFkb2JlAGTAAAAAAf/bAIQABgQEBAUEBgUFBgkGBQYJCwgGBggLDAoKCwoK&#xA;DBAMDAwMDAwQDA4PEA8ODBMTFBQTExwbGxscHx8fHx8fHx8fHwEHBwcNDA0YEBAYGhURFRofHx8f&#xA;Hx8fHx8fHx8fHx8fHx8fHx8fHx8fHx8fHx8fHx8fHx8fHx8fHx8fHx8fHx8f/8AAEQgAxAEAAwER&#xA;AAIRAQMRAf/EAaIAAAAHAQEBAQEAAAAAAAAAAAQFAwIGAQAHCAkKCwEAAgIDAQEBAQEAAAAAAAAA&#xA;AQACAwQFBgcICQoLEAACAQMDAgQCBgcDBAIGAnMBAgMRBAAFIRIxQVEGE2EicYEUMpGhBxWxQiPB&#xA;UtHhMxZi8CRygvElQzRTkqKyY3PCNUQnk6OzNhdUZHTD0uIIJoMJChgZhJRFRqS0VtNVKBry4/PE&#xA;1OT0ZXWFlaW1xdXl9WZ2hpamtsbW5vY3R1dnd4eXp7fH1+f3OEhYaHiImKi4yNjo+Ck5SVlpeYmZ&#xA;qbnJ2en5KjpKWmp6ipqqusra6voRAAICAQIDBQUEBQYECAMDbQEAAhEDBCESMUEFURNhIgZxgZEy&#xA;obHwFMHR4SNCFVJicvEzJDRDghaSUyWiY7LCB3PSNeJEgxdUkwgJChgZJjZFGidkdFU38qOzwygp&#xA;0+PzhJSktMTU5PRldYWVpbXF1eX1RlZmdoaWprbG1ub2R1dnd4eXp7fH1+f3OEhYaHiImKi4yNjo&#xA;+DlJWWl5iZmpucnZ6fkqOkpaanqKmqq6ytrq+v/aAAwDAQACEQMRAD8A9U4q7FXYq7FXYq7FXYq7&#xA;FXYq7FXYq7FXYq7FXYq07pGhd2CIoqzMaAD3JyMpCIsmgkAk0GO6n550q1qlsDdyj+T4Y/8Agz1+&#xA;gZz2t9psGLaH7yXly+f6nZ4Oyck95ekfa8n86/8AORGhaRJJBd6wiXCbGw08erKCDTizLXg3szrm&#xA;qjn7T1m8P3cD/m/b9R+DmnFpMH1eqXz/AGPLNV/5yj095j9V0i7vU7PdXCxMT8gJ/wBeTHsvmyb5&#xA;cu/xl95DH+V8cfoh9wQCf85QLX4vLZWnQi9qa/8AIgYf9CH+2/7H/jyP5b/ofb+xk+g/85S6DzRb&#xA;kahpjE0LgiaEDxbi3I/8izgPYevw74st+VkfZy+1l/KGmyfXH7PwXsPlH86NO1mEPZ3ltq8QFX9J&#xA;gk6jpV06r/slGCPbus0p4dTCx38vtHpKns7BlF4pV9v7XoOk+ZNK1M8IJOE/++JPhf6Ox+g50Wh7&#xA;Y0+p2gal/NOx/b8HV6jQ5MW8ht3hNM2jhuxV2KuxV2KuxV2KuxV2KuxV2KuxV2KuxV2KuxV2KuxV&#xA;2KuxV2KuxVp3VFLOQqqKliaADBKQAs8kgXsGMaz57sLUNHYgXMorWQ7RLT3/AGvo+/OZ1/tNix+n&#xA;EOOXf/D+34fN22m7JnLefpH2/seP+ZPzdl1Fpxpiya21vX1po3W30y34/a9W7kpCOPfjybNBnhqd&#xA;SQdRPgB5R6/5sBv8TXvdljlixCsUeI9/T4yP6HgX5h/mR5n1KD0zqjNaTFkVdOV7axPHZgkj/v7m&#xA;laMTxQHsc6PsvsrDjN8HqH871S+X0x+0uq1esySHPby2H6z9zzKORo5FdQCymoDKGG3irAg/TnRu&#xA;rZh5X/Nrzl5ZuUm0p7FFVgWhfT7Io/saQhxX/JYH3xV9R+Q/zk1j81fJl7pPlW/j8o/mFpsX1hLZ&#xA;IoJrS5UHcxrOkpVGY0buhINWGKvA7n84/wAydSvLnTtd0zRtUns2MN1aajpdnyR42KsDxSN1YMCN&#xA;iKYtuPFKfJIryfT7mX62vl1tA1JTyjvdCupPSRv5vqtw8z1/4xzoB4ZGUYyFEWG38tlibA+TJ/JP&#xA;5+a9ot0lj5nWW/sFNI70r6d5GAdmYVpJ71PL/KPTOZ7Q9m8c/Xg9E+7p+z7vJz9P2nOHpyix9v7X&#xA;1l5E/Mmw1eytpGu0u7K5FbXUVOx7cZK967Gu4PXMfsztvJin4Gq2kNuI/wC+/wCK/tZ6vs+Mo+Jh&#xA;5d36v1M/zsHRuxV2KuxV2KuxV2KuxV2KuxV2KuxV2KuxV2KuxV2KuxV2KuxVJda816bpgaOvr3Q/&#xA;3Qh6H/Lb9n9eaXtHtzDptvqydw/Sen3ufpez8mXflHv/AFPHvN/5tSXWotpFkkmsauNxo9iQI4d9&#xA;muZT8EQ93PLwGcpqMup1kfEzS8PB9nwjzkfxYdzihiwHhxjjyfjmejBNbupZbtbLzDI3mDW5QGg8&#xA;naSSlpGDSjXkhNWUVFWmITwTBp4AR4sQ8LGOeWf1H+qP0R3/AKS5ZWan65fzI8vj+3bySzzVamxt&#xA;LWXzcU1K/lNNB8j6bWOxVlFQZVFGlWPqzt8I3AFMydHPjkRg9ER9eaW8vh3X0HNrzx4QPE9R/hgO&#xA;X7XjXm6HVrmmt6rcJI15I0FgkS8YTHBs/wBXA2EERIRCNmNadDnWaGUI/u4D6dzfOz/O/pHme50u&#xA;oEj65Hny+Hd5MZzYuK7FWX/lF5ku/Lf5l+XNVtmK+nfQxTqDTlBOwimT6Y3OKs6/PTTYNL/5yB8w&#xA;RWyhIrwRXLKNvjnto5ZCf9aXk304C5eiP7xj2B3DmgtrmMw3MayRnoGFaH28MXLwGExwTFxKI8pe&#xA;aNS/L3Vhcwl7ny3dOBqFlWpSuwkSv7Q/HoexzVdrdlQ1ePuyD6T+g+X3ONlwy0UuKO+I8x3Psz8u&#xA;fONrqtjbwpcC4t54xLp9yDUPGRXjvvsOn3ZqewO0piR0ub648r8v4f1eTidpaUEeLD6Tz/WzjOtd&#xA;K7FXYq7FXYq7FXYq7FXYq7FXYq7FXYq7FXYq7FXYqo3l7a2cDT3UgiiXqzfqA7nKNRqceGBnM8MW&#xA;zFilM8MRZeZ+evzYsdNs2kluRp9kx9ONjU3EznokSLVix/lUE5xur7a1GrkcemBjHqetd5PKI/Fu&#xA;9w6DHgHHlNnu/HN5PrJ85+YrGa5vL0eS/LQUvM8hB1GSPuZXJCWwPgCW8fDNbg/L4JgRj+Yzf7C/&#xA;LrL7nKyeJkFk+FD/AGX7FHyxoGoNpi6X5ZabRvLrGs2s3CIuo3fblBGEQRhh/u6VeZ7Dvk9XqYcf&#xA;HmrJl/mj6I+83v8A1Rt5ow4jw8OP0w7/AOI+79Z3VNe8x+Wfy9tE0bQbIXvmPUWH1fT4yZLieVzQ&#xA;TXUnxOak/tGp6DbcR02lza6XiZZcOKPOXQDuiOScuaGnHDAXM9Op8yxbR/Keoa9r93ZX12bu/an+&#xA;MdaU/DGp+IaTZsPsj/frL229jss+thhxCURwx/yUO/8A2yX+9v8Aa4uPAckyCbP8Z/3g/S8p/Mrz&#xA;Db635suXsgqaVYgWOlxR0Ea28HwrwA2ozVb6c6bsnSnDgHF9cvVL3n8U6nW5hPIa+kbD3Bi2bJxH&#xA;YqzT8mvLVz5k/NDy3pkEZkT69DcXVBstvbMJpifD4EI+eKsu/OnV4tZ/P7zHc2784LR1tARQ0a1g&#xA;jt5BUf8AFqtgLl6IfvGJ6tc6tbqZbWKOSFd2ryZ/nQU2wOfnnkjvEClLSfMMF4RFMBDcdhX4W+Vf&#xA;1Y0jT6oT2O0k5uxE9oYrgfu5qROfDn8K/iRi9FL1YgMn8Wx+OwZz/wA41+bb2GS+8tyyEyaa31yw&#xA;P8iiQLMvy5spA9znHe02nOKcNTDaV0feNx+n7HSdmSsTwy6f2F9mWlwtzaw3C/ZmRZB8mFc67BlG&#xA;THGY5SAPzdFkhwyMe4quWsHYq7FXYq7FXYq7FXYq7FXYq7FXYq7FXYq7FUm1/wAz2WkoU/vrwj4Y&#xA;FPT3c9hmm7U7axaUV9WT+b+vuc/R6CeY3yj3/qeJ+aPzF1fWNWl0zQo11XV4jxnkYlLCxr/v51rV&#xA;v+K0q570zjs5yaj99qpcMP4R1P8AVj0H9I/a7zGI4/3eEXLqeg95/Qxu08pyaLrqa7q2pXXmPzRP&#xA;GVtrRYoFjVTsfSV1b6vGp6uJFHjUmhcmr8XF4cIDFgv6vV9p/iPlRWOHgnxSkZ5O7b8AJ1PpUQU6&#xA;35tuI5vqn76KzFTZWxB+EqhAM0u9A7itfsKtcwo5j/d4ARxbX/FL9Q8h8SW84/48h5dOg/WfwHnn&#xA;5ifn9b2kb6b5V4zXpXjNqLUeKJj1EXVZGH832fDlm+7L9mjI8efaP83qff3ff7nXaztYD04+felf&#xA;kvy1rFgkF47NcfmB5oVpbaa4JdtPsH2lvZa/7sYGi13rRR+0MyNfq8c7jy0uHnX8cukB5d/z7mrT&#xA;YZRo/wCWn/sR/ORH5q+bNN8m+XE8g+WnIupY/wDcpdcqyBZN35sOss/VvBfmKQ7G0U9Xl/NZvpH0&#xA;jpt+iPTzZa7PHDDwYc+v47y8JztHQuxV2KvqD8vtHg/I/wDKnUPzA12NU86eYIfqugafKP3kSSDk&#xA;gZTvuQJZQeiqq7McVeF+W4riX6zqVy7ST3TktI5qzEks7EnryY4C7TQY6Bl3phqgv/qb/USBOPHq&#xA;V78a98DlZ+Ph9PNhktjqALPLbyitSzMjfTvTJOllinzIKta3OsTr6ULzTxxUkMQLMAENRt88XIxZ&#xA;s8/TEykBvXuZ/wDkXeyS/mksqL6a3UNz6qddivOlf9ZRmg9pYg6M+RH3uZoMvHqjKq4rfeXlgsdA&#xA;sSevp038ASBmX2KSdJjv+a4WvH76XvTTNo4jsVdirsVdirsVdirsVdirsVdirsVdiriQBU7AYqwr&#xA;zd+YFnp9tOLadIooVJub+QgRxqOvEnb6c5LtT2gJl4Om9UztxDf/AEvf73daPs0Vx5do9362BaF5&#xA;W8z/AJgP9ankuND8ny/Ebo1j1LUVO/7rl8VtA3+/GHqMPshQeWT7L9nhE+JqPVkPTnXv7z9nvY6v&#xA;tO/Ri2j3/q7nqWm+RvL2iaVHpvl2wttMiiAWJhEJeAJ+JhzNS5/mYnfc8uh340GDi4zEGXedz9rr&#xA;fzGSqs18ni/5j/mb5P8AL2uXFjHdKwsW/wByMtfWvLm5I2jX+dzt/kRpQDjyWnLdqYMuty1AeiO0&#xA;e7+lInu6DvrbkXcaPJDTwuR9R3Pf5D9fc8o/MiTzVrWjNrHm5x5f8rxsGsNBiYNe3UpB9MSGhVWP&#xA;U1+wP2ajHsoYMWTw8H73N1n/AAxHWvxv3rrDknHiyejH0j1P4+zuYT+VXk+PV9SuNfvrR5tE0d0Z&#xA;rWNS5ubuVuNraRg15M8hAp32H7Wb7tPNk4Rixb5J7X/NHWR7vL7HXaSEL45/RH7T3PQPzB8yXXk3&#xA;Rmknkjm87eY5Y7i/H20gtIjVbdQP91LT0/8AL+M5zvZmkjq8lAEafEKHnI/xe/r5bB2mrzHDHf8A&#xA;vZ8/Id3u6ee7wa7u7m8upbu6kaa5ndpJpXNWZ2NSSfc520ICERGIoB5+UjI2eajkkOxV9C/kZ+Um&#xA;iaNo/wDytf8AMkiy8vafSfSLC4Xe5f8A3XMyHdlLf3SUq53+z9pV59+Z35ka1+a3nb69dE2umwho&#xA;9MsOVVt7cGpPg0slKu3c7fZUUW3Di45UhL428Fmtms62rSL6cLHoKUr4ZF2+XhjHhvhvkk63euaS&#xA;4+sqbm1/mqWFPZ+o+nC4scmTCfUOKP46snuLL6zbemHeD1B8fGnIAjdanpgejn2fGceZjajZ2Ftp&#xA;49O3WgrUsd2b5nFwYYRp51Honv5RpZaP+acKyLWPVLWeOzYmgSU0kIPj8MZA/wBYZofaXHKWkJH8&#xA;MgT7uX6bYwwRw6oEfTkBp9veU7iOfQLQpt6amNh/lISPx65k9hZRPSQroK+X4t0/aMDHNK+u6b5t&#xA;3CdirsVdirsVdirsVdirsVdirsVdiqyeeGCJppnEcSCruxoAMhkyxhEykaiGUIGRobl5h57/ADIh&#xA;jhEMZkW3mcQ21tCpe6u5W+zFFGvxMW7KPp2ziNZ2ln7QyeBpxUOp7/M9w8uv2O/waTHpo+Jl+r8c&#xA;vNb5R/Ku81K5t9e89Ro7xMJdN8sgiS2tWG6y3RHw3FwP+AT9mp+LOj7L7Hx6SNj1ZDzl+gdwdXrN&#xA;dPMe6Pcy6bz7oMUd7qM15b23lzTeUd3rc8irA86kq0EBr8ZjIo7D9r4Fq3Ljt3CeVeavzr8zeZrW&#xA;6i8ixDRPLkaObvznqaFSYlFWeytm4sdv92SbewOabtDtjDhPhj15Dtwx/X0+9ztNoZz9R9MR1Lyb&#xA;8tPIGjSajcee9SEg0uAvNpcl+1ZZuFWfULjlsOR+JB26705Hn+1u08ggNND6ztLh5D+hH9P4Ds9F&#xA;pI2csvp6X/ui8/8APXmnWfzK87Wun6TFJLbvMLPRLIbFjIwX1GHZpDufAfLOi7H7MGlxUf7yX1H9&#xA;HwdXrtWc07/hHJ9P2Wn+VPym8hwanqTLLpHlYOunQrQNqeuyqUuLqhqTxPKGGv2FDtuOBG3cJ8Z+&#xA;Y/MOpeYdZudX1GTnc3LciB9lFGyoo7Ko2GY+l0sMGMY4cg25s0skjKXMpZmQ1OxV77+Vv5N+XfL2&#xA;hJ+ZP5tN9R0GHjLpGiSAGW9c/FGZIvtMrfsx/tfaaifaVYp+Z/5o+ZfzY15GkQ6d5bsTTT9MVqxx&#xA;ClObkBQ8rDvT4RsO9VvwYDkPkwHUtKutKmSaN+UfKsco2IYb0IwM82CWI2GQzWFrq9lBNMCkjIGV&#xA;lO45CpHhgdhLFHNEEqel6Pe2dyo+t+pad4iOvhsagfRjadLp5QmPVcV91q+pXrzJpQCwwVDXBAJd&#xA;gPsoDthczU9pZJkjDsB17/cq6bLPHyTU76JrhgCsRKqy+3av3YGrTkzJ8WY4q8kWb5LK+0XWI2Df&#xA;o2/glfieqCQc1qPHKNXi8TFOH86JH2N+qrwceQfwSD7k/LuctYXUFf7uUOP9mtP+NM5z2Sy3inDu&#xA;lfzH7HA7ahU4nvH3f2sszrHSuxV2KuxV2KuxV2KuxV2KuxV2Koe/v7WwtmubpwkS/eT4AdzmPqtV&#xA;jwQM5mohtw4ZZJcMRZeS+cvPOoajqFvpWnWz32pXZP6M0WFgGcLsZp33WONK/HI2w6Cp2PEznqO1&#xA;svDH0YY/Ie/vl5f2u/jHFooWd8h/HwDIPK3knRvJ0EvmvzbqFvNrojP1nVrhhFaWUTAcoLQSkCKP&#xA;+Zz8cn7XZR2ei0OPTQ4MY/Wfe6LPqJ5ZcUi84/Mb87NX86xt5Z/K23mubSST09X8ySiS1tPSH2oI&#xA;Zfhl+Po7pRuP2OvIV63tPBpheSW/d1+TLT6TJlPpHx6IDTvy7a5+qX3my6OuzWKrFYWZjEWl2SqP&#xA;hjtbRaRjiBSrCppXrnFdo+0OfOCMfox/b8/0B32l7Mx4z6vVL8dEq85RXvnTVz5O0uf6tpFgY5vM&#xA;d6o5VNQ0VnGD8JYgcmrsNq+Bp0Eo6TH+YmLnKxAffI/cPwWzUA55eFE1EfUf0Me/MrWLjXL5Py/0&#xA;W49HTdPiE/mbUyAEht4AGKNwCr8IFSqjdqLtQ5ndk4Bhj+ayC5yNY495P4+VnucbW5DkPgxPpH1H&#xA;uDIv+cXPJGkJPqv5p6siWOh6YstroH1ggCKGJSLi6diAOQT4OQ6sZM7fBAxiOI3Lr7/xy8nQZJAn&#xA;bk8j/Pb837n8xPM4+qcrfyxpfKHRbKnEcOhndezyUG37K0HiTaweZ4qrWdnd3t3DZ2cElzd3DiOC&#xA;3iUvI7saKqqtSST2GKvfdA8j+Sfya0+280/mSqar5zkQT6H5OiZW9Fhukt03xKCG7mqrvQO32VXm&#xA;3mvz75m/M3zV+kPMl0WjjVja2UNUgt46j93EhrSu3Jj8R7nEt+mxCcqKLhhihjWKJQka7BRkXdxi&#xA;Iigl3mKGSbTvTjFWaRAPmTQfrxDj6uJMKHeEfbQCC3ihG4jULXxoKYt8I8IA7kLrN08FkVi/v5yI&#xA;oR35PtiGvPkMY7czsERZWsdpaxwJ0QUJ8T3P0nFnjgIRACW6tpGmSJK9BHeS1MZL0LP2FGNN8LjZ&#xA;9PAgn+Isp/Kj8mJPM1NT1K5MVhbXRhawiBM0skXEleXRVPLqKn5dc53tnto6eXhQjeSQ5+/7ynSd&#xA;mmW8zQieXufbXkrRbjTrKWW5Uxz3RU+meqqoPGvv8Rw+znZ09PiMpipTrbuA5fe19qaqOWYEdxFk&#xA;WdE6t2KuxV2KuxV2KuxV2KuxV2KoTVNVs9MtTcXLUXoiD7TN4KMw9brsemx8cz+s+5v0+nlllwxe&#xA;D/mZ+bdrbX0dnNe2kGpTAtbw3UhS3tYe88/ANIR4Kil3Oyjw43Dhz9q5eOfpwx/FDvPef2B3s8mP&#xA;Rw4Y7zP438kp8t+ftSsrWaL8ttBl1TU78qdU89+YVNrDOyigMFuv74wL/utFoF7qTUnpMvaOj0MO&#xA;AEbfwx3P495dVDS59RLiPXqfx9ytaflXrfm3Uk1Dzpqd35t1BG5pav8AudNgJ6cLdaRjwqdj3GaD&#xA;J21rNYeDTx4R39fjLkPxu7KOgwYBxZTZ/HTq9g0L8ubGzgjW84CKIAJZwD04kUdqim3ypmXo/ZgX&#xA;x6iXFLu/WeZ+xpz9rH6cQofjo8//ADY87pp9px0mJXuZHFhoFkgoJbmU0D0H7I+2x/lGajPKGs1H&#xA;DH06fEDy5cI5n3y6fBzcYlgxWd8s/v6fJgesXjeQPKFtpGmV1DzZrMjJbtTlJcX05rNcvX9lS1d/&#xA;8kHbfK8EPz2c5J+nBjG/9GI5RH472WSX5fGIx3yS+09SxXUfJt3awaL+V+jSm580ebrhLnzDqG7s&#xA;IlYs7MftempVm9wjV+1m/wCyidZqDnIrFj9MB+PL7x3Ot1gGDEMY+uW8it/P/wDNbTF021/KvyPJ&#xA;w8p6EiW19dRtUXcsO3DkPtIjjkzftvv0AJ6p07wbFWR+Rfy/80+eNZGleX7QzyKA1zcueFvbx95J&#xA;5aURfxPYE4q9UXzb5I/KeF9I/LwReZ/P0yGK+83yIHtbUkUaOwQ8lam9X6eJYfCqyjEyNB5rraX8&#xA;0N9rOs3cmoa1dms91MxduTkKd26mh/pgtz5acY8ZJ+pLvKQ/3ISmv+6Tt/slxLDQfWfcyzA7VplV&#xA;hRhUVB+kGoxUhvFUtWB7zUVunFLa2qLcH9tz1f5eGLjiJnPiP0jl+trUrO6m5ySXxtrdeioKUHiz&#xA;VBxRmxyO5lQSj9EaNKfSXUgbpz8Lt9g+3+ZwuNDS4pnh4/UevR9B/wDOMCT2+hzLLICItaKjrVWR&#xA;IQxJ+gZxPb0gNfiPdw/7suy0WMjBkiehkPsfWedu847FXYq7FXYq7FXYq7FXYq7FUHqurWemWrXF&#xA;y1O0cY+07eCjMPXa7HpsfHM+4dT7m/T6eWWXDF5br2q6jrEskpl9KQgrbinNYwfBSRU55nre0J6n&#xA;Lx5OXSPcO56zT6aOKHDH5pH5X/IjTkvm1R9PN5qU7+pNq+qn1ZWY/tKrDivtwQZuseDtHVREQPCx&#xA;d30j/ij9rgTyaXCbPrn8z+oPVNM8h6Zb0e8ZruQfs/Yj+4bn783Gj9l8GPfIfEPyH4+Lg5+18kto&#xA;+kfayOGGGGMRwosca7KiAKB8gM6PHjjAcMQAB0Dq5SMjZNlj3nfWvqWn/VImpcXQIJB3WMfaP09P&#xA;vznvaTtHwcXhxPryf7nr8+Xzdn2VpeOfEfpj97xTyLpNt5t1rVfzI1m6Fp5M8uJPaaNM3RxEpN7e&#xA;LXahpwVvCopXMfR9gy/LjHI8PH6p9/8ARj8OZ823P2iPFMhvw7R7vMqOhaP+k0uvze1yH6hZXIeH&#xA;yxYydbXSIkZjcPWp9SehYnw6fCwAj29pRh00MWEUJTArvPS+9PZuYzyynM2RH5PCb3807mCfzBr2&#xA;nSGPzF5l52cNyD8dhpakKUjI6TThQpYUKqpI3fbotBpBp8McY6Df39XV6nMcuQyPV5tmY0PQfK/5&#xA;ZWiaZD5n8+X58veVpBztIwA2paiB+zY2x34nvM9EFR1xVHa9+ZOpa9ph8p+T7NPKvkiMkPp8Dkz3&#xA;X/Fl7P8A3k7t/L9ntvQHFuw4DkOyW6fplrYx8YV+M/bkP2myLuMWGMBso6/C8ukzqgqygNT2Ugn8&#xA;MQw1UScZpiWnXz2V2k6ioGzr4qeoyTqcOUwlbMrTVbC6QGKZQx6oxCsPoORdzjzwlyKMxbXYq7FW&#xA;iARQ7g9RiqUar5ZtJLKSe1QRTxgsFH2WA3Ip+rDbDJ2XGeIzjtIPo/8A5xs8qWEfljSWtXbnqLG+&#xA;vZHruyHiVUdqBOI+/OH1cZ6vtMYzsIH7B6vmWWIxw6TiHOX3nZ9K53LzrsVdirsVdirsVdirsVdi&#xA;qyZ5EiZo4zK4HwxggVPzOwyGSRESQOI9zKIBO5pjUvlK71O7N3rF1U9Et4Psqv8AKGb+mc1PsHJq&#xA;cniamf8Amx5Ad1n9TtY9oxxR4cUfiU60/QtJsKG1tkVx/uwjk/8AwRqc3Ol7M0+D6IAHv5n5uBm1&#xA;eTJ9RR2Z7juxVp3SNGdyFRAWZj0AG5ORlIRBJ5BIBJoPnj83/MWqaxd2vl7RnKa35suV03TzuTBb&#xA;Haecgb8Y4jViOla9s4bQQPaGuOWX93D8RH6T8XodTL8tpxAfVL8H9Sda95cstY1DQ/yT8vc4/Kug&#xA;wQXnnK4Q0Jt0PK3smZafvbuQerJShp8Q7jO7edSL/nMDzppui+SdP8nWDrFqGoujNbxfD6NhCCp2&#xA;X7IdwqKO4DZRm08ckok/wGx8iP0tkMpiCB/EKfG2XtaeeSOZ826VGl1a2DzXMcS39/ClxbweowX1&#xA;pIpVeNuFa/EtPl1xV96a7qHkPyX5Uht/zJ16DWvUUgz6tb20k1wOpSK1giq0YNaDi1K7tir508z+&#xA;Zf8AnF7XfrEGieStbE0Ssx1LSEEBjHQOI2mkTj/rxDFXkNrrtpDqT2sNxPc6YzAW1xdIsU4BH+7F&#xA;R5V67faPjt0wEOfptWQalyZDgdolVz5b0ydy4VomO59M0H3EEY24s9HCW/JDN5RtP2Z5B8wp/gMN&#xA;tf5CPeVh8oqP7u7ZT7rX9RGNsfyHdJB3fl7ULZDItyjKPFih/Hb8cbacmknHe0qW8vFPwzyL8nYf&#xA;xwuKMkh1KIi1vVYj8Ny5/wBf4/8AiVcabI6nIOqfaJqWu69Mmh2Fr6+oXp9KF0qAob7TMN6BVqS3&#xA;bKNRnhhgZzNRDstP2jklA4gPVLq+3Pyc8rJo+nW1vFvbaZapaJJSnOSg5tTfrQk/POS9n4Sz6nJq&#xA;Zct/menwH6G3tOQx4o4h+KemZ2joXYq7FXYq7FXYq7FXYq7FXYq7FXYq7FXYqxvz1qn1XTBaRtSW&#xA;7JU+IjH2vv6ZzftNrfCweGPqyfd1/V83a9k6fjycR5R+94f5B1GE6p5o/Nu8tzd2ulD9AeS7Ralr&#xA;q4Z+DmEUqWnmdY1Ydi1fs5m9iaH8vpwD9UvUfj0+Dj9oajxcpI5DYM7Op6V+TP5a3nmHzPMt55m1&#xA;SVr3UyjAPe6pcCogiJ3EUQ+FdqKilqds27hPlWPyb+Y/5tX2o+c7yeBZbyU8JLpnjRwu3pwKqyER&#xA;xABRX7ya5ptf25g0sxCVmXl09+4c7Tdn5M0eIUB5pPq/5K/mPpis50o3kS/t2jpMT8owfU/4XHB2&#xA;/pMn8fCf6W328vtTk7NzR/hv3MLurW6tJ2t7qF4J0NHilUo6n3VgCM28JxkLibDgyiQaKrqGq6nq&#xA;Usc2oXc15LFFHbxSTu0jLFEvGONSxNFRRQDtkkPTv+ccdO/NWbzwt75BVV+qhRq8t2WWw9BztHc8&#xA;aluXE8QgL7VHQnFX0t+df/OPXlDzxEmtNeQeWdejFLjUVRTbzileM6loeTA/Zkryp1DbAKvmXzNo&#xA;lx5W1aPSr67sr0SVFnqOn3KXVtNwoCOSnkkgqOSOAfmCDgIdvg1cZbHYpLYXLepLZTH9/bnYn9uM&#xA;/Zb7uuBuxT3MTzH3I7FuUhL/AKS8R7Irj6SwP6hii96SS00PVfN3m5dF09kE7l0iMzFY0WJSzsxU&#xA;Mf2T2zH1erhp8RyT+kdzrJwlnzcAZxbf840ea2YfWtUsIl7mL1pD9zJHnPz9rMHSM/sH6S5Uexcn&#xA;WQZVon/OLemvL/pep3moDslpAsP31NxmJ/om1GXbDi3+Mvupu/knFD65/cHtPkL8kNM0GPhY2CaZ&#xA;E4AnnY+pcyAU2LMWbt0JAHYZGPZWt1sgdRLhh3fqiPvO/vSdZp8ArELl+Or1qysraytktrZOEUYo&#xA;B+sn3OdhptNDDAQgKiHR5csskjKXMq+XtbsVdirsVdirsVdirsVdirsVdirsVdirsVeD/nd5nvnt&#xA;ri20msmq6pNHouhxqRVri5b0wwPtVnrnCH/D+0u/HD7o/rl9j0Q/wbS/0pfef1BPbHSPK/kzRrGX&#xA;U7hIPJv5dW3GGRgAt1q7IRPc8P23T1GSML/u2Rx1QZ3bzrwydPMP55ecj5o15JLHyXYO0Wk6fWhe&#xA;MNuikd3IrLIO/wAK9Ph57tvtsaYcEN8p/wBj5nz7h+Ds9BoDlPFL6PvfQ/k3yRbzWkZki+q6ZCgj&#xA;tYIgEBCig4gdFXNB2P2JLVXlzE8B+cj3/jm7LXdoDD6MdX9ya3v5dxkE2N0QeyTCo/4Jf+acztT7&#xA;JDnin8JfrH6nHxdtH+OPyYH5x/Lqyvbc2/mLSYruA/Ck7KG41/klX4kPyIOaGeDWaCV+qPmPpP6P&#xA;m7GOTBqRWx+98/8An/8A5x8vbCOTUPKrvfWy1aTTZKG4Udf3TCnqD/Jpy/1s6Ps32njM8Gf0n+d0&#xA;+Pd93udXq+yTHfHuO7qxX8r/AM3/ADf+WV5qTaMsTrfx+jdWd2jFBLHyEUtAVYPGWO1dxUHtTrAQ&#xA;RYdKQxzzT5x80ea9SfUvMWpT6ldsTRpmqqAmvGOMUSNf8lABhV63+XPkr8nvzO8vroNpy8pfmLbx&#xA;/uHM0s1pfsgryVJndgSB8aIQV+0vIVAVYb5z8qeaPLOsDTdcs2sNftAWhPWG7hHVoJOkin7x0O+B&#xA;2Iy+JRH95H7VlhfQ3tuJo9j0dD1Vh1BwOdiyiYsLL9xbSW9420QJhnPgr0Ksfkw/HFsyioifQGj8&#xA;ar7fvTL8gmSX8yvUahY21y6E+Jp0+gnNB7TX+UP9YOD2Ubz35F91+WdPsDotnMbaL1WjBaTgvImp&#xA;3JpXLuxtJi/LQlwR4iOdC2rX5p+LIcRq+9OwABQCgHQDN0BTr3YVdirsVdirsVdirsVdirsVdirs&#xA;VdirsVdirsVS7zDqP6P0e4uAaSceEX+u+w+7rmu7W1f5fTyn1qh7z+LcrRYfEyiPTq8P8unTLz8y&#xA;rvzHrVwlr5b/AC9szLNczHjGNRvl6n+b0rcbAb8mFN81HstpODCcp5zP2D9tub2xm4sggP4fvLCt&#xA;ZvNW/OnzBHcSxS6Z+WGlTM+mWNDHJfS1POd6GpLktyauwJA+Is2Xdtdtx0w4Me+U/wCx9/n3D8Gv&#xA;QdnnKeKX0fe9y8meSIDbwPNALbTIFVbW0QcAyqPhAA6JT780nY/YktRLxs98J335y8z5fe7DXdoD&#xA;EPDx8/uehqqqoVQFVRRVGwAHYZ3gAAocnnSbbwoadFdSrgMrChUioIwSiCKPJINbhimu+RoJ+U+m&#xA;Uhl6tbnZD/q/y/q+Wcp2n7Mxn68Hpl/N6fDu+73O50naxjtk3Hf1eIfmR+S+h+YpZGu4G0vXANr2&#xA;NQC3h6qbCQe9a++aLSdp6nQT8OYPD/NP6D+A7DNpMWpHFE794/S+cPOf5aea/KUpOo23q2NaR6hB&#xA;V4G8KmlUPswGdtoO1sGqHoNS/mnn+34Og1OiyYfqG3exiGaaCaOeCRopomDxSoSrKymqsrDcEHoc&#xA;2biPojyP+fflfzlosfkn85bdbu1NFsPMtCJoZOivKyDkjj/fq/7MEVOKpB+Zn5E+bPIbt5l0Gf8A&#xA;xJ5OnAkGoQUd0iYVU3Cx1BFOkyfCep41pi3Ys8oStidlc2Oq2kkYPKOVeMiHZlPv/DIvR6HJDMDA&#xA;8pBDeQ9Qi8mfmHp17qRK6erPHJOAaelNG0fPap+AsCw9s13a+llqNNKEfq6fA26uGI6TUDj+nv8A&#xA;L8c33V5E81WFxY29iZUII5WdwrBo5Uc8hRht328c0ns92rERGmyemcdhfXfl5H8c27tPRkk5Y7xP&#xA;Nmedc6R2KuxV2KuxV2KuxV2KuxV2KuxV2KuxV2KuxV2KsB/NHXILK2CzPxtrOGS8uj4Kik1+hVbO&#xA;L9qMxyZMenjzO/xOw/S77sjGIxlkP46l81+S9C8y+fdMjbXg9h5Qe9m1WSxQlH1O8nevqynY+lHG&#xA;FiT/ACR8PUnMjtPteOjxjBh3nEVf83/j34LVpNEc8jkyfSTfv/Y+mfKPkaGGGGa8gWG3iVVtbAKF&#xA;UKoovJRsAB0XMfsfsAyPjajruInr5y/V823XdpADgxfP9TOQABQbAZ2joXYq7FXYq7FUNf6bY38P&#xA;o3cKyp2r1B8VI3GY2q0eLPHhyREh+OTbhzzxm4mmFa5+XsnpyfUqXdu4IktZacip6jf4WHzzjtd7&#xA;MZMZ4sB4vLlL4Hr9jvdP2vGW2QV9zwPzx/zjx5f1CSWXSQ2haluWg4k27N7xGhj/ANhsP5cp0ntF&#xA;qNOeDODIDv2kP1/H5s83ZmLKOLGa+54b5s/LXzh5XZm1OxY2gO19BWW3Nf8ALA+H5OAc67RdrafU&#xA;/RL1dx2P49zpM+iyYvqG3f0T/wDKv89/O/5dzCCxlGoaG7Vn0a6JMJr9pom6xMfFdj3BzZOK9TPl&#xA;P8nPzfY6n5A1FPJnnpxzn0K5olvO/fii1Ugn9qGvi0dTizx5JQNxNF5n538o+a/LBOn+edDmsoy3&#xA;GDVIV9S1duxjmXktab8a18QMDux2njzw4M4/zg78uvzVvvJU66ddS/pTy1IxKrGR6sBY1LRhtx4l&#xA;DsTuO9dF2v2HDVDjj6cvf3+/9bVg1Z054bE8fl+rp7n175E/NPTdU02Cdbpb/TpNor2M1dP8mRft&#xA;VFdwfiGanRduZdLLwdUDt/F1/wCPDzH2tuo7PhlHHhPw/HJ6Lb3EFxEs0EiyxNurqag52GLNDJES&#xA;gRKJ7nRzgYmiKKpljF2KuxV2KuxV2KuxV2KuxV2KuxV2KuxV2KvIPNkFv5j1C9tbiL61bXb+j6G9&#xA;JEUgKtB1Dcdx3zy3W6ueXWSnj+riqNeWwp6/T4YwwCMuVb/ezbyt5Mg05I7i7RWuVA9KAU4RAdKA&#xA;bEj7hnV9j9gDDWXN6snd0j+s/jzdNru0jP0Q2h9/7GU507qXYq7FXYq7FXYq7FXYqhr3TbG+j9O7&#xA;gSZe3Ibj5Ebj6MxtTo8WcVkiJNuLPPGbiaYxqf5d2sqsbGbhyBBhmHJDXtUb0+YOczq/ZSJ3wy4T&#xA;3Hl8+f3u2w9skbTF+54r59/5xt8v3pkuPqL6Rcmp+uWABgJpsXi+xT5cSfHMWOs7R0O2SPHj7zv/&#xA;ALLp/nfJuODS6j6Twy+X2fqeLa//AM4/eedKkM2lNFqsKEtG8DejOAu4YxyEb+yu2bbS+02mybTv&#xA;GfPcfMfpAcPN2Rlj9PqCd+Xf+chPzY8mRDQ/N9gde0dl9OTTdcicSmPwWd1LMD/xYHHgM32LPjyC&#xA;4SEh5G3WzxSgakCE2dP+cW/zCPNJLn8utdl6oQGsGc99ucSqPnDlrBfY/kL+bnlOb9O/lzrNh5p0&#xA;x6HlYTxhZkH+/YZG9JtjtwlZvDfMTWaHFqY8OQX949xb8GpniNxLNPLv5y6toM6WvnDS77yhqJIR&#xA;pLuGUWMzbCqyMvEA/wCVsB+1nKZOx9Zo5GemlxR7uvxHI/f5O5jrsGccOUUfx16PYtE/M6yvLaOa&#xA;VUuIJBVLuzdZEYeIFafc2W4PagwPDqIES8v+JP62vJ2ODvjlY8/1hkVv5t8vzgUu1QnqsgZKfSRT&#xA;N1i7e0k/4wPfYcGfZ2eP8PyRB8waGACb+Ch8JFP6jl57V0o/ykP9MGoaPN/Nl8kFdedNAgB4zNOw&#xA;/ZiUn8W4r+OYWf2j0mPlLiPkP10PtcjH2Xml0r3sevfOmq6jKtnpcXoGU8FI+KU19+i/575oNT7R&#xA;ajUSGPBHh4tu+X7Pxu7LF2XjxDiyG6+TNNNtDZ2EFszF3jX43O5Zzux38WOdno9P4OKMCbIG57z1&#xA;+10OfJxzMu9E5ktTsVdirsVdirsVdiqE1aWeLTrhrdS9wUKQqvUu3wr9xNcxNfOUcMjAXOqHvOwb&#xA;tPEHIOL6eqWeWvK0Glxieakt8w3fslf2U/ic1nY/YkNKOKXqynr3eQ/W5eu15zGhtD7/AHp9m+dc&#xA;7FXYq7FXYq7FXYq7FXYq7FXYq7FUrv8Ayxol6S0tsqSH/dkfwNXx+HY/SM1Wq7F0ubeUAD3jb7v0&#xA;uZh1+bHylt57sc1P8srW5hkijnWWCQUa3ukDqw8GI2P/AAOaPL7KGJ4sOQg+f6x+p2MO2bFTj8v1&#xA;PO9e/wCcbfLN4zvL5etmYgj1LFzb0NKVCRtECf8AY5X4Ha2D6ZcY94l/ut2Xi6LJzHD9n3bMP/6F&#xA;yTRbg3eg6nrug3g6XEEhUADpRkWN/wDh8P8ALuvxn95i2/qyH27hf5P00/pn9oZBYRfnLpkJt189&#xA;JqtuBxNnq2mxTq4ruJJQ4mO3vhj7Xb1LF/sv+OoPYvdP7P2tJpurGf1rjy95dWZwPWudJN/osjkV&#xA;+39Wkk59vtV+WHL7SaXKKyYjL5FYdlZYH0Tr5p5ZKQ8RuoZ40AHqRxX0Ui7dh6liJCD03etO9c0m&#xA;o1WgkDw4ZA/16/4r7nPx4dQOcwf83+xHC1nuJf8AQ4JWjJ2QAyt3p8Shf1ZgnFHIKxY8l+/i+6Ac&#xA;jjMfrlH7v98U4sPJWuXRBkjFrGerynf/AIEVP30zY6X2c1WU+ocEfP8AVz+5xc3amGHI8R8maaH5&#xA;asNJXlGPVuWFHuHG9PBR+yM7Ts3sfFpBcfVP+cf0dzodXrp5ue0e5Ns2zhOxV2KuxV2KuxV2KuxV&#xA;2KuxV2KuxV2KuxV2KuxV2KuxV2KuxV2KuxV2KuxV2KuxVa8cb/bUN8xXIygDzFpBI5Kf1Gy/5Z4/&#xA;+AX+mV/lsX82PyDPxZ95+ba2lqpqsKKfZQP4YRgxjlEfJBySPUquWsHYq7FXYq7FXYq7FXYq7FXY&#xA;q7FXYq7FXYq7FXYq7FXYq7FXYq7FXYq7FXYq7FXYq7FXYq7FXYq7FXYq7FXYq7FXYq7FXYq7FXYq&#xA;7FXYq7FXYq7FXYq7FXYq7FXYq7FXYq7FXYq7FXYq7FXYq7FXYq7FXYq7FXYq7FXYq7FXYq7FXYq7&#xA;FXYq7FXYq7FXYq7FXYq7FXYq7FXYq7FXYq7FXYq7FXYq7FXYq7FXYq7FXYq7FXYq7FXYq7FXYq7F&#xA;XYq7FXYq7FXYq7FXYq7FXYq7FXYq7FXYq7FXYq7FXYq7FXYq7FXYq7FXYq7FXYq7FXYq7FXYq7FX&#xA;Yq7FXYq7FXYq7FXYq7FXYq7FXYq7FXYq7FXYq7FXYq7FXYq7FXYq7FXYq7FXYq7FXYq7FXYq7FXY&#xA;q7FXYq7FXYqk0PnPytM8SQ6lDI8zBIlQli3I0VwAP7sk7SfZ98VUYfP3lGaBZ01FfQZQ/qFJVVVZ&#xA;VZGcso4B1dSnKnKo41xVES+bdAhjZ57loGUqpgmimjnJkDlOMDosrchC5FF34t4HFV0fmry7I0Cp&#xA;qEJe5r6MfL4zxnS1YcftArPKsZBGzbYqsj84+VpCgj1S2cyQvcx8ZA3KGMuHdadQvov0/lPhiq+f&#xA;zV5dt5Ximv4kkRVdlJP7YUqo23dhIhCD4viG24xVuHzT5cnj5w6lbyL6sNv8Mik+rcECJKdeTk0A&#xA;+fgcVTTFXYq7FXYq7FXYq7FXYq7FXYq7FXYq7FXYq7FXYq7FXYq7FXYq7FUFrmoPpuiahqMaCV7K&#xA;2muEjY8QxijLhSQDStMVeWxfmv5qYQStcaIbedkVYkErXqh+HGWS19eiRn1Ub+8LqG+JVo3EKkI/&#xA;5yG8xi0ubmSztAkLD0QkDyF4/RW4Lsq3JdQsUgNVVlY1Cs1DQqrJ/wA5A665+CGzZVjZmrBIoaRA&#xA;eSIwuXVgGoOQ33rxpgQn8n+G+Ft6n6Y9b0LL6lX9GfWfqXKT6p9Xp+9p/e/3f7+leX7OFKAk/wCV&#xA;X/4U070v0v8AV/qFpTjX1+HGH0vrfrfufU9Lhx9T4aU9H4uGKp/J/g36va19X699SvfqP1f9Get6&#xA;X1i39T0/q/8Ao/P1OPDt9vliqWXH+C/rV5+lP03+nKy/WPV9H1eHo3PT6v8A6H9v1fS/b9Tjx244&#xA;qgrb/lVn+Fb3/jqfVfq97w9Xj9dr/o3+837fL1Kel+xX1OXw1xVkQ+oenJ9V/Tf1f6zB6Xo/o/j9&#xA;f4Q+nw5/Fz4U5cv3P2q74qgdL/5V1+kofV+u/p/9JJy+tcPW+vetBz5+j/o3L1Ofvx9f0vgrir1T&#xA;FXYq7FXYq7FXYq7FXYq7FXYq7FXYq7FXYq7FXYq7FXYq7FXYq7FUj89cv8EeYePLl+jLzjwpyr9X&#xA;f7Ndq+GKvku9/wCVn/8AKu7P0f0H+mv3Nfq31H9N+jxi9LlT999j0uXfjTl8GKozT/0h+mtA9T0/&#xA;0H9SH+MPT+t/8dH6r8P1qnxc/r1ePo/Dzr+zgQh9T/SX+DNY9D1v8R/WLr9AcfV9T9Dc4fR9P/dX&#xA;p/V/Xpy348q78cVf/9k=</xmpGImg:image>
               </rdf:li>
            </rdf:Alt>
         </xmp:Thumbnails>
      </rdf:Description>
      <rdf:Description rdf:about=""
            xmlns:xmpMM="http://ns.adobe.com/xap/1.0/mm/"
            xmlns:stRef="http://ns.adobe.com/xap/1.0/sType/ResourceRef#"
            xmlns:stEvt="http://ns.adobe.com/xap/1.0/sType/ResourceEvent#">
         <xmpMM:OriginalDocumentID>uuid:9E3E5C9A8C81DB118734DB58FDDE4BA7</xmpMM:OriginalDocumentID>
         <xmpMM:DocumentID>xmp.did:661E35630F206811822A8451A1857300</xmpMM:DocumentID>
         <xmpMM:InstanceID>xmp.iid:661E35630F206811822A8451A1857300</xmpMM:InstanceID>
         <xmpMM:RenditionClass>proof:pdf</xmpMM:RenditionClass>
         <xmpMM:DerivedFrom rdf:parseType="Resource">
            <stRef:instanceID>uuid:00768df6-5025-ac44-9af1-e9683f5264a1</stRef:instanceID>
            <stRef:documentID>xmp.did:641E35630F206811822A8451A1857300</stRef:documentID>
            <stRef:originalDocumentID>uuid:9E3E5C9A8C81DB118734DB58FDDE4BA7</stRef:originalDocumentID>
            <stRef:renditionClass>proof:pdf</stRef:renditionClass>
         </xmpMM:DerivedFrom>
         <xmpMM:History>
            <rdf:Seq>
               <rdf:li rdf:parseType="Resource">
                  <stEvt:action>saved</stEvt:action>
                  <stEvt:instanceID>xmp.iid:F77F117407206811822A8451A1857300</stEvt:instanceID>
                  <stEvt:when>2013-10-06T17:09:14+13:00</stEvt:when>
                  <stEvt:softwareAgent>Adobe Illustrator CS6 (Macintosh)</stEvt:softwareAgent>
                  <stEvt:changed>/</stEvt:changed>
               </rdf:li>
               <rdf:li rdf:parseType="Resource">
                  <stEvt:action>saved</stEvt:action>
                  <stEvt:instanceID>xmp.iid:661E35630F206811822A8451A1857300</stEvt:instanceID>
                  <stEvt:when>2013-10-06T18:25:26+13:00</stEvt:when>
                  <stEvt:softwareAgent>Adobe Illustrator CS6 (Macintosh)</stEvt:softwareAgent>
                  <stEvt:changed>/</stEvt:changed>
               </rdf:li>
            </rdf:Seq>
         </xmpMM:History>
      </rdf:Description>
      <rdf:Description rdf:about=""
            xmlns:xmpTPg="http://ns.adobe.com/xap/1.0/t/pg/"
            xmlns:stDim="http://ns.adobe.com/xap/1.0/sType/Dimensions#"
            xmlns:xmpG="http://ns.adobe.com/xap/1.0/g/">
         <xmpTPg:NPages>1</xmpTPg:NPages>
         <xmpTPg:HasVisibleTransparency>False</xmpTPg:HasVisibleTransparency>
         <xmpTPg:HasVisibleOverprint>False</xmpTPg:HasVisibleOverprint>
         <xmpTPg:MaxPageSize rdf:parseType="Resource">
            <stDim:w>209.999929</stDim:w>
            <stDim:h>210.001308</stDim:h>
            <stDim:unit>Millimeters</stDim:unit>
         </xmpTPg:MaxPageSize>
         <xmpTPg:PlateNames>
            <rdf:Seq>
               <rdf:li>Cyan</rdf:li>
               <rdf:li>Magenta</rdf:li>
               <rdf:li>Yellow</rdf:li>
               <rdf:li>Black</rdf:li>
            </rdf:Seq>
         </xmpTPg:PlateNames>
         <xmpTPg:SwatchGroups>
            <rdf:Seq>
               <rdf:li rdf:parseType="Resource">
                  <xmpG:groupName>Default Swatch Group</xmpG:groupName>
                  <xmpG:groupType>0</xmpG:groupType>
               </rdf:li>
            </rdf:Seq>
         </xmpTPg:SwatchGroups>
      </rdf:Description>
      <rdf:Description rdf:about=""
            xmlns:pdf="http://ns.adobe.com/pdf/1.3/">
         <pdf:Producer>Adobe PDF library 10.01</pdf:Producer>
      </rdf:Description>
      <rdf:Description rdf:about=""
            xmlns:xmpRights="http://ns.adobe.com/xap/1.0/rights/">
         <xmpRights:Marked>True</xmpRights:Marked>
         <xmpRights:WebStatement rdf:resource="http://www.ospreydawn.com"/>
         <xmpRights:UsageTerms>
            <rdf:Alt>
               <rdf:li xml:lang="x-default">This work is licensed under a &lt;a rel="license" href="http://creativecommons.org/licenses/by-nc-sa/3.0/"&gt;Creative Commons Attribution-NonCommercial-ShareAlike 3.0 Unported License&lt;/a&gt;.</rdf:li>
               <rdf:li xml:lang="en_us">This work is licensed under a &lt;a rel="license" href="http://creativecommons.org/licenses/by-nc-sa/3.0/"&gt;Creative Commons Attribution-NonCommercial-ShareAlike 3.0 Unported License&lt;/a&gt;.</rdf:li>
               <rdf:li xml:lang="en">This work is licensed under a &lt;a rel="license" href="http://creativecommons.org/licenses/by-nc-sa/3.0/"&gt;Creative Commons Attribution-NonCommercial-ShareAlike 3.0 Unported License&lt;/a&gt;.</rdf:li>
            </rdf:Alt>
         </xmpRights:UsageTerms>
      </rdf:Description>
      <rdf:Description rdf:about=""
            xmlns:cc="http://creativecommons.org/ns#">
         <cc:attributionName>Max O'Brien / Osprey Dawn</cc:attributionName>
         <cc:license rdf:resource="http://creativecommons.org/licenses/by-nc-sa/3.0/"/>
      </rdf:Description>
   </rdf:RDF>
</x:xmpmeta>
                                                                                                    
                                                                                                    
                                                                                                    
                                                                                                    
                                                                                                    
                                                                                                    
                                                                                                    
                                                                                                    
                                                                                                    
                                                                                                    
                                                                                                    
                                                                                                    
                                                                                                    
                                                                                                    
                                                                                                    
                                                                                                    
                                                                                                    
                                                                                                    
                                                                                                    
                                                                                                    
                           
<?xpacket end="w"?>
	</metadata>
<g id="Layer_2">
	<g id="_x37_Wl2mV_1_">
	</g>
</g>
<g id="Layer_1_1_">
	<g>
		<path fill="#FCAA09" d="M250.404,385.345c14.536,9.832,29.771,17.603,43.08,24.62c16.476,8.688,35.599,14.685,50.368,20.717
			c26.515,10.829,70.312,22.401,113.736,22.401c12.92,0,25.312-1.025,36.828-3.054c44.168-9.049,44.168-34.387,44.168-34.387
			c-22.834,16.149-47.188,15.688-47.188,15.688c-0.02,0.003-1.979,0.271-5.461,0.271c-14.35,0-51.812-4.439-92.512-45.148
			c-0.884-3.479-2.521-11.918-1.375-23.364c9.85-0.918,26.956-2.984,38.635-6.979c9.693-3.312,17.42-10.047,21.758-18.954
			c2.979-6.106,4.113-12.708,3.318-18.76c1.592-1.341,3.143-3.263,4.041-6.254c0.744-2.482,0.953-7.253-0.486-11.688
			c0.627-2.821,0.742-6.481-0.33-11.128c-0.182-0.783-0.311-1.491-0.396-2.124c0.137-0.063,0.273-0.14,0.43-0.213
			c3.102-1.557,11.348-5.688,11.348-15.721c0-5.227-2.438-21.199-6.396-30.951c1.332-7.688,3.26-26.536-5.812-42.73
			c-11.462-20.467-33.358-37.42-49.076-43.587c-1.308-0.515-2.58-1.021-3.82-1.517c-13.303-5.292-24.784-9.862-46.936-10.274
			c-0.601-0.011-1.188-0.018-1.781-0.018c-21.676,0-38.183,7.376-41.303,8.869c-5.199,2.019-51.938,20.651-111.38,60.999
			c-61.535,41.768-115.78,94.947-116.321,95.479l-30.851,30.37l40.714-14.71c1.375-0.497,33.993-12.328,61.753-26.349
			c7.755-3.917,15.938-8.349,23.717-12.703c-5.271,8.288-11.25,18.116-17.83,29.616c-26.674,46.604-43.565,101.536-44.271,103.852
			L110.61,450.93l25.635-23.582c1.396-1.279,42.618-34.73,66.399-61.363C202.642,365.988,228.174,370.31,250.404,385.345z"/>
		<path fill="#622332" d="M319.031,159.759c0,0,16.707-8.488,39.121-8.07s32.578,5.291,47.476,11.138
			c14.896,5.849,34.526,21.997,44.271,39.4c9.746,17.398,4.178,39.26,4.178,39.26c3.766,6.822,6.822,24.643,6.822,29.793
			c0,5.152-5.43,6.684-7.66,8.075c-2.225,1.394-3.756,1.109-3.756,1.109s-1.395,3.764,0.277,10.999
			c1.67,7.238-0.836,9.472-0.836,9.472c2.09,1.949,2.227,7.1,1.809,8.492c-0.416,1.391-0.973,1.81-2.922,2.924
			c-1.947,1.114-2.229,3.896-2.229,3.896c3.346,9.606-2.09,25.479-17.961,30.907c-15.87,5.431-43.854,7.104-43.854,7.104
			c-4.183,22.136,1.252,37.173,1.252,37.173c55.967,57.22,107.756,49.283,107.756,49.283c-54.713,9.604-115.69-6.688-145.346-18.801
			c-29.655-12.107-58.913-45.098-86.479-54.698c-27.566-9.605-52.859-15.331-52.859-15.331c3.764-15.036-0.573-17.262-0.573-17.262
			l66.821-45.59l50.538-100.175L319.031,159.759z"/>
		<g>
			<path fill="#971F3C" d="M411.681,176.889c0,0,3.83,8.482,9.678,15.726c5.846,7.239,7.104,9.188,8.215,13.365
				c1.113,4.178-1.141,9.135-8.299,6.865c-7.153-2.271,0.084,6.64,0.084,6.64l20.605,4.873l4.453,5.013l2.361-10.304l-0.834-12.669
				l-12.107-18.655l-12.252-10.854H411.681L411.681,176.889z"/>
			<path fill="#971F3C" d="M438.202,227.281c0,0-0.975,3.203,2.23,10.304c3.199,7.104,7.238,13.651,7.377,17.062
				c0.141,3.402-1.393,11.774,0.975,14.415c2.365,2.636,6.125,4.585,6.125,4.585l3.348-2.646l-1.113-6.961l-3.064-15.729
				l-2.088-7.938l-6.396-6.684l-2.785-4.315L438.202,227.281z"/>
			<path fill="#971F3C" d="M438.064,259.928c0,0-2.574-0.144-2.365,2.154c0.209,2.297,0.418,5.29,1.949,6.125
				s5.916,1.396,5.08-2.229C441.894,262.365,441.404,260.277,438.064,259.928z"/>
			<path fill="#971F3C" d="M443.697,283.666c0,0-0.062,5.435,2.023,7.312c2.09,1.879,3.271-1.396,3.271-1.396l-0.836-3.896
				l-1.525-7.24l-0.838-2.366l-2.098,2.157l-0.863,2.367L443.697,283.666z"/>
			<path fill="#971F3C" d="M440.179,297.2c0,0-1.562,0.063-1.562,1.2c0,1.136-0.039,4.979,1.07,5.659
				c1.109,0.686,5.609,4.455,5.609,4.455l2.854-2.157l-0.834-5.29l-1.045-4.942h-3.445L440.179,297.2z"/>
			<path fill="#971F3C" d="M439.443,315.645c0,0-2.074-3.022-5.207-1.42c-3.135,1.602-3.758,6.126-3.342,8.493
				c0.418,2.359,3.258,9.017,0.549,9.52c-2.707,0.503,0.355,4.959,0.355,4.959l4.387,1.74l3.969-4.455l2.686-6.266l1.635-5.645
				l-1.635-4.386L439.443,315.645z"/>
			<path fill="#971F3C" d="M423.263,238.333c0,0,3.002,0.864,4.562,5.296c1.566,4.436,4.809,9.522,1.885,12.146
				c-2.928,2.622-6.896,3.667-6.896,3.667l-11.903,8.458L399.6,287.212c0,0,6.521-11.135,6.606-25.126
				c0.092-13.454-8.26-23.509-8.26-23.509S412.742,242.181,423.263,238.333z"/>
			<path fill="#971F3C" d="M360.587,347.15c0,0-4.75,19.688,2.854,41.209c7.603,21.525,34.515,31.465,34.515,31.465h13.729
				l-13.729-13.088l-17.524-14.479l-12.53-12.251l-5.567-12.812l-2.229-9.188L360.587,347.15z"/>
		</g>
		<g>
			<polygon fill="#FFFFFF" points="217.136,231.897 201.458,260.903 142.985,291.601 102.89,308.726 116.464,294.525 
				143.821,270.311 170.969,248.791 184.334,238.558 186.329,238.981 			"/>
			<polygon fill="#FFFFFF" points="198.352,311.385 199.579,340.677 165.748,380.771 133.797,412.514 137.974,400.402 
				150.295,368.45 168.672,330.652 176.445,320.026 196.029,307.682 			"/>
			<polygon fill="#FFFFFF" points="260.952,247.198 260.952,268.831 211.482,327.311 204.173,330.862 207.723,323.135 
				222.55,292.437 244.478,255.774 248.579,253.057 			"/>
		</g>
		<g>
			<path d="M424.7,260.973c0,0-1.672,1.253-1.527,5.564c0,0,2.646-2.785,6.4-4.729c3.758-1.949,5.148-2.229,5.148-2.229
				s-0.842-3.342-5.779-3.76c-4.937-0.418-12.18,1.95-18.026,8.075c-5.846,6.125-12.942,32.854-22.271,42.184
				c0,0,10.998-4.872,15.592-18.655C408.828,273.642,415.671,262.046,424.7,260.973z"/>
			<path d="M405.55,252.32c1.146-2.438,2.158-5.083,2.726-7.636c0,0-11.56-8.213-20.465-9.745c0,0-1.604,2.724-3.492,6.353
				C388.894,243.38,399.109,248.188,405.55,252.32z"/>
			<path d="M381.421,247.198c-1.112,2.47-2.104,4.938-2.664,7.004c0,0,9.47,6.771,21.162,7.886c0,0,1.437-2.016,3.146-5
				C398.517,255.256,388.521,251.099,381.421,247.198z"/>
			<path d="M198.298,353.239c0,0,34.021,2.33,59.336,21.062c24.729,18.292,60.146,35.501,89.802,47.608
				c29.649,12.113,90.633,28.4,145.346,18.795c0,0-51.789,7.938-107.756-49.277c0,0-5.435-15.037-1.252-37.173
				c0,0,27.979-1.677,43.854-7.104c15.868-5.429,21.304-21.301,17.964-30.907c0,0,0.273-2.777,2.227-3.896s2.506-1.533,2.922-2.924
				c0.418-1.396,0.281-6.543-1.809-8.492c0,0,2.506-2.229,0.836-9.472c-1.672-7.235-0.277-10.999-0.277-10.999
				s1.531,0.279,3.756-1.109c2.23-1.396,7.66-2.923,7.66-8.075c0-5.15-3.062-22.972-6.82-29.793c0,0,5.566-21.856-4.18-39.26
				c-9.744-17.403-29.377-33.557-44.271-39.4c-14.896-5.847-25.062-10.72-47.478-11.138s-39.121,8.07-39.121,8.07
				s-48.31,18.382-109.846,60.146c-61.54,41.766-115.001,94.396-115.001,94.396s33.135-11.979,60.701-25.896
				c27.562-13.922,61.257-34.806,61.257-34.806s-16.428,18.651-42.88,64.878c-26.452,46.221-43.438,101.909-43.438,101.909
				S178.314,376.179,198.298,353.239z M328.08,277.818c11.694-6.682,23.944-19.212,23.944-19.212s13.925,5.291,13.09,15.312
				c-0.836,10.022,2.226,17.542,2.226,17.542c-0.272-9.468,4.457-9.188,5.888-21.162c1.43-11.973-10.339-21.438-10.339-21.438
				s16.431-17.263,19.771-40.375c3.343-23.11-3.618-35.361-3.618-35.361s12.812-1.109,27.008,2.229
				c14.199,3.341,26.868,10.021,33.976,21.997c7.098,11.973,6.608,27.979,6.608,27.979c-0.06-0.783-4.183-2.142-4.183-2.142
				s0.004-4.957-1.928-10.282c-1.934-5.324-4.127-5.014-4.127-5.014c2.396,1.613,2.975,4.594,2.922,7.519
				c-0.051,2.924-2.174,3.604-6.838,2.871c-4.871-0.766-12.08-4.987-15.246-7.761c-5.729-5.021-9.604-7.414-15.631-6.729
				c-6.261,0.711-8.396,3.789-8.396,3.789s5.229-0.729,8.676,2.715c3.444,3.444,9.188,7.205,9.188,7.205
				c-5.168,0.521-10.858,5.377-10.858,5.377c0.992,2.871,6.631,8.196,9.813,7.938c3.187-0.261,7.774,0.261,10.912,0.575
				c3.133,0.312,4.09,1.166,4.09,1.166c0.141,3.968-7.168,8.214-7.168,8.214s5.012,0.766,10.721-2.715
				c5.707-3.481,7.521-7.449,8.562-8.493c1.045-1.044,7.518,1.671,7.449,4.038c-0.07,2.362,0.436,3.147,4.189,8.229
				c3.758,5.081,6.336,18.168,7.449,22.415c1.115,4.247,0.418,6.334-2.715,6.543c-3.131,0.209-2.994-1.602-5.894-2.02
				c-2.896-0.417-4.062,1.185-7.476-0.278c-3.412-1.462-10.93-0.904-11.697,2.784c-0.764,3.688,5.5,2.993,7.658,2.923
				c2.156-0.069,2.785,0.696,2.785,0.696c0.627,2.576,2.781,3.062,2.781,3.062c-1.25,5.017,2.02,6.194,2.02,6.194
				c-0.139-2.993,1.396-4.386,1.396-4.386c-0.835,3.132,1.943,5.847,2.359,7.31c0.421,1.461,0.279,2.366-3.131,1.739
				s-3.967-3.968-7.309-2.297c-3.344,1.671-12.531,2.68-19.106,5.082c-6.58,2.396-7.414,6.8-7.414,6.8
				c7.101-4.271,16.812-0.744,18.792-2.415c1.984-1.671,7.521-2.715,7.521-2.715s-1.148,0.312,1.67,2.814
				c2.815,2.511,6.16,1.554,6.16,1.554c1.881,2.175,1.771,9.101,1.771,9.101c-4.443,0.439-8.666-5.847-12.734-4.176
				c-4.07,1.671-12.847,0.73-12.847,0.73c1.671,0.835,1.671,1.771,3.864,4.066c2.19,2.297,5.289,2.192,8.631,3.028
				c3.345,0.835,8.91,7.796,9.472,12.528c0.558,4.729-5.017,12.524-5.017,12.524c-16.705-10.854-53.187-9.466-79.911-10.58
				c-26.73-1.107-30.908-15.312-31.188-22.271C326.41,295.639,328.08,277.818,328.08,277.818z M211.9,252.32
				c0,0,6.475-10.003,9.604-13.135c0,0-11.689,11.911-13.987,15.457c0,0-23.394,14.818-42.396,24.221
				c0,0,13.573-15.453,17.333-19.421c0,0-15.454,13.227-21.51,21.092c0,0-29.862,15.871-54.505,25.062
				c0,0,24.643-23.604,55.549-48.032c30.907-24.438,46.152-33.622,46.152-33.622s7.937-2.715,12.316-3.341
				c0,0-3.133-1.253-6.893-0.209c0,0,15.036-10.859,20.884-13.365c5.847-2.505,16.915-6.056,16.915-6.056s-6.892,0.835-9.815,1.879
				c0,0,24.646-15.871,38.847-22.976c14.198-7.102,37.798-15.872,37.798-15.872s-26.729,15.662-55.548,34.666
				c-28.818,19.003-60.979,43.854-60.979,43.854s39.469-27.355,62.022-41.559c22.555-14.199,48.238-28.817,48.238-28.817
				s-28.19,28.608-40.934,39.261c-12.739,10.649-32.16,23.528-32.16,23.528s3.761-5.986,5.852-8.493c0,0-8.354,8.979-9.188,10.65
				C235.498,237.096,219.209,248.957,211.9,252.32z M198.326,337.968c0,0-25.062,35.501-62.229,70.585
				c0,0,31.946-82.281,63.271-126.767c0,0,5.43-5.222,9.814-7.519c0,0-2.506,0-5.852,1.67c0,0,18.168-23.858,23.812-28.741
				c0,0,12.943-4.812,20.883-12.259c0,0-27.564,35.774-51.999,72.743c-24.433,36.962-42.604,74.761-42.604,74.761
				s36.968-59.935,47.614-74.971c10.649-15.035,33.204-42.396,33.204-42.396S210.438,308.935,198.326,337.968z M209.185,325.223
				c0,0,38.634-77.479,62.229-105.877c23.603-28.401,35.292-33.831,35.292-33.831s-34.247,35.71-62.854,85.83
				c0,0,28.396-42.604,68.08-87.709c0,0-11.277,23.18-13.158,29.44c0,0-12.945,17.96-22.971,29.654c0,0,1.253-6.268,2.506-9.188
				c0,0-5.226,8.771-6.061,11.902C272.252,245.449,247.61,280.742,209.185,325.223z M359.335,395.6
				c-22.554-17.124-43.438-51.581-43.438-51.581c1.879,16.079,25.688,41.349,25.688,41.349
				c-11.272-4.596-25.479-18.377-25.479-18.377c1.254-0.837-1.045-6.266-6.479-10.229c-5.43-3.973-12.942-6.896-12.942-6.896
				c4.386-1.67,0.21-10.229-7.521-17.751c-7.728-7.518-22.763-9.188-22.763-9.188c19.631-11.485,49.702-37.594,49.702-37.594
				s-4.826,4.107-5.017,25.062c-0.184,20.95,18.378,21.092,34.666,21.51c16.289,0.417,24.646,1.357,34.666,3.549
				c10.029,2.195,10.859,5.854,7.104,5.854c-3.76,0-8.771,1.462-11.696,7.309c-2.922,5.853-5.011,29.444-5.011,29.444
				c-10.233-9.605-10.233-30.906-10.233-30.906s-3.76,13.574,6.271,32.577c10.021,19.004,34.666,34.876,34.666,34.876
				S381.888,412.724,359.335,395.6z"/>
		</g>
		<g>
			<path fill="#FFFFFF" d="M408.271,171.731c0,0-17.819-10.44-41-10.858c-23.187-0.417-35.502,3.76-35.502,3.76
				s13.153-3.76,24.226,3.972c11.066,7.728,16.707,21.51,12.112,39.052c-4.596,17.542-33.623,48.124-66.619,74.762
				c-28.445,22.971-63.9,46.986-63.9,46.986s8.354-2.715,13.783,0.209c0,0-10.646,3.969-11.272,8.146c0,0,5.221,6.057,6.265,7.518
				c0,0,6.11-6.334,17.938-9.05c9.505-2.188,15.479-1.396,19.443-0.771c0,0-7.466-5.144-11.852-5.979c0,0-5.058-1.406-9.021-1.197
				c0,0-8.155-4.101-14.839-3.057c0,0,27.774-16.915,59.936-41.562c33.121-25.378,63.692-54.296,66.826-79.354
				c2.84-22.728-4.595-33.831-14.619-39.054C360.169,165.258,385.996,162.751,408.271,171.731z"/>
			<path fill="#FFFFFF" d="M271,342.556c0,0,8.146,8.354,11.067,10.021c0,0-8.354,2.721-12.32,7.938c0,0,1.253,5.638,6.161,7.936
				c0,0,6.368-6.057,15.349-8.145c8.979-2.088,15.452-0.835,15.452-0.835s-3.565-4.562-11.506-7.062c0,0-1.854-0.455-2.693-0.455
				c0,0-5.346-4.394-7.309-6.684C285.2,345.271,277.473,340.469,271,342.556z"/>
			<path fill="#FFFFFF" d="M298.984,366.363c0,0,31.531,30.071,72.672,50.536c41.142,20.466,95.854,30.281,121.121,23.808
				c0,0-16.078,2.303-41.348-3.55c-25.271-5.847-46.777-11.271-73.931-24.017c-27.146-12.738-68.498-45.733-68.498-45.733
				S303.787,365.109,298.984,366.363z"/>
		</g>
	</g>
</g>
<g>
	<path fill="#BDC2BC" d="M534.992,588.913c-0.739,0-1.34-0.602-1.34-1.341v-16.588c0-0.739,0.601-1.339,1.34-1.339h52.497
		c0.738,0,1.339,0.6,1.339,1.339v16.588c0,0.739-0.601,1.341-1.339,1.341H534.992z"/>
	<g>
		<path d="M558.027,571.51c-2.725,0-4.935,2.21-4.935,4.934c0,2.729,2.21,4.938,4.935,4.938c2.728,0,4.938-2.21,4.938-4.938
			C562.964,573.719,560.755,571.51,558.027,571.51z"/>
		<path fill="#FFFFFF" d="M558.027,580.461c-2.219,0-4.015-1.798-4.015-4.019c0-2.217,1.797-4.014,4.015-4.014
			c2.219,0,4.019,1.798,4.019,4.014C562.046,578.664,560.246,580.461,558.027,580.461z"/>
		<g>
			<path d="M559.402,575.293c0-0.219-0.182-0.398-0.398-0.398h-1.952c-0.221,0-0.401,0.181-0.401,0.398v1.985h0.528v2.338h1.694
				v-2.338h0.527L559.402,575.293L559.402,575.293z"/>
			<path d="M558.695,573.942c0,0.37-0.3,0.668-0.667,0.668c-0.371,0-0.67-0.299-0.67-0.668s0.301-0.67,0.67-0.67
				C558.395,573.272,558.695,573.571,558.695,573.942z"/>
		</g>
	</g>
	<path d="M587.175,569.198h-51.868c-1.157,0-2.102,0.943-2.102,2.102v15.96c0,1.158,0.943,2.1,2.102,2.1h51.868
		c1.158,0,2.102-0.94,2.102-2.1V571.3C589.275,570.141,588.332,569.198,587.175,569.198z M588.644,583.375h-37.865
		c-1.477,2.809-4.417,4.725-7.81,4.725s-6.333-1.916-7.809-4.725h-1.326V571.3c0-0.812,0.658-1.471,1.47-1.471h51.869
		c0.811,0,1.471,0.658,1.471,1.471V583.375L588.644,583.375z"/>
	<g>
		<path fill="#FFFFFF" d="M557.773,584.933c0.1,0.14,0.15,0.302,0.15,0.495c0,0.198-0.052,0.357-0.151,0.479
			c-0.057,0.066-0.14,0.131-0.25,0.187c0.168,0.061,0.294,0.155,0.378,0.289c0.085,0.13,0.127,0.289,0.127,0.477
			c0,0.192-0.049,0.365-0.145,0.519c-0.062,0.104-0.14,0.188-0.23,0.256c-0.104,0.078-0.225,0.137-0.369,0.164
			c-0.141,0.028-0.294,0.043-0.459,0.043h-1.466v-3.256h1.573C557.326,584.594,557.607,584.706,557.773,584.933z M556.009,585.151
			v0.717h0.79c0.143,0,0.257-0.026,0.345-0.08s0.133-0.147,0.133-0.286c0-0.15-0.059-0.248-0.176-0.301
			c-0.1-0.033-0.228-0.05-0.383-0.05H556.009L556.009,585.151z M556.009,586.407v0.869h0.789c0.143,0,0.25-0.02,0.328-0.058
			c0.145-0.071,0.217-0.206,0.217-0.407c0-0.17-0.07-0.285-0.208-0.35c-0.077-0.034-0.188-0.056-0.327-0.056L556.009,586.407
			L556.009,586.407z"/>
		<path fill="#FFFFFF" d="M560.469,584.586h0.771l-1.089,2.034v1.222h-0.68v-1.222l-1.127-2.034h0.8l0.677,1.418L560.469,584.586z"
			/>
	</g>
	<g>
		<g>
			<path fill="#FFFFFF" d="M566.517,584.426h0.776l1.403,2.473v-2.473h0.692v3.545h-0.742l-1.443-2.517v2.517h-0.688
				L566.517,584.426L566.517,584.426z"/>
			<path fill="#FFFFFF" d="M570.425,584.797c0.285-0.292,0.647-0.437,1.09-0.437c0.591,0,1.02,0.195,1.295,0.587
				c0.148,0.221,0.229,0.439,0.242,0.661h-0.741c-0.048-0.17-0.106-0.299-0.183-0.384c-0.132-0.153-0.328-0.229-0.586-0.229
				c-0.265,0-0.473,0.107-0.623,0.324c-0.152,0.219-0.229,0.525-0.229,0.923c0,0.399,0.08,0.696,0.241,0.895
				c0.161,0.197,0.365,0.299,0.614,0.299c0.252,0,0.447-0.086,0.581-0.256c0.072-0.09,0.136-0.229,0.183-0.41h0.736
				c-0.066,0.387-0.226,0.699-0.486,0.943c-0.262,0.241-0.594,0.36-1.002,0.36c-0.505,0-0.901-0.163-1.19-0.489
				c-0.288-0.328-0.434-0.777-0.434-1.353C569.93,585.607,570.095,585.133,570.425,584.797z"/>
		</g>
	</g>
	<g>
		<path fill="#FFFFFF" d="M578.517,586.944c0.022,0.173,0.073,0.303,0.145,0.389c0.132,0.154,0.354,0.233,0.673,0.233
			c0.19,0,0.347-0.021,0.465-0.062c0.225-0.078,0.338-0.226,0.338-0.438c0-0.125-0.055-0.223-0.166-0.291
			c-0.113-0.066-0.285-0.126-0.525-0.178l-0.411-0.088c-0.401-0.093-0.679-0.188-0.829-0.294c-0.254-0.173-0.383-0.448-0.383-0.819
			c0-0.339,0.126-0.619,0.376-0.846c0.249-0.224,0.617-0.336,1.102-0.336c0.401,0,0.748,0.104,1.033,0.315
			c0.284,0.213,0.436,0.521,0.45,0.922h-0.762c-0.014-0.227-0.117-0.387-0.306-0.484c-0.126-0.065-0.282-0.096-0.473-0.096
			c-0.209,0-0.375,0.041-0.499,0.122c-0.126,0.083-0.188,0.196-0.188,0.346c0,0.135,0.062,0.236,0.186,0.303
			c0.079,0.043,0.246,0.096,0.502,0.155l0.665,0.156c0.292,0.068,0.513,0.162,0.655,0.276c0.227,0.179,0.339,0.435,0.339,0.771
			c0,0.351-0.134,0.637-0.4,0.863c-0.269,0.229-0.646,0.344-1.134,0.344c-0.5,0-0.891-0.112-1.176-0.339
			c-0.287-0.224-0.432-0.536-0.432-0.929L578.517,586.944L578.517,586.944z"/>
		<path fill="#FFFFFF" d="M582.542,584.325h0.896l1.34,3.791h-0.858l-0.249-0.778h-1.396l-0.255,0.778h-0.828L582.542,584.325z
			 M582.486,586.681h0.972l-0.479-1.49L582.486,586.681z"/>
	</g>
	<g>
		<circle cx="542.95" cy="579.28" r="7.771"/>
		<circle fill="#FFFFFF" cx="542.95" cy="579.278" r="6.322"/>
		<g>
			<path d="M542.597,578.348l-1.188,0.215c-0.041-0.237-0.131-0.416-0.273-0.537c-0.143-0.119-0.325-0.178-0.55-0.178
				c-0.302,0-0.537,0.104-0.72,0.31c-0.18,0.204-0.268,0.555-0.268,1.038c0,0.539,0.09,0.921,0.271,1.146
				c0.183,0.223,0.426,0.332,0.73,0.332c0.229,0,0.417-0.064,0.562-0.195c0.146-0.131,0.249-0.354,0.311-0.67l1.182,0.199
				c-0.123,0.545-0.354,0.954-0.707,1.229c-0.348,0.276-0.813,0.416-1.399,0.416c-0.668,0-1.197-0.21-1.594-0.629
				c-0.396-0.42-0.592-1.004-0.592-1.746c0-0.75,0.198-1.337,0.594-1.754c0.397-0.42,0.936-0.627,1.613-0.627
				c0.555,0,0.995,0.118,1.322,0.355C542.219,577.497,542.453,577.86,542.597,578.348z"/>
			<path d="M547.477,578.348l-1.188,0.215c-0.039-0.237-0.131-0.416-0.272-0.537c-0.144-0.119-0.325-0.178-0.551-0.178
				c-0.301,0-0.539,0.104-0.72,0.31c-0.178,0.204-0.268,0.555-0.268,1.038c0,0.539,0.09,0.921,0.271,1.146
				c0.182,0.223,0.426,0.332,0.729,0.332c0.229,0,0.417-0.064,0.562-0.195c0.146-0.131,0.25-0.354,0.311-0.67l1.183,0.199
				c-0.123,0.545-0.356,0.954-0.708,1.229c-0.349,0.276-0.814,0.416-1.4,0.416c-0.668,0-1.197-0.21-1.593-0.629
				c-0.396-0.42-0.592-1.004-0.592-1.746c0-0.75,0.196-1.337,0.595-1.754c0.396-0.42,0.934-0.627,1.612-0.627
				c0.554,0,0.994,0.118,1.322,0.355C547.1,577.497,547.337,577.86,547.477,578.348z"/>
		</g>
	</g>
	<g>
		<path d="M569.93,571.719c-2.61,0-4.727,2.115-4.727,4.726c0,2.612,2.115,4.729,4.727,4.729s4.728-2.113,4.728-4.729
			C574.658,573.834,572.546,571.719,569.93,571.719z"/>
		<circle fill="#FFFFFF" cx="569.93" cy="576.447" r="3.846"/>
		
			<rect x="569.488" y="571.955" transform="matrix(0.4225 -0.9063 0.9063 0.4225 -193.3242 849.4399)" width="0.924" height="8.958"/>
		<g>
			<path d="M569.58,579.151v-0.637c-0.444-0.013-0.877-0.14-1.129-0.277l0.197-0.776c0.279,0.153,0.672,0.292,1.101,0.292
				c0.382,0,0.646-0.151,0.646-0.409c0-0.252-0.223-0.41-0.709-0.578c-0.711-0.238-1.196-0.568-1.196-1.215
				c0-0.59,0.411-1.047,1.122-1.181v-0.631h0.65v0.584c0.443,0.015,0.742,0.115,0.968,0.222l-0.199,0.748
				c-0.167-0.079-0.478-0.232-0.954-0.232c-0.434,0-0.571,0.193-0.571,0.381c0,0.212,0.231,0.356,0.798,0.564
				c0.796,0.276,1.107,0.643,1.107,1.246c0,0.591-0.411,1.09-1.182,1.221v0.684L569.58,579.151L569.58,579.151z"/>
		</g>
	</g>
	<g>
		<path d="M581.185,571.784c-2.571,0-4.66,2.086-4.66,4.658c0,2.576,2.089,4.665,4.66,4.665c2.576,0,4.665-2.089,4.665-4.665
			C585.852,573.87,583.761,571.784,581.185,571.784z"/>
		<path fill="#FFFFFF" d="M581.185,580.238c-2.092,0-3.789-1.698-3.789-3.794c0-2.091,1.695-3.79,3.789-3.79
			c2.096,0,3.793,1.696,3.793,3.79C584.979,578.538,583.281,580.238,581.185,580.238z"/>
		<path d="M581.185,573.885c-1.016,0-1.874,0.733-2.182,1.746h-0.294l0.933,1.016l0.93-1.016h-0.348
			c0.215-0.37,0.563-0.616,0.96-0.616c0.65,0,1.179,0.646,1.179,1.443c0,0.793-0.526,1.44-1.179,1.44
			c-0.432,0-0.81-0.289-1.016-0.72h-1.196c0.278,1.068,1.167,1.854,2.214,1.854c1.273,0,2.311-1.155,2.311-2.576
			C583.496,575.034,582.464,573.885,581.185,573.885z"/>
	</g>
</g>
<g>
	<path d="M10.392,586.197c-0.652,0-1.248-0.138-1.786-0.41c-0.539-0.271-1.002-0.631-1.39-1.07c-0.388-0.441-0.688-0.949-0.9-1.521
		C6.106,582.619,6,582.032,6,581.432c0-0.626,0.114-1.226,0.338-1.797c0.226-0.574,0.533-1.08,0.927-1.521
		c0.393-0.44,0.857-0.792,1.396-1.053c0.538-0.26,1.119-0.39,1.746-0.39c0.653,0,1.248,0.138,1.786,0.417
		c0.538,0.275,0.999,0.641,1.382,1.09s0.682,0.959,0.893,1.528c0.213,0.567,0.318,1.144,0.318,1.726c0,0.636-0.113,1.24-0.338,1.812
		c-0.225,0.574-0.534,1.079-0.926,1.517c-0.394,0.437-0.856,0.785-1.391,1.045C11.598,586.066,11.018,586.197,10.392,586.197z
		 M6.675,581.432c0,0.539,0.091,1.057,0.271,1.555s0.437,0.939,0.768,1.324c0.33,0.383,0.724,0.69,1.178,0.92
		c0.455,0.229,0.955,0.344,1.502,0.344c0.563,0,1.072-0.117,1.527-0.355c0.454-0.239,0.846-0.555,1.17-0.946
		c0.327-0.392,0.578-0.834,0.755-1.328s0.265-0.997,0.265-1.51c0-0.538-0.092-1.057-0.277-1.555
		c-0.185-0.498-0.442-0.939-0.773-1.323s-0.723-0.691-1.179-0.919c-0.454-0.229-0.949-0.347-1.486-0.347
		c-0.565,0-1.076,0.119-1.536,0.357c-0.458,0.238-0.85,0.554-1.17,0.945c-0.322,0.394-0.571,0.836-0.748,1.33
		C6.762,580.422,6.675,580.923,6.675,581.432z"/>
	<path d="M22.14,578.299c-0.608-0.681-1.469-1.021-2.58-1.021c-0.918,0-1.587,0.175-2.006,0.523
		c-0.417,0.349-0.628,0.817-0.628,1.407c0,0.302,0.054,0.554,0.159,0.755c0.106,0.202,0.271,0.373,0.496,0.51
		c0.226,0.137,0.513,0.256,0.86,0.355c0.35,0.103,0.761,0.2,1.237,0.299c0.512,0.106,0.97,0.223,1.377,0.352
		c0.404,0.127,0.75,0.289,1.038,0.483c0.287,0.193,0.508,0.433,0.662,0.715c0.153,0.281,0.231,0.632,0.231,1.044
		c0,0.414-0.082,0.775-0.245,1.086c-0.163,0.31-0.392,0.565-0.688,0.773c-0.297,0.208-0.648,0.364-1.059,0.471
		c-0.411,0.104-0.867,0.157-1.37,0.157c-1.463,0-2.704-0.467-3.717-1.401l0.356-0.542c0.396,0.415,0.882,0.743,1.457,0.984
		c0.573,0.242,1.217,0.363,1.931,0.363c0.821,0,1.461-0.147,1.925-0.449c0.462-0.301,0.695-0.754,0.695-1.362
		c0-0.309-0.06-0.57-0.178-0.787s-0.303-0.404-0.551-0.562c-0.247-0.158-0.554-0.295-0.919-0.409
		c-0.364-0.115-0.796-0.225-1.29-0.33c-0.503-0.105-0.945-0.219-1.329-0.338c-0.384-0.117-0.708-0.269-0.972-0.449
		c-0.265-0.181-0.463-0.398-0.596-0.654s-0.199-0.578-0.199-0.967c0-0.423,0.082-0.797,0.246-1.124
		c0.163-0.326,0.391-0.603,0.682-0.826c0.291-0.226,0.64-0.395,1.044-0.511c0.406-0.114,0.854-0.17,1.351-0.17
		c0.607,0,1.15,0.09,1.627,0.27c0.477,0.183,0.909,0.459,1.296,0.828L22.14,578.299z"/>
	<path d="M24.734,586.131v-9.395h3.863c0.396,0,0.763,0.085,1.098,0.251c0.335,0.168,0.624,0.392,0.866,0.669
		s0.432,0.591,0.568,0.938c0.138,0.35,0.205,0.698,0.205,1.053c0,0.381-0.063,0.746-0.191,1.098
		c-0.128,0.354-0.31,0.666-0.542,0.939c-0.232,0.272-0.512,0.492-0.833,0.654c-0.323,0.164-0.683,0.245-1.078,0.245h-3.281v3.546
		L24.734,586.131L24.734,586.131z M25.408,581.963h3.241c0.309,0,0.586-0.064,0.833-0.191s0.456-0.3,0.629-0.516
		c0.171-0.218,0.303-0.463,0.396-0.741c0.092-0.276,0.139-0.565,0.139-0.866c0-0.309-0.056-0.602-0.165-0.879
		c-0.11-0.279-0.26-0.523-0.45-0.734c-0.189-0.213-0.41-0.381-0.661-0.504s-0.519-0.186-0.801-0.186h-3.162L25.408,581.963
		L25.408,581.963z"/>
	<path d="M32.963,586.131v-9.395h3.917c0.397,0,0.764,0.085,1.098,0.251c0.335,0.168,0.622,0.392,0.859,0.669
		c0.238,0.277,0.426,0.591,0.563,0.938c0.137,0.35,0.204,0.698,0.204,1.053c0,0.344-0.054,0.676-0.159,0.998
		c-0.105,0.324-0.254,0.611-0.45,0.867c-0.194,0.256-0.427,0.467-0.7,0.635c-0.273,0.169-0.572,0.277-0.899,0.331l2.341,3.651
		h-0.781l-2.274-3.547h-3.043v3.547L32.963,586.131L32.963,586.131z M33.636,581.963h3.295c0.299,0,0.571-0.064,0.819-0.197
		c0.247-0.132,0.458-0.307,0.636-0.522c0.176-0.216,0.311-0.462,0.402-0.741c0.093-0.277,0.141-0.562,0.141-0.853
		c0-0.3-0.056-0.589-0.166-0.866c-0.11-0.276-0.261-0.522-0.45-0.733c-0.189-0.212-0.409-0.382-0.661-0.511
		c-0.252-0.127-0.523-0.192-0.814-0.192h-3.201V581.963z"/>
	<path d="M47.899,585.521v0.608h-6.258v-9.395h6.139v0.61h-5.464v3.688h4.775v0.582h-4.775v3.903h5.583V585.521z"/>
	<path d="M49.421,576.736l3.281,5.199l3.308-5.199h0.742l-3.706,5.849v3.546h-0.674v-3.572l-3.69-5.821L49.421,576.736
		L49.421,576.736z"/>
	<path d="M58.126,586.131v-9.395h3.122c0.741,0,1.392,0.124,1.951,0.371c0.561,0.248,1.025,0.583,1.396,1.007
		c0.371,0.423,0.647,0.919,0.833,1.487c0.185,0.567,0.277,1.175,0.277,1.819c0,0.715-0.104,1.36-0.311,1.938
		s-0.505,1.07-0.894,1.481c-0.388,0.409-0.857,0.729-1.41,0.953c-0.552,0.224-1.167,0.337-1.845,0.337L58.126,586.131
		L58.126,586.131z M65.031,581.421c0-0.592-0.083-1.137-0.251-1.635c-0.167-0.498-0.412-0.93-0.733-1.291
		c-0.322-0.359-0.718-0.644-1.185-0.848c-0.466-0.202-1.005-0.303-1.614-0.303h-2.447v8.177h2.447c0.617,0,1.162-0.104,1.633-0.312
		c0.473-0.206,0.866-0.495,1.185-0.865c0.316-0.37,0.559-0.805,0.722-1.303S65.031,582.003,65.031,581.421z"/>
	<path d="M66.288,586.131l3.996-9.395h0.555l3.997,9.395h-0.728l-1.311-3.097h-4.484l-1.311,3.097H66.288z M70.562,577.557
		l-2.09,4.922h4.141L70.562,577.557z"/>
	<path d="M79.148,576.802h0.661l1.401,3.413l1.403-3.413h0.661l-1.654,3.956l1.971,4.577l3.6-8.601h0.742l-4.023,9.395h-0.62
		l-2.063-4.829l-2.077,4.829h-0.622l-4.008-9.395h0.728l3.612,8.601l1.945-4.577L79.148,576.802z"/>
	<path d="M90.05,578.008v8.123h-0.675v-9.394h0.518l6.588,8.27v-8.255h0.675v9.379h-0.622L90.05,578.008z"/>
	<path d="M99.297,586.131v-1.125h0.583v1.125H99.297z"/>
	<path d="M101.401,581.368c0-0.563,0.098-1.127,0.298-1.688c0.197-0.561,0.486-1.062,0.866-1.502c0.379-0.44,0.844-0.8,1.395-1.077
		c0.552-0.277,1.181-0.418,1.887-0.418c0.838,0,1.552,0.192,2.144,0.576c0.591,0.383,1.027,0.877,1.309,1.475l-0.556,0.318
		c-0.159-0.327-0.351-0.601-0.576-0.82c-0.224-0.221-0.466-0.399-0.727-0.537c-0.261-0.137-0.533-0.234-0.814-0.298
		c-0.281-0.062-0.562-0.092-0.833-0.092c-0.6,0-1.129,0.121-1.589,0.364c-0.458,0.241-0.847,0.558-1.164,0.944
		c-0.316,0.39-0.557,0.826-0.722,1.316c-0.164,0.489-0.245,0.981-0.245,1.475c0,0.558,0.097,1.086,0.291,1.59
		c0.195,0.502,0.459,0.945,0.795,1.328c0.334,0.383,0.731,0.691,1.19,0.919c0.458,0.229,0.951,0.346,1.48,0.346
		c0.282,0,0.571-0.036,0.866-0.106c0.296-0.069,0.583-0.18,0.86-0.329c0.277-0.15,0.536-0.343,0.774-0.576
		c0.238-0.232,0.437-0.51,0.594-0.827l0.569,0.278c-0.159,0.352-0.372,0.665-0.642,0.939c-0.271,0.271-0.57,0.502-0.906,0.688
		c-0.335,0.186-0.689,0.324-1.065,0.416c-0.375,0.092-0.742,0.139-1.104,0.139c-0.644,0-1.233-0.141-1.768-0.423
		c-0.532-0.281-0.994-0.649-1.382-1.104c-0.387-0.455-0.689-0.972-0.905-1.549C101.509,582.555,101.401,581.969,101.401,581.368z"/>
	<path d="M114.882,586.197c-0.652,0-1.247-0.138-1.785-0.41c-0.538-0.271-1.001-0.631-1.39-1.07
		c-0.388-0.441-0.688-0.949-0.898-1.521c-0.212-0.572-0.317-1.16-0.317-1.76c0-0.627,0.112-1.225,0.337-1.798
		c0.224-0.573,0.534-1.081,0.926-1.521c0.394-0.44,0.857-0.792,1.396-1.052c0.539-0.261,1.121-0.391,1.747-0.391
		c0.65,0,1.247,0.139,1.786,0.416c0.538,0.276,0.999,0.643,1.381,1.091c0.384,0.45,0.682,0.959,0.894,1.529
		c0.211,0.566,0.317,1.144,0.317,1.726c0,0.635-0.113,1.239-0.337,1.812c-0.226,0.572-0.534,1.077-0.928,1.514
		c-0.393,0.438-0.854,0.785-1.389,1.046C116.087,586.066,115.509,586.197,114.882,586.197z M111.164,581.432
		c0,0.539,0.09,1.057,0.271,1.555c0.181,0.498,0.436,0.939,0.767,1.324c0.331,0.383,0.724,0.69,1.178,0.92s0.954,0.344,1.501,0.344
		c0.564,0,1.073-0.117,1.527-0.355c0.456-0.239,0.845-0.555,1.171-0.946s0.578-0.834,0.754-1.328
		c0.175-0.494,0.266-0.997,0.266-1.51c0-0.538-0.094-1.057-0.278-1.555c-0.186-0.498-0.443-0.939-0.774-1.323
		s-0.724-0.691-1.178-0.919c-0.455-0.229-0.95-0.347-1.488-0.347c-0.563,0-1.075,0.119-1.534,0.357s-0.851,0.554-1.172,0.945
		c-0.321,0.394-0.57,0.836-0.748,1.33C111.252,580.422,111.164,580.923,111.164,581.432z"/>
	<path d="M129.659,586.131v-8.123l-3.704,6.338h-0.423l-3.705-6.338v8.123h-0.675v-9.394h0.675l3.916,6.722l3.916-6.722h0.675v9.394
		H129.659L129.659,586.131z"/>
</g>
</svg>
