<?xml version="1.0" encoding="utf-8"?>
<!-- Generator: Adobe Illustrator 16.0.0, SVG Export Plug-In . SVG Version: 6.00 Build 0)  -->
<!DOCTYPE svg PUBLIC "-//W3C//DTD SVG 1.1//EN" "http://www.w3.org/Graphics/SVG/1.1/DTD/svg11.dtd">
<svg version="1.1" id="Layer_1" xmlns="http://www.w3.org/2000/svg" xmlns:xlink="http://www.w3.org/1999/xlink" x="0px" y="0px"
	 width="595.275px" height="595.279px" viewBox="0 0 595.275 595.279" enable-background="new 0 0 595.275 595.279"
	 xml:space="preserve">
<metadata><?xpacket begin="﻿" id="W5M0MpCehiHzreSzNTczkc9d"?>
<x:xmpmeta xmlns:x="adobe:ns:meta/" x:xmptk="Adobe XMP Core 5.3-c011 66.145661, 2012/02/06-14:56:27        ">
   <rdf:RDF xmlns:rdf="http://www.w3.org/1999/02/22-rdf-syntax-ns#">
      <rdf:Description rdf:about=""
            xmlns:dc="http://purl.org/dc/elements/1.1/">
         <dc:format>image/svg+xml</dc:format>
         <dc:title>
            <rdf:Alt>
               <rdf:li xml:lang="x-default">NFL Logo Redesigns</rdf:li>
               <rdf:li xml:lang="en_us">NFL Logo Redesigns</rdf:li>
            </rdf:Alt>
         </dc:title>
         <dc:creator>
            <rdf:Seq>
               <rdf:li>Max O'Brien/Osprey Dawn</rdf:li>
            </rdf:Seq>
         </dc:creator>
      </rdf:Description>
      <rdf:Description rdf:about=""
            xmlns:xmp="http://ns.adobe.com/xap/1.0/"
            xmlns:xmpGImg="http://ns.adobe.com/xap/1.0/g/img/">
         <xmp:CreatorTool>Adobe Illustrator CS6 (Macintosh)</xmp:CreatorTool>
         <xmp:ModifyDate>2013-10-06T18:06:01+13:00</xmp:ModifyDate>
         <xmp:MetadataDate>2013-10-06T18:06:01+13:00</xmp:MetadataDate>
         <xmp:CreateDate>2013-10-06T18:06:01+13:00</xmp:CreateDate>
         <xmp:Thumbnails>
            <rdf:Alt>
               <rdf:li rdf:parseType="Resource">
                  <xmpGImg:width>256</xmpGImg:width>
                  <xmpGImg:height>236</xmpGImg:height>
                  <xmpGImg:format>JPEG</xmpGImg:format>
                  <xmpGImg:image>/9j/4AAQSkZJRgABAgEASABIAAD/7QAsUGhvdG9zaG9wIDMuMAA4QklNA+0AAAAAABAASAAAAAEA&#xA;AQBIAAAAAQAB/+4ADkFkb2JlAGTAAAAAAf/bAIQABgQEBAUEBgUFBgkGBQYJCwgGBggLDAoKCwoK&#xA;DBAMDAwMDAwQDA4PEA8ODBMTFBQTExwbGxscHx8fHx8fHx8fHwEHBwcNDA0YEBAYGhURFRofHx8f&#xA;Hx8fHx8fHx8fHx8fHx8fHx8fHx8fHx8fHx8fHx8fHx8fHx8fHx8fHx8fHx8f/8AAEQgA7AEAAwER&#xA;AAIRAQMRAf/EAaIAAAAHAQEBAQEAAAAAAAAAAAQFAwIGAQAHCAkKCwEAAgIDAQEBAQEAAAAAAAAA&#xA;AQACAwQFBgcICQoLEAACAQMDAgQCBgcDBAIGAnMBAgMRBAAFIRIxQVEGE2EicYEUMpGhBxWxQiPB&#xA;UtHhMxZi8CRygvElQzRTkqKyY3PCNUQnk6OzNhdUZHTD0uIIJoMJChgZhJRFRqS0VtNVKBry4/PE&#xA;1OT0ZXWFlaW1xdXl9WZ2hpamtsbW5vY3R1dnd4eXp7fH1+f3OEhYaHiImKi4yNjo+Ck5SVlpeYmZ&#xA;qbnJ2en5KjpKWmp6ipqqusra6voRAAICAQIDBQUEBQYECAMDbQEAAhEDBCESMUEFURNhIgZxgZEy&#xA;obHwFMHR4SNCFVJicvEzJDRDghaSUyWiY7LCB3PSNeJEgxdUkwgJChgZJjZFGidkdFU38qOzwygp&#xA;0+PzhJSktMTU5PRldYWVpbXF1eX1RlZmdoaWprbG1ub2R1dnd4eXp7fH1+f3OEhYaHiImKi4yNjo&#xA;+DlJWWl5iZmpucnZ6fkqOkpaanqKmqq6ytrq+v/aAAwDAQACEQMRAD8A9U4q7FXYq7FXYq7FXYq7&#xA;FXYq7FXYq7FXEhQWY0A3JPQDASALKoa31TTbmUxW91FLKP2EdSdvYHMbFrcOSXDCcZS7gQ2SwziL&#xA;IICJzKa3if5q/mpFonmLSrV3Yw3V59WhKPwESrRXuDQfFR3X6Px47Ni1HaObNLFLhhpxca6yH6TU&#xA;qPu73d6fHHHAcQ3nzes+W9UOpaTDO5BmWsc1P5l7/SKHN72PrTqdPGZ+rkfeP183W6rD4cyByTCe&#xA;eCCIyzyLFGv2nchQPpObDLljjjxSIjHvLRGJkaG6jZ6pp17UWtwkxX7SqRUfR1ynT63Dm/u5CXuZ&#xA;ZMM4fUKROZTW7FXYq7FXYq7FXYq7FXYq7FXYq7FXYq7FXYq7FXYq7FXYq7FXYq7FXYq7FXYqoXtl&#xA;Be2r204JikFGCkqfvGUanTQzYzCf0n4M8eQwlY5vA/OmuX3lPzro1qkvOxv7ttPcAUdJiw9CVGG/&#xA;VqOCflnB6fsoEagRNZdP64y7wOYPw3FdXoPG4hEnlJlfnT84ING0WBZSy3lwvpLFCOdzcS9OEEY8&#xA;e57V7ZscXaeq10BiwjhqP7zIdhHzvp9/dycWOihjlxS332D520q1m/M/83bXStacQWksU0AS3b1B&#xA;agQuY6OKK7LOy8j0J26Z2HZ+DF2bohwc5yG8tuKUjXLmB3Du82GeZkSe56t5P/MTXvJOtJ5W82D6&#xA;vfK3oW1+9Ra3yx/CtXP93N417/MA8mcOTDKep0e8L/eYj9UD126x7pDp5W3zjHLECfwkmv5u/mJf&#xA;B9KtdPPoy6teQWFmXAZYTKQJZivRmWtFr93UZjxyjtPLOc78DBjM+HvIHL4nr3DoSnFh8GIH8Ujz&#xA;ej+SNAtfqcWpylnuGY+j8RAUKSu/GlSad8v9m+y8ZxjUS+sk1vyo1+LcXX6mXEYDky/OvdW7FXYq&#xA;7FXYq7FXYq7FXYq7FXYq7FXYq7FXYq7FXYq7FXYq7FXYq7FXYq7FXMyqpZiAoFSTsABgJAFlWCee&#xA;fzS0XQNOmn+tJFHHs94261/liXcyMe1PxznNV2xPNPwNGPEyH+LoPx3nb3uywaKvVk2Hc+Udc8/3&#xA;vmbzjba5PBKmjaFcLLa2xr6stxy5xI3WsszoNv2VB60NdvpuxBpNLPDxA6jUA8Uu6P8AEf6sQTv1&#xA;kRysVknLxSBr0xSXzh5l1NdRuTcT+r5guAV1C5Q7WiH/AI8bahIUKDSVhuTVenIvn9k9nYjjjwit&#xA;PH6R/PP+qT77/hHQUe4RhlyG/wCl+NnqH5F+UP0Row8wzDjqOpAG3PeO2B5JT/jIQH+XHOL9se2T&#xA;l1AwwPoxH/Z/8d5e+3K02Go2er2/W/Lnl/8AMPRJba9gjN+EAuIX2D02DqRup8GG46ZPS5vzlZ8E&#xA;vD1kBv3S9/eP7D0cOV4Dwy3xn7Hzb+ZGi+atHt7by5dyTXFzplwbry/qBqZnSMHnbSEf7vi2dD+0&#xA;o23oM2/YuTBLLPKYjGZDgzQ6Rl0mP6EuR7ie7duyXwijfUF6X+TX57QXscWnagVh1JgDLZueCzmn&#xA;97bk/tEDdP4b5g6rRajseZlAHJpJH4x9/wCvketFjOEc432m+gNN1aw1KH1bSUOB9tDs6nwZc3Wj&#xA;1+LUx4sZvy6j3h1WXDLGakEXmY1OxV2KuxV2KuxV2KuxV2KuxV2KuxV2KuxV2KuxV2KuxV2KuxV2&#xA;KuxV2KvJfzh/MS40tY9K02Fry/u50stPsIzRrm7c0Cn/ACEJ39/ozmdQMnaOqOmgeHDj3yS/R+gD&#xA;vs9Ha6bHHFDxJfUeTznzx+X2oeXtK0q+168Gs/mB5iulstNDCthpSsOc8tvD0d4lFA7d6MBUVzps&#xA;A0+hwTOOPDjxxs/zp1ys+f42ahllmnTB2sGe4vJ9DVItM8vSNYabe3LhIRfuP9K1K4mbYsg+x1Ne&#xA;HEZpPzG0RqCZZdQOOcYi5eH/AAYox8+vLbi4i53D/N5R2/axqPTfImkkPeNNr90fiZpJDYWZr3Wo&#xA;a6mFf2lUA5uZanX59ocOCPkPEn+iEfcTYauGEee/2MrtfN2tPeeXrVr6a00/Vrk2VvDYmNIII42i&#xA;WFY+cXqvVJUJZ27/AGaZocnZWEQzzEIzyYo8ZM74pE8RldS4RuDtEdObcMhsC9i9JjvvPPlHzhqd&#xA;pp1fMmn6dLA0Uss8UN6FngSUxtSKGBxxbpUdevYYmv0+i0+TFkxz8DIY3yMoHfruZC/iwxSllgRI&#xA;WER558weVfzAMmm25m0rWmhSeO1vozb3cF3EWMc0fUPxoPiiYinfKu08ksGqjq8QGTBKPDMx3jLp&#xA;KMv82vq6rpcZEDCXO9mFeU/Lnlrzdc6dY63a/V11ieewuZbekdxp2uW6NIZIWFQI7kRtyiIK8irC&#xA;hqc6fs3WTxznpyeKMYieMnfixS6H+rdX137mjUxqPGPiyGx1Tzr+WHnay8s+ZrwX9lf1/QHmChBm&#xA;oQphnBJqakA1JIJG5BBGr7X7GGOJ1mj9E4bzh0rqQPvHKuVEbzwZxlHBN9FaTqMeo6fDdxigkHxL&#xA;/Kw2Yffmx0GsjqMMcg6/YerrM2I45GJReZjU7FXYq7FXYq7FXYq7FXYq7FXYq7FXYq7FXYq7FXYq&#xA;7FXYq7FXYq7FXyz5n8xxWP5xaHqF+/C30yG3vWmJ2j+t6nFbXDn29EtXNN7G4+PTZcn8U8hB+EeL&#xA;75O41w5RHc9o/Ofydo+veUZ9Tvrq5sLny1HPqtle2bBZUaGFmdaENVWC7jrm9xgSuEgJRnsQXWYp&#xA;mMtnwu2u6k9lbWLTlbS0LGCNeis7FmkA7uSftdewIGbYaHEJyyAeuXP4bAe7y5dXO4zVKMd5KjGS&#xA;3jHqCrNO49V+teRLAqN+4APvlksIIqR27uQ+z7uSL7mYeTpWvz5faa5j56Xrf1q5luZ0Rlgdbc8v&#xA;3jCo/wBGPTOe7XiMXjCMTWXT8IEYk3IcfcP6bfi3rykifP8A+Y+tyfmLrWseX9SmhtLiaNEMT8oZ&#xA;Pq0EcHLjvG+0Y3p0zL0/ZmDUaXGM+McXAPqHqHlfMNQlKBIB6st8n/nnoGq6U/ln8xtMjntZXMlp&#xA;r1spWe1nKhUl4r8SFSoPOIgj+U5Xj7CjpcU46f8Ais1Lcbiq8x5G2GScpSEu56B+RvkDS7rzlrGs&#xA;3mqz6jc6PeRXdnEhUWsv1u0/c3UgVaPLxZ6lTSu+YnZ+aM9NCQhwS4TA98alvEXvw2Nh8GOslKJ4&#xA;b2KE/wCcttYtZH07So3pe6daPqvwn4kdru3t4G/4Fpvw8M3Gix2DfI7fY0YNt3sH5XXr3egeo2wk&#xA;KSgeBkjUkZxHszcYZMfSOQ/j7HK7SHqB7wzHOmda7FXYq7FXYq7FXYq7FXYq7FXYq7FXYq7FXYq7&#xA;FXYq7FXYq7FXYq7FXyl+fHku4ttUOourGxW3fT9SdQSY4C/rW1xRQzFI5qM/EVptmi9l9UNJmyaP&#xA;JsTLih59K95FU7rN+8gJhLdJ/wCchdX0zyLqPkfzjpz6gJ9OnsdP1WCReTwzQtDFz/ZlSh2lRqkD&#xA;ud87WWkBmJxNbuvOIE2Hg+Zzc9H1bzz5cH5ZRaHoNr+jr65lSPVIRUs6IObSer1fm4A36Co6Uzjt&#xA;L2Lqf5TOfUS8SEQTA9xOwFdKH20eblSzR8Oo7JB5B1zy5oOu22p6xbPqFuqypNaLEjgVC+mw9Rwr&#xA;V+IHpT3zb9taPUanCceIiBuJviIvvGwsdPe1YpRibLKvMHn6w1Lz5pPmLQrJ7Ly5YMA9kbYLHbJL&#xA;+7uATDzDBo9+vtTNTHskjTZsOThGbLuKmTdbwrio7SbBOjE8wPJgnmvWbTWdeutQs7KLT7WVv3Nt&#xA;CoQBR0Zgu3NurUzoOy9HPT4I45zOSQ5k7/LyHRpySEpWBT0X8nPzxt/y60HWLcaZLqmrajJCbUtL&#xA;whRIlZVDfabYuTxUb+IyzPpOMjoGjJDiKU3MXm7zt5nuU1ORpfMWuSxvqhClRZWUJB9OReiCoQhO&#xA;o4LXdsxe0Nfi0WA5Jco/SP50u4NuHFxGg+zPIGlfo/QUHEostDEh7RooVP1Vzj/ZzTyjgOSf1ZJc&#xA;Xw/G7DtDIJTofwslzoHBdirsVdirsVdirsVdirsVdirsVdirsVdirsVdirsVdirsVdirsVdiqUeZ&#xA;ND0zUrN3vCIjEhP1ileK9SGH7S+2ajtbs7DnhxTPAYD6u79n4DlaXUThKo730fIn5taL5b064h0r&#xA;QI5v0rfzLTTYSrWamZgiyNA4dY5JKUThx7/SPZbtLV5ISnmkDp8YPql9RrfY3uBzld9zstRjjew9&#xA;RebeU/L0ereYotOv3e1tkYm9cCkiBTx4AMNnaQqgqOpzqu1e0Dp9McmMCUj9Pcet+4C5e4OPjhxS&#xA;ovZPyg/L/wAuWEC+ZL63i1KWUvLp0N6itHHbcmWKV4j8JZwOdT02p3zhe3/afURzDFDYQ2lX8U63&#xA;HuiTy6nnbl4tNExs9fuTDzN5n/LPzKbhNS8ui4gtbgxnV9Os5RFI6qD/AH9mVDdaf2YIy7UiImM8&#xA;ePJKN8JMYyq+sJbfGkCGMXzI+bJ/KHnCDRJLXy9YafdeXrd4DJp0GoWxtfrKliHWJZxzlp9pq771&#xA;981+swdpaWJ1JmJcR9RjUugoyNcug6DySBhy+nueZ+fPIHly61631oWraXYyXx07XrCwUcEuZoWm&#xA;tJ7RCGCx3QFCn7DgqO2dlpO2suXQnJj4TljG9+VXUr91H7+rjeEI5OE8nnumaTqul640KQ3NzaR3&#xA;E0Rn08rFPMsC8n+ry8Xb+7cOVXqv3jbZO0YTwcUZRxzMYn17iPFsOLcdQY33/JHh77iw+jvyWuPy&#xA;xnto/wBERrFZ1X6xE20qzfs/WuRZyOtDXj4bZ5zqseWOuH8pEkfwn+D+zv5f0nKmT4Z8Ln9r6AAA&#xA;AA2A6Uztg6B2FXYq7FXYq7FXYq7FXYq7FXYq7FXYq7FXYq7FXYq7FXYq7FXYq7FXYq86/OTztbeX&#xA;vL9w8jVSCP1pkBoXYmkMX+yemc12wZ6rNj0WM7zNy8h+N/k7PQ4xEHIenJ8s+XPONhfajp0NxHLN&#xA;rF3rNvqF5d8VCkx8hxqSXoquVRfshQO5ObbtDsjJixzlEgYYYJQjH318NyLJ5knuAciGUEjvtMdX&#xA;lVPNWu6wQnJLGza5AFKvNaGfkVX/AIsiRsw9LEnSYcO++Sde6M+H7pEMpH1E+Q+5Ea/qyWH5VXMF&#xA;SJ7tbOxiIahWOBRAU+EioL2lwx7b965VodKcvasZfwx45n3yPFe/lPGPgynKsfy/H3pR5dg/JGyt&#xA;rE+Y7q71G4dYnvra29VY4mZV9RUKCME7UJ5HfNzPL2tPUXCEYYBLrXFKN+ZPw2DQRj4efqpOfOdz&#xA;+QDeWbq58q6nqZ1+FY10iyvjcsluqShysDcaJ9nvJ38c2ubHqZTh/M4vWPTvExI3v4fqcbESLtmX&#xA;6c0y7i1B5QTHqFloGsWXMErzs7yW4mUsO/1eNq/TnK+zmA4xPDKvTPNGQ8hwDl3eouVrNyJD8XaW&#xA;x+WbzUNKvINDPo3ttFZ61pEatzkS4FjDwjTuwdLeYUPUAnM3tDQjHkGYDixEGGQf0JSkTL/NMge8&#xA;UwxZ7HCefT3sFj853ltfWHniPRJdPllkMOqS2orZXiFqS8gd4ZqioDE1ND82XY8Z456E5RMVxQEv&#xA;rgelfzo+6q3DaMu/HVd77D/L/wAwwaxocTRyiYIiNFKDXnDIOUbfdtmv7A1cp4zhyf3mI8J/Hlyc&#xA;LX4RGXEOUmT5v3BdirsVdirsVdirsVdirsVdirsVdirsVdirsVdirsVdirsVdirsVQ+oX9tYWj3V&#xA;w3GNB07k9lHucxtXqoYMZyTOw/FNmLGZy4Q+Of8AnIrz3+mdXTRLZ+bJL69+qGoEhHGGHbqUU7/R&#xA;3GYvsnpJznk12UUcm0f6vU/cB7i7bNUYjGOiAvPKVr5Qm0uIqGvbXTr3VdTue7TLCYoIkbsqSuB7&#xA;1r4ZVi7Vl2gMh/gllx44D+jxcUifMxHwpmcYhXuJSbVNSWPyTLqNw1L7zHeloYv2jZWUD20dQD2e&#xA;Sm/hmx02mJ1oxx+jT49z/TnITP2BhKXovrL7ki8za813plhp9Q0iVursjoJJFAWMf6oBc+DSMO2b&#xA;Ts3Q+Hlnk6H0x9w5n4/SP6MInq15J2AGN5uWl2KvQdP14f4SsLyQlmsYb3R5m3qhuYJRayHj2WO5&#xA;n/4DxzncWDwtfOPTJUx/uZ/7KMD/AJzdL1QHky3yt5vk06LQfNFg7MlsjwXluP2ZNLkkuVXetDLY&#xA;S3EY9mzVwllwZ8mE/wA6Mh5xyDgPyycJ+bPJjjON+X4+x6b+X+geXdb1D8xPJiBG0571NS0z+URa&#xA;rbiR4loNlQBdh064O0Bj1cMM8Z4cwiTA9bgaIPx2I/U44lPEbO8eRSj8jPNjeXNVv/J2pyV1Dy/c&#xA;T2jpUEyWolI5LvuY27eFM1naonpNVDW8NYs0QJj+bLr91+dFyeEZcZgDuOT6RhmimiWWJg8bjkjr&#xA;uCDnQ48kZxEom4l00okGiuyaHYq7FXYq7FXYq7FXYq7FXYq7FXYq7FXYq7FXYq7FXYq0zqil3IVV&#xA;FWYmgAHcnBKQAs8kgWwrzZ+aeg6DbPM08SRJsbqduEXLwUfac+wznc3bpyT8LSQOWf2fj5Dzdhi0&#xA;Bq5nhDxnzD+cPmLzm50nypbzzXkiepBqFzELezhhYlDOob4n3BVar1r1pTKNT2fkjw5u05gYgdsc&#xA;eZPdtt7zfLqLczEIRsYhv3vBfLul3dzr9xcTky/odhf6iTyLtFDcxrOwrRiQHLGu+x753PaGphDT&#xA;xjHbxfRDuBlCXD5dKceESZe5M/NXnK61+LU9SluzALuYW1ppqsrH6v8ABJIZCRyC1hipSgZq+BzC&#xA;7M7IhpTjxiPFwx4pT3+rcCul+qffQryZ5MplZYfNc3E/D1pGk9JBHGCa8UXoo8BnQwxxjdCrNn3t&#xA;BNvUvzF/LjQ9K/Kzyf5q0JzcLdc4NZuj9priZRLF8IrxCqrrT5V3rmt7O7QOeUxIcMoyMa7qNfbs&#xA;fixkCJUfeHl9nZ3d7cx2tpC9xczHjFDGpZ2PgAM2OXNDHEzmRGI5ksgCdgm/mryL5u8pyW0fmLS5&#xA;tNa8QyWvq0IdVpyoylhVeQ5DqKivXHHmjMXE2xEgeSn5avZFuJtMa3lvLTVVFvPawKXmLBuUckKj&#xA;rJGwqo77r0OYfaGDiAyAiM8ZsE8u4xl/RkNj3bHo245dOhS95bm0kntY5mCCQcgvJAzREhW4tQgi&#xA;ppUVFTmXwRnUpR3r5XzH422Y3XJ6F+Wn5tXug+aba+vpzFZpBHDMygtX6tCI0LAVJLKgB9/YnOa7&#xA;V7CPh8Wn/vozMo/50rI925+HwbY5AdpciE18/wDkzzJpGu+UfNFvc+h5r85Nc6lPalgPQuZZ/VRe&#xA;myNFcpGVbaqtXbYbLU5cE9NkGUcWGMd/d3/p+5owE8VR5h6J5a/5yEbRJ10XzFDLo+oQFVuoZ4/V&#xA;tfUYVqjoWdVbqO3ueucVg7N1uHH4minHPpzZiOv21v5A8+jl5Y45n1jhk9s8t+f9E1qCKRZUT1gD&#xA;FKrh4ZK/ySDb78ydH29Cc/DzA4so6S/H3uFm0Moi4+qLJ83zguxV2KuxV2KuxV2KuxV2KuxV2Kux&#xA;V2KuxV2KuxVZPNFBC80zBIowWdj0AGQyZIwiZSNRHNMYkmhzeJ/mV+amoT6nB5b8uWj6lrl+eOn6&#xA;TGQK/wDF1y1QFQUruabdRuw5nFhzdrzJs49HE7nrL9Z+weZdxCENPGzvP7kJo/5baNot4ur+dJV8&#xA;2ecNmEEu+m2J68Iojs5Hiw+hTucnXdu6fs6PgaWO45/8ePMny+5hDFkz+omopv5gES61PrkzLGk+&#xA;n2ivQUWNLdZGYKOyBpGNPnnK9r67Jqjjj1oH4yEb+0OZpcQgD7y+ZbTWtXS480eb9MteNnqP1mym&#xA;KCrW4vGEiSMPfjTl/N9Az0jLo8Jjp9Hll68fDMf0uDYj9nd83GEj6pDqxfVLpNRmh+rW0dslpZww&#xA;siIkZdoYwJZH405u78mqd6ZvNNiOGJ4pGRnOR5k1xH0gdwAoVyaZG/kgkMkPpzp4kA9RUdQR8iMy&#xA;TUriWPLd7J+SGt6f5k0fV/yo1yYR2WuRtJok7b+heIfVQD/ZLyp33HfNNq8RwZxnjylUZ+/lGXx+&#xA;k/5vcie4vrH7uqTfldYXHlX8318u6/Ctrfu76WzSEcYppGUxurHqr0opHUNmP7S6Get0fDiP8UT7&#xA;xyPyu/g26fKIni8nrX/OZnoDQfLK1QSi5uOCbc+HppyI36VpX6Mz+zRRLhYOZeS/knZ2un3epeer&#xA;+MHTvKlq88YfZZbxxxijFdqszKn+yBzF7WkcuTHphznLil5Qhv8AbKvtcwbRJ+Hz/Y80u7q4u7qa&#xA;7uXMlxcO0s0h6s7kszH5k5vwKa0Te2dzpOoRRyAeskdvchSKgetEk6hgfZxUZjYc0c+MkcrlH/Sy&#xA;MT9zIjhL2SbWddutb8k+fvMZppV40mkaXbyDiY44oghue/wvPO5Fd+IG/TOS1mgkOz8mlhLiMQZX&#xA;/VlfB8I0PfbdjyR8S6/B6vYtM0+zWfWb66toL23u7O2tZ7K6jEsMhinZl5o3wmiyvTbOJ7J7Yyab&#xA;BMQ5xPEPfIxH3AuTqcAnKN/jZimoflncWEk2t/ldI1pdrWa/8n3DmS2uVH2jauxBVv8AJJ+RAFD1&#xA;ODtDR9sQ8PPHhygbHqPceo8vs6uKfEwHvj+ObM/yp/Nyz1m3azuxJbT2r+he2VzVbizlFVKOpFSn&#xA;IUB7e1CBiY8ufszKMGoPFhl9E+lfjmP4fcjPp45Rxw+rqHrYIIqOmdQ6l2KuxV2KuxV2KuxV2Kux&#xA;V2KuxV2KuxV2KuxV5f8And59h8uaFctUMLdAxiJp6k77Qx+NP2j7b9s5ntMT1uqhooGhzmfLn9g3&#xA;95DtNFjEInIfgkX5XaFH5P8ALP8AiHVP9K89+aIxd3k0i/HbwygNFDv9hVWhK/zbdFGZ3bna+LQ4&#xA;xgwjeIqI7v6R/G/zRjwyzzs/T96IkkeR2kdizuSzMdySdyTnmEpGRJO5LuQKFBg/5heddNv/ACN5&#xA;hg0u4FzcabEun3PpAmhupfT4g0o394w+E+2dX2P2fmGs03jR4Ym5RvqI3P4fHpTjZJDhlX46PJNO&#xA;uNR0TXPNflu0txdWuo+tpoj5KiRyuzR28hZ6AceRGdtqMePU4NNqZy4ZY+HJyskAAzG3e4oJjKUR&#xA;12Yrp6XV3eXN+4rCSy3k5NRH9c5RCRq9gz5vdQY44Rxjn/CO/gqVD5NMdzf43QttN9Umlt7uEvCx&#xA;4XNufhcFSRVSQeDqa0NPY1BIy/JDxAJQNHmD0/aD+0b0UA1sUZbWN7Ddw3ug3DXMtu6zQNCON1G6&#xA;HkCYas1VpXknJf8AKymWoiYmOccF7G/pPuly+dS8k8Pc9Y8+a75H/NXQdO1p9UtfL/5gWES22qW1&#xA;8Hhgu0XoyzKroGDfZ5U2NDsAcxMOTJpgRMSnHoYjiv4Df37c+TVGBB25fc811TR9dvtVii1TW7S9&#xA;chUF/LqUNwiR1/mMjOAv8tK+2Wx7Sh4ZlGGXb+Hw5gn7KbfCo1t80+8++Z9EtPLeneRfK0/1jSrU&#xA;i71fUFBUXd4w2A7lIwf+CPgqnKeydLkuWozis2Tp/NiPpj+vzJXIRdDkPxaC8qfl7cywvr/mON9P&#xA;8tWI9a4eUFJLgDpFEpo3xmi8vfbfMTtTt6MZDT6YjJqZ7CtxHzkfLnXzbceE/VLaLGfMOsS6zrV5&#xA;qkqCJrqQssS/ZRAOKIPZVAGbrQaQabBHEDfCOfeep+J3aZy4jbL7qbzXrugeXLbU1rpNrZavNpbV&#xA;UtJJBE8kj8F3UAxxxqKdq980sc2DTzyxxn1eLi4h0j4hjGrPO95H3tvATR8j9lvedC836fcaVpFn&#xA;cXMceo6xaQ3qQMaPJSKrce23Nqiv6s8t1mhy4/GEYk4seWjLuokR+/7nYRkCQTzpPrS6ntLmO4gb&#xA;hLEeSNmswZ5YpicDUotk4CQIPIsb/OHT4YY4PzT8txCHWNNMcPmexTYXNo5CeowH2ijcRy8KE/YG&#xA;eoaHU4O19KcE9pfbGXePL+x1EYzwTrp0erflr5ot9c0KFopPVj9JJbaTu0EgqtfdehzC7B1MwJab&#xA;L/eYTXw/Z91NevwgETHKTL86F17sVdirsVdirsVdirsVdirsVdirsVdirsVfLH53Svrnnzy7ochD&#xA;Wt1fy3V3G+6mKFgBX2EQkGcx2NqPDGs1n8cfTH4k0Pnwu9lD0wglv5qfnFa21vcabod2LvVrkFbi&#xA;+jbksAOzcXHWTwp9n55V7P8Aszl1GX8xqgRC7qXOZ8/6Pv5+5nmziI4YvPR+b3mFPJaeXYqrdDnH&#xA;JqrSFpTAxJ4KCNm348q9Om++dSfZPTnWnUH6diIVtxd/u61XPy2aPzMuDhQHlO+VfKnmiyNWfhZX&#xA;saA0qLa6VX6/5M2ZXamG9Xp59LyQ/wBNA1/uWOM+mQ9yN88ai9p5o8221ssbQ6g0M3rFuDpSSKdW&#xA;j6VYlt/ap7Zjdi6cZNLppSu8fEK5g7SjR8v7E5ZVKSe6L5Sg8uebovL+rg/o3zTpa2wlb9m5dUZg&#xA;D/Ms6fCP8pc1es7VlrNIdRh/vNNm4q/o2fsMDv7i2wx8MuE8pBg3mnRb2w1C6t7xeOoWLCK9H+/F&#xA;2EdyteokUjl77n7W3T9mayGXHGUP7ue8fLvh/m9PLb+Fx8kCDvzSEEg1GxGbVqZR5M1G/v8AzVo9&#xA;jfTfXLSa7hjkhu1W5UxlxyQCYPQEbbZo+19PjxaXLkgOCYhIgxJjvXP003YpEyAL6g8ueRfI8muW&#xA;kcvl3S5I3fiyPZW7KQQeoKUzzDsftbVy1UBLLkIJ5GciPvczVY4jGSA9WsPKXk7Rh6+n6Np2miEF&#xA;/VgtoIOAFWJ5Iq0p1z0g5JS5kl57iJfHX5r+cLrz55zfy55XrcaSl3ItqUPw3D8j++J7RoteJ8Kt&#xA;8sTszsrD2ZHLqsxAJJ/zY3sB5nb7vftjklkEYjuYnp/kdr7TPM2o2shms9DQLb3A2WaRJF9Rh/k+&#xA;krNTtVcz8/bXhZdPjkKnmO4/mgjYe/iofAqMViRHRkelarfXCafFeW0dvZaX5YvprMxuHLrIjwtK&#xA;1KUZ3Tjx8c0+q0uOBmYSMp5dXjErFVREhH3AG7bYyO19Ilj3nbUp4bry5HbytFc6XpFiOaHi6Sun&#xA;rggjcELIubfsbTRlHOZC45c2T3EA8P6C1ZZUR5AJzrf52a/qHl2xsbfnZatDIr3eowvw9QR14gIB&#xA;+3sXHTbpQ5rdH7G6fFqJzlU8RFRgRdX5+XTr8QznqiYgdXpvkn8xNH856LLpd3KttqtxbvbX1mTx&#xA;EqyoUdoqn4lYHdeo/HOP7T7H1HZWoGbFZxCVxl/vZfd3H7HJhkjljR5px/zjDf3cFodKuD+9068u&#xA;rB18FAEv/JwnN3rpRj2tjyQ+nPiB+w/8SHEyxvAQf4S+is6F07sVdirsVdirsVdirsVdirsVdirs&#xA;VdiqyeVYYJJW+zGpc/JRXIZZiETI9BaYiyA+GP8AnIDUDcec4LflX6taJzH+XI7uf+FK5i+w2IjS&#xA;Smec8h+wD9Nu51Z9QHcHmWdm4rsVRWn3s1pM7RjkJopIJI/5klQoR8xWo9wMo1GEZIi+hEh7wb/t&#xA;8mUTSf8Alq1uPM3nvS7a5Q8pJIEulNamO0jUSE17skJ+nNV2jljotBklE8hLh98ya+2TZAccw+gP&#xA;zC8oDzNoLQQN6Wp2jfWNNnB4lZl/Z5DcBunsaHtnk/YPa35LPxS3xS9Mx5fs/Z1dlmx8Q83nU8Z/&#xA;MDTAV42P5haErRXNtKFX61GtVdSrDiQSaEHYEkEcWrnXwl/JWX+f2fn3BH8B6fjmQARuHG/vB/TD&#xA;zDUdHmjNxIkDW8tq3G/096iS3atOQDfEYidgeq9G/ZZu20+rB4QTxCX0z6S/495deY6iOJKCL/L7&#xA;/lONC/5jYP8AiYyjt7/Ec3/C5fcnD9Y977H8ppz8w2YPRWZj/sUY/wAM8d7BhxazGPM/YC52tNYp&#xA;PJ/z1/OnU/N+rH8u/InK6tLiUW15dWx5Neyk09CEj/dIP2m/a/1Ptez6bTiA45/2Olx46Flh91ps&#xA;fkPSR5Z0sC98+a+oguZYxvbxSbFEJoV9un8xoAozkIZ5dp5jqc37vRac2Af4pDv/AE/6UXZLtKGM&#xA;cMd5Sen+WfJtjo3lBPLxpIksLpfSD/dkky0lb8aD2pnD9o9r5NRqzqOREhw+Qj9P7fNzMeIRjwvm&#xA;t7+/0ifUNLuCfUhgl0s/5Ci6EkgFfEh/vz2YYMeojDLHkZDJ7/RQ/R8nVWY2D7kv1TUJdR1Ce8lA&#xA;VpmqEHRVGyIPZVAAzL02AYcYgOn295+J3YSlZtC5ehwJBqNiMVe9/wDOLmrlNSv7eVyWW6trj4jU&#xA;kSFkkbf/AFRnBe1cBi1WmygbXw/aP1lycXqxzHk+vM27pnYq7FXYq7FXYq7FXYq7FXYq7FXYq7FU&#xA;q81XP1fQLxq7unpj39QhT+BzU9uZvD0kz3ivns5WjhxZQ+A/zL1L9I+e9ZuAeSrcGBT2pbgQin/A&#xA;Z0Xs7p/B0GKP9G/9N6v0uXnlcyxnN01Jx5U8saj5l1qHSrEUeT4ppiKrFEtOUjewr9J2zX9qdpY9&#xA;HgOXJ05DvPQfj3s8eMzNB69PqX5c/lfGtpa2/wClPMSrWaQcTKCR+3IaiEHsqitKVHfPPoaftHts&#xA;8cpeFp+nd8B/F7zt3Ho5xlDDtzLFPyu8y6bL+aVzqN5F6Day1wLVSwYRTXMgkC8qLWu6A075vvaX&#xA;s7LHsuOOB4vB4eLzjEV/x74NOnmPEs9X0LnkbsmAfmF+XtzqFynmXy0/1PzPZ0dWQhRcBRTi1dud&#xA;NgTsR8LbdOr7B7ejiidNqRx6af8Asf2faDuN+ePmw36o/UxyGaz/ADBiY8V0T8xNIBUhhxWUJVXR&#xA;0YHlG1SrKwJWvddjuJwn2Sf9W7Py/ZfIg9JDmCKvyPKoEZPKYYpoflyT/GOm3NnbNZajpuoWx1vR&#xA;Ny8KiVeU9vuxkgI6gVKV7qQc3ut7QH5OcZy48eTHLw8nSXpNRl3T+Ql5SsNMcfqBHMHcM0/N7805&#xA;9NWfy3oUxS9njMWpXcZo0Ubj4oUI/addnPYbdTtpfYvsOV/msg25QHf/AEv0Dv8Avs1mQH0pn5Q0&#xA;nTvyS8j/AONfMMCTefNbjaLy/pMo+K3RhuzrsymhBlPYUTYsc7nJI55cMfoHN1RPGaHJnX5Nfkvf&#xA;RWl95y86Az+cddWSSJZhRrRZvi5FaAJK56gfZX4RT4hmq7Wxwz4JYIgCFfbzH27+bIagxmCOiNZS&#xA;rFWFCDQj3GeLEUaL0TwPzpqWkeVfzkGsLH9ciVBPeWiUBSWaBoytTUVoVk+nPVOx9Pm13Y3g3wG6&#xA;jI9QJA/rj8HXZZCGW08ufLP5efmPp8135aKaXrsS83h4CLc9polqpUn/AHYnfrXpmrx9pdodj5BD&#xA;U3kwHrd/6WXP/Nl9nNsOOGUXHYvF9T0290y/n0++iMN3bOY5o26gj9YPUEdRnpGm1EM2MZMZuEhY&#xA;LgSiQaKGy5D0f8htTNp54+rcqC+tpI1H+XHSYH6FjbOP9t9Px6LjHPHMH5+n7yHK0h9dd77qsrgX&#xA;NnBcDpNGr/8ABAHLNNm8THGY/iiD83UZI8MiO5Wy5g7FXYq7FXYq7FXYq7FXYq7FXYq7FWE/mvrM&#xA;emeXmmkPwQrLdSD/ACbeMsR+Ocz7SXk8LAOeSY/V/vnZdnRoyl3B8AzSyTSvLI3KSRi7se7Mak56&#xA;VCIiAByDElqON5HWONS8jkKiKKkk7AADvkle8a3aw/k55EtNPARvO2tRCe8bYmFnGyH/ACYE2Hi7&#xA;HtnFdoaM9qa6OM/4vhFy8yenxA+Ab8GXhgZdTyeEyySTvJPNKZJ5H5SM5LO7NUsxY1rv1qc7OERE&#xA;CMRUQPgPJpJtbHJJHIskbFJEIZHU0IINQQRhlEEUdwUB9Tflz5wi80+W4bxmH1+CkOoRjtKo+1Tw&#xA;cfEPu7Z4b7QdknQ6kw/yZ3j7u74cvt6u4w5OON9WUZo21gf5ifl/Lqjp5g0BjaeZ7GjwyRkL64Qb&#xA;Ix6cqbKT/qnbp1PYHbowA6fUDj009iD/AA31Hl3j4jfnj5sN+qP1MdikH5g6aNQsmOkfmHoFVdVr&#xA;GzFSRxPKh4Maih+wTQ7Hfbyj/JWTw5/vez8/x+PvH+yG43G1f94LG0wl35XeWbTy5fP5/wDPkLi0&#xA;0uZpIbOdeUs1wrEeoVc/Ewk+xXq3xdBv0Gr7eE9Ri0ukqfFXERyEa5D3Dc9w25uKdOTAmWz1j8qv&#xA;J2sfmJ5rb82PO8HG35D/AAto71KRxIxMcpBAqqdUNPjar0A413OfIMcfDh8S6+cuEcIe/Zr2h4l+&#xA;aOt2flJNW1G5AIiYtbw1p6kkw5Rxj5lt/AVOecz7Inn7Slgj/FK77on1E/AH57PRYcw8ESPc+V9J&#xA;8vebPPOr302nwfX9RbndXQ9SONjWrEqJGWoFD06Z64c2DRxx4vpB9MRRPL3D73Xm5XIpVo+saho+&#xA;pQalp8phu7duUbjce4I7gjYjMjV6THqMZx5BcJLGRibD13zXodt+ZHkl/OuhwhdZ0eEtq9ku7GGM&#xA;j1fmYuQdT3SvegzjvZ6GXQavJo8hvGRxwPxr7evmHI1E4yiJfB4rncuKnPk3VP0X5r0m/LcUguoj&#xA;Kf8AitmCyf8ACE5ru19N4+kyY+pga9/Mfa2YpVIF+gXky69fQIQTVoGaJvoNR/wrDON9nM/iaSI6&#xA;xuP4+BDj6+HDlPnunmb1w3Yq7FXYq7FXYq7FXYq7FXYq7FXYq8D/AOcofMAtfLl7bq1HlENlH/rS&#xA;t6sn3xKRmgwQ/Mdswj/DhjZ/HvlF22nHDgJ/nF8iZ6K0vbf+cX/y/t9Y8zT+btWCronlkesry7Rt&#xA;dhSyEk7UgUeofA8cwtblqPCOcmrLKhXe89/NLztN50886prxLfVppTHYRt1S1j+GIU7Er8R9ycno&#xA;9MMUK6yNn3/sFD3BtHIDuY1D9U9Kf1vU9biPq3Djx58hXnXenCvTvl0+Oxw1XX3V0+P2JFKOWIZX&#xA;+W3nSXyr5hjuXJOm3NIdQiG/7uuzgfzRnce1R3zRe0PY412nMR/eR3ifPu9x/Uejdgy8EvJ9RQzR&#xA;TwpNC4kilUPHIpqrKwqCCOxGeHzgYkxIoh24K/Iq89/MDyhqFvfJ5z8rj09dsRyu7dBUXcIFGBUH&#xA;4m4ilOrD3Azrewu1ccsZ0Wq3wT+k/wAw/qv5e4lxs2M3xx5ojyF5bv8A85fMFvrGrWz2nkLRWUiz&#xA;ZqG8vAoLoSOqLWjN/LsN2NOz7J7Hh2ZjO/Fmn/F3R6V958/cHXavVcWwfT8ccccaxxqEjQBURRQA&#xA;DYAAdAMyXWLiQBU9MVfEP/OQX5hJ5387z22jH1dF0kMkciH4Z5IlPq3Hhx24p7bj7WbLQ9nwwzll&#xA;r95OgfcOQ/X+xz8ZIgIl5OrMpqpKmhBI22IoR9IzaJTe58uXMHlay181MF3dTWxHZfTVSh/2R5/8&#xA;Dmvx9oRlqp6f+KEIy+d38vT82Zh6RJnX/OOnnqPyv+YdrbXzgaPrf+gXoehRXk2hkNewchW7cScd&#xA;dpBkqf8AHC69x5j7j8GrJZiQgfz2/Lk+RvPt1aW0fDRtQreaSR0WJyeUX/PJ6r48eJ75kaXNxwvq&#xA;jHKw87zIZvuv8jfMA1byzbTFuT3NrDO3/GRR6c3/AA+eZ9jw/L6vPp/5srHuv9Ri2a8cUYzemZ0z&#xA;q3Yq7FXYq7FXYq7FXYq7FXYq7FXYq+N/+cnPMP1zV7GxV/ttNeyJ/ks3pw/cFcZqvY6Hi5c+pP8A&#xA;FLhH3n/eu6zjhjGHcHiABJAAqTsAM7txX09+YTL+Vf8Azj3pnk+GkWv+ZARqNDR/3oEl4TTrxUpb&#xA;/wCrmsxfvcxl0j+B+tx4+qV9z5hzZuQiNOvPqV9Bd+jFciB1c286CSJwDurqeoOVajD4mMwsx4hz&#xA;iaI8wUxNG1GRgzsyqEDEkItaAHsKknb3OWRFCuaCtwq9l/JP8xEj4eVtVlorE/oqdzsCdzAT7ndP&#xA;+B8BnnPtl2ATeqxD+uP99/xXz73O0ub+Eva882c92KvVfLVpa2mgafDawx28PoI/pxKEXlIObtRQ&#xA;BVnYsfEmueu9nyJ0+Mnc8Ef9yHmNR/eS95TLMxpfP/8Azk7+cg0TTpPJWhz01i/jpqs6He3tpB/d&#xA;VHSSZT9Cf6wObDRafiPEeTfihe5fJGbZyXYq9zTy4t7+QUUKqDNBC+oxnqeSTPK30+mWXPMJdoHH&#xA;2+ZdJSED8YiP+6ouw4Lw/a8MBIIINCNwRnp7r30952Kfmt/zjrZeaVpN5i8sAm+bYyEwgJdhvASR&#xA;cLj6Bmsx/us3D0l+B+px4+mdd75hzZuQ+n/+cVfMIbTksJG3tLmS3C+EdwPUT75eWee9sw/L9r48&#xA;n8OaNH38v+JciQ48BH819MZvHTuxV2KuxV2KuxV2KuxV2KuxV2Kpd5hu/qmi3cwNG9Moh/yn+Efi&#xA;c13a2o8LSzl14a+J2b9LDiyAeb4K/NvVv0l5+1NlasVoy2kY8PRHFx/yM5ZtvZXS+DoMffL1f6bl&#xA;9lOw1MrmU7/5x38k/wCKvzN05Zo+en6R/uSva9CIGHpJ4HlMUqD+zXNxq8nBA952cTJKgs/5yB89&#xA;/wCL/wAyL+a3k56Xpn+4/T6GqlISfUkHb95IWIP8tMOlxcEB3lccaDzbMhsdiqqhtvQkDq5uKr6L&#xA;KRwA/a5KRU+1DkJcXEKrh69/wTspZNDasyMHQlWUgqwNCCOhBxIBFFX0L+U/5nx69bpo2rShdbhW&#xA;kMjbC5RR1r/vwAfEO/Ud6eR+1Hs2dLI5sI/cnn/QP/E93y7r2enz8Qo83pWcY5T1rRP+ONYf8w0P&#xA;/EBnrnZv+LY/+Fx/3IeY1H95L+sfvYD+eH5x2P5eaDwtilx5lv1I02zbcIu4NxKP99qeg/abbpyI&#xA;22m05yH+ixx4+I+T4av7+91C+uL++me4vLqRprieQ8neRzyZmPiSc3gAAoOYmmmaBp95o2qXk2r2&#xA;9lqWnKHh0m4DpJcqGAf05CBHyUEngTyNNhkDPcULB6oJpJMsS+q/JFulz+XukW7/AGJtPjjbvs0d&#xA;D+vPCu2ZmHaGWQ6ZSftdxiFwHufKroyOyMKMpIYe4z3QEEWHTvcf+cVPOsOnea7vyjqLBtL8yRFI&#xA;4pN0+tRqaKQdqSxllPieIzC12O48Q5xac0dreY/mN5Rm8o+d9X8vSA8LK4YWznq9u/xwP82iZa++&#xA;ZOHKJxBbImxbMP8AnHnW3sfNtzZBuIu4BLH7zWzcl/4Rnzj/AG3wH8vDNH6sU/sP7RFzNKbJieof&#xA;cFvMk8EcyfYlVXX5MKjMvFkE4CQ5SF/N08o0SO5fljF2KuxV2KuxV2KuxV2KuxV2KsL/ADU1qLTP&#xA;L7SyGkcSy3Uv+pboWI/HOZ9pCcgxYI/VlmP1feXZdnR3Mu4PgC5uJbm5luZm5TTO0kjHuzmpP3nP&#xA;SceMQiIx5RFD4IJt9C+VJj+Vn/OPd75iJMHmfzowi0ztIkJVliceHCMyTBvFlGYUx4ubh/hi459U&#xA;q6B87ZsG9PvInl7/ABB5r0/S2FYJJOdz1/uYxzkFR0qq0Huc1Xbev/KaSeUfUBt/WOw/W2YYcUgE&#xA;L5pi9HzPq8PEJ6d7cJwFABxlYUFPDMjsyXFpcR53jj/uQjJ9R96jpLy+vJBDYpqE93E9vDEyPI6u&#xA;42kiVCD6i02rX5ZZqojhEjM44xIkTYANdJX0PXkiPutBOjo7I6lXUkMpFCCNiCDmQCCLHJi1hVUt&#xA;7ie2njuLeRoZ4WDxSoSrKymoII6EZDJjjOJjIXE8wkGn0P8Alh+att5jjj0rVGEOuovwtsqXIUbs&#xA;ng9N2X6R3A8i9pPZiWjJy4t8B+cff5dx+B89ng1HFseb2r8xPzU0T8u/JVpfXQFxqVxAkel6aGAa&#xA;Vwg+I91jTbk30dSM7bsnTnJhxgcuCP3OinAyyS95fD/mjzPrPmfXbvW9ZuDcX945d2NeKj9mNASe&#xA;KINlHYZ1EICIoOQBQpLJI5I24yKUagPFgQaMKg7+INckCDySn/lc+Q5EvI/NR1OKVo2Nnd6f6MoW&#xA;TYgSQy+nyr4+oPo65i5BmExwcPh1uDd/A8vhXxSTt5sfcIHYISyVPEsKEjtUAmn35lIfUv5WXi3f&#xA;kDRpFNeEJhPsYXaP/jXPDfabCcfaGUd8r/0wB/S7fTm4B84+crA2HmzWLQigivJgn+oXJQ/8CRns&#xA;PZGfxdJin3wj863+11eUVIhLrC+u9Pvre/s5TDd2kqT28y/aSSNgyMPcMK5sSLFFg9i/Pae0856R&#xA;o35jadGE+tW8Vvqka7+nIBxIPskqulT1BXOW7O1hxdoZdLL+ICcfkAfsH2FsGOsQPc8x8kav+h/N&#xA;ulaiW4Rw3CCZulIpD6cn/CMc23bOk/MaTJj6mJr3jcfaFxS4ZAv0B8m3n1nQYATV4C0Lf7E1X/hS&#xA;M5D2d1HiaSPfG4/Ll9lOPr4cOU+e6d5vHDdirsVdirsVdirsVdirsVdir59/5yj8xi28v3dqjUec&#xA;w2MdPFiZpP8AhFKnNBpYfme2QP4cEb+P9sh8nb4BwYL/AJxfOf5aeSp/OPm+x0daravIr30w24QB&#xA;gHNexNaDO07U1w0+Kx9cyIx/rH9XM+5qjG7PQMi/Pv8AMO283ecBa6Syjy1oMf1HR449oyq0Ekqj&#xA;wcqAv+Sq5kaTDwQ35lqxxob83mmZLN69/wA48aT6mparqzDaCFLaInxlbm1PkIx9+efe32qrHjwj&#xA;+KRkfhsPvPyc3RR3JYD+YMPo+eNdSlK3s706/wB45f8A42zq+wZ8Whwn/a4j5CnHzD1n3pNZXt3Y&#xA;3cV5aStBcwMHilQ0ZWHQjNlmwwywMJjijLmGsEg2HXouBdSG5kE07n1JJRIsvJn+IsXUtUmu+9a9&#xA;d8cJjwDhFRGwFVVbcvx5LK73UMsQ7FV0UssMqSxO0csbBo5EJVlZTUEEbgg4JREgQRYKgpj5h8za&#xA;95ivxqGt3sl9drFHAkshHwxxLxRFAAVQOuw61PUnIYcMMcRGAqIVDaZa2t3fw291dLZQyni11IrM&#xA;ibbFgu9K5DU5ZY8ZlGPGR/COZTEAndEa/b31tqMtvqF0t9dRcFW6iuFuozGq0Wkil/2aUFQV6EeA&#xA;0k4zxxlCJjEjkRwkfBZCij/Kmu2Olx3wv/L1rr1nLGVk+sCRHhZvhV1miIZNz9PjlefAZZISE5RI&#xA;v03tL3jyW9qY+xBYkDiCahRWg9t8zEPef+cfNYE+gX+lO1ZLKcTID/vudeg+Txt9+eV+3mk4dRDK&#xA;OU418Y/sI+TsdHK4kMP/AD40M2Xm9NSVaQ6pCrk/8WwgRuP+B4H6c6H2I1viaQ4jzxS+yW4+22jV&#xA;wqV97zXOzcV6P+UmuWU4v/Jert/uM11CtuT+xc0oONe70FP8pV8c4/2q0U48Gtw/3mDn5x/Z18iX&#xA;K00wbgeRYPr2i3uiaxdaVeLS4tZCjEdGHVXHsykEZ02h1kNThjlh9Mh+B8OTjzgYmi+1/wAhvMf6&#xA;X8sWsrNye4tY5XNf92xfupv+HGefdlQ/La3PpuglxD3f2GLLXjihGfweo50rq3Yq7FXYq7FXYq7F&#xA;XYq7FWnZUUuxoqglj4AYJSAFnkkC3xb/AM5KeYWvtfsrEE0VZb2UV/anfigP+qsZ+/Nb7F4jk8bU&#xA;nnknQ+G/6R8nc6n0iMO4JDHqJ8lfl6Le2bh5h81xmSaQbPBp5BRRv/v1S1PYnuBmfiB13aJyf5HT&#xA;XEeeQ/V/pf1MZDhx11l9zznOqcd2Kvpb8l9EOmeRbaSReM2ou14/jxeix/fGin6c8Y9r9Z4+ukBy&#xA;xgR+W5+0kO10sKh73in5qRrH+YOtKtaGZW38WjVj+vPSvZiV9n4v6v6S4Go+ssUzetKJtdPv7qK4&#xA;ltrd5YrVPVuZFUlY0G1XbooynLqMcDESkAZGh5nySIkobLkOxV2KuxVFaY2mLfRHVEmksa/v1tmV&#xA;JaHupdXXbwPXxHXKNSMpxnwjET6cQJHxoj8d7KNXvyVNWh0y3vJYdNufr1mSrQ3TxtFJShqrITSu&#xA;+/XptksEpygDMcM63HPf3oNXsnXlDUvO+laVr+o+XZvR06O2S311j6DKYLpzAg9OapYlnIBReS1J&#xA;2GVZseGWSHGLmL4fsvf5e9B5UxfMpWd/kvro0vzxbRSNxg1JGs3r05PRo9vEuoX6c5f2w0Xj6GRH&#xA;1YzxfoP2G/g5GlnU/e9S/PLRlvvJL3gWs2mTJOpHXg59Jx8vjDH5Zw3sXrDi1oh0yRI+I3H3V8XM&#xA;1cbhfc+cs9hdWuR3jdZI2KOhDKymhBG4IIwSiCKPJXoPnG5Tzd5PsfNiAfpbTCun66qjqpr6M/yY&#xA;7fM07ZyXZGM6DWT0h/usnrxf76P46C+rlZTxxEuo5vUP+cVvMdLdtPkbezuuIHYRXa0Uf8jFY5rO&#xA;34fl+1MOb+HKOE+/l+mPyY1x4JDu3fUmbt07sVdirsVdirsVdirsVdiqU+arz6roN0wNGkX0l/56&#xA;fCfwrmo7d1HhaSZ6kcPz2+5ytHDiyj5vhrzFLa+ZPzO1O5vHK6TZyu15IN6WtkAjcfeUpxX/ACmG&#xA;bTs+MtH2ZjjAfvZgcI/pz3/2N2fKLnzIlkN8v1MW8ya9da7rVzqdwArTN+7iX7Mcaikca+yqAM3n&#xA;Z2hjpcMcUenM956k+8tOSfEbSzM1gnXk3y1ceZPMVnpUIPCV+VzIP2IV3katD22HvQZre1+0Y6PT&#xA;SynmBt5y6D9flbZix8UqfWcEEUEMcEKhIYlCRoOiqooAPkM8EnMykZHcl3ID5Z/M25W58/a3IpBC&#xA;3Ji28YgIz+K57l7N4zDQYgf5t/Pf9LqM59ZYxm7aURaQtIlwwnSD0oi5V2KmQclX00A+0x5Vp4A5&#xA;VlnRiOEys/Lnue79dJAQ+WodirsVdiqM0i7a01GG4FpHfCM1e1mT1I3XuGHX6R0zH1WLxMZjxGF/&#xA;xA0QyiaK7W7nSbrU5p9JsX02wkIMVlJP9ZMZoOQEpSIleVeNRUDYk9ctxxkIgSPEe/lbFBUHEHlu&#xA;SQV3rQU3yatYqqW1xNbXMVzAxSaB1kicdQyHkp+gjIZMcZxMZbxkKPxSDT6p1KaHzJ+X91PEtU1P&#xA;TXkjXrxeSEso+atnhenjLR9oRif8nlA+Uv0h28vVD3h8pZ7u6d2Kp/5N12HS9Skgvqto+pxNZ6pG&#xA;N/3Mm3qKP54j8Sn+uartfQyz4hKH99jPHD3jp7pci2Yp0d+RZp+Ts9x5d/Mm50WZwTcJLbq6n4We&#xA;H97HIp32ZEPH55zvtWBquzo6iG3AYy8xexHwNX7m/T+mZiX27YXS3dlBcr0mjV9uxIqRmVpc4y4o&#xA;zH8QBdPkhwyI7lfL2DsVdirsVdirsVdirsVed/nR5iXR/Lc09RytYJrqh6F0UrEP9kxpnM9ux8fP&#xA;g0w/jnZ93L7uJ2fZ4oSn3Phv66YdLktkYmW9cSXb9/TjNY0r13ersO9EPbPQvB4sokeUBUfeeZ+W&#xA;w/zkXtXegMymLsVet/lR5y/Lzyxp7/W5p49Wu6fW7l4CyKoO0aemZDxHUmlT9wHA+1HZHaOtyDgE&#xA;Tih9IEt/ebrf7nN0+WEBvzeoD8xvJkumXN/a6rbzraxNM0IfhKQorQRvR6np0zhz7P6yOWOOWOUe&#xA;IgXW3zG32uX40au3y1e3c15eT3c5rNcyPLKfFnYs34nPcsOKOOAhH6YgAfB1BNm1HLEOxVMLTQdS&#xA;uwv1YQys3SNbiD1N/wDI58/wzEy67Hj+riH+bKvnVMhAnkjW8i+dFUN+g75lboUt5HB/4FTmOO29&#xA;EdvGx/GQH3svBn3FZ/gnzn/1YNR/6RJ/+aMP8s6L/VsX+nj+tfCn3Fcnkbzo7BRoOoAn+a1mUfeV&#xA;AwHtrRAX42L/AE8f1r4U+4sh8q/ll+cK6hBqnl/RL6G8s5Q0FyoWIpIvxDeQqPoOx6ZKOu0uoiQJ&#xA;RnH5i+fza5+jY7J1qP8Azj/+dOpXN7rWo6JFatcO9zcMZ7OJAXJZisMLniB4BcOftLDgxmRJ4Yhj&#xA;CQJEQo2X/OPvmuUg3d7Z2yHqFaSRx9HBV/4bOYze3mkj9EJyPwA+8/c5o0cupDzK5t5ba5ltphxl&#xA;hdo5F8GQ0I+8Z2mPIJxEhyIv5uKRSnk0Pb/y5/MvytpXkK3sNbveFxA00KW6o8kjRsxcfYBA+3QV&#xA;I6Z5l7Qezuqz6+WTBC4y4TdgC+XX3dLdhhzxEKJeIZ6a692KuxVkGmeYGttR0bVyf9L0mWJJj3kg&#xA;iYGP3NErGf8AJC5qdToBPHlw/wAGUSI8pHn9vq9/E2xnuD3PvTyFfpdaCqKwb0HKqQa1RvjU/L4s&#xA;472ZzmWm4DzxyI/S09owrJfeyPOhcB2KuxV2KuxV2KuxV2Kvmv8A5yp8w8NKlskepuriK1pXf04R&#xA;6r/dIAM0XZMfzHbE5/w4YUPfy/TJ3EBwYAP5zyr8tPyR1bzUIb2+9S20+be3hjH7+Zf5l5AhE/ym&#xA;H0U3zbdse0/g5PA00fFz/wCxj7+89/KupTDAK4pmovoDRv8AnGzynawBZNOtQxG5n53L/SXPEH/V&#xA;zSnD2tm9WTPweUf2V95azq8MeUbRN9/zjh5Qnj4DT7E7fsxvAf8AgojXEaTtSG8NST/Wv9PEga3E&#xA;ecGE67/zippjcnso7q1/lFvKs8f/AAEoMh/4LLY9r9sYPrhDKO8c/sI/3LYJ6eXI0871v/nHDzNZ&#xA;MRZ30UtP913Ucls/yH96PxGZWP23xxNZ8WTGfn9/CWX5W/pILDNU/K3z7ptTNpE0yDo9txuAR40i&#xA;LMPpGbvTe02gzcssQf6Xp++g1y08x0YzPb3FvKYriJ4ZV+1HIpVh8waHN3DJGYuJBHk1EUp5JDsV&#xA;Vra9vLVuVtPJA3jG7If+FIyvJhhP6oiXvFpBIeoef9VvLj8rPKM5uHaSUn1pORLM0aFKsx3J61zh&#xA;+wtLCHampjwihyHdZty80j4cXoX5L3b3H5fWHNy7wyTxkmpP98zbk+zZyftfiEO0J0KsRP8AsQP0&#xA;OTpTcA95/L7/AI403/MS3/EEzd+yf+LS/wCGH/cxdX2n/eD+r+kp3rEPraVeRA0LwyAH34mmbvtD&#xA;Hx6fJHvgfucPBKpxPm8P1XzT5c0gH9Jalb2rD/dckiiQ/JK8j9AzzDS9m6nUf3WOUvcNvnyellkj&#xA;HmXy/wCaXtdW836pPoqSXNvd3UstuFRuT82LEhKcqFiabdM9u7MEsGjxxzkRlCAB35V58nU5PVI0&#xA;mOlflT591LiY9Jlt4z1kuisFPfjIVf7lzD1XtPoMPPIJH+j6vtG32so6eZ6M40L/AJxq1+9IN7fq&#xA;vjHZwvcH5Fm9IL9xzSZPbXxDWnwzye/b7uL7w2HTCP1SAejaF/zitokXFru3muT1reXHBf8AgbcK&#xA;335jS7R7az/SIYR8P08X3MDl08epl+PgzC2/5x08nxxhDp9gKeMBkP8AwTmuVfke0pby1MgfK/2M&#xA;DrcXSCT+ZP8AnGbyxd27mCwiSSnwyWTNBIPcIaxH6QcIl2vpvVDIM0R/DLr89/lJlHU4J7EcL5z/&#xA;ADE/KvWfJ8xmNbrSy/AXPEq8bdkmT9k+/Q+3TOk7E9osetJxyHh5484n9H6uY+1OXDw7jeL6d/5x&#xA;y8w/pHyrYB2q72oievX1LRjFv7lfizmdND8t2pnw9J+off8A74/JjrBxYoy7nsedG6p2KuxV2Kux&#xA;V2KuxVIvNHmmz0a0k/eJ9a4lgGICxgCpkkJ6Add80va3a8dPHgh6s0uQ/Sf1dXM0ulOQ2fpfNtto&#xA;V3+aHnaHVbiB5fLOns0emxSA1vZi1ZJaH/dZIFSdiFA/mprIZp9n4Dp8R4tdnNzr+Ad1/wA7n7rJ&#xA;7naGpeo7Qi+mvL2gW2kWaxqAbhgPWlA6n+Vf8kds3HZXZkdLjrnM/Ufx0dRqdScsvLomubVxnYq7&#xA;FWnRHUq6hlPUEVGCUQRR3CQaS268s6Fc19SzRSf2o6xn/hKZrM/Yukyc8Y+G33U5ENXljykkOq/l&#xA;d5f1GIxSD1Iz/uq4jSdP+BYD9ea0+zUIHiw5J45fjuo/a5Ee0pfxAFgWt/8AOM3lW8LPHp9srdmt&#xA;nktj9CKfTy2Ee18H0ZhkH9Lc/aD/ALpsGqwy5xIYJq3/ADis0LM1hcX9qTX9mO6H0el6Zp9OXj2h&#xA;7Sx7ZtOJ/wBX9nF9zYBhlynTE7/8g/ONm1Le9sZiN/8AS7f03P8AwUc1TXxOSHtjpxtlxZcfuJ/X&#xA;H7mf5YnkQULqH5f/AJny6ZaaVcaTZahY6d6hs41m9MIZX5PSksBNaftdO2HB272ZHLLLHJkxzyVx&#xA;em7obfwy+xMsOSqoGk+8tx/nJo2nR6Zp/lzTLOziLFBJKz7uxZiSLqRupzV9oS7G1GQ5cmfLOZ7h&#xA;XL/kmGyAyxFAD8fFlWk3X/OQYjaC21nTdJjmIZlt4BcSA07CWORfb7WHRdtdm6QGGCGbJffX6N/s&#xA;as2mlkNzpGP+U35leYVKeYfNmt38En27aE/UoCT/AJDFoyP9jmafaDWZP7jSiPnO/wDjrV4WCHOQ&#xA;+H4KcaF/zjH5YtOLTWELuOr3Uj3DH/YD91+GQke2M/15Y4o90ef2D/fIOqwR5Ayeg6R+Vvl/TohF&#xA;EBHGKfuraNLdNv8AJUHKR7NRmeLPknkl+O+z9rXLtKX8IAZBa+W9DtaGKzjLD9px6h/4flmzwdj6&#xA;XF9OOPx3++3Fnq8kuckyVVUAKAAOgGwzZAAbBx3YVdirsVYx538nWWv6bOrQJLK0ZSWFh8M0ZG6N&#xA;7+BzRdr9mHJWbD6c8NwR1r9Pd8nO0mq4Dwy+gvnzyY+oflh5rbSLlmXQb+49XR7568Yrg/C1tP8A&#xA;ylx8Pv8ASaa7V6o66EdVi21eAfvId8R/EB3c7HPeugvZeGADA/RLk+mtG1uz1W2EsLcZQP3sJPxI&#xA;f6eBze9ndpY9VDij9XUdR+O902fTyxmjyTDNi0OxV2KuxV2KqN5DPNbvFBMbeRhQShQxHyByjUY5&#xA;zgYxlwE9ebPHIA2RbBdY/KwaopgvbiO8tncPKk6vRyDX41qwcd6NtnKR9nNRjycePL6v51er4c9/&#xA;OwXaDtGFUYsp8v8AljT9FhCwqHm4hTKQBRR0VFH2Vzedm9kY9LZ+rIecj+NnC1Gqll8h3Jvm2cV2&#xA;KuxV2KuxV2KuxV2KuxVzKrCjAEHscBAPNULJpWlyf3lnA/8ArRof1jMaWhwS5wgf80NgzTHIn5tL&#xA;o+kKarY26nxESD+GRHZ+nHLHD/Sj9STnyH+I/NExxxxjjGgQeCgAfhmVGEYigKaySea7JIdirsVd&#xA;irsVdirsVdirsVY35p8i6Tr8UizRpymHGZJEEkUo/wAtD+vNH2h2LHLPxcUjizD+Ifjn5ubp9YYD&#xA;hI4opZov5eXWmCEQX/1ZbccYvT5uQo6LVyNvY/LNXg9nM4y+KcvDO+cR/Z8XIydoQMeHhsebNY1d&#xA;Y1V25uAAz0pU+NM66AIABNl1Z57Lskh2KuxV2KuxV2KuxV2KuxV2KuxV2KuxV2KuxV2KuxV2KuxV&#xA;2KuxV2KuxV2KuxV2KuxV2KuxV2KuxV2KuxV2KsU/5WPo4ltYmtrmOS99F7YS/V4g0FyWEMwaSZFo&#xA;/BqR19XY/BiqBb84vKiQCd1nEfw1o1s5Hqenw+FJ2ZiTMoKqCy9XCjfFUXN+Z2gQ2aXLw3BaaL6x&#xA;bwR+hK8sS8vUZGileKkfACSrjiWQHd1BVVpvzF8vQXaWV161ve0Y3NvIq8rfg6qfWZWZFHAtKCGI&#xA;MaO3bFVGD80fK831cn6xEtwSoeSIqqOHljEchqQjM9uyivUlf51qqj5/OVlG0nCyvJ4o2hhM0cal&#xA;PrFysbwwbup5MJ0+Mj0wTQuDXFUIPzJ8tC5SzlM8F+9xBaJZyR/vWmuLhrYqoBZX9J42MhUkKo5d&#xA;CCVWVYq7FXYq7FXYq7FXYq7FXYq7FXYq7FXYq7FXYq7FXYq7FXYq7FXYql3mS+uNP8u6pf23H6xa&#xA;Wc88PMcl5xRM68hUVFRirxyx/M7WLprT0vNJmubtkrpSWsKzRRS+lxczvbCFmAnQvHtTfiz0HIIY&#xA;9N+dvnpLK+uI7qa5+qvEtYY7QiP1EDnnzt0Dbn04wWRmkVlKptVVXT86fOskiLFeTBjatcKJYYOE&#xA;tFJWWOttE7REio2UsgY8l44q9Wj/AOVb/VW9P1vq37vnx+v8fq9T6XKn/Hj9rhX9x1p3wpV9S/5V&#xA;n+ibX679W+ofV4/qdOdfQ5rx4cPj+1TnTeleW1cVXXH+A/0Yn1z1/qv1C79L6z9e9b6lzt/rHH1f&#xA;33Hn6FKb9OPfFUPF/wAqt9KXn6Pqc/8ASPrnrfW+XCXlz+sf6R9j1ede3Pl+1irVj/yqf9A3f1T6&#xA;n+heM31z7fpU+qx+tz5f8u/Dl/zVXFVS5/5V160vr+py5Jz/AN7OHr0X0eNPh+tcfT9Hj+948OHw&#xA;8cVRFh/yrv8AcfVvq/r+qvo+pz+s+t9ZTl/e/vuf1nj6td+X298VZZirsVdirsVdirsVdirsVdir&#xA;sVdirsVdirsVdirsVdirsVdirsVdiqT+cvqf+ENc+vet9S/R919a+rU9f0vQbn6XLbnxrxr3xV8q&#xA;6r/jz/lV1h9b/wASf4X5xfVOH1X61+z6HLj+99Ovp+nX4a8OO/HFUdY/Xv0voPP616f6LPH1/U+r&#xA;cvqaV+v8P3n1uv8ANt6vKm2Koe/r/grX/r3170v0hc+t6Pq/pT0/Xt/U+o0/c/Vaf3XP9j1KbVxV&#xA;/9k=</xmpGImg:image>
               </rdf:li>
            </rdf:Alt>
         </xmp:Thumbnails>
      </rdf:Description>
      <rdf:Description rdf:about=""
            xmlns:xmpMM="http://ns.adobe.com/xap/1.0/mm/"
            xmlns:stRef="http://ns.adobe.com/xap/1.0/sType/ResourceRef#"
            xmlns:stEvt="http://ns.adobe.com/xap/1.0/sType/ResourceEvent#">
         <xmpMM:OriginalDocumentID>uuid:9E3E5C9A8C81DB118734DB58FDDE4BA7</xmpMM:OriginalDocumentID>
         <xmpMM:DocumentID>xmp.did:601E35630F206811822A8451A1857300</xmpMM:DocumentID>
         <xmpMM:InstanceID>xmp.iid:601E35630F206811822A8451A1857300</xmpMM:InstanceID>
         <xmpMM:RenditionClass>proof:pdf</xmpMM:RenditionClass>
         <xmpMM:DerivedFrom rdf:parseType="Resource">
            <stRef:instanceID>xmp.iid:0080117407206811822A8451A1857300</stRef:instanceID>
            <stRef:documentID>xmp.did:0080117407206811822A8451A1857300</stRef:documentID>
            <stRef:originalDocumentID>uuid:9E3E5C9A8C81DB118734DB58FDDE4BA7</stRef:originalDocumentID>
            <stRef:renditionClass>proof:pdf</stRef:renditionClass>
         </xmpMM:DerivedFrom>
         <xmpMM:History>
            <rdf:Seq>
               <rdf:li rdf:parseType="Resource">
                  <stEvt:action>saved</stEvt:action>
                  <stEvt:instanceID>xmp.iid:F77F117407206811822A8451A1857300</stEvt:instanceID>
                  <stEvt:when>2013-10-06T17:09:14+13:00</stEvt:when>
                  <stEvt:softwareAgent>Adobe Illustrator CS6 (Macintosh)</stEvt:softwareAgent>
                  <stEvt:changed>/</stEvt:changed>
               </rdf:li>
               <rdf:li rdf:parseType="Resource">
                  <stEvt:action>saved</stEvt:action>
                  <stEvt:instanceID>xmp.iid:601E35630F206811822A8451A1857300</stEvt:instanceID>
                  <stEvt:when>2013-10-06T18:06:01+13:00</stEvt:when>
                  <stEvt:softwareAgent>Adobe Illustrator CS6 (Macintosh)</stEvt:softwareAgent>
                  <stEvt:changed>/</stEvt:changed>
               </rdf:li>
            </rdf:Seq>
         </xmpMM:History>
      </rdf:Description>
      <rdf:Description rdf:about=""
            xmlns:xmpTPg="http://ns.adobe.com/xap/1.0/t/pg/"
            xmlns:stDim="http://ns.adobe.com/xap/1.0/sType/Dimensions#"
            xmlns:xmpG="http://ns.adobe.com/xap/1.0/g/">
         <xmpTPg:NPages>1</xmpTPg:NPages>
         <xmpTPg:HasVisibleTransparency>False</xmpTPg:HasVisibleTransparency>
         <xmpTPg:HasVisibleOverprint>False</xmpTPg:HasVisibleOverprint>
         <xmpTPg:MaxPageSize rdf:parseType="Resource">
            <stDim:w>209.999929</stDim:w>
            <stDim:h>210.001308</stDim:h>
            <stDim:unit>Millimeters</stDim:unit>
         </xmpTPg:MaxPageSize>
         <xmpTPg:PlateNames>
            <rdf:Seq>
               <rdf:li>Cyan</rdf:li>
               <rdf:li>Magenta</rdf:li>
               <rdf:li>Yellow</rdf:li>
               <rdf:li>Black</rdf:li>
            </rdf:Seq>
         </xmpTPg:PlateNames>
         <xmpTPg:SwatchGroups>
            <rdf:Seq>
               <rdf:li rdf:parseType="Resource">
                  <xmpG:groupName>Default Swatch Group</xmpG:groupName>
                  <xmpG:groupType>0</xmpG:groupType>
               </rdf:li>
            </rdf:Seq>
         </xmpTPg:SwatchGroups>
      </rdf:Description>
      <rdf:Description rdf:about=""
            xmlns:pdf="http://ns.adobe.com/pdf/1.3/">
         <pdf:Producer>Adobe PDF library 10.01</pdf:Producer>
      </rdf:Description>
      <rdf:Description rdf:about=""
            xmlns:xmpRights="http://ns.adobe.com/xap/1.0/rights/">
         <xmpRights:Marked>True</xmpRights:Marked>
         <xmpRights:WebStatement rdf:resource="http://www.ospreydawn.com"/>
         <xmpRights:UsageTerms>
            <rdf:Alt>
               <rdf:li xml:lang="x-default">This work is licensed under a &lt;a rel="license" href="http://creativecommons.org/licenses/by-nc-sa/3.0/"&gt;Creative Commons Attribution-NonCommercial-ShareAlike 3.0 Unported License&lt;/a&gt;.</rdf:li>
               <rdf:li xml:lang="en_us">This work is licensed under a &lt;a rel="license" href="http://creativecommons.org/licenses/by-nc-sa/3.0/"&gt;Creative Commons Attribution-NonCommercial-ShareAlike 3.0 Unported License&lt;/a&gt;.</rdf:li>
               <rdf:li xml:lang="en">This work is licensed under a &lt;a rel="license" href="http://creativecommons.org/licenses/by-nc-sa/3.0/"&gt;Creative Commons Attribution-NonCommercial-ShareAlike 3.0 Unported License&lt;/a&gt;.</rdf:li>
            </rdf:Alt>
         </xmpRights:UsageTerms>
      </rdf:Description>
      <rdf:Description rdf:about=""
            xmlns:cc="http://creativecommons.org/ns#">
         <cc:attributionName>Max O'Brien / Osprey Dawn</cc:attributionName>
         <cc:license rdf:resource="http://creativecommons.org/licenses/by-nc-sa/3.0/"/>
      </rdf:Description>
   </rdf:RDF>
</x:xmpmeta>
                                                                                                    
                                                                                                    
                                                                                                    
                                                                                                    
                                                                                                    
                                                                                                    
                                                                                                    
                                                                                                    
                                                                                                    
                                                                                                    
                                                                                                    
                                                                                                    
                                                                                                    
                                                                                                    
                                                                                                    
                                                                                                    
                                                                                                    
                                                                                                    
                                                                                                    
                                                                                                    
                           
<?xpacket end="w"?>
	</metadata>
<g id="Layer_2">
	<g id="_x37_Wl2mV_1_">
	</g>
</g>
<g id="Layer_1_1_">
	<g>
		<path fill="#EAB409" d="M332.904,72.954c-3.729,1.761-10.043,6.714-11.822,14.652c-2.957-2.572-5.594-4.511-7.852-6.171
			c-3.209-2.362-5.332-3.922-6.564-5.882c-1.792-2.854-2.514-5.044-3.213-7.163c-0.925-2.809-1.973-5.981-5.16-8.435l-4.258-3.267
			l-4.256,3.267c-3.189,2.448-4.237,5.627-5.161,8.436c-0.698,2.119-1.421,4.31-3.215,7.162c-1.23,1.959-3.354,3.52-6.564,5.881
			c-2.257,1.66-4.895,3.6-7.852,6.172c-1.775-7.938-8.092-12.896-11.82-14.652c-10.973-3.104-15.729,5.604-15.729,5.604
			c5.188,0.384,6.963,4.64,6.963,4.64c0.021,0.041,2.684,4.271,1.98,8.223c-0.388,2.201-6.092,8.771-19.746,17.02
			c-9.854,5.952-21.027,15.854-20.015,39.771c0.63,14.792,11.688,23.313,20.521,27.786c-2.171,2.556-4.563,5.72-6.938,9.526
			c-6.326,10.16-10.247,20.682-11.168,23.266c-2.062,3.651-8.341,10.729-12.812,15.409c-15.729,3.412-58.303,25.506-60.903,65.88
			c-1.76,27.282-27.577,123.754-41.448,175.583c-5.626,21.025-9.344,34.915-10.215,39.271c-2.473,12.356-14.3,20.839-14.398,20.909
			l-13.812,9.604L74,538.45c0.487,0.089,1.025,0.14,1.603,0.14c4.914,0,13.216-3.087,24.854-17.774
			c10.074-12.713,18.811-19.604,36.062-19.604c5.301,0,11.386,0.692,18.084,2.069c7.848,1.61,17.851,3.854,29.434,6.443
			c38.666,8.659,91.617,20.516,117.396,20.516c24.381,0,68.892-10.543,104.649-19.014c13.083-3.103,25.439-6.028,34.779-7.945
			c6.698-1.377,12.783-2.07,18.085-2.07c17.257,0,25.987,6.893,36.062,19.604c11.64,14.688,19.938,17.773,24.854,17.773l0,0
			c0.573,0,1.111-0.051,1.604-0.139l16.356-2.996l-13.604-9.604c-0.117-0.085-11.946-8.562-14.42-20.924
			c-0.87-4.354-4.587-18.241-10.213-39.271c-13.87-51.829-39.689-148.301-41.452-175.583c-2.604-40.374-45.179-62.468-60.898-65.88
			c-4.474-4.68-10.751-11.751-12.816-15.409c-0.918-2.583-4.839-13.104-11.168-23.266c-2.957-4.75-6.997-8.521-10.954-11.396
			c8.053-4.827,16.597-12.972,17.146-25.923c1.018-23.922-10.159-33.823-20.014-39.771c-13.653-8.25-19.357-14.812-19.745-17.019
			c-0.594-3.338,1.259-7.104,1.979-8.223c0,0,2.867-4.645,9.3-4.645C350.974,78.555,342.795,68.313,332.904,72.954z"/>
		<g>
			<path fill="#FFFFFF" d="M323.489,125.306c0,0,3.494-11.513-9.453-21.578c-12.945-10.067-14.589-13.15-19.312-29.185
				c0,0-0.615,13.978,4.933,23.021c5.55,9.042,17.718,16.305,18.516,25.104l2.65,2.436L323.489,125.306z"/>
			<path fill="#FFFFFF" d="M324.723,126.744c0,0,1.438,9.043-0.208,10.896l8.428,6.164c0,0,1.229,0.407,1.438-1.646
				c0.204-2.055,0.104-8.22-1.747-10.172C330.784,130.033,324.723,126.744,324.723,126.744z"/>
			<path fill="#FFFFFF" d="M300.192,150.813c0,0-0.692,1.079-1.155,1.156c-0.466,0.072-1.771,1.613-0.929,3.005
				c0.851,1.387,2.391,1.851,3.546,0.925c1.156-0.925,2.007-1.694,1.233-2.543c-0.771-0.847-1.771-1.155-1.618-2.081
				C301.422,150.352,300.192,150.813,300.192,150.813z"/>
			<path fill="#FFFFFF" d="M281.156,167.074c0,0,2.774-1.003,5.703,1.155s5.854,2.543,6.704,2.229c0,0-3.622,1.542-6.704-0.462
				c0,0,1.001,1.694,3.931,2.004c0,0-3.082,0.312-5.312-1.002c-2.235-1.311-7.479-0.149-9.639,2.62c0,0,1.393-2.158,4.396-3.468
				c0,0-1.694-0.311-3.235,0.616C276.995,170.772,277.534,167.844,281.156,167.074z"/>
			<path fill="#FFFFFF" d="M302.272,180.251c0,0-3.161,2.854-2.158,3.854c1.004,1.001,2.312,1.541,2.312,1.541l4.471,1.002
				l3.231-2.773l-0.54-1.542l-2.312-3.312L302.272,180.251z"/>
			<path fill="#FFFFFF" d="M297.261,187.263c0,0-2.695,3.931-0.93,5.698c1.771,1.771,2.159,4.315,5.016,3.935
				c2.85-0.385,9.938,1.927,9.779-2.394c-0.147-4.312-3.542-4.854-4.854-5.158c-1.312-0.312-5.854-2.697-5.854-2.697
				L297.261,187.263z"/>
			<path fill="#FFFFFF" d="M298.108,117.061c0,0,2.006,0.385,2.621,1.311c0.618,0.924-0.692,0.692-1,1.542
				c-0.312,0.852,0.689,5.239,0.77,9.863s-0.615,11.25,2.936,11.021l1.85-12.021l0.925-7.859v-2.62l-1.388-1.542L298.108,117.061z"
				/>
			<path fill="#FFFFFF" d="M305.122,170.001c0,0,4.315-3.005,9.021-1.85c0,0-2.618,0.077-3.395,0.849c0,0,4.086,0.23,7.629,2.233
				c3.545,2.004,6.781,5.312,8.095,11.713c1.312,6.396,2.154,14.797,2.853,18.881s2.469,12.945,2.469,12.945l3.854,7.783
				l0.462-2.393l-1.618-9.17l-1.851-22.189l-3.472-11.406l-3.931-9.786l-6.629-0.771c0,0-3.08-1.849-7.706-0.848
				C306.277,166.996,305.122,170.001,305.122,170.001z"/>
			<path fill="#FFFFFF" d="M332.325,184.643l1.002,12.715c0,0,3.157,3.237,10.634,6.319c7.479,3.077,15.876,16.486,15.876,16.486
				l-2.391-13.021c0,0-11.715-13.104-15.798-15.413C337.566,189.42,333.096,185.799,332.325,184.643z"/>
			<path fill="#FFFFFF" d="M357.987,199.671c0,0,14.333,14.41,17.953,21.271c3.624,6.854,7.938,13.021,7.938,13.021l-4.546,8.398
				c0,0-3.005,1.157-4.548-2.773c-1.54-3.93-2.388-4.007-1.618-6.474c0.771-2.466-0.148-3.159-0.148-3.159s-0.231-1.465-1.854-3.771
				c-1.619-2.312-9.709-15.263-11.327-16.568C358.219,208.304,357.987,199.671,357.987,199.671z"/>
			<path fill="#FFFFFF" d="M375.171,251.225c0,0,5.013,9.319,4.938,13.021c-0.078,3.698,2.156-4.162,2.156-4.162
				s-0.93-10.321-4.239-12.562L375.171,251.225z"/>
			<path fill="#FFFFFF" d="M304.737,233.038c0,0-5.396,0.771-5.086,4.16c0.311,3.392,0,10.327-1.849,12.946
				c-1.854,2.621-2.621,4.47-2.011,5.854c0.618,1.392,4.013,5.396,4.013,5.396l9.094-2.158l2.465-6.473l-0.462-14.185
				L304.737,233.038z"/>
			<path fill="#FFFFFF" d="M335.408,234.58c0,0-1.696,11.25-8.94,24.196c-7.236,12.946-8.317,14.487-8.317,14.487l6.314-1.695
				l8.479-11.562l6.474-18.958l-0.311-5.235L335.408,234.58z"/>
			<path fill="#FFFFFF" d="M264.665,224.87c0,0,15.726,37.451,23.271,42.691c7.555,5.235,6.013,0.462,13.41,0.462l-7.861-4.937
				l-9.556-23.114l-11.868-24.51L264.665,224.87z"/>
			<path fill="#FFFFFF" d="M312.134,275.421c0,0,0.615-1.079,1.54,3.396c0.93,4.47,0.93,36.373-5.086,44.542l29.439-32.367
				c0,0-0.618-18.031-4.16-17.724C330.322,273.572,312.134,275.421,312.134,275.421z"/>
			<path fill="#FFFFFF" d="M312.444,331.06c0,0,3.545,9.401,2.621,12.33l22.501-27.896c0,0-1.081-8.477-4.623-9.858L312.444,331.06z
				"/>
			<path fill="#FFFFFF" d="M301.5,364.047l-0.148,63.031c0,0,41.92-33.902,59.021-67.812c0,0-7.552-48.24-13.562-47.315
				L301.5,364.047z"/>
			<path fill="#FFFFFF" d="M326.004,487.803c0,0-0.925,1.229-1.387,4.772c-0.464,3.546-1.851,22.193,3.396,23.895l22.034-3.546
				c0,0,3.551-1.232,1.54-9.561c-2.003-8.317-1.387-13.871-0.925-15.721c0.463-1.85-3.698-2.004-3.698-2.004L326.004,487.803z"/>
			<path fill="#FFFFFF" d="M338.644,412.744c0,0,2.927,47.938-6.782,67.044l5.086,1.854l8.17-7.552l6.781-37.452l-4.313-20.652
				L338.644,412.744z"/>
			<path fill="#FFFFFF" d="M355.288,389.319c0,0,21.424,6.78,5.856,81.688l8.632-4.475l4.934-37.761l-2.006-27.741l-5.393-14.951
				L355.288,389.319z"/>
			<path fill="#FFFFFF" d="M361.608,365.12c0,0,26.047-9.094,27.896-30.819l1.854,9.248l0.311,9.396l-10.79,12.331l-10.938,3.236
				L361.608,365.12z"/>
			<path fill="#FFFFFF" d="M182.312,327.516c0,0-7.191,24.249-10.273,35.963c-3.083,11.714-35.347,82.814-35.347,82.814
				l-7.396,2.261c0,0,4.313-11.507,8.224-29.186c3.9-17.673,11.098-41.716,11.098-41.716l14.591-36.578L182.312,327.516z"/>
			<path fill="#FFFFFF" d="M418.016,330.599c0,0,2.057,25.271,6.578,38.223c4.521,12.945,13.562,41.716,13.562,41.716l11.508,16.234
				c0,0-0.405-27.538-2.88-40.277c-2.465-12.735-20.958-48.498-20.958-48.498L418.016,330.599z"/>
			<path fill="#FFFFFF" d="M149.843,283.746c0,0,4.11-6.576,7.192-8.632c3.083-2.054,14.385-13.15,17.467-19.11
				c3.083-5.959,18.29-12.736,18.29-12.736s0.411,14.795,4.937,21.372c0,0-5.96-18.703,0.405-28.772l-4.521-0.614l-11.508,4.729
				l-16.027,13.976l-9.864,10.273L149.843,283.746z"/>
			<path fill="#FFFFFF" d="M446.175,283.54c0,0-4.109-6.576-7.193-8.631c-3.083-2.056-14.383-13.152-17.467-19.111
				c-3.083-5.959-18.289-12.737-18.289-12.737s-0.411,14.796-4.938,21.372c0,0,5.962-18.703-0.411-28.771l4.521-0.615l11.507,4.729
				l16.029,13.975l9.865,10.273L446.175,283.54z"/>
			<polygon fill="#FFFFFF" points="341.109,134.091 341.109,139.486 342.805,143.338 340.956,154.281 341.265,172.469 
				353.901,169.077 364.844,159.675 370.392,140.564 365.462,126.54 355.75,117.446 340.34,105.887 331.555,101.417 
				334.945,108.507 338.491,112.206 343.42,117.446 348.046,125.306 348.971,129.776 346.503,134.245 			"/>
			<polygon fill="#FFFFFF" points="246.016,133.937 246.016,139.332 244.321,143.185 246.169,154.127 245.862,172.314 
				233.224,168.923 222.282,159.521 216.733,140.41 221.665,126.385 231.375,117.292 246.787,105.732 255.571,101.263 
				252.181,108.353 248.636,112.052 243.705,117.292 239.081,125.152 238.156,129.622 240.622,134.091 			"/>
		</g>
		<g>
			<path fill="#2A0051" d="M292.026,492.514c-0.134,2.812-0.896,13.642-0.801,16.455c0.104,3.082-0.312,4.931-0.93,5.137
				c0,0,8.843,1.132,12.438,0.617c2.841-0.405,1.129-15.624,0.285-21.996C299.204,492.717,295.539,492.635,292.026,492.514z"/>
			<path fill="#2A0051" d="M502.957,506.302c-3.084-15.413-49.314-177.556-51.779-215.772
				c-2.471-38.222-46.854-59.183-57.338-59.799c0,0-12.532-12.741-15.819-19.11c0,0-3.903-11.509-10.688-22.396
				C360.55,178.329,346.37,173.4,346.37,173.4s25.274-6.165,26.098-25.48c0.824-19.312-6.776-27.536-16.645-33.496
				c-9.864-5.959-21.783-14.796-23.016-21.777c-1.233-6.987,3.081-13.358,3.081-13.358s-7.397,3.494-8.226,11.304
				c-0.817,7.812,1.854,15.207,9.657,21.576c7.812,6.371,14.592,20.145,6.167,20.962c0,0-2.956-12.125-15.966-28.562
				c-13.013-16.439-22.259-18.084-26.775-25.276c-4.521-7.188-3.771-11.507-6.718-13.768c-2.944,2.261-2.19,6.574-6.713,13.768
				c-4.521,7.192-13.771,8.836-26.777,25.276c-13.01,16.438-15.965,28.562-15.965,28.562c-8.427-0.817-1.646-14.591,6.164-20.962
				c7.81-6.369,10.479-13.768,9.658-21.576c-0.82-7.81-8.222-11.304-8.222-11.304s4.312,6.371,3.079,13.358
				c-1.229,6.981-13.146,15.818-23.016,21.777c-9.863,5.96-17.468,14.184-16.646,33.496c0.819,19.315,26.101,25.48,26.101,25.48
				s-6.78,4.933-13.562,15.824c-6.777,10.891-10.687,22.396-10.687,22.396c-3.287,6.369-15.823,19.11-15.823,19.11
				c-10.479,0.616-54.867,21.577-57.334,59.799c-2.465,38.228-48.702,200.359-51.784,215.772
				c-3.083,15.412-17.263,25.271-17.263,25.271s6.781,1.232,19.729-15.104c12.943-16.337,26.511-27.127,61.029-20.037
				c34.522,7.09,112.99,26.818,145.425,26.818c32.438,0,103.507-19.729,138.026-26.818c34.522-7.09,48.089,3.7,61.032,20.037
				c12.945,16.336,19.729,15.104,19.729,15.104S506.04,521.715,502.957,506.302z M384.623,231.651c0,0,4.109-0.615,9.043,3.288
				c4.938,3.904,4.729,13.77,4.729,13.77c1.85-6.37-0.409-11.918-0.409-11.918c13.146,3.082,30.824,16.438,38.222,26.92
				c7.397,10.479,10.688,30.002,10.688,30.002c-9.862-0.205-18.493-10.479-20.547-13.562c-2.062-3.083-5.146-5.754-6.374,0
				c-1.233,5.754-5.553,5.754-7.397,3.493c-1.849-2.266-5.959-6.576-10.479-11.308c-4.521-4.727-4.314,1.028-4.314,1.028
				c-1.849,24.659-10.068,31.854-10.068,31.854c11.716-34.111-2.879-58.361-2.879-58.361c-2.259-4.727,2.269-9.248,2.062-11.919
				C386.679,232.267,384.623,231.651,384.623,231.651z M384.211,277.888c0.822-6.165,0.822-23.021,0.207-25.276
				c0,0,5.956,19.521,3.491,35.141c-2.466,15.617-4.727,17.472-4.727,17.472S383.389,284.053,384.211,277.888z M378.408,264.017
				c-1.271,1.271-2.394,2.958-3.323,3.854c0.224-0.834,0.438-1.896,0.527-2.967c0.042-0.569,0.108-1.123,0.084-1.654
				c-0.018-0.525,0.02-1.004-0.054-1.422c-0.101-0.812-0.165-1.354-0.165-1.354s-0.162,0.512-0.408,1.276
				c-0.097,0.379-0.333,0.805-0.517,1.248c-0.104,0.254-0.234,0.513-0.375,0.767c0.147-0.69,0.28-1.472,0.354-2.25
				c0.042-0.571,0.106-1.123,0.084-1.655c-0.021-0.529,0.021-1.004-0.056-1.423c-0.104-0.812-0.165-1.354-0.165-1.354
				s-0.162,0.518-0.407,1.281c-0.1,0.38-0.333,0.801-0.518,1.249c-0.185,0.45-0.459,0.901-0.705,1.35
				c-0.168,0.292-0.351,0.569-0.524,0.841c-0.059-0.488-0.104-0.944-0.156-1.325c-0.311-2.471,2.47-6.165,4.013-7.095
				c1.54-0.925,3.694-7.396,3.694-7.396c2.47,0.771,1.854,3.236,2.312,6.474C382.569,255.694,380.257,262.167,378.408,264.017z
				 M362.139,454.523c0.021-1.021,0.048-2.058,0.062-3.104c1.275-0.312,2.562-0.608,3.831-0.938c0.614,0.35,1.242,0.685,1.863,1.028
				c-0.521,1.911-1.041,3.759-1.562,5.52C364.931,456.213,363.529,455.372,362.139,454.523z M363.652,465.607
				c-0.452,1.355-0.879,2.576-1.258,3.618c-0.375-0.229-0.744-0.461-1.116-0.69c0.088-0.752,0.168-1.557,0.246-2.4
				C362.232,465.963,362.944,465.784,363.652,465.607z M367.057,442.912c-1.651-0.957-3.288-1.936-4.912-2.928
				c-0.026-1.04-0.062-2.062-0.104-3.072c1.329-0.317,2.663-0.632,3.986-0.975c1.643,0.931,3.3,1.831,4.963,2.722
				c-0.229,1.112-0.479,2.229-0.728,3.331C369.198,442.301,368.134,442.619,367.057,442.912z M367.06,428.367
				c-2.006-1.152-3.983-2.354-5.954-3.563c-0.039-0.271-0.074-0.545-0.112-0.809c-0.062-0.434-0.159-0.872-0.24-1.31
				c1.767-0.42,3.526-0.836,5.28-1.291c2.355,1.333,4.739,2.612,7.137,3.869c-0.048,0.46-0.101,0.926-0.151,1.395
				C371.035,427.243,369.056,427.825,367.06,428.367z M365.994,392.313c1.233,1.327,2.401,3.216,3.569,6.271
				c-0.835,0.234-1.667,0.477-2.507,0.699c-2.87-1.662-5.701-3.382-8.5-5.146C361.046,393.567,363.523,392.95,365.994,392.313z
				 M366.849,362.348c0.484-0.34,0.98-0.739,1.479-1.175c0.938,0.521,1.877,1.042,2.818,1.554
				C366.021,364.742,362.679,365.222,366.849,362.348z M366.033,406.852c2.248,1.271,4.523,2.493,6.81,3.696
				c0.062,0.271,0.113,0.526,0.176,0.811c0.048,0.232,0.09,0.479,0.132,0.719c-2.021,0.604-4.047,1.193-6.088,1.749
				c-2.87-1.662-5.701-3.382-8.5-5.146C361.058,408.106,363.55,407.493,366.033,406.852z M346.915,373.758
				c-20.344,26.92-45.21,51.168-45.21,51.168s-31.646-27.536-51.578-55.278c-19.936-27.742-31.438-51.579-31.438-51.579
				s7.396-22.194,10.687-40.483c0,0,8.02,24.253,29.594,43.565c21.575,19.315,42.947,45.825,42.947,45.825
				s23.631-28.564,40.896-48.703c17.263-20.143,23.426-40.481,23.426-40.481s8.633,38.228,13.152,44.393
				C379.383,322.177,367.261,346.831,346.915,373.758z M357.389,401.731c-1.143,0.263-2.287,0.494-3.436,0.74
				c-0.515-1.322-0.98-2.585-1.395-3.775C354.166,399.723,355.774,400.734,357.389,401.731z M344.024,442.109
				c0.997-0.163,1.987-0.353,2.979-0.521c-0.058,0.837-0.126,1.688-0.196,2.549C345.876,443.466,344.943,442.798,344.024,442.109z
				 M345.221,456.44c-0.059,0.321-0.107,0.646-0.165,0.962c-0.35-0.252-0.693-0.496-1.032-0.75
				C344.423,456.591,344.82,456.51,345.221,456.44z M344.024,427.565c0.919-0.15,1.831-0.324,2.747-0.485
				c0.132,0.831,0.232,1.735,0.312,2.718C346.062,429.055,345.036,428.317,344.024,427.565z M336.32,465.26
				c-2.655-2.127-5.282-4.29-7.854-6.521c1.938-0.203,3.884-0.422,5.812-0.666c2.729,2.146,5.5,4.21,8.302,6.238
				C340.5,464.65,338.413,464.969,336.32,465.26z M339.358,476.484c-0.798,1.333-1.646,2.396-2.506,3.236
				c-0.183,0.021-0.354,0.056-0.532,0.08c-2.655-2.127-5.282-4.29-7.854-6.521c1.938-0.202,3.884-0.422,5.812-0.666
				C335.954,473.935,337.653,475.219,339.358,476.484z M336.323,450.719c-2.655-2.127-5.282-4.29-7.855-6.521
				c1.938-0.202,3.884-0.422,5.812-0.666c2.729,2.146,5.5,4.211,8.302,6.238C340.5,450.107,338.416,450.426,336.323,450.719z
				 M336.323,436.175c-2.28-1.825-4.535-3.688-6.755-5.584c0.243-0.386,0.499-0.76,0.739-1.141c1.318-0.146,2.646-0.296,3.969-0.463
				c2.729,2.146,5.5,4.211,8.302,6.238C340.5,435.564,338.416,435.884,336.323,436.175z M329.568,416.048
				c0.243-0.386,0.499-0.76,0.739-1.141c0.171-0.02,0.342-0.037,0.51-0.057c-0.284,0.507-0.566,1.018-0.857,1.521
				C329.83,416.262,329.698,416.154,329.568,416.048z M336.32,421.631c-0.284-0.229-0.566-0.457-0.854-0.688
				c0.759-1.287,1.506-2.575,2.229-3.873c1.615,1.229,3.24,2.431,4.88,3.617C340.5,421.021,338.413,421.339,336.32,421.631z
				 M326.698,480.978c-0.435,0.045-0.872,0.076-1.309,0.117c0.081-0.312,0.148-0.657,0.223-1.048
				C325.974,480.356,326.332,480.676,326.698,480.978z M326.062,422.27c0.084,0.07,0.168,0.141,0.252,0.213
				c-0.078,0.126-0.155,0.249-0.233,0.376C326.074,422.659,326.068,422.465,326.062,422.27z M326.539,466.448
				c0-0.05,0-0.099,0.003-0.146c0.057,0.043,0.104,0.088,0.155,0.132C326.644,466.438,326.59,466.442,326.539,466.448z
				 M326.641,451.896c0-0.019,0-0.036,0-0.055c0.019,0.017,0.036,0.035,0.057,0.05C326.677,451.894,326.659,451.894,326.641,451.896
				z M326.449,437.368c-0.004-0.078-0.007-0.151-0.007-0.229c0.084,0.064,0.171,0.143,0.255,0.214
				C326.614,437.357,326.53,437.363,326.449,437.368z M228.446,239.768c2.262,0.72,5.755,0.206,5.755,0.206
				s-1.645,2.671-2.568,5.959c-0.925,3.288-5.753,8.014-3.802,5.137C229.782,248.192,228.446,239.768,228.446,239.768z
				 M245.091,270.181c6.771,15.621,16.646,24.655,27.126,34.37c8.312,7.703,24.812,22.348,24.812,22.348s-2.158-27.125-0.463-48.396
				c0,0-28.357-2.312-41.149-18.957c-4.396-5.724-6.206-11.892-6.735-17.406c0.234-0.016,0.477-0.031,0.713-0.062
				c0.467,3.806,1.554,7.76,3.716,11.303c7.243,11.867,25.584,23.119,50.244,23.119s34.831-1.388,44.541-10.479
				c9.709-9.097,8.938-23.581,8.938-23.581s3.235,11.713,0.151,18.804c-3.083,7.09-16.338,24.968-28.512,37.146
				c-12.182,12.175-30.208,35.14-30.208,35.14s-25.436-25.122-35.604-35.448s-19.479-22.086-22.501-38.064
				c-2.055-10.854,1.894-26.863,2.278-28.388c0.02-0.074,0.027-0.128,0.027-0.128s-0.014,0.055-0.027,0.128
				C242.019,233.281,237.429,252.5,245.091,270.181z M305.971,156.594c2.002,2.359,0.513,5.441,0.513,5.441
				c0.722-2.312-5.599-3.135-5.599-3.135c-1.285,0.926-5.035,0.564-7.096-0.204c-2.057-0.77-1.592-3.34-1.484-4.778
				c0.102-1.438,1.387-2.104,1.387-2.104c0-1.13-0.874-3.03-0.874-3.03c5.29-0.771,7.089,0,8.118,0c1.022,0,1.799-1.229,1.799-1.229
				s-0.155,0.72,1.388,0.562c1.54-0.154,2.521-2.672,2.521-2.672s1.438,1.284,1.543,3.597c0.104,2.312-1.08,3.288-2.365,3.494
				S303.965,154.23,305.971,156.594z M305.301,120.066c-1.021-0.821-2.979-0.719-2.979-0.719c2.262,1.13,2.828,2.979,2.828,2.979
				s-2.521,19.604-2.876,21.73c-0.359,2.153-2.728,2.153-2.728,2.153s-7.349,0-8.89,0s-2.004-1.849-2.004-1.849l-2.929-24.813
				c0,0-0.153-0.818,2.004-1.645s9.762-0.822,13.974-0.412C305.917,117.908,305.301,120.066,305.301,120.066z M290.711,159.625
				c0,0-1.152,0.438-1.799,0c-0.643-0.438-2.285-0.462-2.285-0.462s-0.482-3.004,2.439-3.75
				C289.068,155.412,288.554,158.187,290.711,159.625z M288.222,167.947c0.583-0.513,0.772-2.261,0.772-2.261
				c0.703,0.083,1.278,0.256,1.76,0.463c0.079,0.115,0.165,0.23,0.271,0.354c0.773,0.931,0.292,1.542,0.973,2.06
				c0,0,2.296,1.13,4.992,1.13c2.694,0,4.92-1.13,4.92-1.13c0.687-0.518,0.194-1.129,0.978-2.06
				c0.771-0.924,0.583-1.646,3.594-2.055c1.793-0.245,5.062-0.446,8.23,0.052c2.621,1.354,11.513,6.656,14.812,17.729
				c3.885,13.048,3.396,33.085,6.021,38.839c0,0-3.594-6.78-4.662-14.591c-1.064-7.812-2.523-11.507-2.523-11.507
				s0.392,4.932,0.392,7.5c0,2.564,2.037,15.207,7.868,24.45c0,0-7.383-9.041-9.327-21.885c-1.938-12.845-1.064-21.783-4.08-26.511
				c-3.013-4.729-5.345-5.342-5.345-5.342s4.471,4.829,5.345,9.042c0.874,4.212,1.229,19.193,2.333,24.862
				c1.219,6.229,4.164,16.926,15.714,28.521c-4.785-1.938-10.945-6.012-14.854-14.599c-7.145-15.726-8.308-30.979-11.223-33.755
				c0,0,2.229,0.562,2.478,0.979c0,0-1.357-3.854-5.975-6.113c-4.617-2.26-2.576-4.773-3.498-6.729c0,0-0.378,0.979-0.633,1.542
				c-0.279,0.614-1.014,0.771-1.014,0.771s-3.646,0.853-9.583,0.853c-5.937,0-9.584-0.54-10.191-0.93
				c-0.611-0.385-0.396-0.688-0.396-0.688c0.243-0.564-0.631-1.542-0.631-1.542c-0.923,1.953,1.117,4.472-3.498,6.729
				c-4.614,2.266-5.977,6.113-5.977,6.113c0.238-0.411,2.478-0.977,2.478-0.977c-2.279,2.171-3.489,11.979-7.328,23.679
				l-0.188-0.457c-3.206,6.474-13.508,18.393-13.508,18.393c4.472-5.343,6.993-11.508,9.812-17.36
				c2.818-5.856,4.762-17.774,4.762-17.774c-1.81,8.314-8.065,20.938-10.395,25.445c2.046-4.475,4.054-12.617,5.244-19.896
				c1.354-8.322,4.178-17.364,4.178-17.364s-3.596,5.142-5.345,16.748c-1.019,6.729-3.231,12.517-4.922,16.198
				c3.135-9.334,3.188-27.558,4.82-34.282c1.941-8.014,10.104-13.77,15.062-14.482C285.89,165.379,288.222,167.947,288.222,167.947z
				 M315.371,156.799c-0.411-2.004-2.562-4.624-2.562-4.624c0.462-4.104-1.285-6.062-1.285-6.062
				c6.981,1.747,13.147,5.344,13.147,5.344s-1.229,0.925-3.027,3.134c-1.803,2.209-4.679,5.604-5.034,6.371
				c-0.359,0.771-2.106,0.563-2.106,0.563S315.782,158.803,315.371,156.799z M333.648,177.708c0,0,3.879,9.083,2.915,15.104
				c-1.604,10.019,1.896,25.431,1.896,25.431c-3.206-3.083-4.52-22.811-5.102-30.824c-0.582-8.015-2.771-11.098-2.771-11.098
				c0.146-0.462-0.586-2.619-0.586-2.619c1.605-0.155,3.501-2.771,3.501-2.771c5.396,4.156,6.995,18.952,7.438,23.73
				c0.436,4.777,0,6.627,2.769,14.646c2.771,8.015,4.957,16.024,4.957,16.024c-1.751-2.62-6.853-4.471-9.328-12.33
				c0,0-2.042-9.859-1.312-17.878C338.749,187.109,335.69,179.404,333.648,177.708z M263.278,230.109c0,0,4.777-4.776,6.781-9.093
				c0,0,4.312,18.495,12.479,29.592s9.71,17.569,16.955,17.569c7.24,0,7.24,3.231,11.101,2.466
				c3.852-0.771,9.709-7.397,14.18-16.646c4.468-9.248,7.854-19.106,7.854-19.106s3.699,2.312,5.09,2.466
				c0,0-3.394,16.954-16.186,32.979c0,0-2.312,2.003-17.416,2.003c-15.104,0-19.268-3.391-21.426-7.552
				C280.54,260.626,263.741,235.967,263.278,230.109z M273.142,262.475c0,0-12.946-22.656-14.185-24.354
				c0,0-0.611-0.924,0.312-2.619C259.271,235.504,270.83,257.235,273.142,262.475z M284.165,186.03c0,0,3.062,1.079,1.821,1.542
				c-1.239,0.464-1.166,2.312-1.094,2.929c0.068,0.617,0.651,1.002,2.108,0c1.459-1.001,5.763-2.39,8.969-2.312
				c3.207,0.078,7.576,0.689,8.23,1.312c0.656,0.615,2.695,0.692,3.135,0.312c0.438-0.39,3.206-2.543,4.08-2.933
				c0.876-0.386,0-1.691,0-1.691c1.974,1.691,2.188,5.774,2.557,9.397c0.358,3.622-0.946,3.544-0.946,3.544
				s-3.28-1.151-13.339-1.771c-10.062-0.617-18.146,3.159-18.146,3.159s1.529-5.316,2.259-7.09
				C284.529,190.654,284.165,186.03,284.165,186.03z M285.696,183.411c0,0,2.771-1.002,3.278-2.62c0,0,4.592,0.771,8.381,0.693
				c3.791-0.078,9.397-1.387,9.397-1.387s0.363,2.388,2.696,3.005c0,0-3.646,1.926-3.864,2.465c-0.216,0.54-5.242-2.62-10.349-2.156
				c-5.101,0.462-7.067,1.694-7.067,1.694L285.696,183.411z M309.361,246.138c0.152,4.007,2.62,9.709-4.933,11.714
				c-7.556,2.003-8.938-5.396-10.639-8.631c-1.692-3.236-3.232-7.397,0.771-11.867c4.005-4.469,10.019-3.699,10.019-3.699
				C310.594,235.35,309.208,242.131,309.361,246.138z M316.142,254.307c4.312-4.625,12.637-23.432,12.637-23.432
				C321.691,252.611,316.142,254.307,316.142,254.307z M276.327,152.021c-1.746,4.007-3.904,11.199-3.904,11.199
				c-0.206-1.439-3.488-3.904-5.549-5.034c-2.057-1.13-4.623-4.007-4.623-4.007c1.854-1.027,6.164-6.062,10.378-7.192
				c4.213-1.13,6.164,0.104,6.164,0.104S278.074,148.014,276.327,152.021z M265.29,174.009c0,0-0.729,2.158-0.583,2.62
				c0,0-2.188,3.083-2.771,11.102c-0.583,8.016-1.896,27.743-5.104,30.822c0,0,3.498-15.409,1.896-25.432
				c-0.964-6.021,2.915-15.104,2.915-15.104c-2.04,1.691-5.104,9.397-4.372,17.417c0.729,8.014-1.312,17.878-1.312,17.878
				c-2.479,7.855-7.579,9.71-9.328,12.329c0,0,2.188-8.019,4.956-16.029c2.771-8.014,2.332-9.863,2.771-14.641
				c0.438-4.778,2.04-19.575,7.435-23.735C261.792,171.235,263.686,173.855,265.29,174.009z M250.639,225.023
				c0,0-0.77,2.646-1.223,6.58c-0.171,0.303-0.346,0.604-0.521,0.919C249.516,227.986,250.639,225.023,250.639,225.023z
				 M358.218,276.963c0,0-1.438,15.412-12.736,27.946c-11.309,12.536-43.564,54.252-43.564,54.252s-18.289-24.045-35.758-39.655
				c-17.468-15.617-32.263-31.854-28.975-53.021c0,0,10.063,26.92,26.92,40.689c16.852,13.768,38.017,38.222,38.017,38.222
				s16.232-19.316,27.535-33.701C340.956,297.307,355.135,286.416,358.218,276.963z M235.432,236.789
				c-1.231,0.519-3.698-0.412-2.362-1.229c1.336-0.821,3.698-8.734,3.698-8.734c2.057-0.309,3.393,0.822,3.393,0.822
				C238.926,229.081,236.666,236.274,235.432,236.789z M228.446,254.872c0,0,0.31,0.411-0.104,2.06
				c-0.408,1.644-0.2,5.959-0.514,7.188c-0.31,1.232-1.438,0.924-1.438,0.924c1.229-2.671-0.411-8.836-0.411-8.836
				C227.521,255.797,228.446,254.872,228.446,254.872z M226.905,269.976c-0.514,2.564-2.467,11.507-2.261,8.523
				c0.009-0.131,0.015-0.268,0.015-0.4c-0.013-3.033-2.173-7.917-2.173-7.917S227.418,267.406,226.905,269.976z M223,287.032
				c0.411,1.54-2.979,9.246-2.564,7.911s-0.104-8.015-0.104-8.015C221.562,287.443,223,287.032,223,287.032z M220.74,283.641
				c-0.31,0-1.646-0.518-2.158-2.979c-0.514-2.467,0.412-11.812,0.412-11.812c2.567,1.849,3.288,9.966,3.396,12.227
				C222.488,283.334,221.048,283.641,220.74,283.641z M374.09,286.98c2.312,0.462,4.78-0.616,4.78-0.616
				c-0.464,4.316-0.464,17.269-0.926,14.95C377.483,299.007,374.09,286.98,374.09,286.98z M375.015,284.207
				c-1.392,0-1.54-3.083-1.229-5.085c0.306-2.004,1.692-8.938,2.465-9.248c0.771-0.31,3.235-2.004,3.235-2.004
				c1.851,0,2.007,2.157,2.007,2.157s-0.771,7.553-1.389,9.864C379.486,282.204,376.403,284.207,375.015,284.207z M381.182,232.884
				c0.311,2.933-3.396,11.404-5.553,15.104c-1.319,2.27-2.585,4.01-3.361,5.021c0.101-0.271,0.205-0.607,0.312-1.014
				c0.23-0.853,0.463-1.986,0.566-3.12c0.042-0.566,0.104-1.123,0.084-1.651c-0.021-0.53,0.02-1.009-0.054-1.427
				c-0.104-0.812-0.165-1.354-0.165-1.354s-0.162,0.513-0.408,1.281c-0.104,0.38-0.333,0.8-0.521,1.248
				c-0.18,0.445-0.459,0.897-0.705,1.35c-0.021,0.039-0.049,0.076-0.064,0.114c0.188-0.777,0.355-1.706,0.447-2.646
				c0.042-0.566,0.104-1.123,0.084-1.651c-0.021-0.53,0.018-1.009-0.059-1.427c-0.101-0.812-0.165-1.354-0.165-1.354
				s-0.165,0.513-0.407,1.281c-0.101,0.379-0.333,0.8-0.518,1.248c-0.182,0.445-0.46,0.897-0.706,1.35
				c-0.193,0.34-0.398,0.661-0.61,0.969c-0.021-0.178-0.053-0.354-0.066-0.533c-0.462-4.156,3.233-10.321,3.233-10.321
				c3.234-4.624,4.159-11.562,4.159-11.562S380.873,229.956,381.182,232.884z M368.903,202.573c2.673,3.904,4.41,9.53,5.757,12.33
				c1.849,3.854-2.881,16.901-3.646,18.289c-0.531,0.956-2.161,1.985-3.779,1.979c0.123-0.606,0.229-1.271,0.291-1.938
				c0.042-0.569,0.104-1.123,0.084-1.655c-0.021-0.529,0.02-1.005-0.054-1.423c-0.104-0.812-0.165-1.354-0.165-1.354
				s-0.162,0.517-0.408,1.282c-0.104,0.379-0.334,0.8-0.521,1.248c-0.181,0.449-0.46,0.9-0.706,1.354
				c-0.286,0.51-0.607,0.983-0.924,1.417c-0.082-0.095-0.162-0.195-0.244-0.308c0.021-0.062,0.06-0.151,0.111-0.312
				c0.104-0.273,0.213-0.637,0.329-1.062c0.231-0.853,0.464-1.981,0.564-3.115c0.042-0.57,0.106-1.123,0.084-1.656
				c-0.021-0.529,0.02-1.004-0.056-1.422c-0.1-0.812-0.165-1.354-0.165-1.354s-0.165,0.513-0.403,1.28
				c-0.104,0.381-0.333,0.801-0.521,1.248c-0.178,0.451-0.459,0.902-0.702,1.352c-0.327,0.564-0.688,1.098-1.025,1.559
				c-0.023-0.062-0.05-0.119-0.068-0.185c0.016-0.04,0.021-0.062,0.039-0.106c0.104-0.273,0.217-0.642,0.33-1.062
				c0.229-0.854,0.462-1.981,0.562-3.12c0.039-0.566,0.106-1.123,0.081-1.651c-0.02-0.53,0.021-1.004-0.052-1.427
				c-0.1-0.812-0.165-1.354-0.165-1.354s-0.165,0.514-0.408,1.282c-0.1,0.379-0.333,0.8-0.52,1.248
				c-0.178,0.445-0.457,0.897-0.703,1.351c-0.104,0.181-0.213,0.354-0.323,0.528c-0.414-2.401-0.462-4.898,0.186-6.952
				c1.691-5.396-4.161-22.192-4.161-22.192S367.086,199.917,368.903,202.573z M367.876,196.614
				c-1.851-1.694-13.514-4.47-15.825-8.014c-2.312-3.545-5.548-10.479-5.548-10.479
				C361.866,186.134,367.876,196.614,367.876,196.614z M342.375,136.403c0,0,6.478,1.438,7.189-5.754
				c0.722-7.191-3.602-12.536-8.018-17.364c-4.42-4.829-6.885-9.659-6.885-9.659c5.143,8.836,21.892,15.104,26.104,21.063
				s9.446,16.229,3.898,30.002c-5.549,13.77-21.98,15.001-21.98,15.001l0.204-1.232c0,0,16.335-3.083,20.647-15.926
				c4.312-12.844-1.336-21.27-1.336-21.27s3.188,7.09-3.187,17.565c-6.371,10.479-16.028,9.658-16.028,9.658
				c1.646-2.057-0.104-6.062-0.104-6.062c0.615-0.104,0.93-1.336,0.93-1.336s0.103-7.191,0-8.43
				c-0.104-1.229-1.543-1.229-1.543-1.229C342.685,140,342.375,136.403,342.375,136.403z M343.129,180.585
				c0.312-0.817-0.411-6.269-0.411-6.269c3.019,10.635,4.944,11.938,9.801,22.502c5.237,11.405,5.761,19.367,5.854,20.188
				c0.771,6.632,0.614,12.021,0.614,12.021s-0.983-0.542-2.333-1.439c-1.533-5.986-6.027-20.722-8.625-25.857
				c-1.947-3.855-2.759-12.923-2.759-12.923s-0.204,8.22,2.468,15.001c2.669,6.771,5.561,21.229,5.568,21.27
				c-2.149-1.844-4.136-4.121-4.34-6.37c-0.462-5.086-5.699-16.953-5.854-22.04c-0.154-5.086-2.005-13.718-2.005-13.718
				C342.342,182.332,342.82,181.406,343.129,180.585z M340.956,142.774c0,0.822,0,6.062,0,6.062c0,2.363-1.54,0.616-1.54,0.616
				c-10.175-14.745-33.496-18.188-33.496-18.188l0.955-9.247c27.536,6.371,33.877,19.105,33.877,19.105
				S340.956,141.952,340.956,142.774z M286.704,85.234c3.492-2.877,6.165-8.426,6.165-8.426s-2.876,9.042-15.001,19.106
				c-12.124,10.068-22.604,30.62-22.604,30.62c9.041-7.396,27.332-12.33,27.332-12.33c-0.206-4.312,2.466-9.042,8.014-17.878
				c4.455-7.097,4.407-16.837,4.212-20.396c-0.197-0.916-0.103-1.387-0.103-1.387s0.058,0.513,0.103,1.387
				c0.521,2.383,3.038,7.814,14.488,16.085c28.688,20.71,30.914,45.415,30.914,45.415c-8.823-12.535-32.976-18.29-32.976-18.29
				s-0.61-3.083-2.053-3.494c0,0-4.421-0.615-9.658-0.615c-5.236,0-9.859,1.232-9.859,1.232c-2.265,1.022-2.061,2.877-2.061,2.877
				c-25.688,5.959-36.372,18.29-36.372,18.29C258.346,103.318,283.211,88.111,286.704,85.234z M279.152,130.854
				c0,0,0.874-0.312,0.669-1.592c0,0,0.359,1.438,1.438,1.229c1.756-0.334,1.854-0.771,1.854-0.771l-0.771-5.651l-2.312,0.669
				c0,0-0.771,0.256-0.615,1.232c0,0-0.153-1.027-1.952-0.411c-1.799,0.614-15.413,3.646-29.388,14.95
				c0,0,8.221-12.124,35.758-18.494l1.336,9.247c0,0-18.805,2.261-38.938,19.729C246.221,150.994,257.524,137.636,279.152,130.854z
				 M221.767,154.692c-5.548-13.771-0.312-24.043,3.899-30.002c4.213-5.96,20.96-12.229,26.104-21.063c0,0-2.466,4.83-6.888,9.659
				c-4.42,4.828-8.73,10.173-8.016,17.364c0.718,7.188,7.191,5.754,7.191,5.754s-0.312,3.598,0.104,5.035c0,0-1.438,0-1.541,1.229
				c-0.103,1.232,0,8.431,0,8.431s0.312,1.229,0.924,1.335c0,0-1.741,4.007-0.104,6.062c0,0-9.657,0.821-16.027-9.658
				c-6.37-10.479-3.186-17.565-3.186-17.565s-5.651,8.426-1.336,21.27c4.312,12.843,20.646,15.926,20.646,15.926l0.206,1.232
				C243.755,169.694,227.316,168.461,221.767,154.692z M244.783,174.009c0,0-0.72,5.446-0.41,6.271
				c0.312,0.823,3.188,4.829,5.143,5.139c1.947,0.312,0.816,1.13,0.816,1.13s0.463,13.979-2.004,20.144
				c-1.215,3.035-2.812,7.459-4.123,11.173c0.864-5.433,1.734-11.987,1.399-14.667c-0.616-4.932,0-14.59,0-14.59
				c-0.411,0.617-1.026,8.22-1.438,16.023c-0.409,7.786-4.243,19.913-4.267,19.982c-0.981-0.315-2.062-0.769-2.619-0.769
				c0,0,0.207-1.952,0.104-2.774c-0.103-0.822,3.807-13.717,4.315-25.327C242.213,184.129,239.749,189.113,244.783,174.009z
				 M239.44,180.173c0,0-1.438,4.219-0.821,7.501c0.616,3.288,0.515,6.165,0.515,6.165s-6.062,1.135-8.938,3.601
				c0,0,3.598-7.089,5.55-9.354c0,0-6.983,7.706-10.066,13.151C225.671,201.237,231.631,185.722,239.44,180.173z M224.645,227.643
				c0.41-4.729,0.615-12.438,4.418-16.954c3.801-4.521,8.63-7.912,8.729-10.583c0,0,0,3.495-1.131,6.68
				c-1.13,3.188-3.392,11.096-1.229,13.666c0,0,0.72,2.363-0.518,4.937c-0.059,0.115-0.109,0.263-0.172,0.4
				c-0.227-0.33-0.453-0.679-0.664-1.045c-0.245-0.448-0.521-0.896-0.704-1.351c-0.186-0.448-0.419-0.869-0.52-1.249
				c-0.243-0.771-0.407-1.281-0.407-1.281s-0.062,0.542-0.164,1.354c-0.071,0.419-0.034,0.894-0.055,1.423
				c-0.024,0.528,0.042,1.085,0.084,1.651c0.104,1.139,0.334,2.271,0.562,3.12c0.104,0.372,0.197,0.688,0.291,0.945
				c-0.267-0.379-0.538-0.794-0.786-1.229c-0.242-0.443-0.522-0.896-0.702-1.35c-0.188-0.448-0.419-0.869-0.521-1.248
				c-0.244-0.77-0.407-1.282-0.407-1.282s-0.062,0.542-0.165,1.354c-0.066,0.418-0.029,0.894-0.054,1.423
				c-0.021,0.533,0.042,1.084,0.083,1.656c0.104,1.134,0.335,2.269,0.566,3.12c0.032,0.13,0.063,0.237,0.104,0.356
				c-0.206-0.304-0.41-0.619-0.603-0.952c-0.245-0.443-0.524-0.896-0.704-1.351c-0.188-0.447-0.42-0.868-0.521-1.247
				c-0.245-0.771-0.403-1.282-0.403-1.282s-0.065,0.542-0.165,1.354c-0.07,0.418-0.034,0.894-0.059,1.423
				c-0.021,0.533,0.043,1.084,0.083,1.656c0.06,0.599,0.146,1.188,0.253,1.75c-0.061-0.104-0.124-0.197-0.183-0.303
				c-0.245-0.444-0.525-0.896-0.704-1.351c-0.188-0.447-0.42-0.869-0.52-1.248c-0.245-0.771-0.408-1.281-0.408-1.281
				s-0.064,0.542-0.164,1.354c-0.07,0.418-0.033,0.893-0.054,1.423c-0.024,0.532,0.042,1.085,0.081,1.654
				c0.037,0.41,0.099,0.813,0.159,1.216C224.99,233.959,224.3,231.604,224.645,227.643z M220.124,228.156
				c0,0,2.979,7.81,5.239,9.864c0.985,0.896,1.286,3.534,1.213,6.41c-0.12-0.188-0.239-0.385-0.354-0.576
				c-0.245-0.448-0.524-0.899-0.705-1.354c-0.188-0.443-0.418-0.863-0.521-1.248c-0.245-0.77-0.408-1.276-0.408-1.276
				s-0.062,0.542-0.165,1.354c-0.066,0.418-0.029,0.896-0.054,1.422c-0.021,0.533,0.043,1.085,0.083,1.655
				c0.104,1.135,0.335,2.269,0.566,3.12c0.016,0.057,0.024,0.103,0.045,0.155c-0.025-0.043-0.057-0.085-0.08-0.134
				c-0.243-0.443-0.524-0.896-0.703-1.35c-0.188-0.448-0.419-0.869-0.52-1.248c-0.244-0.771-0.407-1.282-0.407-1.282
				s-0.065,0.542-0.165,1.354c-0.069,0.418-0.033,0.894-0.055,1.422c-0.022,0.533,0.043,1.086,0.083,1.656
				c0.104,1.134,0.336,2.269,0.563,3.121c0.114,0.421,0.227,0.78,0.33,1.06c0.041,0.115,0.515,0.611,1,1.104
				c-0.021,0.045-0.044,0.104-0.066,0.146c0,0-5.646-6.062-5.44-11.812C219.815,235.966,219.095,229.698,220.124,228.156z
				 M216.424,247.269c0,0,2.06,3.595,5.24,6.268c3.188,2.672,3.596,8.836,2.362,11.404c-1.232,2.569-2.567,3.598-3.492,0.72
				c-0.926-2.876-4.109-6.884-4.312-11.303C216.013,249.939,216.424,247.269,216.424,247.269z M159.913,262.784
				c7.396-10.479,25.069-23.839,38.222-26.922c0,0-2.26,5.551-0.405,11.919c0,0-0.206-9.863,4.728-13.769
				c4.936-3.904,9.042-3.288,9.042-3.288s-2.057,0.611-2.262,3.288c-0.205,2.672,4.312,7.188,2.057,11.919
				c0,0-14.592,24.25-2.878,58.362c0,0-8.22-7.193-10.063-31.854c0,0,0.201-5.754-4.315-1.027
				c-4.521,4.729-8.631,9.042-10.479,11.303c-1.852,2.266-6.162,2.266-7.396-3.488c-1.229-5.754-4.313-3.083-6.37,0
				c-2.056,3.083-10.686,13.354-20.55,13.562C149.227,292.786,152.515,273.264,159.913,262.784z M194.539,457.902
				c-0.309,21.887-8.015,33.907-8.015,33.907c-8.02-4.007-31.133-6.473-31.133-6.473c17.878-17.57,23.113-43.469,27.125-60.108
				c4.008-16.645,9.859-25.584,9.859-25.584C191.149,406.427,194.847,436.019,194.539,457.902z M200.083,355.09
				c1.229-0.508,2.449-1.018,3.669-1.531c0.381,1.688,0.812,3.396,1.309,5.103c-1.564-0.563-3.124-1.148-4.682-1.752
				C200.268,356.309,200.175,355.697,200.083,355.09z M199.547,342.038c0.031-0.438,0.062-0.882,0.104-1.313
				c0.632-0.257,1.266-0.52,1.896-0.775c0.104,0.938,0.224,1.941,0.355,3.006C201.112,342.652,200.33,342.344,199.547,342.038z
				 M207.443,373.246c-0.604-0.928-1.203-1.796-1.812-2.572c-0.586-0.764-1.14-1.666-1.661-2.667
				c0.941-0.404,1.894-0.806,2.834-1.224c0.452,0.159,0.917,0.312,1.375,0.464c0.729,1.601,1.529,3.113,2.419,4.526
				C209.551,372.275,208.497,372.761,207.443,373.246z M170.804,364.813c-8.02,18.186-24.043,56.101-33.907,70.588
				c-9.862,14.487-37.604,63.808-37.604,63.808s24.043-55.793,32.062-68.432c8.015-12.639,19.729-43.771,26.813-60.416
				c7.089-16.645,17.568-33.599,27.438-46.234c9.858-12.641,24.968-15.104,24.968-15.104l0.926,10.48
				C193.922,321.047,178.819,346.631,170.804,364.813z M208.205,286.827c-2.467-15.618,3.492-35.141,3.492-35.141
				c-0.616,2.26-0.616,19.106,0.206,25.271s1.027,27.337,1.027,27.337S210.67,302.445,208.205,286.827z M213.308,384.988
				c-0.118-0.296-0.236-0.589-0.354-0.88c0.438,0.139,0.864,0.282,1.3,0.419C213.938,384.682,213.622,384.839,213.308,384.988z
				 M215.681,391.718c1.63-0.794,3.252-1.605,4.864-2.438c0.496,1.649,0.845,3.196,1.105,4.65c-1.955-0.572-3.903-1.163-5.842-1.778
				C215.77,392.01,215.727,391.858,215.681,391.718z M219.017,405.533c1.458-0.729,2.904-1.479,4.354-2.232
				c0.396,1.333,0.991,3.251,1.74,5.553c-0.248,0.138-0.491,0.28-0.74,0.418c-1.628-0.456-3.23-0.957-4.851-1.445
				C219.343,407.052,219.175,406.283,219.017,405.533z M223.975,423.692c-0.562-1.729-1.112-3.51-1.646-5.308
				c0.991-0.521,1.985-1.026,2.977-1.562c0.902,0.243,1.82,0.453,2.731,0.688c0.4,1.146,0.814,2.325,1.24,3.519
				c-1.626,0.939-3.261,1.869-4.908,2.775C224.238,423.773,224.108,423.73,223.975,423.692z M232.812,448.047
				c-0.023-0.093-0.049-0.177-0.074-0.267c0.122,0.029,0.241,0.062,0.363,0.091C233.005,447.931,232.907,447.986,232.812,448.047z
				 M228.373,436.103c-0.517-1.312-1.066-2.786-1.646-4.375c2.119,0.555,4.236,1.1,6.377,1.603
				C231.537,434.271,229.958,435.192,228.373,436.103z M236.537,439.494c0.338,0.749,0.67,1.475,0.997,2.15
				c-1.11-0.252-2.229-0.486-3.334-0.749C234.983,440.436,235.758,439.967,236.537,439.494z M234.523,455.245
				c2.289-1.35,4.559-2.732,6.812-4.151c0.354,1.854,0.536,3.812,0.604,5.765c-0.122,0.079-0.243,0.163-0.365,0.243
				c-2.343-0.491-4.669-1.021-6.987-1.571C234.561,455.431,234.543,455.344,234.523,455.245z M236.982,468.312
				c1.541-0.928,3.073-1.873,4.598-2.834c-0.249,2.364-0.577,4.433-0.854,5.972c-0.864-0.185-1.725-0.388-2.58-0.581
				C237.732,470.079,237.324,469.214,236.982,468.312z M374.04,505.682c0,0-46.024,13.146-70.688,11.507s-49.114-5.755-59.394-8.631
				c0,0,28.771,4.521,41.31,5.138c0,0-1.854-11.098-1.438-19.728c0,0-28.147-2.062-44.389-8.02
				c52.584,7.613,107.969,0.892,125.928-1.729c3.328-0.737,5.493-1.174,6.004-0.938c0,0,1.026,1.854,1.23,2.877
				c0.204,1.028,2.261,14.185,3.287,16.028C376.918,504.035,374.04,505.682,374.04,505.682z M376.325,351.16
				c0.035-0.058,0.067-0.108,0.104-0.168c0.058,0.028,0.109,0.062,0.172,0.088C376.507,351.11,376.415,351.135,376.325,351.16z
				 M379.14,358.963c-0.515-0.271-1.026-0.528-1.537-0.805c1.898-0.564,3.792-1.188,5.682-1.8
				C382.046,357.248,380.629,358.133,379.14,358.963z M389.258,346.825c-1.031,0.375-2.061,0.774-3.103,1.141
				c-2.057-0.994-4.092-2.03-6.117-3.079c0.465-0.839,0.908-1.662,1.333-2.459c1.445-0.458,2.898-0.896,4.338-1.375
				c1.354,0.637,2.714,1.257,4.077,1.86C389.717,344.201,389.546,345.522,389.258,346.825z M385.866,333.273
				c0.057-0.129,0.093-0.21,0.093-0.21c0.174,0.064,0.324,0.164,0.485,0.251c-0.099,0.033-0.191,0.07-0.288,0.104
				C386.057,333.37,385.964,333.322,385.866,333.273z M426.344,486.262l-12.33,3.081c-1.234-19.11-17.572-53.021-20.967-78.909
				c-3.394-25.896,4.014-58.567,4.014-58.567s7.088,19.42,9.553,30.825c2.469,11.404,1.543,29.592,10.79,53.635
				C426.647,460.368,426.344,486.262,426.344,486.262z M459.219,436.325c-9.865-14.481-25.896-52.396-33.907-70.588
				c-8.021-18.188-23.116-43.771-40.688-45.312l0.925-10.479c0,0,15.104,2.465,24.974,15.104
				c9.857,12.638,20.344,29.591,27.435,46.23c7.091,16.646,18.809,47.777,26.815,60.416c8.016,12.644,32.058,68.437,32.058,68.437
				S469.082,450.812,459.219,436.325z"/>
			<path fill="#2A0051" d="M289.941,119.526c0,0,5.473-0.615,6.938-0.23c0,0-1.003,0.23-1.771,1.157
				c-0.771,0.925,1.618,1.617,1.696,9.786c0.073,8.168-0.693,13.101-2.008,13.101c-1.312,0-3.546,1.393-3.771-3.468
				c-0.23-4.854-0.925-15.412-1.771-17.878C288.402,119.527,289.941,119.526,289.941,119.526z"/>
		</g>
	</g>
</g>
<g>
	<path fill="#BDC2BC" d="M534.992,589.913c-0.739,0-1.34-0.602-1.34-1.341v-16.588c0-0.739,0.601-1.339,1.34-1.339h52.497
		c0.738,0,1.339,0.6,1.339,1.339v16.588c0,0.739-0.601,1.341-1.339,1.341H534.992z"/>
	<g>
		<path d="M558.027,572.51c-2.725,0-4.935,2.21-4.935,4.934c0,2.729,2.21,4.938,4.935,4.938c2.728,0,4.938-2.21,4.938-4.938
			C562.964,574.719,560.755,572.51,558.027,572.51z"/>
		<path fill="#FFFFFF" d="M558.027,581.461c-2.219,0-4.015-1.798-4.015-4.019c0-2.217,1.797-4.014,4.015-4.014
			c2.219,0,4.019,1.798,4.019,4.014C562.046,579.664,560.246,581.461,558.027,581.461z"/>
		<g>
			<path d="M559.402,576.293c0-0.219-0.182-0.398-0.398-0.398h-1.952c-0.221,0-0.401,0.181-0.401,0.398v1.985h0.528v2.338h1.694
				v-2.338h0.527L559.402,576.293L559.402,576.293z"/>
			<path d="M558.695,574.942c0,0.37-0.3,0.668-0.667,0.668c-0.371,0-0.67-0.299-0.67-0.668s0.301-0.67,0.67-0.67
				C558.395,574.272,558.695,574.571,558.695,574.942z"/>
		</g>
	</g>
	<path d="M587.175,570.198h-51.868c-1.157,0-2.102,0.943-2.102,2.102v15.96c0,1.158,0.943,2.1,2.102,2.1h51.868
		c1.158,0,2.102-0.94,2.102-2.1V572.3C589.275,571.141,588.332,570.198,587.175,570.198z M588.644,584.375h-37.865
		c-1.477,2.809-4.417,4.725-7.81,4.725s-6.333-1.916-7.809-4.725h-1.326V572.3c0-0.812,0.658-1.471,1.47-1.471h51.869
		c0.811,0,1.471,0.658,1.471,1.471V584.375L588.644,584.375z"/>
	<g>
		<path fill="#FFFFFF" d="M557.773,585.933c0.1,0.14,0.15,0.302,0.15,0.495c0,0.198-0.052,0.357-0.151,0.479
			c-0.057,0.066-0.14,0.131-0.25,0.187c0.168,0.061,0.294,0.155,0.378,0.289c0.085,0.13,0.127,0.289,0.127,0.477
			c0,0.192-0.049,0.365-0.145,0.519c-0.062,0.104-0.14,0.188-0.23,0.256c-0.104,0.078-0.225,0.137-0.369,0.164
			c-0.141,0.028-0.294,0.043-0.459,0.043h-1.466v-3.256h1.573C557.326,585.594,557.607,585.706,557.773,585.933z M556.009,586.151
			v0.717h0.79c0.143,0,0.257-0.026,0.345-0.08s0.133-0.147,0.133-0.286c0-0.15-0.059-0.248-0.176-0.301
			c-0.1-0.033-0.228-0.05-0.383-0.05H556.009L556.009,586.151z M556.009,587.407v0.869h0.789c0.143,0,0.25-0.02,0.328-0.058
			c0.145-0.071,0.217-0.206,0.217-0.407c0-0.17-0.07-0.285-0.208-0.35c-0.077-0.034-0.188-0.056-0.327-0.056L556.009,587.407
			L556.009,587.407z"/>
		<path fill="#FFFFFF" d="M560.469,585.586h0.771l-1.089,2.034v1.222h-0.68v-1.222l-1.127-2.034h0.8l0.677,1.418L560.469,585.586z"
			/>
	</g>
	<g>
		<g>
			<path fill="#FFFFFF" d="M566.517,585.426h0.776l1.403,2.473v-2.473h0.692v3.545h-0.742l-1.443-2.517v2.517h-0.688
				L566.517,585.426L566.517,585.426z"/>
			<path fill="#FFFFFF" d="M570.425,585.797c0.285-0.292,0.647-0.437,1.09-0.437c0.591,0,1.02,0.195,1.295,0.587
				c0.148,0.221,0.229,0.439,0.242,0.661h-0.741c-0.048-0.17-0.106-0.299-0.183-0.384c-0.132-0.153-0.328-0.229-0.586-0.229
				c-0.265,0-0.473,0.107-0.623,0.324c-0.152,0.219-0.229,0.525-0.229,0.923c0,0.399,0.08,0.696,0.241,0.895
				c0.161,0.197,0.365,0.299,0.614,0.299c0.252,0,0.447-0.086,0.581-0.256c0.072-0.09,0.136-0.229,0.183-0.41h0.736
				c-0.066,0.387-0.226,0.699-0.486,0.943c-0.262,0.241-0.594,0.36-1.002,0.36c-0.505,0-0.901-0.163-1.19-0.489
				c-0.288-0.328-0.434-0.777-0.434-1.353C569.93,586.607,570.095,586.133,570.425,585.797z"/>
		</g>
	</g>
	<g>
		<path fill="#FFFFFF" d="M578.517,587.944c0.022,0.173,0.073,0.303,0.145,0.389c0.132,0.154,0.354,0.233,0.673,0.233
			c0.19,0,0.347-0.021,0.465-0.062c0.225-0.078,0.338-0.226,0.338-0.438c0-0.125-0.055-0.223-0.166-0.291
			c-0.113-0.066-0.285-0.126-0.525-0.178l-0.411-0.088c-0.401-0.093-0.679-0.188-0.829-0.294c-0.254-0.173-0.383-0.448-0.383-0.819
			c0-0.339,0.126-0.619,0.376-0.846c0.249-0.224,0.617-0.336,1.102-0.336c0.401,0,0.748,0.104,1.033,0.315
			c0.284,0.213,0.436,0.521,0.45,0.922h-0.762c-0.014-0.227-0.117-0.387-0.306-0.484c-0.126-0.065-0.282-0.096-0.473-0.096
			c-0.209,0-0.375,0.041-0.499,0.122c-0.126,0.083-0.188,0.196-0.188,0.346c0,0.135,0.062,0.236,0.186,0.303
			c0.079,0.043,0.246,0.096,0.502,0.155l0.665,0.156c0.292,0.068,0.513,0.162,0.655,0.276c0.227,0.179,0.339,0.435,0.339,0.771
			c0,0.351-0.134,0.637-0.4,0.863c-0.269,0.229-0.646,0.344-1.134,0.344c-0.5,0-0.891-0.112-1.176-0.339
			c-0.287-0.224-0.432-0.536-0.432-0.929L578.517,587.944L578.517,587.944z"/>
		<path fill="#FFFFFF" d="M582.542,585.325h0.896l1.34,3.791h-0.858l-0.249-0.778h-1.396l-0.255,0.778h-0.828L582.542,585.325z
			 M582.486,587.681h0.972l-0.479-1.49L582.486,587.681z"/>
	</g>
	<g>
		<circle cx="542.95" cy="580.28" r="7.771"/>
		<circle fill="#FFFFFF" cx="542.95" cy="580.278" r="6.322"/>
		<g>
			<path d="M542.597,579.348l-1.188,0.215c-0.041-0.237-0.131-0.416-0.273-0.537c-0.143-0.119-0.325-0.178-0.55-0.178
				c-0.302,0-0.537,0.104-0.72,0.31c-0.18,0.204-0.268,0.555-0.268,1.038c0,0.539,0.09,0.921,0.271,1.146
				c0.183,0.223,0.426,0.332,0.73,0.332c0.229,0,0.417-0.064,0.562-0.195c0.146-0.131,0.249-0.354,0.311-0.67l1.182,0.199
				c-0.123,0.545-0.354,0.954-0.707,1.229c-0.348,0.276-0.813,0.416-1.399,0.416c-0.668,0-1.197-0.21-1.594-0.629
				c-0.396-0.42-0.592-1.004-0.592-1.746c0-0.75,0.198-1.337,0.594-1.754c0.397-0.42,0.936-0.627,1.613-0.627
				c0.555,0,0.995,0.118,1.322,0.355C542.219,578.497,542.453,578.86,542.597,579.348z"/>
			<path d="M547.477,579.348l-1.188,0.215c-0.039-0.237-0.131-0.416-0.272-0.537c-0.144-0.119-0.325-0.178-0.551-0.178
				c-0.301,0-0.539,0.104-0.72,0.31c-0.178,0.204-0.268,0.555-0.268,1.038c0,0.539,0.09,0.921,0.271,1.146
				c0.182,0.223,0.426,0.332,0.729,0.332c0.229,0,0.417-0.064,0.562-0.195c0.146-0.131,0.25-0.354,0.311-0.67l1.183,0.199
				c-0.123,0.545-0.356,0.954-0.708,1.229c-0.349,0.276-0.814,0.416-1.4,0.416c-0.668,0-1.197-0.21-1.593-0.629
				c-0.396-0.42-0.592-1.004-0.592-1.746c0-0.75,0.196-1.337,0.595-1.754c0.396-0.42,0.934-0.627,1.612-0.627
				c0.554,0,0.994,0.118,1.322,0.355C547.1,578.497,547.337,578.86,547.477,579.348z"/>
		</g>
	</g>
	<g>
		<path d="M569.93,572.719c-2.61,0-4.727,2.115-4.727,4.726c0,2.612,2.115,4.729,4.727,4.729s4.728-2.113,4.728-4.729
			C574.658,574.834,572.546,572.719,569.93,572.719z"/>
		<circle fill="#FFFFFF" cx="569.93" cy="577.447" r="3.846"/>
		
			<rect x="569.488" y="572.955" transform="matrix(0.4225 -0.9063 0.9063 0.4225 -194.2305 850.0175)" width="0.924" height="8.958"/>
		<g>
			<path d="M569.58,580.151v-0.637c-0.444-0.013-0.877-0.14-1.129-0.277l0.197-0.776c0.279,0.153,0.672,0.292,1.101,0.292
				c0.382,0,0.646-0.151,0.646-0.409c0-0.252-0.223-0.41-0.709-0.578c-0.711-0.238-1.196-0.568-1.196-1.215
				c0-0.59,0.411-1.047,1.122-1.181v-0.631h0.65v0.584c0.443,0.015,0.742,0.115,0.968,0.222l-0.199,0.748
				c-0.167-0.079-0.478-0.232-0.954-0.232c-0.434,0-0.571,0.193-0.571,0.381c0,0.212,0.231,0.356,0.798,0.564
				c0.796,0.276,1.107,0.643,1.107,1.246c0,0.591-0.411,1.09-1.182,1.221v0.684L569.58,580.151L569.58,580.151z"/>
		</g>
	</g>
	<g>
		<path d="M581.185,572.784c-2.571,0-4.66,2.086-4.66,4.658c0,2.576,2.089,4.665,4.66,4.665c2.576,0,4.665-2.089,4.665-4.665
			C585.852,574.87,583.761,572.784,581.185,572.784z"/>
		<path fill="#FFFFFF" d="M581.185,581.238c-2.092,0-3.789-1.698-3.789-3.794c0-2.091,1.695-3.79,3.789-3.79
			c2.096,0,3.793,1.696,3.793,3.79C584.979,579.538,583.281,581.238,581.185,581.238z"/>
		<path d="M581.185,574.885c-1.016,0-1.874,0.733-2.182,1.746h-0.294l0.933,1.016l0.93-1.016h-0.348
			c0.215-0.37,0.563-0.616,0.96-0.616c0.65,0,1.179,0.646,1.179,1.443c0,0.793-0.526,1.44-1.179,1.44
			c-0.432,0-0.81-0.289-1.016-0.72h-1.196c0.278,1.068,1.167,1.854,2.214,1.854c1.273,0,2.311-1.155,2.311-2.576
			C583.496,576.034,582.464,574.885,581.185,574.885z"/>
	</g>
</g>
<g>
	<path d="M13.392,586.197c-0.652,0-1.248-0.138-1.786-0.41c-0.539-0.271-1.002-0.631-1.39-1.07c-0.388-0.441-0.688-0.949-0.9-1.521
		C9.106,582.619,9,582.032,9,581.432c0-0.626,0.114-1.226,0.338-1.797c0.226-0.574,0.533-1.08,0.927-1.521
		c0.393-0.44,0.857-0.792,1.396-1.053c0.538-0.26,1.119-0.39,1.746-0.39c0.653,0,1.248,0.138,1.786,0.417
		c0.538,0.275,0.999,0.641,1.382,1.09s0.682,0.959,0.893,1.528c0.213,0.567,0.318,1.144,0.318,1.726c0,0.636-0.113,1.24-0.338,1.812
		c-0.225,0.574-0.534,1.079-0.926,1.517c-0.394,0.437-0.856,0.785-1.391,1.045C14.598,586.066,14.018,586.197,13.392,586.197z
		 M9.675,581.432c0,0.539,0.091,1.057,0.271,1.555s0.437,0.939,0.768,1.324c0.33,0.383,0.724,0.69,1.178,0.92
		c0.455,0.229,0.955,0.344,1.502,0.344c0.563,0,1.072-0.117,1.527-0.355c0.454-0.239,0.846-0.555,1.17-0.946
		c0.327-0.392,0.578-0.834,0.755-1.328s0.265-0.997,0.265-1.51c0-0.538-0.092-1.057-0.277-1.555
		c-0.185-0.498-0.442-0.939-0.773-1.323s-0.723-0.691-1.179-0.919c-0.454-0.229-0.949-0.347-1.486-0.347
		c-0.565,0-1.076,0.119-1.536,0.357c-0.458,0.238-0.85,0.554-1.17,0.945c-0.322,0.394-0.571,0.836-0.748,1.33
		C9.762,580.422,9.675,580.923,9.675,581.432z"/>
	<path d="M25.14,578.299c-0.608-0.681-1.469-1.021-2.58-1.021c-0.918,0-1.587,0.175-2.006,0.523
		c-0.417,0.349-0.628,0.817-0.628,1.407c0,0.302,0.054,0.554,0.159,0.755c0.106,0.202,0.271,0.373,0.496,0.51
		c0.226,0.137,0.513,0.256,0.86,0.355c0.35,0.103,0.761,0.2,1.237,0.299c0.512,0.106,0.97,0.223,1.377,0.352
		c0.404,0.127,0.75,0.289,1.038,0.483c0.287,0.193,0.508,0.433,0.662,0.715c0.153,0.281,0.231,0.632,0.231,1.044
		c0,0.414-0.082,0.775-0.245,1.086c-0.163,0.31-0.392,0.565-0.688,0.773c-0.297,0.208-0.648,0.364-1.059,0.471
		c-0.411,0.104-0.867,0.157-1.37,0.157c-1.463,0-2.704-0.467-3.717-1.401l0.356-0.542c0.396,0.415,0.882,0.743,1.457,0.984
		c0.573,0.242,1.217,0.363,1.931,0.363c0.821,0,1.461-0.147,1.925-0.449c0.462-0.301,0.695-0.754,0.695-1.362
		c0-0.309-0.06-0.57-0.178-0.787s-0.303-0.404-0.551-0.562c-0.247-0.158-0.554-0.295-0.919-0.409
		c-0.364-0.115-0.796-0.225-1.29-0.33c-0.503-0.105-0.945-0.219-1.329-0.338c-0.384-0.117-0.708-0.269-0.972-0.449
		c-0.265-0.181-0.463-0.398-0.596-0.654s-0.199-0.578-0.199-0.967c0-0.423,0.082-0.797,0.246-1.124
		c0.163-0.326,0.391-0.603,0.682-0.826c0.291-0.226,0.64-0.395,1.044-0.511c0.406-0.114,0.854-0.17,1.351-0.17
		c0.607,0,1.15,0.09,1.627,0.27c0.477,0.183,0.909,0.459,1.296,0.828L25.14,578.299z"/>
	<path d="M27.734,586.131v-9.395h3.863c0.396,0,0.763,0.085,1.098,0.251c0.335,0.168,0.624,0.392,0.866,0.669
		s0.432,0.591,0.568,0.938c0.138,0.35,0.205,0.698,0.205,1.053c0,0.381-0.063,0.746-0.191,1.098
		c-0.128,0.354-0.31,0.666-0.542,0.939c-0.232,0.272-0.512,0.492-0.833,0.654c-0.323,0.164-0.683,0.245-1.078,0.245h-3.281v3.546
		L27.734,586.131L27.734,586.131z M28.408,581.963h3.241c0.309,0,0.586-0.064,0.833-0.191s0.456-0.3,0.629-0.516
		c0.171-0.218,0.303-0.463,0.396-0.741c0.092-0.276,0.139-0.565,0.139-0.866c0-0.309-0.056-0.602-0.165-0.879
		c-0.11-0.279-0.26-0.523-0.45-0.734c-0.189-0.213-0.41-0.381-0.661-0.504s-0.519-0.186-0.801-0.186h-3.162L28.408,581.963
		L28.408,581.963z"/>
	<path d="M35.963,586.131v-9.395h3.917c0.397,0,0.764,0.085,1.098,0.251c0.335,0.168,0.622,0.392,0.859,0.669
		c0.238,0.277,0.426,0.591,0.563,0.938c0.137,0.35,0.204,0.698,0.204,1.053c0,0.344-0.054,0.676-0.159,0.998
		c-0.105,0.324-0.254,0.611-0.45,0.867c-0.194,0.256-0.427,0.467-0.7,0.635c-0.273,0.169-0.572,0.277-0.899,0.331l2.341,3.651
		h-0.781l-2.274-3.547h-3.043v3.547L35.963,586.131L35.963,586.131z M36.636,581.963h3.295c0.299,0,0.571-0.064,0.819-0.197
		c0.247-0.132,0.458-0.307,0.636-0.522c0.176-0.216,0.311-0.462,0.402-0.741c0.093-0.277,0.141-0.562,0.141-0.853
		c0-0.3-0.056-0.589-0.166-0.866c-0.11-0.276-0.261-0.522-0.45-0.733c-0.189-0.212-0.409-0.382-0.661-0.511
		c-0.252-0.127-0.523-0.192-0.814-0.192h-3.201V581.963z"/>
	<path d="M50.899,585.521v0.608h-6.258v-9.395h6.139v0.61h-5.464v3.688h4.775v0.582h-4.775v3.903h5.583V585.521z"/>
	<path d="M52.421,576.736l3.281,5.199l3.308-5.199h0.742l-3.706,5.849v3.546h-0.674v-3.572l-3.69-5.821L52.421,576.736
		L52.421,576.736z"/>
	<path d="M61.126,586.131v-9.395h3.122c0.741,0,1.392,0.124,1.951,0.371c0.561,0.248,1.025,0.583,1.396,1.007
		c0.371,0.423,0.647,0.919,0.833,1.487c0.185,0.567,0.277,1.175,0.277,1.819c0,0.715-0.104,1.36-0.311,1.938
		s-0.505,1.07-0.894,1.481c-0.388,0.409-0.857,0.729-1.41,0.953c-0.552,0.224-1.167,0.337-1.845,0.337L61.126,586.131
		L61.126,586.131z M68.031,581.421c0-0.592-0.083-1.137-0.251-1.635c-0.167-0.498-0.412-0.93-0.733-1.291
		c-0.322-0.359-0.718-0.644-1.185-0.848c-0.466-0.202-1.005-0.303-1.614-0.303h-2.447v8.177h2.447c0.617,0,1.162-0.104,1.633-0.312
		c0.473-0.206,0.866-0.495,1.185-0.865c0.316-0.37,0.559-0.805,0.722-1.303S68.031,582.003,68.031,581.421z"/>
	<path d="M69.288,586.131l3.996-9.395h0.555l3.997,9.395h-0.728l-1.311-3.097h-4.484l-1.311,3.097H69.288z M73.562,577.557
		l-2.09,4.922h4.141L73.562,577.557z"/>
	<path d="M82.148,576.802h0.661l1.401,3.413l1.403-3.413h0.661l-1.654,3.956l1.971,4.577l3.6-8.601h0.742l-4.023,9.395h-0.62
		l-2.063-4.829l-2.077,4.829h-0.622l-4.008-9.395h0.728l3.612,8.601l1.945-4.577L82.148,576.802z"/>
	<path d="M93.05,578.008v8.123h-0.675v-9.394h0.518l6.588,8.27v-8.255h0.675v9.379h-0.622L93.05,578.008z"/>
	<path d="M102.297,586.131v-1.125h0.583v1.125H102.297z"/>
	<path d="M104.401,581.368c0-0.563,0.098-1.127,0.298-1.688c0.197-0.561,0.486-1.062,0.866-1.502c0.379-0.44,0.844-0.8,1.395-1.077
		c0.552-0.277,1.181-0.418,1.887-0.418c0.838,0,1.552,0.192,2.144,0.576c0.591,0.383,1.027,0.877,1.309,1.475l-0.556,0.318
		c-0.159-0.327-0.351-0.601-0.576-0.82c-0.224-0.221-0.466-0.399-0.727-0.537c-0.261-0.137-0.533-0.234-0.814-0.298
		c-0.281-0.062-0.562-0.092-0.833-0.092c-0.6,0-1.129,0.121-1.589,0.364c-0.458,0.241-0.847,0.558-1.164,0.944
		c-0.316,0.39-0.557,0.826-0.722,1.316c-0.164,0.489-0.245,0.981-0.245,1.475c0,0.558,0.097,1.086,0.291,1.59
		c0.195,0.502,0.459,0.945,0.795,1.328c0.334,0.383,0.731,0.691,1.19,0.919c0.458,0.229,0.951,0.346,1.48,0.346
		c0.282,0,0.571-0.036,0.866-0.106c0.296-0.069,0.583-0.18,0.86-0.329c0.277-0.15,0.536-0.343,0.774-0.576
		c0.238-0.232,0.437-0.51,0.594-0.827l0.569,0.278c-0.159,0.352-0.372,0.665-0.642,0.939c-0.271,0.271-0.57,0.502-0.906,0.688
		c-0.335,0.186-0.689,0.324-1.065,0.416c-0.375,0.092-0.742,0.139-1.104,0.139c-0.644,0-1.233-0.141-1.768-0.423
		c-0.532-0.281-0.994-0.649-1.382-1.104c-0.387-0.455-0.689-0.972-0.905-1.549C104.509,582.555,104.401,581.969,104.401,581.368z"/>
	<path d="M117.882,586.197c-0.652,0-1.247-0.138-1.785-0.41c-0.538-0.271-1.001-0.631-1.39-1.07
		c-0.388-0.441-0.688-0.949-0.898-1.521c-0.212-0.572-0.317-1.16-0.317-1.76c0-0.627,0.112-1.225,0.337-1.798
		c0.224-0.573,0.534-1.081,0.926-1.521c0.394-0.44,0.857-0.792,1.396-1.052c0.539-0.261,1.121-0.391,1.747-0.391
		c0.65,0,1.247,0.139,1.786,0.416c0.538,0.276,0.999,0.643,1.381,1.091c0.384,0.45,0.682,0.959,0.894,1.529
		c0.211,0.566,0.317,1.144,0.317,1.726c0,0.635-0.113,1.239-0.337,1.812c-0.226,0.572-0.534,1.077-0.928,1.514
		c-0.393,0.438-0.854,0.785-1.389,1.046C119.087,586.066,118.509,586.197,117.882,586.197z M114.164,581.432
		c0,0.539,0.09,1.057,0.271,1.555c0.181,0.498,0.436,0.939,0.767,1.324c0.331,0.383,0.724,0.69,1.178,0.92s0.954,0.344,1.501,0.344
		c0.564,0,1.073-0.117,1.527-0.355c0.456-0.239,0.845-0.555,1.171-0.946s0.578-0.834,0.754-1.328
		c0.175-0.494,0.266-0.997,0.266-1.51c0-0.538-0.094-1.057-0.278-1.555c-0.186-0.498-0.443-0.939-0.774-1.323
		s-0.724-0.691-1.178-0.919c-0.455-0.229-0.95-0.347-1.488-0.347c-0.563,0-1.075,0.119-1.534,0.357s-0.851,0.554-1.172,0.945
		c-0.321,0.394-0.57,0.836-0.748,1.33C114.252,580.422,114.164,580.923,114.164,581.432z"/>
	<path d="M132.659,586.131v-8.123l-3.704,6.338h-0.423l-3.705-6.338v8.123h-0.675v-9.394h0.675l3.916,6.722l3.916-6.722h0.675v9.394
		H132.659L132.659,586.131z"/>
</g>
</svg>
