<?xml version="1.0" encoding="utf-8"?>
<!-- Generator: Adobe Illustrator 16.0.0, SVG Export Plug-In . SVG Version: 6.00 Build 0)  -->
<!DOCTYPE svg PUBLIC "-//W3C//DTD SVG 1.1//EN" "http://www.w3.org/Graphics/SVG/1.1/DTD/svg11.dtd">
<svg version="1.1" id="Layer_1" xmlns="http://www.w3.org/2000/svg" xmlns:xlink="http://www.w3.org/1999/xlink" x="0px" y="0px"
	 width="595.275px" height="595.279px" viewBox="0 0 595.275 595.279" enable-background="new 0 0 595.275 595.279"
	 xml:space="preserve">
<metadata><?xpacket begin="﻿" id="W5M0MpCehiHzreSzNTczkc9d"?>
<x:xmpmeta xmlns:x="adobe:ns:meta/" x:xmptk="Adobe XMP Core 5.3-c011 66.145661, 2012/02/06-14:56:27        ">
   <rdf:RDF xmlns:rdf="http://www.w3.org/1999/02/22-rdf-syntax-ns#">
      <rdf:Description rdf:about=""
            xmlns:dc="http://purl.org/dc/elements/1.1/">
         <dc:format>image/svg+xml</dc:format>
         <dc:title>
            <rdf:Alt>
               <rdf:li xml:lang="x-default">NFL Logo Redesigns</rdf:li>
               <rdf:li xml:lang="en_us">NFL Logo Redesigns</rdf:li>
            </rdf:Alt>
         </dc:title>
         <dc:creator>
            <rdf:Seq>
               <rdf:li>Max O'Brien/Osprey Dawn</rdf:li>
            </rdf:Seq>
         </dc:creator>
      </rdf:Description>
      <rdf:Description rdf:about=""
            xmlns:xmp="http://ns.adobe.com/xap/1.0/"
            xmlns:xmpGImg="http://ns.adobe.com/xap/1.0/g/img/">
         <xmp:CreatorTool>Adobe Illustrator CS6 (Macintosh)</xmp:CreatorTool>
         <xmp:ModifyDate>2013-10-06T18:16:57+13:00</xmp:ModifyDate>
         <xmp:MetadataDate>2013-10-06T18:16:57+13:00</xmp:MetadataDate>
         <xmp:CreateDate>2013-10-06T18:16:57+13:00</xmp:CreateDate>
         <xmp:Thumbnails>
            <rdf:Alt>
               <rdf:li rdf:parseType="Resource">
                  <xmpGImg:width>256</xmpGImg:width>
                  <xmpGImg:height>216</xmpGImg:height>
                  <xmpGImg:format>JPEG</xmpGImg:format>
                  <xmpGImg:image>/9j/4AAQSkZJRgABAgEASABIAAD/7QAsUGhvdG9zaG9wIDMuMAA4QklNA+0AAAAAABAASAAAAAEA&#xA;AQBIAAAAAQAB/+4ADkFkb2JlAGTAAAAAAf/bAIQABgQEBAUEBgUFBgkGBQYJCwgGBggLDAoKCwoK&#xA;DBAMDAwMDAwQDA4PEA8ODBMTFBQTExwbGxscHx8fHx8fHx8fHwEHBwcNDA0YEBAYGhURFRofHx8f&#xA;Hx8fHx8fHx8fHx8fHx8fHx8fHx8fHx8fHx8fHx8fHx8fHx8fHx8fHx8fHx8f/8AAEQgA2AEAAwER&#xA;AAIRAQMRAf/EAaIAAAAHAQEBAQEAAAAAAAAAAAQFAwIGAQAHCAkKCwEAAgIDAQEBAQEAAAAAAAAA&#xA;AQACAwQFBgcICQoLEAACAQMDAgQCBgcDBAIGAnMBAgMRBAAFIRIxQVEGE2EicYEUMpGhBxWxQiPB&#xA;UtHhMxZi8CRygvElQzRTkqKyY3PCNUQnk6OzNhdUZHTD0uIIJoMJChgZhJRFRqS0VtNVKBry4/PE&#xA;1OT0ZXWFlaW1xdXl9WZ2hpamtsbW5vY3R1dnd4eXp7fH1+f3OEhYaHiImKi4yNjo+Ck5SVlpeYmZ&#xA;qbnJ2en5KjpKWmp6ipqqusra6voRAAICAQIDBQUEBQYECAMDbQEAAhEDBCESMUEFURNhIgZxgZEy&#xA;obHwFMHR4SNCFVJicvEzJDRDghaSUyWiY7LCB3PSNeJEgxdUkwgJChgZJjZFGidkdFU38qOzwygp&#xA;0+PzhJSktMTU5PRldYWVpbXF1eX1RlZmdoaWprbG1ub2R1dnd4eXp7fH1+f3OEhYaHiImKi4yNjo&#xA;+DlJWWl5iZmpucnZ6fkqOkpaanqKmqq6ytrq+v/aAAwDAQACEQMRAD8A9U4q7FXYq7FXYq7FXYq7&#xA;FXYql3mDzBpmgaXLqWpS+nbxbADdnc/ZRB3Y/wCe2VZs0cUeKXJv02mnmmIQG75r/ML/AJyP1iS5&#xA;ks7KZ7JCaR2dl/f0P2fVm6gnwWnyzVwOp1W8f3ePv/H7A7+ePR6L0zHi5e79nL7ywiGX80dbl9e3&#xA;0Iuz9DeTqkpH/PZ4m/DIns7T/wAWUk+X4LMdr6r+DCIx8/wEdY+evzG8k3CSapZXujQVANzCTLal&#xA;j2dRzib5VJ9skOz5R30+Sz3H8foYHtWGTbVYqH84fi/kX0P+WP5v6f5qSKyvWjh1N1rBJGf3NwB/&#xA;JU/C/iv3eAv0mu45eHkHDkDhdodleHHxcR48R+x6PmydM7FXYq7FXYq7FXYq7FXYq7FXYq7FXYq7&#xA;FXYq7FXYq7FXYq7FXYq7FXYq7FXYq7FXYq+Uv+chPzLubvVpLOxflFbyNaabGu4LqeMs9O5LbL9H&#xA;vmlEfzec3/dY+f48/uenEvyOlBj/AH+Xl+PL7ywvy95dt9NhE0wE2pS/FcXLfE3JtyFJ7frzW67X&#xA;yzGhtjHIO57N7MjgjxS9WU85fj8FOc17tUZbfmC2jyCx16M3OiXP7pzMBNFxbbiSd1P+Sw4++bTR&#xA;jId4HiI/h/i+Hf8AjZ0faIxA1kHADyl/D7pd3y+KQ+YtIXyRqVprmhzNN5O1Zw8MiMSbWY/EOLDf&#xA;tVT12IO4BO0y4hq4WNs0eXn+PsLpdPnOiyUd8E+Y515/jmH1J+Vfn1PNWhhbl1Oq2YVbmlB6qEfB&#xA;MoH837VO/sRlug1fixqX1x5uN2toBgncf7uW4/V+ryZtme6l2KuxV2KuxV2KuxVJfOPmaDy15eut&#xA;WkT1WiAWCGtOcrmirXw7n2zH1WoGLGZOXodIdRlEB1+5806l/wA5PeZIdTliOpGMI5V44bWFolIO&#xA;6gurSEDp1Oa/HDXZIiYIAPTb9X6Xc5JdmYpHGRIkbE7/AKx9z0r8v/8AnIXTdYaOHWTEqOQq6jb1&#xA;CKx6CaNqsnz/AApvksfaE8cuDPHhPe15uyMeSHiaaXGO7r+PIvZgQQCDUHcEZtnn3Yq7FXYq7FXY&#xA;q7FXYq7FXYq7FXYq7FXYq7FVDUJngsLmZBV4ondQPFVJGRmaiSzxxuQHeXwrqcf1vz7YJLUpBbmc&#xA;A93DOa/fT7s5/BPg0MyOcpV9z1+pxjJ2jjB5Rhf3/s+TKc0j0aGv2nS2Z4Z4rdl3Ms6lkA/4JMuw&#xA;CJlRBl5Dn9xaNSZCFxlGPnLl94YDrnmPWI/Us7i4s9QtZ1IrDxdaf7EhlYdd86nR6DCanGM8co9/&#xA;7eYeL1/aeeN45yx5ISHSj924KY/l15qg9Ofydrz8/Lmtfugzbm1uG/u5krsBzpy+/wAa5+ow0fEj&#xA;9Q+11Wmz2PDn9B+xkXkXz1qf5dazd2V7cLBqGkvJbD1Vd45YW6DivxFejL9GanVabJ4ozYBfEN/x&#xA;+N3eaPV4TgOn1JrgOx8vLn/YWT6j/wA5Sa89RFqLKvhbWsY+4yiv44jBr5dYx+X7UHN2XDpKfz/W&#xA;GP3P/OQfm68ZjBeapLQ7+nKYaVrTaE7Yf5N1J+rLXuv9i/yto4/Rhv31+1K5/wA4vOMqsrRag4J/&#xA;bup2B+Y44/yPM88x/H+cv8vYxywR+z/iUJF+dPmGKQn/AEhWG3w3cqkfTTJfyJLpll+Pix/0QwPP&#xA;DE/j+qm2n/8AOQvme3I/03UUA/Z+stMo+SyUGA9laiP05fnf7U/yzpJ/XgA91fsZbpP/ADlNrcfE&#xA;T34kH8t3bL9xMAB/HInFr4fzZ/L9ifE7Myfzsfz/AOPM00z/AJyjt5Erc2tlcNTf0rk2/wDwsglO&#xA;R/O6iH1Yj8L/AGsv5L0k/ozAe+v1h5j+an57X3mA+kksb+mT9WtYN4IidubN/ux6f5jHHpM2qkJZ&#xA;Rw4x0/H3/Jlk1un0UDHAePKf4u78dw+LxFmZmLMSWY1JPUk50gFbPJkkmymXl7VZ9N1WCeNiI2YJ&#xA;OnZkJoQf1jMPXaaObEYnn097ndm6yWDNGQ5XR8w+7vyZ1m41PyRCs7F5LCV7MOepVArp/wACsgX6&#xA;M1vZeUzwi/4dnZdu4Bj1Br+IX+PkznNi6d2KuxV2KuxV2KuxV2KuxV2KuxV2KuxV2KtSIsiMjbq4&#xA;KsPY7YCLSDRt8L+aLeTSfPmnGbYhpbGXt8SMy0P+yfOf00OLS5cfWJv8fJ7HV5BHWYMv8M48Pz5f&#xA;7pkOaN6Ni/nGx0dkF1qt7cIvS3tYilCQN+KFdz4knN32VmzA8OKMfMm/vt57tvT4COPNOY7oivsF&#xA;fbbziX0vUb0uXp1+DlTlT3pnXRut+bwk6vbkswsXqNxaQ+aIvLXmW4iFxJJFLp2tcqnlcWSfupHI&#xA;6tJGyk/LNLrc8sGOYiaNgj4nd3/Z2njqc0DMcQoiXwG36GQWcdvZU+p28NsR+1DFHGfpKqCc5met&#xA;zS5yl83sodnaePKEfkjxrutgADULkAdAJnAH0Vyrxp95+bf+Wx/zY/IKyeZ/MCGov5j/AKzcv11w&#xA;jPPvLA6TEf4Qrnzfq0qhbxbe+TpwuYUcU8NguWw1uSPVoydmYZdPx8UPLB+XeqDhq/li3iZus9iP&#xA;QNT3pGYz/wAMczsXbGQcyfv+912fsDHL6a+77kBc/kZ5O1dfW8s6zJbzD4ja3IEy/Lj+7kUe55Zt&#xA;cPa3Fz3+wuj1HYpgeo+0JJq/5OjT7dG1CA2zklPWtJTJCzDeo9QFgD4NQ/rzEz9qZ8UtiJw8xv7t&#xA;qdhpux9NqI7gwmO42PeLtj5/K26mmVLG8SViwpbzUhZx/Kkh5JyPblxGZWn7dhM1McJ+YcPV+zeT&#xA;GOKB4x8ihvNP5Ya9olq+oRKbzTYqC4kCGOa3J/ZuISWKf6wLL/lZscGthkNcpOo1OgyYgJHeJ6sZ&#xA;0i3FzqtpAxAWSZFYnbYsK5bqp8GKUu6Ja9Fj480I98h977s/Iy3ji8j+ojhmuLuaSRQalWAWPiff&#xA;igP05peyI1h95Lu/aGROpruiP1vQs2jo3Yq7FXYq7FXYq7FXYq7FXYq7FXYq7FXYq7FXyD/zkxo8&#xA;dj5j1CeEFWW4hvImHUNOoL/8lCTmp0w4dbKP8Mx+39b0WpkZ9nQn/Fjl+z9SV6Zepfafb3adJkDE&#xA;eB/aH0HbOf1GE48hgeher0mcZsUZj+IML85ahoy38p4m+vwBGquT6MAA6UWnJq1O/wDZnRdk4Mxx&#xA;j+CHP+lL9QeT7c1OAZT/AJTJy/ox/Wfx5MMJqa50LyzWKHp35ZXzf4W1GwJ+H69DOg9/RdG/41zm&#xA;/aD+H8fjm9b7LA3Py/T/AGMkzmXsXYq7FXYqhZtV0uCT0pryCKX/AH28iK33E1y+GmyyFxjIj3Fx&#xA;56vDA1KcQfMhFW9xuk9vLuDVJY27juGGVEGJ7i2gxmNtwWX2Hmj9JaReaXqxDyehI8FwRuWjUuA3&#xA;+UONQe+ZkNRxRMZdzrsmk8OcZw7xY97EMwXaJxD5lu4rm1uKeo8UXoXQfcTxhj8Lg9fhNK5kR1Eg&#xA;QeocSejjKJieR39zyn8z/Klv5f16K70uq6PqqfW9Op1jIP7yKvjG34EZ2ui1AzY7L53r9KdPlrk+&#xA;gf8AnGbzt9Zc6bM/w6jF6iL2F1AKSUH+WgJ+gZptIPA1EsPQ7j8e77nfdon8zpIagfVHaX49/wB7&#xA;6FzcvNuxV2KuxV2KuxV2KuxV2KuxV2KuxV2KuxV2KvlH/nKi4jbWtQQfaVLSM/Ogf9RzVY99f7o/&#xA;oegnt2X75fp/Y8V0nzZPp+gXFhHX6wz/AOjSfyK/2z9FNvc5mansyOXPHIfprfzrl+PJwtH2xLBp&#xA;pYx9V+k918/2e9jxJJJJqT1ObZ0jWKGwCSABUnoMUsz8u+TdVlgrfTyWdnIeRtUJWR9v2/D6d857&#xA;X9rYgagBOQ6nkPc9T2Z2HmlG8kjCB/hHM+/uZpp+mWOnw+jaRCJDux6sx8WY7nOdz6ieU3M29Zpt&#xA;LjwR4YCgisoch2KoTVrg2+m3Ewikm4IT6cJo5+R6j5jfMjSw48gFgb9eTi6zJwYpSoyochzePXc6&#xA;T3DypEsKsa+mpYj73LEnO+xQMYgE3+PJ8wzZBORkBw+W/wCm0VpOualpU3qWkpCk/HE28bfNf49c&#xA;p1Wjx5xUx8erkaPX5dPK4H4dC9E8uebIdZkaFYTDNGnOQFqg7gfDtv1zk9f2YdOLuwS9x2Z2xHVH&#xA;h4eGQFn9jLdM1ZrFv95be5StSs8Sufob7Q+/MDHk4egLs8uHj6ke4o69svI3mRibtbnQtQbYXVlM&#xA;0aV9wP3fzqn05s9PrsfKUY/EAuk1XZubnGcvhIg/Jinnb8pPzCOmxxWWpDzFpNszTW0J4pcJzHxF&#xA;Qa8gR/K+/wDLm90upwx5Dgv5PNazTZ5fVLjrv5sS8jecL/yXqpS5Seyu7eZZYyyUeGQCjc43FaEU&#xA;qKfRkO0NFPLKOXERxR+1u7L7Qx4Yyw5geCX2fjZ9R+Rv+chNH1WKOPWQkfKgGoW1Wir/AMWR7uh+&#xA;/wCQzDx9pGEuDNHhPe5ebsaM48emlxx7uv499PW7W6tru3S5tZUnt5RyjljYMjDxBGxzbRkJCxuH&#xA;QzgYmiKIVcLF2KuxV2KuxV2KuxV2KuxV2KuxV2KoLW9ZsNG0u41O/k9O2tl5Oe5PRVUd2Y7DK8uW&#xA;OOJlLkG7T4JZZiEeZfDP5y+cZte1uYyEetPMbm4UdE24xR/7FP4ZhdkYpTlLPL+LYfj7Hb9u5o44&#xA;Q00P4Nz7/wAEl5xm+eZdiraqzMFUEsTQAbkk4k0kAk0HpPlPyhFp8aXl6oe/bdVO4iHgP8rxOcf2&#xA;n2ocp4IbQ+/9j3nY/YowgZMgvJ/uf2sozSvQuxVUgWFpVWZzHET8TqvMgePGq1+/CKvdjImtubPd&#xA;E8l6eqR3ttqBnDAFJBHGV/4FxJT9ebLFpY8wbdLqNfLeJjXxP7GXhFC8aClKUptmbTrLeO/m75S8&#xA;pySiLTtIjTXrkc5LyNzBDEpP25ESqyO2+wWvdj0rk4+0BhHqlt3cz+xxp9ly1B9Ed/53IftLziD8&#xA;s/sme/8A9ZUj/Uxb+GVz9of5sPt/Y5OP2V/nZPkP03+hlWkaJp+kwelaR0Lf3krbu5H8xzSarWZM&#xA;8rmfh0D0ei0GLTR4YD3nqUfmK5jsVTfQfM2oaRIBGxltSfjtmPw+5X+U5fhzyh7nF1GkhlG+0u9M&#xA;PzD1z8qNQ0SKXzIVkmlU/VkgFb5COvHj9mh/nPA++dFoJ5J74+X2PI9o48eM8OXn9r52GoDTtTkm&#xA;0W4mW3DfuXmVUkZOwkRWdPxzdZcEcseHIAfx0dFh1M8M+LHIj8dXpXk38+da0GERxXE1mWNZViVJ&#xA;YGP83pyVoT7DNLLsvPiJ8Gfp7j+KehHbGmzgfmIervH9t/e92/Lr/nIWz1qaK21cwmKQiNb+CqBH&#xA;Ow9eNj8IP8wp8sjj12THMQzx4b6ozdlYsuM5NNLirnHr+v5vas2zz7sVdirsVdirsVdirsVdirsV&#xA;UL+/stPs5by9mW3tYF5SyuaKB/n0GRnMRFk0GePHKchGIsl8qfnj+dD6nP8AV7QlLWMn9H2bdSen&#xA;1iYDv/KP7TmnhCeuyd2GP2/t+56SUodm4uktRMfL9n3l89SyyTSvLKxeSQlnc9STuTnSxiIgAcg8&#xA;lOZkTImyVmSYOxVF6bftYXQukjWSaMH0ee6q381O5HbKNRg8WPCTQPP9Tk6XUHDPjABkOV9D3vQf&#xA;LNlr1zx1HVryWj/FDaA8BTqGcLQf7H785XtDNgh+7xRHnLn8v1va9lYNTkrLnnLflHl86+75smzT&#xA;PQOxV2Ko/S9c1TTGJs5zGrbtGaMh/wBiajLceWUORac2nhk+oK2q/mHqscRN3qKWkbdKcIyfkftf&#xA;ccyITz5TUbPuDhzw6bCLmQPeWKP5y8vySEvqCtIx+Jm5mp92IyZ7M1PPgLAds6QbCY+39SncecvL&#xA;kKkm7Eh7LGrMT9wp95yUOydRI/TXvRk7c0sB9d+60iHmfW9fvvqWjJ9Ug6y3DAM4T+Y9l9gN/fNk&#xA;ezsOlhx5jxS6Dp+PxTpx2tqNZk8PAOCPU9a/R+N2W6dp6WUPD1ZJ5Wp6s8rF3Yj59B4AZos+c5JX&#xA;QA7hyel02mGKNWZHqSbJRWUOS7FXkvm5p28xXvrE8g9Fr/JQcf8Ahc7vssR/Lx4e77er5r2yZHVT&#xA;4u/7On2JPme6t2Kp95KvZrbzBbohPp3FYpV7EEEj7jms7XwieCRPOO4dx2Fnlj1UQOUti++vy7v5&#xA;r/yTo9zMeUptxGzHqfSJjqfc8Mr0MzLDEnuXtPGIaiYHK/v3ZFmU4DsVdirsVdirsVczKqlmICgV&#xA;JOwAGKuxVIfM3nfy35cgZ9Ru1E4FUs4yHnf5IDt82oMxtRq8eIeo793VzdJ2flzmoDbv6Pl/83/z&#xA;zvNXnNslFjiNbbTkNUjPT1J2FOT07fq767Hgy62Vy9OL7/x3u6yZ8HZ0TGHrznme78d3PveEXV1c&#xA;XVw9xcOZJpDV3PUnOkx44wiIxFAPJ5csskjKRuRUsm1uxV2Ksm8j6Cuo35up15WtoQSp6NIfsr8h&#xA;1OaftjW+Fj4Y/VL7A7/sDs8Z8vHIeiH2no9MzjXv3Yq7FXYqoXjXAgb0CqSH/dsn2EFN3IqK08Mt&#xA;xCPF6uXcOvk05zIR9NA955DzeS69dW9xqDvDNLc02a5mIq58VUAcV8BndaLHKGMAgR8h0/We9817&#xA;QyxnlJiZT/pHr7h0HcEuzLcF2Ks88g2+qm35xhLawLEvJw5STMDSgJOyr0zme28mLio3Kfv2j+0v&#xA;Y+zuLNw2KjjvnW8v2Bm2c29a7FXYqxrzd5U/Syi6tSFvoxxIOwkUdAT2I7HNz2X2n4Hpl9B+x0Hb&#xA;PY/5n1w/vB9rALvQ9YtCRcWcqAdW4kr/AMEKr+OdRi1mHJ9MgXjM2gz4vqhIfDb58kDmS4af+SLG&#xA;W58wQSKpMdtWWRuwoCF+9jmr7YzCGAjrLZ3XYOA5NTEjlHc/j3vvzyDp0mneTNHtJRxlW2R5FPUN&#xA;J+8IPyLZHRw4MUQe5r7RyieonIcr+7ZP8yXCdirsVdirsVdirTojoyOoZGBDKRUEHYgg4kJBp4v+&#xA;Zf5RxWkU+u+XuMMEQMt3YlgoQDcvCT0A/l+7wzn9f2YIgzx8uo/U9Z2V20ZEYsu5OwP6/wBfzfNv&#xA;nfU/MlrWlzFFazE8GiJE7V68uRLfSuW9kYNPkNkSMx3/AE/j3sO3dTqsQoSjHGeXDtL8e5gJJJJJ&#xA;qT1OdQ8a1ih2KuxV2KvWfKNgLLQLVaUeZfXk9zJuK/7Ggzhe1M3iZ5HoNvk+k9i6fwtNEdZeo/H9&#xA;lJzmvdq7FXYq7FWK/mBqzWumJZxNSS8JDkf77X7X3kgffm77D0onkMzyh97zntHrDjxDGOc/u/b+&#xA;t5vnXvCOxVfFG0sqRr9p2Cj5k0yMpUCe5lCPEQB1eiat5s07QoU02wQXE8CiOlfgTjt8RHVvEDOT&#xA;0vZmTUk5Mh4Yy38z7nuNZ2xi0kRixDilEV5D3+bEbzzf5humJa7aJT0SH92B9K/F+Ob7F2Xp4fw3&#xA;793ms3bWqyH6yPdsh4/MWvRtyXULgn/KkZh9zEjLZaDAf4I/Joj2nqYmxkn8yfvT7SfzDv4XVNSQ&#xA;XEXQyoAsg96D4T+GazU9hQkLxnhPd0/W7nR+0uSJrKOKPeNj+o/Yz2zvLa8tkubZxJDIKqw/z65y&#xA;+XFLHIxkKIeyw5oZYCcDcSrZW2sW8+6dYHR5LwwoLpHQLKAAx5NQgkdds3fYuefjCF+kg7PO+0Wm&#xA;x+AclDjBG6p+VFgI/M/oIPUVnsAwO9XkozL/AMESMyu1cnH4d/z5fLioOF2NiGPxq5CEfmY2ftt9&#xA;25uHmXYq7FXYq7FXYq7FUDrWt6ZomnS6hqU4gtYurHcknoqgbsx7AZXlyxxx4pGg3YNPPLMQgLJf&#xA;LX5x/npc6lI1nDWO1U1ttOB67/DLckdT3C/d45qYQy66X83CPt/HyD0Mp4ezY/z9QR8v1D7S8Bv9&#xA;Qu7+5a5upDJK/c9APADsM6LBghijwxFB5bUameaZnM2ShstaHYq7FXYq7FXt8MYihjiHRFCj6BTP&#xA;N5y4iT3vreOHDEDuC/Is3Yq7FXYq82/MGSSXX0hALenCioo3qWJOw+nOw7DiI4Ce8l4P2kkZakR7&#xA;ohi7KysVYFWU0ZTsQR2ObkG9w88QQaLWFDasysGUkMDUEbEEYkWkGlS2trm7uYra2iee5ncRwwxg&#xA;u7u5oqqoqSSTir33Qv8AnHryh5X0SLX/AM3NcGlrKOUWj27j1K0rwZlEjyP4rCu382VHITyZiNc2&#xA;z5z/AOcR7RxaxeUNSuo0PEXQDsG3+1WW8ST/AIXGp963FO9L/LX/AJxm/MRTb+U9Sn0XV2FUsvVk&#xA;EnL/AIw3nqeoO59J/pwGUhzTQLzbzz5A88/lFqCLcsmoaDeORbXqBhC7AV4spqYpeIrSpB7FqGmJ&#xA;qtFi1I32l3ufoe08ukPp3ieh5fsQVp+YmjSqPrEctu/fYOv0Fd/wzQ5ews0fpIl9n4+b0+H2lwSH&#xA;qEon5/j5JH5z80WuqRwWlizNbqfUlYgrVuiih32zZ9k9nSwkzn9XIOo7c7WhqBGGP6eZ972X/nHD&#xA;yNdXGuQX13GaWr/pC9YjpJ/x7x+x5fF9BzF4hqNUOH+7x/j7/ucuYOl0REv73Mfx9n2l9U5uXmXY&#xA;q7FXYq7FXYqk/mnzVpPlrTHv9RkA2IggUj1JXH7KD9Z7ZRqNTHFHik5Wj0c9RPhgPee58h/m3+c2&#xA;p61qLoJAZkqsECGsNqp7D+aTxJ/szXabST1cvEy7Y+g/H39Xd6rW4tDA4sG+X+KX46+XR45LLJLI&#xA;0srF5HJZ3Y1JJ6knOkjERFDYB5OczIkk2SswsXYq7FXYq7FXYq9ulnhihaeRwkKryaRjQAeOecRg&#xA;ZHhA3fW55IxjxE1HvXgggEdDuMiQyBtvAl2KuxVLZdJtk1KfVyvO49EJGCK8StSSPc7DMyOpkcYx&#xA;fw8TgT0cBlln5y4aHlVvICSxJJqTuTnfAPmJNtYodir6b/5xw/K2Xy9YXn5meZ7XhFa2ck2j27AN&#xA;KI1QvLc8f2WKLwQHfc+2U5JXsG2A6vBPPXnfW/OnmS613V5S0s7H0YAxMcEVfgiiB6Ko+/qdzlsY&#xA;0Gsm2P4ULo5JI5FkjYpIhDI6kggg1BBHQjFX2bYfmd5TsfyS8r6h+Y6rqTarbvH9WniW5kuGt1kC&#xA;yFHBqWCKpc/tOKkVrmNwni2br23Sjywn/OLfnHzDbaXo+gpNqtxJKIoFhuIU4xrK7SOAyxhOMe1f&#xA;5lAFehPEEDhLwfR/Lumz/mJrEWkR/WdHsr64i0oirh1M7JbcSftHgKjNb2zqDHEIA+qf3O79n9KJ&#xA;5jOQ9EBfx6frfb3k3yrY+WdDh062UepQPdzftSTEDkxPh2Htlml08cMBEfFxNdrJajIZn4eQTzMl&#xA;w3Yq7FXYq7FUs8yeYLLQNGuNVvAzQ24+wgqzMTRVHzOU58wxQMj0cjS6aWfIIR5l8c/nB+ZXmDVL&#xA;9p5eaS3AKxSAERQRVNIoj05eJ+nrmq0GEavIcmQg1yj+On3vQ9pZ/wAjiGHCCDLnP9vf9zx8kk1O&#xA;5PU51DxzWKHYq7FXYq7FXYq7FWa69rDXnl7RbeNqm8KrcCvUw0Qg/NjXOd0Wl8PUZZH+Dl8d/uer&#xA;7Q1vi6XDAfx8/wDNofez3OXezdirsVdiriAQQdwdiMKCLeM3OmTxas+nKKzCb0UB7ktRfvz0HHqI&#xA;yxDJ04bfLMullHMcX8XFw/bshpoZYJnhlUpLGxV0PUEbEZdCYkARyLROBhIxkKIWZJg9m/5x1/Nt&#xA;PK+tN5b8wXFfKWsVikWc1itp3FBJvsqSfZk7dGPTK8kL3ZxlSD/OP8hPMHkzUbjUdHtpdR8pTEyW&#xA;13CDK1uh39O441I49A/2WHeu2MJ2so08lyxgybyF+XnmfzzrSaXoVqZCCDdXb1WC3Qn7cr9vYdT2&#xA;BwSkAkC1nmPRfMY8zS+X5pptUm0y5bR7GX42jZYJnt41h5VCozRtxA9/fEEUpTnSbbzR5U82+YfK&#xA;mnXUVrfkzaZfapGpMgt4pCsogbqgmopPRugqN8xNZqo4cfGRbm6DRS1GXwwa8/J9G/kZ+Tq6RHba&#xA;zqEBiii/e6fbyAeo8h6XEvhT9gfTtQV0+lwTzZPHy/5o/H46u81+qxYMX5bB/nH8fb8nuObd552K&#xA;uxV2KuxV2KtSRpIjRyKHRgQyMKgg9QQcBFpBI3DzHzt+RXl7WopZdKCWFxJUvauvK1k9uPWP/Y7e&#xA;2avP2YL4sR4JfZ+x3ml7bkI8GYeJD7f2/jd80+fPyR1nQrlh9XazdifTRzzgk/4xTCv3H8MOLtTL&#xA;hPDnj/nD8U2Zex8OoHHpZb/zT+LH43eZ32n3thMYbuFoZB0DDY+4PQj5ZvMOeGWPFA2HnNRpsmGX&#xA;DMGJQ2WtDsVdirsVdirsVVUuJB6SliY4m5qngTStPnxGQMBv3lsGQih0Bt7YrBlDDcEVBzzkh9ZB&#xA;tvAl2KuxV2KsW8yaNx1vTtZiWqrPCl2PAcwFk+jofozd6DV3hnhP808Py5PO9qaGtRj1AHKURL57&#xA;H8eSG8+eXElgbVrZaTRAfWVH7SDbn817+3yy7sXXmMvClyPL393xaPaHswSj48PqH1eY7/h93uef&#xA;51LxSY6JpY1S6ezVglw6M1ux6F034n2K1zE1mp8GInzje/uc7QaT8xM4wakRt7x+x6L5K/PP8z/y&#xA;7WPSpiL7S49otP1AM6oo2/cTKQ6r4AEqPDLIShljxRNhpy4smGXDMUQy66/5yU/LzUQbjVvyv068&#xA;vyCWklNtLyanXnJalhU/P6cl4Z72vjHchoP+ct9d0/1YNE8q6RpumkH0LSNZAUc/tMYzEjdtgg+e&#xA;Phea8aXTf85Y/mJJEiJpmiQmM8ldLSUkNuagPOwBqxOw74fCCOMu/KnyvrnnTzhNqupVe/1ydrm7&#xA;mChAkDP6k0lAKKG/ZHy8c5/tHJ+YyxwQ5R+r8eX3vU9lYvyuCWpn9UhUfx5/cLfZ8caRosaKFRAF&#xA;VR0AGwGbYCnnSbNlvCh2KuxV2KuxV2KuxV2KqN5ZWd9bPa3kKXFtKKSQyqGUj3ByMoCQoiwzhklA&#xA;8UTReUedv+cfNE1SGR9HZYS1SbC5rJCT/kPu6fj9GarJ2YYniwy4ZO9w9ticeDURE49/X8fJ86ec&#xA;/wAkNa0Sdg0ElkSSEScFoW/4xzLyB/HJw7Wy4jw54/Efiln2Jhzji00x/VP4sfH5vPdR0DV9OJ+t&#xA;Wzog/wB2gck/4JajNvg1uLL9Mhfd1dHqezs+D64kDv6fNL8ynCdirsVdirsVev8Alu8F5oVnNWre&#xA;mEf/AFk+A/iM4HtDF4eeUfP7930/svP4unhLyr5bJnmG57sVdirsVaZVYFWAIOxB6YQaQRfNqSNJ&#xA;I2jcckcFWU9CCKEYYyINjmiURIEHkXi+oWptL64tT1gkaOvjxNK56HgyeJCMu8W+VanD4eSUP5pI&#xA;RXl2W4h1m1mgAZ43qVZlQFejDkxA3U5Tr4xlhkJciPf9zf2bOUc8ZR5g94Hv5+T2qwvooKrc20d9&#xA;aOPjs7hVkhYkUqysGGcRg1EsRuJfRtTpIZ41IBclh+W883K98qwrXq1vI6D6IwUX8c2MO2cnV0+T&#xA;2exdKTmB/wArLGKtn5bgeSnwiW3ic1p/PIXI+jJT7WJ6yYQ7Co8o/e8Q1vTrS889y2dlCkFvNOpa&#xA;CIcY0BAeQIB0CiubnBqpR0niT50fv2dFqdFCWu8GH02PuHF+l9nfkj5dh07ymuotEFu9Sdn5kfEI&#xA;UPCNfl8Jb6cxOycPDi4jzk5Pb2pM83APph9/42eiZtHRuxV2KuxV2KuxV2KuxV2KuxV2KrJ4ILiF&#xA;oZ41lhcUeN1DKw8CDscBAIopjIxNg0WDa/8Akx5M1QO9tC2mXDb87Y/u6+8TVWnstM12bsvFPcek&#xA;+TuNP27qMe0jxjz/AF/2vJvNf/OL143OWxjt9Q3NGhP1Wc+5Vj6Z/wCCOUjFq8P0S4x3H9v63KOq&#xA;0Go/vIeHLvH7P0h5B5j/ACY13SJCkiTWrVISO8iZAafyyAcW+gZdHtqUNs0CPd+39bXL2fhkF4Mg&#xA;l5H9n6mHah5Y1yxqZ7RzGP8Adkf7xaeNVrT6c2WDtHBl+mQvz2dRqeytRh+qBrvG4+xKszXXOxVm&#xA;35dauFebS5Wp6n723r/MBR1+4V+/Oc7e0tgZR02P6HrfZnW0ThPXcfpH6fmzzOYexdirsVdirsVd&#xA;irybzgoXzJfAU+0p290U53XZRvTQ/HUvm3bQrVz9/wCgJNmwdUyryp5ybTlFnfcpLL/dcg3aP2p3&#xA;X9WaTtLsnxfXDaf3/tej7I7bOD93k3x9D3fsZ/banp11GJLe5jlQ91YfiOozlsmnyQNSiQ9ni1eL&#xA;ILjIEe9LNc826XpsDhJVuLun7uCM8t/8oj7IzM0fZmXNIWOGPef0OBr+2cOCJoiU+gH6e5B/lJ5W&#xA;1HzB5hWehe5v5fRhkIru55TSn2Ufxzbdqysw08PL4d363R9ix4Rk1eTzrzPX9T7psLKCxsbeyt14&#xA;wW0aQxL4KihR+AzZwgIgAcg6DJkM5GR5k2r5Jg7FXYq7FXYq7FXYq7FXYq7FXYq7FXYq7FVk0MM0&#xA;TRTIssTijxuAyke4O2AgEUUxkQbHNiGuflJ5I1UM31L6jO3SazPpUP8Axj3j/wCFzBzdm4Z9KPl+&#xA;Kdpp+2tRj/i4h/S3+3m8d88/84zXTLJcWCJqSdecIEF0Pmpqj/eT7ZijDqtP/dy449x/H3FzzqtF&#xA;q9ssfDn/ADh+v9YeCeYPy61vSppUjjeYREiSFlKToR2aM7/d92Z2m7ZxzPDk9EvPl+Pe4Or7AywH&#xA;FiPiQ8uf7fgxqGa4tLlJYyYp4WDKehDKc2s4RnEg7xLpYTljmJDaUS9Y8va7b6xYLOlFnSi3EXdW&#xA;/oe2cLrtHLBPhPLoX0ns3tCOpx8Q+ocx3H9SaZhOwdirsVdirsVeQeZbgT6/fSDcesyg+yfD/wAa&#xA;533Z8OHBAeX37vmPamTj1Mz/AEvu2SzMx16Is7C9vZfStIXmk7hBWg8Se305Vlzwxi5kAN2DT5Mp&#xA;4YRMj5JqvkjzM1P9DoD3MkX/ADVXMI9saYfxfYf1OyHYOrP8H2x/Wn/lz8p9a1O9jhdWmdiP9FtV&#xA;aWRh7kCij3zDy9tiXpwxMpOdh9njD1Z5xjD8df7X1v8AlH+VsflKzF5exoupyRiOKBKFbeLqVDDY&#xA;u37RH9ajQ6OUCcmTfJJr7T7RjkAxYhWKP2vR82TpnYq7FXYq7FXYq7FXYq7FXYq7FXYq7FXYq7FX&#xA;Yq7FXYqkvmPyd5d8xQenqlmssgFI7lfgmT/VkG/0Hb2zHz6XHlHqH63L0uuy4DcDXl0+TwD8zP8A&#xA;nHK4RJLywRtQt1FRNCoF3GP8tBtIB7fcM1ox6jSb4zxw7vx+h3f5jS64VlHh5f534/T83gV1pev+&#xA;Vb4XcJ5Qg8fXUEow/lkXtX/aObDHqcGthwS593X4fj3uty6TU9nZOOO8e/ofI/j3Fm3l7zLZaxD8&#xA;BEV2grLbk7/NfFc5zXdnz0533j0L1vZvauPVR22mOY/V5Jxmvdo7FXYqgda1JNN0ye8Yisa/uwe7&#xA;nZR9+ZOk05zZBAdfucTX6oYMMpnoNvf0eOMzMxZjViak+5z0ECny0mzaraWs93cx20C85pWCoo8T&#xA;kMuSMImUuQbMOKWSYhEXIvqv8jPyf0270v63qsTPpsJ4QoCU+sTdZHZhRuC9BQ+3bOZwYfzczlyf&#xA;T0H4/FvW6vVfkcccGL6+cj+O/wCwPaYfy+8kRU46JZmhr8cSv/xKubIaLCP4Q6SXaWoP8cvmnNnY&#xA;WNlF6VlbRW0XX04UWNfuUAZkRhGIoCnEnklM3IknzV8kwdirsVdirsVdirsVdirsVdirsVdirsVd&#xA;irsVdirsVdirsVdirsVYD+YH5R6J5mhmubRI7PVnB5Px/czk9pkHj/MBXxrmu1fZ8cnqj6Z9/wCP&#xA;vdxoO15YhwT9eLu/V+p8j+ePy31zytqskltDJa3Nseclr1ZP8uIivND9ODTa/i/c6gb956/jvbtX&#xA;2ZwgajSG486HMe79I/Qi/K3m2HVUFtc0iv1HTosgHdffxGavtLss4DxR3h93vd12R2zHUDgntk+/&#xA;3fqZHmod64kAEk0A3JOFBNPMPOPmT9K3X1e3P+g27Hgf9+N05/L+XOz7K7P8CPFL65fZ5frfP+2+&#xA;1PzE+GP93H7T3/qY7m2dE9p/JL8qL7WdUj9VTG7gPdTU/wB57cn3/wB2P2H9uc1rM51eTwof3ceZ&#xA;/H2PXaLBHQYfGyD97L6R+Pt+T7I07T7TTrGCxs4xFa26COKMdlGbaEBGIiOQedy5JTkZSNkojJMH&#xA;Yq7FXYq7FXYq7FXYq7FXYq7FXYq7FXYq7FXYq7FXYq7FXYq7FXYq7FXYqx/zl5J0fzVp5tr1fTuY&#xA;wTa3igepG3/Gy+K/x3zF1WkhmjR59C52h1+TTSuPLqO98gfmj+UeseXtWd4ojFdqTJGYto51U/3s&#xA;J7N4j+PXD02slgPg5949D+On3O11WghqY/mNNtMc4+fl5/f70B5T82LqKiyvSI9RjFATsJAOu3Zh&#xA;3GYPafZnheuG+M/Z+x2XY/bAzjw8m2Uf7L9veEN5+1421sNMt2pNcLWcjqI+nH/Zfq+eXdiaLjl4&#xA;kuUeXv8A2NHtF2j4cfBifVLn7v2/d73n8cUksixxKXkc0VFFSSewAzqpSERZ2DxUYmRoCyXrH5V/&#xA;k9q+t6pETDzuFIZuW8Nup/3ZK3Tl4L/Hpzuq109TLwsP09Zfjp971Wj7Ox6OPjaj6/4Y/jr9gfYn&#xA;lDynpvljR49Pshyb7VzcEUaWSlCx609h2zO02mjhhwh0+t1k9Rk45fAdwTvMhxHYq7FXYq7FXYq7&#xA;FXYq7FXYq7FXYq7FXYq7FXYq7FXYq7FXYq7FXYq7FXYq7FXYqlXmXyzpPmPTH0/Uog6GpilFBJE9&#xA;NnRux/X3yjUaeOWPDJydJq54J8UD+18i/m3+T2raDqvrRALc19S1u4xxjuAu9Qf2ZV7j+FDmtwai&#xA;WlPhZvViPI/j7Q77UaaGuj4+D05o8x+Ovcerzq38ueY/MF+11dIYOZCyTSqVrxAX4U2J6fLM6ev0&#xA;+lgIQ9XcB+t12PszVazIZzHD3k7ctth+A98/K/8A5x1uGWO81BHsLRgC00oH1uVT2RCKRqfE/ccw&#xA;Djz6s3kPBj7vx+l2H5jS6EcOEeJl/nfj7h8S+idE0HSdDsEsdMt1t7dOoX7TH+Z2O7N7nNriwxxx&#xA;4Yig6DUaieaXFM2UflrQ7FXYq7FXYq7FXYq7FXYq7FXYq7FXYq7FXYq7FXYq7FXYq7FXYq7FXYq7&#xA;FXYq7FXYq7FUv13QdL13TZNP1KETW8nT+ZGpQOjfssK7HKs2GOSPDIbN+n1M8MxOBopJ5V/LLyr5&#xA;cKTW9v8AWr5dxe3NHcH/ACBQKn0CvvmPp9BixbgWe8uXrO1s2fYmo9w/G7K8zXWuxV2KuxV2KuxV&#xA;2KuxV2KuxV2KuxV2KuxV2KuxV2KuxV2KuxV2KuxV2KuxV2KuxV2KuxV2KuxV2KuxV2KuxV2KuxV2&#xA;KuxV2KuxV2KuxV2KuxV2KuxV2KuxV2KuxV2KuxV2KuxV2KuxV2KuxV2KuxV2KuxV2KuxV2KuxV2K&#xA;uxV2KuxV2KuxV2KuxV2KuxV2KuxV2KuxV2KuxV2KuxV2KuxV2KuxV2KuxV2KuxV2KuxV2KuxV2Ku&#xA;xV2KuxV2KuxV2KuxV2KuxV2KuxV2KuxV2KuxV2KuxV2KuxV2KuxV2KuxV2KuxV2KuxV2KuxV2Kux&#xA;V2KuxV2KuxV2KuxV2KuxV2KofUr+DT9Our+45GC0hknl4CrcIlLtQdzQYqw2P829LkKFdF1YRSOY&#xA;o7kwwC3aRTQotwZ/RZq1FA/UEdjjaoA/n35PELzG1vhGnEglbYFhJUoYx69ZAwHIFK7b9MVbP58+&#xA;Tw0a/Vb0+rGZUIFqw4qvI1IuCAwH7J+L2xVcnkHzMv1aQSWoltlthw+sStFLcQcvVvpVkgcmabkv&#xA;IKVccf748jiqnc/lXq/6PSO11KJbr04hI/D0+MqiJZGhkReUfMRVdqFpKlWpWoVRl/8Al7qVzpxh&#xA;hnS0c280b2ccoW2lnJ/0eSQQW9svwJJKGpHvVSeRRaKqT+QvNr3H1iLU4LKKJpPqWmxGaSGAPI06&#xA;cXPpghZ1gfiYuicFKoxGKoWz/LPzdbwwSrrapqFnHPHasrzvAVkBdElRyWdec0qMSa8eBHxKKKpt&#xA;eeUNdnedilpM8j27rcSXNyrmCAQo9kwWOnoziFmbcqC5/dtuzKpda/lt5ojufW/Tht7VtRs719Li&#xA;eV4RDaXa3CWySPRlSOPmlFUCSiV4KCpVekYq7FXYq7FXYq7FXYq7FXYq7FXYq7FXYq7FXYq7FXYq&#xA;7FXYq7FXYqlfmq0vLzyxrFpZRiW8ubK5itomIUNK8TKiljQCrEb4q+dn0L80YvL1j9W8l6w+tW6w&#xA;xPbT6lavZUgENGEY4t/x7LxpJVT7KoCqjZ/lp5zkKWF35evhZahCbjULiUxy/Vbk2yIYIo/rTCcP&#xA;xEDySLVlVS1eyrv+VZ+fF0i+uLTyzJHrEcktnZ2DSVjuoS8apdyTtL8DEO8hQ91G2+BD/9k=</xmpGImg:image>
               </rdf:li>
            </rdf:Alt>
         </xmp:Thumbnails>
      </rdf:Description>
      <rdf:Description rdf:about=""
            xmlns:xmpMM="http://ns.adobe.com/xap/1.0/mm/"
            xmlns:stRef="http://ns.adobe.com/xap/1.0/sType/ResourceRef#"
            xmlns:stEvt="http://ns.adobe.com/xap/1.0/sType/ResourceEvent#">
         <xmpMM:OriginalDocumentID>uuid:9E3E5C9A8C81DB118734DB58FDDE4BA7</xmpMM:OriginalDocumentID>
         <xmpMM:DocumentID>xmp.did:631E35630F206811822A8451A1857300</xmpMM:DocumentID>
         <xmpMM:InstanceID>xmp.iid:631E35630F206811822A8451A1857300</xmpMM:InstanceID>
         <xmpMM:RenditionClass>proof:pdf</xmpMM:RenditionClass>
         <xmpMM:DerivedFrom rdf:parseType="Resource">
            <stRef:instanceID>xmp.iid:621E35630F206811822A8451A1857300</stRef:instanceID>
            <stRef:documentID>xmp.did:621E35630F206811822A8451A1857300</stRef:documentID>
            <stRef:originalDocumentID>uuid:9E3E5C9A8C81DB118734DB58FDDE4BA7</stRef:originalDocumentID>
            <stRef:renditionClass>proof:pdf</stRef:renditionClass>
         </xmpMM:DerivedFrom>
         <xmpMM:History>
            <rdf:Seq>
               <rdf:li rdf:parseType="Resource">
                  <stEvt:action>saved</stEvt:action>
                  <stEvt:instanceID>xmp.iid:F77F117407206811822A8451A1857300</stEvt:instanceID>
                  <stEvt:when>2013-10-06T17:09:14+13:00</stEvt:when>
                  <stEvt:softwareAgent>Adobe Illustrator CS6 (Macintosh)</stEvt:softwareAgent>
                  <stEvt:changed>/</stEvt:changed>
               </rdf:li>
               <rdf:li rdf:parseType="Resource">
                  <stEvt:action>saved</stEvt:action>
                  <stEvt:instanceID>xmp.iid:631E35630F206811822A8451A1857300</stEvt:instanceID>
                  <stEvt:when>2013-10-06T18:16:57+13:00</stEvt:when>
                  <stEvt:softwareAgent>Adobe Illustrator CS6 (Macintosh)</stEvt:softwareAgent>
                  <stEvt:changed>/</stEvt:changed>
               </rdf:li>
            </rdf:Seq>
         </xmpMM:History>
      </rdf:Description>
      <rdf:Description rdf:about=""
            xmlns:xmpTPg="http://ns.adobe.com/xap/1.0/t/pg/"
            xmlns:stDim="http://ns.adobe.com/xap/1.0/sType/Dimensions#"
            xmlns:xmpG="http://ns.adobe.com/xap/1.0/g/">
         <xmpTPg:NPages>1</xmpTPg:NPages>
         <xmpTPg:HasVisibleTransparency>True</xmpTPg:HasVisibleTransparency>
         <xmpTPg:HasVisibleOverprint>False</xmpTPg:HasVisibleOverprint>
         <xmpTPg:MaxPageSize rdf:parseType="Resource">
            <stDim:w>209.999929</stDim:w>
            <stDim:h>210.001308</stDim:h>
            <stDim:unit>Millimeters</stDim:unit>
         </xmpTPg:MaxPageSize>
         <xmpTPg:PlateNames>
            <rdf:Seq>
               <rdf:li>Cyan</rdf:li>
               <rdf:li>Magenta</rdf:li>
               <rdf:li>Yellow</rdf:li>
               <rdf:li>Black</rdf:li>
            </rdf:Seq>
         </xmpTPg:PlateNames>
         <xmpTPg:SwatchGroups>
            <rdf:Seq>
               <rdf:li rdf:parseType="Resource">
                  <xmpG:groupName>Default Swatch Group</xmpG:groupName>
                  <xmpG:groupType>0</xmpG:groupType>
               </rdf:li>
            </rdf:Seq>
         </xmpTPg:SwatchGroups>
      </rdf:Description>
      <rdf:Description rdf:about=""
            xmlns:pdf="http://ns.adobe.com/pdf/1.3/">
         <pdf:Producer>Adobe PDF library 10.01</pdf:Producer>
      </rdf:Description>
      <rdf:Description rdf:about=""
            xmlns:xmpRights="http://ns.adobe.com/xap/1.0/rights/">
         <xmpRights:Marked>True</xmpRights:Marked>
         <xmpRights:WebStatement rdf:resource="http://www.ospreydawn.com"/>
         <xmpRights:UsageTerms>
            <rdf:Alt>
               <rdf:li xml:lang="x-default">This work is licensed under a &lt;a rel="license" href="http://creativecommons.org/licenses/by-nc-sa/3.0/"&gt;Creative Commons Attribution-NonCommercial-ShareAlike 3.0 Unported License&lt;/a&gt;.</rdf:li>
               <rdf:li xml:lang="en_us">This work is licensed under a &lt;a rel="license" href="http://creativecommons.org/licenses/by-nc-sa/3.0/"&gt;Creative Commons Attribution-NonCommercial-ShareAlike 3.0 Unported License&lt;/a&gt;.</rdf:li>
               <rdf:li xml:lang="en">This work is licensed under a &lt;a rel="license" href="http://creativecommons.org/licenses/by-nc-sa/3.0/"&gt;Creative Commons Attribution-NonCommercial-ShareAlike 3.0 Unported License&lt;/a&gt;.</rdf:li>
            </rdf:Alt>
         </xmpRights:UsageTerms>
      </rdf:Description>
      <rdf:Description rdf:about=""
            xmlns:cc="http://creativecommons.org/ns#">
         <cc:attributionName>Max O'Brien / Osprey Dawn</cc:attributionName>
         <cc:license rdf:resource="http://creativecommons.org/licenses/by-nc-sa/3.0/"/>
      </rdf:Description>
   </rdf:RDF>
</x:xmpmeta>
                                                                                                    
                                                                                                    
                                                                                                    
                                                                                                    
                                                                                                    
                                                                                                    
                                                                                                    
                                                                                                    
                                                                                                    
                                                                                                    
                                                                                                    
                                                                                                    
                                                                                                    
                                                                                                    
                                                                                                    
                                                                                                    
                                                                                                    
                                                                                                    
                                                                                                    
                                                                                                    
                           
<?xpacket end="w"?>
	</metadata>
<g id="Layer_2">
	<g id="_x37_Wl2mV_1_">
	</g>
</g>
<g id="Layer_1_1_">
	<g>
		<path fill="#D34B07" d="M332.201,488.572c-0.41-0.396-41.538-40.211-60.763-53.637c-23.326-16.293-55.226-31.639-72.58-37.064
			c-3.026-0.939-6.828-2.088-11.151-3.387c-19.729-5.932-49.549-14.896-68.201-23.748c-21.413-10.16-53.372-28.117-54.722-28.875
			l-8.093-4.551l6.226-6.889c12.691-14.043,38.86-36.034,53.713-48.197c-1.167-0.777-2-1.434-2.379-1.736L96.978,266.51l21.65,0.794
			c1.229-0.166,12.265-2.104,30.455-19.229c19.222-18.086,23.938-27.573,24.354-28.47l0.354-1.049l0.608-0.67
			c2.938-3.917,3.598-19.688,2.408-32.357c-1.5-4.319-7.203-22.08-5.746-38.465c1.777-20.021,20.241-34.083,21.021-34.672
			l0.284-0.204c0.547-0.37,13.562-9.075,30.007-9.075c6.817,0,13.299,1.483,19.264,4.409c17.622,8.649,29.944,29.258,34.961,38.904
			c9.812-1.323,30.47-4.021,40.081-4.604c6.938-0.42,14.381-0.831,22.334-0.831c6.536,0,12.672,0.277,18.754,0.854
			c11.004,1.03,23.566,3.229,33.668,4.996c5.938,1.034,11.552,2.02,13.584,2.146l0.211,0.006c2.324,0,5.976-1.848,7.821-3.158
			l0.335-0.232l0.383-0.222c0.007-0.003,5.698-3.348,7.082-8.879c1.656-6.624,7.416-10.573,15.41-10.573
			c2.795,0,5.062,0.466,5.707,0.608c1.924,0.417,20.551,4.875,25.479,21.741c2.644,9.021,0.479,18.256-1.197,23.29
			c5.021,9.252,9.2,21.11,11.075,26.794c6.012,2.703,19.341,9.104,30.824,17.438c8.709,1.604,13.357,3.426,14.625,3.969
			c3.018,1.15,15.793,7.172,15.793,26.186c0,12.04-2.521,18.732-5.189,22.442c2.016,22.979-10.201,37.346-15.619,42.51
			c-2.66,13.914-12.584,22.479-18.033,26.234c-1.908,12.027-9.152,20.881-12.449,24.375c-6.703,22.938-12.926,37.775-24.137,45.443
			c-11.438,7.82-28.441,7.82-34.84,7.82c-1.72,0-6.041,1.729-9.568,3.559c-2.827,5.139-10.983,18.896-25.102,34.676
			c-17.867,19.971-51.648,36.238-53.078,36.922l-4.654,2.227L332.201,488.572z"/>
		<g opacity="0.56">
			<path fill="#FFFFFF" d="M207.984,120.666l9.854-6.292l26.761,5.652l15.823,17.896c0,0,14.81,28.308,13.139,33.122
				c0,0,1.149,12.762-4.243,27.646c0,0,5.075-34.197-25.217-65.936C227.018,114.866,207.984,120.666,207.984,120.666z"/>
			<path fill="#FFFFFF" d="M462.472,365.188c-2.545,3.502-13.328,5.473-22.625,2.205c-9.293-3.266-19.851-2.008-19.851-2.008
				c2.017-3.271,3.771-3.271,3.771-3.271c-7.539-1.508-13.485-9.049-13.485-9.049l19.017,3.021l21.104-0.25
				C450.4,355.843,469.013,356.193,462.472,365.188z"/>
			<path fill="#FFFFFF" d="M358.615,214.72c11.123,3.271,15.048,2.774,15.048,2.774l-12.757,10.145c0,0-8.832,6.864-22.897,7.851
				c-14.062,0.983-19.948-13.411-26.168-13.084c0,0,14.063-2.943,26.168-2.943c0,0-5.229-4.252-10.795-4.252
				C327.212,215.209,345.531,208.998,358.615,214.72"/>
			<path fill="#FFFFFF" d="M368.539,168.651c-40.688-14.296-90.719-7.088-90.719-7.088l-2.943-1.963l43.833-6.542
				c0,0,51.19,0.164,65.584,8.668c14.396,8.504,18.763,15.458,20.444,20.276c2.289,6.542-1.473,13.738-0.653,11.776
				C404.083,193.784,405.935,181.791,368.539,168.651z"/>
			<path fill="#FFFFFF" d="M382.167,159.928c0,0,23.551,0.322,36.963,9.812c13.412,9.485,12.763,16.027,12.763,16.027
				s5.229-3.603-6.543-16.027C413.57,157.311,382.167,159.928,382.167,159.928z"/>
			<path fill="#FFFFFF" d="M450.859,199.181c0,0-4.906-19.626-27.146-32.388c-22.244-12.757-7.197-8.832-7.197-8.832l22.244,5.562
				l12.43,15.048l8.832,16.683l0.654,8.183L450.859,199.181z"/>
			<path fill="#FFFFFF" d="M455.329,200.489c0,0-23.77-7.413-41.646-2.835c0,0,37.725,9.16,56.697,32.493
				c18.972,23.333,22.236-2.617,22.236-2.617l1.312-9.378L455.329,200.489z"/>
		</g>
		<g>
			<path fill="#091628" d="M154.173,253.48c-22.238,20.936-35.255,21.242-35.255,21.242s7.915,6.401,13.189,4.521
				c0,0-45.979,36.561-63.688,56.151c0,0,32.838,18.471,54.271,28.639c22.229,10.559,61.812,21.58,78.384,26.756
				c18.09,5.654,50.874,21.48,74.616,38.062c19.938,13.928,61.679,54.393,61.679,54.393s33.664-16.082,50.746-35.174
				c17.084-19.094,25.125-35.172,25.125-35.172s9.545-5.527,15.072-5.527c5.521,0,21.104,0,30.646-6.525
				c9.553-6.531,15.326-20.979,21.732-43.213c0,0,11.305-10.18,12.057-24.871c0,0,16.205-8.291,18.098-25.627
				c0,0,18.852-14.234,14.762-41.389c0,0,5.562-2.455,5.562-19.79c0-15.865-11.175-19.312-11.175-19.312s-4.53-2.091-14.832-3.84
				c-14.721-11.054-33.857-18.983-33.857-18.983s-6.061-19.919-13.221-31.604c0,0,5.271-11.562,2.268-21.854
				c-3.896-13.315-19.979-16.582-19.979-16.582s-10.551-2.512-12.309,4.522c-2.219,8.868-10.683,13.562-10.683,13.562
				s-6.781,4.898-12.812,4.522c-6.026-0.378-29.467-5.472-47.479-7.161c-14.692-1.381-27.51-0.753-39.94,0
				c-12.438,0.754-44.852,5.271-44.852,5.271s-13.188-30.146-33.916-40.317c-20.728-10.18-41.829,4.146-41.829,4.146
				s-16.579,12.438-18.089,29.396c-1.508,16.958,5.65,36.177,5.65,36.177s3.017,29.396-3.771,38.438
				C180.345,222.341,176.417,232.546,154.173,253.48z M465.906,361.052c2.789,3.225,1.771,13.771-4.578,22.293
				c0,0-5.729,10.482-22.238,10.141c-15.537-0.326-25.355-13.777-27.068-15.34c-6.136-5.594-11.692-3.633-11.692-3.633
				c3.271-5.48,7.854-3.924,7.854-3.924c-4.772-5.277-5.411-13.641-6.743-19.488c-0.443-1.959-3.017-9.547-3.017-9.547
				c9.293,13.562,20.101,16.078,20.101,16.078s13.082,4.514,24.353,3.42C454.135,359.954,462.472,357.072,465.906,361.052z
				 M244.455,147.716c-14.175-6.319-26.168,0.654-26.168,0.654c15.7-0.219,17.188,7.693,17.188,7.693
				c-14.828-3.367-23.075,8.439-23.075,8.439s12.213-1.962,19.188,2.835c0,0-13.521,0.654-19.403,16.354
				c0,0,9.147-5.781,15.696-4.36c0,0-2.688,2.108-13.084,10.031c-8.646,6.589-14.854,19.029-14.854,19.029
				s-20.729-44.091-15.451-61.049s10.93-22.987,22.234-27.515c11.306-4.521,27.133-5.647,38.438,4.898
				c11.305,10.553,24.382,33.634,28.526,50.969c0,0,2.658-6.455,1.31-13.488c0,0,18.022-6.576,55.333-5.444
				c37.312,1.131,65.567,13.562,65.567,13.562s-4.897-6.024-10.928-9.421c0,0,32.78,4.146,44.092,12.062c0,0-4.9-7.537-6.783-8.291
				c0,0,15.072,4.146,22.986,14.315c7.916,10.176,9.846,19.689,9.846,19.689s-15.062-3.292-26.049-2.731
				c0,0,40.769,13.504,56.797,26.844c0,0-16.684,1.562-19.955,12.688c-3.27,11.122,8.184,23.553,14.727,26.168
				c11.729,4.694,32.043,3.986,31.236,13.625c0,0,1.74,11.729-7.684,23.104c0,0-25.688,0.889-37.438-14.242
				c-9.812-12.64-30.898-15.482-38.812-15.074c-27.447,1.42-40.07,19.738-40.07,19.738c-1.442-25.519,17.854-34.021,17.854-34.021
				c-6.54-2.29-13.084,2.943-13.084,2.943c6.543-14.724,23.866-25.975,23.866-25.975c-17.649,2.419-21.888,10.225-32.354,12.4
				s-19.646,0.485-19.646,0.485c-19.142-0.653-28.752,6.834-36.291,17.009c0,0,6.606-7.376,17.664-7.522
				c0,0-9.937,5.562-17.011,20.607c-10.084,21.455-4.771,37.625-4.771,37.625s3.784-10.244,13.479-12.438
				c0,0-13.308,25.188,14.497,59.207c0,0-4.579-16.688,0.326-27.148c0,0,2.959,5.805,11.045,15.354c0,0,13.363,15.312,12.358,44.709
				c-1.012,29.396-15.325,45.477-15.325,45.477s-21.354,25.377-22.106,36.934c-24.498-28.284-60.551-56.764-60.551-56.764
				c-46.23-41-33.146-100.279-33.146-100.279c-10.898,6.943-10.027,27.443-10.027,27.443s-12.646-14.396-8.287-54.083
				c4.356-39.688,33.583-57.139,33.583-57.139c-16.193-1.875-24.859,8.286-24.859,8.286c12.646-30.527,54.444-47.058,54.444-47.058
				s-11.05-2.229-20.209,3.828c0,0,2.088-2.524,1.224-12.403c0,0,0.307-13.276-11.527-33.309
				c-10.871-18.399-30.033-21.842-30.033-21.842C240.75,137.03,244.455,147.716,244.455,147.716z M512.26,298.186
				c2.965-3.812,4.866-7.105,5.859-17.923c0.666-7.269,2.893-9.562,2.893-9.562s2.146,6.646-1.779,16.293
				C515.34,296.573,512.26,298.186,512.26,298.186z"/>
		</g>
		<path fill="#FFFFFF" d="M390.48,319.243c0,0,4.119,0.182,9.545,7.537c3.521,4.771,4.521,11.34,19.097,17.998
			c18.204,8.318,33.159,0.627,33.159,0.627s7.285,3.232,9.547-0.537c0,0,1.791,1.104,4.811,0.602c0,0,3.299,1.412,5.646-0.188
			c0,0,2.545,1.508,4.436,0c0,0,2.049,0.961,4.145-0.754c1.037-0.848,1.791-1.297,2.168-4.896c0.377-3.604-1.701-8.568-1.701-8.568
			s-1.293,7.748-2.911,9.322c-1.577,1.527-1.136,1.438-1.136,1.438s-0.188-2.002-1.312-3.414c0,0-1.98,4.111-2.607,3.986
			c0,0-0.5-2.605-0.879-3.986c0,0-2.447,4.332-3.414,3.414c0,0,0.185-2.188-0.26-3.887c0,0-1.76,2.922-5.904,2.797
			c0,0,2.14-5.024,0.439-9.988c0,0-7.332,6.479-11.494,8.955c-4.168,2.486-16.521,2.767-23.554,0.754
			c-5.854-1.672-13.006-4.02-19.786-13.348c-6.781-9.326,0.69-17.654,0.69-17.654s5.698-10.564,22.202-13.345
			c16.988-2.858,32.125,8.95,32.125,8.95s5.213,3.516,1.604,18.748c0,0,8.477-3.143,9.799-12.369c0,0,1.979,2.92,1.312,4.896
			c0,0,3.303-1.947,3.107-4.396c0,0,2.209,2.227,1.707,4.676c0,0,2.91-1.028,2.816-4.676c0,0,1.809,2.418,1.602,4.773
			c0,0,3.988-2.354,3.297-4.807c0,0,1.539,3.109,0.66,5.185c0,0,4.334-1.788,4.553-5.375c0,0,2.77,6.188-4.521,15.427
			c0,0,9.604-2.449,10.984-13.439c0,0,0.289-2.922-1.129-5.274c-1.205-1.993-3.48-2.263-6.15-0.409c0,0-2.016-2.322-4.521-0.062
			c0,0-1.1-2.541-5.338-0.846c0,0-1.604-1.789-4.521-0.474c0,0-0.375-2.446-4.238-1.604c0,0-5.058-13.665-32.814-16.052
			c0,0-15.559-1.917-28.266,6.778c-11.56,7.915-13.816,15.828-13.816,15.828S396.884,317.484,390.48,319.243z"/>
		<path fill="#091628" d="M370.595,218.197c-7.562,4.309-10.773,10.24-10.773,10.24c8.566-7.967,22.548-7.612,22.548-7.612
			c9.562-0.458,18.375-9.979,18.375-9.979s-0.875-2.521-4.396-3.891c0,0,2.504,0.551,4.957-3.228c0,0-4.093,3.604-11.121-1.202
			c-8.252-5.642-12.435-9.443-23.394-10.646c-10.767-1.181-16.953,7.675-16.953,7.675s4.58-3.268,11.613-0.858
			c0,0-4.035,0.172-13.195,8.415c0,0,3.815,4.351,10.356,7.613C365.158,217.983,370.595,218.197,370.595,218.197z"/>
	</g>
</g>
<g>
	<path fill="#BDC2BC" d="M534.992,588.913c-0.739,0-1.34-0.602-1.34-1.341v-16.588c0-0.739,0.601-1.339,1.34-1.339h52.497
		c0.738,0,1.339,0.6,1.339,1.339v16.588c0,0.739-0.601,1.341-1.339,1.341H534.992z"/>
	<g>
		<path d="M558.027,571.51c-2.725,0-4.935,2.21-4.935,4.934c0,2.729,2.21,4.938,4.935,4.938c2.728,0,4.938-2.21,4.938-4.938
			C562.964,573.719,560.755,571.51,558.027,571.51z"/>
		<path fill="#FFFFFF" d="M558.027,580.461c-2.219,0-4.015-1.798-4.015-4.019c0-2.217,1.797-4.014,4.015-4.014
			c2.219,0,4.019,1.798,4.019,4.014C562.046,578.664,560.246,580.461,558.027,580.461z"/>
		<g>
			<path d="M559.402,575.293c0-0.219-0.182-0.398-0.398-0.398h-1.952c-0.221,0-0.401,0.181-0.401,0.398v1.985h0.528v2.338h1.694
				v-2.338h0.527L559.402,575.293L559.402,575.293z"/>
			<path d="M558.695,573.942c0,0.37-0.3,0.668-0.667,0.668c-0.371,0-0.67-0.299-0.67-0.668s0.301-0.67,0.67-0.67
				C558.395,573.272,558.695,573.571,558.695,573.942z"/>
		</g>
	</g>
	<path d="M587.175,569.198h-51.868c-1.157,0-2.102,0.943-2.102,2.102v15.96c0,1.158,0.943,2.1,2.102,2.1h51.868
		c1.158,0,2.102-0.94,2.102-2.1V571.3C589.275,570.141,588.332,569.198,587.175,569.198z M588.644,583.375h-37.865
		c-1.477,2.809-4.417,4.725-7.81,4.725s-6.333-1.916-7.809-4.725h-1.326V571.3c0-0.812,0.658-1.471,1.47-1.471h51.869
		c0.811,0,1.471,0.658,1.471,1.471V583.375L588.644,583.375z"/>
	<g>
		<path fill="#FFFFFF" d="M557.773,584.933c0.1,0.14,0.15,0.302,0.15,0.495c0,0.198-0.052,0.357-0.151,0.479
			c-0.057,0.066-0.14,0.131-0.25,0.187c0.168,0.061,0.294,0.155,0.378,0.289c0.085,0.13,0.127,0.289,0.127,0.477
			c0,0.192-0.049,0.365-0.145,0.519c-0.062,0.104-0.14,0.188-0.23,0.256c-0.104,0.078-0.225,0.137-0.369,0.164
			c-0.141,0.028-0.294,0.043-0.459,0.043h-1.466v-3.256h1.573C557.326,584.594,557.607,584.706,557.773,584.933z M556.009,585.151
			v0.717h0.79c0.143,0,0.257-0.026,0.345-0.08s0.133-0.147,0.133-0.286c0-0.15-0.059-0.248-0.176-0.301
			c-0.1-0.033-0.228-0.05-0.383-0.05H556.009L556.009,585.151z M556.009,586.407v0.869h0.789c0.143,0,0.25-0.02,0.328-0.058
			c0.145-0.071,0.217-0.206,0.217-0.407c0-0.17-0.07-0.285-0.208-0.35c-0.077-0.034-0.188-0.056-0.327-0.056L556.009,586.407
			L556.009,586.407z"/>
		<path fill="#FFFFFF" d="M560.469,584.586h0.771l-1.089,2.034v1.222h-0.68v-1.222l-1.127-2.034h0.8l0.677,1.418L560.469,584.586z"
			/>
	</g>
	<g>
		<g>
			<path fill="#FFFFFF" d="M566.517,584.426h0.776l1.403,2.473v-2.473h0.692v3.545h-0.742l-1.443-2.517v2.517h-0.688
				L566.517,584.426L566.517,584.426z"/>
			<path fill="#FFFFFF" d="M570.425,584.797c0.285-0.292,0.647-0.437,1.09-0.437c0.591,0,1.02,0.195,1.295,0.587
				c0.148,0.221,0.229,0.439,0.242,0.661h-0.741c-0.048-0.17-0.106-0.299-0.183-0.384c-0.132-0.153-0.328-0.229-0.586-0.229
				c-0.265,0-0.473,0.107-0.623,0.324c-0.152,0.219-0.229,0.525-0.229,0.923c0,0.399,0.08,0.696,0.241,0.895
				c0.161,0.197,0.365,0.299,0.614,0.299c0.252,0,0.447-0.086,0.581-0.256c0.072-0.09,0.136-0.229,0.183-0.41h0.736
				c-0.066,0.387-0.226,0.699-0.486,0.943c-0.262,0.241-0.594,0.36-1.002,0.36c-0.505,0-0.901-0.163-1.19-0.489
				c-0.288-0.328-0.434-0.777-0.434-1.353C569.93,585.607,570.095,585.133,570.425,584.797z"/>
		</g>
	</g>
	<g>
		<path fill="#FFFFFF" d="M578.517,586.944c0.022,0.173,0.073,0.303,0.145,0.389c0.132,0.154,0.354,0.233,0.673,0.233
			c0.19,0,0.347-0.021,0.465-0.062c0.225-0.078,0.338-0.226,0.338-0.438c0-0.125-0.055-0.223-0.166-0.291
			c-0.113-0.066-0.285-0.126-0.525-0.178l-0.411-0.088c-0.401-0.093-0.679-0.188-0.829-0.294c-0.254-0.173-0.383-0.448-0.383-0.819
			c0-0.339,0.126-0.619,0.376-0.846c0.249-0.224,0.617-0.336,1.102-0.336c0.401,0,0.748,0.104,1.033,0.315
			c0.284,0.213,0.436,0.521,0.45,0.922h-0.762c-0.014-0.227-0.117-0.387-0.306-0.484c-0.126-0.065-0.282-0.096-0.473-0.096
			c-0.209,0-0.375,0.041-0.499,0.122c-0.126,0.083-0.188,0.196-0.188,0.346c0,0.135,0.062,0.236,0.186,0.303
			c0.079,0.043,0.246,0.096,0.502,0.155l0.665,0.156c0.292,0.068,0.513,0.162,0.655,0.276c0.227,0.179,0.339,0.435,0.339,0.771
			c0,0.351-0.134,0.637-0.4,0.863c-0.269,0.229-0.646,0.344-1.134,0.344c-0.5,0-0.891-0.112-1.176-0.339
			c-0.287-0.224-0.432-0.536-0.432-0.929L578.517,586.944L578.517,586.944z"/>
		<path fill="#FFFFFF" d="M582.542,584.325h0.896l1.34,3.791h-0.858l-0.249-0.778h-1.396l-0.255,0.778h-0.828L582.542,584.325z
			 M582.486,586.681h0.972l-0.479-1.49L582.486,586.681z"/>
	</g>
	<g>
		<circle cx="542.95" cy="579.28" r="7.771"/>
		<circle fill="#FFFFFF" cx="542.95" cy="579.278" r="6.322"/>
		<g>
			<path d="M542.597,578.348l-1.188,0.215c-0.041-0.237-0.131-0.416-0.273-0.537c-0.143-0.119-0.325-0.178-0.55-0.178
				c-0.302,0-0.537,0.104-0.72,0.31c-0.18,0.204-0.268,0.555-0.268,1.038c0,0.539,0.09,0.921,0.271,1.146
				c0.183,0.223,0.426,0.332,0.73,0.332c0.229,0,0.417-0.064,0.562-0.195c0.146-0.131,0.249-0.354,0.311-0.67l1.182,0.199
				c-0.123,0.545-0.354,0.954-0.707,1.229c-0.348,0.276-0.813,0.416-1.399,0.416c-0.668,0-1.197-0.21-1.594-0.629
				c-0.396-0.42-0.592-1.004-0.592-1.746c0-0.75,0.198-1.337,0.594-1.754c0.397-0.42,0.936-0.627,1.613-0.627
				c0.555,0,0.995,0.118,1.322,0.355C542.219,577.497,542.453,577.86,542.597,578.348z"/>
			<path d="M547.477,578.348l-1.188,0.215c-0.039-0.237-0.131-0.416-0.272-0.537c-0.144-0.119-0.325-0.178-0.551-0.178
				c-0.301,0-0.539,0.104-0.72,0.31c-0.178,0.204-0.268,0.555-0.268,1.038c0,0.539,0.09,0.921,0.271,1.146
				c0.182,0.223,0.426,0.332,0.729,0.332c0.229,0,0.417-0.064,0.562-0.195c0.146-0.131,0.25-0.354,0.311-0.67l1.183,0.199
				c-0.123,0.545-0.356,0.954-0.708,1.229c-0.349,0.276-0.814,0.416-1.4,0.416c-0.668,0-1.197-0.21-1.593-0.629
				c-0.396-0.42-0.592-1.004-0.592-1.746c0-0.75,0.196-1.337,0.595-1.754c0.396-0.42,0.934-0.627,1.612-0.627
				c0.554,0,0.994,0.118,1.322,0.355C547.1,577.497,547.337,577.86,547.477,578.348z"/>
		</g>
	</g>
	<g>
		<path d="M569.93,571.719c-2.61,0-4.727,2.115-4.727,4.726c0,2.612,2.115,4.729,4.727,4.729s4.728-2.113,4.728-4.729
			C574.658,573.834,572.546,571.719,569.93,571.719z"/>
		<circle fill="#FFFFFF" cx="569.93" cy="576.447" r="3.846"/>
		
			<rect x="569.488" y="571.955" transform="matrix(0.4225 -0.9063 0.9063 0.4225 -193.3242 849.4399)" width="0.924" height="8.958"/>
		<g>
			<path d="M569.58,579.151v-0.637c-0.444-0.013-0.877-0.14-1.129-0.277l0.197-0.776c0.279,0.153,0.672,0.292,1.101,0.292
				c0.382,0,0.646-0.151,0.646-0.409c0-0.252-0.223-0.41-0.709-0.578c-0.711-0.238-1.196-0.568-1.196-1.215
				c0-0.59,0.411-1.047,1.122-1.181v-0.631h0.65v0.584c0.443,0.015,0.742,0.115,0.968,0.222l-0.199,0.748
				c-0.167-0.079-0.478-0.232-0.954-0.232c-0.434,0-0.571,0.193-0.571,0.381c0,0.212,0.231,0.356,0.798,0.564
				c0.796,0.276,1.107,0.643,1.107,1.246c0,0.591-0.411,1.09-1.182,1.221v0.684L569.58,579.151L569.58,579.151z"/>
		</g>
	</g>
	<g>
		<path d="M581.185,571.784c-2.571,0-4.66,2.086-4.66,4.658c0,2.576,2.089,4.665,4.66,4.665c2.576,0,4.665-2.089,4.665-4.665
			C585.852,573.87,583.761,571.784,581.185,571.784z"/>
		<path fill="#FFFFFF" d="M581.185,580.238c-2.092,0-3.789-1.698-3.789-3.794c0-2.091,1.695-3.79,3.789-3.79
			c2.096,0,3.793,1.696,3.793,3.79C584.979,578.538,583.281,580.238,581.185,580.238z"/>
		<path d="M581.185,573.885c-1.016,0-1.874,0.733-2.182,1.746h-0.294l0.933,1.016l0.93-1.016h-0.348
			c0.215-0.37,0.563-0.616,0.96-0.616c0.65,0,1.179,0.646,1.179,1.443c0,0.793-0.526,1.44-1.179,1.44
			c-0.432,0-0.81-0.289-1.016-0.72h-1.196c0.278,1.068,1.167,1.854,2.214,1.854c1.273,0,2.311-1.155,2.311-2.576
			C583.496,575.034,582.464,573.885,581.185,573.885z"/>
	</g>
</g>
<g>
	<path d="M12.392,586.197c-0.652,0-1.248-0.138-1.786-0.41c-0.539-0.271-1.002-0.631-1.39-1.07c-0.388-0.441-0.688-0.949-0.9-1.521
		C8.106,582.619,8,582.032,8,581.432c0-0.626,0.114-1.226,0.338-1.797c0.226-0.574,0.533-1.08,0.927-1.521
		c0.393-0.44,0.857-0.792,1.396-1.053c0.538-0.26,1.119-0.39,1.746-0.39c0.653,0,1.248,0.138,1.786,0.417
		c0.538,0.275,0.999,0.641,1.382,1.09s0.682,0.959,0.893,1.528c0.213,0.567,0.318,1.144,0.318,1.726c0,0.636-0.113,1.24-0.338,1.812
		c-0.225,0.574-0.534,1.079-0.926,1.517c-0.394,0.437-0.856,0.785-1.391,1.045C13.598,586.066,13.018,586.197,12.392,586.197z
		 M8.675,581.432c0,0.539,0.091,1.057,0.271,1.555s0.437,0.939,0.768,1.324c0.33,0.383,0.724,0.69,1.178,0.92
		c0.455,0.229,0.955,0.344,1.502,0.344c0.563,0,1.072-0.117,1.527-0.355c0.454-0.239,0.846-0.555,1.17-0.946
		c0.327-0.392,0.578-0.834,0.755-1.328s0.265-0.997,0.265-1.51c0-0.538-0.092-1.057-0.277-1.555
		c-0.185-0.498-0.442-0.939-0.773-1.323s-0.723-0.691-1.179-0.919c-0.454-0.229-0.949-0.347-1.486-0.347
		c-0.565,0-1.076,0.119-1.536,0.357c-0.458,0.238-0.85,0.554-1.17,0.945c-0.322,0.394-0.571,0.836-0.748,1.33
		C8.762,580.422,8.675,580.923,8.675,581.432z"/>
	<path d="M24.14,578.299c-0.608-0.681-1.469-1.021-2.58-1.021c-0.918,0-1.587,0.175-2.006,0.523
		c-0.417,0.349-0.628,0.817-0.628,1.407c0,0.302,0.054,0.554,0.159,0.755c0.106,0.202,0.271,0.373,0.496,0.51
		c0.226,0.137,0.513,0.256,0.86,0.355c0.35,0.103,0.761,0.2,1.237,0.299c0.512,0.106,0.97,0.223,1.377,0.352
		c0.404,0.127,0.75,0.289,1.038,0.483c0.287,0.193,0.508,0.433,0.662,0.715c0.153,0.281,0.231,0.632,0.231,1.044
		c0,0.414-0.082,0.775-0.245,1.086c-0.163,0.31-0.392,0.565-0.688,0.773c-0.297,0.208-0.648,0.364-1.059,0.471
		c-0.411,0.104-0.867,0.157-1.37,0.157c-1.463,0-2.704-0.467-3.717-1.401l0.356-0.542c0.396,0.415,0.882,0.743,1.457,0.984
		c0.573,0.242,1.217,0.363,1.931,0.363c0.821,0,1.461-0.147,1.925-0.449c0.462-0.301,0.695-0.754,0.695-1.362
		c0-0.309-0.06-0.57-0.178-0.787s-0.303-0.404-0.551-0.562c-0.247-0.158-0.554-0.295-0.919-0.409
		c-0.364-0.115-0.796-0.225-1.29-0.33c-0.503-0.105-0.945-0.219-1.329-0.338c-0.384-0.117-0.708-0.269-0.972-0.449
		c-0.265-0.181-0.463-0.398-0.596-0.654s-0.199-0.578-0.199-0.967c0-0.423,0.082-0.797,0.246-1.124
		c0.163-0.326,0.391-0.603,0.682-0.826c0.291-0.226,0.64-0.395,1.044-0.511c0.406-0.114,0.854-0.17,1.351-0.17
		c0.607,0,1.15,0.09,1.627,0.27c0.477,0.183,0.909,0.459,1.296,0.828L24.14,578.299z"/>
	<path d="M26.734,586.131v-9.395h3.863c0.396,0,0.763,0.085,1.098,0.251c0.335,0.168,0.624,0.392,0.866,0.669
		s0.432,0.591,0.568,0.938c0.138,0.35,0.205,0.698,0.205,1.053c0,0.381-0.063,0.746-0.191,1.098
		c-0.128,0.354-0.31,0.666-0.542,0.939c-0.232,0.272-0.512,0.492-0.833,0.654c-0.323,0.164-0.683,0.245-1.078,0.245h-3.281v3.546
		L26.734,586.131L26.734,586.131z M27.408,581.963h3.241c0.309,0,0.586-0.064,0.833-0.191s0.456-0.3,0.629-0.516
		c0.171-0.218,0.303-0.463,0.396-0.741c0.092-0.276,0.139-0.565,0.139-0.866c0-0.309-0.056-0.602-0.165-0.879
		c-0.11-0.279-0.26-0.523-0.45-0.734c-0.189-0.213-0.41-0.381-0.661-0.504s-0.519-0.186-0.801-0.186h-3.162L27.408,581.963
		L27.408,581.963z"/>
	<path d="M34.963,586.131v-9.395h3.917c0.397,0,0.764,0.085,1.098,0.251c0.335,0.168,0.622,0.392,0.859,0.669
		c0.238,0.277,0.426,0.591,0.563,0.938c0.137,0.35,0.204,0.698,0.204,1.053c0,0.344-0.054,0.676-0.159,0.998
		c-0.105,0.324-0.254,0.611-0.45,0.867c-0.194,0.256-0.427,0.467-0.7,0.635c-0.273,0.169-0.572,0.277-0.899,0.331l2.341,3.651
		h-0.781l-2.274-3.547h-3.043v3.547L34.963,586.131L34.963,586.131z M35.636,581.963h3.295c0.299,0,0.571-0.064,0.819-0.197
		c0.247-0.132,0.458-0.307,0.636-0.522c0.176-0.216,0.311-0.462,0.402-0.741c0.093-0.277,0.141-0.562,0.141-0.853
		c0-0.3-0.056-0.589-0.166-0.866c-0.11-0.276-0.261-0.522-0.45-0.733c-0.189-0.212-0.409-0.382-0.661-0.511
		c-0.252-0.127-0.523-0.192-0.814-0.192h-3.201V581.963z"/>
	<path d="M49.899,585.521v0.608h-6.258v-9.395h6.139v0.61h-5.464v3.688h4.775v0.582h-4.775v3.903h5.583V585.521z"/>
	<path d="M51.421,576.736l3.281,5.199l3.308-5.199h0.742l-3.706,5.849v3.546h-0.674v-3.572l-3.69-5.821L51.421,576.736
		L51.421,576.736z"/>
	<path d="M60.126,586.131v-9.395h3.122c0.741,0,1.392,0.124,1.951,0.371c0.561,0.248,1.025,0.583,1.396,1.007
		c0.371,0.423,0.647,0.919,0.833,1.487c0.185,0.567,0.277,1.175,0.277,1.819c0,0.715-0.104,1.36-0.311,1.938
		s-0.505,1.07-0.894,1.481c-0.388,0.409-0.857,0.729-1.41,0.953c-0.552,0.224-1.167,0.337-1.845,0.337L60.126,586.131
		L60.126,586.131z M67.031,581.421c0-0.592-0.083-1.137-0.251-1.635c-0.167-0.498-0.412-0.93-0.733-1.291
		c-0.322-0.359-0.718-0.644-1.185-0.848c-0.466-0.202-1.005-0.303-1.614-0.303h-2.447v8.177h2.447c0.617,0,1.162-0.104,1.633-0.312
		c0.473-0.206,0.866-0.495,1.185-0.865c0.316-0.37,0.559-0.805,0.722-1.303S67.031,582.003,67.031,581.421z"/>
	<path d="M68.288,586.131l3.996-9.395h0.555l3.997,9.395h-0.728l-1.311-3.097h-4.484l-1.311,3.097H68.288z M72.562,577.557
		l-2.09,4.922h4.141L72.562,577.557z"/>
	<path d="M81.148,576.802h0.661l1.401,3.413l1.403-3.413h0.661l-1.654,3.956l1.971,4.577l3.6-8.601h0.742l-4.023,9.395h-0.62
		l-2.063-4.829l-2.077,4.829h-0.622l-4.008-9.395h0.728l3.612,8.601l1.945-4.577L81.148,576.802z"/>
	<path d="M92.05,578.008v8.123h-0.675v-9.394h0.518l6.588,8.27v-8.255h0.675v9.379h-0.622L92.05,578.008z"/>
	<path d="M101.297,586.131v-1.125h0.583v1.125H101.297z"/>
	<path d="M103.401,581.368c0-0.563,0.098-1.127,0.298-1.688c0.197-0.561,0.486-1.062,0.866-1.502c0.379-0.44,0.844-0.8,1.395-1.077
		c0.552-0.277,1.181-0.418,1.887-0.418c0.838,0,1.552,0.192,2.144,0.576c0.591,0.383,1.027,0.877,1.309,1.475l-0.556,0.318
		c-0.159-0.327-0.351-0.601-0.576-0.82c-0.224-0.221-0.466-0.399-0.727-0.537c-0.261-0.137-0.533-0.234-0.814-0.298
		c-0.281-0.062-0.562-0.092-0.833-0.092c-0.6,0-1.129,0.121-1.589,0.364c-0.458,0.241-0.847,0.558-1.164,0.944
		c-0.316,0.39-0.557,0.826-0.722,1.316c-0.164,0.489-0.245,0.981-0.245,1.475c0,0.558,0.097,1.086,0.291,1.59
		c0.195,0.502,0.459,0.945,0.795,1.328c0.334,0.383,0.731,0.691,1.19,0.919c0.458,0.229,0.951,0.346,1.48,0.346
		c0.282,0,0.571-0.036,0.866-0.106c0.296-0.069,0.583-0.18,0.86-0.329c0.277-0.15,0.536-0.343,0.774-0.576
		c0.238-0.232,0.437-0.51,0.594-0.827l0.569,0.278c-0.159,0.352-0.372,0.665-0.642,0.939c-0.271,0.271-0.57,0.502-0.906,0.688
		c-0.335,0.186-0.689,0.324-1.065,0.416c-0.375,0.092-0.742,0.139-1.104,0.139c-0.644,0-1.233-0.141-1.768-0.423
		c-0.532-0.281-0.994-0.649-1.382-1.104c-0.387-0.455-0.689-0.972-0.905-1.549C103.509,582.555,103.401,581.969,103.401,581.368z"/>
	<path d="M116.882,586.197c-0.652,0-1.247-0.138-1.785-0.41c-0.538-0.271-1.001-0.631-1.39-1.07
		c-0.388-0.441-0.688-0.949-0.898-1.521c-0.212-0.572-0.317-1.16-0.317-1.76c0-0.627,0.112-1.225,0.337-1.798
		c0.224-0.573,0.534-1.081,0.926-1.521c0.394-0.44,0.857-0.792,1.396-1.052c0.539-0.261,1.121-0.391,1.747-0.391
		c0.65,0,1.247,0.139,1.786,0.416c0.538,0.276,0.999,0.643,1.381,1.091c0.384,0.45,0.682,0.959,0.894,1.529
		c0.211,0.566,0.317,1.144,0.317,1.726c0,0.635-0.113,1.239-0.337,1.812c-0.226,0.572-0.534,1.077-0.928,1.514
		c-0.393,0.438-0.854,0.785-1.389,1.046C118.087,586.066,117.509,586.197,116.882,586.197z M113.164,581.432
		c0,0.539,0.09,1.057,0.271,1.555c0.181,0.498,0.436,0.939,0.767,1.324c0.331,0.383,0.724,0.69,1.178,0.92s0.954,0.344,1.501,0.344
		c0.564,0,1.073-0.117,1.527-0.355c0.456-0.239,0.845-0.555,1.171-0.946s0.578-0.834,0.754-1.328
		c0.175-0.494,0.266-0.997,0.266-1.51c0-0.538-0.094-1.057-0.278-1.555c-0.186-0.498-0.443-0.939-0.774-1.323
		s-0.724-0.691-1.178-0.919c-0.455-0.229-0.95-0.347-1.488-0.347c-0.563,0-1.075,0.119-1.534,0.357s-0.851,0.554-1.172,0.945
		c-0.321,0.394-0.57,0.836-0.748,1.33C113.252,580.422,113.164,580.923,113.164,581.432z"/>
	<path d="M131.659,586.131v-8.123l-3.704,6.338h-0.423l-3.705-6.338v8.123h-0.675v-9.394h0.675l3.916,6.722l3.916-6.722h0.675v9.394
		H131.659L131.659,586.131z"/>
</g>
</svg>
