<?xml version="1.0" encoding="utf-8"?>
<!-- Generator: Adobe Illustrator 16.0.0, SVG Export Plug-In . SVG Version: 6.00 Build 0)  -->
<!DOCTYPE svg PUBLIC "-//W3C//DTD SVG 1.1//EN" "http://www.w3.org/Graphics/SVG/1.1/DTD/svg11.dtd">
<svg version="1.1" id="Layer_1" xmlns="http://www.w3.org/2000/svg" xmlns:xlink="http://www.w3.org/1999/xlink" x="0px" y="0px"
	 width="595.275px" height="595.279px" viewBox="0 0 595.275 595.279" enable-background="new 0 0 595.275 595.279"
	 xml:space="preserve">
<metadata><?xpacket begin="﻿" id="W5M0MpCehiHzreSzNTczkc9d"?>
<x:xmpmeta xmlns:x="adobe:ns:meta/" x:xmptk="Adobe XMP Core 5.3-c011 66.145661, 2012/02/06-14:56:27        ">
   <rdf:RDF xmlns:rdf="http://www.w3.org/1999/02/22-rdf-syntax-ns#">
      <rdf:Description rdf:about=""
            xmlns:dc="http://purl.org/dc/elements/1.1/">
         <dc:format>image/svg+xml</dc:format>
         <dc:title>
            <rdf:Alt>
               <rdf:li xml:lang="x-default">NFL Logo Redesigns</rdf:li>
               <rdf:li xml:lang="en_us">NFL Logo Redesigns</rdf:li>
            </rdf:Alt>
         </dc:title>
         <dc:creator>
            <rdf:Seq>
               <rdf:li>Max O'Brien/Osprey Dawn</rdf:li>
            </rdf:Seq>
         </dc:creator>
      </rdf:Description>
      <rdf:Description rdf:about=""
            xmlns:xmp="http://ns.adobe.com/xap/1.0/"
            xmlns:xmpGImg="http://ns.adobe.com/xap/1.0/g/img/">
         <xmp:CreatorTool>Adobe Illustrator CS6 (Macintosh)</xmp:CreatorTool>
         <xmp:ModifyDate>2013-10-06T18:13:20+13:00</xmp:ModifyDate>
         <xmp:MetadataDate>2013-10-06T18:13:20+13:00</xmp:MetadataDate>
         <xmp:CreateDate>2013-10-06T18:13:20+13:00</xmp:CreateDate>
         <xmp:Thumbnails>
            <rdf:Alt>
               <rdf:li rdf:parseType="Resource">
                  <xmpGImg:width>256</xmpGImg:width>
                  <xmpGImg:height>236</xmpGImg:height>
                  <xmpGImg:format>JPEG</xmpGImg:format>
                  <xmpGImg:image>/9j/4AAQSkZJRgABAgEASABIAAD/7QAsUGhvdG9zaG9wIDMuMAA4QklNA+0AAAAAABAASAAAAAEA&#xA;AQBIAAAAAQAB/+4ADkFkb2JlAGTAAAAAAf/bAIQABgQEBAUEBgUFBgkGBQYJCwgGBggLDAoKCwoK&#xA;DBAMDAwMDAwQDA4PEA8ODBMTFBQTExwbGxscHx8fHx8fHx8fHwEHBwcNDA0YEBAYGhURFRofHx8f&#xA;Hx8fHx8fHx8fHx8fHx8fHx8fHx8fHx8fHx8fHx8fHx8fHx8fHx8fHx8fHx8f/8AAEQgA7AEAAwER&#xA;AAIRAQMRAf/EAaIAAAAHAQEBAQEAAAAAAAAAAAQFAwIGAQAHCAkKCwEAAgIDAQEBAQEAAAAAAAAA&#xA;AQACAwQFBgcICQoLEAACAQMDAgQCBgcDBAIGAnMBAgMRBAAFIRIxQVEGE2EicYEUMpGhBxWxQiPB&#xA;UtHhMxZi8CRygvElQzRTkqKyY3PCNUQnk6OzNhdUZHTD0uIIJoMJChgZhJRFRqS0VtNVKBry4/PE&#xA;1OT0ZXWFlaW1xdXl9WZ2hpamtsbW5vY3R1dnd4eXp7fH1+f3OEhYaHiImKi4yNjo+Ck5SVlpeYmZ&#xA;qbnJ2en5KjpKWmp6ipqqusra6voRAAICAQIDBQUEBQYECAMDbQEAAhEDBCESMUEFURNhIgZxgZEy&#xA;obHwFMHR4SNCFVJicvEzJDRDghaSUyWiY7LCB3PSNeJEgxdUkwgJChgZJjZFGidkdFU38qOzwygp&#xA;0+PzhJSktMTU5PRldYWVpbXF1eX1RlZmdoaWprbG1ub2R1dnd4eXp7fH1+f3OEhYaHiImKi4yNjo&#xA;+DlJWWl5iZmpucnZ6fkqOkpaanqKmqq6ytrq+v/aAAwDAQACEQMRAD8A9U4q7FXYq7FXYq7FXYqk&#xA;2s+a9I0u/sdNllEuqajPHDbWMZBmKu3xylRuEjSrFj4eOXY8EpAy/hHVqnljEgdSg/Mv5keSfLRM&#xA;erarFFcj/j1jrNN9McYZlr4tQZPDpMmT6RsxyamEOZefal/zk95XhYrp2lXl3T9qVo4FPyoZT94z&#xA;Ph2NM8yA4cu049AUll/5ymuS37ry2iLTcNdljX5iFcuHYo/nfZ+1rPah/m/aq2//ADlN0Fx5b8eT&#xA;x3n3UUw/xwHsXul9n7UjtTvj9v7E80//AJya8mTELe2F9aE/tKscqD5kOrf8LlEux8g5EFtj2nA8&#xA;wWbaD+aXkDXWWPT9atzO2ywTk28hPgqzBC3+xrmHl0WWHOJ+9yceqxy5FlOYrkOxV2KuxV2KuxV2&#xA;KuxV2KuxV2KuxV2KuxV2KuxV2KuxV2KuxV2KuxV2KpX5l8z6L5a0mXVdYuBb2sew7u7n7KIo3Zj4&#xA;fT0y3DhlklwxG7XlyxgLk+dfOf8AzkH5p1qZ7XQm/QemseIlHxXLKduTSAHh40jFR4nOg0/ZcIC5&#xA;eo/Y6bN2hOW0fSGCHzVdWZlOkySxXVwGW71aRq3swbZgHqxiU+CGp/aYjbM7wQfq5d3T9ri+KRy+&#xA;fVImZmYsxLMxqSdyScuamsKuxV2KuxV2Ks7/AC//ADE/MfRZ47fRDcapZpTlpjpJcx8R2QLVo/8A&#xA;YEZg6rSYZi5VE9/JytPqMkdo7jufSXkn8wLHzNF6M1pPpOsxrzn0u7RkkC9OcZZU9RN+oG3cDbOd&#xA;1GlOPcHij3h3WDUCfSpdzKsxXIdirsVdirsVdirsVdirsVdirsVdirsVdirsVdirsVdirsVdirsV&#xA;fJH51+d7nzL5yubdJD+i9Jd7WyiH2SyHjLL83dev8oGdX2dphjxg/wAUty89rc5nPyDz/M9xHYq7&#xA;FWwaEGlfY4q9Z8g6j5D83E+V9b0DT9KubjjHp+o2QkikDFWVatLJK7yeoUoCSDvXpmq1UMuL1xkZ&#xA;DqC5+CWPJ6JRA8w8w1bTptM1W902cgz2M8ttKR05xOUan0rmyhMSiJDq4M48JI7kJk0OxVsEggg0&#xA;I6HFWb+T/wA4fOnlqWJVujqNhGf94r0mVQOh9Jz8ce1fsmniDmFn0GPJ0o94cnDrJw62PN9GeQvz&#xA;W8recohHaS/VNVArLpk5AkFOpjPSRfdd/EDOe1Winh57x73dYNVDJy59zM8w3JdirsVdirsVdirs&#xA;VYF54/Ojyh5R1A6Zc+ve6kgUzW1qqn0gw5D1GdkUEg1oKnM7Tdn5Mo4hsPNxM+thjNHcqfkz87/J&#xA;fmi+XTo2m0+/kNIIbwKolPgjqzry9jQnth1HZ2TEL5jyRh1sJmuReg5gOY7FXYq7FXYq7FXYq7FX&#xA;Yq7FWA/nP5pk0fyfc2enXfpa/qXCHT4IixuXDSKJWjVAW2j5fF2+dMz+z8PHkBI9I59zia3LwwoH&#xA;1F8p6zHqCapc/pG3e1vZJGlmt5EaNlaQ86FG+Ide+dRjI4RRsOgmDe/NDW1tcXVxHbW8bTTzMEii&#xA;QFmZmNAAB3JyRIAssQL2DJPNv5b+afKcFvNrUUEC3I/dotxC8ldqj0w3M0ruVBHvmNg1cMpIj08m&#xA;7Lp54/qYvmU0uxVH6DrN5oms2erWXH61ZSrNEHHJSVPRh4HpleXGJxMTyLKEzGQI6L/MmrprOv3+&#xA;rLB9WOoTvcvDy5BXlPN6Gg25k0wYcfBAR7k5J8Uie9LctYOxV2KuxVVtHuEuoWtpDFcB19KUP6ZV&#xA;67HmSvGh712yMqrdRz2fRflbRf8AnIyUR22o6zFptmKcri4W1vLgKP5eCycyf8t/pzn82TRjcRs/&#xA;EO5xQ1PImh8C9is4JLe0hgkme5kiRUe4k485CooXbiFWrdTQUzUSNm+TsgKCrgS7FXYq7FUFrmrW&#xA;+j6NfarcCsFjBJcSKNiwjUtxHuaUGTxwM5CI6lhOYjEk9HyWvkX8x/Ok03ma20l7qPVp5ZhOrxIh&#xA;YyEMFEjqQqtVR8s6r8zhw+gmuF5/wMuX1Ac3qvkf/nHHSodPS581ySy6nJ8QtbaXhHD/AC/GnxO4&#xA;61Bp8+uavU9rSJrH9Ln4OzhVz5vZrK3a2s4LdppLhoY1jM8xBkfiKcnIABY9TtmnkbNuziKFK2BL&#xA;sVdirsVdirsVdirsVYx5o82XNpfQ+X9BhW+8y3iF44WJENrD0NzdMPsop6L1Y7DMnDgBHHPaA+3y&#xA;DRlykHhjvI/Z5l5T5882ab5ESe30y9GtfmBqK8dU1+Xi72ynYpGo+CL/ACIl+yN27ZtNNgln3kOH&#xA;EOUe/wDX73X58oxbA8WQ8z3PCJZZZpXlldpJZGLySOSzMzGpJJ3JJzeAU6olda3V1aXEdzazPb3E&#xA;TB4pomKOjDoVZSCD8sZRBFHkoJBsK2qavqurXZvNTu5r26YBTPO7SPxHQVYnYeGRhjjEVEUEymZG&#xA;ybQmTQ7FXYq7FXYq7FXYq7FW2R0NHUqfAihwK+l/yG/NCPWdNj8s6rNTWLFKWcjne4gToKnq8Y2P&#xA;crv2Oc52no+CXHH6T9ju9BquIcB5h6/mpdi7FXYq7FXYqw784Ip5fy019Ya8xbczT+RHVn/4QHMv&#xA;QEDNG+9xtYP3UlT8pZLaT8tvL7W/92LRVan86krJ/wAODjrgfGlfenSEeFGu5luYjkOxV2KuxV2K&#xA;uxV2KuxV2KuxV8wfmd5KutW1Xzp5tsrjna6Rfx209u9Wc/u41lZWqdo3bpT7PyzpdHqBCOPGRvIO&#xA;i1OEyM5joXk+bVwHYq7FXYq7FXYq7FXYq7FXYq7FXYqmel6xFbhbbULYahphPx2zNwdK9WglFWjb&#xA;71P7StlU8d7g0fxzZxnWx3Cb6j5dudJt7bzV5avXu9ISVDFfR/Bc2dwPiWK5QE8HB6MPhbsd6ZVD&#xA;KJk45ipd3QjybJYzEccTt93vfSv5T/mNb+dPL/qTcY9ZsuMeowLsCT9mVB/K9PoNRnOa7SHDP+ie&#xA;Tu9JqfFj/SHNnGYTlOxV2KuxVQv7K3vrG4sbledtdRPBOnikilWH0g5KMjEgjmESiCKLyz8kdQuN&#xA;Fvda/LzU2/03Rp3msWbb1LaQgkqPCrCT/Z+2bPtGAmI5o8pDf3/j7nA0UjEnGeYetZqnYOxV2Kux&#xA;V2KuxV2KuxV2KuxV4V+Yen+dNG1nXtF0rTf0lo3ngmS39P4XivBHWUVrStIi5BG46HY5u9LPHOMZ&#xA;SNSx/c6rURnGUogXGf3vOh+SfnZHVLs2FkWUsTcXsC8QgZpK8WY/AEbl/qnwzYfyji6WfgXC/JT6&#xA;0PilHn7yPd+TdWg0u7uY7q4ktkuJXhVhGrOzDgrNQtRVBrQdemXaXUjNEyArdrz4DjNFjOZLS7FX&#xA;Yq7FXYq7FXYq7FXYq7FXYqyDyZ5vufLepNIYxd6XeL6GraZJvFcwHqrA7clrVW7H2rmPqMAyDukO&#xA;R7m3DmMD3g8w9M8r6VH5L/MTQde0WdrnyX5nb6tbXFT8H1nZbebc0eKUL1608Qaa7NPxsMoSFZIf&#xA;o6hzsUfCyRlH6Jfin0XnPO5dirsVdirsVeVfnHoWo6Xe6f8AmLoCf7k9EIGoxLUetaVoeVOoUMVb&#xA;/JNf2c2mgyiQOGfKXL3uBrMZiRljzjz9z0Py55g07zDolprGnPztbtA6/wAyt0ZG/wApGBU5r8uI&#xA;45GJ5hzMeQTiJDqmWVs3Yq7FXYq7FXYq7FXYq7FUu17QrXWrEWs7yQvHIk9rdQELNDNGapLGSGFR&#xA;7ggioOxyzFkMDYYZMYkKSHSPyr8pWMbtdW36TvLmIxahdXhaT6yWkWZnkjYlKmRA3T9Zrfk1uSXI&#xA;0Byro0w0sBz3LyH8zNB05vN2neRtFMjW3rrf6m88jsLaL01VUDMKJBb24ZhuaVpm20eU+GcsufIe&#xA;f7SXXanGOMY4+8+X7AHknmCeyuNe1K4sF42M11PJar0pE0jFBSg/ZI7ZtcQIgAedOvyEGRrlaAyx&#xA;i7FXYq7FXYq7FXYq7FXYq7FXYq9b/IzzNZzzz+RtbPPTNVb1tPYn4obyOjKY2P2S3EMv+Uo8c1Xa&#xA;WEgeLH6o8/c7DQ5Qf3cuR+99OZzTvHYq7FXYq7FVk0MU8LwzIskMqlJI3AKsrChUg9QRhBrcIIt4&#xA;xoFxJ+Vfn+Ty3euw8n+YX9bSLhyeMExIXizHw2R/bg3jm4yj81i4x/eQ5+f4/W63GfAycJ+iXJ7V&#xA;mmdm7FXYq7FXYq7FXYq7FXYq7FWG/mnqOoafoFpc2eonSgNQt0uNQABWKNyyq0isCGj9UpzHhmZo&#xA;oCUyCOLY7ONqpERBBrd5PqsnkdotTmuvOg1aTV3s7bWLkIYroRorRcogoVWiRykjoAeQQd+u0gMu&#xA;wGPh4bru/t6fF10/D3ud3V97yjzPocGiavLYW+pWurQKA8V7ZOJI3VtxWleLD9pa7ZtcOQzjZBj5&#xA;FwMsOE1YPuSnLWDsVdirsVdirsVdirsVdirsVdiqra3VxaXMN1bSGK4gdZYZV2ZXQ8lYe4IwSAIo&#xA;qDRsPtbyP5ng8z+VdP1qKga5iH1iMfsTJ8Mq/Q4NPbON1OE45mPc9Pgy8cBJPMobXYq7FXYq7FWM&#xA;fmL5Is/OPlm40qaiXS/vbC4P+651B4k/5LfZb2PjTMnSak4ZiXTq0ajAMkaY3+S/ni71TT7jyxrv&#xA;KPzLoBME6SH45YYzwDnxZD8Ln5Gu+ZPaGmESJx+iTRos5kOCX1Rel5rXOdirsVdirsVdirsVdirs&#xA;VYH+eNpLc/lnqxiUO1uYLgxkVDLFOjPXcbcanM7s2VZh8fucTXC8ReKfnzpNjDrGi6tpFtFBoWpa&#xA;bEbI26LHFVSzEAJtXhIh+nNz2ZMmMoyPqEt3Wa6AEgY/SQ8vzZuC7FXYq7FXYq7FXYq7FXYq7FXY&#xA;q7FXYq93/wCcZvNgik1Ty3cyBYmX6/aFjQArRJxU/wCTwb6Dmj7YwXUx7v1O17Ny84n3voAGu4zQ&#xA;u3dirsVdirsVdirxr85tC1Hy7rdj+ZXl9eN1ZukerRivGRD8Cu9P2WX90/8Asfnm47PyjJE4Z8jy&#xA;/H2ut1mMwkMsenN6l5a8waf5h0Oz1nT35Wt5GHUGnJW6MjU/aRgVOavNiOORieYc/HkE4iQ6pnlb&#xA;N2KuxV2KuxV2KuxV2KqV5aW17aT2dygltrmNoZ426MkilWU/MHDGRBscwiQBFF84ebLPWvJFrL5U&#xA;8y2Ta75FmkL6XeqQLi15E8WiloQki1PwMOLb02JzosEo5j4kDw5eo6F0uWMsQ4JDix9PJ5FeRQRX&#xA;MkdvN9YgVv3U3EpyXsSp6HxGbWJJG7riN1HJK7FXYq7FXYq7FXYq7FXYq7FXYq7FWQeQPMP+HvOO&#xA;lasxpBBOq3Ph6Ev7uXb/AIxscx9Vi8TGYtuDJwTBfSX5fed411/UvIeqSU1LSZpE0uVzvcWQ+KEV&#xA;7yJEVr4jfxzndVpvQMseUufkXdafP6jjPMcvc9FzXua7FXYq7FXYqoahYWmoWNxY3kYmtbqNop4m&#xA;6MjijD7slGRiQRzCJRBFF4b+WeqXf5ffmJf+QNWlJ0y+lDaXO5+H1HFYWHb98lEb/LAHjm61kBnw&#xA;jLH6hz/Hl9zqtNI4chxnkeT3nNG7Z2KuxV2KuxV2KuxV2KuxV4T/AM5NNqNpN5fv7Z2SJkuraYj7&#xA;J5ek3BwfhZXAPwkU2zedj0eIHy/S6rtOxwkebwKYxNR0HAmvKMVoD7E9s3odQVPCrsVdirsVdirs&#xA;VdirsVdirsVdirsVdirKvN2s3E+oaFr9tM0eozadaySXCErILizZ7TmSP2j9WDZi4MYAlA8uI/I7&#xA;/pb8sySJDnQ+zb9D3b8q/wA8NO8xpDpOvOllr2yRymiQ3R6Dj2SQ/wAnf9nwGj1vZxx+qG8fudrp&#xA;daJ7S2l971fNW7B2KuxV2KuxV49/zkZ5Sa70K2802YK3+juqTSJs31eRtmqN/wB3KQRTpUnNv2Tn&#xA;qRgeUvvdb2jiuPGOYZv+WPm4ea/JlhqrsDeBfQvwO1xFs5p25ij08DmFrMHhZDHp09zlabN4kAer&#xA;KsxXIdirsVdirsVdirsVdirEvzR8lDzf5QutMjoL6Ii50922AnjBoCfB1JX6a5l6LUeFkEunVx9V&#xA;h8SFdXxxPBNbzyQTo0U0TFJY3FGVlNGUg9CDnXAgiw82RSzCrsVdirsVdirsVdirsVdirsVdirsV&#xA;diqo9xK8McLtWOHl6Y8ORqR9+Ct7W1PCr2H8s/z91LRfS0vzMZNQ0oUSK9+1cwD/ACq/3qD3+Idq&#xA;9M1Gs7ME/VDaXd0djpteY7S3D6L0rVtN1awi1DTbmO7s5xyimiNVPt7EdwdxnPzhKBqQou5hMSFj&#xA;ki8gydirsVQmr6ZbarpV5pl0K297DJBKP8mRSpp775PHMxkJDoxnESBB6vDf+cbtTn0/XvMHlS5b&#xA;4krcInYSW7+jNT3bkv8AwObrteAlCOQfi93VdnSqUoF77midu7FXYq7FXYq7FXYq7FXYq+fP+cjP&#xA;y9W3mXzjp0dIp2WHVkUbCQ/DHNt/P9lvenic3/ZOqv8Adn4fqdP2jp69Y+LwvN26t2KuxV2KuxV2&#xA;KuxV2KuxV2KorS4o5dRtkloITIpmJAIEYNXJr2Cgk5CZoFMRuhcmh2KuxV2KuxVk/kX8w/MXk3UP&#xA;rGmTcrWQg3dhISYZgPEfst4MN/o2zG1OlhmFS597dg1EsZsPqnyH+YWgec9M+t6dJ6d1GALywkI9&#xA;WFvf+ZT2YbH57Zy+p0s8MqPLvd/g1EcosMnzGb3YqpXV1b2ltLdXMixW8CNJNKxoqogqzE+AAwxi&#xA;SaCCQBZfMv5Q6ydS/PCTUolKR6pNqE5Wg2SUSTAH6aZ0mvx8Omr+bwuj0k+LPffb6fzmneuxV2Ku&#xA;xV2KuxV2KuxV2KvOvzj82WOlWulaJeW5u7XzBO9re28Y5Sm2KcC0Q/34sssbL7imbDQYDImQNGO4&#xA;97hazKIgRO/E+Y/NXlrUfLWu3Wj36/vrdyFkH2ZEqQsiezU+jodxnS4cwyREg6PLjMJGJSnLWDsV&#xA;dirsVdirsVdirsVdirKf0DJoflP9M6ivpX2tAwaNbNs/1Y/390R2Vl/dJX7QZj2BzF8XjycI5R5+&#xA;/oP0t/Bww4jzly/WxbMpodirsVdirsVdiqZ+XPMer+XdXg1bSZzBdwHY9VdT9pHX9pW7jKsuKOSP&#xA;DLkzx5DA2Ob6L8r/APOR3k2/to11xZdIvQKSng88BbxRowz7+DLt4nrnP5uyckT6fUHc4u0YEerY&#xA;pvqX59/llZRF49Se9kAqIbaCUsf9lIsafe2VQ7MzHpXxbJa/EOtvFfzL/O3WfN0L6ZZRHTdDYgyQ&#xA;huU09DUeq4oOPfgPpJ2zcaPs6OI8R3k6zU62WTYbRZD/AM41+ULybWrnzRPEVsbWJ7ezkYU5zyUD&#xA;lfEIlQfc/PKO184ERAcy3dm4SZcfR9F5zzuXYq7FXYq7FXYq7FXYqtmlihieaVxHFGpeSRjRVVRU&#xA;kk9ABhAtBNPm/VvOX6S1rVfzKulrZaW36N8n2sg2e6IJWYqRv6Skyt/lFRXbOhhp+GIwjnLefu/G&#xA;zpZ5uKRynkNo+/8AG7zi181SSWrWGuQfpaweR5lLuUuYZZTykeCej8ebGrK6shO/Gu+bGWGjcfSf&#xA;s+IcMZdqluEv1G20xVWfTbl5oGNGhnQRzxnruFLoy+DKfmq7VnAy5EMJAdEDljF2KuxV2KuxV2Kp&#xA;p5f8sa/5hvBZ6NYy3s+3IRj4UB7u5oqD3YjKsuaGMXI0zx4pTNRFvWrD8sPKP5facnmH8wLmO+vh&#xA;8VloUPxI8i7hTWhlptyqAg78s1UtZkzngxCh1l+P7XYR00MI4sm57nlnnHzZqfmrXp9XvzxaT4Le&#xA;3U/BDCv2Ik6bKPvO/fNnp8EcUeEOBmynJLiKSZe1uxV2KuxVM7DR2uNF1TVXqILD0IkPZp7iT4VP&#xA;/POORvoyqWSpCPf+j8BnGFxJ7ksy1g7FV0aB5EQsEDEAu1eK1NKmgJoPlgKvVrX/AJxr89z8WN5p&#xA;qQsAwk9aVwVPdeMRrmrl2viHSX4+Lnjs3IeoZv5W/wCcaNDs5kuPMF++plTX6pCpghJ8HarSMPlx&#xA;zCzdsSIqApysXZsRvI29is7O0srWK0s4Ut7WBQkMEShERR0CqNhmolIk2ebshEAUFbAl2KuxV2Ku&#xA;xV2KuxV2KvK/z58z3cOlWXlDSSW1jzHIsBRTRhblgpG3T1XIT5cs2nZmEGRyS+mDga/KQBAc5PEf&#xA;zQura11K08p6e/LTfLEX1TkNhJeMeV3MR4tL8P8Asc3OjiSDkPOe/wAOjq9SQCIDlH7+rCszXGXR&#xA;xySPwjQu5qQqgk0Aqdh4DASq3CrsVdirsVdirNfyv/L1vN+rSteS/VNB05fW1S9JCcU3IRWb4QzU&#xA;O52ABOYWt1XhR23keQcnS6fxDvtEc2f+Zfzx0Py5Zf4f/LmwhitoKr+kWQ+nXoWjQ/FI3+XId/A9&#xA;cwcPZssh48x37nLya2MBw4h8XjOs63q+tX8l/qt3JeXkn2ppWqadgB0VR2A2zb48cYCoig62czI2&#xA;TZQOWMXYq7FXYq7FXo1tp6p+Qt5eKtZJtej9Rh2jjt+K1/2Tn781xn/hQH9D9LmCP+Dk/wBL9Dzn&#xA;Ni4bsVdir62/IvzO2u/l/aLM/O70tjYTE9SIwDEf+RTKPmDnKdpYeDKa5S3eg0OXjxjy2eg5gOY7&#xA;FXYq7FXYq7FXYq7FXYq7FXh/lVG83/n5rOsXHx2XlwPBaKd1DxE28dK9i3qSD3zdZj4WljEc5/2/&#xA;qDq8X7zUGR5ReC60l8msXyX4K3y3EoulPUShzz6/5Vc3uOuEVyp1M7s3zQWTYpl5c1qbQ9esNXhQ&#xA;SvZTJN6TfZcKfiQ/6y1GV5cfHEx72eOfDIHuTr8zPL1no/mT1NNUro2rwRanpQIpS3ul5hKDpwaq&#xA;j2plGjymcPV9UTR94bNTjEZbfSdx8WJ5ltDsVdiqraWlzeXUNpaxNNczuscMSCrM7GiqB4k5GUgB&#xA;Z5KASaDOvOerx+XtAh/L/SZw6wt6/mS6iPwz3xpWEMOscFAvuR7ZhafH4k/FkP6vkP2uXmnwR8Mf&#xA;H3/sYBme4jsVdirsVdirsVdir1ryJx1r8lfOWgr8V1p0qanEvfgArNxHytm+/NVqfRqYT6Hb8fNz&#xA;8HqwTj3b/j5PJc2rgOxV2Kvaf+cYtcMHmHVdFdqR3tutxGD/AL8t24kD3KSk/Rmm7Yx3AS7j97su&#xA;zJ1Ix730dnPO6dirsVdirsVdirsVdirsVdirwXSNdX8svzZ1yw1mIpovmWZbiG/PRAzu8bknYojT&#xA;Mj+FK/PeZMX5nBEx+qHR1MMngZiJfTJjX/OR3l230/zjb6rbKFi1mD1ZOPQzRHg7Dt8SFD865k9k&#xA;5TLGYn+EtHaOMCdj+JgmneRfOOp2qXenaPdXlq/2J4IzIh9uS1FfbM6epxxNGQBcWOCchYBKZ3P5&#xA;YeZtM0S81nzBbnSLOCMfVvXZBJPOzAJCkXLnUgliabAZWNZCUhGB4izOmlGJlLYMv886XP5o8lfl&#xA;pLpEJku57dtJC+MkAjiFT2AaKRvYZiaaYxZMvFyvicjPHxIY658nmPmPRLnQtev9HuTWaxneEvSg&#xA;YKaK4Hgy0YZssWQTiJDq4WSBhIxPRLssYL4opJZFjjUvI5oqjcknATSp/Y6xB5dt5P0Ywl16dWjf&#xA;UlNUtY2FGS2I6yMNml7DZP5soljOQ+r6e7v9/wCr5tsZ8A2+rv7vd+tjvXMhqdirsVdiqIsdO1DU&#xA;Jxb2FrLdztssUCNIxr/kqCcjKYiLJpMYk7BvUtNv9MvprC/ga2vLduM0DijKaVofvxhMSFjcLKJi&#xA;aPNDZJDsVZz+Tfm6Dy351t3vGA0vUVNjf86cAkpHF2rtRXAr/k1zB7QwHJjNfUNw5WjzcE9+R2Uv&#xA;zX8gz+TvM8tuiH9E3habTJTuDGTvGT/NGTQ+1D3yWh1QzQv+Ic0arB4c66HkwvMxxnYqzX8mtRaw&#xA;/MvQpQfhmma2YeInjaIfiwOYXaEOLDJydHKssX2FnJPRuxV2KuxV2KuxV2KuxV2KuxVjnn3yPpXn&#xA;HQJdMvVCzqC9jd0+OGamzA/ynow7j6MyNLqZYZ8Q+LRnwDJGi8m8vabD+YHlCfyFr0n1Pzh5Vd0s&#xA;Z5N2MaHgK92QUCPTtxbfNrlmcGTxYb458/x+Orr8cfGh4ctpxea3v5c/mXoF5LGNMvYuBIa7tebQ&#xA;kDv6sfw0p4nNjHV4cg5j4uFLT5YHkWM6jPqUk/C/nknlj+H95J6pXxFatT5ZkwArZokT1fT35DaW&#xA;H/LnSpr63q9vdXFzp7SDdefOPmlfFXcfTnNdpz/fGj0Fu90Ef3Yvv2YZ/wA5Bfl5fXPmbTtc02IG&#xA;PVnhsLtzsiXJYRwvI37KupC17cfcZmdl6oCBjL+Hf4ON2hpyZCQ67PP/AMzPJujeTLu10OCeW+1c&#xA;xLPqF21EhTnXhHFGBXtUszHt03zP0eolmBkRUejh6nDHGRHmerCczXGdirsVTPy/5Z1/zDeiy0ax&#xA;lvbjbkIx8KA9C7mioPdiMqy5oYxcjTPHjlM1EW9s8of84zwqEufNd8XbYnT7M0UezzMKn3CqP9bN&#xA;Nn7Y6Yx8S7PD2b1mfk9c0XyN5P0WJY9M0e1t+Ip6gjV5T/rSvykb6WzVZNTkn9Ui7GGCEeQCeABQ&#xA;FUUA2AHQDKG185f85LeUmtNbtPM1un+j6iot7xgNhcRD4CT/AJcQoP8AVzoeyM9xMD0+50vaWKpC&#xA;fe8VzcutV7C9uLG8iu7cgSwsGUMAymn7LKahlPQg7EZGURIUUxlRt7vf/k95a88+U7TzR5RVNJ1G&#xA;7h9SSwBratMtVkjA3MRDggEbf5PfNHHXzw5DDJ6gOvV2stHHLAThsfsU5bh/Nv5J6rpurwk+ZvJz&#xA;cJVcfvk+rmgY994VdG8StcIHhakSj9GT9P7UE+JgIP1QeC5vXVOxVOPJtytr5v0O6YgLBqFrKxPQ&#xA;BJ1bf7sp1AvHIf0T9zZhNTB8w+384t6h2KuxV2KuxV2KuxV2KuxV2KuxV5Z+af5XavqOqQebvJ83&#xA;1TzNaU9VFYRmcKKKysfh5hfhIbZl2PTfaaLWxjHw8m8D9jgarSknjh9TE7rzj+beqwJpur/l9Bql&#xA;5EeKXN7p8rw1/m+M+lU+KsBmVHT6eJ4o5DEeUnHObNLYws+YRGgfkPret6jHqfnWS3sbRDVNE01I&#xA;4VA68D6IWKMHuV5Mf5gd8jl7TjAcOKye8/tTj0MpG57eQe5Wlrb2lrDaW0YitrdFigiXZVRAFVR7&#xA;ACmaSUiTZ5u1AAFBdNBDPE0U0ayxPs8bgMpHuDtiCRyUi3zL/wA5LWkcPny1nQjlc6fE0i13DLJI&#xA;lfpVRnSdkSvER3F0naQrJ8HkubV17sVei/lL+U155yvRfXlYPLttJxuZgaPK6gH0ovvHJuw981+u&#xA;1wwih9ZczSaQ5DZ+l9SaLoWj6HYJYaTaR2VpH9mKIUqfFj1ZvcmucxkyymbkbLvYY4xFAUEdkGbs&#xA;VdiqV+aPLemeZNDutG1JC1rdLQstOaMDVXQmtGVtxluHNLHISjzDXlxicTEvlzzh+SHnny6000dq&#xA;dU02Mkrd2fxtw7F4f7xduuxA8c6bB2jiybXwnzdFm0WSHSw8/wAz3Eew/wDONvmLVIPNc2hLP/uM&#xA;u4JJ3tnqR60YWjx+DFdj4j5DNR2viicfFXqDsezshE+HoWX/AJlQav5I87p570yz+uaHqUQtfMVm&#xA;BVG/Z5OKEDkvHixH2ga/a3xNGY5sXhSNSG8XI1IOLJ4gFxPN4j510zRrfUxf6BJ6ugajWaxB+3Cd&#xA;jJbSg1o8JanU1Uqa75utPORjU/qHP9fxdXmjEG4/SfxTHcyGpsEggg0I6HFX2v5A8wHzD5M0jWGN&#xA;Zbm3X1z4zRkxy/8AJRGzjNVi8PJKPcXptPk44CSf5Q3OxV2KuxV2KuxV2KuxV2KuxV2KuxV2KuxV&#xA;2KvjzzbcXPnH8xtclWUyCt89qev7iwglkjVR/lJB27nOuwAYcMfh9p/a85lJyZD8fsYXmY4zsVfV&#xA;X/OO17bT/lvDBEQZbS5njuF7hmb1B/wrjOX7ViRmvvAd92dIHF7i9NzWuc7FXYq7FXYq7FXgX/OS&#xA;3lHSrW30/wAyWdskF1cTm1vnjHESlkMkbMBtyHptv1P0ZveyM8iTAnarDqO0sIFSDz/8kLs235oa&#xA;I1aLI00TV2r6kEij/hiMz+0Y3gl+OriaI1lD67kjjkjaORQ8bgq6MAVKkUIIPUHOTBp6Ih43+YH/&#xA;ADjvpeperf8AlV1068NWbTnr9Vc/8V0qYifpX5ZuNL2rKO2Tcd/V1mo7PEt4bHufP+veXdb0C/aw&#xA;1izksrpf2JBsw/mRhVXX3UkZvsWWOQXE2HU5McoGpCkuyxg+kv8AnG7znBe6BL5VlHG70vnPb/5d&#xA;vLJyb6Ulk3/1hnO9r6cifidJfe7rs7NceDqHsuad2TsVdirsVdirsVdirsVdirsVdirsVdirsVY5&#xA;+YvmaPy15M1TVS/GeOEx2niZ5fgip8mNT7DMjSYfEyCLRqMvBAl81/ktpyzeZ7zU5x/oOj6be3V0&#xA;5qAFaBoaVHciQn6M6PtCdQERzlID7XS6OPqJ6AF5/me4jsVetf8AOOXmz9GebZdEnelrrMfGME7C&#xA;4hBZP+CXkvuaZqu1sHFj4hzj9zsOzsvDPh/nPp3Oad47FXYq7FXYq7FXjH/OUF1IvlfSLUKTHLfG&#xA;Vn7BooWVR9Pqn7s3HY0fXI+TrO0z6APN8+aJd39nrFjdaeaX0FxFJa/8ZVcFP+Gzf5IgxIPKnUQJ&#xA;EgRzfdS1oOX2u9Olc4h6p2Kpb5g8taH5hsGsNZs47y2O4WQfEp6ckYUZG91OWYs0sZuJosMmOMxU&#xA;hb4p17SpNK1nUNOapFldT2vPsWgkKHfpnZYp8UQe8W8xkjwyI7izz/nHrVPqX5lW0FQF1G2ntWJ9&#xA;l9cfe0IGYPasLwk9xB/R+ly+z5VlHm+rM5d37sVdirsVdirsVdirsVdirsVdirsVdirsVfPX/OUG&#xA;rXh1PRtIDEWSQPdlAdmlZzGCR/kqpp/rHN/2NAcMpdeTp+05mxHou1fQoPy9/JCdFlEuseaWgjuJ&#xA;06BJEMnpr3KrErLXxY+2OPIc+p/owtZw8HB5zYj+YHl+68i675Vu7cJNHBZWtxFKPihkuIZDJOAe&#xA;jKXbl8mGZWlyjPGYPefl0cfUYzilE+QSX8y7nRdR8yya5osiGx1dFufqwoJLeYqFmilTseYJB6EH&#xA;bL9GJRhwy5x+1q1JiZcUeRb/ACt8ua1rnnXTE0pSrWU8V3cXP7MMcMgYsx+igHc4NbljDGeLqKXS&#xA;45SmK6PsrOQeldirsVdirsVdiqR+c/J2kebtDk0jVAwiZhJDNGQJIpVqFdK1HQkb9jl+n1EsUuKL&#xA;VmwjJHhLxm0/5xp12y8w2VxFq9rPpkFxHLLIyyRz8EYMQsYEiE7d3zcS7XiYEcJ4qdYOzZCQ3FPo&#xA;LNA7h2KuxV8oecdCkvx58vVX99oWvvO//GC/mljY7f5cUZ+WdTp8vD4Y/nQ+6v2vP5oXxn+bL72H&#xA;+T9cOg+adK1jfhZXMckoHUxcqSD6UJGZeox8cDHvDj4Z8ExLufb0bpIiyIwZHAZWG4IO4IziyHqG&#xA;8VdirsVdirsVdirsVdirsVdirsVdirsVeNf85J+U7nUNCsdetIjI+lM6XgQVIt5aHmfZHX/hq5uO&#xA;yM4jIwP8X3ut7SxExEh0eZ3n5iWXmD8sF8r61HKNT0Yxy6VfxrzR0jrGI5qGqng/AHcHau/XYx0h&#xA;x5+OP0y5hwTqBPFwS5jkxxfN3mvVNCg8psf0laK6jT7d4RNPEw2CwPQyDbag7bDMjwMcZHJyPX9r&#xA;T4s5R4OYZX5a/wCcffPmpX8K6rbLpOnlgZ7iWSN5OFfiCRxs55eHKgzFzdqYoj0niLfj7PySO+wf&#xA;TWi6Do2iWS2Wk2cVnbqAOEKKnIgU5MQKs3iTvnOZMspm5G3eQxxiKApH5WzdirsVdirsVdirsVdi&#xA;rsVdirsVfOP1tbiT845VACE8Bw3B4XMkYbbxpWudDw14H46Olu/F/HV4tm5da+2vITXDeR/LzXP9&#xA;+dNtC/WtTCvWvfx984zVV4sq/nH73p8F+HG+4J7lDa7FXYq7FXYq7FXYq7FXYq7FXYq7FXYq0yqy&#xA;lWAZWFCDuCDiqFtNH0myikis7K3topf72OGJI1b/AFgoAOTlkkeZJYiAHILrXTNNtHL2tpDbuwoz&#xA;RRqhI9yoGCU5HmVEQOQRORZOxV2KuxV2KuxV2KuxV2KuxV2KuxV2KvCPzL/KXzdZavqmueS2ee11&#xA;tJU1bTUKh/39fVor/DIjMeQ/aU9PbeaPXYzERyc48i6nU6SYkZQ/i5hin5e/kR5m1fVopvMNnJpm&#xA;jQsHnE3wzTAb+miV5LXuxpTtvmVqu04Qj6DxSaNPoZSPqFRfUEccccaxxqEjQBURRQAAUAAzmSbd&#xA;6F2KuxV2KuxV2KuxV2KuxV2KuxV2KuxV2KuxV2KuxV2KuxV2KuxV2KuxV2KuxV2KuxV2KuxV2Kux&#xA;V2KuxV2KuxV2KuxV2KuxV2KuxV2KuxV2KuxV2KuxV2KuxV2KuxV2KuxV2KuxV2KuxV2KuxV2KuxV&#xA;2KuxV2KuxV2KuxV2KsBT80XL2waxthFPDb3jzrePKkVtclgpcRW8knqLx+MceC1FZBXFULdfm5fW&#xA;thHeS6CyxypFKlZLlQyy+nTiz2irt6hqWIU0+FmO2Kppqvn/AFXTrcu2hmSRreS6iPqzRR+nASs3&#xA;qGa2jkQqzQgD0/i51GytiqGl/NaKG8NrJpxf6v6ov7uCVpbWJoZGLKk4iCufq8E8lDxPJAlPiqFU&#xA;HZ/nNFNDBdS6SVsDHM17eQz+qlu8FS3MGONigRonZ6fCkgYjiGIVTm78/tC05SCy9OKW1tUE98IZ&#xA;WuLtIXUFPRekai4HJqltj8GKpXD+bwa++oPo0v1g6ha6cksMvq27etdLa3E3rCNeKQmRWXko9Tko&#xA;FCW4qvRMVdirsVdirsVdirsVdirsVdirsVdirsVdirsVdirsVdirsVdirsVSnzdcyWvlTWrmOUwS&#xA;QWFzIkytwKFIWYMGFOJWla4q8Ij1O9j0Gx1+6juLbTJTFJPq02oobJll9ENCIwoK8PVcBvWqvCrk&#xA;0dVCsWuNb8zmwlFlrsK3lx6ctqtzd27iSNUVmMPpTIzKXJ9VlrSLiY6vyGKG/wDEfmSKBr661uGC&#xA;0ggkSRo9Qgb0Z4xQrNMjp+/UuocRqP3hj4gLzqq+pT/h709/qnp/WR19Lj9brt/z1r/ssKVSf9D/&#xA;AFcev9X+rcEp6nDhw5D0+u1OVOPviqFtv8J/ox/qv1D9F8JPU9L0fq/Db1a8fg4/Z5fRXFURD+hP&#xA;qa+j9W+p1Thw9P0uXEcKU+GvGlPamKr1/RP7P1fo3Th9ngvL6OHGvtTFVBv8OepJy+p+p6L+rX0q&#xA;+hyPPl/kcq17VxVWi/Q/oj0vq/oVhpx4cK/D6HTb+Xh9FMVRmKuxV2KuxV2KuxV2KuxV2KuxV2Ku&#xA;xV2KuxV2KuxV2KuxV2KuxV2KoXVv0b+ir39Ken+jPQl+vetT0vQ4H1edduPCtfbFXz8//Qnf1Aep&#xA;w+oduX6Z9H9nx+H+X8MVZDZ/9C6/pPTvqf1v9JfUf9xXpfpz1fqH1Zf7jjv6X1bj9nbj7Yqtb/oW&#xA;/wDw7qHP1v8ADn1yT9K+p+mfqf1v1YvU9fl+65er6XLl+1x70xV//9k=</xmpGImg:image>
               </rdf:li>
            </rdf:Alt>
         </xmp:Thumbnails>
      </rdf:Description>
      <rdf:Description rdf:about=""
            xmlns:xmpMM="http://ns.adobe.com/xap/1.0/mm/"
            xmlns:stRef="http://ns.adobe.com/xap/1.0/sType/ResourceRef#"
            xmlns:stEvt="http://ns.adobe.com/xap/1.0/sType/ResourceEvent#">
         <xmpMM:OriginalDocumentID>uuid:9E3E5C9A8C81DB118734DB58FDDE4BA7</xmpMM:OriginalDocumentID>
         <xmpMM:DocumentID>xmp.did:621E35630F206811822A8451A1857300</xmpMM:DocumentID>
         <xmpMM:InstanceID>xmp.iid:621E35630F206811822A8451A1857300</xmpMM:InstanceID>
         <xmpMM:RenditionClass>proof:pdf</xmpMM:RenditionClass>
         <xmpMM:DerivedFrom rdf:parseType="Resource">
            <stRef:instanceID>xmp.iid:611E35630F206811822A8451A1857300</stRef:instanceID>
            <stRef:documentID>xmp.did:611E35630F206811822A8451A1857300</stRef:documentID>
            <stRef:originalDocumentID>uuid:9E3E5C9A8C81DB118734DB58FDDE4BA7</stRef:originalDocumentID>
            <stRef:renditionClass>proof:pdf</stRef:renditionClass>
         </xmpMM:DerivedFrom>
         <xmpMM:History>
            <rdf:Seq>
               <rdf:li rdf:parseType="Resource">
                  <stEvt:action>saved</stEvt:action>
                  <stEvt:instanceID>xmp.iid:F77F117407206811822A8451A1857300</stEvt:instanceID>
                  <stEvt:when>2013-10-06T17:09:14+13:00</stEvt:when>
                  <stEvt:softwareAgent>Adobe Illustrator CS6 (Macintosh)</stEvt:softwareAgent>
                  <stEvt:changed>/</stEvt:changed>
               </rdf:li>
               <rdf:li rdf:parseType="Resource">
                  <stEvt:action>saved</stEvt:action>
                  <stEvt:instanceID>xmp.iid:621E35630F206811822A8451A1857300</stEvt:instanceID>
                  <stEvt:when>2013-10-06T18:13:20+13:00</stEvt:when>
                  <stEvt:softwareAgent>Adobe Illustrator CS6 (Macintosh)</stEvt:softwareAgent>
                  <stEvt:changed>/</stEvt:changed>
               </rdf:li>
            </rdf:Seq>
         </xmpMM:History>
      </rdf:Description>
      <rdf:Description rdf:about=""
            xmlns:xmpTPg="http://ns.adobe.com/xap/1.0/t/pg/"
            xmlns:stDim="http://ns.adobe.com/xap/1.0/sType/Dimensions#"
            xmlns:xmpG="http://ns.adobe.com/xap/1.0/g/">
         <xmpTPg:NPages>1</xmpTPg:NPages>
         <xmpTPg:HasVisibleTransparency>False</xmpTPg:HasVisibleTransparency>
         <xmpTPg:HasVisibleOverprint>False</xmpTPg:HasVisibleOverprint>
         <xmpTPg:MaxPageSize rdf:parseType="Resource">
            <stDim:w>209.999929</stDim:w>
            <stDim:h>210.001308</stDim:h>
            <stDim:unit>Millimeters</stDim:unit>
         </xmpTPg:MaxPageSize>
         <xmpTPg:PlateNames>
            <rdf:Seq>
               <rdf:li>Cyan</rdf:li>
               <rdf:li>Magenta</rdf:li>
               <rdf:li>Yellow</rdf:li>
               <rdf:li>Black</rdf:li>
            </rdf:Seq>
         </xmpTPg:PlateNames>
         <xmpTPg:SwatchGroups>
            <rdf:Seq>
               <rdf:li rdf:parseType="Resource">
                  <xmpG:groupName>Default Swatch Group</xmpG:groupName>
                  <xmpG:groupType>0</xmpG:groupType>
               </rdf:li>
            </rdf:Seq>
         </xmpTPg:SwatchGroups>
      </rdf:Description>
      <rdf:Description rdf:about=""
            xmlns:pdf="http://ns.adobe.com/pdf/1.3/">
         <pdf:Producer>Adobe PDF library 10.01</pdf:Producer>
      </rdf:Description>
      <rdf:Description rdf:about=""
            xmlns:xmpRights="http://ns.adobe.com/xap/1.0/rights/">
         <xmpRights:Marked>True</xmpRights:Marked>
         <xmpRights:WebStatement rdf:resource="http://www.ospreydawn.com"/>
         <xmpRights:UsageTerms>
            <rdf:Alt>
               <rdf:li xml:lang="x-default">This work is licensed under a &lt;a rel="license" href="http://creativecommons.org/licenses/by-nc-sa/3.0/"&gt;Creative Commons Attribution-NonCommercial-ShareAlike 3.0 Unported License&lt;/a&gt;.</rdf:li>
               <rdf:li xml:lang="en_us">This work is licensed under a &lt;a rel="license" href="http://creativecommons.org/licenses/by-nc-sa/3.0/"&gt;Creative Commons Attribution-NonCommercial-ShareAlike 3.0 Unported License&lt;/a&gt;.</rdf:li>
               <rdf:li xml:lang="en">This work is licensed under a &lt;a rel="license" href="http://creativecommons.org/licenses/by-nc-sa/3.0/"&gt;Creative Commons Attribution-NonCommercial-ShareAlike 3.0 Unported License&lt;/a&gt;.</rdf:li>
            </rdf:Alt>
         </xmpRights:UsageTerms>
      </rdf:Description>
      <rdf:Description rdf:about=""
            xmlns:cc="http://creativecommons.org/ns#">
         <cc:attributionName>Max O'Brien / Osprey Dawn</cc:attributionName>
         <cc:license rdf:resource="http://creativecommons.org/licenses/by-nc-sa/3.0/"/>
      </rdf:Description>
   </rdf:RDF>
</x:xmpmeta>
                                                                                                    
                                                                                                    
                                                                                                    
                                                                                                    
                                                                                                    
                                                                                                    
                                                                                                    
                                                                                                    
                                                                                                    
                                                                                                    
                                                                                                    
                                                                                                    
                                                                                                    
                                                                                                    
                                                                                                    
                                                                                                    
                                                                                                    
                                                                                                    
                                                                                                    
                                                                                                    
                           
<?xpacket end="w"?>
	</metadata>
<g id="Layer_2">
	<g id="_x37_Wl2mV_1_">
	</g>
</g>
<g id="Layer_1_1_">
	<g>
		<path fill="#FFFFFF" d="M158.946,66.213c13.68-5.104,28.467-7.505,45.212-7.505c8.312,0,17.372,0.612,26.934,1.821
			c49.165,6.221,68.457,28.643,69.26,29.595c0,0,3.068,3.452,3.555,7.282c5.104,2.79,3.935,2.177,8.61,5.222
			c3.271,2.137,6.358,4.146,8.805,5.527c0,0,14.459,6.087,30.438,3.3c0,0-3.918,12.773-15.982,19.484
			c-2.141,1.188-4.408,2.08-6.668,2.729c0.287,0.409,0.587,0.829,0.896,1.261c1.533,2.112,4.192,5.155,7.004,8.381
			c7.869,9.009,16.789,19.221,19.678,28.841c3.467,11.554,4.66,18.636,4.712,18.931c0,0,0.398,9.919,0.026,12.147
			c-0.372,2.228,7.986,21.365,7.986,21.365s5.993,5.546,8.777,9.883c0.028,0.054,4.81,8.643,16.876,21.559
			c5.473,5.855,16.731,13.837,28.663,22.285c14.632,10.367,31.217,22.116,42.396,33.719c5.164,5.357,12.023,6.484,16.864,6.482
			c8.896,0,17.968-3.812,23.124-9.717c3.276-3.754,4.629-7.936,4.021-12.413c-3.507-25.742-34.724-72.158-53.372-99.896
			c-17.034-25.333-27.171-44.687-25.055-62.854c1.107-9.485,4.402-15.895,6.496-19.127c2.185-10.488,11.593-17.604,23.777-17.604
			c6.351,0,12.604,1.794,17.212,5.562c8.42,6.884,10.371,11.479,11.064,18.025c0.979,6.554-1.256,11.431-1.256,11.431
			c-2.091-6.271-12.111-4.826-12.111-4.826c-0.914,0.081-2.729,0.854-4.417,2.744c-2.572,2.863-7.482,6.285-16.271,6.285
			c-0.166,0-0.332-0.003-0.496-0.007c-2.318,14.324,13.379,36.935,29.896,60.704c21.583,31.073,37.921,58.294,42.332,68.137
			c6.747,15.045,20.244,52.146-0.157,71.678c-10.804,10.342-25.323,13.729-36.112,14.695c2.027,5.129,4.33,11.812,6.644,20.262
			c5.904,21.623,6.505,33.543,6.896,41.43l0.095,1.82c0.184,3.272,1.993,8.656,3.451,12.979c1.384,4.104,2.575,7.639,2.913,10.604
			c0.212,1.852,0.215,3.281,0.22,4.324c0.006,0.264,0.006,0.598,0.014,0.812c0.104,0.193,0.351,0.604,0.854,1.283
			c3.341,4.492,6.262,9.008,5.524,14.664c0.117,0.652,0.364,1.756,0.57,2.682c0.694,3.104,1.647,7.354,2.286,12.861
			c0.393,3.312,1.606,6.979,2.898,10.869c1.898,5.707,4.051,12.176,3.848,18.985c-0.296,9.847-3.77,17.916-10.054,23.345
			c-0.284,0.248-0.653,0.637-1.08,1.086c-3.307,3.487-7.618,7.217-16.964,7.217l-0.611-0.004
			c-12.716-0.215-22.609-12.56-24.604-17.668c-1.398-3.601-0.98-13.229,0.445-19.041c-0.053-0.791-0.188-2.244-0.307-3.459
			c-0.438-4.646-1.104-11.666-0.729-17.785c0.229-3.812-0.396-7.139-0.963-9.271c-7.521-4.312-27.271-15.728-36.414-21.979
			c-3.218-2.197-5.564-4.336-7.334-6.395c0.548,3.991,1.135,8.59,1.219,12.206c0.061,2.744,1.938,6.829,2.848,8.794
			c0.65,1.42,1.125,2.438,1.4,3.688c0.681,3.062-0.196,5.693-0.975,8.015c-0.147,0.454-0.359,1.095-0.479,1.495
			c0.012,0.171,0.024,0.357,0.039,0.562c0.271,4.031,0.781,11.545-3.996,16.651c-2.46,2.636-5.882,4.08-9.64,4.08
			c-0.474,0-0.959-0.021-1.469-0.065c-8.789-0.828-20.562-5.086-24.816-14.354c-3.397-7.393-3.113-11.021-1.597-18.131
			c0.67-3.121,0.396-7.875-0.772-13.455c-1.062-1.043-4.792-3.729-17.59-8.51c-10.78-4.024-18.47-19.703-22.71-30.896
			c-4.262,1.199-7.961,1.392-11.596,1.567c-2.983,0.154-6.081,0.312-10.005,1.035c-9.946,1.84-38.812,16.674-44.843,20.918
			c-1.668,2.771-4.011,4.66-5.969,6.244c-0.805,0.646-1.562,1.262-2.175,1.853c-0.153,0.476-0.375,1.858-0.074,5.856
			c0.188,2.487,2.96,9.088,5.188,14.39c1.27,3.01,2.573,6.122,3.844,9.375c4.151,10.661,3.603,15.973-2.366,22.729
			c-0.57,0.646-1.109,1.256-1.659,1.971c-3.965,5.156-8.259,6.867-11.009,7.644c-0.979,1.974-2.702,4.763-6.285,7.578
			c-4.822,3.805-11.122,4.702-15.083,5.034c-2.751,2.146-7.238,4.492-14.188,5.316c-1.274,0.147-2.589,0.229-3.893,0.229
			c-4.009,0-7.534-0.717-10.271-1.547c-1.758,0.697-3.475,1.109-4.729,1.41c-1.462,0.354-2.938,0.533-4.375,0.533
			c-8.973,0-16.211-6.584-19.863-18.062l-0.124-0.392c-2.124-6.658-6.077-19.062,1.759-30.812
			c4.189-6.285,7.612-19.854,8.839-26.153c1.167-5.998,2.362-8.104,4.729-11.845c-0.021-0.815-0.215-2.155-0.427-3.44l-1.271-0.373
			c-3.999-1.176-8.521-3.449-12.803-10.729l-1.196,16.755l-7.596-13.717c-0.52,0.847-1.09,1.582-1.699,2.229
			c-3.679,8.155-17.214,14.928-28.231,18.377c-3.376,1.06-6.729,1.594-9.967,1.594c-19.921,0-29.948-19.652-33.247-26.111
			c-2.285-4.48-4.361-6.456-6.769-8.744c-3.89-3.695-8.294-7.896-10.956-18.843c-3.453-14.218,8.108-35.796,20.247-56.683
			c1.712-2.944,3.328-5.729,3.936-6.98c2.888-5.979,3.312-11.434,3.312-11.482l0.38-6.347c-2.104-3.474-4.396-6.823-6.647-10.118
			c-3.146-4.604-6.396-9.356-9.107-14.358c-5.873-10.812-6.183-22.911-6.008-27.958c-3.329-3.021-6.589-7.043-9.349-13.201
			c-4.456-9.967-4.415-20.379-4.112-24.955c-2.881-9.258-0.124-15.984,1.402-18.733l-2.354,0.178
			c-0.408,0.024-0.812,0.044-1.203,0.044c-0.002,0-0.002,0-0.003,0c-9.485-0.002-14.868-7.511-17.249-13.767
			c-4.354-3.594-7.264-8.942-8.327-15.445c-0.888-5.429-0.367-10.639,0.593-13.743c-1.498-3.229-1.667-6.879-0.321-10.103
			c2.066-4.971,11.982-13.982,16.148-17.634c4.388-3.836,8.576-7.146,11.532-9.403c0.421-6.252,4.021-11.462,6.729-14.029
			l0.315-0.306c1.237-4.354,3.652-9.376,7.828-15.082c8.521-11.646,21.91-17.479,32.667-22.167c1.687-0.731,3.302-1.438,4.806-2.13
			c3.435-1.572,4.351-2.653,4.359-2.674c-0.383,0.467-1.237,2.414-0.196,5.161c0,0,7.109-5.785,5.981-12.299
			C147.778,58.708,156.379,59.798,158.946,66.213z"/>
		<path fill="#0A539F" d="M66.95,156.973c0,0,0.696,1.812-0.418,4.779c-1.114,2.978-2.183,16.396,6.734,21.229
			c0,0,2.415,10.961,10.217,10.404c0,0-0.562-1.858-0.562-2.978c0,0,0.933,0.742,1.439,0.836c0,0-0.371-2.091,0.186-3.576
			c0,0,1.115,2.229,3.72,2.93c0,0-0.697-3.063-0.231-3.854c0,0,0.884,2.136,3.438,3.715c0,0,1.063-4.314,0.835-6.409
			c0,0,3.39,3.484,3.943,4.975c0,0,1.486-0.698,1.671-1.771c0,0,4.367,5.062,5.672,5.48c0,0,3.571-2.739,3.062-8.777
			c0,0,3.623,1.579,4.783,3.767c0,0-1.626,0.274-1.997,0.463c0,0-0.325,2.138,0.278,3.572c0,0-1.439,0.098-1.812,0.098
			c0,0-0.417,1.3,0.188,3.02c0,0-1.257-0.418-1.771-0.418c0,0-0.14,3.345,0.696,5.154c0,0-1.533-0.835-2.462-0.464
			c0,0-1.021,4.271-0.23,6.084c0.79,1.812-0.464,3.021-1.3,3.344c0,0-0.326-0.743-0.559-0.79c0,0-0.417,0.929-0.371,1.255
			c0.046,0.324-2.044-1.347-2.462-1.347c0,0-0.979,1.532-0.604,2.322c0,0-1.394-0.934-1.812-1.068c0,0-0.419,0.744-0.466,1.253
			c0,0-2.273-3.575-2.273-4.134c0,0-3.716,5.104-0.372,13.655c0,0-1.533,11.844,3.204,22.433s10.683,12.633,17.835,18.021
			c7.15,5.392,11.333,9.85,13.376,14.216c0,0-8.64-10.032-14.213-12.638c-5.573-2.602-6.781-4.181-6.781-4.181
			s-1.299,13.842,4.831,25.128c6.13,11.285,15.466,21.602,21.179,34.832c5.716,13.238,16.442,19.929,23.133,22.154
			c6.688,2.229,11.562,12.123,11.562,12.123s-5.991-7.525-11.979-9.479c-5.99-1.943-14.49-5.852-17.694-11.979
			c0,0-7.245,11.006-12.123,20.896c-4.876,9.896-11.703,23.407-7.802,31.069c3.896,7.664,6.404,12.263,7.104,18.949
			c0.695,6.688,11.563,17.555,18.253,17.836c6.688,0.277,15.604-0.418,19.088-2.787c0,0-7.521,6.408-19.646,5.854
			c0,0,6.271,3.062,13.653,1.527c7.386-1.527,7.805-3.344,7.805-3.344s-4.318,7.664-17.56,9.613
			c-13.233,1.951-22.294-11.98-27.589-22.438c-5.295-10.45-11.285-12.262-12.123-17c-0.835-4.732,2.369-13.514,6.828-25.077
			c4.459-11.562,20.622-38.599,20.622-38.599s-3.896-4.312-6.271-8.5c0,0-0.418,6.967-4.186,14.771
			c-3.763,7.803-27.17,42.771-23.548,57.686c3.623,14.908,10.172,12.263,17,25.638c6.827,13.379,16.581,25.081,32.604,20.063
			c16.021-5.018,24.661-12.957,22.713-15.188c0,0,2.927,0.278,3.62-6.132c0.695-6.403-2.092-18.252-3.897-21.875
			c0,0,1.395-7.521-0.561-12.541c-1.949-5.016-6.826-7.938-3.898-16.438c0,0,7.802,10.031,10.729,21.18
			c2.928,11.146,1.254,15.744,4.734,22.016c0,0,0.279-3.896,1.951-6.133c1.672-2.229,4.18-5.566,4.041-9.475
			c0,0,3.205,10.451,7.246,20.062c4.041,9.615,7.662,10.867,10.029,11.566c0,0-3.203-3.484-1.256-7.246
			c1.949-3.762,6.271-5.016,10.312-6.271c4.04-1.255,6.826-2.783,6.826-2.783s-9.613,6.967-9.613,13.793
			c0,6.828,3.346,15.049,0.977,18.811c-2.365,3.768-3.062,4.604-4.039,9.613c-0.979,5.02-4.602,21.041-10.174,29.397
			c-5.57,8.356-2.509,17.419-0.559,23.552c1.949,6.131,6.13,13.377,13.654,11.562c7.521-1.812,5.295-2.926,5.295-2.926
			s6.407,3.623,14.631,2.646c8.222-0.978,11.008-4.601,11.285-5.019c0.276-0.418,8.919,0.14,13.516-3.481
			c4.602-3.621,3.901-6.405,5.854-7.938c1.949-1.533,5.715-0.277,9.896-5.713c4.182-5.438,6.967-5.293,2.787-16.023
			c-4.184-10.729-9.197-20.76-9.614-26.334c-0.418-5.573-0.276-9.893,2.51-12.68c2.785-2.787,6.271-4.599,7.388-7.385
			c1.111-2.787,37.622-21.875,50.438-24.246c12.814-2.367,17.691,0.561,28.562-5.854c0,0,8.916,30.238,20.479,34.562
			c11.565,4.312,21.877,9.057,22.993,14.067c1.113,5.021,2.229,12.269,0.978,18.114c-1.258,5.854-1.396,7.386,0.978,12.539
			c2.367,5.156,10.171,8.5,17.557,9.195c7.39,0.692,5.154-10.729,5.3-12.959c0.139-2.229,1.949-5.711,1.673-6.967
			c-0.278-1.257-4.32-8.08-4.46-14.214c-0.142-6.132-2.095-16.584-2.095-19.091c0-2.51,1.396-3.062-1.109-6.27
			c-2.511-3.207-5.294-5.158-6.553-7.806c-1.254-2.647-4.46-14.489-14.212-18.53c0,0,22.986,7.664,29.681,16.856
			c6.688,9.194,3.344,13.937,14.354,21.457c11.012,7.522,38.734,23.271,38.734,23.271s3.063,6.828,2.508,15.887
			c-0.557,9.056,1.531,21.037,0.979,21.873c-0.562,0.838-1.952,12.123-0.979,14.631c0.979,2.509,8.081,11.845,16.44,11.984
			c8.355,0.139,9.609-3.486,12.68-6.134c3.065-2.647,6.688-7.522,6.968-16.858c0.278-9.334-5.569-18.947-6.688-28.562
			c-1.116-9.609-3.349-15.324-2.925-17.273c0.417-1.951-0.146-3.762-3.77-8.643c-3.622-4.88-2.229-5.854-2.786-10.729
			c-0.558-4.877-5.985-16.442-6.403-24.104c-0.422-7.661-0.562-18.946-6.689-41.386c-6.129-22.434-12.123-31.489-12.123-31.489
			s27.729,3.349,44.03-12.261c16.305-15.604,3.854-48.954-1.812-61.587c-4.07-9.086-19.972-35.671-41.521-66.695
			c-21.551-31.021-39.383-57.034-28.425-75.427c0,0,11.146,2.788,15.978-2.603c4.829-5.391,12.268-7.807,16.907-3.529
			c0,0,0.188-3.9-8.92-10.774c-9.104-6.873-26.011-4.458-27.123,8.36c0,0-4.832,5.573-6.13,16.72
			c-1.302,11.146,2.227,25.081,23.593,56.853c21.366,31.771,51.092,76.354,54.808,103.665c3.72,27.31-39.568,43.472-59.264,23.038
			c-19.691-20.438-57.967-41.986-71.156-56.105c-13.188-14.119-18.204-23.408-18.204-23.408s9.104,23.037,8.73,48.303
			c0,0-11.147-52.943-34.277-92.797c-23.131-39.85-54.342-50.438-54.342-50.438s25.917,7.246,43.474,26.475
			c17.562,19.229,18.671,22.293,18.671,22.293s-1.108-6.688-4.456-17.834c-3.347-11.146-19.509-26.475-25.355-34.557
			c-5.854-8.08-8.361-13.654-8.361-13.654s10.034,0.558,17-3.344c6.968-3.9,5.854-5.854,5.854-5.854s-11.983,3.349-20.348-1.394
			c-8.357-4.736-21.459-14.771-32.327-18.67c-10.864-3.901-18.393-2.229-18.393-2.229s14.489-5.57,27.312,0.836
			c0,0-17.275-20.621-63.536-26.473c-46.262-5.854-74.962,3.063-101.155,25.081c0,0,5.712-8.083,14.908-13.796
			c9.192-5.713,6.408-12.818,6.408-12.818s1.529,4.042-8.776,8.777c-10.312,4.737-25.639,10.032-33.998,21.458
			c-8.359,11.427-8.64,19.786-4.736,24.244c0,0-4.316-0.979-4.458-7.664c0,0-5.713,5.436-3.479,11.704
			c0,0-7.245,5.151-15.051,11.979c-7.804,6.828-13.099,12.684-13.794,14.354C65.139,154.373,66.115,156.091,66.95,156.973z"/>
		<path fill="#FFFFFF" d="M71.409,158.831c0,0,2.508,1.672,3.623,2.09c0,0,0.277,4.318,1.949,6.271
			c1.672,1.95,1.951,8.221,0.141,9.752c-1.812,1.533-5.294-1.95-5.992-4.18C70.434,170.535,69.18,166.495,71.409,158.831z"/>
		<path fill="#FFFFFF" d="M73.499,148.985c0,0,3.205-0.047,6.271,0.371c3.062,0.417,8.5-4.18,9.753-6.131
			c1.255-1.95,11.287-12.4,14.213-14.212c0,0-5.155,0.557-8.36,2.229C92.169,132.914,78.237,143.133,73.499,148.985z"/>
		<path fill="#FFFFFF" d="M75.868,183.075c0,0,4.598-0.14,8.359-2.369c0,0,5.712,0.277,9.894-0.14
			c4.18-0.418,7.941-1.812,11.008-3.483c0,0,0,8.5-1.672,11.565c0,0-4.181-4.319-6.827-5.99c0,0,0.144,2.646-0.559,3.204
			c0,0-2.926-3.623-4.458-3.901c0,0-0.696,3.767-1.394,4.736c0,0-2.931-2.995-2.856-4.388c0,0-1.046,2.995-0.836,4.667
			c0,0-2.299-2.787-2.508-4.109c0,0-1.533,3.481-1.463,4.807c0,0-1.462-0.768-1.604-0.977c0,0-0.141,3.274,0.139,3.623
			C81.093,190.32,77.679,188.091,75.868,183.075z"/>
		<path fill="#FFFFFF" d="M95.374,211.36c0,0-0.273,5.854,1.464,7.455c0,0,1.886,1.464,3.414-0.418c0,0,1.95,0.906,2.578-0.354
			c0,0,1.531,0.906,2.021-0.065c0,0,1.254,1.255,2.438-0.144c0,0,2.09,2.229,4.527,0.836c0,0,1.254-1.737-0.208-3.409
			c-1.463-1.677-4.186-1.741-4.527-3.558c0,0-0.559,3.064-0.066,3.976c0,0-2.93-2.368-2.786-5.02c0,0-0.905,3.063-0.278,4.526
			c0,0-2.368-2.508-2.368-4.392c0,0-0.904,3.139-0.418,4.667c0,0-2.16-2.3-2.229-3.48c0,0-0.354,3.136,0.208,4.25
			C99.136,216.237,95.305,213.102,95.374,211.36z"/>
		<path fill="#FFFFFF" d="M112.374,208.921c0,0,1.114,6.688,4.318,9.336c3.205,2.646,6.968,0.488,6.341-0.768
			C122.406,216.237,115.509,213.45,112.374,208.921z"/>
		<path fill="#FFFFFF" d="M110.562,212.266c0,0-1.881-1.045-2.229-1.604c0,0-0.628-2.719,1.463-5.156
			c2.095-2.437,5.646-5.713,6.345-10.236c0.691-4.528,2.363-8.5,2.363-8.5s-0.273,2.578,0.209,6.271
			c0.488,3.691-2.508,8.644-4.458,10.59C112.305,205.577,109.657,206.832,110.562,212.266z"/>
		<path fill="#FFFFFF" d="M104.664,223.667c0,0-4.366,0.278-6.038,2.787c0,0,0.188,6.229,2.229,11.054
			c2.043,4.83,5.202,7.524,11.332,10.776c6.131,3.25,8.454,5.943,8.454,5.943s-4.088-6.13-8.454-9.851
			C107.823,240.667,103.92,234.536,104.664,223.667z"/>
		<path fill="#FFFFFF" d="M138.151,400.855c0,0,2.927,3.205,11.844,3.623c8.917,0.416,14.211,0.277,16.581-4.18
			c2.367-4.459-0.14-6.555-0.14-6.555s-0.145,4.736-3.35,5.717C159.887,400.438,148.042,402.665,138.151,400.855z"/>
		<path fill="#FFFFFF" d="M189.286,101.703c0,0,2.786-4.599,10.032-3.479c7.245,1.11,10.172,9.191,10.312,13.231
			c0.144,4.041,0.836,9.613,1.951,11.146c0,0-5.853-3.064-7.104-6.549c0,0,0.976-6.409,1.946-7.942c0,0-3.062,1.673-3.896,2.926
			c0,0,0.14-8.639,0.278-9.196c0,0-2.787,3.349-3.623,4.738c0,0-0.278-4.458-0.697-4.877c-0.417-0.417-0.979,1.114-0.979,1.114
			S195.835,100.45,189.286,101.703z"/>
		<path fill="#FFFFFF" d="M131.731,131.422c0,0,2.6,3.229,6.574,2.156c3.974-1.072,4.757-5.181,9.473-5.571
			c0,0-7.197-2.676-10.166-1.729C134.644,127.225,134.36,130.847,131.731,131.422z"/>
		<path fill="#FFFFFF" d="M241.119,403.225c0,0,17.557-11.146,28.703-33.998c11.146-22.85,28.425-19.785,47.933-37.062
			c19.514-17.271,16.439-34.556,16.439-34.556s1.396,37.062-36.505,56.292C259.79,373.132,280.412,377.309,241.119,403.225z"/>
		<path fill="#FFFFFF" d="M221.519,447.719c0,0,1.11,13.006-0.933,21.182c-2.044,8.172-6.875,16.346-9.846,18.576
			c-2.974,2.229-0.93,8.172,0.188,10.588c1.11,2.416,6.875,9.475,11.89,8.547c0,0-4.271-6.131-4.458-11.52
			c-0.188-5.393,4.83-15.791,6.315-24.896C226.164,461.095,221.519,447.719,221.519,447.719z"/>
		<path fill="#FFFFFF" d="M231.18,476.327c0,0-2.415,10.596-4.459,13.007c-2.043,2.415,6.132,13.562,13.748,9.661
			C240.469,498.995,230.624,497.135,231.18,476.327z"/>
		<path fill="#FFFFFF" d="M241.584,477.814c0,0,2.787,12.447,10.589,14.119c0,0-4.646-6.502-4.646-11.521
			C247.528,475.399,241.584,477.814,241.584,477.814z"/>
		<path fill="#FFFFFF" d="M421.289,337.552c0,0-10.588,17.834-5.851,38.455c4.729,20.623,11.424,26.754,15.605,35.943
			c4.178,9.195,7.24,15.328,11.696,19.23c4.46,3.896,8.081,6.965,10.596,9.473c0,0-5.854-11.424-8.081-13.648
			c-2.229-2.229-5.295-6.41-5.295-13.104c0-6.688-13.938-18.393-17.562-33.438C418.782,365.415,417.668,350.366,421.289,337.552z"/>
		<path fill="#FFFFFF" d="M487.929,474.657c0,0,2.787,23.6,2.415,30.102s0.003,8.729,1.301,9.846
			c1.301,1.115,4.459,2.787,4.459,2.787s-2.042-5.572-1.67-8.545c0.369-2.979,1.11-10.591-0.375-15.42
			C492.573,488.594,489.972,483.762,487.929,474.657z"/>
	</g>
</g>
<g>
	<path fill="#BDC2BC" d="M534.992,588.913c-0.739,0-1.34-0.602-1.34-1.341v-16.588c0-0.739,0.601-1.339,1.34-1.339h52.497
		c0.738,0,1.339,0.6,1.339,1.339v16.588c0,0.739-0.601,1.341-1.339,1.341H534.992z"/>
	<g>
		<path d="M558.027,571.51c-2.725,0-4.935,2.21-4.935,4.934c0,2.729,2.21,4.938,4.935,4.938c2.728,0,4.938-2.21,4.938-4.938
			C562.964,573.719,560.755,571.51,558.027,571.51z"/>
		<path fill="#FFFFFF" d="M558.027,580.461c-2.219,0-4.015-1.798-4.015-4.019c0-2.217,1.797-4.014,4.015-4.014
			c2.219,0,4.019,1.798,4.019,4.014C562.046,578.664,560.246,580.461,558.027,580.461z"/>
		<g>
			<path d="M559.402,575.293c0-0.219-0.182-0.398-0.398-0.398h-1.952c-0.221,0-0.401,0.181-0.401,0.398v1.985h0.528v2.338h1.694
				v-2.338h0.527L559.402,575.293L559.402,575.293z"/>
			<path d="M558.695,573.942c0,0.37-0.3,0.668-0.667,0.668c-0.371,0-0.67-0.299-0.67-0.668s0.301-0.67,0.67-0.67
				C558.395,573.272,558.695,573.571,558.695,573.942z"/>
		</g>
	</g>
	<path d="M587.175,569.198h-51.868c-1.157,0-2.102,0.943-2.102,2.102v15.96c0,1.158,0.943,2.1,2.102,2.1h51.868
		c1.158,0,2.102-0.94,2.102-2.1V571.3C589.275,570.141,588.332,569.198,587.175,569.198z M588.644,583.375h-37.865
		c-1.477,2.809-4.417,4.725-7.81,4.725s-6.333-1.916-7.809-4.725h-1.326V571.3c0-0.812,0.658-1.471,1.47-1.471h51.869
		c0.811,0,1.471,0.658,1.471,1.471V583.375L588.644,583.375z"/>
	<g>
		<path fill="#FFFFFF" d="M557.773,584.933c0.1,0.14,0.15,0.302,0.15,0.495c0,0.198-0.052,0.357-0.151,0.479
			c-0.057,0.066-0.14,0.131-0.25,0.187c0.168,0.061,0.294,0.155,0.378,0.289c0.085,0.13,0.127,0.289,0.127,0.477
			c0,0.192-0.049,0.365-0.145,0.519c-0.062,0.104-0.14,0.188-0.23,0.256c-0.104,0.078-0.225,0.137-0.369,0.164
			c-0.141,0.028-0.294,0.043-0.459,0.043h-1.466v-3.256h1.573C557.326,584.594,557.607,584.706,557.773,584.933z M556.009,585.151
			v0.717h0.79c0.143,0,0.257-0.026,0.345-0.08s0.133-0.147,0.133-0.286c0-0.15-0.059-0.248-0.176-0.301
			c-0.1-0.033-0.228-0.05-0.383-0.05H556.009L556.009,585.151z M556.009,586.407v0.869h0.789c0.143,0,0.25-0.02,0.328-0.058
			c0.145-0.071,0.217-0.206,0.217-0.407c0-0.17-0.07-0.285-0.208-0.35c-0.077-0.034-0.188-0.056-0.327-0.056L556.009,586.407
			L556.009,586.407z"/>
		<path fill="#FFFFFF" d="M560.469,584.586h0.771l-1.089,2.034v1.222h-0.68v-1.222l-1.127-2.034h0.8l0.677,1.418L560.469,584.586z"
			/>
	</g>
	<g>
		<g>
			<path fill="#FFFFFF" d="M566.517,584.426h0.776l1.403,2.473v-2.473h0.692v3.545h-0.742l-1.443-2.517v2.517h-0.688
				L566.517,584.426L566.517,584.426z"/>
			<path fill="#FFFFFF" d="M570.425,584.797c0.285-0.292,0.647-0.437,1.09-0.437c0.591,0,1.02,0.195,1.295,0.587
				c0.148,0.221,0.229,0.439,0.242,0.661h-0.741c-0.048-0.17-0.106-0.299-0.183-0.384c-0.132-0.153-0.328-0.229-0.586-0.229
				c-0.265,0-0.473,0.107-0.623,0.324c-0.152,0.219-0.229,0.525-0.229,0.923c0,0.399,0.08,0.696,0.241,0.895
				c0.161,0.197,0.365,0.299,0.614,0.299c0.252,0,0.447-0.086,0.581-0.256c0.072-0.09,0.136-0.229,0.183-0.41h0.736
				c-0.066,0.387-0.226,0.699-0.486,0.943c-0.262,0.241-0.594,0.36-1.002,0.36c-0.505,0-0.901-0.163-1.19-0.489
				c-0.288-0.328-0.434-0.777-0.434-1.353C569.93,585.607,570.095,585.133,570.425,584.797z"/>
		</g>
	</g>
	<g>
		<path fill="#FFFFFF" d="M578.517,586.944c0.022,0.173,0.073,0.303,0.145,0.389c0.132,0.154,0.354,0.233,0.673,0.233
			c0.19,0,0.347-0.021,0.465-0.062c0.225-0.078,0.338-0.226,0.338-0.438c0-0.125-0.055-0.223-0.166-0.291
			c-0.113-0.066-0.285-0.126-0.525-0.178l-0.411-0.088c-0.401-0.093-0.679-0.188-0.829-0.294c-0.254-0.173-0.383-0.448-0.383-0.819
			c0-0.339,0.126-0.619,0.376-0.846c0.249-0.224,0.617-0.336,1.102-0.336c0.401,0,0.748,0.104,1.033,0.315
			c0.284,0.213,0.436,0.521,0.45,0.922h-0.762c-0.014-0.227-0.117-0.387-0.306-0.484c-0.126-0.065-0.282-0.096-0.473-0.096
			c-0.209,0-0.375,0.041-0.499,0.122c-0.126,0.083-0.188,0.196-0.188,0.346c0,0.135,0.062,0.236,0.186,0.303
			c0.079,0.043,0.246,0.096,0.502,0.155l0.665,0.156c0.292,0.068,0.513,0.162,0.655,0.276c0.227,0.179,0.339,0.435,0.339,0.771
			c0,0.351-0.134,0.637-0.4,0.863c-0.269,0.229-0.646,0.344-1.134,0.344c-0.5,0-0.891-0.112-1.176-0.339
			c-0.287-0.224-0.432-0.536-0.432-0.929L578.517,586.944L578.517,586.944z"/>
		<path fill="#FFFFFF" d="M582.542,584.325h0.896l1.34,3.791h-0.858l-0.249-0.778h-1.396l-0.255,0.778h-0.828L582.542,584.325z
			 M582.486,586.681h0.972l-0.479-1.49L582.486,586.681z"/>
	</g>
	<g>
		<circle cx="542.95" cy="579.28" r="7.771"/>
		<circle fill="#FFFFFF" cx="542.95" cy="579.278" r="6.322"/>
		<g>
			<path d="M542.597,578.348l-1.188,0.215c-0.041-0.237-0.131-0.416-0.273-0.537c-0.143-0.119-0.325-0.178-0.55-0.178
				c-0.302,0-0.537,0.104-0.72,0.31c-0.18,0.204-0.268,0.555-0.268,1.038c0,0.539,0.09,0.921,0.271,1.146
				c0.183,0.223,0.426,0.332,0.73,0.332c0.229,0,0.417-0.064,0.562-0.195c0.146-0.131,0.249-0.354,0.311-0.67l1.182,0.199
				c-0.123,0.545-0.354,0.954-0.707,1.229c-0.348,0.276-0.813,0.416-1.399,0.416c-0.668,0-1.197-0.21-1.594-0.629
				c-0.396-0.42-0.592-1.004-0.592-1.746c0-0.75,0.198-1.337,0.594-1.754c0.397-0.42,0.936-0.627,1.613-0.627
				c0.555,0,0.995,0.118,1.322,0.355C542.219,577.497,542.453,577.86,542.597,578.348z"/>
			<path d="M547.477,578.348l-1.188,0.215c-0.039-0.237-0.131-0.416-0.272-0.537c-0.144-0.119-0.325-0.178-0.551-0.178
				c-0.301,0-0.539,0.104-0.72,0.31c-0.178,0.204-0.268,0.555-0.268,1.038c0,0.539,0.09,0.921,0.271,1.146
				c0.182,0.223,0.426,0.332,0.729,0.332c0.229,0,0.417-0.064,0.562-0.195c0.146-0.131,0.25-0.354,0.311-0.67l1.183,0.199
				c-0.123,0.545-0.356,0.954-0.708,1.229c-0.349,0.276-0.814,0.416-1.4,0.416c-0.668,0-1.197-0.21-1.593-0.629
				c-0.396-0.42-0.592-1.004-0.592-1.746c0-0.75,0.196-1.337,0.595-1.754c0.396-0.42,0.934-0.627,1.612-0.627
				c0.554,0,0.994,0.118,1.322,0.355C547.1,577.497,547.337,577.86,547.477,578.348z"/>
		</g>
	</g>
	<g>
		<path d="M569.93,571.719c-2.61,0-4.727,2.115-4.727,4.726c0,2.612,2.115,4.729,4.727,4.729s4.728-2.113,4.728-4.729
			C574.658,573.834,572.546,571.719,569.93,571.719z"/>
		<circle fill="#FFFFFF" cx="569.93" cy="576.447" r="3.846"/>
		
			<rect x="569.488" y="571.955" transform="matrix(0.4225 -0.9063 0.9063 0.4225 -193.3242 849.4399)" width="0.924" height="8.958"/>
		<g>
			<path d="M569.58,579.151v-0.637c-0.444-0.013-0.877-0.14-1.129-0.277l0.197-0.776c0.279,0.153,0.672,0.292,1.101,0.292
				c0.382,0,0.646-0.151,0.646-0.409c0-0.252-0.223-0.41-0.709-0.578c-0.711-0.238-1.196-0.568-1.196-1.215
				c0-0.59,0.411-1.047,1.122-1.181v-0.631h0.65v0.584c0.443,0.015,0.742,0.115,0.968,0.222l-0.199,0.748
				c-0.167-0.079-0.478-0.232-0.954-0.232c-0.434,0-0.571,0.193-0.571,0.381c0,0.212,0.231,0.356,0.798,0.564
				c0.796,0.276,1.107,0.643,1.107,1.246c0,0.591-0.411,1.09-1.182,1.221v0.684L569.58,579.151L569.58,579.151z"/>
		</g>
	</g>
	<g>
		<path d="M581.185,571.784c-2.571,0-4.66,2.086-4.66,4.658c0,2.576,2.089,4.665,4.66,4.665c2.576,0,4.665-2.089,4.665-4.665
			C585.852,573.87,583.761,571.784,581.185,571.784z"/>
		<path fill="#FFFFFF" d="M581.185,580.238c-2.092,0-3.789-1.698-3.789-3.794c0-2.091,1.695-3.79,3.789-3.79
			c2.096,0,3.793,1.696,3.793,3.79C584.979,578.538,583.281,580.238,581.185,580.238z"/>
		<path d="M581.185,573.885c-1.016,0-1.874,0.733-2.182,1.746h-0.294l0.933,1.016l0.93-1.016h-0.348
			c0.215-0.37,0.563-0.616,0.96-0.616c0.65,0,1.179,0.646,1.179,1.443c0,0.793-0.526,1.44-1.179,1.44
			c-0.432,0-0.81-0.289-1.016-0.72h-1.196c0.278,1.068,1.167,1.854,2.214,1.854c1.273,0,2.311-1.155,2.311-2.576
			C583.496,575.034,582.464,573.885,581.185,573.885z"/>
	</g>
</g>
<g>
	<path d="M12.392,586.197c-0.652,0-1.248-0.138-1.786-0.41c-0.539-0.271-1.002-0.631-1.39-1.07c-0.388-0.441-0.688-0.949-0.9-1.521
		C8.106,582.619,8,582.032,8,581.432c0-0.626,0.114-1.226,0.338-1.797c0.226-0.574,0.533-1.08,0.927-1.521
		c0.393-0.44,0.857-0.792,1.396-1.053c0.538-0.26,1.119-0.39,1.746-0.39c0.653,0,1.248,0.138,1.786,0.417
		c0.538,0.275,0.999,0.641,1.382,1.09s0.682,0.959,0.893,1.528c0.213,0.567,0.318,1.144,0.318,1.726c0,0.636-0.113,1.24-0.338,1.812
		c-0.225,0.574-0.534,1.079-0.926,1.517c-0.394,0.437-0.856,0.785-1.391,1.045C13.598,586.066,13.018,586.197,12.392,586.197z
		 M8.675,581.432c0,0.539,0.091,1.057,0.271,1.555s0.437,0.939,0.768,1.324c0.33,0.383,0.724,0.69,1.178,0.92
		c0.455,0.229,0.955,0.344,1.502,0.344c0.563,0,1.072-0.117,1.527-0.355c0.454-0.239,0.846-0.555,1.17-0.946
		c0.327-0.392,0.578-0.834,0.755-1.328s0.265-0.997,0.265-1.51c0-0.538-0.092-1.057-0.277-1.555
		c-0.185-0.498-0.442-0.939-0.773-1.323s-0.723-0.691-1.179-0.919c-0.454-0.229-0.949-0.347-1.486-0.347
		c-0.565,0-1.076,0.119-1.536,0.357c-0.458,0.238-0.85,0.554-1.17,0.945c-0.322,0.394-0.571,0.836-0.748,1.33
		C8.762,580.422,8.675,580.923,8.675,581.432z"/>
	<path d="M24.14,578.299c-0.608-0.681-1.469-1.021-2.58-1.021c-0.918,0-1.587,0.175-2.006,0.523
		c-0.417,0.349-0.628,0.817-0.628,1.407c0,0.302,0.054,0.554,0.159,0.755c0.106,0.202,0.271,0.373,0.496,0.51
		c0.226,0.137,0.513,0.256,0.86,0.355c0.35,0.103,0.761,0.2,1.237,0.299c0.512,0.106,0.97,0.223,1.377,0.352
		c0.404,0.127,0.75,0.289,1.038,0.483c0.287,0.193,0.508,0.433,0.662,0.715c0.153,0.281,0.231,0.632,0.231,1.044
		c0,0.414-0.082,0.775-0.245,1.086c-0.163,0.31-0.392,0.565-0.688,0.773c-0.297,0.208-0.648,0.364-1.059,0.471
		c-0.411,0.104-0.867,0.157-1.37,0.157c-1.463,0-2.704-0.467-3.717-1.401l0.356-0.542c0.396,0.415,0.882,0.743,1.457,0.984
		c0.573,0.242,1.217,0.363,1.931,0.363c0.821,0,1.461-0.147,1.925-0.449c0.462-0.301,0.695-0.754,0.695-1.362
		c0-0.309-0.06-0.57-0.178-0.787s-0.303-0.404-0.551-0.562c-0.247-0.158-0.554-0.295-0.919-0.409
		c-0.364-0.115-0.796-0.225-1.29-0.33c-0.503-0.105-0.945-0.219-1.329-0.338c-0.384-0.117-0.708-0.269-0.972-0.449
		c-0.265-0.181-0.463-0.398-0.596-0.654s-0.199-0.578-0.199-0.967c0-0.423,0.082-0.797,0.246-1.124
		c0.163-0.326,0.391-0.603,0.682-0.826c0.291-0.226,0.64-0.395,1.044-0.511c0.406-0.114,0.854-0.17,1.351-0.17
		c0.607,0,1.15,0.09,1.627,0.27c0.477,0.183,0.909,0.459,1.296,0.828L24.14,578.299z"/>
	<path d="M26.734,586.131v-9.395h3.863c0.396,0,0.763,0.085,1.098,0.251c0.335,0.168,0.624,0.392,0.866,0.669
		s0.432,0.591,0.568,0.938c0.138,0.35,0.205,0.698,0.205,1.053c0,0.381-0.063,0.746-0.191,1.098
		c-0.128,0.354-0.31,0.666-0.542,0.939c-0.232,0.272-0.512,0.492-0.833,0.654c-0.323,0.164-0.683,0.245-1.078,0.245h-3.281v3.546
		L26.734,586.131L26.734,586.131z M27.408,581.963h3.241c0.309,0,0.586-0.064,0.833-0.191s0.456-0.3,0.629-0.516
		c0.171-0.218,0.303-0.463,0.396-0.741c0.092-0.276,0.139-0.565,0.139-0.866c0-0.309-0.056-0.602-0.165-0.879
		c-0.11-0.279-0.26-0.523-0.45-0.734c-0.189-0.213-0.41-0.381-0.661-0.504s-0.519-0.186-0.801-0.186h-3.162L27.408,581.963
		L27.408,581.963z"/>
	<path d="M34.963,586.131v-9.395h3.917c0.397,0,0.764,0.085,1.098,0.251c0.335,0.168,0.622,0.392,0.859,0.669
		c0.238,0.277,0.426,0.591,0.563,0.938c0.137,0.35,0.204,0.698,0.204,1.053c0,0.344-0.054,0.676-0.159,0.998
		c-0.105,0.324-0.254,0.611-0.45,0.867c-0.194,0.256-0.427,0.467-0.7,0.635c-0.273,0.169-0.572,0.277-0.899,0.331l2.341,3.651
		h-0.781l-2.274-3.547h-3.043v3.547L34.963,586.131L34.963,586.131z M35.636,581.963h3.295c0.299,0,0.571-0.064,0.819-0.197
		c0.247-0.132,0.458-0.307,0.636-0.522c0.176-0.216,0.311-0.462,0.402-0.741c0.093-0.277,0.141-0.562,0.141-0.853
		c0-0.3-0.056-0.589-0.166-0.866c-0.11-0.276-0.261-0.522-0.45-0.733c-0.189-0.212-0.409-0.382-0.661-0.511
		c-0.252-0.127-0.523-0.192-0.814-0.192h-3.201V581.963z"/>
	<path d="M49.899,585.521v0.608h-6.258v-9.395h6.139v0.61h-5.464v3.688h4.775v0.582h-4.775v3.903h5.583V585.521z"/>
	<path d="M51.421,576.736l3.281,5.199l3.308-5.199h0.742l-3.706,5.849v3.546h-0.674v-3.572l-3.69-5.821L51.421,576.736
		L51.421,576.736z"/>
	<path d="M60.126,586.131v-9.395h3.122c0.741,0,1.392,0.124,1.951,0.371c0.561,0.248,1.025,0.583,1.396,1.007
		c0.371,0.423,0.647,0.919,0.833,1.487c0.185,0.567,0.277,1.175,0.277,1.819c0,0.715-0.104,1.36-0.311,1.938
		s-0.505,1.07-0.894,1.481c-0.388,0.409-0.857,0.729-1.41,0.953c-0.552,0.224-1.167,0.337-1.845,0.337L60.126,586.131
		L60.126,586.131z M67.031,581.421c0-0.592-0.083-1.137-0.251-1.635c-0.167-0.498-0.412-0.93-0.733-1.291
		c-0.322-0.359-0.718-0.644-1.185-0.848c-0.466-0.202-1.005-0.303-1.614-0.303h-2.447v8.177h2.447c0.617,0,1.162-0.104,1.633-0.312
		c0.473-0.206,0.866-0.495,1.185-0.865c0.316-0.37,0.559-0.805,0.722-1.303S67.031,582.003,67.031,581.421z"/>
	<path d="M68.288,586.131l3.996-9.395h0.555l3.997,9.395h-0.728l-1.311-3.097h-4.484l-1.311,3.097H68.288z M72.562,577.557
		l-2.09,4.922h4.141L72.562,577.557z"/>
	<path d="M81.148,576.802h0.661l1.401,3.413l1.403-3.413h0.661l-1.654,3.956l1.971,4.577l3.6-8.601h0.742l-4.023,9.395h-0.62
		l-2.063-4.829l-2.077,4.829h-0.622l-4.008-9.395h0.728l3.612,8.601l1.945-4.577L81.148,576.802z"/>
	<path d="M92.05,578.008v8.123h-0.675v-9.394h0.518l6.588,8.27v-8.255h0.675v9.379h-0.622L92.05,578.008z"/>
	<path d="M101.297,586.131v-1.125h0.583v1.125H101.297z"/>
	<path d="M103.401,581.368c0-0.563,0.098-1.127,0.298-1.688c0.197-0.561,0.486-1.062,0.866-1.502c0.379-0.44,0.844-0.8,1.395-1.077
		c0.552-0.277,1.181-0.418,1.887-0.418c0.838,0,1.552,0.192,2.144,0.576c0.591,0.383,1.027,0.877,1.309,1.475l-0.556,0.318
		c-0.159-0.327-0.351-0.601-0.576-0.82c-0.224-0.221-0.466-0.399-0.727-0.537c-0.261-0.137-0.533-0.234-0.814-0.298
		c-0.281-0.062-0.562-0.092-0.833-0.092c-0.6,0-1.129,0.121-1.589,0.364c-0.458,0.241-0.847,0.558-1.164,0.944
		c-0.316,0.39-0.557,0.826-0.722,1.316c-0.164,0.489-0.245,0.981-0.245,1.475c0,0.558,0.097,1.086,0.291,1.59
		c0.195,0.502,0.459,0.945,0.795,1.328c0.334,0.383,0.731,0.691,1.19,0.919c0.458,0.229,0.951,0.346,1.48,0.346
		c0.282,0,0.571-0.036,0.866-0.106c0.296-0.069,0.583-0.18,0.86-0.329c0.277-0.15,0.536-0.343,0.774-0.576
		c0.238-0.232,0.437-0.51,0.594-0.827l0.569,0.278c-0.159,0.352-0.372,0.665-0.642,0.939c-0.271,0.271-0.57,0.502-0.906,0.688
		c-0.335,0.186-0.689,0.324-1.065,0.416c-0.375,0.092-0.742,0.139-1.104,0.139c-0.644,0-1.233-0.141-1.768-0.423
		c-0.532-0.281-0.994-0.649-1.382-1.104c-0.387-0.455-0.689-0.972-0.905-1.549C103.509,582.555,103.401,581.969,103.401,581.368z"/>
	<path d="M116.882,586.197c-0.652,0-1.247-0.138-1.785-0.41c-0.538-0.271-1.001-0.631-1.39-1.07
		c-0.388-0.441-0.688-0.949-0.898-1.521c-0.212-0.572-0.317-1.16-0.317-1.76c0-0.627,0.112-1.225,0.337-1.798
		c0.224-0.573,0.534-1.081,0.926-1.521c0.394-0.44,0.857-0.792,1.396-1.052c0.539-0.261,1.121-0.391,1.747-0.391
		c0.65,0,1.247,0.139,1.786,0.416c0.538,0.276,0.999,0.643,1.381,1.091c0.384,0.45,0.682,0.959,0.894,1.529
		c0.211,0.566,0.317,1.144,0.317,1.726c0,0.635-0.113,1.239-0.337,1.812c-0.226,0.572-0.534,1.077-0.928,1.514
		c-0.393,0.438-0.854,0.785-1.389,1.046C118.087,586.066,117.509,586.197,116.882,586.197z M113.164,581.432
		c0,0.539,0.09,1.057,0.271,1.555c0.181,0.498,0.436,0.939,0.767,1.324c0.331,0.383,0.724,0.69,1.178,0.92s0.954,0.344,1.501,0.344
		c0.564,0,1.073-0.117,1.527-0.355c0.456-0.239,0.845-0.555,1.171-0.946s0.578-0.834,0.754-1.328
		c0.175-0.494,0.266-0.997,0.266-1.51c0-0.538-0.094-1.057-0.278-1.555c-0.186-0.498-0.443-0.939-0.774-1.323
		s-0.724-0.691-1.178-0.919c-0.455-0.229-0.95-0.347-1.488-0.347c-0.563,0-1.075,0.119-1.534,0.357s-0.851,0.554-1.172,0.945
		c-0.321,0.394-0.57,0.836-0.748,1.33C113.252,580.422,113.164,580.923,113.164,581.432z"/>
	<path d="M131.659,586.131v-8.123l-3.704,6.338h-0.423l-3.705-6.338v8.123h-0.675v-9.394h0.675l3.916,6.722l3.916-6.722h0.675v9.394
		H131.659L131.659,586.131z"/>
</g>
</svg>
