<?xml version="1.0" encoding="utf-8"?>
<!-- Generator: Adobe Illustrator 16.0.0, SVG Export Plug-In . SVG Version: 6.00 Build 0)  -->
<!DOCTYPE svg PUBLIC "-//W3C//DTD SVG 1.1//EN" "http://www.w3.org/Graphics/SVG/1.1/DTD/svg11.dtd">
<svg version="1.1" id="Layer_1" xmlns="http://www.w3.org/2000/svg" xmlns:xlink="http://www.w3.org/1999/xlink" x="0px" y="0px"
	 width="595.275px" height="595.279px" viewBox="0 0 595.275 595.279" enable-background="new 0 0 595.275 595.279"
	 xml:space="preserve">
<metadata><?xpacket begin="﻿" id="W5M0MpCehiHzreSzNTczkc9d"?>
<x:xmpmeta xmlns:x="adobe:ns:meta/" x:xmptk="Adobe XMP Core 5.3-c011 66.145661, 2012/02/06-14:56:27        ">
   <rdf:RDF xmlns:rdf="http://www.w3.org/1999/02/22-rdf-syntax-ns#">
      <rdf:Description rdf:about=""
            xmlns:dc="http://purl.org/dc/elements/1.1/">
         <dc:format>image/svg+xml</dc:format>
         <dc:title>
            <rdf:Alt>
               <rdf:li xml:lang="x-default">NFL Logo Redesigns</rdf:li>
               <rdf:li xml:lang="en_us">NFL Logo Redesigns</rdf:li>
            </rdf:Alt>
         </dc:title>
         <dc:creator>
            <rdf:Seq>
               <rdf:li>Max O'Brien/Osprey Dawn</rdf:li>
            </rdf:Seq>
         </dc:creator>
      </rdf:Description>
      <rdf:Description rdf:about=""
            xmlns:xmp="http://ns.adobe.com/xap/1.0/"
            xmlns:xmpGImg="http://ns.adobe.com/xap/1.0/g/img/">
         <xmp:CreatorTool>Adobe Illustrator CS6 (Macintosh)</xmp:CreatorTool>
         <xmp:ModifyDate>2013-10-06T18:09:34+13:00</xmp:ModifyDate>
         <xmp:MetadataDate>2013-10-06T18:09:34+13:00</xmp:MetadataDate>
         <xmp:CreateDate>2013-10-06T18:09:34+13:00</xmp:CreateDate>
         <xmp:Thumbnails>
            <rdf:Alt>
               <rdf:li rdf:parseType="Resource">
                  <xmpGImg:width>256</xmpGImg:width>
                  <xmpGImg:height>244</xmpGImg:height>
                  <xmpGImg:format>JPEG</xmpGImg:format>
                  <xmpGImg:image>/9j/4AAQSkZJRgABAgEASABIAAD/7QAsUGhvdG9zaG9wIDMuMAA4QklNA+0AAAAAABAASAAAAAEA&#xA;AQBIAAAAAQAB/+4ADkFkb2JlAGTAAAAAAf/bAIQABgQEBAUEBgUFBgkGBQYJCwgGBggLDAoKCwoK&#xA;DBAMDAwMDAwQDA4PEA8ODBMTFBQTExwbGxscHx8fHx8fHx8fHwEHBwcNDA0YEBAYGhURFRofHx8f&#xA;Hx8fHx8fHx8fHx8fHx8fHx8fHx8fHx8fHx8fHx8fHx8fHx8fHx8fHx8fHx8f/8AAEQgA9AEAAwER&#xA;AAIRAQMRAf/EAaIAAAAHAQEBAQEAAAAAAAAAAAQFAwIGAQAHCAkKCwEAAgIDAQEBAQEAAAAAAAAA&#xA;AQACAwQFBgcICQoLEAACAQMDAgQCBgcDBAIGAnMBAgMRBAAFIRIxQVEGE2EicYEUMpGhBxWxQiPB&#xA;UtHhMxZi8CRygvElQzRTkqKyY3PCNUQnk6OzNhdUZHTD0uIIJoMJChgZhJRFRqS0VtNVKBry4/PE&#xA;1OT0ZXWFlaW1xdXl9WZ2hpamtsbW5vY3R1dnd4eXp7fH1+f3OEhYaHiImKi4yNjo+Ck5SVlpeYmZ&#xA;qbnJ2en5KjpKWmp6ipqqusra6voRAAICAQIDBQUEBQYECAMDbQEAAhEDBCESMUEFURNhIgZxgZEy&#xA;obHwFMHR4SNCFVJicvEzJDRDghaSUyWiY7LCB3PSNeJEgxdUkwgJChgZJjZFGidkdFU38qOzwygp&#xA;0+PzhJSktMTU5PRldYWVpbXF1eX1RlZmdoaWprbG1ub2R1dnd4eXp7fH1+f3OEhYaHiImKi4yNjo&#xA;+DlJWWl5iZmpucnZ6fkqOkpaanqKmqq6ytrq+v/aAAwDAQACEQMRAD8A9U4q7FXYq7FXYq7FXYq7&#xA;FXYq7FUPeahZWacrmZY/AE/Efko3OY2p1mLCLySA+/5NuPDOZ9ItjOpecZXrHYJ6a/7+ehb6F6DO&#xA;W13tJKXpwjhHeefydrg7NA3nv5MH1PznoFtqsVjqOqxJqVwwVIZJKvyP2eXXjXtypmj/AC+ozA5a&#xA;lId7mnNixkQsA9zOfK2uXJuVsbhjKklREx3KkCtK+GbzsHtWfGMMzxA8vL9jg6/SR4eOO1c2W52T&#xA;pnYq7FXYq7FXYq7FXYq7FXYq7FXYq7FXYq7FXYq7FXYq7FXYq7FXYq7FXYqoXl7a2cJmuJBGg6V6&#xA;k+AHfMfU6rHhjxTNBsx4pTNRFsWuvOd4bjlaxqkC9FcVLe5oRT6M5HP7S5TO8YAh59Xb4+zI8PqO&#xA;7f8Aja64/wC80fLxqafdkv8ARRkr6I38UfyXHvKCuvNWrzggSLAp6iMUP/BGpzBz9vanJsDwj+j+&#xA;vm5GPs/FHpfvefeZvzU8oaKz/Wr/AOuXo629sfWkJ/ymrwU/6zDK9P2VqdQeKjv1l+LKMuuw4hV/&#xA;API/Nf53eZNWD22lqNJs225RtyuGHvJtx/2Ir7502i9n8OLefrl9ny/W6fUdq5J7R9I+1KPyx8tS&#xA;eZfOMCXDF7e2P1y9ZjVnVGHw77nm5APtXMrtfVjT6c1zPpH48g0aDB4uUXyG5fXXk+0aXUzcfsW6&#xA;k1/ynBUD7q5zXs5pzPPx9ID7Tt+t3naWSsfD/OZtnduhdirsVdirsVdirsVdirsVdirsVdirsVdi&#xA;rsVdirsVdirsVdirsVdirsVdirAfM0kj6zcKzFlQgICdgOINBnnXbk5HVTBPLl8g9HoYgYhT5k83&#xA;/nP5ov8AUmTSZDpVlbSERrHRpJCppylYgj/Yjb59c6XQ9g4YQvIOOR+Xw/W6XU9p5JS9PpASo/nB&#xA;+YxTidXNKU2gtgfvEdcyf5D0n8z7Zfraf5Sz/wA77B+pJNV83eaNWDLqOqXNxG3WJpGEf/IsUT8M&#xA;zMOhw4vohEfDf5uPk1OSf1SJSjMppdir038jtT0HStQ1fUNVu4bMx26RxPM4Wqs5ZwoO7GqLsN85&#xA;32hw5ckYQgDLfp9n3l23ZWSEJSlI1s9i8s/mL5Y1mVf0Rqard1osDEwzdeytxLf7Gucxl0Op0p4i&#xA;DHzH6w7nHqcOYUCD5Fndn5v1KGizhbhB/N8LfeP6Znab2jzw2nUx8j8/2NWTs3HLl6U/0zzNp984&#xA;iNYJm+yj0oT4Bs6PQ9uYc54fpl5/oLrc+hnjF8wm+blwnYq7FXYq7FXYq7FXYq7FXYq7FXYq7FXY&#xA;q7FXYq7FXYq7FXYq7FXYq8+8x/8AHbuv9Yf8RGecdtf43P3/AKA9Lov7qL4mvf8Aeyf/AIyP/wAS&#xA;Oeh4/pHueRlzKjk2LsVdirsVdirsVZPoX5l+dNF4pa6lJLAuwt7n99HTwHOpUf6pGa7U9k6fN9UQ&#xA;D3jZy8Wuy4+R2893uP5ZfmMvm6zmjuIlttVs+JnSMng6t0kStSNxQipp475x3a3ZZ0sgYm4S5d7v&#xA;9DrfHBBFSD2fR/NNk1pHFeylLhRxZyCQ1OhqK9s33Zvb2I4xHLKpjr3uHqdBPiJgPSnkF3a3ArBM&#xA;ko/yGB/Vm/xajHkFwkJe4uvnjlHmKVcuYOxV2KuxV2KuxV2KuxV2KuxV2KuxV2KuxV2KuxV2KuxV&#xA;2KuxV595j/47d1/rD/iIzzjtr/G5+/8AQHpdF/dRfE17/vZP/wAZH/4kc9Dx/SPc8jLmVHJsXYq7&#xA;FXYq7FXYq7FU48q+a9V8saqNS00p6vAxyRSgtG6NQlWAKnqAdjmJrNFDUQ4J8m/T6iWKXFF6lpX/&#xA;ADkRaEhNX0l4z+1LauH/AOScnD/iec3m9mD/AJOfz/WP1O3x9sj+KPyZro/5teRNRK+lqqWsx/Yu&#xA;g0BH+zb4PubNTl7H1WI3wk+cd/2udDtDDPrXvZ3p3mnUPSWW0vhcQN9luSyoR7N8X4HBj7V1eE1x&#xA;H3S3+9nLSYZ70PgnNt52nFBc26v/AJUZKn7jyza4PaeY/vIA+7b9biz7LH8JT7TNbsdRX9y3GUfa&#xA;hegb+36M6HQ9p4dSPSal3Hm63PpZ4ufLvR+bFx3Yq7FXYq7FXYq7FXYq7FXYq7FXYq7FXYq7FXYq&#xA;gtS1iy09KzvWQ/ZiXdj9GYGt7RxaYes79w5uRg008h25MA1XUEuLqe9kpCjfE3I7KoFN2NOwzz3W&#xA;ag6jMZ1XEeT0OHH4cBG+T4wvGVrudlIKmRiCNwQSc9Nh9IeMlzKlk0OxV2KuxV2KuxV2KuxVSf7R&#xA;xSFuKozT9Y1XTpfVsLya0k/nhkaM/epGVZMMMgqQEveLZwnKO8SQzLRvzs89aeyCe5TUIFIrHcop&#xA;JHf404v95OarP2Bpp8hwny/U5uPtPNHmeL3vZPJ35seWPMIjRLj9Hant/ok7BSW/4qk2V/b9r2zl&#xA;tZ2Rn0x4h6oj+Ifjb8bu60+vx5RR2PcXpln5s1S3UJIVuFHT1B8X/BD+OW6b2g1GMVKpjz5/P9a5&#xA;ezsctxsmCeeBT47PfxEn9VzZR9qe/H/sv2OMeyu6X2ImHzpp7MBLFJGD+1swH3GuZOP2mwk+qMo/&#xA;a1S7MmORBTy3uYLmFZoHEkbdGGb/AA5oZYiUDcS6+cDE0RRVMtYuxV2KuxV2KuxV2KuxV2KuxV2K&#xA;pT5h1r9HW4SKhupf7sHcKO7EfqzTdsdp/loVH+8ly8vP9Tm6PS+LKz9IeQ+efzC0jyzB9Z1OVri/&#xA;nBaC0Q1lkI2qa/ZX/KP0V6ZyGk0ObWzJv3yP4+x22o1OPTxr5B8+ecfzG8x+aJWW6m+r6fWsenwk&#xA;iIUOxfu7e5+gDO10PZWHTD0i5fzjz/Y85qdbkzc9o9zFs2TiOxV2KuxV2KuxV2KuxV2KqT/aOKQt&#xA;xV2KuxVsEjpirIdH/MLzno8axWGrTxwrskTkSooHZUlDqPoGYOfs3T5Tc4C/l9zk49Xlh9MiyKD8&#xA;9vPkdOcltN/rwgf8QKZgy9ntKekh8XJHauYd3yZd5D/O7VdY8wWek6vaWyR3jeklxAHQhyPgqrM4&#xA;PJttqdc1faPYEMWKWTGZenej+A5mk7UlOYjIDd9CeUdTit5ZbaeURxy0aMsaDmNuvuMp9nddHFKU&#xA;Jmoy5X3/ALf0OR2jgMgJRFkMxzt3RuxV2KuxV2KuxV2KuxV2KuxV2KvM/NWtwLJf6pcPS0tUeQt4&#xA;RQqTUfMCueba/MdVqjw72eGP3D9b0uCAw4t+gsvj3zFrt7r2s3Wq3jEy3LlgtahE/YRfZV2z0DS6&#xA;aOHGIR5D8W8pmzHJMyPVLcyGp2KuxV2KuxV2KuxV2KuxV2KqT/aOKQtxV2KuxV2KuxV2Kq1nd3Fn&#xA;dw3du5juLd1lhcdVdCGU/QRkZwEomJ5HZlGRBscw9+8mfnno+qyx2WtxDTbt6KtwDW3dvcneOvvU&#xA;e+cTr/Z7JjBljPHHu6/t/Gz0Om7VjM1P0n7HuXlfXJo7iOxmYvBKeMRO5Vj0A9jk+wu1JwmMMzcJ&#xA;bDyP6mev0oMTMcwzHO2dG7FXYq7FXYq7FXYq7FXYqgdcuJLfSriSJS0nHivEVpy2J+gZr+1c0sen&#xA;mYjeq+fX4ORpICWQA8njvnfQL7X/ACzeaTZXK2k1yFHqOCVIVgxQ03AalCd/lnAdn6mODNHJIcQD&#xA;vtVhOTGYg1b5e1zQ9T0TU5tN1KEw3UJ+JeoIPRlPdT2Oej6fUQzQE4G4l5LLiljlwy5oDL2t2Kux&#xA;V2KuxV2KuxV2KvZbH/nGHzbe2kN1BfQNFModDxbofmc1GPtLJMcUcUjH3xdhLQxiaMxfuKv/ANCq&#xA;+dP+W2D/AIE/81ZP89n/ANRl84/rR+Th/qg+RWN/zil50Jr9dg/4E/8ANWP57P8A6jL5x/Wn8pD+&#xA;ePkWv+hUfOv/AC2wf8Cf+asfzuf/AFGXzj+tfykP54+RYr58/JDzV5Qsfrs7peQx73IhB5RIejsN&#xA;/h8T2xw9pxll8KcTjn0ut/kxy6IxhxxPFF51m0cJ2KuxV2KuxVHaJpV1q2r2mm2orPdyrEnenI05&#xA;H2A3OVZ8wxQM5coi2ePGZyERzL7N8vQQW11YRPIEhtjGPUc9ogKVPvxzzjQzidTGUzwjiv8AS9dn&#xA;iRiIG+1PSo5I5UDxsHRvsspqD9Iz0uE4yFxNh5mUSDRXZJChdX1tbNEkrUed1jiQdSWIHTwFd8xs&#xA;+qx4jESO8iAB72zHilOyOgV8yWt2KuxV2KuxV2KuxVifnG0sIBC8UQS5lYliuwKgb1HStT1zjvaT&#xA;T4cYiYxqcj07vc7ns3JOVgn0h8vf85A3dhJ5j0+3iQfXLe2JuZR3V3rGh/1aMf8AZZl+zMJDFIn6&#xA;TLb9P48nC7YkDkAHMB5ZnSuodirsVdirsVdirsVdir73028ns/ItlPA3GVYkAJAPVqHY5zh1M8PZ&#xA;4nA1If8AFO9GKM9Rwy5fsSK9/MKWxZUvdTtrVnFUWZooyQO4DUrmmx9s66f07+6P7HNlo9PHnt8U&#xA;N/ytSz/6vth/yNt/65Z/KnaHcf8ASfsYfltN3j/TNp+aVq7BE1yxZ2ICqJYCST0AFcB7V7QHQ/6T&#xA;9ify2m7x/pkRqFtqN1C2oXsXKGeil3AAYEUA4+FB4ZrdTj1Ex+YyA1Kt+XupysUsY/dx6dHyz+cX&#xA;lLS/LnmdE0wGO1vofrIt/wBmNi7KVT/J+GoHbOy7D1s8+G584mr73nu0dPHFk9PI7sEzcuvdirsV&#xA;dirNvyi8waDoXm0Xust6cBgkihn4lhHK5WjEKCd15LsO+antrTZc2Dhx87G3eHO7PzQx5bnyp7ta&#xA;fmV5Sv8AWbXR9Numv726JCiBCUQKhcs7txWgC9qn2zjJ9k54YzkmOGMe938ddilMRibJeneSrib6&#xA;xPb1Jh4epTsGBA/Gubj2YzS45Q/hq/i4vakBwiXVPtY1i30235v8Uzf3UXcnxPtnQ9o9ow0sLO8j&#xA;yH46Ov02mlllQ5MLjvrm81i3uJ2rIZo6U6KAwoB7DOGhqsmbVRnM78Ufhv0d6cUYYjEcqL0PPSnm&#xA;XYq7FXYq7FXYq7FWGec5C2pxp2SIfeWOcN7TTvOB3R/SXe9mR/dk+b44/Mu9a88+a1KxrwuWgHfa&#xA;ACID/hM6fsnHwaaA/o3893Ra6fFmkfP7mM5sXEdirsVdirsVdirsVdir7Yg83+WT5NtdP/SMH1pY&#xA;4+SGRezV61p0zjtRqAdF4IEuO/5p/nW9JjhWfjscPvHc+e/z+vLS51fSmtp451W3cMY2VwDz78Sc&#xA;zPZqEo452K3cPtiQMo0ejyZ/tHOldQEZof8Ax2tP/wCYmH/k4Mp1H93L+qfubMX1D3vvLVAP8IWv&#xA;ssVPuzm9f/xmw/zXeaf/ABmXxfKv/ORH/KT6b/zBf8zXy32Y/uZf1v0Bxu2P7we55TnSuodirsVd&#xA;irsVetf848adDNr2pX7gGS1t1jiB7GZt2H0R0+nOZ9pspGKMf5x+7+12/Y8AZk9w+99SeV5Lay0q&#xA;6v5mH2+JA60UbD5ktlPYM8eDTzzSPX7uQ+NuVrxLJkjAMP8ANnmiGztrnWdRY8EoI4U3ZmJpHFGO&#xA;7MTQZoZzy63PfWXyiP1BzwIYMfkPtKL0IXUtxYetGEumaIzRoeSq9QWAPcA98r0kL1ERHf1ivmyy&#xA;yrGSf5r07PT3l3Yq7FXYq7FXYq7FWDebSDrL+yJX7s4D2hP+FH3B6Ds7+6+L4u83SGXzXrUhFC9/&#xA;csR85mOdpohWCA/oR+55rUm8kv6x+9Kcyml2KuxV2KuxV9A/kv8A84/xX9t+nfN8HG2dSYLKT4eK&#xA;kfbkr+17H7PffpqZZ5aiRGOXBij9U+/yj5DqXY48Axi5i5nlH9f6nqX/ACo/8n/+WOD/AJGR/wBM&#xA;h4eP/lIl/p4fqbaP+pD5H9bv+VH/AJP/APLHB/yMj/pj4eP/AJSJf6eH6lo/6kPkf1u/5Uf+T/8A&#xA;yxwf8jI/6Y+Hj/5SJf6eH6lo/wCpD5H9bv8AlR/5P/8ALHB/yMj/AKY+Hj/5SJf6eH6lo/6kPkf1&#xA;tH8jfydPWyg/5GJ/THw8f/KRL/Tw/UtH/Ux8j+t5n+dv5feSPLFpoFx5etIopptVto5ZkIY8SJDx&#xA;qvaqg5VGVZZQjkOSPhSO5B3sdwTOA4ATERPGO/ze6ap/yiFt/qxfqzD1/wDxmQ90XKwf41L4vGdQ&#xA;0LRtb/OPSrDWLeO5sm0ly6ShWUEXFOXxAioBzC7MkRpq4jAHKASDW1NmriDm3HFUD970T/lTH5Rf&#xA;8sFn91v/AM0Zu/Axf8pE/wDTx/U4XFL/AFKP+lKlefk5+U0VpPJFp1m0iRsyLxgNWCkgUC1ynUY8&#xA;cMcpR1EzIRJHrjzr3M8dmQBxxon+aXzR+aX5W3Hlm4bUtNVptBmb3ZrdmOyOe6n9lvoO/W3sjtca&#xA;gcE9sg+38dQ4+u0JxHij9H3PPM3rrXYq9K/JCPzHbeb4WtbV/wBH3UTreyujCP0gOQYNSleagD7s&#xA;0HtAcUtOeI+oHbvv+x2fZfGMoobHm+jPUcRlOREZIZlrtUA7/jnDCRrhvZ6WhdvL9O1ZvPf5hBoD&#xA;y8teWT6sRH2Zrs1WOQ+IBBKey/5WdBlw/ktLv/fZtvdHqP1+/wAnVQyfmM+393j+0vc/Jun855L5&#xA;x8MXwRf6xG5+gfry72a0fFM5TyjsPf1+z709p5qAgOrLs7N0rsVdirsVdirsVdirBPNf/Hbm/wBV&#xA;P+IjPPe3/wDG5e4fc9F2f/dD4vi3zR/yk2r/APMbcf8AJ1s7jR/3MP6sfueXz/3kveUszJanYq7F&#xA;XYqmflf/AJSXSf8AmNt/+Tq5jaz+5n/VP3NuD+8j7w+5fMLtH5dsUjPBHEYdV2BHCtD9Oc72xIx0&#xA;WMR2B4f9y7zRi88ifP73g/nn84p/LPmKbSI9LS6EKRsZmlKEmRQ1KBW6VzC7O7CGoxDIZ1d9Ger7&#xA;SOKZjw2x/wD6GJvf+rHH/wBJDf8AVPM7/QvH/VD8v2uN/LR/m/azNPM/5qPEsq+S0MbgMrfX4KEH&#xA;p3zVHQ6Mf5Y/6STmjU6g/wCTH+mCR+Yvze82eXZoYdZ8sx2ss6l4l+tpJVQaE1jDgb+OZel7EwZw&#xA;Tjykgf0a+9ozdpZMRqcKvzSZv+cjL0Gn6Dj/AOkhv+qeZX+heP8Aqh+X7Wr+WT/N+1JvMf5sXHm9&#xA;tJ02TTUs1h1G3uRKspkJK8k40Kr/AL8zK0vYw0vHMS4rgRy/Hc0Zu0Dm4Y1XqBfWuqf8ohbf6sX6&#xA;sxdf/wAZkPdFzMH+NS+L53/M3zjJ5S/MLT9UjtVu2bTGg9JnMY+OcmtQG/lzG7J0I1OllAnh9d/Y&#xA;uu1Pg5hKr9P6Uq/6GNvf+rFH/wBJDf8AVPMn/QvH/VD8v2tX8sn+b9r1X8qfOuiea9Hl1PWiumFJ&#xA;mhjt1kL8uIBqTxB/azCPZemwZjHNKXDQIoHfn3AuVHWZMmPigBd9/wDYo/mZd6a/lHzEtrNG0Jtr&#xA;j0AGBJWh49TXpmFpIAayPADweJtz5Xtz8m7US/cG/q4ftfJmeiPKMt/LfyPcebNdW3aqadbUkv5x&#xA;2SuyKf5n6D6T2zW9qdoDTYr/AIz9I/Hc5ej0pzTr+Ec307PcafpWnNNM6WthZx/Ex2RI0FB9w6Z5&#xA;3GM8s6G8pF6smMI2dgHiv5gfnbFqmnTaT5eilhiuVMdxey0Vyh+0saqTQMNiSa07d867szsA45ie&#xA;UgkcgP0ui1nanHHhhyPV6V+VvlN9A8q2dm0f+5G8InuxT4vUlpxT/YLRfnXNF2rqjqdQeHcfTH8e&#xA;ZdlosIw4t+fMvc9MslsrGK2Xqi/GfFjux+/O70OlGDDHGOnP39XSZ8viTMkVmW0uxV2KuxV2KuxV&#xA;2KsF82I41mRipCsqcSRsaKAaZ5/7QRI1RJGxA+56Hs4jwg+ZfzH/ACm1+wvr3WdPB1HT7iWS4lWM&#xA;fvovUYseSCvJRX7S/SBm97K7axTjHHP0yAA8i6jW9nTiTOPqiXmedE6p2KuxV2Kpn5X/AOUm0j/m&#xA;Nt/+Tq5jaz+5n/Vl9zbp/wC8j7x977k8y/8AHA0//nn/AMm85vtv/E8X+b/uXe6H++n8fvfIX51f&#xA;+TCvv+McH/Jlc2fYH+Kx95+91van9+fh9zBc3Tr33nZwyzeQrGKJS8jpEFUdSeecxlxyn2cIxFyJ&#xA;/wB+7+EhHU2eX7Eh8xfkZ5d8zSW9xrUjSTwIUQJzUKGNSPhda7+2X6HsjPgjUcojfP0X+lq1Gqx5&#xA;TcoXXnSTH/nFr8uyakSf8HN/1VzN/K6r/Vh/yrH63H4sH8z/AGRX2/8AzjB+X9vPHPEJBJEyuh5S&#xA;mjKajrLkZaPVSBBzDf8AoD9aRPCDfB/smfeY447Py/DZtJycFEQ0oW4Dc03zXdtQjh0UcRNnYDzp&#xA;zNETPOZV3vBvM3kvSPPP5q2ehXtzLCsWk+qWt2QOshuQqhuSyCnGStKZh9kZsmLTjgq55RHe65eV&#xA;dzLW4oZMvqv0wvb3p9/0KJ5V/wCrtff8HD/1RzoeHWd+L5S/4p13Bg7p/Mfqd/0KJ5V/6u19/wAH&#xA;D/1Rx4dZ34vlL/il4MHdP5j9TF/zA/5x48peV/L2oX8Op3lxe2lvJPHCzxFQUUkc6RKaHwrmFl7Q&#xA;zYs0MUjjJkRYAlYH+mbho8cscpjiFDqR+p8/ZvnVPp38ntItdN8h2MygCW9D3NzJsKksQtT4KijP&#xA;Pe3M5yamQ6R2H4971PZuMRwg9+7zz86PzItdVp5e0eUS2ML8725Q/DLIv2UU90XrXuenTfedg9ly&#xA;xfvcgqR5DuHf73W9p60T9EeXVjX5R+Wl13zlarMnOzsQbu5BGxEZHBT/AKzldvCubDtrV+DpyR9U&#xA;th8f2ON2fg8TKL5Dd9e+UNPE981y4rHbCq+7np93XOc9ndH4mY5Dyh9/4/Q7rtHNww4Rzl9zNc7p&#xA;0LsVdirsVdirsVdirsVUrq0trqIxXEYkjPY9vcHtlOfT480eGY4gzx5JQNxNFiOr+VLi25TWdZ4R&#xA;uY/21/5qzje0fZ+eL1YvVHu6j9butN2hGW09j9jxzz5+T2ka/wCpe6Zw07VzVmIFIJW/4sUfZJ/m&#xA;X6Qcp7O7cyYPTP1Q+0e79SNX2bHJvH0y+wvBNb0HVtDv3sdUtntrlP2W6MP5kYbMvuM7bT6nHmjx&#xA;QNh5zLhljlUhRQGXtbsVTPyv/wApNpH/ADG2/wDydXMbWf3M/wCrL7m3T/3kfePvfcnmX/jgaf8A&#xA;88/+Tec323/ieL/N/wBy73Q/30/j975C/Or/AMmFff8AGOD/AJMrmz7A/wAVj7z97re1P78/D7mC&#xA;5unXvvO1kkj8gWbxsUcRx0ZSQft+Izl885R7NBiaN/753+OIOpo/jZhms+e9M0WWOLVdY+pyTKWj&#xA;WSRwWUGhIpnP4Bq8wJgZyrzP63YZZYMe0uEfBLT+b3lAdfMsf/I2TL/yvaH+2fM/ra/zGm74r7f8&#xA;1/K1xPHbweYkkmmZY4kEr1ZmNFA+ZORlp9fEEnxKHmf1pGfTE0OH5MpubTVGtEvbnm0BoI3kapPL&#xA;fYE17ZjZtPqDjGXJfB0JPe3QyY+LgjzeePf+XPLH5wW+u6hcR2SXelOLiSVwiySRXEIQAt+0UWny&#xA;GbXs/Jklp40DPw8oNDnVH9P3uFqYwjlJJ4eKBH2hk15+cPlq5uGlHmW1hU/ZjjuQqgfQR9+Q1M+0&#xA;cszKskfIWAyx/loxq4n30yjyNq0XmVnu7TV3vLK3NGaGdnVn/lLA9u+ZfZODU5MxGWeQCNGuKW9/&#xA;Hk16vJijC4CJvrQYf+arM3lbzOWJJ+r3W5+TZq8JJ14v/Vf0uTlH+DH+p+h8naRpl1quqWum2gBu&#xA;LyVIYq9AXNKtSuw6nO+zZo44GcuURby+OBnIRHMsz8xfmDqKeUNM8p2Re1FtC0WrdnaRZGX0qj9n&#xA;iKt41p231em7Nh48s8vVZuPy5uZl1kvCjjG1c/1MBzcuA96/5x50lYtD1LVWHx3U6wIT14Qry2+Z&#xA;l/DOM9p815Iw7hfz/seg7Hx1GUu818n0x5YtRBo8RpRpqyt/sun/AAoGbzsLB4emj3y9X4+Di6/J&#xA;xZT5bJrm4cN2KuxV2KuxV2KuxV2KuxV2KpNrPlq1vg0sNIbrryH2WP8AlAfrzR9pdiY9Rco+nJ9h&#xA;9/6/vc7Ta6WPY7xea+cfJOnaxbPpmuWlStTFKNpEJ/bif/MHvnIxnqNDl/my+w/rdvOGPUQ7x9z5&#xA;w8+flvrPlO49RwbrSpGpBfINvZJR+w34Ht3p2vZ3auPUiuU+o/V3vOavRTwnvj3sRzaOEmflf/lJ&#xA;tI/5jbf/AJOrmNrP7mf9WX3Nun/vI+8fe+5PMv8AxwNP/wCef/JvOb7b/wATxf5v+5d7of76fx+9&#xA;87/mP+T3nnzD5sudV0yzD2c6RCNmYqTxjVTtTxGX9ka2OHTxjKM735RPVxtdpZZMpkDGvewTzJ+U&#xA;Pnby5pE2rarbRw2cHHm3OrfG6xigIFficZtcXaeOcxCpCUuVxI5buDk0U4xMtqHcX15D/wCS9s/+&#xA;Mcf/ABPNNqf+Mz4/7922L/Gvx3Pnz85PLupeYfN+h6Vpqq95NbTGNXbiDwbkd/kMq7A1EcOCcpcu&#xA;IcvNh2piOTJGI50WLt/zj1+ZxaosI/8Agz/zTm7/AJWx/wA3J/pC6/8AIT74/wCmCI0z8hvzPsNS&#xA;tL4adHIbWaOcIZCOXpuGpXj3plebtLHOBjw5NwR9B6s4aOcZA3Hb+kHssuufnVNaJZyeWLdreOnB&#xA;PrPTj03ENc0uTHx4hilPJwDkPC7vtdlGZjLiEYcR/pvPPzB/Lf8ANTzjeWlzJokNmbWNowqzmTly&#xA;blWpRczOzcmPSxIAySs/zC42rxzzEH0iv6TE/wDoXn8zv+WCP/gz/wA05sv5Wx/zcn+kLifkJ98f&#xA;9MH0H/zjv5O17yp5cvdP1mD0bl7gyqASVKsABvQfy5HR5fF1E5gSEeGI3FdZNuTHwYhEkXZ5H3Jb&#xA;+af/ACivmf8A5h7r9TZyOD/Hx/w3/fO4zf4sf6n6Hg/5U+d7Ty5Jey6tIjadBFztrcRrJctcOwAE&#xA;DGhUceXKp4/Sc6ftns+WcREB6idze1ef6OrptBqhjvi+n7b8kD+afmmDXdbWXT5om0h40mt4o41j&#xA;dXcUk9enxGQOG6np0673dkaM4cdTB4+R3v3V5NevzjJP0/T+OfmwrNu4L6k/KPTJLDyDpUbqVluF&#xA;e4YU6iZyyH6UK55121l8TVSrpt8v2vV9nQ4cMb973+1i9G2hh/32ip/wIpnoODHwY4x/mgD5OhyS&#xA;4pE95VMtYOxV2KuxV2KuxV2KuxV2KuxV2KobUNOtL+AxXCVH7LDZlPiDmLq9Fj1EOGY/WPc24c0s&#xA;ZuLAfMPlowRyW17Et1YTgoS6hkdT+y6mucFruzsujmDe3SQ/Gxd/g1EM0a+YfOf5lflFcaJ6uraG&#xA;rT6QKtNb7tJbjqT4tGPHqO/jnSdk9tjNWPJtk7+h/a6XXdnHH6obx+79jziyu5rO8gu4aCa3kSWM&#xA;kVHJGDCo+Yzf5ICcTE8iKdZGRiQR0fUPkX8xrTznpyyM/DUrZQt1ZMxPADblHXrGfw6HPPu1tFlw&#xA;THGTKH8J8u7yeq0OphljsKl1D0dfOd8qhVt4gqigHxdB9OZsfaXKBQhGvj+tqPZkD1Lz38+dcuNT&#xA;/LbU1ljRPSMBHCu9bqHxJ8Mv0fas9VqsYkAOHi5f1S06rSRxYJ0edfe9Eh/8l7Z/8Y4/+J5dqf8A&#xA;jM+P+/XF/jX47nk2qymH84fK0qirR2l04B6VUE5q9FkMNHkkOk4H7Q36iPFqIjvjJ6x/jW//AN8R&#xA;f8N/XMn/AET5v5sft/Wj+S4d5d/jW/8A98Rf8N/XH/RPm/mx+39a/wAlw7y7/Gt//viL/hv64/6J&#xA;8382P2/rX+S4d5d/jW//AN8Rf8N/XH/RPm/mx+39a/yXDvLv8a3/APviL/hv64/6J8382P2/rX+S&#xA;4d5U7jzhqMsLxqkcRcU9ROXIfKpyrN7R55wMQIxvqLtlDs3GDdkvAvzk/M+2htrryvpTLPdTqYtS&#xA;uPtLEp2aJfFz+1/L8+mR2H2TKUhmybAbxHf5+773G7R1wAOOPPq8KzsnQOxVlv5ZeTj5o8zQ20qn&#xA;9H249e+Ybfu1I+Cvi52+89s1na2u/L4TIfUdh7/2OZotN4uSug5vr3yrpK3F7GQgW1tOJKgUXb7C&#xA;AD5fdnJdiaI58/Efphuff0d/rs4x46HM7M9z0F552KuxV2KuxV2KuxV2KuxV2KuxV2KuxVZNDFNE&#xA;0Uqh43FGU9CMhkxRnExkLiWUZGJsc2E6/wCXJLEtNCDJZt1ruUr2b2984TtbsaWnPHDfH93473fa&#xA;TWjJ6ZfV9757/NL8ovS9XXPLcBMe73unRj7PcyQqO3ig6dtumx7H7buseY+6X6D+twNf2bXrxj3j&#xA;9TySx1C/sLgXNjcy2lwoIWaB2jcA7EBlIO+dTkxRmKkBIee7pYTlE2DRTL/GvnL/AKv2o/8ASXP/&#xA;AM15j/yfp/8AU4f6UfqbfzWX+dL5lQvPNHma+tntb3V726tpKepBNcSyRtxIYVVmINCAclj0eGB4&#xA;owiD3iIYy1GSQoyJHvL7dh/8l7Z/8Y4/+J5z2p/4zPj/AL93mL/Gvx3PnD8+b++sPMOj3NjcS2ty&#xA;ttKFmgdo3AL0NGUg7jB7OY4zxTEgJDiHPdp7XmYziQaNPM387+c+R/3P6l/0lz/8150H8n6f/U4f&#xA;6UfqdYNVl/nS+ZV9N83+cLnUbW3k1/UvTmmjjel5ODRmANPj98ry6LBGBIxw2H80M4ajKZAcUvmX&#xA;0tc/k56GlR6gfNGulJApCDUJajl9Gc5mE8enGcww1KtuDvdvCMZZDDiybf0nj35t/pvynqNhb6X5&#xA;h1do7mF5JPWvpnNVagpQrmb2L4ephIzx49j0iHG7Q48MgIznv/SLAv8AG/nT/q/6l/0lz/8ANebr&#xA;+T9P/qcP9KP1Ou/NZf50vmXf4386f9X/AFL/AKS5/wDmvH+T9P8A6nD/AEo/Uv5rL/Ol8ykpJJJJ&#xA;qTuScy2lrFDsVfRH5C6ELLynLqbrSbU5iVbv6MNUUf8AB884b2j1HHnEBygPtP4D0nZOLhx8X84/&#xA;c+jfL1ktppUK0pJKPVkPerCv4DbOm7H0ow6eI6y9R+P7HX6zLx5D3DZMs2jiuxV2KuxV2KuxV2Ku&#xA;xV2KuxV2KuxV2KuxVzKrKVYAqRQg7gg4CARRUGmC+ZtIi0+6RoNoZ+RVP5StKj5b5wHbnZ0dPkBh&#xA;9M727nodDqTkib5h8kfmzpcOnefdTigjEcExjnjRRQfvY1Z9v9flnVdi5jk0sSeY2+R/U6DtHGI5&#xA;pAMQzauE7FX3lbIz+QLJEBZmjiCqOpJfOXzxMuzQBzJ/370GM1qbP42Yf5v/ACDtPN81rdaneS28&#xA;tvGURLd1UUY8jy5RSb/I5Z2d2dq9NAiJx+rffi/Q1avNhzSs8W3dTHT/AM4jeWya/pS8/wCRsX/Z&#xA;PmxrXd+L5S/W4vh6f+n9ipa/84m+Xra6huY9Tuy8DrIgaWKhKEMK0gHhkJ49bIEE4t/KX62UY6cG&#xA;/X9j1nzBD9V8tw20jAyIY027lRvTNf2vj8LQxxk7jhHyczRy485kOW75V/5yImhbX9LiV1aWO2Yy&#xA;ICCy8n+Go7Vpj7MRIxSP9Jp7YI44+55LnTOndirsVdirY6jFX17+X1tap5W8vQxikD2lqT2J9RFZ&#xA;j9JYnPNdT69XIS65KP8ApqeuwenAK/m/oe0gU2GelvNuxV2KuxV2KuxV2KuxV2KuxV2KuxV2KuxV&#xA;2KuxVjnnaOtpbSfyyFf+CWv/ABrnMe1EP3UJd0vvH7Hadln1EeT5P/P+2Efm+0mA2msUr/rJLIP1&#xA;Uyz2aneAjul+gON2xGsoP9H9bzLOidS7FX1ta/nT5Qh0ewsYNbt4Pq8YEjVPIt921K5x2Q64Y448&#xA;cJREb379y9FGWnMjKUgbd/yuvy3/ANTLF/wR/wCaco/1z/ptnHpP6Lj+dvlodfM0X/BH/mnH/XP+&#xA;mvFpP6LX/K7fLP8A1M0X/BH/AJpx/wBc/wCmvFpP6LF/P357aTb6VXS79dX1R+SWyipjir1kfYfQ&#xA;O+WYOzNVqsg/MGQhHv8AuDXl1uHFH91XEXznf395qF5Ne3szT3U7F5pnNWZjnY48cYREYioh0E5m&#xA;Rs80Pk2LsVdirsVRelWEuoanaWEP97dTRwx9/ikYKPxOV5cghAyPKIv5M4RMpADq+0/Kulwpd6fY&#xA;wLxt7UIqDwjhUUH3LTPPOzcZz6uN/wA7iPw3er1Mhjwmu6v0PSc9IebdirsVdirsVdirsVdirsVd&#xA;irsVdirsVdirsVdiqReclrpKmleMqn5bMP45z/tIL0w/rD7i7Dsw/vPg+Wv+ciIgNR0WXerQzL7f&#xA;Cyn/AI2zF9lz6JjzCO2h6o+4vIc6l0rsVdirsVUn+0cUhbirsVdirsVdirsVdirOPyZ00X3n/Tyw&#xA;rHaiS4f/AGCEIf8Agyuajt3LwaWX9Kh+Pg5/ZsOLMPLd9g+SbfldXFwR/doEHzc1/wCNc0nsxhvJ&#xA;OfcK+f8AY7XtSfpEe9l2dm6V2KuxV2KuxV2KuxV2KuxV2KuxV2KuxV2KuxV2KoDW9Pe/094EcRtU&#xA;MGbp8Pjmu7U0Z1GEwBo89/JyNLmGOfERbyLznpukXnlzUY9VijntIYJZSzfsGNCeaN1UjsRnA6LJ&#xA;kx5o8B34gNuu7v8AUwjLGeIbU+S89OeNdirsVdiqk/2jikLcVdirsVdirsVdirsVeq/848xIfNOo&#xA;Sn7SWLKv+yljr+rOb9pj+4iP6f6C7bscfvD/AFf0h9Y+SkAsJ37tLx/4FQf+NsfZiP7mR/pfoH62&#xA;/tQ+sDyZDnSusdirsVdirsVdirsVdirsVdirsVdirsVdirsVdiqD1iN5NKukQkMYmIp1NBWn09Mw&#xA;u0oGWnmBz4S36aQGSJPe+ffzrkv4/IN0bRikZlhW8I6mFmpSvarlc4vsAROqHF3Gvf8A2W7ftQyG&#xA;E18XzbnoDyzsVdirsVUn+0cUhbirsVdirsVdirsVdir1L/nHu5VPN15C23rWT8fmssZp91c532lj&#xA;eAHul+gu17IP70j+j+p9ZeSZAbS5i7rIGp/rLT/jXK/Zed4px7pX8x+xye1I+oHyZHnTurdirsVd&#xA;irsVdirsVdirsVdirsVdirsVdirsVdirmAYFSKg7EYCLFFQXiv5g6MbzyzrmmU5SehMI18ZIqsn/&#xA;AAyDPNtMfy+rF/wzr7aL0mceJgPnF8k56S8g7FXYq7FVJ/tHFIW4q7FXYq7FXYq7FXYqy38qtWGm&#xA;efNKmduMc0v1aTwpOpjFfkzA5rO2MPiaaY7hfy3czQZODNE/D5vsfybc+nqMkBO06bf6yb/qrnNe&#xA;zWfhzmH84faP2W7vtOFwB7izPO5dE7FXYq7FXYq7FXYq7FXYq7FXYq7FXYq7FXYq7FXYqwHzRbiL&#xA;WJxT4ZQHA/1hv+Nc877dxcGql50fx8Xo9BPixDy2fMHm38l/M2kRS31iE1GzVmYxwcjNGldiUI+L&#xA;brxrnS6Lt/DlIjL0y8+RdJqOy8kNx6g88zfOsdirsVUn+0cUhbirsVdirsVdirsVdiq+GR4pUkjJ&#xA;V0IZWHUEdCMBFiim32X5O1ae7stG1Vl4TXMVvO6dKGVVZh/w2ebY/wBxqwI/wzr7aeuJ8TDZ6x/Q&#xA;9Zz0t5p2KuxV2KuxV2KuxV2KuxV2KuxV2KuxV2KuxV2KuxVi3nKzkkubSSJC8kgMQAFSSDUD/hjn&#xA;I+0umlLJjMRZlcf1feXb9mZQIyB5DdLNR8tXtlZLdOwcbesi9Ur0375q9Z2JlwYhkO/eO79bl4dd&#xA;DJPhHw83hv5m/lDeavq8eqeXYokkuAfr8LMI19QU4yLt1Yfa+Ve5zP7I7bjix8GUnbl1+Dha7s0z&#xA;lxQ682G/8qN8+/76tv8AkcP6Ztv9EOl75fJwf5KzeXzd/wAqN8+/76tv+Rw/pj/oh0vfL5L/ACVm&#xA;8vmtb8ivPpNfSt/+Ry/0x/0Q6Xvl8l/krN5fNr/lRPn3/fdv/wAjl/pj/oh0vfL5J/krN5fN3/Ki&#xA;fPv++7f/AJHL/TH/AEQ6Xvl8l/krN5fN3/KifPv++7f/AJHL/TH/AEQ6Xvl8l/krN5fN3/KifPv+&#xA;+7f/AJHL/TH/AEQ6Xvl8l/krN5fN3/KifPv++7f/AJHL/TH/AEQ6Xvl8l/krN5fN3/KifPv++7f/&#xA;AJHL/TH/AEQ6Xvl8l/krN5fN3/KifPv++7f/AJHL/TH/AEQ6Xvl8l/krN5fNdH+RPnr1F5x24Wo5&#xA;ETKaDAfaLTd5+S/yVm8vm+m/LNlD+krG1RQsMRHBB0CxLVR/wucr2VDxdXC/51/Ld3uqPBhNd1fo&#xA;ejZ6Q807FXYq7FXYq7FXYq7FXYq7FXYq7FXYq7FXYq7FXYq4qpIJAJHQ+GAgLancwJcW8sD/AGZV&#xA;KH6RTK8+IZIGB5SFM4TMZAjoxr/A/wDy+/8AJL/m/OW/0Lf7Z/sf+PO0/lX+j9v7Hf4H/wCX3/kl&#xA;/wA34/6Fv9s/2P8Ax5f5V/o/b+x3+B/+X3/kl/zfj/oW/wBs/wBj/wAeX+Vf6P2/sd/gf/l9/wCS&#xA;X/N+P+hb/bP9j/x5f5V/o/b+x3+B/wDl9/5Jf834/wChb/bP9j/x5f5V/o/b+x3+B/8Al9/5Jf8A&#xA;N+P+hb/bP9j/AMeX+Vf6P2/sd/gf/l9/5Jf834/6Fv8AbP8AY/8AHl/lX+j9v7Hf4H/5ff8Akl/z&#xA;fj/oW/2z/Y/8eX+Vf6P2/sd/gf8A5ff+SX/N+P8AoW/2z/Y/8eX+Vf6P2/sd/gf/AJff+SX/ADfj&#xA;/oW/2z/Y/wDHl/lX+j9v7Hf4H/5ff+SX/N+P+hb/AGz/AGP/AB5f5V/o/b+x3+B/+X3/AJJf834/&#xA;6Fv9s/2P/Hl/lX+j9v7EZpPlb9H3qXX1n1eAI4cOPUU68jmb2f2D+XyjJx8VXtw1+ktOo1/iQ4eG&#xA;vinudC652KuxV2KuxV2KuxV2KuxV2KuxV2KuxV2KuxV2KuxV2KuxV2KuxV2KuxV2KuxV2KuxV2Ku&#xA;xV2KuxV2KuxV2KuxV2KuxV2KuxV2KuxV2KuxV2KuxV2KuxV2KuxV2KuxV2KuxV2KuxV2KuxV2Kux&#xA;V2KuxV2KuxV2KuxV2KuxVC/pbSv+W2D/AJGp/XFXfpbSv+W2D/kan9cVbXVNMZgq3cLMxoqiRCST&#xA;2G+KsDi89+af9Hkkiga2YW7XTxWc/qJLMWEtiscs8QaaHiOTcuR5CkJocVS1PzC/M1NDsdRudEjj&#xA;e6tobhl+rfCvrLEKOEvZXjHN24bMx2DKnXFU8n83+afq6TWq2M1tJDJO9+VDRwi3fhKkiQXU6szG&#xA;aJkpL9kScqUWqqHfz95qSYGPTBe6dBzW41OGCRI5nWRpFEEbyF15W0LhT8Ss8kdGpsyqH0z8wfO0&#xA;1ot9c6Optbe3nfUI0t7iOfnC4POGJmZnQRTxMV+01JOO4C4qmVx501sNPw+rwlJYIVge1uJGSKQR&#xA;eteyOkir6MTSOpFAKrQuDWiqjpvnbzlcyiN9HR7dtQhtU1FUljiNqJo45bho3YsvrJMjwDkdiaki&#xA;M8lWf4q7FXYq7FXYq7FXYq7FXYq7FXYq7FXYq7FXYq7FXYq7FXYq7FXYqkvneVIvJmvyueKR6bds&#xA;x60Agcnpir5xHmPQLXy3YeY7i80lLZjDJPcx3E0t2zP6Xqxvacyojq8ooLegAHDfizBCUQW73Sxa&#xA;bbatOmpaxEl/p/pRXU0k8CwLL6qpJbcVRa+uR8PqK3pniqq2KqdxdtBo15rF3qXraXYrNZX8qQX/&#xA;AKENxFxiaH44mLsrzrHykY8vU5M3KNMVfYeFLsVdirsVdirsVdirsVdirsVdirsVdirsVdirsVdi&#xA;rsVdirsVdirsVdirsVdirsVdirsVWy+l6T+rx9LifU5U48ab1rtSmKvPv+sev+/S/wC5biquP+VE&#xA;eonH/C/qcR6dP0fy4U24+1MVXJ/yozieH+GOPqfFT9H09X3/AMr8cVf/2Q==</xmpGImg:image>
               </rdf:li>
            </rdf:Alt>
         </xmp:Thumbnails>
      </rdf:Description>
      <rdf:Description rdf:about=""
            xmlns:xmpMM="http://ns.adobe.com/xap/1.0/mm/"
            xmlns:stRef="http://ns.adobe.com/xap/1.0/sType/ResourceRef#"
            xmlns:stEvt="http://ns.adobe.com/xap/1.0/sType/ResourceEvent#">
         <xmpMM:OriginalDocumentID>uuid:9E3E5C9A8C81DB118734DB58FDDE4BA7</xmpMM:OriginalDocumentID>
         <xmpMM:DocumentID>xmp.did:611E35630F206811822A8451A1857300</xmpMM:DocumentID>
         <xmpMM:InstanceID>xmp.iid:611E35630F206811822A8451A1857300</xmpMM:InstanceID>
         <xmpMM:RenditionClass>proof:pdf</xmpMM:RenditionClass>
         <xmpMM:DerivedFrom rdf:parseType="Resource">
            <stRef:instanceID>xmp.iid:601E35630F206811822A8451A1857300</stRef:instanceID>
            <stRef:documentID>xmp.did:601E35630F206811822A8451A1857300</stRef:documentID>
            <stRef:originalDocumentID>uuid:9E3E5C9A8C81DB118734DB58FDDE4BA7</stRef:originalDocumentID>
            <stRef:renditionClass>proof:pdf</stRef:renditionClass>
         </xmpMM:DerivedFrom>
         <xmpMM:History>
            <rdf:Seq>
               <rdf:li rdf:parseType="Resource">
                  <stEvt:action>saved</stEvt:action>
                  <stEvt:instanceID>xmp.iid:F77F117407206811822A8451A1857300</stEvt:instanceID>
                  <stEvt:when>2013-10-06T17:09:14+13:00</stEvt:when>
                  <stEvt:softwareAgent>Adobe Illustrator CS6 (Macintosh)</stEvt:softwareAgent>
                  <stEvt:changed>/</stEvt:changed>
               </rdf:li>
               <rdf:li rdf:parseType="Resource">
                  <stEvt:action>saved</stEvt:action>
                  <stEvt:instanceID>xmp.iid:611E35630F206811822A8451A1857300</stEvt:instanceID>
                  <stEvt:when>2013-10-06T18:09:34+13:00</stEvt:when>
                  <stEvt:softwareAgent>Adobe Illustrator CS6 (Macintosh)</stEvt:softwareAgent>
                  <stEvt:changed>/</stEvt:changed>
               </rdf:li>
            </rdf:Seq>
         </xmpMM:History>
      </rdf:Description>
      <rdf:Description rdf:about=""
            xmlns:xmpTPg="http://ns.adobe.com/xap/1.0/t/pg/"
            xmlns:stDim="http://ns.adobe.com/xap/1.0/sType/Dimensions#"
            xmlns:xmpG="http://ns.adobe.com/xap/1.0/g/">
         <xmpTPg:NPages>1</xmpTPg:NPages>
         <xmpTPg:HasVisibleTransparency>True</xmpTPg:HasVisibleTransparency>
         <xmpTPg:HasVisibleOverprint>False</xmpTPg:HasVisibleOverprint>
         <xmpTPg:MaxPageSize rdf:parseType="Resource">
            <stDim:w>209.999929</stDim:w>
            <stDim:h>210.001308</stDim:h>
            <stDim:unit>Millimeters</stDim:unit>
         </xmpTPg:MaxPageSize>
         <xmpTPg:PlateNames>
            <rdf:Seq>
               <rdf:li>Cyan</rdf:li>
               <rdf:li>Magenta</rdf:li>
               <rdf:li>Yellow</rdf:li>
               <rdf:li>Black</rdf:li>
            </rdf:Seq>
         </xmpTPg:PlateNames>
         <xmpTPg:SwatchGroups>
            <rdf:Seq>
               <rdf:li rdf:parseType="Resource">
                  <xmpG:groupName>Default Swatch Group</xmpG:groupName>
                  <xmpG:groupType>0</xmpG:groupType>
               </rdf:li>
            </rdf:Seq>
         </xmpTPg:SwatchGroups>
      </rdf:Description>
      <rdf:Description rdf:about=""
            xmlns:pdf="http://ns.adobe.com/pdf/1.3/">
         <pdf:Producer>Adobe PDF library 10.01</pdf:Producer>
      </rdf:Description>
      <rdf:Description rdf:about=""
            xmlns:xmpRights="http://ns.adobe.com/xap/1.0/rights/">
         <xmpRights:Marked>True</xmpRights:Marked>
         <xmpRights:WebStatement rdf:resource="http://www.ospreydawn.com"/>
         <xmpRights:UsageTerms>
            <rdf:Alt>
               <rdf:li xml:lang="x-default">This work is licensed under a &lt;a rel="license" href="http://creativecommons.org/licenses/by-nc-sa/3.0/"&gt;Creative Commons Attribution-NonCommercial-ShareAlike 3.0 Unported License&lt;/a&gt;.</rdf:li>
               <rdf:li xml:lang="en_us">This work is licensed under a &lt;a rel="license" href="http://creativecommons.org/licenses/by-nc-sa/3.0/"&gt;Creative Commons Attribution-NonCommercial-ShareAlike 3.0 Unported License&lt;/a&gt;.</rdf:li>
               <rdf:li xml:lang="en">This work is licensed under a &lt;a rel="license" href="http://creativecommons.org/licenses/by-nc-sa/3.0/"&gt;Creative Commons Attribution-NonCommercial-ShareAlike 3.0 Unported License&lt;/a&gt;.</rdf:li>
            </rdf:Alt>
         </xmpRights:UsageTerms>
      </rdf:Description>
      <rdf:Description rdf:about=""
            xmlns:cc="http://creativecommons.org/ns#">
         <cc:attributionName>Max O'Brien / Osprey Dawn</cc:attributionName>
         <cc:license rdf:resource="http://creativecommons.org/licenses/by-nc-sa/3.0/"/>
      </rdf:Description>
   </rdf:RDF>
</x:xmpmeta>
                                                                                                    
                                                                                                    
                                                                                                    
                                                                                                    
                                                                                                    
                                                                                                    
                                                                                                    
                                                                                                    
                                                                                                    
                                                                                                    
                                                                                                    
                                                                                                    
                                                                                                    
                                                                                                    
                                                                                                    
                                                                                                    
                                                                                                    
                                                                                                    
                                                                                                    
                                                                                                    
                           
<?xpacket end="w"?>
	</metadata>
<g id="Layer_2">
	<g id="_x37_Wl2mV_1_">
	</g>
</g>
<g id="Layer_1_1_">
	<g>
		<path fill="#FBBE31" d="M243.434,523.662l-3.377-9.874c-0.573-1.677-1.761-3.898-3.354-5.121
			c-2.164-1.646-3.892-2.864-5.244-3.771l-13.181,11.558l-14.907-70.562l3.795-5.242c1.174-1.623,1.902-3.145,2.354-4.438
			l-7.755-3.604l-0.23-9.052c-0.508-19.938-2.991-36.959-4.166-44.05c-5.491-5.518-20.188-19.702-44.28-38.979
			c-28.402-22.727-55.647-39.519-60.82-42.654l-6.993-4.239l-0.038-8.178c-0.042-9.295-0.051-40.585,1.599-52.962
			c1.158-8.689,3.332-15.46,5.09-19.854c-0.128-0.279-0.257-0.555-0.39-0.812c-0.803-0.635-2.639-1.891-5.774-3.49l-11.591-5.907
			l9.374-25.156c0.811-2.459,4.521-12.617,13.131-20.516c5.521-5.057,16.713-11.938,23.886-16.146V81.888l24.234-16.504l6.711,2.063
			c0.816,0.252,3.896,1.073,9.168,1.073c8.301,0,17.663-1.94,27.841-5.771c17.146-6.445,27.396-12.086,33.521-15.447
			c5.7-3.138,9.463-5.203,14.125-5.495c0.39-0.024,0.78-0.037,1.171-0.037c6.521,0,12.747,3.438,17.099,9.44l2.776,3.834
			l-0.003,4.735c-0.002,6.215-2.722,11.924-5.774,17.263l1.677,0.971c3.96,2.278,17.468,7.093,32.848,11.692l1.619,0.484
			l1.465,0.842c3.542,2.033,11.979,7.771,14.667,17.474l70.697,17.78l2.34,1.748c0.994,0.742,10.092,7.374,23.368,11.68
			c6.104,1.979,14.479,2.528,21.867,3.017c13.075,0.854,24.364,1.596,29.246,11.131c1.79,3.493,2.646,7.001,3.348,9.821
			c0.104,0.42,0.229,0.925,0.354,1.416c6.494,2.778,15.479,8.44,19.812,15.062c4.046,6.184,3.315,13.619-0.123,22.479
			c0.318-0.021,0.639-0.028,0.957-0.028c6.966,0,12.91,4.352,14.787,10.827l0.235,0.814l0.142,0.845
			c0.729,4.357-0.531,8.005-2.128,12.615c-0.792,2.292-1.674,4.835-2.478,7.833c-0.854,3.19-0.227,3.993,0.575,5.013
			c1.479,1.862,2.49,3.652,3.153,5.381c5.909-8.395,13.11-18.206,14.498-20.097c1.14-1.608,2.551-3.258,3.904-4.537l23.935-22.719
			l0.709,32.989c0.083,3.901-1.104,7.15-1.618,8.365l-0.128,0.292c-1.203,2.688-11.896,26.523-21.061,45.552
			c-8.172,16.979-9.938,29.755-10.99,37.392l-0.217,1.529c-1.229,8.599-4.562,15.062-5.548,16.843l-0.312,0.557l-0.354,0.525
			c-2.506,3.688-7.736,12.343-9.616,18.634c-0.508,1.706-1.029,3.398-1.543,5.062l-0.062,0.2
			c-1.216,3.951-3.208,10.419-3.479,12.816c0.943,5.043,0.286,10.146-0.214,12.83l-0.188,1.003l-0.32,0.968
			c-0.381,1.118-9.187,27.589-8.659,47.529c0.483,18.755,6.269,35.251,8.169,40.671c0.232,0.687,0.423,1.208,0.554,1.603
			c1.297,3.896,1.76,7.497,1.372,10.699v0.194l-0.109,0.576l-0.297,1.942l-0.203,0.414c-0.271,1.104-0.723,2.797-1.514,5.527
			c-0.771,2.667-1.086,5.503-1.206,6.956l-1.104,13.396h-230.82v0.012H243.434z"/>
		<path fill="#182D25" d="M253.869,509.065h206.938c0.188-2.285,0.646-6.062,1.736-9.819c1.197-4.149,1.48-5.46,1.545-5.771v-0.307
			l0.097-0.196c0.045-0.297,0.179-1.705-0.725-4.42c-0.115-0.352-0.275-0.809-0.479-1.368c-2.086-5.954-8.437-24.072-8.987-45.124
			c-0.583-22.25,8.564-50.027,9.415-52.562c0.146-0.747,0.835-4.811,0.146-7.825c-0.829-3.585,0.962-9.726,3.954-19.438
			c0.52-1.688,1.051-3.414,1.564-5.146c2.938-9.854,10.729-21.484,11.521-22.646c0.312-0.569,2.937-5.415,3.843-11.751l0.211-1.511
			c1.094-7.927,3.134-22.688,12.301-41.728c9.521-19.771,20.782-44.939,20.896-45.194c0.208-0.488,0.48-1.487,0.468-2.364
			c-0.652,0.621-1.471,1.562-2.097,2.466c-0.192,0.264-15.773,21.44-20.573,29.005c-4.604,7.253-11.635,8.897-13.902,9.248
			c-1.345,1.085-5.583,4.783-8.062,10.089c-3.321,7.093-12.242,13.631-13.395,14.45c-2.986,2.667-7.979,7.461-8.915,9.234
			l-3.143,5.969l-1.026-6.667c-0.102-0.663-2.437-16.354,3.137-25.257c4.889-7.822,9.212-13.003,9.899-13.817
			c0.286-0.431,1.574-2.436,2.529-4.821c1.277-3.194,4.134-3.194,5.068-3.194c0.364,0,0.753,0.018,1.144,0.032
			c0.337,0.021,0.685,0.035,1.034,0.035c0.506,0,0.896-0.041,1.225-0.128c1.992-0.521,2.717-1.091,4.021-4.077l0.066-0.167
			c1.289-2.96,1.289-2.96-0.069-4.688c-2.564-3.248-5.688-8.629-3.228-17.831c0.941-3.51,1.957-6.442,2.772-8.801
			c0.771-2.235,1.646-4.771,1.531-5.475c-0.071-0.251-0.516-0.293-0.77-0.293c-0.283,0-0.521,0.062-0.636,0.11
			c-0.138,0.062-0.329,0.157-0.572,0.277c-1.84,0.902-6.148,3.027-10.432,3.027c-1.043,0-2.035-0.126-2.949-0.376
			c-3.015-0.817-5.003-2.303-5.912-4.396c-0.974-2.251-0.6-5.039,1.12-8.285c7.683-14.516,6.992-18.402,6.337-19.4
			c-2.52-3.843-10.492-8.91-15.258-10.365c-4.607-1.405-5.763-6.098-6.88-10.628c-0.564-2.301-1.149-4.677-2.169-6.656
			c-1.104-2.162-10.027-2.747-17.196-3.219c-8.244-0.539-17.588-1.149-25.429-3.69c-15.121-4.904-25.479-12.288-27.599-13.869
			l-72.829-18.317l-0.114-0.044c-0.812-0.305-3.603-1.839-5.384-8.803c-1.235-4.843-6.853-8.265-7.914-8.875
			c-5.478-1.64-28.229-8.585-35.95-13.036c-1.509,1.511-4.212,3.497-8.396,4.124l-2.049,0.312l-0.455-2.021
			c-0.062-0.272-1.486-6.799,1.101-11.629c0.955-1.782,0.764-2.096,0.438-2.615c-0.297-0.479-0.748-1.202-0.839-2.215
			c-0.114-1.263,0.604-2.488,2.192-5.177c1.816-3.081,4.804-8.136,4.805-11.654c-0.742-1.021-2.85-3.573-5.531-3.403
			c-1.403,0.092-4.171,1.608-8.003,3.72c-6.468,3.555-17.292,9.505-35.418,16.32c-11.823,4.449-22.921,6.705-32.979,6.705
			c-6.91,0-11.453-1.102-13.469-1.723l-12.054,8.208v59.479l-1.146,0.641c-0.206,0.11-20.625,11.521-27.473,17.798
			c-6.596,6.044-9.143,14.347-9.166,14.43l-0.047,0.143l-4.938,13.243c3.312,1.688,9.455,5.138,11.305,8.301
			c2.181,3.73,3.695,8.562,3.765,8.766l0.289,0.933l-0.485,0.85c-0.041,0.066-4.262,7.558-5.954,20.25
			c-1.562,11.719-1.502,44.188-1.471,50.967c5.746,3.48,33.413,20.568,62.378,43.738c32.396,25.916,48.156,42.789,48.312,42.955
			l0.433,0.463l0.121,0.62c0.046,0.225,4.35,22.312,5.055,50.013c3.546,1.646,8.286,4.396,8.625,7.441
			c0.176,1.573,0.688,9.67-5.762,18.576l8.416,39.836c0.483-0.429,1.229-0.812,2.341-0.812c2.793,0,8.109,2.974,15.804,8.833
			C250.545,500.864,252.927,506.31,253.869,509.065z"/>
		<path opacity="0.14" enable-background="new    " d="M498.925,265.446c-4.859,7.655-12.104,10.064-15.459,10.792
			c-1.543,1.354-4.477,4.256-6.275,8.109c-3.572,7.634-12.316,14.28-14.469,15.837c-3.878,3.467-7.37,7.085-7.915,8.01
			l-8.624,16.378l-2.813-18.295c-0.271-1.812-2.523-17.979,3.678-27.902c4.729-7.562,8.937-12.721,10.072-14.079
			c0.347-0.536,1.321-2.131,2.046-3.939c0.848-2.105,3.097-5.643,8.68-5.643c0.431,0,0.878,0.021,1.343,0.042
			c0.271,0.019,0.554,0.03,0.834,0.03c0.075,0,0.228,0,0.238,0c0.353-0.094,0.516-0.15,0.548-0.15c0.003,0,0.006,0,0.006,0.004
			c0.077-0.096,0.342-0.466,0.896-1.731c0,0,0.313-0.728,0.432-0.99c-1.854-2.347-7.059-9.167-3.854-21.142
			c0.76-2.826,1.56-5.271,2.275-7.394c-1.992,0.641-4.278,1.134-6.626,1.134c-1.389,0-2.727-0.177-3.971-0.517
			c-5.241-1.431-7.49-4.379-8.453-6.603c-1.468-3.393-1.045-7.306,1.252-11.646c5.792-10.938,6.257-14.874,6.263-15.817
			c-2.154-2.812-8.752-7.156-12.887-8.419c-6.711-2.055-8.332-8.614-9.52-13.412c-0.44-1.82-0.903-3.692-1.562-5.197
			c-2.375-0.951-10.341-1.474-14.3-1.732c-8.469-0.555-18.063-1.185-26.361-3.874c-14.521-4.711-24.942-11.723-28.079-13.979
			l-62.778-15.79v377.657h153.806c0.302-2.121,0.765-4.562,1.477-7.017c0.906-3.136,1.264-4.556,1.394-5.105v-0.794l0.106-0.221
			c-0.046-0.433-0.174-1.186-0.543-2.282c-0.086-0.271-0.452-1.312-0.452-1.312c-2.137-6.097-8.635-24.646-9.198-46.298
			c-0.578-22.189,8.126-49.402,9.521-53.621c0.244-1.43,0.538-4.216,0.129-5.989c-1.057-4.562,0.749-10.811,4.027-21.448
			l0.125-0.413c0.477-1.546,0.96-3.124,1.434-4.704c3.007-10.07,10.615-21.622,11.918-23.557c0.427-0.794,2.562-4.991,3.318-10.27
			l0.209-1.509c1.123-8.136,3.217-23.278,12.646-42.875c2.229-4.637,4.553-9.548,6.804-14.37
			C499.746,264.162,499.302,264.848,498.925,265.446z"/>
		<g>
			<polygon fill="#FBBE31" points="262.435,274.303 262.435,401.975 342.398,401.975 360.37,384.009 360.37,357.872 
				333.742,357.872 333.742,376.344 287.789,376.344 287.789,310.867 333.185,310.867 333.185,322.99 360.37,322.99 360.37,304.29 
				356.583,297.824 359.882,291.997 359.882,215.023 342.643,197.785 262.435,197.785 262.435,240.364 287.789,240.364 
				287.789,221.71 333.742,221.71 333.742,283.766 287.789,283.766 287.789,274.303 			"/>
			<polygon fill="#FFFFFF" points="341.074,201.57 266.221,201.57 266.221,236.579 274.765,236.579 274.765,210.096 
				337.528,210.096 			"/>
			<polygon fill="#FFFFFF" points="341.964,297.824 346.831,290.429 346.43,219.075 337.528,221.669 337.528,287.551 
				284.003,287.551 274.249,298.198 			"/>
			<polyline fill="#FFFFFF" points="266.221,398.189 266.221,278.088 274.765,277.977 274.765,389.811 			"/>
			<polygon fill="#FBBE31" points="256.961,327.589 256.961,353.219 221.225,353.219 205.484,337.475 205.484,261.552 
				221.574,245.463 327.696,245.463 327.696,268.63 230.479,268.63 230.256,327.589 			"/>
			<polygon fill="#FFFFFF" points="223.43,258.159 323.912,257.872 323.912,249.247 223.142,249.247 209.269,263.12 
				209.269,335.906 217.494,332.354 217.751,264.104 			"/>
			<polygon fill="#FBBE31" points="364.691,268.408 395.546,268.408 395.546,277.199 422.641,277.199 422.641,261.552 
				406.375,245.288 364.691,245.288 			"/>
			<polygon fill="#FFFFFF" points="409.095,264.901 409.095,273.413 399.333,273.413 399.333,268.268 			"/>
			<polygon fill="#FFFFFF" points="404.809,249.073 368.477,249.073 368.477,257.872 404.691,257.872 			"/>
			<polygon fill="#FBBE31" points="293.083,327.589 293.083,353.219 406.202,353.219 422.222,337.196 422.222,285.195 
				364.413,285.195 364.413,311.684 395.546,311.684 395.546,327.589 			"/>
			<polygon fill="#FFFFFF" points="408.983,331.761 401.774,339.771 296.868,339.771 296.868,331.367 399.333,331.367 
				399.333,307.9 408.943,298.287 			"/>
			<polygon fill="#FFFFFF" points="418.39,288.98 368.199,288.98 368.199,307.9 377.697,298.401 408.943,298.401 			"/>
			<polygon fill="#FFFFFF" points="346.481,319.03 346.43,309.568 337.528,312.163 337.528,319.03 			"/>
			<polygon fill="#FFFFFF" points="346.716,361.657 346.831,383.01 341.964,390.401 274.249,390.772 284.003,380.133 
				337.528,380.133 337.528,361.657 			"/>
			<polygon fill="#FFFFFF" points="225.28,339.771 252.959,339.771 252.959,331.367 227.855,331.367 			"/>
		</g>
		<polygon fill="#FBBE31" points="442.771,307.648 445.566,316.246 454.604,316.246 447.298,321.561 450.089,330.157 
			442.771,324.844 435.457,330.157 438.257,321.561 430.939,316.246 439.98,316.246 		"/>
	</g>
</g>
<g>
	<path fill="#BDC2BC" d="M534.992,588.913c-0.739,0-1.34-0.602-1.34-1.341v-16.588c0-0.739,0.601-1.339,1.34-1.339h52.497
		c0.738,0,1.339,0.6,1.339,1.339v16.588c0,0.739-0.601,1.341-1.339,1.341H534.992z"/>
	<g>
		<path d="M558.027,571.51c-2.725,0-4.935,2.21-4.935,4.934c0,2.729,2.21,4.938,4.935,4.938c2.728,0,4.938-2.21,4.938-4.938
			C562.964,573.719,560.755,571.51,558.027,571.51z"/>
		<path fill="#FFFFFF" d="M558.027,580.461c-2.219,0-4.015-1.798-4.015-4.019c0-2.217,1.797-4.014,4.015-4.014
			c2.219,0,4.019,1.798,4.019,4.014C562.046,578.664,560.246,580.461,558.027,580.461z"/>
		<g>
			<path d="M559.402,575.293c0-0.219-0.182-0.398-0.398-0.398h-1.952c-0.221,0-0.401,0.181-0.401,0.398v1.985h0.528v2.338h1.694
				v-2.338h0.527L559.402,575.293L559.402,575.293z"/>
			<path d="M558.695,573.942c0,0.37-0.3,0.668-0.667,0.668c-0.371,0-0.67-0.299-0.67-0.668s0.301-0.67,0.67-0.67
				C558.395,573.272,558.695,573.571,558.695,573.942z"/>
		</g>
	</g>
	<path d="M587.175,569.198h-51.868c-1.157,0-2.102,0.943-2.102,2.102v15.96c0,1.158,0.943,2.1,2.102,2.1h51.868
		c1.158,0,2.102-0.94,2.102-2.1V571.3C589.275,570.141,588.332,569.198,587.175,569.198z M588.644,583.375h-37.865
		c-1.477,2.809-4.417,4.725-7.81,4.725s-6.333-1.916-7.809-4.725h-1.326V571.3c0-0.812,0.658-1.471,1.47-1.471h51.869
		c0.811,0,1.471,0.658,1.471,1.471V583.375L588.644,583.375z"/>
	<g>
		<path fill="#FFFFFF" d="M557.773,584.933c0.1,0.14,0.15,0.302,0.15,0.495c0,0.198-0.052,0.357-0.151,0.479
			c-0.057,0.066-0.14,0.131-0.25,0.187c0.168,0.061,0.294,0.155,0.378,0.289c0.085,0.13,0.127,0.289,0.127,0.477
			c0,0.192-0.049,0.365-0.145,0.519c-0.062,0.104-0.14,0.188-0.23,0.256c-0.104,0.078-0.225,0.137-0.369,0.164
			c-0.141,0.028-0.294,0.043-0.459,0.043h-1.466v-3.256h1.573C557.326,584.594,557.607,584.706,557.773,584.933z M556.009,585.151
			v0.717h0.79c0.143,0,0.257-0.026,0.345-0.08s0.133-0.147,0.133-0.286c0-0.15-0.059-0.248-0.176-0.301
			c-0.1-0.033-0.228-0.05-0.383-0.05H556.009L556.009,585.151z M556.009,586.407v0.869h0.789c0.143,0,0.25-0.02,0.328-0.058
			c0.145-0.071,0.217-0.206,0.217-0.407c0-0.17-0.07-0.285-0.208-0.35c-0.077-0.034-0.188-0.056-0.327-0.056L556.009,586.407
			L556.009,586.407z"/>
		<path fill="#FFFFFF" d="M560.469,584.586h0.771l-1.089,2.034v1.222h-0.68v-1.222l-1.127-2.034h0.8l0.677,1.418L560.469,584.586z"
			/>
	</g>
	<g>
		<g>
			<path fill="#FFFFFF" d="M566.517,584.426h0.776l1.403,2.473v-2.473h0.692v3.545h-0.742l-1.443-2.517v2.517h-0.688
				L566.517,584.426L566.517,584.426z"/>
			<path fill="#FFFFFF" d="M570.425,584.797c0.285-0.292,0.647-0.437,1.09-0.437c0.591,0,1.02,0.195,1.295,0.587
				c0.148,0.221,0.229,0.439,0.242,0.661h-0.741c-0.048-0.17-0.106-0.299-0.183-0.384c-0.132-0.153-0.328-0.229-0.586-0.229
				c-0.265,0-0.473,0.107-0.623,0.324c-0.152,0.219-0.229,0.525-0.229,0.923c0,0.399,0.08,0.696,0.241,0.895
				c0.161,0.197,0.365,0.299,0.614,0.299c0.252,0,0.447-0.086,0.581-0.256c0.072-0.09,0.136-0.229,0.183-0.41h0.736
				c-0.066,0.387-0.226,0.699-0.486,0.943c-0.262,0.241-0.594,0.36-1.002,0.36c-0.505,0-0.901-0.163-1.19-0.489
				c-0.288-0.328-0.434-0.777-0.434-1.353C569.93,585.607,570.095,585.133,570.425,584.797z"/>
		</g>
	</g>
	<g>
		<path fill="#FFFFFF" d="M578.517,586.944c0.022,0.173,0.073,0.303,0.145,0.389c0.132,0.154,0.354,0.233,0.673,0.233
			c0.19,0,0.347-0.021,0.465-0.062c0.225-0.078,0.338-0.226,0.338-0.438c0-0.125-0.055-0.223-0.166-0.291
			c-0.113-0.066-0.285-0.126-0.525-0.178l-0.411-0.088c-0.401-0.093-0.679-0.188-0.829-0.294c-0.254-0.173-0.383-0.448-0.383-0.819
			c0-0.339,0.126-0.619,0.376-0.846c0.249-0.224,0.617-0.336,1.102-0.336c0.401,0,0.748,0.104,1.033,0.315
			c0.284,0.213,0.436,0.521,0.45,0.922h-0.762c-0.014-0.227-0.117-0.387-0.306-0.484c-0.126-0.065-0.282-0.096-0.473-0.096
			c-0.209,0-0.375,0.041-0.499,0.122c-0.126,0.083-0.188,0.196-0.188,0.346c0,0.135,0.062,0.236,0.186,0.303
			c0.079,0.043,0.246,0.096,0.502,0.155l0.665,0.156c0.292,0.068,0.513,0.162,0.655,0.276c0.227,0.179,0.339,0.435,0.339,0.771
			c0,0.351-0.134,0.637-0.4,0.863c-0.269,0.229-0.646,0.344-1.134,0.344c-0.5,0-0.891-0.112-1.176-0.339
			c-0.287-0.224-0.432-0.536-0.432-0.929L578.517,586.944L578.517,586.944z"/>
		<path fill="#FFFFFF" d="M582.542,584.325h0.896l1.34,3.791h-0.858l-0.249-0.778h-1.396l-0.255,0.778h-0.828L582.542,584.325z
			 M582.486,586.681h0.972l-0.479-1.49L582.486,586.681z"/>
	</g>
	<g>
		<circle cx="542.95" cy="579.28" r="7.771"/>
		<circle fill="#FFFFFF" cx="542.95" cy="579.278" r="6.322"/>
		<g>
			<path d="M542.597,578.348l-1.188,0.215c-0.041-0.237-0.131-0.416-0.273-0.537c-0.143-0.119-0.325-0.178-0.55-0.178
				c-0.302,0-0.537,0.104-0.72,0.31c-0.18,0.204-0.268,0.555-0.268,1.038c0,0.539,0.09,0.921,0.271,1.146
				c0.183,0.223,0.426,0.332,0.73,0.332c0.229,0,0.417-0.064,0.562-0.195c0.146-0.131,0.249-0.354,0.311-0.67l1.182,0.199
				c-0.123,0.545-0.354,0.954-0.707,1.229c-0.348,0.276-0.813,0.416-1.399,0.416c-0.668,0-1.197-0.21-1.594-0.629
				c-0.396-0.42-0.592-1.004-0.592-1.746c0-0.75,0.198-1.337,0.594-1.754c0.397-0.42,0.936-0.627,1.613-0.627
				c0.555,0,0.995,0.118,1.322,0.355C542.219,577.497,542.453,577.86,542.597,578.348z"/>
			<path d="M547.477,578.348l-1.188,0.215c-0.039-0.237-0.131-0.416-0.272-0.537c-0.144-0.119-0.325-0.178-0.551-0.178
				c-0.301,0-0.539,0.104-0.72,0.31c-0.178,0.204-0.268,0.555-0.268,1.038c0,0.539,0.09,0.921,0.271,1.146
				c0.182,0.223,0.426,0.332,0.729,0.332c0.229,0,0.417-0.064,0.562-0.195c0.146-0.131,0.25-0.354,0.311-0.67l1.183,0.199
				c-0.123,0.545-0.356,0.954-0.708,1.229c-0.349,0.276-0.814,0.416-1.4,0.416c-0.668,0-1.197-0.21-1.593-0.629
				c-0.396-0.42-0.592-1.004-0.592-1.746c0-0.75,0.196-1.337,0.595-1.754c0.396-0.42,0.934-0.627,1.612-0.627
				c0.554,0,0.994,0.118,1.322,0.355C547.1,577.497,547.337,577.86,547.477,578.348z"/>
		</g>
	</g>
	<g>
		<path d="M569.93,571.719c-2.61,0-4.727,2.115-4.727,4.726c0,2.612,2.115,4.729,4.727,4.729s4.728-2.113,4.728-4.729
			C574.658,573.834,572.546,571.719,569.93,571.719z"/>
		<circle fill="#FFFFFF" cx="569.93" cy="576.447" r="3.846"/>
		
			<rect x="569.488" y="571.955" transform="matrix(0.4225 -0.9063 0.9063 0.4225 -193.3242 849.4399)" width="0.924" height="8.958"/>
		<g>
			<path d="M569.58,579.151v-0.637c-0.444-0.013-0.877-0.14-1.129-0.277l0.197-0.776c0.279,0.153,0.672,0.292,1.101,0.292
				c0.382,0,0.646-0.151,0.646-0.409c0-0.252-0.223-0.41-0.709-0.578c-0.711-0.238-1.196-0.568-1.196-1.215
				c0-0.59,0.411-1.047,1.122-1.181v-0.631h0.65v0.584c0.443,0.015,0.742,0.115,0.968,0.222l-0.199,0.748
				c-0.167-0.079-0.478-0.232-0.954-0.232c-0.434,0-0.571,0.193-0.571,0.381c0,0.212,0.231,0.356,0.798,0.564
				c0.796,0.276,1.107,0.643,1.107,1.246c0,0.591-0.411,1.09-1.182,1.221v0.684L569.58,579.151L569.58,579.151z"/>
		</g>
	</g>
	<g>
		<path d="M581.185,571.784c-2.571,0-4.66,2.086-4.66,4.658c0,2.576,2.089,4.665,4.66,4.665c2.576,0,4.665-2.089,4.665-4.665
			C585.852,573.87,583.761,571.784,581.185,571.784z"/>
		<path fill="#FFFFFF" d="M581.185,580.238c-2.092,0-3.789-1.698-3.789-3.794c0-2.091,1.695-3.79,3.789-3.79
			c2.096,0,3.793,1.696,3.793,3.79C584.979,578.538,583.281,580.238,581.185,580.238z"/>
		<path d="M581.185,573.885c-1.016,0-1.874,0.733-2.182,1.746h-0.294l0.933,1.016l0.93-1.016h-0.348
			c0.215-0.37,0.563-0.616,0.96-0.616c0.65,0,1.179,0.646,1.179,1.443c0,0.793-0.526,1.44-1.179,1.44
			c-0.432,0-0.81-0.289-1.016-0.72h-1.196c0.278,1.068,1.167,1.854,2.214,1.854c1.273,0,2.311-1.155,2.311-2.576
			C583.496,575.034,582.464,573.885,581.185,573.885z"/>
	</g>
</g>
<g>
	<path d="M11.392,586.197c-0.652,0-1.248-0.138-1.786-0.41c-0.539-0.271-1.002-0.631-1.39-1.07c-0.388-0.441-0.688-0.949-0.9-1.521
		C7.106,582.619,7,582.032,7,581.432c0-0.626,0.114-1.226,0.338-1.797c0.226-0.574,0.533-1.08,0.927-1.521
		c0.393-0.44,0.857-0.792,1.396-1.053c0.538-0.26,1.119-0.39,1.746-0.39c0.653,0,1.248,0.138,1.786,0.417
		c0.538,0.275,0.999,0.641,1.382,1.09s0.682,0.959,0.893,1.528c0.213,0.567,0.318,1.144,0.318,1.726c0,0.636-0.113,1.24-0.338,1.812
		c-0.225,0.574-0.534,1.079-0.926,1.517c-0.394,0.437-0.856,0.785-1.391,1.045C12.598,586.066,12.018,586.197,11.392,586.197z
		 M7.675,581.432c0,0.539,0.091,1.057,0.271,1.555s0.437,0.939,0.768,1.324c0.33,0.383,0.724,0.69,1.178,0.92
		c0.455,0.229,0.955,0.344,1.502,0.344c0.563,0,1.072-0.117,1.527-0.355c0.454-0.239,0.846-0.555,1.17-0.946
		c0.327-0.392,0.578-0.834,0.755-1.328s0.265-0.997,0.265-1.51c0-0.538-0.092-1.057-0.277-1.555
		c-0.185-0.498-0.442-0.939-0.773-1.323s-0.723-0.691-1.179-0.919c-0.454-0.229-0.949-0.347-1.486-0.347
		c-0.565,0-1.076,0.119-1.536,0.357c-0.458,0.238-0.85,0.554-1.17,0.945c-0.322,0.394-0.571,0.836-0.748,1.33
		C7.762,580.422,7.675,580.923,7.675,581.432z"/>
	<path d="M23.14,578.299c-0.608-0.681-1.469-1.021-2.58-1.021c-0.918,0-1.587,0.175-2.006,0.523
		c-0.417,0.349-0.628,0.817-0.628,1.407c0,0.302,0.054,0.554,0.159,0.755c0.106,0.202,0.271,0.373,0.496,0.51
		c0.226,0.137,0.513,0.256,0.86,0.355c0.35,0.103,0.761,0.2,1.237,0.299c0.512,0.106,0.97,0.223,1.377,0.352
		c0.404,0.127,0.75,0.289,1.038,0.483c0.287,0.193,0.508,0.433,0.662,0.715c0.153,0.281,0.231,0.632,0.231,1.044
		c0,0.414-0.082,0.775-0.245,1.086c-0.163,0.31-0.392,0.565-0.688,0.773c-0.297,0.208-0.648,0.364-1.059,0.471
		c-0.411,0.104-0.867,0.157-1.37,0.157c-1.463,0-2.704-0.467-3.717-1.401l0.356-0.542c0.396,0.415,0.882,0.743,1.457,0.984
		c0.573,0.242,1.217,0.363,1.931,0.363c0.821,0,1.461-0.147,1.925-0.449c0.462-0.301,0.695-0.754,0.695-1.362
		c0-0.309-0.06-0.57-0.178-0.787s-0.303-0.404-0.551-0.562c-0.247-0.158-0.554-0.295-0.919-0.409
		c-0.364-0.115-0.796-0.225-1.29-0.33c-0.503-0.105-0.945-0.219-1.329-0.338c-0.384-0.117-0.708-0.269-0.972-0.449
		c-0.265-0.181-0.463-0.398-0.596-0.654s-0.199-0.578-0.199-0.967c0-0.423,0.082-0.797,0.246-1.124
		c0.163-0.326,0.391-0.603,0.682-0.826c0.291-0.226,0.64-0.395,1.044-0.511c0.406-0.114,0.854-0.17,1.351-0.17
		c0.607,0,1.15,0.09,1.627,0.27c0.477,0.183,0.909,0.459,1.296,0.828L23.14,578.299z"/>
	<path d="M25.734,586.131v-9.395h3.863c0.396,0,0.763,0.085,1.098,0.251c0.335,0.168,0.624,0.392,0.866,0.669
		s0.432,0.591,0.568,0.938c0.138,0.35,0.205,0.698,0.205,1.053c0,0.381-0.063,0.746-0.191,1.098
		c-0.128,0.354-0.31,0.666-0.542,0.939c-0.232,0.272-0.512,0.492-0.833,0.654c-0.323,0.164-0.683,0.245-1.078,0.245h-3.281v3.546
		L25.734,586.131L25.734,586.131z M26.408,581.963h3.241c0.309,0,0.586-0.064,0.833-0.191s0.456-0.3,0.629-0.516
		c0.171-0.218,0.303-0.463,0.396-0.741c0.092-0.276,0.139-0.565,0.139-0.866c0-0.309-0.056-0.602-0.165-0.879
		c-0.11-0.279-0.26-0.523-0.45-0.734c-0.189-0.213-0.41-0.381-0.661-0.504s-0.519-0.186-0.801-0.186h-3.162L26.408,581.963
		L26.408,581.963z"/>
	<path d="M33.963,586.131v-9.395h3.917c0.397,0,0.764,0.085,1.098,0.251c0.335,0.168,0.622,0.392,0.859,0.669
		c0.238,0.277,0.426,0.591,0.563,0.938c0.137,0.35,0.204,0.698,0.204,1.053c0,0.344-0.054,0.676-0.159,0.998
		c-0.105,0.324-0.254,0.611-0.45,0.867c-0.194,0.256-0.427,0.467-0.7,0.635c-0.273,0.169-0.572,0.277-0.899,0.331l2.341,3.651
		h-0.781l-2.274-3.547h-3.043v3.547L33.963,586.131L33.963,586.131z M34.636,581.963h3.295c0.299,0,0.571-0.064,0.819-0.197
		c0.247-0.132,0.458-0.307,0.636-0.522c0.176-0.216,0.311-0.462,0.402-0.741c0.093-0.277,0.141-0.562,0.141-0.853
		c0-0.3-0.056-0.589-0.166-0.866c-0.11-0.276-0.261-0.522-0.45-0.733c-0.189-0.212-0.409-0.382-0.661-0.511
		c-0.252-0.127-0.523-0.192-0.814-0.192h-3.201V581.963z"/>
	<path d="M48.899,585.521v0.608h-6.258v-9.395h6.139v0.61h-5.464v3.688h4.775v0.582h-4.775v3.903h5.583V585.521z"/>
	<path d="M50.421,576.736l3.281,5.199l3.308-5.199h0.742l-3.706,5.849v3.546h-0.674v-3.572l-3.69-5.821L50.421,576.736
		L50.421,576.736z"/>
	<path d="M59.126,586.131v-9.395h3.122c0.741,0,1.392,0.124,1.951,0.371c0.561,0.248,1.025,0.583,1.396,1.007
		c0.371,0.423,0.647,0.919,0.833,1.487c0.185,0.567,0.277,1.175,0.277,1.819c0,0.715-0.104,1.36-0.311,1.938
		s-0.505,1.07-0.894,1.481c-0.388,0.409-0.857,0.729-1.41,0.953c-0.552,0.224-1.167,0.337-1.845,0.337L59.126,586.131
		L59.126,586.131z M66.031,581.421c0-0.592-0.083-1.137-0.251-1.635c-0.167-0.498-0.412-0.93-0.733-1.291
		c-0.322-0.359-0.718-0.644-1.185-0.848c-0.466-0.202-1.005-0.303-1.614-0.303h-2.447v8.177h2.447c0.617,0,1.162-0.104,1.633-0.312
		c0.473-0.206,0.866-0.495,1.185-0.865c0.316-0.37,0.559-0.805,0.722-1.303S66.031,582.003,66.031,581.421z"/>
	<path d="M67.288,586.131l3.996-9.395h0.555l3.997,9.395h-0.728l-1.311-3.097h-4.484l-1.311,3.097H67.288z M71.562,577.557
		l-2.09,4.922h4.141L71.562,577.557z"/>
	<path d="M80.148,576.802h0.661l1.401,3.413l1.403-3.413h0.661l-1.654,3.956l1.971,4.577l3.6-8.601h0.742l-4.023,9.395h-0.62
		l-2.063-4.829l-2.077,4.829h-0.622l-4.008-9.395h0.728l3.612,8.601l1.945-4.577L80.148,576.802z"/>
	<path d="M91.05,578.008v8.123h-0.675v-9.394h0.518l6.588,8.27v-8.255h0.675v9.379h-0.622L91.05,578.008z"/>
	<path d="M100.297,586.131v-1.125h0.583v1.125H100.297z"/>
	<path d="M102.401,581.368c0-0.563,0.098-1.127,0.298-1.688c0.197-0.561,0.486-1.062,0.866-1.502c0.379-0.44,0.844-0.8,1.395-1.077
		c0.552-0.277,1.181-0.418,1.887-0.418c0.838,0,1.552,0.192,2.144,0.576c0.591,0.383,1.027,0.877,1.309,1.475l-0.556,0.318
		c-0.159-0.327-0.351-0.601-0.576-0.82c-0.224-0.221-0.466-0.399-0.727-0.537c-0.261-0.137-0.533-0.234-0.814-0.298
		c-0.281-0.062-0.562-0.092-0.833-0.092c-0.6,0-1.129,0.121-1.589,0.364c-0.458,0.241-0.847,0.558-1.164,0.944
		c-0.316,0.39-0.557,0.826-0.722,1.316c-0.164,0.489-0.245,0.981-0.245,1.475c0,0.558,0.097,1.086,0.291,1.59
		c0.195,0.502,0.459,0.945,0.795,1.328c0.334,0.383,0.731,0.691,1.19,0.919c0.458,0.229,0.951,0.346,1.48,0.346
		c0.282,0,0.571-0.036,0.866-0.106c0.296-0.069,0.583-0.18,0.86-0.329c0.277-0.15,0.536-0.343,0.774-0.576
		c0.238-0.232,0.437-0.51,0.594-0.827l0.569,0.278c-0.159,0.352-0.372,0.665-0.642,0.939c-0.271,0.271-0.57,0.502-0.906,0.688
		c-0.335,0.186-0.689,0.324-1.065,0.416c-0.375,0.092-0.742,0.139-1.104,0.139c-0.644,0-1.233-0.141-1.768-0.423
		c-0.532-0.281-0.994-0.649-1.382-1.104c-0.387-0.455-0.689-0.972-0.905-1.549C102.509,582.555,102.401,581.969,102.401,581.368z"/>
	<path d="M115.882,586.197c-0.652,0-1.247-0.138-1.785-0.41c-0.538-0.271-1.001-0.631-1.39-1.07
		c-0.388-0.441-0.688-0.949-0.898-1.521c-0.212-0.572-0.317-1.16-0.317-1.76c0-0.627,0.112-1.225,0.337-1.798
		c0.224-0.573,0.534-1.081,0.926-1.521c0.394-0.44,0.857-0.792,1.396-1.052c0.539-0.261,1.121-0.391,1.747-0.391
		c0.65,0,1.247,0.139,1.786,0.416c0.538,0.276,0.999,0.643,1.381,1.091c0.384,0.45,0.682,0.959,0.894,1.529
		c0.211,0.566,0.317,1.144,0.317,1.726c0,0.635-0.113,1.239-0.337,1.812c-0.226,0.572-0.534,1.077-0.928,1.514
		c-0.393,0.438-0.854,0.785-1.389,1.046C117.087,586.066,116.509,586.197,115.882,586.197z M112.164,581.432
		c0,0.539,0.09,1.057,0.271,1.555c0.181,0.498,0.436,0.939,0.767,1.324c0.331,0.383,0.724,0.69,1.178,0.92s0.954,0.344,1.501,0.344
		c0.564,0,1.073-0.117,1.527-0.355c0.456-0.239,0.845-0.555,1.171-0.946s0.578-0.834,0.754-1.328
		c0.175-0.494,0.266-0.997,0.266-1.51c0-0.538-0.094-1.057-0.278-1.555c-0.186-0.498-0.443-0.939-0.774-1.323
		s-0.724-0.691-1.178-0.919c-0.455-0.229-0.95-0.347-1.488-0.347c-0.563,0-1.075,0.119-1.534,0.357s-0.851,0.554-1.172,0.945
		c-0.321,0.394-0.57,0.836-0.748,1.33C112.252,580.422,112.164,580.923,112.164,581.432z"/>
	<path d="M130.659,586.131v-8.123l-3.704,6.338h-0.423l-3.705-6.338v8.123h-0.675v-9.394h0.675l3.916,6.722l3.916-6.722h0.675v9.394
		H130.659L130.659,586.131z"/>
</g>
</svg>
