<?xml version="1.0" encoding="utf-8"?>
<!-- Generator: Adobe Illustrator 16.0.0, SVG Export Plug-In . SVG Version: 6.00 Build 0)  -->
<!DOCTYPE svg PUBLIC "-//W3C//DTD SVG 1.1//EN" "http://www.w3.org/Graphics/SVG/1.1/DTD/svg11.dtd">
<svg version="1.1" id="Layer_1" xmlns="http://www.w3.org/2000/svg" xmlns:xlink="http://www.w3.org/1999/xlink" x="0px" y="0px"
	 width="595.275px" height="595.279px" viewBox="0 0 595.275 595.279" enable-background="new 0 0 595.275 595.279"
	 xml:space="preserve">
<metadata><?xpacket begin="﻿" id="W5M0MpCehiHzreSzNTczkc9d"?>
<x:xmpmeta xmlns:x="adobe:ns:meta/" x:xmptk="Adobe XMP Core 5.3-c011 66.145661, 2012/02/06-14:56:27        ">
   <rdf:RDF xmlns:rdf="http://www.w3.org/1999/02/22-rdf-syntax-ns#">
      <rdf:Description rdf:about=""
            xmlns:dc="http://purl.org/dc/elements/1.1/">
         <dc:format>image/svg+xml</dc:format>
         <dc:title>
            <rdf:Alt>
               <rdf:li xml:lang="x-default">NFL Logo Redesigns</rdf:li>
               <rdf:li xml:lang="en_us">NFL Logo Redesigns</rdf:li>
            </rdf:Alt>
         </dc:title>
         <dc:creator>
            <rdf:Seq>
               <rdf:li>Max O'Brien/Osprey Dawn</rdf:li>
            </rdf:Seq>
         </dc:creator>
      </rdf:Description>
      <rdf:Description rdf:about=""
            xmlns:xmp="http://ns.adobe.com/xap/1.0/"
            xmlns:xmpGImg="http://ns.adobe.com/xap/1.0/g/img/">
         <xmp:CreatorTool>Adobe Illustrator CS6 (Macintosh)</xmp:CreatorTool>
         <xmp:ModifyDate>2013-10-06T17:58:12+13:00</xmp:ModifyDate>
         <xmp:MetadataDate>2013-10-06T17:58:12+13:00</xmp:MetadataDate>
         <xmp:CreateDate>2013-10-06T17:58:11+13:00</xmp:CreateDate>
         <xmp:Thumbnails>
            <rdf:Alt>
               <rdf:li rdf:parseType="Resource">
                  <xmpGImg:width>256</xmpGImg:width>
                  <xmpGImg:height>196</xmpGImg:height>
                  <xmpGImg:format>JPEG</xmpGImg:format>
                  <xmpGImg:image>/9j/4AAQSkZJRgABAgEASABIAAD/7QAsUGhvdG9zaG9wIDMuMAA4QklNA+0AAAAAABAASAAAAAEA&#xA;AQBIAAAAAQAB/+4ADkFkb2JlAGTAAAAAAf/bAIQABgQEBAUEBgUFBgkGBQYJCwgGBggLDAoKCwoK&#xA;DBAMDAwMDAwQDA4PEA8ODBMTFBQTExwbGxscHx8fHx8fHx8fHwEHBwcNDA0YEBAYGhURFRofHx8f&#xA;Hx8fHx8fHx8fHx8fHx8fHx8fHx8fHx8fHx8fHx8fHx8fHx8fHx8fHx8fHx8f/8AAEQgAxAEAAwER&#xA;AAIRAQMRAf/EAaIAAAAHAQEBAQEAAAAAAAAAAAQFAwIGAQAHCAkKCwEAAgIDAQEBAQEAAAAAAAAA&#xA;AQACAwQFBgcICQoLEAACAQMDAgQCBgcDBAIGAnMBAgMRBAAFIRIxQVEGE2EicYEUMpGhBxWxQiPB&#xA;UtHhMxZi8CRygvElQzRTkqKyY3PCNUQnk6OzNhdUZHTD0uIIJoMJChgZhJRFRqS0VtNVKBry4/PE&#xA;1OT0ZXWFlaW1xdXl9WZ2hpamtsbW5vY3R1dnd4eXp7fH1+f3OEhYaHiImKi4yNjo+Ck5SVlpeYmZ&#xA;qbnJ2en5KjpKWmp6ipqqusra6voRAAICAQIDBQUEBQYECAMDbQEAAhEDBCESMUEFURNhIgZxgZEy&#xA;obHwFMHR4SNCFVJicvEzJDRDghaSUyWiY7LCB3PSNeJEgxdUkwgJChgZJjZFGidkdFU38qOzwygp&#xA;0+PzhJSktMTU5PRldYWVpbXF1eX1RlZmdoaWprbG1ub2R1dnd4eXp7fH1+f3OEhYaHiImKi4yNjo&#xA;+DlJWWl5iZmpucnZ6fkqOkpaanqKmqq6ytrq+v/aAAwDAQACEQMRAD8A9U4q7FXYq7FXYq7FXYq7&#xA;FXYq7FXYq7FXYq7FXYq8z/PX8zb3yVoFla6PwPmLX5mtdNeQclhRF5T3JQ7N6SstFPcitRtl2DCc&#xA;kxAdWrNlGOBkej44vvNln/iaaW+1LVX1OGQg+YPrcjTiYEcmAH2VDDan3ZsJDSRmcZEttuK+vucG&#xA;J1MoCYMd/wCGunve5flz/wA5K+abKGO08wxRea9NjAUarp7pFqCqNgZ4JCkcjU8GU+NTlZ7NnLfG&#xA;RMeXP5Ng7QiNsgMD58vm9Avf+cm/KcLFINE1aduzMLKFCK0/3Zch/wDhMh/Jmf8Am/aP1sv5Rw9/&#xA;2H9SHX/nJ/Q2PFfLuosT0Alsif8Ak/kx2VnPQfMMT2lh7z8ijrH/AJyT8pSsFvNH1ax/mkaO2mT6&#xA;PQnkk/4TIy7L1A/h+0Jj2lgP8X3vmL84fzC17XfMF1q6xy8Zrib0GuLditvZxtwtooxMpReSDm/H&#xA;q5OXS49PiAjGpG+ImPyG4ao8OfISZekfSBL5nYpV5G/NrW9Gu444r+bSGLfDd2L+lFyPee2PKCQf&#xA;6yEe2RxajDlPDmiB/Sjt82WXBlxjixSJ/onf5PpnyN/zkUqSw6d56WO3WUqlv5igHG2YnYC6j39A&#xA;n+dSUP8AkZDW9mzw7j1Q7/1stJr45djtLue5o6SIskbB0cBkdTUEHcEEZrnPbxV2KuxV2KuxV2Ku&#xA;xV2KuxV2KuxV2KuxV2KuxV2KuxV2KuxV2KqN7e2djay3d7PHa2kK8priZ1jjRR3Z2IUD54q8k8z/&#xA;APOT/kLT5ZLTy5Dc+atQSq0sF4WisOz3clEof5kDZdh0+TIagCWrLnhjFyNPEvOfmvzN56812Gv6&#xA;9DaadHp8Mtvp2m2zPKw9Uks0kr0DPT+VaUHTOg7O7MlimJzI9zo9d2jHLAwiD73gWp8v0jdcq8vW&#xA;k5V615HOez/XL3l3uH6B7gp29zcW0yzW8jRSoaq6Egj6RkITlE3E0WU4CQoiw9O8t6xpnmbThbar&#xA;FDLfRfC8bhauP9+J3HvTOq0Wpx6qHDkAMx+LDzer089NPigSIn8Uo6p+XPl/i00dw9gg68mDRj/g&#xA;9/8Ahshn7Gw8weD7vt/Wyw9rZeRHF97D9Rki0mb09J1ue5cH4jEGijUf64c8voFM0uYjCax5DL3b&#xA;D793b4gcovJjA9+5+5XsvzA8y21A8y3KD9mZQf8Ahl4t+OWYu188eZ4ve15Oy8MuQr3IyTzL5V1U&#xA;U1bSjbzHrdWpFanufs/jyy463T5v7yFHvj+P1tQ0efF/dzsdx/H6mQ6JqEK2YsbG8g1izoUS2nb0&#xA;bkIRThxccZB2345stLmHDwQlHJHuO0q7t+f2Ov1GI8XFKJxy7xvH3+X2vT/yh/O+58jX8Hl/zCl2&#xA;PJtwQltNcKXbTHOwUSKZFe2P8vKqdttjpdfpOA8UYyEfPp8dw7fRanjFSIMvLr8Ob6wt7i3uYI7i&#xA;2lSa3mUPDNGwdHRhVWVhUEEdCM1znqmKuxV2KuxV2KuxV2KuxV2KuxV2KuxV2KuxV2KuxV2KoHWt&#xA;c0bQ9Pl1LWL6DT7CH+8ubmRY0HgKsRuew6nFXhfm/wD5yiluney/LrSvr+/E6/qSvDZj3ih+GWX5&#xA;njTwIzM02gy5vpG3eeTiajW48XM79zyLXW17zPci+856zca3Kh5pbyN6NlFT/fdvHxjG3fv3zf6f&#xA;sbFDefqP2Olz9q5J7Q9I+1j+qeevL+kx/VrFVuZEFFit6LEvsXHw/wDAg5PP2rhwjhh6j5cmOHs3&#xA;LlNy29/Nidv541C48xWV9fMqWsDlfRQUVUkHFj4kgb75p4dqTlnjOf0jp73aS7OhHDKMfqP6EP54&#xA;0trLXZpVFba9/wBIhcdDz3YV/wBbKu1MHBmJ/hluGzs7Nx4gOsdix7Nc57YNNxirbyO+7sWI6VNc&#xA;JJPNAAC3Al2KuxV2Kpzpvm7X9PAWK6aSIf7pm/eLTw+LcfQczcHaObHylY7ju4ebQ4snMUfLZ6D5&#xA;J/PbXNAdEsbyfR1BqYov9IsGJ687SSqrXuUo3+VmQdRp831x4Jd8eXxDSMGfF9EuOPdLn8301+XP&#xA;/ORGia81tYeYlh0y/uSEtdQhflp1y7GiqrsS0MjHYJIeuwYnbMbUaKWMcX1QP8Q5ORg1cch4fpn3&#xA;F7BmG5TsVdirsVdirsVdirsVdirsVdirsVdirsVWzTRQxPNM6xxRqXkkchVVVFSzE7AAYq8P89/8&#xA;5M6fBNNpP5f2i6/qKEpLq0pK6ZA3s4o05HglB4McytNo8mY+kfHo4+o1WPEPUfh1eJauuseZNRGr&#xA;ecdTl1y/SpiSX4LWAHfjDbrRFH0b50el7Ix495eqX2Og1PamTJtH0j7WP63+YGj6dygtP9NuF2pG&#xA;aRL837/7HDqu18WPaPql9nzXT9l5Mm8vSPtYDrPmnWdXJF1Nxg7W8fwxj5j9r6a5zup1+XN9R27h&#xA;yd7p9FjxfSN+/qlGYblOxVNYtfnbThpt8n1uzTeEMeMsRG37t96D2IIzLjqyYeHP1R6d49xcU6UC&#xA;fHH0y+w+8JW1KnjuvYnrTMQuUGsVdirsVdiq7g3DnT4K8a+/XDW1oveluBKL0yzjvbyO1aX0XmPC&#xA;FuNVMh2QNuKAnauXYMYnIRJq+Xvas2QwjxVdfch5Y5IpHikUpJGSrqdiGBoQcqlEg0ebYCCLCY6H&#xA;r91pcrAAT2U3w3Vm+6SKdjseh98ytLq5Yj3xPMdC4+p0sco7pDke59gf846fmzLfvbeUtRuGurS4&#xA;haTy5eymsoEIrLYysSSzRoC0ZP7IYV+EZZrdPGNZMf8Adz5eXk16TPKVwn9cft830BmA5rsVdirs&#xA;VdirsVdirsVdirsVdirsVYV+Y/5ueUPIVqv6Uma51a4WtjotrSS7nPQUT9hK/ttQeFTtkoxMjQFl&#xA;jKQiLOwfNnnTzr52/MOU/wCI5v0doPLlB5as3IiIBqpu5RRpmG232a9AM6HR9i/xZfl+t0er7W6Y&#xA;/n+pjuq6zo/l+yX1eMSgUgtYgAzU7KopQe+bbPqcWnjvt3AOsw6fJnltv3l5p5g85arrBaMt9Xsj&#xA;0tozsR/lt1b9Wctq+0smbblHu/W9HpdBjxb85d6QZr3OdirsVdirsVdirsVdirsVdiqrb3EsEnOM&#xA;ivQqwDKR4MrVBHzyUJmJsMZQEhRZf5T1HyFd3kNv5jtY9NjZgJdQiSaaNV7sYUYtX2H4ZssWq0/C&#xA;ePGOLy5H9Tr8umz8Q4Z+n7Q9E/ML8n/LlpoWl+Y/Juo2+p6VftWz1aFWijjljIZoZ1LPxbjyYVAY&#xA;cSCBTeeAQ1FiMRDINx3Mcxng3kTPGdj3sK84+Sbi+uTqmk8ZWmAaaAEDkafbQ/ZNR1zN7S7MOSXi&#xA;Y975j9IcTQdoiA4Mm1dWAXFvPbzNDPG0UyGjxuCrA+4Oc7OBiaIou9jMSFg2Hof5O63Lpmq2t36h&#xA;VdM1TTrtPZGuBHcfQ0VVPzzYac8WmyRP8PCR+lwc44dRjkOtgv0NzWuwdirsVdirsVdirsVdirsV&#xA;diq2aaKGJ5pnWOKNS8kjkKqqoqWYnYADFXz5+Y3/ADklcXk8+g/lqEnkQmO780yqGtYSNiLVCKTP&#xA;/lH4fAMDUZmk0OTOfTy73F1WshhG/PueRWmmiK6nv7qeXUNWuzzvNSumMk8rHrVmqQPbOs0mhx4B&#xA;6efe8zqdZPMd+Xcknmvzta6SGtbWk+o03Xqkde707/5OY2v7Tjh9Md5/d73I0XZ0svqltD73l95e&#xA;3V7cPc3UrSzPuzt+r2GcplyynLikbL0uPHGAqIoKGVs3Yq7FXYq7FXYq7FXYq7FXYq7FXYq7FVVL&#xA;m4SNokldYm3aMMQpqKbgbdMINIItMtP82eYLBUS3vH9KPZYpKOoA7UatB8sy8PaGbHsJbfNxcuhx&#xA;T3Md0z80arHrukWWpiJY7u3d7e8C70qAyHx4nele+2ZWuzjUYo5K9Q2P6Pg4+jwnBklC/Sdwl/lS&#xA;9gh1F7W5bha6hG1tLJ04F/sP/sWAzH0GSImYy+mY4T+tv1uMmHFH6oG36CflH5/j84+VYpbhguu6&#xA;cFtdbt+hE4XaVR/vucDmh+a9VOY2fDLFMxlzDfhzRyREo8izbKm12KuxV2KuxV2KuxV2Ksd88/mB&#xA;5V8j6K2r+Y71bW33WCIfFNPIB/dwxjd2/AdSQN8VfLXnv8yPOX5nSmO99TQvJwasGiRMRNcgGqvd&#xA;yChIPXh0Hz+LN5oOyDP1ZNo93Uun1nagh6ce8u9Lbe2gtoUgt41ihQUSNBQAfIZ00ICIoCg89KZk&#xA;bJssI83+fBDz0/SHBl+zNdruF8Vj9/8AKzRdo9rcNwx8+p/U7nQ9mX68nLu/W88ZixLMasdyT1Jz&#xA;miXoGsVdirsVdirsVdirsVdirsVdiqJt9Pup1DKFSM9JJXSJTTrQyFQfoy2GGUv2kD72uWWMf2b/&#xA;AHIpdIthvPqlpF4gGWQ/8k42H45aNPHrOI+Z+4NXjy6QkfkPvKc6X5C/Slt9YsdThmiDFGISQUYb&#xA;kUYKe/hmdg7J8WPFCYI9xcTN2n4ZqUCD8Faf8sNYRS0d1buB/MXX/jVsnLsPKOUo/awj2xjPMFJL&#xA;/wAqa9ZRmWS1MkAr++hIlSg7nhWn05gZez80BZjY7xu5mLXYpmgd/PZKMw3LTCTSJzpMWqQqXtuR&#xA;iuCN/TkXx/yWBG/jtmSdOfDGQfTyPkWgZx4hgefMeYUZ9M1G3gS4ntZYoJPsSujKp+kjK54JxHEY&#xA;kD3M45oSNAgl6X5C85eZ9M0yXVLFp7e/0+HgbgVVbi3X41BJ2Z4XUOtevQ1VnB2ohLUae5D14+R7&#xA;x3OsM44M9A+mfMdxfb35e+ax5t8kaL5j9MQvqdrHNNEpqqS04yqp8A4IGaV27IcVdirsVdirsVdi&#xA;ryj83/z+0LyMx0bS4hrfnCYUg0uI1SAsKh7pl+yKb8B8RH8o+LJ48cpnhiLJYzmIiyaD5xuY9e8w&#xA;603mTzlenVNaf+5jb/ee1StRHDGPhUL7Drvudz1Og7Kji9U95/YHm9b2kcnphtH70wzcOqef+evN&#xA;WoVk06zilt7cfDPdMjIX7FUJAovv3+XXne1dfPeEQRHqe933Zuih9ciCegYBnOu9dirsVdirsVdi&#xA;rsVdiraqzMFUEsTQAbkk4gWpLWKuxV2Ko+z0LV7xPUt7V2i/381Ej/4Nyq/jmRj0mWYuMdu/kPmW&#xA;jJqccDRO6LXy2q/71apYwU6qJvVYfRGGH45cNFX1TgPjf3NR1d/TCZ+Ffe9B8i6PDp+mSSQ3Qu47&#xA;p+ayKrIKL8OwbfrnRdlacY8ZIlxCToe0s5yTojhMUx1fzDY6Qoe+V0jc8UccW5H2Abl+GZWo1kMO&#xA;87px8Glll2iw+S/ivNZm1DRdfW3upyp+p3EbxRNxUKAWbkjHbwzSnKJ5TPFlqR6EUP1O2GIwxiGT&#xA;HcR1Bs/rQ+tWunXcvpaxb/oPVz9m6ReVrP7njWnz+/K9TjhM1lHhZO/+EtmnnOAvGfEx938QQNrP&#xA;5h8uwzfUb21ltZDyZ4poZVJXaqqx5V7fZyiEs2mB4JRMT3EFunHFqCOKMhLzBDIPLv5jfWZ47TVY&#xA;1jeQhUuY68eR2HNTWnzGbDR9s8REcgq+ocHV9k8IMoH4J3qev2El7NoKEvPLbzetIDRY/wB2TQnx&#xA;p92Z+fVwMzh6mJvy2cLDpZiIy9AR8d313+R31f8A5VH5UFujpEunxKPUHFmIBDSAH9mRquvsRnFv&#xA;Ws4xV2KuxV2KrZJI4o2kkYJGgLO7EBVUCpJJ6AYq+Yvzm/5ylWW5l8rfl7dxxuxMV75nkYLGlPtC&#xA;0J6+Hqf8ADs2Txw4pVYHvYZJ8Iuifc8l0AeWdPEkq6pBd6hckvd3ssyNNIzHkxNWJFW3/XXOs0UN&#xA;NhHplEy6mw8zrJZ8p9UZCPdRZBFcW8391Kkn+owb9WbOMweRt18okcwqZJi0QCKHcHqMUpbe+WtB&#xA;va/WLGJmPV1Xg3/BJxOYuXRYZ/VEfj3ORj1eWHKRY3qX5YWMlW0+5eBu0co5r94ow/HNXm7DgfoN&#xA;e/d2OLtiQ+sWxHVvJ+vaZyaa3MsC/wC74fjWniafEPpGafUdnZsXMWO8bu1wa/Fk5Gj3FJcwXMdi&#xA;rsVdirsVTbyrbC41+0Q9ELS/TEhkH4rmZoIcWaI+PyFuLrZ8OIn4fPZKcw3KbUKWAY0Wu5AqQPlh&#xA;CCmEOpQWf+8VshlH/HzcASuPdUP7tfpDH3zIjnEPoG/ed/s5D7fe0Swmf1HbuG37fuQ11f397IGu&#xA;Z5Lh+i82LfQAen0ZVkyzyH1ElshijAekAJhY+Wrue4hhupY7Jp2VI0mJMpLGgpEtX7/tUHvmTi0U&#xA;pSAkRG+/n8ufzpoyayMQTEGVd3L58nqeo3tp5f0T1Ao9G1RY4oi3EsQKKoIDbn5Z1mbLHT4r6RDz&#xA;OLHLPkrrJhE3mLUdcl9ZPL0d4oHAOySy8QDWgYUAzRS1k85sYhL5l3MdLDCK8Ux+QQ17Z6W0Ra/0&#xA;G80pqV+s2/J46+6SUAHyOVZceMj14p4/Mbj7WzHknfoyRn5Hn9iWS6vdWsP1S3vhe2P7MM8XID5J&#xA;KHC/7E5iy1EoDhjLih3Efr/Q5IwRkeIx4ZeR/UlLtyYtQLU1oNh9GYZNuUBSM0S0uLrVbaO3iM0i&#xA;uJPTBpUR/ERXtsMv0uOU8gERZ/U06mYjjJJpk/lfRNe1vWL2W2tm/SOpymxsYmqtbm+kEdKmlBGr&#xA;EsewzMx8Q8TNIVzHxl+pxJ8J8PFE3yPwj+t+iWh6e+m6Jp+nOyu9lbQ27Oi8VJijCEqvYbbDNW7J&#xA;G4q7FXYq7FUJq2kaZq+nzadqdtHeWFwOM9tKOUbrWtGU7EVHTFWJTfkd+UMqFG8o6YAe6W6Idv8A&#xA;KWhxVAXX/OOf5KXQIk8q2y1HH91JcQ7f885E398VSO+/5xL/ACWuCTb6ddWB7G3vJzT5es03TFUi&#xA;vP8AnD/y/HU6H5s1nTz+yszxXCD/AGKrb1HzOXw1WWPKUh8Wmenxy5xHyY9qH/OMf5sWFTpHmnTt&#xA;WjXol/BJasaf8YxPv82zMx9r549b94cWfZeGXSvcxPVfI/5z6CC2reTZr2Bf+PnSZEu6gdSIYzJJ&#xA;94GZ2Lt4/wAcfl+P0uFk7FH8Mvmx2Lzbo31g2t20mnXa7PbXsbQOp/yuXwj782WHtXBPrXv2/Y4G&#xA;Xs3NDpfu/FpxHJHIgeNg6NurKQQfkRmwBBFhwSCNiketeS9E1UM7RfV7k/7vhopJ/wApfst+v3zA&#xA;1PZuLLvVS7w5un7QyYtrsdxeea95N1fSOUjL9YtB0uIwaAf5a9V/V75zer7NyYd+ce8fpd/pu0Me&#xA;XblLuSHNe5zsVdirIvISc/MsKVpyjlFfnGc2XZIvOB5H7nX9pmsJ94+9jzAqSpFCNiM1pDsGsVdi&#xA;qMh1F7ZALNfRlI+O46y1/wAhv2B/q7++XRzGI9Ox7+v7GqWISPq3Hd0/anf5fWv1rzNHI/xfV0ec&#xA;13qfsA/e9cz+yMfHnBPQE/j5uF2pPhw0OtBOPM11da15pj0a0WNxag8BMT6Xq8eTMwAPLiNgPH2z&#xA;N1uSWfUDFGvT38rcTRwjhwHJK/V3c6QesaR540yze9l1FjBEQGS2mkUKp2qEARQoyjUafV4o8Zns&#xA;O4n7tm3Bn02SXCI7nvA+/dEt5o8w6D9VkuZV1XTbuMSW87Dg5FASvIVowrvWuWnXZtPRkfEhIWD+&#xA;P2tY0eHPYA4Jx5hGWC6F5rnjS38tX1xezu6R/UYHkaSRE9V1X0TV2VAWI41pvkZ6vR5d5wIPl+xl&#xA;HS6rHtGQI/HemNr+V9vPqZ0tPLmuDVEgF2+nyWd0k4gLmMSlGQNwLgry6VyAGg75fayJ1v8AR+xm&#xA;vkb8n9TvvMEHl79H3PlAX1tPcpqN7bkzypbNGsiQo7ElgZkPxkClSAccnaGLFHhwRon+JMNDkySv&#xA;NKwOj0X8j/yu1a5v9N85axc2kljZvdHTYLcSFppY3ltEuH5gKiFOUiKOR3U1FKZjaztOeeAiQA36&#xA;Xs+OGRkDb6BzWuwdirsVdirsVdirsVdirsVdirsVdiqWa75X8t+YLb6rrml2up2/aO7hSYD/AFeY&#xA;PE+4xV5N5i/5xT8j3DyXPlW+vPK1624S3c3NoW8XgmJY79hIB7Zdh1GTGbgSGrLghkFSFvLfM35X&#xA;fmz5QDy32mL5j0mOpOpaPVplUd5bRqSVpueFVHjm50/bhG2QX5j9Tqc/Y4O+M15Fjen6tpupRt9V&#xA;lWQrUSwt8LoehDo1GH3ZvcGpx5RcTbps2nniNSFMb8yfl7Z3nK50vja3W5MPSJz7fyH5bZrdb2PG&#xA;fqx+mXd0/Y7DSdqShtPeP2/tecXtld2Vw1tdxNDMn2kYUPzHiPfOZy4pQlwyFF6HHkjMXE2FDK2a&#xA;e+R5hF5psWJ2ZnQ/7ONlH4nNh2XKtRH8dHC7RjeCX46oLzBaG01u+tyKBJn4j/JY8l/4UjKNZj4M&#xA;so+ZbtLPixRPkirKy0TUoEQ3S6bfoAretUwSgbBuX7DfzV28MtxY8WUAcXBPz+k/qasmTLjN1xx8&#xA;uY/WnFt+WWozRiT69bFW3VoyzqfpouZsOxJkXxR+G7iT7YgDXDJR1H8t9ctoTLbvHdhRVo0qr/QG&#xA;2P35DN2LliLjUmeLtbFI0bigPKWtxaFrDT3UTmNo2glUD4lqymtDToV6Zjdn6oafLch0pv12nObH&#xA;UT1t6L5a8hW3mf8AMjQpLHV49LtdYdm+uOvqD1VjLCNFJSrTBSvEkb1+WZ3aEfDnHUYztL7/ANrh&#xA;6GXiQlgyDeP4+xO9Z8v3Fld6to1+Lzg0kyQ/X4DbytaszRxSBPTiFHVOWw+k9c2min4+E8UuIy5+&#xA;V9HW6uHg5RwjhA5efml/5KaLo+r6t5c0rzBZQ6lZDULq2ktJyQnM283pqSNx++Kdj8s02WJ/Ji+c&#xA;Z/rdtjkPzZrlKD2SxsLLTPytsZ7S1i0vUvKHnKGS+hhSRYUln1JYJEiMiRu0JtL5VFd+GzfEDmnd&#xA;qz78ugde86+bfPA+LTrmSHRNCl7SW2mlxcTIejRyXckgU/5OKqH5wWHnW61XyufKNq0moNJfWkt/&#xA;0jsoru29JrmRun7v7ar+0ygDFWe6BotjoWh6fotgpWy023itbcHc+nCgReR7kgbnxxVH4q7FXYq7&#xA;FXYq7FXYq7FXYq7FXYq7FXYq7FXYqwLz/wDkj5C86s13e2ZsNbp+61uwPoXSt2Lso4y/7MH2pkoT&#xA;MTYNFjKIkKIsPnrzv+W35ifl76lzqUP+IvLMdT+nLGMiaFB3urfcr7spK+Jrm80nbUhtk3Hf1dPq&#xA;eyAd8e3kxK9sNB80acGDLMn+6rmM/HGfDxHupzcZcWHVQ7/Mcx+O51WPLl00+7y73mXmHyzqGiT8&#xA;Zx6ls5pDcqPhb2P8re2ctrNDPAd949C9JpdZDMNufcgNMuvqmo2t1/viVJD8lYE5j4MnBOMu4hvz&#xA;Q44GPeGVfmZpvpalBqMYrFdpxdh05x9N/daU+WbbtvBUxMcpfeP2Or7HzXAwPOLDM0juE28u+YLz&#xA;Rr5JonJt2IFxBX4XXvt/MOxzL0eslgnY5dQ4ur0sc0aPPoXsF7fw2dk95IGaCMBnKipCHq1Pbqc7&#xA;TLlEI8R5B5LHiM5cI5sR81eWrTXbUaxojJLcUrIsZ2lA/U48Dmm1+ijqI+Li3P3/ALXbaLVywS8P&#xA;JsPu/YgvJF9eS6Tc2NrM0GrabMl/pUg2eOaFw6lfArIo+/MTQjxsE8J+obj8e/73J1h8LNHKPpOx&#xA;/H45PfvzHEXmLR/Ln5jadaUttcslGrtBBJSC7Rlif15qkf3lIEDAfY2Y1pj2Ln4Mhgev3+78cl7W&#xA;w8UBMdHmvla7l8r+ZzqJRms7W+h1iMoKkokitdRD/KKqeI/ys2Go0xEMsOkvWP0j8d7hYNQOPHLq&#xA;PSf0F675J/wX+aXnjzcmiX13a+XLpWHmTRpvq8Rvp2VoLe4t40iWaJIuHql2l5epSqjctyj0r0/8&#xA;p/Nem63puq2Om2aafp2gX76bpdrGKBrCKNPq06g/syjkVPhirOcVdirsVdirsVdirsVdirsVdirs&#xA;VdirsVdirsVdirsVdiriARQ7g9RirxD8zP8AnGrStUnm17yLKnl7zE1XltVFNPuj1KyRKCI2P8yC&#xA;niK75dg1E8Urgaac2CGQVIW8DvHuYNQn8r+cNMbS9ZX4ZLK4H7uUdA8L9GB/ZKn5E502l7QxamPB&#xA;MVI9Oh9zz+o0OTTnjgbA693vee+bPJlxo7m5tqzacx2bq0ZPZ/bwOajtDs2WE8Ud4fd73aaHtAZf&#xA;TLaf3spgtx5m8iRRDe6iQKhPX1oPhFf9cfrzbRh+a0gH8QH2j9f6XWSl+X1RP8J+4/qeYMrKxVgV&#xA;ZTQg7EEZypFPSg2r6fZS3t9BaRCsk7qi+1T1+jrk8OI5JiI5kteXIIRMj0eq6nY615l1vT/IfluP&#xA;1dR1Eqs7bhY4QKkyMAeKKo5OfAd650HbGr4Y+FH4+7udJ2VpeI+LL4Pctc/5xdsdD8m2svkyWWXz&#xA;TpsfK8ErkRap3eNkY8In3/dMOnRq/aGl0mrnhlceXUd7ttTpo5o0efQvl/zJJNpHmGLW9PDQ+uze&#xA;tBICrRzxnjPDKnVWr9oHvmbqsnh5Rnxcpff1BcTTY+PGcOTnH7uhDILPzxI1p/oFzJJp7Obi78uy&#xA;TsipO327i3jJ9J2Pfavyqcy8WoxcfjQAMjzieY8497jZMGTg8KZPCOUunuk9X/K/ybF5rs4fN2uA&#xA;af5Csed1fTXRRWufqxqYeILUiDL+9J+0BxFamlXaHawyQ4IWL5/qbND2YYT4p1ty/WxjUn/JLSR/&#xA;jSy86al/i7UXju7rTNIaWLibpo5LyL1ljSlA70DSKCfhpsc0TuXr/wCSP5seR/Mv5keZNM8vwzWd&#xA;rNZWA0e3ljEamDTojFIAoZuBUyjiv8or7Yq92xV2KuxV2KuxV2KuxV2KuxV2KuxV2KuxV2KuxV2K&#xA;uxV2KuxV2KsU/MT8sfKXn/Rjpuv2vJ0BNnfxUW5t3P7UUlD9KmqnuMVfJ/nTyl5p/LXUhpHmtf0j&#xA;5du2MWmeYVUmKRSP7u4U8uD8eob3oWG+b7Q9q7cGXePf+t0us7N/jxbHu/UlOhaKukXc62TeppV4&#xA;BNEteXpyeAPdWXofbNvpdN4Mjw/3ct/cf1F1ep1HixHF9cdveGGfmLoAs78alAtLe8NJAOizUqf+&#xA;DG/35pO2dJwT8Qcpff8Atdx2VqeOPAecfu/Yrfl7ZQW0F9r90P3dojJEfcLycj3pQD55PsfGIiWa&#xA;XKP4LDtTIZGOKPOX4D6w/wCcYPy2Oi+WZPOerRg+YfNIFwrMPihsX+OGNfD1NpD7cR+zmmy5DORk&#xA;eZdtixiEREcg9uytm+bP+co/yUmv7S485+XLVpZwOev2EIqziNaLexoOroBxlA+0u/Va5ZHJQMT9&#xA;J+/va5QsiQ5vj7K2xVFzcLA1usri3dgzQhjwLDoSvSuKp95deC7uI7K30i3lp8U9zcGR+KD7TuQy&#xA;qAPlmz0ZE5CEccT3k383XasGIMjOQ7gK+T7E/wCcbfy4tNL0x/OUlotpcavEYtMtljEZSx5hvVba&#xA;vK4KK/8AqBffKNbnjOdQAjAcq+9u0mGUI3MkyPP9T23MNy3Yq7FXYq7FXYq7FXYq7FXYq7FXYq7F&#xA;XYq7FXYq7FXYq7FXYq7FUv1/QNG8waRc6PrNpHfabdoUnt5RVSD0I7qw6qw3B3GKvkP8x/yy138p&#xA;dR9eMy6n+X91Lxtr0/HNZO52jnoBtXowFG9m2O27O7SOE8Mt4fc6zX9njKOKP1/exXznAmoeVLmS&#xA;AiVVVbiJ1NQVUgkin+RXN52lEZNOSN+v4+Dp+z5HHnAO3Rvyb5bOr2flTyuoNNfvbeO6ps31d3Nx&#xA;O3+xiXNbnPhaGMf5/wCndz8I8TWSP83+x95xRRxRJFEoSONQqIooAoFAAPbOfd4uxV2KvE/zO/5x&#xA;U8i+b7mbU9JdvLmszEtLJbRh7WVyalpLeqUY+KMviQTiryR/+cOvP9vMIkbRb6GtFuTdXsDU6cpE&#xA;9JwP9hXL4ZYAbwB+J/W0zxzJ2kR8A9M/Lv8A5xa07SXjn80T291GjK50awRxayOu4+szzH1rhR/J&#xA;RF8QRtlk9YTHgiBCJ7uvvPNrhpQJcUiZS8+nuD3pVVVCqAqqKKo2AA7DMRym8VdirsVdirsVdirs&#xA;VdirsVdirsVdirsVdirsVdirsVdirsVdirsVdiqG1PTNP1TT7jTtRt47uxu42iubaVQyOjChVgcV&#xA;fHv5m/lrfflTrn7sPd/l9qshWzuZDzNlK9SbeU/ynfiT1HuGrt+ze0PCPBP6D9n7HV9oaHxBxx+s&#xA;fann5GaXb3X5v6JHAo+r6Jpd5exKDUAMI7OPqf5ZjTL+2yAIQjyA/saeyASZyPMl9X5oXdOxV2Ku&#xA;xV2KuxV2KuxV2KuxV2KuxV2KuxV2KuxV2KuxV2KuxV2KuxV2KuxV2KuxV2KuxV2KuxVL/MGgaR5h&#xA;0W80XWLZbvTb6MxXED9Cp7g9VZTurDcHcb4q8W/I38qNd8h/mb5ltr+R7vS4dPgh0LUGBpJayzvJ&#xA;wYjb1IynFx8iNiMsnllIAE/SKDCGOMbrqbe85WzdirsVdirsVdirsVdirsVdirsVdirsVdirsVdi&#xA;rsVdirsVdirsVdirsVdirsVdirsVdirsVdirsVdirsVdirsVdirsVdirsVdirsVdirsVdirsVdir&#xA;sVdirsVdirsVdirsVdirsVdirsVdirsVdirsVdirsVdirsVdirsVdirsVdirsVdirsVdirsVdirs&#xA;VdirsVdirsVdirsVdirsVdirsVdirsVdirsVdirsVdirsVdirsVdirsVdirsVdirsVdirsVdirsV&#xA;dirsVdirsVdirsVdirsVdirsVdirsVdirsVdirsVdirsVdirsVdirsVdirsVdirsVdirsVdirsVd&#xA;irsVdirsVdirsVdirsVdirsVdirsVdirsVdirsVdirsVdirsVdirsVdirsVdirsVdirsVdirsVdi&#xA;rsVdirsVdirsVdirsVdirsVdirsVdirsVdirsVdirsVdirsVdirsVdirsVdirsVdirsVdirsVdir&#xA;sVdirsVdirsVdiqSQedPLc8kUcFy8sk5X0USCdmZH+zMAIyfQbtN/d/5WKoZPzF8ntbJdC9cW8iJ&#xA;IJWt7lVCShTG7loxwWT1F4FqBiaCpxVFT+cvLtuD9YuHgkHD/R5YJ0nPqCQpxhaMSsCIZOi/snwx&#xA;Vcnm/wAts8Ef15VluK+nC6ukgInS2IeNlDIwmlVKOAa/I0VUrTzz5Tu5LeO31KJ3u4nntlowMkcb&#xA;SKxXkBWhgfbr8JxVWn82aBA8iyXRrEI+ZWOVl5zBTHEGVSDK4kQrEPjNRtviq2Dzj5YnDelqMRZZ&#xA;oLZ4zVZFmuW4RRtGwDhmaq0I2IatOJoqnOKuxV2KuxV2KuxV2KuxV2KuxV2KuxV2KuxV2KuxV2Ku&#xA;xV2KuxV2KoHXr+TTtD1HUIlV5bO2muERq8S0UZcA0oaVGKvKbf8ANzzZKtvOJ9Ea1uWUIkcd010q&#xA;OVCyvF6oiC/vFLATEqD05BlCqRH/AJyD86CyuLn9G2MjRsvoQwo0jOjRibkwFzUVRgE4cw8nJFJ4&#xA;k4qqL/zkD5qcjha2PH0i3NoJ1DSBSeMdbirKaVBNDxDHj8NCFZVJ/g/6vB9Y/SVeFn9T9f6l6v1C&#xA;sn1P0OfxU/vOPD/SuvthVK/+QJ/4Z0r6ry9D6nD9V9D0vrNKRV9avwet6fHlz7U4fFwxVkh/wb9T&#xA;teXP679TvfqHo/o31/R9e39b0vq37ivq8KduvLFUtuv+VefWLv8ASX6R/Tn736361PrXp+jder/d&#xA;fufTp9Y48f2vsfsYqoaf/wAqr/QN7w+vfV/TuK+ty+t8uVrT0P8Ad3q+vw9Gn+7OeKptJ+gqT+l+&#xA;lvq/1uD0/R+qen+k6Q/VvT/a9Th6X2/3P+/Pj54qo6V/yrP65D/f/pr9JtT16ev+kPXt/rHL0/3H&#xA;L1+tP+LvS+Dlir0zFXYq7FXYq7FXYq7FXYq7FXYq7FXYq7FXYq7FXYq7FXYq7FXYq7FUl878f8F6&#xA;/wA/U4fo275ejT1Keg9eFduXh74q+Pb7/ldf/KvbPh+j+VIfS+rfUf0t6VIfRpw/0n/fNKfs8f2e&#xA;OKplpv8Aiv8AS+j/AFmn6J/R4/T3P9Kel9e+rLX696fxet9Y5U4fDy6/DgQhtT/xX/g/WPU+s/pb&#xA;63dfovj+kPrf6L9WD+45fuPR9LnTn+zyr8XHFX//2Q==</xmpGImg:image>
               </rdf:li>
            </rdf:Alt>
         </xmp:Thumbnails>
      </rdf:Description>
      <rdf:Description rdf:about=""
            xmlns:xmpMM="http://ns.adobe.com/xap/1.0/mm/"
            xmlns:stRef="http://ns.adobe.com/xap/1.0/sType/ResourceRef#"
            xmlns:stEvt="http://ns.adobe.com/xap/1.0/sType/ResourceEvent#">
         <xmpMM:OriginalDocumentID>uuid:9E3E5C9A8C81DB118734DB58FDDE4BA7</xmpMM:OriginalDocumentID>
         <xmpMM:DocumentID>xmp.did:FF7F117407206811822A8451A1857300</xmpMM:DocumentID>
         <xmpMM:InstanceID>xmp.iid:FF7F117407206811822A8451A1857300</xmpMM:InstanceID>
         <xmpMM:RenditionClass>proof:pdf</xmpMM:RenditionClass>
         <xmpMM:DerivedFrom rdf:parseType="Resource">
            <stRef:instanceID>xmp.iid:FE7F117407206811822A8451A1857300</stRef:instanceID>
            <stRef:documentID>xmp.did:FE7F117407206811822A8451A1857300</stRef:documentID>
            <stRef:originalDocumentID>uuid:9E3E5C9A8C81DB118734DB58FDDE4BA7</stRef:originalDocumentID>
            <stRef:renditionClass>proof:pdf</stRef:renditionClass>
         </xmpMM:DerivedFrom>
         <xmpMM:History>
            <rdf:Seq>
               <rdf:li rdf:parseType="Resource">
                  <stEvt:action>saved</stEvt:action>
                  <stEvt:instanceID>xmp.iid:F77F117407206811822A8451A1857300</stEvt:instanceID>
                  <stEvt:when>2013-10-06T17:09:14+13:00</stEvt:when>
                  <stEvt:softwareAgent>Adobe Illustrator CS6 (Macintosh)</stEvt:softwareAgent>
                  <stEvt:changed>/</stEvt:changed>
               </rdf:li>
               <rdf:li rdf:parseType="Resource">
                  <stEvt:action>saved</stEvt:action>
                  <stEvt:instanceID>xmp.iid:FF7F117407206811822A8451A1857300</stEvt:instanceID>
                  <stEvt:when>2013-10-06T17:58:12+13:00</stEvt:when>
                  <stEvt:softwareAgent>Adobe Illustrator CS6 (Macintosh)</stEvt:softwareAgent>
                  <stEvt:changed>/</stEvt:changed>
               </rdf:li>
            </rdf:Seq>
         </xmpMM:History>
      </rdf:Description>
      <rdf:Description rdf:about=""
            xmlns:xmpTPg="http://ns.adobe.com/xap/1.0/t/pg/"
            xmlns:stDim="http://ns.adobe.com/xap/1.0/sType/Dimensions#"
            xmlns:xmpG="http://ns.adobe.com/xap/1.0/g/">
         <xmpTPg:NPages>1</xmpTPg:NPages>
         <xmpTPg:HasVisibleTransparency>False</xmpTPg:HasVisibleTransparency>
         <xmpTPg:HasVisibleOverprint>False</xmpTPg:HasVisibleOverprint>
         <xmpTPg:MaxPageSize rdf:parseType="Resource">
            <stDim:w>209.999929</stDim:w>
            <stDim:h>210.001308</stDim:h>
            <stDim:unit>Millimeters</stDim:unit>
         </xmpTPg:MaxPageSize>
         <xmpTPg:PlateNames>
            <rdf:Seq>
               <rdf:li>Cyan</rdf:li>
               <rdf:li>Magenta</rdf:li>
               <rdf:li>Yellow</rdf:li>
               <rdf:li>Black</rdf:li>
            </rdf:Seq>
         </xmpTPg:PlateNames>
         <xmpTPg:SwatchGroups>
            <rdf:Seq>
               <rdf:li rdf:parseType="Resource">
                  <xmpG:groupName>Default Swatch Group</xmpG:groupName>
                  <xmpG:groupType>0</xmpG:groupType>
               </rdf:li>
            </rdf:Seq>
         </xmpTPg:SwatchGroups>
      </rdf:Description>
      <rdf:Description rdf:about=""
            xmlns:pdf="http://ns.adobe.com/pdf/1.3/">
         <pdf:Producer>Adobe PDF library 10.01</pdf:Producer>
      </rdf:Description>
      <rdf:Description rdf:about=""
            xmlns:xmpRights="http://ns.adobe.com/xap/1.0/rights/">
         <xmpRights:Marked>True</xmpRights:Marked>
         <xmpRights:WebStatement rdf:resource="http://www.ospreydawn.com"/>
         <xmpRights:UsageTerms>
            <rdf:Alt>
               <rdf:li xml:lang="x-default">This work is licensed under a &lt;a rel="license" href="http://creativecommons.org/licenses/by-nc-sa/3.0/"&gt;Creative Commons Attribution-NonCommercial-ShareAlike 3.0 Unported License&lt;/a&gt;.</rdf:li>
               <rdf:li xml:lang="en_us">This work is licensed under a &lt;a rel="license" href="http://creativecommons.org/licenses/by-nc-sa/3.0/"&gt;Creative Commons Attribution-NonCommercial-ShareAlike 3.0 Unported License&lt;/a&gt;.</rdf:li>
               <rdf:li xml:lang="en">This work is licensed under a &lt;a rel="license" href="http://creativecommons.org/licenses/by-nc-sa/3.0/"&gt;Creative Commons Attribution-NonCommercial-ShareAlike 3.0 Unported License&lt;/a&gt;.</rdf:li>
            </rdf:Alt>
         </xmpRights:UsageTerms>
      </rdf:Description>
      <rdf:Description rdf:about=""
            xmlns:cc="http://creativecommons.org/ns#">
         <cc:attributionName>Max O'Brien / Osprey Dawn</cc:attributionName>
         <cc:license rdf:resource="http://creativecommons.org/licenses/by-nc-sa/3.0/"/>
      </rdf:Description>
   </rdf:RDF>
</x:xmpmeta>
                                                                                                    
                                                                                                    
                                                                                                    
                                                                                                    
                                                                                                    
                                                                                                    
                                                                                                    
                                                                                                    
                                                                                                    
                                                                                                    
                                                                                                    
                                                                                                    
                                                                                                    
                                                                                                    
                                                                                                    
                                                                                                    
                                                                                                    
                                                                                                    
                                                                                                    
                                                                                                    
                           
<?xpacket end="w"?>
	</metadata>
<g id="Layer_2">
	<g id="_x37_Wl2mV_1_">
	</g>
</g>
<g id="Layer_1_1_">
	<g>
		<path d="M395.516,364.656c0,0-17.248,16.839-24.645,36.146c-7.396,19.303-9.038,50.927-9.038,50.927
			s-41.479-59.141-121.976-102.264S56.69,310.033,56.69,310.033s71.052-57.495,129.369-93.227
			c58.313-35.729,101.438-48.057,101.438-48.057s1.506-11.356,6.707-17.107c5.202-5.75,13.146-10.953,22.452-4.655
			c9.312,6.299,18.896,9.31,18.896,9.31s30.114-4.929,54.761,1.1c0,0,1.916-8.766,5.476-11.772
			c3.562-3.013,17.797-4.104,35.866,6.57c18.071,10.679,29.851,27.104,34.772,29.021c4.929,1.917,22.177,7.665,36.14,21.354
			c13.964,13.688,10.953,26.012,13.964,35.868c3.019,9.854,19.988,25.188,18.896,31.212c0,0-0.276-7.667-5.479-15.88
			c0,0,6.852,6.565,7.94,12.868c1.095,6.298-2.189,13.964-1.917,17.797c0,0,2.464,0,2.464-4.386c0,0,1.095,6.023-2.738,9.857
			c0,0-0.271,3.832-1.642,6.57c0,0,1.642-0.271,2.464-1.369c0,0-1.095,3.833-3.56,7.118c-2.469,3.285-3.018,12.595-6.305,14.512
			c-3.283,1.916-5.474,1.102-5.474,1.102s-2.19,10.396-4.107,13.963c-1.918,3.56-3.833,8.214-8.215,9.31
			c0,0,1.098-13.688-1.916-19.988c0,0-7.729,2.47-16.354,1.026c0,0-0.41,9.445-4.934,17.455c-4.518,8.009-7.188,9.854-7.188,9.854
			s-3.079-6.363-2.874-11.092c0.205-4.722-3.489-14.78-3.489-14.78s-4.726-0.614-5.341,5.545c0,0-0.41,3.691-3.08,6.156
			c0,0,2.465,0.271,3.218-0.063c0,0,0,2.668-1.778,4.037c0,0,3.016,0.063,3.562-0.341c0,0,0.139,3.896-2.53,5.196
			c0,0,3.423,0.348,4.038-0.204c0,0,0.205,2.119-1.849,3.695c0,0,5.956,0.896,7.256,0.342c0,0-0.957,5.064-6.438,7.939
			c0,0,2.53,8.762,10.062,9.104c0,0,1.779-3.146,3.216-7.938c1.438-4.791,2.812-7.05,2.812-7.05s0.89,5.812,1.773,8.277
			c0.896,2.469,2.123,9.993,0.688,13.763c0,0,2.122,1.229,2.805,3.013c0.688,1.779,1.782,2.395,1.92,3.422
			c0.136,1.026-1.505,5.065-3.081,7.255c-1.574,2.191-4.104,4.521-5.339,7.805c-1.229,3.284-10.611,16.021-27.175,16.297
			c-16.564,0.271-32.171-10.686-37.925-18.764C413.177,382.999,403.593,371.365,395.516,364.656z"/>
		<path fill="#1072C8" d="M74.353,304.149c0,0,70.58-58.954,123.209-89.259c53.253-30.666,95.007-43.812,95.007-43.812
			s0.686-10.952,4.177-16.702c3.488-5.749,13.353-7.394,18.274-3.08c4.929,4.312,18.688,7.188,18.688,7.188
			s24.646-2.875,43.534-1.025c18.892,1.853,26.899,3.9,34.909,6.366c8.009,2.464,23.614,10.271,35.114,12.73
			c11.499,2.464,42.916,13.963,56.882,31.827c13.961,17.862,2.464,24.229,14.578,39.633c12.115,15.396,16.018,20.736,13.554,26.08
			c0,0,2.052,7.803,1.025,13.963c-1.025,6.161-4.933,16.838-5.133,20.945c-0.205,4.104-3.902,8.008-7.604,6.358
			c-3.689-1.642-3.079-3.483-6.363-5.338c0,0-3.279,9.24-17.655,9.858c-14.374,0.613-31.624-1.233-39.638-5.343
			c-8.01-4.106-24.021-10.682-38.811,1.438c0,0,10.472-13.143,29.979-11.09c19.514,2.054,17.452,9.036,41.896,8.626
			c24.437-0.412,23.815-12.938,23.815-12.938s2.47,7.188,7.188,6.57c4.724-0.616,7.394-8.83,8.215-13.35
			c0.821-4.521,2.053-17.248-3.081-12.729c-5.134,4.519-7.187,6.363-7.803,12.319c-0.617,5.955-3.696,5.339-3.696,5.339
			s1.854-8.008,1.025-11.704c-0.82-3.696-11.91-10.062-17.863-11.089c-5.956-1.026-4.519,0.819-6.161,0.411
			c-1.644-0.411-4.724-4.521-4.929-8.42c-0.205-3.9-2.876-8.829-2.876-8.829s7.396,11.5,11.912,12.112
			c4.518,0.614,5.133-2.671,8.83-2.875c3.689-0.204,5.954,4.105,12.729,2.875c6.776-1.229,10.479-3.282,9.65-4.725
			c-0.82-1.438-8.007-11.5-10.882-15.195c-2.876-3.692-8.215-14.169-8.215-24.848c0-10.68-15.401-28.954-38.4-37.373
			s-69.2-24.024-93.021-26.899c-23.814-2.873-36.552-0.818-36.552-0.818s19.302,8.01,28.132,9.036
			c8.83,1.022,14.581,0.409,14.581,0.409s-7.6,6.157-16.84,8.216c-9.24,2.054-19.508,2.054-23.409-4.728
			c-3.902-6.772-8.83-10.678-13.963-12.729c-5.135-2.056-16.224-5.544-19.098-8.419c-2.875-2.875-8.625,0.205-9.447,6.979
			c-0.82,6.776-2.67,13.76,1.849,27.726c4.521,13.965,16.433,20.125,16.433,20.125s-12.938-3.899-17.866-10.062
			c-4.928-6.161-7.6-16.018-7.396-21.354c0,0-3.079,2.875-3.897,5.953c-0.82,3.079-44.018,19.78-75.772,39.494
			c-31.76,19.715-79.188,65.167-79.188,65.167s48.069,3.479,102.316,35.595c55.257,32.708,95.158,75.938,95.158,75.938
			s-14.797-27.2-18.899-62.798c-4.106-35.593,3.56-48.733,3.56-48.733s-4.104,32.584,6.021,62.43
			c10.132,29.844,23.271,43.533,24.646,51.747s3.285,18.346,8.215,20.534c0,0-0.549-18.896,11.499-40.802
			c12.048-21.897,1.646-31.76-3.833-35.86c-5.478-4.106-20.811-3.562-25.737-16.154c0,0,8.487,7.667,16.702,7.939
			c8.212,0.271,18.619-3.562,29.022,1.095c10.397,4.655,16.975,16.148,22.724,20.262c5.751,4.107,12.321,27.653,18.896,32.582
			c0,0-14.517-16.154-19.988-23c-5.475-6.844-22.449-14.784-22.449-14.784s5.75,6.023,3.562,10.132
			c-2.188,4.106-10.951,14.235-17.248,32.033c-6.305,17.797-8.229,39.62-9.058,44.823c0,0-43.996-63.346-139.618-105.333
			C151.194,304.84,74.353,304.149,74.353,304.149z"/>
		<path fill="#1072C8" d="M414.818,212.905c0,0,4.727,6.161,12.938,7.394c8.215,1.231,20.734-1.644,25.463,0.821
			c4.724,2.464,3.492,9.034,6.161,7.603c2.67-1.438,3.896-0.411,1.849-9.446c-2.054-9.035-3.696-12.525-6.571-10.678
			c0,0,2.259-2.875,4.729-0.205c2.465,2.669,6.979,14.58,11.5,18.271c4.518,3.696,11.499,4.934,16.017,9.445
			c4.521,4.519,0.821,14.785,6.366,16.43c0,0-4.729,0.205-5.955-4.312c-1.231-4.521-6.777-9.24-16.223-10.477
			c-9.446-1.229-6.981-5.545-6.981-5.545s-4.312,0.411-5.544,2.875c-1.233,2.464-1.849-1.85-3.081-4.519
			c-1.229-2.669-3.695-7.188-8.213-7.188c-4.521,0-9.036,5.339-9.036,5.339s-2.688-1.896-5.135-3.486
			c-2.361-1.541-5.441-2.669-8.623-4.312C421.412,219.335,414.818,212.905,414.818,212.905z"/>
		<path fill="#FFFFFF" d="M439.324,228.58c0,0,3.423-4.312,7.871-3.696c4.448,0.616,5.338,4.244,5.612,4.86
			c0.271,0.615,1.574,5.271,2.943,5.339c0,0-1.781-0.148-3.429-0.271c-1.849-0.141-4.038-3.016-6.563-4.38
			C442.88,228.87,439.324,228.58,439.324,228.58z"/>
		<path fill="#1072C8" d="M495.863,286.214c0,0-15.188-2.053-22.45-7.666c-7.256-5.608-18.346-12.594-38.736-14.646
			c-20.398-2.053-46.003,0.548-59.42,6.16c0,0,18.761-4.105,36.826-4.105c0,0,3.421,3.011,3.562,6.98
			c0.138,3.97-0.823,7.803-0.823,7.803s-14.234,0.958-31.211,5.203c-16.979,4.244-33.4,14.784-33.4,14.784
			s20.671-9.034,33.27-12.188c12.595-3.146,29.979-3.972,29.979-3.972s-3.013,4.518-6.298,14.647c0,0-20.944,6.435-33.812,17.66
			c0,0,17.107-11.229,32.854-14.785c0,0-5.062,14.232-5.611,24.095c-0.549,9.858,2.604,9.035,5.479,10.814
			c2.876,1.773,7.666,7.393,9.446,15.334c1.776,7.938,12.729,26.01,28.749,26.688c0,0-7.53-3.146-15.606-13.964
			c-8.077-10.812-9.445-24.641-14.374-30.665c-4.929-6.021-4.792-8.077-3.285-13.279c1.507-5.196,9.726-18.209,12.601-21.22
			c0,0-6.571,0.547-9.856,1.23c0,0,9.725-4.105,22.59-4.932c12.865-0.821,24.506,7.258,35.318,4.932c0,0-7.395-1.23-11.228-3.285
			c-3.833-2.058-17.11-7.396-31.073-4.521c0,0,5.2-5.612,8.481-7.529c0,0-6.158-1.365-15.059-1.506c0,0,11.497-2.188,26.009-0.547
			c14.516,1.646,15.881,10.271,34.641,10.403c0,0-7.666-2.325-10.135-3.832c-2.464-1.507-15.334-11.089-27.38-10.404
			c0,0,2.328-3.56,2.328-7.527c0,0-6.981-4.241-17.114-5.478c0,0,12.324,0.41,23.688,5.887
			c11.358,5.479,19.712,12.598,28.062,13.827C491.207,287.857,495.863,286.214,495.863,286.214z"/>
		<path fill="#FFFFFF" d="M509.142,318.658c0,0,3.012,7.529,2.464,16.021c0,0,4.792-5.341,6.299-15.744c0,0-2.604-1.646-3.561-3.696
			C514.344,315.236,513.251,317.844,509.142,318.658z"/>
		<path fill="#FFFFFF" d="M475.053,322.767c0,0,3.287,6.161,3.423,10.542c0.139,4.379,0.959,10.54,0.959,10.54
			s5.751-6.982,7.393-20.534C486.827,323.314,478.887,324.552,475.053,322.767z"/>
		<path fill="#1072C8" d="M463.144,389.025c0,0,1.229-2.601,5.612-4.381c4.382-1.78,18.619,0,20.673-4.106
			c0,0-0.822,3.975-3.012,5.749c-2.19,1.781-3.978,4.387-5.613,7.529c-1.646,3.149-6.297,8.352-12.188,10.678
			c-5.887,2.327-16.84,2.191-22.312-1.506c0,0,13.963,3.019,21.766-1.368c7.811-4.381,13.007-14.23,13.007-14.23
			s-7.395-0.002-9.854-0.275C468.76,386.841,464.927,387.519,463.144,389.025z"/>
		<path fill="#1072C8" d="M435.558,318.557c0,0-2.154,1.021-4.721,1.021c-2.568,0-8.112-2.258-9.858,1.137
			c-1.743,3.387,2.669,9.439,2.875,10.979c0,0,4.415-2.978,10.062-2.355c0,0-5.139,7.496-5.139,10.569c0,0,4.62-0.609,6.473,0
			c0,0-1.339,3.395-3.188,5.139c0,0,3.286,0.516,4.62,0.406c0,0-0.104,4.312-2.361,5.749c0,0,3.188,2.06,4.521,2.06
			c0,0-0.72,3.08-2.259,4.21c0,0,1.945,1.13,4.414,0.719c0,0,0.815,1.951-0.409,4.21c-1.233,2.259-5.751,4.521-5.751,4.521
			s5.338,5.854,15.19,7.188c0,0,6.364-6.979,10.371-13.45c0,0-3.082-8.106-4.21-16.633c-1.131-8.521-1.229-17.454-4.21-21.151
			c-2.979-3.69-4.21-6.564-8.312-5.544c0,0,2.979,4.209,5.136,10.78c2.152,6.572-0.105,12.63,2.667,21.665
			c2.771,9.034,5.545,12.834,5.545,12.834s-8.934-3.389-11.704-17.661C442.541,330.677,440.282,323.484,435.558,318.557z"/>
		<path fill="#FFFFFF" d="M420.638,336.66c0,0-0.823,1.232-0.479,2.328c0.341,1.1,0.956,2.942,3.016,3.975
			c0,0-0.069,1.712,0.404,2.527c0.481,0.82,1.576,1.574,1.576,1.574s0.136,1.847,0.957,3.559c0.822,1.719,1.438,1.574,1.438,1.574
			s0.063,2.258,0.344,3.354c0.271,1.095,1.505,2.532,1.505,2.532s0.137,2.053,0.89,3.354c0.754,1.301,2.875,3.08,2.875,3.08
			s5.139-0.821,6.161-4.175c0,0-4.447-0.069-5.682-1.985c0,0,2.188-3.08,2.259-3.765c0,0-3.08-0.688-4.449-2.669
			c0,0,2.736-2.604,2.736-4.383c0,0-3.9,0.817-5.815-1.025c0,0,2.941-3.424,3.629-4.586c0,0-3.426-0.548-5.746-0.411
			c0,0,0.609-5.817,2.527-8.624C428.783,332.896,422.76,334.264,420.638,336.66z"/>
		<path fill="#FFFFFF" d="M456.983,330.094c0,0,1.507,8.212,1.781,13.479c0.271,5.271,1.916,11.643,3.765,14.17
			c0,0,2.532-4.037,2.532-4.996c0,0,0.959,2.189,0.959,2.47c0,0.271,4.105-2.189,5.682-4.593c0,0-4.854,0.688-7.463-1.847
			c0,0,2.466-1.712,2.671-2.602c0,0-3.423-0.411-4.176-1.78c0,0,2.604-1.095,3.354-3.08c0,0-3.354-0.204-4.312-1.163
			c0,0,2.191-1.438,2.533-2.602c0,0-3.628,0.271-4.792-1.506c0,0,3.833-2.604,4.997-6.708
			C464.513,329.342,460.064,328.105,456.983,330.094z"/>
		<path fill="#FFFFFF" d="M463.349,360.823c0,0-5.202,9.993-9.446,13.278c-4.243,3.285-6.158,3.627-6.158,3.627
			s2.735,3.697,7.322,2.807c4.587-0.889,6.366-4.443,7.323-9.172C463.349,366.642,463.349,360.823,463.349,360.823z"/>
		<path fill="#FFFFFF" d="M465.677,367.26c0,0-0.41,5.062-2.396,8.078c-0.812,1.229,1.101,1.568,2.326,1.437
			c1.233-0.136,2.328-1.164,2.328-1.164s0.751,0.822,2.052,0.754c1.302-0.062,1.371-1.095,1.371-1.095s0.754,0.479,1.574,0.271
			c0.82-0.201,1.095-1.022,1.095-1.022s0.688,0.549,1.71,0.206c1.026-0.343,0.896-5.613,0.479-6.571c0,0-1.438,2.396-1.505,3.081
			c0,0-0.553-1.918-1.101-3.013c0,0-1.3,1.773-1.644,2.874c0,0-0.41-1.854-1.233-2.737c0,0-2.257,2.258-2.524,3.562
			C468.215,371.911,467.182,368.219,465.677,367.26z"/>
		<path fill="#FFFFFF" d="M478.681,368.426c0,0,0.549,3.354,0.206,4.442c-0.342,1.103,2.259,1.514,3.286,1.309
			c1.021-0.206,3.765-1.985,3.421-7.811c-0.341-5.812-0.957-7.46-0.957-7.46S481.146,367.26,478.681,368.426z"/>
		<path fill="#1072C8" d="M396.647,157.359c0,0,0.718-5.441,3.388-8.316c2.377-2.561,8.626-1.541,14.89,1.646
			c11.261,5.722,13.556,15.093,19.512,18.173s15.398,4.62,18.892,5.955c0,0-17.655-19.404-31.622-25.359
			c-13.966-5.955-22.28-5.231-24.539-2.669c-2.26,2.565-4.21,9.959-4.21,9.959L396.647,157.359z"/>
	</g>
</g>
<g>
	<path fill="#BDC2BC" d="M534.992,588.913c-0.739,0-1.34-0.602-1.34-1.341v-16.588c0-0.739,0.601-1.339,1.34-1.339h52.497
		c0.738,0,1.339,0.6,1.339,1.339v16.588c0,0.739-0.601,1.341-1.339,1.341H534.992z"/>
	<g>
		<path d="M558.027,571.51c-2.725,0-4.935,2.21-4.935,4.934c0,2.729,2.21,4.938,4.935,4.938c2.728,0,4.938-2.21,4.938-4.938
			C562.964,573.719,560.755,571.51,558.027,571.51z"/>
		<path fill="#FFFFFF" d="M558.027,580.461c-2.219,0-4.015-1.798-4.015-4.019c0-2.217,1.797-4.014,4.015-4.014
			c2.219,0,4.019,1.798,4.019,4.014C562.046,578.664,560.246,580.461,558.027,580.461z"/>
		<g>
			<path d="M559.402,575.293c0-0.219-0.182-0.398-0.398-0.398h-1.952c-0.221,0-0.401,0.181-0.401,0.398v1.985h0.528v2.338h1.694
				v-2.338h0.527L559.402,575.293L559.402,575.293z"/>
			<path d="M558.695,573.942c0,0.37-0.3,0.668-0.667,0.668c-0.371,0-0.67-0.299-0.67-0.668s0.301-0.67,0.67-0.67
				C558.395,573.272,558.695,573.571,558.695,573.942z"/>
		</g>
	</g>
	<path d="M587.175,569.198h-51.868c-1.157,0-2.102,0.943-2.102,2.102v15.96c0,1.158,0.943,2.1,2.102,2.1h51.868
		c1.158,0,2.102-0.94,2.102-2.1V571.3C589.275,570.141,588.332,569.198,587.175,569.198z M588.644,583.375h-37.865
		c-1.477,2.809-4.417,4.725-7.81,4.725s-6.333-1.916-7.809-4.725h-1.326V571.3c0-0.812,0.658-1.471,1.47-1.471h51.869
		c0.811,0,1.471,0.658,1.471,1.471V583.375L588.644,583.375z"/>
	<g>
		<path fill="#FFFFFF" d="M557.773,584.933c0.1,0.14,0.15,0.302,0.15,0.495c0,0.198-0.052,0.357-0.151,0.479
			c-0.057,0.066-0.14,0.131-0.25,0.187c0.168,0.061,0.294,0.155,0.378,0.289c0.085,0.13,0.127,0.289,0.127,0.477
			c0,0.192-0.049,0.365-0.145,0.519c-0.062,0.104-0.14,0.188-0.23,0.256c-0.104,0.078-0.225,0.137-0.369,0.164
			c-0.141,0.028-0.294,0.043-0.459,0.043h-1.466v-3.256h1.573C557.326,584.594,557.607,584.706,557.773,584.933z M556.009,585.151
			v0.717h0.79c0.143,0,0.257-0.026,0.345-0.08s0.133-0.147,0.133-0.286c0-0.15-0.059-0.248-0.176-0.301
			c-0.1-0.033-0.228-0.05-0.383-0.05H556.009L556.009,585.151z M556.009,586.407v0.869h0.789c0.143,0,0.25-0.02,0.328-0.058
			c0.145-0.071,0.217-0.206,0.217-0.407c0-0.17-0.07-0.285-0.208-0.35c-0.077-0.034-0.188-0.056-0.327-0.056L556.009,586.407
			L556.009,586.407z"/>
		<path fill="#FFFFFF" d="M560.469,584.586h0.771l-1.089,2.034v1.222h-0.68v-1.222l-1.127-2.034h0.8l0.677,1.418L560.469,584.586z"
			/>
	</g>
	<g>
		<g>
			<path fill="#FFFFFF" d="M566.517,584.426h0.776l1.403,2.473v-2.473h0.692v3.545h-0.742l-1.443-2.517v2.517h-0.688
				L566.517,584.426L566.517,584.426z"/>
			<path fill="#FFFFFF" d="M570.425,584.797c0.285-0.292,0.647-0.437,1.09-0.437c0.591,0,1.02,0.195,1.295,0.587
				c0.148,0.221,0.229,0.439,0.242,0.661h-0.741c-0.048-0.17-0.106-0.299-0.183-0.384c-0.132-0.153-0.328-0.229-0.586-0.229
				c-0.265,0-0.473,0.107-0.623,0.324c-0.152,0.219-0.229,0.525-0.229,0.923c0,0.399,0.08,0.696,0.241,0.895
				c0.161,0.197,0.365,0.299,0.614,0.299c0.252,0,0.447-0.086,0.581-0.256c0.072-0.09,0.136-0.229,0.183-0.41h0.736
				c-0.066,0.387-0.226,0.699-0.486,0.943c-0.262,0.241-0.594,0.36-1.002,0.36c-0.505,0-0.901-0.163-1.19-0.489
				c-0.288-0.328-0.434-0.777-0.434-1.353C569.93,585.607,570.095,585.133,570.425,584.797z"/>
		</g>
	</g>
	<g>
		<path fill="#FFFFFF" d="M578.517,586.944c0.022,0.173,0.073,0.303,0.145,0.389c0.132,0.154,0.354,0.233,0.673,0.233
			c0.19,0,0.347-0.021,0.465-0.062c0.225-0.078,0.338-0.226,0.338-0.438c0-0.125-0.055-0.223-0.166-0.291
			c-0.113-0.066-0.285-0.126-0.525-0.178l-0.411-0.088c-0.401-0.093-0.679-0.188-0.829-0.294c-0.254-0.173-0.383-0.448-0.383-0.819
			c0-0.339,0.126-0.619,0.376-0.846c0.249-0.224,0.617-0.336,1.102-0.336c0.401,0,0.748,0.104,1.033,0.315
			c0.284,0.213,0.436,0.521,0.45,0.922h-0.762c-0.014-0.227-0.117-0.387-0.306-0.484c-0.126-0.065-0.282-0.096-0.473-0.096
			c-0.209,0-0.375,0.041-0.499,0.122c-0.126,0.083-0.188,0.196-0.188,0.346c0,0.135,0.062,0.236,0.186,0.303
			c0.079,0.043,0.246,0.096,0.502,0.155l0.665,0.156c0.292,0.068,0.513,0.162,0.655,0.276c0.227,0.179,0.339,0.435,0.339,0.771
			c0,0.351-0.134,0.637-0.4,0.863c-0.269,0.229-0.646,0.344-1.134,0.344c-0.5,0-0.891-0.112-1.176-0.339
			c-0.287-0.224-0.432-0.536-0.432-0.929L578.517,586.944L578.517,586.944z"/>
		<path fill="#FFFFFF" d="M582.542,584.325h0.896l1.34,3.791h-0.858l-0.249-0.778h-1.396l-0.255,0.778h-0.828L582.542,584.325z
			 M582.486,586.681h0.972l-0.479-1.49L582.486,586.681z"/>
	</g>
	<g>
		<circle cx="542.95" cy="579.28" r="7.771"/>
		<circle fill="#FFFFFF" cx="542.95" cy="579.278" r="6.322"/>
		<g>
			<path d="M542.597,578.348l-1.188,0.215c-0.041-0.237-0.131-0.416-0.273-0.537c-0.143-0.119-0.325-0.178-0.55-0.178
				c-0.302,0-0.537,0.104-0.72,0.31c-0.18,0.204-0.268,0.555-0.268,1.038c0,0.539,0.09,0.921,0.271,1.146
				c0.183,0.223,0.426,0.332,0.73,0.332c0.229,0,0.417-0.064,0.562-0.195c0.146-0.131,0.249-0.354,0.311-0.67l1.182,0.199
				c-0.123,0.545-0.354,0.954-0.707,1.229c-0.348,0.276-0.813,0.416-1.399,0.416c-0.668,0-1.197-0.21-1.594-0.629
				c-0.396-0.42-0.592-1.004-0.592-1.746c0-0.75,0.198-1.337,0.594-1.754c0.397-0.42,0.936-0.627,1.613-0.627
				c0.555,0,0.995,0.118,1.322,0.355C542.219,577.497,542.453,577.86,542.597,578.348z"/>
			<path d="M547.477,578.348l-1.188,0.215c-0.039-0.237-0.131-0.416-0.272-0.537c-0.144-0.119-0.325-0.178-0.551-0.178
				c-0.301,0-0.539,0.104-0.72,0.31c-0.178,0.204-0.268,0.555-0.268,1.038c0,0.539,0.09,0.921,0.271,1.146
				c0.182,0.223,0.426,0.332,0.729,0.332c0.229,0,0.417-0.064,0.562-0.195c0.146-0.131,0.25-0.354,0.311-0.67l1.183,0.199
				c-0.123,0.545-0.356,0.954-0.708,1.229c-0.349,0.276-0.814,0.416-1.4,0.416c-0.668,0-1.197-0.21-1.593-0.629
				c-0.396-0.42-0.592-1.004-0.592-1.746c0-0.75,0.196-1.337,0.595-1.754c0.396-0.42,0.934-0.627,1.612-0.627
				c0.554,0,0.994,0.118,1.322,0.355C547.1,577.497,547.337,577.86,547.477,578.348z"/>
		</g>
	</g>
	<g>
		<path d="M569.93,571.719c-2.61,0-4.727,2.115-4.727,4.726c0,2.612,2.115,4.729,4.727,4.729s4.728-2.113,4.728-4.729
			C574.658,573.834,572.546,571.719,569.93,571.719z"/>
		<circle fill="#FFFFFF" cx="569.93" cy="576.447" r="3.846"/>
		
			<rect x="569.488" y="571.955" transform="matrix(0.4225 -0.9063 0.9063 0.4225 -193.3242 849.4399)" width="0.924" height="8.958"/>
		<g>
			<path d="M569.58,579.151v-0.637c-0.444-0.013-0.877-0.14-1.129-0.277l0.197-0.776c0.279,0.153,0.672,0.292,1.101,0.292
				c0.382,0,0.646-0.151,0.646-0.409c0-0.252-0.223-0.41-0.709-0.578c-0.711-0.238-1.196-0.568-1.196-1.215
				c0-0.59,0.411-1.047,1.122-1.181v-0.631h0.65v0.584c0.443,0.015,0.742,0.115,0.968,0.222l-0.199,0.748
				c-0.167-0.079-0.478-0.232-0.954-0.232c-0.434,0-0.571,0.193-0.571,0.381c0,0.212,0.231,0.356,0.798,0.564
				c0.796,0.276,1.107,0.643,1.107,1.246c0,0.591-0.411,1.09-1.182,1.221v0.684L569.58,579.151L569.58,579.151z"/>
		</g>
	</g>
	<g>
		<path d="M581.185,571.784c-2.571,0-4.66,2.086-4.66,4.658c0,2.576,2.089,4.665,4.66,4.665c2.576,0,4.665-2.089,4.665-4.665
			C585.852,573.87,583.761,571.784,581.185,571.784z"/>
		<path fill="#FFFFFF" d="M581.185,580.238c-2.092,0-3.789-1.698-3.789-3.794c0-2.091,1.695-3.79,3.789-3.79
			c2.096,0,3.793,1.696,3.793,3.79C584.979,578.538,583.281,580.238,581.185,580.238z"/>
		<path d="M581.185,573.885c-1.016,0-1.874,0.733-2.182,1.746h-0.294l0.933,1.016l0.93-1.016h-0.348
			c0.215-0.37,0.563-0.616,0.96-0.616c0.65,0,1.179,0.646,1.179,1.443c0,0.793-0.526,1.44-1.179,1.44
			c-0.432,0-0.81-0.289-1.016-0.72h-1.196c0.278,1.068,1.167,1.854,2.214,1.854c1.273,0,2.311-1.155,2.311-2.576
			C583.496,575.034,582.464,573.885,581.185,573.885z"/>
	</g>
</g>
<g>
	<path d="M11.392,586.197c-0.652,0-1.248-0.138-1.786-0.41c-0.539-0.271-1.002-0.631-1.39-1.07c-0.388-0.441-0.688-0.949-0.9-1.521
		C7.106,582.619,7,582.032,7,581.432c0-0.626,0.114-1.226,0.338-1.797c0.226-0.574,0.533-1.08,0.927-1.521
		c0.393-0.44,0.857-0.792,1.396-1.053c0.538-0.26,1.119-0.39,1.746-0.39c0.653,0,1.248,0.138,1.786,0.417
		c0.538,0.275,0.999,0.641,1.382,1.09s0.682,0.959,0.893,1.528c0.213,0.567,0.318,1.144,0.318,1.726c0,0.636-0.113,1.24-0.338,1.812
		c-0.225,0.574-0.534,1.079-0.926,1.517c-0.394,0.437-0.856,0.785-1.391,1.045C12.598,586.066,12.018,586.197,11.392,586.197z
		 M7.675,581.432c0,0.539,0.091,1.057,0.271,1.555s0.437,0.939,0.768,1.324c0.33,0.383,0.724,0.69,1.178,0.92
		c0.455,0.229,0.955,0.344,1.502,0.344c0.563,0,1.072-0.117,1.527-0.355c0.454-0.239,0.846-0.555,1.17-0.946
		c0.327-0.392,0.578-0.834,0.755-1.328s0.265-0.997,0.265-1.51c0-0.538-0.092-1.057-0.277-1.555
		c-0.185-0.498-0.442-0.939-0.773-1.323s-0.723-0.691-1.179-0.919c-0.454-0.229-0.949-0.347-1.486-0.347
		c-0.565,0-1.076,0.119-1.536,0.357c-0.458,0.238-0.85,0.554-1.17,0.945c-0.322,0.394-0.571,0.836-0.748,1.33
		C7.762,580.422,7.675,580.923,7.675,581.432z"/>
	<path d="M23.14,578.299c-0.608-0.681-1.469-1.021-2.58-1.021c-0.918,0-1.587,0.175-2.006,0.523
		c-0.417,0.349-0.628,0.817-0.628,1.407c0,0.302,0.054,0.554,0.159,0.755c0.106,0.202,0.271,0.373,0.496,0.51
		c0.226,0.137,0.513,0.256,0.86,0.355c0.35,0.103,0.761,0.2,1.237,0.299c0.512,0.106,0.97,0.223,1.377,0.352
		c0.404,0.127,0.75,0.289,1.038,0.483c0.287,0.193,0.508,0.433,0.662,0.715c0.153,0.281,0.231,0.632,0.231,1.044
		c0,0.414-0.082,0.775-0.245,1.086c-0.163,0.31-0.392,0.565-0.688,0.773c-0.297,0.208-0.648,0.364-1.059,0.471
		c-0.411,0.104-0.867,0.157-1.37,0.157c-1.463,0-2.704-0.467-3.717-1.401l0.356-0.542c0.396,0.415,0.882,0.743,1.457,0.984
		c0.573,0.242,1.217,0.363,1.931,0.363c0.821,0,1.461-0.147,1.925-0.449c0.462-0.301,0.695-0.754,0.695-1.362
		c0-0.309-0.06-0.57-0.178-0.787s-0.303-0.404-0.551-0.562c-0.247-0.158-0.554-0.295-0.919-0.409
		c-0.364-0.115-0.796-0.225-1.29-0.33c-0.503-0.105-0.945-0.219-1.329-0.338c-0.384-0.117-0.708-0.269-0.972-0.449
		c-0.265-0.181-0.463-0.398-0.596-0.654s-0.199-0.578-0.199-0.967c0-0.423,0.082-0.797,0.246-1.124
		c0.163-0.326,0.391-0.603,0.682-0.826c0.291-0.226,0.64-0.395,1.044-0.511c0.406-0.114,0.854-0.17,1.351-0.17
		c0.607,0,1.15,0.09,1.627,0.27c0.477,0.183,0.909,0.459,1.296,0.828L23.14,578.299z"/>
	<path d="M25.734,586.131v-9.395h3.863c0.396,0,0.763,0.085,1.098,0.251c0.335,0.168,0.624,0.392,0.866,0.669
		s0.432,0.591,0.568,0.938c0.138,0.35,0.205,0.698,0.205,1.053c0,0.381-0.063,0.746-0.191,1.098
		c-0.128,0.354-0.31,0.666-0.542,0.939c-0.232,0.272-0.512,0.492-0.833,0.654c-0.323,0.164-0.683,0.245-1.078,0.245h-3.281v3.546
		L25.734,586.131L25.734,586.131z M26.408,581.963h3.241c0.309,0,0.586-0.064,0.833-0.191s0.456-0.3,0.629-0.516
		c0.171-0.218,0.303-0.463,0.396-0.741c0.092-0.276,0.139-0.565,0.139-0.866c0-0.309-0.056-0.602-0.165-0.879
		c-0.11-0.279-0.26-0.523-0.45-0.734c-0.189-0.213-0.41-0.381-0.661-0.504s-0.519-0.186-0.801-0.186h-3.162L26.408,581.963
		L26.408,581.963z"/>
	<path d="M33.963,586.131v-9.395h3.917c0.397,0,0.764,0.085,1.098,0.251c0.335,0.168,0.622,0.392,0.859,0.669
		c0.238,0.277,0.426,0.591,0.563,0.938c0.137,0.35,0.204,0.698,0.204,1.053c0,0.344-0.054,0.676-0.159,0.998
		c-0.105,0.324-0.254,0.611-0.45,0.867c-0.194,0.256-0.427,0.467-0.7,0.635c-0.273,0.169-0.572,0.277-0.899,0.331l2.341,3.651
		h-0.781l-2.274-3.547h-3.043v3.547L33.963,586.131L33.963,586.131z M34.636,581.963h3.295c0.299,0,0.571-0.064,0.819-0.197
		c0.247-0.132,0.458-0.307,0.636-0.522c0.176-0.216,0.311-0.462,0.402-0.741c0.093-0.277,0.141-0.562,0.141-0.853
		c0-0.3-0.056-0.589-0.166-0.866c-0.11-0.276-0.261-0.522-0.45-0.733c-0.189-0.212-0.409-0.382-0.661-0.511
		c-0.252-0.127-0.523-0.192-0.814-0.192h-3.201V581.963z"/>
	<path d="M48.899,585.521v0.608h-6.258v-9.395h6.139v0.61h-5.464v3.688h4.775v0.582h-4.775v3.903h5.583V585.521z"/>
	<path d="M50.421,576.736l3.281,5.199l3.308-5.199h0.742l-3.706,5.849v3.546h-0.674v-3.572l-3.69-5.821L50.421,576.736
		L50.421,576.736z"/>
	<path d="M59.126,586.131v-9.395h3.122c0.741,0,1.392,0.124,1.951,0.371c0.561,0.248,1.025,0.583,1.396,1.007
		c0.371,0.423,0.647,0.919,0.833,1.487c0.185,0.567,0.277,1.175,0.277,1.819c0,0.715-0.104,1.36-0.311,1.938
		s-0.505,1.07-0.894,1.481c-0.388,0.409-0.857,0.729-1.41,0.953c-0.552,0.224-1.167,0.337-1.845,0.337L59.126,586.131
		L59.126,586.131z M66.031,581.421c0-0.592-0.083-1.137-0.251-1.635c-0.167-0.498-0.412-0.93-0.733-1.291
		c-0.322-0.359-0.718-0.644-1.185-0.848c-0.466-0.202-1.005-0.303-1.614-0.303h-2.447v8.177h2.447c0.617,0,1.162-0.104,1.633-0.312
		c0.473-0.206,0.866-0.495,1.185-0.865c0.316-0.37,0.559-0.805,0.722-1.303S66.031,582.003,66.031,581.421z"/>
	<path d="M67.288,586.131l3.996-9.395h0.555l3.997,9.395h-0.728l-1.311-3.097h-4.484l-1.311,3.097H67.288z M71.562,577.557
		l-2.09,4.922h4.141L71.562,577.557z"/>
	<path d="M80.148,576.802h0.661l1.401,3.413l1.403-3.413h0.661l-1.654,3.956l1.971,4.577l3.6-8.601h0.742l-4.023,9.395h-0.62
		l-2.063-4.829l-2.077,4.829h-0.622l-4.008-9.395h0.728l3.612,8.601l1.945-4.577L80.148,576.802z"/>
	<path d="M91.05,578.008v8.123h-0.675v-9.394h0.518l6.588,8.27v-8.255h0.675v9.379h-0.622L91.05,578.008z"/>
	<path d="M100.297,586.131v-1.125h0.583v1.125H100.297z"/>
	<path d="M102.401,581.368c0-0.563,0.098-1.127,0.298-1.688c0.197-0.561,0.486-1.062,0.866-1.502c0.379-0.44,0.844-0.8,1.395-1.077
		c0.552-0.277,1.181-0.418,1.887-0.418c0.838,0,1.552,0.192,2.144,0.576c0.591,0.383,1.027,0.877,1.309,1.475l-0.556,0.318
		c-0.159-0.327-0.351-0.601-0.576-0.82c-0.224-0.221-0.466-0.399-0.727-0.537c-0.261-0.137-0.533-0.234-0.814-0.298
		c-0.281-0.062-0.562-0.092-0.833-0.092c-0.6,0-1.129,0.121-1.589,0.364c-0.458,0.241-0.847,0.558-1.164,0.944
		c-0.316,0.39-0.557,0.826-0.722,1.316c-0.164,0.489-0.245,0.981-0.245,1.475c0,0.558,0.097,1.086,0.291,1.59
		c0.195,0.502,0.459,0.945,0.795,1.328c0.334,0.383,0.731,0.691,1.19,0.919c0.458,0.229,0.951,0.346,1.48,0.346
		c0.282,0,0.571-0.036,0.866-0.106c0.296-0.069,0.583-0.18,0.86-0.329c0.277-0.15,0.536-0.343,0.774-0.576
		c0.238-0.232,0.437-0.51,0.594-0.827l0.569,0.278c-0.159,0.352-0.372,0.665-0.642,0.939c-0.271,0.271-0.57,0.502-0.906,0.688
		c-0.335,0.186-0.689,0.324-1.065,0.416c-0.375,0.092-0.742,0.139-1.104,0.139c-0.644,0-1.233-0.141-1.768-0.423
		c-0.532-0.281-0.994-0.649-1.382-1.104c-0.387-0.455-0.689-0.972-0.905-1.549C102.509,582.555,102.401,581.969,102.401,581.368z"/>
	<path d="M115.882,586.197c-0.652,0-1.247-0.138-1.785-0.41c-0.538-0.271-1.001-0.631-1.39-1.07
		c-0.388-0.441-0.688-0.949-0.898-1.521c-0.212-0.572-0.317-1.16-0.317-1.76c0-0.627,0.112-1.225,0.337-1.798
		c0.224-0.573,0.534-1.081,0.926-1.521c0.394-0.44,0.857-0.792,1.396-1.052c0.539-0.261,1.121-0.391,1.747-0.391
		c0.65,0,1.247,0.139,1.786,0.416c0.538,0.276,0.999,0.643,1.381,1.091c0.384,0.45,0.682,0.959,0.894,1.529
		c0.211,0.566,0.317,1.144,0.317,1.726c0,0.635-0.113,1.239-0.337,1.812c-0.226,0.572-0.534,1.077-0.928,1.514
		c-0.393,0.438-0.854,0.785-1.389,1.046C117.087,586.066,116.509,586.197,115.882,586.197z M112.164,581.432
		c0,0.539,0.09,1.057,0.271,1.555c0.181,0.498,0.436,0.939,0.767,1.324c0.331,0.383,0.724,0.69,1.178,0.92s0.954,0.344,1.501,0.344
		c0.564,0,1.073-0.117,1.527-0.355c0.456-0.239,0.845-0.555,1.171-0.946s0.578-0.834,0.754-1.328
		c0.175-0.494,0.266-0.997,0.266-1.51c0-0.538-0.094-1.057-0.278-1.555c-0.186-0.498-0.443-0.939-0.774-1.323
		s-0.724-0.691-1.178-0.919c-0.455-0.229-0.95-0.347-1.488-0.347c-0.563,0-1.075,0.119-1.534,0.357s-0.851,0.554-1.172,0.945
		c-0.321,0.394-0.57,0.836-0.748,1.33C112.252,580.422,112.164,580.923,112.164,581.432z"/>
	<path d="M130.659,586.131v-8.123l-3.704,6.338h-0.423l-3.705-6.338v8.123h-0.675v-9.394h0.675l3.916,6.722l3.916-6.722h0.675v9.394
		H130.659L130.659,586.131z"/>
</g>
</svg>
