<?xml version="1.0" encoding="utf-8"?>
<!-- Generator: Adobe Illustrator 16.0.0, SVG Export Plug-In . SVG Version: 6.00 Build 0)  -->
<!DOCTYPE svg PUBLIC "-//W3C//DTD SVG 1.1//EN" "http://www.w3.org/Graphics/SVG/1.1/DTD/svg11.dtd">
<svg version="1.1" id="Layer_1" xmlns="http://www.w3.org/2000/svg" xmlns:xlink="http://www.w3.org/1999/xlink" x="0px" y="0px"
	 width="595.275px" height="595.279px" viewBox="0 0 595.275 595.279" enable-background="new 0 0 595.275 595.279"
	 xml:space="preserve">
<metadata><?xpacket begin="﻿" id="W5M0MpCehiHzreSzNTczkc9d"?>
<x:xmpmeta xmlns:x="adobe:ns:meta/" x:xmptk="Adobe XMP Core 5.3-c011 66.145661, 2012/02/06-14:56:27        ">
   <rdf:RDF xmlns:rdf="http://www.w3.org/1999/02/22-rdf-syntax-ns#">
      <rdf:Description rdf:about=""
            xmlns:dc="http://purl.org/dc/elements/1.1/">
         <dc:format>image/svg+xml</dc:format>
         <dc:title>
            <rdf:Alt>
               <rdf:li xml:lang="x-default">NFL Logo Redesigns</rdf:li>
               <rdf:li xml:lang="en_us">NFL Logo Redesigns</rdf:li>
            </rdf:Alt>
         </dc:title>
         <dc:creator>
            <rdf:Seq>
               <rdf:li>Max O'Brien/Osprey Dawn</rdf:li>
            </rdf:Seq>
         </dc:creator>
      </rdf:Description>
      <rdf:Description rdf:about=""
            xmlns:xmp="http://ns.adobe.com/xap/1.0/"
            xmlns:xmpGImg="http://ns.adobe.com/xap/1.0/g/img/">
         <xmp:CreatorTool>Adobe Illustrator CS6 (Macintosh)</xmp:CreatorTool>
         <xmp:ModifyDate>2013-10-06T17:49:18+13:00</xmp:ModifyDate>
         <xmp:MetadataDate>2013-10-06T17:49:18+13:00</xmp:MetadataDate>
         <xmp:CreateDate>2013-10-06T17:49:18+13:00</xmp:CreateDate>
         <xmp:Thumbnails>
            <rdf:Alt>
               <rdf:li rdf:parseType="Resource">
                  <xmpGImg:width>256</xmpGImg:width>
                  <xmpGImg:height>236</xmpGImg:height>
                  <xmpGImg:format>JPEG</xmpGImg:format>
                  <xmpGImg:image>/9j/4AAQSkZJRgABAgEASABIAAD/7QAsUGhvdG9zaG9wIDMuMAA4QklNA+0AAAAAABAASAAAAAEA&#xA;AQBIAAAAAQAB/+4ADkFkb2JlAGTAAAAAAf/bAIQABgQEBAUEBgUFBgkGBQYJCwgGBggLDAoKCwoK&#xA;DBAMDAwMDAwQDA4PEA8ODBMTFBQTExwbGxscHx8fHx8fHx8fHwEHBwcNDA0YEBAYGhURFRofHx8f&#xA;Hx8fHx8fHx8fHx8fHx8fHx8fHx8fHx8fHx8fHx8fHx8fHx8fHx8fHx8fHx8f/8AAEQgA7AEAAwER&#xA;AAIRAQMRAf/EAaIAAAAHAQEBAQEAAAAAAAAAAAQFAwIGAQAHCAkKCwEAAgIDAQEBAQEAAAAAAAAA&#xA;AQACAwQFBgcICQoLEAACAQMDAgQCBgcDBAIGAnMBAgMRBAAFIRIxQVEGE2EicYEUMpGhBxWxQiPB&#xA;UtHhMxZi8CRygvElQzRTkqKyY3PCNUQnk6OzNhdUZHTD0uIIJoMJChgZhJRFRqS0VtNVKBry4/PE&#xA;1OT0ZXWFlaW1xdXl9WZ2hpamtsbW5vY3R1dnd4eXp7fH1+f3OEhYaHiImKi4yNjo+Ck5SVlpeYmZ&#xA;qbnJ2en5KjpKWmp6ipqqusra6voRAAICAQIDBQUEBQYECAMDbQEAAhEDBCESMUEFURNhIgZxgZEy&#xA;obHwFMHR4SNCFVJicvEzJDRDghaSUyWiY7LCB3PSNeJEgxdUkwgJChgZJjZFGidkdFU38qOzwygp&#xA;0+PzhJSktMTU5PRldYWVpbXF1eX1RlZmdoaWprbG1ub2R1dnd4eXp7fH1+f3OEhYaHiImKi4yNjo&#xA;+DlJWWl5iZmpucnZ6fkqOkpaanqKmqq6ytrq+v/aAAwDAQACEQMRAD8A9U4q7FXYq7FXYq7FXYq7&#xA;FXYq7FXYqw38zvzN0fyJov1u6pcalcBl07TwaNK46s38sa1+JvoG+RlKnYdn9nz1M6G0RzP46sV/&#xA;IO68xeZYtV88eYrg3F3fy/U9OTdY4beI8pFhToqNIQD3JTfffBHfdze2o48JjhxihHc+Z8/x1euZ&#xA;N0TsVdiqW675j0XQLRLzWLpbO0dxF9YkVvTVm+zzdQQgPi1BgJbsOCeU1AWURpuraXqlsLrTbyC+&#xA;tm+zPbyJKh/2SEjCwyY5QNSBB80ViwdirsVdirsVdirsVdirsVdirsVdirsVdirsVdirsVdirsVd&#xA;irsVdirsVdiqX+Yde07y/ol5rOpSenZWMZllYdTTZVUd2ZiFUeJwEtuDDLLMQjzL4f8AOnm7V/Of&#xA;ma41i+qZrluFrbKSyxRA0jiT5V+k798pJt9G0mlhp8YhHpz/AFvtXyR5eTy55R0nRFUK1lbRxzU3&#xA;BmI5St/spGY5cBT57q8/i5ZT7z/Z9id4XGdirsVQ+o6dY6lYXGn38K3FndRtFcQPurIwoQcWePJK&#xA;EhKJoh8g+f8Ayv5n/Kbzl6uh31xa2N1WXTL2NiOcYO8Mo+y7R1oQwoRQ98pIovd6LUY9bhqYBI5j&#xA;9Ier/lP/AM5E2uuTwaJ5rEdnqkhEdtqKfDBO52CyDpG7f8CfbYGcZuk7S7COMGeLePd1H63t+Tec&#xA;dirsVdirsVdirsVdirsVdirsVdirsVdirsVdirsVdirsVdirsVdirsVfOn/OVPnjibLyjbS8Y0Av&#xA;tUp9IgQ/IcnI/wBXK5no9V7PaYREs8vcP0n8ebyj8jtFbzD+YXl+KRSYfX+vSg9BFbgzKD7NwVfp&#xA;yIG7stXqiNHLIecxt/ncvsfcWXPBuxV2KuxV2KsY/MbyNYedfK11o1zxScj1bC5IqYbhQeD/AC34&#xA;t/kk4CLczQayWnyiY5dfMPhbXbe90TUJ7XUIjDJaStb3sRG8bq3En5A9fvykB7zLqxCMcnPGeflf&#xA;KX630/8A84+fnEdbt4vKmuz8tVgT/cZduR/pEKD+7Y95EUbH9pfcb2Ql0ea7a7MEP32P6Dz8vP3F&#xA;7jk3nHYq7FXYq7FXYq7FXYq7FXYq7FXYq7FXYq7FXYq7FXYq7FXYq7FVG+vbaxsri9unEdtaxvNP&#xA;IeixxqWY/QBiyhAyIiOZfnt+aHmy71/WdQ1SYkXOsXDOE/kirRU+SpxT5ZVHc29h2ofy+ljghzlt&#xA;+v5n73t//OJmjK/mbVtRpVLCxS2Q02DXEgIPz4wHGHNh7QyEMMMY7/8Acj9r6gy15B2KuxV2KuxV&#xA;2Kvmj/nKbyBHDe2/my1hH1bUB9T1VVG3rBT6chp/OgKk/wCSPHK5jq9Z2DqRkxywT37vceYfOnlz&#xA;UtR0rURGkrxT2MyNZXamjI4+OOh7Gi1X5YJDq3dn5/DyS0mXcfw31Hd8v1Pu/wDKb8wIfO/lGDUW&#xA;oupW5+r6nCNqTqAeaj+WQfEPu7ZOJt53tPRHT5TH+E7j3fsZnknXuxV2KuxV2KuxV2KuxV2KuxV2&#xA;KuxV2KuxV2KuxV2KuxV2KuxV5X/zkh5n/Q/5dTWMT8brWpUtEA6iIfvJj8uK8D/rZCZ2d12Dp/E1&#xA;AkeUN/1Phu/n+t+YoYxukMiIB/qmrfjiBQcnWZvG18Y9IyA+R3fYf/OJ1gE8ta7qFN7i9jt+Xj6E&#xA;Qen/ACXwY2XtLO8kI90b+Z/Y91yx5p2KuxV2KuxV2Ksd/MPy1H5l8lavozJzkuLZzbDqRPGOcJH/&#xA;AD0UYCLDl6HUeDmjPuP2dXwI0lnb65atfOYdOv1NnfTKKmJWYMkwHcwycZKd+NOhyEHfe0WMwyQy&#xA;x2P6RuHpP5S/mJe/lz5pvf0lbvLDSWx1iwiZeQngYhWUkhSUkBAP8rHBfCXPzYR2hpoyG0/uPUfj&#xA;yeqTf85baeHAh8tSunLcvdqh4+NBE+/tXD4jrx7My6zHy/azf8uvz38p+c71dLEcmmau4JhtLgqy&#xA;y0FSIpF2ZgBWhAPhXJCVuu13Y2XTji+qPeP0vSck6h2KuxV2KuxV2KuxV2KuxV2KuxV2KuxV2Kux&#xA;V2KuxV2Kvlf/AJyv8yet5rs9LVqwaRZGaRfCa4PJh/yLjj+/Kp86ev7CiMWnnlPn8oj+1806DDJP&#xA;qS3LbhZPjPu6OwP3rk5cnTdkXPVxJ52T9hfc3/OMlr6H5YpLSn1q9uJa0604xf8AMvBDk3e0Er1N&#xA;d0Q9Yybo3Yq7FXYqk3mXzn5W8s2/r67qcFipFUSRqyuB/JEtZH/2K4CacjT6TLmNQiT+O9415r/5&#xA;ys0+EvD5X0prlhUC9vz6ce3cQoebD5sp9sgZu/0/s5I75ZV5D9bxLzb+ffnXXHeK912b0pNvqGn/&#xA;ALmOn8pEXHl/s2ODcuYJaDTGogTn5eo/q+55/fx6jq0QjFt6EfIOJJmo1d/2QKjriKC6zHqNbARG&#xA;Pgjd3I7/ACRVza67ezG4vdTJnZIo3aONVJWCJYY6leFT6cagsRVupJNTiZjuRpuxc2OPCMpiP6I/&#xA;ausdAsmvYDqV7ePZ+ov1j0XUS+nX4uBcMOVOlcRJtydiSIP72Zl0spiI9U8q+cr3SBds93o9ws2m&#xA;36n4niBEtvOtf50ZJFr44zHVo7F1csolgy7kd/dyIfa3/K2vLVp+Xlh5v1O4SIXlqsqWaMPUkuAO&#xA;MkMSk1YrICteg6nbJ8W1uh/kzJLUHFEcjz8u8/B8g+dvzU8w695kF9qV/Os9zJ/ottDIyxW6E0RU&#xA;UEcQPHqTud8r3O71YOm0hhhr1T2/afi+pP8AnHnzvqnmjyXLHq0zXN/pU/1Y3TmryRFA0bO3dhup&#xA;PU0qd8sgbDznbmjjhzekVGQunqWSdK7FXYq7FXYq7FXYq7FXYq7FXYq7FXYq7FXYq+Dvz/1ptQ88&#xA;eaLmta3rWiGtQVtiIBT/AGMWVDeT2Gf9z2aB/OA/2RtgHl2N47a3l24XM86kd628cRG//Pc5KfJ1&#xA;nYMf38T/AFvuD7q/5x5iRPyj0Rl6yNds3zF3Kv6lww5NHbh/wqXw/wByHo2SdS7FUh83eefK/lKx&#xA;+ua7fJbKwPowD4ppSO0cY+Jvn0HcjATTk6XR5M8qgL+585fmD/zlFr96JYPL4XQtNNVF1Jxe7cex&#xA;3SP5LU/5WQMieT02HsbBp48eeQP3frP42eA6z53uby6luGeS8upTWW7uXZ2Y+JLEs30nEQ72Go9o&#xA;IQHDgjt38h8B/Yx261K9uj+/lZl/kGy/cNsmAA8/qdfmzfXIkd3T5Mk8v3OnywlYIVhnQfvFG5I8&#xA;Qx3IyuYL1nYmfBOFQiITHP8AXfOvuTfIO9dirsVZT+c+iSaZB+XPmiQBF1bRYrS4YdCbMBUdj/xg&#xA;mjH+xy2ri8MM4w9oGX8PGb+PN51fea41/d2ymUqOKu9Qo3J2HWlT7ZEQdpq/aKEbGIcR7zy/WfsS&#xA;u0imupor6eSrPdRxAHq3VnI/1Bx+/JnYOg08p5tRCczZlMfYQ+yv+cTYCvlzXZ6bSXkaA1/kir0/&#xA;2eRxu09pT+8gP6P6Xu2WPNOxV2KuxV2KuxV2KuxV2KuxV2KuxV2KuxV2Kvzf/MLUDe3NxdVqby8k&#xA;nJ335lm7/wCtlUOb2Hb/AKNPCHmPsCppKgeUNBPc6nrFf+kbTslPk67sIfv4+6T7d/IQxH8pPL/p&#xA;fZ4XFe3xC6l59f8AKrhjycTtq/zU78vuDPZJI4o3llcJGgLO7EBVUCpJJ6AZJ1gF7B4V+Z3/ADkt&#xA;p+netpnk30727Wqy6vIK20fj6Kn+9I/mPw/6wyBn3PR6DsEyHHm9Me7r8e77/c+V/NPn7UNUv5ry&#xA;6upNS1GU/vbudi/yAr2HYDYdsAjfNytV21iwR8PTgbden7fxzYfcXVxcyepPIZG8T2+Q7ZMB5fPq&#xA;MmWXFM2VLC0uxVGaRM8WpW5Q/adUPyY0P68EuTn9l5TDUQI6yA+ezOMofRnYqr2Nlc317b2VqnqX&#xA;N1KkMEY6s8jBVH0k4sZzEQZHkHr/APzmVa2eleU/ImhxAE2vrxQN0IitoYIungeS5kPmGXIZzMj1&#xA;N/N8q4tbNoNP9Lyp5UmPW5v9Vk28EitFFf8AgchLk7zszH+/wjyMv91+oPsT/nGKy+r/AJZetSn1&#xA;y/uJ/nQJD4/8VYw5L7QzvU13RH6/0vWsm6N2KuxV2KuxV2KuxV2KuxV2KuxV2KuxV2Kpf5juvqnl&#xA;7VLr/lntJ5fH7ETN0+jEtuCPFkiO8h+bvm1v95V/1yf+FyvG9L7TS/ux/W/Qn+lQBvIehTg7xarq&#xA;iFfaS3sjX/knhlycbsY1mx+cZfpfU/5X/mP5X8n/AJJaNdazc8JFa7S3s46NcTt9blb92lRt8W7G&#xA;gHjjE0E9o6DLn1khAd2/QekPE/zZ/PnXvNJeGeU6dolaw6TA1TJToZmHEyH5/CPCuRsydnj0+m7P&#xA;jxTPFk+34Dp7/teJ6lrV1ekqT6cHaJe/+se+TEaee1/a2XUbfTDu/X3pfknVuxV2KuxVOfLNmJrx&#xA;p2+zAKj/AFm6ZCZ2d/7P6XxMxmeUPvLK8qe2dir0D8hLG0vPzX0KO5oUieaeNT3khgeSOnurKG+j&#xA;JQ5ur7ZmY6WdeX2kO/5zU1k3P5i6VpatWPTtMV2FektxM5bb/UjTLnz5894q9JpFN+XHlK7jFGsN&#xA;U1G1uaGopdwQPAfapgl+7IHkXodEeHPgl0MSPtkH1d/zjBqK3P5bvbV+Oxvp4ipPQOqSg08D6hxh&#xA;ya/aGFai++I/U9dybonYq7FXYq7FXYq7FXYq7FXYq7FXYq7FXYqxz8yZxB+XnmaTkVI0u8CsK1DN&#xA;A6r09zgPJy9ALzw/rx+9+dfmxv8ASoF8EJ+8/wBmRxu59pT+8gP6P6WUaAvqfld62wFh5ggVzvst&#xA;3ZXO528belcMurj9nz4J4ZHlxTH3frSLU/MscYMVnSSQbeqfsj5eP6shGHe7XtDt+MPTh9Uu/p+3&#xA;7vexqaaWaQySsXdurHLaeSy5ZZJGUjZKzFrdirsVdirsVZJ5SdfTuU/aBU/QQcryPW+zMhwzHWwy&#xA;DK3qHYqmXlrXrvy/5g0/WrQVn0+dJ1QmgcIashPg61U4QWnUYRlxmB5SFJp/zlWV1Hz1pnmmzPq6&#xA;N5g0uCawuB0JiLRyxN4PGach2rl75rmwyxzMJcw8VxanonllHufy/wBZsP24oE1a1Q/8tFhcV5fR&#xA;azz5DqQ9JkgY6HFkH1Qlfzkf2Pcf+cTvMjp5g1LRif8ARtStFvIgT0kgYCg/1klNflghzpyu34DJ&#xA;hhlH4Ehb6fyx5F2KuxV2KuxV2KuxV2KuxV2KuxV2KuxV5P5t/wCckvI2hajLp1pFcavcQMUmltuA&#xA;gDA0ZRIx+Ij/ACVI98gZh3mm7BzZI8RqIPfzeVfmF/zkxqWvaJd6RZaZBpen3sTQ3U08pnlKOKMF&#xA;NIkSvyORM7dtpuxcWnkMmSf0/APmzzBfW93do0DclROJalATUnauTgKdN23rMefKDA2AKZZ5Oj+v&#xA;flf5409RyltkstVjQd/q1zHA5/2Md2xw9XEq9Lf83J/uo/8AHXn+FwXYq7FXYq7FXYq7FUbpOoGx&#xA;uxLSsbDjIo/lPh8sEhbsOzdadNlEv4TsfczOC4hnjEkLh0PQjKCH0DDmhkjxQNhUxbXYqn1jrenX&#xA;nlybyp5likudDeQ3FjcQhTdafdEU9aDkVDo42khZgG6gq2+TjKnT9qdkx1I4o7ZB9vv/AFvOdS8p&#xA;X1pe+jBLFe2zsRDeQkhWUftMjhZE+TKPauT4g8qOx9Tx8Bj8enzZ7o8Uek+S/MmqPtHFYDSLIHrJ&#xA;daiwi4jY9LZJ3Py98jDnbvu2iMWmhhjzND4D9tPSv+cUdGmfztLc0/c6bpzK79ucjJGo+kBj9GCH&#xA;NHbX7rSQx9fSPkH1jlrx7sVdirsVdirsVdirsVdirsVdirsVeYf85A+f5PK3k02dlIY9W1otbWzq&#xA;aNHEAPXlHeoVgoI6Fq9sjM0Hc9iaLxs1n6Yb/qfC2u6zO100FtK0cUXwsyEgs3fceHTBGLk9sdqz&#xA;OUwxyMYx7upSaSWWQ1kdnPixJ/Xk3QTySnvIk+9Ziwei/kiVu/M115ekYLH5isrnSqmg/eXcLxQH&#xA;fwuHjP0YDzdnoxx4MsOtCX+lO/2F546PG7RyKUdCVdGFCCNiCDhdYtxV2KuxV2KuxV2KuxVfFPNE&#xA;axSNGfFSVP4Y02Y804G4kx9xpU+vXp63En/Bt/XBQbPzeb+fL5lcmpagh+G5kHtzJH3E40GcNfnj&#xA;ynL5lFweY9TiI5OJVHZwP1ihwGAc7D29qYcyJDzH6mUeW7s6/fQ6daqFvpjRY5GVEoBVmMjFVVVU&#xA;FmLUoNztlZgXotL25gyRJkeAjof0d/3pn5g1G01Cez0fSpPW8v6G7slyAQL6/koJroAgH0xxCRV/&#xA;ZUHYswyR2FOHosctZqPzExWOP0j8fP3vr38iPy+l8oeTVe+j9PWdWK3N8p+1GoFIYT7opJI7MxGS&#xA;iKDp+2daM+b0/RHYfpL0jJOodirsVdirsVdirsVdirsVdirsVdir5C/5yp1y5k8+3EDGkWlWMUcC&#xA;9uUimYtTxJkA+jKpbl7Dss+DoZZBz9R/QHzSSSancnqctePJaxVeErCXH7LBT/sgSP8AiJxbOD0c&#xA;Xcfv/sTHyxqk+l69ZX0DmOaGVWjkHVWBBVvoYA4JcnM7LyiGeN/TL0n3HZk350aPDY+ernULROGm&#xA;eYo49b08dhHfAySJ/wA8p/Uj/wBjhDiZ8JxzMD/CaYLi1OxV2KuxVfFFLK/CJGdj0VQSfwxZ48cp&#xA;mogk+SOj0DVZKfuOIPdio/CtcjxB2WPsXVS/hr3kItPKl6ftyxr8uR/gMHGHNh7N5jzlEfP9TT+V&#xA;btQT60VB3JYfwx41l7OZQL4o/b+p2keUdV1TzDp+hQGKO71OVYLOWV+MLSOaIvOhpyagG3fJA26j&#xA;V6LJgIExz5HoWTedvyF/NDyZpk+r65pKx6TblVlv4biCWMGRxGvwq/qCrMBuuFxHn6qzMFUFmPQD&#xA;cnFMYmRoblPNL8szzOr3QKISOMI+23tt0/XkDPuei0HYM5HizemPd1P6vvfWH5EfkNNZzWvmfzPb&#xA;egYKSaVpLrRlYfZmmU/Z49UXrXc+GCMepbO1e1YiPg4fp5Ej7g+h8seYdirsVdirsVdirsVdirsV&#xA;dirsVdirsVfLf/OVPki8TzAnmNY2fTNUgS2uZhUiO4jUqAfDlGFK+4OVz2NvW9iZYZtPLBLnv8j+&#xA;ovl290e+tGPKMvGOkqCop706fTkhIF0er7KzYCbFx7x+NkDknXIi3HO3uE7hVkUe6tT9TnAXKwji&#xA;xzHkJfI19xKHwuK9Yuof8afkwtxEPU1ryRK0rqPtPpd6wE2wqT6FzR/ZXORHc7XtH97GGcfxCpf1&#xA;o/rDyfJOqdirsVbxVnOnWMdnapEqgPQGRu5bvlBNvpOg0ccGIRA36+ZS/Wdea0l+r24DSgVdm3C1&#xA;7U8clGNuq7V7ZOCXh4wDLqe5I5Na1R3Dm4YEdAvwj7htk+EPOT7W1MjfGfhsjtbuZrvTbS5Dfumq&#xA;sqjoJP8AMGmCIouy7W1E8+nx5AfSeY/pfi6e/wD/ADjt5R8v6lqOqeY9ft4rnR/LVotyI50DoJWD&#xA;OshVqhvTjhc/OhwQG7m9vZxDBCA/i+4f2sc89fnF5j89/l7OupShE1rXIY49PjFIoLSzjeRkU9SW&#xA;Z4mJPcfdK+bpsenhk8GMRvIni/036kT+Vf5E6t50tZL+wlttN0uCY2811IGaQuFVyERR8dA4+04y&#xA;ABL0Wp1mn0J4Yw9RHT9JfSXkH8kPJXk547yKE6jq6bjUbsBmRvGGMfBH892/ysmIgPNa3tfNn2J4&#xA;Ydw/T3vQck6t2KuxV2KuxV2KuxV2KuxV2KuxV2KuxV2KqF/p9jqNnNZX9vHdWc68JreVQ6Op7Mp2&#xA;OLKE5QIlE0Q8Y80/84s+V753n8v382kSMSRbSj6zAPZalZF+lmyBg9BpvaPJHbIBL7D+p5trH/OK&#xA;fnuNmMC6dqafslJCjn5iZEAP+yyPCXO/lfRZf7yG/nEF555x/KPX/J/o/p7ShYG+EqWsqyxSq/EA&#xA;P/dO4Gzj7VMBJHNydNg0WcS8IC6rqPqBDyeRGjdkYUZCVYe42y54icDGRieYZv8AlD50j8sebYJL&#xA;xPX0i8DWmqWh3Wa1uF9OeNh35Idv8oDInvdl2fITEsEuU+XlIcvnyQn5peRX8l+cbrSo5PrGlzKt&#xA;5ot6DyW4sLj4oJA3f4fhb/KByTrZRMSQeYYjixdiq6P+8T5j9eLPH9Q970uw02+1CV4rOIyvFFLc&#xA;S06JFAhkldj2VUUk5QBb6XqdRHDAzlyDzaeZ5pnmf7UjFj9Jy8PmubKckzM85G1PFrTi0Qt5dvOX&#xA;2VkUp8xxrkDzd9pYE9n5L5CQr7Hv/wCRuohPyJ/M2SQkSHSZY0APxH/RbiIMNxsCy1OEdXH1+Uzw&#xA;YSe6Q+RAeK6LdxyaLpVjSj295qFyTTr60NrGor7ei2CZczsTD+8hI/0/nQ/QX21/zjkunL+Veni0&#xA;lSWYzXBvgp3ScymisOoPpcOvbfphhycXt3i/Mm+4V7q/Xb03JOndirsVdirsVdirsVdirsVdirsV&#xA;dirsVdirsVdirsVdirzb/nIHyk3mD8uruSBOd7pDC/gA6lYwRMv/ACKZmp4gZGY2dv2JqfC1AvlL&#xA;b9X2vgvzJZmG/wDVA+Cccv8AZDZv64IHZt7f0vh5+Icp7/Hr+tKQSCCDQjcEZN0gNbh7l5bSL82v&#xA;y0PlNyD528rpJdeWnY/Fc25HK4sanqducfypsoOAdzs9WPGgM458p+/pL/O+94c6PG7RyKUdCVdG&#xA;FCCNiCDhdWtxVkehaJEY4r2c8mJ5RRjoKHYnxyuUuj1nY3ZETGOae55gfreq/lLq+iQ+Zp/L+vB4&#xA;tH83WU2hXF/FIsUlu10VKEMwZaSFPT37kVr0wQb/AGjEvCjQ9PF+Px+tBef/APnFL8y9A1Kc6DaH&#xA;zDovIm2uLdkFwEPRZYGKtzHcoGHy6Za8Y801LyF5u0m7S01jTJ9NmccuF0vpsF8SrfF+GAmnM0eh&#xA;yaiVQG3U9Amb2FsumNYiThHGF9aQ9aVDMfpyq97e0no8Y0xwg1GNcR+0/NQ0LzRBputW1wI1awE6&#xA;W88RJBawaN4buA0IPC4inYN9HhlgDyPaGeGU3H6Y+mI/oj9b0zWvyC1ryvd+ZLS7eSXSvL9jdaza&#xA;apGAvqosbC2Xeo5NIOMq+Aan7JIrdz8Wohi0QMT+847Hkf1V970P/nEvVZRrmt6aH/cXFpHdhK/t&#xA;RSBKgfKbf6MEHN9o4iWKE/P7xf6H0zljyLsVdirsVdirsVdirsVdirsVdirsVdirsVdirsVdirsV&#xA;adEkRkdQ6OCrKwqCDsQQcVBp8J/nh+XEnlrzPqGkRoRaM31vSJDWjQPUqtT14bxn3Fcq5F7WQGv0&#xA;d/5SP+6H63jJBBodiOoy14oik08seY9T8ua3aavpszQXVpIskcidQVNe+x+R/VgIcrR6nwp7i4Ha&#xA;Q7x+OT1j82PLWkedvLbfmv5TiSKaqL5z0iPb0Ll9heRqesczfap33686ILLWaXwpAg3CW8T3j9Y6&#xA;vEsLhsi/T8NppttFbASTcAGDdFI61p75Xw2Xqv5ahg08I4/VPh3vol17rl9dwmGQqsZNWCilab9y&#xA;ckIgOp1fbGfPDglQj5I+y/MHz3YwpBaeYtSggjHGOFLuYIoHZV5UGSpwIZ5R5H9P3od/M3mK8uTJ&#xA;LdPdXMp3eQCSRj7kipyJiHZYe19XtGJvuHCP1I640rU5NLWPnyuJJDLcKSBWooBX/JoMiJC3cZ+z&#xA;dTPTCN3klLil+PLbyQzeTPMcGlprctk/6J9d4GvFoY1liRZGRiOh4OCPHJcTpD2Xmxy9QGw4juPp&#xA;7/sZ1Zfn9+bWp+Wr3yleXsWq6XfWr2U0t5CGliikUqWE0ZjZmA6GTlhJpo02lyarJUR7z0D2f/nE&#xA;7y1erq+q+YCjLYQ2g06KRhtJJJIkrcT34LCK/wCsMhB3/tDljHHDEOfP4AU+lsseTdirsVdirsVd&#xA;irsVdirsVdirsVdirsVdirsVdirsVdirsVeb/np+XP8AjDyk0tlFz1zSuU9hQfFItP3sH+zAqv8A&#xA;lAe+RkLdv2Pr/Ay0folsf0F8H+ZdLaCc3SLSOQ0kH8r/ANuCBcvt7QcE/Fj9Mufv/b96R5N51Epq&#xA;N9HZyWSTulrMR6sKsQr0IYBgOoDAGnjvjTcc8/D8O/Rd15qVvbyXEywxCsjmigmmJKMGGWWYhH6i&#xA;r6gFjm+rKqqIAEZlG7MB8RJ6nfAHI1wEJ+GABwbe89TfPmowW1xcMVhjaRgKkKK7YktGHTzymoAy&#xA;PknuleW42iWa9rVtxDutB/ld8hKfc9L2d2DExE817/w8vmndvZWlv/cRLGe5A3+/rkCXosGkxYvo&#xA;iIq+ByHs9vJ+hv8AnEjzLcyKGbV7srbo4qG9Wa3tTx91ETMPcZbDk8R7QZL1NDpED7/1sP8AyI/K&#xA;m18364bC5kaDS9PiFxqDR/3khLBVjDfslzXfwGRHqLuNTlHZ+mEYD1n7+pfZujaNpWi6bBpmlWsd&#xA;nY2y8YYIhRQO5Pcknck7k7nLaeNy5ZZJGUjcijMWt2KuxV2KuxV2KuxV2KuxV2KuxV2KuxV2KuxV&#xA;2KuxV2KuxV2Kvk//AJyZ/L/RNH1+PVLKSJI9e5vdaYNnWVac5kA6JITX/WrT2qkKNvZdjZzqMMsW&#xA;QWI7X5d3vD5m1OwNldNFyDr1RgRWnv4HLAbeb7Q0Z0+Qxux0/b5tQ2E09qZoEMjI5WRFFSAQCpoN&#xA;/HG2OLRzyYuOAMiDRA+FfpWWsrW15FIwIMTgsOhoDuMTuGvTZDiyxkf4ZBH+Y7RIb0TIapcDn9Pf&#xA;IwOzs+3dMIZuOPKe/wAUHZ3ghV4XFYZ2T1iPtcUapA+eSIcDS6rwwYH6JmPF30D+l7TokP5eebPO&#xA;ugaZYT/VNCsfLiSanHYp9Ulk1C2glnuQzToQ8jSADnQgigGDhdli7RlDxDA+mJuMem8u73dEq0Ty&#xA;jdX/AOU+u+fpL+NX0me3gj0xYjVzcyxxBmk9T4QDMD9k1ocjwh2R7ZywEeICRyCx0revO/sTXy1+&#xA;XDah+Yfk/wAr6jqgSDzDpi6vdyWsYjeNH9YrAjS+sCxWAfFx6t02xEQ15+1c4lOIIBxDeh9W4HW9&#xA;hf8AYkPmLzlqN9oD+TW1OWWws9YVbDSwsaxx2lo1wHkk4py9R2kVq89zXb7PGXIOBADUZscueSci&#xA;ZeQB2HyD6K/5xP0dofLut6uyU+u3UdvGx7rbIWNPas+RxuR7S5byRh3C/n/Y91yx5p2KuxV2KuxV&#xA;2KuxV2KuxV2KuxV2KuxV2KuxV2KuxV2KuxV2KuxV8I/nT53uPMvnPUtRilDRyzix0mp+FYEYpG3s&#xA;G3kPucq5l7aV6PRxjH+8lt/nS/V+pd5fvfyz0iJNPvfJ8OvWbDje6ldzzx30zHrJEY39OAb/AAoq&#xA;k06sTvh43GHs2DD1TPifZ+v4pP8AmJ5DsvLcFr5x8lXUl/5M1OQw8ZwPXsrkDkbO7APXjuj9x9Ba&#xA;dAulEs+gzVyP2SDGJo7PW7FpoVC3cY/2QNPsnxB7ZWLiXoMuPD2hhM4Cso+d9x7weiW36y3Gi2dy&#xA;VP8Ao7Nbymh2P7IP0LkhzdPrScmlxTPOFxP6PuSuKCaZuMUbSMBUqgLGn0ZN1GPFPIaiDI+QtqSO&#xA;SORo5FKSISrowIII2IIOLAikTFq+qw2E2nw3s8dhcFWuLRJXWGQoeSl4weLcWFRUYp4ztvyZbb+X&#xA;PMWqaFH5h1O7uLuzsDDp6Sm6EkltHKGeCP03JljiYswUqOHKo65Anud7g0OMziNQZceTcEHY337X&#xA;bOPyp/JbVfOFzKNIENpYWzKl/fzOGZOW4AjB9RiQDTYL7jI7yd1lnpuz4+mPql8z8fx7n2f5W8t6&#xA;b5Z8v2Wh6apW0so+CFvtOxJZ3alPidiWOWAU8bqdRLNkM5cymuFodirsVdirsVdirsVdirsVdirs&#xA;VdirsVdirsVdirsVdirsVUru8tLO2luruZLe1hUvNPKwREUdWZmoAMWUYmRoCy+fvzL/AOcm7ZEu&#xA;dL8nxLKhVo5tZuAVQAihMEZ4n5O//AnrlZn3PTaHsGhx5zQHT9ZfLGp3DXM9vNalPRtmZmml+GLl&#xA;tShNOVKdsERTk9oZzlnCeIjhxk+qW0b/AE/BD2Os3Z1VI5LhZ4ZTwPFSFBPSlQD1wmOzi6PtXKdU&#xA;IymJwltsKHlWweo+Q0fVodc8nS/Ha+YdOuFijP2VvbOJru0l+ayRcfkxwQO7su39OJ4OPrD9Ox/H&#xA;k8b0+a8tZBdwoxjT+8NDxK9wTlhovKaHLmwy8WAPCOfdXm9l/LDytY+cfLfnLRbZQ93eafFqlhEF&#xA;q/1ixl+IR7/bdJSlPHfIC3odZHFIRyg/uspqXkT194IF+5gPlfyp5l/T8C6FcwRaid7K5luEszHK&#xA;CCjJJIyKrhgOPxdemESBcLJ2Xn0vFKI8SJiR5i/Jlfmuziew1yH8ybGez/Mlb6xS0umISa4imikW&#xA;Z2SOsEsS/V1AkQfaYfFhNuFgnhzThCY4YiPDY53/AG/Yr6r+THkez/MW/wDKA80SRppllJd316YP&#xA;W9KS2tjczxFU4VCojHkDt0pXGzbKGn00sJmOLiidxxDldX9LFPMWm+V9O8j6JrGiazdzavqklxZ6&#xA;nZOyemqWbQypsvFuBLoyhx9obfZxDXqzjhK4SlIjh4JeQ79hVdGS/lN+bOq+VNWGo6aVk9RVTU9P&#xA;k2SaMGvUdCP2WHT5VBhvEvRwnh7Rw8MtskfmD3+Yfafkbz55f856Mmp6RNUii3Vq+0sEhFSjr+ph&#xA;se2WA28prNHk08+GY9x72RYXEdirsVdirsVdirsVdirsVdirsVdirsVdirsVdirsVdirHvO/nzy7&#xA;5M0g6lrM/ENVba1jo007gV4xrUfSTsO5wE05ej0WTUT4YD49A+PfzX/O/XvNk5F/L9U0tWraaNA3&#xA;w7HZpG29Rv8AKbYdgMr3k9XHHpuzoWfVkPzP6h+N3l+pXvEK94yzSsOUVmhrEgPRnI+1hA7nB1+r&#xA;4QDlInI7xgPpHcZfzvx0SS5up7l+czliNlHQAeAA2GTAeez6meU3M3+j3BU0tGfUrYLuRKrfQpqf&#xA;wGMuTd2dAy1EAP5w+w29b/L7VF0nzjpupvx9Kyd7ibl9n0o4maQmtK/ADtlUeb3PagH5ad/zXnOn&#xA;ware6alqhWCzFQZTUs4LE0A8MkSAXn9Dh1Wo04xioYt9+p3/AB3Mx/KbzdN+X/5gWF2zNLaKayKN&#xA;i8MgKTLTpWnxL7gY31ZjR+GZaSRsTHFA/wBIfj8Wn3/OQWm6b5Z8xwaj5dlhudE8yxnUdNaM1SNW&#xA;aksfEUpST7I7DbqDjwWUS7byYsQgR++jsb8uvxSvy5+fEi6PDoHnHRrXzRocH+89vegtLAOn+jXA&#xA;/ew/jTtTJUQ67JqtPn3yROOffHkfeEe3nX8hLm7mvx5W14X10CtxDDqs0iujji0bzP8AvmRl+E17&#xA;YbceOngTUJykPKJ+63nfnzVdA1DVYW0Ly8vlvT4YQiWQllnkc8mJklkmZmZjWnYbdMQWrV4BjkAB&#xA;IbfxCj8ujHoJZYpVkiYrIp+Fh44S04ckoSEompB6T+Wv5l6z5f1mHVNLm9HUIRSeA1MU8VRyR17q&#xA;fvHUb5URT2Gl1eLX4ziyCp/jcPufyJ500zzj5atdc0/4FlHC5tyatDOtPUiY+1ag9wQe+WA28rrN&#xA;JLBkMJf2hkGFxXYq7FXYq7FXYq7FXYq7FXYq7FXYq7FXYq7FXYqgde1qx0TRr3V75uFpYwvPMR1I&#xA;QVovizdAPHEltw4pZJiEeZL4L/NH8ytV8xa5PrGoPyuriq2drWscEIPwoo8F/wCGNTlQHEXsdTqM&#xA;fZ+EQhvM/jiLKf8AnHn/AJx+l8/z/wCKvNJkXyxFIVhhBKyX0sZoyhhusKn4WZdyfhWlCRa8blyy&#xA;ySMpGyWAfnf5P8v+UPzL1fQ9AuRcabAyPHHyLtbtIgZrdnPUxk06k0oD8VcWthun6fcX03pxDYCr&#xA;uegHvgJpzNFop6ifDH4nuTDy5bldWdJBSSFG2PZqhT+vIzOztOwcJGqIl9UIn57D9Ka63f3MfCxt&#xA;CRcXalGIJBEbDiw2/mFQfauRgOrte3M8pCOCG8sn3f2/c9e/5x2/LO28y6+66jb+voml2z/Wi32W&#xA;mmUpGo96lpB/q4xFle0M/wCS00ccD69vs3J/Hewf80fy51jyzr02k3gKXVq3qWF2AQk0JPwOp96f&#xA;Q22I2LPPjjrsMcmM1kjy8j3H9DGDqsN/aJpmr1ieBi0cchoqs1AzRsfs86DlTrQdaDDuOTj+Np9R&#xA;6NTHgzR+H2/r+CyLQ9FgYTPJzUbgSOvH8AMHEW3H2Ro8Z4zKx/SkK/QiJdc0yGkcb+q+wWOIV9hv&#xA;9n8cHCXLy9safH6YniPQR/FJNrdpqc5N9NCI41AURg8mVRvVqfPJxI5Og7X02pyfvpx4Yjarsgea&#xA;TxkCRSegIJ+/JuhxmpB9E+XvIvkDzf8A849prdhdQRefPJ1neXd/JBRJniglmnSG6jPH1Fa3AVJO&#xA;1KVIBXEhlhzSxzE48wWa/wDOJeszfpPXNJ5E281vFeIvZWjf02I/1hIK/LK4PUe0cAYQyD3fPd9K&#xA;ZY8k7FXYq7FXYq7FXYq7FXYq7FXYq7FXYq7FXYq7FXmH/OSF1LD+Vd8kZoLi4topP9X1Q/60GRny&#xA;dz2DEHUjyB+58G+YnZtWlBOyBFX5cQf1nGHJj27MnVSB6V9wP6Wd/ld+fPmr8vvLuuaNp59ePUYq&#xA;6aZDVbO6LBXmRT15Rk7dOQU+NZOoecsb2/u2mkZ57m5kLSTOSzPJISzMzHqSdyTjbbiwyyECI5mm&#xA;ZadYRWVssKbt1kf+Zu5ygm30TQ6OOnxiA+J7yk+vLNY3qX9s4R5gUYUB3ApXf2ycdxToO2Yz02YZ&#xA;8Zoy2THyno2qatqcLek02pX0iW9nFShJkIVaDtyJpgl3Byey8U/Vqs/1VtfQd/4/S+/Py78k2Xk3&#xA;ypZ6JbUaVB6l7cAU9W4cD1H+X7K/5IAywCnmNdqzqMpmfh5BU86+Q/LfnLSv0frdv6gWrW9zGQs8&#xA;LkU5RvQ09wag9xiRbHSazJp5cUD+ovmrzn/zi15xtZnOlRwa9Y1JiIZIbhV/ykkKrX/Uc1yvhI5P&#xA;TR7X0mojWaNHzF/IjdhA/wCce/PQJI8qXewJ3J7CvQvj6kjF2YD/AA/OX63nGu+XZoJnktoiAppL&#xA;BQhkYbH4euGMu9w+1exiD4mEXHuHT3eSzS9cvK/VZkWbYgeowRvkS2x+nGUQvZ3bGX+6mBP3mj7r&#xA;PP4pZNau980EMdGdvgiDK9K705DbbJg7Omy6cyzGEI7k7CwftGyuketaXctHA8ttJco9szQuyiSK&#xA;YcXjJUjkrg0ZT9OIIXP2fmxTEJR3JodxfUv/ADiXpUh8yazqAUmK1sEtS/blPKrgfdbnIQ5vRe0M&#xA;hHDCHn9wr9L6eyx5F2KuxV2KuxV2KuxV2KuxV2KuxV2KuxV2KuxV2KvOP+chdNkvvyq1Uxgs9o0F&#xA;zxH8qTKHP0IxORnydt2Hk4dVHzsfY+B/MsTJqjuekqqw+gcf+NcYcmzt/EY6kn+cAf0foSxEZ3VF&#xA;+0xAHzO2SdPCJkQBzLKrSzit7y1tIiGa3V5rhv8AKcBR+v7sqJ2e10uljiy48UdzASlL3kUPx3Jn&#xA;c3MFtEZZnCIO57/Id8gBbuM+ohijxTNBj6GXXNTVypWyg7Hw8D7t+rLPpDy0DLtHUAkVhh+Pmfuf&#xA;Xf8AzjX+WFtbaavnPVrat/cMRoyyf7rgpxMwX+aSpCk/s7j7WMI9V7e7QJl4MD6R9Xv7vg96yx5l&#xA;2KuxV2KvNPzE/IXyj5wuX1GNm0jWJN5bu3UMkp/mlhJUM3+UpUnuTkTG3caHtnLgHD9UO4/oLyW/&#xA;/wCcTPN/rf6LqemXEQ6PP68TU/1VimH/AA2Q4C7j/RBp5bzgb9wP6Qxfzn/zjZ560eySZrGHWLdV&#xA;q7aYXkkiP+oVjlPzVSPHGiGyOv0WqHBMcPde3yI5MJ8v/lr5o1TVo7Sx06+vrxW9ONJUbjET1Lsw&#xA;VU+bHBZLkDDgwEZJ5DLh+niN17u8vtD8p/y8g8jeVItNLLNqNw31jUrhejTMAOKE78EA4jx3O1aZ&#xA;ZEU8n2lrjqcvF/CNh7mZ5J17sVdirsVdirsVdirsVdirsVdirsVdirsVdirsVQ2qabaanpt3pt4n&#xA;O0vYXt508UlUqw+44s8eQwkJDmDb8/8A80PIWpaFrd5ot0h+uafIfQkpQTQtujrXs60I+7KgaL2O&#xA;uwDXaeOTH9Y/BH4/SwCzs78XSenAxlRqgMpABHQmvgcsJDzWl0ufxRwwPED1H3oxLXzHbSSGNXDy&#xA;mruOLcj898jcS58dP2hikTEG5czsbVINC1S8lEl87Incs3JqeAG9MTIDk24ex9TnlxZyQPM2fh3P&#xA;oL8kvyBu9da21bWbdrLyxERJHC9Vlve9F6MIz+0/cfZ8RERvcudre0MWkx+Dh+r7vf3l9ZwwxQQp&#xA;DCixwxKEjjQAKqqKBQB0AGWvHkkmyvxQ7FXYq7FXYq7FXYq7FXYq7FXYq7FXYq7FXYq7FXYq7FXY&#xA;q7FXYq7FXYq7FXYq7FWIfmF+V3ljz1aRx6qjw3luCLXUICFmQHcqaghkJ/ZI+VMBjbn6HtHJpj6e&#xA;R5g8nmFn/wA4laWl2HvPMc89pX+5htkikp4eo0ko/wCEyHhu4n7TSraAB9/7B96fXP8Azi3+XEz8&#xA;o7nU7cfyRTxEf8lIZD+OHgDjR9otQOkT8D+tO/LP5A/lroNxHdJYPqN1EQY5b9/WAI7+moSIn5ph&#xA;EA4+o7a1GUVfCPLb9r0UAAUHTJOpdirsVdirsVdirsVdirsVdirsVdirsVdirsVdirsVdirsVdir&#xA;sVdirsVdirsVdirsVdirsVdirsVdirsVdirsVdirsVdirsVdirsVdirsVdirsVdirsVdirsVdirs&#xA;VdirDU/MZWktlfTZI0uIba9MzSBoorK75CKWV41cRvWNqhqIKf3nSqqVxfnHbvpltqD6W6xXEUc6&#xA;IJGLOkyRyL6XKJQ5QS/vdwF4tQtTFU5uPPV1bGOGbSJfrc8bTQU9ZITGjFJGkkmhhkj4OY1IMdT6&#xA;i8eQ5FVVC5/M/TLO/Gn3luYbuNZGvVEsbLEIpSrsDUM6ejDNNy4iix0bizBcVQ2n/m9pN3FDcGxn&#xA;js3ike4vA0bxQSRyGPhIVNdy0R5AUAkQnbkVVTWfzuU5vHp7vD9Yt7GJ2ljjLXd0sTxrxbcRhbgV&#xA;fdtjRCKEqoK2/NLS5r79HtZXEd8b5NOWOisjSCZYLh1cGnCB2HJjSvJKbtTFWa4q7FXYq7FXYq7F&#xA;XYq7FXYq7FXYq7FXYq7FXYq7FXYq7FXYq7FXYqlfmq6mtPLGsXcEhhnt7K5lilFKo6RMytvtsRXF&#xA;XiMOv6uumWurTXPmGKGb0ZJZpri4XSxFcejRUn5c+Y9YhWaajOpBUVogQxKTzx54GlXkkOt3TXiO&#xA;v95eSrxQoG/cgTsSfWLRsOMvFFDhn5Yqv/xz525crjVrq3iFm7oy30rAlVP7yVvXYRygb8K9aDjv&#xA;ir6EX/lWPojj+hPR+tbU+qcfrdR9Hq1p/lYUo64/wX+iofrP6N/RPoQfV/U9D6v9X5L9X4V+D0+X&#xA;H06bVpTFVqf4I/RzcP0Z+jfTm5U+r+h6XJPXrT4OHLhz7V417Yqttf8AAf6NP1X9F/o31d/S+r+h&#xA;63H/ACfg58fppiqpB/gz6rP6H6O+q+lN9a4eh6fo8I/X9Sm3D0/S512pxrtTFUHP/wAqz+sXH1j9&#xA;C/WPQb636n1Xn9X5/F6ld/T59a7VxVMtP/wx+j1/R/1L9HepDw+r+l6PqUj+r04fDyp6Xp/7GnbF&#xA;U0xV2KuxV2KuxV2KuxV2KuxV2KuxV2KuxV2KuxV2KuxV2KuxV2KuxVAa/wDon9Baj+mKfoj6rN+k&#xA;eXKn1b029avD4qcK9N8VfONz/wBCvf4Vg+sfpr/DfqH0OX6U9DnTen+x/DFWT6b/AMqU/Tvl/wCp&#xA;fpn9K/owf4er9cp+jvqif3XP93T6twrX4qe+Koe7/wChff8ACmu/W/r/APhr9JT/AKdr9Y9P6968&#xA;Pr/Y/eU9b0a+n8PSmKv/2Q==</xmpGImg:image>
               </rdf:li>
            </rdf:Alt>
         </xmp:Thumbnails>
      </rdf:Description>
      <rdf:Description rdf:about=""
            xmlns:xmpMM="http://ns.adobe.com/xap/1.0/mm/"
            xmlns:stRef="http://ns.adobe.com/xap/1.0/sType/ResourceRef#"
            xmlns:stEvt="http://ns.adobe.com/xap/1.0/sType/ResourceEvent#">
         <xmpMM:OriginalDocumentID>uuid:9E3E5C9A8C81DB118734DB58FDDE4BA7</xmpMM:OriginalDocumentID>
         <xmpMM:DocumentID>xmp.did:FD7F117407206811822A8451A1857300</xmpMM:DocumentID>
         <xmpMM:InstanceID>xmp.iid:FD7F117407206811822A8451A1857300</xmpMM:InstanceID>
         <xmpMM:RenditionClass>proof:pdf</xmpMM:RenditionClass>
         <xmpMM:DerivedFrom rdf:parseType="Resource">
            <stRef:instanceID>xmp.iid:FC7F117407206811822A8451A1857300</stRef:instanceID>
            <stRef:documentID>xmp.did:FC7F117407206811822A8451A1857300</stRef:documentID>
            <stRef:originalDocumentID>uuid:9E3E5C9A8C81DB118734DB58FDDE4BA7</stRef:originalDocumentID>
            <stRef:renditionClass>proof:pdf</stRef:renditionClass>
         </xmpMM:DerivedFrom>
         <xmpMM:History>
            <rdf:Seq>
               <rdf:li rdf:parseType="Resource">
                  <stEvt:action>saved</stEvt:action>
                  <stEvt:instanceID>xmp.iid:F77F117407206811822A8451A1857300</stEvt:instanceID>
                  <stEvt:when>2013-10-06T17:09:14+13:00</stEvt:when>
                  <stEvt:softwareAgent>Adobe Illustrator CS6 (Macintosh)</stEvt:softwareAgent>
                  <stEvt:changed>/</stEvt:changed>
               </rdf:li>
               <rdf:li rdf:parseType="Resource">
                  <stEvt:action>saved</stEvt:action>
                  <stEvt:instanceID>xmp.iid:FD7F117407206811822A8451A1857300</stEvt:instanceID>
                  <stEvt:when>2013-10-06T17:49:18+13:00</stEvt:when>
                  <stEvt:softwareAgent>Adobe Illustrator CS6 (Macintosh)</stEvt:softwareAgent>
                  <stEvt:changed>/</stEvt:changed>
               </rdf:li>
            </rdf:Seq>
         </xmpMM:History>
      </rdf:Description>
      <rdf:Description rdf:about=""
            xmlns:xmpTPg="http://ns.adobe.com/xap/1.0/t/pg/"
            xmlns:stDim="http://ns.adobe.com/xap/1.0/sType/Dimensions#"
            xmlns:xmpG="http://ns.adobe.com/xap/1.0/g/">
         <xmpTPg:NPages>1</xmpTPg:NPages>
         <xmpTPg:HasVisibleTransparency>False</xmpTPg:HasVisibleTransparency>
         <xmpTPg:HasVisibleOverprint>False</xmpTPg:HasVisibleOverprint>
         <xmpTPg:MaxPageSize rdf:parseType="Resource">
            <stDim:w>209.999929</stDim:w>
            <stDim:h>210.001308</stDim:h>
            <stDim:unit>Millimeters</stDim:unit>
         </xmpTPg:MaxPageSize>
         <xmpTPg:PlateNames>
            <rdf:Seq>
               <rdf:li>Cyan</rdf:li>
               <rdf:li>Magenta</rdf:li>
               <rdf:li>Yellow</rdf:li>
               <rdf:li>Black</rdf:li>
            </rdf:Seq>
         </xmpTPg:PlateNames>
         <xmpTPg:SwatchGroups>
            <rdf:Seq>
               <rdf:li rdf:parseType="Resource">
                  <xmpG:groupName>Default Swatch Group</xmpG:groupName>
                  <xmpG:groupType>0</xmpG:groupType>
               </rdf:li>
            </rdf:Seq>
         </xmpTPg:SwatchGroups>
      </rdf:Description>
      <rdf:Description rdf:about=""
            xmlns:pdf="http://ns.adobe.com/pdf/1.3/">
         <pdf:Producer>Adobe PDF library 10.01</pdf:Producer>
      </rdf:Description>
      <rdf:Description rdf:about=""
            xmlns:xmpRights="http://ns.adobe.com/xap/1.0/rights/">
         <xmpRights:Marked>True</xmpRights:Marked>
         <xmpRights:WebStatement rdf:resource="http://www.ospreydawn.com"/>
         <xmpRights:UsageTerms>
            <rdf:Alt>
               <rdf:li xml:lang="x-default">This work is licensed under a &lt;a rel="license" href="http://creativecommons.org/licenses/by-nc-sa/3.0/"&gt;Creative Commons Attribution-NonCommercial-ShareAlike 3.0 Unported License&lt;/a&gt;.</rdf:li>
               <rdf:li xml:lang="en_us">This work is licensed under a &lt;a rel="license" href="http://creativecommons.org/licenses/by-nc-sa/3.0/"&gt;Creative Commons Attribution-NonCommercial-ShareAlike 3.0 Unported License&lt;/a&gt;.</rdf:li>
               <rdf:li xml:lang="en">This work is licensed under a &lt;a rel="license" href="http://creativecommons.org/licenses/by-nc-sa/3.0/"&gt;Creative Commons Attribution-NonCommercial-ShareAlike 3.0 Unported License&lt;/a&gt;.</rdf:li>
            </rdf:Alt>
         </xmpRights:UsageTerms>
      </rdf:Description>
      <rdf:Description rdf:about=""
            xmlns:cc="http://creativecommons.org/ns#">
         <cc:attributionName>Max O'Brien / Osprey Dawn</cc:attributionName>
         <cc:license rdf:resource="http://creativecommons.org/licenses/by-nc-sa/3.0/"/>
      </rdf:Description>
   </rdf:RDF>
</x:xmpmeta>
                                                                                                    
                                                                                                    
                                                                                                    
                                                                                                    
                                                                                                    
                                                                                                    
                                                                                                    
                                                                                                    
                                                                                                    
                                                                                                    
                                                                                                    
                                                                                                    
                                                                                                    
                                                                                                    
                                                                                                    
                                                                                                    
                                                                                                    
                                                                                                    
                                                                                                    
                                                                                                    
                           
<?xpacket end="w"?>
	</metadata>
<g id="Layer_2">
	<g id="_x37_Wl2mV_1_">
	</g>
</g>
<g id="Layer_1_1_">
	<g>
		<path fill="#9D0026" d="M349.79,90.837c0.604,0.655,14.961,16.168,23.146,28.326c4.863,7.229,9.182,15.665,11.974,21.54
			c5.469-0.769,12.736-1.615,18.215-1.615c2.002,0,3.693,0.106,5.185,0.326c12.953,1.904,16.992,13.345,19.664,20.913
			c0.233,0.668,0.475,1.34,0.719,2.006c0.576,1.6,1.115,3.271,1.607,4.937c1.483-0.643,3.116-1.304,4.91-1.988
			c4.131-1.582,6.735-5.275,9.034-8.535c2.49-3.521,5.896-8.354,12.312-8.354c2.465,0,7.104,0.816,10.44,6.321
			c4.162,6.854,3.168,17.729,1.039,34.823c-0.555,4.453-1.08,8.658-1.137,10.993c-0.195,8.013,1.883,20.051,4.633,26.833
			c3,7.396,7.474,27.405-15.725,53.345c-13.656,15.275-31.615,22.15-41.229,24.912c-0.961,4.119-2.219,9.74-3.146,14.73
			c-0.916,4.938-0.062,5.791,1.229,7.082c1.533,1.533,5.562,5.561,5.527,22.711c0.744,5.877-1.752,14.209-11.277,20.645
			c-4.174,2.822-6.271,5.64-7.078,6.896c-0.596,2.635-1.944,8.805-2.912,14.756c-2.668,16.473-10.672,21.312-18.146,23.875
			c-0.297,0.102-0.595,0.201-0.896,0.297c0.177,0.592,0.317,1.168,0.438,1.729c1.493,1.771,2.557,3.877,3.216,6.063
			c7.833,6.553,23.376,19.789,27.091,24.646c0.31,0.397,0.609,0.789,0.908,1.172c4.695,6.006,8.316,11.754,8.641,26.264
			c0.175,7.809-1.521,15.139-4.896,21.209c-3.107,5.584-7.451,9.812-12.229,11.9c-1.741,0.764-3.674,1.146-5.733,1.146
			c-6.115,0-13.859-3.864-19.081-6.961c-2.259,0.439-5.127,0.793-8.526,0.793c-4.63,0-9.42-0.647-14.231-1.936
			c-10.079-2.689-16.628-8.689-20.529-13.67c-2.758,0.496-6.049,0.879-9.646,0.879c-5.994,0-11.625-1.062-16.727-3.146
			c-8.891-3.639-15.32-9.055-19.15-12.961c-2.988-3.053-8.148-9.021-9.106-14.77c-0.003-0.021-0.009-0.035-0.014-0.058
			c-1.135,0.558-2.148,1.113-3.021,1.64c-0.591,3.807-2.151,8.727-5.895,14.02c-4.936,6.99-9.848,15.926-11.078,18.39
			c-1.299,2.598-3.286,4.67-5.681,6.03c-6.452,13.836-14.713,23-28.357,31.775c-5.761,3.701-12.749,5.58-20.775,5.58
			c-5.067,0-9.693-0.758-13.134-1.541c-3.767,2.387-8.312,3.776-12.817,3.776c-4.816,0-13.912-1.637-20.685-12.59
			c-8.248-13.344-10.943-26.119-9.312-44.098c1.587-17.443,18.893-29.699,32.792-39.549c1.927-1.363,3.803-2.691,5.567-3.988
			c7.968-5.842,15.313-9.885,20.384-12.361c0.596-4.715,2.313-10.373,5.17-17.026c2.146-4.998,4.608-8.658,7.156-11.33
			c-6.284-7.562-14.677-19.383-24.438-37.365c-6.232-11.488-10.979-23.697-14.569-35.201c-9.925-0.606-33.118-2.897-46.363-11.182
			c-5.72-3.572-14.768-12.185-11.104-29.665c1.771-8.46,6.01-16.404,9.043-21.646c6.374-11.012,10.537-12.896,21.546-13.665
			l1.501-0.104c3.377-0.247,9.119-2.469,14.005-4.77c0.047-9.443,0.752-29.023,4.646-60.026
			c5.769-45.912,29.894-90.992,30.917-92.894c0,0,13.484-24.274,32.592-34.43c0,0-9.766,24.756-14.109,42.717
			c-0.061,0.163-6.979,20.093-10.164,65.092c-1.812,25.624-0.884,45.19,0.286,57.448c4.51-2.996,9.636-6.51,15.105-10.259
			c19.28-13.212,43.275-29.655,63.812-39.585c23.239-11.235,48.746-19.676,62.262-23.812c-0.604-2.312-1.343-5.142-2.239-8.585
			c-2.813-10.771-13.716-30.163-17.677-36.726c0,0-14.291-22.411-25.04-31.964C308.611,71.028,329.175,72.44,349.79,90.837z"/>
		<g>
			<path fill="#FFFFFF" d="M404.139,154.698c0,0,8.059,8.646,6.485,24.986c-1.563,16.344-8.061,27.763-8.28,34.027
				c-0.226,6.271,9.815,37.617,33.811,40.073l-16.906-27.09l2.804-40.748l-11.193-32.462l-6.045-1.345L404.139,154.698z"/>
			<path fill="#FFFFFF" d="M455.407,170.059c0,0-4.928,18.582-5.375,32.91c-0.444,14.326,6.363,23.537,6.938,35.598
				c0.578,12.059-11.111,31.588-18.094,35.16l1.752,4.244l14.998-17.02l6.047-18.808l-3.138-16.119l-4.026-19.254l0.896-19.926
				L455.407,170.059L455.407,170.059z"/>
			<polygon fill="#FFFFFF" points="356.45,118.116 364.959,141.177 369.883,155.73 378.613,154.61 370.33,136.924 362.159,123.377 
							"/>
			<path fill="#FFFFFF" d="M200.85,145.059c0,0-12.239,70.146,4.479,129.553c16.717,59.403,50.739,93.562,50.739,93.562l8.963-1.316
				l-2.39-4.875L203.831,242.08l-4.179-34.627l0.744-36.866L200.85,145.059z"/>
			<polygon fill="#FFFFFF" points="184.283,461.555 171.969,472.749 180.7,491.329 198.835,470.963 189.208,457.754 			"/>
			<path fill="#FFFFFF" d="M223.769,416.809c0,0,6.409-10.107,14.471-6.973c8.06,3.133,17.463,12.09,19.254,23.729
				c1.791,11.646,2.55,22.725-1.229,29.664l5.709-3.02l1.343-25.978l-9.854-23.729l-14.772-7.166l-10.747,3.135l-5.597,8.508
				L223.769,416.809z"/>
			<polygon fill="#FFFFFF" points="390.032,454.612 390.032,470.284 405.704,480.358 406.821,472.973 405.479,465.024 
				398.427,457.971 			"/>
			<path fill="#FFFFFF" d="M290.702,419.688c0,0-2.984,6.715,2.984,22.834c5.973,16.121,18.703,19.133,18.703,19.133l-5.571-7.69
				C306.818,453.963,296.972,441.778,290.702,419.688z"/>
			<path fill="#FFFFFF" d="M308.493,433.29c0,0,9.075,5.06,13.555,8.642c4.479,3.584,21.521,11.479,38.073,3.129l1.776-4.383
				l-5.229,0.35l-9.104,1.951l-12.374-1.047l-10.909-4.775l-4.777-3.856l-4.479-1.22L308.493,433.29z"/>
			<path fill="#FFFFFF" d="M378.167,361.975c0,0,0.646,15.27-4.455,29.397c0,0,4.63-6.342,9.021-1.252l4.393-20.143
				c0,0-0.444-1.34-2.39-2.98C382.794,365.358,380.406,364.86,378.167,361.975z"/>
			<path fill="#FFFFFF" d="M315.776,323.194c0,0-2.982,3.955-4.479,5.449c-1.487,1.492-3.562,6.074-0.884,11.195
				c2.674,5.116,2.08,9.102,8.049,9.396c5.975,0.303,8.657-0.299,12.836,0c4.184,0.303,9.042-1.375,13.211-4.188
				c4.174-2.82,0.818-4.166,0.818-4.166l-29.403-7.461l3.581-6.869L315.776,323.194z"/>
			<path fill="#FFFFFF" d="M388.131,295.208c0,0-2.053,1.193-3.546,1.792c0,0-4.024,6.509-4.771,15.192
				c-0.746,8.688,0,17.746,0,17.746s0.437,4.119,1.783,7.307c1.353,3.189,7.021,10.806,7.021,10.806s6.729,5.901,11.497,7.133
				c4.771,1.227,6.111,1.227,6.562-3.104c0.444-4.327-0.148-15.549-0.148-15.549l-2.51-0.27c0,0-1.371,5.52-2.269,5.965
				c-0.896,0.447-3.584,4.801-2.838,7.102c0,0-5.356-4.86-11.412-17.625l2.867-29.664c0,0,2.728-5.812,5.855-6.021
				c3.137-0.208,1.047,5.312,1.346,9.494c0.297,4.182-0.447,7.312-0.447,7.312s-0.713,6.888,1.357,12.729l7.446-36.46l-21.347-3.582
				l-0.896,5.227L388.131,295.208z"/>
			<path fill="#FFFFFF" d="M323.092,398.256c0,0-0.972-5.207-0.443-7.896c0.521-2.688-0.601-3.66-1.191-3.584
				c-0.602,0.074-2.24,0.299-2.465,3.357c-0.225,3.061,0.375,8.655,0.375,8.655l2.462,0.521L323.092,398.256z"/>
			<path fill="#FFFFFF" d="M329.978,402.098c0,0-1.244-6.146,0-9.053c1.246-2.91,3.708-2.293,4.307-1.668
				c0.603,0.625,0.271,1.84,0,2.896c-0.267,1.062,0.335,3.771,0.335,3.771l0.787,5.073l-2.989,0.521L329.978,402.098z"/>
			<path fill="#FFFFFF" d="M343.389,404.911c0,0-1.528-6.25-0.896-9.323c0.634-3.08,4.025-2.312,4.552-2.095
				c0.521,0.228,1.604,1.242,1.496,3.757c-0.104,2.518,1.041,6.989,1.041,6.989l-2.762,1.349L343.389,404.911z"/>
			<path fill="#FFFFFF" d="M356.45,405.588c0,0-1.562-9.56,0.747-11.271s3.579,0,3.579,0l0.374,4.105l0.372,6.717l-2.235,0.971
				L356.45,405.588z"/>
			<path fill="#FFFFFF" d="M367.496,403.643c0,0-2.463-12.666,2.609-12.271c5.075,0.396,0.896,9.205,3.137,12.271H367.496z"/>
			<path fill="#FFFFFF" d="M379.477,400.135c0,0-1.288-7.961,0.938-9.279c2.229-1.312,2.604,0.92,2.604,0.92l-1.191,6.197
				L379.477,400.135z"/>
			<path fill="#FFFFFF" d="M314.584,423.889c0,0,0.521-1.291,0-2.41c-0.521-1.119,2.019-2.236,2.766-1.791
				c0.743,0.447,2.98,1.566,3.061,2.76c0.074,1.195-1.815,2.273-1.47,3.062C319.286,426.302,314.584,423.889,314.584,423.889z"/>
			<path fill="#FFFFFF" d="M324.463,429.102c0,0-1.344-3.1-0.624-4.34c0,0,2.094,0.313,2.537,0.901
				c0.446,0.593,2.409,0.949,2.837,1.707c0.669,1.191-2.236,6.865-1.489,8.656l-0.372,1.416l-3.726-1.562L324.463,429.102z"/>
			<path fill="#FFFFFF" d="M334.212,440.42c0,0,1.226-6.927,0.984-8.718s-0.09-3.729,1.326-3.651
				c1.419,0.067,4.183,1.717,4.031,3.061c-0.148,1.344-2.688,6.193-1.938,8.879c0.744,2.689-0.447,1.568-0.447,1.568L334.212,440.42
				z"/>
			<path fill="#FFFFFF" d="M347.643,441.782c0,0,1.346-5.373,1.346-6.862c0-1.496-3.955-2.021-2.612-3.812
				c1.348-1.791,3.956-2.311,4.854-1.418c0.896,0.896,1.938,1.939,1.494,2.836c-0.447,0.896-1.42,1.199-1.494,2.396
				c-0.073,1.188,0.228,6.862,0.228,6.862L347.643,441.782L347.643,441.782z"/>
			<path fill="#FFFFFF" d="M359.959,439.239c0,0,0.375-5.815-1.229-7.166c-1.604-1.34-3.018-1.678-2.794-2.812
				c0.217-1.135,3.876-1.215,4.396-1.213c0.521,0.002,3.935,3.766,1.938,9.399C360.28,443.092,359.959,439.239,359.959,439.239z"/>
			<path fill="#FFFFFF" d="M361.088,414.499c0,0-1.504,0.785-0.979,1.904c0.521,1.119,2.884,2.855,3.156,4.748
				c0.273,1.896,0.427,3.611,0.427,3.611h1.562l1.646-3.582l-0.671-3.734l-2.778-2.947
				C363.447,414.499,361.882,413.842,361.088,414.499z"/>
		</g>
		<g>
			<path d="M388.352,342.784c-1.006-6.83-4.59-12.196-4.59-12.196s-3.021-2.912-4.929,0.561c-1.898,3.467-3.689,8.617-6.488,11.863
				c-2.804,3.246-4.472,5.18-6.72,7.164c0,0-3.136,2.016-2.91,3.688c0.228,1.687,1.447,4.597,1.447,4.597s0.454,1.68,4.71,2.233
				c4.253,0.562,8.283-0.783,10.296-0.783c2.02,0,3.022,3.14,5.603,1.683C387.346,360.137,389.36,349.612,388.352,342.784z
				 M382.085,332.262c-0.085,2.483-1.564,13.442-1.564,13.442c-0.562,0.125-2.462,0.771-2.462,0.771
				c0.337-5.934,2.462-13.32,2.462-13.32S382.205,328.795,382.085,332.262z"/>
			<path d="M390.368,302.036c0,0-2.802,6.605-3.021,12.095c-0.229,5.481-0.449,9.852-0.784,11.309
				c-0.337,1.453,0.309,5.709,2.057,8.73c1.751,3.02,4.212,8.395,6.003,4.024c1.793-4.365-0.334-13.77,0.672-20.373
				c1.013-6.604-2.125-10.301-2.012-12.426C393.389,303.268,392.942,298.119,390.368,302.036z"/>
			<path d="M360.703,301.151c0,0,4.812,8.162,6.156,17.34c1.346,9.187-0.672,21.353-0.672,21.353s3.689-3.438,6.604-7.808
				c2.912-4.358,3.811-7.746,2.128-11.541c-1.678-3.795-4.702-13.516-3.918-19.344c0.784-5.83,1.119-8.854,1.119-8.854
				s-4.588,0.227-7.271,2.237C362.159,296.553,360.703,301.151,360.703,301.151z"/>
			<path d="M331.71,299.802c0,0-7.726,2.062-11.642,12.395c-3.918,10.328-5.147,12.568-5.147,12.568s0.335,2.238,0,3.354
				c-0.337,1.121-3.247,4.26-1.564,6.158c1.68,1.902,4.479,2.238,6.72,5.037c2.235,2.799,13.318,7.053,24.291,4.479
				c0,0-0.674,1.229-3.586,2.688c-2.907,1.457,10.076-1.902,16.682-15c6.604-13.096-0.108-21.381-1.791-26.418
				c-1.678-5.037-4.064-10.858-11.885-8.507C335.965,298.903,331.71,299.802,331.71,299.802z"/>
			<path d="M462.122,231.179c-3.354-8.284-5.598-21.722-5.368-30.896c0.221-9.181,5.368-34.03,1.562-40.3
				c-3.809-6.271-6.043,9.627-19.479,14.773c-13.438,5.147-15.229,8.062-15.229,8.062s-1.789-9.627-4.479-17.015
				c-2.688-7.393-4.696-15.229-12.312-16.348c-7.609-1.118-27.981,2.464-27.981,2.464s-6.488-15.444-14.329-27.091
				c-7.834-11.643-22.159-27.09-22.159-27.09s14.999,24.854,18.807,39.403c3.809,14.553,4.7,18.135,4.7,18.135
				s-37.711,10.298-70.125,25.971c-32.413,15.673-74.729,48.811-91.294,57.538c0,0-5.821-27.538-2.463-75
				c3.354-47.464,10.742-67.837,10.742-67.837s-24.179,44.776-29.773,89.33c-5.6,44.552-4.479,64.926-4.479,64.926
				s-14.328,8.062-23.507,8.731c-9.181,0.671-10.075,0.224-15,8.729c-4.927,8.511-15.671,28.657-1.345,37.613
				c14.328,8.955,45.674,9.854,45.674,9.854s-6.271-17.912-5.147-41.867c0,0,4.028,45.449,23.954,82.166
				c19.93,36.717,33.358,45.895,33.358,45.895s-8.955-4.024-15.673,11.646c-6.716,15.674-4.028,19.479-4.028,19.479
				s-11.418,4.256-24.853,14.105c-13.438,9.852-32.911,21.494-34.254,36.27c-1.348,14.775,0.226,25.521,7.836,37.838
				c7.608,12.312,19.026,7.392,22.391,2.908c0,0,18.356,6.724,30.896-1.344c12.534-8.059,20.146-16.342,26.418-31.568
				c0,0,2.688,0.449,4.026-2.231c1.347-2.689,6.493-12.09,11.866-19.703s4.254-13.656,4.254-13.656s7.688-6.418,18.508-8.805
				c0,0,3.884,7.461,4.479,11.043c0.599,3.584,8.956,14.629,22.09,20c13.136,5.375,27.163,0,27.163,0s5.074,11.938,18.51,15.521
				c13.437,3.58,21.793,0,21.793,0s14.327,9.558,19.104,7.461c4.771-2.088,11.344-10.146,11.043-23.575
				c-0.297-13.438-3.58-16.419-7.461-21.492c-3.886-5.076-28.357-25.375-28.357-25.375s-0.074-5.229-3.433-6.117
				c0,0,0-4.703-2.24-7.615c-2.235-2.907-8.062-3.805-8.062-3.805l-0.446-2.91c0,0,9.628,0,17.464-2.688
				c7.837-2.688,10.076-7.61,11.418-15.896c1.345-8.283,3.354-16.791,3.354-16.791s2.688-6.047,10.976-11.643
				c8.283-5.603,6.799-11.418,6.799-11.418s0.143-13.658-2.545-16.351c-2.688-2.684-5.818-6.492-4.027-16.119
				c1.789-9.627,4.697-21.268,4.697-21.268s25.074-4.253,42.094-23.284C465.258,254.909,465.481,239.461,462.122,231.179z
				 M404.434,466.403c1.938,6.568,0,12.396,0,12.396c-2.392-1.941-11.938-8.812-11.938-8.812c2.236-6.715-0.672-13.133-0.672-13.133
				C400.255,461.18,404.434,466.403,404.434,466.403z M386.524,452.522c-0.747-1.938,0-3.432,0-3.432
				c7.016,18.807-2.238,29.703-2.238,29.703C389.807,467.006,387.27,454.469,386.524,452.522z M389.958,486.26
				c2.688,2.389,10.601,6.28,10.601,6.28s-3.73,5.513-7.312,4.312c-3.582-1.193-10.147-5.225-10.147-5.225
				C387.294,489.776,389.958,486.26,389.958,486.26z M359.137,122.147c8.279,7.911,17.312,29.773,17.312,29.773l-3.209,0.675
				C369.211,140.281,359.137,122.147,359.137,122.147z M197.567,260.879c-8.655-58.508,3.283-115.817,3.283-115.817
				s-8.356,59.702,4.479,117.608c12.836,57.914,53.73,101.796,53.73,101.796l-6.271,7.762
				C252.791,372.225,206.223,319.389,197.567,260.879z M205.963,440.944c6.042-3.811,13.581-7.936,19.738-9.608
				c6.155-1.687,7.274,1.897,7.274,1.897s-3.475-0.113-16.901,6.752c-13.435,6.869-23.396,18.104-23.396,18.104
				c-2.688-3.359-6.354-3.812-6.354-3.812S197.603,446.219,205.963,440.944z M174.432,474.881
				c5.146-8.283,14.329-14.664,14.329-14.664c4.026,2.016,7.052,9.514,7.052,9.514c-4.364,6.715-13.437,17.127-13.437,17.127
				C179.917,478.233,174.432,474.881,174.432,474.881z M183.275,521.778c4.145-7.271,4.366-16.119,4.366-16.119
				c5.481-5.815,11.645-17.127,11.645-17.127c1.007,13.654-2.688,19.363-2.688,19.363
				C191.111,515.286,183.275,521.778,183.275,521.778z M223.462,507.677c-15.896,11.979-27.646,7.606-27.646,7.606
				c6.812-8.651,6.381-21.045,6.381-21.045s3.358-6.604,8.061-12.873c4.702-6.268,13.102-15.108,13.102-15.108
				c3.354,2.801,7.39,12.312,8.396,15.108c1.01,2.804,4.028,5.484,4.028,5.484S239.358,495.694,223.462,507.677z M256.261,463.233
				c-4.258,5.262-7.392,19.479-11.194,17.576c-3.805-1.904-5.709,0.893-5.709,0.893c-6.044-9.961-1.791-20.598,0.784-29.438
				c2.571-8.842-0.448-21.156-2.019-23.955c-1.564-2.797-4.026-5.037-6.492-3.582c-2.464,1.457-10.521,3.582-10.521,3.582
				s0.561-8.059,4.365-15.336c3.808-7.275,13.209-10.746,21.829-3.355c8.617,7.392,11.644,14.326,13.771,25.072
				C263.201,445.434,260.515,457.971,256.261,463.233z M270.366,446.219c-2.239,1.008-4.812,1.119-4.812,1.119
				c0.671-2.354,0-8.849,0-8.849c3.81-1.578,10.298-3.021,10.298-3.021c0.226,1.229,1.792,5.709,1.792,5.709
				C274.844,442.749,272.605,445.215,270.366,446.219z M330.406,474.172c-11.645,2.09-28.511,0.44-40.152-25.076
				c-11.645-25.521-29.853-38.812-36.271-44.479c-6.418-5.672-2.688-18.955-2.688-18.955s-0.601,12.943,7.765,14.031
				c6.426,0.836,16.418,7.014,19.555,14.625c3.134,7.613,11.343,15.229,11.343,15.229s-3.435-6.867-4.03-9.854
				c-0.597-2.983-2.835-12.09-6.116-20.447c-3.283-8.354-4.479-20.896-4.479-20.896c1.045,1.641,5.819-0.146,6.271-3.43
				c0.443-3.285,1.489-7.021,5.226-6.724c3.729,0.297,5.073,2.09,5.073,2.09c-5.073-0.301-7.761,4.328-8.209,7.468
				c-0.446,3.133-2.089,8.651,1.045,12.233c3.136,3.58,3.729,5.976,4.181,15.521c0.446,9.547,7.762,24.772,12.393,24.729
				c4.627-0.049,5.971,4.377,10.444,3.187c4.479-1.193,8.356,2.053,8.356,2.053s6.717,5.859,17.91,8.135
				c11.189,2.271,22.688-2.201,22.688-2.201c-1.493,4.703,0.598,5.603-1.491,7.689c-2.09,2.09-13.135,2.236-23.135,2.537
				c-10.001,0.297-17.463-6.719-21.938-6.271c-4.479,0.447-6.566,6.117-6.722,7.162c-0.146,1.047-5.227,7.021,8.955,10.299
				c14.184,3.283,14.931-5.371,22.838-5.969c7.908-0.598,20.146-3.881,20.146-3.881c-0.297,4.328,1.938,4.627,0,9.553
				C357.418,467.45,342.046,472.075,330.406,474.172z M376.524,491.479c0,0-3.88,1.193-7.761,1.045
				c-3.885-0.146-5.374-6.27-5.374-6.27c3.134,2.838,13.135,1.938,13.135,1.938C375.928,489.844,376.524,491.479,376.524,491.479z
				 M375.629,484.911c0,0-7.761,2.396-16.271-3.209c-8.506-5.596-9.697-9.477-9.697-9.477s7.907-2.088,11.938-4.404
				C361.599,467.821,370.853,474.315,375.629,484.911z M366.302,433.27c0,0,0.018-0.17,0.034-0.438
				c-0.062-0.217-0.223-0.524-0.562-0.979c-0.896-1.193-2.759,0.447-3.062,0.971c-0.299,0.523-0.147,3.888-0.97,4.775
				c-0.821,0.896-3.881,1.27-3.881,1.27s0.444-0.672,0-2.836c-0.45-2.164-3.812-2.233-6.048-2.016
				c-2.238,0.227-1.643,6.791-1.643,6.791c-1.646,0.822-4.854,0-4.854,0s0.445-2.312,0-3.73c-0.447-1.414-2.237-2.162-4.927-2.09
				c-2.688,0.074-2.312,5.82-2.312,5.82c-2.835-0.15-5-1.119-5-1.119s-0.371-2.09-0.597-4.217c-0.226-2.129-2.312-2.726-3.73-2.873
				c-1.418-0.146-1.043,3.434-1.043,3.434s-0.521,0.676-2.237,0c-1.719-0.672-1.271-4.771-1.045-5.742
				c0.225-0.975,0-2.237-1.191-2.534c-1.193-0.306-1.604,3.354-2.165,4.022c-0.562,0.669-2.464,0-2.464,0s0.562-3.021,0.674-4.812
				c0.11-1.793-0.562-2.574-2.575-3.076c-2.017-0.502-2.127,0-2.127,0l-1.456,6.098c-2.018,0.113-4.104-2.461-4.104-2.461
				s0.752-2.801,1.312-5.146c0.562-2.355-2.688-3.248-2.688-3.248c0.896-1.344,2.688-1.344,2.688-1.344
				c6.644-0.267,9.774,2.129,11.417,3.713c1.645,1.582,8.658,5.877,12.609,5.506c3.956-0.375,11.418,0.145,15.226,0.672
				c3.812,0.52,8.73-0.449,11.12-1.047c2.394-0.597,3.209,0.521,4.628,1.717c1.121,0.943,1.076,3.467,1.009,4.486
				C366.443,433.184,366.302,433.27,366.302,433.27z M360.703,414.469c3.062,0.146,4.479,2.164,5.299,5.071
				c0.822,2.906-1.643,5.302-1.938,3.582c-0.3-1.721-0.817-2.688-3.357-2.907c-2.537-0.229-1.271,3.508-2.834,3.881
				c-1.564,0.371-3.437-0.672-3.809-3.209s0.672-5.978,0.672-5.978C355.629,413.569,357.643,414.317,360.703,414.469z
				 M400.778,301.151c-2.572,9.074-2.572,22.154-2.572,22.154c0.562,8.621,6.492,13.209,6.938,14.438
				c0.442,1.234,1.229,16.457-0.562,17.576s-7.608-0.895-9.182-2.231c-1.564-1.351-3.244-2.24-4.59-1.015
				c-1.347,1.23-2.354,5.148-3.918,13.992c-1.564,8.846-4.421,27.707-5.877,31.062c-1.455,3.354-5.036,3.858-5.036,3.858
				c-0.396-0.949-1.119-7.893,0.671-10.242c1.791-2.352,4.812-1.114,4.812-1.114s-0.729-1.457-2.518-1.517
				c-1.79-0.057-4.364,1.287-5.598,3.918c-1.231,2.633-1.121,10.523-1.121,10.523c-5.434,1.791-8.171,0-8.171,0
				c-0.952-3.812-0.729-6.494-0.729-6.494s-0.17-2.354,1.679-4.422c1.852-2.07,5.098-1.678,5.098-1.678
				c-0.844-0.562-2.969-0.951-3.861-0.896c-0.896,0.057-4.592,0.562-5.935,5.037c-1.348,4.479-0.537,10.479-0.537,10.479
				c-3.562,1.074-8.024,0-8.024,0s-0.614-3.6-0.505-5.942c0.11-2.355,0.95-3.81,3.022-5.263c2.066-1.457,4.312-0.616,4.312-0.616
				s-0.112-1.175-3.584-1.232c-3.471-0.055-4.702,1.064-5.936,3.646c-1.229,2.569-0.279,8.896-0.279,8.896
				c-4.196,1.176-10.354,0.168-10.856-1.229c-0.021-0.068-0.047-0.146-0.065-0.234c-0.44-1.705-0.54-6.869-0.437-7.881
				c0.108-1.062,1.229-2.463,3.354-2.574c2.128-0.111,3.522,0.951,3.522,0.951s-0.395-1.568-2.571-2.072
				c-2.187-0.502-6.217-0.895-7.443,3.246c-1.229,4.146-0.056,8.004-0.056,8.004c-6.889,0.336-7.561-1.899-7.561-1.899
				c-0.502-1.621-0.614-4.929-0.225-8.679c0.392-3.75,6.718-2.293,6.718-2.293c-3.021-2.069-6.271-2.016-8.729-0.562
				c-2.466,1.457-1.347,9.401-1.347,9.401c-6.66,0.896-9.854-3.809-9.854-3.809s0.06-5.207,2.018-7.221
				c1.957-2.019,6.045-1.062,6.045-1.062c-0.95-1.344-3.858-1.961-6.771-1.563c-2.91,0.393-3.376,8.379-3.376,8.379
				c-3.881-1.193-4.479-3.438-4.479-3.438s0-6.268,3.581-8.354s7.462,1.045,7.462,1.045c3.583-8.955,14.774-12.39,20.45-13.283
				c5.671-0.896,12.981-4.479,17.761-10.146c4.773-5.677,3.882-19.402,3.581-15.074c-0.298,4.328-4.479,8.508-7.016,9.256
				c-2.537,0.744-28.51-1.193-34.029-3.73c-5.521-2.539-4.925-3.436-6.564-7.312c-1.645-3.881-6.438-4.185-6.438-4.185
				s2.258,1.049,2.854,3.438c0.598,2.389,1.344,3.729,3.28,5.82c1.94,2.09,0.896,3.729-2.39,6.405
				c-3.285,2.682-5.971,0.013-12.389,1.65c-6.419,1.641-8.357,6.418-8.956,7.611c-0.6,1.188-3.729,1.485-4.597-1.193
				c-0.859-2.688-2.122-4.18-0.93-7.312c1.191-3.139,0.896-10.896,0.896-10.896c1.118-3.32,5.818-6.644,6.938-7.201
				c1.12-0.559,2.575,0.111,5.548-4.59c2.977-4.699,1.396-8.844,1.396-15.896c0-7.059,1.566-12.538,4.929-18.023
				c3.354-5.484,16.455-8.284,20.599-8.73c4.144-0.447,9.964-1.007,11.529-2.127c1.563-1.119,12.646-1.562,12.646-1.562
				s22.056,0,27.201,1.764c5.146,1.765,7.389,6.408,9.289,7.751c1.901,1.344,4.813,0.562,4.813,0.562s-0.896-1.563-2.128-3.807
				c-1.232-2.24-1.012-4.479-1.012-4.479c4.699-0.337,18.021,2.569,18.021,2.569S403.352,292.074,400.778,301.151z M459.215,242.371
				c-1.015,16.824-17.91,33.358-17.91,33.358s-11.191-10.074-23.285-12.984c-12.088-2.911-31.79-5.373-45.443-3.583
				c-13.657,1.792-29.555-10.971-30.227-31.12c-0.676-20.146,10.521-21.491,7.607-34.7c-2.909-13.208-17.234-21.718-17.234-21.718
				s22.388-10.069,38.062-13.434c15.671-3.357,36.938-3.582,36.938-3.582s6.27,12.09,9.182,27.312
				c2.906,15.227-3.586,27.312-3.807,43.436c-0.229,16.12,18.131,27.983,23.061,28.435c4.928,0.447,14.328-11.189,11.418-37.165
				c-2.912-25.971,7.836-46.562,7.836-46.562C446.452,215.73,460.219,225.549,459.215,242.371z"/>
		</g>
	</g>
</g>
<g>
	<path fill="#BDC2BC" d="M534.992,588.913c-0.739,0-1.34-0.602-1.34-1.341v-16.588c0-0.739,0.601-1.339,1.34-1.339h52.497
		c0.738,0,1.339,0.6,1.339,1.339v16.588c0,0.739-0.601,1.341-1.339,1.341H534.992z"/>
	<g>
		<path d="M558.027,571.51c-2.725,0-4.935,2.21-4.935,4.934c0,2.729,2.21,4.938,4.935,4.938c2.728,0,4.938-2.21,4.938-4.938
			C562.964,573.719,560.755,571.51,558.027,571.51z"/>
		<path fill="#FFFFFF" d="M558.027,580.461c-2.219,0-4.015-1.798-4.015-4.019c0-2.217,1.797-4.014,4.015-4.014
			c2.219,0,4.019,1.798,4.019,4.014C562.046,578.664,560.246,580.461,558.027,580.461z"/>
		<g>
			<path d="M559.402,575.293c0-0.219-0.182-0.398-0.398-0.398h-1.952c-0.221,0-0.401,0.181-0.401,0.398v1.985h0.528v2.338h1.694
				v-2.338h0.527L559.402,575.293L559.402,575.293z"/>
			<path d="M558.695,573.942c0,0.37-0.3,0.668-0.667,0.668c-0.371,0-0.67-0.299-0.67-0.668s0.301-0.67,0.67-0.67
				C558.395,573.272,558.695,573.571,558.695,573.942z"/>
		</g>
	</g>
	<path d="M587.175,569.198h-51.868c-1.157,0-2.102,0.943-2.102,2.102v15.96c0,1.158,0.943,2.1,2.102,2.1h51.868
		c1.158,0,2.102-0.94,2.102-2.1V571.3C589.275,570.141,588.332,569.198,587.175,569.198z M588.644,583.375h-37.865
		c-1.477,2.809-4.417,4.725-7.81,4.725s-6.333-1.916-7.809-4.725h-1.326V571.3c0-0.812,0.658-1.471,1.47-1.471h51.869
		c0.811,0,1.471,0.658,1.471,1.471V583.375L588.644,583.375z"/>
	<g>
		<path fill="#FFFFFF" d="M557.773,584.933c0.1,0.14,0.15,0.302,0.15,0.495c0,0.198-0.052,0.357-0.151,0.479
			c-0.057,0.066-0.14,0.131-0.25,0.187c0.168,0.061,0.294,0.155,0.378,0.289c0.085,0.13,0.127,0.289,0.127,0.477
			c0,0.192-0.049,0.365-0.145,0.519c-0.062,0.104-0.14,0.188-0.23,0.256c-0.104,0.078-0.225,0.137-0.369,0.164
			c-0.141,0.028-0.294,0.043-0.459,0.043h-1.466v-3.256h1.573C557.326,584.594,557.607,584.706,557.773,584.933z M556.009,585.151
			v0.717h0.79c0.143,0,0.257-0.026,0.345-0.08s0.133-0.147,0.133-0.286c0-0.15-0.059-0.248-0.176-0.301
			c-0.1-0.033-0.228-0.05-0.383-0.05H556.009L556.009,585.151z M556.009,586.407v0.869h0.789c0.143,0,0.25-0.02,0.328-0.058
			c0.145-0.071,0.217-0.206,0.217-0.407c0-0.17-0.07-0.285-0.208-0.35c-0.077-0.034-0.188-0.056-0.327-0.056L556.009,586.407
			L556.009,586.407z"/>
		<path fill="#FFFFFF" d="M560.469,584.586h0.771l-1.089,2.034v1.222h-0.68v-1.222l-1.127-2.034h0.8l0.677,1.418L560.469,584.586z"
			/>
	</g>
	<g>
		<g>
			<path fill="#FFFFFF" d="M566.517,584.426h0.776l1.403,2.473v-2.473h0.692v3.545h-0.742l-1.443-2.517v2.517h-0.688
				L566.517,584.426L566.517,584.426z"/>
			<path fill="#FFFFFF" d="M570.425,584.797c0.285-0.292,0.647-0.437,1.09-0.437c0.591,0,1.02,0.195,1.295,0.587
				c0.148,0.221,0.229,0.439,0.242,0.661h-0.741c-0.048-0.17-0.106-0.299-0.183-0.384c-0.132-0.153-0.328-0.229-0.586-0.229
				c-0.265,0-0.473,0.107-0.623,0.324c-0.152,0.219-0.229,0.525-0.229,0.923c0,0.399,0.08,0.696,0.241,0.895
				c0.161,0.197,0.365,0.299,0.614,0.299c0.252,0,0.447-0.086,0.581-0.256c0.072-0.09,0.136-0.229,0.183-0.41h0.736
				c-0.066,0.387-0.226,0.699-0.486,0.943c-0.262,0.241-0.594,0.36-1.002,0.36c-0.505,0-0.901-0.163-1.19-0.489
				c-0.288-0.328-0.434-0.777-0.434-1.353C569.93,585.607,570.095,585.133,570.425,584.797z"/>
		</g>
	</g>
	<g>
		<path fill="#FFFFFF" d="M578.517,586.944c0.022,0.173,0.073,0.303,0.145,0.389c0.132,0.154,0.354,0.233,0.673,0.233
			c0.19,0,0.347-0.021,0.465-0.062c0.225-0.078,0.338-0.226,0.338-0.438c0-0.125-0.055-0.223-0.166-0.291
			c-0.113-0.066-0.285-0.126-0.525-0.178l-0.411-0.088c-0.401-0.093-0.679-0.188-0.829-0.294c-0.254-0.173-0.383-0.448-0.383-0.819
			c0-0.339,0.126-0.619,0.376-0.846c0.249-0.224,0.617-0.336,1.102-0.336c0.401,0,0.748,0.104,1.033,0.315
			c0.284,0.213,0.436,0.521,0.45,0.922h-0.762c-0.014-0.227-0.117-0.387-0.306-0.484c-0.126-0.065-0.282-0.096-0.473-0.096
			c-0.209,0-0.375,0.041-0.499,0.122c-0.126,0.083-0.188,0.196-0.188,0.346c0,0.135,0.062,0.236,0.186,0.303
			c0.079,0.043,0.246,0.096,0.502,0.155l0.665,0.156c0.292,0.068,0.513,0.162,0.655,0.276c0.227,0.179,0.339,0.435,0.339,0.771
			c0,0.351-0.134,0.637-0.4,0.863c-0.269,0.229-0.646,0.344-1.134,0.344c-0.5,0-0.891-0.112-1.176-0.339
			c-0.287-0.224-0.432-0.536-0.432-0.929L578.517,586.944L578.517,586.944z"/>
		<path fill="#FFFFFF" d="M582.542,584.325h0.896l1.34,3.791h-0.858l-0.249-0.778h-1.396l-0.255,0.778h-0.828L582.542,584.325z
			 M582.486,586.681h0.972l-0.479-1.49L582.486,586.681z"/>
	</g>
	<g>
		<circle cx="542.95" cy="579.28" r="7.771"/>
		<circle fill="#FFFFFF" cx="542.95" cy="579.278" r="6.322"/>
		<g>
			<path d="M542.597,578.348l-1.188,0.215c-0.041-0.237-0.131-0.416-0.273-0.537c-0.143-0.119-0.325-0.178-0.55-0.178
				c-0.302,0-0.537,0.104-0.72,0.31c-0.18,0.204-0.268,0.555-0.268,1.038c0,0.539,0.09,0.921,0.271,1.146
				c0.183,0.223,0.426,0.332,0.73,0.332c0.229,0,0.417-0.064,0.562-0.195c0.146-0.131,0.249-0.354,0.311-0.67l1.182,0.199
				c-0.123,0.545-0.354,0.954-0.707,1.229c-0.348,0.276-0.813,0.416-1.399,0.416c-0.668,0-1.197-0.21-1.594-0.629
				c-0.396-0.42-0.592-1.004-0.592-1.746c0-0.75,0.198-1.337,0.594-1.754c0.397-0.42,0.936-0.627,1.613-0.627
				c0.555,0,0.995,0.118,1.322,0.355C542.219,577.497,542.453,577.86,542.597,578.348z"/>
			<path d="M547.477,578.348l-1.188,0.215c-0.039-0.237-0.131-0.416-0.272-0.537c-0.144-0.119-0.325-0.178-0.551-0.178
				c-0.301,0-0.539,0.104-0.72,0.31c-0.178,0.204-0.268,0.555-0.268,1.038c0,0.539,0.09,0.921,0.271,1.146
				c0.182,0.223,0.426,0.332,0.729,0.332c0.229,0,0.417-0.064,0.562-0.195c0.146-0.131,0.25-0.354,0.311-0.67l1.183,0.199
				c-0.123,0.545-0.356,0.954-0.708,1.229c-0.349,0.276-0.814,0.416-1.4,0.416c-0.668,0-1.197-0.21-1.593-0.629
				c-0.396-0.42-0.592-1.004-0.592-1.746c0-0.75,0.196-1.337,0.595-1.754c0.396-0.42,0.934-0.627,1.612-0.627
				c0.554,0,0.994,0.118,1.322,0.355C547.1,577.497,547.337,577.86,547.477,578.348z"/>
		</g>
	</g>
	<g>
		<path d="M569.93,571.719c-2.61,0-4.727,2.115-4.727,4.726c0,2.612,2.115,4.729,4.727,4.729s4.728-2.113,4.728-4.729
			C574.658,573.834,572.546,571.719,569.93,571.719z"/>
		<circle fill="#FFFFFF" cx="569.93" cy="576.447" r="3.846"/>
		
			<rect x="569.488" y="571.955" transform="matrix(0.4225 -0.9063 0.9063 0.4225 -193.3242 849.4399)" width="0.924" height="8.958"/>
		<g>
			<path d="M569.58,579.151v-0.637c-0.444-0.013-0.877-0.14-1.129-0.277l0.197-0.776c0.279,0.153,0.672,0.292,1.101,0.292
				c0.382,0,0.646-0.151,0.646-0.409c0-0.252-0.223-0.41-0.709-0.578c-0.711-0.238-1.196-0.568-1.196-1.215
				c0-0.59,0.411-1.047,1.122-1.181v-0.631h0.65v0.584c0.443,0.015,0.742,0.115,0.968,0.222l-0.199,0.748
				c-0.167-0.079-0.478-0.232-0.954-0.232c-0.434,0-0.571,0.193-0.571,0.381c0,0.212,0.231,0.356,0.798,0.564
				c0.796,0.276,1.107,0.643,1.107,1.246c0,0.591-0.411,1.09-1.182,1.221v0.684L569.58,579.151L569.58,579.151z"/>
		</g>
	</g>
	<g>
		<path d="M581.185,571.784c-2.571,0-4.66,2.086-4.66,4.658c0,2.576,2.089,4.665,4.66,4.665c2.576,0,4.665-2.089,4.665-4.665
			C585.852,573.87,583.761,571.784,581.185,571.784z"/>
		<path fill="#FFFFFF" d="M581.185,580.238c-2.092,0-3.789-1.698-3.789-3.794c0-2.091,1.695-3.79,3.789-3.79
			c2.096,0,3.793,1.696,3.793,3.79C584.979,578.538,583.281,580.238,581.185,580.238z"/>
		<path d="M581.185,573.885c-1.016,0-1.874,0.733-2.182,1.746h-0.294l0.933,1.016l0.93-1.016h-0.348
			c0.215-0.37,0.563-0.616,0.96-0.616c0.65,0,1.179,0.646,1.179,1.443c0,0.793-0.526,1.44-1.179,1.44
			c-0.432,0-0.81-0.289-1.016-0.72h-1.196c0.278,1.068,1.167,1.854,2.214,1.854c1.273,0,2.311-1.155,2.311-2.576
			C583.496,575.034,582.464,573.885,581.185,573.885z"/>
	</g>
</g>
<g>
	<path d="M11.392,586.197c-0.652,0-1.248-0.138-1.786-0.41c-0.539-0.271-1.002-0.631-1.39-1.07c-0.388-0.441-0.688-0.949-0.9-1.521
		C7.106,582.619,7,582.032,7,581.432c0-0.626,0.114-1.226,0.338-1.797c0.226-0.574,0.533-1.08,0.927-1.521
		c0.393-0.44,0.857-0.792,1.396-1.053c0.538-0.26,1.119-0.39,1.746-0.39c0.653,0,1.248,0.138,1.786,0.417
		c0.538,0.275,0.999,0.641,1.382,1.09s0.682,0.959,0.893,1.528c0.213,0.567,0.318,1.144,0.318,1.726c0,0.636-0.113,1.24-0.338,1.812
		c-0.225,0.574-0.534,1.079-0.926,1.517c-0.394,0.437-0.856,0.785-1.391,1.045C12.598,586.066,12.018,586.197,11.392,586.197z
		 M7.675,581.432c0,0.539,0.091,1.057,0.271,1.555s0.437,0.939,0.768,1.324c0.33,0.383,0.724,0.69,1.178,0.92
		c0.455,0.229,0.955,0.344,1.502,0.344c0.563,0,1.072-0.117,1.527-0.355c0.454-0.239,0.846-0.555,1.17-0.946
		c0.327-0.392,0.578-0.834,0.755-1.328s0.265-0.997,0.265-1.51c0-0.538-0.092-1.057-0.277-1.555
		c-0.185-0.498-0.442-0.939-0.773-1.323s-0.723-0.691-1.179-0.919c-0.454-0.229-0.949-0.347-1.486-0.347
		c-0.565,0-1.076,0.119-1.536,0.357c-0.458,0.238-0.85,0.554-1.17,0.945c-0.322,0.394-0.571,0.836-0.748,1.33
		C7.762,580.422,7.675,580.923,7.675,581.432z"/>
	<path d="M23.14,578.299c-0.608-0.681-1.469-1.021-2.58-1.021c-0.918,0-1.587,0.175-2.006,0.523
		c-0.417,0.349-0.628,0.817-0.628,1.407c0,0.302,0.054,0.554,0.159,0.755c0.106,0.202,0.271,0.373,0.496,0.51
		c0.226,0.137,0.513,0.256,0.86,0.355c0.35,0.103,0.761,0.2,1.237,0.299c0.512,0.106,0.97,0.223,1.377,0.352
		c0.404,0.127,0.75,0.289,1.038,0.483c0.287,0.193,0.508,0.433,0.662,0.715c0.153,0.281,0.231,0.632,0.231,1.044
		c0,0.414-0.082,0.775-0.245,1.086c-0.163,0.31-0.392,0.565-0.688,0.773c-0.297,0.208-0.648,0.364-1.059,0.471
		c-0.411,0.104-0.867,0.157-1.37,0.157c-1.463,0-2.704-0.467-3.717-1.401l0.356-0.542c0.396,0.415,0.882,0.743,1.457,0.984
		c0.573,0.242,1.217,0.363,1.931,0.363c0.821,0,1.461-0.147,1.925-0.449c0.462-0.301,0.695-0.754,0.695-1.362
		c0-0.309-0.06-0.57-0.178-0.787s-0.303-0.404-0.551-0.562c-0.247-0.158-0.554-0.295-0.919-0.409
		c-0.364-0.115-0.796-0.225-1.29-0.33c-0.503-0.105-0.945-0.219-1.329-0.338c-0.384-0.117-0.708-0.269-0.972-0.449
		c-0.265-0.181-0.463-0.398-0.596-0.654s-0.199-0.578-0.199-0.967c0-0.423,0.082-0.797,0.246-1.124
		c0.163-0.326,0.391-0.603,0.682-0.826c0.291-0.226,0.64-0.395,1.044-0.511c0.406-0.114,0.854-0.17,1.351-0.17
		c0.607,0,1.15,0.09,1.627,0.27c0.477,0.183,0.909,0.459,1.296,0.828L23.14,578.299z"/>
	<path d="M25.734,586.131v-9.395h3.863c0.396,0,0.763,0.085,1.098,0.251c0.335,0.168,0.624,0.392,0.866,0.669
		s0.432,0.591,0.568,0.938c0.138,0.35,0.205,0.698,0.205,1.053c0,0.381-0.063,0.746-0.191,1.098
		c-0.128,0.354-0.31,0.666-0.542,0.939c-0.232,0.272-0.512,0.492-0.833,0.654c-0.323,0.164-0.683,0.245-1.078,0.245h-3.281v3.546
		L25.734,586.131L25.734,586.131z M26.408,581.963h3.241c0.309,0,0.586-0.064,0.833-0.191s0.456-0.3,0.629-0.516
		c0.171-0.218,0.303-0.463,0.396-0.741c0.092-0.276,0.139-0.565,0.139-0.866c0-0.309-0.056-0.602-0.165-0.879
		c-0.11-0.279-0.26-0.523-0.45-0.734c-0.189-0.213-0.41-0.381-0.661-0.504s-0.519-0.186-0.801-0.186h-3.162L26.408,581.963
		L26.408,581.963z"/>
	<path d="M33.963,586.131v-9.395h3.917c0.397,0,0.764,0.085,1.098,0.251c0.335,0.168,0.622,0.392,0.859,0.669
		c0.238,0.277,0.426,0.591,0.563,0.938c0.137,0.35,0.204,0.698,0.204,1.053c0,0.344-0.054,0.676-0.159,0.998
		c-0.105,0.324-0.254,0.611-0.45,0.867c-0.194,0.256-0.427,0.467-0.7,0.635c-0.273,0.169-0.572,0.277-0.899,0.331l2.341,3.651
		h-0.781l-2.274-3.547h-3.043v3.547L33.963,586.131L33.963,586.131z M34.636,581.963h3.295c0.299,0,0.571-0.064,0.819-0.197
		c0.247-0.132,0.458-0.307,0.636-0.522c0.176-0.216,0.311-0.462,0.402-0.741c0.093-0.277,0.141-0.562,0.141-0.853
		c0-0.3-0.056-0.589-0.166-0.866c-0.11-0.276-0.261-0.522-0.45-0.733c-0.189-0.212-0.409-0.382-0.661-0.511
		c-0.252-0.127-0.523-0.192-0.814-0.192h-3.201V581.963z"/>
	<path d="M48.899,585.521v0.608h-6.258v-9.395h6.139v0.61h-5.464v3.688h4.775v0.582h-4.775v3.903h5.583V585.521z"/>
	<path d="M50.421,576.736l3.281,5.199l3.308-5.199h0.742l-3.706,5.849v3.546h-0.674v-3.572l-3.69-5.821L50.421,576.736
		L50.421,576.736z"/>
	<path d="M59.126,586.131v-9.395h3.122c0.741,0,1.392,0.124,1.951,0.371c0.561,0.248,1.025,0.583,1.396,1.007
		c0.371,0.423,0.647,0.919,0.833,1.487c0.185,0.567,0.277,1.175,0.277,1.819c0,0.715-0.104,1.36-0.311,1.938
		s-0.505,1.07-0.894,1.481c-0.388,0.409-0.857,0.729-1.41,0.953c-0.552,0.224-1.167,0.337-1.845,0.337L59.126,586.131
		L59.126,586.131z M66.031,581.421c0-0.592-0.083-1.137-0.251-1.635c-0.167-0.498-0.412-0.93-0.733-1.291
		c-0.322-0.359-0.718-0.644-1.185-0.848c-0.466-0.202-1.005-0.303-1.614-0.303h-2.447v8.177h2.447c0.617,0,1.162-0.104,1.633-0.312
		c0.473-0.206,0.866-0.495,1.185-0.865c0.316-0.37,0.559-0.805,0.722-1.303S66.031,582.003,66.031,581.421z"/>
	<path d="M67.288,586.131l3.996-9.395h0.555l3.997,9.395h-0.728l-1.311-3.097h-4.484l-1.311,3.097H67.288z M71.562,577.557
		l-2.09,4.922h4.141L71.562,577.557z"/>
	<path d="M80.148,576.802h0.661l1.401,3.413l1.403-3.413h0.661l-1.654,3.956l1.971,4.577l3.6-8.601h0.742l-4.023,9.395h-0.62
		l-2.063-4.829l-2.077,4.829h-0.622l-4.008-9.395h0.728l3.612,8.601l1.945-4.577L80.148,576.802z"/>
	<path d="M91.05,578.008v8.123h-0.675v-9.394h0.518l6.588,8.27v-8.255h0.675v9.379h-0.622L91.05,578.008z"/>
	<path d="M100.297,586.131v-1.125h0.583v1.125H100.297z"/>
	<path d="M102.401,581.368c0-0.563,0.098-1.127,0.298-1.688c0.197-0.561,0.486-1.062,0.866-1.502c0.379-0.44,0.844-0.8,1.395-1.077
		c0.552-0.277,1.181-0.418,1.887-0.418c0.838,0,1.552,0.192,2.144,0.576c0.591,0.383,1.027,0.877,1.309,1.475l-0.556,0.318
		c-0.159-0.327-0.351-0.601-0.576-0.82c-0.224-0.221-0.466-0.399-0.727-0.537c-0.261-0.137-0.533-0.234-0.814-0.298
		c-0.281-0.062-0.562-0.092-0.833-0.092c-0.6,0-1.129,0.121-1.589,0.364c-0.458,0.241-0.847,0.558-1.164,0.944
		c-0.316,0.39-0.557,0.826-0.722,1.316c-0.164,0.489-0.245,0.981-0.245,1.475c0,0.558,0.097,1.086,0.291,1.59
		c0.195,0.502,0.459,0.945,0.795,1.328c0.334,0.383,0.731,0.691,1.19,0.919c0.458,0.229,0.951,0.346,1.48,0.346
		c0.282,0,0.571-0.036,0.866-0.106c0.296-0.069,0.583-0.18,0.86-0.329c0.277-0.15,0.536-0.343,0.774-0.576
		c0.238-0.232,0.437-0.51,0.594-0.827l0.569,0.278c-0.159,0.352-0.372,0.665-0.642,0.939c-0.271,0.271-0.57,0.502-0.906,0.688
		c-0.335,0.186-0.689,0.324-1.065,0.416c-0.375,0.092-0.742,0.139-1.104,0.139c-0.644,0-1.233-0.141-1.768-0.423
		c-0.532-0.281-0.994-0.649-1.382-1.104c-0.387-0.455-0.689-0.972-0.905-1.549C102.509,582.555,102.401,581.969,102.401,581.368z"/>
	<path d="M115.882,586.197c-0.652,0-1.247-0.138-1.785-0.41c-0.538-0.271-1.001-0.631-1.39-1.07
		c-0.388-0.441-0.688-0.949-0.898-1.521c-0.212-0.572-0.317-1.16-0.317-1.76c0-0.627,0.112-1.225,0.337-1.798
		c0.224-0.573,0.534-1.081,0.926-1.521c0.394-0.44,0.857-0.792,1.396-1.052c0.539-0.261,1.121-0.391,1.747-0.391
		c0.65,0,1.247,0.139,1.786,0.416c0.538,0.276,0.999,0.643,1.381,1.091c0.384,0.45,0.682,0.959,0.894,1.529
		c0.211,0.566,0.317,1.144,0.317,1.726c0,0.635-0.113,1.239-0.337,1.812c-0.226,0.572-0.534,1.077-0.928,1.514
		c-0.393,0.438-0.854,0.785-1.389,1.046C117.087,586.066,116.509,586.197,115.882,586.197z M112.164,581.432
		c0,0.539,0.09,1.057,0.271,1.555c0.181,0.498,0.436,0.939,0.767,1.324c0.331,0.383,0.724,0.69,1.178,0.92s0.954,0.344,1.501,0.344
		c0.564,0,1.073-0.117,1.527-0.355c0.456-0.239,0.845-0.555,1.171-0.946s0.578-0.834,0.754-1.328
		c0.175-0.494,0.266-0.997,0.266-1.51c0-0.538-0.094-1.057-0.278-1.555c-0.186-0.498-0.443-0.939-0.774-1.323
		s-0.724-0.691-1.178-0.919c-0.455-0.229-0.95-0.347-1.488-0.347c-0.563,0-1.075,0.119-1.534,0.357s-0.851,0.554-1.172,0.945
		c-0.321,0.394-0.57,0.836-0.748,1.33C112.252,580.422,112.164,580.923,112.164,581.432z"/>
	<path d="M130.659,586.131v-8.123l-3.704,6.338h-0.423l-3.705-6.338v8.123h-0.675v-9.394h0.675l3.916,6.722l3.916-6.722h0.675v9.394
		H130.659L130.659,586.131z"/>
</g>
</svg>
