<?xml version="1.0" encoding="utf-8"?>
<!-- Generator: Adobe Illustrator 16.0.0, SVG Export Plug-In . SVG Version: 6.00 Build 0)  -->
<!DOCTYPE svg PUBLIC "-//W3C//DTD SVG 1.1//EN" "http://www.w3.org/Graphics/SVG/1.1/DTD/svg11.dtd">
<svg version="1.1" id="Layer_1" xmlns="http://www.w3.org/2000/svg" xmlns:xlink="http://www.w3.org/1999/xlink" x="0px" y="0px"
	 width="595.275px" height="595.279px" viewBox="0 0 595.275 595.279" enable-background="new 0 0 595.275 595.279"
	 xml:space="preserve">
<metadata><?xpacket begin="﻿" id="W5M0MpCehiHzreSzNTczkc9d"?>
<x:xmpmeta xmlns:x="adobe:ns:meta/" x:xmptk="Adobe XMP Core 5.3-c011 66.145661, 2012/02/06-14:56:27        ">
   <rdf:RDF xmlns:rdf="http://www.w3.org/1999/02/22-rdf-syntax-ns#">
      <rdf:Description rdf:about=""
            xmlns:dc="http://purl.org/dc/elements/1.1/">
         <dc:format>image/svg+xml</dc:format>
         <dc:title>
            <rdf:Alt>
               <rdf:li xml:lang="x-default">NFL Logo Redesigns</rdf:li>
               <rdf:li xml:lang="en_us">NFL Logo Redesigns</rdf:li>
            </rdf:Alt>
         </dc:title>
         <dc:creator>
            <rdf:Seq>
               <rdf:li>Max O'Brien/Osprey Dawn</rdf:li>
            </rdf:Seq>
         </dc:creator>
      </rdf:Description>
      <rdf:Description rdf:about=""
            xmlns:xmp="http://ns.adobe.com/xap/1.0/"
            xmlns:xmpGImg="http://ns.adobe.com/xap/1.0/g/img/">
         <xmp:CreatorTool>Adobe Illustrator CS6 (Macintosh)</xmp:CreatorTool>
         <xmp:ModifyDate>2013-10-06T17:54:14+13:00</xmp:ModifyDate>
         <xmp:MetadataDate>2013-10-06T17:54:14+13:00</xmp:MetadataDate>
         <xmp:CreateDate>2013-10-06T17:54:13+13:00</xmp:CreateDate>
         <xmp:Thumbnails>
            <rdf:Alt>
               <rdf:li rdf:parseType="Resource">
                  <xmpGImg:width>256</xmpGImg:width>
                  <xmpGImg:height>236</xmpGImg:height>
                  <xmpGImg:format>JPEG</xmpGImg:format>
                  <xmpGImg:image>/9j/4AAQSkZJRgABAgEASABIAAD/7QAsUGhvdG9zaG9wIDMuMAA4QklNA+0AAAAAABAASAAAAAEA&#xA;AQBIAAAAAQAB/+4ADkFkb2JlAGTAAAAAAf/bAIQABgQEBAUEBgUFBgkGBQYJCwgGBggLDAoKCwoK&#xA;DBAMDAwMDAwQDA4PEA8ODBMTFBQTExwbGxscHx8fHx8fHx8fHwEHBwcNDA0YEBAYGhURFRofHx8f&#xA;Hx8fHx8fHx8fHx8fHx8fHx8fHx8fHx8fHx8fHx8fHx8fHx8fHx8fHx8fHx8f/8AAEQgA7AEAAwER&#xA;AAIRAQMRAf/EAaIAAAAHAQEBAQEAAAAAAAAAAAQFAwIGAQAHCAkKCwEAAgIDAQEBAQEAAAAAAAAA&#xA;AQACAwQFBgcICQoLEAACAQMDAgQCBgcDBAIGAnMBAgMRBAAFIRIxQVEGE2EicYEUMpGhBxWxQiPB&#xA;UtHhMxZi8CRygvElQzRTkqKyY3PCNUQnk6OzNhdUZHTD0uIIJoMJChgZhJRFRqS0VtNVKBry4/PE&#xA;1OT0ZXWFlaW1xdXl9WZ2hpamtsbW5vY3R1dnd4eXp7fH1+f3OEhYaHiImKi4yNjo+Ck5SVlpeYmZ&#xA;qbnJ2en5KjpKWmp6ipqqusra6voRAAICAQIDBQUEBQYECAMDbQEAAhEDBCESMUEFURNhIgZxgZEy&#xA;obHwFMHR4SNCFVJicvEzJDRDghaSUyWiY7LCB3PSNeJEgxdUkwgJChgZJjZFGidkdFU38qOzwygp&#xA;0+PzhJSktMTU5PRldYWVpbXF1eX1RlZmdoaWprbG1ub2R1dnd4eXp7fH1+f3OEhYaHiImKi4yNjo&#xA;+DlJWWl5iZmpucnZ6fkqOkpaanqKmqq6ytrq+v/aAAwDAQACEQMRAD8A9U4q7FXYq7FXYq7FXYq7&#xA;FXYq7FXYq7FXYq7FXYq7FXYq7FXYq7FXYq7FXYq7FXYq7FXYq7FXYq7FXYq7FXYq7FXYq7FXYq7F&#xA;XYq7FXYq7FXYq7FXYq7FXYq7FXYq7FXYq7FXYq7FXYq7FXYq7FXYq7FXYq7FXYq7FXYq7FXYq7FX&#xA;Yq7FXYq7FXYq7FXYq7FXYq7FXYqw385PMTeXfyt8zavHIYZ4bGWK2lBIKzXFIIWBHcSSrTFU58l6&#xA;6PMHlDRdcBBOp2NvdPTYB5YlZhT2YkYqnOKuxV2KuxV2KuxV2KuxV2KuxV2KuxV2KuxV2KuxV2Ku&#xA;xV2KuxV2KuxV2KuxV2KuxV2KuxV2KuxV4H/zmZr4sfyxtNJRqS6xqEauvjDbq0rH6JBHiqd/84oe&#xA;YP0t+TWnQM/ObSLi4sJCetA/rxj6I51A+WKvYcVdirsVdirsVdirsVdirsVdirsVdirsVdirsVdi&#xA;rsVdirsVdirsVdirsVdirsVdirsVdirsVdir4o/5zI84DVvzFtfL8L8rfy9ahZFBqBc3dJZP+SYi&#xA;Hzriqc/84U+cBa+Ydb8pzvSPUoFvrMH/AH9bHhIq+7xycv8AYYq+vsVdirsVdirsVdirsVdirsVd&#xA;irsVdirsVdirsVdirsVdirsVdirsVdirsVdirsVdirsVdirsVQOu6xZaJot/rF83Cz063lurhvCO&#xA;FC7U96Lir81r6+1Dzj50mvbpqX2u35klbqFa5lqadPhTlt7DIylQtMRZpGeSvMN/5D/MPTtXZWW4&#xA;0S+43kI6lFYxXEf+yQsuSBQ/Se1ube6torq3kEtvOiywyrurI45Kw9iDiqpirsVdirsVdirsVdir&#xA;sVdirsVdirsVdirsVdirsVdirsVdirsVdirsVdirsVdirsVdirsVeBf85i+eP0P+X9t5bt5ON55i&#xA;npKAdxaWxWST3+KQxr7jlir5Z/KzT/rHmmC5YVjsyrV/y3biv4VOYmsnUa7y5GnjZvuTj/nIfy9+&#xA;hvzY13gvG3v53vIfD945D7+PNWP05dilYI7iWqYqvMPqX/nFHzx/iT8rLfTp5OWoeXH/AEfKCasY&#xA;AOVs3y9M+mP9TLWD2bFXYq7FXYq7FXYq7FXYq7FXYq7FXYq7FXYq7FXYq7FXYq7FXYq7FXYq7FXY&#xA;q7FXYq7FXYq+AP8AnJjzt/ir82NT9GTnp+jU0uzofh/0dj6zDseU7Pv3FMVVPyv036rYW1w4pJeT&#xA;rJ78AwVP4n6c1GrneSu52GnjUL73oP8Azlp5c9e5m1eNT6unXCiU/wDFNyibn5Pxp88ycU6zSj3t&#xA;E43jB7mJf84k+dv8P/memkzycbDzHEbNwTRRcpWS3b515Rj/AF8znGfc+KuxV2KuxV2KuxV2KuxV&#xA;2KuxV2KuxV2KuxV2KuxV2KuxV2KuxV2KuxV2KuxV2KuxV2KsX/M/zfH5P8ga55iZgsljaubUHo1z&#xA;J+7t1+mV1GKvzg06zutW1aC1Vme4vJgrSMSxq7fE7Hr7nITmIxJPRlGNmnullYpY3lraRikULxpG&#xA;P8hSAv4ZoRKzbtaoPZfze0i21XVdX02f+6voFjc9aFoVUMPdaAjMnUy4c1jycfCLx0+KEfU9A11Z&#xA;I2Nvqek3QZGHWOe3kqCK/wArrm3ibFhwSKNP0u8oeY7XzL5W0nX7Wgh1O1iuQgNeBkQFkPujVU/L&#xA;ChN8VdirsVdirsVdirsVdirsVdirsVdirsVdirsVdirsVdirsVdirsVdirsVdirsVdir5t/5zX80&#xA;ta+VtD8tRPRtTunu7kDr6VooVVPs0kwP+xxV8+fk9pS3Gt3GoutVsYuMZ8JJqgH/AIANmB2hOogd&#xA;7k6WNm+56pdRD65Zyjr6qKf+CBGaqHNzjyezfmV/yk8n/GKP9WZet/vGjT/S+S/zz0NdP85fXYl4&#xA;w6pCsxpsPVT93IP+FVj88zdFO4V3OPqI1K+99J/84beaX1P8trvRJn5S6DeMkQ8Le6HrJ/yV9XMx&#xA;x3vmKuxV2KuxV2KuxV2KuxV2KuxV2KuxV2KuxV2KuxV2KuxV2KuxV2KsE85fnj+V3lCR4NY12D68&#xA;mzWNryuZwf5WSEPwP+uVxV5jqH/ObHkGKTjYaJql0oNC8oggB9wBJKfvpiqnZ/8AObfkd5aXmgan&#xA;BF/PEbeY/wDAs8X68VegeVf+ckfyf8xyJBBriafdyUC2+pI1qanoPUf9yT7B8VelxyRyxrJGweNw&#xA;GR1IKspFQQR1BxV8Vf8AOZ+pNcfmjY2Yb93Y6VCvGtaPLNK7H2qpXFUl/J21WPy7c3FPjnuWFf8A&#xA;JRFA/EnNP2hL1geTn6UelnEy1aE/yzRn/hgP45hQ5uQXr35lf8pO/wDxhj/VmZrf7xo0/wBL56/5&#xA;yHslfSNIvqfFDcSQV9pU5f8AMrLez5bkMNUNgU//AOcIdRePzb5k00NSO5sIrlkr1NvNwBp7fWDm&#xA;0cJ9e3Nzb2sElxcypBbxKWlmkYIiqOpZmoAMVeV+af8AnKH8ndAd4Rqzavcx15QaXEZx9EzGOA/R&#xA;JirAr7/nN7ysjH6j5Zvp1rsZ5oYTTxoomxVEaZ/zm15HldV1LQdStFNOTwNBcAE9ftNCaDFXqfkz&#xA;87/yv84yJb6NrsJvpNlsLmttcFv5USUJ6h/1OWKs6xV2KuxV2KuxV2KuxV2KuxV2KuxV2KuxV2Kp&#xA;N5w84eX/AChoFzruvXS2un2w3Y7u7n7Mca9XduwH6sVfFX5s/wDOTnnXzpNPYaRLJoPltqqtrA3G&#xA;4mTxuJl+L4h1RCF7Hl1xV5z5b8ieafMRDaZYu9vWjXUn7uEePxtQNTwWpynJnhDmWcMcpcme2P8A&#xA;zjvqroDfaxBbuRusMTzAH5s0OYsu0B0DeNKepVLv/nHW+VK2mtxTP/LLA0Q+9Xl/VgHaA6hJ0p72&#xA;FeYvyv8AOego0t1Yme1Xdrq1PrIB4sB8aj3ZRmTj1MJ8i0ywyijfy8/Oj8wfIU6foTUmfTw1ZdJu&#xA;qzWjjuPTJqhP80ZU++ZDUu/OT8x7X8w/NkPmSGyfT5pLKGC9tmcSKJ4iwJjYUJQqVpUA/rxVmX5T&#xA;EHyilD0nlr94zSa7+8+DsNN9DMqVZB/lofuYHMWHMN5etfmV/wApO/8Axhj/AFZma3+8aNP9Lwf/&#xA;AJyCI/wbZCu51GMgfKCbJaD6z7mOp+n4sA/Jj81I/wAtNZ1XXI7A6hqF1p72NjEz8IVeSaKQvKR8&#xA;RUej0Xr4jrm3cFK/Pn5q+e/Pd40/mHU5J4OVYdPiJjtIvAJCp41/ymq3icVVfL35SedtbRZktBZW&#xA;r7rPeExAjxCUaQ/PjTMbJq4R623RwSLMrT/nHWYqDd64qt+0kVuWH0M0i/8AEcxj2h3BtGl81C//&#xA;AOcd9TRCbDWYbh6bJPC0Ir4VVpv1ZKPaA6hB0p6F5/5j8j+aPLj11SyeKGtEuk+OEnt+8WoB9jQ5&#xA;l488Z8i0TxyjzenflJ/zlD5x8nzQ6fr8kuv+XKhTHM3K7gXpWCZjVgB+w5p4FctYPtPyt5p0LzTo&#xA;drrmhXa3mnXa8opV2II+0jqd1dTsyncYqmuKuxV2KuxV2KuxV2KuxV2KuxV2KrZJI4o2kkYJGgLO&#xA;7EBVUCpJJ6AYq/Pr8+vzdvfzE84TPBKy+W9OdodGtqkKUBo1wyn9uWlfZaDtiqY/lX+UcV/BDr3m&#xA;GMm0ko9lYNUeovaSX/IP7K9+p266/VauvTFysOC9y940rR7q6K2mm2pYRqAscShURRsPBVGa6MJT&#xA;O27lmQiN03Xy3psTcNR8x6TYyd4nuoy4+YJUfjl40vfKI+LUc3cCi4fKGjXW1j5n026c/spKh37f&#xA;Zd8l+UB5TCPHPWJU778vfMtqnqJCl3HSvK3blt7K3Fj9AyM9HkHmmOeJeQefPyc0XXGmmgi/ROtC&#xA;paRUKo7eE0W25/mG/wA8OHVSxmjuFnhjLcPn3zD5c1fy/qT6fqkBhnXdT1R17OjdGU5tseQTFhwZ&#xA;QMTRemfk1dh9DvbWvxQXHqf7GVAB+KHNX2hH1A+TmaU7EPQ4RWVB4sP15gx5hyTyepfmI4bzXdCt&#xA;eKxAjw/dqf45l6z+8LRp/ofPP/ORF+q2WjWAPxSSTTsPAIqov38zl/Z8dyWvVHYB5T5Y8p615l1E&#xA;WOlw82FDNM3wxRL/ADO3b5dT2zPy5YwFlxoQMjQfRHkD8odG0R4fQtzquttT/SXTkVb/AIpj3CAe&#xA;PX3zU5dRPKaHLuc2GKMBZernyXDYQrceYtUt9KjYVWJmDyn2Cgiv+xrhGkoXMiKPHv6RaCfU/wAq&#xA;rc8Td6heHvJGiov0B1Q4KwDrIpvIe5fFeflZeELHqN7YSHZTcRhkr78Fb/iWHhwHqQt5B0BdqvkZ&#xA;5tPkuLCW313SnBEph4yfD3Dx1au3Ub4JaaQ9UTxDyUZgdjs+afzU/KVNIik1zQUY6epreWQqTAD/&#xA;ALsQncx+I/Z+XTL0uq4vTLm0ZsNbhf8A846/m/deQfOEVpezH/C+sSJDqcTH4IXY8Y7pf5THX4/F&#xA;K9wtM9xn30CCKjcHocVdirsVdirsVdirsVdirsVdirsVeVf85OeaJvL/AOTusNbsUudUMemRODSg&#xA;uT+9++FXGKvir8svLEfmPzfaWU68rOEG5vF7GKIj4T7MxVT88o1OXggT1bcMOKT6k9awtYzLeSeh&#xA;ZwishUVbiNuKL3Y9APv2zSRFnd2BPcw7zJ541PV0Nlb1sNGU/utPiOzU/bmYUMrnxO3gBk5ZCRQ2&#xA;isYVueaDsdOSNRJKOUh3CnoP7cpJZo7IqmOleYtd0lw2m301sAa8Ec8CfdDVT9IyyGWUeRphKAPM&#xA;M3078zdO1ZFsvOFkkq04pqdsvGVPdlH/ABr/AMCcyxqoz2yD4tJwmO8Slf5kflVpWtaGHZl1HRpa&#xA;vY6nDT1IGbYE06eB7HvvhMJYjxRNxXiE/TLYvAPJ+jan5O89XGg6iKpfQk2s6/Ym9Mlkda/5PIEd&#xA;jlmqkMmPiHRhhBhOj1eoWgrdQg9C6j8Rmsjzcs8npPnmT1PNeoNWtHVf+BjVf4Zlao3kLVhHoD5y&#xA;876JqPnz8z5NKsW4WWkwxwXd2RVIhUu593LPxC96eAJzLwzGLFZ5loyRM50Oj2nyT5G0zStNNnp4&#xA;jsNKtB6l/qE5AUdjJK5pydqbD6BQZiVLLKz/AGN+0BQTC+/MqGxhew8nw/Vrc/DLrE6g3M/uikUj&#xA;Twrv7KclLUCA4cfzYjEZby+TCrq7urud7i6meeeQ1eWRi7E+5NTmGZEmy3gUpYEuxVHaPrmq6NeL&#xA;d6bcvbzCleJ+FgOzqdmHscnDJKBsFjKIkKL0GRtN85aJc6na26Q6tbL/ALmNPUVjljYUM0amux35&#xA;D7/E5cgMkeOO0hz/AFtAuB4TyL4z8/8AlseXfNd9psYP1ZWEtoT/AL5kHJR78a8fozZ4MnHAFxMs&#xA;OGVPu7/nHzzRN5k/KHy9fXEnqXcELWNyxNW5WjmFSx8WjRW+nLmt6JirsVdirsVdirsVdirsVdir&#xA;sVeA/wDOaiO35VaaVBITW7dnI7D6rdCp+kjFXgP/ADjy0Q8waopI9U2ilB34iQcvxK5gdofSPe5W&#xA;l5lnvm6+efUzAD+6tgFA7ciKsf4ZqnODFtT17TdGjW5vm+EGqQru7kb0UZbixSmaDCeQRG7B9c/N&#xA;XzHfuyWTDTrY7KsYDSEf5UjDr/qgZssehhHnuXCnqJHlsxmbXNanfnNqFzI3i0rk/icyhiiOQDSZ&#xA;nvRWn+b/ADNp7hrbUpwB/ut3Mif8A/JchPTwlzAZRyyHV6B5Z/Ny3ndbbXYlt3bZbyIH06/5a7lf&#xA;mK/RmBm0BG8HJx6m/qez+S/PF5oMoeFlvNIuwDc2ZIaKVGFOSdRXj3798xcOaWM106huyYxIJl+Y&#xA;fkvRdXtbHU9NetlJILvSbobvbzoQXhffp+yynqPcVy3IODeP0SYR9Wx+oMUtkZL6JGFGWRQR7hhm&#xA;JHm3nkzzzNN63mHUpOoNzKAeuysVH6suzm5n3teMekMX0TSdL0CxdZJljM0j3OoXsg+KWeQ8pJCN&#xA;ySf2VHsBglIzO/L9CRHhCUeYPNb6tGVd/qPlqwJeO3dgoZgN5p26M5+5ei4ymT6Y8kiNbnm8t8yf&#xA;m8EZ7bQYQwG312Ybf7CP+LfdmZh0HWfycbJqf5rA77zV5jv3L3WpXD1/ZDlE+hE4qPuzPjghHkA4&#xA;xySPMqEOt61A4eG/uI3H7SyuD+ByRxxPMBAme9k+hfmr5hsXVL8jUbavxB6LKB/kuBv/ALIHMXLo&#xA;YS5bFuhqJDnu9Y0HzDpeuWQu7CXmvSSJtpI2/lde2arLilA0XNhMSFhmPkXW30bzRY3XKkDyCC6U&#xA;9DDKeL1Hen2vmMlp8nBMFGWPFEvHP+cnrSCz/M+Szhpxt7VUoOw9eZlB9+BXNvpocIkP6RcHNK6P&#xA;k+jP+cP4Z4/ydieQkpLqF08AIpRAVQ08fjVsyWl7birsVdirsVdirsVdirsVdirsVef/AJ8eS5/O&#xA;H5Wa3pNohk1COMXlgiirNNbMJQigftSKrIPnir4L8jeaJPLHma11TiWhQmK7iGxaF9nHzH2h7jKs&#xA;+LjiQzxz4Tb1nXta04fXNXSZZbFqzxyoahlbdae5rSnjmkGORlw9XZmYAvo8X1PUr/XNUMrK0k0z&#xA;CO3t0BYgE0SNFHX+JzeYsYhGg6yczI2X1l+TP/OJuh6fY2+tefoRqGqyhZYtGJItrcEAhZwKerIP&#xA;2l+wOlG65YwfQum6No+l24t9NsbextwKCG2iSFKeHFAoxVjXm/8AKD8t/Nts8OtaDavKw+G8hjEF&#xA;yp7FZouL7eBJHiMVfIv52/8AONeu+QVk1rR3k1fyqD8c5UfWLWpoBcKoAK/8WKAPELtVVg3kTz5c&#xA;6FcLaXbNLpMrUZTUmEk/bT2/mX+OYeq0omLH1N+HNw7Hk+kPJ2uo8EmlPIJNP1MLJasDVVuQP3Lq&#xA;fCT7Dexr2zV45c4H8FzZD+IJFr/m7yXYXsbXOr20V1G6+rEr+o1AR9pYwxBHvhhp5y3ARLJEdUwi&#xA;/MfyXq11PNa6xbySSM8nps3CQ1JPwo/FmPyw5MMwSSFhkidgWJ69rhvZnubhxDaQglQx+FEG5Y+9&#xA;OuVgEmg2E0Hj3nDzlda5MLaAtDpMB/cQdC5H+7JPFj4ds3Gn0wxi/wCJ12XMZHyep/kh/wA4v6r5&#xA;zgg8weZ3l0ry3JR7aFBxurteoZOQIjiPZyCW7CnxZlNL608p/ll5B8pwJF5f0K0smSn+kCMSXDU6&#xA;Fp5OUrfS2Kp5qej6TqtsbXVLK3v7ZqhoLqJJoyD1qrhhir5x/O3/AJxP0q5sJ9e/L63+qahApkuN&#xA;CUloZ1UEn6sDUpL4JXi3bieqr5b8ueYL/wAu6ul3CCOJ4XVu23NK/EjA9D4eByrNhGSNFnjmYm3v&#xA;9nr2jpZW+tT3Ai0uiTvOe0exO3du3HqTt1zRwxS4+HrbsZTHDbw3z35r1Dzv541LXnhYT6rck21o&#xA;lXZUJCQxLQfEQoA2G5zoAKdYS/QP8pvJ7eT/AMudB8vSAC5s7YG8p0+sTEzTgHuBJIwB8MKGW4q7&#xA;FXYq7FXYq7FXYq7FXYq7FXYq+PP+clv+ceb/AErUbzzr5UtjPo10zT6rp8K1e0kbd5UUdYWO5p9j&#xA;/V6KvncajeiwawEzfVGcSGHtyGQ4BxcXVlxGq6Pfv+cPPy2h1vzRd+cNQiElloBWOwVxVWvpBUPv&#xA;t+5Tf/WZT2ybF9m4q7FXYqsngguIJIJ41lglUpLE4DI6MKMrKdiCNiDir4P/AOcj/wAl/wDlX3mR&#xA;L/SY2/wtq7M1l1b6vMN3tmY9v2o67ldt+JOKsD0jWvNupWFv5X02VjGzNxCEq/A7lWeu0a7n/MDM&#xA;bJjxxJySbozkRwh6V5S/JDRGiWXWXlvJB/eLHJ6UPyAC+oxHjyHyzEl2gb2DcNKOpZ/qP/OIGg65&#xA;5bj1XyrqM2l6lIrNHZXji4tnKsVA9RUSWKtOvx5n4chnEEuNkjwmnzv5p/xjoUt15R8wJJbXNlKF&#xA;nhl3ei7qA/R4zsyncHahpgGCIlxAbpOWRjT0z/nGP8k4/O+uP5h12Dn5X0iQD0XB43d0ByEXukYI&#xA;aTxqF7nLmt9wqqqoVQFVRRVGwAHYYq3irsVdir4l/wCcufy3g8t+dYPMmnQiLTfMYeSdF+yl9GR6&#xA;3y9QMr/63LFXiEmq6lNp8GmvO7WVuxaG3r8IZjUmnfrkRAA3W5ZGRqn07/zjL/zjxqEOoW3nnzha&#xA;G3W3pLoelTrSQybFLqZT9kJ1jU71+LagrJi+rMVdirsVdirsVdirsVdirsVdirsVdirsVeTefP8A&#xA;nGL8rfNs8l6LOTRNSlPKS60wrErt4vAyvF8yqgnxxVk35S/lpZflz5QXy7a3Zvv9ImuZrtoxEXeU&#xA;gCqBn+zGqr13pXbpirM8VdirsVdir5K/5ze1+7bV/Lfl5WK2cVvLqEiDo8sj+ihP+osbU/1jirzz&#xA;8nNJii0q61RlBnuJDCjeEcYBNPmx3+QzU9oZLkIudpY7W9utIhFbRIOyivzO5zAclmPlHz1Jotub&#xA;K6ia4s6louBAdCdyBXYgnM3T6vgFHcOPlwcW45vEP+crZ7HXYdN8yLbrbXsM5sARTlJbOhkjEh7m&#xA;N43p/r+2Zun1PiEhx8uHhALIf+cIPMN00fmfy7I5a2jNvf2yVNFd+UUx8PiCx/dmW0PqfFXYq7FX&#xA;Yqwj83fyq0z8yvLdvol/dyWItruO8juokV3BRHjZQGIFGWQ/hiqVeQf+cdfyv8lTx3llp7ajqsRD&#xA;R6jqLCeVGHQxoFSJCOzKnL3xV6ZirsVdirsVdirsVdirsVdirsVdirsVdirsVdirsVdirsVSvzL5&#xA;n0Dyxo8+s69ex2Gm24rJPKe/ZVUVZ3bsqgk9sVV9F1nS9b0m01fSrhbvTr6JZrW4ToyOKjruD2IO&#xA;4OxxV8xf85ueVbpn8veaokLWyLJpt2w6IxPrQf8ABVk+7FXlf5O65A1nc6LIwWdHNxACftIwAcD/&#xA;AFSK/Tmq7QxGxJzdLPamTfmt581vRdG0uLR5fq0900i3NwFVmURKtFHIMBz51r7ZDRYozJvoy1Ez&#xA;ECkV+U3n+91fQ7s+YLlWntJQkdywVGkRlrQqgFStOtO4wazDGEhXVOCZkN2Jfnl5xs9Tay0azbnH&#xA;bubidjt8RXigp8ieuX6DGd5NWqn0ewf84TeVLm30bzB5onjKxahLFZWLEU5Lb8nmYeKlpFWvipzZ&#xA;OI+ifMnmPRvLWh3mua1craaZYx+pcTtU0FaAKBuzMxCqo3J2xVvy/wCYtD8xaTBq+iXsV/ptyvKG&#xA;5hNVPiCOqsOhVgCO+KpjirsVdirsVdirsVdirsVdirsVdirsVdirsVdirsVdirsVdirsVdiqE1jV&#xA;tP0fSrvVdSmW3sLGF7i6nboscalmPvsOmKvz1/OP83Nc/MfzNLfXLvBo1uxTSdM5fBFENg7KDQyu&#xA;N3b6BsBirJvyF/5yG1D8upG0jVopNR8qXDmQ28dPWtpGPxSQcioIb9pCQK7gg1qq9G/PX/nJvyB5&#xA;j8jXflry7avq02qoEmnu4nhhtgpDB1DFXaVWA4U+EHck9Cq8K/Kfylfa95ognQvDY6cyz3dwhK9D&#xA;8MQYd5On+rXMXV5RGFdS3YIEy9zJ/wAyvzKt9U1PUfKms6ZCujWUpSyu7KGGK8guIqj1eVFEqNyI&#xA;aNiKilGB3wabHUAevyTllciOjf5NeatEbzdp/lGSxQ6DqjG1F7cAfWknkqVuCR8AUtRTH2X9qvxE&#xA;ZdOJC5c1hlI2HJi35t+QdV8l+cb3T7wO8EsjyWlwxLc1JrQt3Za/SKHvl2GViuoYZBvfQvf/AMm/&#xA;+cpfy+0TyJYeX9fs5dJudHgEEX1SIzQ3IXfmKfEkrtUvy2Lb8t6C5reS/nr+fuqfmVeRWVpC+neW&#xA;LNzJbWTtWWaSlBNccSV5AfZUVC1O5xVK/wAlPzi1n8t/MqTq7z+X7twmr6bUlWQkD1o1JoJUHQ9x&#xA;8JxV+g2nahZajYW2oWMy3FleRJPbTp9l4pFDIw9ipriqIxV2KuxV2KuxV2KuxV2KuxV2KuxV2Kux&#xA;V2KuxV2KuxV2KuxV2Kvn/wD5zN80XOm/l5YaJbvw/Tl4Bc/5UFqPVK/8jTGfoxV4B/zjf5c03Vvz&#xA;IsZNTVHtYfUSISCq/WZIZBA2/wDLJQj3pmPmnREf5zbjjsT3Ml89/wDOP6S6lcS6HKmnXQcifTpw&#xA;whD1+L02UMyD/JoR4UGYmPWGHpmOTfPTiW8WOaP/AM4++YJbpf0re29vagjmLctLKw8FDKiivjX6&#xA;Msnr41sN2EdMer1a1sNK8r6aui6RB6AirzJ+3zP2ndjuzn/PwzWZckpGzzcyEQBs+efzHs2h813c&#xA;4POG8Imik6g1ADb+zA5uNHO8YHc4GeNS96t+W2jXl7rr30NVh0qJrmaTpSvwKK+PxV+g4NZOoV1K&#xA;dPG5X3PqaW18u/nB5XXS9W4L5ptIwroxEb3AjHwzQudhIO/01HHMeGQzoxNZB9rdOHDsfp+54R5g&#xA;/wCccPNmnX7wW1zC0YbZboSQSge4CupHuDl350DaQILV+XJ5HZPvJ/5KaZokyap5huEv7iCjx2yA&#xA;/V1YdCeVGkNegIA9jmNm1pkKjs3Y9OBuXn35taFHYeYRqEChINU5SlB0EqkepT58gfmTmTocvFGj&#xA;0adTCpX3vqj/AJw+803Gr/la+mXLl5dCvJLWEk1P1eRVmjFfZndR7AZmuO9zxV2KuxV2KuxV2Kux&#xA;V2KuxV2KuxV2KuxV2KuxV2KuxV2KuxV2KvnH/nNnRLq58maDrESlodOvnhuKb8RdR/Cx9uUPH5kY&#xA;q+bvy08z2ukXkkNxIIPUdZIZieIDLsQW/ZqOhzB1uEyAI6OTp8gGxfRUP5k6lqFrGbpLTU2VQFuJ&#xA;46zcR0DSRtGzfTXNdLPI/UAXKGMDlslWvfmP9Qt2a6u7bSoTX4YFWORgeysOUzfIHGJnPaI+X61P&#xA;DHmXinnD80bnUUex0YPa2bVWS4O0sg8BT7C/ifbNhp9EI7y3Li5dQTsEF51HqaD5enGw9Ch/2UcZ&#xA;6/Rh0u05jz/WnP8ATEsg/LmHh+WHnS5OwkiMYJpSqRMf+ZmOoP72ARi+iSR+VfzHvNOeKO/d3ERB&#xA;hvEJ9VKdK/zU8evzwZ9He8dinHqK2k9y0X87Ndv7JYV1hbyEAf3scNwR2+ITI7qfnmHPJljsftci&#xA;MIHcKd/rL3YNzdTx+mgqWURxRqPGiBVGYpJJbeTxX80vNOn6xe2tnp7iaCy5l7hd1d3oKKe4UL17&#xA;5t9FgMASerg6jIJGg+mv+cL9CuLL8t9R1WZSq6rqLm2r0aK3jWPkP+enNfozOcZ9AYq7FXYq7FXY&#xA;q7FXYq7FXYq7FXYq7FXYq7FXYq7FXYq7FXYq7FUq80+WdH80eX77QNYh9fTtQiMU6dGHdXQkGjow&#xA;DKexGKvhz8yv+caPzF8oX876fYTa/odS1vf2KGWQJXYTQJWRGA6kAr7+Cry2T9J2Eht5fXtJF+1E&#xA;3ONga03U0wGIKQSm2h+Q/PXmKcLo+hahqLvSskVvK6Cvd5KcFHuxwoUvN/k3zF5Q1ltF8wWv1PUk&#xA;jjmeDmslFlXkvxIWU7daHFU71KM3/wCXljcJu1kwDjuFUtF/FTmvxnhzkd7ly3xA9zLY7GTy9+Qc&#xA;0sw4XGuuJkQ9eM0qxr/wUMPMexwyHFqB5BjHbEXnXk3yR5l85as+k+XbT67qKQPc+hzSMmOOgajS&#xA;FVr8Q6nM9xl2seQ/PWgzlNV0HULCRDQPLbyop7VV+PFhv1BxVLILfWNSk9GCK4vZFNBGivKwJr2H&#xA;LwwCIHJJJL1j8sf+cXvzB82X0M2tWcvl3QQQ1xdXaencunUrBbt8fI9mcBe+/TCh9waBoWl6Botl&#xA;oulQi307T4Vgtoh2RBSpPdj1Ynqd8VR+KuxV2KuxV2KuxV2KuxV2KuxV2KuxV2KuxV2KuxV2KuxV&#xA;2KuxV2KuxV2KuxV8m/8AObXlCRNQ0DzfCn7qaNtLvHHZ4y00FfdleT/gcVeM/ltPbX6XPl67P7q6&#xA;NVHcq9EkpXuNiMwNXAiQmHL08rBiWb/85Razp1vrtp5O0qiWOjpGhhU1CLbwrbwR/NUVifnluKNz&#xA;lL4NUz6QGd/84S+T3SPX/OE6UEnDS7FyKVUET3H0V9L7jmU0vqbFXYq7FXYq7FXYq7FXYq7FXYq7&#xA;FXYq7FXYq7FXYq7FXYq7FXYq7FXYq7FXYq7FXYq7FXYqxX80PIln568j6n5buSEe6j5Wc5/3Vcxn&#xA;nC/yDCjeKkjFX51Sxa35V8yPDPG1pq+k3BSWFxussTUZSO4P4jIyiJCimJINhXii8yeePOARA1/r&#xA;+u3f0vLM1SfBVX7lUeAwgUpNv0V/LvyXY+SvJml+WrI847CHjLNShlmcl5pP9nIxIHYbYUMjxV2K&#xA;uxV2KuxV2KuxV2KuxV2KuxV2KuxV2KuxV2KuxV2KuxV2KuxV2KuxV2KuxV2KuxV2KuxV4B/zkt/z&#xA;j+/nCBvNvliEHzNax0vbNRQ3sKD4eP8Axcg2X+YfD2XFUT/zjb+QR8j2f+JfMUSt5qvY+MMBowsY&#xA;XG6V6eq/7ZHQfCO9VXu2KuxV2KuxV2KuxV2KuxV2KuxV2KuxV2KuxV2KuxV2KuxV2KuxV2KuxV2K&#xA;uxV2KuxV2KuxV2KuxV2KuxV2KuxV2KuxV2KuxV2KuxV2KuxV2KuxV2KuxV2KuxV2KuxV2KuxV2Ku&#xA;xV2KuxV2KuxV2KuxV2KuxV2KuxV2KuxV2KuxV2KuxV2KuxV2KuxV2KuxV2KuxV2KsNT8xlaS2V9N&#xA;kjS4htr0zNIGiisrvkIpZXjVxG9Y2qGogp/edKqpXF+cdu+mW2oPpbrFcRRzogkYs6TJHIvpcolD&#xA;lBL+93AXi1C1MVTm489XVsY4ZtIl+tzxtNBT1khMaMUkaSSaGGSPg5jUgx1PqLx5DkVVULn8z9Ms&#xA;78afeW5hu41ka9USxssQilKuwNQzp6MM03LiKLHRuLMFxVDaf+b2k3cUNwbGeOzeKR7i8DRvFBJH&#xA;IY+EhU13LRHkBQCRCduRVVNZvO/Dm0enu8IuLewjdpY0LXd0kLxrxbcRhbgVf7WxohFCVUFbfmlp&#xA;c19+j2sriO+N8mnLHRWRpBMsFw6uDThA7DkxpXklN2pirNcVdirsVdirsVdirsVdirsVdirsVdir&#xA;sVdirsVdirsVdirsVdirsVSvzVdTWnljWLuCQwz29lcyxSilUdImZW322IrirxGHX9XXTLXVp7nz&#xA;FFDN6Mks01xcLpYiuDDREnqH5KJiqs01GdSCBWiBDEpPPHngaTePFrl094jr/eXkq8UKA/uQs7Ek&#xA;zFo2HGTiihwz8sVX/wCOfO3LlcatdW8Qs3dGW+lYEqp/eSt67COUDfhXrQcd8VfQi/8AKr/S+D9C&#xA;el9a7fVOP1zb6PW6f5XTClG3P+Cf0TD9a/Rv6I9CD6v6vofVvq/Nfq/Dl8Hp8+Hp02rSmKqFh/yr&#xA;v9Dn6h+iP0N6c3L0Pq31b0+SfWK8P3fHlw5+/GvbFVS1/wAB/o0/Vf0X+jfV39L6v6Hrcf8AJ+Dn&#xA;x+mmKqkH+DPqs/ofo76r6U31rh6Hp+jwj9f1KbcPT9LnXanGu1MVQc//ACrP6xcfWP0L9Y9Bvrfq&#xA;fVef1fn8XqV39Pn1rtXFUy0//DH6PX9H/Uv0d6kPD6v6Xo+pSP6vTh8PKnpen/sadsVTTFXYq7FX&#xA;Yq7FXYq7FXYq7FXYq7FXYq7FXYq7FXYq7FXYq7FXYq7FUBr/AOif0FqP6Yp+iPqs36R5cqfVvTb1&#xA;q8Pipwr03xV843P/AEK9/hWD6x+mv8N+ofQ5fpT0OdN6f7H8MVZPpv8AypT9O+X/AKl+mf0r+jB/&#xA;h6v1yn6O+qJ/dc/3dPq3Ctfip74qh7v/AKF9/wAKa79b+v8A+Gv0lP8Ap2v1j0/r3rw+v9j95T1v&#xA;Rr6fw9KYq//Z</xmpGImg:image>
               </rdf:li>
            </rdf:Alt>
         </xmp:Thumbnails>
      </rdf:Description>
      <rdf:Description rdf:about=""
            xmlns:xmpMM="http://ns.adobe.com/xap/1.0/mm/"
            xmlns:stRef="http://ns.adobe.com/xap/1.0/sType/ResourceRef#"
            xmlns:stEvt="http://ns.adobe.com/xap/1.0/sType/ResourceEvent#">
         <xmpMM:OriginalDocumentID>uuid:9E3E5C9A8C81DB118734DB58FDDE4BA7</xmpMM:OriginalDocumentID>
         <xmpMM:DocumentID>xmp.did:FE7F117407206811822A8451A1857300</xmpMM:DocumentID>
         <xmpMM:InstanceID>xmp.iid:FE7F117407206811822A8451A1857300</xmpMM:InstanceID>
         <xmpMM:RenditionClass>proof:pdf</xmpMM:RenditionClass>
         <xmpMM:DerivedFrom rdf:parseType="Resource">
            <stRef:instanceID>xmp.iid:FD7F117407206811822A8451A1857300</stRef:instanceID>
            <stRef:documentID>xmp.did:FD7F117407206811822A8451A1857300</stRef:documentID>
            <stRef:originalDocumentID>uuid:9E3E5C9A8C81DB118734DB58FDDE4BA7</stRef:originalDocumentID>
            <stRef:renditionClass>proof:pdf</stRef:renditionClass>
         </xmpMM:DerivedFrom>
         <xmpMM:History>
            <rdf:Seq>
               <rdf:li rdf:parseType="Resource">
                  <stEvt:action>saved</stEvt:action>
                  <stEvt:instanceID>xmp.iid:F77F117407206811822A8451A1857300</stEvt:instanceID>
                  <stEvt:when>2013-10-06T17:09:14+13:00</stEvt:when>
                  <stEvt:softwareAgent>Adobe Illustrator CS6 (Macintosh)</stEvt:softwareAgent>
                  <stEvt:changed>/</stEvt:changed>
               </rdf:li>
               <rdf:li rdf:parseType="Resource">
                  <stEvt:action>saved</stEvt:action>
                  <stEvt:instanceID>xmp.iid:FE7F117407206811822A8451A1857300</stEvt:instanceID>
                  <stEvt:when>2013-10-06T17:54:14+13:00</stEvt:when>
                  <stEvt:softwareAgent>Adobe Illustrator CS6 (Macintosh)</stEvt:softwareAgent>
                  <stEvt:changed>/</stEvt:changed>
               </rdf:li>
            </rdf:Seq>
         </xmpMM:History>
      </rdf:Description>
      <rdf:Description rdf:about=""
            xmlns:xmpTPg="http://ns.adobe.com/xap/1.0/t/pg/"
            xmlns:stDim="http://ns.adobe.com/xap/1.0/sType/Dimensions#"
            xmlns:xmpG="http://ns.adobe.com/xap/1.0/g/">
         <xmpTPg:NPages>1</xmpTPg:NPages>
         <xmpTPg:HasVisibleTransparency>False</xmpTPg:HasVisibleTransparency>
         <xmpTPg:HasVisibleOverprint>False</xmpTPg:HasVisibleOverprint>
         <xmpTPg:MaxPageSize rdf:parseType="Resource">
            <stDim:w>209.999929</stDim:w>
            <stDim:h>210.001308</stDim:h>
            <stDim:unit>Millimeters</stDim:unit>
         </xmpTPg:MaxPageSize>
         <xmpTPg:PlateNames>
            <rdf:Seq>
               <rdf:li>Cyan</rdf:li>
               <rdf:li>Magenta</rdf:li>
               <rdf:li>Yellow</rdf:li>
               <rdf:li>Black</rdf:li>
            </rdf:Seq>
         </xmpTPg:PlateNames>
         <xmpTPg:SwatchGroups>
            <rdf:Seq>
               <rdf:li rdf:parseType="Resource">
                  <xmpG:groupName>Default Swatch Group</xmpG:groupName>
                  <xmpG:groupType>0</xmpG:groupType>
               </rdf:li>
            </rdf:Seq>
         </xmpTPg:SwatchGroups>
      </rdf:Description>
      <rdf:Description rdf:about=""
            xmlns:pdf="http://ns.adobe.com/pdf/1.3/">
         <pdf:Producer>Adobe PDF library 10.01</pdf:Producer>
      </rdf:Description>
      <rdf:Description rdf:about=""
            xmlns:xmpRights="http://ns.adobe.com/xap/1.0/rights/">
         <xmpRights:Marked>True</xmpRights:Marked>
         <xmpRights:WebStatement rdf:resource="http://www.ospreydawn.com"/>
         <xmpRights:UsageTerms>
            <rdf:Alt>
               <rdf:li xml:lang="x-default">This work is licensed under a &lt;a rel="license" href="http://creativecommons.org/licenses/by-nc-sa/3.0/"&gt;Creative Commons Attribution-NonCommercial-ShareAlike 3.0 Unported License&lt;/a&gt;.</rdf:li>
               <rdf:li xml:lang="en_us">This work is licensed under a &lt;a rel="license" href="http://creativecommons.org/licenses/by-nc-sa/3.0/"&gt;Creative Commons Attribution-NonCommercial-ShareAlike 3.0 Unported License&lt;/a&gt;.</rdf:li>
               <rdf:li xml:lang="en">This work is licensed under a &lt;a rel="license" href="http://creativecommons.org/licenses/by-nc-sa/3.0/"&gt;Creative Commons Attribution-NonCommercial-ShareAlike 3.0 Unported License&lt;/a&gt;.</rdf:li>
            </rdf:Alt>
         </xmpRights:UsageTerms>
      </rdf:Description>
      <rdf:Description rdf:about=""
            xmlns:cc="http://creativecommons.org/ns#">
         <cc:attributionName>Max O'Brien / Osprey Dawn</cc:attributionName>
         <cc:license rdf:resource="http://creativecommons.org/licenses/by-nc-sa/3.0/"/>
      </rdf:Description>
   </rdf:RDF>
</x:xmpmeta>
                                                                                                    
                                                                                                    
                                                                                                    
                                                                                                    
                                                                                                    
                                                                                                    
                                                                                                    
                                                                                                    
                                                                                                    
                                                                                                    
                                                                                                    
                                                                                                    
                                                                                                    
                                                                                                    
                                                                                                    
                                                                                                    
                                                                                                    
                                                                                                    
                                                                                                    
                                                                                                    
                           
<?xpacket end="w"?>
	</metadata>
<g id="Layer_2">
	<g id="_x37_Wl2mV_1_">
	</g>
</g>
<g id="Layer_1_1_">
	<g>
		<path fill="#FFFFFF" d="M297.901,538.59l-10.443-10.979c-15.269-15.933-22.772-33.81-26.45-48.207
			c-7.312,2.154-15.359,3.337-23.129,3.337c-4.488,0-8.771-0.396-12.726-1.18c-14.746-2.903-25.63-11.175-30.634-23.286
			c-11.896-28.771,8.577-53.922,21.062-63.199l11.504-8.704l8.651,11.62c5.912,7.877,10.167,9.985,11.745,9.985
			c0.046,0,0.094-0.002,0.141-0.006c0.589-0.05,1.438-0.436,2.42-1.164c-4.49-7.562-6.838-15.605-6.838-23.594
			c0-5.704,1.148-11.521,3.279-16.791c-6.426-9.727-21.678-28.707-42.919-29.159c-0.259-0.007-0.525-0.013-0.792-0.013
			c-27.407,0-35.85,29.616-36.717,32.992l-3.535,14.25l-14.228-3.854c-25.062-6.905-42.732-27.229-46.144-53.046
			c-3.746-28.7,10.979-56.479,38.438-72.506c15.724-9.191,32.367-13.857,49.477-13.857c20.233,0,38.092,6.48,51.876,13.889
			c0.452-11.226,2.938-23.121,7.888-37.951c5.49-16.415,11.567-32.229,16.93-46.187l0.479-1.237
			c7.04-18.277,13.688-35.531,16.095-46.854l14.021-66.195l14.17,66.182c2.412,11.274,9.11,28.536,16.214,46.812l0.754,1.955
			c5.295,13.729,11.299,29.286,16.736,45.396c4.943,14.726,7.445,26.622,7.934,37.938c13.818-7.478,31.739-14.021,52.1-14.021
			c17.021,0,33.604,4.618,49.279,13.729c27.5,16.021,42.289,43.76,38.604,72.4c-3.328,25.856-20.947,46.237-45.987,53.188
			l-14.224,3.971l-3.656-14.515c-0.076-0.312-8.24-32.676-36.585-32.676c-0.308,0-0.613,0.004-0.922,0.011
			c-21.316,0.456-36.484,19.504-42.855,29.237c2.163,5.324,3.326,11.188,3.326,16.915c0,7.898-2.333,15.911-6.801,23.469
			c0.998,0.753,1.842,1.142,2.415,1.188l0.104,0.007c1.619-0.007,5.925-2.119,11.775-10.06l8.656-11.538l11.521,8.604
			c7.808,5.75,15.104,14.621,19.479,23.692c6.32,13.12,6.914,26.771,1.709,39.479c-5.013,12.229-15.573,20.289-30.554,23.299
			c-4.02,0.815-8.389,1.229-12.979,1.229c-7.689,0-15.665-1.165-22.914-3.285c-3.646,14.427-11.119,32.335-26.354,48.271
			L297.901,538.59z M272.788,457.603l1.71,10.029c2.213,12.969,8.066,31.744,23.361,48.188
			c15.271-16.466,21.091-35.272,23.283-48.275l1.688-10.036l9.27,4.213c7.174,3.263,16.69,5.208,25.47,5.208
			c3.55,0,6.872-0.312,9.885-0.918c9.742-1.959,16.188-6.631,19.153-13.895c7.906-19.278-5.909-36.724-15.076-43.938
			c-8.2,10.756-16.621,15.958-24.938,15.296c-7.909-0.649-13.826-6.497-17.404-11.287l-3.521-4.712l3.545-4.69
			c4.819-6.365,7.363-13.14,7.363-19.566c0-6.398-2.158-11.339-3.438-13.713l-2.104-3.887l2.232-3.806
			c5.454-9.304,25.771-39.713,58.146-40.407c0.416-0.008,0.854-0.012,1.271-0.012c36.853,0,49.303,36.039,51.469,43.443
			c18.233-5.551,30.999-20.676,33.457-39.764c2.866-22.284-8.99-44.08-30.948-56.87c-13.253-7.699-27.188-11.604-41.407-11.604
			c-23.472,0-43.499,10.45-56.165,19.218l-14.146,9.788l1.958-17.521c0.354-3.146,0.688-6.11,0.688-9.012
			c0-10.796-2.22-22.222-7.196-37.043c-5.33-15.784-11.271-31.179-16.514-44.761l-0.749-1.939
			c-6.652-17.146-12.529-32.271-15.696-44.146c-3.152,11.898-8.979,27.021-15.583,44.176l-0.479,1.229
			c-5.304,13.807-11.312,29.447-16.689,45.531c-4.948,14.824-7.156,26.161-7.156,36.752c0,3.158,0.36,6.354,0.745,9.729
			l1.932,17.049l-14.143-9.717c-12.653-8.691-32.644-19.061-55.99-19.061c-14.289,0-28.275,3.944-41.572,11.729
			c-21.925,12.797-33.729,34.614-30.812,56.944c2.512,19.042,15.312,34.123,33.536,39.632c2.386-8.238,14.968-44.357,52.677-43.579
			c32.271,0.691,52.724,31.001,58.223,40.272l2.27,3.817l-2.12,3.906c-1.271,2.336-3.398,7.212-3.398,13.604
			c0,6.521,2.553,13.312,7.382,19.646l3.557,4.663l-3.478,4.722c-3.536,4.812-9.424,10.681-17.387,11.329
			c-0.459,0.039-0.956,0.062-1.452,0.062c-7.759,0-15.667-5.133-23.515-15.26c-9.198,7.32-22.896,24.771-14.98,43.923
			c3.021,7.312,9.482,11.99,19.201,13.904c2.96,0.589,6.218,0.886,9.688,0.886c8.844,0,18.434-1.969,25.653-5.265L272.788,457.603z"
			/>
		<path fill="#B89763" d="M269.471,464.404l0.726,4.251c2.363,13.854,8.7,34.029,25.472,51.53l2.352,2.465l2.354-2.497
			c16.725-17.495,23.021-37.712,25.358-51.593l0.72-4.255l3.93,1.786c7.85,3.562,17.812,5.606,27.338,5.606
			c3.851,0,7.475-0.338,10.771-1.009c11.15-2.24,18.906-7.979,22.434-16.6c4.034-9.837,3.556-20.067-1.437-30.409
			c-4.265-8.849-11.105-15.922-16.085-19.59l-2.631-1.962l-1.943,2.593c-4.89,6.632-12.473,14.562-20.729,14.562
			c-0.336,0-0.676-0.013-1.007-0.033c-6.221-0.516-11.119-5.442-14.146-9.49l-1.489-1.997l1.503-1.989
			c5.411-7.162,8.271-14.87,8.271-22.292c0-7.393-2.496-13.108-3.985-15.858l-0.891-1.646l0.945-1.612
			c5.15-8.794,24.312-37.537,54.354-38.179c0.39-0.01,0.783-0.015,1.174-0.015c37.319,0,47.347,40.86,47.438,41.272l0.816,3.249
			l3.224-0.896c20.644-5.73,35.172-22.54,37.917-43.873c3.104-24.118-9.598-47.631-33.149-61.349
			c-13.953-8.104-28.646-12.221-43.677-12.221c-24.639,0-45.535,10.887-58.729,20.019l-5.997,4.151l0.812-7.249l0.047-0.423
			c0.35-3.13,0.712-6.365,0.712-9.519c0-11.308-2.293-23.176-7.438-38.479c-5.354-15.838-11.29-31.242-16.53-44.834l-0.793-2.053
			c-7.576-19.51-14.123-36.359-16.717-48.508l-3.212-14.997l-3.182,14.992c-2.59,12.188-9.393,29.848-16.595,48.538l-0.466,1.213
			c-5.323,13.854-11.356,29.561-16.771,45.742c-5.105,15.312-7.39,27.083-7.39,38.188c0,3.416,0.395,6.883,0.771,10.23l0.819,7.229
			l-5.997-4.119c-13.181-9.057-34.035-19.853-58.544-19.853c-15.101,0-29.854,4.149-43.85,12.345
			c-23.52,13.726-36.162,37.258-33.011,61.418c2.812,21.296,17.382,38.062,38.021,43.746l3.217,0.873l0.812-3.262
			c0.484-1.896,3.226-11.646,9.976-21.173c9.372-13.229,22.354-20.222,37.544-20.222c0.342,0,0.68,0.003,1.025,0.015
			c29.941,0.645,49.231,29.298,54.436,38.062l0.961,1.621l-0.896,1.654c-1.478,2.716-3.944,8.368-3.944,15.758
			c0,7.515,2.87,15.254,8.304,22.38l1.513,1.979l-1.479,2.004c-2.438,3.315-7.522,8.969-14.125,9.507
			c-0.35,0.024-0.718,0.045-1.083,0.045c-6.521,0.002-13.479-4.864-20.68-14.464l-1.95-2.619l-2.601,1.967
			c-10.103,7.503-26.702,27.585-17.436,50.014c3.583,8.671,11.362,14.414,22.497,16.605c3.243,0.644,6.795,0.971,10.562,0.971
			c9.449,0,19.736-2.119,27.521-5.669L269.471,464.404z"/>
		<g>
			<path fill="#95733B" d="M279.981,351.594l-9.686,9.128l-19.085-17.426l-50.009-18.812l-35.184,9.404l-8.854-18.256l22.855-24.843
				l25.549-1.991C205.577,288.803,264.768,298.483,279.981,351.594z"/>
			<path fill="#95733B" d="M279.981,207.761l-22.403,43.424l5.255,40.384l15.488,29.042c0,0,5.764,9.958,10.487,14.938
				c4.727,4.979,8.829,9.312,8.829,9.312l3.062-95.841l-8.826-33.793L279.981,207.761z"/>
			<path fill="#95733B" d="M450.094,353.988c0,0,29.862-16.781,1.382-51.08c-28.491-34.297-74.131-12.445-74.131-12.445
				l-31.333,21.572l-25.368,36.979l7.469,11.707l17.146-15.857l42.041-24.25l20.747,1.107c0,0,19.642,15.765,19.912,16.595
				C428.238,339.143,450.094,353.988,450.094,353.988z"/>
			<path fill="#95733B" d="M300.702,355.844c0,0-15.765,0.316-19.614,20.087c-4.238,21.782,14.661,29.873,14.661,29.873
				l-2.214,1.383l-2.904,0.568l-4.427-3.261c0,0-3.729-0.354-8.158,2.688l-14.246-15.7v-16.27l8.438-11.454l10.017-9.126
				l17.229-2.354L300.702,355.844z"/>
			<path fill="#95733B" d="M283.439,420.738c0,0-1.938,0.063-5.256,4.664c-3.318,4.604-12.748,13.318-24.491,15.812
				c-11.742,2.482-16.722,1.843-16.722,1.843L224.8,436.53l-3.53-11.126l-6.013,10.549l3.601,12.729l16.314,11.478l15.489,0.693
				l24.756-13.97l13.558-17.149L283.439,420.738z"/>
			<path fill="#95733B" d="M372.227,419.423c0,0,4.01,14.599-10.234,21.375c-14.243,6.771-34.714-8.368-34.714-8.368l-4.285-4.633
				l-5.396,3.866l-1.243,13.974l25.032,17.703c0,0,14.935-0.974,15.352-0.83c0.413,0.138,22.128-8.021,22.128-8.021l5.116-13.688
				l-5.396-15.396L372.227,419.423z"/>
		</g>
		<g>
			<path fill="#795624" d="M311.79,348.552c0,0,15.771-24.063,50.063-50.346l11.31-3.938c0,0-33.438,22.473-47.267,63.408
				L311.79,348.552z"/>
			<path fill="#795624" d="M145.832,354.635c0,0-9.127-4.433-8.574-17.98c0.558-13.552,3.943-19.562,10.242-28.479
				s13.271-13.903,13.271-13.903l14.938-5.465l25.501,2.067c0,0-13.604-0.413-24.945,11.202
				c-11.344,11.619-8.573,23.896-8.573,23.896L145.832,354.635z"/>
			<path fill="#795624" d="M279.981,207.761c0,0,6.357,9.398,10.229,22.957c3.872,13.553,7.428,69.146,7.428,69.146V152.717
				l-17.657,27.389V207.761L279.981,207.761z"/>
			<path fill="#795624" d="M284.684,430.975c0,0-2.213,9.769-12.447,15.117l15.214,43.52l10.188,14.107v-24.34l-5.209-33.287
				l-1.388-13.337L284.684,430.975z"/>
			<path fill="#795624" d="M311.79,412.217c0,0-4.146,20.23,6.361,30.839c10.512,10.604,27.658,17.796,27.658,17.796l18.811-3.043
				c0,0-29.918-5.853-42.917-27.942l-4.659-11.604L311.79,412.217z"/>
			<path fill="#795624" d="M303.493,406.909c0,0-5.708-2.418,5.529-6.639c4.185-1.569,13.001-1.383,16.314-8.575
				c2.425-5.243,2.239-11.679,2.239-11.679l5.78,8.354l-15.352,19.382c0,0-2.121-4.072-7.896-3.899
				C305.289,403.999,303.493,406.909,303.493,406.909z"/>
			<path fill="#795624" d="M223.279,419.635c0,0-6.118,13.369-2.091,23.419c4.022,10.051,14.812,16.965,27.812,14.2l-10.511,8.297
				l-23.511-8.854l-6.361-20.168l8.021-17.104L223.279,419.635z"/>
		</g>
		<g>
			<path fill="#FFFFFF" d="M297.638,153.18v191.68c0,0,6.131-42.042,6.131-95.841C303.769,195.223,297.638,153.18,297.638,153.18z"
				/>
			<path fill="#FFFFFF" d="M450.094,353.988c0,0,20.188-10.229,7.735-37.615c-12.438-27.385-47.02-34.299-70.808-27.104
				c-23.788,7.188-47.298,26.276-57.812,38.723c0,0,17.431-25.724,42.044-38.17c24.616-12.446,49.786-8.624,61.402-3.204
				c11.617,5.418,29.045,18.416,32.089,37.779C467.791,343.76,450.094,353.988,450.094,353.988z"/>
			<path fill="#FFFFFF" d="M279.981,349.011c0,0-8.298-23.562-37.063-42.619c-28.767-19.062-66.104-18.232-78.271-11.872
				c-12.17,6.362-18.812,16.32-18.812,16.32s10.787-26.276,47.854-25.729c37.062,0.553,64.441,24.34,73.298,36.233
				C275.832,333.243,279.981,349.011,279.981,349.011z"/>
			<path fill="#FFFFFF" d="M282.471,356.568c0,0,14.655-4.425,22.68,1.383c0,0-4.147,1.661-2.487,7.192
				c1.656,5.531,4.979,8.298,8.021,10.233c3.042,1.937,9.957,2.214,10.23-5.261c0,0,8.571,8.021,8.296,18.261v-22.134
				l-16.314-14.383l-16.594-3.313L282.471,356.568z"/>
			<path fill="#FFFFFF" d="M223.279,420.096c0,0-5.809,11.893,1.938,19.914c7.745,8.021,27.245,5.923,39.974-3.481
				c0,0-12.447,7.445-26.416,6.248c-9.938-0.851-14.938-9.128-15.213-16.872C223.279,418.158,223.279,420.096,223.279,420.096z"/>
			<path fill="#FFFFFF" d="M307.086,408.015c0,0,5.533,2.767,7.745,10.234c2.212,7.469,11.341,18.81,22.128,22.952
				c10.787,4.149,22.688,0,22.688,0s-26.279,3.319-39.559-21.783C312.465,405.009,307.086,408.015,307.086,408.015z"/>
			<path fill="#FFFFFF" d="M297.638,481.865v19.363c0,0,4.473-11.34,6.131-35.681L297.638,481.865z"/>
			<path fill="#FFFFFF" d="M279.981,406.038c0,0,4.702-1.981,7.604-1.435c2.904,0.555,4.562,3.044,4.562,3.044
				s4.062,3.653,5.634,3.653c0,0-5.119,0.482-8.952-3.086C285,404.643,279.981,406.038,279.981,406.038z"/>
		</g>
		<g>
			<path d="M292.942,404.579l-0.428,1.896h-0.347c0,0-0.215,0.036-0.578,0.131c1.207,1.365,3.551,3.695,6.191,4.694
				c0,0,3.411-1.649,6.176-4.697c-0.354-0.092-0.562-0.128-0.562-0.128h-0.354l-0.465-1.99c0.983-0.494,2.357-1.969,2.357-1.969
				s1.354-2.468,1.23-5.675c-0.124-3.207-1.479-5.854-3.456-7.334c-1.974-1.479-4.936-1.479-4.936-1.479s-2.961,0-4.938,1.479
				c-1.974,1.479-3.328,4.127-3.451,7.334s1.231,5.675,1.231,5.675S291.957,404.093,292.942,404.579z"/>
			<path d="M306.83,407.729c-3.222,3.963-7.594,6.102-7.785,6.195l-1.122,0.539l-1.167-0.439c-3.894-1.47-6.998-5.015-8.021-6.292
				c-1.614,0.835-3.562,2.198-5.295,4.398c0,0-0.771,13.612,1.54,18.759c2.312,5.138,4.107,8.479,4.107,8.479
				s0.771,18.502,3.083,26.729c2.312,8.223,5.609,16.187,5.609,16.187s3.297-7.964,5.611-16.187
				c2.31-8.227,3.082-26.729,3.082-26.729s1.799-3.341,4.105-8.479c2.314-5.146,1.542-18.759,1.542-18.759
				C310.388,409.928,308.444,408.566,306.83,407.729z"/>
			<path d="M450.601,261.449c-44.578-25.904-85.324-6.351-105.965,7.938c0.382-3.397,0.776-6.829,0.776-10.311
				c0-11.288-2.217-23.479-7.604-39.537c-5.646-16.708-11.896-32.812-17.371-47.021c-7.547-19.431-14.051-36.209-16.57-48.005
				l-6.476-30.239l-6.406,30.241c-2.507,11.794-8.959,28.604-16.442,48.03c-5.471,14.234-11.688,30.364-17.288,47.099
				c-5.362,16.077-7.561,28.071-7.561,39.23c0,3.579,0.393,7.062,0.794,10.61c-20.688-14.215-61.46-33.668-105.948-7.637
				c-24.691,14.414-37.952,39.205-34.624,64.712c2.985,22.627,18.477,40.469,40.436,46.521l6.503,1.767l1.625-6.554
				c0.417-1.612,10.188-39.562,45.257-38.859c28.212,0.604,46.656,28.021,51.646,36.438c-2.381,4.387-4.347,10.432-4.347,17.341
				c0,7.46,2.529,15.927,8.983,24.392c-2.562,3.479-6.779,7.761-11.725,8.164c-7.015,0.604-14.105-6.801-18.837-13.104l-3.938-5.292
				l-5.271,3.982c-10.787,8.016-28.539,29.633-18.496,53.929c4.021,9.729,12.642,16.181,24.923,18.601
				c12.7,2.521,28.729,0.254,40.104-4.938c2.193,12.854,8.433,34.574,26.348,53.271l4.751,4.991l4.77-5.041
				c17.863-18.696,24.051-40.475,26.219-53.317c11.414,5.188,27.442,7.407,40.146,4.836c12.271-2.469,20.863-8.869,24.849-18.597
				c9.979-24.35-7.814-45.971-18.624-53.935l-5.271-3.929l-3.933,5.24c-4.684,6.353-11.795,13.758-18.819,13.206
				c-4.917-0.404-9.146-4.688-11.742-8.167c6.398-8.474,8.943-16.889,8.943-24.292c0-6.957-2.016-13.062-4.388-17.439
				c4.965-8.47,23.337-35.934,51.562-36.538c35.059-0.811,44.937,37.098,45.312,38.704l1.663,6.604l6.5-1.816
				c21.972-6.098,37.396-23.938,40.318-46.645C488.653,300.608,475.345,275.862,450.601,261.449z M371.848,419.508
				c0,0,24.597,30.593-7.458,38.104c-25.43,5.944-50.523-19.807-50.523-19.807s2.822,40.771-15.965,63.097l-0.114-0.201v0.201
				c-18.834-22.273-16.103-63.047-16.103-63.047s-25.048,25.805-50.488,19.912c-32.05-7.413-7.534-38.062-7.534-38.062
				c31.896,34.827,54.887-13.559,54.887-13.559c-8.747-7.409-11.312-15.422-11.312-22.293h0.005c0-0.517,0.014-1.03,0.039-1.541
				c0.003-0.037,0.005-0.072,0.008-0.108c0.021-0.313,0.046-0.637,0.072-0.956c0.424-4.53,1.86-8.419,3.117-11.062
				c5.014-9.983,15.338-16.84,27.271-16.84c11.271,0,21.111,6.121,26.396,15.218c3.213,5.929,10.003,22.888-7.179,37.532
				C316.962,406.098,340.075,454.385,371.848,419.508z M449.844,353.579c0,0-13.311-40.923-58.771-40.923
				c-27.797,0-55.558,24.824-64.951,43.401c-7.218-7.371-17.271-11.956-28.381-11.956c-11.173,0-21.271,4.638-28.503,12.08
				c-9.417-18.582-37.24-43.366-65.042-43.324c-45.464,0.104-58.656,41.079-58.656,41.079
				c-45.081-32.809-4.458-88.328,44.314-88.375c48.786-0.057,88.916,55.261,88.916,55.261c-1.751-9.066-22.704-49.816-3.942-98.604
				c18.761-48.812,22.577-68.443,22.577-68.443v0.558l0.077-0.58c0,0,3.864,19.63,22.754,68.396
				c18.875,48.761-2.016,89.561-3.74,98.604c0,0,40.028-55.391,88.791-55.438C454.078,265.232,494.848,320.677,449.844,353.579z"/>
		</g>
	</g>
</g>
<g>
	<path fill="#BDC2BC" d="M534.992,588.913c-0.739,0-1.34-0.602-1.34-1.341v-16.588c0-0.739,0.601-1.339,1.34-1.339h52.497
		c0.738,0,1.339,0.6,1.339,1.339v16.588c0,0.739-0.601,1.341-1.339,1.341H534.992z"/>
	<g>
		<path d="M558.027,571.51c-2.725,0-4.935,2.21-4.935,4.934c0,2.729,2.21,4.938,4.935,4.938c2.728,0,4.938-2.21,4.938-4.938
			C562.964,573.719,560.755,571.51,558.027,571.51z"/>
		<path fill="#FFFFFF" d="M558.027,580.461c-2.219,0-4.015-1.798-4.015-4.019c0-2.217,1.797-4.014,4.015-4.014
			c2.219,0,4.019,1.798,4.019,4.014C562.046,578.664,560.246,580.461,558.027,580.461z"/>
		<g>
			<path d="M559.402,575.293c0-0.219-0.182-0.398-0.398-0.398h-1.952c-0.221,0-0.401,0.181-0.401,0.398v1.985h0.528v2.338h1.694
				v-2.338h0.527L559.402,575.293L559.402,575.293z"/>
			<path d="M558.695,573.942c0,0.37-0.3,0.668-0.667,0.668c-0.371,0-0.67-0.299-0.67-0.668s0.301-0.67,0.67-0.67
				C558.395,573.272,558.695,573.571,558.695,573.942z"/>
		</g>
	</g>
	<path d="M587.175,569.198h-51.868c-1.157,0-2.102,0.943-2.102,2.102v15.96c0,1.158,0.943,2.1,2.102,2.1h51.868
		c1.158,0,2.102-0.94,2.102-2.1V571.3C589.275,570.141,588.332,569.198,587.175,569.198z M588.644,583.375h-37.865
		c-1.477,2.809-4.417,4.725-7.81,4.725s-6.333-1.916-7.809-4.725h-1.326V571.3c0-0.812,0.658-1.471,1.47-1.471h51.869
		c0.811,0,1.471,0.658,1.471,1.471V583.375L588.644,583.375z"/>
	<g>
		<path fill="#FFFFFF" d="M557.773,584.933c0.1,0.14,0.15,0.302,0.15,0.495c0,0.198-0.052,0.357-0.151,0.479
			c-0.057,0.066-0.14,0.131-0.25,0.187c0.168,0.061,0.294,0.155,0.378,0.289c0.085,0.13,0.127,0.289,0.127,0.477
			c0,0.192-0.049,0.365-0.145,0.519c-0.062,0.104-0.14,0.188-0.23,0.256c-0.104,0.078-0.225,0.137-0.369,0.164
			c-0.141,0.028-0.294,0.043-0.459,0.043h-1.466v-3.256h1.573C557.326,584.594,557.607,584.706,557.773,584.933z M556.009,585.151
			v0.717h0.79c0.143,0,0.257-0.026,0.345-0.08s0.133-0.147,0.133-0.286c0-0.15-0.059-0.248-0.176-0.301
			c-0.1-0.033-0.228-0.05-0.383-0.05H556.009L556.009,585.151z M556.009,586.407v0.869h0.789c0.143,0,0.25-0.02,0.328-0.058
			c0.145-0.071,0.217-0.206,0.217-0.407c0-0.17-0.07-0.285-0.208-0.35c-0.077-0.034-0.188-0.056-0.327-0.056L556.009,586.407
			L556.009,586.407z"/>
		<path fill="#FFFFFF" d="M560.469,584.586h0.771l-1.089,2.034v1.222h-0.68v-1.222l-1.127-2.034h0.8l0.677,1.418L560.469,584.586z"
			/>
	</g>
	<g>
		<g>
			<path fill="#FFFFFF" d="M566.517,584.426h0.776l1.403,2.473v-2.473h0.692v3.545h-0.742l-1.443-2.517v2.517h-0.688
				L566.517,584.426L566.517,584.426z"/>
			<path fill="#FFFFFF" d="M570.425,584.797c0.285-0.292,0.647-0.437,1.09-0.437c0.591,0,1.02,0.195,1.295,0.587
				c0.148,0.221,0.229,0.439,0.242,0.661h-0.741c-0.048-0.17-0.106-0.299-0.183-0.384c-0.132-0.153-0.328-0.229-0.586-0.229
				c-0.265,0-0.473,0.107-0.623,0.324c-0.152,0.219-0.229,0.525-0.229,0.923c0,0.399,0.08,0.696,0.241,0.895
				c0.161,0.197,0.365,0.299,0.614,0.299c0.252,0,0.447-0.086,0.581-0.256c0.072-0.09,0.136-0.229,0.183-0.41h0.736
				c-0.066,0.387-0.226,0.699-0.486,0.943c-0.262,0.241-0.594,0.36-1.002,0.36c-0.505,0-0.901-0.163-1.19-0.489
				c-0.288-0.328-0.434-0.777-0.434-1.353C569.93,585.607,570.095,585.133,570.425,584.797z"/>
		</g>
	</g>
	<g>
		<path fill="#FFFFFF" d="M578.517,586.944c0.022,0.173,0.073,0.303,0.145,0.389c0.132,0.154,0.354,0.233,0.673,0.233
			c0.19,0,0.347-0.021,0.465-0.062c0.225-0.078,0.338-0.226,0.338-0.438c0-0.125-0.055-0.223-0.166-0.291
			c-0.113-0.066-0.285-0.126-0.525-0.178l-0.411-0.088c-0.401-0.093-0.679-0.188-0.829-0.294c-0.254-0.173-0.383-0.448-0.383-0.819
			c0-0.339,0.126-0.619,0.376-0.846c0.249-0.224,0.617-0.336,1.102-0.336c0.401,0,0.748,0.104,1.033,0.315
			c0.284,0.213,0.436,0.521,0.45,0.922h-0.762c-0.014-0.227-0.117-0.387-0.306-0.484c-0.126-0.065-0.282-0.096-0.473-0.096
			c-0.209,0-0.375,0.041-0.499,0.122c-0.126,0.083-0.188,0.196-0.188,0.346c0,0.135,0.062,0.236,0.186,0.303
			c0.079,0.043,0.246,0.096,0.502,0.155l0.665,0.156c0.292,0.068,0.513,0.162,0.655,0.276c0.227,0.179,0.339,0.435,0.339,0.771
			c0,0.351-0.134,0.637-0.4,0.863c-0.269,0.229-0.646,0.344-1.134,0.344c-0.5,0-0.891-0.112-1.176-0.339
			c-0.287-0.224-0.432-0.536-0.432-0.929L578.517,586.944L578.517,586.944z"/>
		<path fill="#FFFFFF" d="M582.542,584.325h0.896l1.34,3.791h-0.858l-0.249-0.778h-1.396l-0.255,0.778h-0.828L582.542,584.325z
			 M582.486,586.681h0.972l-0.479-1.49L582.486,586.681z"/>
	</g>
	<g>
		<circle cx="542.95" cy="579.28" r="7.771"/>
		<circle fill="#FFFFFF" cx="542.95" cy="579.278" r="6.322"/>
		<g>
			<path d="M542.597,578.348l-1.188,0.215c-0.041-0.237-0.131-0.416-0.273-0.537c-0.143-0.119-0.325-0.178-0.55-0.178
				c-0.302,0-0.537,0.104-0.72,0.31c-0.18,0.204-0.268,0.555-0.268,1.038c0,0.539,0.09,0.921,0.271,1.146
				c0.183,0.223,0.426,0.332,0.73,0.332c0.229,0,0.417-0.064,0.562-0.195c0.146-0.131,0.249-0.354,0.311-0.67l1.182,0.199
				c-0.123,0.545-0.354,0.954-0.707,1.229c-0.348,0.276-0.813,0.416-1.399,0.416c-0.668,0-1.197-0.21-1.594-0.629
				c-0.396-0.42-0.592-1.004-0.592-1.746c0-0.75,0.198-1.337,0.594-1.754c0.397-0.42,0.936-0.627,1.613-0.627
				c0.555,0,0.995,0.118,1.322,0.355C542.219,577.497,542.453,577.86,542.597,578.348z"/>
			<path d="M547.477,578.348l-1.188,0.215c-0.039-0.237-0.131-0.416-0.272-0.537c-0.144-0.119-0.325-0.178-0.551-0.178
				c-0.301,0-0.539,0.104-0.72,0.31c-0.178,0.204-0.268,0.555-0.268,1.038c0,0.539,0.09,0.921,0.271,1.146
				c0.182,0.223,0.426,0.332,0.729,0.332c0.229,0,0.417-0.064,0.562-0.195c0.146-0.131,0.25-0.354,0.311-0.67l1.183,0.199
				c-0.123,0.545-0.356,0.954-0.708,1.229c-0.349,0.276-0.814,0.416-1.4,0.416c-0.668,0-1.197-0.21-1.593-0.629
				c-0.396-0.42-0.592-1.004-0.592-1.746c0-0.75,0.196-1.337,0.595-1.754c0.396-0.42,0.934-0.627,1.612-0.627
				c0.554,0,0.994,0.118,1.322,0.355C547.1,577.497,547.337,577.86,547.477,578.348z"/>
		</g>
	</g>
	<g>
		<path d="M569.93,571.719c-2.61,0-4.727,2.115-4.727,4.726c0,2.612,2.115,4.729,4.727,4.729s4.728-2.113,4.728-4.729
			C574.658,573.834,572.546,571.719,569.93,571.719z"/>
		<circle fill="#FFFFFF" cx="569.93" cy="576.447" r="3.846"/>
		
			<rect x="569.488" y="571.955" transform="matrix(0.4225 -0.9063 0.9063 0.4225 -193.3242 849.4399)" width="0.924" height="8.958"/>
		<g>
			<path d="M569.58,579.151v-0.637c-0.444-0.013-0.877-0.14-1.129-0.277l0.197-0.776c0.279,0.153,0.672,0.292,1.101,0.292
				c0.382,0,0.646-0.151,0.646-0.409c0-0.252-0.223-0.41-0.709-0.578c-0.711-0.238-1.196-0.568-1.196-1.215
				c0-0.59,0.411-1.047,1.122-1.181v-0.631h0.65v0.584c0.443,0.015,0.742,0.115,0.968,0.222l-0.199,0.748
				c-0.167-0.079-0.478-0.232-0.954-0.232c-0.434,0-0.571,0.193-0.571,0.381c0,0.212,0.231,0.356,0.798,0.564
				c0.796,0.276,1.107,0.643,1.107,1.246c0,0.591-0.411,1.09-1.182,1.221v0.684L569.58,579.151L569.58,579.151z"/>
		</g>
	</g>
	<g>
		<path d="M581.185,571.784c-2.571,0-4.66,2.086-4.66,4.658c0,2.576,2.089,4.665,4.66,4.665c2.576,0,4.665-2.089,4.665-4.665
			C585.852,573.87,583.761,571.784,581.185,571.784z"/>
		<path fill="#FFFFFF" d="M581.185,580.238c-2.092,0-3.789-1.698-3.789-3.794c0-2.091,1.695-3.79,3.789-3.79
			c2.096,0,3.793,1.696,3.793,3.79C584.979,578.538,583.281,580.238,581.185,580.238z"/>
		<path d="M581.185,573.885c-1.016,0-1.874,0.733-2.182,1.746h-0.294l0.933,1.016l0.93-1.016h-0.348
			c0.215-0.37,0.563-0.616,0.96-0.616c0.65,0,1.179,0.646,1.179,1.443c0,0.793-0.526,1.44-1.179,1.44
			c-0.432,0-0.81-0.289-1.016-0.72h-1.196c0.278,1.068,1.167,1.854,2.214,1.854c1.273,0,2.311-1.155,2.311-2.576
			C583.496,575.034,582.464,573.885,581.185,573.885z"/>
	</g>
</g>
<g>
	<path d="M11.392,586.197c-0.652,0-1.248-0.138-1.786-0.41c-0.539-0.271-1.002-0.631-1.39-1.07c-0.388-0.441-0.688-0.949-0.9-1.521
		C7.106,582.619,7,582.032,7,581.432c0-0.626,0.114-1.226,0.338-1.797c0.226-0.574,0.533-1.08,0.927-1.521
		c0.393-0.44,0.857-0.792,1.396-1.053c0.538-0.26,1.119-0.39,1.746-0.39c0.653,0,1.248,0.138,1.786,0.417
		c0.538,0.275,0.999,0.641,1.382,1.09s0.682,0.959,0.893,1.528c0.213,0.567,0.318,1.144,0.318,1.726c0,0.636-0.113,1.24-0.338,1.812
		c-0.225,0.574-0.534,1.079-0.926,1.517c-0.394,0.437-0.856,0.785-1.391,1.045C12.598,586.066,12.018,586.197,11.392,586.197z
		 M7.675,581.432c0,0.539,0.091,1.057,0.271,1.555s0.437,0.939,0.768,1.324c0.33,0.383,0.724,0.69,1.178,0.92
		c0.455,0.229,0.955,0.344,1.502,0.344c0.563,0,1.072-0.117,1.527-0.355c0.454-0.239,0.846-0.555,1.17-0.946
		c0.327-0.392,0.578-0.834,0.755-1.328s0.265-0.997,0.265-1.51c0-0.538-0.092-1.057-0.277-1.555
		c-0.185-0.498-0.442-0.939-0.773-1.323s-0.723-0.691-1.179-0.919c-0.454-0.229-0.949-0.347-1.486-0.347
		c-0.565,0-1.076,0.119-1.536,0.357c-0.458,0.238-0.85,0.554-1.17,0.945c-0.322,0.394-0.571,0.836-0.748,1.33
		C7.762,580.422,7.675,580.923,7.675,581.432z"/>
	<path d="M23.14,578.299c-0.608-0.681-1.469-1.021-2.58-1.021c-0.918,0-1.587,0.175-2.006,0.523
		c-0.417,0.349-0.628,0.817-0.628,1.407c0,0.302,0.054,0.554,0.159,0.755c0.106,0.202,0.271,0.373,0.496,0.51
		c0.226,0.137,0.513,0.256,0.86,0.355c0.35,0.103,0.761,0.2,1.237,0.299c0.512,0.106,0.97,0.223,1.377,0.352
		c0.404,0.127,0.75,0.289,1.038,0.483c0.287,0.193,0.508,0.433,0.662,0.715c0.153,0.281,0.231,0.632,0.231,1.044
		c0,0.414-0.082,0.775-0.245,1.086c-0.163,0.31-0.392,0.565-0.688,0.773c-0.297,0.208-0.648,0.364-1.059,0.471
		c-0.411,0.104-0.867,0.157-1.37,0.157c-1.463,0-2.704-0.467-3.717-1.401l0.356-0.542c0.396,0.415,0.882,0.743,1.457,0.984
		c0.573,0.242,1.217,0.363,1.931,0.363c0.821,0,1.461-0.147,1.925-0.449c0.462-0.301,0.695-0.754,0.695-1.362
		c0-0.309-0.06-0.57-0.178-0.787s-0.303-0.404-0.551-0.562c-0.247-0.158-0.554-0.295-0.919-0.409
		c-0.364-0.115-0.796-0.225-1.29-0.33c-0.503-0.105-0.945-0.219-1.329-0.338c-0.384-0.117-0.708-0.269-0.972-0.449
		c-0.265-0.181-0.463-0.398-0.596-0.654s-0.199-0.578-0.199-0.967c0-0.423,0.082-0.797,0.246-1.124
		c0.163-0.326,0.391-0.603,0.682-0.826c0.291-0.226,0.64-0.395,1.044-0.511c0.406-0.114,0.854-0.17,1.351-0.17
		c0.607,0,1.15,0.09,1.627,0.27c0.477,0.183,0.909,0.459,1.296,0.828L23.14,578.299z"/>
	<path d="M25.734,586.131v-9.395h3.863c0.396,0,0.763,0.085,1.098,0.251c0.335,0.168,0.624,0.392,0.866,0.669
		s0.432,0.591,0.568,0.938c0.138,0.35,0.205,0.698,0.205,1.053c0,0.381-0.063,0.746-0.191,1.098
		c-0.128,0.354-0.31,0.666-0.542,0.939c-0.232,0.272-0.512,0.492-0.833,0.654c-0.323,0.164-0.683,0.245-1.078,0.245h-3.281v3.546
		L25.734,586.131L25.734,586.131z M26.408,581.963h3.241c0.309,0,0.586-0.064,0.833-0.191s0.456-0.3,0.629-0.516
		c0.171-0.218,0.303-0.463,0.396-0.741c0.092-0.276,0.139-0.565,0.139-0.866c0-0.309-0.056-0.602-0.165-0.879
		c-0.11-0.279-0.26-0.523-0.45-0.734c-0.189-0.213-0.41-0.381-0.661-0.504s-0.519-0.186-0.801-0.186h-3.162L26.408,581.963
		L26.408,581.963z"/>
	<path d="M33.963,586.131v-9.395h3.917c0.397,0,0.764,0.085,1.098,0.251c0.335,0.168,0.622,0.392,0.859,0.669
		c0.238,0.277,0.426,0.591,0.563,0.938c0.137,0.35,0.204,0.698,0.204,1.053c0,0.344-0.054,0.676-0.159,0.998
		c-0.105,0.324-0.254,0.611-0.45,0.867c-0.194,0.256-0.427,0.467-0.7,0.635c-0.273,0.169-0.572,0.277-0.899,0.331l2.341,3.651
		h-0.781l-2.274-3.547h-3.043v3.547L33.963,586.131L33.963,586.131z M34.636,581.963h3.295c0.299,0,0.571-0.064,0.819-0.197
		c0.247-0.132,0.458-0.307,0.636-0.522c0.176-0.216,0.311-0.462,0.402-0.741c0.093-0.277,0.141-0.562,0.141-0.853
		c0-0.3-0.056-0.589-0.166-0.866c-0.11-0.276-0.261-0.522-0.45-0.733c-0.189-0.212-0.409-0.382-0.661-0.511
		c-0.252-0.127-0.523-0.192-0.814-0.192h-3.201V581.963z"/>
	<path d="M48.899,585.521v0.608h-6.258v-9.395h6.139v0.61h-5.464v3.688h4.775v0.582h-4.775v3.903h5.583V585.521z"/>
	<path d="M50.421,576.736l3.281,5.199l3.308-5.199h0.742l-3.706,5.849v3.546h-0.674v-3.572l-3.69-5.821L50.421,576.736
		L50.421,576.736z"/>
	<path d="M59.126,586.131v-9.395h3.122c0.741,0,1.392,0.124,1.951,0.371c0.561,0.248,1.025,0.583,1.396,1.007
		c0.371,0.423,0.647,0.919,0.833,1.487c0.185,0.567,0.277,1.175,0.277,1.819c0,0.715-0.104,1.36-0.311,1.938
		s-0.505,1.07-0.894,1.481c-0.388,0.409-0.857,0.729-1.41,0.953c-0.552,0.224-1.167,0.337-1.845,0.337L59.126,586.131
		L59.126,586.131z M66.031,581.421c0-0.592-0.083-1.137-0.251-1.635c-0.167-0.498-0.412-0.93-0.733-1.291
		c-0.322-0.359-0.718-0.644-1.185-0.848c-0.466-0.202-1.005-0.303-1.614-0.303h-2.447v8.177h2.447c0.617,0,1.162-0.104,1.633-0.312
		c0.473-0.206,0.866-0.495,1.185-0.865c0.316-0.37,0.559-0.805,0.722-1.303S66.031,582.003,66.031,581.421z"/>
	<path d="M67.288,586.131l3.996-9.395h0.555l3.997,9.395h-0.728l-1.311-3.097h-4.484l-1.311,3.097H67.288z M71.562,577.557
		l-2.09,4.922h4.141L71.562,577.557z"/>
	<path d="M80.148,576.802h0.661l1.401,3.413l1.403-3.413h0.661l-1.654,3.956l1.971,4.577l3.6-8.601h0.742l-4.023,9.395h-0.62
		l-2.063-4.829l-2.077,4.829h-0.622l-4.008-9.395h0.728l3.612,8.601l1.945-4.577L80.148,576.802z"/>
	<path d="M91.05,578.008v8.123h-0.675v-9.394h0.518l6.588,8.27v-8.255h0.675v9.379h-0.622L91.05,578.008z"/>
	<path d="M100.297,586.131v-1.125h0.583v1.125H100.297z"/>
	<path d="M102.401,581.368c0-0.563,0.098-1.127,0.298-1.688c0.197-0.561,0.486-1.062,0.866-1.502c0.379-0.44,0.844-0.8,1.395-1.077
		c0.552-0.277,1.181-0.418,1.887-0.418c0.838,0,1.552,0.192,2.144,0.576c0.591,0.383,1.027,0.877,1.309,1.475l-0.556,0.318
		c-0.159-0.327-0.351-0.601-0.576-0.82c-0.224-0.221-0.466-0.399-0.727-0.537c-0.261-0.137-0.533-0.234-0.814-0.298
		c-0.281-0.062-0.562-0.092-0.833-0.092c-0.6,0-1.129,0.121-1.589,0.364c-0.458,0.241-0.847,0.558-1.164,0.944
		c-0.316,0.39-0.557,0.826-0.722,1.316c-0.164,0.489-0.245,0.981-0.245,1.475c0,0.558,0.097,1.086,0.291,1.59
		c0.195,0.502,0.459,0.945,0.795,1.328c0.334,0.383,0.731,0.691,1.19,0.919c0.458,0.229,0.951,0.346,1.48,0.346
		c0.282,0,0.571-0.036,0.866-0.106c0.296-0.069,0.583-0.18,0.86-0.329c0.277-0.15,0.536-0.343,0.774-0.576
		c0.238-0.232,0.437-0.51,0.594-0.827l0.569,0.278c-0.159,0.352-0.372,0.665-0.642,0.939c-0.271,0.271-0.57,0.502-0.906,0.688
		c-0.335,0.186-0.689,0.324-1.065,0.416c-0.375,0.092-0.742,0.139-1.104,0.139c-0.644,0-1.233-0.141-1.768-0.423
		c-0.532-0.281-0.994-0.649-1.382-1.104c-0.387-0.455-0.689-0.972-0.905-1.549C102.509,582.555,102.401,581.969,102.401,581.368z"/>
	<path d="M115.882,586.197c-0.652,0-1.247-0.138-1.785-0.41c-0.538-0.271-1.001-0.631-1.39-1.07
		c-0.388-0.441-0.688-0.949-0.898-1.521c-0.212-0.572-0.317-1.16-0.317-1.76c0-0.627,0.112-1.225,0.337-1.798
		c0.224-0.573,0.534-1.081,0.926-1.521c0.394-0.44,0.857-0.792,1.396-1.052c0.539-0.261,1.121-0.391,1.747-0.391
		c0.65,0,1.247,0.139,1.786,0.416c0.538,0.276,0.999,0.643,1.381,1.091c0.384,0.45,0.682,0.959,0.894,1.529
		c0.211,0.566,0.317,1.144,0.317,1.726c0,0.635-0.113,1.239-0.337,1.812c-0.226,0.572-0.534,1.077-0.928,1.514
		c-0.393,0.438-0.854,0.785-1.389,1.046C117.087,586.066,116.509,586.197,115.882,586.197z M112.164,581.432
		c0,0.539,0.09,1.057,0.271,1.555c0.181,0.498,0.436,0.939,0.767,1.324c0.331,0.383,0.724,0.69,1.178,0.92s0.954,0.344,1.501,0.344
		c0.564,0,1.073-0.117,1.527-0.355c0.456-0.239,0.845-0.555,1.171-0.946s0.578-0.834,0.754-1.328
		c0.175-0.494,0.266-0.997,0.266-1.51c0-0.538-0.094-1.057-0.278-1.555c-0.186-0.498-0.443-0.939-0.774-1.323
		s-0.724-0.691-1.178-0.919c-0.455-0.229-0.95-0.347-1.488-0.347c-0.563,0-1.075,0.119-1.534,0.357s-0.851,0.554-1.172,0.945
		c-0.321,0.394-0.57,0.836-0.748,1.33C112.252,580.422,112.164,580.923,112.164,581.432z"/>
	<path d="M130.659,586.131v-8.123l-3.704,6.338h-0.423l-3.705-6.338v8.123h-0.675v-9.394h0.675l3.916,6.722l3.916-6.722h0.675v9.394
		H130.659L130.659,586.131z"/>
</g>
</svg>
