<?xml version="1.0" encoding="utf-8"?>
<!-- Generator: Adobe Illustrator 16.0.0, SVG Export Plug-In . SVG Version: 6.00 Build 0)  -->
<!DOCTYPE svg PUBLIC "-//W3C//DTD SVG 1.1//EN" "http://www.w3.org/Graphics/SVG/1.1/DTD/svg11.dtd">
<svg version="1.1" id="Layer_1" xmlns="http://www.w3.org/2000/svg" xmlns:xlink="http://www.w3.org/1999/xlink" x="0px" y="0px"
	 width="595.275px" height="595.279px" viewBox="0 0 595.275 595.279" enable-background="new 0 0 595.275 595.279"
	 xml:space="preserve">
<metadata><?xpacket begin="﻿" id="W5M0MpCehiHzreSzNTczkc9d"?>
<x:xmpmeta xmlns:x="adobe:ns:meta/" x:xmptk="Adobe XMP Core 5.3-c011 66.145661, 2012/02/06-14:56:27        ">
   <rdf:RDF xmlns:rdf="http://www.w3.org/1999/02/22-rdf-syntax-ns#">
      <rdf:Description rdf:about=""
            xmlns:dc="http://purl.org/dc/elements/1.1/">
         <dc:format>image/svg+xml</dc:format>
         <dc:title>
            <rdf:Alt>
               <rdf:li xml:lang="x-default">NFL Logo Redesigns</rdf:li>
               <rdf:li xml:lang="en_us">NFL Logo Redesigns</rdf:li>
            </rdf:Alt>
         </dc:title>
         <dc:creator>
            <rdf:Seq>
               <rdf:li>Max O'Brien/Osprey Dawn</rdf:li>
            </rdf:Seq>
         </dc:creator>
      </rdf:Description>
      <rdf:Description rdf:about=""
            xmlns:xmp="http://ns.adobe.com/xap/1.0/"
            xmlns:xmpGImg="http://ns.adobe.com/xap/1.0/g/img/">
         <xmp:CreatorTool>Adobe Illustrator CS6 (Macintosh)</xmp:CreatorTool>
         <xmp:ModifyDate>2013-10-06T18:02:11+13:00</xmp:ModifyDate>
         <xmp:MetadataDate>2013-10-06T18:02:11+13:00</xmp:MetadataDate>
         <xmp:CreateDate>2013-10-06T18:02:11+13:00</xmp:CreateDate>
         <xmp:Thumbnails>
            <rdf:Alt>
               <rdf:li rdf:parseType="Resource">
                  <xmpGImg:width>256</xmpGImg:width>
                  <xmpGImg:height>224</xmpGImg:height>
                  <xmpGImg:format>JPEG</xmpGImg:format>
                  <xmpGImg:image>/9j/4AAQSkZJRgABAgEASABIAAD/7QAsUGhvdG9zaG9wIDMuMAA4QklNA+0AAAAAABAASAAAAAEA&#xA;AQBIAAAAAQAB/+4ADkFkb2JlAGTAAAAAAf/bAIQABgQEBAUEBgUFBgkGBQYJCwgGBggLDAoKCwoK&#xA;DBAMDAwMDAwQDA4PEA8ODBMTFBQTExwbGxscHx8fHx8fHx8fHwEHBwcNDA0YEBAYGhURFRofHx8f&#xA;Hx8fHx8fHx8fHx8fHx8fHx8fHx8fHx8fHx8fHx8fHx8fHx8fHx8fHx8fHx8f/8AAEQgA4AEAAwER&#xA;AAIRAQMRAf/EAaIAAAAHAQEBAQEAAAAAAAAAAAQFAwIGAQAHCAkKCwEAAgIDAQEBAQEAAAAAAAAA&#xA;AQACAwQFBgcICQoLEAACAQMDAgQCBgcDBAIGAnMBAgMRBAAFIRIxQVEGE2EicYEUMpGhBxWxQiPB&#xA;UtHhMxZi8CRygvElQzRTkqKyY3PCNUQnk6OzNhdUZHTD0uIIJoMJChgZhJRFRqS0VtNVKBry4/PE&#xA;1OT0ZXWFlaW1xdXl9WZ2hpamtsbW5vY3R1dnd4eXp7fH1+f3OEhYaHiImKi4yNjo+Ck5SVlpeYmZ&#xA;qbnJ2en5KjpKWmp6ipqqusra6voRAAICAQIDBQUEBQYECAMDbQEAAhEDBCESMUEFURNhIgZxgZEy&#xA;obHwFMHR4SNCFVJicvEzJDRDghaSUyWiY7LCB3PSNeJEgxdUkwgJChgZJjZFGidkdFU38qOzwygp&#xA;0+PzhJSktMTU5PRldYWVpbXF1eX1RlZmdoaWprbG1ub2R1dnd4eXp7fH1+f3OEhYaHiImKi4yNjo&#xA;+DlJWWl5iZmpucnZ6fkqOkpaanqKmqq6ytrq+v/aAAwDAQACEQMRAD8A9U4q7FXYq7FXYq7FXYq7&#xA;FXYq7FVss0UMTSzOscSDk8jkKqgdyTsMVYRrv55/lFof+9/muwLDYpayfXHBG1GS1EzD6RjbLhLB&#xA;NT/5zD/LC3Mi6bZatqrL/dyQWyRxN/spZEcD/YZEyAbYaecvpBl7gSxK+/5zXl4utj5PCtT4JLrU&#xA;kSh94xDv/wAFg4w2fk5eQ98ox+8pV/0N953uGLRx+W7BPiIS6/SM7AV+EEwbE/57Y8SJaeusf9PF&#xA;c3/OUHnm64K/mfylp69Wkgsdbkfp9kiWJ1p8sNtYxV1j81b/AKGH82f+XH8r/wDcJ1j/ALJcKOHy&#xA;Hz/ai7H/AJyE82iRnP5geT7mikCK40/WIkr41WGJvxxtHDfd8/2pta/np+ZFwgMPmf8ALeVmoQrX&#xA;eoWpAIrv9ZMQ+itfbFjQHP7030/85fzUlnCRWPlDWwXUBNN16BGZK70Mjv8Aa7Gn0YpIHcfx8E9T&#xA;82vzThRZb/8AKu99A7+pp2p2eoV61oIgK/Z8cUABVb/nIfy7aSBNd8teZtASoDT6hpcgiFTSoaFp&#xA;iRt1AwrQ7030T8+fye1pitl5rsEYCtLt2sid6bfWhDU+wxteEs3s72yvrZLmyuI7q2kFY54XWRGH&#xA;iGUkHFBBHNWxQ7FXYq7FXYq7FXYq7FXYq7FXYq7FXYq7FXYqkHmvz/5K8pQ+r5j1m10yq80hmkHr&#xA;OtaVjhXlK+4/ZU4pESXjPmf/AJzI8q2xkj8raJea2ULD65cEWVr7MGYSSEezImRMwHIxaScxcQSO&#xA;/p8Sdg8e80/85W/mxq3OO21C10O3YFTFpkAkkp7zTmQg+6MMFksjihHnIfD1H9EftLyrXPNmva7N&#xA;62s6jearKOj39zLPQf5IY/D8sNFicsByF+8/oFJX9ZlH2KJ4FQAfvG+PCGP5iQ5be4AfbzWPJI5q&#xA;7Fj4kk/rwgU1zySl9RJW4WDsVdirsVdirsVdiqva3t5aSeraTyW8o/bidkbb3UjFWS6Z+bX5n6ZQ&#xA;WXmvVYkX7MRu5njH/PN2ZO3hiqdn8+/PF2R/iC30jzMg/Z1fTLSY/wDIyNIZfp51xVFaX+ZX5ei4&#xA;FxJ5XvfLV+TU6p5V1W4tHU16rb3P1hPucYpEiHonl387datQn+HPzNW6QHkuj+dbBo2PirahbevX&#xA;/ZSoMU8T0PTf+cmNc0239fzh5Rkk02MfvfMHly4h1Sx33BPpsUjFP5pi3tgXZ6X5O/N/8tvOJSPQ&#xA;Netri7fYWMhMFyTSpAgmCSNTuVBHvhteEsxxYuxV2KuxV2KuxV2KuxV2KuxV5n+ZP/OQ35c+Q2ls&#xA;7u8Op60gI/RVhxlkRxUUneojh3G4Y8qb8Tiy4e98w+fv+cr/AMzfMrS2+kzL5a0x6hYrEk3JWtRz&#xA;umAcMPGIJitjo8cmvbue6e7uJnnupWLyzyn1HZjuWZnqSffAQmOQxNjn83XF7d3NPXlZwv2VPQfQ&#xA;NsEYAcm7UazLm+uRNfL5Mp8g/lL59893Ij8vaXJNbBuM2oy/urSPcV5TN8JIrXitW9sk0cL0Kb/n&#xA;Dr8345WRDpkyqaCVLpgre45xq33jFQB3vPPzA/Knzt5Aks08z2cdr9f5m0MdxDNz9Ljz+GN2Zacx&#xA;uwGKmNMQxYuxV2KuxV2KuxV2KuxV2Kqohpb+s2wZuEY8SNz9Arkb3pvGGsfGepoeff8AL9Klkmh2&#xA;KqsVtLKP3fEn+Usqn7mIrkTIBvxaeWT6a+YH3plNp3mPy/Jb3n72xklRZLe5glAPFxVSHiY0qPfJ&#xA;NMokGigjcXN9fpJczM9xK4D3DfFIWJ+0zbFmr3JrgkaFtmCHHkjG6sgPWvy4/wCchfza8pWzzvNJ&#xA;5h8sWEkcN1b6gxf0/UqI0iuTWWNisR4LVlG/w4hE9iQd317+Vn5r+WPzH0E6norNFcW5VNR06anr&#xA;W8jAkBqbMjcTwcbH2IIBYEMzxQ7FXYq7FXYq7FUHq2q2ml2bXdz6jKCFSKGN5ppHPRI4owzux8AP&#xA;c7A4pjG3mXmfyz+cfn9ZLV9VTyD5akBH1W2pd6tOtelxLE6RQhl/ZilbwYtgZ3EJPov/ADh5+Udi&#xA;Ua//AEhq7gD1Fubn00Zu9BbLAwH+y+nCxvyZAP8AnGL8jAAB5YWg8bu+P658aXiKGuv+cVvyOnjK&#xA;R6A9sxNfVivb0t8qSTSL+GKAUXoH/ONX5MaLcJcxeXkvbhCSr38st0m46GGRjCae6Yp4u56ZBBBb&#xA;wpBbxrDBEoSOKNQqKo2AVRQADFiSvxV8K/8AOWqeYZPzi1CS+hn/AEbHbWsekSujCI24gV5PTalC&#xA;BcPLX3wMqJHk8VwsXYq7FV8bqrcmQSezVp+BGAhsxzETZHF77/RSr6gm+20cS+CpQ/8ACr+s5Gqb&#xA;vE8T6jGI8o/qH3lsrp6j+8lkb2RVH3lm/Vj6vJkY6cDnOR9wH6T9yg5Qn4AQPc1/gMkHFkY9Px9y&#xA;3CxdiqaXdtI2iWV0i1gjZopW7CR2ZlB/1gh+7KofVL4O11kR+Vwkf0/nxJXlrqnYq7FVdbiIWphN&#xA;tE0hNRckyeoB4ABwn3riqkfhb4WrTowr/GmKg0qtdSyH4+PxH42CqCa9dwO+R4acmWplI+qt+ZoA&#xA;/OmcaB+ZZ8ufUrrR7aGx1vTVAstW0/1IpJFDcjBfxFUiuopOhJAcbHkQvHIxvq3arwRRx17gZH58&#xA;UR9nyfoF5W1sa95Y0jXBEbcarZW976BPIp9YiWXhWgrx5U6ZY4JFFM8UOxV2KuxV2KuxV2KuxV2K&#xA;uxV2KuxV2KuxV5v+Yf8Azj9+WvneCV7rTU03VXqyatp6rBNzO9ZQBwm368wT4EYKZcXe+MPzY/Jr&#xA;zX+W2rfV9TT61pU7EafrEKkQTDchWrX05aD4kJ+RYb4VI6sCxYuxVvFUdZaWty4WS8t7Zajk8snQ&#xA;HvRQ1foyBl3By4aWNXKcY/af9jf3sli8v/lhaW4l1Lzbc30+x+q6RpruKeBmvpLLj9EZ+nJC2nII&#xA;A+kk/Cv0ljOqtohuCNJiuUtx0e7kjd2HjxjRAvyqcLUgcVZB5Wns7gy6NfuI7W9FFmIr6UnaQAAk&#xA;8SA1BuQCv7WU5PSeL5u57OIzY5aaXOXqh/WHT4h7H/zjr+VH5ZeYtc1bQ/O0VxL5q0yRjHpDTGK1&#xA;mtgAPUjeErJIysa7PxKlSOQrS11RjXTcPpOL8hPycijWNfKVgVXYFkLt9LMST9ONMeM/gBA3n/ON&#xA;f5IXkheXytCrHqIZ7qAf8DFMgw0pkSkx/wCcSPyXJJ+oXY9hdy/1wLxDuTCH/nFz8jI4RGfLfqEK&#xA;A0j3l9yYgU5Gk4AJ9gMKLV7T/nGf8jrWVZYvK8bMpBAlubyZdvFZZnU/SMVEqTzVPyb/ACu1HRZd&#xA;Hl8sadBZy0qbW2it5VKkEMssSq6ttua79DtgpImWXwwwwQxwQRrFDEoSKJAFVVUUVVUbAAdBhYr8&#xA;VdirsVdirsVdirsVdirsVdirsVdirsVdirsVSvzP5Y0PzRod1oeuWq3mm3i8ZYm6g9VdGG6up3Vh&#xA;uDikGn57/m/+V2qflx5vm0W6JnsZR6+lX1KCe3YkCtOjofhceO/QjFJHcwfFi7FVWK2uZv7qJ5P9&#xA;VSf1YDIDm3YtPkyfRGUvcCU203yX5q1IE2OmTzopo7qvwrX+Zui/TkPFj0cmXZmeIuQ4R/SMY/eU&#xA;wufy8vrGPnqmr6PYHblEb+G5lUf5UNkbqRSPArX2yYLhzjXUFjV1BFBO0cVxHdIvSaISBG+QlWN/&#xA;vXCwUlZlYMpoymoI6gjFMZGJBHMPXdKv9Uv/ACnZfmJ5dkMPnDyFNDFqnCtZtPeq28rKKcxGeUMg&#xA;/wB9FQdlyuArZ2GtyDKRmHOX1D+kOf8Apufvvufav5f+dNN86eUNN8yaeQIr6INLCG5GGYbSwsdt&#xA;0cEdN+vfLHXyFMhxQ7FXYq7FXYq7FXYq7FXYq7FXYq7FXYq7FXYq7FXYq7FXYq7FXYq7FXiP/OXf&#xA;lK31j8qZdY4D675euIrmGSlW9Gd1gmjHseauf9TAyj3PhnCxdiqqLm4HSVxTp8RwcIbTnnVcR+bU&#xA;s80zBppGkYCgZyWNB23wtSnirsVdir0j/nH/AMx2ulfmNaabqVH0LzNHJoWrwtTi8N8PTSpPSkvA&#xA;k+FcWQkaIT78vbTzv5K82eYrPyx5ssNK1nRL97O40XVpltrfUYonZAVMp9B2PCm5RgG+F98BIZ44&#xA;SkNhb3zRv+cmV01Ybf8AMry1feWJpCFXVoI2u9NlIHxOksfJqV6CP1P9bG2Mo0a5Hzet+WvN3ljz&#xA;PY/XvL2qW2p2opze2kVyhYVCyKPiRv8AJYA4WJBCb4odirsVdirsVdirsVdirsVdirsVdirsVdir&#xA;sVdirsVdirsVdirC/wA6oLSf8pPN6XTcIhpN3Ip2H7yOIvENwesiqMUgvzfxQ7FWwCSABUnoBikA&#xA;k0E60vynqd8wLmKyt6jnc3TrDGlenJnKqvtyIr0G+VeKOQ3dnHsrII8eUjFH+lzPujzZbFd/k/5U&#xA;taJaSeevMFN5Z2ms9HgbqOCL6Vzc0PXnwU9vHLBfVwcvBdQuu8/q6fb72JavrmueZLhi0UaQQK0q&#xA;WFhAltawRj7TCGFVRQK/E7b/AMxOFpSTFVSCaWCaOeFiksTB43HVWU1BHyOKvTPzf08+Yfzf1yWy&#xA;ZIvrlhHre6yEcRo0epSqAqu1SAwFRT+YgVOKQHnum6vrVg7Lpt7cWrTDg628jxlwf2SEI5A+GCmQ&#xA;nLkCmdndeevJWs2+rQC/0HVFPqQTvHJbswbfo4UOjDqpBUjrtiu43fdH5Bfmx/ysbySt7ecE17Tn&#xA;+q6tFHRQXpWOZVrssq/8MGA2GFBHV6XixdirsVdirsVdirsVdirsVdirsVdirsVdirsVdirsVdir&#xA;sVeV/wDOT2tR6V+S2vVk4TX4gsrcfztNMnNf+RSufowFlF+f+Fi7FUTFfzwrSDjCT1dB8R/2Rq33&#xA;ZAwB5uZj1s8YrHUPMc/nz+S2KK8vrpIYlkubqZgkcahpJHZjQKoFSSTktg45lPJLe5S+Zelw/lTo&#xA;HlSzTUvzR1RtNnkQSWnlLTykurTBhyX168o7RGBG8lW67AjCwIpinmfzs+rQDStI0+HQvLkbBodJ&#xA;tKsXYfZkup2/e3Mv+U5oP2Qo2xQxjFXYq9q/KWKy8zfnz5es7uMS2F1ocWn3kamgaJPLP1OQVB78&#xA;aYpHe+p/yf8Ayl0jyD5fTTntLafVLW5umTWhGpnmimkJiYsRzjPoFY2QGlVNKg4GUpdByZxq2kaX&#xA;q+nzadqlpFfWFwvGe2nRZI2HurVGFiDT4+/5xNXzDof506z5daFo41tbqHWLZi1ImtJlVHoNiyyH&#xA;gCezHAzI5vszC1uxV2KuxV2KuxV2KuxV2KuxV2KuxV2KuxV2KuxV2KuxV2Kvkf8A5zT8+R3Wq6T5&#xA;ItJOSacP0hqig1Hryrxt0IpsyRFm+TjAy5B8x4WLYBJAAqT0AxSASaCMSxii+K9l9L/ihPilP0dF&#xA;/wBllZmT9LsI6KEN88uH+iN5/qj/AJ3yTrSfPd/5fjceWoU0y9kBVtWA53qqwIIhlb+5qP2kAfr8&#xA;VDTDGHU7lhqNWCODHHgx/af6x/RySeysta1/WI7W1jm1LVr+XiiDlLNLK57k1JJPUnJE04cIGRoM&#xA;q8zWmh+TLVtBsZ49T82OOGuapGQ9vZfzWdmw2eTtNN/sE25FiiVdGEyxSRSGOReLr9pT1Heh98UL&#xA;MVfQn/OF+gyX/wCYup61LG0kOkacY0lO4Se5dUjFfeKOUDFkORfaGLF2KsJ8jflZpXlXzJ5m8yCc&#xA;32seZr2W5muHQIIbdpGkjtoxVjReXxNX4iAaCmCmUpWzbCxdirsVdirsVdirsVdirsVdirsVdirs&#xA;VdirsVdirsVdiqRee/N1h5P8oar5lvhyt9MgaUR1p6khISKIGhoZJGVK++KQLL82PMGvan5g1u+1&#xA;vVJjPqGozPcXMp2q7mtFHZR0UDYDbFSbS/FCqtxIgpF+7rsWX7R/2XX7siY3zb455RFR9Pu5/P8A&#xA;VspZJoRNjYXN9cLBboWdjv4CvjkZzERZcrSaPJqJ8EB+oeZZ5Pr9j5D0ibSfLsyzea7+Ix6vrkZq&#xA;bOFxRrS1cH+9cGk0g+z9hd+RyMATuW7V5McB4WL6Rzl/OP8AxPcPix/RdMi07Rm806kitH6jW+iW&#xA;cgr9ZulALylT9qG25BnrszlU3Beljr2OyvJJI0krM8jks7sSWYtuSSetcVWYq+2/+cOfKR0n8tJ9&#xA;cmj4XHmC7aWNtqm2tawxVHb956p+RwMjyAe84WLsVdirsVdirsVdirsVdirsVdirsVdirsVdirsV&#xA;dirsVdirsVdir5g/5zZ84mHTdC8nwPRrp21O+QVB9OKsVuD4qztIfmowMuQfJWFi7FXYqibGwmvJ&#xA;SqUVFFZZW2VV8TkJzEQ5mi0U9RKhtEcyeQCPm1dLOP6rpRMYH27ro7N4qe3+dMrhjJPFLm7DV6/H&#xA;jxnBp9ofxS6y/Z+OXN3lfQYdTupJ7+Y2eiWCibVL0AFlirQRxKftzSn4Y18dzRQxFxLqIY7BkfpH&#xA;4pkFU8zXF95m1K3Fl5Q8vRR21np0bEIAS31PToX2ZnlblJK/2qepIfi6lrJvdhV1cy3NzJcS09SV&#xA;izBQFUV7Ko2AHYDpihHeWfL2oeY/MOnaDpyc73UriO2hG9AZGpyanRVHxMewGKQLL9MfL2h2Og6D&#xA;p+iWClbLTbeK1twacuEKBAWpSrGlSfHFSbTDFDsVdirsVdirsVdirsVdirsVdirsVdirsVdirsVd&#xA;irsVdirsVdir4F/5yl159X/OjWUEvq2+mJb2Fv4II4leVB8p5JMWUnkuLF2KqsEKuS0j+nEv2n6n&#xA;5KO5yMjTfhxCW8jwxHM/qHU/gq1zfl4hbQL6Nqv7A6sf5nPc5GMKNnm5Go1xlDw4DgxDp1PnI9T9&#xA;gU7W1adzuEiQcpZT0VfH+gyUpU06bTHKe6I+o9APxyHVN43vtcn0/wAs6HAxhlnVLW2H27i5kPAS&#xA;y9i2/FR0UdNyxIGwss5nxpiENoDl7usj95+XIBO/zL1XTbX6l5J0KVZdE8uclnuo6cb3U5KC8u6i&#xA;lV5KIov+K1Hjkg40yL25MGwsH0//AM4Zflv9Y1C+8/X8X7qz5WGjcu8zr/pEw3r8EbCMdjybuMWX&#xA;Ie99a4sXYq7FXYq7FXYq7FXYq7FXYq7FXYq7FXYq7FXYq7FXYq7FXYq7FXYq+Fv+ch/yf866J5m8&#xA;xedNQW3/AEBqGpO9ncLMnN/rLl44xFs/JVrXb9knA2SF728UwtbsVbqdvbpim1W1tZLiQqtFVRyk&#xA;kP2VUdScjKVN+m00ssqGwG5PQDvKpdXSNGttbjjbIa7/AGnb+dv4DtgjHqebdqdSDEY8e2MfOR/n&#xA;H9A6Mj8v6iPK+lXGrxnjrt7G9tpRHWBZV4zXHsyxtxT/ACmDA1TIg8UvIfe35Mf5fTi/7zL9kP8A&#xA;jx+wJBLpxt9JhvZ6q96zC0jO1YojxeX/AFS/wKehKv8Ay5a6pRsLG71C/trCziM13dypBbwruzyS&#xA;MERR7ljTFIFv0t8heUrTyh5N0jy3a0MemW6xPItQJJT8c0lD09SVmf6cVkbKf4odirsVdirsVdir&#xA;sVdirsVdirsVdirsVdirsVdirsVdirsVdirsVdir5I/5zb80ySaz5e8rRuRDbW76lcqDszzuYYuQ&#xA;8UWJ6f62LLo+YsWLsVXxRNI1AQAN2Y9APE4CabMeMzND59ytPcr6f1e3qtuDVidmkYftN/AdsjGP&#xA;U83IzagcPh49sf2yPef0Dp791XTLWJi11c7Wlvu/+U3ZB88jkkeQ5lv7O00ZE5cn91j5+Z6R+KtZ&#xA;W9xr2txwvIIRM1ZZmBKQQIC0kjU/YijBY+wyUYiIoNGfPPU5TOX9gH4+LXmHVY9S1SSa3jaGwiCw&#xA;afbMQTFbRDjEjUopbiKuwHxOWbqcm4herf8AOJnk1df/ADVg1GePnZeXoXv35AlTOf3VutR0YO/q&#xA;L/qYEjkS+68LF2KuxV2KuxV2KuxV2KuxV2KuxV2KuxV2KuxV2KuxV2KuxV2KuxV2KuxV8If85WQ6&#xA;lP8AnjqcJhkfnBZrYoFYl4zbpX0xvUerzG3euBmQTVPMPMPlTzH5cltYde0+bTLi9gF1b29yvpym&#xA;Eu0Ydo2+NKtG1OQHTwwsSKSnFDdTSldvDFN7Uq2ttJcTLElBXdmPRVHVifAZGUqFt2m08s0xEfPo&#xA;B1J8gr393G6pa2+1rD9nxdu7n55GEep5lytdqoyAxY/7qHL+kesj7/uVI5msdOcJtcX6cS3dYK70&#xA;PUeoRQ/5NR3xBuXuYzj4WAfz8u/+aP8Aijv/AJqGtNPvLuO5kt4mkjs4vrF06ioji5rHzbwHORV+&#xA;ZGWOEI2+zv8AnDTyp+jfy5vNfkQrPr943ptXZrazrFHt/wAZTNip5B79ixdirsVdirsVdirsVdir&#xA;sVdirsVdirsVdirsVdirsVdirsVdirsVdirsVdir8+/+clvMH6a/OfzC6uWgsJI9PhBNeP1WNUkA&#xA;9vW5n6cAZS6B5fhYuxVEGcRwGCE/b/vpO7f5I/yR+OQ4bNlyzn4IcEOv1Hv8vcPtPwas4BPcKjHj&#xA;GKtI/gi7sfuwzlQY6TAMuQRJqPMnuA5tXlwbi4eWnFTsifyqNlH0DGEaFI1WfxchlyHQdwHIfJ9S&#xA;fkv+S0s35Bea9Rubdn1rzbYynS4gP3ggtgZLUDbl+/nUMQNmXhhawa2fQP5WeX18vflx5b0f0jDJ&#xA;a6fbi4jOxE7oJJ6/OV2OIYz5spwsXYq7FXYq7FXYq7FXYq7FXYq7FXYq7FXYq7FXYq7FXYq7FXYq&#xA;7FXYq7FXYq+E/wA0PyL/ADZvfzQ8xz2Pl26vLbU9Tu7yzu4uLQtDcTPLHWUtwQ8WoQxFMFs+F5v5&#xA;28ieY/JWrx6P5igS21J4EuWt0kSYokjMFDNGWTl8FdicLEimP4odiqID+laFR/eXH2j4Rqen+yb9&#xA;WQqz7nLE/DxUPqn/ALkfrP3DvT78tvJd15188aR5atyVF/OBcyruY7dBznk3pusasQO52ybjRD9J&#xA;7GxtLCxt7GziWCztIkgtoE2VI41Coi+yqKYoJtXxQ7FXYq7FXYq7FXYq7FXYq7FXYq7FXYq7FXYq&#xA;7FXYq7FXYq7FXYq7FXYq7FXYq7FXxb/zmnpL2/5k6ZqIjZYL/S419U14tNBNKrgf6qPH9+LI8nz+&#xA;yOoUspUOOSEilRUio8dwRixpbirbMWNT8vu2xSSS+s/+cLPIXo2GreeLuMiS7P6N0ssCP3SEPcSC&#xA;vUNIEQEfysMU9H1BixdirsVdirsVdirsVdirsVdirsVdirsVdirsVdirsVdirsVdirsVdirsVdir&#xA;sVdirsVYn+Yv5XeUPzB062sfMls8q2cvrWs8LmKWMmgdQ4r8LgUYfLuAcUg0+Kv+cmbGz0784tX0&#xA;6xgS2sLKCwgtLaJQscca2UNFVR0G+AMpG6eWYWCvYWN3f31vY2cTTXd3KkFvCgqzySMFRQPEsaYp&#xA;At+mHkTypaeUvJ2keXLWnp6ZbJC7rUCSWnKaXf8A35KWf6cVkbKe4odirsVdirsVdirsVdirsVdi&#xA;rsVdirsVdirsVdirsVdirsVdirsVdirsVdirsVdirsVdir4T/wCcudKmsvzmvLmQUTU7O0uoj4qs&#xA;f1Y/8NbnAylyDxfCxez/APOJ3kseYfzWt9QnjD2Pl6JtQk5AlTP/AHdutR0YSN6i/wCpiyHK33bi&#xA;xdirsVdirsVdirsVdirsVdirsVdirsVdirsVdirsVdirsVdirsVdirsVdirsVdirsVdirsVeO/8A&#xA;ORX5L6R550J9fa4ktNY8v2V1JA0aq4uI0jMqwSA0I+NfhYdOR2PYFnDfYvg3Cwfbf/OHXlAaT+Ws&#xA;+vypS68xXTSK1d/q1oWhiBHY+p6p+RGLI8gHvOLF2KuxV2KuxV2KuxV2KuxV2KuxV2KuxV2KuxV2&#xA;KuxV2KuxV2KuxV2KuxV2KuxV2KuxV2KuxVp0R0ZHUMjAhlIqCDsQQcVfnJ+av5Zar5K/MK78tei7&#xA;wzTc9FkO/r20zkQkGgqw+w3+UDgZmNnbq/Qbyj5fg8ueVtJ0GDiY9LtIbQOq8Q5ijCs9PF2BY+5w&#xA;sZGym2KHYq7FXYq7FXYq7FXYq7FXYq7FXYq7FXYq7FXYq7FXYq7FXYq7FXYq7FXYq7FXYq7FXYq7&#xA;FXYqk/mDyf5a8wzabPrOnxXk+j3SX2mTPUPDPGwZWRlKtTko5KfhagqDTFINJxih2KuxV2KuxV2K&#xA;uxV2KuxV2KuxV2KuxV2KuxV2KuxV2KuxV2KuxV2KuxV2KuxV2KuxV2KuxV2KuxV2KuxV2KuxV2Ku&#xA;xV2KuxV2KuxV2KuxV2KuxV2KuxV2KuxV2KuxV2KuxV2KuxV2KuxV2KuxV2KuxV2KuxV2KuxV2Kux&#xA;V2KuxV2KuxV2KuxV2KuxV2KuxV2KuxV2KuxV2KuxV2KuxV2KuxV2KuxV2KuxV2KuxV2KuxV2KuxV&#xA;2KuxV2KuxV2KuxV2KuxV2KrJpoYIXmmdYoYlLyyuQqqqirMzHYADqcVSMeffJxbgNVgLAV4gmtPG&#xA;lMVd/j7ydRj+loKJXmananWu22Ktnz75OH2tWgQULcmYqAo6sSQAAO5xVi6Xv5jr9WmYX0kSi3N1&#xA;btFZRyPdMzC4hR1imAgUcSjcN96zDbFUCG/OeLQrSeSd5b6S2t5J40FszpK6xCVXT6pGGPPn8Kkc&#xA;K15OBTFU5mm88vbpNa3k62zQySXBNsHuUkhcKscSyWlty9VZue8Jp6dBXlsqh3vvzPEwltYZJdNt&#xA;+aILlII7u5b1GmjaRETgqskSQcl4cfVZmXknwqqGm3f5uC1W6uUaSW2gnE2nvHbq9y6OGRkkUKqy&#xA;GOeiKaKWiIanLkFUwub/AM6+pNwW/DerAqpDBamJbQCEXMymRebT8/V4rU9qIRQ4qpafP+aTzAzB&#xA;RYNqEK8544lu1sUljrVIx6ZeeKSsh24FXoASvFVn+KuxV2KuxV2KuxV2KuxV2KuxV2KuxV2KuxV2&#xA;KuxV2KuxV2KuxV2KpP5z9T/B+u+nG80n6Pu+EUY5O59B6Kqjqx6AYq+ZP+VieX7fytY6k2qrPdwt&#xA;FM+kQaaFvxN+4E0jXBjV2LFZSf33xhuLfCSEVShU0G/ittFW5nt5dThjv4LmL6vbekEgSULdTm7H&#xA;CVf7yNGLcZy7Hny4YFWeppVtpN5rSXV1eGx9XTXthFapPJLGyxg2lslwOMBNx+64IeMXqgbNsof/&#xA;2Q==</xmpGImg:image>
               </rdf:li>
            </rdf:Alt>
         </xmp:Thumbnails>
      </rdf:Description>
      <rdf:Description rdf:about=""
            xmlns:xmpMM="http://ns.adobe.com/xap/1.0/mm/"
            xmlns:stRef="http://ns.adobe.com/xap/1.0/sType/ResourceRef#"
            xmlns:stEvt="http://ns.adobe.com/xap/1.0/sType/ResourceEvent#">
         <xmpMM:OriginalDocumentID>uuid:9E3E5C9A8C81DB118734DB58FDDE4BA7</xmpMM:OriginalDocumentID>
         <xmpMM:DocumentID>xmp.did:0080117407206811822A8451A1857300</xmpMM:DocumentID>
         <xmpMM:InstanceID>xmp.iid:0080117407206811822A8451A1857300</xmpMM:InstanceID>
         <xmpMM:RenditionClass>proof:pdf</xmpMM:RenditionClass>
         <xmpMM:DerivedFrom rdf:parseType="Resource">
            <stRef:instanceID>xmp.iid:FF7F117407206811822A8451A1857300</stRef:instanceID>
            <stRef:documentID>xmp.did:FF7F117407206811822A8451A1857300</stRef:documentID>
            <stRef:originalDocumentID>uuid:9E3E5C9A8C81DB118734DB58FDDE4BA7</stRef:originalDocumentID>
            <stRef:renditionClass>proof:pdf</stRef:renditionClass>
         </xmpMM:DerivedFrom>
         <xmpMM:History>
            <rdf:Seq>
               <rdf:li rdf:parseType="Resource">
                  <stEvt:action>saved</stEvt:action>
                  <stEvt:instanceID>xmp.iid:F77F117407206811822A8451A1857300</stEvt:instanceID>
                  <stEvt:when>2013-10-06T17:09:14+13:00</stEvt:when>
                  <stEvt:softwareAgent>Adobe Illustrator CS6 (Macintosh)</stEvt:softwareAgent>
                  <stEvt:changed>/</stEvt:changed>
               </rdf:li>
               <rdf:li rdf:parseType="Resource">
                  <stEvt:action>saved</stEvt:action>
                  <stEvt:instanceID>xmp.iid:0080117407206811822A8451A1857300</stEvt:instanceID>
                  <stEvt:when>2013-10-06T18:02:11+13:00</stEvt:when>
                  <stEvt:softwareAgent>Adobe Illustrator CS6 (Macintosh)</stEvt:softwareAgent>
                  <stEvt:changed>/</stEvt:changed>
               </rdf:li>
            </rdf:Seq>
         </xmpMM:History>
      </rdf:Description>
      <rdf:Description rdf:about=""
            xmlns:xmpTPg="http://ns.adobe.com/xap/1.0/t/pg/"
            xmlns:stDim="http://ns.adobe.com/xap/1.0/sType/Dimensions#"
            xmlns:xmpG="http://ns.adobe.com/xap/1.0/g/">
         <xmpTPg:NPages>1</xmpTPg:NPages>
         <xmpTPg:HasVisibleTransparency>False</xmpTPg:HasVisibleTransparency>
         <xmpTPg:HasVisibleOverprint>False</xmpTPg:HasVisibleOverprint>
         <xmpTPg:MaxPageSize rdf:parseType="Resource">
            <stDim:w>209.999929</stDim:w>
            <stDim:h>210.001308</stDim:h>
            <stDim:unit>Millimeters</stDim:unit>
         </xmpTPg:MaxPageSize>
         <xmpTPg:PlateNames>
            <rdf:Seq>
               <rdf:li>Cyan</rdf:li>
               <rdf:li>Magenta</rdf:li>
               <rdf:li>Yellow</rdf:li>
               <rdf:li>Black</rdf:li>
            </rdf:Seq>
         </xmpTPg:PlateNames>
         <xmpTPg:SwatchGroups>
            <rdf:Seq>
               <rdf:li rdf:parseType="Resource">
                  <xmpG:groupName>Default Swatch Group</xmpG:groupName>
                  <xmpG:groupType>0</xmpG:groupType>
               </rdf:li>
            </rdf:Seq>
         </xmpTPg:SwatchGroups>
      </rdf:Description>
      <rdf:Description rdf:about=""
            xmlns:pdf="http://ns.adobe.com/pdf/1.3/">
         <pdf:Producer>Adobe PDF library 10.01</pdf:Producer>
      </rdf:Description>
      <rdf:Description rdf:about=""
            xmlns:xmpRights="http://ns.adobe.com/xap/1.0/rights/">
         <xmpRights:Marked>True</xmpRights:Marked>
         <xmpRights:WebStatement rdf:resource="http://www.ospreydawn.com"/>
         <xmpRights:UsageTerms>
            <rdf:Alt>
               <rdf:li xml:lang="x-default">This work is licensed under a &lt;a rel="license" href="http://creativecommons.org/licenses/by-nc-sa/3.0/"&gt;Creative Commons Attribution-NonCommercial-ShareAlike 3.0 Unported License&lt;/a&gt;.</rdf:li>
               <rdf:li xml:lang="en_us">This work is licensed under a &lt;a rel="license" href="http://creativecommons.org/licenses/by-nc-sa/3.0/"&gt;Creative Commons Attribution-NonCommercial-ShareAlike 3.0 Unported License&lt;/a&gt;.</rdf:li>
               <rdf:li xml:lang="en">This work is licensed under a &lt;a rel="license" href="http://creativecommons.org/licenses/by-nc-sa/3.0/"&gt;Creative Commons Attribution-NonCommercial-ShareAlike 3.0 Unported License&lt;/a&gt;.</rdf:li>
            </rdf:Alt>
         </xmpRights:UsageTerms>
      </rdf:Description>
      <rdf:Description rdf:about=""
            xmlns:cc="http://creativecommons.org/ns#">
         <cc:attributionName>Max O'Brien / Osprey Dawn</cc:attributionName>
         <cc:license rdf:resource="http://creativecommons.org/licenses/by-nc-sa/3.0/"/>
      </rdf:Description>
   </rdf:RDF>
</x:xmpmeta>
                                                                                                    
                                                                                                    
                                                                                                    
                                                                                                    
                                                                                                    
                                                                                                    
                                                                                                    
                                                                                                    
                                                                                                    
                                                                                                    
                                                                                                    
                                                                                                    
                                                                                                    
                                                                                                    
                                                                                                    
                                                                                                    
                                                                                                    
                                                                                                    
                                                                                                    
                                                                                                    
                           
<?xpacket end="w"?>
	</metadata>
<g id="Layer_2">
	<g id="_x37_Wl2mV_1_">
	</g>
</g>
<g id="Layer_1_1_">
	<g>
		<path fill="#FFFFFF" d="M327.977,509.247c-0.658-0.361-16.142-9.256-18.993-30.971l-0.221-1.683l-1.519-0.771
			c-2.459-1.252-4.437-3.438-5.875-6.515c-2.079-4.438-4.411-15.021-4.621-27.78l-0.044-2.729L294,438.397
			c-2.419-0.36-4.745-1.693-6.729-3.854c-2.276-2.479-6.218-8.521-7.025-21.066l-0.225-3.491l-3.461,0.508
			c-1.747,0.257-3.367,0.39-4.812,0.39c-0.705,0-1.375-0.026-1.993-0.089c-1.964-0.178-6.543-0.593-9.5-4.812
			c-2.543-3.629-3.599-9.167-0.479-24.396l0.915-4.475l-4.521,0.634c-1.001,0.145-1.963,0.212-2.855,0.212
			c-0.952,0-1.872-0.072-2.734-0.225c-2.826-0.493-5.229-2.363-6.599-5.127c-2.866-5.811-1.562-18.753,3.397-33.787l0.919-2.783
			l-2.684-1.18c-0.673-0.297-1.279-0.649-1.855-1.082c-1.627-1.221-5.939-4.455-1.227-27.551
			c2.193-10.736,6.828-26.957,16.448-43.261c11.984-20.318,17.438-52.537,5.812-71.271c-10.179-16.396-31.871-32.488-43.796-32.488
			c-9.098,0-12.938-4.093-14.562-7.524c-1.618-3.43-1.647-7.53-0.093-12.201l1.354-4.037l-4.252-0.205
			c-2.901-0.144-5.772-0.219-7.646-0.271c-2.379-0.062-4.091-0.115-5.438-0.186l-0.856-0.044l-0.767,0.389
			c-4.759,2.416-16.777,8.271-25.588,10.41c-2.562,0.624-5.583,0.914-9.521,0.914c-3.399,0-7.148-0.214-11.122-0.439l-0.148-0.01
			c-4.865-0.275-9.896-0.562-15.318-0.562c-7.146,0-13.471,0.522-19.327,1.606c-0.285,0.058-26.079,4.909-31.976,6.744l-0.074-0.138
			c-5.36,1.787-10.282,4.003-14.514,6.201c7.601-8.647,14.938-14.974,15.05-15.062l0.291-0.262
			c6.338-5.799,31.548-26.01,89.929-42.616c45.062-12.814,86.589-21.354,142.788-21.354c16.656,0,34.417,0.717,54.293,2.188
			c50.385,3.728,91.644,14.599,111.744,20.746c37.946,11.604,50.618,20.781,54.567,26.438l0.376,0.537l0.557,0.354
			c3.396,2.123,7.989,5.871,10.646,11.668c3.918,8.549-0.123,14.655-2.063,17.591c0,0-0.204,0.303-0.249,0.368
			c-3.928,3.328-7.896,5.182-10.33,6.104l-3.022-5.902l-3.95,0.771c-5.83,1.144-13.818,2.701-21.104,2.703
			c-2.091,0-4.035-0.134-5.798-0.396c-0.887-0.142-1.731-0.2-2.668-0.2c-1.624,0-3.317,0.196-5.476,0.447
			c-3.354,0.392-7.525,0.877-13.593,0.877c-6.456,0-13.765-0.554-22.319-1.687c-4.712-0.621-9.161-0.937-13.226-0.937
			c-3.749,0-7.229,0.269-10.335,0.799l-5.139,0.874l3.07,4.206c4.163,5.702,7.318,10.894,9.38,15.426l0.373,0.82l0.745,0.509
			c4.431,3.021,13.478,8.604,24.293,12.081c16.688,5.363,26.647,11.467,30.458,18.658l0.072,0.136
			c5.275,9.979,8.146,16.191,8.146,20.424c0,4.688-2.51,19.025-13.656,23.312c-1.021,0.367-2.173,0.565-3.359,0.565
			c-2.737,0-5.229-1.023-6.799-1.857l1.444-6.276c0.422-1.854,0.809-4.261,0.904-5.729l0.066-0.937l-0.445-0.825
			c-0.903-1.669-2.414-4.463-2.307-9.375l0.053-2.271l-2.124-0.812c-2.038-0.775-4.763-1.396-6.938-1.583l-0.521-0.043l-0.515,0.125
			c-0.816,0.201-2.007,0.663-3.354,1.202c-2.51,1.003-5.108,2.04-7.896,2.058l-1.155,0.011l-6.897,5.765l-0.146,1.275
			c-0.184,1.539-0.407,3.081-0.685,4.583c-3.243,18.021-8.205,38.472-22.438,65.841c-14.229,27.366-25.161,67.621-25.972,77.286
			l-2.299,27.59l-11.979-29.954l-3.146,6.761c-8.008,17.194-14.922,33.49-20.554,48.438c-14.479,38.411-20.352,63.467-20.403,63.714
			l-1.959,8.487L327.977,509.247z"/>
		<path fill="#AA050F" d="M535.447,145.198c-3.155-6.885-10.328-10.041-10.328-10.041c-3.438-12.625-80.621-39.882-162.104-45.906
			c-81.48-6.021-130.262,0.575-194.812,18.938c-64.554,18.358-94.104,44.186-94.104,44.186s9.181-7.46,32.42-11.765
			c23.236-4.303,44.471,1.146,55.086-1.438c10.617-2.582,26.684-11.188,26.684-11.188c2.583,0.861,33.281-0.286,29.27,4.591
			c-4.021,4.878-12.342,20.085,3.438,20.085s39.021,18.938,49.354,35.575c10.324,16.643,11.188,49.35-5.738,78.041
			c-16.928,28.688-19.223,60.534-16.928,62.258c2.294,1.727,10.61,0.571,10.61,0.571c-6.6,12.626-13.193,41.028-6.6,42.179
			c6.6,1.146,18.648-5.732,18.648-5.732c-9.473,35.856-6.312,38.148,0,38.729c6.312,0.572,16.641-3.151,16.641-3.151
			c-2.295,26.394,7.459,33.275,9.755,30.118c2.296-3.146,8.321-8.604,8.321-8.604c-3.729,15.496-0.862,37.296,2.229,43.896
			c3.101,6.604,7.812,2.87,7.812,2.87c-0.859,24.678,16.063,34.146,16.063,34.146s5.736-24.961,20.655-64.562
			c14.922-39.592,34.146-76.312,34.146-76.312c-1.724,12.336,3.441,25.248,3.441,25.248c0.861-10.329,11.764-51.067,26.684-79.761
			c14.922-28.689,19.227-49.639,21.81-63.979c2.58-14.347-0.062-25.899-0.062-25.899l4.36-0.21
			c-3.729,11.19,6.892,20.086,6.892,20.086c-3.442-6.021,1.722-12.052,1.722-12.052c2.583,3.441,9.756-2.583,14.634-2.296
			c4.876,0.287,16.644,2.871,15.777,9.184c-0.859,6.312,1.437,7.744,2.297,10.326c0.861,2.582-0.86,10.042-0.86,10.042
			c7.459-2.87,9.472-13.771,9.472-17.214s-4.879-12.625-7.46-17.503c-2.582-4.877-10.614-10.328-26.687-15.492
			c-16.063-5.164-28.402-14.632-28.402-14.632c-4.307-11.479-17.501-26.396-17.501-26.396s9.185-9.468,39.597-5.448
			c30.411,4.018,34.717-0.86,44.185,0.571c9.469,1.438,23.814-2.296,29.551-3.153c5.74-0.858,7.177,4.592,7.177,4.592
			C533.725,155.813,538.603,152.083,535.447,145.198z"/>
		<g>
			<path fill="#FFFFFF" d="M261.518,93.623c0,0,51.964-1.426,98.684,3.803c46.723,5.229,47.57,12.771,47.57,12.771l74.884,11.764
				l15.78,1.438l-12.051-6.892l-66.276-18.07l-59.677-7.458l-44.476-2.296h-32.134L261.518,93.623z"/>
			<path fill="#FFFFFF" d="M463.287,128.271c0,0,0.288,14.771,15.782,21.375c15.492,6.6,14.774,1.722,14.774,1.722
				s-11.046-8.466-11.479-13.915C481.939,132,463.287,128.271,463.287,128.271z"/>
			<path fill="#FFFFFF" d="M516.51,138.311c0,0,15.091,3.669,14.771,10.617l2.151-1.438l-1.146-4.592l-10.186-8.463l-3.587,1.723
				L516.51,138.311z"/>
			<path fill="#FFFFFF" d="M431.302,203.154c0,0,31.744,7.698,39.881,8.749l-10.043-5.737l-18.363-5.88l-14.771-7.174
				L431.302,203.154z"/>
			<path fill="#FFFFFF" d="M424.865,211.903c0,0-1.015-0.313-3.512-11.522c-5.646-25.343-23.063-44.295-22.768-52.626l12.342,1.179
				l-0.86,15.684l12.438,20.468l10.324,21.421v26.491l-2.966,21.231l-14.839-7.173l1.547-10.521l4.399-21.805l-8.321-6.407
				L424.865,211.903z"/>
			<path fill="#FFFFFF" d="M354.982,159.83c-1.148,0.191-13.245,3.442-25.811,8.217c-13.343,5.069,4.39,5.363,4.39,5.363
				l25.054-4.017l13.964-8.229c0,0-1.91-4.776-2.867-4.396C368.753,157.152,354.982,159.83,354.982,159.83z"/>
			<path fill="#FFFFFF" d="M363.041,183.701c0,0-15.906,5.327-26.458,6.906c-12.087,1.811-7.616,10.155-7.616,10.155l31.371-6.122
				l30.411-10.939c0,0-3.438-6.082-4.206-5.892C385.775,178.001,363.041,183.701,363.041,183.701z"/>
			<path fill="#FFFFFF" d="M365.083,212.503c0,0-8.467,6.446-21.522,13.647c-13.104,7.226,40.11-11.044,40.11-11.044l5.738-8.989
				v-6.312l-24.033,8.224L365.083,212.503z"/>
			<path fill="#FFFFFF" d="M362.215,235.876c0,0-3.667,1.92-22.917,17.33c-18.306,14.652,6.89,2.835,6.89,2.835l38.062-20.165
				l12.979-19.431l-14.514,2.486c0,0-24.26,11.361-22.379,14.15C362.215,235.876,362.215,235.876,362.215,235.876z"/>
			<path fill="#FFFFFF" d="M380.366,249.142c0,0-14.922,13.977-31.347,35.206c-16.547,21.386,6.727,5.165,6.727,5.165l26.587-31.562
				l16.258-22.188l-10.521-1.343L380.366,249.142z"/>
			<path fill="#FFFFFF" d="M378.488,276.49c0,0-7.071,11.462-24.462,34.257l12.229-7.271l36.16-51.45l-5.188-4.209l-14.896,18.171
				L378.488,276.49z"/>
			<path fill="#FFFFFF" d="M379.602,296.452c0,0-11.423,20.029-19.771,38.763l20.775-22.362l18.938-36.347l-2.317-5.546
				l-6.857,4.398L379.602,296.452z"/>
			<path fill="#FFFFFF" d="M374.317,336.348c0,0-5.903,13.914-10.61,26.288l17.671-29.321l12.056-22.567l-6.313-2.299
				l-13.961,23.717L374.317,336.348z"/>
		</g>
		<path d="M535.447,145.198c-3.155-6.888-10.328-10.042-10.328-10.042c-3.438-12.623-80.621-39.88-162.104-45.904
			c-81.481-6.021-130.262,0.573-194.812,18.938c-64.555,18.362-94.104,44.185-94.104,44.185s9.182-7.46,32.422-11.764
			c23.234-4.304,44.469,1.146,55.086-1.438c10.615-2.58,26.684-11.188,26.684-11.188c2.581,0.86,33.28-0.288,29.27,4.59
			c-4.021,4.879-12.339,20.086,3.438,20.086c15.78,0,39.021,18.938,49.354,35.575c10.326,16.643,11.188,49.35-5.739,78.04
			c-16.927,28.688-19.224,60.535-16.928,62.26c2.296,1.727,10.612,0.571,10.612,0.571c-6.6,12.626-13.193,41.028-6.6,42.179
			c6.6,1.146,18.646-5.732,18.646-5.732c-9.471,35.856-6.312,38.148,0,38.729c6.312,0.572,16.645-3.149,16.645-3.149
			c-2.296,26.392,7.459,33.273,9.754,30.117c2.295-3.147,8.321-8.604,8.321-8.604c-3.729,15.496-0.862,37.296,2.229,43.896
			c3.101,6.604,7.812,2.87,7.812,2.87c-0.859,24.677,16.063,34.146,16.063,34.146s5.736-24.961,20.655-64.562
			c14.922-39.592,34.146-76.312,34.146-76.312c-1.726,12.336,3.439,25.248,3.439,25.248c0.861-10.329,11.765-51.067,26.686-79.76
			c14.92-28.691,19.225-49.641,21.808-63.98c2.58-14.348-0.062-25.9-0.062-25.9l4.359-0.208
			c-3.729,11.188,6.892,20.085,6.892,20.085c-3.442-6.022,1.722-12.052,1.722-12.052c2.583,3.442,9.756-2.583,14.634-2.296
			c4.876,0.287,16.643,2.871,15.777,9.181c-0.859,6.312,1.437,7.747,2.297,10.33c0.861,2.581-0.86,10.042-0.86,10.042
			c7.459-2.871,9.472-13.771,9.472-17.215s-4.879-12.625-7.46-17.503c-2.583-4.877-10.614-10.328-26.687-15.491
			c-16.063-5.166-28.401-14.634-28.401-14.634c-4.308-11.479-17.502-26.396-17.502-26.396s9.185-9.47,39.597-5.449
			c30.41,4.017,34.717-0.861,44.185,0.568c9.469,1.438,23.814-2.294,29.551-3.15c5.74-0.861,7.178,4.591,7.178,4.591
			C533.725,155.813,538.603,152.083,535.447,145.198z M453.969,206.525c4.104,1.371,6.599,2.009,12.265,4.304
			c0,0-3.806,0.853-11.118-0.856c-7.757-1.812-20.227-3.658-20.227-3.658c-0.788-4.021-3.301-8.182-3.301-8.182
			C439.189,201.646,450.789,205.463,453.969,206.525z M274.072,137.754c5.548-2.562,11.668-2.979,11.668-2.979
			C280.194,137.452,274.072,137.754,274.072,137.754z M285.74,143.762c0,0,9.564-5.163,15.812-6.013
			c6.243-0.843,14.599-1.063,14.599-1.063s-5.354,1.525-14.599,3.827C292.309,142.807,285.74,143.762,285.74,143.762z
			 M345.417,189.861c-12.812,1.53-34.047,1.34-34.047,1.34s17.789-4.208,34.047-6.121c16.257-1.914,35.003-1.787,35.003-1.787
			S358.233,188.33,345.417,189.861z M385.011,206.692c0,0-8.606,6.121-26.593,13.962c-17.979,7.844-47.054,14.156-47.054,14.156
			s23.526-11.479,39.401-17.407C366.647,211.475,385.011,206.692,385.011,206.692z M343.695,166.143
			c-14.534,2.677-32.324,2.869-32.324,2.869s13.395-4.208,24.104-6.121c10.711-1.912,30.024-2.295,30.024-2.295
			S358.233,163.465,343.695,166.143z M324.952,146.582c-11.095,1.581-25.631,3.109-25.631,3.109s9.947-3.251,19.894-5.354
			c9.944-2.104,26.202-1.912,26.202-1.912S336.046,145,324.952,146.582z M289.375,274.784c0,0,32.325-17.598,57.383-30.795
			c25.061-13.198,44.76-23.336,44.76-23.336s-14.982,14.537-42.493,27.927C321.51,261.97,289.375,274.784,289.375,274.784z
			 M299.322,321.843c0,0,27.924-26.203,48.772-45.522c20.851-19.318,43.419-35.578,43.419-35.578s-14.407,18.744-42.493,43.61
			C320.935,309.218,299.322,321.843,299.322,321.843z M360.912,368.317c-13.391,27.354-28.311,52.024-28.311,52.024
			s12.433-30.411,27.353-58.529c14.919-28.116,29.073-48.772,29.073-48.772S374.302,340.969,360.912,368.317z M351.919,346.703
			c-16.832,23.146-29.453,36.729-38.438,42.271c0,0,25.438-30.411,43.228-59.104c17.789-28.688,39.783-55.087,39.783-55.087
			S368.75,323.557,351.919,346.703z M356.51,308.063c-28.69,30.989-40.299,41.894-54.958,52.792c0,0,20.338-22.186,45.199-47.815
			c24.864-25.631,49.729-60.061,49.729-60.061S385.201,277.082,356.51,308.063z M397.952,137.066
			c-3.637,18.554,19.959,36.153,28.373,60.637c8.414,24.481,1.673,53.555,1.673,53.555s1.771-29.836-6.646-50.877
			c-8.416-21.04-33.157-42.847-27.734-62.532c5.207-18.907,19.635-16.271,19.635-16.271S401.383,119.546,397.952,137.066z
			 M443.348,127.506c0,0,5.931,3.062,19.511,3.824c13.579,0.771,14.918,3.443,14.918,3.443c-3.061-2.104-9.181-0.191-17.213-0.573
			C452.529,133.818,443.348,127.506,443.348,127.506z M471.192,141.102c-4.018-0.189-8.609-3.353-8.609-3.353
			s2.973,1.531,9.762,1.913c6.789,0.384,7.46,1.727,7.46,1.727C478.266,140.338,475.207,141.294,471.192,141.102z M481.225,148.262
			c-2.021-0.101-4.322-1.686-4.322-1.686s1.49,0.771,4.896,0.96c3.401,0.19,3.743,0.863,3.743,0.863
			C484.776,147.877,483.24,148.358,481.225,148.262z M423.264,105.509c-31.751-6.504-97.935-12.618-149.956-9.942
			c-52.025,2.677-86.838,14.538-98.313,17.979c-11.477,3.442-17.598,9.187-21.424,7.65c-3.824-1.529-12.24,0-12.24,0
			c91.044-29.84,148.861-33.774,225.319-27.927c76.456,5.847,124.327,28.181,124.327,28.181
			C467.097,116.723,455.017,112.012,423.264,105.509z M500.539,139.572c-5.354-2.216-4.305-8.91-3.922-10.439
			c0.388-1.525-3.923-4.688-3.923-4.688c2.106,0.575,7.845,2.488,7.845,2.488c-1.723,2.771-3.351,8.091,2.013,10.818
			c5.354,2.731,10.229-2.312,10.229-2.312c0.382-0.096,1.438,0.766,1.438,0.766C511.926,140.511,505.199,141.5,500.539,139.572z
			 M515.936,149.118c-1.913,0.191-1.147-1.624-1.147-1.624c1.626-1.052,5.451-1.913,8.896-1.437c3.443,0.479,3.921,3.07,3.921,3.07
			C525.787,148.478,517.849,148.928,515.936,149.118z M531.239,147.494c0,0-1.813-3.253-6.021-3.826
			c-4.207-0.57-11.858,0.956-11.858,0.956s0.86-1.496,3.442-3.23c2.583-1.739,4.017-4.608,4.017-4.608s7.459,3.253,9.469,6.026
			C532.292,145.581,532.097,146.635,531.239,147.494z"/>
		<path fill="#FFFFFF" d="M509.193,131.785c0,0-1.218,2.94-2.365,3.521c0,0,2.868-0.723,4.16-2.368
			C510.988,132.933,510.344,132.287,509.193,131.785z"/>
	</g>
</g>
<g>
	<path fill="#BDC2BC" d="M534.992,588.913c-0.739,0-1.34-0.602-1.34-1.341v-16.588c0-0.739,0.601-1.339,1.34-1.339h52.497
		c0.738,0,1.339,0.6,1.339,1.339v16.588c0,0.739-0.601,1.341-1.339,1.341H534.992z"/>
	<g>
		<path d="M558.027,571.51c-2.725,0-4.935,2.21-4.935,4.934c0,2.729,2.21,4.938,4.935,4.938c2.728,0,4.938-2.21,4.938-4.938
			C562.964,573.719,560.755,571.51,558.027,571.51z"/>
		<path fill="#FFFFFF" d="M558.027,580.461c-2.219,0-4.015-1.798-4.015-4.019c0-2.217,1.797-4.014,4.015-4.014
			c2.219,0,4.019,1.798,4.019,4.014C562.046,578.664,560.246,580.461,558.027,580.461z"/>
		<g>
			<path d="M559.402,575.293c0-0.219-0.182-0.398-0.398-0.398h-1.952c-0.221,0-0.401,0.181-0.401,0.398v1.985h0.528v2.338h1.694
				v-2.338h0.527L559.402,575.293L559.402,575.293z"/>
			<path d="M558.695,573.942c0,0.37-0.3,0.668-0.667,0.668c-0.371,0-0.67-0.299-0.67-0.668s0.301-0.67,0.67-0.67
				C558.395,573.272,558.695,573.571,558.695,573.942z"/>
		</g>
	</g>
	<path d="M587.175,569.198h-51.868c-1.157,0-2.102,0.943-2.102,2.102v15.96c0,1.158,0.943,2.1,2.102,2.1h51.868
		c1.158,0,2.102-0.94,2.102-2.1V571.3C589.275,570.141,588.332,569.198,587.175,569.198z M588.644,583.375h-37.865
		c-1.477,2.809-4.417,4.725-7.81,4.725s-6.333-1.916-7.809-4.725h-1.326V571.3c0-0.812,0.658-1.471,1.47-1.471h51.869
		c0.811,0,1.471,0.658,1.471,1.471V583.375L588.644,583.375z"/>
	<g>
		<path fill="#FFFFFF" d="M557.773,584.933c0.1,0.14,0.15,0.302,0.15,0.495c0,0.198-0.052,0.357-0.151,0.479
			c-0.057,0.066-0.14,0.131-0.25,0.187c0.168,0.061,0.294,0.155,0.378,0.289c0.085,0.13,0.127,0.289,0.127,0.477
			c0,0.192-0.049,0.365-0.145,0.519c-0.062,0.104-0.14,0.188-0.23,0.256c-0.104,0.078-0.225,0.137-0.369,0.164
			c-0.141,0.028-0.294,0.043-0.459,0.043h-1.466v-3.256h1.573C557.326,584.594,557.607,584.706,557.773,584.933z M556.009,585.151
			v0.717h0.79c0.143,0,0.257-0.026,0.345-0.08s0.133-0.147,0.133-0.286c0-0.15-0.059-0.248-0.176-0.301
			c-0.1-0.033-0.228-0.05-0.383-0.05H556.009L556.009,585.151z M556.009,586.407v0.869h0.789c0.143,0,0.25-0.02,0.328-0.058
			c0.145-0.071,0.217-0.206,0.217-0.407c0-0.17-0.07-0.285-0.208-0.35c-0.077-0.034-0.188-0.056-0.327-0.056L556.009,586.407
			L556.009,586.407z"/>
		<path fill="#FFFFFF" d="M560.469,584.586h0.771l-1.089,2.034v1.222h-0.68v-1.222l-1.127-2.034h0.8l0.677,1.418L560.469,584.586z"
			/>
	</g>
	<g>
		<g>
			<path fill="#FFFFFF" d="M566.517,584.426h0.776l1.403,2.473v-2.473h0.692v3.545h-0.742l-1.443-2.517v2.517h-0.688
				L566.517,584.426L566.517,584.426z"/>
			<path fill="#FFFFFF" d="M570.425,584.797c0.285-0.292,0.647-0.437,1.09-0.437c0.591,0,1.02,0.195,1.295,0.587
				c0.148,0.221,0.229,0.439,0.242,0.661h-0.741c-0.048-0.17-0.106-0.299-0.183-0.384c-0.132-0.153-0.328-0.229-0.586-0.229
				c-0.265,0-0.473,0.107-0.623,0.324c-0.152,0.219-0.229,0.525-0.229,0.923c0,0.399,0.08,0.696,0.241,0.895
				c0.161,0.197,0.365,0.299,0.614,0.299c0.252,0,0.447-0.086,0.581-0.256c0.072-0.09,0.136-0.229,0.183-0.41h0.736
				c-0.066,0.387-0.226,0.699-0.486,0.943c-0.262,0.241-0.594,0.36-1.002,0.36c-0.505,0-0.901-0.163-1.19-0.489
				c-0.288-0.328-0.434-0.777-0.434-1.353C569.93,585.607,570.095,585.133,570.425,584.797z"/>
		</g>
	</g>
	<g>
		<path fill="#FFFFFF" d="M578.517,586.944c0.022,0.173,0.073,0.303,0.145,0.389c0.132,0.154,0.354,0.233,0.673,0.233
			c0.19,0,0.347-0.021,0.465-0.062c0.225-0.078,0.338-0.226,0.338-0.438c0-0.125-0.055-0.223-0.166-0.291
			c-0.113-0.066-0.285-0.126-0.525-0.178l-0.411-0.088c-0.401-0.093-0.679-0.188-0.829-0.294c-0.254-0.173-0.383-0.448-0.383-0.819
			c0-0.339,0.126-0.619,0.376-0.846c0.249-0.224,0.617-0.336,1.102-0.336c0.401,0,0.748,0.104,1.033,0.315
			c0.284,0.213,0.436,0.521,0.45,0.922h-0.762c-0.014-0.227-0.117-0.387-0.306-0.484c-0.126-0.065-0.282-0.096-0.473-0.096
			c-0.209,0-0.375,0.041-0.499,0.122c-0.126,0.083-0.188,0.196-0.188,0.346c0,0.135,0.062,0.236,0.186,0.303
			c0.079,0.043,0.246,0.096,0.502,0.155l0.665,0.156c0.292,0.068,0.513,0.162,0.655,0.276c0.227,0.179,0.339,0.435,0.339,0.771
			c0,0.351-0.134,0.637-0.4,0.863c-0.269,0.229-0.646,0.344-1.134,0.344c-0.5,0-0.891-0.112-1.176-0.339
			c-0.287-0.224-0.432-0.536-0.432-0.929L578.517,586.944L578.517,586.944z"/>
		<path fill="#FFFFFF" d="M582.542,584.325h0.896l1.34,3.791h-0.858l-0.249-0.778h-1.396l-0.255,0.778h-0.828L582.542,584.325z
			 M582.486,586.681h0.972l-0.479-1.49L582.486,586.681z"/>
	</g>
	<g>
		<circle cx="542.95" cy="579.28" r="7.771"/>
		<circle fill="#FFFFFF" cx="542.95" cy="579.278" r="6.322"/>
		<g>
			<path d="M542.597,578.348l-1.188,0.215c-0.041-0.237-0.131-0.416-0.273-0.537c-0.143-0.119-0.325-0.178-0.55-0.178
				c-0.302,0-0.537,0.104-0.72,0.31c-0.18,0.204-0.268,0.555-0.268,1.038c0,0.539,0.09,0.921,0.271,1.146
				c0.183,0.223,0.426,0.332,0.73,0.332c0.229,0,0.417-0.064,0.562-0.195c0.146-0.131,0.249-0.354,0.311-0.67l1.182,0.199
				c-0.123,0.545-0.354,0.954-0.707,1.229c-0.348,0.276-0.813,0.416-1.399,0.416c-0.668,0-1.197-0.21-1.594-0.629
				c-0.396-0.42-0.592-1.004-0.592-1.746c0-0.75,0.198-1.337,0.594-1.754c0.397-0.42,0.936-0.627,1.613-0.627
				c0.555,0,0.995,0.118,1.322,0.355C542.219,577.497,542.453,577.86,542.597,578.348z"/>
			<path d="M547.477,578.348l-1.188,0.215c-0.039-0.237-0.131-0.416-0.272-0.537c-0.144-0.119-0.325-0.178-0.551-0.178
				c-0.301,0-0.539,0.104-0.72,0.31c-0.178,0.204-0.268,0.555-0.268,1.038c0,0.539,0.09,0.921,0.271,1.146
				c0.182,0.223,0.426,0.332,0.729,0.332c0.229,0,0.417-0.064,0.562-0.195c0.146-0.131,0.25-0.354,0.311-0.67l1.183,0.199
				c-0.123,0.545-0.356,0.954-0.708,1.229c-0.349,0.276-0.814,0.416-1.4,0.416c-0.668,0-1.197-0.21-1.593-0.629
				c-0.396-0.42-0.592-1.004-0.592-1.746c0-0.75,0.196-1.337,0.595-1.754c0.396-0.42,0.934-0.627,1.612-0.627
				c0.554,0,0.994,0.118,1.322,0.355C547.1,577.497,547.337,577.86,547.477,578.348z"/>
		</g>
	</g>
	<g>
		<path d="M569.93,571.719c-2.61,0-4.727,2.115-4.727,4.726c0,2.612,2.115,4.729,4.727,4.729s4.728-2.113,4.728-4.729
			C574.658,573.834,572.546,571.719,569.93,571.719z"/>
		<circle fill="#FFFFFF" cx="569.93" cy="576.447" r="3.846"/>
		
			<rect x="569.488" y="571.955" transform="matrix(0.4225 -0.9063 0.9063 0.4225 -193.3242 849.4399)" width="0.924" height="8.958"/>
		<g>
			<path d="M569.58,579.151v-0.637c-0.444-0.013-0.877-0.14-1.129-0.277l0.197-0.776c0.279,0.153,0.672,0.292,1.101,0.292
				c0.382,0,0.646-0.151,0.646-0.409c0-0.252-0.223-0.41-0.709-0.578c-0.711-0.238-1.196-0.568-1.196-1.215
				c0-0.59,0.411-1.047,1.122-1.181v-0.631h0.65v0.584c0.443,0.015,0.742,0.115,0.968,0.222l-0.199,0.748
				c-0.167-0.079-0.478-0.232-0.954-0.232c-0.434,0-0.571,0.193-0.571,0.381c0,0.212,0.231,0.356,0.798,0.564
				c0.796,0.276,1.107,0.643,1.107,1.246c0,0.591-0.411,1.09-1.182,1.221v0.684L569.58,579.151L569.58,579.151z"/>
		</g>
	</g>
	<g>
		<path d="M581.185,571.784c-2.571,0-4.66,2.086-4.66,4.658c0,2.576,2.089,4.665,4.66,4.665c2.576,0,4.665-2.089,4.665-4.665
			C585.852,573.87,583.761,571.784,581.185,571.784z"/>
		<path fill="#FFFFFF" d="M581.185,580.238c-2.092,0-3.789-1.698-3.789-3.794c0-2.091,1.695-3.79,3.789-3.79
			c2.096,0,3.793,1.696,3.793,3.79C584.979,578.538,583.281,580.238,581.185,580.238z"/>
		<path d="M581.185,573.885c-1.016,0-1.874,0.733-2.182,1.746h-0.294l0.933,1.016l0.93-1.016h-0.348
			c0.215-0.37,0.563-0.616,0.96-0.616c0.65,0,1.179,0.646,1.179,1.443c0,0.793-0.526,1.44-1.179,1.44
			c-0.432,0-0.81-0.289-1.016-0.72h-1.196c0.278,1.068,1.167,1.854,2.214,1.854c1.273,0,2.311-1.155,2.311-2.576
			C583.496,575.034,582.464,573.885,581.185,573.885z"/>
	</g>
</g>
<g>
	<path d="M11.392,586.197c-0.652,0-1.248-0.138-1.786-0.41c-0.539-0.271-1.002-0.631-1.39-1.07c-0.388-0.441-0.688-0.949-0.9-1.521
		C7.106,582.619,7,582.032,7,581.432c0-0.626,0.114-1.226,0.338-1.797c0.226-0.574,0.533-1.08,0.927-1.521
		c0.393-0.44,0.857-0.792,1.396-1.053c0.538-0.26,1.119-0.39,1.746-0.39c0.653,0,1.248,0.138,1.786,0.417
		c0.538,0.275,0.999,0.641,1.382,1.09s0.682,0.959,0.893,1.528c0.213,0.567,0.318,1.144,0.318,1.726c0,0.636-0.113,1.24-0.338,1.812
		c-0.225,0.574-0.534,1.079-0.926,1.517c-0.394,0.437-0.856,0.785-1.391,1.045C12.598,586.066,12.018,586.197,11.392,586.197z
		 M7.675,581.432c0,0.539,0.091,1.057,0.271,1.555s0.437,0.939,0.768,1.324c0.33,0.383,0.724,0.69,1.178,0.92
		c0.455,0.229,0.955,0.344,1.502,0.344c0.563,0,1.072-0.117,1.527-0.355c0.454-0.239,0.846-0.555,1.17-0.946
		c0.327-0.392,0.578-0.834,0.755-1.328s0.265-0.997,0.265-1.51c0-0.538-0.092-1.057-0.277-1.555
		c-0.185-0.498-0.442-0.939-0.773-1.323s-0.723-0.691-1.179-0.919c-0.454-0.229-0.949-0.347-1.486-0.347
		c-0.565,0-1.076,0.119-1.536,0.357c-0.458,0.238-0.85,0.554-1.17,0.945c-0.322,0.394-0.571,0.836-0.748,1.33
		C7.762,580.422,7.675,580.923,7.675,581.432z"/>
	<path d="M23.14,578.299c-0.608-0.681-1.469-1.021-2.58-1.021c-0.918,0-1.587,0.175-2.006,0.523
		c-0.417,0.349-0.628,0.817-0.628,1.407c0,0.302,0.054,0.554,0.159,0.755c0.106,0.202,0.271,0.373,0.496,0.51
		c0.226,0.137,0.513,0.256,0.86,0.355c0.35,0.103,0.761,0.2,1.237,0.299c0.512,0.106,0.97,0.223,1.377,0.352
		c0.404,0.127,0.75,0.289,1.038,0.483c0.287,0.193,0.508,0.433,0.662,0.715c0.153,0.281,0.231,0.632,0.231,1.044
		c0,0.414-0.082,0.775-0.245,1.086c-0.163,0.31-0.392,0.565-0.688,0.773c-0.297,0.208-0.648,0.364-1.059,0.471
		c-0.411,0.104-0.867,0.157-1.37,0.157c-1.463,0-2.704-0.467-3.717-1.401l0.356-0.542c0.396,0.415,0.882,0.743,1.457,0.984
		c0.573,0.242,1.217,0.363,1.931,0.363c0.821,0,1.461-0.147,1.925-0.449c0.462-0.301,0.695-0.754,0.695-1.362
		c0-0.309-0.06-0.57-0.178-0.787s-0.303-0.404-0.551-0.562c-0.247-0.158-0.554-0.295-0.919-0.409
		c-0.364-0.115-0.796-0.225-1.29-0.33c-0.503-0.105-0.945-0.219-1.329-0.338c-0.384-0.117-0.708-0.269-0.972-0.449
		c-0.265-0.181-0.463-0.398-0.596-0.654s-0.199-0.578-0.199-0.967c0-0.423,0.082-0.797,0.246-1.124
		c0.163-0.326,0.391-0.603,0.682-0.826c0.291-0.226,0.64-0.395,1.044-0.511c0.406-0.114,0.854-0.17,1.351-0.17
		c0.607,0,1.15,0.09,1.627,0.27c0.477,0.183,0.909,0.459,1.296,0.828L23.14,578.299z"/>
	<path d="M25.734,586.131v-9.395h3.863c0.396,0,0.763,0.085,1.098,0.251c0.335,0.168,0.624,0.392,0.866,0.669
		s0.432,0.591,0.568,0.938c0.138,0.35,0.205,0.698,0.205,1.053c0,0.381-0.063,0.746-0.191,1.098
		c-0.128,0.354-0.31,0.666-0.542,0.939c-0.232,0.272-0.512,0.492-0.833,0.654c-0.323,0.164-0.683,0.245-1.078,0.245h-3.281v3.546
		L25.734,586.131L25.734,586.131z M26.408,581.963h3.241c0.309,0,0.586-0.064,0.833-0.191s0.456-0.3,0.629-0.516
		c0.171-0.218,0.303-0.463,0.396-0.741c0.092-0.276,0.139-0.565,0.139-0.866c0-0.309-0.056-0.602-0.165-0.879
		c-0.11-0.279-0.26-0.523-0.45-0.734c-0.189-0.213-0.41-0.381-0.661-0.504s-0.519-0.186-0.801-0.186h-3.162L26.408,581.963
		L26.408,581.963z"/>
	<path d="M33.963,586.131v-9.395h3.917c0.397,0,0.764,0.085,1.098,0.251c0.335,0.168,0.622,0.392,0.859,0.669
		c0.238,0.277,0.426,0.591,0.563,0.938c0.137,0.35,0.204,0.698,0.204,1.053c0,0.344-0.054,0.676-0.159,0.998
		c-0.105,0.324-0.254,0.611-0.45,0.867c-0.194,0.256-0.427,0.467-0.7,0.635c-0.273,0.169-0.572,0.277-0.899,0.331l2.341,3.651
		h-0.781l-2.274-3.547h-3.043v3.547L33.963,586.131L33.963,586.131z M34.636,581.963h3.295c0.299,0,0.571-0.064,0.819-0.197
		c0.247-0.132,0.458-0.307,0.636-0.522c0.176-0.216,0.311-0.462,0.402-0.741c0.093-0.277,0.141-0.562,0.141-0.853
		c0-0.3-0.056-0.589-0.166-0.866c-0.11-0.276-0.261-0.522-0.45-0.733c-0.189-0.212-0.409-0.382-0.661-0.511
		c-0.252-0.127-0.523-0.192-0.814-0.192h-3.201V581.963z"/>
	<path d="M48.899,585.521v0.608h-6.258v-9.395h6.139v0.61h-5.464v3.688h4.775v0.582h-4.775v3.903h5.583V585.521z"/>
	<path d="M50.421,576.736l3.281,5.199l3.308-5.199h0.742l-3.706,5.849v3.546h-0.674v-3.572l-3.69-5.821L50.421,576.736
		L50.421,576.736z"/>
	<path d="M59.126,586.131v-9.395h3.122c0.741,0,1.392,0.124,1.951,0.371c0.561,0.248,1.025,0.583,1.396,1.007
		c0.371,0.423,0.647,0.919,0.833,1.487c0.185,0.567,0.277,1.175,0.277,1.819c0,0.715-0.104,1.36-0.311,1.938
		s-0.505,1.07-0.894,1.481c-0.388,0.409-0.857,0.729-1.41,0.953c-0.552,0.224-1.167,0.337-1.845,0.337L59.126,586.131
		L59.126,586.131z M66.031,581.421c0-0.592-0.083-1.137-0.251-1.635c-0.167-0.498-0.412-0.93-0.733-1.291
		c-0.322-0.359-0.718-0.644-1.185-0.848c-0.466-0.202-1.005-0.303-1.614-0.303h-2.447v8.177h2.447c0.617,0,1.162-0.104,1.633-0.312
		c0.473-0.206,0.866-0.495,1.185-0.865c0.316-0.37,0.559-0.805,0.722-1.303S66.031,582.003,66.031,581.421z"/>
	<path d="M67.288,586.131l3.996-9.395h0.555l3.997,9.395h-0.728l-1.311-3.097h-4.484l-1.311,3.097H67.288z M71.562,577.557
		l-2.09,4.922h4.141L71.562,577.557z"/>
	<path d="M80.148,576.802h0.661l1.401,3.413l1.403-3.413h0.661l-1.654,3.956l1.971,4.577l3.6-8.601h0.742l-4.023,9.395h-0.62
		l-2.063-4.829l-2.077,4.829h-0.622l-4.008-9.395h0.728l3.612,8.601l1.945-4.577L80.148,576.802z"/>
	<path d="M91.05,578.008v8.123h-0.675v-9.394h0.518l6.588,8.27v-8.255h0.675v9.379h-0.622L91.05,578.008z"/>
	<path d="M100.297,586.131v-1.125h0.583v1.125H100.297z"/>
	<path d="M102.401,581.368c0-0.563,0.098-1.127,0.298-1.688c0.197-0.561,0.486-1.062,0.866-1.502c0.379-0.44,0.844-0.8,1.395-1.077
		c0.552-0.277,1.181-0.418,1.887-0.418c0.838,0,1.552,0.192,2.144,0.576c0.591,0.383,1.027,0.877,1.309,1.475l-0.556,0.318
		c-0.159-0.327-0.351-0.601-0.576-0.82c-0.224-0.221-0.466-0.399-0.727-0.537c-0.261-0.137-0.533-0.234-0.814-0.298
		c-0.281-0.062-0.562-0.092-0.833-0.092c-0.6,0-1.129,0.121-1.589,0.364c-0.458,0.241-0.847,0.558-1.164,0.944
		c-0.316,0.39-0.557,0.826-0.722,1.316c-0.164,0.489-0.245,0.981-0.245,1.475c0,0.558,0.097,1.086,0.291,1.59
		c0.195,0.502,0.459,0.945,0.795,1.328c0.334,0.383,0.731,0.691,1.19,0.919c0.458,0.229,0.951,0.346,1.48,0.346
		c0.282,0,0.571-0.036,0.866-0.106c0.296-0.069,0.583-0.18,0.86-0.329c0.277-0.15,0.536-0.343,0.774-0.576
		c0.238-0.232,0.437-0.51,0.594-0.827l0.569,0.278c-0.159,0.352-0.372,0.665-0.642,0.939c-0.271,0.271-0.57,0.502-0.906,0.688
		c-0.335,0.186-0.689,0.324-1.065,0.416c-0.375,0.092-0.742,0.139-1.104,0.139c-0.644,0-1.233-0.141-1.768-0.423
		c-0.532-0.281-0.994-0.649-1.382-1.104c-0.387-0.455-0.689-0.972-0.905-1.549C102.509,582.555,102.401,581.969,102.401,581.368z"/>
	<path d="M115.882,586.197c-0.652,0-1.247-0.138-1.785-0.41c-0.538-0.271-1.001-0.631-1.39-1.07
		c-0.388-0.441-0.688-0.949-0.898-1.521c-0.212-0.572-0.317-1.16-0.317-1.76c0-0.627,0.112-1.225,0.337-1.798
		c0.224-0.573,0.534-1.081,0.926-1.521c0.394-0.44,0.857-0.792,1.396-1.052c0.539-0.261,1.121-0.391,1.747-0.391
		c0.65,0,1.247,0.139,1.786,0.416c0.538,0.276,0.999,0.643,1.381,1.091c0.384,0.45,0.682,0.959,0.894,1.529
		c0.211,0.566,0.317,1.144,0.317,1.726c0,0.635-0.113,1.239-0.337,1.812c-0.226,0.572-0.534,1.077-0.928,1.514
		c-0.393,0.438-0.854,0.785-1.389,1.046C117.087,586.066,116.509,586.197,115.882,586.197z M112.164,581.432
		c0,0.539,0.09,1.057,0.271,1.555c0.181,0.498,0.436,0.939,0.767,1.324c0.331,0.383,0.724,0.69,1.178,0.92s0.954,0.344,1.501,0.344
		c0.564,0,1.073-0.117,1.527-0.355c0.456-0.239,0.845-0.555,1.171-0.946s0.578-0.834,0.754-1.328
		c0.175-0.494,0.266-0.997,0.266-1.51c0-0.538-0.094-1.057-0.278-1.555c-0.186-0.498-0.443-0.939-0.774-1.323
		s-0.724-0.691-1.178-0.919c-0.455-0.229-0.95-0.347-1.488-0.347c-0.563,0-1.075,0.119-1.534,0.357s-0.851,0.554-1.172,0.945
		c-0.321,0.394-0.57,0.836-0.748,1.33C112.252,580.422,112.164,580.923,112.164,581.432z"/>
	<path d="M130.659,586.131v-8.123l-3.704,6.338h-0.423l-3.705-6.338v8.123h-0.675v-9.394h0.675l3.916,6.722l3.916-6.722h0.675v9.394
		H130.659L130.659,586.131z"/>
</g>
</svg>
