<?xml version="1.0" encoding="utf-8"?>
<!-- Generator: Adobe Illustrator 16.0.0, SVG Export Plug-In . SVG Version: 6.00 Build 0)  -->
<!DOCTYPE svg PUBLIC "-//W3C//DTD SVG 1.1//EN" "http://www.w3.org/Graphics/SVG/1.1/DTD/svg11.dtd">
<svg version="1.1" id="Layer_1" xmlns="http://www.w3.org/2000/svg" xmlns:xlink="http://www.w3.org/1999/xlink" x="0px" y="0px"
	 width="595.275px" height="595.279px" viewBox="0 0 595.275 595.279" enable-background="new 0 0 595.275 595.279"
	 xml:space="preserve">
<metadata><?xpacket begin="﻿" id="W5M0MpCehiHzreSzNTczkc9d"?>
<x:xmpmeta xmlns:x="adobe:ns:meta/" x:xmptk="Adobe XMP Core 5.3-c011 66.145661, 2012/02/06-14:56:27        ">
   <rdf:RDF xmlns:rdf="http://www.w3.org/1999/02/22-rdf-syntax-ns#">
      <rdf:Description rdf:about=""
            xmlns:dc="http://purl.org/dc/elements/1.1/">
         <dc:format>image/svg+xml</dc:format>
         <dc:title>
            <rdf:Alt>
               <rdf:li xml:lang="x-default">NFL Logo Redesigns</rdf:li>
               <rdf:li xml:lang="en_us">NFL Logo Redesigns</rdf:li>
            </rdf:Alt>
         </dc:title>
         <dc:creator>
            <rdf:Seq>
               <rdf:li>Max O'Brien/Osprey Dawn</rdf:li>
            </rdf:Seq>
         </dc:creator>
      </rdf:Description>
      <rdf:Description rdf:about=""
            xmlns:xmp="http://ns.adobe.com/xap/1.0/"
            xmlns:xmpGImg="http://ns.adobe.com/xap/1.0/g/img/">
         <xmp:CreatorTool>Adobe Illustrator CS6 (Macintosh)</xmp:CreatorTool>
         <xmp:ModifyDate>2013-10-06T17:31:26+13:00</xmp:ModifyDate>
         <xmp:MetadataDate>2013-10-06T17:31:26+13:00</xmp:MetadataDate>
         <xmp:CreateDate>2013-10-06T17:31:26+13:00</xmp:CreateDate>
         <xmp:Thumbnails>
            <rdf:Alt>
               <rdf:li rdf:parseType="Resource">
                  <xmpGImg:width>256</xmpGImg:width>
                  <xmpGImg:height>200</xmpGImg:height>
                  <xmpGImg:format>JPEG</xmpGImg:format>
                  <xmpGImg:image>/9j/4AAQSkZJRgABAgEASABIAAD/7QAsUGhvdG9zaG9wIDMuMAA4QklNA+0AAAAAABAASAAAAAEA&#xA;AQBIAAAAAQAB/+4ADkFkb2JlAGTAAAAAAf/bAIQABgQEBAUEBgUFBgkGBQYJCwgGBggLDAoKCwoK&#xA;DBAMDAwMDAwQDA4PEA8ODBMTFBQTExwbGxscHx8fHx8fHx8fHwEHBwcNDA0YEBAYGhURFRofHx8f&#xA;Hx8fHx8fHx8fHx8fHx8fHx8fHx8fHx8fHx8fHx8fHx8fHx8fHx8fHx8fHx8f/8AAEQgAyAEAAwER&#xA;AAIRAQMRAf/EAaIAAAAHAQEBAQEAAAAAAAAAAAQFAwIGAQAHCAkKCwEAAgIDAQEBAQEAAAAAAAAA&#xA;AQACAwQFBgcICQoLEAACAQMDAgQCBgcDBAIGAnMBAgMRBAAFIRIxQVEGE2EicYEUMpGhBxWxQiPB&#xA;UtHhMxZi8CRygvElQzRTkqKyY3PCNUQnk6OzNhdUZHTD0uIIJoMJChgZhJRFRqS0VtNVKBry4/PE&#xA;1OT0ZXWFlaW1xdXl9WZ2hpamtsbW5vY3R1dnd4eXp7fH1+f3OEhYaHiImKi4yNjo+Ck5SVlpeYmZ&#xA;qbnJ2en5KjpKWmp6ipqqusra6voRAAICAQIDBQUEBQYECAMDbQEAAhEDBCESMUEFURNhIgZxgZEy&#xA;obHwFMHR4SNCFVJicvEzJDRDghaSUyWiY7LCB3PSNeJEgxdUkwgJChgZJjZFGidkdFU38qOzwygp&#xA;0+PzhJSktMTU5PRldYWVpbXF1eX1RlZmdoaWprbG1ub2R1dnd4eXp7fH1+f3OEhYaHiImKi4yNjo&#xA;+DlJWWl5iZmpucnZ6fkqOkpaanqKmqq6ytrq+v/aAAwDAQACEQMRAD8A9U4q7FXYq7FXYq7FXYq7&#xA;FXYq7FUFpOtaTq9s1zpl3HdxI7RyGNqlJENGjkX7SOp2ZWAI74SCEA2jcCUPqOo2Om2FxqF/OttZ&#xA;WkbTXM8hoqRoOTMfkMIFqSrRyRyRrJGweNwGR1NQQdwQR1BwKuxV2KuxV2KuxV2KuxV2KuxV2Kux&#xA;V2KuxV2KuxV2KuxV2KuxV2KuxV2KuxV2KuxV2KuxV2KvAvz3/LnzTpGoS/mT+XlzcWOqKoOvWlmS&#xA;vrIg/wB6PTHwycafvEKmv2v5q5OKYPpk05IkbhiXkL/nLDztNNFpur6AvmG4Ior6eDDduAKlvRVZ&#xA;EkPchFXbJz046GmMcxTr80v+cg/I3mb8vdc8um31LSdZvIFWK2vbYKeaSLJxJR3oG4canI48JEgU&#xA;zyAikt/Jb/nIO68u+VbGw862dy/l6JmtNL8xQoZVQxAH6tOFqaop+GnxcafDTfDlw2duaIZKG72z&#xA;Tfzs/KbUUV7fzVp6BhUfWZRan6RcekRlBxSHRtE496d2/njyVckC38wabMSOQEd5A1R47OdsjwHu&#xA;ZcQRkPmDQJ2KwalaysBUhJ42IH0NgorYVhqmmE0F3DX/AIyJ/XGk2icCuxV2KuxV2KuxV2KuxV2K&#xA;uxV2KuxV2KuxV2KuxV2KuxV2KuxV2KuxV2KuxV2KvkD8/tI/JQajc6j5a1r6h5pjmb63pVrBK1u8&#xA;yNRiWCqtvIGG9Cf9XvmbhM+o2cbII9GLeWf+cifPulW8djqpg8yabH9m31WMTuAOwlNX/wCCrk5Y&#xA;AeWzEZC9t/L784tO1jR5Yf8AAsGn6XcmsyRLDHbTtsNo+H7zp1K098xskKPNujO+iOufL35R3Qaa&#xA;b8voU5ghjDGIk3P7PphAPoGR8SXevDHuSmbyX+Q0tFk8lsoB34XVyh/4WZcl4s+9HDHuQsv5af8A&#xA;OP8AKzU8vX9urDb0rqVuO3b1Jm/HD40+9eCKFk/Jn8g7g/CNas6ilFljND4/Esu+Hx5o8OKgP+cf&#xA;vyaLh7HzTq9nKB8DSqjEE1qapBH2264fzEu5fCj3oiH/AJx3tQf9wf5o3Fq3IskbAhq0oPs3MJr7&#xA;0x8fvC+F5oxfyV/5yB01Q+h/mQ10g3jW6uLsIQPBWF0mPiwPMLwS72m1T/nLzywDJc2Vr5ltY+pV&#xA;LeViB4Jbm2nav+qcaxHyW5hW0j/nLWGzvf0d548sXmjXaUEjw1Ygnu1vOIZEH+yY4Dp+4pGbvD2T&#xA;yj+YXkzzfbev5d1aC+KjlJAp4ToP8uF+Mij3K0yiUDHm2CQPJkORZOxV2KuxV2KuxV2KuxV2KuxV&#xA;2KuxV2KuxV2KuxV2KuxV2KvMvzT/ACC8n+fed8QdK8wEUGqW6g+oQKKLiPYSgeNQ3blTbLceYx9z&#xA;XPGC+dNUtPOv5M6ktlqmnaHrVi71gnkt7W5dqf5bp9ZjNKbOKfy5kisnKw07xZpo3/OXlvbxqt15&#xA;djgKgCloqnYdt3i/VlZ0x72YzJxJ/wA5gaKR+70+RT4tGWH4SLkfy0k+MEj1b/nKDTb9SJopWU7G&#xA;NbS3b8ZXY/jhGnKDlDHm/PHyoxJNpfVPhFAB9wlyX5eTHxA2n52+Umaht75B4tHFT8JTg8CS+IEZ&#xA;b/m/5JlpzuJoK/78hc0/4DngOGSfECfaX5t8taqwSw1KCaVvsxcuMh+SPxb8MgYEcwyEgU+tNQvr&#xA;N+dpcSW7daxuy/qORS9F8pebdVuHWC4ni1JKVYJWO6QDqeDBVlA/yKtkSGYLJtf8seW/Mth9T1vT&#xA;rfUrRhVUuIw/Gv7SMfiQ+6kHAJEckkAvn3z/AP8AOLd/pNx/iH8sb+e3vbZvVj0x5ikqEb/6Lc1V&#xA;q+CyH/ZdsyYai9pNMsVbhG/k/wD85I3smpr5R/MZfqeqpJ9Wh1WVPQPqg8fSvEIX03rtzoB/MB1L&#xA;kwdYrDL0L6KzFb3Yq7FXYq7FXYq7FXYq7FXYq7FXYq7FXYq7FXYqxjzj+ZnkbydDz8w6tDaTEckt&#xA;ATJcuO3GGPlJQ/zUp75OMDLkxlIDm8K83/8AOY9GeDyhogIGy32pt17bW8LfSCZPozIjpu8tUs3c&#xA;8Z8z/nV+aHmQsNR8wXSQNX/RbVvqsND+yUg4ch/rVy+OKI6NRmSwlmZmLMSWJqSdyScsYNYq7FXY&#xA;q7FXYq7FVS3guLi4jgto3luJWCQxRgs7Oxoqqo3JJ6UwKzjy/wDmT5p8tXbabrMctzDbuYp7S6DJ&#xA;cwspoVBccgV/lf8ADKpYhLcMxMh7H5Y83aVrMS3uj3Z9WIhmQHhNE3bkvUfMbZiygRzbhK3qWhfm&#xA;lJGiw6xCZaCguYaBj/rIaD6QR8srMWYkn0v5l+V0j5rJLI3++1jIb/huK/jgpPEHiv55aN5O882M&#xA;mr28X6J8yWiAQ3sxRYbpBssNw1aIe0ch2B2Y8dxfhmYmujVkAKdf84vfmzPr+lSeTtblLaxpEfKx&#xA;mk+3NaIQvBq9XhJA91p4E458dGwnFO9nvWY7c7FXYq7FXYq7FXYq7FXYq7FXYq7FXYqwvz/+b/kT&#xA;yLERrd+GvyvKLS7akt03cfACAgNdmkKg9jlkMZlyYymA+ZPzB/5ym88+YTJaaB/zrmmNUBoG5Xjj&#xA;/KuKDh4/uwpH8xzKhpwOe7jyyk8njM889xM888jTTSsXklkJZmY7ksx3JOZDUp4q7FXYq7FXYq7F&#xA;XYq7FXYq90/5xM1PyXY+ctQOuSQwazNAiaFPcEKgJLC4RGbYSOOAXuRyA65j6gGtm7CRaUea7DUb&#xA;f8zNbufzQsXhn1N5BZXUiv8AVCteEfpOmxRYgqqa1WnxUbNX2qNQcUTpjvE7gc/t+7q0ZxN59c2d&#xA;75duIb2w1e2kn5ERvYT83UeLAAUB8D9OZ2l1nj2DCcK/nRpEZ29F8oeefzF1mBfQ0u3vYlb03vnJ&#xA;gUMACedDQnf9lfoyyeOA6uRGRL0u1F2IV+ttG0/VjErKg9hyLE/PMctjV59U+qTfXOH1Qo3r+pTh&#xA;wp8XKvamIV8/+SvMT+VvzAs/MOkiWSx0u89RmRWJazLFZFbw5wlhvmfKNxouPE0bff2geYtD8waZ&#xA;FqeiX0V/YTD4J4GDCvdWHVWHdW3HfNaYkbFzAbTDAl2KuxV2KuxV2KuxV2KuxV2KoDXdf0XQNLm1&#xA;TWbyKw0+3FZbiZuKjwA7sx7KNz2wgE7BBNPlr80v+crtY1RptL8jq2madUq2rSAfW5R0/dLuIVPj&#xA;u/Q/D0zLx6cDcuPPN3Pn64uLi5nkuLmV5p5WLyzSMXdmPUsxqSTmS0qeFXYquRGdgiAszEBVAqST&#xA;0AGKs28v/kl+auvhWsPLd2sTbia6UWkZH8wa4MXIf6tcrOWI6sxAl6Nov/OHXni5Cvq2r2GnI3VI&#xA;vUuZF+Y4xJ9z5UdSOjMYSyy3/wCcRvImnIDr/mq5Y03MQt7Su3YS/WO+QOpPQMvBHei0/JP/AJx4&#xA;sfhlkvtQYdeU0v64lhXI+PNPhxXN+Xn/ADjoihV8rXczAAczdXa19zS6H6sHiz714I9ylJ+X3/OP&#xA;bIVXyndIT0dby6qPlyuSPwx8WfevBHuS27/KT8h7oMEstZsCfsm3uI3ptT/d5k+eEZ5o8OLH9R/5&#xA;x9/LyfkdK80X9l14rfWaXHyBaFovvpkxqD1CDiHexfUP+cd/MKVbS9c0nUU/ZRpZbSQ/MXEcaD/g&#xA;8sGoDE4i3H5E/wCciNMsms7WDUrnTVFDaW11Hf2pGx/uY5Joj1/l/jjx4yjhkEkf8qvzMu5Y49Q0&#xA;ZdKQkt6lzFBZEAkivBFSVlr/ACqckcsR1RwF6Np9z5Z8haBbabf6giyoDI43aSR3NWZY15NxrsMx&#xA;iDM2GwVEJFqX54aLErLp1jPcyD7LSlYk+exkb8Bkxpz1QcgeeeaPP/mHzEDFdyiGyrVbOEFY/blu&#xA;S30nL4YxFrMiWVflj+fvm7yJDHpqRW+peXgWMmmSxpG3x7sUmReXI/5fIe2RyYRL3so5CHrmgWmi&#xA;eZpJvOH5I6qPL/mhAJdX8o3BCWtwAd1aCpRQa0V0+Df9hqnKTY2nuO9sG+8Xpf5b/nBYeaLuby/r&#xA;No2gec7Gq3ui3PwlioqXt2b7a03p1pvuPiyqeOtxuGyM726vRMqZuxV2KuxV2KuxV2KuxVhv5m/m&#xA;r5Z/L7RvruqyetezAiw0yJh607gfTwQftORQe5oDPHjMjsxlMRfE/wCY35o+a/P2q/XdauKW0RP1&#xA;LTYiVt4FP8i13Y/tO25+VANhDGIjZxJTJYhk2LsVeh+R/wAhfzK83hJ7LTTY6c+41HUCbeEg90BB&#xA;kkHuiEZVPNGLOOMl7v5R/wCcQPKFiqzeZ9RuNYuOrW8H+i249jxLSt8w6/LMeWpPRuGEdXrWj+UP&#xA;y/8AJdr6umaZY6RGg4m5CKsrbUoZmrI5+bHKDMnm2CICV6v+aenwlo9Mga6cbCaSscfzA+0fwx4V&#xA;MmHal548y35Ie7aCM/7qt/3Y+8fEfpOGmNpGzs7FnJZjuWJqScKFuKuxV2KuxV2KuxVfFNNDIJIX&#xA;aOQdHQlSPpGKsa/Nf8zdT0vRraJ5vrOqS80spJQGeNNubs3VqbcQ3f6csxY+IsZzp863N1c3Vw9x&#xA;cytNPKeUkshLMxPck5mgU46lhV2KuxVG6NrWq6LqcGqaTdSWWoWzc4LmJuLKf4gjYg7EdcBAPNIN&#xA;PorQfN3lv867C207VZo/Lv5p6YA+ia5D+6Fw8fxKFIPLru0fUfaTuuYpicfLeLcCJe963+Un5i6r&#xA;rbX/AJV82Qiy88eXyE1GEUC3EWwS6iA2o1Ry47bgjZgBTkgBuORbYSvY83o+VM3Yq7FXYq7FXYqw&#xA;X83PzY0X8vPLzXlwVn1e6Vk0nTq7yyAfaelCIkJHI/QNzlmPGZFhOfCHwx5s82a75r1241vXLk3N&#xA;9cncnZEQfZjjXoqL2A/XmwjEAUHEJJSfJIeiflp+Rnnfz66XFnALDROVJNXugViIHX0U+1K3+r8N&#xA;diwyqeURZxxkvqn8vP8AnHz8vvJqRXH1QavrCUY6lfKrlWHeGI1jjp2Iq3+VmHPNKTkRxgPSZ54L&#xA;eJpp5FiiQVeRyFUD3JypsYH5g/NCKMtBosYlbobuUEKP9RNifmfuyQDEyYBqGp6hqM5nvZ3nlPQu&#xA;dh7KOij2GSYIXFXYq7FXYq7FXYq7FXYq7FXYq8F83Nq3nb8wG07Q7eS/n5CzsLeIVLCOvJq9AvLk&#xA;xY7AbnM3GBGO7RLc7Mll/wCcZvPduQl5qeiWc5FWt578JItfEcCPuOR8ceafCKWX3/OPX5oQRGaz&#xA;sINXgUFjJpt1b3BoNtkDiQ/QuSGaK+GWBapo2r6TdG01WxuLC6X7UFzE8Lin+S4U5YCDyYEUg8KH&#xA;YqvhmmgmjngkaKaJg8UqEqyspqrKw3BB6HFX0r5d87S655n/ACh80swPma+a+0bXGUCs8EBWJZJP&#xA;s9pS/wDrVp9nMSUaEh0bxKyC+ocxHIdirsVdirsVdir4E/Pa/wBfu/zW8xLrczSzWt3JBaKdlS0U&#xA;1t1Rew9Jlb3JJ6nNjiA4RTh5CbYLb289xPHb28bSzzMscUSAszOxoqqBuSSaDLWD6n/J3/nFqys4&#xA;4Nc8+xrdXhAkg0KtYYu4+skf3jf5A+Hx5dsPLqOkXIhi730ZFFFDEkUSLHFGoSONAFVVUUAAGwAG&#xA;YrelPmPzTpuhQcrhvUuXFYbVD8be5/lX3OEBBNPJtf8AM+q63NyupOMCmsVsm0a/R3PuckAwJSjC&#xA;h2KuxV2KuxV2KuxV2KuxV2KuxVAa9Z6je6Tc2mn3K2d1MhRbhlL8Q2zUoVoadD2wxIB3QXh+s+V/&#xA;O/ky3neKd47C6AjuLyxkZVZa7RykcXCk/st8JNOppmZGcZNJiQw4kk1O5OWsG0d0cOjFXU1VlNCD&#xA;7EYqyCx/MLzpZw/Vl1aa5su9hfcb21Pzt7oTQn/gcgYBlxFC6hr1pfgmbRrKCZh8VxaCWBq0O4jE&#xA;hgG/WkWECuqLSfJIdir6E/5xM8m3ur+Zn803vJtN8uxPa6aG+z9ZueRfj2+BJGLe7LmNqJUK727D&#xA;Gzb61zCcl2KuxV2KuxV2KvlP/nL7yFJbaxY+dbSOttfKtlqRA+zcRA+i7f68Y4/7D3zM009qcfNH&#xA;q+ftG1S60jV7HVbQgXWn3EV1bk9BJC4kT8VzJIsU0g0/RHyT5w0nzh5ZsfMGluDb3iAvFWrRSjaS&#xA;J/8AKRtvx6HNZOJiaLmxlYtQ84+b4NCthFFSTUZgfRjO4QdOb+3gO+ABSaeQ3l5dXtzJc3UjSzym&#xA;ru3U5NrUMVdirsVdirsVdirsVdirsVdirsVSXV/OnlfSeS32owpKvWFD6kn0onJh9OSjAnkEGQDC&#xA;tW/PHTo+SaVp8lw3QS3DCJfnxXmT94y4ac9WByMck80fmb52WXT9LsJruCYenNa6datKKH+ZqSMP&#xA;+CGWDHGO7DiJZh5O/wCcTvzB1gpNrssPl+0bcrKRcXJHtFG3Ef7KQH2yMtREct2UcJPN7f5V/wCc&#xA;X/yr0NUkvLOXXLtaEzX8hMde9IY+EfH2cNmPLPItwxAM8X8vvISII08taUqAUCCytwAPCnDK+OXe&#xA;z4QlGpfkl+U2ogi48q6elev1aL6r4f8ALOYvDJDLIdWJhHuYnqf/ADij+Ud4T9Xt73Tq9BbXTNTr&#xA;0+sCfJjUSYnDFBH/AJxF/LFNOubeKfUXvJY2W3vZ5kYxSH7L8I44kah6gjp774fzMl8EPQ/ys8kp&#xA;5K8i6X5fohuoIy99LHur3Mp5ytUgEip4ivYDKsk+I2zhGhTLMgydirsVdirsVdiqVea/LOleaPL1&#xA;9oOqx+pY38RikpTkp6rIhNaMjAMvuMlGRBsIIsU/P/8AMHyLrPkjzRdaDqqfvITztrgCiTwMT6cy&#xA;ezU38DUdRmxhMSFhw5Ro0yP8mPzk1X8utYeqteaBen/T9P5U+ICizRE9HXv/ADDY9iI5cXEPNlCf&#xA;C9rOvp5gP6YS4F0l5+8WZTtQ9AB249KdswiK2brtrFXYq7FXYq7FXYq7FXYq7FUn1vzf5c0QEajf&#xA;RxSj/dCnnKf9gtW+/JRgTyQZAPP9a/PHrHoth8p7s/8AMtD/AMb5fHT97WcncxIa3+YfnO/GnWj3&#xA;eo3Ev2bCyRgOPiUiA2Hi2W8MYsLJereSv+cQfNOoLHc+atQi0aBqE2UFLm5p4MwIiT6Gf5ZVLUgc&#xA;myOE9XtvlT/nHb8qfLoR00hdUulpW61M/WWJHf0yBCPojzHlmkW0YwHo1vbW9tAkFtEkEEYpHFGo&#xA;RFHgFWgGVNipirsVdirsVdirsVdirsVdirsVdirsVdirsVYR+bP5VaL+Yfl02F3S31K3q+maiFBe&#xA;GQj7J7mN/wBtfp6gZZjyGJYThxB8NedPJXmHydrs+i67bG3uojWOQVMU0daLLC5A5o3j9BoQRmwj&#xA;ISFhxJRIRHkzzzqnli6rF+/0+VgbmzY7HtyQ/stTv9+RnjEkxlT3ny/5k0jX7EXenTCRdhJEdpI2&#xA;P7Lr2zDlEjm3g2meRS7FXYq7FXYq7FWK+afzI8u+X+ULyfXL8f8AHpAQSp/4sbon6/bLIYjJjKYD&#xA;ynzD+afmnV+UcU36OtDt6NsSrEf5Un2j9FB7ZkxwgNRmSw9mZmLMSWJqSdySctYPbPye/wCcata8&#xA;3Rw615jaTSfLz0eGMCl1dL4oGH7tD/Ow37Cm+Y+XOI7Dm2wxXzfWXlTyX5X8p6aNO8v6dFYWwpz4&#xA;CskhH7UkjVdz7scw5SJ5uSIgck6yKXYq7FXYq7FXYq7FXYq7FXYq7FXYq7FXYq7FXYq7FXYqxvz5&#xA;+XnlbzzozaXr9r6qCptrpKLPA5FOcUlDQ+INVPcHJwmYmwxlEHm+NvzU/Ibzf5CmkujGdU8vV/da&#xA;rAhogPQXEY5GI+/2T2NdszseYS97jTxkMB0jWtT0e9S8064a3nTuvRh/KynZh7HJyiDzYA09j8o/&#xA;m5pOqena6vx0+/NAJCf9HkPsx+x8m298xZ4SOTbGdvQAQwBBqDuCOhGUtjsVdiqyeeC3gknnkWKG&#xA;JS8kjkBVUCpJJxV4z54/Nm8v3ksNBdraw3V7sVWaX/V7ov4/LpmXjw1uWmU+55wSSancnqcva2sV&#xA;e/8A/ONH5JW/mScecPMUAl0S0kKabZSCq3M8Z+KRwesUZ2p0ZtjspBxs+Wtg3YoXuX10AAKDpmE5&#xA;LsVdirsVdirsVdirsVdirsVdirsVdirsVdirsVdirsVdirsVdiq2SOOSNo5FDxuCrowqCDsQQeoO&#xA;KvEPzJ/5xW8peYGkv/LDr5f1Rqs1uqlrKRv+MY3i+ce3+TmRDUEc92qWIHk+ZfPH5VeevJM7Lr2m&#xA;SR2obimoxAy2r16UmX4QT/K1G9sy4ZBLk48oEc0J5b8/+ZPL/GO0uPVswd7Of44/9j+0n+xIwSxi&#xA;SiRD03Q/zn8vXgWPU45NOnNAXoZYa/6yjkPpX6cx5YCOTYMgZrp+s6RqSB7C8hul6/unViPmAaj6&#xA;cqMSObMF5j+dXme4WaHy/buUhKCe8INOZJPBD7CnI/R4ZkYIdWvIejyjMlqdirsVfoz+XsOiQ+Rt&#xA;Bj0Mq2krYwfVGToVKAkn/KJqW71rXNXO7NubHkyDIsnYq7FXYq7FXYq7FXYq7FXYq7FXYq7FXYq7&#xA;FXYq7FXYq7FXYq7FXYq7FVk0MM8TwzRrLDICskbgMrA9QQdiMVeT+df+cYvyz8x857G2bQL9qn1t&#xA;PosJJ/mt2rHT/U45dHPIebXLEC8M82/84n/mRo5eXR2t9ftF+z6DCC44ju0MpC/QkjHMiOoieezS&#xA;cJDyXV9B1/QroQavp91plyD8MdzFJA+3ccwv4ZeCDyayCEDLNNM/OaRpHoBycljQdBU4oWYVdirs&#xA;VepflH+f3mb8vwNOkT9K+XGYsdOkbi8JY1ZreSh416lSCp9iScpyYRL3tkMhD6k8m/n5+WHmpEW2&#xA;1ePT716VsNRItpQx/ZVmPpuf9RzmJLDIORHIC9CVlZQykFSKgjcEHKmbeKuxV2KuxV2KuxV2KuxV&#xA;2KuxV2KuxV2KuxV2KuxV2KuxV2KuxV2KuxV2KuxVRvLKyvbdre8t47m3f7cMyLIh+asCMQVYFrn/&#xA;ADj/APlFrBdp/LsFtK24ksme0ofEJCyR/euWjNIdWBxxLCdT/wCcPPy+nYtYapqdkSfsM8MyD5Ax&#xA;o33scmNTJgcIY9cf84WRmptvNxXb4UksAat7sLgUH0ZP815I8DzQY/5wu1Ou/mqGn/MG/wD1Ww/m&#xA;vJHgeaY2n/OFtir1u/NksyeEVksR+9p5f1ZE6ryT4HmyrRv+cSPytsmV759Q1Vh9pJ5xFGfkIEic&#xA;f8HkDqJMhhD1by15V8veWdNXTdBsY7CyU19KOpqT3ZmLMx+ZymUiebYAByTXAl2KuxV2KuxV2Kux&#xA;V2KuxV2KuxV2KuxV2KuxV2KuxV2KuxV2KuxV2KuxV2KuxV2KuxV2KuxV2KuxV2KuxV2KuxV2KuxV&#xA;2KuxV2KuxV2KuxV2KuxV2KuxV2KuxV2KuxV2KuxV2KuxV2KuxV2KuxV2KuxV2KuxV2KuxV2KuxV2&#xA;KuxV2KuxV2KuxV2KuxV2KuxV2KuxV2KuxV2KuxV2KuxV2KuxV2KuxV2KuxV2KuxV2KuxV2KuxV2K&#xA;uxV2KuxV2KuxV2KuxV2KuxV2KuxV2KuxV2KuxV2KuxV2KuxV2KuxV2KuxV2KuxV2KuxV2KuxV2Ku&#xA;xV2KuxV2KuxV2KuxV2KuxV2KuxV2KuxV2KuxV2KuxV2KuxV2KuxV2KuxV2KuxV2KuxV2KuxV2Kux&#xA;V2KuxV2KuxV2KuxV2KuxV2KuxV2KuxV2KuxV2KuxV2KuxV2KuxV2KuxV2KuxV2KuxV2KuxV2KuxV&#xA;2KuxV2KuxV2KuxV2KuxV2KuxV2KuxV2KuxV2KuxV2KuxV2KuxV2KuxV2KuxV2KuxV2KuxV2KuxV2&#xA;KuxV2KuxV2KuxV2KuxV2KuxV2KuxV2KuxVpmVFLuQqqCWYmgAHUk4qlA85eTyKjXdPp/zFQf814q&#xA;7/GXlD/q+af/ANJUP/NWKtr5w8osQq63YFjsALqGpP8AwWKsQj89ebuVq8ltH9WcW73ZSwuvUjkl&#xA;5erZqkk0StLDxHJ+dfi2iNKYqhV87/mgmiWl/Po0azT28E7RC0f4TKsXJWVLyR0o7uF2LbDkqD4s&#xA;VTT/ABX52azjnS0tuDxSzSXBhkYReg/B0aKOZ+TP6sbJR/srJXcDFVJvO/nFbgenpP1vToPUWfUI&#xA;7aaMTOkrSKIYXk9VeVtAyqaMrSSRkNx2Kqjpnnrz5NaLfXWhgW8EE730KwTpcF4nFHgiLPzX0p4m&#xA;4VLNxkC1YKpVRt1501xJZ1VI4iksEIgaxu5WWNxD612zo6qYo2kkWlB9n7fXFVmnecPPNxMqNoyv&#xA;avfw2yX4jliT6qJUSWdopG9QeqkqvEBUD4uRPD4lWe4q7FXYq7FXYq7FXYq7FXYq7FXYq7FXYq7F&#xA;XYq7FXYq7FXYq7FXYqkvnd1TyZr7sCyrpt2SoFSQIH6Dvir5r/5WF5btfLNl5ik1HR2cmH1Z7eOb&#xA;9MyTfuWlWVjGOSCkwZDJx4040IVVCpLFGbxF0i2vWXUNdgTULJI5kAuIBbJJyuC8zIlFPrKJVZy7&#xA;FXL8RRQ1cX7W+jXetz3s89hpwuNNv5GHxQTxFIjbRRGVnaMNcKnKpBBJp8JxV//Z</xmpGImg:image>
               </rdf:li>
            </rdf:Alt>
         </xmp:Thumbnails>
      </rdf:Description>
      <rdf:Description rdf:about=""
            xmlns:xmpMM="http://ns.adobe.com/xap/1.0/mm/"
            xmlns:stRef="http://ns.adobe.com/xap/1.0/sType/ResourceRef#"
            xmlns:stEvt="http://ns.adobe.com/xap/1.0/sType/ResourceEvent#">
         <xmpMM:OriginalDocumentID>uuid:9E3E5C9A8C81DB118734DB58FDDE4BA7</xmpMM:OriginalDocumentID>
         <xmpMM:DocumentID>xmp.did:FA7F117407206811822A8451A1857300</xmpMM:DocumentID>
         <xmpMM:InstanceID>xmp.iid:FA7F117407206811822A8451A1857300</xmpMM:InstanceID>
         <xmpMM:RenditionClass>proof:pdf</xmpMM:RenditionClass>
         <xmpMM:DerivedFrom rdf:parseType="Resource">
            <stRef:instanceID>xmp.iid:F97F117407206811822A8451A1857300</stRef:instanceID>
            <stRef:documentID>xmp.did:F97F117407206811822A8451A1857300</stRef:documentID>
            <stRef:originalDocumentID>uuid:9E3E5C9A8C81DB118734DB58FDDE4BA7</stRef:originalDocumentID>
            <stRef:renditionClass>proof:pdf</stRef:renditionClass>
         </xmpMM:DerivedFrom>
         <xmpMM:History>
            <rdf:Seq>
               <rdf:li rdf:parseType="Resource">
                  <stEvt:action>saved</stEvt:action>
                  <stEvt:instanceID>xmp.iid:F77F117407206811822A8451A1857300</stEvt:instanceID>
                  <stEvt:when>2013-10-06T17:09:14+13:00</stEvt:when>
                  <stEvt:softwareAgent>Adobe Illustrator CS6 (Macintosh)</stEvt:softwareAgent>
                  <stEvt:changed>/</stEvt:changed>
               </rdf:li>
               <rdf:li rdf:parseType="Resource">
                  <stEvt:action>saved</stEvt:action>
                  <stEvt:instanceID>xmp.iid:FA7F117407206811822A8451A1857300</stEvt:instanceID>
                  <stEvt:when>2013-10-06T17:31:26+13:00</stEvt:when>
                  <stEvt:softwareAgent>Adobe Illustrator CS6 (Macintosh)</stEvt:softwareAgent>
                  <stEvt:changed>/</stEvt:changed>
               </rdf:li>
            </rdf:Seq>
         </xmpMM:History>
      </rdf:Description>
      <rdf:Description rdf:about=""
            xmlns:xmpTPg="http://ns.adobe.com/xap/1.0/t/pg/"
            xmlns:stDim="http://ns.adobe.com/xap/1.0/sType/Dimensions#"
            xmlns:xmpG="http://ns.adobe.com/xap/1.0/g/">
         <xmpTPg:NPages>1</xmpTPg:NPages>
         <xmpTPg:HasVisibleTransparency>False</xmpTPg:HasVisibleTransparency>
         <xmpTPg:HasVisibleOverprint>False</xmpTPg:HasVisibleOverprint>
         <xmpTPg:MaxPageSize rdf:parseType="Resource">
            <stDim:w>209.999929</stDim:w>
            <stDim:h>210.001308</stDim:h>
            <stDim:unit>Millimeters</stDim:unit>
         </xmpTPg:MaxPageSize>
         <xmpTPg:PlateNames>
            <rdf:Seq>
               <rdf:li>Cyan</rdf:li>
               <rdf:li>Magenta</rdf:li>
               <rdf:li>Yellow</rdf:li>
               <rdf:li>Black</rdf:li>
            </rdf:Seq>
         </xmpTPg:PlateNames>
         <xmpTPg:SwatchGroups>
            <rdf:Seq>
               <rdf:li rdf:parseType="Resource">
                  <xmpG:groupName>Default Swatch Group</xmpG:groupName>
                  <xmpG:groupType>0</xmpG:groupType>
               </rdf:li>
            </rdf:Seq>
         </xmpTPg:SwatchGroups>
      </rdf:Description>
      <rdf:Description rdf:about=""
            xmlns:pdf="http://ns.adobe.com/pdf/1.3/">
         <pdf:Producer>Adobe PDF library 10.01</pdf:Producer>
      </rdf:Description>
      <rdf:Description rdf:about=""
            xmlns:xmpRights="http://ns.adobe.com/xap/1.0/rights/">
         <xmpRights:Marked>True</xmpRights:Marked>
         <xmpRights:WebStatement rdf:resource="http://www.ospreydawn.com"/>
         <xmpRights:UsageTerms>
            <rdf:Alt>
               <rdf:li xml:lang="x-default">This work is licensed under a &lt;a rel="license" href="http://creativecommons.org/licenses/by-nc-sa/3.0/"&gt;Creative Commons Attribution-NonCommercial-ShareAlike 3.0 Unported License&lt;/a&gt;.</rdf:li>
               <rdf:li xml:lang="en_us">This work is licensed under a &lt;a rel="license" href="http://creativecommons.org/licenses/by-nc-sa/3.0/"&gt;Creative Commons Attribution-NonCommercial-ShareAlike 3.0 Unported License&lt;/a&gt;.</rdf:li>
               <rdf:li xml:lang="en">This work is licensed under a &lt;a rel="license" href="http://creativecommons.org/licenses/by-nc-sa/3.0/"&gt;Creative Commons Attribution-NonCommercial-ShareAlike 3.0 Unported License&lt;/a&gt;.</rdf:li>
            </rdf:Alt>
         </xmpRights:UsageTerms>
      </rdf:Description>
      <rdf:Description rdf:about=""
            xmlns:cc="http://creativecommons.org/ns#">
         <cc:attributionName>Max O'Brien / Osprey Dawn</cc:attributionName>
         <cc:license rdf:resource="http://creativecommons.org/licenses/by-nc-sa/3.0/"/>
      </rdf:Description>
   </rdf:RDF>
</x:xmpmeta>
                                                                                                    
                                                                                                    
                                                                                                    
                                                                                                    
                                                                                                    
                                                                                                    
                                                                                                    
                                                                                                    
                                                                                                    
                                                                                                    
                                                                                                    
                                                                                                    
                                                                                                    
                                                                                                    
                                                                                                    
                                                                                                    
                                                                                                    
                                                                                                    
                                                                                                    
                                                                                                    
                           
<?xpacket end="w"?>
	</metadata>
<g id="Layer_2">
	<g id="_x37_Wl2mV_1_">
	</g>
</g>
<g id="Layer_1_1_">
	<g>
		<path fill="#FFFFFF" d="M287.658,441.619c-29.374,0-59.77-5.266-90.342-15.646C62.925,380.32,57.007,308.559,56.821,305.527
			l-0.128-2.098l1.048-1.822c0.185-0.32,19.729-32.833,63.887-59.396c40.399-24.296,70.565-34.342,84.952-38.167l9.187-2.438
			l-7.511-5.824c-2.554-1.979-4.473-3.833-5.697-5.502l-7.286-9.889l11.021-1.12l-6.957-7.001c-9.275-9.34-14.938-18.619-15.765-20
			c-0.421-0.938-3.476-8.108-2.757-18.307c4.11,3.154,9.229,6.925,12.334,8.61c5.847,3.401,20.407,10.646,34.146,13.963l4.695,1.14
			l1.013-4.729c0.661-3.088,2.083-6.004,4.229-8.671c0.504-0.514,4.351-4.257,10.866-6.373c-0.096,3.05,0.208,6.491,1.557,9.104
			c0.777,1.9,3.8,8.188,10.949,11.562c5.445,2.562,22.729,3.912,59.659,4.654l0.321,0.007c6.115,0.123,11.396,0.229,15.562,0.396
			l4.353,0.169c28.267,1.073,75.558,2.879,108.851,23.807c23.229,14.604,32.713,36.393,35.709,45.082l0.562,1.645l1.5,0.883
			c9.896,5.812,34.131,21.228,45.5,38.823c8.406,13.01,7.934,26.271-1.461,40.535c-6.146,9.354-10.73,17.936-13.611,23.748
			c-1.371-1.779-3.109-3.974-5.314-6.668c-0.15-0.236-0.312-0.486-0.477-0.743l-1.707-2.575l-3.053,0.545
			c-1.824,0.323-3.584,0.59-5.211,0.776c-0.48,0.062-1.018,0.085-1.613,0.085c-3.076,0-8.561-0.776-17.236-2.058
			c-10.271-1.507-23.023-3.378-30.711-3.378c-1.484,0-2.709,0.074-3.543,0.212c-8.566,1.427-23.707,7.233-31.845,10.354
			c-2.188,0.842-4.045,1.551-5.414,2.051c-1.168,0.424-2.932,0.86-6.487,1.737c-54.726,13.472-88,32.909-98.912,57.789
			c-0.729,1.646-0.685,3.137,0.146,4.816c1.604,3.258,8.504,11.617,37.964,18.938l0.234,0.062l0.242,0.033
			c0.367,0.052,9.121,1.267,21.66,1.267c3.231,0,6.41-0.078,9.514-0.231c-10.069,4.604-21.275,9.299-30.604,12.146l-0.125,0.038
			l-0.132,0.047c-0.213,0.077-22.444,8.053-57.263,8.053L287.658,441.619L287.658,441.619z"/>
		<path fill="#939B9F" d="M287.662,430.706c-28.186-0.002-57.396-5.065-86.835-15.063c-66.84-22.705-99.537-51.902-115.198-72.397
			c-14.036-18.368-17.146-33.138-17.771-37.263c3.621-5.748,22.367-33.521,59.396-55.785c33.892-20.379,63.368-30.605,82.137-35.596
			l30.475-8.104l-22.404-17.385l12.708-1.292l-23.087-23.234c-1.77-1.777-3.396-3.562-4.864-5.271
			c6.769,2.979,14.699,5.958,22.521,7.848l15.586,3.769l2.842-13.271c2.62,3.706,6.693,7.922,12.782,10.798
			c6.354,2.989,18.438,4.779,64.101,5.699l0.168,0.003c6.123,0.124,11.412,0.229,15.505,0.396l4.366,0.171
			c27.183,1.031,72.644,2.768,103.463,22.141c20.296,12.756,28.581,31.805,31.196,39.397l1.885,5.453l4.977,2.922
			c7.192,4.229,31.476,19.27,41.861,35.341c6.938,10.734,3.797,18.48-2.203,29.965c-1.535,2.937-3.102,5.922-4.336,9.028
			l-1.742-2.624l-10.09,1.801c-1.627,0.29-3.166,0.521-4.572,0.688l0,0c0,0-0.101,0.015-0.344,0.015
			c-2.438,0-8.854-0.943-15.652-1.941c-11.174-1.641-23.811-3.491-32.295-3.491c-2.135,0-3.881,0.114-5.336,0.356
			c-8.906,1.48-22.195,6.419-33.955,10.928c-2.119,0.812-3.914,1.501-5.238,1.982c-0.666,0.238-2.948,0.802-5.366,1.396
			c-59.009,14.522-93.774,35.46-106.3,64.007c-1.405,3.197-2.491,8.241,0.354,14.021c4.007,8.163,14.544,15.121,31.388,20.753
			C318.562,428.745,304.884,430.706,287.662,430.706L287.662,430.706z"/>
		<path fill="#FFFFFF" d="M113.789,345.056c0,0,11.258-24.688,61.424-53.659c73.157-42.256,127.562-37.688,142.229-37.688
			c12.176,0,64.078,3.577,81.254,13.121c0,0-0.795-1.909-3.655-6.999c0,0,6.883-1.021,11.563-5.879l-30.976-3.979l-64.262-4.602
			l-74.354,1.271l-74.202,22.413L99.776,292.56L88.044,304.9l-5.51,11.021L113.789,345.056z"/>
		<path fill="#FFFFFF" d="M394.398,193.346c-18.815-8.363-74.019-13.149-116.219-12.938c-42.203,0.213-61.931-14.103-61.931-14.103
			l-1.692-4.14l30.963,6.148l-2.12-9.331l12.937,8.06l24.182,4.03l48.562,2.119l41.991,2.333l40.509,7.847l30.963,14.209
			l24.604,25.237l3.182,9.756l-5.621-6.146c-10.068-10.604-10.709-11.665-26.396-7.64c-15.695,4.028-32.449-9.967-36.271-13.568
			c-3.812-3.604-12.729-5.519-12.729-5.519c5.51-0.426,16.123,2.333,22.483,8.694C411.791,208.403,407.759,199.283,394.398,193.346z
			"/>
		<path fill="#FFFFFF" d="M227.069,190.165c0,0,28.844,9.332,53.021,4.666c24.181-4.666,20.359-2.971,20.359-2.971
			s-17.812-3.816-29.267-4.028S244.208,192.351,227.069,190.165z"/>
		<path fill="#021836" d="M63.817,304.899c0,0,4.253,69.565,135.753,114.233c85.681,29.104,142.869,7.681,142.869,7.681
			c-38.805-9.644-47.372-23.04-42.838-33.373c20.349-46.392,102.433-60.76,109.43-63.305c7-2.545,27.041-10.815,38.492-12.729
			c11.453-1.903,48.037,5.729,53.443,5.09c5.402-0.637,10.5-1.903,10.5-1.903c2.855,0.637,6.998,7.636,6.998,7.636
			c1.588-16.543,21.633-29.903,8.271-50.581c-13.361-20.677-47.082-38.812-47.082-38.812s-6.371-28.1-34.039-45.485
			c-33.401-20.996-82.086-21.8-109.75-22.905c-19.389-0.778-66.804-0.317-78.256-5.729c-11.453-5.403-14.846-16.329-14.846-16.329
			c-6.574,8.062-0.854,16.758-0.854,16.758c-22.688,0.637-52.384-16.758-52.384-16.758s14.312,24.604,35.947,33.826
			c0,0-4.65,0.605-7.74,1.806c-3.286,1.271-9.543,1.904-9.543,1.904c5.938,8.062,31.229,18.873,31.229,18.873
			s-47.46,6.479-112.174,45.396C84.547,275.875,63.817,304.899,63.817,304.899z M231.351,408.552c0,0-31.49-0.521-77.188-30.646
			c-35.075-23.12-65.119-55.417-57.479-64.317c0,0,30.566-28.104,87.103-46.57c97.172-31.744,155.261-16.62,176.896-12.808
			c21.631,3.817,38.698,7.104,48.03-2.014c6.011-5.87,2.761-8.484,5.729-12.514c0,0,6.361-0.427,10.605-3.817
			c3.006-2.405,5.58-3.423,6.827-3.812c-2.599,0.651-11.215,2.442-19.56-0.221c-9.969-3.182-31.28-21.312-48.245-26.611
			c-16.97-5.307-53.658-5.832-74.972-4.562c-21.314,1.271-48.354,0-62.034-10.498c0,0,10.812,0.642,16.543-1.271
			c5.727-1.908,6.68-5.091,12.406-6.998c0,0-20.683-0.64-39.77-15.587c0,0,24.495,6.357,34.675,5.403c0,0-2.545-4.771-2.227-7.312
			c0,0,6.362,7.954,20.995,8.908c14.635,0.951,100.566,3.723,130.104,10.499c48.081,11.022,63.312,39.127,64.896,42.627
			c0,0-2.227-2.229-7.953-4.771c0,0,8.906,9.229,7.316,14.951s-14.316,14.951-32.129,18.133
			c-17.813,3.187-30.226,11.771-35.947,27.993c-5.729,16.229-9.545,20.995-12.728,23.859c0,0,18.771,1.908,22.271,12.725
			c0,0-88.232,22.755-131.382,45.49C227.069,389.617,231.351,408.552,231.351,408.552z"/>
		<path fill="#FFFFFF" d="M371.652,222.771l4.138,3.659c0,0-6.521,5.726-3.978,10.651c2.545,4.936,18.451,9.861,27.992,9.544
			c0,0-27.037,0.479-35.15-7.948C356.544,230.247,371.652,222.771,371.652,222.771z"/>
		<path fill="#5FB406" d="M385.332,228.021c0,0-6.045,2.545-3.658,6.999c2.39,4.454,12.25,7.477,18.293,3.812l-2.547-2.063
			c0,0-5.416,1.918-8.104-1.113c-2.547-2.862-0.008-4.778-0.008-4.778L385.332,228.021z"/>
		<path fill="#FFFFFF" d="M398.003,301.08c0,0,4.879-4.023,8.694-7.422c3.818-3.393,22.904-2.332,35.418,1.272
			c12.518,3.604,32.236,9.545,36.479,9.969c0,0-15.908-1.697-21.852-4.03c-5.938-2.333-31.389-5.726-41.773-4.453
			C404.578,297.688,398.003,301.08,398.003,301.08z"/>
		<path fill="#FFFFFF" d="M476.896,242.76c0,0,26.723,16.325,40.719,31.812c13.998,15.482,5.729,21.845,4.666,27.357
			c0,0,2.332-12.305-5.514-20.146c-7.848-7.849-34.146-31.389-50.898-35.843C465.868,245.94,469.685,242.336,476.896,242.76z"/>
	</g>
</g>
<g>
	<path fill="#BDC2BC" d="M534.992,588.913c-0.737,0-1.339-0.602-1.339-1.341v-16.588c0-0.739,0.602-1.339,1.339-1.339h52.498
		c0.738,0,1.339,0.6,1.339,1.339v16.588c0,0.739-0.601,1.341-1.339,1.341H534.992z"/>
	<g>
		<path d="M558.027,571.51c-2.725,0-4.935,2.21-4.935,4.934c0,2.729,2.21,4.938,4.935,4.938c2.729,0,4.938-2.21,4.938-4.938
			C562.966,573.719,560.757,571.51,558.027,571.51z"/>
		<path fill="#FFFFFF" d="M558.027,580.462c-2.219,0-4.015-1.799-4.015-4.02c0-2.217,1.797-4.014,4.015-4.014
			c2.219,0,4.019,1.798,4.019,4.014C562.046,578.664,560.246,580.462,558.027,580.462z"/>
		<g>
			<path d="M559.403,575.294c0-0.22-0.182-0.398-0.398-0.398h-1.951c-0.22,0-0.4,0.181-0.4,0.398v1.984h0.527v2.338h1.693v-2.338
				h0.527L559.403,575.294L559.403,575.294z"/>
			<path d="M558.696,573.942c0,0.37-0.3,0.668-0.668,0.668c-0.37,0-0.67-0.299-0.67-0.668s0.301-0.67,0.67-0.67
				C558.396,573.272,558.696,573.571,558.696,573.942z"/>
		</g>
	</g>
	<path d="M587.177,569.198h-51.868c-1.158,0-2.103,0.943-2.103,2.103v15.96c0,1.158,0.942,2.1,2.103,2.1h51.868
		c1.156,0,2.101-0.939,2.101-2.1v-15.96C589.275,570.141,588.333,569.198,587.177,569.198z M588.645,583.375H550.78
		c-1.477,2.81-4.417,4.726-7.809,4.726c-3.395,0-6.333-1.916-7.811-4.726h-1.326v-12.074c0-0.812,0.658-1.472,1.472-1.472h51.868
		c0.811,0,1.471,0.658,1.471,1.472V583.375L588.645,583.375z"/>
	<g>
		<path fill="#FFFFFF" d="M557.773,584.932c0.101,0.14,0.15,0.303,0.15,0.496c0,0.198-0.05,0.356-0.151,0.479
			c-0.057,0.066-0.139,0.13-0.249,0.188c0.167,0.061,0.292,0.155,0.377,0.288c0.085,0.13,0.127,0.289,0.127,0.478
			c0,0.191-0.048,0.365-0.146,0.52c-0.062,0.102-0.14,0.188-0.23,0.256c-0.104,0.079-0.225,0.136-0.367,0.164
			c-0.142,0.027-0.295,0.043-0.459,0.043h-1.467v-3.256h1.572C557.327,584.594,557.608,584.706,557.773,584.932z M556.01,585.151
			v0.717h0.79c0.144,0,0.258-0.025,0.346-0.08c0.088-0.054,0.132-0.146,0.132-0.286c0-0.149-0.058-0.25-0.175-0.301
			c-0.1-0.033-0.229-0.05-0.383-0.05H556.01L556.01,585.151z M556.01,586.407v0.869h0.79c0.142,0,0.25-0.02,0.326-0.058
			c0.146-0.071,0.218-0.206,0.218-0.407c0-0.17-0.069-0.285-0.208-0.35c-0.077-0.034-0.188-0.057-0.326-0.057L556.01,586.407
			L556.01,586.407z"/>
		<path fill="#FFFFFF" d="M560.469,584.587h0.771l-1.089,2.033v1.223h-0.681v-1.223l-1.127-2.033h0.801l0.676,1.418L560.469,584.587
			z"/>
	</g>
	<g>
		<g>
			<path fill="#FFFFFF" d="M566.518,584.427h0.775l1.404,2.473v-2.473h0.691v3.545h-0.742l-1.442-2.518v2.518h-0.688
				L566.518,584.427L566.518,584.427z"/>
			<path fill="#FFFFFF" d="M570.427,584.798c0.284-0.292,0.646-0.438,1.09-0.438c0.59,0,1.02,0.195,1.294,0.586
				c0.15,0.22,0.229,0.439,0.243,0.661h-0.741c-0.048-0.17-0.107-0.298-0.183-0.384c-0.133-0.154-0.328-0.23-0.587-0.23
				c-0.265,0-0.473,0.108-0.622,0.325c-0.152,0.219-0.229,0.525-0.229,0.923c0,0.398,0.08,0.695,0.24,0.895
				c0.162,0.198,0.365,0.299,0.614,0.299c0.253,0,0.446-0.086,0.581-0.256c0.072-0.09,0.135-0.229,0.184-0.41h0.735
				c-0.065,0.387-0.228,0.7-0.485,0.942c-0.263,0.242-0.595,0.361-1.004,0.361c-0.504,0-0.9-0.164-1.189-0.489
				c-0.288-0.328-0.434-0.777-0.434-1.354C569.93,585.607,570.096,585.134,570.427,584.798z"/>
		</g>
	</g>
	<g>
		<path fill="#FFFFFF" d="M578.517,586.944c0.024,0.173,0.073,0.303,0.146,0.389c0.132,0.154,0.354,0.233,0.674,0.233
			c0.189,0,0.347-0.021,0.465-0.062c0.225-0.077,0.338-0.226,0.338-0.438c0-0.125-0.055-0.223-0.166-0.291
			c-0.111-0.066-0.285-0.126-0.525-0.178l-0.41-0.088c-0.4-0.094-0.68-0.188-0.828-0.293c-0.256-0.175-0.385-0.448-0.385-0.82
			c0-0.338,0.126-0.619,0.375-0.846c0.25-0.225,0.617-0.338,1.103-0.338c0.401,0,0.749,0.106,1.034,0.316
			c0.283,0.213,0.436,0.521,0.447,0.922h-0.762c-0.013-0.227-0.116-0.387-0.305-0.482c-0.125-0.065-0.283-0.097-0.473-0.097
			c-0.209,0-0.375,0.04-0.5,0.122c-0.125,0.083-0.188,0.196-0.188,0.344c0,0.138,0.062,0.238,0.187,0.307
			c0.078,0.043,0.246,0.094,0.503,0.153l0.663,0.157c0.291,0.067,0.514,0.16,0.654,0.275c0.229,0.178,0.34,0.435,0.34,0.771
			c0,0.35-0.135,0.636-0.398,0.861c-0.271,0.229-0.646,0.344-1.136,0.344c-0.498,0-0.892-0.111-1.177-0.338
			c-0.287-0.225-0.43-0.535-0.43-0.93L578.517,586.944L578.517,586.944z"/>
		<path fill="#FFFFFF" d="M582.542,584.325h0.896l1.34,3.79h-0.856l-0.249-0.776h-1.396l-0.254,0.776h-0.828L582.542,584.325z
			 M582.487,586.681h0.971l-0.479-1.49L582.487,586.681z"/>
	</g>
	<g>
		<circle cx="542.95" cy="579.281" r="7.771"/>
		<circle fill="#FFFFFF" cx="542.95" cy="579.278" r="6.322"/>
		<g>
			<path d="M542.597,578.348l-1.188,0.215c-0.04-0.237-0.131-0.416-0.271-0.537c-0.145-0.119-0.326-0.178-0.551-0.178
				c-0.303,0-0.538,0.104-0.72,0.31c-0.18,0.206-0.269,0.556-0.269,1.038c0,0.54,0.091,0.922,0.271,1.146
				c0.184,0.223,0.428,0.334,0.73,0.334c0.229,0,0.417-0.065,0.562-0.195c0.146-0.131,0.25-0.354,0.312-0.672l1.183,0.201
				c-0.123,0.544-0.354,0.953-0.708,1.229c-0.348,0.276-0.812,0.416-1.398,0.416c-0.667,0-1.197-0.211-1.594-0.631
				c-0.396-0.419-0.594-1.002-0.594-1.745c0-0.75,0.199-1.337,0.596-1.755c0.396-0.419,0.936-0.627,1.611-0.627
				c0.557,0,0.995,0.119,1.322,0.357C542.219,577.497,542.454,577.86,542.597,578.348z"/>
			<path d="M547.478,578.348l-1.187,0.215c-0.04-0.237-0.133-0.416-0.273-0.537c-0.143-0.119-0.325-0.178-0.551-0.178
				c-0.302,0-0.539,0.104-0.721,0.31c-0.178,0.206-0.268,0.556-0.268,1.038c0,0.54,0.09,0.922,0.271,1.146
				c0.183,0.223,0.426,0.334,0.729,0.334c0.228,0,0.417-0.065,0.562-0.195c0.146-0.131,0.25-0.354,0.312-0.672l1.183,0.201
				c-0.123,0.544-0.355,0.953-0.707,1.229c-0.35,0.276-0.814,0.416-1.4,0.416c-0.668,0-1.196-0.211-1.592-0.631
				c-0.396-0.419-0.594-1.002-0.594-1.745c0-0.75,0.197-1.337,0.596-1.755c0.396-0.419,0.934-0.627,1.611-0.627
				c0.555,0,0.994,0.119,1.322,0.357C547.1,577.497,547.338,577.86,547.478,578.348z"/>
		</g>
	</g>
	<g>
		<path d="M569.93,571.719c-2.61,0-4.727,2.114-4.727,4.726c0,2.612,2.114,4.729,4.727,4.729c2.613,0,4.729-2.113,4.729-4.729
			C574.659,573.834,572.547,571.719,569.93,571.719z"/>
		<circle fill="#FFFFFF" cx="569.93" cy="576.448" r="3.846"/>
		
			<rect x="569.503" y="571.879" transform="matrix(0.4225 -0.9064 0.9064 0.4225 -193.2292 849.4583)" width="0.922" height="8.958"/>
		<g>
			<path d="M569.581,579.151v-0.637c-0.443-0.013-0.877-0.141-1.129-0.277l0.198-0.775c0.279,0.151,0.671,0.291,1.101,0.291
				c0.381,0,0.646-0.15,0.646-0.409c0-0.251-0.222-0.411-0.709-0.577c-0.711-0.238-1.196-0.57-1.196-1.215
				c0-0.593,0.411-1.047,1.122-1.182v-0.631h0.65v0.583c0.441,0.017,0.742,0.116,0.968,0.223l-0.199,0.746
				c-0.166-0.077-0.478-0.23-0.952-0.23c-0.435,0-0.572,0.193-0.572,0.38c0,0.212,0.231,0.356,0.798,0.564
				c0.796,0.276,1.106,0.643,1.106,1.245c0,0.592-0.41,1.091-1.182,1.223v0.683L569.581,579.151L569.581,579.151z"/>
		</g>
	</g>
	<g>
		<path d="M581.186,571.783c-2.572,0-4.661,2.087-4.661,4.659c0,2.576,2.089,4.665,4.661,4.665c2.575,0,4.664-2.089,4.664-4.665
			C585.852,573.87,583.761,571.783,581.186,571.783z"/>
		<path fill="#FFFFFF" d="M581.186,580.237c-2.092,0-3.79-1.697-3.79-3.793c0-2.092,1.696-3.791,3.79-3.791
			c2.096,0,3.793,1.697,3.793,3.791S583.282,580.237,581.186,580.237z"/>
		<path d="M581.186,573.885c-1.016,0-1.874,0.732-2.182,1.746h-0.293l0.932,1.016l0.93-1.016h-0.348
			c0.214-0.37,0.562-0.616,0.959-0.616c0.649,0,1.18,0.646,1.18,1.442c0,0.794-0.528,1.44-1.18,1.44c-0.43,0-0.81-0.289-1.017-0.72
			h-1.196c0.278,1.068,1.168,1.854,2.215,1.854c1.272,0,2.311-1.155,2.311-2.576C583.497,575.034,582.466,573.885,581.186,573.885z"
			/>
	</g>
</g>
<g>
	<path d="M11.392,587.196c-0.652,0-1.248-0.137-1.786-0.41c-0.539-0.271-1.002-0.631-1.391-1.069
		c-0.388-0.441-0.688-0.948-0.898-1.521C7.106,583.619,7,583.032,7,582.432c0-0.626,0.113-1.227,0.338-1.798
		c0.227-0.573,0.533-1.081,0.928-1.521c0.393-0.439,0.856-0.792,1.396-1.052c0.538-0.261,1.12-0.391,1.746-0.391
		c0.653,0,1.248,0.139,1.786,0.416c0.538,0.276,0.999,0.643,1.382,1.092s0.682,0.959,0.893,1.528
		c0.214,0.566,0.318,1.144,0.318,1.726c0,0.636-0.113,1.24-0.338,1.812c-0.225,0.574-0.534,1.079-0.926,1.518
		c-0.395,0.437-0.856,0.785-1.392,1.045C12.598,587.066,12.018,587.196,11.392,587.196z M7.675,582.432
		c0,0.539,0.092,1.057,0.271,1.555s0.437,0.939,0.768,1.324c0.331,0.383,0.725,0.688,1.179,0.92
		c0.455,0.229,0.955,0.344,1.501,0.344c0.562,0,1.071-0.119,1.526-0.355c0.454-0.238,0.847-0.556,1.171-0.945
		c0.327-0.393,0.578-0.836,0.756-1.33c0.177-0.494,0.265-0.996,0.265-1.509c0-0.538-0.092-1.057-0.277-1.555
		c-0.185-0.497-0.442-0.938-0.773-1.323c-0.331-0.384-0.725-0.69-1.179-0.92c-0.453-0.23-0.948-0.345-1.486-0.345
		c-0.565,0-1.076,0.118-1.535,0.356c-0.458,0.238-0.851,0.554-1.17,0.945c-0.322,0.394-0.571,0.836-0.748,1.33
		C7.762,581.422,7.675,581.924,7.675,582.432z"/>
	<path d="M23.14,579.3c-0.608-0.682-1.47-1.021-2.58-1.021c-0.918,0-1.586,0.175-2.005,0.523c-0.418,0.349-0.63,0.816-0.63,1.407
		c0,0.302,0.055,0.554,0.159,0.755c0.106,0.202,0.271,0.373,0.496,0.51c0.227,0.137,0.514,0.256,0.86,0.355
		c0.349,0.104,0.761,0.2,1.237,0.299c0.512,0.105,0.97,0.223,1.376,0.352c0.403,0.127,0.751,0.289,1.038,0.483
		c0.286,0.192,0.508,0.433,0.661,0.714c0.154,0.28,0.231,0.631,0.231,1.045s-0.082,0.774-0.245,1.086
		c-0.163,0.309-0.393,0.564-0.688,0.771c-0.296,0.208-0.647,0.364-1.059,0.472c-0.411,0.104-0.866,0.157-1.37,0.157
		c-1.464,0-2.704-0.467-3.717-1.4l0.357-0.543c0.396,0.415,0.881,0.744,1.456,0.984c0.572,0.241,1.217,0.363,1.931,0.363
		c0.821,0,1.462-0.147,1.925-0.449c0.462-0.301,0.694-0.755,0.694-1.361c0-0.311-0.061-0.57-0.179-0.787s-0.303-0.404-0.55-0.562
		c-0.247-0.159-0.554-0.295-0.919-0.409c-0.364-0.114-0.796-0.226-1.29-0.33c-0.502-0.104-0.944-0.22-1.329-0.339
		c-0.384-0.116-0.708-0.27-0.972-0.447c-0.265-0.183-0.463-0.399-0.596-0.655c-0.134-0.256-0.199-0.577-0.199-0.966
		c0-0.425,0.081-0.798,0.245-1.125c0.163-0.326,0.391-0.604,0.682-0.826s0.641-0.396,1.044-0.51
		c0.406-0.114,0.855-0.171,1.352-0.171c0.607,0,1.149,0.091,1.627,0.271c0.476,0.182,0.909,0.457,1.296,0.827L23.14,579.3z"/>
	<path d="M25.734,587.132v-9.396h3.863c0.396,0,0.763,0.085,1.098,0.251c0.335,0.168,0.624,0.393,0.866,0.669
		c0.242,0.277,0.432,0.591,0.567,0.938c0.139,0.35,0.205,0.697,0.205,1.053c0,0.38-0.062,0.746-0.19,1.098
		c-0.128,0.354-0.311,0.666-0.543,0.939c-0.233,0.271-0.513,0.492-0.833,0.654c-0.322,0.163-0.684,0.244-1.078,0.244h-3.281v3.547
		L25.734,587.132L25.734,587.132z M26.408,582.964h3.241c0.309,0,0.586-0.064,0.833-0.191s0.456-0.3,0.629-0.516
		c0.171-0.219,0.304-0.463,0.396-0.741c0.094-0.277,0.14-0.565,0.14-0.866c0-0.309-0.057-0.602-0.165-0.879
		c-0.11-0.279-0.26-0.523-0.45-0.734c-0.189-0.213-0.41-0.381-0.661-0.504s-0.519-0.186-0.801-0.186h-3.162L26.408,582.964
		L26.408,582.964z"/>
	<path d="M33.963,587.132v-9.396h3.917c0.396,0,0.765,0.085,1.1,0.251c0.335,0.168,0.622,0.393,0.858,0.669
		c0.238,0.277,0.427,0.591,0.563,0.938c0.137,0.35,0.205,0.697,0.205,1.053c0,0.344-0.053,0.676-0.159,0.998
		c-0.105,0.323-0.255,0.611-0.45,0.867c-0.192,0.256-0.427,0.467-0.701,0.635c-0.272,0.168-0.571,0.277-0.898,0.331l2.341,3.65
		h-0.781l-2.274-3.547h-3.043v3.547L33.963,587.132L33.963,587.132z M34.636,582.964h3.295c0.299,0,0.571-0.064,0.818-0.197
		s0.458-0.308,0.637-0.523c0.176-0.215,0.311-0.463,0.401-0.739c0.093-0.278,0.141-0.562,0.141-0.854
		c0-0.299-0.057-0.588-0.166-0.866c-0.11-0.275-0.262-0.521-0.45-0.732c-0.19-0.213-0.41-0.383-0.661-0.511
		c-0.252-0.128-0.523-0.191-0.814-0.191h-3.202v4.616L34.636,582.964L34.636,582.964z"/>
	<path d="M48.899,586.521v0.608h-6.258v-9.396h6.139v0.608h-5.464v3.689h4.774v0.582h-4.774v3.903h5.583V586.521z"/>
	<path d="M50.421,577.736l3.281,5.199l3.308-5.199h0.741l-3.705,5.85v3.546h-0.674v-3.572l-3.689-5.821L50.421,577.736
		L50.421,577.736z"/>
	<path d="M59.126,587.132v-9.396h3.122c0.741,0,1.393,0.124,1.951,0.371c0.561,0.247,1.025,0.582,1.396,1.006
		c0.369,0.423,0.646,0.919,0.833,1.488c0.185,0.565,0.276,1.175,0.276,1.817c0,0.717-0.104,1.36-0.311,1.938
		s-0.505,1.071-0.895,1.482c-0.388,0.408-0.856,0.727-1.41,0.95c-0.551,0.227-1.167,0.337-1.845,0.337h-3.121v0.005H59.126z
		 M66.031,582.422c0-0.593-0.083-1.138-0.251-1.636c-0.167-0.498-0.413-0.93-0.734-1.291c-0.321-0.358-0.718-0.643-1.185-0.846
		s-1.005-0.305-1.614-0.305H59.8v8.177h2.447c0.617,0,1.162-0.104,1.633-0.312c0.474-0.205,0.866-0.494,1.186-0.864
		c0.315-0.37,0.558-0.806,0.722-1.304C65.951,583.544,66.031,583.004,66.031,582.422z"/>
	<path d="M67.288,587.132l3.996-9.396h0.555l3.996,9.396h-0.728l-1.312-3.098h-4.483l-1.312,3.098H67.288z M71.562,578.557
		l-2.09,4.921h4.141L71.562,578.557z"/>
	<path d="M80.148,577.802h0.661l1.4,3.413l1.403-3.413h0.661l-1.654,3.956l1.971,4.577l3.601-8.602h0.741l-4.022,9.396h-0.621
		l-2.062-4.829l-2.077,4.829h-0.622l-4.009-9.396h0.728l3.612,8.602l1.943-4.577L80.148,577.802z"/>
	<path d="M91.05,579.009v8.123h-0.675v-9.395h0.519l6.588,8.271v-8.255h0.675v9.379h-0.623L91.05,579.009z"/>
	<path d="M100.297,587.132v-1.125h0.582v1.125H100.297z"/>
	<path d="M102.401,582.368c0-0.562,0.1-1.127,0.298-1.688c0.198-0.562,0.486-1.062,0.866-1.502c0.379-0.441,0.844-0.802,1.395-1.078
		c0.554-0.277,1.183-0.417,1.889-0.417c0.838,0,1.552,0.19,2.143,0.575c0.592,0.384,1.027,0.877,1.31,1.475l-0.556,0.318
		c-0.158-0.326-0.351-0.602-0.576-0.82c-0.225-0.221-0.467-0.398-0.727-0.536c-0.261-0.136-0.532-0.234-0.814-0.298
		c-0.279-0.062-0.561-0.092-0.833-0.092c-0.601,0-1.13,0.121-1.589,0.362c-0.457,0.242-0.846,0.56-1.163,0.945
		c-0.315,0.387-0.558,0.826-0.722,1.315c-0.163,0.489-0.244,0.98-0.244,1.477c0,0.558,0.097,1.084,0.291,1.588
		c0.194,0.502,0.459,0.945,0.794,1.329s0.731,0.69,1.19,0.919c0.459,0.229,0.953,0.347,1.479,0.347c0.282,0,0.571-0.036,0.866-0.106
		c0.296-0.07,0.582-0.18,0.86-0.33c0.276-0.15,0.536-0.342,0.772-0.576c0.238-0.23,0.438-0.509,0.598-0.826l0.566,0.277
		c-0.158,0.354-0.372,0.666-0.642,0.939c-0.271,0.271-0.571,0.503-0.906,0.688c-0.335,0.186-0.69,0.324-1.065,0.417
		c-0.375,0.092-0.74,0.139-1.104,0.139c-0.646,0-1.233-0.141-1.767-0.424c-0.534-0.281-0.995-0.648-1.385-1.104
		c-0.388-0.454-0.688-0.972-0.903-1.548C102.508,583.555,102.401,582.969,102.401,582.368z"/>
	<path d="M115.881,587.196c-0.65,0-1.247-0.137-1.783-0.41c-0.538-0.271-1.002-0.631-1.392-1.069
		c-0.388-0.441-0.688-0.948-0.897-1.521c-0.212-0.573-0.317-1.159-0.317-1.76c0-0.626,0.112-1.227,0.337-1.798
		c0.226-0.574,0.534-1.08,0.927-1.521c0.395-0.439,0.857-0.792,1.396-1.053c0.538-0.26,1.12-0.39,1.746-0.39
		c0.65,0,1.248,0.138,1.786,0.417c0.538,0.275,0.999,0.641,1.382,1.09c0.384,0.45,0.682,0.959,0.894,1.529
		c0.212,0.566,0.317,1.144,0.317,1.726c0,0.635-0.113,1.239-0.338,1.812c-0.227,0.572-0.533,1.078-0.926,1.516
		c-0.395,0.438-0.855,0.785-1.391,1.045C117.087,587.066,116.508,587.196,115.881,587.196z M112.164,582.432
		c0,0.539,0.09,1.057,0.271,1.555c0.181,0.498,0.437,0.939,0.767,1.324c0.332,0.383,0.727,0.688,1.178,0.92
		c0.455,0.229,0.955,0.344,1.502,0.344c0.564,0,1.073-0.119,1.527-0.355c0.455-0.238,0.845-0.556,1.172-0.945
		c0.326-0.393,0.577-0.836,0.754-1.33c0.178-0.494,0.267-0.996,0.267-1.509c0-0.538-0.095-1.057-0.278-1.555
		c-0.186-0.497-0.443-0.938-0.773-1.323c-0.332-0.384-0.725-0.69-1.178-0.92c-0.455-0.229-0.95-0.345-1.488-0.345
		c-0.562,0-1.074,0.118-1.533,0.356s-0.852,0.554-1.17,0.945c-0.322,0.394-0.572,0.836-0.748,1.33
		C112.252,581.422,112.164,581.924,112.164,582.432z"/>
	<path d="M130.659,587.132v-8.123l-3.704,6.338h-0.424l-3.704-6.338v8.123h-0.675v-9.395h0.675l3.916,6.722l3.916-6.722h0.675v9.395
		H130.659L130.659,587.132z"/>
</g>
</svg>
