<?xml version="1.0" encoding="utf-8"?>
<!-- Generator: Adobe Illustrator 16.0.0, SVG Export Plug-In . SVG Version: 6.00 Build 0)  -->
<!DOCTYPE svg PUBLIC "-//W3C//DTD SVG 1.1//EN" "http://www.w3.org/Graphics/SVG/1.1/DTD/svg11.dtd">
<svg version="1.1" id="Layer_1" xmlns="http://www.w3.org/2000/svg" xmlns:xlink="http://www.w3.org/1999/xlink" x="0px" y="0px"
	 width="595.275px" height="595.279px" viewBox="0 0 595.275 595.279" enable-background="new 0 0 595.275 595.279"
	 xml:space="preserve">
<metadata><?xpacket begin="﻿" id="W5M0MpCehiHzreSzNTczkc9d"?>
<x:xmpmeta xmlns:x="adobe:ns:meta/" x:xmptk="Adobe XMP Core 5.3-c011 66.145661, 2012/02/06-14:56:27        ">
   <rdf:RDF xmlns:rdf="http://www.w3.org/1999/02/22-rdf-syntax-ns#">
      <rdf:Description rdf:about=""
            xmlns:dc="http://purl.org/dc/elements/1.1/">
         <dc:format>image/svg+xml</dc:format>
         <dc:title>
            <rdf:Alt>
               <rdf:li xml:lang="x-default">NFL Logo Redesigns</rdf:li>
               <rdf:li xml:lang="en_us">NFL Logo Redesigns</rdf:li>
            </rdf:Alt>
         </dc:title>
         <dc:creator>
            <rdf:Seq>
               <rdf:li>Max O'Brien/Osprey Dawn</rdf:li>
            </rdf:Seq>
         </dc:creator>
      </rdf:Description>
      <rdf:Description rdf:about=""
            xmlns:xmp="http://ns.adobe.com/xap/1.0/"
            xmlns:xmpGImg="http://ns.adobe.com/xap/1.0/g/img/">
         <xmp:CreatorTool>Adobe Illustrator CS6 (Macintosh)</xmp:CreatorTool>
         <xmp:ModifyDate>2013-10-06T17:42:39+13:00</xmp:ModifyDate>
         <xmp:MetadataDate>2013-10-06T17:42:39+13:00</xmp:MetadataDate>
         <xmp:CreateDate>2013-10-06T17:42:39+13:00</xmp:CreateDate>
         <xmp:Thumbnails>
            <rdf:Alt>
               <rdf:li rdf:parseType="Resource">
                  <xmpGImg:width>256</xmpGImg:width>
                  <xmpGImg:height>236</xmpGImg:height>
                  <xmpGImg:format>JPEG</xmpGImg:format>
                  <xmpGImg:image>/9j/4AAQSkZJRgABAgEASABIAAD/7QAsUGhvdG9zaG9wIDMuMAA4QklNA+0AAAAAABAASAAAAAEA&#xA;AQBIAAAAAQAB/+4ADkFkb2JlAGTAAAAAAf/bAIQABgQEBAUEBgUFBgkGBQYJCwgGBggLDAoKCwoK&#xA;DBAMDAwMDAwQDA4PEA8ODBMTFBQTExwbGxscHx8fHx8fHx8fHwEHBwcNDA0YEBAYGhURFRofHx8f&#xA;Hx8fHx8fHx8fHx8fHx8fHx8fHx8fHx8fHx8fHx8fHx8fHx8fHx8fHx8fHx8f/8AAEQgA7AEAAwER&#xA;AAIRAQMRAf/EAaIAAAAHAQEBAQEAAAAAAAAAAAQFAwIGAQAHCAkKCwEAAgIDAQEBAQEAAAAAAAAA&#xA;AQACAwQFBgcICQoLEAACAQMDAgQCBgcDBAIGAnMBAgMRBAAFIRIxQVEGE2EicYEUMpGhBxWxQiPB&#xA;UtHhMxZi8CRygvElQzRTkqKyY3PCNUQnk6OzNhdUZHTD0uIIJoMJChgZhJRFRqS0VtNVKBry4/PE&#xA;1OT0ZXWFlaW1xdXl9WZ2hpamtsbW5vY3R1dnd4eXp7fH1+f3OEhYaHiImKi4yNjo+Ck5SVlpeYmZ&#xA;qbnJ2en5KjpKWmp6ipqqusra6voRAAICAQIDBQUEBQYECAMDbQEAAhEDBCESMUEFURNhIgZxgZEy&#xA;obHwFMHR4SNCFVJicvEzJDRDghaSUyWiY7LCB3PSNeJEgxdUkwgJChgZJjZFGidkdFU38qOzwygp&#xA;0+PzhJSktMTU5PRldYWVpbXF1eX1RlZmdoaWprbG1ub2R1dnd4eXp7fH1+f3OEhYaHiImKi4yNjo&#xA;+DlJWWl5iZmpucnZ6fkqOkpaanqKmqq6ytrq+v/aAAwDAQACEQMRAD8A9U4q7FXYq7FXYq7FXYq7&#xA;FXYq7FXYq7FUv8w65Y6DoV/rN+3C00+F55T0JCCoUf5THYe+AlnixmchEcy82/5xy86ah5q8ta3e&#xA;ak/O+GrTysP2VjuESRFX2U8gPYZGBt2HamAY5xA5cL1nJusdirsVdirsVdirsVdirsVdirsVdirs&#xA;VdirsVdirsVdirsVdirsVdirsVdirsVdirsVdirsVdir52/5yy89+jZWPku0f47rjfanQ9IkYiCM&#xA;/wCs4Ln/AFV8cqyHo73sbT2TkPTYJV/zh9q3DV/MekEj/SLeC7Qdx6DtG1P+R61xxtnbcPTGXw/H&#xA;yfT2WvPOxV2KuxV2KuxV2KuxV2KuxV2KuxV2KuxV2KuxV2KuxV2KuxV2KuxV2KuxV2KuxV2Kqb3N&#xA;uk0cDyqs0wYwxFgGcJQtxHU0rvimjzVMUOxV+ff50ebX8wedfMGsB+Uc9y0Fma1HoRfuYqeFY05f&#xA;PKRvJ6fL+40ldar4nmyf/nGfzEum/mdoxduMOqRSWEp95Uqg+maNBjHaSNV+90gl5A/rfbuXPMux&#xA;V2KuxV2KuxV2KuxV2KuxV2KuxV2KuxV2KuxV2KuxV2KuxV2KuxV2KuxV2KuxV2KvnD/nKjzZqWke&#xA;afKJ0u4a2v8ATEnvopU2IaV0jWviCImBHcEg5VkO7vux8IlCfENjs9W/KT80tM8/+XVu04waxaBY&#xA;9VsQfsSEbOld/TkoSvh07ZOMrdbrdIcM6/hPJkfm/U30rynrWpoSr2Nhc3KEdQYoWcU+lcJ5NGCH&#xA;FOI7yH5t6+/wQp4ksfo2/jleN3nbc/TGPvR3k3V7nTru1vrZuN1ptzHc258GjcSIf+CXBk2Ns+yZ&#xA;jJhMD0+4/gv0h0fVLXVtJstUtG5Wt/BHcwN/kSoHX8DlwednAxkYnmEXixdirsVdirsVdirsVdir&#xA;sVdirsVdirsVdirsVdirsVdirsVdirsVdirsVdirsVdir4//AOcs5ZP+VlRVNfT0qAJ7D1Jm/Wcp&#xA;nzel7KNackd5+55V+Xn5g6x5a1y21rSZvSv7baaE19OaIn4o5FBHJG7+B360wEGJZ6fPDV4+Cf1f&#xA;jcPrbW/zR8v+ePyS8zajpjcbyPTpI9Q01j+9t3kXjvt8SdSrjYjwNQLDKw6vHpJYdREHlex73w/r&#xA;/wDfRf6p/Xgxt/bf1x9yho8/pXgUn4ZRxPz7YZjZxuys3Bmo8pbfqfcP/OLfnAax5BfRZ5OV5oEv&#xA;ogHcm2mrJCfobmnyUY4zsz7XwcOXiHKX3vZcm6p2KuxV2KuxV2KuxV2KuxV2KuxV2KuxV2KuxV2K&#xA;uxV2KuxV2KuxV2KuxV2KuxV2Kvk3/nLqwMfnrS7ylEutMWMnxaKeWp6/yyLlOTm9L2MbxSHn+h8w&#xA;K8kMvJTxdDsR4jLebz0ZSxysbEMm0TzLcxeqsFw9rNPE9vOEYqssUg4uh8Qw7HKZQIel0naEMwEZ&#xA;7T/HJLNfX44W8Qw+6n9cljcPtuO8T70AIHFstyvZyp9qAEHLL3p1YwyGMZB/Or7qexfkJ+YyeVPO&#xA;ljqNxJw0u/H1LVa9FjkI/eH/AIxuA3+rXxykeku/yxGq09j6v09z7qVlZQykFSKgjcEHL3l28Vdi&#xA;rsVdirsVdirsVdirsVdirsVdirsVdirsVdirsVdirsVdirsVdirsVdirsVfPf/OX+jmXQ/L2sqNr&#xA;W5mtJCB/y0IJFr8vq5+/K8gd52JP1Sj3i/x83xvqEfp3sy9uRI+Tb/xyUTs63XY+DNIef37ofJOK&#xA;rSXU0sKxSHkENUJ6geGABvyamc4CMjdck00iNJ7CWF9wWNfaoFMrmaLu+y4DJglA9/6Ao6fM9leP&#xA;bTbIxpXsD2P04ZCxbj6HMdPlOKfI/gH4vtD/AJxp/NZNd0RfKWqzf7mdKjpYu53uLRdgKnq8P2T/&#xA;AJND2bGEujHtXR8EuOP0n7/2vcMsdO7FXYq7FXYq7FXYq7FXYq7FXYq7FXYq7FXYq7FXYq7FXYq7&#xA;FXYq7FXYq7FXYq+Q/wA8PPuv23mLzd5G1Fvr2kTXUN1p/qk+paSMsdwDE2/wMrlSh23qKZTM9HqO&#xA;z9PEwhkG0q38+j58123IkScdGHFvmOmSxno4XbWCpCY67IewtFuo5o+kq0aNvwIOGUqcTRaYZoyj&#xA;/ENwhZI5InKSKVZeoOTBcLJjlA8MhRTDQpwk7xHpIKj5r/ZleQbO27GzcMzA/wAX6EZq9j60Xqxj&#xA;97GNx4r/AGZCEqc/tTR+JHjj9UftCL8o+Z9R0zUbW9sbhrbVLFxLazr1qvz6+BB6jDONbhr7P1Yz&#xA;Q8LJz+8frfdv5R/mzpPn/RBIpW3121VRqen9OLdPViBJJiY9PDofeyMrdRrdHLDL+ieRZ7knCdir&#xA;sVdirsVdirsVdirsVdirsVdirsVdirsVdirsVdirsVdirsVdirsVdir40/5yk0+S0/NW6uAtDfWV&#xA;tcptTlxQwV++GmUT5vU9lzP5fbmL/W8SOo2N5btDMfSZh36A+IOHhILUddh1GMwn6SfxzQGnSfV9&#xA;QVSwKt8BZTUGvTf55OQsOs0E/CzgE7HZO7uxgulpIKMPsuOoyqMiHotVo4Zh6ufelbaNeRSB4HVi&#xA;pqp6Hb55Z4gPN0suyc0JcUCDXwTiFpGjBlXg/wC0taiuVF6DFKRiOIVJKtR010k+sW2xrUqOtfEZ&#xA;ZGfQuk1+gMZeJj/HuTfyn5y1XSNUt9Q066ew1a2asNxGaVPQgg7GvQqdjglGtw36XXQzx8PL9X3/&#xA;ALX2D+U3/ORmheaFh0nzEY9J8wGiJITxtblug9Nm/u3P8jHf9knpk4zt1+s7Llj9UPVH7Q9lybqn&#xA;Yq7FXYq7FXYq7FXYq7FXYq7FXYq7FXYq7FXYq7FXYq7FXYq7FXYq7FXzv/zl35YeXTtE8zQpX6q7&#xA;2N2w68Zf3kJPsGVx/ssqyB3vYuWjKHfu+O9QgMN3In7NeS/I75OJsOt1uHw8sh0UWR0ajCh65Jxp&#xA;RMTRZJp12Lm2Vif3i/DIPfx+nMeUaL1+g1PjYwf4hzRWRc12KtEAih6YoItLb3TY5Dy+y/Zx3+eT&#xA;jOnUavs+M9+R71KG/urMiO6UvF0WQbkf1yRiDyaMWsy4PTlHFHve2/lf/wA5I+afLEcNlev+ndBS&#xA;iiCZyLiFfCKU1Ow/Yeo7DjgEiObkZdDh1A48Zo+X6Q+pvIv5m+T/ADvZ+vod6HuEUNcWEtI7mKv8&#xA;8dTUf5Skr75aJAuh1GkyYTUh8ejKcLjOxV2KuxV2KuxV2KuxV2KuxV2KuxV2KuxV2KuxV2KuxV2K&#xA;uxV2KpJ528q2fmvypqXl+7osd/CUSQivpyj4opP9hIobARYbtPmOOYkOj87/ADh5fv8ATr26sr2E&#xA;w6hp0rwXMR6goaN9x3HtlUDRp33aeAZcYyR6fd+xLdNkt7mAQXChjHspPWnscM7BsNOgnjzQ4Mgv&#xA;h+5FR6cbaX1bVjQ/biY7EexyJlfNzIaDwZceI++J6/FHKagHp7HIOyBsN4snYq0QCKHpigi0PLEA&#xA;KEckPjhcXJi7+SBaxMb+rauYn8P2Tk+PvdbLRGJ4sR4ZfYmGkeZNR0u/guY5pNPv4GDW95CxQhh3&#xA;DKajBw9Q3w1v8GcVfX+EvqX8o/8AnJuG+a30TzuyQXT0jt9cFEikJ2AuFFFjP+WPh8QOuSjPvcPW&#xA;dlV6sXLu/U+hVZWUMpBUioI3BBy10beKuxV2KuxV2KuxV2KuxV2KuxV2KuxV2KuxV2KuxV2KuxV2&#xA;KuxV8cf85N6v5M1Hz6W0Sr6lbRmDXbpSPQeaKioq+LxqCrt02A6g5ROrep7LhOOL1/T09z57uXhi&#xA;uy9ox4g1BpsD3A9stAsbuizzhDLxYjt+PsTSw1VJKRyfC/h2PyyqUKd1ou0oz9MtimQIIqOmQduD&#xA;beKXYq7FWiARQ9MUEWhmXixGFw5Ro0sdEdSrgMp6g4gsJwEhRFhDxyyWDAEl7RjTfcp/Zk/q97iQ&#xA;yS0x33xH/Y/sfT//ADjZ+dMizW3knX7j1Leai6FeyNUo1PhtWY/st/uvwPw91oYS6Fr7T0QkPFh8&#xA;f1vprLXQOxV2KuxV2KuxV2KuxV2KuxV2KuxV2KuxV2KuxV2KuxV2KvEf+ciPzm/wzYv5W0GenmC9&#xA;QfW7hOtpbuOx7SyD7P8AKvxbHjlc5Vs7fszQ+IeOX0j7Xxbq+pGVjBE3wA/G38x8PljCPVl2nr+M&#xA;+HD6evn+xC2Wnz3RJX4Yx1c9PoyUpAOHpNDPNy2j3piugQgbysT4gAf1yvxC7aPYkOsijoYZYVA5&#xA;eoB1J6kZAl2WLFKAq+JXwOS7FXYq0SB1OKCVCYgtt2wuPlIJWYtS11V1KsKqdiMWMoiQo8lmkXM9&#xA;pdfVxIySRES20qkqwoaihHQg75OW+7j6CZhI4Zcucfd+P0v0A/J/zufOfkLTtXmYNqCA2upUFP8A&#xA;SYaBmoNhzUq/+yyyJsOk12n8LKY9OnuZpknEdirsVdirsVdirsVdirsVdirsVdirsVdirsVdirsV&#xA;YT+bn5lWfkLyrJqLcZdUuSYdKtGP25qbsw68Ix8TfQO+RlKg5mi0pzTrp1fA/mrzFf399c3V3O1x&#xA;qN67TXdwxqxZzUn6fwyuEb3Lt+0tWMUfChsfuDH7W3a4nSIftHc+A6nLSaDo9NgOWYiOrJ4o0ijW&#xA;NBRVFAMxyXtMeMQiIx5BfgZuxVa6c1K1K+BBoRiwnHiFIaK7aOf6tc0Dn+7kGwcfwOSMeocPHqTG&#xA;fh5Pq6HpL9qLyLntEA7HFBC30o/DFh4cUPdtHbosjbIWCt3pXvhAtxdVKOICR5W1KRGrM32VFSR4&#xA;YhGQiAJPIIG8kMV3bTg/DX8Nq/eDlkRsQ6zVz4MuOY5fj9BfVX/OH+tyep5i0N2rGRBewJXoQWil&#xA;NPf9392OMs+28f0y+D6Uy10DsVdirsVdirsVdirsVdirsVdirsVdirsVdirsVWTzw28Ek87rHDEp&#xA;eWRjRVVRVmJPQAYpAs0Hwd+dv5nTecPNV3q3IjTLatto9uaikKnZiP5pD8bfd2yj6i9RAR0eCz9X&#xA;6XkLuzuXc1ZjUnL3mJzMiSeZZHptoLe2UEfvG+Jz3qe30ZjylZeu0GmGLGAfqO5ReRc52KuxV2Ko&#xA;HV4Fks2b9uP4lP68nA7ut7UwieEnrHdBWetsihLgFgNhIOv05OWPudfpO1zEcOTfzTOPULKQfDMv&#xA;yY8T+NMrMS7fHrsMuUh933rmvLRRVpkp/rA4OEs5arFEWZR+aS6pqQuaRRV9JTWp7nLoRp57tHXj&#xA;N6Y/SPtUptRmkt1hoFVVCk9yBiIb20ZdfOeMQ5ACk586eQvOHlG4tofMNjJbJdRLLZXB+KGWNlDD&#xA;03G1QCOS9R3GTpw5TJ5nk9q/5xe8x6Tov5hzpqt4lnFqNg9pbNKeKPctNC6Jy6KSqNSvfbqRlGM7&#xA;vT9rYpTxChdG/sL7Gy95Z2KuxV2KuxV2KuxV2KuxV2KuxV2KuxV2KuxV2KvD/wDnKT8wTo3lmHyt&#xA;ZScb/XAWuyD8SWSGhH/PVxx+QYZXkPR3HZGm458Z5R+98U6vd+vclFP7uLYe57nDCNBp7U1XiZKH&#xA;0x/BU9NhE15Gp+yDyb5DfDM0GnQYfEzRHTn8mTZjvZOxVazhevXsMWEpANitN9vbFkLbxSlOuwOV&#xA;SYElV+Fh2Fehy3GXRdtYSQJjkNk1/KjSPJus+fdL0rzhcS2uiXrmKS4hkWLjKyn0g7srcUZ6Kx7V&#xA;6jLXnnq3/OQH/ONNh5K0c+afK94z6JGypfWV7KnqxGRgqNA5CeopJpw+0Ou4rRV89YqujjkkkWON&#xA;S8jkKiKCSSTQAAdScBIAsqA9f8m/846a5qdut55guf0RC4rHaKvqXJr05gkLH8tz4gZyuv8AanHj&#xA;PDiHGe/p+122DsqUhczw/e+rZrnyv5k8ur5a832Ed7YNEkTyOKgsi8RIONGifuGQ7e2Q0PtXCZ4c&#xA;0eDzG4+PX72WfsmQFwN+T5m/Nz8jta/L4nV9MkfWfJUpHp3wo01pyNFS447FamiyDbxoaA9QOGce&#xA;KJsFOj7SliPBk+n7Qzz8iP8AnIWSxa18sebbgzaa5EWm6vI3JoK0CRTE9Yuyv+z3+H7JjPoXI1/Z&#xA;wmPEx/Lv9z6jBBFR0y1552KuxV2KuxV2KuxV2KuxV2KuxV2KuxV2KuxV8Cfnj5n1PVvPvmO+vAUm&#xA;t7qSxhiJr6Uds5gRR8uNT/lE5Tzk9QT4GkuPd9/V5Nlzy6Y6GQLw16lDT7xleTk7bsYjxj/V/Un+&#xA;UvULXYKtfuxYTlQU4lJJdvoxa8Yvcq2Le7FVrKrqVYBlOxB6YsZREhR5Mc1KK2iuDHBXb7YJqAfA&#xA;ZkQJI3eR1+LHDJww+Ky41HULmGKG4uZZoYBSCKR2dUHgikkL9GScFD4q+kvyc/LXTPLOkReavMXp&#xA;w6pOgeE3JVEtIn+z9ugWRwdydx9nbevn3bva09RkODFvAd38R/UP29z0Og0kcceOf1fc9atbu0u4&#xA;FuLSaO4gf7EsTB0NPBlJGcvOEompCj5u0jIEWFbIskw0zWZrJZLeRFutPnBS5spQGjdWFGFDUbj7&#xA;++bXsztfLpJbbw6x/V3FxNVo4ZhvtLvfOv54flZZ+Tb+38weXAzeTdYkMYhNSbC7Pxegx/kYVKVP&#xA;iPAn0nT6nHqcYyYzY/Gx83XaLPPT5PCn9J/Hye4f84xfmRN5g8uTeWtSlMmp6Gq/VpGNWksj8KV8&#xA;TC3wfIrmTjlbX2tpeCfGOUvv/a9syx1DsVdirsVdirsVdirsVdirsVdirsVdirsVfEX/ADkv5YfT&#xA;PzM1cBOMGrxx39sfEyLxkP8AyOjfKZbSem0v77ScPWiP1foeEZc8yr2c/oXMcvZT8XyOxwSFhyNJ&#xA;m8PIJdzKAQRUbg9DmM9qDahM1Xp4YXHymzSuoooHhgbwKDeLJ2KtGtNuvbFBYlJz9Ruf26nlXx75&#xA;lB4Sd8RvmtxYsy/LH8v9a836y36PlitYdOMc1xdzp6qKS1Y19Po5YqfhO1Aa5qe1+08elx+sEmdg&#xA;Abe/fo5ej0sssttqe+x/lBBqN5He+cdau/Ms0JrFbygW1op8RBGSPuanjnDntw44mOnhHCD15y/0&#xA;xd6NCJG8kjP7B8kdqH5ejTnbUfJEsehaoDye1Ab9H3IH7E9uvwr7PGAwynF2n4g4NSPEh3/xx90v&#xA;0HZnLS8O+L0y+w+8KKfmB5n09RFr/k3UvXGzTaSqX8Lb05DiyuoPWhFRkz2ZhnvizQr+n6D+pj+a&#xA;nH64S/zd0Un5m6aFVrjRtctA1RWbTLkUP+xV/wAMqPZE+k8Uvdkiz/ODrGY/zShfMPn3yF5g8sav&#xA;5Wv742Z1W2dIYtQgnswl0g520ga4jRKrKq1oem2bnsPDqtLluuLFLaXCRL47E8vucLXTxZYc6mOV&#xA;gj4bvNv+cdfMMul/mb5emWSseoE2NyFrRhcJwAPyl4n5jO3G0m/MfG0fEedX8ub7my55l2KuxV2K&#xA;uxV2KuxV2KuxV2KuxV2KuxV2KvDf+cq/JD6r5UtfMtpHyutDcrdU6m1nIBPv6cgU+wLHK8g2dx2P&#xA;qOGZgeUvvfFWrWpguiwHwS/Evz7jDA2GjtPTeHlJH0y3/Wgsm65PdGvRJF9Xc/HGPg91/synJHq9&#xA;L2Tq+KPhy+qPL3fsRINZAfE5BzRvJFYHMdirsVdirGtTeFr2Rovs/tHsW70zIhyeO7RlCWYmP4KE&#xA;yThPpD/nGW1RfKOqXY/vJdQMTeNIoY2H/J055/7XTPjwj3Qv5k/qeh7Ij+7J83sWco7Z2KsU88/m&#xA;R5e8n26/Xna41CZa2umw7zSdqnsiV/aP0VzZ9ndlZdWfTtEc5Hl+0uNn1Mce3OR5Ac3imvfnF+Ye&#xA;ts6206aFZN9mG1Aebj/lTN8VfdePyzs9L7PaXF9Q8SXny+X67aBi1OXmRjj8yxK6Oq6gGk1PUb3U&#xA;VqPU+sTSSJXcrXkT70zcY8WPH9EYx9wAbI9mQv1ylP3ll35J6DPe/mZ5YsrQFvQ1CK8YntHayfWX&#xA;r/sYyMuBsss8I4NNKI5Uft/tfe+XvJOxV2KuxV2KuxV2KuxV2KuxV2KuxV2KuxVRvbK1vrOeyu4l&#xA;ntLmNobiFxVXjcFWUjwIOKYyINjm+DPzl/LC68neZ7rR5Az2EtbjSLsjZ4WPwgn+ZPsP9/QjKPpL&#xA;1A4dZg/pfcXk0kbxuyOKMpoRl4LzE4GJMTzDo5HjdXQ0ZTUHEhMJmEhIcwm0WoKwil6UbjKvgT0P&#xA;4ZSYu9x64Hhl50f1pvlbvW8UuxVCX8V7LH6duVVT9piSGPsKDJRIHNwdbjzTjw4yAOvf9ySzaZex&#xA;As0fJR1K7/25cJgvO5ezs0BZFjyQmScFkGj+fvOGjaWdL0rVJbKxMjSmOEKp5uAGPMDn0Ud8wc/Z&#xA;mnyz45wEpct/xTfj1OSEeGJoIa683+bLsk3OtX85O/7y5mb9bZZDQ4I/TCA/zQxOfIecj80Tovn7&#xA;zjo14l1Y6vcqyMGMTyvJE/s8bkqw+jK9R2bp8seGUI/Kj82WPU5IGwS3+ndT1zzDeapqMpmurvlJ&#xA;Kx6DccVUdlUbKOwyeLTQw4xCAqMXZ9lZJTzykeZj+kPrj/nH78nvIt55I0zzTq2mjUdVvjMxW8/e&#xA;QRiOeSJOEJAQ1VA1XDe2XwiKte0tdkGQwiaiO73Pdbeys7a3FtbwRw2yighjRVQA9uIAGWOmMiTZ&#xA;Yxo35WeTdF84XHmvSrIWeoXUDW80MVBb1d1dpEjpRHPCh47e1SaxERduTPWZJ4+CRsBluScV2Kux&#xA;V2KuxV2KuxV2KuxV2KuxV2KuxV2KuxVh35qflvpvn3yvLpdxxhv4ay6Zekbwz07034P9lx4b9QMj&#xA;KNuVo9UcM+Icur4L85eUdV0jVbrTNRt2tdWsW9OeBu+1RQ9CCDVWHUZXGVbF3mt0kdRAZMf1ff8A&#xA;tYiQQSCKEdRlzzRFOBIrTv1xUFPtJvxNGIXP71BtX9oZRONPT9ma0ZI8EvqH2hMcg7Z2KuxVZJIF&#xA;HifDFrnOmNXvJrh39MxgnbYj6fpzIjyeP1lnIZcPCEPknFdirsVTvy9bswd1Us7sI0UCpJ8APeuV&#xA;ZC9D2LiqMp/B+jvkby6PLfk7R9D2L2FrHFMw6GXjWVh85CxywCg6TUZfEyGXeU8wtLsVdirsVdir&#xA;sVdirsVdirsVdirsVdirsVdirsVdirsVeb/nJ+Tel+ftL9eDhaeZLRCLG+IoHA39Cem5Qnoeqncd&#xA;wYyjbn6HXHCaO8C+JPN/kvVtI1W407VLV7HVbY8ZYZBQN4EEbMD+yw2OVxkRsXb6rRQ1EfExn1ff&#xA;7/NiMsUkTlJFKsOoOWg285kxygakKLSO8bh0PFl3BGFEJmJsbEJ1aa1E6hbgcH/nH2T/AEymWPue&#xA;i0va8ZCsmx7+iPFwhFV3B6HtldOzGeJFhSLtXYkDwrhajI9GsWLWKqEthaydU4nxXbJCRDiZdFin&#xA;0r3Jbd2EkA5A84/HuPnlkZ26jVaGWLcbxQmTcF6L+UOmx33nHyxZyAencanbCUHun1heQ79VGUy+&#xA;p6bSejRk+Uv0v0Py55l2KuxV2KuxV2KuxV2KuxV2KuxV2KuxV2KuxV2KuxV2KuxV2KsT/MH8sfKv&#xA;nrTha6zb0uYgRaahDRbiEn+ViDVT3Vqj6d8iYguTptXPCbj8nyZ+Zn/OPXnHyr6k7W36Z0VT8GpW&#xA;iEsg8ZohyeL57r/lZWYmLv4anBqhwzFS8/0F4/caFICTA/Ifytsfv6ZIZO9ws/Y0hvjN+RQEtpcx&#xA;f3kbKPGm339MmJAury6bJD6okLI5pYzVHK/I4kWwhllD6TSIXVLsDchvmP6UyPAHLj2jlHcV41e4&#xA;7qh+g/1weGGY7Uydw/HxXjWH7xA/I0x8NsHap6xVF1iP9qMj5EH+mDw22PasesSrJf2ko4lqV2Kt&#xA;t/ZkTEhyYa3FPa/mll7b+hMQPsNuh9stibDpdXg8OdDkeT1P8gXVPzG8pliADeKKnxbkAPpJyv8A&#xA;id3D/Ef80/e++cueadirsVdirsVdirsVdirsVdirsVdirsVdirsVdirsVdirsVdirsVdirBPN/5I&#xA;flt5paSe+0pbW+k3a+sT9XlJPVm4/u3Pu6nImALm4O0M2PYGx3F5Lrv/ADh/KGZ9B8wqUNeEF9CQ&#xA;R4VliJr/AMixkDjdlj7b/nR+TD7v/nFD8zI3oq6bdCv245yBt/xkjjODgLf/ACnppcx9jo/+cTvz&#xA;LZAzDTIyeqNO1R/wMTD8ceAoPaem7vsCp/0Kf+Zn8+mf8j3/AOqWPAU/yrg7j8lkn/OJ/wCZgUsP&#xA;0ZIw6KJ2qf8AgogPxx4Cv8p6c8x9iWXn/OLv5qRfY0W2uv8AjFc2w6/8ZHjx4ZI/OaOXMD/S/sYv&#xA;rP5Gef8ATInkvfK14sabvJBGZlUeJMBkAGNyCfD0WTlw/cwG+0aWND6LMypUmJuo8aYYz73G1fZU&#xA;hG4GwOn6mXflDqC2PnDyxdsaJb6pamQ/5H1heX/CnBL6nI0nq0ZHlL9L9D8ueadirsVdirsVdirs&#xA;VdirsVdirsVdirsVdirsVdirsVdirsVdirsVdirsVdirsVdirsVdirsVdirw7/nJD8pLDV9AuPNu&#xA;kWyxa3pqma/ES0+s2y7yMwHWSMfFy6lQRvtSuceruOy9aYyEJH0nl5F8j2itbTyNEePxiVCOxPh9&#xA;K5US73DiEDIDkTfz/sfpJaTGe1hmIoZUVyB25AHMl4uQoquKHYq7FXYq7FXYq7FXYq7FXYq7FXYq&#xA;7FXYq7FXYq7FXYq7FXYq7FXYq7FXYq7FXYq7FXYq7FVk0MU0LwzIJIpVKSIwqGVhQgj3GKQafClp&#xA;+XN1efmzJ5HtlZlj1OW1aTqRawyEvKf+eK8sx+HensZaoDB4h/m/a+7VVUUKoCqooqjYADoAMyHj&#xA;W8VdirsVdirsVdirsVdirsVdirsVdirsVdirsVdirsVdirsVdirsVdirsVdirsVdirsVdirsVdir&#xA;FvL/AOXeh6N5s1zzTGPV1bXJAXlYACGIKoMUfX7TryY99vDAI725OXUynCMP4YspwuM7FXYq7FXY&#xA;q7FXYq7FXYq7FXYq7FXYq7FXYq7FXYq7FXYq7FXYq7FXYq7FXYq7FXYq7FXYq7FXYq7FXYq7FXYq&#xA;7FXYq7FXYq7FXYq7FWJr+Y+mF7dX0+8hS6W3lhmm+rRxGG7JEMrSNOEXmUaiMRJt9jFUsg/OnyxL&#xA;YQ3wtbtYZ40liXlZs7LIkbgKqXLlmAmHNVqUoSwA3xVNZfzD0+L01fTr715kMsEAWEs8aFlkcMJe&#xA;AEbBVbkwoXT+bFVk/wCZvl+21CPTbuK4t79ld5rdxEWiVJjGWfjIwI4JJNVC37tGJ+IBSqoWf5se&#xA;WroW7+jdxQ3EbOZ3SP0omWQxCKWRJHVXZ+AG9PjTf4hiqZS+dLZfUaLTryeGOWC39aP6uFae5ETR&#xA;xAPMjV/frViOI3+LFUHB+Z/l2W8+ovFdQ3xvI9OW2kjTkZ3k9KTiyOyMsDf3rBqDaleS1VZdirsV&#xA;dirsVdirsVdirsVdirsVdirsVdirsVdirsVdirsVdirsVdiqV+arqa08saxdwSGGe3srmWKUUqjp&#xA;EzK2+2xFcVeIw6/q66ZbatPceYYoZjDJJPPcXC6YIrj0fgSeobkPWKqzTEM6kECtECGKXHnnzp+j&#xA;Lx7bWrs3MboP3t5KpCcASYQs7VJmLxsOMgRFDBn5Yq2fPPnblyuNXureIWjuhW+kIYqp/eTN9YcR&#xA;ygUbgD1oOO+KvfYf+VXUPo/o2nJK8fT+ztw6f7p8P914Uo66/wAC/oe2+s/Uv0T9Wg+qc+HpfVqr&#xA;6HDtwrx40xVf/wA6h+jjz9L6n6U1fV5V9LlH61OfxceXp196Yqhrf/lXf6Nm9H9H/UPVf6z/AHfH&#xA;1eEnq+rX9rh6vPl/l8v2sVbt/wDlXP6LvPq/6M/Rfo3P17h6Poeh6cX1r1KfBw9P0ude3GuKoe5/&#xA;5Vh9Yk+s/o71qj1OfCvq/Dw6/wC7qcOFPjpxptTFUx03/Bf1Vf0f9S+r+qvH0vTp63OGnT9rn6Ne&#xA;/LjXfFU9xV2KuxV2KuxV2KuxV2KuxV2KuxV2KuxV2KuxV2KuxV2KuxV2KuxVAa/+if0FqP6Yp+iP&#xA;qs36R5cqfVvTb1q8Pipwr03xV84XH/Qrn+FofX/TP+HPUPo8v0p6POm/4YqyjTf+VKfp3y/9S/TP&#xA;6V/Rg/w9X65T9HfVE/uuf7un1bhWvxU98VQ93/0L7/hTXfrf1/8Aw1+kp/07X6x6f1714fX+x+8p&#xA;63o19P4elMVf/9k=</xmpGImg:image>
               </rdf:li>
            </rdf:Alt>
         </xmp:Thumbnails>
      </rdf:Description>
      <rdf:Description rdf:about=""
            xmlns:xmpMM="http://ns.adobe.com/xap/1.0/mm/"
            xmlns:stRef="http://ns.adobe.com/xap/1.0/sType/ResourceRef#"
            xmlns:stEvt="http://ns.adobe.com/xap/1.0/sType/ResourceEvent#">
         <xmpMM:OriginalDocumentID>uuid:9E3E5C9A8C81DB118734DB58FDDE4BA7</xmpMM:OriginalDocumentID>
         <xmpMM:DocumentID>xmp.did:FC7F117407206811822A8451A1857300</xmpMM:DocumentID>
         <xmpMM:InstanceID>xmp.iid:FC7F117407206811822A8451A1857300</xmpMM:InstanceID>
         <xmpMM:RenditionClass>proof:pdf</xmpMM:RenditionClass>
         <xmpMM:DerivedFrom rdf:parseType="Resource">
            <stRef:instanceID>xmp.iid:FB7F117407206811822A8451A1857300</stRef:instanceID>
            <stRef:documentID>xmp.did:FB7F117407206811822A8451A1857300</stRef:documentID>
            <stRef:originalDocumentID>uuid:9E3E5C9A8C81DB118734DB58FDDE4BA7</stRef:originalDocumentID>
            <stRef:renditionClass>proof:pdf</stRef:renditionClass>
         </xmpMM:DerivedFrom>
         <xmpMM:History>
            <rdf:Seq>
               <rdf:li rdf:parseType="Resource">
                  <stEvt:action>saved</stEvt:action>
                  <stEvt:instanceID>xmp.iid:F77F117407206811822A8451A1857300</stEvt:instanceID>
                  <stEvt:when>2013-10-06T17:09:14+13:00</stEvt:when>
                  <stEvt:softwareAgent>Adobe Illustrator CS6 (Macintosh)</stEvt:softwareAgent>
                  <stEvt:changed>/</stEvt:changed>
               </rdf:li>
               <rdf:li rdf:parseType="Resource">
                  <stEvt:action>saved</stEvt:action>
                  <stEvt:instanceID>xmp.iid:FC7F117407206811822A8451A1857300</stEvt:instanceID>
                  <stEvt:when>2013-10-06T17:42:39+13:00</stEvt:when>
                  <stEvt:softwareAgent>Adobe Illustrator CS6 (Macintosh)</stEvt:softwareAgent>
                  <stEvt:changed>/</stEvt:changed>
               </rdf:li>
            </rdf:Seq>
         </xmpMM:History>
      </rdf:Description>
      <rdf:Description rdf:about=""
            xmlns:xmpTPg="http://ns.adobe.com/xap/1.0/t/pg/"
            xmlns:stDim="http://ns.adobe.com/xap/1.0/sType/Dimensions#"
            xmlns:xmpG="http://ns.adobe.com/xap/1.0/g/">
         <xmpTPg:NPages>1</xmpTPg:NPages>
         <xmpTPg:HasVisibleTransparency>False</xmpTPg:HasVisibleTransparency>
         <xmpTPg:HasVisibleOverprint>False</xmpTPg:HasVisibleOverprint>
         <xmpTPg:MaxPageSize rdf:parseType="Resource">
            <stDim:w>209.999929</stDim:w>
            <stDim:h>210.001308</stDim:h>
            <stDim:unit>Millimeters</stDim:unit>
         </xmpTPg:MaxPageSize>
         <xmpTPg:PlateNames>
            <rdf:Seq>
               <rdf:li>Cyan</rdf:li>
               <rdf:li>Magenta</rdf:li>
               <rdf:li>Yellow</rdf:li>
               <rdf:li>Black</rdf:li>
            </rdf:Seq>
         </xmpTPg:PlateNames>
         <xmpTPg:SwatchGroups>
            <rdf:Seq>
               <rdf:li rdf:parseType="Resource">
                  <xmpG:groupName>Default Swatch Group</xmpG:groupName>
                  <xmpG:groupType>0</xmpG:groupType>
               </rdf:li>
            </rdf:Seq>
         </xmpTPg:SwatchGroups>
      </rdf:Description>
      <rdf:Description rdf:about=""
            xmlns:pdf="http://ns.adobe.com/pdf/1.3/">
         <pdf:Producer>Adobe PDF library 10.01</pdf:Producer>
      </rdf:Description>
      <rdf:Description rdf:about=""
            xmlns:xmpRights="http://ns.adobe.com/xap/1.0/rights/">
         <xmpRights:Marked>True</xmpRights:Marked>
         <xmpRights:WebStatement rdf:resource="http://www.ospreydawn.com"/>
         <xmpRights:UsageTerms>
            <rdf:Alt>
               <rdf:li xml:lang="x-default">This work is licensed under a &lt;a rel="license" href="http://creativecommons.org/licenses/by-nc-sa/3.0/"&gt;Creative Commons Attribution-NonCommercial-ShareAlike 3.0 Unported License&lt;/a&gt;.</rdf:li>
               <rdf:li xml:lang="en_us">This work is licensed under a &lt;a rel="license" href="http://creativecommons.org/licenses/by-nc-sa/3.0/"&gt;Creative Commons Attribution-NonCommercial-ShareAlike 3.0 Unported License&lt;/a&gt;.</rdf:li>
               <rdf:li xml:lang="en">This work is licensed under a &lt;a rel="license" href="http://creativecommons.org/licenses/by-nc-sa/3.0/"&gt;Creative Commons Attribution-NonCommercial-ShareAlike 3.0 Unported License&lt;/a&gt;.</rdf:li>
            </rdf:Alt>
         </xmpRights:UsageTerms>
      </rdf:Description>
      <rdf:Description rdf:about=""
            xmlns:cc="http://creativecommons.org/ns#">
         <cc:attributionName>Max O'Brien / Osprey Dawn</cc:attributionName>
         <cc:license rdf:resource="http://creativecommons.org/licenses/by-nc-sa/3.0/"/>
      </rdf:Description>
   </rdf:RDF>
</x:xmpmeta>
                                                                                                    
                                                                                                    
                                                                                                    
                                                                                                    
                                                                                                    
                                                                                                    
                                                                                                    
                                                                                                    
                                                                                                    
                                                                                                    
                                                                                                    
                                                                                                    
                                                                                                    
                                                                                                    
                                                                                                    
                                                                                                    
                                                                                                    
                                                                                                    
                                                                                                    
                                                                                                    
                           
<?xpacket end="w"?>
	</metadata>
<g id="Layer_2">
	<g id="_x37_Wl2mV_1_">
	</g>
</g>
<g id="Layer_1_1_">
	<g>
		<path fill="#700013" d="M393.416,538.591c0,0,12.112-9.581,14.129-26.743c0.768-6.746-1.216-17.77-1.82-20.896
			c-0.022-0.127-2.366-13.021-1.976-30.453c0.343-15.067,3.56-26.675,4.271-29.08c1.021-2.37,3.256-8.433,3.479-16.488
			c0.062-2.021,0.024-3.812-0.062-5.409c2.755-1.413,6.212-3.035,9.893-4.396c6.314-2.335,12.146-3.14,15.271-3.564
			c1.755-0.243-0.631,0.889,0.646,0.461c0.699-0.233,2.986-0.521,7.476,1.203l8.746,6.235l5.136-14.271
			c2.434-11.179-1.6-34.495-18.189-51.33c-9.088-9.229-17.103-15.667-22.175-19.417c0.365-9.296-0.512-26.229-9.309-42.812
			c-11.355-21.397-29.111-33.184-32.979-35.562c-2.438-1.832-9.646-6.703-29.865-18.133c-23.191-13.111-38.651-27.393-38.766-27.486
			c-0.207-0.196-20.987-19.964-34.148-48.479c-13.389-29.01-18.892-60.635-18.939-60.94l-5.876-34.318L233.56,88.004
			c-0.374,0.761-9.182,18.862-10.804,45.521c-0.4,6.659-0.345,12.962-0.021,18.671c-9.945-7.487-21.562-20.097-25.854-25.125
			l-15.469-18.17l-3.739,23.558c-0.253,1.601-2.275,16.483,4.416,47.52c1.223,5.637,2.678,10.681,4.264,15.171l-12.328-9.296
			l2.496,24.97c0.064,0.697,1.812,17.299,11.437,36.533c3.866,7.729,7.766,13.748,11.104,18.229
			c-1.835,1.699-3.11,3.123-3.673,3.775c-1.631,1.75-11.964,13.013-27.03,32.972c-16.479,21.822-30.366,52.473-30.949,53.767
			l-1.375,3.051l0.562,3.299c4.136,24.355,13.606,40.258,15.188,42.786c2.146,3.722,23.836,40.358,57.903,61.265
			c32.406,19.895,61.639,20.896,67.169,20.896c0.771,0,1.183-0.021,1.252-0.021c0.148-0.007,15.632-0.669,33.449-0.669
			c2.252,0,4.548,0.014,6.854,0.033c20.161,0.206,39.854,2.687,40.047,2.709l0.301,0.036l0.266,0.021
			c3.569,0.281,14.92,2.288,20.005,7.61C379.018,497.101,392.769,510.606,393.416,538.591z"/>
		<path fill="#57000C" d="M321.91,425.271c0,0-4.039-0.647-14.369,10.329c-10.331,10.977-27.438,3.874-27.438,3.874
			s0.968,4.843,6.773,6.78c0,0-17.938,7.261-35.275,3.631l4.936,13.149l102.339,11.622l30.353,11.307l-9.04-25.188l-28.409-21.63
			l-25.505-5.812L321.91,425.271z"/>
		<path fill="#57000C" d="M206.874,408.76c0,0-1.351-21.905,12.531-45.479c13.883-23.562,32.192-26.146,32.192-26.146
			s-16.809,10.33-25.735,38.734c-8.932,28.408,3.354,51.434,3.354,51.434l-4.97,9.911L206.874,408.76z"/>
		<path fill="#57000C" d="M206.169,230.598c0,0,10.014,20.662,32.606,36.152c22.6,15.496,22.921,22.927,22.921,22.927
			s-15.381-8.604-35.777-5.914l-4.577-17.653l-19.047-26.149L206.169,230.598z"/>
		<path fill="#57000C" d="M365.414,311.448c0.729-11.804-10.739-13.808-10.739-13.808c-22.599,2.798-30.021-7.97-30.021-7.97
			c18.725,9.361,18.079-8.395,18.079-8.395s-1.292-17.434-29.062-40.031c-27.764-22.598-42.856-52.771-42.856-52.771l66.466,51.48
			l38.381,21.63l18.078,20.345l10.01,23.244l-9.396,10.438c1.076-10.331-7.104-9.646-7.104-9.646
			c-0.97,14.766-8.25,13.429-8.25,13.429s-0.146-19.493-14.849-17.663l3.296,8.932"/>
		<polygon fill="#F9B209" points="341.115,371.999 334.013,412.679 393.092,417.198 399.443,403.639 406.006,397.827 
			428.927,390.079 445.719,383.844 439.904,364.574 426.992,348.662 389.972,318.732 		"/>
		<path fill="#FFFFFF" d="M389.972,336.274c0,0,10.148,1.404,29.916,16.787c19.764,15.38,23.89,30.777,23.89,30.777l3.562-4.104
			l-14.86-26.674l-28.731-23.029l-13.771-11.3l-7.534,9.04L389.972,336.274z"/>
		<path d="M432.592,351.555c-14.425-14.635-25.826-21.737-25.826-21.737s3.653-21.953-7.534-43.046
			c-11.189-21.092-29.483-31.644-29.483-31.644s-4.306-3.653-29.056-17.646c-24.753-13.989-40.896-29.056-40.896-29.056
			s-22.382-21.098-36.587-51.87C249,125.783,243.404,92.854,243.404,92.854s-8.179,16.567-9.685,41.323
			c-1.29,21.183,2.463,38.407,3.567,42.938c-0.795-1.834-3.682-5.771-14.119-11.521c-14.852-8.185-34.646-31.428-34.646-31.428
			s-2.151,13.562,4.306,43.479s20.021,40.462,20.021,40.462c-12.271,1.508-25.396-8.396-25.396-8.396s1.507,15.063,10.331,32.718
			c8.825,17.646,17.647,25.182,17.647,25.182c-6.675,2.798-11.842,9.04-11.842,9.04s-10.545,11.191-26.474,32.283
			c-15.927,21.093-29.7,51.654-29.7,51.654c4.089,24.104,13.773,38.957,13.773,38.957s21.092,37.229,54.231,57.565
			c33.146,20.34,62.201,19.27,62.201,19.27s19.801-0.861,40.896-0.646c21.093,0.216,41.317,2.797,41.317,2.797
			s17.864,1.292,27.118,10.979c9.254,9.686,9.672,21.093,9.672,21.093c0.64-5.595-1.707-17.646-1.707-17.646
			s-2.582-13.771-2.148-32.717c0.433-18.938,4.951-32.715,4.951-32.715s2.583-5.166,2.797-12.914
			c0.215-7.748-1.074-10.977-1.074-10.977s8.178-5.165,18.079-8.824c9.899-3.658,18.508-4.089,19.799-4.521
			c1.291-0.435,5.383-3.017,5.383-3.017c3.657,2.366,5.165,5.562,5.165,5.562C449.381,385.927,447.01,366.189,432.592,351.555z
			 M354.029,469.068c-17.646-3.659-62.63-5.596-62.63-5.596s-31.854-3.66-49.717-21.312c-17.864-17.646-24.75-37.881-24.75-37.881
			c0.431,11.622,6.021,22.384,6.021,22.384s-18.294-18.072-29.48-36.588c-11.192-18.51-12.271-32.716-11.406-38.734
			c0.862-6.025,1.291-9.688,6.457-22.392c5.166-12.69,10.224-19.261,10.224-19.261l2.26,2.905c0,0,1.938-11.945,14.854-23.245
			c12.913-11.305,33.252-6.457,33.252-6.457s-3.551-5.812-20.662-17.109c-17.109-11.301-22.275-35.188-22.275-35.188
			s3.748,8.205,19.587,12.693c12.479,3.539,20.271,10.134,22.146,11.85c-2.468-2.354-14.697-14.519-22.794-31.86
			c-9.039-19.369-10.331-39.386-10.331-39.386s7.318,10.978,21.309,21.732c13.989,10.767,31.429,9.688,31.429,9.688
			c-23.46-21.953-17.005-62.416-17.005-62.416s19.367,41.32,40.672,59.833c21.298,18.51,61.562,37.449,61.562,37.449
			s20.447,9.47,31.209,22.812c10.766,13.344,16.57,28.732,16.57,28.732c-1.291-2.479-5.379-5.273-5.379-5.273
			s4.729,9.252,3.438,13.99c-1.292,4.734-6.887,4.088-6.887,4.088c0.216-4.951-4.95-9.254-4.95-9.254s1.506,7.104-2.583,11.405
			c-4.091,4.306-11.622,2.801-11.622,2.801c2.365-10.547-8.394-17.757-8.394-17.757s2.582,4.411,1.076,10.649
			c-1.512,6.238-6.894,11.403-15.719,14.638c-8.816,3.229-36.804,1.937-51.906-13.988c-15.108-15.929-23.201-17.648-23.201-17.648
			s8.604,6.894,14.42,15.281c5.811,8.396,7.312,18.294,7.312,18.294c-4.305,0.223-9.469,3.658-9.469,3.658s0.86,2.153,5.595,11.622
			c4.735,9.47,16.146,11.408,16.146,11.408c-4.733,4.947-10.548,14.205-10.564,18.938c-0.021,4.734,7.342,18.268,7.342,18.268
			c-4.95,10.296-18.94,20.689-18.94,20.689s8.825-0.646,20.878,2.366c12.051,3.016,15.496,10.547,15.496,10.547
			c-2.583,1.729-5.597,9.688-5.597,9.688s16.142,1.292,36.37,9.896c20.229,8.609,29.057,34.651,29.057,34.651
			S371.679,472.727,354.029,469.068z M409.774,392.844c-17.438,8.429-20.446,18.329-20.446,18.329s-1.291-7.104-15.496-7.318
			s-33.145,3.658-33.145,3.658s-0.217-26.041,5.594-29.915c5.812-3.874,6.889-1.729,14.205-4.306
			c7.319-2.59,10.763-5.165,10.763-5.165s5.812-0.438,13.351,6.449c7.525,6.896,21.73,7.104,21.73,7.104l18.301,0.432
			c0,0,10.546,0.214,16.354,3.442C440.981,385.56,427.206,384.414,409.774,392.844z M430.436,379.748c0,0-24.753-1.29-32.069-2.583
			c-7.316-1.291-15.711-7.525-15.711-7.525s-6.674-4.735-10.763-4.95c-4.088-0.215-4.521,0.646-10.768,3.658
			c-6.236,3.014-11.622,3.014-11.622,3.014s5.603-11.623,13.137-19.155c7.524-7.525,18.724-13.56,21.307-14.421
			c2.583-0.854,6.887,0.861,6.025-1.505c-0.859-2.369,0-13.99,0-13.99s23.676,15.714,38.741,30.777
			c15.062,15.065,15.062,30.777,15.062,30.777C439.311,380.192,430.436,379.748,430.436,379.748z"/>
		<path fill="#FFFFFF" d="M310.554,337.889c0,0,1.723,3.119,2.146,4.411c0.437,1.291,3.444,6.672,9.901,6.35
			c6.457-0.323,7.962-4.305,7.962-4.305s-0.646,0.431-2.583-1.614c-1.938-2.045-3.336-3.443-3.336-3.443
			S318.194,332.399,310.554,337.889z"/>
	</g>
</g>
<g>
	<path fill="#BDC2BC" d="M534.992,588.913c-0.738,0-1.34-0.602-1.34-1.341v-16.588c0-0.739,0.602-1.339,1.34-1.339h52.497
		c0.738,0,1.339,0.6,1.339,1.339v16.588c0,0.739-0.601,1.341-1.339,1.341H534.992z"/>
	<g>
		<path d="M558.027,571.51c-2.725,0-4.935,2.21-4.935,4.934c0,2.729,2.21,4.938,4.935,4.938c2.729,0,4.938-2.21,4.938-4.938
			C562.965,573.719,560.756,571.51,558.027,571.51z"/>
		<path fill="#FFFFFF" d="M558.027,580.462c-2.219,0-4.015-1.799-4.015-4.02c0-2.217,1.797-4.014,4.015-4.014
			c2.219,0,4.02,1.798,4.02,4.014C562.047,578.664,560.246,580.462,558.027,580.462z"/>
		<g>
			<path d="M559.402,575.294c0-0.22-0.182-0.398-0.397-0.398h-1.952c-0.222,0-0.401,0.181-0.401,0.398v1.984h0.528v2.338h1.693
				v-2.338h0.527L559.402,575.294L559.402,575.294z"/>
			<path d="M558.695,573.942c0,0.37-0.3,0.668-0.667,0.668c-0.371,0-0.67-0.299-0.67-0.668s0.301-0.67,0.67-0.67
				C558.395,573.272,558.695,573.571,558.695,573.942z"/>
		</g>
	</g>
	<path d="M587.176,569.198h-51.868c-1.157,0-2.103,0.943-2.103,2.103v15.96c0,1.158,0.943,2.1,2.103,2.1h51.868
		c1.157,0,2.102-0.939,2.102-2.1v-15.96C589.275,570.141,588.332,569.198,587.176,569.198z M588.644,583.375h-37.865
		c-1.477,2.81-4.417,4.726-7.81,4.726c-3.394,0-6.333-1.916-7.81-4.726h-1.325v-12.074c0-0.812,0.657-1.472,1.47-1.472h51.869
		c0.811,0,1.471,0.658,1.471,1.472V583.375L588.644,583.375z"/>
	<g>
		<path fill="#FFFFFF" d="M557.773,584.933c0.1,0.14,0.15,0.302,0.15,0.495c0,0.198-0.053,0.356-0.151,0.479
			c-0.057,0.066-0.14,0.131-0.25,0.188c0.168,0.061,0.294,0.155,0.378,0.289c0.085,0.13,0.127,0.289,0.127,0.477
			c0,0.192-0.049,0.365-0.145,0.52c-0.062,0.104-0.141,0.188-0.23,0.256c-0.104,0.078-0.225,0.137-0.369,0.164
			c-0.141,0.027-0.294,0.043-0.459,0.043h-1.466v-3.256h1.573C557.326,584.594,557.607,584.706,557.773,584.933z M556.01,585.151
			v0.717h0.79c0.143,0,0.257-0.025,0.345-0.08c0.088-0.054,0.133-0.146,0.133-0.286c0-0.149-0.059-0.247-0.176-0.301
			c-0.101-0.033-0.229-0.05-0.383-0.05H556.01L556.01,585.151z M556.01,586.407v0.869h0.789c0.143,0,0.25-0.02,0.327-0.058
			c0.146-0.071,0.218-0.206,0.218-0.407c0-0.17-0.07-0.285-0.208-0.35c-0.077-0.034-0.188-0.057-0.327-0.057L556.01,586.407
			L556.01,586.407z"/>
		<path fill="#FFFFFF" d="M560.469,584.587h0.771l-1.089,2.033v1.223h-0.68v-1.223l-1.127-2.033h0.8l0.677,1.418L560.469,584.587z"
			/>
	</g>
	<g>
		<g>
			<path fill="#FFFFFF" d="M566.517,584.427h0.776l1.402,2.473v-2.473h0.692v3.545h-0.742l-1.443-2.518v2.518h-0.688
				L566.517,584.427L566.517,584.427z"/>
			<path fill="#FFFFFF" d="M570.426,584.798c0.284-0.292,0.646-0.438,1.09-0.438c0.591,0,1.02,0.195,1.295,0.587
				c0.147,0.221,0.229,0.439,0.242,0.661h-0.741c-0.048-0.17-0.106-0.299-0.183-0.384c-0.133-0.153-0.328-0.229-0.587-0.229
				c-0.265,0-0.473,0.107-0.622,0.324c-0.152,0.219-0.229,0.525-0.229,0.923c0,0.399,0.08,0.696,0.241,0.896
				c0.161,0.196,0.365,0.299,0.614,0.299c0.252,0,0.446-0.086,0.581-0.256c0.071-0.09,0.136-0.229,0.183-0.41h0.736
				c-0.066,0.387-0.227,0.699-0.486,0.943c-0.262,0.24-0.594,0.359-1.002,0.359c-0.505,0-0.901-0.163-1.19-0.489
				c-0.288-0.327-0.434-0.776-0.434-1.353C569.93,585.607,570.095,585.134,570.426,584.798z"/>
		</g>
	</g>
	<g>
		<path fill="#FFFFFF" d="M578.517,586.944c0.021,0.173,0.073,0.303,0.145,0.389c0.133,0.154,0.354,0.233,0.674,0.233
			c0.189,0,0.347-0.021,0.465-0.062c0.225-0.077,0.338-0.226,0.338-0.438c0-0.125-0.055-0.223-0.166-0.291
			c-0.113-0.066-0.285-0.126-0.525-0.178l-0.411-0.088c-0.4-0.094-0.679-0.188-0.828-0.294c-0.255-0.174-0.384-0.448-0.384-0.819
			c0-0.339,0.126-0.619,0.376-0.846c0.249-0.225,0.617-0.336,1.103-0.336c0.4,0,0.748,0.104,1.033,0.314
			c0.283,0.213,0.436,0.521,0.449,0.922h-0.762c-0.014-0.227-0.117-0.387-0.306-0.483c-0.126-0.065-0.282-0.097-0.474-0.097
			c-0.209,0-0.375,0.041-0.499,0.122c-0.126,0.083-0.188,0.196-0.188,0.347c0,0.135,0.062,0.235,0.186,0.303
			c0.079,0.043,0.246,0.096,0.502,0.155l0.665,0.155c0.292,0.068,0.514,0.162,0.655,0.276c0.227,0.179,0.339,0.435,0.339,0.771
			c0,0.352-0.134,0.638-0.399,0.863c-0.27,0.229-0.646,0.344-1.135,0.344c-0.5,0-0.891-0.111-1.176-0.339
			c-0.287-0.224-0.432-0.536-0.432-0.929L578.517,586.944L578.517,586.944z"/>
		<path fill="#FFFFFF" d="M582.542,584.325h0.896l1.34,3.791h-0.857l-0.249-0.777h-1.396l-0.255,0.777h-0.828L582.542,584.325z
			 M582.486,586.681h0.972l-0.479-1.49L582.486,586.681z"/>
	</g>
	<g>
		<circle cx="542.95" cy="579.281" r="7.771"/>
		<circle fill="#FFFFFF" cx="542.95" cy="579.278" r="6.322"/>
		<g>
			<path d="M542.597,578.348l-1.188,0.215c-0.041-0.237-0.131-0.416-0.272-0.537c-0.144-0.119-0.325-0.178-0.55-0.178
				c-0.303,0-0.537,0.104-0.721,0.31c-0.18,0.204-0.268,0.556-0.268,1.038c0,0.539,0.09,0.921,0.271,1.146
				c0.184,0.223,0.427,0.332,0.73,0.332c0.229,0,0.417-0.064,0.562-0.195c0.146-0.131,0.249-0.354,0.312-0.67l1.182,0.199
				c-0.123,0.545-0.354,0.954-0.707,1.229c-0.348,0.276-0.812,0.416-1.398,0.416c-0.668,0-1.197-0.21-1.595-0.629
				c-0.396-0.42-0.592-1.004-0.592-1.746c0-0.75,0.198-1.337,0.594-1.754c0.397-0.42,0.937-0.627,1.613-0.627
				c0.555,0,0.995,0.118,1.322,0.355C542.219,577.497,542.453,577.86,542.597,578.348z"/>
			<path d="M547.477,578.348l-1.188,0.215c-0.038-0.237-0.131-0.416-0.271-0.537c-0.144-0.119-0.325-0.178-0.551-0.178
				c-0.302,0-0.539,0.104-0.721,0.31c-0.178,0.204-0.268,0.556-0.268,1.038c0,0.539,0.09,0.921,0.271,1.146
				c0.183,0.223,0.427,0.332,0.729,0.332c0.229,0,0.417-0.064,0.562-0.195c0.146-0.131,0.25-0.354,0.312-0.67l1.183,0.199
				c-0.123,0.545-0.355,0.954-0.708,1.229c-0.349,0.276-0.813,0.416-1.399,0.416c-0.668,0-1.197-0.21-1.594-0.629
				c-0.396-0.42-0.592-1.004-0.592-1.746c0-0.75,0.196-1.337,0.596-1.754c0.396-0.42,0.934-0.627,1.611-0.627
				c0.555,0,0.994,0.118,1.322,0.355C547.1,577.497,547.338,577.86,547.477,578.348z"/>
		</g>
	</g>
	<g>
		<path d="M569.93,571.719c-2.61,0-4.728,2.114-4.728,4.726c0,2.612,2.115,4.729,4.728,4.729c2.611,0,4.728-2.113,4.728-4.729
			C574.658,573.834,572.547,571.719,569.93,571.719z"/>
		<circle fill="#FFFFFF" cx="569.93" cy="576.448" r="3.846"/>
		
			<rect x="569.44" y="571.959" transform="matrix(-0.4225 0.9063 -0.9063 -0.4225 1333.1595 303.4776)" width="0.924" height="8.958"/>
		<g>
			<path d="M569.58,579.151v-0.637c-0.443-0.013-0.877-0.141-1.129-0.277l0.197-0.775c0.279,0.152,0.672,0.292,1.101,0.292
				c0.383,0,0.646-0.151,0.646-0.409c0-0.252-0.223-0.41-0.709-0.578c-0.711-0.238-1.196-0.568-1.196-1.215
				c0-0.591,0.411-1.047,1.122-1.182v-0.631h0.65v0.584c0.443,0.016,0.742,0.115,0.968,0.222l-0.199,0.748
				c-0.167-0.078-0.478-0.231-0.954-0.231c-0.434,0-0.57,0.192-0.57,0.381c0,0.212,0.23,0.356,0.798,0.564
				c0.796,0.275,1.106,0.643,1.106,1.245c0,0.592-0.41,1.091-1.182,1.222v0.684L569.58,579.151L569.58,579.151z"/>
		</g>
	</g>
	<g>
		<path d="M581.185,571.784c-2.571,0-4.66,2.086-4.66,4.658c0,2.576,2.089,4.665,4.66,4.665c2.576,0,4.665-2.089,4.665-4.665
			C585.852,573.87,583.761,571.784,581.185,571.784z"/>
		<path fill="#FFFFFF" d="M581.185,580.238c-2.092,0-3.789-1.698-3.789-3.794c0-2.091,1.695-3.79,3.789-3.79
			c2.096,0,3.793,1.696,3.793,3.79C584.979,578.538,583.281,580.238,581.185,580.238z"/>
		<path d="M581.185,573.885c-1.016,0-1.874,0.732-2.182,1.746h-0.294l0.933,1.016l0.93-1.016h-0.348
			c0.215-0.37,0.562-0.616,0.96-0.616c0.65,0,1.179,0.646,1.179,1.442c0,0.794-0.525,1.44-1.179,1.44
			c-0.432,0-0.811-0.289-1.016-0.72h-1.196c0.278,1.067,1.167,1.854,2.214,1.854c1.273,0,2.311-1.155,2.311-2.576
			C583.496,575.034,582.465,573.885,581.185,573.885z"/>
	</g>
</g>
<g>
	<path d="M11.392,587.197c-0.652,0-1.248-0.138-1.786-0.41c-0.539-0.271-1.002-0.631-1.391-1.069
		c-0.388-0.441-0.688-0.949-0.899-1.521C7.106,583.619,7,583.032,7,582.432c0-0.626,0.114-1.227,0.338-1.797
		c0.227-0.574,0.533-1.08,0.928-1.521c0.393-0.439,0.856-0.792,1.396-1.053c0.538-0.26,1.119-0.39,1.746-0.39
		c0.653,0,1.248,0.138,1.786,0.417c0.538,0.274,0.999,0.641,1.382,1.09s0.682,0.959,0.893,1.528
		c0.214,0.566,0.318,1.144,0.318,1.726c0,0.636-0.113,1.24-0.338,1.812c-0.225,0.574-0.534,1.079-0.926,1.518
		c-0.395,0.437-0.856,0.785-1.392,1.045C12.598,587.066,12.018,587.197,11.392,587.197z M7.675,582.432
		c0,0.539,0.092,1.057,0.271,1.555s0.437,0.939,0.768,1.324c0.33,0.383,0.725,0.69,1.179,0.92c0.455,0.229,0.955,0.344,1.502,0.344
		c0.562,0,1.071-0.117,1.526-0.354c0.454-0.239,0.847-0.556,1.17-0.946c0.327-0.392,0.578-0.834,0.756-1.328
		c0.177-0.494,0.265-0.997,0.265-1.51c0-0.538-0.092-1.057-0.277-1.555c-0.185-0.498-0.441-0.939-0.772-1.323
		s-0.724-0.691-1.18-0.919c-0.453-0.229-0.948-0.347-1.485-0.347c-0.565,0-1.076,0.118-1.536,0.356
		c-0.458,0.238-0.851,0.554-1.17,0.945c-0.322,0.394-0.571,0.836-0.748,1.33C7.762,581.423,7.675,581.924,7.675,582.432z"/>
	<path d="M23.14,579.3c-0.608-0.682-1.47-1.021-2.58-1.021c-0.918,0-1.587,0.175-2.006,0.523c-0.417,0.349-0.629,0.816-0.629,1.407
		c0,0.302,0.055,0.554,0.159,0.755c0.106,0.202,0.271,0.373,0.496,0.51c0.227,0.137,0.514,0.256,0.86,0.354
		c0.35,0.104,0.761,0.2,1.237,0.3c0.512,0.105,0.97,0.223,1.377,0.352c0.403,0.127,0.75,0.289,1.037,0.483
		c0.287,0.192,0.509,0.433,0.662,0.715c0.153,0.281,0.231,0.632,0.231,1.044c0,0.414-0.082,0.774-0.245,1.086
		c-0.163,0.31-0.392,0.564-0.688,0.772c-0.298,0.208-0.648,0.364-1.06,0.472c-0.411,0.104-0.867,0.157-1.37,0.157
		c-1.463,0-2.704-0.468-3.717-1.401l0.356-0.542c0.396,0.415,0.882,0.743,1.457,0.984c0.572,0.241,1.217,0.362,1.931,0.362
		c0.821,0,1.461-0.146,1.925-0.449c0.462-0.301,0.695-0.754,0.695-1.361c0-0.31-0.061-0.57-0.179-0.787
		c-0.117-0.217-0.303-0.404-0.551-0.562c-0.247-0.157-0.554-0.295-0.919-0.408c-0.364-0.115-0.796-0.226-1.29-0.33
		c-0.503-0.105-0.944-0.22-1.329-0.339c-0.384-0.116-0.708-0.269-0.972-0.448c-0.265-0.182-0.463-0.398-0.596-0.654
		s-0.199-0.578-0.199-0.967c0-0.423,0.082-0.797,0.246-1.124c0.163-0.326,0.391-0.604,0.682-0.826
		c0.291-0.226,0.641-0.395,1.044-0.511c0.406-0.114,0.854-0.17,1.352-0.17c0.606,0,1.149,0.09,1.627,0.27
		c0.477,0.184,0.909,0.459,1.296,0.828L23.14,579.3z"/>
	<path d="M25.734,587.132v-9.396h3.863c0.396,0,0.763,0.085,1.098,0.251c0.335,0.168,0.624,0.393,0.866,0.669
		c0.242,0.277,0.432,0.591,0.567,0.938c0.139,0.35,0.205,0.697,0.205,1.053c0,0.381-0.062,0.746-0.19,1.098
		c-0.128,0.354-0.311,0.666-0.542,0.939c-0.232,0.271-0.513,0.492-0.833,0.654c-0.323,0.163-0.684,0.244-1.078,0.244h-3.281v3.547
		L25.734,587.132L25.734,587.132z M26.408,582.964h3.241c0.309,0,0.586-0.064,0.833-0.191s0.456-0.3,0.629-0.516
		c0.171-0.219,0.303-0.463,0.396-0.741c0.093-0.276,0.14-0.565,0.14-0.866c0-0.309-0.057-0.602-0.165-0.879
		c-0.11-0.279-0.26-0.523-0.45-0.734c-0.189-0.213-0.41-0.381-0.661-0.504s-0.519-0.186-0.801-0.186h-3.162L26.408,582.964
		L26.408,582.964z"/>
	<path d="M33.963,587.132v-9.396h3.917c0.397,0,0.765,0.085,1.099,0.251c0.335,0.168,0.622,0.393,0.858,0.669
		c0.238,0.277,0.427,0.591,0.563,0.938c0.137,0.35,0.204,0.697,0.204,1.053c0,0.344-0.055,0.676-0.159,0.998
		c-0.105,0.324-0.254,0.611-0.45,0.867c-0.194,0.256-0.427,0.467-0.7,0.635c-0.272,0.169-0.571,0.277-0.898,0.331l2.341,3.65h-0.781
		l-2.273-3.547h-3.043v3.547L33.963,587.132L33.963,587.132z M34.636,582.964h3.295c0.299,0,0.57-0.064,0.818-0.197
		c0.247-0.132,0.458-0.308,0.637-0.522c0.176-0.216,0.311-0.462,0.401-0.74c0.093-0.277,0.142-0.562,0.142-0.854
		c0-0.3-0.057-0.589-0.166-0.866c-0.11-0.275-0.262-0.521-0.45-0.732c-0.189-0.212-0.409-0.382-0.661-0.512
		c-0.252-0.127-0.523-0.191-0.814-0.191h-3.2L34.636,582.964L34.636,582.964z"/>
	<path d="M48.899,586.521v0.608h-6.258v-9.396h6.139v0.61h-5.464v3.688h4.774v0.582h-4.774v3.903h5.583V586.521z"/>
	<path d="M50.421,577.736l3.281,5.199l3.308-5.199h0.742l-3.706,5.85v3.546h-0.674v-3.572l-3.689-5.821L50.421,577.736
		L50.421,577.736z"/>
	<path d="M59.126,587.132v-9.396h3.122c0.741,0,1.393,0.124,1.951,0.371c0.561,0.248,1.025,0.583,1.396,1.007
		c0.37,0.423,0.646,0.919,0.833,1.487c0.185,0.566,0.276,1.175,0.276,1.818c0,0.716-0.104,1.36-0.311,1.938s-0.505,1.07-0.895,1.481
		c-0.388,0.408-0.856,0.729-1.41,0.952c-0.552,0.225-1.167,0.337-1.845,0.337L59.126,587.132L59.126,587.132z M66.031,582.422
		c0-0.593-0.083-1.138-0.251-1.636c-0.167-0.498-0.412-0.93-0.733-1.291c-0.321-0.358-0.718-0.644-1.185-0.848
		c-0.466-0.202-1.005-0.303-1.614-0.303h-2.447v8.177h2.447c0.617,0,1.162-0.104,1.633-0.312c0.474-0.205,0.866-0.494,1.186-0.864
		c0.315-0.37,0.559-0.806,0.722-1.304C65.951,583.544,66.031,583.004,66.031,582.422z"/>
	<path d="M67.288,587.132l3.996-9.396h0.555l3.997,9.396h-0.728l-1.312-3.098h-4.483l-1.312,3.098H67.288z M71.562,578.557
		l-2.09,4.922h4.141L71.562,578.557z"/>
	<path d="M80.148,577.802h0.661l1.4,3.413l1.403-3.413h0.661l-1.654,3.956l1.971,4.577l3.601-8.602h0.742l-4.023,9.396h-0.62
		l-2.062-4.829l-2.077,4.829h-0.622l-4.008-9.396h0.728l3.612,8.602l1.945-4.577L80.148,577.802z"/>
	<path d="M91.05,579.009v8.123h-0.675v-9.395h0.519l6.588,8.271v-8.255h0.675v9.379h-0.622L91.05,579.009z"/>
	<path d="M100.297,587.132v-1.125h0.583v1.125H100.297z"/>
	<path d="M102.401,582.368c0-0.562,0.098-1.127,0.298-1.688c0.197-0.562,0.486-1.062,0.866-1.502c0.379-0.44,0.844-0.8,1.395-1.077
		c0.553-0.277,1.182-0.418,1.888-0.418c0.838,0,1.552,0.191,2.144,0.576c0.591,0.383,1.027,0.877,1.309,1.475l-0.556,0.318
		c-0.159-0.327-0.351-0.602-0.576-0.82c-0.224-0.221-0.466-0.399-0.727-0.537c-0.261-0.137-0.533-0.234-0.814-0.298
		c-0.28-0.062-0.562-0.092-0.833-0.092c-0.6,0-1.129,0.121-1.589,0.364c-0.458,0.24-0.847,0.558-1.164,0.943
		c-0.315,0.391-0.557,0.826-0.722,1.316c-0.164,0.488-0.245,0.98-0.245,1.475c0,0.558,0.097,1.086,0.291,1.59
		c0.195,0.502,0.459,0.945,0.795,1.328c0.334,0.383,0.731,0.691,1.19,0.919c0.458,0.229,0.95,0.347,1.479,0.347
		c0.282,0,0.571-0.036,0.866-0.106c0.296-0.069,0.583-0.18,0.86-0.329c0.276-0.15,0.535-0.343,0.773-0.576
		c0.238-0.231,0.438-0.51,0.594-0.827l0.569,0.278c-0.159,0.352-0.372,0.665-0.642,0.939c-0.271,0.271-0.57,0.502-0.906,0.688
		c-0.335,0.187-0.689,0.324-1.065,0.416c-0.375,0.092-0.741,0.139-1.104,0.139c-0.645,0-1.233-0.141-1.769-0.423
		c-0.531-0.28-0.993-0.648-1.382-1.104c-0.387-0.455-0.688-0.972-0.904-1.549C102.509,583.555,102.401,582.969,102.401,582.368z"/>
	<path d="M115.882,587.197c-0.651,0-1.247-0.138-1.784-0.41c-0.538-0.271-1.001-0.631-1.391-1.069
		c-0.388-0.441-0.688-0.949-0.897-1.521c-0.212-0.571-0.317-1.16-0.317-1.76c0-0.627,0.112-1.225,0.337-1.798
		s0.534-1.081,0.926-1.521c0.395-0.439,0.857-0.792,1.396-1.052c0.539-0.261,1.121-0.391,1.747-0.391
		c0.649,0,1.247,0.139,1.786,0.416c0.538,0.275,0.999,0.643,1.381,1.091c0.384,0.45,0.682,0.959,0.894,1.529
		c0.211,0.565,0.317,1.144,0.317,1.726c0,0.635-0.113,1.239-0.337,1.812c-0.227,0.571-0.534,1.076-0.928,1.514
		s-0.854,0.785-1.39,1.046C117.087,587.066,116.509,587.197,115.882,587.197z M112.164,582.432c0,0.539,0.09,1.057,0.271,1.555
		c0.181,0.498,0.436,0.939,0.767,1.324c0.331,0.383,0.724,0.69,1.178,0.92s0.954,0.344,1.501,0.344c0.564,0,1.073-0.117,1.527-0.354
		c0.456-0.239,0.845-0.556,1.171-0.946s0.578-0.834,0.754-1.328c0.175-0.494,0.267-0.997,0.267-1.51
		c0-0.538-0.095-1.057-0.278-1.555c-0.187-0.498-0.443-0.939-0.774-1.323s-0.724-0.691-1.178-0.919
		c-0.455-0.229-0.95-0.347-1.488-0.347c-0.562,0-1.074,0.118-1.533,0.356s-0.852,0.554-1.173,0.945
		c-0.32,0.394-0.569,0.836-0.747,1.33C112.252,581.423,112.164,581.924,112.164,582.432z"/>
	<path d="M130.659,587.132v-8.123l-3.704,6.338h-0.423l-3.705-6.338v8.123h-0.675v-9.395h0.675l3.916,6.722l3.916-6.722h0.675v9.395
		H130.659L130.659,587.132z"/>
</g>
</svg>
