<?xml version="1.0" encoding="utf-8"?>
<!-- Generator: Adobe Illustrator 16.0.0, SVG Export Plug-In . SVG Version: 6.00 Build 0)  -->
<!DOCTYPE svg PUBLIC "-//W3C//DTD SVG 1.1//EN" "http://www.w3.org/Graphics/SVG/1.1/DTD/svg11.dtd">
<svg version="1.1" id="Layer_1" xmlns="http://www.w3.org/2000/svg" xmlns:xlink="http://www.w3.org/1999/xlink" x="0px" y="0px"
	 width="595.275px" height="595.279px" viewBox="0 0 595.275 595.279" enable-background="new 0 0 595.275 595.279"
	 xml:space="preserve">
<metadata><?xpacket begin="﻿" id="W5M0MpCehiHzreSzNTczkc9d"?>
<x:xmpmeta xmlns:x="adobe:ns:meta/" x:xmptk="Adobe XMP Core 5.3-c011 66.145661, 2012/02/06-14:56:27        ">
   <rdf:RDF xmlns:rdf="http://www.w3.org/1999/02/22-rdf-syntax-ns#">
      <rdf:Description rdf:about=""
            xmlns:dc="http://purl.org/dc/elements/1.1/">
         <dc:format>image/svg+xml</dc:format>
         <dc:title>
            <rdf:Alt>
               <rdf:li xml:lang="x-default">NFL Logo Redesigns</rdf:li>
               <rdf:li xml:lang="en_us">NFL Logo Redesigns</rdf:li>
            </rdf:Alt>
         </dc:title>
         <dc:creator>
            <rdf:Seq>
               <rdf:li>Max O'Brien/Osprey Dawn</rdf:li>
            </rdf:Seq>
         </dc:creator>
      </rdf:Description>
      <rdf:Description rdf:about=""
            xmlns:xmp="http://ns.adobe.com/xap/1.0/"
            xmlns:xmpGImg="http://ns.adobe.com/xap/1.0/g/img/">
         <xmp:CreatorTool>Adobe Illustrator CS6 (Macintosh)</xmp:CreatorTool>
         <xmp:ModifyDate>2013-10-06T17:26:17+13:00</xmp:ModifyDate>
         <xmp:MetadataDate>2013-10-06T17:26:17+13:00</xmp:MetadataDate>
         <xmp:CreateDate>2013-10-06T17:26:17+13:00</xmp:CreateDate>
         <xmp:Thumbnails>
            <rdf:Alt>
               <rdf:li rdf:parseType="Resource">
                  <xmpGImg:width>256</xmpGImg:width>
                  <xmpGImg:height>236</xmpGImg:height>
                  <xmpGImg:format>JPEG</xmpGImg:format>
                  <xmpGImg:image>/9j/4AAQSkZJRgABAgEASABIAAD/7QAsUGhvdG9zaG9wIDMuMAA4QklNA+0AAAAAABAASAAAAAEA&#xA;AQBIAAAAAQAB/+4ADkFkb2JlAGTAAAAAAf/bAIQABgQEBAUEBgUFBgkGBQYJCwgGBggLDAoKCwoK&#xA;DBAMDAwMDAwQDA4PEA8ODBMTFBQTExwbGxscHx8fHx8fHx8fHwEHBwcNDA0YEBAYGhURFRofHx8f&#xA;Hx8fHx8fHx8fHx8fHx8fHx8fHx8fHx8fHx8fHx8fHx8fHx8fHx8fHx8fHx8f/8AAEQgA7AEAAwER&#xA;AAIRAQMRAf/EAaIAAAAHAQEBAQEAAAAAAAAAAAQFAwIGAQAHCAkKCwEAAgIDAQEBAQEAAAAAAAAA&#xA;AQACAwQFBgcICQoLEAACAQMDAgQCBgcDBAIGAnMBAgMRBAAFIRIxQVEGE2EicYEUMpGhBxWxQiPB&#xA;UtHhMxZi8CRygvElQzRTkqKyY3PCNUQnk6OzNhdUZHTD0uIIJoMJChgZhJRFRqS0VtNVKBry4/PE&#xA;1OT0ZXWFlaW1xdXl9WZ2hpamtsbW5vY3R1dnd4eXp7fH1+f3OEhYaHiImKi4yNjo+Ck5SVlpeYmZ&#xA;qbnJ2en5KjpKWmp6ipqqusra6voRAAICAQIDBQUEBQYECAMDbQEAAhEDBCESMUEFURNhIgZxgZEy&#xA;obHwFMHR4SNCFVJicvEzJDRDghaSUyWiY7LCB3PSNeJEgxdUkwgJChgZJjZFGidkdFU38qOzwygp&#xA;0+PzhJSktMTU5PRldYWVpbXF1eX1RlZmdoaWprbG1ub2R1dnd4eXp7fH1+f3OEhYaHiImKi4yNjo&#xA;+DlJWWl5iZmpucnZ6fkqOkpaanqKmqq6ytrq+v/aAAwDAQACEQMRAD8A9U4q7FXYq7FXYq7FXYq7&#xA;FXYq7FXYq7FXYq7FXYqsnuILeJpp5FiiTdpHIVR8ycEpACykC2Kar+ZGj2pKWSNeyDbkPgj/AOCI&#xA;qfoGa/L2jCP0+pvjpyeezFr/APMPzFc1ETpaIe0SitP9Z+R+6mYGTtDJLls3x08QkVzqmp3Rrc3c&#xA;01f53Zh9xOYssspcyS2iIHIIbK0oq01bVLNg1rdyw07I7AbeIrQ5ZDLOPIkIMAeYZVo35lX0LLHq&#xA;kYuYuhmjAWQe9BRW/DNhh7SkNp7uPPTjo9B0/UbLULZbmzlEsLdGHY+BHUH2ObfHkjMXE7OJKJBo&#xA;ojJodirsVdirsVdirsVdirsVdirsVdirsVdirsVdirsVdirsVdirsVdirsVYp5j8/WOnF7axAu7w&#xA;VDGv7pD/AJRH2j7D781+p18YbR3k348BO55POtU1rU9Ul9S9naWhqqdEX/VUbDNNlzTyG5FzIwEe&#xA;SCypkybRvIGtagqyzgWVudw0oJcj2j2P30zOw6Cc9z6Q0zzxHmy2x/Ljy/bgG49S7fvzYotfYJxP&#xA;3nNjj7Oxjnu48tRI8k3i8seXYhRdNtyP8uNXP3sDmQNNjH8Iazkl3ty+WfL0i8W022A/yYlQ/eoB&#xA;xOmxn+EfJRkl3pFqv5baRcKWsHazl7LUyRn5hjyH35i5ezYH6dm2OoI57sStZ9c8n6uFmQiNv7yI&#xA;H91Mg7qfEdj1Ga+Msmnnv/a5BEcgeqaff21/ZxXds3OGZeSnv7g+4OxzfY8gnESHIuBKJBoojJod&#xA;irsVdirsVdirsVdirsVdirsVdirsVdiqRa/5x0nRyYnJuLv/AJZ46VH+uei/rzEz6yGPbme5thhM&#xA;kB+nPNzWjX80FjplnSq/XWl579PsEdflX2yrx81cREYx87Z8ELrclQ0n8yLOW4+r6kixVNFu4eRi&#xA;PzVwHUZDF2jEmpfPomWnPMMyR1dQ6EMjAFWBqCD0IObMG3GbxV2KrZJEjRpJGCIgLMzGgAG5JJwE&#xA;1uVeO/mV+b4iuI9C0MNPe3lVt4EJV5R3d2p+6hXep6n7812TLLKDwnhxR5y/QHJjARq95Hox6yiu&#xA;Y7dRdS+tct8UrqOKcj1CL2UdBXfxqc00yCdhQcuINbo6zs7q8uUtrWMyzyGiIvXGEDI0OakgCy9Q&#xA;8r+SLPSlW5ugtxqHXn1SP2QHv/lZvdLoo49zvJwsuYy2HJk+ZzQx/XfO2j6UWi5fWrtf90REbH/L&#xA;fov6/bMPPrYY9uZboYZSYXqH5i6/cki3KWcfYRqGanuz1/ADNZk7RyS5bORHTxHPdI59b1m4as19&#xA;O/sZGp91aZiyzzPMltEIjoppqmpowZLuZWHQiRwfwOAZZDqU8I7kZceZdTu7JrO/f65F1iaT+8jc&#xA;dGVxv8wa5ZLUylHhluxGMA2E/wDy21xoL59Klb9zc1eCvaVRuP8AZKPwzL7Nz1LgPItWohYt6Tm7&#xA;cJ2KuxV2KuxV2KuxV2KuxV2KuxV2KuxVhvnfzi+n103T3peMP38w/wB1AjYD/KP4ZrdbrOD0x+r7&#xA;nJw4b3PJA+QfLAmP6b1BedSWtVferV3lavv0+/wyrQaa/wB5L4frZZ8lekMf84eYZNY1R+Dn6jAS&#xA;lsg6Gmxf5t+rMPWag5J/0RybcWPhHmkWYjaz78t/MEhdtHuH5LQvaE9qbsg+j4h9Obfs7UfwH4OL&#xA;qMf8QZ/m3cRxIAqdgOpxV4T+eX5yW2k2TWNiwleQlbeJT/fOOsj/APFSH/gj+GCIy1U+CO2OPM9/&#xA;4/a32MQs/UWEfl/5Yu7G3k1rWWabzBqY53Ekm7RRndYh/L/lAfLtmD2hqhI+HDbHHl5+bfgxkeqX&#xA;1FmlrbT3VxHb26GSaVgqIOpJzXxiZGhzbya3eueVfK9tolpVgJL6Ufv5uv8AsF/yR+OdDpdKMQ/p&#xA;Ovy5TI+SeSSJGjSSMERAWZmNAANySTmUTW5anm/mvz9NdM9npLmK16SXIqHk/wBXuq/ic0uq15l6&#xA;Ycu9zcWCtywvNY5DsVdirsVdiqraXMtrdQ3MRpJC6yIfdTUZKEjEgjopFinultPHcW8VxHvHMiyI&#xA;fZhUfrzqoysAjq6siiqZJDsVdirsVdirsVdirsVdirsVdiqXeYdXTSdJnvGoXUcYVP7UjbKP4n2y&#xA;nUZvDgZM8cOI08l0ixuNa1uK3dmZ7mQvPL34/advuznsMDlyAd7nzlwxelecb9NJ8syR24EZkC2t&#xA;uo24hhQ0+SA5u9Zk8PFQ9zh4Y8Ut3jd9e29jaS3dy3GGFeTHqT2AAHUk7AdzmgxwM5ADmXOkQBZV&#xA;YXkeJHkT03ZQWjrXiT2qPDBIAHZIR2kXzWOp2t4pp6Miu3uoPxD6RksU+CYl3InGxT3LOqdW87/N&#xA;3z/Z+XtFuYjLw4R8rtlPxcW2WJf8qQ7fL55g6mcpyGKH1S5t+OIA4zyD5h8iafe+dPOFx5m1ZeVp&#xA;ZuGjiO6eoN4ol/yYx8R96V65dr8kdNhGKHOX4J+LHDE5J8Rey5zLsHqPkXysNNtRf3af6fcL8Knr&#xA;Eh7f6x7/AHZvtDpeAcR+o/Y4WfLZocmWEhQWY0A3JPQDNg47y7zp5xfU5WsbJ+OnIficbGYjuf8A&#xA;JHYfTmh1ms4zwx+n73Ow4uHc82J5r292KuxV2KuxV2KuxV7B5IuvrHliyJ+1GrRH/YMQP+FpnR6K&#xA;V4g6/MKkU9zLanYq7FXYq7FXYq7FXYq7FXYq7FXnH5naoZL2301G+CBfVlH+W/2a/Jf15pe08tyE&#xA;e5zNNHa1f8rtOBe81Fh9mkER9z8T/wDGuT7Lx85fBGplyCH/ADPvzJqNrYqfhgjMjj/KkNN/kF/H&#xA;Idp5LkI9ydNHa3hXnTzID528veX4jyjFzFcXq9ixb9yp/wBX7f3ZZotN+4yZD3ED9P6kZsnrjF6B&#xA;mncp2Ks8T80Fit44k08u6IFLvLT4goFaBT3982w7ToVw/a4v5bfm+X/zq83Xmu+Yl0WF2mMUoe54&#xA;mvqXUvRaf5Aag9yR2zadk4OGJzT5y+5x9VOyIDo9L8o+X4dA0C001APUReVy4/ambd2+/Ye2c/q9&#xA;Qc2Qy+Xuc7Fj4YgPRfIHlwahfG/uUrZ2hHAHo8vUD5L1P0ZfoNPxy4jyH3sM+ShQ5vUc3rgsB/ML&#xA;zSRy0azf/mNkU+P+6wf+Jfd45qO0NV/BH4/qcvBi/iLAM1DlOxV2KuxV2KuxV2KuxV6d+WM3LQ54&#xA;z1juGp8mRT+uub3sw/uyPNwtSPUy/Ni47sVdirsVdirsVdirsVdirsVcTTc9MVeH63fnUNWu7ytR&#xA;NIxT/UGy/wDCgZy2fJxzMu92cI0AHqHkO0+reWbUkUactM3+yag/4UDN7oIViHm4Wc3J5z5vu/rH&#xA;mTUJSdklMdewEQ4f8a5ptXLiyy97l4hUQ+W01tNS/MiDV5pAkD6nDL6jkKqwRyrxLE7ALGornWHB&#xA;waUwHPgPzr9brOO8l+b0XXvzr0SzkaHSrd9RddvWJ9KGvtUF2+4fPNLp+xMkt5nh+0uZPWRHLdiF&#xA;7+dPm+cn0FtrVe3CMufpMjMPwzZQ7FwjnZcc6yZQA/Nnz7z5fpIEVrw9CCny/u6/jl38k6f+b9p/&#xA;Ww/NZO9H/lTpM2t+cn1S8JlFlyu5pG35TyE8K+/Il/oyntbKMWDgj/Ft8Pxsz0seKdno99s7Sa8u&#xA;4rWAcpZnCIPcmmcrCBkQB1dkTQt7ZpOmQaZp0FlB9iFaFu7Md2Y/M50+LEIRER0dbOXEbQHmzX10&#xA;bSmmUg3Uv7u2Q/zEbtTwXrlWrz+HC+vRlix8ReOySPI7SOxZ3JZmO5JO5Jzmybdi1gV2Ksr8q6D5&#xA;XvQrahqSm4bpZgmKh8C7gcv9jmw0uDFL6pb93JoyzkOQZRf/AJc+X54SLVXtJafC6szrX/KVyfwI&#xA;zPydnYyNti0R1Ehzedazot9pF4bW7WjdY5F3V16clOabNhljlRcyExIWEDlLJ2KuxV6J+VjE2moJ&#xA;2EkZH0g/0zc9lnaTianmGc5tXFdirsVdirsVdirsVdirsVdiqB165Ntol9ODRkgkKH/K4kL+OVZ5&#xA;cMJHyZwFyDxDOWdk9y0iAW+lWcFKelBGh+YQDOqwxqAHk6yZsl88fmFq/wBV8v65qIajtHN6bDs8&#xA;xKIf+CcZotLDxM8R3y/a52Q8MD7ny/nbundirsVdir3v8ntF+oeU1u3Wk+pSNOSevpr8EY+WxYfP&#xA;OR7Yz8eaukdnaaSFQvve5fllpAkuZ9UkWqwfuoCf52FWP0Lt9ODszDZMz0XUz2p6Lm5cN495w106&#xA;vrEkkbVtIP3VsOxUdW/2R3+Wc5rM/iTvoOTscUOEJHmI2JF5y802vlvRZb6Wjzt+7tIO8kpGw+Q6&#xA;t7Zl6PSnPkERy6+5rzZRCNvD9P8AzL852V29wuovOJHLyQT/ALyI1NSFU/YH+oRnVZOzMEhXDXu/&#xA;H3usjqJg3b0Py5+dek3ZWDWoDYTHb6xHWSAn3H20/H55ptT2JOO+M8Q7url49YD9Wz2Pyx58vrKK&#xA;KS2uFv8ATXAKxl+aFf8AitxXj+r2zAxarJhNH5FvlijMWGa6pPpPm7y9M1mf9NtVM0cTUEqMButP&#xA;Bxt4ZsMsoajGeH6g48Qcct+TzHNE5rsVdir0L8q/959R/wBeL9TZuey+Uvg4mq6M7zauK7FXYq7F&#xA;XYq7FXYq7FXYq7FUj87yen5Wv28VRdv8qRV/jmLrTWKX46tuH6w8giT1JUjHV2C7e5pnOAWXYF7t&#xA;cv6VpK67enGxAG3Qds6uRoF1Y5vkv857wweTTCD/AL13MURHiF5S/rjGarsWF577gf1OXqzUHg2d&#xA;a6t2KorU7NbK8e0qTJCFWevaUKPUTb+R6r9GIKrLK0lvLyC0hFZrmRIox4s7BR+JyM5iMTI8gkCz&#xA;T6nsbOGysrezgFIbaNIYx/kooUfgM4DJMykZHmXdxFCntvlPTf0foFpARSRk9WXx5SfEa/KtM6PS&#xA;Y+DGA6/LK5FDeedXOnaDKI243F0fQip1AYfGfoXK9dm4MfmdmWGFyeRZzrnrXdUUu5CooJZiaAAd&#xA;SThAtXzp+YXm1/MevPLGx/R1rWKyTtxB+KSni53+VBnadnaTwcdH6jz/AB5Ooz5eOXkxfM9pdiqd&#xA;+WPOOueXLn1dPm/csazWj1aKT5r2PuN8xdVo8eYVIb9/Vsx5ZQOz3/yH+YNnrUaX2mSm01K33mti&#xA;w9RD3I/nQ+NPn4Zymp0uTTT+4/j7nZ48scgTsmpJ6V3oNhmC3OwK7FXof5WNELa/XmPVZ0PCo5cQ&#xA;DvTrSpzc9l1UnE1PMM6zauK7FXYq7FXYq7FXYq7FXYq7FUg8+f8AKJ33/PL/AJPJmJr/AO5Pw+9t&#xA;wfWHlWlpz1OzStOU8Yr83GaDELkPe58uRe06uSNJvSDQiCUg/wCwOdNm+g+4uthzD47/AD3nK6dp&#xA;NvXaSaWSlf5FUdP9nmJ2DH1SPkG7WnYPHM6V16f+SNPhutdFzcoHsdKhm1O8RhVXS0QyrE3tNIEi&#xA;/wBlkZnZQkc0ss0rzSsXlkYvI7bksxqSfmckrLvym0sX/nW0Zhyjsle6cf6g4ofod1zW9rZeDAf6&#xA;WzkaWNzHk+kdDsfr2r2doRVZZVDj/IrVv+FBzksEOOYHeXZzlQJe4Z1LrHmH5laj6+sx2an4LOMc&#xA;h/lyfEf+F45ou0slz4e5ztPGo2xHNc3vP/zh80HTNCXS7d+N3qdVcjqtuv2/+Drx+Vc3HY+l48nG&#xA;eUfvcXV5OGNd7wrOsdY7FXYq7FUdous6ho2pQ6hYSGO4hO3cMD1Rh3Vu+VZ8MckTGXIsoTMTYfTe&#xA;kX0l/plreS272sk8au9tKKOjEbqa5wuaAhMxBuuruoSsWmllp19fS+lZwPO/cIpNPme305GGOUjU&#xA;RamQHNPIvy98zunJoEjP8rSLX/hScyx2flPRqOoig7jSPMnl+4S7eGS2eM1S4Qhl+RZajfwOVSxZ&#xA;cJuqZCcZ7PTPK/mODW7D1aCO6iotzCOx7MP8ls3ml1Iyxvr1cLLj4SnOZLW7FXYq7FXYq7FXYq7F&#xA;XYqkfneP1PK1+vWio23+TIrfwzF1ovFJtw/WHlGksF1WyY9FniJ+hxnP4j6x7w58+Re2ahH6lhcx&#xA;0rzidafNSM6fILiR5OsjzfFn59SxmTRIgwMircsyV3CsYgpI9+JzH7ABqZ936W3Wnk8nzoXBehaL&#xA;ZHSfyZ8wa644za/qFrolq/Q+jB/ptxT/ACWaONT8qZWTcwO5PR57liHrf5EaeOOq6iw3rHbxt97v&#xA;/wAa5zvb2T6Y+8ufoo8y+hPy3tPW8wmYja2hdwf8pqIPwY5rezoXkvuDfqDUXqZIAqdgOpzfOC8N&#xA;1e9N9ql1dk1E0ruv+qT8I+gZy2afFMnvLtICgAhMqS+b/wAw9dOs+bL24VuVvA31a28PTiPGo9ma&#xA;rfTnb9nYPCwgdTufi6jPPimWNZmtLsVdirsVeu/lR+XkfpxeYdXi5M1H023cbAdRMwPc/sff4Zzv&#xA;a3aO5xQPvP6P1ufpcH8R+D33yj5Om1l/rNwTFpyNQsNmkI6qv8Tmr0mjOTc/S5GXNw7DmzK/8yeW&#xA;/LUIsbZA0if8esFKg+MjHv8APfNlk1OLAOEfIONHHKe5Y9N+aWoF6w2MSJ2Dszn7xw/VmHLtSXQB&#xA;uGmHemWk/mNp9631XVbcW4k+EyV5wmvZwR8I+/L8XaMZbTFfcwnpyNwhdY0yTytqcWu6UOWnSHjc&#xA;24NQFfsD/K37PgcrzYjgmMkPp6soS4xwnmzq0uoLu2iuYG5wzKHRvY5tYTEgCORcUijSrkkOxV2K&#xA;uxV2KuxV2KuxVL/MMBn0LUIgKlreTiPcKSPxGU6iN45DyZ4zUg8VgkMU0co6owYfQa5zETRt2Re6&#xA;3V3a2tpLeXEix2sEbTTSt9lY0XkzH2AFc60buqfnZ5w8wyeYPMV5qRqIZHK2sbdUgU0jX503PvXM&#xA;7S6cYcYiGrLkM5WkuZDB6/8AnFZjQPy4/LjywBwm+pT6tfJ+16t6yOvIeKVdf9rKMRuUiylyDyDL&#xA;2L1f8mfN1hbK/l25UQzXErTW09fhkdlVTG3g1E+Hx6fPn+2tJKX70bgCi52kygekvqD8rLakN/dE&#xA;faaOJT/qgsf+JDMPsuO0i2ak8gyrzHdm00K/nBoywuEP+Uw4r+JzYaifDjkfJoxi5B4nnLuySfzf&#xA;q/6I8s6jqAbjJDCwhbwlf4I/+HYZk6PD4mWMe8/2teWfDEl8xZ3bpnYq7FXYqzH8u/JU+t+YUW+g&#xA;dNPtFS5uQ6leavvEgr2k6/6tc13aWs8HHt9Uth+tv0+LjlvyD6a8reXpNY1JLZQUtYgGuHUfZQdh&#xA;7noM5XTYDlnXTq7LJPhDJ/NfnFLJP0LoZESQgRyXEZ+yAKcIz4ju2Zuq1nD6MfRpxYb9UmBEkkkm&#xA;pO5JzVOU7ArsVZ55H1uC/sZfLupNyWRCtsW7oRvGD4r1X+zNtoswnE4pfBxc0KPEFbyjqE+iaxP5&#xA;b1BqRlybSQ7DkdxSvaQbj3+eS0mQ4pnFL4fjzRljxDiDO82ziuxV2KuxV2KuxV2KuxVbJ6fpt6lB&#xA;HQ8ydhSm9cB5bq8GnNut1NDDIJFjY8T3KEkKxHUcqZykhR25O1BTP8+/OMun/kchgk43OuehppdT&#xA;uAyl5/oZIWQ/POs7PPGInydVnFEh8a5tnHTPyvpJ1nzLpOkDf9I3lvabGn9/KsfXt9rBI0LUPU/+&#xA;cr78XH5pJaJRY9O062t1QbAci82w6dJRlOnHpZT5vGcvYr4pZIpUliYpJGwZHU0IYGoIPtgIBFFQ&#xA;X3d+Q+qfpf8ALfT9VanrXjO09P8AfsZEL7dvijrmkxafweKP9Jy55OKj5Jz+Y9z6Xlto6/70TRx0&#xA;+VX/AONMxu0ZVirvLZpx6nlWaBznnH54aj6Hl20sVNGvLjkw8UhUkj/gmXN32HjvKZdw+9xNZKog&#xA;Jz+UX/OLsmr2UGu+dnltLSdRJa6PEeEzo26tO/WMEfsD4vEr0zf5dRWwcCMO99CaL+WH5eaJCsWm&#xA;+XbCHiKCVoEllI/ypZA8jfS2YxySPVs4QgfOM35QeX7T1PNNvo1tEVJSC5t4HkdTseEPBpH/ANip&#xA;wx4jytBp5R5q/M38stH8jy+ZvKnk/T7K9vp3svLl3LYWsLzND/f3aoichFCSAvI1Z9io3y6OORNE&#xA;sSRSWeRrS/XRBqeqzPc6xrLG/wBQuZTV2eUVUHw4pQU7Zy/aefxMpA+mOwdlp4cMfMvVri7/AMM+&#xA;V4bKA8dW1NfWuHGzRxsKD5Gmw96nJyn4GIRH1y3QBxyvoHi35i/mFH5agS0sws2r3C8kVt1iTpzc&#xA;dyf2R/mT2d2ec54pbQH2rqM/BsObE/ImmeYPOf1rU9V1++iggl9NYraQx1YgMeNPgQCo6Jmx1+XH&#xA;pqhCESSOo/H3uPgjLJuZF6z5Y8t3CXUOnRX91eG4dUQ3jrKVqd258Q5oPEnNGZeNIARjEnu2cwDg&#xA;HMlNNV0fUNKuTb3sRjb9huqOPFW75XlwyxmpBlGYkNkJHI8brJGxR0IZWU0II3BBGVg1uGTKJ9Xt&#xA;fMVlFHdutrrtqKW90SEjmA34s23BvCu1fCuZ0swzRHFtkHI97QIGB2+llflnzhFcINP1Zha6pDRG&#xA;9X4RJ4Gp2De3ftmw02sEvTPaQaMmKtxyZTme0OxV2KuxV2KuxV2KsG/Mrzbbafp81gkwjbgXvpa7&#xA;RwqORBPYkdfb55rddnP93H6i5GCH8R5PmL8vfO0mqfmBqhmYrDqyH6rGx+z9WqYl/wCRXIn3y7tH&#xA;QjHpo1zhz+PP7UYM3FkPmjvNWqS+YfNOqWd0frGk+S9Fvbu2tG+KP6zKqoJCp2PGe4jJ/wBT78zs&#xA;uBjgj/SLTqTcz5PFc2zjPQPyDsRffm/5ZhIrwuXnpt/x7wvNXfw9PK8x9JTHmq/85C3n1v8AOPzJ&#xA;JWoSWGEddvRtoo+/uuDCPQFlzedZah2Kvo3/AJxO/My3srm48janMI472Q3OjO5oPXK0lgqf5woZ&#xA;PcHuRmLqcf8AEGcD0e1/mnPS20+Cv23kcj/UCj/jbOe7UltEOfphuXnmaZy0s8v+U7Tzf+b+mxXq&#xA;CbS/LVmdRuom3QzyyBYI2+lA9D1C50XZIMcMpfzjXycDVG5Adya/mX/zlXo2h3k2l+UrWPWb2ElJ&#xA;dQlZhZq4NCECUeaniGVfAnNrj05O5cYzeFeYvz8/NfXS4n16azgbpb2FLRQD25RcZCP9ZzmTHDEd&#xA;GsyLG9A0HUPMl/Pc3dyYdPtgJ9Z1m5LMkERNOTMas8j/AGY0HxO2wyUjSAE01/XU85+b9LsLOFrT&#xA;QrY2+l6NZEgmGzRgvJyNjI9TJI3dj8sqyS8PHKXUAlnEcUgH0hoFnDcatZ28lFtw4Mo6ARR/E/8A&#xA;wqnOIwR4pgF3EzUXa7qr6lqVzfymiyMSoP7Ma7KPoUY5shyTMu9YR4RT5P8AMesTazrl7qUpJNzK&#xA;zID+zGNo1/2KADO402EYsYgOgdNknxSJe9flroMui+UrWCdOF1cFrm4Q9Q0lKA+4QKDnI9pagZcx&#xA;I5DYO108OGD138s9JM1/NqUi/u7ZfThJ/wB+ON6fJf15Z2biuRl3MNTPanod3Z2l5CYLqJJom6o4&#xA;BH45uJwEhRFuICRyYrqH5Z6POxazmktGP7P94g+QYhv+GzAydmwP0mm+OpI5pPL+VupBv3V7Cy+L&#xA;Kyn7hyzGPZcuhDYNSO53/KsdYcqJL2Hioov22oOtACBj/Jk+pC/mR3Mg0byZd2HESazdNGvSGImN&#xA;PlQl/wCGZmHRmH8Zap5gegZOqhVCipAFKk1O3uczmhvFXYq7FXYqgtbGpHSrj9GMFveBMRIrv3Ar&#xA;tWnSvfKs3FwHh+plCr35Pmf80NI8x6v5fuLbTpG+tGTneQNUSTKKlk5H9rluQevTNP2dmhjzcWT5&#xA;9xczPAyhUXgOl313outW94EaO5spldomBVqofiRgdxUVBzrsuOOXGY9JB1cZGMr7nrHk+yTXfN35&#xA;kx2jeot75XvLm1K/tEtaTxj6aAZiaUGOGAPMGvvDbl3mXjGbBoesf84vwtJ+cOmOFDCGC7ck0+EG&#xA;BkqK/wCvTKdR9DKHNjP5xu7/AJqeaixLEalcLU+CuQB9AGTxfSES5sNyaHYqvhmmgmjngkaKaJg8&#xA;UqEqyspqrKw3BB6HFXvPl78+/wDEVpp+m+a5Fg1KzQxLqbUEdxUijS7Ujeg3P2T7dM0HaugnKpQF&#xA;gdHN0uYDYsynvrOCze9mmRLSNPUecsOAUb1rnOxxyMuEDdzzIAW8lk/M2ey8leaJdPlMWq+cNT+q&#xA;PIuzx6bZwg8a9i4uAny5Z2un0whGMf5o+11GTJxEnveV5mNS+JkSVGdBIisC0ZJAYA7gkUO/tiqa&#xA;av5o1TU7SDT29O10q2Ja30y1X07dGOxcrUtJIRt6kjM9O+ARAW0x/LKH1fPWkpStHd/D7ETv/wAa&#xA;5g9pmtPL8dW7TD1h9JW9w8DOyfadHjr4CRSrf8KSM4yMqduRaDvoHnsriBCA8sTopPQFlIGHHKpA&#xA;+aJCw8s8hflJe22opqXmJERbZuVvYhlk5OOjSFSV4jqBXfv4Hf6/teMo8OLr1cHBpSDcnrsMMs0q&#xA;QxKXlkYKiDqWJoBnPAEmg55NPafL2kJpOkwWQoXUcpmH7Ujbsf4D2zp9Ph8OAi63JPiNpjlzB2Ku&#xA;xV2KuxV2KuxV2KuxV2KuxVINf8laTq7mcg212es8dPi/11OzfrzEz6KGTfkW3HmMXjn5n/kVFe2U&#xA;l3MqGZBSPU4BSReyiZD9pfpNPEZj45ZtJuPVj7vxybJCGXyk89/5xqtbnRvznn0e+Ues9ldWkqE1&#xA;VgvCTav2lKx1Htm+nkGTEJR5FwhExlReT+bNFbQvNGr6MwI/R15PaivdYpGVT9IFcyomxbWXoX/O&#xA;L1x6X5w6YnID17e7joeppAz0Hv8ABXKtR9DKHNjn5020tv8Amv5pjkFGbUJpB1+zKfUXr/ksMli+&#xA;kIlzY1omjXGrXrQRHhFDFJc3c5FVit4FLyyHp0UbDuaDqcmTSEvwq7FXYqu9STh6fM+mNwlTSvyw&#xA;UOatVNKV2G4Hzwq1irsVbIIJBFCNiDirJPy4uVt/O+kSMaBpjHX3lRowPp5ZhdpRvBIeX3N2nNTD&#xA;6QziHbuxV2KvR/IXlJrVV1W+Slw4/wBGhYbop/bI/mI6eAzdaDScPrlz6OHny3sGbZtHGdirsVdi&#xA;rsVdirsVdirsVdirsVdirsVSzzR/yjuo/wDMPJ/xHKNV/dy9zPF9QfM3kuJrb/nJ/R2Q0F7bzPIP&#xA;ECwmX9cQyfZ0r0vuP6f2rqBWRhv/ADk1o66d+b2qSIAseoxW94qjxaIRufpeJjm0wG4uNPmkf5I6&#xA;umk/mx5Zu3bgjXi2zMegF2rW+/t+9yWUXEojzZl/zlN5WubX81ku7aJpP8QW8EkSoCS08YFsY1H8&#xA;1I0O382Q08vT7kzG6T/mPpFt+XOhQeRrWQTeYNUiivPNd6v7K15wWERH+61Yeo/8x4n2BgeI8XTo&#xA;p22eW5cxdirsVTTyxfadZa7aTapALnSmf0tRg7tbyfBLxO9HCnkjDowBwSG2yhG+fvKFz5R82X+h&#xA;TP60du4a0uh0mt5AHhlFNviRhWnQ1GCEuIWpFMeySuxVlXnHRimkeW/MkScbbXbIpJ/zF6e5tZ6+&#xA;JcIkpPcuchE7kdySxq0uZrW6huoTxmgdZY28GQhgfvGGcRIEHkUA0bfTflrzFYeYNJh1CzcEOAJo&#xA;q/FHJT4kb5fj1zhdTppYZmMv7XdY8gmLCa5js2e+QPKkE0S6vfR8/i/0SJvs/D/uwjvv0zb6DSgj&#xA;jl8HFz5egegZt3EdirsVdirsVdirsVdirsVdirsVdirsVdiqVea3VPLeoljQGBl+lth+JzH1RrFL&#xA;3NmL6g+fPJ1lJe/85H6JNGDx0zSp55v9VknhH43C4Oy9tMfOX6k6n+8HuYx/zmAB/wArL0330aD/&#xA;AKirnNvpvp+Li5ObxCCeWCaOeFzHNEweN12KspqCPkcyGD7ltLDR/wA09B8jeckKLd6VdRahQ1IW&#xA;RPhuYNv5Zo1YH/IHY5riTAkN3Pd8m/nbd3F3+bHmiWc8nW+khB/yIaRRj6EQZm4h6Q1S5oLyd5TG&#xA;t6N5qvgvqz6JpovLeAVqWNzEkjkDcrHCZCfemGUqIUBiuTQ7FXYq9k/5yI0xrWx/L64uv+OnJ5dt&#xA;re+B+1yt0U1bb+aVsowHn72UujxvL2LsVeyrow1P/nFo6gwHq6DrrPG/cRTiOJ1+RknU/QMousnv&#xA;DL+F41l7FnX5T6L5hvdcF3p9zJZWFuR9enTo46iLiaqxb3Hw9fDNV2tnxxx1IcUjy/W5OlhIysbB&#xA;9K+VfLc+t34QgrZxENcyjw/lH+U2c1pdMcsv6PV2GXJwjzewwxRwxJFEoSKNQqIOgUCgAzowABQd&#xA;cSuwq7FXYq7FXYq7FXYq7FXYq7FXYq7FXYq7FUr80afNqGgXlpBvM6Axr4lGDhfp40yjVYzPGQOb&#xA;PFKpAvmjzXdeY/KfmGy8++Xl53enRtbapZsDxmtGapDgUNAevhs37OYnZOoiLxS68ve3arGfqDHf&#xA;ze83eV/zUitvMekO+n+YtKtDDfaJdgVmt42aUvazKeEnpeo5ZWCsVqQNs6HFEw2PJwJG3jWXsXr/&#xA;APzj9+dK+RNTl0nWWZvLOpSB5XUFjaz0C+uqjdlZQBIBvsCOlDRmxcW45soypNf+clPy+c6v/wAr&#xA;D8vldQ8ta2kb3N3bESRxThRHzqlfglCg8v56g9qjBPbhPNMx1QP/ADi3rGk6P5w12/1q5itNHj0W&#xA;YXU1wQIqm5t+Kmv2mYcqL1PbDqASBXeiDyzzPcaPc+ZNUuNFhNvo8t3M+nwN1S3aQmNadqLTbtl0&#xA;brdiUswqzf8AJvyFJ528/afpLoTp0LfW9UfsLaEgsv8Az0YiMf62V5Z8MbTEWWTf85C6zN5s89a1&#xA;f6eVl0nyv9X0olO1Wk5yUApxFxySv+rkcI4YjzTLcvIsuYuxV9LflpprXn/OKvmyJlNOV9cp7i3j&#xA;ilr26GLMTIf3gbB9LxHyT5D1PzNdgqGg0yNqXN4Rt7pHX7T/AKu+V67XwwR75dAyw4DM+T6Z8jeQ&#xA;1lhi03S4Ra6bbbSTUqB3P+u7Zy8MeTUzMifeXYylHGKD2bS9Ls9Msks7ROESdSftMx6sx7k5vcWK&#xA;MI8IcKUjI2UXljF2KuxV2KuxV2KuxV2KuxV2KuxV2KuxV2KuxV2KsQ82+RIdTMl5YBY71qmWI7JK&#xA;e/8AqsfuPfxzXarQifqjtL73IxZ62PJ8l/m7+W1t5fL6pZKbdDP6N3YU+GJ25Hkh7LVacfu2zM7M&#xA;185y8LJ9Q6tWowgDijyef6pZLBDp1wo4pfWonVfdJZLdj9LQE5ugXEQGFXsX5KWXmfUfJvnNfLWp&#xA;XVrrWlx293aWMberbXUTiUXEMlrIHhdmVBxJWtdumUZSARbKLyK6uJLi5knlVFkkYs6xRpCgJ/lj&#xA;jCIo9lAy9ipYq7FX015big/Jr8jZ/MMyhPOPmlFFmrUDx+opMC+NIYyZW/yjxPbMSX7yddA2DYPN&#xA;fyO0s69N530mY8xd+Wb2Uct63EM8EkLknfaTfLcpqj5sYvL8uYuxV9S/lpdXek/lCvlS8tOMmpC6&#xA;/SAlI2gu6qY1CnYtGdydxWlK75zeu7UHEfD597n4dMa9TNPJn5etdQQl4hY6REAIo0UIXUdkXsv+&#xA;VmBg0k8x458vtLfkyiAoPU7OztbO2S2tYxFBGKIi9M3cICIocnCJJNlWySHYq7FXYq7FXYq7FXYq&#xA;7FXYq7FXYq7FXYq7FXYq7FXYq+fvz20M3dt5htQtWaMXUO25ZFWbb5spXNRGfhawHz+9yyOLE+eG&#xA;tF1L8uEvIxW68v35guh3+qagvOBv9VJ4JQfeQZ1V1L3ut6MVyaHuP/OIurC1/Ma9sHYBNR06RUHc&#xA;ywyJIP8AhOeY+pHpZw5sS/5yC0yw0384PMVpYQJbW3qQTelGKLzntYppWA7cpJGOTwm4BjLm87y1&#xA;CZ+WLS2vfMuk2d0QLa5vLeGcnp6ckqq1foOCR2UPXv8AnIm91bzd5y1gWDetpnk70rL6onVfUQvP&#xA;NxHhIvBvZR4HMKGaOMxjLbj5fqbjAyBI6I//AJxJ0z1LzzfqnH/ebTktQ3/MQzyEf9O+W6k8gwg8&#xA;J03S9R1O7W00+3e5uH6Rxipp4nsB7nLcuWOMcUjQYxiZGg9k8g/lBHY3EN9rCi81KoNvZR/HHG/a&#xA;v87j7h79c5vW9rSyejHsD8y7DDpRHeT6P8rfl/BbLHeasoluftLamhRD/ldQx/DBpdAI+qfPuXLn&#xA;vYM1ApsOmbNxnYq7FXYq7FXYq7FXYq7FXYq7FXYq7FXYq7FXYq7FXYq7FXYq89/NLTP3lrqIWqOp&#xA;t5vCoqyV+dWzUdp49xP4OXppcw+WdEgsvK35gaj5Z1lvS8ueYIn065mahEdvcsGtrnfatvMqOT/k&#xA;nOg02fxsQmOf6erg5IcEiGC+YdC1DQNcvtF1FOF7YTPBMBupKGnJT3Vhup7jMyJsW1EMi/JzzANA&#xA;/M/y5qTNxiF4lvOx6CK6Bt5CfkspORyxuJTE7sm/5ygsHtvzh1OZgaX0FpOlfBbdIdtvGE5DTn0J&#xA;nzedeW/LmseZNbtdF0e3NzqF4/CGMbDxZmJ2VVAqSegy2UgBZYgPpnTP+cRdHg8q3CXWqSSebZIw&#xA;1rfRkpa20ykMoVB8bg04szdtwoOYh1JvybOB555SPmbTPzW8yab5ph+r6zqRkurtBujSmT1Q0Zqa&#xA;xskrFd+ma7tmAlhjIfwlyNJKpkHq9L8tQp5ch1G20GJbKPVzW8jiUfE3Ep8FalNmP2aZqI9pZqAu&#xA;3KOnhzTbyj+U80FusVjYx6TZHdndaO3uVPxsf9Y/Tk/y+fOeKZ+f6keJCAoPT9B8p6ToyhoE9W6I&#xA;o1zJu3vx7KPlmywaSGPlz73GnlMk5zJa3Yq7FXYq7FXYq7FXYq7FXYq7FXYq7FXYq7FXYq7FXYq7&#xA;FXYq7FUHrGlwapp01jNssq7N3VhurD5HKs2IZImJZQlwm3zH+b/5dXeoWkiCHjrem1MIH+7YzuUB&#xA;78vtJ7/M5rdBqTpsphP6Tz/W5OfGMkbHNhMug6n+ZvlCDVdKha785+Wo0sdZskFZ7uxQcbW5Rery&#xA;RBfSkG7Gin59OJCJ8i66rYWnkDz8ZQieW9V9WtFVbK55cvYBK1yzjj3saL6C/NL8p/O/5nW3kzzB&#xA;ZWQs9Vl00W2vJqFbVreSMhgXjYeqQZJJeidKeOYuPIIWGwxJem/lD+TWh/l3pjmNhe67dqBf6ky0&#xA;2G/pQg1KRg/Sx3PYCrLlMvcyjGmeX19aWFlPfXkqwWlrG01xO5oqRoOTMx8ABlQFsniX5/6ZDDr3&#xA;kjzrbrwLXQ0q6cjiTFeIzQ8q9OH7zr44M8eLDOPlfyTA1MFmH5WtGbm+Ro1LhUdJCByXcggHrvXN&#xA;P2XzLl6nkHomblw3Yq7FXYq7FXYq7FXYq7FXYq7FXYq7FXYq7FXYq7FXYq7FXYq7FXYq7FXYqwz8&#xA;zNK9bTodRRfjtW4Skf77k2Ffk1PvzWdpYriJdzk6aVGnz/5avv8AAv586bqJPo6P5lra3J6LzuCF&#xA;NT02nEch9jmf2dm8XT8P8UPwP1NOohwzvoX1nljB2KpX5p8x6b5a8vahr2pMVstPhaaWlOTEbKi1&#xA;oOTsQq+5wxjZpBNMAmn1381vyIvZhbDStS1uCZ7O3RiwKwXBaBCzAbTLEFY+9R4ZbtCfuRzDBPzA&#xA;/Ma086eRPIdkgC6/qmpQ3V9Z/twDTjJHcuydVUyAlK9RXwyGceHCZPLhP28kw9UgPN6Z+VkDme/n&#xA;p8AWNK+JJJ/hmk7LjvIuZqTyehZuHEdirsVdirsVdirsVdirsVdirsVdirsVdirsVdirsVdirsVd&#xA;irsVdirsVdiqjeWkN3azWsw5RTIUcezCmRnASBB6pBo2+dvzL/L1tRgl0e7Y291byerZXYFRUVCs&#xA;PFWHXf8AEZpMGaeky7ix94c2cBlin/5VfnXqY12HyF58CR65xVNO1hD+6u9vgWStKSPTZv2jtQN1&#xA;6CBjlh4kOX3OAQYmi9pv7+zsLR7u8lENvHTk5qd2IVVAFSzMxCqo3J2G+RAtLzvzX5M1P8xtd0ld&#xA;WglsPJGlu9xcWE7lJtSnNPS5woaxRR0J/eEPuRxHXLIy4RtzYkWz+STSdD0dnb0rDSdNgqaAJFDB&#xA;CvYDYKqr0GV7ksny/wDlz5YhutUvvMS2vp3uv300unJIKNHa3EpaMUH2S3Kpp2pmr7U1JyTGKJ2H&#xA;3uVpsYjHiL6Z8u6HDo2mJZxnm9S80lKcnPU/hQZmafAMceENGSfEbTPL2DsVdirsVdirsVdirsVd&#xA;irsVdirsVdirsVdirsVdirsVdirsVdirsVdirsVdiqB1jRbDVrRre7jDbH05afGjH9pTlWbDHIKL&#xA;OEzE2HzZ+ZH5e3V/cI8RW11/S3/0eSVQ0bqDXg6sGDKeoqCPoOavRauWmmYyHpPP9YcnNiGQWObK&#xA;vI358XWn2Qs/zMgnt7+3NIryDTWMFBUcvWt5Jldiv8kSAdN83YnjnvjkD8f0OGYyjzDKbv8A5yF8&#xA;iGM/oaHUtdmP2I7OxnRa9uT3KwKor1OCXDH6pRHxUAnkGEeYda81+eJFHmFE0zy/G4ki8u27+qZm&#xA;U1Vr2YUEgU7iNRx6VrTNXqe0wBw4uf8AO/V+tycemPOXyej+QPKMkLpq19H6fEf6HAwodxTmR22+&#xA;z9/hkNBpCDxy+H6058vQM+zbOK7FXYq7FXYq7FXYq7FXYq7FXYq7FXYq7FXYq7FXYq7FXYq7FXYq&#xA;7FXYq7FXYq7FXYqlmteXNJ1iMLeRVkUUSdDxkUex/gcozaeGT6gzhkMeTEbv8rJQxNpfKV7LKhBH&#xA;+yUmv3Zrp9lnpJyBqe8KUP5W35b9/fRIviis5+48MjHsuXUhJ1I7mS6L5G0TTHWYqbq5XcSzUIU+&#xA;KoNh+OZ2HQwhvzLTPPKTIczGl2KuxV2KuxV2KuxV2KuxV2KuxV2KuxV2KuxV2KuxV2KuxV2KuxV2&#xA;KuxV2KuxV2KuxV2KuxV2KuxV2KuxV2KuxV2KuxV2KuxV2KuxV2KuxV2KuxV2KuxV2KuxV2KuxViX&#xA;/KyNMEtrHJp95D9cWCWGSb6tFF6F0SIZmledUXmVYCMn1TTZMVS22/OjyxcWUN4lrdCOaNZUXlZl&#xA;+LxxygBVuG5sFlHJUqV35UGKprJ+YulJwX6ndSTTIZYI4TbTCSNCyu6yxzPDRHCo9X2Z0r9oYqsb&#xA;8zvLsWopptyk9tqBQyT20gj5Qhbj6ufUKSMp6PKShYCNGY9BVVDQfm55XmtkujFdR27QyzGZkjKI&#xA;0TFfRdlkZUkb4OIY0/eIK1YDFU5uvNkcFzPCmm3lwkMy2qzxfV/TkuG4fuk5zI1Rz3ZlC7HfxVS6&#xA;z/M7y7c3hsTHcwX63kVg1pLGvMSyEK5qjuhSGSscjBqBqUqGQsqy7FXYq7FXYq7FXYq7FXYq7FXY&#xA;q7FXYq7FXYq7FXYq7FXYq7FXYq7FUt8y3lxZeXNVvLZ/TubazuJoXoDxeOJmU0IINCO+KvF4fOnm&#xA;d47eb9I6sfWaORgbZVtfQmELKFuhIWMgW5Xf0uLMOICghsCpE3n/APNc6ZdXEEl1LdxSKptpI5YR&#xA;GKAkeoVcMWctEDSiFfVf9260UNx/mH+atVeY3trGLQzh5IiGJCswkYH1Ei+zyKOTw48GqZEIVexJ&#xA;/wAqq9E+n9Q9LmlfTpTh+x9n/j38P91YUoy7/wAAfoK0+s/Vv0R9Ut/qda8PqtV+r8Kb8en0ddq4&#xA;qtj/AMD/AKFevL9H+hcV9f616vo84vXp6v76nP0+nelMVW2//Kt/0XP6P1P6h60n1mvT1vq7+r6l&#xA;fi5ej6nqcv8AL5b8sVdH/wAqz/Q156X6P/Q/1e6+u8OHoehxi+tc6fDTj6XL6MVa1D/lW31u5+v/&#xA;AFT618H1j1a8/VrH6dK7+v8A3fHj+8+xT9nFUdYf4K+rr9R+qej6sXp+lx/vK2/p8ab/AGvq9ad+&#xA;Nd8VT/FXYq7FXYq7FXYq7FXYq7FXYq7FXYq7FXYq7FXYq7FXYq7FXYq7FUs80for/DWrfpfl+ifq&#xA;Vx+kePLl9X9JvWpx+KvCvTfFXy7c/wDKqP8AAEf1j/lYP+Bqn0ufofUa8zXj+zXlWv8AsvfFUbaf&#xA;8qS/T/lj0v099e/R/wDuC5/oX0fqv1IV9Xl+75+h19X4+f8AlYqtu/8AlRX+Fdf+u/p79D/pS4/T&#xA;Pqfon6x9b9e39f06f6Tw9X0f7rbr25Yq/wD/2Q==</xmpGImg:image>
               </rdf:li>
            </rdf:Alt>
         </xmp:Thumbnails>
      </rdf:Description>
      <rdf:Description rdf:about=""
            xmlns:xmpMM="http://ns.adobe.com/xap/1.0/mm/"
            xmlns:stRef="http://ns.adobe.com/xap/1.0/sType/ResourceRef#"
            xmlns:stEvt="http://ns.adobe.com/xap/1.0/sType/ResourceEvent#">
         <xmpMM:OriginalDocumentID>uuid:9E3E5C9A8C81DB118734DB58FDDE4BA7</xmpMM:OriginalDocumentID>
         <xmpMM:DocumentID>xmp.did:F97F117407206811822A8451A1857300</xmpMM:DocumentID>
         <xmpMM:InstanceID>xmp.iid:F97F117407206811822A8451A1857300</xmpMM:InstanceID>
         <xmpMM:RenditionClass>proof:pdf</xmpMM:RenditionClass>
         <xmpMM:DerivedFrom rdf:parseType="Resource">
            <stRef:instanceID>xmp.iid:F77F117407206811822A8451A1857300</stRef:instanceID>
            <stRef:documentID>xmp.did:F77F117407206811822A8451A1857300</stRef:documentID>
            <stRef:originalDocumentID>uuid:9E3E5C9A8C81DB118734DB58FDDE4BA7</stRef:originalDocumentID>
            <stRef:renditionClass>proof:pdf</stRef:renditionClass>
         </xmpMM:DerivedFrom>
         <xmpMM:History>
            <rdf:Seq>
               <rdf:li rdf:parseType="Resource">
                  <stEvt:action>saved</stEvt:action>
                  <stEvt:instanceID>xmp.iid:F77F117407206811822A8451A1857300</stEvt:instanceID>
                  <stEvt:when>2013-10-06T17:09:14+13:00</stEvt:when>
                  <stEvt:softwareAgent>Adobe Illustrator CS6 (Macintosh)</stEvt:softwareAgent>
                  <stEvt:changed>/</stEvt:changed>
               </rdf:li>
               <rdf:li rdf:parseType="Resource">
                  <stEvt:action>saved</stEvt:action>
                  <stEvt:instanceID>xmp.iid:F97F117407206811822A8451A1857300</stEvt:instanceID>
                  <stEvt:when>2013-10-06T17:26:17+13:00</stEvt:when>
                  <stEvt:softwareAgent>Adobe Illustrator CS6 (Macintosh)</stEvt:softwareAgent>
                  <stEvt:changed>/</stEvt:changed>
               </rdf:li>
            </rdf:Seq>
         </xmpMM:History>
      </rdf:Description>
      <rdf:Description rdf:about=""
            xmlns:xmpTPg="http://ns.adobe.com/xap/1.0/t/pg/"
            xmlns:stDim="http://ns.adobe.com/xap/1.0/sType/Dimensions#"
            xmlns:xmpG="http://ns.adobe.com/xap/1.0/g/">
         <xmpTPg:NPages>1</xmpTPg:NPages>
         <xmpTPg:HasVisibleTransparency>False</xmpTPg:HasVisibleTransparency>
         <xmpTPg:HasVisibleOverprint>False</xmpTPg:HasVisibleOverprint>
         <xmpTPg:MaxPageSize rdf:parseType="Resource">
            <stDim:w>209.999929</stDim:w>
            <stDim:h>210.001308</stDim:h>
            <stDim:unit>Millimeters</stDim:unit>
         </xmpTPg:MaxPageSize>
         <xmpTPg:PlateNames>
            <rdf:Seq>
               <rdf:li>Cyan</rdf:li>
               <rdf:li>Magenta</rdf:li>
               <rdf:li>Yellow</rdf:li>
               <rdf:li>Black</rdf:li>
            </rdf:Seq>
         </xmpTPg:PlateNames>
         <xmpTPg:SwatchGroups>
            <rdf:Seq>
               <rdf:li rdf:parseType="Resource">
                  <xmpG:groupName>Default Swatch Group</xmpG:groupName>
                  <xmpG:groupType>0</xmpG:groupType>
               </rdf:li>
            </rdf:Seq>
         </xmpTPg:SwatchGroups>
      </rdf:Description>
      <rdf:Description rdf:about=""
            xmlns:pdf="http://ns.adobe.com/pdf/1.3/">
         <pdf:Producer>Adobe PDF library 10.01</pdf:Producer>
      </rdf:Description>
      <rdf:Description rdf:about=""
            xmlns:xmpRights="http://ns.adobe.com/xap/1.0/rights/">
         <xmpRights:Marked>True</xmpRights:Marked>
         <xmpRights:WebStatement rdf:resource="http://www.ospreydawn.com"/>
         <xmpRights:UsageTerms>
            <rdf:Alt>
               <rdf:li xml:lang="x-default">This work is licensed under a &lt;a rel="license" href="http://creativecommons.org/licenses/by-nc-sa/3.0/"&gt;Creative Commons Attribution-NonCommercial-ShareAlike 3.0 Unported License&lt;/a&gt;.</rdf:li>
               <rdf:li xml:lang="en_us">This work is licensed under a &lt;a rel="license" href="http://creativecommons.org/licenses/by-nc-sa/3.0/"&gt;Creative Commons Attribution-NonCommercial-ShareAlike 3.0 Unported License&lt;/a&gt;.</rdf:li>
               <rdf:li xml:lang="en">This work is licensed under a &lt;a rel="license" href="http://creativecommons.org/licenses/by-nc-sa/3.0/"&gt;Creative Commons Attribution-NonCommercial-ShareAlike 3.0 Unported License&lt;/a&gt;.</rdf:li>
            </rdf:Alt>
         </xmpRights:UsageTerms>
      </rdf:Description>
      <rdf:Description rdf:about=""
            xmlns:cc="http://creativecommons.org/ns#">
         <cc:attributionName>Max O'Brien / Osprey Dawn</cc:attributionName>
         <cc:license rdf:resource="http://creativecommons.org/licenses/by-nc-sa/3.0/"/>
      </rdf:Description>
   </rdf:RDF>
</x:xmpmeta>
                                                                                                    
                                                                                                    
                                                                                                    
                                                                                                    
                                                                                                    
                                                                                                    
                                                                                                    
                                                                                                    
                                                                                                    
                                                                                                    
                                                                                                    
                                                                                                    
                                                                                                    
                                                                                                    
                                                                                                    
                                                                                                    
                                                                                                    
                                                                                                    
                                                                                                    
                                                                                                    
                           
<?xpacket end="w"?>
	</metadata>
<g id="Layer_2">
	<g id="_x37_Wl2mV_1_">
	</g>
</g>
<g id="Layer_1_1_">
	<g>
		<path fill="#BCA05A" d="M509.38,287.677c-13.082-9.132-37.115-61.15-56.894-70.889c0,0,5.173-47.764-6.085-92.18
			c-11.256-44.417-47.154-79.098-105.262-67.233c-58.105,11.865-103.739,45.638-134.47,98.268c0,0-10.948,0-15.815,1.826
			c0,0-0.913-33.771-18.861-48.979c-17.949-15.211-34.683-11.864-52.326,1.521c-17.646,13.386-27.984,30.422-38.332,66.93
			c-10.344,36.506-4.562,96.438,1.221,109.215c0,0-5.177,8.442-10.04,16.127c-5.153,8.13-15.819,16.123-15.819,16.123
			s5.477,10.647,16.124,16.123c10.646,5.479,22.513,5.781,22.812,14.908c0.309,9.125,0.608,22.207-0.305,29.204
			c-0.912,6.998-3.347,12.17,3.649,21.297c6.998,9.127,20.688,17.341,20.688,17.341s0.913,38.026,23.425,58.716
			c0,0,7.91,24.335,14.907,31.941c6.997,7.607,11.257,5.78,14.298,14.603c3.042,8.823,22.518,20.688,46.854,17.038
			c21.616-3.236,39.245-19.167,42.287-34.982c0,0,10.039-6.084,11.256-23.729c1.077-15.604-2.737-21.9-2.737-21.9
			s37.115-11.562,52.021-28.601c0,0,26.468-17.646,48.064-37.725c21.602-20.079,28.6-37.42,28.6-37.42s20.988-15.82,32.248-39.551
			c11.256-23.729,12.475-32.555,12.475-32.555s16.123,16.434,46.545,19.476c30.421,3.041,48.681-6.395,48.681-6.395
			S522.456,296.801,509.38,287.677z M365.556,188.955c-14.832-9.126-29.438-11.637-29.438-11.637
			c16.655-10.951,26.925-11.637,40.613,0.457c13.688,12.095,15.06,30.118,15.06,30.118S380.386,198.083,365.556,188.955z"/>
		<g>
			<path fill="#FFFFFF" d="M105.901,300.76c0,0-10.724-23.959-8.671-73.475c2.055-49.513,11.182-83.281,26.013-104.271
				c14.83-20.991,24.646-21.679,33.312-18.938c0,0-9.812,1.144-17.346,13.232c-7.525,12.093-17.798,39.901-20.987,65.256
				c-3.651,28.979-5.479,58.64-0.688,84.647l2.28,7.305L105.901,300.76z"/>
			<path fill="#FFFFFF" d="M212.455,297.412c0,0,6.394-72.71,29.206-116.519c22.816-43.812,56.89-82.443,86.703-95.525
				c29.813-13.081,74.84-16.729,95.829,14.299c0,0-20.989-16.123-65.713-1.217c-44.72,14.906-90.049,77.881-105.869,124.122
				c-15.818,46.242-19.469,102.525-19.469,102.525l-12.169-9.438L212.455,297.412z"/>
			<path fill="#FFFFFF" d="M367.304,319.012c0,0-0.414-22.512,16.729-48.372c17.948-27.076,37.115-39.245,58.105-38.332
				c20.99,0.912,33.77,20.688,38.333,29.812c4.562,9.126,15.821,26.771,26.466,31.638c0,0-20.383-5.775-35.288-30.113
				c-14.907-24.337-35.896-19.773-46.851-16.124C413.851,251.169,379.169,273.377,367.304,319.012z"/>
		</g>
		<g>
			<path fill="#0F1A3C" d="M87.724,290.718c0,0-3.651,6.996-6.693,13.691c-3.043,6.693-8.821,13.689-8.821,13.689
				s3.351,4.259,8.521,8.215c5.171,3.954,20.383,11.255,21.899,19.774c1.521,8.519,3.955,24.644,2.133,34.378
				c-1.825,9.729,12.17,24.641,23.118,31.637c0,0,4.562,23.121,9.735,35.596c5.171,12.478,18.253,28.294,18.253,28.294
				s7.908,21.294,11.863,24.945c3.955,3.649,7.91,3.041,10.04,8.823c2.13,5.772,10.952,20.687,34.682,18.854
				c23.729-1.819,38.332-21.899,39.245-29.507c0,0,11.562-6.998,8.521-26.771c-3.043-19.774-8.821-33.471-7.305-44.418
				c0,0,8.521,11.562,14.298,14.298c5.78,2.737,10.952,2.737,21.604-3.041c10.646-5.78,27.687-15.521,30.119-23.121
				c0,0,22.207-13.387,33.159-24.338c10.949-10.952,19.166-20.991,19.166-20.991s-9.435-3.043-15.519-11.865
				c-6.085-8.818-10.039-35.595-1.827-64.192c8.215-28.596,27.688-51.717,40.158-61.449c0,0-8.214-15.215-29.509-28.601
				c-21.297-13.387-43.505-19.771-43.505-19.771s-24.945,31.334-36.507,62.669c-11.562,31.335-14.604,58.411-14.604,58.411
				s-4.562,12.173-6.084,16.429c-1.521,4.259-7.302,12.169-21.601,4.259c-14.303-7.904-27.384-23.427-30.427-37.724
				c-3.042-14.301-16.729-26.164-16.729-26.164s7.909-48.065,26.771-94.005c18.862-45.938,46.854-73.318,46.854-73.318
				s-38.939,24.034-60.235,74.84c0,0-11.561-2.435-31.938,1.521c-20.388,3.955-26.472,10.95-26.472,10.95s0.913-18.56-0.913-31.641
				c0,0,2.135-6.997,6.693-13.688c0,0-9.735,8.519-17.342,31.64c-7.605,23.121-13.082,56.891-12.776,83.662
				c0,0-14.903,24.337-16.124,39.244c0,0-3.955,3.648-6.689,13.693c-2.737,10.037,0.913,18.252-0.606,25.854
				C102.327,331.486,95.329,318.706,87.724,290.718z"/>
			<path fill="#0F1A3C" d="M437.428,280.451c0,0-8.654-6.254-21.448-3.65c-13.462,2.738-21.22,17.113-23.729,24.419
				c-2.509,7.3-5.021,22.812,0.456,22.812c5.479,0,14.831-11.179,18.938-19.851c4.104-8.676,4.793-19.623,4.793-19.623
				S421.227,278.398,437.428,280.451z"/>
		</g>
		<g>
			<path fill="#FFFFFF" d="M115.255,294.37c0,0-5.934,3.191-5.477,25.326c0.456,22.13,5.704,45.861,0.229,64.113
				c0,0,2.971,7.76,11.409,10.726c8.44,2.971,11.184,7.305,11.184,7.305s-2.738-6.158-6.16-7.985
				c-3.423-1.824-3.879-10.952-3.423-23.045c0.457-12.092-9.583-45.633-10.271-56.814
				C112.062,302.813,115.255,294.37,115.255,294.37z"/>
			<path fill="#FFFFFF" d="M175.949,209.034c0,0-19.852,46.317-25.1,82.597c-5.248,36.28-4.335,70.731,9.126,93.099
				c13.463,22.354,33.312,21.675,33.312,21.675s-14.604-5.932-18.253-19.165c-3.65-13.231,1.368-26.011,5.476-31.946
				c4.107-5.932,7.073-12.09,8.219-16.882c0,0-5.479,10.496-11.185,15.743s-10.269,12.776-9.583,25.098
				c0,0-12.317-18.253-12.55-48.821C155.185,299.847,162.715,242.575,175.949,209.034z"/>
			<path fill="#FFFFFF" d="M203.785,369.437c0,0-4.104,6.389-3.423,11.408c0.685,5.021,2.054,16.657,0,20.766
				c0,0,8.896-3.878,9.812-9.128c0.913-5.247-5.7-7.529-6.613-13.462S203.785,369.437,203.785,369.437z"/>
			<path fill="#FFFFFF" d="M257.404,348.677c0,0,8.899,15.972,7.759,26.689c-1.142,10.729-5.247,17.802-10.269,27.38
				c-5.021,9.583-17.796,24.414-8.67,42.439c0,0,0.229-11.864,4.335-19.623c4.104-7.757,20.988-34.907,20.079-48.369
				C269.832,365.303,264.933,356.203,257.404,348.677z"/>
			<path fill="#FFFFFF" d="M270.181,329.737c0,0-0.912-18.938,8.671-33.999c9.583-15.06,27.147-20.308,40.153-20.308
				c13.009,0,26.471,4.562,40.158-2.969c0,0-2.512,3.649-6.391,6.616s-9.354,13.918-11.637,17.568
				c-2.282,3.652-12.321,18.026-25.782,20.992c0,0,15.517-8.212,20.078-16.427c4.562-8.221,10.27-18.715,10.27-18.715
				s-16.2,7.759-27.836,10.951c-11.639,3.194-27.383,5.479-36.965,15.745C271.323,319.469,270.181,329.737,270.181,329.737z"/>
			<path fill="#FFFFFF" d="M318.553,346.164c0,0,5.476,13.466,5.476,33.771s-1.141,33.771-1.141,33.771s7.982-4.793,10.496-7.303
				c0,0-0.913-20.079-4.564-33.768C325.169,358.94,318.553,346.164,318.553,346.164z"/>
			<path fill="#FFFFFF" d="M272.235,394.992c0,0,2.738,12.319,2.282,21.447c-0.456,9.125-3.879,27.15-3.879,27.15
				s5.699,1.142,8.896-0.456c0,0,1.597-18.026-0.686-30.116C276.571,400.927,272.235,394.992,272.235,394.992z"/>
			<path fill="#FFFFFF" d="M255.579,473.027c-2.968-13.688-5.704-17.344-9.126-20.536c-3.424-3.19-7.529-7.068-7.76-9.127
				c0,0-7.758,3.422-13.006,7.986c-5.247,4.562-14.146,18.938-26.467,19.166c0,0-4.339-13.235-5.248-26.926
				c-0.913-13.688,0.229-17.567,0.229-17.567s-6.162-7.073-8.443-12.55c-2.277-5.479-5.7-6.617-5.7-6.617s2.51,23.502,6.39,39.017
				c3.879,15.521,7.759,26.695,7.759,26.695s-9.128,1.146-16.657,1.146c-7.525,0-10.04-2.28-10.04-2.28s-2.965,0.456-15.738-24.646
				c-12.347-24.238-12.778-41.063-12.778-41.063s0,19.391,8.899,39.015c7.003,15.444,15.059,25.784,17.564,33.312
				c2.51,7.525,5.479,17.564,9.126,20.307c3.65,2.739,8.442,5.479,11.185,9.812c2.734,4.336,5.933,5.243,5.933,5.243
				s-2.736,1.603-5.247,0c0,0,6.159,4.797,14.604,5.479c0,0-2.969,2.511-6.847,2.054c0,0,9.582,5.938,23.5,2.967
				c13.919-2.967,26.927-13.006,28.063-23.046c1.143-10.036-6.392-15.972-6.16-20.528c0.229-4.563,2.511-9.354,7.073-11.863
				c0,0-4.106,8.212-0.229,14.374c3.878,6.161,3.648,10.266,3.648,10.266S258.545,486.719,255.579,473.027z M226.602,496.526
				c-4.562,2.283-4.563,6.236-8.521,8.365c-3.954,2.131-11.408,3.348-16.885,10.496c0,0,0.152-4.106,3.955-6.998
				c3.804-2.895,9.279-3.953,11.257-7.909c0,0-0.604-1.825,0.457-3.345c1.063-1.522,3.953-3.042,5.172-6.236
				c1.217-3.196,4.562-8.974,7.757-8.823C232.991,482.228,231.166,494.245,226.602,496.526z"/>
		</g>
	</g>
</g>
<g>
	<path fill="#BDC2BC" d="M536.992,590.182c-0.737,0-1.339-0.603-1.339-1.341v-16.588c0-0.739,0.602-1.34,1.339-1.34h52.498
		c0.738,0,1.339,0.601,1.339,1.34v16.588c0,0.738-0.601,1.341-1.339,1.341H536.992z"/>
	<g>
		<path d="M560.027,572.778c-2.725,0-4.934,2.21-4.934,4.935c0,2.729,2.209,4.938,4.934,4.938c2.729,0,4.938-2.21,4.938-4.938
			C564.966,574.988,562.756,572.778,560.027,572.778z"/>
		<path fill="#FFFFFF" d="M560.027,581.729c-2.219,0-4.014-1.797-4.014-4.018c0-2.218,1.797-4.015,4.014-4.015
			c2.219,0,4.019,1.798,4.019,4.015C564.046,579.933,562.246,581.729,560.027,581.729z"/>
		<g>
			<path d="M561.403,576.561c0-0.218-0.181-0.398-0.398-0.398h-1.952c-0.22,0-0.4,0.182-0.4,0.398v1.986h0.528v2.338h1.693v-2.338
				h0.528L561.403,576.561L561.403,576.561z"/>
			<path d="M560.696,575.213c0,0.369-0.3,0.668-0.667,0.668c-0.371,0-0.67-0.3-0.67-0.668c0-0.369,0.301-0.67,0.67-0.67
				C560.396,574.543,560.696,574.842,560.696,575.213z"/>
		</g>
	</g>
	<path d="M589.177,570.469h-51.869c-1.158,0-2.1,0.942-2.1,2.101v15.96c0,1.158,0.94,2.101,2.1,2.101h51.869
		c1.158,0,2.1-0.941,2.1-2.101v-15.96C591.275,571.411,590.335,570.469,589.177,570.469z M590.646,584.643h-37.865
		c-1.477,2.809-4.418,4.725-7.81,4.725c-3.394,0-6.333-1.916-7.809-4.725h-1.327v-12.075c0-0.812,0.659-1.47,1.471-1.47h51.869
		c0.811,0,1.471,0.658,1.471,1.47V584.643L590.646,584.643z"/>
	<g>
		<path fill="#FFFFFF" d="M559.773,586.202c0.1,0.141,0.15,0.304,0.15,0.496c0,0.199-0.052,0.358-0.15,0.48
			c-0.057,0.065-0.139,0.13-0.25,0.186c0.168,0.062,0.293,0.156,0.377,0.288c0.086,0.13,0.127,0.289,0.127,0.479
			c0,0.19-0.048,0.364-0.145,0.518c-0.062,0.102-0.14,0.188-0.23,0.256c-0.104,0.079-0.225,0.136-0.368,0.164
			c-0.142,0.029-0.294,0.043-0.459,0.043h-1.467v-3.256h1.573C559.327,585.862,559.609,585.975,559.773,586.202z M558.009,586.422
			v0.717h0.791c0.143,0,0.256-0.027,0.345-0.08c0.088-0.054,0.132-0.148,0.132-0.287c0-0.15-0.058-0.249-0.174-0.3
			c-0.1-0.033-0.229-0.05-0.384-0.05H558.009L558.009,586.422z M558.009,587.677v0.869h0.79c0.142,0,0.25-0.021,0.329-0.059
			c0.143-0.07,0.215-0.206,0.215-0.406c0-0.171-0.069-0.285-0.207-0.351c-0.078-0.034-0.187-0.055-0.326-0.055L558.009,587.677
			L558.009,587.677z"/>
		<path fill="#FFFFFF" d="M562.47,585.854h0.771l-1.09,2.035v1.221h-0.68v-1.221l-1.127-2.035h0.801l0.676,1.418L562.47,585.854z"/>
	</g>
	<g>
		<g>
			<path fill="#FFFFFF" d="M568.518,585.694h0.776l1.403,2.474v-2.474h0.692v3.545h-0.742l-1.442-2.516v2.516h-0.688
				L568.518,585.694L568.518,585.694z"/>
			<path fill="#FFFFFF" d="M572.427,586.065c0.285-0.292,0.647-0.436,1.089-0.436c0.591,0,1.021,0.194,1.294,0.586
				c0.15,0.219,0.232,0.438,0.242,0.661h-0.74c-0.048-0.17-0.107-0.299-0.182-0.385c-0.133-0.153-0.328-0.229-0.586-0.229
				c-0.266,0-0.474,0.107-0.624,0.325c-0.152,0.218-0.229,0.524-0.229,0.923c0,0.397,0.079,0.694,0.241,0.893
				c0.161,0.199,0.365,0.299,0.613,0.299c0.253,0,0.447-0.086,0.581-0.256c0.073-0.09,0.136-0.229,0.184-0.409h0.735
				c-0.064,0.387-0.226,0.699-0.486,0.941c-0.262,0.243-0.594,0.363-1.002,0.363c-0.505,0-0.9-0.164-1.189-0.491
				c-0.289-0.328-0.434-0.777-0.434-1.352C571.931,586.878,572.096,586.401,572.427,586.065z"/>
		</g>
	</g>
	<g>
		<path fill="#FFFFFF" d="M580.517,588.215c0.025,0.173,0.074,0.303,0.146,0.389c0.131,0.154,0.354,0.232,0.673,0.232
			c0.191,0,0.347-0.021,0.465-0.062c0.226-0.078,0.339-0.225,0.339-0.438c0-0.125-0.057-0.224-0.166-0.291
			c-0.112-0.066-0.285-0.127-0.525-0.179l-0.412-0.088c-0.401-0.092-0.679-0.187-0.828-0.293c-0.256-0.173-0.383-0.448-0.383-0.82
			c0-0.338,0.125-0.618,0.375-0.846c0.25-0.223,0.617-0.336,1.101-0.336c0.403,0,0.749,0.106,1.034,0.316
			c0.284,0.213,0.436,0.52,0.449,0.922h-0.762c-0.014-0.228-0.117-0.388-0.305-0.484c-0.126-0.065-0.283-0.095-0.473-0.095
			c-0.21,0-0.376,0.04-0.499,0.122c-0.126,0.083-0.188,0.195-0.188,0.344c0,0.136,0.062,0.238,0.187,0.305
			c0.079,0.043,0.246,0.095,0.502,0.154l0.665,0.158c0.291,0.066,0.513,0.16,0.654,0.274c0.227,0.179,0.34,0.436,0.34,0.772
			c0,0.349-0.135,0.635-0.401,0.862c-0.269,0.229-0.646,0.344-1.134,0.344c-0.5,0-0.891-0.113-1.176-0.338
			c-0.287-0.226-0.432-0.535-0.432-0.931L580.517,588.215L580.517,588.215z"/>
		<path fill="#FFFFFF" d="M584.542,585.594h0.896l1.34,3.79h-0.858l-0.248-0.778h-1.396l-0.255,0.778h-0.828L584.542,585.594z
			 M584.488,587.951h0.972l-0.479-1.489L584.488,587.951z"/>
	</g>
	<g>
		<circle cx="544.951" cy="580.549" r="7.771"/>
		<circle fill="#FFFFFF" cx="544.951" cy="580.548" r="6.322"/>
		<g>
			<path d="M544.597,579.618l-1.188,0.216c-0.039-0.237-0.131-0.416-0.272-0.537c-0.142-0.119-0.324-0.179-0.549-0.179
				c-0.302,0-0.539,0.104-0.72,0.311c-0.18,0.206-0.269,0.554-0.269,1.038c0,0.54,0.091,0.922,0.271,1.145
				c0.182,0.224,0.426,0.334,0.73,0.334c0.229,0,0.416-0.064,0.561-0.194c0.146-0.132,0.25-0.355,0.312-0.673l1.182,0.201
				c-0.123,0.544-0.355,0.953-0.707,1.23c-0.348,0.275-0.814,0.416-1.4,0.416c-0.667,0-1.196-0.211-1.593-0.631
				c-0.396-0.419-0.593-1.002-0.593-1.745c0-0.75,0.198-1.337,0.594-1.755c0.398-0.419,0.937-0.627,1.613-0.627
				c0.555,0,0.994,0.118,1.322,0.356C544.219,578.766,544.455,579.131,544.597,579.618z"/>
			<path d="M549.478,579.618l-1.186,0.216c-0.041-0.237-0.132-0.416-0.274-0.537c-0.142-0.119-0.325-0.179-0.55-0.179
				c-0.301,0-0.539,0.104-0.719,0.311c-0.179,0.206-0.269,0.554-0.269,1.038c0,0.54,0.09,0.922,0.271,1.145
				c0.181,0.224,0.426,0.334,0.729,0.334c0.229,0,0.417-0.064,0.562-0.194c0.146-0.132,0.25-0.355,0.309-0.673l1.185,0.201
				c-0.123,0.544-0.358,0.953-0.709,1.23c-0.349,0.275-0.814,0.416-1.401,0.416c-0.667,0-1.196-0.211-1.591-0.631
				c-0.396-0.419-0.594-1.002-0.594-1.745c0-0.75,0.196-1.337,0.596-1.755c0.396-0.419,0.934-0.627,1.611-0.627
				c0.555,0,0.994,0.118,1.322,0.356C549.101,578.766,549.337,579.131,549.478,579.618z"/>
		</g>
	</g>
	<g>
		<path d="M571.931,572.987c-2.611,0-4.727,2.115-4.727,4.727s2.114,4.728,4.727,4.728s4.728-2.113,4.728-4.728
			C576.659,575.102,574.546,572.987,571.931,572.987z"/>
		<circle fill="#FFFFFF" cx="571.931" cy="577.715" r="3.846"/>
		
			<rect x="571.495" y="573.103" transform="matrix(-0.4229 0.9062 -0.9062 -0.4229 1337.241 303.5833)" width="0.924" height="8.957"/>
		<g>
			<path d="M571.581,580.422v-0.638c-0.444-0.013-0.876-0.139-1.128-0.276l0.197-0.777c0.279,0.153,0.671,0.291,1.102,0.291
				c0.38,0,0.645-0.15,0.645-0.409c0-0.251-0.222-0.411-0.708-0.577c-0.712-0.237-1.197-0.569-1.197-1.215
				c0-0.591,0.412-1.047,1.123-1.18v-0.631h0.649v0.583c0.443,0.015,0.743,0.116,0.968,0.221l-0.199,0.748
				c-0.166-0.079-0.477-0.232-0.953-0.232c-0.434,0-0.571,0.193-0.571,0.381c0,0.212,0.231,0.355,0.797,0.563
				c0.797,0.278,1.107,0.644,1.107,1.246c0,0.591-0.411,1.09-1.181,1.222v0.684L571.581,580.422L571.581,580.422z"/>
		</g>
	</g>
	<g>
		<path d="M583.186,573.052c-2.571,0-4.661,2.087-4.661,4.659c0,2.575,2.09,4.665,4.661,4.665c2.575,0,4.665-2.09,4.665-4.665
			C587.852,575.139,585.761,573.052,583.186,573.052z"/>
		<path fill="#FFFFFF" d="M583.186,581.508c-2.092,0-3.79-1.697-3.79-3.793c0-2.093,1.697-3.791,3.79-3.791
			c2.096,0,3.793,1.696,3.793,3.791C586.98,579.807,585.282,581.508,583.186,581.508z"/>
		<path d="M583.186,575.153c-1.015,0-1.874,0.734-2.182,1.746h-0.292l0.931,1.016l0.93-1.016h-0.348
			c0.214-0.37,0.564-0.616,0.96-0.616c0.65,0,1.179,0.647,1.179,1.444c0,0.793-0.527,1.439-1.179,1.439
			c-0.431,0-0.81-0.288-1.016-0.72h-1.197c0.278,1.07,1.168,1.854,2.214,1.854c1.273,0,2.312-1.155,2.312-2.576
			C585.498,576.303,584.465,575.153,583.186,575.153z"/>
	</g>
</g>
<g>
	<path d="M11.392,587.467c-0.652,0-1.248-0.138-1.786-0.41c-0.539-0.272-1.002-0.631-1.39-1.071s-0.688-0.948-0.899-1.521
		C7.106,583.888,7,583.302,7,582.702c0-0.626,0.113-1.225,0.338-1.798c0.226-0.572,0.533-1.081,0.927-1.521
		c0.393-0.441,0.857-0.792,1.396-1.052c0.538-0.262,1.12-0.392,1.746-0.392c0.653,0,1.248,0.139,1.786,0.416
		c0.538,0.278,0.999,0.644,1.382,1.092c0.383,0.449,0.682,0.959,0.893,1.529c0.213,0.567,0.318,1.143,0.318,1.725
		c0,0.637-0.113,1.24-0.338,1.812c-0.225,0.574-0.534,1.079-0.926,1.516c-0.394,0.438-0.856,0.785-1.391,1.045
		C12.598,587.337,12.018,587.467,11.392,587.467z M7.675,582.702c0,0.539,0.091,1.058,0.271,1.556s0.437,0.938,0.768,1.323
		c0.331,0.384,0.724,0.689,1.178,0.921c0.455,0.229,0.955,0.344,1.501,0.344c0.563,0,1.072-0.119,1.527-0.357
		c0.454-0.238,0.846-0.554,1.171-0.945c0.327-0.393,0.578-0.836,0.755-1.329c0.177-0.494,0.265-0.996,0.265-1.51
		c0-0.538-0.092-1.056-0.277-1.555c-0.185-0.497-0.443-0.938-0.774-1.323c-0.331-0.384-0.724-0.689-1.178-0.92
		c-0.454-0.229-0.949-0.344-1.487-0.344c-0.565,0-1.076,0.119-1.535,0.357c-0.458,0.237-0.85,0.554-1.17,0.944
		c-0.322,0.395-0.571,0.836-0.748,1.33C7.762,581.689,7.675,582.191,7.675,582.702z"/>
	<path d="M23.14,579.567c-0.608-0.68-1.469-1.02-2.58-1.02c-0.918,0-1.586,0.175-2.005,0.522c-0.418,0.35-0.629,0.818-0.629,1.408
		c0,0.301,0.054,0.553,0.159,0.754c0.106,0.203,0.271,0.373,0.496,0.51c0.226,0.138,0.513,0.256,0.86,0.357
		c0.349,0.102,0.761,0.2,1.237,0.297c0.512,0.107,0.97,0.223,1.376,0.352c0.404,0.128,0.751,0.289,1.039,0.483
		c0.286,0.194,0.507,0.433,0.661,0.714c0.154,0.282,0.231,0.631,0.231,1.045s-0.082,0.776-0.245,1.086s-0.393,0.566-0.688,0.773
		c-0.296,0.208-0.648,0.364-1.059,0.47c-0.411,0.106-0.866,0.159-1.37,0.159c-1.464,0-2.704-0.467-3.717-1.402l0.357-0.543
		c0.396,0.415,0.881,0.744,1.456,0.986c0.573,0.241,1.217,0.363,1.931,0.363c0.821,0,1.462-0.149,1.925-0.449
		c0.462-0.301,0.694-0.755,0.694-1.363c0-0.309-0.06-0.57-0.178-0.787c-0.119-0.217-0.303-0.403-0.55-0.562
		c-0.247-0.159-0.554-0.295-0.919-0.41c-0.364-0.115-0.796-0.225-1.29-0.33c-0.502-0.104-0.945-0.219-1.329-0.338
		c-0.384-0.118-0.708-0.271-0.972-0.449c-0.265-0.181-0.463-0.398-0.596-0.655c-0.133-0.256-0.199-0.576-0.199-0.966
		c0-0.424,0.081-0.798,0.245-1.125c0.163-0.326,0.391-0.602,0.682-0.826c0.291-0.224,0.64-0.395,1.044-0.51
		c0.406-0.114,0.855-0.171,1.351-0.171c0.608,0,1.15,0.091,1.627,0.271c0.476,0.182,0.909,0.457,1.296,0.826L23.14,579.567z"/>
	<path d="M25.734,587.399v-9.394h3.863c0.396,0,0.763,0.085,1.098,0.251c0.335,0.168,0.624,0.391,0.866,0.669
		c0.242,0.276,0.432,0.591,0.568,0.938c0.138,0.351,0.205,0.699,0.205,1.053c0,0.381-0.063,0.746-0.191,1.099
		s-0.31,0.666-0.543,0.938c-0.233,0.273-0.512,0.492-0.833,0.654c-0.322,0.164-0.683,0.245-1.078,0.245h-3.281v3.546L25.734,587.399
		L25.734,587.399z M26.408,583.231h3.241c0.309,0,0.586-0.063,0.833-0.19c0.247-0.128,0.456-0.301,0.629-0.517
		c0.171-0.217,0.304-0.463,0.396-0.741c0.093-0.276,0.139-0.564,0.139-0.865c0-0.31-0.056-0.603-0.165-0.88
		c-0.11-0.278-0.26-0.522-0.45-0.733c-0.189-0.213-0.41-0.381-0.661-0.504s-0.519-0.187-0.801-0.187h-3.162L26.408,583.231
		L26.408,583.231z"/>
	<path d="M33.963,587.399v-9.394h3.917c0.396,0,0.764,0.085,1.099,0.251c0.335,0.168,0.622,0.391,0.859,0.669
		c0.238,0.276,0.426,0.591,0.563,0.938c0.137,0.351,0.205,0.699,0.205,1.053c0,0.345-0.053,0.677-0.159,0.998
		c-0.105,0.323-0.255,0.611-0.45,0.867c-0.193,0.256-0.427,0.467-0.701,0.635c-0.273,0.168-0.572,0.277-0.899,0.331l2.341,3.651
		h-0.781l-2.275-3.546h-3.043v3.546L33.963,587.399L33.963,587.399z M34.636,583.231h3.295c0.299,0,0.572-0.063,0.819-0.197
		c0.247-0.133,0.458-0.307,0.636-0.522c0.176-0.215,0.311-0.463,0.402-0.74c0.093-0.279,0.14-0.562,0.14-0.854
		c0-0.3-0.056-0.589-0.166-0.866s-0.261-0.522-0.45-0.734c-0.19-0.212-0.41-0.381-0.661-0.509c-0.252-0.128-0.523-0.193-0.814-0.193
		h-3.202v4.616H34.636z"/>
	<path d="M48.899,586.791v0.608h-6.258v-9.394h6.139v0.607h-5.464v3.691h4.775v0.582h-4.775v3.902h5.583V586.791z"/>
	<path d="M50.421,578.007l3.281,5.198l3.308-5.198h0.741l-3.705,5.848v3.546h-0.674v-3.572l-3.69-5.82L50.421,578.007
		L50.421,578.007z"/>
	<path d="M59.126,587.399v-9.394h3.122c0.741,0,1.392,0.124,1.951,0.371c0.561,0.246,1.025,0.581,1.396,1.006
		c0.37,0.423,0.647,0.919,0.833,1.487c0.185,0.567,0.277,1.175,0.277,1.819c0,0.715-0.104,1.36-0.311,1.938
		c-0.207,0.578-0.505,1.071-0.894,1.482c-0.388,0.41-0.857,0.727-1.41,0.952c-0.551,0.225-1.167,0.337-1.845,0.337L59.126,587.399
		L59.126,587.399z M66.031,582.689c0-0.591-0.083-1.136-0.251-1.634c-0.167-0.498-0.413-0.93-0.734-1.291
		c-0.322-0.36-0.718-0.644-1.185-0.846c-0.467-0.203-1.005-0.306-1.614-0.306H59.8v8.178h2.447c0.617,0,1.162-0.104,1.633-0.312
		c0.473-0.207,0.866-0.496,1.185-0.866c0.316-0.37,0.558-0.804,0.722-1.302C65.95,583.811,66.031,583.271,66.031,582.689z"/>
	<path d="M67.288,587.399l3.996-9.394h0.555l3.996,9.394h-0.728l-1.311-3.096h-4.484l-1.311,3.096H67.288z M71.562,578.827
		l-2.09,4.921h4.141L71.562,578.827z"/>
	<path d="M80.148,578.072h0.661l1.401,3.413l1.403-3.413h0.661l-1.654,3.956l1.971,4.577l3.6-8.6h0.741l-4.022,9.394h-0.621
		l-2.063-4.829l-2.077,4.829h-0.622l-4.009-9.394h0.728l3.612,8.6l1.944-4.577L80.148,578.072z"/>
	<path d="M91.05,579.276v8.123h-0.675v-9.393h0.518l6.588,8.269v-8.255h0.675v9.379h-0.622L91.05,579.276z"/>
	<path d="M100.297,587.399v-1.125h0.583v1.125H100.297z"/>
	<path d="M102.401,582.637c0-0.564,0.099-1.127,0.298-1.688c0.198-0.561,0.486-1.061,0.866-1.502
		c0.379-0.44,0.844-0.801,1.395-1.078c0.552-0.276,1.181-0.417,1.887-0.417c0.838,0,1.552,0.192,2.144,0.575
		c0.591,0.384,1.027,0.877,1.309,1.476l-0.555,0.317c-0.159-0.326-0.351-0.6-0.576-0.82c-0.225-0.221-0.467-0.397-0.727-0.535
		c-0.261-0.137-0.532-0.235-0.814-0.299c-0.281-0.062-0.561-0.092-0.833-0.092c-0.6,0-1.129,0.121-1.588,0.363
		c-0.458,0.243-0.846,0.559-1.164,0.946c-0.317,0.388-0.558,0.825-0.721,1.314c-0.164,0.49-0.245,0.982-0.245,1.478
		c0,0.556,0.097,1.084,0.291,1.588c0.195,0.502,0.459,0.945,0.794,1.329c0.334,0.384,0.731,0.689,1.19,0.919
		c0.458,0.229,0.953,0.345,1.48,0.345c0.283,0,0.571-0.036,0.866-0.106c0.296-0.069,0.583-0.18,0.86-0.33
		c0.276-0.149,0.536-0.342,0.773-0.575c0.238-0.232,0.437-0.509,0.595-0.826l0.569,0.276c-0.159,0.354-0.372,0.666-0.642,0.939
		c-0.271,0.273-0.571,0.503-0.906,0.688c-0.335,0.185-0.69,0.323-1.065,0.417c-0.375,0.092-0.742,0.139-1.104,0.139
		c-0.645,0-1.233-0.141-1.766-0.424c-0.534-0.282-0.995-0.65-1.384-1.104c-0.387-0.454-0.689-0.97-0.904-1.548
		C102.509,583.825,102.401,583.237,102.401,582.637z"/>
	<path d="M115.882,587.467c-0.652,0-1.248-0.138-1.785-0.41c-0.538-0.272-1.001-0.631-1.39-1.071
		c-0.388-0.44-0.688-0.948-0.898-1.521c-0.212-0.573-0.317-1.159-0.317-1.761c0-0.626,0.112-1.226,0.337-1.798
		c0.226-0.573,0.534-1.08,0.926-1.521c0.393-0.441,0.857-0.792,1.396-1.053c0.539-0.261,1.121-0.391,1.747-0.391
		c0.651,0,1.248,0.138,1.786,0.417c0.538,0.277,0.999,0.642,1.382,1.09c0.384,0.45,0.682,0.959,0.894,1.529
		c0.211,0.568,0.317,1.145,0.317,1.727c0,0.635-0.113,1.238-0.337,1.812c-0.226,0.573-0.534,1.079-0.926,1.515
		c-0.394,0.438-0.855,0.785-1.39,1.045C117.087,587.337,116.509,587.467,115.882,587.467z M112.164,582.702
		c0,0.539,0.09,1.058,0.271,1.556c0.181,0.498,0.437,0.938,0.767,1.323c0.331,0.384,0.724,0.689,1.178,0.921
		c0.454,0.229,0.954,0.344,1.501,0.344c0.564,0,1.073-0.119,1.527-0.357c0.455-0.238,0.845-0.554,1.171-0.945
		c0.326-0.393,0.578-0.836,0.754-1.329c0.176-0.494,0.266-0.996,0.266-1.51c0-0.538-0.094-1.056-0.278-1.555
		c-0.186-0.497-0.443-0.938-0.774-1.323c-0.331-0.384-0.724-0.689-1.178-0.92c-0.455-0.229-0.95-0.344-1.488-0.344
		c-0.563,0-1.075,0.119-1.534,0.357c-0.459,0.237-0.851,0.554-1.172,0.944c-0.321,0.395-0.57,0.836-0.748,1.33
		C112.252,581.689,112.164,582.191,112.164,582.702z"/>
	<path d="M130.659,587.399v-8.123l-3.704,6.338h-0.423l-3.705-6.338v8.123h-0.675v-9.393h0.675l3.916,6.721l3.916-6.721h0.675v9.393
		H130.659L130.659,587.399z"/>
</g>
</svg>
