<?xml version="1.0" encoding="utf-8"?>
<!-- Generator: Adobe Illustrator 16.0.0, SVG Export Plug-In . SVG Version: 6.00 Build 0)  -->
<!DOCTYPE svg PUBLIC "-//W3C//DTD SVG 1.1//EN" "http://www.w3.org/Graphics/SVG/1.1/DTD/svg11.dtd">
<svg version="1.1" id="Layer_1" xmlns="http://www.w3.org/2000/svg" xmlns:xlink="http://www.w3.org/1999/xlink" x="0px" y="0px"
	 width="595.275px" height="595.279px" viewBox="0 0 595.275 595.279" enable-background="new 0 0 595.275 595.279"
	 xml:space="preserve">
<metadata><?xpacket begin="﻿" id="W5M0MpCehiHzreSzNTczkc9d"?>
<x:xmpmeta xmlns:x="adobe:ns:meta/" x:xmptk="Adobe XMP Core 5.3-c011 66.145661, 2012/02/06-14:56:27        ">
   <rdf:RDF xmlns:rdf="http://www.w3.org/1999/02/22-rdf-syntax-ns#">
      <rdf:Description rdf:about=""
            xmlns:dc="http://purl.org/dc/elements/1.1/">
         <dc:format>image/svg+xml</dc:format>
         <dc:title>
            <rdf:Alt>
               <rdf:li xml:lang="x-default">NFL Logo Redesigns</rdf:li>
               <rdf:li xml:lang="en_us">NFL Logo Redesigns</rdf:li>
            </rdf:Alt>
         </dc:title>
         <dc:creator>
            <rdf:Seq>
               <rdf:li>Max O'Brien/Osprey Dawn</rdf:li>
            </rdf:Seq>
         </dc:creator>
      </rdf:Description>
      <rdf:Description rdf:about=""
            xmlns:xmp="http://ns.adobe.com/xap/1.0/"
            xmlns:xmpGImg="http://ns.adobe.com/xap/1.0/g/img/">
         <xmp:CreatorTool>Adobe Illustrator CS6 (Macintosh)</xmp:CreatorTool>
         <xmp:ModifyDate>2013-10-06T17:36:56+13:00</xmp:ModifyDate>
         <xmp:MetadataDate>2013-10-06T17:36:56+13:00</xmp:MetadataDate>
         <xmp:CreateDate>2013-10-06T17:36:56+13:00</xmp:CreateDate>
         <xmp:Thumbnails>
            <rdf:Alt>
               <rdf:li rdf:parseType="Resource">
                  <xmpGImg:width>256</xmpGImg:width>
                  <xmpGImg:height>236</xmpGImg:height>
                  <xmpGImg:format>JPEG</xmpGImg:format>
                  <xmpGImg:image>/9j/4AAQSkZJRgABAgEASABIAAD/7QAsUGhvdG9zaG9wIDMuMAA4QklNA+0AAAAAABAASAAAAAEA&#xA;AQBIAAAAAQAB/+4ADkFkb2JlAGTAAAAAAf/bAIQABgQEBAUEBgUFBgkGBQYJCwgGBggLDAoKCwoK&#xA;DBAMDAwMDAwQDA4PEA8ODBMTFBQTExwbGxscHx8fHx8fHx8fHwEHBwcNDA0YEBAYGhURFRofHx8f&#xA;Hx8fHx8fHx8fHx8fHx8fHx8fHx8fHx8fHx8fHx8fHx8fHx8fHx8fHx8fHx8f/8AAEQgA7AEAAwER&#xA;AAIRAQMRAf/EAaIAAAAHAQEBAQEAAAAAAAAAAAQFAwIGAQAHCAkKCwEAAgIDAQEBAQEAAAAAAAAA&#xA;AQACAwQFBgcICQoLEAACAQMDAgQCBgcDBAIGAnMBAgMRBAAFIRIxQVEGE2EicYEUMpGhBxWxQiPB&#xA;UtHhMxZi8CRygvElQzRTkqKyY3PCNUQnk6OzNhdUZHTD0uIIJoMJChgZhJRFRqS0VtNVKBry4/PE&#xA;1OT0ZXWFlaW1xdXl9WZ2hpamtsbW5vY3R1dnd4eXp7fH1+f3OEhYaHiImKi4yNjo+Ck5SVlpeYmZ&#xA;qbnJ2en5KjpKWmp6ipqqusra6voRAAICAQIDBQUEBQYECAMDbQEAAhEDBCESMUEFURNhIgZxgZEy&#xA;obHwFMHR4SNCFVJicvEzJDRDghaSUyWiY7LCB3PSNeJEgxdUkwgJChgZJjZFGidkdFU38qOzwygp&#xA;0+PzhJSktMTU5PRldYWVpbXF1eX1RlZmdoaWprbG1ub2R1dnd4eXp7fH1+f3OEhYaHiImKi4yNjo&#xA;+DlJWWl5iZmpucnZ6fkqOkpaanqKmqq6ytrq+v/aAAwDAQACEQMRAD8A9U4q7FXYq7FXYq7FXYq7&#xA;FXYq7FXMyqpZiAoFSTsABirz3zV+fH5beXWeGTUf0leJ1tdPAnNfAyVWEH2L1wW7PT9kajLvXCPP&#xA;b9ryjzB/zlhrkxaPQNGgs4+iz3jtO5HiET0lU/S2R4nc4fZ2A+uRPu2YBq/55fmnqhb1demtkbpH&#xA;ZhLag9miVX+9sFl2WPsnTQ5QB9+7Fb7zT5ivCXv9XvLkk1LT3Er77nq7HxxcsYcUBsIx+ACUteWo&#xA;PxToCd92H9caU6nEOco/MOS8tuQKTpyXcEOKg/QcVGpxH+KPzCcWHmzzNZUaw1m9tqdDBcyx07/s&#xA;MMVODFPnGJ+AZXpH57fmpphHp67LcxjrHdpHcV+bSKX+5sbLiZOyNNP+Gvds9A8v/wDOWWqRlY/M&#xA;OiQ3CdGnsXaFgPH05PVDH/Zrh4nWZvZ2J+iRHves+Vfzw/LfzIyRW2qLZXj7C0vx9Xep6AMxMTH2&#xA;VzkrdLqOyc+Lcxsd43/azwEEVHTC652KuxV2KuxV2KuxV2KuxV2KuxV2KuxV2KuxV2KuxV2KuxVx&#xA;IAqemKvJfzC/5yK8p+W2ksdHA1zVkqrLE9LaJht8cwB5EfypX5jImTutF2Jly7y9Eft+T5086/mv&#xA;5383yONW1BksWNRp1uTFbAdqoD8dPFyxyJL1Gl7Pw4B6Rv3nmwC713T7eq8/Vcfsx7/j0xAaNT2x&#xA;gxbXxHy/XySm480XT1EEaxDxPxH+AyXC6TP7Q5ZfQBH7Su0zTvOfmCRo9Jsr/U3GzR2UEs1D7rCp&#xA;w7OsydoaifOcvu+5lun/APOOn526lGJofK1yoYVH1mW3tm38VuJI2H0jG3DJJ3Kdx/8AOJf51PGr&#xA;tptrGzAExteQclJHQ8WZaj2OKGpv+cTPzrjiZ00u2mZRURpeQBm9hzZV+84qkmo/848fnZpcbTTe&#xA;VrtggJP1V4bptt9ltpJWP0DG2USRuGJala+b9AmWHVbW902Zt0hvYZImIHgsyjGg5mPtHUQ5TPx3&#xA;+91v5ouVoJ4lkHivwn+IwcLs8HtDkH1xEvdsm9pren3NFEnpuf2JPhP39MiQ7zTdrYMuwPCe47fs&#xA;eh+Svzg89eUCkWm35n09af7jrus1vQdlBIaP/YMMQWeq7Nw595D1d45vo78vf+cgfJ/mto7G9P6F&#xA;1h6KttcMDDIx2pFNRQT/AJLAHwrkwXltb2Nlw7j1x8v0h6jhdQ7FXYq7FXYq7FXYq7FXYq7FXYq7&#xA;FXYq7FXYq7FUp8z+adC8saTLqutXS2tpHsCd2d6VCRqN2Y+AxbsGnnllwwFl8p/mh+fXmPze02n6&#xA;cX0ry8xK/VkNJp16f6Q6nof5F+Hx5dcgS9loOyMeD1S9U/sHu/W8d1HW7Wzqg/ezj/da9v8AWPbA&#xA;Az13a2LBt9U+79aT2y+Y/MmoR6bpttPe3c5pDY2kbSO1Nz8CAsad8nVPJ6vtLNn2kaj3Dk9z8hf8&#xA;4aebdTEd35wv49DtTQmxg43N2RXcMwPox1HQ8n91xcB7VoH5J/kV5LVaaVFq2oRgBp9Q/wBOlZl7&#xA;+m37hG/1UXKp5oR5lsjjkUTr358eRvL6G1F7Y2IhFBbmQPIo/wCYeCrLlXjzP0xZ+HEcy8+1f/nL&#xA;XysjEQ3l7dL2+p2wjHXsZjC334OHMetJvGGNXX/OWGkPutlqcxr/ALtlRdvod8j+Wmeck+LHuUoP&#xA;+cpPLZp6+magm+/Bon28d3TInSS70+PHuTrTf+clPIUxHO7vtPr3mic0/wCRDTZE6fIOSfFgWbaR&#xA;+aXl7Xo/qtl5gttQWX4TZzSJIzA9jDP8R/4HIk5Y87ZAQKReZPyg/LTzAjG40KHT7lhQXelf6E69&#xA;9okDW33xZKOrkOaDgDxnzn/zjl5j0xnuPLk41izG/oOFhulFelCeElB3BBP8uZENXE89mqWAjk8z&#xA;W81nR7p7S5jkikiPGW0uFZWU+HFqMuZGxcrSdp5sBoG49x/GyfafrNpeUUH05u8bfwPfIkPWaLtX&#xA;Fn2Hpn3H9He9q/K3/nIHXvKzQ6ZrZk1bQBRFDGtxbr0/dO32lA/YY/IjCC4/aHY0M3qh6Z/Yfx3v&#xA;qfy/5h0bzBpUOq6PdJd2M4qkqHoe6sDurDup3GTePzYZ4pGMxRCY4tTsVdirsVdirsVdirsVdirs&#xA;VdirsVdirGPzA/MPQPJGjHUdVk5SyVWyskI9WeQCvFR2UftMdh86Agly9Hop6ifDH4nufG3n38wd&#xA;f85as+qa1cUjj5fVrVSRBbxn9lFPy+Jjue+QJt7nTaXHpoUNu8n9LzfVfMLyVhsyUj6NL0Y/LwGS&#xA;EXne0e2zP0Yto9/U+7u+96n+Tv8Azi/5n87JBrGvNJoflqSjxyMv+l3KHesMbiiIw6SOKdCFYYXn&#xA;n1JYWH5XflLoUkOm29tpkMag3U7MvqyEdDcXEh5Hc7An/VGVTyiO3Ms4wJ8g8M/MT/nLv1mls/LF&#xA;ubhdwLmXlFB8wm0sn+yK/LIeHOf1Gh3BlxRjy3eDeZPzK87eY2YanqszW7f8ekR9GCnh6cfEN/sq&#xA;nLYYYx5BhLITzYxljB2KuxV2KuxV2Kss8tfml568ulF0/VZXtkoPqdyfXhoOwV68P9gRlU8MZcwz&#xA;jkkHsnk7/nJHRL9ktfMtsdLuG2+uQ8pLYn/KXeSP/hvcjMPJpCPp3ciOcHmz7zF5O8l+edMjkvIY&#xA;r2ORP9E1K2ZfVVT0Mcy12r2NV8RlEMkoHZslESD52/MX8mPMPlEvf2pOpaIpr9cjWkkI7esgrx/1&#xA;ht8umbDFqBPbkXGnjMdwxnSvMLKRDemq9Fm7j/W/rlxi7/s3tsioZuX879f63pv5dfmVr/kjVlvt&#xA;Ml9WymK/XdPY/uZ4/wAeLD9lxuPcVBiDTvdZosephR+BfZHkjzxoXnLQ49X0iXkh+G4t3oJYJaVM&#xA;cijofA9CNxkwXhtXpJ4J8Mv7WQYXGdirsVdirsVdirsVdirsVdirsVSPzp5x0fyh5fuNa1V6Qwjj&#xA;FCv25pSPgiQfzN+A3O2JLkaXTTzzEI/2Pibz3561nzfrk+t6zKAaFYIQf3UEKklY0HgK7nud8r5v&#xA;eafT49NjobAbk/pebalqVzqdylpaI7I7BIoUBLyOTRRxG5JPQZMCnk+0+1JZzwx2x/f731V+Q3/O&#xA;L1no0cHmnz9Ak+qACWy0WXi0NsBuJLjqryeC/ZTvVvsrqGTfnN/zkdofk+J9N0tvrmssvwQxmhWv&#xA;Rnbf01/4Y9gBvlBnKe0dh3/qbOER583xz5w89+ZvN1+bvWrtpQGLQ2ykrBFX+RK/8Mdz3OWwxiPJ&#xA;hKZPNj+TYso0D8svPmvKsmm6NO8D7rcSgQREHuHlKK3+xrlUs0Y8yzjjkejKn/ITVNPtzc+Yte0z&#xA;SIQAXDSPI6gmm68UH3HKvzY5AEtngHqWKa3oXkjT6paeZJtTnBIYW9hxiHuJJLhaj5LlkZzP8NfF&#xA;gYxHVjGXNa5AhdQ5ISo5ECpA70FRX78VZjonlj8udUpFL5wn0q5bZBf6ZxiJ/wCMsN1OFHuwGVyl&#xA;IdGYiD1ZW/8AzjZ5nu7UXnl7W9J1u1YVjeGcxl9q/DzXgf8Ag8rGoHIsvCLCfM35Y+f/ACyC2t6H&#xA;dWsI63HD1IqePqR80/HLRkBYGJDF8mxZL5M/MPzR5Qu/V0m6P1ZjWexlq9vJ80rsf8paH3yvJijP&#xA;mzhMx5Ppv8vvzS8ued7QxRUttUVf9J0uYgtx7tGdhIn0bdxmty4TD3OXDIJPOvza/IhQk2veUYKc&#xA;ayXmkIO3Uvbgf8m/+B8MyMGp6SasmHqHjejay1owgnJNuTQHuh/pmYQ7LsrtU4TwT/u/u/Y9R/Lr&#xA;8wtY8la9Fq+mMJbeQBL20J/d3EJNeJp0YdVbsfaoMQaeo1ekhqcdH4F9r+VvM+keZ9Ctda0mX1bO&#xA;6WoBoHRhs0bgE0ZTsRljwWowSxTMJcwmuLS7FXYq7FXYq7FXYq7FXYqsuLiC2gkuLiRYoIUaSWVy&#xA;AqooqzMT0AAxTEEmhzfFv5x/mbc+efMryQsyaFYlotLtztVf2pnH88lPoFB86yXvezNANPj3+s8/&#xA;1PGNe1Y3EhtoW/cIfiYftMP4DJAPPds9peLLw4H0D7T+p9Z/841fkBD5ZsofOvm23Ua/Mnq6dZzD&#xA;/eGIivqOD0mYeP2B/lVobdGl/wDzkN/zkX+i/V8teWJQ2ona4nFGWEdasDsXP7K9urdhmPvk/qfe&#xA;2/R/WfJNzc3F1cSXFzK81xMxeWaRizsxNSzMdyTmSBTSy78vvyp80edpy9jGLbS4jS51ScEQr/kp&#xA;09R/8kfSRlWTKIs4YzJ7JDov5TflbbLcXIW/1lP+PieksvMfyLQrHv8AyjlTrXMA5J5DQcoQjAWW&#xA;A+bf+chvNGps8OjKNMtTsJBvKehrXcA9u4Phl+PRj+JqlqO55hqGqajqM5nvrmS5lJJ5SMWpU1NA&#xA;dgPYZlxgI8g0GRPNV0XQdb1y+Ww0awuNSvX3W2tYnmkoOp4oCaDuckhl8n5DfnFHGZG8pagVUVIW&#xA;MM30KpLH7sVYofLHmUHUAdJvK6SAdVH1eX/RQTQG4+H91Wn7dMVSzFUw0bX9b0S5+s6TfT2M+1Xg&#xA;dk5U7MBsw9jkZRB5pEiOT2PyP/zlH5j00paeZIRf2ZoHuIFVZPm8DfuZPoC5jy09fSfh0bRl72f3&#xA;/kT8l/zW019S0ho9I1R+uo6ctEEh3pdWZoQT3IofoyEcxgalt9zM4xLcPn/8xvyo83eQb5ItYgWW&#xA;wnP+harbEyWs4/yXps3irb5lxmC0GNMUsb68sLyG8spnt7q3YSQzRkqysOhBGEi9igGn1D+UP5vW&#xA;3my2XStVZYPMUC+yrdKo3kjHZx+0v0jbprc+Dh3HJy8WXi2PNjH54/k/HLHP5r8vQcZ1rJqtjGNn&#xA;HeeNR+13cd+vWtbNNqP4Sxy4uoeNeX9WMTi0nP7tjSJj+yT2+RzNkHcdi9pcB8KZ9J5eXl7nuH5H&#xA;fmlJ5K8wi1v5T/h3UmCXqGpEMnRbhR/k9Hp1XxIGAF3Ha3Z/jwuP1x5efk+x0dHRXRgyMAVYGoIO&#xA;4IIybwpDeKuxV2KuxV2KuxV2KuxV4N/zk7+YrWOnxeTdOkpc36ibVXU7rb1/dxfORhVv8keDZGRe&#xA;j7B0XFLxZchy9/f8Hyd5h1I28H1eM0mlG5H7Kf24Ih2Hbev8KHhx+qX2D9r2H/nFD8ll17Ux5612&#xA;Dlo+mS8dJt3Hw3F2h/vTXrHAeni/+qQZPGvSv+ck/wA8V8sacdA0WVW1i7BowofTUGhlI36EUUHq&#xA;2/Qb0H94a/hH2tg9Ivq+U/y+8lal5+84waJDdxw3N2XmmublwGYL8T8AxBklbsvc9aCpy6RoMALL&#xA;6CsvyL0RYG07zBaIugabJ61pcqfRuZJAR6kbMPi4sq/veXTbjvmtjlmCSS5ZhEgAJF+Z/wCcVpoF&#xA;rFoHlq3W3jSKlskK+nEsVSoKUpRaqRt8Rp1G1TixHIbPJZzENur561DUr7Ublrq9maedti7dh1oA&#xA;NgN+gzYxgIig4cpEmyhskh2Kvov8tU82p/zjrqMn5ZKT5sfVmHmF7Oh1EWQiPpiEf3nXjx4b/a47&#xA;1xV5Tcap+c2m3jXdzd+YrO8BHOeWS+jkr1FWYg9sVehWX/OQNrq/5W+aND84IZvN95ZpYafrMcI9&#xA;W6gVy6xXTrx3hYnixG/LxqSq8IxV2KuxVMNC1/V9C1BNQ0q6e1uk25oSAynqrDuDkZwEhRZRkQbD&#xA;6W/Lb85NJ85aPceXvNVlHcQSRgahbSqTbuKhRJX/AHUeRHFx0P0E4E4yxHvi5USMg80x85fln+Wn&#xA;l/8ALqTSLDS2nt9QnMqai1HvEufi9JTLxPpiJDQD9seO+M9QRRH48kRxA7F8w61pWqeVPMbWvr+n&#xA;fWTpLFPEwDoSA6EhSSjioqp3BzNhITjfe40o8Jp7rpn5jzedvInFqJq+nyR/peFNucdCFnUD9hnp&#xA;yH7Le1M1uow8B8nNw5OL3vH/AD55bFlc/pO0SlpcN++Rekcp32H8r9fY+G2ZelzcQo8w0Z8fCbHJ&#xA;rQdSN3benIazxbMfFex/rmQQ9h2Pr/Gx8Mvrj9o7317/AM40/mMda0F/K2oS8tS0dAbNmO8lnUKB&#xA;/wA8SQv+qVwxLpu3dF4c/Ej9Mufv/a9qyToHYq7FXYq7FXYq7FUFresWWjaPe6tetwtLGF55j34x&#xA;qWoPc9B74tmLEckhEcyXwT5s8y3eu63qXmDUm/f3kjzy71Cr+yi17IoCr7DK30OEYafFX8MAxfyT&#xA;5U1Xz/55sNBs6rNqMwEsoHIQW6/FLKem0cYJpXc7dTk+TwGp1Es2QzPV90+c9e8uflX+XC29mgtr&#xA;DTLUQWkCn4+KjiN+8kjmnI9WJY98pyyP0jmWuA6nkHwB5j8wal5h1u71jUZPUurty7eCr0VFr0VF&#xA;2GWwiIigwlKzb0X/AJx//K+580+Yhr168tp5d0GRJrm6iYxyS3APKK3hcbhiRViPsj5jIZZgDdlC&#xA;Nl77c+atD86edZ/KkupxxTwxepHp/Jgblga+isnQcRViK8mO/TfNfwSyb9HL4hDZ5t+Y/wCXEaRt&#xA;Y3yt9S5N9Qv+NZbaU9VYbVBp8S/tdRQjaGLKcZZzgJh4FrWi3+jX72N8nGVfiR13SRD9mSNv2lb/&#xA;AD3zbQmJCw4EokGigMkxdir2ay/KLzvon5XaP+Z/kvVb5r67Ejajaafzhnt7dZHT1FaJ+ciAxjmO&#xA;O1a9ATir1Ly15vkf8vrnzqv5p+YBpumTQWuoiWwtJ2W5kVPhVZkcutZBviq3W7/yr+Y/5aea9T1R&#xA;pNatND05rrTvON3p8Wm3Qvo+XG1R4+McwkKopCgAVoRUrRV5lpv5Wfk/5i0TzLd+V/M2q3V/5e0i&#xA;61doLqzjhjdbaMsFLVPVqDbFXi2KuxVPfJfkvX/OOv2+iaJbma6mNXc7RxRj7UkjfsquRlKkgW+s&#xA;NO0Xyf8AlZ5Pk0ewC3l3drx1O+YD1L2Wm8a1rxhWv+ffW5897OZixpJ5K/MGzh1V/LeqTRsZQrpa&#xA;FiTCjNWONy1aU2Kb8k2rsRlUYyAsj0lsJBNDm8M/OT8urryd5ld0eS50fU2efT7yQlnNTV45GNSZ&#xA;EJ3J69c2eHIJBwskKLGPKfmW98t65b6ragP6dUuLdvsTQPtJE/sy/cd+2TyQEhRYwlwm3sOtafpd&#xA;/ZK9uTPourQCa0kNOXpv+ya8gJInFD4MM0++OXmHY7Ti8ZkiudD1uSCXd7d+L02DodwR/rKQRm4j&#xA;ISjYaNJqJafMJd3P3PSvIfm658reaNN8wWZLi2kDSxqf72BxxkT/AGSE08DvgD3Opwx1GEx6SG36&#xA;C+8NPvrXULC2v7SQS2t3Ek9vIOjRyKGU/SDlj55OBjIxPMK+LF2KuxV2KuxV2KvD/wDnKfza1j5Z&#xA;sfLdu9JtXlM10Ad/q9uQQp/15SpH+qcjIvQ+z+m4shyH+Hl7z+x8g+Z7vhbpbKfilPJ/9Vf6nBEO&#xA;b7QanhxjGOcufuH7fufS/wDzhp5Cj0/y7qXnu+QLNqRaz052H2bW3as7g+Eky8T/AMY/fJEvJPN/&#xA;+cqPzGk17zQmgW8h+qafSW5UHYysv7tD/wAY42r82PhlGH1EzPXl7mzJt6XjWgaJqGu61Y6Np8fq&#xA;3uoTJbwJ/lOaVPsOp9svJoNYFvqj8yNc0j8p/wAt7PyzorKbiFTbWx6NPdsK3N09PAn6NgMwZA5J&#xA;10HNyQRCN9Xyiup6guojUkuHS/WQTLcqxVxIDUMCOhBzO4RVdHGs3b6r/Kn81tL/ADM0v/DnmP0o&#xA;/NscXBWeix6jGo6jpxmWn8R7YWfBbkYsrFvzH/LiNI2sb5W+pcm+oX/GsttKeqsNqg0+Jf2uooRt&#xA;i4spxlyJwEw8C1rRb/Rr97G+TjKvxI67pIh+zJG37St/nvm2hMSFhwJRINFAZJizXTfzk/MbS7HQ&#xA;7LTNXexh8uiZdM9BI1KrcMHlSX4SJlZgDxkqMVe8/lv5ufzZ+VPmjzJ5u1iz0aYa9YzT6nJY/Wbb&#xA;1LWO29ISWkTR8/UKANv3xVMNHn8r+fPO2iWGtfmpbebLCOZmg8npor2VncMsL0DD1Ch4faBkDUpt&#xA;ir5f1XUtS0bzDr9rpF3Pp1tcTXVlcQ2sjwpJamVlMEgQqHjIFCh2xVIcVT3yX5L1/wA46/b6Jolu&#xA;ZrqY1dztHFGPtSSN+yq5GUqSBb6y0rSvKf5T+UzpmmEXF/cD/chqGwmvJgN0Q/swr/n767PnvYOZ&#xA;ixPFvzF/MW4tbhyXWbXpl/dx9Y7OM7qSpqOdDVVP+s3YF0+n4vVLkubNw7Dm8it9Rvre/XUI5m+u&#xA;K5kMzEszMTVixP2uVfir1zYyiCKPJwxIg2+ltBv9O/Nb8tJ9EvGAv4VDQyvu0VxGKI9dzsaK/dlP&#xA;vmt3xTpzdpxfNF/Y3VhfXFjdxmK6tZHhnjPVXRirD6CM2YNi3CIp6V+Uusm/02+8rTtymgD6hpFe&#xA;tUH+kwr3+NPjAHdTmFrMe3E5OmnvSW/mTpPOCDVYwS0X7melT8BJKMfCjEj6RkdFk5xZamHVKPLV&#xA;36tmYGNXgNB/qnpmbIPT9g6njxGB5w+4vsr/AJxj82nVvJEuizuWutCl9NKmp+rT1eL7mDr8gMMS&#xA;6jt7TcGbjHKf3h7DknRuxV2KuxV2KuxV8Zf85AeY21r8ztTVX5W+l8dPgHh6H96P+RzPlZe77Gwe&#xA;Hp498t/n+x4ddQ3WseYY7GzT1bm5mS0tYx+07sEVR83OTGweW7Vz+LqJHoNvl+199+YX0v8ALn8q&#xA;7fTYj/omkWAjJFFZ0to6yN/rSsN/dso1B2ERzk4WIb33Pz41XUrrVNTutSu253V5K88zeLyMWNPb&#xA;fL4ihTWTZe3f84qeXEOtav5vuEHHRoBb2Lt0Fzc1BZT4pHv9OUaidBsxRt5x+a3nWTzb5wur5HLa&#xA;dbk22nL29FCfjp4yNVvpp2yWHHwxrqjJPiLDsua1W1urm0uYrq1laC5gYSQzRkq6OpqGUjcEHARa&#xA;gvrD8qfzW0v8zNL/AMOeY/Sj82xxcFZ6LHqMajqOnGZafxHthZ8FuTiysW/Mf8uI0jaxvlb6lyb6&#xA;hf8AGsttKeqsNqg0+Jf2uooRti4spxlyJwEw8C1rRb/Rr97G+TjKvxI67pIh+zJG37St/nvm2hMS&#xA;FhwJRINFAZJi+lvLfljyHB+Ser+S5vzE0KO+128ttRWZpgFgCCJmikXly5D0yMVfOwnu9I1Z5NNv&#xA;mSe0ldLe/tXaMmhKc43UhgGHv0xVCSSSSyNJIxeRyWd2JLMxNSST1JxVO/JfkvX/ADjr9vomiW5m&#xA;upjV3O0cUY+1JI37KrkZSpIFvrLStK8p/lP5TOmaYRcX9wP9yGobCa8mA3RD+zCv+fvrs+e9g5mL&#xA;E8W/MX8xbi1uHJdZtemX93H1js4zupKmo50NVU/6zdgXT6fi9UuS5s3DsObxyWWWaV5ZXaSWRi0k&#xA;jEszMxqSSdySc2bhLMVZr+Uvm+Xy35utZCx+p3brDcJ48jRT+NPpr2zG1OPijfUN2GdGu9kv/ORn&#xA;lyKy812uuWwH1bW4ObMvQzQBVYin80bIfnXI6SdxruTnjRt5t5d1q50PXbHV7b+9spkmC9OQU/Eh&#xA;9mWqnMmceIU0xNG3tPmvSrO7W7tbcg2GoQiaykIqvpToJYXp/k8gfozTRJhO+52RHFF4xoUz22qL&#xA;G4K86xOp2IPYEf6wzdHkz7Gz+HqAOktv1fa+gv8AnGzzGdK/MmCyd+NtrEMlo4J+H1FHqxH58o+I&#xA;/wBbIxeh7cwcenJ6xN/ofX+TeIdirsVdirsVUL+8hsbG5vZzSG1ieaU+CxqWb8BiyhEyIA6vz21f&#xA;UZria91K4PKaZpLiU+LuS7ficrfR8khixE9Ix+4Jj/zjJ5bGvfnNovqxiW30wy6nPy7G3UmFvmLh&#xA;o8mXze73e2f85feaGt/LR0yJ6G8nitSAafAn7+Q/8Eqqcxh6sv8AVDbyh73x9mU0vfbLUx5M/wCc&#xA;aI2iPp6l5ouJig6EiQmAP47QRPQ+JGYkhxZK7m8GoPAsy2h2KuxVVtbq5tLmK6tZWguYGEkM0ZKu&#xA;jqahlI3BBwEWoL6w/Kn81tL/ADM0v/DnmP0o/NscXBWeix6jGo6jpxmWn8R7YWfBbk4srFvzH/Li&#xA;NI2sb5W+pcm+oX/GsttKeqsNqg0+Jf2uooRti4spxlyJwEw8C1rRb/Rr97G+TjKvxI67pIh+zJG3&#xA;7St/nvm2hMSFhwJRINFAZJi7FU98l+S9f846/b6JoluZrqY1dztHFGPtSSN+yq5GUqSBb6y0rSvK&#xA;f5T+UzpmmEXF/cD/AHIahsJryYDdEP7MK/5++uz572DmYsTxb8xfzFuLW4cl1m16Zf3cfWOzjO6k&#xA;qajnQ1VT/rN2BdPp+L1S5LmzcOw5vHJZZZpXlldpJZGLSSMSzMzGpJJ3JJzZuEsxV2KuxV7Z5v1A&#xA;ebPyJ0/Vn+K90S6jS5baoU1gNQPsqzOtPkMwcI4Mpi5WQ8ULeJ5nOK9u8r3v6S/L/RbonlNYNNpk&#xA;7d6RMJYR/wAi5afRmp1can73P08ri8u832/1LzRdmOoDSLcKx7tIA7U9uZIzYaeVwDjzJhksdDbM&#xA;/LOsvpWu6XrMJ+KyuYLpadxG4en00yT6FkiMuIjpKP3h+gaOroroQysAVYdCD0OWPmxDeKuxV2Ku&#xA;xViP5u6gbD8svMk4NC1jLAD/AMxA9HwP+/MBc3s2HFqID+l9274L12Thpc5HVgF+9gMgOb2HbE+H&#xA;TS+A+17L/wA4Q6TFJ5k8z6ww/eWVlb2itvst1K0je3/HqMm8Ex3/AJyt1lrvzHpNoW+zFPeMtf8A&#xA;lol4jb/niaZi6Xe5d5b821B4VmW0PSPzf1rlY+UPLULfuNF0SzeZQdjcXcKTOSP9UqR88pxR3J82&#xA;yZ5B5vlzW7FXYq7FVW1urm0uYrq1laC5gYSQzRkq6OpqGUjcEHARagvrD8qfzW0v8zNL/wAOeY/S&#xA;j82xxcFZ6LHqMajqOnGZafxHthZ8FuTiysW/Mf8ALiNI2sb5W+pcm+oX/GsttKeqsNqg0+Jf2uoo&#xA;Rti4spxlyJwEw8C1rRb/AEa/exvk4yr8SOu6SIfsyRt+0rf575toTEhYcCUSDRR3kvyXr/nHX7fR&#xA;NEtzNdTGrudo4ox9qSRv2VXGUqQBb6y0rSvKf5T+UzpmmEXF/cD/AHIahsJryYDdEP7MK/5++uz5&#xA;72DmYsTxb8xfzFuLW4cl1m16Zf3cfWOzjO6kqajnQ1VT/rN2BdPp+L1S5LmzcOw5vHJZZZpXlldp&#xA;JZGLSSMSzMzGpJJ3JJzZuEsxV2KuxV2Ks/8AIGrB/J/nLy7Kw9O4sDfQIRt6lqyuxr/qqKZjZY+u&#xA;Mvg3QPpIYBmS0vVPyjuTN5Y8xWLGotprS9iHgWLwSH/hkzA10eRcvSnmGO/mbbuNSs7g/YkgMQ+c&#xA;blj/AMnBk9EfSR5sdSPUv0iT1NMt28EC/wDA/D/DMgvcdmT4tPA+VfLZ+gH5fX51DyL5evWNXn06&#xA;1aQ/5foqH/4auTDw+shw5pj+kfvT/C4zsVdirsVeb/8AORM5i/KPWVA/vntUrWlP9Kib/jWmCXJ2&#xA;vYovUx+P3F8PeZSRptPGRQfxORi9B2+f8H/zg+iP+cNbdbfyN5y1IBQ8k8cXID4j6EDMoJ8KzbfT&#xA;gyGon3PGQG4ePf8AOR1w0v5iBD0gsYI13rsWd/o3fKtIPQ2Z/qeW5ktKN1fVbnVL9ry4oJGSKIBa&#xA;0CQxrFGNyTsiAYAKSSn35f8A5Z+avPWpPa6LbgWtuOeoapOfTtLWOlS80p2GwJCjc+HXCh7f5E0b&#xA;8lIrbzZ5R0Oxh81app3l3UNSvfNt7FG8X1m3CRolhG4fgimYt6i7kjqwocVeJflP5Mg86fmJonlm&#xA;5maC1v5m+syIQH9GGNppAhOwZkjIU+PY4qzvzB+d9n5c1S60PyH5S0bStH0+Z7eO4u7Rbu+uBExT&#xA;1J5ZST8VK03I/mOKojyp+anlzz5rVn5W/MPytpT22rSrZ22vaXbiyv7Wac8IpOaHi6K5Wq0A7nlT&#xA;iVXmPm/y/qfkfzxqWjCdkvdFu2SC7jJRiEPKKVabryQq2Ai1BfSf5U/mtpf5maX/AIc8x+lH5tji&#xA;4Kz0WPUY1HUdOMy0/iPbCz4LcnFlYP578i3Or+Z4vIWjwDUtXdhNDITxbToyw9RrhgPhBXqp67Hr&#xA;TK9MJRN9GeYiQrq9S0rSvKf5T+UzpmmEXF/cD/chqGwmvJgN0Q/swr/n7jPnvYJxYni35i/mLcWt&#xA;w5LrNr0y/u4+sdnGd1JU1HOhqqn/AFm7Aun0/F6pclzZuHYc3mvlfyxrfnDX10vTpIZNVuyWjF5c&#xA;xQGaRmA4q87KHkdm2UHkc2bhJ5N+UWvwyvDNq/l2OWNikkb67pasrKaFWBuKgg4qhj+VvmpfNlp5&#xA;VY2Q1XUIYbiwJvbb6vOlyAYPRuPU9KRpeQ4BWJbtiqLm/JzzLDcyWkup6Al5E7RSWra5payiRTxZ&#xA;ChuAQwIpQ4qx7zB5P8y+XtdOg6xp8lrq1UC2vwyF/U+wY2jLpIG/ZKEg4qyY/kt5likW0vdU0PT9&#xA;YY8f0Nd6paxXiua0R0LlEc0A4uwNSNsVSjzF5W83/l/qsdlrtobC/v7GVxbM6sTb3Hq2pLcCw+1G&#xA;1PkD0pglG0g0xfCh6N+Szlr7zFbn7D6S8p+cVzBT/iWYet+j4uRpvqQv5on4dMHgZzX5+nkND1+D&#xA;PVdEF5eaulRj+UsP+GJ/jmZLm9d2Ib00fj977s/I+Vpfyp8uswAIt2TbwSV1H4DJDk8v2sK1M/f+&#xA;hnOF1zsVdirsVeZf85HA/wDKptT9prX/AKiEwS5O27E/xmPx+58ReZx/uOX2kX9RyMXfe0A/wcf1&#xA;h9xfRf8AziNIv/KrfNqBhzF8Cyg7gNAgBI8DQ5DP9J9zx+PmHi//ADkQP+QkTf8AMLb/APETkNL9&#xA;DLP9TzLMlpZH+X1l5MvPNtjD501CTTfLdWe+uYUkkkIRCyxqIklcc3AUkLsMVe/ed/Mf5GeYNGg8&#xA;taN+Y58seT7cDhoOn6Nf8JHFCZLmUoHmYtv8XzNW3xVf+S/lP8nNPvfNb+XvPc2tSzeW9Qhv4jpl&#xA;zbGCzdojLcAyhQ5QhRwG5rirxjyfYJB+cGlWXkbzAgIvYk0bXL2F4EaRkFBLDR2AdyYuPevvirN/&#xA;Onmn8q5vNeqWn5ieQbrS/NFvcOmpXmhXbRRzygms621wAiiT7Yap5A1qcVTD8sdX/Ky7/MHR7L8v&#xA;fId1eay9zG66lrV000dlEjAy3P1eIlGMa1KszCjUpvTFXm/57azZaz+b3mi/sXEls14YUkU1Vvq6&#xA;LAzKR1BaMkHwxVJfIHlXzR5m80WWneWkf9J81kS5QlBAEIPrO4+wE8cjMgDdlEG31pbweX/y18vT&#xA;28Fw2o6zqDGTWNYkPK5v7k7sOZqRGCf9uu+tzZr2Dl48byPzR5l1a+1RooSJNalC85CpaDToX3V5&#xA;Bv8AvCN44/8AZH3hjgAOKXL72cpH6Y83i2v6VqmmapNbamC10xMhmLFxMHJIlVz9oN4/fvXNpCQk&#xA;LHJwZRINFk/5IxyP+bnlLgpbjqlqzUBNFEoqTTtk2LMtTn/Kpb/zhGfK+qwatPbahFYXd5KLyD66&#xA;0n7to4ktozGxapVy/wAOKsf8paX5stfze/L6LXzLLctc6FPZK7+qyae0sLWy7E8FSKnwn7OKsouv&#xA;y7/LnzT+YPm21h1XXV1eymv9Rn0xdNtfUuBDOWmisybwmR6MWTkq8lFaV2xVDeb4PNnmbzf5B1XQ&#xA;9Kk0aw/0bQfJzatLznlbS5qiW5HxMP3s1DRePYdMVS/zvfeS4/Nmo2vnTyJqOkeYJbmSTUZNM1Mx&#xA;q80j8nlhhu7a5BSRqspD8SDtiqTfm/pV/Y3XlyW4v9QvLS70eOTS7bWEEd/Z2i3Eypby8SeShgzR&#xA;ttVWGwAxV5/ir0P8lF/3Na49fsaNcGnjymgTf/gq5iaz6Pi36f6kP+aH/Ss/57/8y8q0PX4Nmq6I&#xA;Hy4CNLX3ZiPvzNlzes7CH+DD3l91/kV/5Kby9/xhl/6iJMkOTzPa/wDjM/x0DPMLrnYq7FXYqwL8&#xA;97U3P5TeYYx1WKGX/kTcRyd/9TAeTsuyJVqYfH7i+FvMSctLc/yMp/Gn8cjHm9N25G9MT3EffT27&#xA;/nD29ZtA8+aeSKKllcRr33E6yH/hVyGf6D7ni8f1BgP/ADkxZtH52sLn9i409BX/ACo5ZAfwZcq0&#xA;Z9PxZ6gbvIcy2h2KuxV6P+X3536v5G0iXTtM8uaBePcJLDc6hfWTy3c0E5Be3llSaLnF8I+AimKs&#xA;N8weYJNY1+41qOytNIkndZEs9LiNtbQsihR6MYZuH2eXXrvir0OD/nIbWb60gtvOXl3RvODWy+nF&#xA;f6nbf6aEAIC/WIytev8ALXuTXFVPVP8AnIHXV0i60jyloeleTbO+X07ybSIPTu5UpTi1wTyp7qAw&#xA;8cVYR5L8l6/5x1+30TRLczXUxq7naOKMfakkb9lVyMpUkC31lpWleU/yn8pnTNMIuL+4H+5DUNhN&#xA;eTAboh/ZhX/P312fPewczFieL/mJ+Ytxa3DsXWbX5h+7j6x2cZ3UlTUc6Gqqf9ZuwLp9PxeqXJc2&#xA;bh2HNmv/ADj/AOZvJfmPy5J5PuLaOz8zs0k0skrFv0oXJZnaRyW9dfn8va/UYb/H2NWLJSX/AJj/&#xA;AJcRpG1jfK31Lk31C/41ltpT1VhtUGnxL+11FCNsPFlOMuTOAmHiBl82eStbkFlfXOk6iEKreWM8&#xA;kBkhc1qksRQtG/H8N9xm2hMSFhwJRINFHf8AK2PzT/6nLXP+4lef9VMkxS//ABv50/TP6c/T+pfp&#xA;r0/R/Sn1uf616dKcPX5+px9q4qpN5t80vrsfmCTWL2TXYirR6pJcSvdAovFf3zMX2Xbr02xVE615&#xA;+8661rNtrWqa3eXOrWXH6lemZ1lg4nkPRZSvp77/AA03xVNNM/OX81dLs/qdl5q1GO234xmd341q&#xA;TxL8ivXtirF9V1fVdXvpb/Vbya/vpjWW6uZGllam27uSTiqExV6Z+TUJW08z3v8AJa29sD7z3Aan&#xA;/AwnMLWn0gOTphulv5oTIX02EH40EzsPZ+AH/EDg0I2JTqjuENoKcdKg8TyP3scyjzey7HjWmj8f&#xA;vL71/KK0Nr+WXlqIinKwhl6U/vh6v/G+TDyHaUr1E/6xZdhcJ2KuxV2KpP5z0ptW8o61piLykvbG&#xA;4gjA683iYL/w1MS36XJwZYy7pB+fWqRerp9wg3JQkD3XcfqysPedoY+PBMf0fu3Z1/ziPrAtvzE1&#xA;HR3l4prek3MEURp8c8XGZae6xpJhyCwQ+fRNFNv+coNIMmkaJq6ja2nltZCPCdA61+Xon78w9HLc&#xA;hyNQNgXzxme4rsVdirsVdirsVT3yX5L1/wA46/b6JoluZrqY1dztHFGPtSSN+yq5GUqSBb6y0rSv&#xA;Kf5T+UzpmmEXF/cD/chqGwmvJgN0Q/swr/n767PnvYOZixPFvzF/MW4tbhyXWbXpl/dx9Y7OM7qS&#xA;pqOdDVVP+s3YF0+n4vVLkubNw7Dm8clllmleWV2klkYtJIxLMzMakkncknNm4S61urm0uYrq1laC&#xA;5gYSQzRkq6OpqGUjcEHARagvrD8qfzW0v8zNL/w55j9KPzbHFwVnoseoxqOo6cZlp/Ee2FnwW5OL&#xA;Kxb8x/y4jSNrG+VvqXJvqF/xrLbSnqrDaoNPiX9rqKEbYuLKcZcicBMPAta0W/0a/exvk4yr8SOu&#xA;6SIfsyRt+0rf575toTEhYcCUSDRQGSYuxV2KuxV2KuxV7B+W9p9T/L6a4PwyatqJ4/5UNnFQH/kZ&#xA;M33ZrdbL1AObphtbBvzEuVm8xGILQ20McTHxLVlr90lMyNJGoe9p1BuSa6dbOLe2t0XlJxRAo6li&#xA;AP15cX0DSw8PDGJ6RH3P0M0bT103SLHTloVs7eK3UitKRIE2r8ssfO8s+KRl3m0ZiwdirsVdirsV&#xA;fBn5h6AdB8765pBXjHbXcohU/wC+XPOL742XKy+jaPL4uGMu8f2sK/L3zGfJv5k6LrTMUh0y/jNy&#xA;wBJ+rM3pz0A3+KF2yfR4DUYvDySh3F9S/nN5W/S/lDXtLiUPNCrT2dN6tA3qJx/11Xj9OauB4Mnx&#xA;bpDig+Ls2rhOxV2KuxV2Kp75L8l6/wCcdft9E0S3M11Mau52jijH2pJG/ZVcjKVJAt9ZaVpXlP8A&#xA;KfymdM0wi4v7gf7kNQ2E15MBuiH9mFf8/fXZ897BzMWJ4t+Yv5i3FrcOS6za9Mv7uPrHZxndSVNR&#xA;zoaqp/1m7Aun0/F6pclzZuHYc3jksss0ryyu0ksjFpJGJZmZjUkk7kk5s3CWYq7FVW1urm0uYrq1&#xA;laC5gYSQzRkq6OpqGUjcEHARagvrD8qfzW0v8zNL/wAOeY/Sj82xxcFZ6LHqMajqOnGZafxHthZ8&#xA;FuTiysW/Mf8ALiNI2sb5W+pcm+oX/GsttKeqsNqg0+Jf2uooRti4spxlyJwEw8C1rRb/AEa/exvk&#xA;4yr8SOu6SIfsyRt+0rf575toTEhYcCUSDRQGSYuxV2KuxVsAkgAVJ2AGKvfp7BdI03StB2U6VaJH&#xA;c7in1mWs1wa+zyEfRmlyy4pkuyxx4YvE5Jjq3mB56Hjczl+LGpEdahf9iu2beMeGIDTpMXjZ4x75&#xA;fZ/Y9e/KHQTrn5k6BY8eUS3S3M47enbfv2B9mEfH6cAe27SzeHp5nyr57PuPLHz12KuxV2KuxV2K&#xA;vl7/AJyq8rtaeZtP8xRJSDU4Pq9ww/3/AG/Qn/WiZQP9U5CT1/s9qOLGcZ/hP2H9r5m8z2vp3SXC&#xA;j4ZhRv8AWXb9VMMS6/2g03DlGQcpfeP2Pq78p/Ng80fl9pF7I/O+soxpmoEkkmWzVURiTuS8BjYn&#xA;+YnNdqoVK+91mCVh8z/mx5Sbyx53v7JE42Vw31uw2oPRmJIUf6jck+jM3BPiiC4+SNFh+XNbsVdi&#xA;qe+S/Jev+cdft9E0S3M11Mau52jijH2pJG/ZVcjKVJAt9ZaVpXlP8p/KZ0zTCLi/uB/uQ1DYTXkw&#xA;G6If2YV/z99dnz3sHMxYni35i/mLcWtw5LrNr0y/u4+sdnGd1JU1HOhqqn/WbsC6fT8XqlyXNm4d&#xA;hzeOSyyzSvLK7SSyMWkkYlmZmNSSTuSTmzcJZir1W00Hyr+XPl+z1jzbp0euectWiW50nyvclxbW&#xA;dq/2LnUFQqzvIPsQ1FBu2/RVT1ny75Y89eWrzzV5Msk0jXNHi9bzJ5UjZmiNuCAb6w5Fm9Ja/vYz&#xA;9j5U5KvLsVVbW6ubS5iurWVoLmBhJDNGSro6moZSNwQcBFqC+sPyp/NbS/zM0v8Aw55j9KPzbHFw&#xA;VnoseoxqOo6cZlp/Ee2FnwW5OLKxb8x/y4jSNrG+VvqXJvqF/wAay20p6qw2qDT4l/a6ihG2Liyn&#xA;GXInATDwLWtFv9Gv3sb5OMq/EjrukiH7MkbftK3+e+baExIWHAlEg0UBkmLsVdirNPyn0KPUfNMd&#xA;/dJy03RF+v3dfss0Z/cRfOSXiKeFco1OThh723DC5Mn8/wCtvDo93LI/K71Bmi3oSfVqZGoe3Gv0&#xA;kZgaWHFP3OXnlUfewHyva8pZbkjZBwT5nc/hm0k7T2e09ylkPTYfj8c31L/zih5XaS+1fzPKv7uB&#xA;Bp9oT0LuRLMR7qqoP9lgi3e0Wo2jjHvP6H0lk3lXYq7FXYq7FXYqwn85PJh82+QNQ0+FOeoWw+ua&#xA;eKVJngBPBfeRCyD54CHYdmarwcwkfpOx9x/FvhbVrL63ZSRAfvF+KP8A1h2+npkAXse0tL4+ExH1&#xA;cx704/Ijz2fLfmr9GXcnDStaZIZixoI51JEMm/Tdyp+de2V6nHxR9zwmKXDLd6/+enkNvMvlY31l&#xA;Fz1fSOU0IUVaSEissQp1NByX3FB1zD02XhlR5FvzQsPlPNo4TsVT3yX5L1/zjr9vomiW5mupjV3O&#xA;0cUY+1JI37KrkZSpIFvrLStK8p/lP5TOmaYRcX9wP9yGobCa8mA3RD+zCv8An767PnvYOZixPFvz&#xA;F/MW4tbhyXWbXpl/dx9Y7OM7qSpqOdDVVP8ArN2BdPp+L1S5LmzcOw5vHJZZZpXlldpJZGLSSMSz&#xA;MzGpJJ3JJzZuEsxVnv5NaHpl75rm1jWovW0HytZza3qUJ2EotQPRgqdv3s7IvE9RXFUivrrzT5+8&#xA;5T3Zjk1HXtaueRSMdXkYKqipoiIKKKmiqPDFVby5rfmL8vvO9vqAhe21PSZ+N3ZS7CSP7MsEg3BS&#xA;WMlfkajFUd+bvlnTdA86zjR99A1aGHV9DNKf6HfIJY1A/wCKyWj/ANjirC8VVbW6ubS5iurWVoLm&#xA;BhJDNGSro6moZSNwQcBFqC+sPyp/NbS/zM0v/DnmP0o/NscXBWeix6jGo6jpxmWn8R7YWfBbk4sr&#xA;FvzH/LiNI2sb5W+pcm+oX/GsttKeqsNqg0+Jf2uooRti4spxlyJwEw8C1rRb/Rr97G+TjKvxI67p&#xA;Ih+zJG37St/nvm2hMSFhwJRINFAZJi2ASQAKk7ADFXueiaH/AIY8sW+jOOOqXhW91k91cr+5tz/x&#xA;iRqt/lMc1Gpy8cvIOwwY+EPL/O+s/pPWfQgbnbWlYouO4Zyf3jD5kcfcAZn6bFwx35lxssjOVBNd&#xA;KsGgtobVFLymgKqKlnbsAOu+wywl73Q6YYMIj3c/f1feX5Y+UF8peSNM0UgC6jj9W+YU3uZfjl3H&#xA;XiTxB8AMmA8Pr9T42aU+nT3MpwuG7FXYq7FXYq7FXYq+O/8AnIHyC3lfzrLfWsXHSNaLXVqQPhSU&#xA;ms8XtRjyA8CPDISD3PY2s8bFR+qG36ng3mDTzb3X1iMUimNduz9T9/XDEuh7b0XhZOMfTP7/AMbv&#xA;pr8lvzDXzX5bW1vJa63pirFdhj8UqdEnHjy6N/lfMZrdRi4T5FwcU+IebyP88/yyby5qza5pkVND&#xA;1GQl0QbW9w25SnZH3KfSPCuVps3EKPNozY6NjkwbyX5N13zj5httC0SD1ry4NWY7JHGKcpJD2Va7&#xA;5kSlTUBb6z0rSvKf5T+UzpmmEXF/cD/chqGwmvJgN0Q/swr/AJ++uz572DmYsTxb8xfzFuLW4cl1&#xA;m16Zf3cfWOzjO6kqajnQ1VT/AKzdgXT6fi9UuS5s3DsObCfL3kLUPMejXmvG8YR28k5vpDBcXBQQ&#xA;w/WZZpZI1dVHCpqxqSO5zZuEjtG/KiTVrIXVrrMMsTSXIWaC3uriGOK1cqZLl4Y3eD1FUunJKcaF&#xA;itcVSq/8m6Va6IuqJ5jtLhZWmigiSK6Bkmto4ZZIwzRha0uVAJ2JriqeeTJDb/k5+Ys0dBJcTaJZ&#xA;swpyET3E8zjxozQJiqP/AOcaI5X/ADZ00RRPKQjkrGZAQoK1Y+kGNB3rt44qlv5/pKn5veYlkjeJ&#xA;/UgJST1C1DbREH96Ffcbjb5bYqr/AJiRtdflx+V+pTMv1ifTr+xLmopFZalKkQJJOyrJiqEs/wAo&#xA;9SnutRgN9HKun6gmlGWzguLwGVxyEzrEhkjg49HK1PQKaGiqHsvyj82TfpQ3ixacumJqBUzlj9al&#xA;0qKWW5itfTEnqcRbuPU2jr8PLkQCqi5vyu13Q9DbzEdWgtNT0+2ttU+pRmQzrHcFDCySRBlDgSoz&#xA;cuIFRRiagAi1Be6flT+a2l/mZpf+HPMfpR+bY4uCs9Fj1GNR1HTjMtP4j2ws+C3JxZWLfmP+XEaR&#xA;tY3yt9S5N9Qv+NZbaU9VYbVBp8S/tdRQjbFxZTjLkTgJh4DrOj32kahLYXqhZo6EMp5I6ndXRu6s&#xA;On9c20JiQsOvlEg0Wd/lZ5UWKnm7VIgba2cro1tINri6X/dtD1jgO5PdqDxzF1WbhHCObfgx2bKP&#xA;88+ZnsLOQLKW1O+5cWr8ahj8cp/Uvv8AI5i6XDxSs8g358nCKHNgPlzT/Vn+tSD93Efgr3f+zNpI&#xA;ux7C0XHPxZfTHl7/ANj6F/5xw/L86/5tGu3kROlaEyyqSPhku+sS/wCw/vD8l8cEQ7TtzWeHi4B9&#xA;U/u6/qfWuTeLdirsVdirsVdirsVdirFfzM8iWfnbyndaNMVjuv77T7lh/dXCA8G7/C1SrexOAhzN&#xA;Bqzp8omOXX3PhnXtDurW4u9I1OBre7t3aKeJx8SSIaf5+OQ5PdZsWPU4q5xkOf6WNeXdf1nyb5lg&#xA;1KybjcWzUeM/Ymhb7SN4q4+479RhnATFF4LPhngyGMuY+19ZaPq3ln8wPKBlVFudM1CMxXdrJ9qN&#xA;6AtG/g6HcEezDtmqlGWOXm3AiQfOPnLyj5o/K3zXDqOlXEsdoXLaXqabVUj4oZafDy41DKdmX6QN&#xA;jjyDJGi4s4GBR2vfnFLqNl9fALa9N+7VGX9zaqB9tAahuvwDt1avfHho/VvybZaj07c3mMsss0ry&#xA;yu0ksjFpJGJZmZjUkk7kk5nuKnGl+cdc0zTf0bbfVHsxK84jubCyuiJJFCMedxDK+6qBStMVTA/m&#xA;h50YQcruBpLUztaTNZWTTQNczyXMphlMPqREzTuwKMKV2pQUVSYeYNTGk2+k1haxtZZriGNre3Zh&#xA;JcRrHKxkaMyHkqLsWoKAihAxVm/5WodX8n+f/KcQreX+mwarYrQEvLo83rOi9+TQSy0AxVJ/yl83&#xA;6X5S89adrWqWgvLKJwkqkRn0wzLWYCSG4qYwOVFUN4Mp3xVCfmT5lsPM3njV9c0+1FnZXkoMEA9P&#xA;7KIsfP8AdxW6/vOHP7AO+5JqxVZJ+caro8fk7ykABdeXdEhOoxECsd7fyPfTRsCP2RMta4qx2P8A&#xA;MrzhHeXV4tzbme8mS5l5WNkyLPEoRZYY2hKQyUAq0SqTQE1OKofSfP3nHSpJ5LPVpwbiKeCZZiLh&#xA;GS6Vlm+CcSKGcO1WA5bnfFVsvnjzNLpbaY9zGbeS3Sykm+r24untomVkge7Ef1lo14KApkpxAXoA&#xA;MVSa1urm0uYrq1laC5gYSQzRkq6OpqGUjcEHARagvebn/nJa31P8u5LTWNP+s+clC2yz8R9WuIyN&#xA;p5qEEOlOi9T4dsaemEi3xzUHnHkvyfd+ar+bXNdlkj0SGSt7d9JJ5KVFvbjpyI8NkX6Bhy5RjjQR&#xA;jgZmyzzzH5gtLOzN3KiW1laosFlZRbKiqD6cMY8ff5k5roQlkk5spCAePzz3+v6u00prJKamg+GN&#xA;B0AHgB9/zzbwiICg4+m089Tl4R1+wM48s+XL3VdSsdC0iEy3d04ht4/Encsx7ACrMew3wc3uwMem&#xA;xd0Ij8fEvunyH5N0/wAn+VrLQrKjegvK5npQzTvvJIfmengKDtkwHgtZqpZ8hmev2BkGFxnYq7FX&#xA;Yq7FXYq7FXYq7FXif/OQv5Qtr9m3mrQ4eWs2af6fbIPiuYEH2lA6yRj/AIJduoAyMg7/ALF7S8M+&#xA;HM+k8vI/qL5J1bS0vodqLOn92/8AA+2RBp3/AGl2fHUQ7pjkf0KPkPz5rvkXXTcW4L2zkJqGnuaJ&#xA;Kg++jivwt/CowZcQmHiCJ4pmMhRHMPqS01Pyf588pPLyjvNHvE4XMMpCtE3UrJvWORDuDX3B6HNY&#xA;RLHLzckESD5x/Mb8prvy3NNfaPOuq6ADyM8TK8tuCdhOqV2/y+h9sz8OoE9jzcXJiMfc89zJaXYq&#xA;7FXYqm/lLzNqXlfzLp3mDTSBeadMs0at9lwNnjen7MiEo3scVZZ+ZXkzTmgXzz5ORp/JerNzeNRy&#xA;fS7t6GSxuQv2OLN+6Y7MpFK9Sqify28qWGj2S/mR5xhKeXNOeui2Enwvq2oJvFDGpG8CMOUslKbc&#xA;d96KsD8wa7qWv63fa1qcvrahqMz3FzJ0BeQ1IUdlHQDsMVS/FXYq7FXYqz7yZ+Wj3kMWs+Yy9lor&#xA;Ua2tx8NzeeAiB+xH4yH/AGNe2Ln1IjsObfiwmXPkzbXtfsrKwSSZUstMs19OysYQAqA7hI125O3U&#xA;k7nqTTNdGMskvNzCRAPI9a1nUPMOpKxUhBVba2BqqKepPuf2m/gBm2xYhAU4kYzzTEYiyU90rTEs&#xA;4REg5zPTmwG7HsBhJt7js/Qx00K/iPM/jo+wfyC/KP8Awppn6e1mGnmHUI6JEw3tYG34e0j9X8Ps&#xA;+NZAPNdsdpeNLgh9EftL17JOkdirsVdirsVdirsVdirsVdirsVfOf58/ka6vc+bvK8HJGrLq2mRj&#xA;dT1aeFR27uv0jvSJD1PZHa3LFkPuP6D+h80arpMV9HUUSdR8D+PsfbIg07TtHs2OojfKY5H9BSbS&#xA;9X1fy7et6dVVqevbPX05AOh27jsw/rgyY4zFF4vJjyYJ8MhReoeV/N9tfEXGnTmC8Ray25I5qDs2&#xA;3R0/Dxp0zV5cEoHycmGUTQ+v+QfLevlp7Ax6DqrfaSh+oSt/qqC0BP8Akgr7DLsWrI2lu1ZNODye&#xA;ba/5U8waBKqarZPAkhpDcCjwS+8cyco3+g5sIZIy5FxJQI5pRk2LsVdirIPJ/nzzV5Qup59BvTbr&#xA;dxmK9tZESa2njII4zQSh43pU0qu3bFVnm/zt5n836mNR8wXzXk8aCKBKLHFDEvSOGJAscajwUe53&#xA;xVIsVdirsVTvy75N8x+YZCNMs2eBD++vJCI7eMf5cz0QfKtchPJGPMsowMuT0vQPJHlfy5xnm4a7&#xA;rK7iWRT9RgbxjjbeZh/M44/5Oa7LqzLYbBzMenA5rfNXnS2sZHmvpmu9Rk3EAarnao5HcIvh+Ayv&#xA;FglP3M8mUR97y+9v9X8wX/OY+o+/CNdo41PgN6D8Tm0hjjAUGjDhyaifDEWfuZBpelQ2UdF+Odvt&#xA;ydz7D2xJt7Xs/s6GmjtvM8z+Oj6k/Ij8jG042/mzzRARqG0ul6bIP7nus0wP+7P5V/Z6n4vsyAdJ&#xA;2v2txXixn09T3+Q8nvmSebdirsVdirsVdirsVdirsVdirsVdirsVeEfnF/zj1FqrT+YPKESw6kxM&#xA;l5pQokc56s8NdkkPdfsn2PWJi9F2Z20YVDL9PQ93vfMGraNWSWy1CB4bmBikkbqUljcbEEEVBHgc&#xA;jdPRajS4tTCpbjoR+gsUvNJv9OlFxCzFYyGSeMkMpHQ7bqffJWC8hreycuDceqHeP0si0T8xriEL&#xA;Dq0ZnQbC5joJO/2l2Vu3h9OYmXRg7x2cOGpI5vQNG8z291bSJYXUd3ZyD/SLORVljYHb97BKD1/y&#xA;lzBlCcDvs5QlGSB1HyX5E1WrvZTaPcnrNp7c4SfE28xNP9g65dDWSHPdqlp4nkxy8/Jy8NW0nWrG&#xA;9T9mO4L2cx+iUGL/AJKZlR1kTz2aZaaQSe4/Kn8woAT+hZrhR+1amO5H3wNJlozwPVrOKQ6JbJ5K&#xA;85RNxk0HUUb+VrScH7imT8SPeGPAe50XknznK3GLQdRkYCpC2k5NPoTHxI94XgPcmlt+U/5hT0J0&#xA;aW2U9Xu3jtgPf980eQOogOrIYpHonFl+Tc6kNrGu2VmneO153sv3IEi/5KZTLWxHLdsjppHmyTTf&#xA;KPkPSCrwadJq10u4uNTYGKvtbRcUp7OzZjT1czy2b46eI5orXfNkFvCi6leJBBGP9Hs0ARVHb04I&#xA;xsPcL88qjjnM7Nkpxi891z8xLu4DQ6WhtYiKGd6GY1HYCqp+J7gjM7FowN5buLPUE8tkisdFvb6Q&#xA;zzlkjclnlfd2J3J33NfE5lXTnaHsfJn9UvTDv6n3Mt0XQ5ZZ4dN0q1e4urhgkUMSl5ZHPsNycjze&#xA;uw4MWmhQ9MRzP6y+qPyd/wCcf7Xy8Ydd80JHda4KPbWWzw2p7Fu0ko8einpU0OSAeZ7T7ZOW4Y9o&#xA;d/U/se1ZJ0DsVdirsVdirsVdirsVdirsVdirsVdirsVdirBvzH/KDyr55hMl5H9T1dF4w6rAo9UA&#xA;dFkXYSqPA7jsRgIdhoe0smnO28e78cny15+/KHzl5LleTULb6zpdaR6pbAvAa9Of7UZ9mHyrkCHs&#xA;NH2lizj0mpdx5/teb32gWVzVkHoSn9pBsfmuEScfV9i4cu8fRLy5fJJZtG1WykEsPJihqksJPIHx&#xA;2+IYbBec1HY+oxbgcQ7x+rmj7Hz35js6JJIt0qjjxuFqw9y68XJ/1icpnpYS6U4IzTjsU/tPzNsW&#xA;JF3ZSxAAUaJllqe+zelT7zmNLQnoW0aodQmtr5+8tOgka6e2f+R45OQ+mMOPxyo6SYbBqIphbfmF&#xA;pjAmHWWjptu8sZ+jlxyJ02QdE+NDvddfmFpigGbWXk5bbPLLt78eWI02Q9F8aHel115/8tRqXW6e&#xA;5f8Aljjk5H/kYEH45IaSZQdRFKrv8zbRSRZ2MkgI2eZxHQ/6qiSv/BZdHQ95azqu4MfvvPHmS+Pp&#xA;xyi2VqDhbKVNR3DEtIPobMiGmhHpbV4s5Gh9iCt9C1O7cySgx8zyaSUnkSdyada/PLrAdhpuxc+X&#xA;cjhHn+rmndjoVla0Yj1pR+2/QH2XAS9HpOx8OHc+qXef1PUPy+/Jbzl5zeOeCD9H6Ox+LVLpSqFf&#xA;+KU2aU/L4fFhgAbNb2piwbE8Uu4fp7n1J+Xv5VeVPI9px02D1tRkXjc6nOAZ3ruVB6In+Sv01O+T&#xA;AeP1vaGTUH1H093RmOFwXYq7FXYq7FXYq7FXYq7FXYq7FXYq7FXYq7FXYq7FWnRJEaORQ6OCrKwq&#xA;CDsQQcVBp5T52/5xx8jeYGkutMDaDqD1PK1UG2Zj3a3NAP8AYFciYu50vbebHtL1x8+fz/W8P81/&#xA;849fmRoJaS3sxrNoOk2nkyPTtWEgS1/1VPzwcL0On7awZOZ4T5/r5PMtR0nhM1vqFoY502eOZCki&#xA;/MMAwwObkwYswuQjL8d6Vy+W9NfdA8X+q1R/w1cPE67L2Dp5crj7j+u0I/lRf2Lkj2Za/iDh4nCn&#xA;7OD+Gf2ftUz5VnrtOlPkceJp/wBDk/54+Th5VnrvOtPkceJR7OT/AJ4+SqnlRP8AdlyT7KtP1k48&#xA;TfD2cH8U/s/ai4fLemx05BpT/lN/zTTBxObi7C08edy95/VSbaZo8k862umWbTXD7JDbxl5G+SoC&#xA;xwOxhixYRYEYj5PT/Kn/ADjn+YuuFJb23TRLNqEy3ppLT/JgWr19n44eF1+o7bwY+R4z5fre5eSP&#xA;+cefInlpkuruM65qSUInvFUwqw7x24qg/wBnyI7HJCLz2r7azZdh6I+X6/7HqAAAAAoBsAMLqHYq&#xA;7FXYq7FXYq7FXYq7FXYq7FXYq7FXYq7FXYq7FXYq7FXYq7FXYqgNX8v6FrMIh1bTrbUIh0S6hSYD&#xA;5cwaYtmPNOBuJMfcWC6t/wA48flVqBZl0t7GRur2k8qfcjF4x9C4OEOxx9tamP8AFfvDFb3/AJxN&#xA;8puT9S1q/gr0Ewhmpt/krDg4XMh7RZesYn5/tSuX/nEWEtWLzUyLTo9iGNfmLhf1Y8LcPaQ9cf8A&#xA;sv2Nxf8AOIsAY+t5pZ1psEsQhr8zcPjwqfaQ9If7L9ibWP8Azif5PjIN7rGoXFOoi9GEH70lx4Wm&#xA;ftFlPKMR82U6P/zj5+VemlXOkm+lWlJLyaSUfSgKxn/gcNBwsvbOpn/FXuH4LOtK0TRtIg9DSrC3&#xA;sIe8dtEkSmniEAwuvyZZzNyJPvRuLW7FXYq7FXYq7FXYq7FXYq7FXYq7FXYq7FXYq7FXYq7FXYq7&#xA;FXYq7FXYq7FXYq7FXYq7FXYq7FXYq7FXYq7FXYq7FXYq7FXYq7FXYq7FXYq7FWJj8yNL9S2SSxu4&#xA;DdiCWJ5zaxJ6F0SIJmkedUAcowEdfV2PwYqlFv8Anl5QuLG3vI4bgx3KLJEoksmchljagVLli7L6&#xA;o5qlSm/IAb4qnEv5jaTH6a/VLqWadTJbRQm2m9WNSyyOkkc7Q0jYKr1cULoP2hiq2T8zPL0GoR6d&#xA;dJPbX5RpLi2kEXKBUmERMpWRlpxDy8kLARoxJrQFVRsvzW8uXf1YiC7hjuY3k9aRI/TjZJGi9KRk&#xA;kcK7MF4jp8ab1bFUyk862aiR4rG7nijlhthLGIOLXNwI2jgUPKrcv361YgIN6ttiqDtvzO8uT3P1&#xA;QpcRXwvItO+qSIvM3EknpSBSrMjLA9RKysQNqV5JyVZbirsVdirsVdirsVdirsVdirsVdirsVdir&#xA;sVdirsVdirsVdirsVdiqV+arqa08saxdwSGGe3srmWKUUqjpEzK2+2xFcVeIw6/q66Za6tPc+Yoo&#xA;ZvRklmmuLhdLEVwYaIk9Q/JRMVVmmozqQQK0QIYk/njzuNJvHi1y6a8R1/vLyVeKlAf3IWdiSZi0&#xA;bDjJxRQ4Z+WKrx55871DXOrXNvGLN3UrfysCyqf3kreuwjlA34V60HHfFXvUX/Ksvqzel9X9DkvL&#xA;h6lPSr8Naf8AHp4f7pwpRV3/AIA/QVp9Z+rfoj6pb/U614fVar9X4U349Po67VxVXf8Awx+jz9Z+&#xA;sel6M9Prf1z6z6XOL1ePrf6R9v06U7044qg4f+Vbfo6bh9T+q+s31nnXn6/pSep6vP8Aec/T9Xny&#xA;3+3y/axVba/8qv8A0NefVv0f+h/Qufr3Hj9X9HhD9Z5/s04ejy+jFVtx/wAq09ef1/q/rfB6vL1P&#xA;734fS4/8vFOHp8f3nHjx+HjiqN03/AfoR/UPqfH1l9PjTn6/O3r1+Pn6noc/8rjy3xVkmKuxV2Ku&#xA;xV2KuxV2KuxV2KuxV2KuxV2KuxV2KuxV2KuxV2KuxV2KoDX/ANE/oLUf0xT9EfVZv0jy5U+rem3r&#xA;V4fFThXpvir5xuf+hXv8KwfWP01/hv1D6HL9KehzpvT/AGP4YqyfTf8AlSn6d8v/AFL9M/pX9GD/&#xA;AA9X65T9HfVE/uuf7un1bhWvxU98VQ93/wBC+/4U13639f8A8NfpKf8ATtfrHp/XvXh9f7H7ynre&#xA;jX0/h6UxV//Z</xmpGImg:image>
               </rdf:li>
            </rdf:Alt>
         </xmp:Thumbnails>
      </rdf:Description>
      <rdf:Description rdf:about=""
            xmlns:xmpMM="http://ns.adobe.com/xap/1.0/mm/"
            xmlns:stRef="http://ns.adobe.com/xap/1.0/sType/ResourceRef#"
            xmlns:stEvt="http://ns.adobe.com/xap/1.0/sType/ResourceEvent#">
         <xmpMM:OriginalDocumentID>uuid:9E3E5C9A8C81DB118734DB58FDDE4BA7</xmpMM:OriginalDocumentID>
         <xmpMM:DocumentID>xmp.did:FB7F117407206811822A8451A1857300</xmpMM:DocumentID>
         <xmpMM:InstanceID>xmp.iid:FB7F117407206811822A8451A1857300</xmpMM:InstanceID>
         <xmpMM:RenditionClass>proof:pdf</xmpMM:RenditionClass>
         <xmpMM:DerivedFrom rdf:parseType="Resource">
            <stRef:instanceID>xmp.iid:FA7F117407206811822A8451A1857300</stRef:instanceID>
            <stRef:documentID>xmp.did:FA7F117407206811822A8451A1857300</stRef:documentID>
            <stRef:originalDocumentID>uuid:9E3E5C9A8C81DB118734DB58FDDE4BA7</stRef:originalDocumentID>
            <stRef:renditionClass>proof:pdf</stRef:renditionClass>
         </xmpMM:DerivedFrom>
         <xmpMM:History>
            <rdf:Seq>
               <rdf:li rdf:parseType="Resource">
                  <stEvt:action>saved</stEvt:action>
                  <stEvt:instanceID>xmp.iid:F77F117407206811822A8451A1857300</stEvt:instanceID>
                  <stEvt:when>2013-10-06T17:09:14+13:00</stEvt:when>
                  <stEvt:softwareAgent>Adobe Illustrator CS6 (Macintosh)</stEvt:softwareAgent>
                  <stEvt:changed>/</stEvt:changed>
               </rdf:li>
               <rdf:li rdf:parseType="Resource">
                  <stEvt:action>saved</stEvt:action>
                  <stEvt:instanceID>xmp.iid:FB7F117407206811822A8451A1857300</stEvt:instanceID>
                  <stEvt:when>2013-10-06T17:36:56+13:00</stEvt:when>
                  <stEvt:softwareAgent>Adobe Illustrator CS6 (Macintosh)</stEvt:softwareAgent>
                  <stEvt:changed>/</stEvt:changed>
               </rdf:li>
            </rdf:Seq>
         </xmpMM:History>
      </rdf:Description>
      <rdf:Description rdf:about=""
            xmlns:xmpTPg="http://ns.adobe.com/xap/1.0/t/pg/"
            xmlns:stDim="http://ns.adobe.com/xap/1.0/sType/Dimensions#"
            xmlns:xmpG="http://ns.adobe.com/xap/1.0/g/">
         <xmpTPg:NPages>1</xmpTPg:NPages>
         <xmpTPg:HasVisibleTransparency>False</xmpTPg:HasVisibleTransparency>
         <xmpTPg:HasVisibleOverprint>False</xmpTPg:HasVisibleOverprint>
         <xmpTPg:MaxPageSize rdf:parseType="Resource">
            <stDim:w>209.999929</stDim:w>
            <stDim:h>210.001308</stDim:h>
            <stDim:unit>Millimeters</stDim:unit>
         </xmpTPg:MaxPageSize>
         <xmpTPg:PlateNames>
            <rdf:Seq>
               <rdf:li>Cyan</rdf:li>
               <rdf:li>Magenta</rdf:li>
               <rdf:li>Yellow</rdf:li>
               <rdf:li>Black</rdf:li>
            </rdf:Seq>
         </xmpTPg:PlateNames>
         <xmpTPg:SwatchGroups>
            <rdf:Seq>
               <rdf:li rdf:parseType="Resource">
                  <xmpG:groupName>Default Swatch Group</xmpG:groupName>
                  <xmpG:groupType>0</xmpG:groupType>
               </rdf:li>
            </rdf:Seq>
         </xmpTPg:SwatchGroups>
      </rdf:Description>
      <rdf:Description rdf:about=""
            xmlns:pdf="http://ns.adobe.com/pdf/1.3/">
         <pdf:Producer>Adobe PDF library 10.01</pdf:Producer>
      </rdf:Description>
      <rdf:Description rdf:about=""
            xmlns:xmpRights="http://ns.adobe.com/xap/1.0/rights/">
         <xmpRights:Marked>True</xmpRights:Marked>
         <xmpRights:WebStatement rdf:resource="http://www.ospreydawn.com"/>
         <xmpRights:UsageTerms>
            <rdf:Alt>
               <rdf:li xml:lang="x-default">This work is licensed under a &lt;a rel="license" href="http://creativecommons.org/licenses/by-nc-sa/3.0/"&gt;Creative Commons Attribution-NonCommercial-ShareAlike 3.0 Unported License&lt;/a&gt;.</rdf:li>
               <rdf:li xml:lang="en_us">This work is licensed under a &lt;a rel="license" href="http://creativecommons.org/licenses/by-nc-sa/3.0/"&gt;Creative Commons Attribution-NonCommercial-ShareAlike 3.0 Unported License&lt;/a&gt;.</rdf:li>
               <rdf:li xml:lang="en">This work is licensed under a &lt;a rel="license" href="http://creativecommons.org/licenses/by-nc-sa/3.0/"&gt;Creative Commons Attribution-NonCommercial-ShareAlike 3.0 Unported License&lt;/a&gt;.</rdf:li>
            </rdf:Alt>
         </xmpRights:UsageTerms>
      </rdf:Description>
      <rdf:Description rdf:about=""
            xmlns:cc="http://creativecommons.org/ns#">
         <cc:attributionName>Max O'Brien / Osprey Dawn</cc:attributionName>
         <cc:license rdf:resource="http://creativecommons.org/licenses/by-nc-sa/3.0/"/>
      </rdf:Description>
   </rdf:RDF>
</x:xmpmeta>
                                                                                                    
                                                                                                    
                                                                                                    
                                                                                                    
                                                                                                    
                                                                                                    
                                                                                                    
                                                                                                    
                                                                                                    
                                                                                                    
                                                                                                    
                                                                                                    
                                                                                                    
                                                                                                    
                                                                                                    
                                                                                                    
                                                                                                    
                                                                                                    
                                                                                                    
                                                                                                    
                           
<?xpacket end="w"?>
	</metadata>
<g id="Layer_2">
	<g id="_x37_Wl2mV_1_">
	</g>
</g>
<g id="Layer_1_1_">
	<g>
		<path fill="#940029" d="M297.637,538.59c-132.857,0-240.944-108.095-240.944-240.947C56.693,164.785,164.78,56.7,297.637,56.7
			c132.854,0,240.945,108.085,240.945,240.942C538.583,430.495,430.494,538.59,297.637,538.59z"/>
		<path d="M521.76,297.638c0,123.781-100.35,224.119-224.118,224.119c-123.777,0-224.119-100.338-224.119-224.119
			c0-123.776,100.342-224.117,224.119-224.117C421.411,73.521,521.76,173.861,521.76,297.638z"/>
		<g>
			<path fill="#FFFFFF" d="M302.791,371.371c0,0-2.577-2.062-5.148-2.062c-2.577,0-5.154,2.062-5.154,2.062
				s-21.646,15.46-21.646,45.102c0,29.633,21.646,43.545,21.646,43.545s2.577,2.062,5.154,2.062c2.571,0,5.148-2.062,5.148-2.062
				s21.646-13.912,21.646-43.545C324.438,386.831,302.791,371.371,302.791,371.371z M301.121,457.431l-0.128,0.081l-0.124,0.102
				c-0.571,0.443-2.132,1.386-3.229,1.386c-1.104,0-2.664-0.938-3.243-1.395l-0.112-0.093l-0.135-0.081
				c-0.822-0.536-20.231-13.463-20.231-40.963c0-27.731,20.15-42.446,20.354-42.6l0.136-0.102c0.568-0.443,2.129-1.386,3.232-1.386
				c1.101,0,2.655,0.938,3.238,1.395l0.121,0.093c0.197,0.147,20.357,14.984,20.357,42.6
				C321.36,443.969,301.947,456.895,301.121,457.431z"/>
			<polygon fill="#FFFFFF" points="302.327,404.117 302.327,401.857 298.767,401.857 298.767,397.928 296.506,397.928 
				296.506,401.857 292.944,401.857 292.944,404.117 296.506,404.117 296.506,406.094 292.944,406.094 292.944,408.353 
				296.506,408.353 296.506,410.325 292.944,410.325 292.944,412.592 296.506,412.592 296.506,414.563 292.944,414.563 
				292.944,416.823 296.506,416.823 296.506,418.802 292.944,418.802 292.944,421.06 296.506,421.06 296.506,423.032 
				292.944,423.032 292.944,425.299 296.506,425.299 296.506,427.268 292.944,427.268 292.944,429.528 296.506,429.528 
				296.506,433.463 298.767,433.463 298.767,429.528 302.327,429.528 302.327,427.268 298.767,427.268 298.767,425.299 
				302.327,425.299 302.327,423.032 298.767,423.032 298.767,421.06 302.327,421.06 302.327,418.802 298.767,418.802 
				298.767,416.823 302.327,416.823 302.327,414.563 298.767,414.563 298.767,412.592 302.327,412.592 302.327,410.325 
				298.767,410.325 298.767,408.353 302.327,408.353 302.327,406.094 298.767,406.094 298.767,404.117 			"/>
		</g>
		<g>
			<path fill="#CFB48C" d="M417.102,433.531L179.29,195.721c-7.741,8.51-20.438,24.337-28.09,43.174
				c-12.306,30.291-14.603,43.089-14.603,43.089s-2.44-18.484,7.025-48.778c6.044-19.338,19.274-36.602,27.319-45.826l-6.734-6.729
				l13.94-13.94l6.729,6.732c9.229-8.043,26.489-21.276,45.829-27.32c30.296-9.47,48.775-7.031,48.775-7.031
				s-12.797,2.303-43.089,14.607c-18.836,7.648-34.664,20.347-43.172,28.085l237.81,237.813L417.102,433.531z"/>
			
				<rect x="132.243" y="311.141" transform="matrix(-0.7071 -0.7071 0.7071 -0.7071 291.7468 745.2512)" fill="#FFFFFF" width="335.953" height="2.123"/>
			
				<rect x="139.53" y="300.431" transform="matrix(-0.7071 -0.7071 0.7071 -0.7071 311.362 736.2238)" fill="#755427" width="337.257" height="6.392"/>
			
				<rect x="164.975" y="181.053" transform="matrix(-0.7071 -0.7072 0.7072 -0.7071 160.7209 430.8098)" fill="#FFFFFF" width="9.237" height="2.123"/>
			
				<rect x="172.703" y="171.159" transform="matrix(-0.7074 -0.7068 0.7068 -0.7074 179.507 423.0254)" fill="#755427" width="9.23" height="6.393"/>
			<path fill="#FFFFFF" d="M136.597,281.985c0,0,2.521-43.796,25.521-77.492c23.001-33.697,44.146-43.528,44.146-43.528
				s-28.565,15.396-47.856,44.895C139.12,235.347,136.597,281.985,136.597,281.985z"/>
			<path fill="#755427" d="M279.491,139.087c0,0-45.276,8.813-75.386,30.6c-29.062,21.021-40.046,45.438-40.046,45.438
				s16.34-26.288,46.46-47.126C238.113,148.906,279.491,139.087,279.491,139.087z"/>
		</g>
		<rect x="291.867" y="306.15" transform="matrix(0.7071 -0.7071 0.7071 0.7071 -128.3536 306.8775)" width="28.78" height="4.45"/>
		
			<rect x="274.114" y="289.983" transform="matrix(0.7071 -0.7071 0.7071 0.7071 -122.1218 289.5884)" width="28.779" height="4.451"/>
		<g>
			<g>
				<path fill="#FFFFFF" d="M312.416,211.577c-6.623,0-13.158,0-19.688,0c0-5.038,0-10.008,0-15.015c4.42,0,8.834,0,13.251,0
					c0.287-0.729,0.331-1.521,0.108-2.315c-0.146-0.544-0.484-1.146-1.939-1.853c-0.104-0.057-0.215-0.104-0.321-0.15
					c-7.409,0-14.82,0-22.235,0c0,1.422,0,2.804,0,4.294c2.05,0,4.064,0,6.094,0c0,11.581,0,23.051,0,34.591
					c-2.058,0-4.061,0-6.076,0c0,1.475,0,2.872,0,4.268c5.768,0,11.479,0,17.212,0c0-1.438,0-2.821,0-4.303
					c-2.062,0-4.084,0-6.068,0c0-5.091,0-10.078,0-15.072c6.582,0,13.104,0,19.699,0c0,2.055,0,4.06,0,6.087c1.67,0,3.259,0,4.872,0
					c0-5.549,0-11.06,0-16.583c-1.641,0-3.226,0-4.9,0C312.416,207.57,312.416,209.568,312.416,211.577z"/>
				<path fill="#FFFFFF" d="M316.083,192.244c0.187,0.702,0.309,1.428,0.358,2.172c0.053,0.718,0.037,1.438-0.028,2.146
					c3.607,0,7.228,0,10.854,0c0,2.676,0,5.295,0,7.93c1.685,0,3.289,0,4.884,0c0-4.125,0-8.188,0-12.248
					C326.789,192.244,321.432,192.244,316.083,192.244z"/>
			</g>
			<g>
				<path fill="#FFFFFF" d="M273.956,184.897c3.372,1.488,6.979,1.98,10.604,2.308c4.626,0.412,9.261,0.689,13.886,1.108
					c2.362,0.214,4.704,0.645,6.866,1.697c1.548,0.753,2.854,1.762,3.342,3.527c0.729,2.644-0.271,5.357-2.646,7.067
					c-2.725,1.969-5.896,2.633-9.142,3.015c-0.495,0.062-0.991,0.108-1.486,0.151v4.364c1.626-0.131,3.246-0.349,4.859-0.655
					c3.546-0.688,6.912-1.812,9.797-4.119c4.869-3.896,5.548-12.405-0.963-16.201c-3.006-1.752-6.31-2.583-9.681-2.992
					c-4.479-0.545-8.99-0.767-13.484-1.143c-2.851-0.239-5.711-0.447-8.444-1.389c-1.812-0.624-3.487-1.486-4.419-3.277
					c-1.271-2.463-0.604-5.834,1.521-7.812c2.271-2.118,5.141-2.884,8.1-3.305c3.935-0.561,7.874-0.542,11.792,0.149
					c3.423,0.604,6.626,1.729,9.271,4.106c1.854,1.674,3.14,3.739,4.114,6.018c0.098,0.213,0.281,0.542,0.437,0.546
					c1.479,0.041,2.968,0.021,4.446,0.021c0-4.823,0-9.531,0-14.237c-1.649,0-3.234,0-4.907,0c0,2.255,0,4.452,0,6.65
					c-0.062,0.032-0.125,0.064-0.188,0.103c-0.062-0.113-0.105-0.235-0.188-0.335c-3.146-4.021-7.367-6.168-12.312-7.078
					c-4.53-0.835-9.089-0.831-13.642-0.237c-3.535,0.461-6.896,1.457-9.775,3.708c-3.802,2.969-5.299,8.351-3.51,12.816
					C269.278,182.173,271.407,183.774,273.956,184.897z"/>
				<path fill="#FFFFFF" d="M285.027,203.56c-0.195-0.024-0.396-0.046-0.59-0.073c-3.271-0.457-6.283-1.547-8.865-3.693
					c-2.096-1.738-3.523-3.938-4.56-6.43c-0.104-0.251-0.35-0.627-0.535-0.635c-1.457-0.053-2.917-0.028-4.381-0.028
					c0,4.833,0,9.548,0,14.284c1.646,0,3.25,0,4.922,0c0-2.208,0-4.361,0-6.626c0.819,0.896,1.492,1.723,2.268,2.434
					c0.795,0.729,1.647,1.413,2.555,1.997c2.827,1.824,5.95,2.664,9.188,3.088L285.027,203.56L285.027,203.56z"/>
			</g>
		</g>
		<g>
			<g>
				<path fill="#FFFFFF" d="M402.928,304.677c0.743,1.609,1.396,3.339,2.312,4.914c1.18,2.04,3.274,2.786,5.488,2.213
					c1.788-0.466,2.994-2.087,3.227-4.333c0.028-0.272,0.066-0.545,0.109-0.877c0.926,0,1.788,0,2.646,0
					c0.753,3.085-1.704,6.789-5.062,7.642c-4.242,1.081-7.896-0.707-9.737-4.796c-0.627-1.385-1.149-2.815-1.792-4.193
					c-0.148-0.323-0.562-0.758-0.869-0.764c-2.916-0.059-5.834-0.035-8.812-0.035c0,2.27,0,4.411,0,6.729c1.146,0,2.289,0,3.495,0
					c0,0.912,0,1.659,0,2.506c-3.314,0-6.648,0-10.043,0c0-0.778,0-1.527,0-2.42c1.139,0,2.271,0,3.49,0c0-6.823,0-13.511,0-20.323
					c-1.104,0-2.244,0-3.469,0c0-0.912,0-1.691,0-2.562c0.284-0.021,0.591-0.077,0.897-0.077c6.46-0.005,12.921-0.062,19.378,0.04
					c1.646,0.025,3.377,0.333,4.913,0.917c3.521,1.345,5.103,4.063,4.872,7.831c-0.197,3.231-2.327,5.866-5.724,6.771
					C406.616,304.289,404.876,304.387,402.928,304.677z M390.434,301.928c4.872,0,9.604,0.035,14.344-0.029
					c0.978-0.013,1.988-0.288,2.919-0.623c2.143-0.771,3.358-2.558,3.396-4.761c0.038-2.266-1.049-4.086-3.183-4.896
					c-1.137-0.432-2.402-0.683-3.617-0.707c-4.171-0.084-8.348-0.033-12.521-0.033c-0.431-0.001-0.854,0-1.336,0
					C390.434,294.623,390.434,298.219,390.434,301.928z"/>
				<path fill="#FFFFFF" d="M353.361,311.161c6.769,0,13.46,0,20.301,0c0-1.521,0-3.021,0-4.579c1.021,0,1.884,0,2.841,0
					c0,2.354,0,4.689,0,7.113c-9.875,0-19.753,0-29.691,0c0-0.786,0-1.534,0-2.427c1.13,0,2.266,0,3.481,0
					c0-6.826,0-13.514,0-20.327c-1.1,0-2.232,0-3.461,0c0-0.911,0-1.691,0-2.562c9.856,0,19.74,0,29.69,0c0,2.376,0,4.729,0,7.146
					c-0.919,0-1.819,0-2.819,0c0-1.535,0-3.004,0-4.562c-6.812,0-13.532,0-20.335,0c0,2.9,0,5.807,0,8.77c3.837,0,7.631,0,11.569,0
					c0-1.15,0-2.291,0-3.499c1.006,0,1.872,0,2.84,0c0,3.188,0,6.372,0,9.644c-0.868,0-1.771,0-2.772,0c0-1.146,0-2.256,0-3.467
					c-3.924,0-7.747,0-11.644,0C353.361,305.271,353.361,308.139,353.361,311.161z"/>
				<path fill="#FFFFFF" d="M450.511,296.678c-0.406,0.021-0.729,0.007-1.035,0.059c-1.124,0.184-1.788-0.193-2.286-1.306
					c-0.885-1.977-2.433-3.396-4.473-4.146c-4.124-1.521-8.312-1.592-12.489-0.229c-0.666,0.217-1.324,0.601-1.875,1.045
					c-2.348,1.898-1.904,5.599,0.968,6.442c2.536,0.744,5.261,0.879,7.91,1.259c2.884,0.414,5.791,0.719,8.663,1.229
					c1.722,0.312,3.246,1.194,4.298,2.658c0.325,0.453,0.508,1.075,0.574,1.64c0.736,6.267-2.562,7.362-6.623,8.467
					c-3.814,1.025-7.709,0.968-11.567,0.156c-2.542-0.524-4.7-1.791-6.495-4.145c0,1.467,0,2.626,0,3.878c-1.025,0-1.931,0-2.901,0
					c0-2.736,0-5.479,0-8.342c0.748,0,1.464-0.056,2.168,0.021c0.275,0.031,0.664,0.292,0.769,0.548
					c1.536,3.64,4.423,5.387,8.188,5.812c3.081,0.351,6.183,0.41,9.208-0.396c1.099-0.297,2.224-0.761,3.146-1.403
					c2.562-1.807,2.218-5.254-0.729-6.229c-2.209-0.727-4.608-0.917-6.939-1.225c-2.938-0.393-5.895-0.62-8.834-0.993
					c-0.779-0.098-1.539-0.424-2.284-0.71c-5.208-1.99-4.688-8.207-1.753-10.392c1.402-1.042,3.109-1.854,4.81-2.283
					c2.929-0.742,5.946-0.678,8.96-0.188c3.026,0.489,5.604,1.776,7.769,4.378c0-1.476,0-2.653,0-3.913c1.005,0,1.901,0,2.872,0
					C450.511,291.13,450.511,293.839,450.511,296.678z"/>
			</g>
		</g>
		<g>
			<path fill="#FFFFFF" d="M243.237,298.692c-10.754,6.729-21.479,6.035-32.273,2.492c-4.615-1.521-7.516-4.979-7.886-10.046
				c-0.38-5.181,1.96-8.997,6.356-11.521c5.513-3.162,11.618-3.636,17.771-3.237c2.947,0.189,5.948,0.771,8.757,1.688
				c5.751,1.886,9.321,5.979,10.729,11.893c1.271,5.326,1.078,10.639-0.53,15.851c-2.362,7.644-8.792,12.409-17.708,13.078
				c-5.055,0.377-10.062-0.043-14.866-1.824c-5.775-2.146-9.312-6.199-10.348-12.499c1.53,0,2.963,0,4.618,0
				c0.644,3.23,2.354,5.887,5.268,7.672c4.229,2.587,8.94,2.737,13.682,2.62c6.317-0.159,11.449-2.561,14.229-8.51
				C242.097,304.077,242.46,301.482,243.237,298.692z M225.166,299.928c0.021-0.153,0.039-0.312,0.062-0.461
				c1.464,0,2.936,0.086,4.393-0.021c4.388-0.305,8.595-1.185,11.868-4.441c0.488-0.482,0.979-1.255,0.984-1.896
				c0.044-4.763-3.114-9.479-7.574-11.188c-1.767-0.675-3.654-1.188-5.525-1.354c-5.729-0.509-11.469-0.564-16.812,2.094
				c-2.242,1.113-3.947,2.803-4.587,5.318c-1.237,4.865,1.024,8.839,6.315,10.233C217.82,299.144,221.534,299.385,225.166,299.928z"
				/>
			<path fill="#FFFFFF" d="M192.611,302.186c0,1.467,0,2.701,0,4.096c-1.866,0-3.63,0-5.521,0c0,2.537,0,4.915,0,7.479
				c1.844,0,3.604,0,5.493,0c0,1.401,0,2.634,0,3.974c-5.273,0-10.526,0-15.884,0c0-1.254,0-2.438,0-3.865c1.803,0,3.607,0,5.532,0
				c0-2.562,0-4.896,0-7.49c-11.378,0-22.801,0-34.246,0c-0.481-2.562-0.222-4.274,2.062-5.862
				c10.146-7.054,20.162-14.275,30.104-21.604c2.145-1.58,4.247-1.626,6.771-1.428c0,8.225,0,16.353,0,24.71
				C188.906,302.186,190.715,302.186,192.611,302.186z M182.21,302.124c0-6.576,0-12.957,0-19.583
				c-9.111,6.529-18.019,12.907-27.342,19.583C164.334,302.124,173.223,302.124,182.21,302.124z"/>
		</g>
		<g>
			<path fill="#CFB48C" d="M164.06,419.594L401.871,181.78c-8.511-7.74-24.338-20.437-43.175-28.09
				c-30.291-12.304-43.09-14.604-43.09-14.604s18.48-2.438,48.779,7.031c19.338,6.044,36.601,19.274,45.821,27.319l6.731-6.734
				l13.941,13.94l-6.733,6.729c8.043,9.229,21.277,26.488,27.32,45.829c9.469,30.297,7.028,48.776,7.028,48.776
				s-2.301-12.796-14.604-43.089c-7.648-18.836-20.347-34.664-28.085-43.175L177.995,433.525L164.06,419.594z"/>
			
				<rect x="117.41" y="301.649" transform="matrix(0.7071 -0.7071 0.7071 0.7071 -130.4608 290.463)" fill="#FFFFFF" width="335.957" height="2.124"/>
			
				<rect x="125.338" y="307.455" transform="matrix(0.7071 -0.7071 0.7071 0.7071 -133.5627 298.8533)" fill="#755427" width="337.257" height="6.392"/>
			
				<rect x="410.84" y="171.03" transform="matrix(0.707 -0.7072 0.7072 0.707 0.0236 344.2391)" fill="#FFFFFF" width="9.235" height="2.123"/>
			
				<rect x="418.622" y="176.65" transform="matrix(0.7069 -0.7073 0.7073 0.7069 -3.1563 352.0782)" fill="#755427" width="9.231" height="6.396"/>
			<path fill="#FFFFFF" d="M315.607,139.087c0,0,43.797,2.522,77.493,25.524c33.696,23.001,43.527,44.146,43.527,44.146
				s-15.396-28.562-44.896-47.854C362.245,141.611,315.607,139.087,315.607,139.087z"/>
			<path fill="#755427" d="M458.509,281.981c0,0-8.813-45.274-30.601-75.385c-21.021-29.062-45.438-40.05-45.438-40.05
				s26.283,16.344,47.127,46.459C448.685,240.604,458.509,281.981,458.509,281.981z"/>
		</g>
		<g>
			<path fill="#CFB48C" d="M297.637,88.002c-115.78,0-209.645,93.858-209.645,209.641s93.858,209.633,209.645,209.633
				c115.772,0,209.636-93.852,209.636-209.633S413.415,88.002,297.637,88.002z M297.637,492.089
				c-107.396,0-194.448-87.059-194.448-194.446c0-107.395,87.058-194.444,194.448-194.444c107.387,0,194.439,87.055,194.439,194.444
				C492.082,405.031,405.024,492.089,297.637,492.089z"/>
			<path fill="#755427" d="M460.177,165.233c0,0-6.896,2.412-4.931,13.021c25.242,33.188,40.25,74.562,40.25,119.386
				c0,108.958-88.644,197.601-197.602,197.601c-44.504,0-85.613-14.794-118.688-39.714c-8.924-1.096-16.062,2.938-16.062,2.938
				c36.396,30.47,83.3,48.811,134.479,48.811c115.777,0,209.641-93.852,209.641-209.632
				C507.273,247.424,489.618,201.332,460.177,165.233z"/>
			<path fill="#FFFFFF" d="M107.933,233.902c40.854-108.933,160.049-165.597,269.604-130.029c-2.062-0.848-4.131-1.676-6.229-2.462
				C262.9,60.752,142.058,115.673,101.402,224.076C80.33,280.264,84.94,339.785,109.359,389.76
				C90.24,341.525,88.278,286.309,107.933,233.902z"/>
		</g>
		<g>
			<path fill="#FFFFFF" d="M215.17,414.361c-0.538,0-1.062,0-1.604,0c0-0.386,0-0.742,0-1.119c4.475,0,8.933,0,13.408,0
				c0,1.078,0,2.146,0,3.234c-0.416,0-0.835,0-1.286,0c0-0.692,0-1.382,0-2.093c-3.065,0-6.104,0-9.16,0c0,1.331,0,2.646,0,3.982
				c1.738,0,3.458,0,5.219,0c0-0.527,0-1.062,0-1.608c0.449,0,0.861,0,1.294,0c0,1.461,0,2.919,0,4.392c-0.426,0-0.836,0-1.273,0
				c0-0.533,0-1.059,0-1.604c-1.765,0-3.486,0-5.233,0c0,1.316,0,2.638,0,3.977c3.036,0,6.071,0,9.14,0c0-0.681,0-1.37,0-2.087
				c0.448,0,0.868,0,1.311,0c0,1.078,0,2.151,0,3.241c-4.472,0-8.933,0-13.406,0c0-0.368,0-0.729,0-1.116c0.536,0,1.062,0,1.605,0
				C215.17,420.488,215.17,417.453,215.17,414.361z"/>
			<path fill="#FFFFFF" d="M231.623,422.975c0,0.557,0,1.113,0,1.693c-0.438,0-0.854,0-1.297,0c0-1.241,0-2.481,0-3.771
				c0.383,0,0.771-0.014,1.158,0.015c0.072,0.003,0.146,0.18,0.194,0.281c0.515,1.188,1.374,2.003,2.611,2.348
				c0.646,0.183,1.321,0.264,1.989,0.311c1.271,0.087,2.537,0.031,3.744-0.412c0.408-0.15,0.812-0.388,1.131-0.684
				c0.836-0.788,0.635-2.096-0.416-2.539c-0.608-0.267-1.285-0.408-1.944-0.487c-1.312-0.153-2.646-0.184-3.968-0.342
				c-0.784-0.102-1.575-0.272-2.32-0.533c-2.438-0.854-2.201-3.759-0.677-4.881c0.74-0.545,1.572-0.82,2.468-0.947
				c1.24-0.177,2.484-0.18,3.724,0.043c1.33,0.24,2.467,0.832,3.35,1.988c0-0.646,0-1.211,0-1.803c0.453,0,0.873,0,1.312,0
				c0,1.24,0,2.483,0,3.771c-0.375,0-0.76,0.006-1.14-0.009c-0.055,0-0.128-0.093-0.15-0.156c-0.728-1.788-2.176-2.536-3.979-2.745
				c-1.287-0.146-2.565-0.127-3.812,0.308c-0.604,0.2-1.126,0.524-1.417,1.134c-0.436,0.89-0.138,1.788,0.745,2.229
				c0.646,0.33,1.355,0.429,2.07,0.486c1.438,0.131,2.877,0.206,4.309,0.395c0.709,0.096,1.418,0.316,2.073,0.603
				c0.969,0.409,1.562,1.146,1.594,2.25c0.021,1.052-0.438,1.854-1.31,2.432c-0.861,0.576-1.849,0.826-2.857,0.959
				c-1.309,0.168-2.607,0.168-3.907-0.061C233.598,424.609,232.488,424.05,231.623,422.975z"/>
			<path fill="#FFFFFF" d="M258.255,413.244c0,1.087,0,2.153,0,3.237c-0.434,0-0.854,0-1.294,0c0-0.701,0-1.385,0-2.093
				c-1.522,0-3.037,0-4.568,0c0,3.029,0,6.075,0,9.146c0.52,0,1.043,0,1.594,0c0,0.397,0,0.769,0,1.146c-1.513,0-3.021,0-4.54,0
				c0-0.368,0-0.733,0-1.125c0.521,0,1.042,0,1.583,0c0-3.069,0-6.112,0-9.173c-1.509,0-3.009,0-4.544,0c0,0.695,0,1.391,0,2.098
				c-0.445,0-0.855,0-1.294,0c0-1.075,0-2.146,0-3.234C249.535,413.244,253.879,413.244,258.255,413.244z"/>
			<path fill="#FFFFFF" d="M259.847,423.867c0,0.438-0.355,0.794-0.801,0.794c-0.438,0-0.796-0.354-0.796-0.794
				c0-0.438,0.354-0.798,0.796-0.798C259.491,423.07,259.847,423.427,259.847,423.867z"/>
		</g>
		<g>
			<path fill="#FFFFFF" d="M383.698,415.014c0-0.621,0-1.163,0-1.719c0.452,0,0.867,0,1.3,0c0,1.269,0,2.519,0,3.811
				c-0.377,0-0.729,0.009-1.087-0.006c-0.072-0.003-0.178-0.084-0.203-0.153c-0.782-2.062-2.414-2.785-4.47-2.835
				c-0.882-0.02-1.747,0.065-2.567,0.427c-1.507,0.66-2.273,1.866-2.536,3.449c-0.024,0.177-0.049,0.354-0.062,0.533
				c-0.006,0.081,0,0.165,0,0.217c0.495-0.284,0.975-0.62,1.498-0.852c0.922-0.409,1.913-0.511,2.913-0.545
				c1.539-0.047,3.062,0.066,4.521,0.605c1.32,0.493,2.274,1.333,2.437,2.82c0.174,1.617-0.556,2.768-1.938,3.536
				c-0.896,0.498-1.878,0.713-2.885,0.809c-1.364,0.133-2.729,0.109-4.065-0.261c-2.064-0.574-3.322-1.916-3.688-4.041
				c-0.243-1.446-0.184-2.887,0.325-4.283c0.73-2.021,2.232-3.107,4.301-3.462c1.336-0.227,2.669-0.176,3.972,0.276
				c0.807,0.279,1.464,0.754,2.011,1.396C383.521,414.811,383.582,414.885,383.698,415.014z M379.075,418.415
				c-0.004,0.023-0.01,0.052-0.013,0.069c-0.623,0.041-1.246,0.053-1.862,0.122c-1.11,0.127-2.118,0.492-2.891,1.354
				c-0.098,0.104-0.188,0.271-0.171,0.396c0.174,1.658,1.012,2.979,2.788,3.415c1.38,0.342,2.771,0.321,4.174,0.106
				c0.762-0.118,1.479-0.359,2.111-0.823c1.205-0.869,1.37-3.063-0.302-3.886c-0.273-0.143-0.562-0.293-0.864-0.346
				C381.063,418.673,380.069,418.552,379.075,418.415z"/>
			<path fill="#FFFFFF" d="M341.979,421.027c0.408,0,0.788-0.006,1.171,0.009c0.062,0,0.175,0.084,0.188,0.147
				c0.434,1.679,1.646,2.423,3.229,2.691c1.104,0.187,2.219,0.236,3.321-0.013c1.896-0.433,3.146-1.829,3.38-3.771
				c0.03-0.24,0.053-0.483,0.087-0.791c-1.635,1.411-3.551,1.521-5.495,1.479c-1.274-0.023-2.532-0.204-3.716-0.714
				c-1.327-0.562-2.162-1.519-2.203-3.022c-0.04-1.487,0.691-2.521,1.954-3.223c0.896-0.499,1.878-0.719,2.881-0.812
				c1.522-0.145,3.04-0.116,4.511,0.396c1.77,0.616,2.837,1.854,3.208,3.684c0.287,1.4,0.25,2.812-0.168,4.188
				c-0.658,2.165-2.174,3.399-4.354,3.771c-1.688,0.281-3.37,0.177-4.993-0.414C343.294,424.032,342.286,422.848,341.979,421.027z
				 M348.315,419.719c0.006-0.022,0.01-0.043,0.016-0.063c0.632-0.04,1.271-0.049,1.896-0.127c1.104-0.137,2.118-0.502,2.881-1.368
				c0.084-0.096,0.168-0.252,0.153-0.368c-0.209-1.592-0.892-2.942-2.814-3.432c-1.367-0.342-2.75-0.305-4.136-0.104
				c-0.688,0.104-1.35,0.316-1.941,0.688c-1.448,0.898-1.588,3.234,0.206,4.069c0.258,0.119,0.523,0.252,0.803,0.296
				C346.352,419.467,347.335,419.58,348.315,419.719z"/>
			<path fill="#FFFFFF" d="M368.082,413.277c0,2.396,0,4.735,0,7.112c0.559,0,1.078,0,1.623,0c0,0.395,0,0.757,0,1.156
				c-0.536,0-1.059,0-1.604,0c0,0.719,0,1.403,0,2.145c0.521,0,1.052,0,1.604,0c0,0.4,0,0.754,0,1.14c-1.521,0-3.049,0-4.598,0
				c0-0.354,0-0.722,0-1.116c0.536,0,1.059,0,1.604,0c0-0.728,0-1.411,0-2.145c-3.268,0-6.541,0-9.875,0
				c0-0.389-0.011-0.745,0.014-1.096c0.003-0.072,0.096-0.156,0.169-0.209c3.188-2.292,6.379-4.585,9.565-6.872
				c0.081-0.062,0.189-0.108,0.289-0.112C367.258,413.269,367.641,413.277,368.082,413.277z M366.722,414.732
				c-2.646,1.896-5.229,3.741-7.878,5.64c2.685,0,5.271,0,7.878,0C366.722,418.51,366.722,416.658,366.722,414.732z"/>
			<path fill="#FFFFFF" d="M335.979,416.508c-0.576,0.153-1.146,0.312-1.759,0.479c0-0.461,0-0.826,0-1.188
				c1.762-0.449,2.101-0.812,2.31-2.5c0.244,0,0.49,0,0.783,0c0,3.456,0,6.905,0,10.396c0.562,0,1.089,0,1.641,0
				c0,0.397,0,0.76,0,1.146c-1.52,0-3.037,0-4.576,0c0-0.368,0-0.73,0-1.122c0.526,0,1.057,0,1.604,0
				C335.979,421.273,335.979,418.859,335.979,416.508z"/>
		</g>
	</g>
</g>
<g>
	<path fill="#BDC2BC" d="M534.992,588.913c-0.738,0-1.339-0.602-1.339-1.341v-16.588c0-0.739,0.601-1.339,1.339-1.339h52.498
		c0.738,0,1.339,0.6,1.339,1.339v16.588c0,0.739-0.601,1.341-1.339,1.341H534.992z"/>
	<g>
		<path d="M558.028,571.51c-2.725,0-4.935,2.21-4.935,4.934c0,2.729,2.21,4.938,4.935,4.938c2.728,0,4.938-2.21,4.938-4.938
			C562.965,573.719,560.756,571.51,558.028,571.51z"/>
		<path fill="#FFFFFF" d="M558.028,580.461c-2.219,0-4.015-1.798-4.015-4.019c0-2.217,1.797-4.014,4.015-4.014
			c2.219,0,4.019,1.798,4.019,4.014C562.047,578.664,560.247,580.461,558.028,580.461z"/>
		<g>
			<path d="M559.403,575.293c0-0.219-0.182-0.398-0.399-0.398h-1.951c-0.22,0-0.401,0.181-0.401,0.398v1.985h0.528v2.338h1.693
				v-2.338h0.528L559.403,575.293L559.403,575.293z"/>
			<path d="M558.696,573.942c0,0.37-0.3,0.668-0.667,0.668c-0.371,0-0.671-0.299-0.671-0.668s0.302-0.67,0.671-0.67
				C558.396,573.272,558.696,573.571,558.696,573.942z"/>
		</g>
	</g>
	<path d="M587.176,569.198h-51.868c-1.157,0-2.102,0.943-2.102,2.102v15.96c0,1.158,0.943,2.1,2.102,2.1h51.868
		c1.157,0,2.101-0.94,2.101-2.1V571.3C589.275,570.141,588.333,569.198,587.176,569.198z M588.645,583.375H550.78
		c-1.477,2.809-4.418,4.725-7.81,4.725c-3.394,0-6.333-1.916-7.809-4.725h-1.327V571.3c0-0.812,0.659-1.471,1.471-1.471h51.869
		c0.811,0,1.471,0.658,1.471,1.471V583.375L588.645,583.375z"/>
	<g>
		<path fill="#FFFFFF" d="M557.774,584.933c0.1,0.14,0.149,0.302,0.149,0.495c0,0.198-0.051,0.357-0.151,0.479
			c-0.057,0.066-0.139,0.131-0.249,0.187c0.168,0.061,0.294,0.155,0.378,0.289c0.084,0.13,0.127,0.289,0.127,0.477
			c0,0.192-0.049,0.365-0.145,0.519c-0.062,0.104-0.14,0.188-0.231,0.256c-0.103,0.078-0.224,0.137-0.368,0.164
			c-0.141,0.028-0.295,0.043-0.459,0.043h-1.467v-3.256h1.574C557.327,584.594,557.608,584.706,557.774,584.933z M556.009,585.151
			v0.717h0.791c0.143,0,0.257-0.026,0.345-0.08s0.132-0.147,0.132-0.286c0-0.15-0.058-0.248-0.175-0.301
			c-0.1-0.033-0.228-0.05-0.383-0.05H556.009L556.009,585.151z M556.009,586.407v0.869h0.79c0.142,0,0.25-0.02,0.327-0.058
			c0.146-0.071,0.217-0.206,0.217-0.407c0-0.17-0.069-0.285-0.208-0.35c-0.076-0.034-0.187-0.056-0.326-0.056L556.009,586.407
			L556.009,586.407z"/>
		<path fill="#FFFFFF" d="M560.469,584.586h0.771l-1.089,2.034v1.222h-0.681v-1.222l-1.127-2.034h0.801l0.676,1.418L560.469,584.586
			z"/>
	</g>
	<g>
		<g>
			<path fill="#FFFFFF" d="M566.518,584.426h0.775l1.404,2.473v-2.473h0.692v3.545h-0.743l-1.441-2.517v2.517h-0.689
				L566.518,584.426L566.518,584.426z"/>
			<path fill="#FFFFFF" d="M570.426,584.797c0.284-0.292,0.647-0.437,1.09-0.437c0.59,0,1.02,0.195,1.295,0.587
				c0.149,0.221,0.229,0.439,0.242,0.661h-0.741c-0.048-0.17-0.106-0.299-0.183-0.384c-0.132-0.153-0.328-0.229-0.587-0.229
				c-0.264,0-0.472,0.107-0.622,0.324c-0.152,0.219-0.229,0.525-0.229,0.923c0,0.399,0.08,0.696,0.24,0.895
				c0.162,0.197,0.365,0.299,0.615,0.299c0.252,0,0.446-0.086,0.58-0.256c0.073-0.09,0.136-0.229,0.184-0.41h0.736
				c-0.066,0.387-0.227,0.699-0.486,0.943c-0.262,0.241-0.594,0.36-1.003,0.36c-0.505,0-0.9-0.163-1.189-0.489
				c-0.288-0.328-0.435-0.777-0.435-1.353C569.93,585.607,570.096,585.133,570.426,584.797z"/>
		</g>
	</g>
	<g>
		<path fill="#FFFFFF" d="M578.517,586.944c0.024,0.173,0.073,0.303,0.146,0.389c0.132,0.154,0.354,0.233,0.672,0.233
			c0.191,0,0.348-0.021,0.466-0.062c0.225-0.078,0.338-0.226,0.338-0.438c0-0.125-0.056-0.223-0.166-0.291
			c-0.113-0.066-0.285-0.126-0.525-0.178l-0.411-0.088c-0.401-0.093-0.679-0.188-0.828-0.294c-0.255-0.173-0.384-0.448-0.384-0.819
			c0-0.339,0.126-0.619,0.375-0.846c0.25-0.224,0.617-0.336,1.102-0.336c0.402,0,0.749,0.104,1.034,0.315
			c0.284,0.213,0.436,0.521,0.45,0.922h-0.762c-0.014-0.227-0.118-0.387-0.306-0.484c-0.126-0.065-0.283-0.096-0.473-0.096
			c-0.209,0-0.375,0.041-0.499,0.122c-0.126,0.083-0.188,0.196-0.188,0.346c0,0.135,0.062,0.236,0.186,0.303
			c0.079,0.043,0.246,0.096,0.502,0.155l0.664,0.156c0.293,0.068,0.514,0.162,0.655,0.276c0.227,0.179,0.34,0.435,0.34,0.771
			c0,0.351-0.134,0.637-0.4,0.863c-0.269,0.229-0.646,0.344-1.134,0.344c-0.5,0-0.891-0.112-1.177-0.339
			c-0.286-0.224-0.431-0.536-0.431-0.929L578.517,586.944L578.517,586.944z"/>
		<path fill="#FFFFFF" d="M582.542,584.325h0.896l1.341,3.791h-0.858l-0.25-0.778h-1.396l-0.254,0.778h-0.828L582.542,584.325z
			 M582.487,586.681h0.971l-0.479-1.49L582.487,586.681z"/>
	</g>
	<g>
		<circle cx="542.95" cy="579.28" r="7.771"/>
		<circle fill="#FFFFFF" cx="542.95" cy="579.278" r="6.322"/>
		<g>
			<path d="M542.597,578.348l-1.188,0.215c-0.04-0.237-0.131-0.416-0.272-0.537c-0.143-0.119-0.325-0.178-0.55-0.178
				c-0.302,0-0.538,0.104-0.72,0.31c-0.18,0.204-0.269,0.555-0.269,1.038c0,0.539,0.091,0.921,0.271,1.146
				c0.183,0.223,0.426,0.332,0.73,0.332c0.228,0,0.416-0.064,0.561-0.195c0.146-0.131,0.25-0.354,0.312-0.67l1.182,0.199
				c-0.123,0.545-0.354,0.954-0.707,1.229c-0.348,0.276-0.814,0.416-1.399,0.416c-0.668,0-1.197-0.21-1.594-0.629
				c-0.396-0.42-0.592-1.004-0.592-1.746c0-0.75,0.197-1.337,0.594-1.754c0.397-0.42,0.936-0.627,1.612-0.627
				c0.556,0,0.996,0.118,1.322,0.355C542.219,577.497,542.454,577.86,542.597,578.348z"/>
			<path d="M547.478,578.348l-1.187,0.215c-0.039-0.237-0.132-0.416-0.273-0.537c-0.143-0.119-0.326-0.178-0.551-0.178
				c-0.302,0-0.539,0.104-0.72,0.31c-0.178,0.204-0.268,0.555-0.268,1.038c0,0.539,0.09,0.921,0.271,1.146
				c0.183,0.223,0.427,0.332,0.73,0.332c0.229,0,0.417-0.064,0.562-0.195c0.145-0.131,0.25-0.354,0.309-0.67l1.184,0.199
				c-0.123,0.545-0.356,0.954-0.708,1.229c-0.349,0.276-0.814,0.416-1.401,0.416c-0.667,0-1.196-0.21-1.591-0.629
				c-0.396-0.42-0.593-1.004-0.593-1.746c0-0.75,0.196-1.337,0.595-1.754c0.396-0.42,0.934-0.627,1.612-0.627
				c0.554,0,0.994,0.118,1.322,0.355C547.1,577.497,547.338,577.86,547.478,578.348z"/>
		</g>
	</g>
	<g>
		<path d="M569.93,571.719c-2.61,0-4.726,2.115-4.726,4.726c0,2.612,2.114,4.729,4.726,4.729c2.613,0,4.729-2.113,4.729-4.729
			C574.659,573.834,572.547,571.719,569.93,571.719z"/>
		<circle fill="#FFFFFF" cx="569.93" cy="576.447" r="3.846"/>
		
			<rect x="569.455" y="571.913" transform="matrix(0.4221 -0.9066 0.9066 0.4221 -193.1653 849.7755)" width="0.923" height="8.958"/>
		<g>
			<path d="M569.581,579.151v-0.637c-0.444-0.013-0.877-0.14-1.129-0.277l0.197-0.776c0.279,0.153,0.671,0.292,1.102,0.292
				c0.381,0,0.645-0.151,0.645-0.409c0-0.252-0.222-0.41-0.708-0.578c-0.712-0.238-1.197-0.568-1.197-1.215
				c0-0.59,0.412-1.047,1.123-1.181v-0.631h0.649v0.584c0.443,0.015,0.743,0.115,0.968,0.222l-0.199,0.748
				c-0.166-0.079-0.477-0.232-0.953-0.232c-0.434,0-0.571,0.193-0.571,0.381c0,0.212,0.231,0.356,0.797,0.564
				c0.797,0.276,1.108,0.643,1.108,1.246c0,0.591-0.411,1.09-1.182,1.221v0.684L569.581,579.151L569.581,579.151z"/>
		</g>
	</g>
	<g>
		<path d="M581.186,571.784c-2.572,0-4.661,2.086-4.661,4.658c0,2.576,2.089,4.665,4.661,4.665c2.575,0,4.664-2.089,4.664-4.665
			C585.852,573.87,583.761,571.784,581.186,571.784z"/>
		<path fill="#FFFFFF" d="M581.186,580.238c-2.092,0-3.79-1.698-3.79-3.794c0-2.091,1.696-3.79,3.79-3.79
			c2.096,0,3.793,1.696,3.793,3.79S583.282,580.238,581.186,580.238z"/>
		<path d="M581.186,573.885c-1.016,0-1.874,0.733-2.182,1.746h-0.293l0.932,1.016l0.93-1.016h-0.348
			c0.215-0.37,0.563-0.616,0.959-0.616c0.65,0,1.18,0.646,1.18,1.443c0,0.793-0.528,1.44-1.18,1.44c-0.432,0-0.809-0.289-1.016-0.72
			h-1.196c0.278,1.068,1.168,1.854,2.214,1.854c1.274,0,2.312-1.155,2.312-2.576C583.497,575.034,582.465,573.885,581.186,573.885z"
			/>
	</g>
</g>
<g>
	<path d="M11.392,587.469c-0.653,0-1.248-0.14-1.786-0.41c-0.538-0.273-1.002-0.631-1.39-1.072
		c-0.388-0.439-0.688-0.948-0.899-1.521C7.106,583.889,7,583.302,7,582.703c0-0.626,0.114-1.225,0.338-1.798
		c0.226-0.573,0.533-1.08,0.927-1.521c0.393-0.441,0.856-0.791,1.396-1.053c0.538-0.261,1.119-0.39,1.746-0.39
		c0.653,0,1.248,0.138,1.786,0.416c0.539,0.277,0.999,0.643,1.383,1.09c0.382,0.45,0.682,0.959,0.893,1.529
		c0.213,0.568,0.317,1.144,0.317,1.726c0,0.637-0.112,1.24-0.337,1.812c-0.226,0.573-0.534,1.079-0.926,1.515
		c-0.394,0.438-0.855,0.785-1.39,1.045C12.598,587.338,12.018,587.469,11.392,587.469z M7.675,582.703
		c0,0.538,0.091,1.057,0.271,1.556c0.181,0.498,0.437,0.938,0.769,1.322c0.33,0.384,0.723,0.691,1.177,0.921
		c0.456,0.229,0.956,0.344,1.502,0.344c0.563,0,1.071-0.117,1.527-0.355c0.454-0.238,0.846-0.555,1.17-0.947
		c0.328-0.391,0.578-0.834,0.755-1.327c0.176-0.494,0.265-0.996,0.265-1.511c0-0.537-0.092-1.057-0.277-1.555
		c-0.185-0.498-0.443-0.938-0.773-1.322c-0.331-0.385-0.724-0.69-1.179-0.92c-0.454-0.229-0.949-0.345-1.486-0.345
		c-0.564,0-1.076,0.118-1.536,0.356c-0.458,0.237-0.85,0.555-1.17,0.944c-0.322,0.396-0.571,0.837-0.748,1.331
		C7.762,581.69,7.675,582.192,7.675,582.703z"/>
	<path d="M23.14,579.567c-0.608-0.679-1.47-1.019-2.58-1.019c-0.918,0-1.587,0.175-2.006,0.521
		c-0.417,0.351-0.628,0.818-0.628,1.408c0,0.301,0.054,0.553,0.159,0.754c0.106,0.203,0.271,0.374,0.495,0.511
		c0.226,0.137,0.512,0.255,0.86,0.356s0.761,0.2,1.237,0.298c0.512,0.106,0.97,0.223,1.377,0.351
		c0.404,0.129,0.75,0.289,1.037,0.484c0.287,0.194,0.509,0.434,0.663,0.715c0.153,0.281,0.231,0.631,0.231,1.044
		c0,0.414-0.082,0.776-0.245,1.086c-0.163,0.311-0.393,0.565-0.688,0.774c-0.296,0.207-0.648,0.363-1.059,0.469
		s-0.866,0.159-1.37,0.159c-1.463,0-2.704-0.468-3.716-1.402l0.356-0.542c0.396,0.414,0.882,0.742,1.457,0.984
		c0.573,0.242,1.217,0.364,1.93,0.364c0.822,0,1.462-0.149,1.926-0.45c0.462-0.301,0.695-0.754,0.695-1.362
		c0-0.308-0.06-0.57-0.179-0.788c-0.118-0.216-0.302-0.402-0.55-0.562c-0.247-0.158-0.554-0.295-0.919-0.41
		c-0.364-0.114-0.796-0.223-1.29-0.329c-0.503-0.105-0.945-0.218-1.329-0.338c-0.384-0.118-0.708-0.269-0.972-0.45
		c-0.264-0.18-0.463-0.397-0.595-0.653c-0.132-0.257-0.199-0.578-0.199-0.967c0-0.423,0.082-0.798,0.245-1.124
		c0.163-0.325,0.391-0.602,0.682-0.825c0.291-0.227,0.64-0.396,1.044-0.513c0.406-0.112,0.854-0.17,1.351-0.17
		c0.608,0,1.15,0.09,1.627,0.271c0.476,0.181,0.909,0.458,1.296,0.827L23.14,579.567z"/>
	<path d="M25.734,587.399v-9.393h3.863c0.396,0,0.763,0.085,1.098,0.251c0.335,0.167,0.624,0.39,0.867,0.669
		c0.242,0.276,0.432,0.591,0.568,0.938c0.138,0.351,0.204,0.7,0.204,1.053c0,0.382-0.063,0.747-0.191,1.099
		c-0.128,0.354-0.31,0.666-0.542,0.938c-0.232,0.273-0.512,0.492-0.833,0.655c-0.323,0.163-0.683,0.245-1.078,0.245h-3.281v3.545
		H25.734L25.734,587.399z M26.408,583.231h3.241c0.309,0,0.586-0.062,0.833-0.19s0.456-0.3,0.629-0.516
		c0.171-0.217,0.303-0.463,0.396-0.741c0.093-0.276,0.14-0.565,0.14-0.866c0-0.31-0.056-0.603-0.165-0.88
		c-0.11-0.277-0.26-0.521-0.45-0.733s-0.41-0.381-0.661-0.503c-0.252-0.123-0.519-0.187-0.801-0.187h-3.162L26.408,583.231
		L26.408,583.231z"/>
	<path d="M33.962,587.399v-9.393h3.917c0.396,0,0.764,0.085,1.098,0.251c0.335,0.167,0.622,0.39,0.859,0.669
		c0.238,0.276,0.426,0.591,0.563,0.938c0.137,0.351,0.204,0.7,0.204,1.053c0,0.345-0.054,0.678-0.159,0.999
		c-0.106,0.323-0.254,0.61-0.45,0.866c-0.194,0.256-0.428,0.468-0.7,0.636c-0.273,0.17-0.572,0.277-0.899,0.331l2.341,3.65h-0.781
		l-2.275-3.545h-3.042v3.545H33.962z M34.636,583.231h3.295c0.299,0,0.571-0.063,0.819-0.196c0.247-0.132,0.458-0.306,0.636-0.521
		c0.177-0.217,0.312-0.463,0.403-0.741c0.093-0.278,0.141-0.562,0.141-0.853c0-0.302-0.056-0.591-0.166-0.867
		s-0.261-0.522-0.45-0.734c-0.189-0.211-0.409-0.381-0.662-0.51c-0.251-0.127-0.523-0.193-0.814-0.193h-3.201V583.231z"/>
	<path d="M48.899,586.793v0.606h-6.258v-9.393h6.139v0.608h-5.464v3.689h4.775v0.582h-4.775v3.903h5.583V586.793z"/>
	<path d="M50.421,578.008l3.281,5.198l3.308-5.198h0.742l-3.706,5.848v3.545h-0.673v-3.572l-3.69-5.819L50.421,578.008
		L50.421,578.008z"/>
	<path d="M59.126,587.399v-9.393h3.122c0.741,0,1.392,0.123,1.951,0.37c0.561,0.248,1.025,0.582,1.396,1.007
		c0.371,0.424,0.647,0.92,0.834,1.487c0.185,0.567,0.277,1.174,0.277,1.819c0,0.714-0.104,1.36-0.311,1.938
		c-0.208,0.577-0.505,1.07-0.894,1.48c-0.388,0.41-0.857,0.729-1.41,0.953c-0.552,0.224-1.167,0.338-1.845,0.338H59.126
		L59.126,587.399z M66.031,582.69c0-0.592-0.084-1.137-0.252-1.635c-0.167-0.498-0.411-0.931-0.733-1.291
		c-0.322-0.359-0.718-0.644-1.185-0.847c-0.466-0.202-1.005-0.305-1.614-0.305H59.8v8.178h2.447c0.616,0,1.162-0.104,1.633-0.312
		c0.473-0.206,0.866-0.496,1.185-0.865c0.316-0.371,0.559-0.805,0.723-1.303C65.95,583.812,66.031,583.272,66.031,582.69z"/>
	<path d="M67.288,587.399l3.995-9.393h0.556l3.997,9.393h-0.728l-1.311-3.096h-4.484l-1.311,3.096H67.288z M71.562,578.827
		l-2.091,4.923h4.142L71.562,578.827z"/>
	<path d="M80.148,578.073h0.662l1.401,3.413l1.403-3.413h0.661l-1.654,3.955l1.971,4.578l3.6-8.6h0.742l-4.023,9.393H84.29
		l-2.063-4.828l-2.077,4.828h-0.622l-4.008-9.393h0.728l3.612,8.6l1.945-4.578L80.148,578.073z"/>
	<path d="M91.049,579.277v8.123h-0.675v-9.394h0.517l6.589,8.27v-8.256h0.675v9.38h-0.622L91.049,579.277z"/>
	<path d="M100.297,587.399v-1.125h0.583v1.125H100.297z"/>
	<path d="M102.4,582.637c0-0.564,0.099-1.127,0.298-1.688c0.198-0.561,0.486-1.061,0.866-1.502c0.379-0.44,0.844-0.801,1.396-1.078
		c0.553-0.276,1.181-0.418,1.887-0.418c0.838,0,1.552,0.193,2.144,0.576c0.59,0.384,1.027,0.877,1.309,1.475l-0.556,0.319
		c-0.159-0.327-0.351-0.6-0.576-0.821c-0.224-0.221-0.466-0.397-0.727-0.535s-0.533-0.235-0.814-0.299
		c-0.283-0.062-0.562-0.092-0.834-0.092c-0.6,0-1.129,0.121-1.588,0.363c-0.458,0.243-0.847,0.559-1.164,0.946
		c-0.316,0.387-0.557,0.825-0.722,1.314c-0.164,0.49-0.245,0.982-0.245,1.477c0,0.556,0.097,1.086,0.291,1.589
		c0.195,0.502,0.459,0.944,0.795,1.328c0.334,0.383,0.73,0.69,1.19,0.92c0.458,0.229,0.951,0.344,1.48,0.344
		c0.282,0,0.571-0.035,0.866-0.105c0.296-0.069,0.583-0.18,0.86-0.33c0.277-0.149,0.536-0.342,0.774-0.575
		c0.238-0.232,0.437-0.511,0.594-0.826l0.569,0.276c-0.159,0.353-0.372,0.666-0.642,0.939c-0.271,0.273-0.57,0.502-0.906,0.688
		c-0.336,0.186-0.689,0.323-1.065,0.416c-0.375,0.092-0.742,0.14-1.104,0.14c-0.644,0-1.233-0.143-1.766-0.423
		c-0.534-0.283-0.995-0.65-1.383-1.105c-0.387-0.454-0.689-0.971-0.905-1.548C102.509,583.825,102.4,583.238,102.4,582.637z"/>
	<path d="M115.882,587.469c-0.652,0-1.247-0.14-1.785-0.41c-0.538-0.273-1.001-0.631-1.39-1.072
		c-0.388-0.439-0.688-0.948-0.898-1.521c-0.212-0.572-0.318-1.16-0.318-1.761c0-0.626,0.113-1.225,0.338-1.797
		c0.224-0.573,0.534-1.081,0.926-1.521c0.394-0.441,0.858-0.793,1.396-1.053c0.539-0.261,1.121-0.392,1.747-0.392
		c0.651,0,1.247,0.139,1.786,0.417c0.538,0.276,0.999,0.643,1.381,1.091c0.384,0.449,0.682,0.959,0.893,1.529
		c0.212,0.566,0.317,1.143,0.317,1.725c0,0.637-0.112,1.24-0.336,1.812c-0.226,0.574-0.535,1.078-0.927,1.515
		c-0.393,0.438-0.854,0.785-1.39,1.046C117.087,587.338,116.508,587.469,115.882,587.469z M112.164,582.703
		c0,0.538,0.09,1.057,0.271,1.556c0.181,0.498,0.436,0.938,0.767,1.322s0.724,0.691,1.178,0.921s0.954,0.344,1.501,0.344
		c0.565,0,1.074-0.117,1.528-0.355c0.455-0.238,0.845-0.555,1.171-0.947c0.326-0.391,0.578-0.834,0.754-1.327
		c0.175-0.494,0.265-0.996,0.265-1.511c0-0.537-0.094-1.057-0.278-1.555c-0.186-0.498-0.444-0.938-0.774-1.322
		c-0.331-0.385-0.724-0.69-1.178-0.92c-0.455-0.229-0.95-0.345-1.488-0.345c-0.563,0-1.075,0.118-1.533,0.356
		c-0.459,0.237-0.851,0.555-1.172,0.944c-0.321,0.396-0.57,0.837-0.747,1.331C112.252,581.69,112.164,582.192,112.164,582.703z"/>
	<path d="M130.659,587.399v-8.122l-3.705,6.337h-0.423l-3.704-6.337v8.123h-0.675v-9.394h0.675l3.916,6.721l3.916-6.721h0.675v9.394
		L130.659,587.399L130.659,587.399z"/>
</g>
</svg>
